solid OpenSCAD_Model
  facet normal 1 -0 0
    outer loop
      vertex 65 -25 37.5
      vertex 65 25 -37.5
      vertex 65 25 37.5
    endloop
  endfacet
  facet normal 1 0 0
    outer loop
      vertex 65 25 -37.5
      vertex 65 -25 37.5
      vertex 65 -25 -37.5
    endloop
  endfacet
  facet normal 0 0 1
    outer loop
      vertex 65 25 37.5
      vertex 64 24 37.5
      vertex 65 -25 37.5
    endloop
  endfacet
  facet normal 0 0 1
    outer loop
      vertex 65 25 37.5
      vertex -64 24 37.5
      vertex 64 24 37.5
    endloop
  endfacet
  facet normal 0 0 1
    outer loop
      vertex -64 24 37.5
      vertex -65 25 37.5
      vertex -64 -24 37.5
    endloop
  endfacet
  facet normal -0 0 1
    outer loop
      vertex -65 25 37.5
      vertex -64 24 37.5
      vertex 65 25 37.5
    endloop
  endfacet
  facet normal -0 0 1
    outer loop
      vertex 64 -24 37.5
      vertex 65 -25 37.5
      vertex 64 24 37.5
    endloop
  endfacet
  facet normal -0 0 1
    outer loop
      vertex -64 -24 37.5
      vertex 65 -25 37.5
      vertex 64 -24 37.5
    endloop
  endfacet
  facet normal 0 0 1
    outer loop
      vertex -64 -24 37.5
      vertex -65 -25 37.5
      vertex 65 -25 37.5
    endloop
  endfacet
  facet normal 0 0 1
    outer loop
      vertex -65 -25 37.5
      vertex -64 -24 37.5
      vertex -65 25 37.5
    endloop
  endfacet
  facet normal 0 0 -1
    outer loop
      vertex -65 -25 -37.5
      vertex 65 25 -37.5
      vertex 65 -25 -37.5
    endloop
  endfacet
  facet normal -0 0 -1
    outer loop
      vertex 65 25 -37.5
      vertex -65 -25 -37.5
      vertex -65 25 -37.5
    endloop
  endfacet
  facet normal -1 0 0
    outer loop
      vertex -65 -25 -37.5
      vertex -65 25 37.5
      vertex -65 25 -37.5
    endloop
  endfacet
  facet normal -1 -0 0
    outer loop
      vertex -65 25 37.5
      vertex -65 -25 -37.5
      vertex -65 -25 37.5
    endloop
  endfacet
  facet normal 0 1 -0
    outer loop
      vertex 65 25 -37.5
      vertex -65 25 37.5
      vertex 65 25 37.5
    endloop
  endfacet
  facet normal 0 1 0
    outer loop
      vertex -65 25 37.5
      vertex 65 25 -37.5
      vertex -65 25 -37.5
    endloop
  endfacet
  facet normal 0 -1 0
    outer loop
      vertex -65 -25 -37.5
      vertex 65 -25 37.5
      vertex -65 -25 37.5
    endloop
  endfacet
  facet normal 0 -1 -0
    outer loop
      vertex 65 -25 37.5
      vertex -65 -25 -37.5
      vertex 65 -25 -37.5
    endloop
  endfacet
  facet normal -1 0 0
    outer loop
      vertex 64 -24 -36.5
      vertex 64 24 37.5
      vertex 64 24 -36.5
    endloop
  endfacet
  facet normal -1 -0 0
    outer loop
      vertex 64 24 37.5
      vertex 64 -24 -36.5
      vertex 64 -24 37.5
    endloop
  endfacet
  facet normal -0 0 1
    outer loop
      vertex -64 24 -36.5
      vertex 64 -24 -36.5
      vertex 64 24 -36.5
    endloop
  endfacet
  facet normal 0 0 1
    outer loop
      vertex 64 -24 -36.5
      vertex -64 24 -36.5
      vertex -64 -24 -36.5
    endloop
  endfacet
  facet normal 1 -0 0
    outer loop
      vertex -64 -24 37.5
      vertex -64 24 -36.5
      vertex -64 24 37.5
    endloop
  endfacet
  facet normal 1 0 0
    outer loop
      vertex -64 24 -36.5
      vertex -64 -24 37.5
      vertex -64 -24 -36.5
    endloop
  endfacet
  facet normal 0 -1 0
    outer loop
      vertex -64 24 -36.5
      vertex 64 24 37.5
      vertex -64 24 37.5
    endloop
  endfacet
  facet normal 0 -1 -0
    outer loop
      vertex 64 24 37.5
      vertex -64 24 -36.5
      vertex 64 24 -36.5
    endloop
  endfacet
  facet normal 0 1 -0
    outer loop
      vertex 64 -24 -36.5
      vertex -64 -24 37.5
      vertex 64 -24 37.5
    endloop
  endfacet
  facet normal 0 1 0
    outer loop
      vertex -64 -24 37.5
      vertex 64 -24 -36.5
      vertex -64 -24 -36.5
    endloop
  endfacet
endsolid OpenSCAD_Model
