solid OpenSCAD_Model
  facet normal 1 -0 0
    outer loop
      vertex 115 -50 2.5
      vertex 115 50 -2.5
      vertex 115 50 2.5
    endloop
  endfacet
  facet normal 1 0 0
    outer loop
      vertex 115 50 -2.5
      vertex 115 -50 2.5
      vertex 115 -50 -2.5
    endloop
  endfacet
  facet normal 0 0 1
    outer loop
      vertex 115 50 2.5
      vertex 109 2.5 2.5
      vertex 115 -50 2.5
    endloop
  endfacet
  facet normal 0 0 1
    outer loop
      vertex 115 50 2.5
      vertex 97 2.5 2.5
      vertex 109 2.5 2.5
    endloop
  endfacet
  facet normal 0 0 1
    outer loop
      vertex 97 2.5 2.5
      vertex -97 2.5 2.5
      vertex 97 -2.5 2.5
    endloop
  endfacet
  facet normal 0 0 1
    outer loop
      vertex 115 50 2.5
      vertex -97 2.5 2.5
      vertex 97 2.5 2.5
    endloop
  endfacet
  facet normal -0 0 1
    outer loop
      vertex -115 50 2.5
      vertex -97 2.5 2.5
      vertex 115 50 2.5
    endloop
  endfacet
  facet normal 0 0 1
    outer loop
      vertex -109 2.5 2.5
      vertex -115 50 2.5
      vertex -109 -2.5 2.5
    endloop
  endfacet
  facet normal 0 0 1
    outer loop
      vertex -97 2.5 2.5
      vertex -115 50 2.5
      vertex -109 2.5 2.5
    endloop
  endfacet
  facet normal -0 0 1
    outer loop
      vertex 109 -2.5 2.5
      vertex 115 -50 2.5
      vertex 109 2.5 2.5
    endloop
  endfacet
  facet normal -0 0 1
    outer loop
      vertex 97 -2.5 2.5
      vertex 115 -50 2.5
      vertex 109 -2.5 2.5
    endloop
  endfacet
  facet normal 0 0 1
    outer loop
      vertex -97 -2.5 2.5
      vertex 97 -2.5 2.5
      vertex -97 2.5 2.5
    endloop
  endfacet
  facet normal 0 0 1
    outer loop
      vertex 97 -2.5 2.5
      vertex -97 -2.5 2.5
      vertex 115 -50 2.5
    endloop
  endfacet
  facet normal 0 0 1
    outer loop
      vertex -115 -50 2.5
      vertex -97 -2.5 2.5
      vertex -109 -2.5 2.5
    endloop
  endfacet
  facet normal 0 0 1
    outer loop
      vertex -97 -2.5 2.5
      vertex -115 -50 2.5
      vertex 115 -50 2.5
    endloop
  endfacet
  facet normal 0 0 1
    outer loop
      vertex -115 -50 2.5
      vertex -109 -2.5 2.5
      vertex -115 50 2.5
    endloop
  endfacet
  facet normal 0 0 -1
    outer loop
      vertex 115 -50 -2.5
      vertex 109 -2.5 -2.5
      vertex 115 50 -2.5
    endloop
  endfacet
  facet normal 0 0 -1
    outer loop
      vertex 115 -50 -2.5
      vertex 97 -2.5 -2.5
      vertex 109 -2.5 -2.5
    endloop
  endfacet
  facet normal 0 0 -1
    outer loop
      vertex 97 -2.5 -2.5
      vertex -97 -2.5 -2.5
      vertex 97 2.5 -2.5
    endloop
  endfacet
  facet normal 0 0 -1
    outer loop
      vertex 115 -50 -2.5
      vertex -97 -2.5 -2.5
      vertex 97 -2.5 -2.5
    endloop
  endfacet
  facet normal 0 0 -1
    outer loop
      vertex -115 -50 -2.5
      vertex -97 -2.5 -2.5
      vertex 115 -50 -2.5
    endloop
  endfacet
  facet normal -0 0 -1
    outer loop
      vertex -109 -2.5 -2.5
      vertex -115 -50 -2.5
      vertex -109 2.5 -2.5
    endloop
  endfacet
  facet normal -0 0 -1
    outer loop
      vertex -97 -2.5 -2.5
      vertex -115 -50 -2.5
      vertex -109 -2.5 -2.5
    endloop
  endfacet
  facet normal 0 0 -1
    outer loop
      vertex 109 2.5 -2.5
      vertex 115 50 -2.5
      vertex 109 -2.5 -2.5
    endloop
  endfacet
  facet normal 0 0 -1
    outer loop
      vertex 97 2.5 -2.5
      vertex 115 50 -2.5
      vertex 109 2.5 -2.5
    endloop
  endfacet
  facet normal 0 0 -1
    outer loop
      vertex -97 2.5 -2.5
      vertex 97 2.5 -2.5
      vertex -97 -2.5 -2.5
    endloop
  endfacet
  facet normal 0 0 -1
    outer loop
      vertex 97 2.5 -2.5
      vertex -97 2.5 -2.5
      vertex 115 50 -2.5
    endloop
  endfacet
  facet normal 0 0 -1
    outer loop
      vertex -115 50 -2.5
      vertex -97 2.5 -2.5
      vertex -109 2.5 -2.5
    endloop
  endfacet
  facet normal 0 0 -1
    outer loop
      vertex -97 2.5 -2.5
      vertex -115 50 -2.5
      vertex 115 50 -2.5
    endloop
  endfacet
  facet normal 0 0 -1
    outer loop
      vertex -115 50 -2.5
      vertex -109 2.5 -2.5
      vertex -115 -50 -2.5
    endloop
  endfacet
  facet normal -1 0 0
    outer loop
      vertex -115 -50 -2.5
      vertex -115 50 2.5
      vertex -115 50 -2.5
    endloop
  endfacet
  facet normal -1 -0 0
    outer loop
      vertex -115 50 2.5
      vertex -115 -50 -2.5
      vertex -115 -50 2.5
    endloop
  endfacet
  facet normal 0 1 -0
    outer loop
      vertex 115 50 -2.5
      vertex -115 50 2.5
      vertex 115 50 2.5
    endloop
  endfacet
  facet normal 0 1 0
    outer loop
      vertex -115 50 2.5
      vertex 115 50 -2.5
      vertex -115 50 -2.5
    endloop
  endfacet
  facet normal 0 -1 0
    outer loop
      vertex -115 -50 -2.5
      vertex 115 -50 2.5
      vertex -115 -50 2.5
    endloop
  endfacet
  facet normal 0 -1 -0
    outer loop
      vertex 115 -50 2.5
      vertex -115 -50 -2.5
      vertex 115 -50 -2.5
    endloop
  endfacet
  facet normal -1 0 0
    outer loop
      vertex -97 -2.5 -2.5
      vertex -97 2.5 2.5
      vertex -97 2.5 -2.5
    endloop
  endfacet
  facet normal -1 -0 0
    outer loop
      vertex -97 2.5 2.5
      vertex -97 -2.5 -2.5
      vertex -97 -2.5 2.5
    endloop
  endfacet
  facet normal 1 -0 0
    outer loop
      vertex -109 -2.5 2.5
      vertex -109 2.5 -2.5
      vertex -109 2.5 2.5
    endloop
  endfacet
  facet normal 1 0 0
    outer loop
      vertex -109 2.5 -2.5
      vertex -109 -2.5 2.5
      vertex -109 -2.5 -2.5
    endloop
  endfacet
  facet normal 0 -1 0
    outer loop
      vertex -109 2.5 -2.5
      vertex -97 2.5 2.5
      vertex -109 2.5 2.5
    endloop
  endfacet
  facet normal 0 -1 -0
    outer loop
      vertex -97 2.5 2.5
      vertex -109 2.5 -2.5
      vertex -97 2.5 -2.5
    endloop
  endfacet
  facet normal 0 1 -0
    outer loop
      vertex -97 -2.5 -2.5
      vertex -109 -2.5 2.5
      vertex -97 -2.5 2.5
    endloop
  endfacet
  facet normal 0 1 0
    outer loop
      vertex -109 -2.5 2.5
      vertex -97 -2.5 -2.5
      vertex -109 -2.5 -2.5
    endloop
  endfacet
  facet normal -1 0 0
    outer loop
      vertex 109 -2.5 -2.5
      vertex 109 2.5 2.5
      vertex 109 2.5 -2.5
    endloop
  endfacet
  facet normal -1 -0 0
    outer loop
      vertex 109 2.5 2.5
      vertex 109 -2.5 -2.5
      vertex 109 -2.5 2.5
    endloop
  endfacet
  facet normal 1 -0 0
    outer loop
      vertex 97 -2.5 2.5
      vertex 97 2.5 -2.5
      vertex 97 2.5 2.5
    endloop
  endfacet
  facet normal 1 0 0
    outer loop
      vertex 97 2.5 -2.5
      vertex 97 -2.5 2.5
      vertex 97 -2.5 -2.5
    endloop
  endfacet
  facet normal 0 -1 0
    outer loop
      vertex 97 2.5 -2.5
      vertex 109 2.5 2.5
      vertex 97 2.5 2.5
    endloop
  endfacet
  facet normal 0 -1 -0
    outer loop
      vertex 109 2.5 2.5
      vertex 97 2.5 -2.5
      vertex 109 2.5 -2.5
    endloop
  endfacet
  facet normal 0 1 -0
    outer loop
      vertex 109 -2.5 -2.5
      vertex 97 -2.5 2.5
      vertex 109 -2.5 2.5
    endloop
  endfacet
  facet normal 0 1 0
    outer loop
      vertex 97 -2.5 2.5
      vertex 109 -2.5 -2.5
      vertex 97 -2.5 -2.5
    endloop
  endfacet
endsolid OpenSCAD_Model
