solid OpenSCAD_Model
  facet normal 1 -0 0
    outer loop
      vertex 75 -60 30
      vertex 75 60 -30
      vertex 75 60 30
    endloop
  endfacet
  facet normal 1 0 0
    outer loop
      vertex 75 60 -30
      vertex 75 -60 30
      vertex 75 -60 -30
    endloop
  endfacet
  facet normal 0 0 1
    outer loop
      vertex 75 60 30
      vertex 72.5 57.5 30
      vertex 75 -60 30
    endloop
  endfacet
  facet normal 0 0 1
    outer loop
      vertex 75 60 30
      vertex -72.5 57.5 30
      vertex 72.5 57.5 30
    endloop
  endfacet
  facet normal 0 0 1
    outer loop
      vertex -72.5 57.5 30
      vertex -75 60 30
      vertex -72.5 -57.5 30
    endloop
  endfacet
  facet normal -0 0 1
    outer loop
      vertex -75 60 30
      vertex -72.5 57.5 30
      vertex 75 60 30
    endloop
  endfacet
  facet normal -0 0 1
    outer loop
      vertex 72.5 -57.5 30
      vertex 75 -60 30
      vertex 72.5 57.5 30
    endloop
  endfacet
  facet normal -0 0 1
    outer loop
      vertex -72.5 -57.5 30
      vertex 75 -60 30
      vertex 72.5 -57.5 30
    endloop
  endfacet
  facet normal 0 0 1
    outer loop
      vertex -72.5 -57.5 30
      vertex -75 -60 30
      vertex 75 -60 30
    endloop
  endfacet
  facet normal 0 0 1
    outer loop
      vertex -75 -60 30
      vertex -72.5 -57.5 30
      vertex -75 60 30
    endloop
  endfacet
  facet normal 0 0 -1
    outer loop
      vertex -75 -60 -30
      vertex 75 60 -30
      vertex 75 -60 -30
    endloop
  endfacet
  facet normal -0 0 -1
    outer loop
      vertex 75 60 -30
      vertex -75 -60 -30
      vertex -75 60 -30
    endloop
  endfacet
  facet normal -1 0 0
    outer loop
      vertex -75 -60 -30
      vertex -75 60 30
      vertex -75 60 -30
    endloop
  endfacet
  facet normal -1 -0 0
    outer loop
      vertex -75 60 30
      vertex -75 -60 -30
      vertex -75 -60 30
    endloop
  endfacet
  facet normal 0 1 -0
    outer loop
      vertex 75 60 -30
      vertex -75 60 30
      vertex 75 60 30
    endloop
  endfacet
  facet normal 0 1 0
    outer loop
      vertex -75 60 30
      vertex 75 60 -30
      vertex -75 60 -30
    endloop
  endfacet
  facet normal 0 -1 0
    outer loop
      vertex -75 -60 -30
      vertex 75 -60 30
      vertex -75 -60 30
    endloop
  endfacet
  facet normal 0 -1 -0
    outer loop
      vertex 75 -60 30
      vertex -75 -60 -30
      vertex 75 -60 -30
    endloop
  endfacet
  facet normal -1 0 0
    outer loop
      vertex 72.5 -57.5 -27.5
      vertex 72.5 57.5 30
      vertex 72.5 57.5 -27.5
    endloop
  endfacet
  facet normal -1 -0 0
    outer loop
      vertex 72.5 57.5 30
      vertex 72.5 -57.5 -27.5
      vertex 72.5 -57.5 30
    endloop
  endfacet
  facet normal -0 0 1
    outer loop
      vertex -72.5 57.5 -27.5
      vertex 72.5 -57.5 -27.5
      vertex 72.5 57.5 -27.5
    endloop
  endfacet
  facet normal 0 0 1
    outer loop
      vertex 72.5 -57.5 -27.5
      vertex -72.5 57.5 -27.5
      vertex -72.5 -57.5 -27.5
    endloop
  endfacet
  facet normal 1 -0 0
    outer loop
      vertex -72.5 -57.5 30
      vertex -72.5 57.5 -27.5
      vertex -72.5 57.5 30
    endloop
  endfacet
  facet normal 1 0 0
    outer loop
      vertex -72.5 57.5 -27.5
      vertex -72.5 -57.5 30
      vertex -72.5 -57.5 -27.5
    endloop
  endfacet
  facet normal 0 -1 0
    outer loop
      vertex -72.5 57.5 -27.5
      vertex 72.5 57.5 30
      vertex -72.5 57.5 30
    endloop
  endfacet
  facet normal 0 -1 -0
    outer loop
      vertex 72.5 57.5 30
      vertex -72.5 57.5 -27.5
      vertex 72.5 57.5 -27.5
    endloop
  endfacet
  facet normal 0 1 -0
    outer loop
      vertex 72.5 -57.5 -27.5
      vertex -72.5 -57.5 30
      vertex 72.5 -57.5 30
    endloop
  endfacet
  facet normal 0 1 0
    outer loop
      vertex -72.5 -57.5 30
      vertex 72.5 -57.5 -27.5
      vertex -72.5 -57.5 -27.5
    endloop
  endfacet
endsolid OpenSCAD_Model
