solid OpenSCAD_Model
  facet normal 0.997859 0.0654088 0
    outer loop
      vertex 34 0 67.5
      vertex 33.7091 4.43789 -67.5
      vertex 33.7091 4.43789 67.5
    endloop
  endfacet
  facet normal 0.997859 0.0654088 0
    outer loop
      vertex 33.7091 4.43789 -67.5
      vertex 34 0 67.5
      vertex 34 0 -67.5
    endloop
  endfacet
  facet normal 0.980787 0.19508 0
    outer loop
      vertex 33.7091 4.43789 67.5
      vertex 32.8415 8.79985 -67.5
      vertex 32.8415 8.79985 67.5
    endloop
  endfacet
  facet normal 0.980787 0.19508 0
    outer loop
      vertex 32.8415 8.79985 -67.5
      vertex 33.7091 4.43789 67.5
      vertex 33.7091 4.43789 -67.5
    endloop
  endfacet
  facet normal 0.946927 0.321447 0
    outer loop
      vertex 32.8415 8.79985 67.5
      vertex 31.4119 13.0112 -67.5
      vertex 31.4119 13.0112 67.5
    endloop
  endfacet
  facet normal 0.946927 0.321447 0
    outer loop
      vertex 31.4119 13.0112 -67.5
      vertex 32.8415 8.79985 67.5
      vertex 32.8415 8.79985 -67.5
    endloop
  endfacet
  facet normal 0.896878 0.442278 0
    outer loop
      vertex 31.4119 13.0112 67.5
      vertex 29.4449 17 -67.5
      vertex 29.4449 17 67.5
    endloop
  endfacet
  facet normal 0.896878 0.442278 0
    outer loop
      vertex 29.4449 17 -67.5
      vertex 31.4119 13.0112 67.5
      vertex 31.4119 13.0112 -67.5
    endloop
  endfacet
  facet normal 0.831465 0.555577 0
    outer loop
      vertex 29.4449 17 67.5
      vertex 26.974 20.6979 -67.5
      vertex 26.974 20.6979 67.5
    endloop
  endfacet
  facet normal 0.831465 0.555577 0
    outer loop
      vertex 26.974 20.6979 -67.5
      vertex 29.4449 17 67.5
      vertex 29.4449 17 -67.5
    endloop
  endfacet
  facet normal 0.751834 0.659353 0
    outer loop
      vertex 26.974 20.6979 67.5
      vertex 24.0416 24.0416 -67.5
      vertex 24.0416 24.0416 67.5
    endloop
  endfacet
  facet normal 0.751834 0.659353 0
    outer loop
      vertex 24.0416 24.0416 -67.5
      vertex 26.974 20.6979 67.5
      vertex 26.974 20.6979 -67.5
    endloop
  endfacet
  facet normal 0.659353 0.751834 -0
    outer loop
      vertex 24.0416 24.0416 -67.5
      vertex 20.6979 26.974 67.5
      vertex 24.0416 24.0416 67.5
    endloop
  endfacet
  facet normal 0.659353 0.751834 0
    outer loop
      vertex 20.6979 26.974 67.5
      vertex 24.0416 24.0416 -67.5
      vertex 20.6979 26.974 -67.5
    endloop
  endfacet
  facet normal 0.555577 0.831465 -0
    outer loop
      vertex 20.6979 26.974 -67.5
      vertex 17 29.4449 67.5
      vertex 20.6979 26.974 67.5
    endloop
  endfacet
  facet normal 0.555577 0.831465 0
    outer loop
      vertex 17 29.4449 67.5
      vertex 20.6979 26.974 -67.5
      vertex 17 29.4449 -67.5
    endloop
  endfacet
  facet normal 0.442278 0.896878 -0
    outer loop
      vertex 17 29.4449 -67.5
      vertex 13.0112 31.4119 67.5
      vertex 17 29.4449 67.5
    endloop
  endfacet
  facet normal 0.442278 0.896878 0
    outer loop
      vertex 13.0112 31.4119 67.5
      vertex 17 29.4449 -67.5
      vertex 13.0112 31.4119 -67.5
    endloop
  endfacet
  facet normal 0.321447 0.946927 -0
    outer loop
      vertex 13.0112 31.4119 -67.5
      vertex 8.79985 32.8415 67.5
      vertex 13.0112 31.4119 67.5
    endloop
  endfacet
  facet normal 0.321447 0.946927 0
    outer loop
      vertex 8.79985 32.8415 67.5
      vertex 13.0112 31.4119 -67.5
      vertex 8.79985 32.8415 -67.5
    endloop
  endfacet
  facet normal 0.19508 0.980787 -0
    outer loop
      vertex 8.79985 32.8415 -67.5
      vertex 4.43789 33.7091 67.5
      vertex 8.79985 32.8415 67.5
    endloop
  endfacet
  facet normal 0.19508 0.980787 0
    outer loop
      vertex 4.43789 33.7091 67.5
      vertex 8.79985 32.8415 -67.5
      vertex 4.43789 33.7091 -67.5
    endloop
  endfacet
  facet normal 0.0654088 0.997859 -0
    outer loop
      vertex 4.43789 33.7091 -67.5
      vertex 0 34 67.5
      vertex 4.43789 33.7091 67.5
    endloop
  endfacet
  facet normal 0.0654088 0.997859 0
    outer loop
      vertex 0 34 67.5
      vertex 4.43789 33.7091 -67.5
      vertex 0 34 -67.5
    endloop
  endfacet
  facet normal -0.0654088 0.997859 0
    outer loop
      vertex 0 34 -67.5
      vertex -4.43789 33.7091 67.5
      vertex 0 34 67.5
    endloop
  endfacet
  facet normal -0.0654088 0.997859 0
    outer loop
      vertex -4.43789 33.7091 67.5
      vertex 0 34 -67.5
      vertex -4.43789 33.7091 -67.5
    endloop
  endfacet
  facet normal -0.19508 0.980787 0
    outer loop
      vertex -4.43789 33.7091 -67.5
      vertex -8.79985 32.8415 67.5
      vertex -4.43789 33.7091 67.5
    endloop
  endfacet
  facet normal -0.19508 0.980787 0
    outer loop
      vertex -8.79985 32.8415 67.5
      vertex -4.43789 33.7091 -67.5
      vertex -8.79985 32.8415 -67.5
    endloop
  endfacet
  facet normal -0.321447 0.946927 0
    outer loop
      vertex -8.79985 32.8415 -67.5
      vertex -13.0112 31.4119 67.5
      vertex -8.79985 32.8415 67.5
    endloop
  endfacet
  facet normal -0.321447 0.946927 0
    outer loop
      vertex -13.0112 31.4119 67.5
      vertex -8.79985 32.8415 -67.5
      vertex -13.0112 31.4119 -67.5
    endloop
  endfacet
  facet normal -0.442278 0.896878 0
    outer loop
      vertex -13.0112 31.4119 -67.5
      vertex -17 29.4449 67.5
      vertex -13.0112 31.4119 67.5
    endloop
  endfacet
  facet normal -0.442278 0.896878 0
    outer loop
      vertex -17 29.4449 67.5
      vertex -13.0112 31.4119 -67.5
      vertex -17 29.4449 -67.5
    endloop
  endfacet
  facet normal -0.555577 0.831465 0
    outer loop
      vertex -17 29.4449 -67.5
      vertex -20.6979 26.974 67.5
      vertex -17 29.4449 67.5
    endloop
  endfacet
  facet normal -0.555577 0.831465 0
    outer loop
      vertex -20.6979 26.974 67.5
      vertex -17 29.4449 -67.5
      vertex -20.6979 26.974 -67.5
    endloop
  endfacet
  facet normal -0.659353 0.751834 0
    outer loop
      vertex -20.6979 26.974 -67.5
      vertex -24.0416 24.0416 67.5
      vertex -20.6979 26.974 67.5
    endloop
  endfacet
  facet normal -0.659353 0.751834 0
    outer loop
      vertex -24.0416 24.0416 67.5
      vertex -20.6979 26.974 -67.5
      vertex -24.0416 24.0416 -67.5
    endloop
  endfacet
  facet normal -0.751834 0.659353 0
    outer loop
      vertex -26.974 20.6979 -67.5
      vertex -24.0416 24.0416 67.5
      vertex -24.0416 24.0416 -67.5
    endloop
  endfacet
  facet normal -0.751834 0.659353 0
    outer loop
      vertex -24.0416 24.0416 67.5
      vertex -26.974 20.6979 -67.5
      vertex -26.974 20.6979 67.5
    endloop
  endfacet
  facet normal -0.831465 0.555577 0
    outer loop
      vertex -29.4449 17 -67.5
      vertex -26.974 20.6979 67.5
      vertex -26.974 20.6979 -67.5
    endloop
  endfacet
  facet normal -0.831465 0.555577 0
    outer loop
      vertex -26.974 20.6979 67.5
      vertex -29.4449 17 -67.5
      vertex -29.4449 17 67.5
    endloop
  endfacet
  facet normal -0.896878 0.442278 0
    outer loop
      vertex -31.4119 13.0112 -67.5
      vertex -29.4449 17 67.5
      vertex -29.4449 17 -67.5
    endloop
  endfacet
  facet normal -0.896878 0.442278 0
    outer loop
      vertex -29.4449 17 67.5
      vertex -31.4119 13.0112 -67.5
      vertex -31.4119 13.0112 67.5
    endloop
  endfacet
  facet normal -0.946927 0.321447 0
    outer loop
      vertex -32.8415 8.79985 -67.5
      vertex -31.4119 13.0112 67.5
      vertex -31.4119 13.0112 -67.5
    endloop
  endfacet
  facet normal -0.946927 0.321447 0
    outer loop
      vertex -31.4119 13.0112 67.5
      vertex -32.8415 8.79985 -67.5
      vertex -32.8415 8.79985 67.5
    endloop
  endfacet
  facet normal -0.980787 0.19508 0
    outer loop
      vertex -33.7091 4.43789 -67.5
      vertex -32.8415 8.79985 67.5
      vertex -32.8415 8.79985 -67.5
    endloop
  endfacet
  facet normal -0.980787 0.19508 0
    outer loop
      vertex -32.8415 8.79985 67.5
      vertex -33.7091 4.43789 -67.5
      vertex -33.7091 4.43789 67.5
    endloop
  endfacet
  facet normal -0.997859 0.0654088 0
    outer loop
      vertex -34 -0 -67.5
      vertex -33.7091 4.43789 67.5
      vertex -33.7091 4.43789 -67.5
    endloop
  endfacet
  facet normal -0.997859 0.0654088 0
    outer loop
      vertex -33.7091 4.43789 67.5
      vertex -34 -0 -67.5
      vertex -34 -0 67.5
    endloop
  endfacet
  facet normal -0.997859 -0.0654088 0
    outer loop
      vertex -33.7091 -4.43789 -67.5
      vertex -34 -0 67.5
      vertex -34 -0 -67.5
    endloop
  endfacet
  facet normal -0.997859 -0.0654088 0
    outer loop
      vertex -34 -0 67.5
      vertex -33.7091 -4.43789 -67.5
      vertex -33.7091 -4.43789 67.5
    endloop
  endfacet
  facet normal -0.980787 -0.19508 0
    outer loop
      vertex -32.8415 -8.79985 -67.5
      vertex -33.7091 -4.43789 67.5
      vertex -33.7091 -4.43789 -67.5
    endloop
  endfacet
  facet normal -0.980787 -0.19508 0
    outer loop
      vertex -33.7091 -4.43789 67.5
      vertex -32.8415 -8.79985 -67.5
      vertex -32.8415 -8.79985 67.5
    endloop
  endfacet
  facet normal -0.946927 -0.321447 0
    outer loop
      vertex -31.4119 -13.0112 -67.5
      vertex -32.8415 -8.79985 67.5
      vertex -32.8415 -8.79985 -67.5
    endloop
  endfacet
  facet normal -0.946927 -0.321447 0
    outer loop
      vertex -32.8415 -8.79985 67.5
      vertex -31.4119 -13.0112 -67.5
      vertex -31.4119 -13.0112 67.5
    endloop
  endfacet
  facet normal -0.896878 -0.442278 0
    outer loop
      vertex -29.4449 -17 -67.5
      vertex -31.4119 -13.0112 67.5
      vertex -31.4119 -13.0112 -67.5
    endloop
  endfacet
  facet normal -0.896878 -0.442278 0
    outer loop
      vertex -31.4119 -13.0112 67.5
      vertex -29.4449 -17 -67.5
      vertex -29.4449 -17 67.5
    endloop
  endfacet
  facet normal -0.831465 -0.555577 0
    outer loop
      vertex -26.974 -20.6979 -67.5
      vertex -29.4449 -17 67.5
      vertex -29.4449 -17 -67.5
    endloop
  endfacet
  facet normal -0.831465 -0.555577 0
    outer loop
      vertex -29.4449 -17 67.5
      vertex -26.974 -20.6979 -67.5
      vertex -26.974 -20.6979 67.5
    endloop
  endfacet
  facet normal -0.751834 -0.659353 0
    outer loop
      vertex -24.0416 -24.0416 -67.5
      vertex -26.974 -20.6979 67.5
      vertex -26.974 -20.6979 -67.5
    endloop
  endfacet
  facet normal -0.751834 -0.659353 0
    outer loop
      vertex -26.974 -20.6979 67.5
      vertex -24.0416 -24.0416 -67.5
      vertex -24.0416 -24.0416 67.5
    endloop
  endfacet
  facet normal -0.659353 -0.751834 0
    outer loop
      vertex -24.0416 -24.0416 -67.5
      vertex -20.6979 -26.974 67.5
      vertex -24.0416 -24.0416 67.5
    endloop
  endfacet
  facet normal -0.659353 -0.751834 -0
    outer loop
      vertex -20.6979 -26.974 67.5
      vertex -24.0416 -24.0416 -67.5
      vertex -20.6979 -26.974 -67.5
    endloop
  endfacet
  facet normal -0.555577 -0.831465 0
    outer loop
      vertex -20.6979 -26.974 -67.5
      vertex -17 -29.4449 67.5
      vertex -20.6979 -26.974 67.5
    endloop
  endfacet
  facet normal -0.555577 -0.831465 -0
    outer loop
      vertex -17 -29.4449 67.5
      vertex -20.6979 -26.974 -67.5
      vertex -17 -29.4449 -67.5
    endloop
  endfacet
  facet normal -0.442278 -0.896878 0
    outer loop
      vertex -17 -29.4449 -67.5
      vertex -13.0112 -31.4119 67.5
      vertex -17 -29.4449 67.5
    endloop
  endfacet
  facet normal -0.442278 -0.896878 -0
    outer loop
      vertex -13.0112 -31.4119 67.5
      vertex -17 -29.4449 -67.5
      vertex -13.0112 -31.4119 -67.5
    endloop
  endfacet
  facet normal -0.321447 -0.946927 0
    outer loop
      vertex -13.0112 -31.4119 -67.5
      vertex -8.79985 -32.8415 67.5
      vertex -13.0112 -31.4119 67.5
    endloop
  endfacet
  facet normal -0.321447 -0.946927 -0
    outer loop
      vertex -8.79985 -32.8415 67.5
      vertex -13.0112 -31.4119 -67.5
      vertex -8.79985 -32.8415 -67.5
    endloop
  endfacet
  facet normal -0.19508 -0.980787 0
    outer loop
      vertex -8.79985 -32.8415 -67.5
      vertex -4.43789 -33.7091 67.5
      vertex -8.79985 -32.8415 67.5
    endloop
  endfacet
  facet normal -0.19508 -0.980787 -0
    outer loop
      vertex -4.43789 -33.7091 67.5
      vertex -8.79985 -32.8415 -67.5
      vertex -4.43789 -33.7091 -67.5
    endloop
  endfacet
  facet normal -0.0654088 -0.997859 0
    outer loop
      vertex -4.43789 -33.7091 -67.5
      vertex -0 -34 67.5
      vertex -4.43789 -33.7091 67.5
    endloop
  endfacet
  facet normal -0.0654088 -0.997859 -0
    outer loop
      vertex -0 -34 67.5
      vertex -4.43789 -33.7091 -67.5
      vertex -0 -34 -67.5
    endloop
  endfacet
  facet normal 0.0654088 -0.997859 0
    outer loop
      vertex -0 -34 -67.5
      vertex 4.43789 -33.7091 67.5
      vertex -0 -34 67.5
    endloop
  endfacet
  facet normal 0.0654088 -0.997859 0
    outer loop
      vertex 4.43789 -33.7091 67.5
      vertex -0 -34 -67.5
      vertex 4.43789 -33.7091 -67.5
    endloop
  endfacet
  facet normal 0.19508 -0.980787 0
    outer loop
      vertex 4.43789 -33.7091 -67.5
      vertex 8.79985 -32.8415 67.5
      vertex 4.43789 -33.7091 67.5
    endloop
  endfacet
  facet normal 0.19508 -0.980787 0
    outer loop
      vertex 8.79985 -32.8415 67.5
      vertex 4.43789 -33.7091 -67.5
      vertex 8.79985 -32.8415 -67.5
    endloop
  endfacet
  facet normal 0.321447 -0.946927 0
    outer loop
      vertex 8.79985 -32.8415 -67.5
      vertex 13.0112 -31.4119 67.5
      vertex 8.79985 -32.8415 67.5
    endloop
  endfacet
  facet normal 0.321447 -0.946927 0
    outer loop
      vertex 13.0112 -31.4119 67.5
      vertex 8.79985 -32.8415 -67.5
      vertex 13.0112 -31.4119 -67.5
    endloop
  endfacet
  facet normal 0.442278 -0.896878 0
    outer loop
      vertex 13.0112 -31.4119 -67.5
      vertex 17 -29.4449 67.5
      vertex 13.0112 -31.4119 67.5
    endloop
  endfacet
  facet normal 0.442278 -0.896878 0
    outer loop
      vertex 17 -29.4449 67.5
      vertex 13.0112 -31.4119 -67.5
      vertex 17 -29.4449 -67.5
    endloop
  endfacet
  facet normal 0.555577 -0.831465 0
    outer loop
      vertex 17 -29.4449 -67.5
      vertex 20.6979 -26.974 67.5
      vertex 17 -29.4449 67.5
    endloop
  endfacet
  facet normal 0.555577 -0.831465 0
    outer loop
      vertex 20.6979 -26.974 67.5
      vertex 17 -29.4449 -67.5
      vertex 20.6979 -26.974 -67.5
    endloop
  endfacet
  facet normal 0.659353 -0.751834 0
    outer loop
      vertex 20.6979 -26.974 -67.5
      vertex 24.0416 -24.0416 67.5
      vertex 20.6979 -26.974 67.5
    endloop
  endfacet
  facet normal 0.659353 -0.751834 0
    outer loop
      vertex 24.0416 -24.0416 67.5
      vertex 20.6979 -26.974 -67.5
      vertex 24.0416 -24.0416 -67.5
    endloop
  endfacet
  facet normal 0.751834 -0.659353 0
    outer loop
      vertex 24.0416 -24.0416 67.5
      vertex 26.974 -20.6979 -67.5
      vertex 26.974 -20.6979 67.5
    endloop
  endfacet
  facet normal 0.751834 -0.659353 0
    outer loop
      vertex 26.974 -20.6979 -67.5
      vertex 24.0416 -24.0416 67.5
      vertex 24.0416 -24.0416 -67.5
    endloop
  endfacet
  facet normal 0.831465 -0.555577 0
    outer loop
      vertex 26.974 -20.6979 67.5
      vertex 29.4449 -17 -67.5
      vertex 29.4449 -17 67.5
    endloop
  endfacet
  facet normal 0.831465 -0.555577 0
    outer loop
      vertex 29.4449 -17 -67.5
      vertex 26.974 -20.6979 67.5
      vertex 26.974 -20.6979 -67.5
    endloop
  endfacet
  facet normal 0.896878 -0.442278 0
    outer loop
      vertex 29.4449 -17 67.5
      vertex 31.4119 -13.0112 -67.5
      vertex 31.4119 -13.0112 67.5
    endloop
  endfacet
  facet normal 0.896878 -0.442278 0
    outer loop
      vertex 31.4119 -13.0112 -67.5
      vertex 29.4449 -17 67.5
      vertex 29.4449 -17 -67.5
    endloop
  endfacet
  facet normal 0.946927 -0.321447 0
    outer loop
      vertex 31.4119 -13.0112 67.5
      vertex 32.8415 -8.79985 -67.5
      vertex 32.8415 -8.79985 67.5
    endloop
  endfacet
  facet normal 0.946927 -0.321447 0
    outer loop
      vertex 32.8415 -8.79985 -67.5
      vertex 31.4119 -13.0112 67.5
      vertex 31.4119 -13.0112 -67.5
    endloop
  endfacet
  facet normal 0.980787 -0.19508 0
    outer loop
      vertex 32.8415 -8.79985 67.5
      vertex 33.7091 -4.43789 -67.5
      vertex 33.7091 -4.43789 67.5
    endloop
  endfacet
  facet normal 0.980787 -0.19508 0
    outer loop
      vertex 33.7091 -4.43789 -67.5
      vertex 32.8415 -8.79985 67.5
      vertex 32.8415 -8.79985 -67.5
    endloop
  endfacet
  facet normal 0.997859 -0.0654088 0
    outer loop
      vertex 33.7091 -4.43789 67.5
      vertex 34 0 -67.5
      vertex 34 0 67.5
    endloop
  endfacet
  facet normal 0.997859 -0.0654088 0
    outer loop
      vertex 34 0 -67.5
      vertex 33.7091 -4.43789 67.5
      vertex 33.7091 -4.43789 -67.5
    endloop
  endfacet
  facet normal 0 0 -1
    outer loop
      vertex 33.7091 -4.43789 -67.5
      vertex 33.7091 4.43789 -67.5
      vertex 34 0 -67.5
    endloop
  endfacet
  facet normal 0 0 -1
    outer loop
      vertex 32.8415 -8.79985 -67.5
      vertex 33.7091 4.43789 -67.5
      vertex 33.7091 -4.43789 -67.5
    endloop
  endfacet
  facet normal 0 0 -1
    outer loop
      vertex 32.8415 -8.79985 -67.5
      vertex 32.8415 8.79985 -67.5
      vertex 33.7091 4.43789 -67.5
    endloop
  endfacet
  facet normal 0 0 -1
    outer loop
      vertex 31.4119 -13.0112 -67.5
      vertex 32.8415 8.79985 -67.5
      vertex 32.8415 -8.79985 -67.5
    endloop
  endfacet
  facet normal 0 0 -1
    outer loop
      vertex 31.4119 -13.0112 -67.5
      vertex 31.4119 13.0112 -67.5
      vertex 32.8415 8.79985 -67.5
    endloop
  endfacet
  facet normal 0 0 -1
    outer loop
      vertex 29.4449 -17 -67.5
      vertex 31.4119 13.0112 -67.5
      vertex 31.4119 -13.0112 -67.5
    endloop
  endfacet
  facet normal 0 0 -1
    outer loop
      vertex 29.4449 -17 -67.5
      vertex 29.4449 17 -67.5
      vertex 31.4119 13.0112 -67.5
    endloop
  endfacet
  facet normal 0 0 -1
    outer loop
      vertex 26.974 -20.6979 -67.5
      vertex 29.4449 17 -67.5
      vertex 29.4449 -17 -67.5
    endloop
  endfacet
  facet normal 0 0 -1
    outer loop
      vertex 26.974 -20.6979 -67.5
      vertex 26.974 20.6979 -67.5
      vertex 29.4449 17 -67.5
    endloop
  endfacet
  facet normal 0 0 -1
    outer loop
      vertex 24.0416 -24.0416 -67.5
      vertex 26.974 20.6979 -67.5
      vertex 26.974 -20.6979 -67.5
    endloop
  endfacet
  facet normal 0 0 -1
    outer loop
      vertex 24.0416 -24.0416 -67.5
      vertex 24.0416 24.0416 -67.5
      vertex 26.974 20.6979 -67.5
    endloop
  endfacet
  facet normal 0 0 -1
    outer loop
      vertex 20.6979 -26.974 -67.5
      vertex 24.0416 24.0416 -67.5
      vertex 24.0416 -24.0416 -67.5
    endloop
  endfacet
  facet normal 0 0 -1
    outer loop
      vertex 20.6979 -26.974 -67.5
      vertex 20.6979 26.974 -67.5
      vertex 24.0416 24.0416 -67.5
    endloop
  endfacet
  facet normal 0 0 -1
    outer loop
      vertex 17 -29.4449 -67.5
      vertex 20.6979 26.974 -67.5
      vertex 20.6979 -26.974 -67.5
    endloop
  endfacet
  facet normal 0 0 -1
    outer loop
      vertex 17 -29.4449 -67.5
      vertex 17 29.4449 -67.5
      vertex 20.6979 26.974 -67.5
    endloop
  endfacet
  facet normal 0 0 -1
    outer loop
      vertex 13.0112 -31.4119 -67.5
      vertex 17 29.4449 -67.5
      vertex 17 -29.4449 -67.5
    endloop
  endfacet
  facet normal 0 0 -1
    outer loop
      vertex 13.0112 -31.4119 -67.5
      vertex 13.0112 31.4119 -67.5
      vertex 17 29.4449 -67.5
    endloop
  endfacet
  facet normal 0 0 -1
    outer loop
      vertex 8.79985 -32.8415 -67.5
      vertex 13.0112 31.4119 -67.5
      vertex 13.0112 -31.4119 -67.5
    endloop
  endfacet
  facet normal 0 0 -1
    outer loop
      vertex 8.79985 -32.8415 -67.5
      vertex 8.79985 32.8415 -67.5
      vertex 13.0112 31.4119 -67.5
    endloop
  endfacet
  facet normal 0 0 -1
    outer loop
      vertex 4.43789 -33.7091 -67.5
      vertex 8.79985 32.8415 -67.5
      vertex 8.79985 -32.8415 -67.5
    endloop
  endfacet
  facet normal 0 0 -1
    outer loop
      vertex 4.43789 -33.7091 -67.5
      vertex 4.43789 33.7091 -67.5
      vertex 8.79985 32.8415 -67.5
    endloop
  endfacet
  facet normal 0 0 -1
    outer loop
      vertex -0 -34 -67.5
      vertex 4.43789 33.7091 -67.5
      vertex 4.43789 -33.7091 -67.5
    endloop
  endfacet
  facet normal 0 0 -1
    outer loop
      vertex -0 -34 -67.5
      vertex 0 34 -67.5
      vertex 4.43789 33.7091 -67.5
    endloop
  endfacet
  facet normal 0 0 -1
    outer loop
      vertex -4.43789 -33.7091 -67.5
      vertex 0 34 -67.5
      vertex -0 -34 -67.5
    endloop
  endfacet
  facet normal 0 0 -1
    outer loop
      vertex -4.43789 -33.7091 -67.5
      vertex -4.43789 33.7091 -67.5
      vertex 0 34 -67.5
    endloop
  endfacet
  facet normal 0 0 -1
    outer loop
      vertex -8.79985 -32.8415 -67.5
      vertex -4.43789 33.7091 -67.5
      vertex -4.43789 -33.7091 -67.5
    endloop
  endfacet
  facet normal 0 0 -1
    outer loop
      vertex -8.79985 -32.8415 -67.5
      vertex -8.79985 32.8415 -67.5
      vertex -4.43789 33.7091 -67.5
    endloop
  endfacet
  facet normal 0 0 -1
    outer loop
      vertex -13.0112 -31.4119 -67.5
      vertex -8.79985 32.8415 -67.5
      vertex -8.79985 -32.8415 -67.5
    endloop
  endfacet
  facet normal 0 0 -1
    outer loop
      vertex -13.0112 -31.4119 -67.5
      vertex -13.0112 31.4119 -67.5
      vertex -8.79985 32.8415 -67.5
    endloop
  endfacet
  facet normal 0 0 -1
    outer loop
      vertex -17 -29.4449 -67.5
      vertex -13.0112 31.4119 -67.5
      vertex -13.0112 -31.4119 -67.5
    endloop
  endfacet
  facet normal 0 0 -1
    outer loop
      vertex -17 -29.4449 -67.5
      vertex -17 29.4449 -67.5
      vertex -13.0112 31.4119 -67.5
    endloop
  endfacet
  facet normal 0 0 -1
    outer loop
      vertex -20.6979 -26.974 -67.5
      vertex -17 29.4449 -67.5
      vertex -17 -29.4449 -67.5
    endloop
  endfacet
  facet normal 0 0 -1
    outer loop
      vertex -20.6979 -26.974 -67.5
      vertex -20.6979 26.974 -67.5
      vertex -17 29.4449 -67.5
    endloop
  endfacet
  facet normal 0 0 -1
    outer loop
      vertex -24.0416 -24.0416 -67.5
      vertex -20.6979 26.974 -67.5
      vertex -20.6979 -26.974 -67.5
    endloop
  endfacet
  facet normal 0 0 -1
    outer loop
      vertex -24.0416 -24.0416 -67.5
      vertex -24.0416 24.0416 -67.5
      vertex -20.6979 26.974 -67.5
    endloop
  endfacet
  facet normal 0 0 -1
    outer loop
      vertex -26.974 -20.6979 -67.5
      vertex -24.0416 24.0416 -67.5
      vertex -24.0416 -24.0416 -67.5
    endloop
  endfacet
  facet normal 0 0 -1
    outer loop
      vertex -26.974 -20.6979 -67.5
      vertex -26.974 20.6979 -67.5
      vertex -24.0416 24.0416 -67.5
    endloop
  endfacet
  facet normal 0 0 -1
    outer loop
      vertex -29.4449 -17 -67.5
      vertex -26.974 20.6979 -67.5
      vertex -26.974 -20.6979 -67.5
    endloop
  endfacet
  facet normal 0 0 -1
    outer loop
      vertex -29.4449 -17 -67.5
      vertex -29.4449 17 -67.5
      vertex -26.974 20.6979 -67.5
    endloop
  endfacet
  facet normal 0 0 -1
    outer loop
      vertex -31.4119 -13.0112 -67.5
      vertex -29.4449 17 -67.5
      vertex -29.4449 -17 -67.5
    endloop
  endfacet
  facet normal 0 0 -1
    outer loop
      vertex -31.4119 -13.0112 -67.5
      vertex -31.4119 13.0112 -67.5
      vertex -29.4449 17 -67.5
    endloop
  endfacet
  facet normal 0 0 -1
    outer loop
      vertex -32.8415 -8.79985 -67.5
      vertex -31.4119 13.0112 -67.5
      vertex -31.4119 -13.0112 -67.5
    endloop
  endfacet
  facet normal 0 0 -1
    outer loop
      vertex -32.8415 -8.79985 -67.5
      vertex -32.8415 8.79985 -67.5
      vertex -31.4119 13.0112 -67.5
    endloop
  endfacet
  facet normal 0 0 -1
    outer loop
      vertex -33.7091 -4.43789 -67.5
      vertex -32.8415 8.79985 -67.5
      vertex -32.8415 -8.79985 -67.5
    endloop
  endfacet
  facet normal 0 0 -1
    outer loop
      vertex -33.7091 -4.43789 -67.5
      vertex -33.7091 4.43789 -67.5
      vertex -32.8415 8.79985 -67.5
    endloop
  endfacet
  facet normal 0 -0 -1
    outer loop
      vertex -33.7091 4.43789 -67.5
      vertex -33.7091 -4.43789 -67.5
      vertex -34 -0 -67.5
    endloop
  endfacet
  facet normal 0 0 1
    outer loop
      vertex 33.7091 4.43789 67.5
      vertex 33.7091 -4.43789 67.5
      vertex 34 0 67.5
    endloop
  endfacet
  facet normal 0 0 1
    outer loop
      vertex 32.8415 8.79985 67.5
      vertex 33.7091 -4.43789 67.5
      vertex 33.7091 4.43789 67.5
    endloop
  endfacet
  facet normal 0 0 1
    outer loop
      vertex 32.8415 8.79985 67.5
      vertex 32.8415 -8.79985 67.5
      vertex 33.7091 -4.43789 67.5
    endloop
  endfacet
  facet normal 0 0 1
    outer loop
      vertex 31.4119 13.0112 67.5
      vertex 32.8415 -8.79985 67.5
      vertex 32.8415 8.79985 67.5
    endloop
  endfacet
  facet normal 0 0 1
    outer loop
      vertex 31.4119 13.0112 67.5
      vertex 31.4119 -13.0112 67.5
      vertex 32.8415 -8.79985 67.5
    endloop
  endfacet
  facet normal 0 0 1
    outer loop
      vertex 29.4449 17 67.5
      vertex 31.4119 -13.0112 67.5
      vertex 31.4119 13.0112 67.5
    endloop
  endfacet
  facet normal 0 0 1
    outer loop
      vertex 29.4449 17 67.5
      vertex 29.4449 -17 67.5
      vertex 31.4119 -13.0112 67.5
    endloop
  endfacet
  facet normal 0 0 1
    outer loop
      vertex 26.974 20.6979 67.5
      vertex 29.4449 -17 67.5
      vertex 29.4449 17 67.5
    endloop
  endfacet
  facet normal 0 0 1
    outer loop
      vertex 26.974 20.6979 67.5
      vertex 26.974 -20.6979 67.5
      vertex 29.4449 -17 67.5
    endloop
  endfacet
  facet normal 0 0 1
    outer loop
      vertex 24.0416 24.0416 67.5
      vertex 26.974 -20.6979 67.5
      vertex 26.974 20.6979 67.5
    endloop
  endfacet
  facet normal 0 0 1
    outer loop
      vertex 24.0416 24.0416 67.5
      vertex 24.0416 -24.0416 67.5
      vertex 26.974 -20.6979 67.5
    endloop
  endfacet
  facet normal 0 0 1
    outer loop
      vertex 20.6979 26.974 67.5
      vertex 24.0416 -24.0416 67.5
      vertex 24.0416 24.0416 67.5
    endloop
  endfacet
  facet normal 0 0 1
    outer loop
      vertex 20.6979 26.974 67.5
      vertex 20.6979 -26.974 67.5
      vertex 24.0416 -24.0416 67.5
    endloop
  endfacet
  facet normal 0 0 1
    outer loop
      vertex 17 29.4449 67.5
      vertex 20.6979 -26.974 67.5
      vertex 20.6979 26.974 67.5
    endloop
  endfacet
  facet normal 0 0 1
    outer loop
      vertex 17 29.4449 67.5
      vertex 17 -29.4449 67.5
      vertex 20.6979 -26.974 67.5
    endloop
  endfacet
  facet normal 0 0 1
    outer loop
      vertex 13.0112 31.4119 67.5
      vertex 17 -29.4449 67.5
      vertex 17 29.4449 67.5
    endloop
  endfacet
  facet normal 0 0 1
    outer loop
      vertex 13.0112 31.4119 67.5
      vertex 13.0112 -31.4119 67.5
      vertex 17 -29.4449 67.5
    endloop
  endfacet
  facet normal 0 0 1
    outer loop
      vertex 8.79985 32.8415 67.5
      vertex 13.0112 -31.4119 67.5
      vertex 13.0112 31.4119 67.5
    endloop
  endfacet
  facet normal 0 0 1
    outer loop
      vertex 8.79985 32.8415 67.5
      vertex 8.79985 -32.8415 67.5
      vertex 13.0112 -31.4119 67.5
    endloop
  endfacet
  facet normal 0 0 1
    outer loop
      vertex 4.43789 33.7091 67.5
      vertex 8.79985 -32.8415 67.5
      vertex 8.79985 32.8415 67.5
    endloop
  endfacet
  facet normal 0 0 1
    outer loop
      vertex 4.43789 33.7091 67.5
      vertex 4.43789 -33.7091 67.5
      vertex 8.79985 -32.8415 67.5
    endloop
  endfacet
  facet normal 0 0 1
    outer loop
      vertex 0 34 67.5
      vertex 4.43789 -33.7091 67.5
      vertex 4.43789 33.7091 67.5
    endloop
  endfacet
  facet normal 0 0 1
    outer loop
      vertex 0 34 67.5
      vertex -0 -34 67.5
      vertex 4.43789 -33.7091 67.5
    endloop
  endfacet
  facet normal -0 0 1
    outer loop
      vertex -4.43789 33.7091 67.5
      vertex -0 -34 67.5
      vertex 0 34 67.5
    endloop
  endfacet
  facet normal 0 0 1
    outer loop
      vertex -4.43789 33.7091 67.5
      vertex -4.43789 -33.7091 67.5
      vertex -0 -34 67.5
    endloop
  endfacet
  facet normal -0 0 1
    outer loop
      vertex -8.79985 32.8415 67.5
      vertex -4.43789 -33.7091 67.5
      vertex -4.43789 33.7091 67.5
    endloop
  endfacet
  facet normal 0 0 1
    outer loop
      vertex -8.79985 32.8415 67.5
      vertex -8.79985 -32.8415 67.5
      vertex -4.43789 -33.7091 67.5
    endloop
  endfacet
  facet normal -0 0 1
    outer loop
      vertex -13.0112 31.4119 67.5
      vertex -8.79985 -32.8415 67.5
      vertex -8.79985 32.8415 67.5
    endloop
  endfacet
  facet normal 0 0 1
    outer loop
      vertex -13.0112 31.4119 67.5
      vertex -13.0112 -31.4119 67.5
      vertex -8.79985 -32.8415 67.5
    endloop
  endfacet
  facet normal -0 0 1
    outer loop
      vertex -17 29.4449 67.5
      vertex -13.0112 -31.4119 67.5
      vertex -13.0112 31.4119 67.5
    endloop
  endfacet
  facet normal 0 0 1
    outer loop
      vertex -17 29.4449 67.5
      vertex -17 -29.4449 67.5
      vertex -13.0112 -31.4119 67.5
    endloop
  endfacet
  facet normal -0 0 1
    outer loop
      vertex -20.6979 26.974 67.5
      vertex -17 -29.4449 67.5
      vertex -17 29.4449 67.5
    endloop
  endfacet
  facet normal 0 0 1
    outer loop
      vertex -20.6979 26.974 67.5
      vertex -20.6979 -26.974 67.5
      vertex -17 -29.4449 67.5
    endloop
  endfacet
  facet normal -0 0 1
    outer loop
      vertex -24.0416 24.0416 67.5
      vertex -20.6979 -26.974 67.5
      vertex -20.6979 26.974 67.5
    endloop
  endfacet
  facet normal 0 0 1
    outer loop
      vertex -24.0416 24.0416 67.5
      vertex -24.0416 -24.0416 67.5
      vertex -20.6979 -26.974 67.5
    endloop
  endfacet
  facet normal -0 0 1
    outer loop
      vertex -26.974 20.6979 67.5
      vertex -24.0416 -24.0416 67.5
      vertex -24.0416 24.0416 67.5
    endloop
  endfacet
  facet normal 0 0 1
    outer loop
      vertex -26.974 20.6979 67.5
      vertex -26.974 -20.6979 67.5
      vertex -24.0416 -24.0416 67.5
    endloop
  endfacet
  facet normal -0 0 1
    outer loop
      vertex -29.4449 17 67.5
      vertex -26.974 -20.6979 67.5
      vertex -26.974 20.6979 67.5
    endloop
  endfacet
  facet normal 0 0 1
    outer loop
      vertex -29.4449 17 67.5
      vertex -29.4449 -17 67.5
      vertex -26.974 -20.6979 67.5
    endloop
  endfacet
  facet normal -0 0 1
    outer loop
      vertex -31.4119 13.0112 67.5
      vertex -29.4449 -17 67.5
      vertex -29.4449 17 67.5
    endloop
  endfacet
  facet normal 0 0 1
    outer loop
      vertex -31.4119 13.0112 67.5
      vertex -31.4119 -13.0112 67.5
      vertex -29.4449 -17 67.5
    endloop
  endfacet
  facet normal -0 0 1
    outer loop
      vertex -32.8415 8.79985 67.5
      vertex -31.4119 -13.0112 67.5
      vertex -31.4119 13.0112 67.5
    endloop
  endfacet
  facet normal 0 0 1
    outer loop
      vertex -32.8415 8.79985 67.5
      vertex -32.8415 -8.79985 67.5
      vertex -31.4119 -13.0112 67.5
    endloop
  endfacet
  facet normal -0 0 1
    outer loop
      vertex -33.7091 4.43789 67.5
      vertex -32.8415 -8.79985 67.5
      vertex -32.8415 8.79985 67.5
    endloop
  endfacet
  facet normal 0 0 1
    outer loop
      vertex -33.7091 4.43789 67.5
      vertex -33.7091 -4.43789 67.5
      vertex -32.8415 -8.79985 67.5
    endloop
  endfacet
  facet normal 0 -0 1
    outer loop
      vertex -33.7091 -4.43789 67.5
      vertex -33.7091 4.43789 67.5
      vertex -34 -0 67.5
    endloop
  endfacet
endsolid OpenSCAD_Model
