solid OpenSCAD_Model
  facet normal 1 -0 0
    outer loop
      vertex 80 -70 40
      vertex 80 70 -40
      vertex 80 70 40
    endloop
  endfacet
  facet normal 1 0 0
    outer loop
      vertex 80 70 -40
      vertex 80 -70 40
      vertex 80 -70 -40
    endloop
  endfacet
  facet normal 0 0 1
    outer loop
      vertex 80 70 40
      vertex 77.5 67.5 40
      vertex 80 -70 40
    endloop
  endfacet
  facet normal 0 0 1
    outer loop
      vertex 80 70 40
      vertex -77.5 67.5 40
      vertex 77.5 67.5 40
    endloop
  endfacet
  facet normal 0 0 1
    outer loop
      vertex -77.5 67.5 40
      vertex -80 70 40
      vertex -77.5 -67.5 40
    endloop
  endfacet
  facet normal -0 0 1
    outer loop
      vertex -80 70 40
      vertex -77.5 67.5 40
      vertex 80 70 40
    endloop
  endfacet
  facet normal -0 0 1
    outer loop
      vertex 77.5 -67.5 40
      vertex 80 -70 40
      vertex 77.5 67.5 40
    endloop
  endfacet
  facet normal -0 0 1
    outer loop
      vertex -77.5 -67.5 40
      vertex 80 -70 40
      vertex 77.5 -67.5 40
    endloop
  endfacet
  facet normal 0 0 1
    outer loop
      vertex -77.5 -67.5 40
      vertex -80 -70 40
      vertex 80 -70 40
    endloop
  endfacet
  facet normal 0 0 1
    outer loop
      vertex -80 -70 40
      vertex -77.5 -67.5 40
      vertex -80 70 40
    endloop
  endfacet
  facet normal 0 0 -1
    outer loop
      vertex -80 -70 -40
      vertex 80 70 -40
      vertex 80 -70 -40
    endloop
  endfacet
  facet normal -0 0 -1
    outer loop
      vertex 80 70 -40
      vertex -80 -70 -40
      vertex -80 70 -40
    endloop
  endfacet
  facet normal -1 0 0
    outer loop
      vertex -80 -70 -40
      vertex -80 70 40
      vertex -80 70 -40
    endloop
  endfacet
  facet normal -1 -0 0
    outer loop
      vertex -80 70 40
      vertex -80 -70 -40
      vertex -80 -70 40
    endloop
  endfacet
  facet normal 0 1 -0
    outer loop
      vertex 80 70 -40
      vertex -80 70 40
      vertex 80 70 40
    endloop
  endfacet
  facet normal 0 1 0
    outer loop
      vertex -80 70 40
      vertex 80 70 -40
      vertex -80 70 -40
    endloop
  endfacet
  facet normal 0 -1 0
    outer loop
      vertex -80 -70 -40
      vertex 80 -70 40
      vertex -80 -70 40
    endloop
  endfacet
  facet normal 0 -1 -0
    outer loop
      vertex 80 -70 40
      vertex -80 -70 -40
      vertex 80 -70 -40
    endloop
  endfacet
  facet normal -1 0 0
    outer loop
      vertex 77.5 -67.5 -37.5
      vertex 77.5 67.5 40
      vertex 77.5 67.5 -37.5
    endloop
  endfacet
  facet normal -1 -0 0
    outer loop
      vertex 77.5 67.5 40
      vertex 77.5 -67.5 -37.5
      vertex 77.5 -67.5 40
    endloop
  endfacet
  facet normal -0 0 1
    outer loop
      vertex -77.5 67.5 -37.5
      vertex 77.5 -67.5 -37.5
      vertex 77.5 67.5 -37.5
    endloop
  endfacet
  facet normal 0 0 1
    outer loop
      vertex 77.5 -67.5 -37.5
      vertex -77.5 67.5 -37.5
      vertex -77.5 -67.5 -37.5
    endloop
  endfacet
  facet normal 1 -0 0
    outer loop
      vertex -77.5 -67.5 40
      vertex -77.5 67.5 -37.5
      vertex -77.5 67.5 40
    endloop
  endfacet
  facet normal 1 0 0
    outer loop
      vertex -77.5 67.5 -37.5
      vertex -77.5 -67.5 40
      vertex -77.5 -67.5 -37.5
    endloop
  endfacet
  facet normal 0 -1 0
    outer loop
      vertex -77.5 67.5 -37.5
      vertex 77.5 67.5 40
      vertex -77.5 67.5 40
    endloop
  endfacet
  facet normal 0 -1 -0
    outer loop
      vertex 77.5 67.5 40
      vertex -77.5 67.5 -37.5
      vertex 77.5 67.5 -37.5
    endloop
  endfacet
  facet normal 0 1 -0
    outer loop
      vertex 77.5 -67.5 -37.5
      vertex -77.5 -67.5 40
      vertex 77.5 -67.5 40
    endloop
  endfacet
  facet normal 0 1 0
    outer loop
      vertex -77.5 -67.5 40
      vertex 77.5 -67.5 -37.5
      vertex -77.5 -67.5 -37.5
    endloop
  endfacet
endsolid OpenSCAD_Model
