solid OpenSCAD_Model
  facet normal 1 -0 0
    outer loop
      vertex 105 -85 2
      vertex 105 85 -2
      vertex 105 85 2
    endloop
  endfacet
  facet normal 1 0 0
    outer loop
      vertex 105 85 -2
      vertex 105 -85 2
      vertex 105 -85 -2
    endloop
  endfacet
  facet normal -0 0 1
    outer loop
      vertex 88.7934 -67.3912 2
      vertex 105 -85 2
      vertex 105 85 2
    endloop
  endfacet
  facet normal 0 0 1
    outer loop
      vertex 105 -85 2
      vertex 88.9914 -67.8695 2
      vertex 89 -68 2
    endloop
  endfacet
  facet normal 0 0 1
    outer loop
      vertex 105 -85 2
      vertex 88.9659 -67.7412 2
      vertex 88.9914 -67.8695 2
    endloop
  endfacet
  facet normal 0 0 1
    outer loop
      vertex 105 -85 2
      vertex 88.9239 -67.6173 2
      vertex 88.9659 -67.7412 2
    endloop
  endfacet
  facet normal 0 0 1
    outer loop
      vertex 105 -85 2
      vertex 88.866 -67.5 2
      vertex 88.9239 -67.6173 2
    endloop
  endfacet
  facet normal 0 0 1
    outer loop
      vertex 105 -85 2
      vertex 88.7934 -67.3912 2
      vertex 88.866 -67.5 2
    endloop
  endfacet
  facet normal 0 0 1
    outer loop
      vertex 105 85 2
      vertex 88.7071 -67.2929 2
      vertex 88.7934 -67.3912 2
    endloop
  endfacet
  facet normal 0 0 1
    outer loop
      vertex 105 85 2
      vertex 88.6088 -67.2066 2
      vertex 88.7071 -67.2929 2
    endloop
  endfacet
  facet normal 0 0 1
    outer loop
      vertex 105 85 2
      vertex 88.5 -67.134 2
      vertex 88.6088 -67.2066 2
    endloop
  endfacet
  facet normal 0 0 1
    outer loop
      vertex 105 85 2
      vertex 88.3827 -67.0761 2
      vertex 88.5 -67.134 2
    endloop
  endfacet
  facet normal 0 0 1
    outer loop
      vertex 105 85 2
      vertex 88.2588 -67.0341 2
      vertex 88.3827 -67.0761 2
    endloop
  endfacet
  facet normal 0 0 1
    outer loop
      vertex 105 85 2
      vertex 88.1305 -67.0086 2
      vertex 88.2588 -67.0341 2
    endloop
  endfacet
  facet normal 0 0 1
    outer loop
      vertex 105 85 2
      vertex 88 -67 2
      vertex 88.1305 -67.0086 2
    endloop
  endfacet
  facet normal 0 0 1
    outer loop
      vertex 105 85 2
      vertex 87.8695 -67.0086 2
      vertex 88 -67 2
    endloop
  endfacet
  facet normal 0 0 1
    outer loop
      vertex 105 85 2
      vertex 87.7412 -67.0341 2
      vertex 87.8695 -67.0086 2
    endloop
  endfacet
  facet normal -0 0 1
    outer loop
      vertex 0.793353 67.3912 2
      vertex 87.7412 -67.0341 2
      vertex 105 85 2
    endloop
  endfacet
  facet normal -0 0 1
    outer loop
      vertex 0.707107 67.2929 2
      vertex 87.7412 -67.0341 2
      vertex 0.793353 67.3912 2
    endloop
  endfacet
  facet normal 0 0 1
    outer loop
      vertex 87.7412 -67.0341 2
      vertex 0.707107 67.2929 2
      vertex 87.6173 -67.0761 2
    endloop
  endfacet
  facet normal -0 0 1
    outer loop
      vertex 0.608761 67.2066 2
      vertex 87.6173 -67.0761 2
      vertex 0.707107 67.2929 2
    endloop
  endfacet
  facet normal 0 0 1
    outer loop
      vertex 87.6173 -67.0761 2
      vertex 0.608761 67.2066 2
      vertex 87.5 -67.134 2
    endloop
  endfacet
  facet normal -0 0 1
    outer loop
      vertex 0.5 67.134 2
      vertex 87.5 -67.134 2
      vertex 0.608761 67.2066 2
    endloop
  endfacet
  facet normal 0 0 1
    outer loop
      vertex 87.5 -67.134 2
      vertex 0.5 67.134 2
      vertex 87.3912 -67.2066 2
    endloop
  endfacet
  facet normal -0 0 1
    outer loop
      vertex 0.382683 67.0761 2
      vertex 87.3912 -67.2066 2
      vertex 0.5 67.134 2
    endloop
  endfacet
  facet normal 0 0 1
    outer loop
      vertex 87.3912 -67.2066 2
      vertex 0.382683 67.0761 2
      vertex 87.2929 -67.2929 2
    endloop
  endfacet
  facet normal 0 0 1
    outer loop
      vertex 0.965925 67.7412 2
      vertex 105 85 2
      vertex 0.991445 67.8695 2
    endloop
  endfacet
  facet normal 0 0 1
    outer loop
      vertex 0.991445 67.8695 2
      vertex 105 85 2
      vertex 1 68 2
    endloop
  endfacet
  facet normal 0 0 1
    outer loop
      vertex 105 85 2
      vertex 0.991445 68.1305 2
      vertex 1 68 2
    endloop
  endfacet
  facet normal 0 0 1
    outer loop
      vertex 105 85 2
      vertex 0.965925 68.2588 2
      vertex 0.991445 68.1305 2
    endloop
  endfacet
  facet normal 0 0 1
    outer loop
      vertex 105 85 2
      vertex 0.923879 68.3827 2
      vertex 0.965925 68.2588 2
    endloop
  endfacet
  facet normal 0 0 1
    outer loop
      vertex 105 85 2
      vertex 0.866025 68.5 2
      vertex 0.923879 68.3827 2
    endloop
  endfacet
  facet normal 0 0 1
    outer loop
      vertex 105 85 2
      vertex 0.793353 68.6088 2
      vertex 0.866025 68.5 2
    endloop
  endfacet
  facet normal 0 0 1
    outer loop
      vertex 105 85 2
      vertex 0.707107 68.7071 2
      vertex 0.793353 68.6088 2
    endloop
  endfacet
  facet normal 0 0 1
    outer loop
      vertex 105 85 2
      vertex 0.608761 68.7934 2
      vertex 0.707107 68.7071 2
    endloop
  endfacet
  facet normal 0 0 1
    outer loop
      vertex 105 85 2
      vertex 0.5 68.866 2
      vertex 0.608761 68.7934 2
    endloop
  endfacet
  facet normal 0 0 1
    outer loop
      vertex 105 85 2
      vertex 0.382683 68.9239 2
      vertex 0.5 68.866 2
    endloop
  endfacet
  facet normal 0 0 1
    outer loop
      vertex 105 85 2
      vertex 0.258819 68.9659 2
      vertex 0.382683 68.9239 2
    endloop
  endfacet
  facet normal 0 0 1
    outer loop
      vertex 105 85 2
      vertex 0.130526 68.9914 2
      vertex 0.258819 68.9659 2
    endloop
  endfacet
  facet normal 0 0 1
    outer loop
      vertex 105 85 2
      vertex 0 69 2
      vertex 0.130526 68.9914 2
    endloop
  endfacet
  facet normal -0 0 1
    outer loop
      vertex -105 85 2
      vertex 0 69 2
      vertex 105 85 2
    endloop
  endfacet
  facet normal 0 0 1
    outer loop
      vertex -105 85 2
      vertex -1 68 2
      vertex -0.991445 68.1305 2
    endloop
  endfacet
  facet normal 0 0 1
    outer loop
      vertex -105 85 2
      vertex -0.991445 68.1305 2
      vertex -0.965925 68.2588 2
    endloop
  endfacet
  facet normal 0 0 1
    outer loop
      vertex -105 85 2
      vertex -0.965925 68.2588 2
      vertex -0.923879 68.3827 2
    endloop
  endfacet
  facet normal 0 0 1
    outer loop
      vertex -105 85 2
      vertex -0.923879 68.3827 2
      vertex -0.866025 68.5 2
    endloop
  endfacet
  facet normal 0 0 1
    outer loop
      vertex -1 68 2
      vertex -87.0086 -67.8695 2
      vertex -87 -68 2
    endloop
  endfacet
  facet normal 0 0 1
    outer loop
      vertex -1 68 2
      vertex -87.0341 -67.7412 2
      vertex -87.0086 -67.8695 2
    endloop
  endfacet
  facet normal 0 0 1
    outer loop
      vertex -1 68 2
      vertex -87.0761 -67.6173 2
      vertex -87.0341 -67.7412 2
    endloop
  endfacet
  facet normal 0 0 1
    outer loop
      vertex -1 68 2
      vertex -87.134 -67.5 2
      vertex -87.0761 -67.6173 2
    endloop
  endfacet
  facet normal 0 0 1
    outer loop
      vertex -1 68 2
      vertex -87.2066 -67.3912 2
      vertex -87.134 -67.5 2
    endloop
  endfacet
  facet normal 0 0 1
    outer loop
      vertex -1 68 2
      vertex -87.2929 -67.2929 2
      vertex -87.2066 -67.3912 2
    endloop
  endfacet
  facet normal 0 0 1
    outer loop
      vertex -1 68 2
      vertex -87.3912 -67.2066 2
      vertex -87.2929 -67.2929 2
    endloop
  endfacet
  facet normal 0 0 1
    outer loop
      vertex -1 68 2
      vertex -87.5 -67.134 2
      vertex -87.3912 -67.2066 2
    endloop
  endfacet
  facet normal 0 0 1
    outer loop
      vertex -1 68 2
      vertex -87.6173 -67.0761 2
      vertex -87.5 -67.134 2
    endloop
  endfacet
  facet normal 0 0 1
    outer loop
      vertex -1 68 2
      vertex -87.7412 -67.0341 2
      vertex -87.6173 -67.0761 2
    endloop
  endfacet
  facet normal 0 0 1
    outer loop
      vertex -1 68 2
      vertex -105 85 2
      vertex -87.7412 -67.0341 2
    endloop
  endfacet
  facet normal 0 0 1
    outer loop
      vertex -87.7412 -67.0341 2
      vertex -105 85 2
      vertex -87.8695 -67.0086 2
    endloop
  endfacet
  facet normal 0 0 1
    outer loop
      vertex -87.8695 -67.0086 2
      vertex -105 85 2
      vertex -88 -67 2
    endloop
  endfacet
  facet normal 0 0 1
    outer loop
      vertex -88 -67 2
      vertex -105 85 2
      vertex -88.1305 -67.0086 2
    endloop
  endfacet
  facet normal 0 0 1
    outer loop
      vertex -88.1305 -67.0086 2
      vertex -105 85 2
      vertex -88.2588 -67.0341 2
    endloop
  endfacet
  facet normal 0 0 1
    outer loop
      vertex -88.2588 -67.0341 2
      vertex -105 85 2
      vertex -88.3827 -67.0761 2
    endloop
  endfacet
  facet normal 0 0 1
    outer loop
      vertex -88.3827 -67.0761 2
      vertex -105 85 2
      vertex -88.5 -67.134 2
    endloop
  endfacet
  facet normal 0 0 1
    outer loop
      vertex -88.5 -67.134 2
      vertex -105 85 2
      vertex -88.6088 -67.2066 2
    endloop
  endfacet
  facet normal 0 0 1
    outer loop
      vertex -88.6088 -67.2066 2
      vertex -105 85 2
      vertex -88.7071 -67.2929 2
    endloop
  endfacet
  facet normal 0 0 1
    outer loop
      vertex -88.7071 -67.2929 2
      vertex -105 85 2
      vertex -88.7934 -67.3912 2
    endloop
  endfacet
  facet normal 0 0 1
    outer loop
      vertex -88.9659 -67.7412 2
      vertex -105 -85 2
      vertex -88.9914 -67.8695 2
    endloop
  endfacet
  facet normal 0 0 1
    outer loop
      vertex -88.9239 -67.6173 2
      vertex -105 -85 2
      vertex -88.9659 -67.7412 2
    endloop
  endfacet
  facet normal 0 0 1
    outer loop
      vertex -88.866 -67.5 2
      vertex -105 -85 2
      vertex -88.9239 -67.6173 2
    endloop
  endfacet
  facet normal 0 0 1
    outer loop
      vertex -88.7934 -67.3912 2
      vertex -105 -85 2
      vertex -88.866 -67.5 2
    endloop
  endfacet
  facet normal 0 0 1
    outer loop
      vertex -105 -85 2
      vertex -88.7934 -67.3912 2
      vertex -105 85 2
    endloop
  endfacet
  facet normal 0 0 1
    outer loop
      vertex -0.793353 68.6088 2
      vertex -105 85 2
      vertex -0.866025 68.5 2
    endloop
  endfacet
  facet normal 0 0 1
    outer loop
      vertex -0.707107 68.7071 2
      vertex -105 85 2
      vertex -0.793353 68.6088 2
    endloop
  endfacet
  facet normal 0 0 1
    outer loop
      vertex -0.608761 68.7934 2
      vertex -105 85 2
      vertex -0.707107 68.7071 2
    endloop
  endfacet
  facet normal 0 0 1
    outer loop
      vertex -0.5 68.866 2
      vertex -105 85 2
      vertex -0.608761 68.7934 2
    endloop
  endfacet
  facet normal 0 0 1
    outer loop
      vertex -0.382683 68.9239 2
      vertex -105 85 2
      vertex -0.5 68.866 2
    endloop
  endfacet
  facet normal 0 0 1
    outer loop
      vertex -0.258819 68.9659 2
      vertex -105 85 2
      vertex -0.382683 68.9239 2
    endloop
  endfacet
  facet normal 0 0 1
    outer loop
      vertex -0.130526 68.9914 2
      vertex -105 85 2
      vertex -0.258819 68.9659 2
    endloop
  endfacet
  facet normal 0 0 1
    outer loop
      vertex 0 69 2
      vertex -105 85 2
      vertex -0.130526 68.9914 2
    endloop
  endfacet
  facet normal -0 0 1
    outer loop
      vertex 88.9914 -68.1305 2
      vertex 105 -85 2
      vertex 89 -68 2
    endloop
  endfacet
  facet normal -0 0 1
    outer loop
      vertex 88.9659 -68.2588 2
      vertex 105 -85 2
      vertex 88.9914 -68.1305 2
    endloop
  endfacet
  facet normal -0 0 1
    outer loop
      vertex 88.9239 -68.3827 2
      vertex 105 -85 2
      vertex 88.9659 -68.2588 2
    endloop
  endfacet
  facet normal -0 0 1
    outer loop
      vertex 88.866 -68.5 2
      vertex 105 -85 2
      vertex 88.9239 -68.3827 2
    endloop
  endfacet
  facet normal -0 0 1
    outer loop
      vertex 88.7934 -68.6088 2
      vertex 105 -85 2
      vertex 88.866 -68.5 2
    endloop
  endfacet
  facet normal -0 0 1
    outer loop
      vertex 88.7071 -68.7071 2
      vertex 105 -85 2
      vertex 88.7934 -68.6088 2
    endloop
  endfacet
  facet normal -0 0 1
    outer loop
      vertex 88.6088 -68.7934 2
      vertex 105 -85 2
      vertex 88.7071 -68.7071 2
    endloop
  endfacet
  facet normal -0 0 1
    outer loop
      vertex 88.5 -68.866 2
      vertex 105 -85 2
      vertex 88.6088 -68.7934 2
    endloop
  endfacet
  facet normal -0 0 1
    outer loop
      vertex 88.3827 -68.9239 2
      vertex 105 -85 2
      vertex 88.5 -68.866 2
    endloop
  endfacet
  facet normal -0 0 1
    outer loop
      vertex 88.2588 -68.9659 2
      vertex 105 -85 2
      vertex 88.3827 -68.9239 2
    endloop
  endfacet
  facet normal -0 0 1
    outer loop
      vertex 88.1305 -68.9914 2
      vertex 105 -85 2
      vertex 88.2588 -68.9659 2
    endloop
  endfacet
  facet normal -0 0 1
    outer loop
      vertex 88 -69 2
      vertex 105 -85 2
      vertex 88.1305 -68.9914 2
    endloop
  endfacet
  facet normal 0 0 1
    outer loop
      vertex 87.8695 -68.9914 2
      vertex 105 -85 2
      vertex 88 -69 2
    endloop
  endfacet
  facet normal 0 0 1
    outer loop
      vertex 87.7412 -68.9659 2
      vertex 105 -85 2
      vertex 87.8695 -68.9914 2
    endloop
  endfacet
  facet normal 0 0 1
    outer loop
      vertex 87.6173 -68.9239 2
      vertex 105 -85 2
      vertex 87.7412 -68.9659 2
    endloop
  endfacet
  facet normal 0 0 1
    outer loop
      vertex 87.5 -68.866 2
      vertex 105 -85 2
      vertex 87.6173 -68.9239 2
    endloop
  endfacet
  facet normal 0 0 1
    outer loop
      vertex 87.3912 -68.7934 2
      vertex 105 -85 2
      vertex 87.5 -68.866 2
    endloop
  endfacet
  facet normal 0 0 1
    outer loop
      vertex -87.3912 -68.7934 2
      vertex 87.3912 -68.7934 2
      vertex 87.2929 -68.7071 2
    endloop
  endfacet
  facet normal 0 0 1
    outer loop
      vertex 0.923879 67.6173 2
      vertex 105 85 2
      vertex 0.965925 67.7412 2
    endloop
  endfacet
  facet normal 0 0 1
    outer loop
      vertex 0.866025 67.5 2
      vertex 105 85 2
      vertex 0.923879 67.6173 2
    endloop
  endfacet
  facet normal 0 0 1
    outer loop
      vertex 0.793353 67.3912 2
      vertex 105 85 2
      vertex 0.866025 67.5 2
    endloop
  endfacet
  facet normal -0 0 1
    outer loop
      vertex 0.258819 67.0341 2
      vertex 87.2929 -67.2929 2
      vertex 0.382683 67.0761 2
    endloop
  endfacet
  facet normal 0 0 1
    outer loop
      vertex 87.2929 -67.2929 2
      vertex 0.258819 67.0341 2
      vertex 87.2066 -67.3912 2
    endloop
  endfacet
  facet normal -0 0 1
    outer loop
      vertex 0.130526 67.0086 2
      vertex 87.2066 -67.3912 2
      vertex 0.258819 67.0341 2
    endloop
  endfacet
  facet normal 0 0 1
    outer loop
      vertex 87.2066 -67.3912 2
      vertex 0.130526 67.0086 2
      vertex 87.134 -67.5 2
    endloop
  endfacet
  facet normal -0 0 1
    outer loop
      vertex 0 67 2
      vertex 87.134 -67.5 2
      vertex 0.130526 67.0086 2
    endloop
  endfacet
  facet normal 0 0 1
    outer loop
      vertex 87.134 -67.5 2
      vertex 0 67 2
      vertex 87.0761 -67.6173 2
    endloop
  endfacet
  facet normal 0 0 1
    outer loop
      vertex -87 -68 2
      vertex 87.0761 -67.6173 2
      vertex 0 67 2
    endloop
  endfacet
  facet normal 0 0 1
    outer loop
      vertex 87.0761 -67.6173 2
      vertex -87 -68 2
      vertex 87.0341 -67.7412 2
    endloop
  endfacet
  facet normal 0 0 1
    outer loop
      vertex 87.0341 -67.7412 2
      vertex -87 -68 2
      vertex 87.0086 -67.8695 2
    endloop
  endfacet
  facet normal 0 0 1
    outer loop
      vertex 87.0086 -67.8695 2
      vertex -87 -68 2
      vertex 87 -68 2
    endloop
  endfacet
  facet normal 0 0 1
    outer loop
      vertex 87 -68 2
      vertex -87 -68 2
      vertex 87.0086 -68.1305 2
    endloop
  endfacet
  facet normal 0 0 1
    outer loop
      vertex -87.0086 -68.1305 2
      vertex 87.0086 -68.1305 2
      vertex -87 -68 2
    endloop
  endfacet
  facet normal 0 0 1
    outer loop
      vertex 87.0086 -68.1305 2
      vertex -87.0086 -68.1305 2
      vertex 87.0341 -68.2588 2
    endloop
  endfacet
  facet normal 0 0 1
    outer loop
      vertex -87 -68 2
      vertex 0 67 2
      vertex -0.130526 67.0086 2
    endloop
  endfacet
  facet normal 0 0 1
    outer loop
      vertex -87 -68 2
      vertex -0.130526 67.0086 2
      vertex -0.258819 67.0341 2
    endloop
  endfacet
  facet normal 0 0 1
    outer loop
      vertex -87 -68 2
      vertex -0.258819 67.0341 2
      vertex -0.382683 67.0761 2
    endloop
  endfacet
  facet normal 0 0 1
    outer loop
      vertex -87 -68 2
      vertex -0.382683 67.0761 2
      vertex -0.5 67.134 2
    endloop
  endfacet
  facet normal 0 0 1
    outer loop
      vertex -87 -68 2
      vertex -0.5 67.134 2
      vertex -0.608761 67.2066 2
    endloop
  endfacet
  facet normal 0 0 1
    outer loop
      vertex -87 -68 2
      vertex -0.608761 67.2066 2
      vertex -0.707107 67.2929 2
    endloop
  endfacet
  facet normal 0 0 1
    outer loop
      vertex -87 -68 2
      vertex -0.707107 67.2929 2
      vertex -0.793353 67.3912 2
    endloop
  endfacet
  facet normal 0 0 1
    outer loop
      vertex -87 -68 2
      vertex -0.793353 67.3912 2
      vertex -0.866025 67.5 2
    endloop
  endfacet
  facet normal 0 0 1
    outer loop
      vertex -87 -68 2
      vertex -0.991445 67.8695 2
      vertex -1 68 2
    endloop
  endfacet
  facet normal 0 0 1
    outer loop
      vertex -87 -68 2
      vertex -0.965925 67.7412 2
      vertex -0.991445 67.8695 2
    endloop
  endfacet
  facet normal 0 0 1
    outer loop
      vertex -87 -68 2
      vertex -0.923879 67.6173 2
      vertex -0.965925 67.7412 2
    endloop
  endfacet
  facet normal 0 0 1
    outer loop
      vertex -87 -68 2
      vertex -0.866025 67.5 2
      vertex -0.923879 67.6173 2
    endloop
  endfacet
  facet normal 0 0 1
    outer loop
      vertex -87.0341 -68.2588 2
      vertex 87.0341 -68.2588 2
      vertex -87.0086 -68.1305 2
    endloop
  endfacet
  facet normal 0 0 1
    outer loop
      vertex 87.0341 -68.2588 2
      vertex -87.0341 -68.2588 2
      vertex 87.0761 -68.3827 2
    endloop
  endfacet
  facet normal 0 0 1
    outer loop
      vertex -87.0761 -68.3827 2
      vertex 87.0761 -68.3827 2
      vertex -87.0341 -68.2588 2
    endloop
  endfacet
  facet normal 0 0 1
    outer loop
      vertex 87.0761 -68.3827 2
      vertex -87.0761 -68.3827 2
      vertex 87.134 -68.5 2
    endloop
  endfacet
  facet normal 0 0 1
    outer loop
      vertex -87.134 -68.5 2
      vertex 87.134 -68.5 2
      vertex -87.0761 -68.3827 2
    endloop
  endfacet
  facet normal 0 0 1
    outer loop
      vertex 87.134 -68.5 2
      vertex -87.134 -68.5 2
      vertex 87.2066 -68.6088 2
    endloop
  endfacet
  facet normal 0 0 1
    outer loop
      vertex -87.2066 -68.6088 2
      vertex 87.2066 -68.6088 2
      vertex -87.134 -68.5 2
    endloop
  endfacet
  facet normal 0 0 1
    outer loop
      vertex 87.2066 -68.6088 2
      vertex -87.2066 -68.6088 2
      vertex 87.2929 -68.7071 2
    endloop
  endfacet
  facet normal 0 0 1
    outer loop
      vertex -87.2929 -68.7071 2
      vertex 87.2929 -68.7071 2
      vertex -87.2066 -68.6088 2
    endloop
  endfacet
  facet normal 0 0 1
    outer loop
      vertex -87.3912 -68.7934 2
      vertex 87.2929 -68.7071 2
      vertex -87.2929 -68.7071 2
    endloop
  endfacet
  facet normal 0 0 1
    outer loop
      vertex 87.3912 -68.7934 2
      vertex -87.3912 -68.7934 2
      vertex 105 -85 2
    endloop
  endfacet
  facet normal 0 0 1
    outer loop
      vertex -105 -85 2
      vertex -87.3912 -68.7934 2
      vertex -87.5 -68.866 2
    endloop
  endfacet
  facet normal 0 0 1
    outer loop
      vertex -105 -85 2
      vertex -87.5 -68.866 2
      vertex -87.6173 -68.9239 2
    endloop
  endfacet
  facet normal 0 0 1
    outer loop
      vertex -105 -85 2
      vertex -87.6173 -68.9239 2
      vertex -87.7412 -68.9659 2
    endloop
  endfacet
  facet normal 0 0 1
    outer loop
      vertex -105 -85 2
      vertex -87.7412 -68.9659 2
      vertex -87.8695 -68.9914 2
    endloop
  endfacet
  facet normal 0 0 1
    outer loop
      vertex -105 -85 2
      vertex -87.8695 -68.9914 2
      vertex -88 -69 2
    endloop
  endfacet
  facet normal 0 0 1
    outer loop
      vertex -105 -85 2
      vertex -88 -69 2
      vertex -88.1305 -68.9914 2
    endloop
  endfacet
  facet normal 0 0 1
    outer loop
      vertex -88.9914 -67.8695 2
      vertex -105 -85 2
      vertex -89 -68 2
    endloop
  endfacet
  facet normal 0 0 1
    outer loop
      vertex -87.3912 -68.7934 2
      vertex -105 -85 2
      vertex 105 -85 2
    endloop
  endfacet
  facet normal 0 0 1
    outer loop
      vertex -88.2588 -68.9659 2
      vertex -105 -85 2
      vertex -88.1305 -68.9914 2
    endloop
  endfacet
  facet normal 0 0 1
    outer loop
      vertex -88.3827 -68.9239 2
      vertex -105 -85 2
      vertex -88.2588 -68.9659 2
    endloop
  endfacet
  facet normal 0 0 1
    outer loop
      vertex -88.5 -68.866 2
      vertex -105 -85 2
      vertex -88.3827 -68.9239 2
    endloop
  endfacet
  facet normal 0 0 1
    outer loop
      vertex -88.6088 -68.7934 2
      vertex -105 -85 2
      vertex -88.5 -68.866 2
    endloop
  endfacet
  facet normal 0 0 1
    outer loop
      vertex -88.7071 -68.7071 2
      vertex -105 -85 2
      vertex -88.6088 -68.7934 2
    endloop
  endfacet
  facet normal 0 0 1
    outer loop
      vertex -88.7934 -68.6088 2
      vertex -105 -85 2
      vertex -88.7071 -68.7071 2
    endloop
  endfacet
  facet normal 0 0 1
    outer loop
      vertex -88.866 -68.5 2
      vertex -105 -85 2
      vertex -88.7934 -68.6088 2
    endloop
  endfacet
  facet normal 0 0 1
    outer loop
      vertex -88.9239 -68.3827 2
      vertex -105 -85 2
      vertex -88.866 -68.5 2
    endloop
  endfacet
  facet normal 0 0 1
    outer loop
      vertex -88.9659 -68.2588 2
      vertex -105 -85 2
      vertex -88.9239 -68.3827 2
    endloop
  endfacet
  facet normal 0 0 1
    outer loop
      vertex -88.9914 -68.1305 2
      vertex -105 -85 2
      vertex -88.9659 -68.2588 2
    endloop
  endfacet
  facet normal 0 0 1
    outer loop
      vertex -89 -68 2
      vertex -105 -85 2
      vertex -88.9914 -68.1305 2
    endloop
  endfacet
  facet normal 0 0 -1
    outer loop
      vertex 88.9914 -67.8695 -2
      vertex 105 -85 -2
      vertex 89 -68 -2
    endloop
  endfacet
  facet normal 0 0 -1
    outer loop
      vertex 105 -85 -2
      vertex 88.9914 -68.1305 -2
      vertex 89 -68 -2
    endloop
  endfacet
  facet normal 0 0 -1
    outer loop
      vertex 105 -85 -2
      vertex 88.9659 -68.2588 -2
      vertex 88.9914 -68.1305 -2
    endloop
  endfacet
  facet normal 0 0 -1
    outer loop
      vertex 105 -85 -2
      vertex 88.9239 -68.3827 -2
      vertex 88.9659 -68.2588 -2
    endloop
  endfacet
  facet normal 0 0 -1
    outer loop
      vertex 105 -85 -2
      vertex 88.866 -68.5 -2
      vertex 88.9239 -68.3827 -2
    endloop
  endfacet
  facet normal 0 0 -1
    outer loop
      vertex 105 -85 -2
      vertex 88.7934 -68.6088 -2
      vertex 88.866 -68.5 -2
    endloop
  endfacet
  facet normal 0 0 -1
    outer loop
      vertex 105 -85 -2
      vertex 88.7071 -68.7071 -2
      vertex 88.7934 -68.6088 -2
    endloop
  endfacet
  facet normal 0 0 -1
    outer loop
      vertex 105 -85 -2
      vertex 88.6088 -68.7934 -2
      vertex 88.7071 -68.7071 -2
    endloop
  endfacet
  facet normal 0 0 -1
    outer loop
      vertex 105 -85 -2
      vertex 88.5 -68.866 -2
      vertex 88.6088 -68.7934 -2
    endloop
  endfacet
  facet normal 0 0 -1
    outer loop
      vertex 105 -85 -2
      vertex 88.3827 -68.9239 -2
      vertex 88.5 -68.866 -2
    endloop
  endfacet
  facet normal 0 0 -1
    outer loop
      vertex 105 -85 -2
      vertex 88.2588 -68.9659 -2
      vertex 88.3827 -68.9239 -2
    endloop
  endfacet
  facet normal 0 0 -1
    outer loop
      vertex 105 -85 -2
      vertex 88.1305 -68.9914 -2
      vertex 88.2588 -68.9659 -2
    endloop
  endfacet
  facet normal 0 0 -1
    outer loop
      vertex 105 -85 -2
      vertex 88 -69 -2
      vertex 88.1305 -68.9914 -2
    endloop
  endfacet
  facet normal 0 0 -1
    outer loop
      vertex 105 -85 -2
      vertex 87.8695 -68.9914 -2
      vertex 88 -69 -2
    endloop
  endfacet
  facet normal 0 0 -1
    outer loop
      vertex 105 -85 -2
      vertex 87.7412 -68.9659 -2
      vertex 87.8695 -68.9914 -2
    endloop
  endfacet
  facet normal 0 0 -1
    outer loop
      vertex 105 -85 -2
      vertex 87.6173 -68.9239 -2
      vertex 87.7412 -68.9659 -2
    endloop
  endfacet
  facet normal 0 0 -1
    outer loop
      vertex 105 -85 -2
      vertex 87.5 -68.866 -2
      vertex 87.6173 -68.9239 -2
    endloop
  endfacet
  facet normal 0 0 -1
    outer loop
      vertex 105 -85 -2
      vertex 87.3912 -68.7934 -2
      vertex 87.5 -68.866 -2
    endloop
  endfacet
  facet normal 0 0 -1
    outer loop
      vertex -87.3912 -68.7934 -2
      vertex 87.3912 -68.7934 -2
      vertex 105 -85 -2
    endloop
  endfacet
  facet normal 0 0 -1
    outer loop
      vertex -87 -68 -2
      vertex 87 -68 -2
      vertex 87.0086 -68.1305 -2
    endloop
  endfacet
  facet normal 0 0 -1
    outer loop
      vertex -87.0086 -68.1305 -2
      vertex 87.0086 -68.1305 -2
      vertex 87.0341 -68.2588 -2
    endloop
  endfacet
  facet normal 0 0 -1
    outer loop
      vertex -87.0341 -68.2588 -2
      vertex 87.0341 -68.2588 -2
      vertex 87.0761 -68.3827 -2
    endloop
  endfacet
  facet normal 0 0 -1
    outer loop
      vertex -87.0761 -68.3827 -2
      vertex 87.0761 -68.3827 -2
      vertex 87.134 -68.5 -2
    endloop
  endfacet
  facet normal 0 0 -1
    outer loop
      vertex 87 -68 -2
      vertex 0.991445 67.8695 -2
      vertex 1 68 -2
    endloop
  endfacet
  facet normal 0 0 -1
    outer loop
      vertex 87 -68 -2
      vertex 0.965925 67.7412 -2
      vertex 0.991445 67.8695 -2
    endloop
  endfacet
  facet normal 0 0 -1
    outer loop
      vertex 87 -68 -2
      vertex 0.923879 67.6173 -2
      vertex 0.965925 67.7412 -2
    endloop
  endfacet
  facet normal 0 0 -1
    outer loop
      vertex 87 -68 -2
      vertex 0.866025 67.5 -2
      vertex 0.923879 67.6173 -2
    endloop
  endfacet
  facet normal 0 0 -1
    outer loop
      vertex 87 -68 -2
      vertex 0.793353 67.3912 -2
      vertex 0.866025 67.5 -2
    endloop
  endfacet
  facet normal 0 0 -1
    outer loop
      vertex 87 -68 -2
      vertex 0.707107 67.2929 -2
      vertex 0.793353 67.3912 -2
    endloop
  endfacet
  facet normal 0 0 -1
    outer loop
      vertex 87 -68 -2
      vertex 0.608761 67.2066 -2
      vertex 0.707107 67.2929 -2
    endloop
  endfacet
  facet normal 0 0 -1
    outer loop
      vertex 87 -68 -2
      vertex 0.5 67.134 -2
      vertex 0.608761 67.2066 -2
    endloop
  endfacet
  facet normal 0 0 -1
    outer loop
      vertex 87 -68 -2
      vertex 0.382683 67.0761 -2
      vertex 0.5 67.134 -2
    endloop
  endfacet
  facet normal 0 0 -1
    outer loop
      vertex 87 -68 -2
      vertex 0.258819 67.0341 -2
      vertex 0.382683 67.0761 -2
    endloop
  endfacet
  facet normal 0 0 -1
    outer loop
      vertex 87 -68 -2
      vertex 0.130526 67.0086 -2
      vertex 0.258819 67.0341 -2
    endloop
  endfacet
  facet normal 0 0 -1
    outer loop
      vertex 87 -68 -2
      vertex 0 67 -2
      vertex 0.130526 67.0086 -2
    endloop
  endfacet
  facet normal 0 0 -1
    outer loop
      vertex 87 -68 -2
      vertex -87.0761 -67.6173 -2
      vertex 0 67 -2
    endloop
  endfacet
  facet normal 0 0 -1
    outer loop
      vertex -87.134 -67.5 -2
      vertex 0 67 -2
      vertex -87.0761 -67.6173 -2
    endloop
  endfacet
  facet normal -0 0 -1
    outer loop
      vertex 0 67 -2
      vertex -87.134 -67.5 -2
      vertex -0.130526 67.0086 -2
    endloop
  endfacet
  facet normal 0 0 -1
    outer loop
      vertex -87.2066 -67.3912 -2
      vertex -0.130526 67.0086 -2
      vertex -87.134 -67.5 -2
    endloop
  endfacet
  facet normal -0 0 -1
    outer loop
      vertex -0.130526 67.0086 -2
      vertex -87.2066 -67.3912 -2
      vertex -0.258819 67.0341 -2
    endloop
  endfacet
  facet normal 0 0 -1
    outer loop
      vertex -87.2929 -67.2929 -2
      vertex -0.258819 67.0341 -2
      vertex -87.2066 -67.3912 -2
    endloop
  endfacet
  facet normal -0 0 -1
    outer loop
      vertex -0.258819 67.0341 -2
      vertex -87.2929 -67.2929 -2
      vertex -0.382683 67.0761 -2
    endloop
  endfacet
  facet normal 0 0 -1
    outer loop
      vertex -87.3912 -67.2066 -2
      vertex -0.382683 67.0761 -2
      vertex -87.2929 -67.2929 -2
    endloop
  endfacet
  facet normal 0 0 -1
    outer loop
      vertex -87.5 -67.134 -2
      vertex -0.5 67.134 -2
      vertex -87.3912 -67.2066 -2
    endloop
  endfacet
  facet normal -0 0 -1
    outer loop
      vertex -0.382683 67.0761 -2
      vertex -87.3912 -67.2066 -2
      vertex -0.5 67.134 -2
    endloop
  endfacet
  facet normal 0 0 -1
    outer loop
      vertex 87 -68 -2
      vertex -87.0341 -67.7412 -2
      vertex -87.0761 -67.6173 -2
    endloop
  endfacet
  facet normal 0 0 -1
    outer loop
      vertex 87 -68 -2
      vertex -87.0086 -67.8695 -2
      vertex -87.0341 -67.7412 -2
    endloop
  endfacet
  facet normal 0 0 -1
    outer loop
      vertex 87 -68 -2
      vertex -87 -68 -2
      vertex -87.0086 -67.8695 -2
    endloop
  endfacet
  facet normal 0 0 -1
    outer loop
      vertex -87.134 -68.5 -2
      vertex 87.134 -68.5 -2
      vertex 87.2066 -68.6088 -2
    endloop
  endfacet
  facet normal 0 0 -1
    outer loop
      vertex -87.2066 -68.6088 -2
      vertex 87.2066 -68.6088 -2
      vertex 87.2929 -68.7071 -2
    endloop
  endfacet
  facet normal 0 0 -1
    outer loop
      vertex 87.3912 -68.7934 -2
      vertex -87.3912 -68.7934 -2
      vertex 87.2929 -68.7071 -2
    endloop
  endfacet
  facet normal 0 0 -1
    outer loop
      vertex 87.0086 -68.1305 -2
      vertex -87.0086 -68.1305 -2
      vertex -87 -68 -2
    endloop
  endfacet
  facet normal 0 0 -1
    outer loop
      vertex 87.0341 -68.2588 -2
      vertex -87.0341 -68.2588 -2
      vertex -87.0086 -68.1305 -2
    endloop
  endfacet
  facet normal 0 0 -1
    outer loop
      vertex 87.0761 -68.3827 -2
      vertex -87.0761 -68.3827 -2
      vertex -87.0341 -68.2588 -2
    endloop
  endfacet
  facet normal 0 0 -1
    outer loop
      vertex 87.134 -68.5 -2
      vertex -87.134 -68.5 -2
      vertex -87.0761 -68.3827 -2
    endloop
  endfacet
  facet normal 0 0 -1
    outer loop
      vertex 87.2066 -68.6088 -2
      vertex -87.2066 -68.6088 -2
      vertex -87.134 -68.5 -2
    endloop
  endfacet
  facet normal 0 0 -1
    outer loop
      vertex 87.2929 -68.7071 -2
      vertex -87.2929 -68.7071 -2
      vertex -87.2066 -68.6088 -2
    endloop
  endfacet
  facet normal -0 0 -1
    outer loop
      vertex 87.2929 -68.7071 -2
      vertex -87.3912 -68.7934 -2
      vertex -87.2929 -68.7071 -2
    endloop
  endfacet
  facet normal 0 0 -1
    outer loop
      vertex -105 -85 -2
      vertex -87.3912 -68.7934 -2
      vertex 105 -85 -2
    endloop
  endfacet
  facet normal 0 0 -1
    outer loop
      vertex -87.3912 -68.7934 -2
      vertex -105 -85 -2
      vertex -87.5 -68.866 -2
    endloop
  endfacet
  facet normal 0 0 -1
    outer loop
      vertex -87.5 -68.866 -2
      vertex -105 -85 -2
      vertex -87.6173 -68.9239 -2
    endloop
  endfacet
  facet normal 0 0 -1
    outer loop
      vertex -87.6173 -68.9239 -2
      vertex -105 -85 -2
      vertex -87.7412 -68.9659 -2
    endloop
  endfacet
  facet normal 0 0 -1
    outer loop
      vertex -87.7412 -68.9659 -2
      vertex -105 -85 -2
      vertex -87.8695 -68.9914 -2
    endloop
  endfacet
  facet normal 0 0 -1
    outer loop
      vertex -87.8695 -68.9914 -2
      vertex -105 -85 -2
      vertex -88 -69 -2
    endloop
  endfacet
  facet normal -0 0 -1
    outer loop
      vertex -88.9914 -68.1305 -2
      vertex -105 -85 -2
      vertex -89 -68 -2
    endloop
  endfacet
  facet normal -0 0 -1
    outer loop
      vertex -88.9659 -68.2588 -2
      vertex -105 -85 -2
      vertex -88.9914 -68.1305 -2
    endloop
  endfacet
  facet normal -0 0 -1
    outer loop
      vertex -88.9239 -68.3827 -2
      vertex -105 -85 -2
      vertex -88.9659 -68.2588 -2
    endloop
  endfacet
  facet normal -0 0 -1
    outer loop
      vertex -88.866 -68.5 -2
      vertex -105 -85 -2
      vertex -88.9239 -68.3827 -2
    endloop
  endfacet
  facet normal -0 0 -1
    outer loop
      vertex -88.7934 -68.6088 -2
      vertex -105 -85 -2
      vertex -88.866 -68.5 -2
    endloop
  endfacet
  facet normal -0 0 -1
    outer loop
      vertex -88.7071 -68.7071 -2
      vertex -105 -85 -2
      vertex -88.7934 -68.6088 -2
    endloop
  endfacet
  facet normal -0 0 -1
    outer loop
      vertex -88.6088 -68.7934 -2
      vertex -105 -85 -2
      vertex -88.7071 -68.7071 -2
    endloop
  endfacet
  facet normal -0 0 -1
    outer loop
      vertex -88.5 -68.866 -2
      vertex -105 -85 -2
      vertex -88.6088 -68.7934 -2
    endloop
  endfacet
  facet normal -0 0 -1
    outer loop
      vertex -88.3827 -68.9239 -2
      vertex -105 -85 -2
      vertex -88.5 -68.866 -2
    endloop
  endfacet
  facet normal -0 0 -1
    outer loop
      vertex -88.2588 -68.9659 -2
      vertex -105 -85 -2
      vertex -88.3827 -68.9239 -2
    endloop
  endfacet
  facet normal -0 0 -1
    outer loop
      vertex -88.1305 -68.9914 -2
      vertex -105 -85 -2
      vertex -88.2588 -68.9659 -2
    endloop
  endfacet
  facet normal -0 0 -1
    outer loop
      vertex -88 -69 -2
      vertex -105 -85 -2
      vertex -88.1305 -68.9914 -2
    endloop
  endfacet
  facet normal 0 0 -1
    outer loop
      vertex 88.9659 -67.7412 -2
      vertex 105 -85 -2
      vertex 88.9914 -67.8695 -2
    endloop
  endfacet
  facet normal 0 0 -1
    outer loop
      vertex 88.9239 -67.6173 -2
      vertex 105 -85 -2
      vertex 88.9659 -67.7412 -2
    endloop
  endfacet
  facet normal 0 0 -1
    outer loop
      vertex 88.866 -67.5 -2
      vertex 105 -85 -2
      vertex 88.9239 -67.6173 -2
    endloop
  endfacet
  facet normal 0 0 -1
    outer loop
      vertex 88.7934 -67.3912 -2
      vertex 105 -85 -2
      vertex 88.866 -67.5 -2
    endloop
  endfacet
  facet normal 0 0 -1
    outer loop
      vertex 105 -85 -2
      vertex 88.7934 -67.3912 -2
      vertex 105 85 -2
    endloop
  endfacet
  facet normal 0 0 -1
    outer loop
      vertex 88.7071 -67.2929 -2
      vertex 105 85 -2
      vertex 88.7934 -67.3912 -2
    endloop
  endfacet
  facet normal 0 0 -1
    outer loop
      vertex 88.6088 -67.2066 -2
      vertex 105 85 -2
      vertex 88.7071 -67.2929 -2
    endloop
  endfacet
  facet normal 0 0 -1
    outer loop
      vertex 88.5 -67.134 -2
      vertex 105 85 -2
      vertex 88.6088 -67.2066 -2
    endloop
  endfacet
  facet normal 0 0 -1
    outer loop
      vertex 88.3827 -67.0761 -2
      vertex 105 85 -2
      vertex 88.5 -67.134 -2
    endloop
  endfacet
  facet normal 0 0 -1
    outer loop
      vertex 88.2588 -67.0341 -2
      vertex 105 85 -2
      vertex 88.3827 -67.0761 -2
    endloop
  endfacet
  facet normal 0 0 -1
    outer loop
      vertex 88.1305 -67.0086 -2
      vertex 105 85 -2
      vertex 88.2588 -67.0341 -2
    endloop
  endfacet
  facet normal 0 0 -1
    outer loop
      vertex 88 -67 -2
      vertex 105 85 -2
      vertex 88.1305 -67.0086 -2
    endloop
  endfacet
  facet normal 0 0 -1
    outer loop
      vertex 87.8695 -67.0086 -2
      vertex 105 85 -2
      vertex 88 -67 -2
    endloop
  endfacet
  facet normal 0 0 -1
    outer loop
      vertex 87.7412 -67.0341 -2
      vertex 105 85 -2
      vertex 87.8695 -67.0086 -2
    endloop
  endfacet
  facet normal 0 0 -1
    outer loop
      vertex 1 68 -2
      vertex 87.7412 -67.0341 -2
      vertex 87.6173 -67.0761 -2
    endloop
  endfacet
  facet normal 0 0 -1
    outer loop
      vertex 1 68 -2
      vertex 87.6173 -67.0761 -2
      vertex 87.5 -67.134 -2
    endloop
  endfacet
  facet normal 0 0 -1
    outer loop
      vertex 1 68 -2
      vertex 87.5 -67.134 -2
      vertex 87.3912 -67.2066 -2
    endloop
  endfacet
  facet normal 0 0 -1
    outer loop
      vertex 1 68 -2
      vertex 87.3912 -67.2066 -2
      vertex 87.2929 -67.2929 -2
    endloop
  endfacet
  facet normal 0 0 -1
    outer loop
      vertex 1 68 -2
      vertex 87.2929 -67.2929 -2
      vertex 87.2066 -67.3912 -2
    endloop
  endfacet
  facet normal 0 0 -1
    outer loop
      vertex 1 68 -2
      vertex 87.2066 -67.3912 -2
      vertex 87.134 -67.5 -2
    endloop
  endfacet
  facet normal 0 0 -1
    outer loop
      vertex 1 68 -2
      vertex 87.134 -67.5 -2
      vertex 87.0761 -67.6173 -2
    endloop
  endfacet
  facet normal 0 0 -1
    outer loop
      vertex 1 68 -2
      vertex 87.0761 -67.6173 -2
      vertex 87.0341 -67.7412 -2
    endloop
  endfacet
  facet normal 0 0 -1
    outer loop
      vertex 1 68 -2
      vertex 87.0341 -67.7412 -2
      vertex 87.0086 -67.8695 -2
    endloop
  endfacet
  facet normal 0 0 -1
    outer loop
      vertex 1 68 -2
      vertex 87.0086 -67.8695 -2
      vertex 87 -68 -2
    endloop
  endfacet
  facet normal 0 0 -1
    outer loop
      vertex 87.7412 -67.0341 -2
      vertex 1 68 -2
      vertex 105 85 -2
    endloop
  endfacet
  facet normal 0 0 -1
    outer loop
      vertex 0.991445 68.1305 -2
      vertex 105 85 -2
      vertex 1 68 -2
    endloop
  endfacet
  facet normal 0 0 -1
    outer loop
      vertex 0.965925 68.2588 -2
      vertex 105 85 -2
      vertex 0.991445 68.1305 -2
    endloop
  endfacet
  facet normal 0 0 -1
    outer loop
      vertex 0.923879 68.3827 -2
      vertex 105 85 -2
      vertex 0.965925 68.2588 -2
    endloop
  endfacet
  facet normal 0 0 -1
    outer loop
      vertex 0.866025 68.5 -2
      vertex 105 85 -2
      vertex 0.923879 68.3827 -2
    endloop
  endfacet
  facet normal 0 0 -1
    outer loop
      vertex 0.793353 68.6088 -2
      vertex 105 85 -2
      vertex 0.866025 68.5 -2
    endloop
  endfacet
  facet normal 0 0 -1
    outer loop
      vertex 0.707107 68.7071 -2
      vertex 105 85 -2
      vertex 0.793353 68.6088 -2
    endloop
  endfacet
  facet normal 0 0 -1
    outer loop
      vertex 0.608761 68.7934 -2
      vertex 105 85 -2
      vertex 0.707107 68.7071 -2
    endloop
  endfacet
  facet normal 0 0 -1
    outer loop
      vertex 0.5 68.866 -2
      vertex 105 85 -2
      vertex 0.608761 68.7934 -2
    endloop
  endfacet
  facet normal 0 0 -1
    outer loop
      vertex 0.382683 68.9239 -2
      vertex 105 85 -2
      vertex 0.5 68.866 -2
    endloop
  endfacet
  facet normal 0 0 -1
    outer loop
      vertex 0.258819 68.9659 -2
      vertex 105 85 -2
      vertex 0.382683 68.9239 -2
    endloop
  endfacet
  facet normal 0 0 -1
    outer loop
      vertex 0.130526 68.9914 -2
      vertex 105 85 -2
      vertex 0.258819 68.9659 -2
    endloop
  endfacet
  facet normal 0 0 -1
    outer loop
      vertex 0 69 -2
      vertex 105 85 -2
      vertex 0.130526 68.9914 -2
    endloop
  endfacet
  facet normal 0 0 -1
    outer loop
      vertex -105 85 -2
      vertex 0 69 -2
      vertex -0.130526 68.9914 -2
    endloop
  endfacet
  facet normal -0 0 -1
    outer loop
      vertex -0.5 67.134 -2
      vertex -87.5 -67.134 -2
      vertex -0.608761 67.2066 -2
    endloop
  endfacet
  facet normal 0 0 -1
    outer loop
      vertex -87.6173 -67.0761 -2
      vertex -0.608761 67.2066 -2
      vertex -87.5 -67.134 -2
    endloop
  endfacet
  facet normal -0 0 -1
    outer loop
      vertex -0.608761 67.2066 -2
      vertex -87.6173 -67.0761 -2
      vertex -0.707107 67.2929 -2
    endloop
  endfacet
  facet normal 0 0 -1
    outer loop
      vertex -87.7412 -67.0341 -2
      vertex -0.707107 67.2929 -2
      vertex -87.6173 -67.0761 -2
    endloop
  endfacet
  facet normal -0 0 -1
    outer loop
      vertex -0.707107 67.2929 -2
      vertex -87.7412 -67.0341 -2
      vertex -0.793353 67.3912 -2
    endloop
  endfacet
  facet normal 0 0 -1
    outer loop
      vertex -105 85 -2
      vertex -0.793353 67.3912 -2
      vertex -87.7412 -67.0341 -2
    endloop
  endfacet
  facet normal 0 0 -1
    outer loop
      vertex -0.793353 67.3912 -2
      vertex -105 85 -2
      vertex -0.866025 67.5 -2
    endloop
  endfacet
  facet normal 0 0 -1
    outer loop
      vertex -0.866025 67.5 -2
      vertex -105 85 -2
      vertex -0.923879 67.6173 -2
    endloop
  endfacet
  facet normal 0 0 -1
    outer loop
      vertex -0.923879 67.6173 -2
      vertex -105 85 -2
      vertex -0.965925 67.7412 -2
    endloop
  endfacet
  facet normal 0 0 -1
    outer loop
      vertex -0.965925 67.7412 -2
      vertex -105 85 -2
      vertex -0.991445 67.8695 -2
    endloop
  endfacet
  facet normal 0 0 -1
    outer loop
      vertex -0.991445 67.8695 -2
      vertex -105 85 -2
      vertex -1 68 -2
    endloop
  endfacet
  facet normal 0 0 -1
    outer loop
      vertex -1 68 -2
      vertex -105 85 -2
      vertex -0.991445 68.1305 -2
    endloop
  endfacet
  facet normal 0 0 -1
    outer loop
      vertex -0.991445 68.1305 -2
      vertex -105 85 -2
      vertex -0.965925 68.2588 -2
    endloop
  endfacet
  facet normal 0 0 -1
    outer loop
      vertex -0.965925 68.2588 -2
      vertex -105 85 -2
      vertex -0.923879 68.3827 -2
    endloop
  endfacet
  facet normal 0 0 -1
    outer loop
      vertex -105 85 -2
      vertex -87.7412 -67.0341 -2
      vertex -87.8695 -67.0086 -2
    endloop
  endfacet
  facet normal 0 0 -1
    outer loop
      vertex -105 85 -2
      vertex -87.8695 -67.0086 -2
      vertex -88 -67 -2
    endloop
  endfacet
  facet normal 0 0 -1
    outer loop
      vertex -105 85 -2
      vertex -88 -67 -2
      vertex -88.1305 -67.0086 -2
    endloop
  endfacet
  facet normal 0 0 -1
    outer loop
      vertex -105 85 -2
      vertex -88.1305 -67.0086 -2
      vertex -88.2588 -67.0341 -2
    endloop
  endfacet
  facet normal 0 0 -1
    outer loop
      vertex -105 85 -2
      vertex -88.2588 -67.0341 -2
      vertex -88.3827 -67.0761 -2
    endloop
  endfacet
  facet normal 0 0 -1
    outer loop
      vertex -105 85 -2
      vertex -88.3827 -67.0761 -2
      vertex -88.5 -67.134 -2
    endloop
  endfacet
  facet normal 0 0 -1
    outer loop
      vertex -105 85 -2
      vertex -88.5 -67.134 -2
      vertex -88.6088 -67.2066 -2
    endloop
  endfacet
  facet normal 0 0 -1
    outer loop
      vertex -105 85 -2
      vertex -88.6088 -67.2066 -2
      vertex -88.7071 -67.2929 -2
    endloop
  endfacet
  facet normal 0 0 -1
    outer loop
      vertex -105 85 -2
      vertex -88.7071 -67.2929 -2
      vertex -88.7934 -67.3912 -2
    endloop
  endfacet
  facet normal 0 0 -1
    outer loop
      vertex -105 -85 -2
      vertex -88.7934 -67.3912 -2
      vertex -88.866 -67.5 -2
    endloop
  endfacet
  facet normal 0 0 -1
    outer loop
      vertex -105 -85 -2
      vertex -88.9914 -67.8695 -2
      vertex -89 -68 -2
    endloop
  endfacet
  facet normal 0 0 -1
    outer loop
      vertex -105 -85 -2
      vertex -88.9659 -67.7412 -2
      vertex -88.9914 -67.8695 -2
    endloop
  endfacet
  facet normal 0 0 -1
    outer loop
      vertex -105 -85 -2
      vertex -88.9239 -67.6173 -2
      vertex -88.9659 -67.7412 -2
    endloop
  endfacet
  facet normal 0 0 -1
    outer loop
      vertex -105 -85 -2
      vertex -88.866 -67.5 -2
      vertex -88.9239 -67.6173 -2
    endloop
  endfacet
  facet normal -0 0 -1
    outer loop
      vertex -88.7934 -67.3912 -2
      vertex -105 -85 -2
      vertex -105 85 -2
    endloop
  endfacet
  facet normal 0 0 -1
    outer loop
      vertex -0.923879 68.3827 -2
      vertex -105 85 -2
      vertex -0.866025 68.5 -2
    endloop
  endfacet
  facet normal 0 0 -1
    outer loop
      vertex 0 69 -2
      vertex -105 85 -2
      vertex 105 85 -2
    endloop
  endfacet
  facet normal 0 0 -1
    outer loop
      vertex -0.258819 68.9659 -2
      vertex -105 85 -2
      vertex -0.130526 68.9914 -2
    endloop
  endfacet
  facet normal 0 0 -1
    outer loop
      vertex -0.382683 68.9239 -2
      vertex -105 85 -2
      vertex -0.258819 68.9659 -2
    endloop
  endfacet
  facet normal 0 0 -1
    outer loop
      vertex -0.5 68.866 -2
      vertex -105 85 -2
      vertex -0.382683 68.9239 -2
    endloop
  endfacet
  facet normal 0 0 -1
    outer loop
      vertex -0.608761 68.7934 -2
      vertex -105 85 -2
      vertex -0.5 68.866 -2
    endloop
  endfacet
  facet normal 0 0 -1
    outer loop
      vertex -0.707107 68.7071 -2
      vertex -105 85 -2
      vertex -0.608761 68.7934 -2
    endloop
  endfacet
  facet normal 0 0 -1
    outer loop
      vertex -0.793353 68.6088 -2
      vertex -105 85 -2
      vertex -0.707107 68.7071 -2
    endloop
  endfacet
  facet normal 0 0 -1
    outer loop
      vertex -0.866025 68.5 -2
      vertex -105 85 -2
      vertex -0.793353 68.6088 -2
    endloop
  endfacet
  facet normal -1 0 0
    outer loop
      vertex -105 -85 -2
      vertex -105 85 2
      vertex -105 85 -2
    endloop
  endfacet
  facet normal -1 -0 0
    outer loop
      vertex -105 85 2
      vertex -105 -85 -2
      vertex -105 -85 2
    endloop
  endfacet
  facet normal 0 1 -0
    outer loop
      vertex 105 85 -2
      vertex -105 85 2
      vertex 105 85 2
    endloop
  endfacet
  facet normal 0 1 0
    outer loop
      vertex -105 85 2
      vertex 105 85 -2
      vertex -105 85 -2
    endloop
  endfacet
  facet normal 0 -1 0
    outer loop
      vertex -105 -85 -2
      vertex 105 -85 2
      vertex -105 -85 2
    endloop
  endfacet
  facet normal 0 -1 -0
    outer loop
      vertex 105 -85 2
      vertex -105 -85 -2
      vertex 105 -85 -2
    endloop
  endfacet
  facet normal -0.831815 0.555053 0
    outer loop
      vertex -87.2066 -68.6088 -2
      vertex -87.134 -68.5 2
      vertex -87.134 -68.5 -2
    endloop
  endfacet
  facet normal -0.831815 0.555053 0
    outer loop
      vertex -87.134 -68.5 2
      vertex -87.2066 -68.6088 -2
      vertex -87.2066 -68.6088 2
    endloop
  endfacet
  facet normal -0.0657577 0.997836 0
    outer loop
      vertex -87.8695 -68.9914 -2
      vertex -88 -69 2
      vertex -87.8695 -68.9914 2
    endloop
  endfacet
  facet normal -0.0657577 0.997836 0
    outer loop
      vertex -88 -69 2
      vertex -87.8695 -68.9914 -2
      vertex -88 -69 -2
    endloop
  endfacet
  facet normal -0.980815 -0.19494 0
    outer loop
      vertex -87.0086 -67.8695 -2
      vertex -87.0341 -67.7412 2
      vertex -87.0341 -67.7412 -2
    endloop
  endfacet
  facet normal -0.980815 -0.19494 0
    outer loop
      vertex -87.0341 -67.7412 2
      vertex -87.0086 -67.8695 -2
      vertex -87.0086 -67.8695 2
    endloop
  endfacet
  facet normal -0.997836 -0.0657577 0
    outer loop
      vertex -87 -68 -2
      vertex -87.0086 -67.8695 2
      vertex -87.0086 -67.8695 -2
    endloop
  endfacet
  facet normal -0.997836 -0.0657577 0
    outer loop
      vertex -87.0086 -67.8695 2
      vertex -87 -68 -2
      vertex -87 -68 2
    endloop
  endfacet
  facet normal 0.896709 -0.442621 0
    outer loop
      vertex -88.9239 -67.6173 2
      vertex -88.866 -67.5 -2
      vertex -88.866 -67.5 2
    endloop
  endfacet
  facet normal 0.896709 -0.442621 0
    outer loop
      vertex -88.866 -67.5 -2
      vertex -88.9239 -67.6173 2
      vertex -88.9239 -67.6173 -2
    endloop
  endfacet
  facet normal -0.321039 -0.947066 0
    outer loop
      vertex -87.7412 -67.0341 -2
      vertex -87.6173 -67.0761 2
      vertex -87.7412 -67.0341 2
    endloop
  endfacet
  facet normal -0.321039 -0.947066 -0
    outer loop
      vertex -87.6173 -67.0761 2
      vertex -87.7412 -67.0341 -2
      vertex -87.6173 -67.0761 -2
    endloop
  endfacet
  facet normal -0.980815 0.19494 0
    outer loop
      vertex -87.0341 -68.2588 -2
      vertex -87.0086 -68.1305 2
      vertex -87.0086 -68.1305 -2
    endloop
  endfacet
  facet normal -0.980815 0.19494 0
    outer loop
      vertex -87.0086 -68.1305 2
      vertex -87.0341 -68.2588 -2
      vertex -87.0341 -68.2588 2
    endloop
  endfacet
  facet normal -0.19494 0.980815 0
    outer loop
      vertex -87.7412 -68.9659 -2
      vertex -87.8695 -68.9914 2
      vertex -87.7412 -68.9659 2
    endloop
  endfacet
  facet normal -0.19494 0.980815 0
    outer loop
      vertex -87.8695 -68.9914 2
      vertex -87.7412 -68.9659 -2
      vertex -87.8695 -68.9914 -2
    endloop
  endfacet
  facet normal -0.896709 -0.442621 0
    outer loop
      vertex -87.0761 -67.6173 -2
      vertex -87.134 -67.5 2
      vertex -87.134 -67.5 -2
    endloop
  endfacet
  facet normal -0.896709 -0.442621 0
    outer loop
      vertex -87.134 -67.5 2
      vertex -87.0761 -67.6173 -2
      vertex -87.0761 -67.6173 2
    endloop
  endfacet
  facet normal -0.659749 -0.751486 0
    outer loop
      vertex -87.3912 -67.2066 -2
      vertex -87.2929 -67.2929 2
      vertex -87.3912 -67.2066 2
    endloop
  endfacet
  facet normal -0.659749 -0.751486 -0
    outer loop
      vertex -87.2929 -67.2929 2
      vertex -87.3912 -67.2066 -2
      vertex -87.2929 -67.2929 -2
    endloop
  endfacet
  facet normal 0.947066 0.321039 0
    outer loop
      vertex -88.9239 -68.3827 2
      vertex -88.9659 -68.2588 -2
      vertex -88.9659 -68.2588 2
    endloop
  endfacet
  facet normal 0.947066 0.321039 0
    outer loop
      vertex -88.9659 -68.2588 -2
      vertex -88.9239 -68.3827 2
      vertex -88.9239 -68.3827 -2
    endloop
  endfacet
  facet normal 0.751486 0.659749 0
    outer loop
      vertex -88.7071 -68.7071 2
      vertex -88.7934 -68.6088 -2
      vertex -88.7934 -68.6088 2
    endloop
  endfacet
  facet normal 0.751486 0.659749 0
    outer loop
      vertex -88.7934 -68.6088 -2
      vertex -88.7071 -68.7071 2
      vertex -88.7071 -68.7071 -2
    endloop
  endfacet
  facet normal 0.19494 0.980815 -0
    outer loop
      vertex -88.1305 -68.9914 -2
      vertex -88.2588 -68.9659 2
      vertex -88.1305 -68.9914 2
    endloop
  endfacet
  facet normal 0.19494 0.980815 0
    outer loop
      vertex -88.2588 -68.9659 2
      vertex -88.1305 -68.9914 -2
      vertex -88.2588 -68.9659 -2
    endloop
  endfacet
  facet normal -0.947066 0.321039 0
    outer loop
      vertex -87.0761 -68.3827 -2
      vertex -87.0341 -68.2588 2
      vertex -87.0341 -68.2588 -2
    endloop
  endfacet
  facet normal -0.947066 0.321039 0
    outer loop
      vertex -87.0341 -68.2588 2
      vertex -87.0761 -68.3827 -2
      vertex -87.0761 -68.3827 2
    endloop
  endfacet
  facet normal -0.831815 -0.555053 0
    outer loop
      vertex -87.134 -67.5 -2
      vertex -87.2066 -67.3912 2
      vertex -87.2066 -67.3912 -2
    endloop
  endfacet
  facet normal -0.831815 -0.555053 0
    outer loop
      vertex -87.2066 -67.3912 2
      vertex -87.134 -67.5 -2
      vertex -87.134 -67.5 2
    endloop
  endfacet
  facet normal -0.0657577 -0.997836 0
    outer loop
      vertex -88 -67 -2
      vertex -87.8695 -67.0086 2
      vertex -88 -67 2
    endloop
  endfacet
  facet normal -0.0657577 -0.997836 -0
    outer loop
      vertex -87.8695 -67.0086 2
      vertex -88 -67 -2
      vertex -87.8695 -67.0086 -2
    endloop
  endfacet
  facet normal -0.555053 0.831815 0
    outer loop
      vertex -87.3912 -68.7934 -2
      vertex -87.5 -68.866 2
      vertex -87.3912 -68.7934 2
    endloop
  endfacet
  facet normal -0.555053 0.831815 0
    outer loop
      vertex -87.5 -68.866 2
      vertex -87.3912 -68.7934 -2
      vertex -87.5 -68.866 -2
    endloop
  endfacet
  facet normal -0.659749 0.751486 0
    outer loop
      vertex -87.2929 -68.7071 -2
      vertex -87.3912 -68.7934 2
      vertex -87.2929 -68.7071 2
    endloop
  endfacet
  facet normal -0.659749 0.751486 0
    outer loop
      vertex -87.3912 -68.7934 2
      vertex -87.2929 -68.7071 -2
      vertex -87.3912 -68.7934 -2
    endloop
  endfacet
  facet normal -0.997836 0.0657577 0
    outer loop
      vertex -87.0086 -68.1305 -2
      vertex -87 -68 2
      vertex -87 -68 -2
    endloop
  endfacet
  facet normal -0.997836 0.0657577 0
    outer loop
      vertex -87 -68 2
      vertex -87.0086 -68.1305 -2
      vertex -87.0086 -68.1305 2
    endloop
  endfacet
  facet normal -0.321039 0.947066 0
    outer loop
      vertex -87.6173 -68.9239 -2
      vertex -87.7412 -68.9659 2
      vertex -87.6173 -68.9239 2
    endloop
  endfacet
  facet normal -0.321039 0.947066 0
    outer loop
      vertex -87.7412 -68.9659 2
      vertex -87.6173 -68.9239 -2
      vertex -87.7412 -68.9659 -2
    endloop
  endfacet
  facet normal -0.442621 -0.896709 0
    outer loop
      vertex -87.6173 -67.0761 -2
      vertex -87.5 -67.134 2
      vertex -87.6173 -67.0761 2
    endloop
  endfacet
  facet normal -0.442621 -0.896709 -0
    outer loop
      vertex -87.5 -67.134 2
      vertex -87.6173 -67.0761 -2
      vertex -87.5 -67.134 -2
    endloop
  endfacet
  facet normal 0.659749 -0.751486 0
    outer loop
      vertex -88.7071 -67.2929 -2
      vertex -88.6088 -67.2066 2
      vertex -88.7071 -67.2929 2
    endloop
  endfacet
  facet normal 0.659749 -0.751486 0
    outer loop
      vertex -88.6088 -67.2066 2
      vertex -88.7071 -67.2929 -2
      vertex -88.6088 -67.2066 -2
    endloop
  endfacet
  facet normal 0.997836 0.0657577 0
    outer loop
      vertex -88.9914 -68.1305 2
      vertex -89 -68 -2
      vertex -89 -68 2
    endloop
  endfacet
  facet normal 0.997836 0.0657577 0
    outer loop
      vertex -89 -68 -2
      vertex -88.9914 -68.1305 2
      vertex -88.9914 -68.1305 -2
    endloop
  endfacet
  facet normal 0.555053 -0.831815 0
    outer loop
      vertex -88.6088 -67.2066 -2
      vertex -88.5 -67.134 2
      vertex -88.6088 -67.2066 2
    endloop
  endfacet
  facet normal 0.555053 -0.831815 0
    outer loop
      vertex -88.5 -67.134 2
      vertex -88.6088 -67.2066 -2
      vertex -88.5 -67.134 -2
    endloop
  endfacet
  facet normal 0.555053 0.831815 -0
    outer loop
      vertex -88.5 -68.866 -2
      vertex -88.6088 -68.7934 2
      vertex -88.5 -68.866 2
    endloop
  endfacet
  facet normal 0.555053 0.831815 0
    outer loop
      vertex -88.6088 -68.7934 2
      vertex -88.5 -68.866 -2
      vertex -88.6088 -68.7934 -2
    endloop
  endfacet
  facet normal -0.555053 -0.831815 0
    outer loop
      vertex -87.5 -67.134 -2
      vertex -87.3912 -67.2066 2
      vertex -87.5 -67.134 2
    endloop
  endfacet
  facet normal -0.555053 -0.831815 -0
    outer loop
      vertex -87.3912 -67.2066 2
      vertex -87.5 -67.134 -2
      vertex -87.3912 -67.2066 -2
    endloop
  endfacet
  facet normal 0.659749 0.751486 -0
    outer loop
      vertex -88.6088 -68.7934 -2
      vertex -88.7071 -68.7071 2
      vertex -88.6088 -68.7934 2
    endloop
  endfacet
  facet normal 0.659749 0.751486 0
    outer loop
      vertex -88.7071 -68.7071 2
      vertex -88.6088 -68.7934 -2
      vertex -88.7071 -68.7071 -2
    endloop
  endfacet
  facet normal 0.321039 0.947066 -0
    outer loop
      vertex -88.2588 -68.9659 -2
      vertex -88.3827 -68.9239 2
      vertex -88.2588 -68.9659 2
    endloop
  endfacet
  facet normal 0.321039 0.947066 0
    outer loop
      vertex -88.3827 -68.9239 2
      vertex -88.2588 -68.9659 -2
      vertex -88.3827 -68.9239 -2
    endloop
  endfacet
  facet normal 0.980815 -0.19494 0
    outer loop
      vertex -88.9914 -67.8695 2
      vertex -88.9659 -67.7412 -2
      vertex -88.9659 -67.7412 2
    endloop
  endfacet
  facet normal 0.980815 -0.19494 0
    outer loop
      vertex -88.9659 -67.7412 -2
      vertex -88.9914 -67.8695 2
      vertex -88.9914 -67.8695 -2
    endloop
  endfacet
  facet normal 0.19494 -0.980815 0
    outer loop
      vertex -88.2588 -67.0341 -2
      vertex -88.1305 -67.0086 2
      vertex -88.2588 -67.0341 2
    endloop
  endfacet
  facet normal 0.19494 -0.980815 0
    outer loop
      vertex -88.1305 -67.0086 2
      vertex -88.2588 -67.0341 -2
      vertex -88.1305 -67.0086 -2
    endloop
  endfacet
  facet normal -0.896709 0.442621 0
    outer loop
      vertex -87.134 -68.5 -2
      vertex -87.0761 -68.3827 2
      vertex -87.0761 -68.3827 -2
    endloop
  endfacet
  facet normal -0.896709 0.442621 0
    outer loop
      vertex -87.0761 -68.3827 2
      vertex -87.134 -68.5 -2
      vertex -87.134 -68.5 2
    endloop
  endfacet
  facet normal 0.896709 0.442621 0
    outer loop
      vertex -88.866 -68.5 2
      vertex -88.9239 -68.3827 -2
      vertex -88.9239 -68.3827 2
    endloop
  endfacet
  facet normal 0.896709 0.442621 0
    outer loop
      vertex -88.9239 -68.3827 -2
      vertex -88.866 -68.5 2
      vertex -88.866 -68.5 -2
    endloop
  endfacet
  facet normal 0.0657577 0.997836 -0
    outer loop
      vertex -88 -69 -2
      vertex -88.1305 -68.9914 2
      vertex -88 -69 2
    endloop
  endfacet
  facet normal 0.0657577 0.997836 0
    outer loop
      vertex -88.1305 -68.9914 2
      vertex -88 -69 -2
      vertex -88.1305 -68.9914 -2
    endloop
  endfacet
  facet normal -0.751486 0.659749 0
    outer loop
      vertex -87.2929 -68.7071 -2
      vertex -87.2066 -68.6088 2
      vertex -87.2066 -68.6088 -2
    endloop
  endfacet
  facet normal -0.751486 0.659749 0
    outer loop
      vertex -87.2066 -68.6088 2
      vertex -87.2929 -68.7071 -2
      vertex -87.2929 -68.7071 2
    endloop
  endfacet
  facet normal -0.442621 0.896709 0
    outer loop
      vertex -87.5 -68.866 -2
      vertex -87.6173 -68.9239 2
      vertex -87.5 -68.866 2
    endloop
  endfacet
  facet normal -0.442621 0.896709 0
    outer loop
      vertex -87.6173 -68.9239 2
      vertex -87.5 -68.866 -2
      vertex -87.6173 -68.9239 -2
    endloop
  endfacet
  facet normal 0.442621 -0.896709 0
    outer loop
      vertex -88.5 -67.134 -2
      vertex -88.3827 -67.0761 2
      vertex -88.5 -67.134 2
    endloop
  endfacet
  facet normal 0.442621 -0.896709 0
    outer loop
      vertex -88.3827 -67.0761 2
      vertex -88.5 -67.134 -2
      vertex -88.3827 -67.0761 -2
    endloop
  endfacet
  facet normal 0.321039 -0.947066 0
    outer loop
      vertex -88.3827 -67.0761 -2
      vertex -88.2588 -67.0341 2
      vertex -88.3827 -67.0761 2
    endloop
  endfacet
  facet normal 0.321039 -0.947066 0
    outer loop
      vertex -88.2588 -67.0341 2
      vertex -88.3827 -67.0761 -2
      vertex -88.2588 -67.0341 -2
    endloop
  endfacet
  facet normal -0.19494 -0.980815 0
    outer loop
      vertex -87.8695 -67.0086 -2
      vertex -87.7412 -67.0341 2
      vertex -87.8695 -67.0086 2
    endloop
  endfacet
  facet normal -0.19494 -0.980815 -0
    outer loop
      vertex -87.7412 -67.0341 2
      vertex -87.8695 -67.0086 -2
      vertex -87.7412 -67.0341 -2
    endloop
  endfacet
  facet normal -0.751486 -0.659749 0
    outer loop
      vertex -87.2066 -67.3912 -2
      vertex -87.2929 -67.2929 2
      vertex -87.2929 -67.2929 -2
    endloop
  endfacet
  facet normal -0.751486 -0.659749 0
    outer loop
      vertex -87.2929 -67.2929 2
      vertex -87.2066 -67.3912 -2
      vertex -87.2066 -67.3912 2
    endloop
  endfacet
  facet normal -0.947066 -0.321039 0
    outer loop
      vertex -87.0341 -67.7412 -2
      vertex -87.0761 -67.6173 2
      vertex -87.0761 -67.6173 -2
    endloop
  endfacet
  facet normal -0.947066 -0.321039 0
    outer loop
      vertex -87.0761 -67.6173 2
      vertex -87.0341 -67.7412 -2
      vertex -87.0341 -67.7412 2
    endloop
  endfacet
  facet normal 0.831815 0.555053 0
    outer loop
      vertex -88.7934 -68.6088 2
      vertex -88.866 -68.5 -2
      vertex -88.866 -68.5 2
    endloop
  endfacet
  facet normal 0.831815 0.555053 0
    outer loop
      vertex -88.866 -68.5 -2
      vertex -88.7934 -68.6088 2
      vertex -88.7934 -68.6088 -2
    endloop
  endfacet
  facet normal 0.980815 0.19494 0
    outer loop
      vertex -88.9659 -68.2588 2
      vertex -88.9914 -68.1305 -2
      vertex -88.9914 -68.1305 2
    endloop
  endfacet
  facet normal 0.980815 0.19494 0
    outer loop
      vertex -88.9914 -68.1305 -2
      vertex -88.9659 -68.2588 2
      vertex -88.9659 -68.2588 -2
    endloop
  endfacet
  facet normal 0.997836 -0.0657577 0
    outer loop
      vertex -89 -68 2
      vertex -88.9914 -67.8695 -2
      vertex -88.9914 -67.8695 2
    endloop
  endfacet
  facet normal 0.997836 -0.0657577 0
    outer loop
      vertex -88.9914 -67.8695 -2
      vertex -89 -68 2
      vertex -89 -68 -2
    endloop
  endfacet
  facet normal 0.947066 -0.321039 0
    outer loop
      vertex -88.9659 -67.7412 2
      vertex -88.9239 -67.6173 -2
      vertex -88.9239 -67.6173 2
    endloop
  endfacet
  facet normal 0.947066 -0.321039 0
    outer loop
      vertex -88.9239 -67.6173 -2
      vertex -88.9659 -67.7412 2
      vertex -88.9659 -67.7412 -2
    endloop
  endfacet
  facet normal 0.751486 -0.659749 0
    outer loop
      vertex -88.7934 -67.3912 2
      vertex -88.7071 -67.2929 -2
      vertex -88.7071 -67.2929 2
    endloop
  endfacet
  facet normal 0.751486 -0.659749 0
    outer loop
      vertex -88.7071 -67.2929 -2
      vertex -88.7934 -67.3912 2
      vertex -88.7934 -67.3912 -2
    endloop
  endfacet
  facet normal 0.0657577 -0.997836 0
    outer loop
      vertex -88.1305 -67.0086 -2
      vertex -88 -67 2
      vertex -88.1305 -67.0086 2
    endloop
  endfacet
  facet normal 0.0657577 -0.997836 0
    outer loop
      vertex -88 -67 2
      vertex -88.1305 -67.0086 -2
      vertex -88 -67 -2
    endloop
  endfacet
  facet normal 0.442621 0.896709 -0
    outer loop
      vertex -88.3827 -68.9239 -2
      vertex -88.5 -68.866 2
      vertex -88.3827 -68.9239 2
    endloop
  endfacet
  facet normal 0.442621 0.896709 0
    outer loop
      vertex -88.5 -68.866 2
      vertex -88.3827 -68.9239 -2
      vertex -88.5 -68.866 -2
    endloop
  endfacet
  facet normal 0.831815 -0.555053 0
    outer loop
      vertex -88.866 -67.5 2
      vertex -88.7934 -67.3912 -2
      vertex -88.7934 -67.3912 2
    endloop
  endfacet
  facet normal 0.831815 -0.555053 0
    outer loop
      vertex -88.7934 -67.3912 -2
      vertex -88.866 -67.5 2
      vertex -88.866 -67.5 -2
    endloop
  endfacet
  facet normal 0.947066 0.321039 0
    outer loop
      vertex 87.0761 -68.3827 2
      vertex 87.0341 -68.2588 -2
      vertex 87.0341 -68.2588 2
    endloop
  endfacet
  facet normal 0.947066 0.321039 0
    outer loop
      vertex 87.0341 -68.2588 -2
      vertex 87.0761 -68.3827 2
      vertex 87.0761 -68.3827 -2
    endloop
  endfacet
  facet normal -0.659749 -0.751486 0
    outer loop
      vertex 88.6088 -67.2066 -2
      vertex 88.7071 -67.2929 2
      vertex 88.6088 -67.2066 2
    endloop
  endfacet
  facet normal -0.659749 -0.751486 -0
    outer loop
      vertex 88.7071 -67.2929 2
      vertex 88.6088 -67.2066 -2
      vertex 88.7071 -67.2929 -2
    endloop
  endfacet
  facet normal -0.947066 0.321039 0
    outer loop
      vertex 88.9239 -68.3827 -2
      vertex 88.9659 -68.2588 2
      vertex 88.9659 -68.2588 -2
    endloop
  endfacet
  facet normal -0.947066 0.321039 0
    outer loop
      vertex 88.9659 -68.2588 2
      vertex 88.9239 -68.3827 -2
      vertex 88.9239 -68.3827 2
    endloop
  endfacet
  facet normal -0.831815 0.555053 0
    outer loop
      vertex 88.7934 -68.6088 -2
      vertex 88.866 -68.5 2
      vertex 88.866 -68.5 -2
    endloop
  endfacet
  facet normal -0.831815 0.555053 0
    outer loop
      vertex 88.866 -68.5 2
      vertex 88.7934 -68.6088 -2
      vertex 88.7934 -68.6088 2
    endloop
  endfacet
  facet normal -0.659749 0.751486 0
    outer loop
      vertex 88.7071 -68.7071 -2
      vertex 88.6088 -68.7934 2
      vertex 88.7071 -68.7071 2
    endloop
  endfacet
  facet normal -0.659749 0.751486 0
    outer loop
      vertex 88.6088 -68.7934 2
      vertex 88.7071 -68.7071 -2
      vertex 88.6088 -68.7934 -2
    endloop
  endfacet
  facet normal 0.831815 0.555053 0
    outer loop
      vertex 87.2066 -68.6088 2
      vertex 87.134 -68.5 -2
      vertex 87.134 -68.5 2
    endloop
  endfacet
  facet normal 0.831815 0.555053 0
    outer loop
      vertex 87.134 -68.5 -2
      vertex 87.2066 -68.6088 2
      vertex 87.2066 -68.6088 -2
    endloop
  endfacet
  facet normal 0.659749 0.751486 -0
    outer loop
      vertex 87.3912 -68.7934 -2
      vertex 87.2929 -68.7071 2
      vertex 87.3912 -68.7934 2
    endloop
  endfacet
  facet normal 0.659749 0.751486 0
    outer loop
      vertex 87.2929 -68.7071 2
      vertex 87.3912 -68.7934 -2
      vertex 87.2929 -68.7071 -2
    endloop
  endfacet
  facet normal -0.997836 -0.0657577 0
    outer loop
      vertex 89 -68 -2
      vertex 88.9914 -67.8695 2
      vertex 88.9914 -67.8695 -2
    endloop
  endfacet
  facet normal -0.997836 -0.0657577 0
    outer loop
      vertex 88.9914 -67.8695 2
      vertex 89 -68 -2
      vertex 89 -68 2
    endloop
  endfacet
  facet normal 0.751486 -0.659749 0
    outer loop
      vertex 87.2066 -67.3912 2
      vertex 87.2929 -67.2929 -2
      vertex 87.2929 -67.2929 2
    endloop
  endfacet
  facet normal 0.751486 -0.659749 0
    outer loop
      vertex 87.2929 -67.2929 -2
      vertex 87.2066 -67.3912 2
      vertex 87.2066 -67.3912 -2
    endloop
  endfacet
  facet normal -0.831815 -0.555053 0
    outer loop
      vertex 88.866 -67.5 -2
      vertex 88.7934 -67.3912 2
      vertex 88.7934 -67.3912 -2
    endloop
  endfacet
  facet normal -0.831815 -0.555053 0
    outer loop
      vertex 88.7934 -67.3912 2
      vertex 88.866 -67.5 -2
      vertex 88.866 -67.5 2
    endloop
  endfacet
  facet normal 0.997836 -0.0657577 0
    outer loop
      vertex 87 -68 2
      vertex 87.0086 -67.8695 -2
      vertex 87.0086 -67.8695 2
    endloop
  endfacet
  facet normal 0.997836 -0.0657577 0
    outer loop
      vertex 87.0086 -67.8695 -2
      vertex 87 -68 2
      vertex 87 -68 -2
    endloop
  endfacet
  facet normal 0.997836 0.0657577 0
    outer loop
      vertex 87.0086 -68.1305 2
      vertex 87 -68 -2
      vertex 87 -68 2
    endloop
  endfacet
  facet normal 0.997836 0.0657577 0
    outer loop
      vertex 87 -68 -2
      vertex 87.0086 -68.1305 2
      vertex 87.0086 -68.1305 -2
    endloop
  endfacet
  facet normal 0.19494 -0.980815 0
    outer loop
      vertex 87.7412 -67.0341 -2
      vertex 87.8695 -67.0086 2
      vertex 87.7412 -67.0341 2
    endloop
  endfacet
  facet normal 0.19494 -0.980815 0
    outer loop
      vertex 87.8695 -67.0086 2
      vertex 87.7412 -67.0341 -2
      vertex 87.8695 -67.0086 -2
    endloop
  endfacet
  facet normal -0.980815 -0.19494 0
    outer loop
      vertex 88.9914 -67.8695 -2
      vertex 88.9659 -67.7412 2
      vertex 88.9659 -67.7412 -2
    endloop
  endfacet
  facet normal -0.980815 -0.19494 0
    outer loop
      vertex 88.9659 -67.7412 2
      vertex 88.9914 -67.8695 -2
      vertex 88.9914 -67.8695 2
    endloop
  endfacet
  facet normal -0.896709 -0.442621 0
    outer loop
      vertex 88.9239 -67.6173 -2
      vertex 88.866 -67.5 2
      vertex 88.866 -67.5 -2
    endloop
  endfacet
  facet normal -0.896709 -0.442621 0
    outer loop
      vertex 88.866 -67.5 2
      vertex 88.9239 -67.6173 -2
      vertex 88.9239 -67.6173 2
    endloop
  endfacet
  facet normal 0.321039 -0.947066 0
    outer loop
      vertex 87.6173 -67.0761 -2
      vertex 87.7412 -67.0341 2
      vertex 87.6173 -67.0761 2
    endloop
  endfacet
  facet normal 0.321039 -0.947066 0
    outer loop
      vertex 87.7412 -67.0341 2
      vertex 87.6173 -67.0761 -2
      vertex 87.7412 -67.0341 -2
    endloop
  endfacet
  facet normal -0.555053 -0.831815 0
    outer loop
      vertex 88.5 -67.134 -2
      vertex 88.6088 -67.2066 2
      vertex 88.5 -67.134 2
    endloop
  endfacet
  facet normal -0.555053 -0.831815 -0
    outer loop
      vertex 88.6088 -67.2066 2
      vertex 88.5 -67.134 -2
      vertex 88.6088 -67.2066 -2
    endloop
  endfacet
  facet normal -0.751486 0.659749 0
    outer loop
      vertex 88.7071 -68.7071 -2
      vertex 88.7934 -68.6088 2
      vertex 88.7934 -68.6088 -2
    endloop
  endfacet
  facet normal -0.751486 0.659749 0
    outer loop
      vertex 88.7934 -68.6088 2
      vertex 88.7071 -68.7071 -2
      vertex 88.7071 -68.7071 2
    endloop
  endfacet
  facet normal -0.0657577 0.997836 0
    outer loop
      vertex 88.1305 -68.9914 -2
      vertex 88 -69 2
      vertex 88.1305 -68.9914 2
    endloop
  endfacet
  facet normal -0.0657577 0.997836 0
    outer loop
      vertex 88 -69 2
      vertex 88.1305 -68.9914 -2
      vertex 88 -69 -2
    endloop
  endfacet
  facet normal 0.19494 0.980815 -0
    outer loop
      vertex 87.8695 -68.9914 -2
      vertex 87.7412 -68.9659 2
      vertex 87.8695 -68.9914 2
    endloop
  endfacet
  facet normal 0.19494 0.980815 0
    outer loop
      vertex 87.7412 -68.9659 2
      vertex 87.8695 -68.9914 -2
      vertex 87.7412 -68.9659 -2
    endloop
  endfacet
  facet normal -0.896709 0.442621 0
    outer loop
      vertex 88.866 -68.5 -2
      vertex 88.9239 -68.3827 2
      vertex 88.9239 -68.3827 -2
    endloop
  endfacet
  facet normal -0.896709 0.442621 0
    outer loop
      vertex 88.9239 -68.3827 2
      vertex 88.866 -68.5 -2
      vertex 88.866 -68.5 2
    endloop
  endfacet
  facet normal -0.19494 0.980815 0
    outer loop
      vertex 88.2588 -68.9659 -2
      vertex 88.1305 -68.9914 2
      vertex 88.2588 -68.9659 2
    endloop
  endfacet
  facet normal -0.19494 0.980815 0
    outer loop
      vertex 88.1305 -68.9914 2
      vertex 88.2588 -68.9659 -2
      vertex 88.1305 -68.9914 -2
    endloop
  endfacet
  facet normal -0.997836 0.0657577 0
    outer loop
      vertex 88.9914 -68.1305 -2
      vertex 89 -68 2
      vertex 89 -68 -2
    endloop
  endfacet
  facet normal -0.997836 0.0657577 0
    outer loop
      vertex 89 -68 2
      vertex 88.9914 -68.1305 -2
      vertex 88.9914 -68.1305 2
    endloop
  endfacet
  facet normal -0.442621 0.896709 0
    outer loop
      vertex 88.5 -68.866 -2
      vertex 88.3827 -68.9239 2
      vertex 88.5 -68.866 2
    endloop
  endfacet
  facet normal -0.442621 0.896709 0
    outer loop
      vertex 88.3827 -68.9239 2
      vertex 88.5 -68.866 -2
      vertex 88.3827 -68.9239 -2
    endloop
  endfacet
  facet normal 0.0657577 -0.997836 0
    outer loop
      vertex 87.8695 -67.0086 -2
      vertex 88 -67 2
      vertex 87.8695 -67.0086 2
    endloop
  endfacet
  facet normal 0.0657577 -0.997836 0
    outer loop
      vertex 88 -67 2
      vertex 87.8695 -67.0086 -2
      vertex 88 -67 -2
    endloop
  endfacet
  facet normal 0.896709 -0.442621 0
    outer loop
      vertex 87.0761 -67.6173 2
      vertex 87.134 -67.5 -2
      vertex 87.134 -67.5 2
    endloop
  endfacet
  facet normal 0.896709 -0.442621 0
    outer loop
      vertex 87.134 -67.5 -2
      vertex 87.0761 -67.6173 2
      vertex 87.0761 -67.6173 -2
    endloop
  endfacet
  facet normal 0.831815 -0.555053 0
    outer loop
      vertex 87.134 -67.5 2
      vertex 87.2066 -67.3912 -2
      vertex 87.2066 -67.3912 2
    endloop
  endfacet
  facet normal 0.831815 -0.555053 0
    outer loop
      vertex 87.2066 -67.3912 -2
      vertex 87.134 -67.5 2
      vertex 87.134 -67.5 -2
    endloop
  endfacet
  facet normal -0.751486 -0.659749 0
    outer loop
      vertex 88.7934 -67.3912 -2
      vertex 88.7071 -67.2929 2
      vertex 88.7071 -67.2929 -2
    endloop
  endfacet
  facet normal -0.751486 -0.659749 0
    outer loop
      vertex 88.7071 -67.2929 2
      vertex 88.7934 -67.3912 -2
      vertex 88.7934 -67.3912 2
    endloop
  endfacet
  facet normal 0.980815 0.19494 0
    outer loop
      vertex 87.0341 -68.2588 2
      vertex 87.0086 -68.1305 -2
      vertex 87.0086 -68.1305 2
    endloop
  endfacet
  facet normal 0.980815 0.19494 0
    outer loop
      vertex 87.0086 -68.1305 -2
      vertex 87.0341 -68.2588 2
      vertex 87.0341 -68.2588 -2
    endloop
  endfacet
  facet normal 0.896709 0.442621 0
    outer loop
      vertex 87.134 -68.5 2
      vertex 87.0761 -68.3827 -2
      vertex 87.0761 -68.3827 2
    endloop
  endfacet
  facet normal 0.896709 0.442621 0
    outer loop
      vertex 87.0761 -68.3827 -2
      vertex 87.134 -68.5 2
      vertex 87.134 -68.5 -2
    endloop
  endfacet
  facet normal 0.442621 -0.896709 0
    outer loop
      vertex 87.5 -67.134 -2
      vertex 87.6173 -67.0761 2
      vertex 87.5 -67.134 2
    endloop
  endfacet
  facet normal 0.442621 -0.896709 0
    outer loop
      vertex 87.6173 -67.0761 2
      vertex 87.5 -67.134 -2
      vertex 87.6173 -67.0761 -2
    endloop
  endfacet
  facet normal -0.0657577 -0.997836 0
    outer loop
      vertex 88 -67 -2
      vertex 88.1305 -67.0086 2
      vertex 88 -67 2
    endloop
  endfacet
  facet normal -0.0657577 -0.997836 -0
    outer loop
      vertex 88.1305 -67.0086 2
      vertex 88 -67 -2
      vertex 88.1305 -67.0086 -2
    endloop
  endfacet
  facet normal -0.555053 0.831815 0
    outer loop
      vertex 88.6088 -68.7934 -2
      vertex 88.5 -68.866 2
      vertex 88.6088 -68.7934 2
    endloop
  endfacet
  facet normal -0.555053 0.831815 0
    outer loop
      vertex 88.5 -68.866 2
      vertex 88.6088 -68.7934 -2
      vertex 88.5 -68.866 -2
    endloop
  endfacet
  facet normal 0.980815 -0.19494 0
    outer loop
      vertex 87.0086 -67.8695 2
      vertex 87.0341 -67.7412 -2
      vertex 87.0341 -67.7412 2
    endloop
  endfacet
  facet normal 0.980815 -0.19494 0
    outer loop
      vertex 87.0341 -67.7412 -2
      vertex 87.0086 -67.8695 2
      vertex 87.0086 -67.8695 -2
    endloop
  endfacet
  facet normal 0.947066 -0.321039 0
    outer loop
      vertex 87.0341 -67.7412 2
      vertex 87.0761 -67.6173 -2
      vertex 87.0761 -67.6173 2
    endloop
  endfacet
  facet normal 0.947066 -0.321039 0
    outer loop
      vertex 87.0761 -67.6173 -2
      vertex 87.0341 -67.7412 2
      vertex 87.0341 -67.7412 -2
    endloop
  endfacet
  facet normal -0.980815 0.19494 0
    outer loop
      vertex 88.9659 -68.2588 -2
      vertex 88.9914 -68.1305 2
      vertex 88.9914 -68.1305 -2
    endloop
  endfacet
  facet normal -0.980815 0.19494 0
    outer loop
      vertex 88.9914 -68.1305 2
      vertex 88.9659 -68.2588 -2
      vertex 88.9659 -68.2588 2
    endloop
  endfacet
  facet normal -0.321039 -0.947066 0
    outer loop
      vertex 88.2588 -67.0341 -2
      vertex 88.3827 -67.0761 2
      vertex 88.2588 -67.0341 2
    endloop
  endfacet
  facet normal -0.321039 -0.947066 -0
    outer loop
      vertex 88.3827 -67.0761 2
      vertex 88.2588 -67.0341 -2
      vertex 88.3827 -67.0761 -2
    endloop
  endfacet
  facet normal 0.442621 0.896709 -0
    outer loop
      vertex 87.6173 -68.9239 -2
      vertex 87.5 -68.866 2
      vertex 87.6173 -68.9239 2
    endloop
  endfacet
  facet normal 0.442621 0.896709 0
    outer loop
      vertex 87.5 -68.866 2
      vertex 87.6173 -68.9239 -2
      vertex 87.5 -68.866 -2
    endloop
  endfacet
  facet normal -0.321039 0.947066 0
    outer loop
      vertex 88.3827 -68.9239 -2
      vertex 88.2588 -68.9659 2
      vertex 88.3827 -68.9239 2
    endloop
  endfacet
  facet normal -0.321039 0.947066 0
    outer loop
      vertex 88.2588 -68.9659 2
      vertex 88.3827 -68.9239 -2
      vertex 88.2588 -68.9659 -2
    endloop
  endfacet
  facet normal -0.442621 -0.896709 0
    outer loop
      vertex 88.3827 -67.0761 -2
      vertex 88.5 -67.134 2
      vertex 88.3827 -67.0761 2
    endloop
  endfacet
  facet normal -0.442621 -0.896709 -0
    outer loop
      vertex 88.5 -67.134 2
      vertex 88.3827 -67.0761 -2
      vertex 88.5 -67.134 -2
    endloop
  endfacet
  facet normal -0.947066 -0.321039 0
    outer loop
      vertex 88.9659 -67.7412 -2
      vertex 88.9239 -67.6173 2
      vertex 88.9239 -67.6173 -2
    endloop
  endfacet
  facet normal -0.947066 -0.321039 0
    outer loop
      vertex 88.9239 -67.6173 2
      vertex 88.9659 -67.7412 -2
      vertex 88.9659 -67.7412 2
    endloop
  endfacet
  facet normal 0.751486 0.659749 0
    outer loop
      vertex 87.2929 -68.7071 2
      vertex 87.2066 -68.6088 -2
      vertex 87.2066 -68.6088 2
    endloop
  endfacet
  facet normal 0.751486 0.659749 0
    outer loop
      vertex 87.2066 -68.6088 -2
      vertex 87.2929 -68.7071 2
      vertex 87.2929 -68.7071 -2
    endloop
  endfacet
  facet normal -0.19494 -0.980815 0
    outer loop
      vertex 88.1305 -67.0086 -2
      vertex 88.2588 -67.0341 2
      vertex 88.1305 -67.0086 2
    endloop
  endfacet
  facet normal -0.19494 -0.980815 -0
    outer loop
      vertex 88.2588 -67.0341 2
      vertex 88.1305 -67.0086 -2
      vertex 88.2588 -67.0341 -2
    endloop
  endfacet
  facet normal 0.0657577 0.997836 -0
    outer loop
      vertex 88 -69 -2
      vertex 87.8695 -68.9914 2
      vertex 88 -69 2
    endloop
  endfacet
  facet normal 0.0657577 0.997836 0
    outer loop
      vertex 87.8695 -68.9914 2
      vertex 88 -69 -2
      vertex 87.8695 -68.9914 -2
    endloop
  endfacet
  facet normal 0.555053 0.831815 -0
    outer loop
      vertex 87.5 -68.866 -2
      vertex 87.3912 -68.7934 2
      vertex 87.5 -68.866 2
    endloop
  endfacet
  facet normal 0.555053 0.831815 0
    outer loop
      vertex 87.3912 -68.7934 2
      vertex 87.5 -68.866 -2
      vertex 87.3912 -68.7934 -2
    endloop
  endfacet
  facet normal 0.659749 -0.751486 0
    outer loop
      vertex 87.2929 -67.2929 -2
      vertex 87.3912 -67.2066 2
      vertex 87.2929 -67.2929 2
    endloop
  endfacet
  facet normal 0.659749 -0.751486 0
    outer loop
      vertex 87.3912 -67.2066 2
      vertex 87.2929 -67.2929 -2
      vertex 87.3912 -67.2066 -2
    endloop
  endfacet
  facet normal 0.555053 -0.831815 0
    outer loop
      vertex 87.3912 -67.2066 -2
      vertex 87.5 -67.134 2
      vertex 87.3912 -67.2066 2
    endloop
  endfacet
  facet normal 0.555053 -0.831815 0
    outer loop
      vertex 87.5 -67.134 2
      vertex 87.3912 -67.2066 -2
      vertex 87.5 -67.134 -2
    endloop
  endfacet
  facet normal 0.321039 0.947066 -0
    outer loop
      vertex 87.7412 -68.9659 -2
      vertex 87.6173 -68.9239 2
      vertex 87.7412 -68.9659 2
    endloop
  endfacet
  facet normal 0.321039 0.947066 0
    outer loop
      vertex 87.6173 -68.9239 2
      vertex 87.7412 -68.9659 -2
      vertex 87.6173 -68.9239 -2
    endloop
  endfacet
  facet normal -0.751691 0.659515 0
    outer loop
      vertex 0.707107 67.2929 -2
      vertex 0.793353 67.3912 2
      vertex 0.793353 67.3912 -2
    endloop
  endfacet
  facet normal -0.751691 0.659515 0
    outer loop
      vertex 0.793353 67.3912 2
      vertex 0.707107 67.2929 -2
      vertex 0.707107 67.2929 2
    endloop
  endfacet
  facet normal -0.896848 -0.442338 0
    outer loop
      vertex 0.923879 68.3827 -2
      vertex 0.866025 68.5 2
      vertex 0.866025 68.5 -2
    endloop
  endfacet
  facet normal -0.896848 -0.442338 0
    outer loop
      vertex 0.866025 68.5 2
      vertex 0.923879 68.3827 -2
      vertex 0.923879 68.3827 2
    endloop
  endfacet
  facet normal -0.831561 -0.555434 0
    outer loop
      vertex 0.866025 68.5 -2
      vertex 0.793353 68.6088 2
      vertex 0.793353 68.6088 -2
    endloop
  endfacet
  facet normal -0.831561 -0.555434 0
    outer loop
      vertex 0.793353 68.6088 2
      vertex 0.866025 68.5 -2
      vertex 0.866025 68.5 2
    endloop
  endfacet
  facet normal -0.980786 -0.195087 0
    outer loop
      vertex 0.991445 68.1305 -2
      vertex 0.965925 68.2588 2
      vertex 0.965925 68.2588 -2
    endloop
  endfacet
  facet normal -0.980786 -0.195087 0
    outer loop
      vertex 0.965925 68.2588 2
      vertex 0.991445 68.1305 -2
      vertex 0.991445 68.1305 2
    endloop
  endfacet
  facet normal 0.19495 0.980813 -0
    outer loop
      vertex -0.130526 67.0086 -2
      vertex -0.258819 67.0341 2
      vertex -0.130526 67.0086 2
    endloop
  endfacet
  facet normal 0.19495 0.980813 0
    outer loop
      vertex -0.258819 67.0341 2
      vertex -0.130526 67.0086 -2
      vertex -0.258819 67.0341 -2
    endloop
  endfacet
  facet normal -0.659574 -0.751639 0
    outer loop
      vertex 0.608761 68.7934 -2
      vertex 0.707107 68.7071 2
      vertex 0.608761 68.7934 2
    endloop
  endfacet
  facet normal -0.659574 -0.751639 -0
    outer loop
      vertex 0.707107 68.7071 2
      vertex 0.608761 68.7934 -2
      vertex 0.707107 68.7071 -2
    endloop
  endfacet
  facet normal -0.831561 0.555434 0
    outer loop
      vertex 0.793353 67.3912 -2
      vertex 0.866025 67.5 2
      vertex 0.866025 67.5 -2
    endloop
  endfacet
  facet normal -0.831561 0.555434 0
    outer loop
      vertex 0.866025 67.5 2
      vertex 0.793353 67.3912 -2
      vertex 0.793353 67.3912 2
    endloop
  endfacet
  facet normal 0.751691 -0.659515 0
    outer loop
      vertex -0.793353 68.6088 2
      vertex -0.707107 68.7071 -2
      vertex -0.707107 68.7071 2
    endloop
  endfacet
  facet normal 0.751691 -0.659515 0
    outer loop
      vertex -0.707107 68.7071 -2
      vertex -0.793353 68.6088 2
      vertex -0.793353 68.6088 -2
    endloop
  endfacet
  facet normal 0.946959 -0.321355 0
    outer loop
      vertex -0.965925 68.2588 2
      vertex -0.923879 68.3827 -2
      vertex -0.923879 68.3827 2
    endloop
  endfacet
  facet normal 0.946959 -0.321355 0
    outer loop
      vertex -0.923879 68.3827 -2
      vertex -0.965925 68.2588 2
      vertex -0.965925 68.2588 -2
    endloop
  endfacet
  facet normal -0.19495 0.980813 0
    outer loop
      vertex 0.258819 67.0341 -2
      vertex 0.130526 67.0086 2
      vertex 0.258819 67.0341 2
    endloop
  endfacet
  facet normal -0.19495 0.980813 0
    outer loop
      vertex 0.130526 67.0086 2
      vertex 0.258819 67.0341 -2
      vertex 0.130526 67.0086 -2
    endloop
  endfacet
  facet normal 0.980786 0.195087 0
    outer loop
      vertex -0.965925 67.7412 2
      vertex -0.991445 67.8695 -2
      vertex -0.991445 67.8695 2
    endloop
  endfacet
  facet normal 0.980786 0.195087 0
    outer loop
      vertex -0.991445 67.8695 -2
      vertex -0.965925 67.7412 2
      vertex -0.965925 67.7412 -2
    endloop
  endfacet
  facet normal -0.997858 -0.0654151 0
    outer loop
      vertex 1 68 -2
      vertex 0.991445 68.1305 2
      vertex 0.991445 68.1305 -2
    endloop
  endfacet
  facet normal -0.997858 -0.0654151 0
    outer loop
      vertex 0.991445 68.1305 2
      vertex 1 68 -2
      vertex 1 68 2
    endloop
  endfacet
  facet normal 0.980786 -0.195087 0
    outer loop
      vertex -0.991445 68.1305 2
      vertex -0.965925 68.2588 -2
      vertex -0.965925 68.2588 2
    endloop
  endfacet
  facet normal 0.980786 -0.195087 0
    outer loop
      vertex -0.965925 68.2588 -2
      vertex -0.991445 68.1305 2
      vertex -0.991445 68.1305 -2
    endloop
  endfacet
  facet normal -0.0657447 0.997836 0
    outer loop
      vertex 0.130526 67.0086 -2
      vertex 0 67 2
      vertex 0.130526 67.0086 2
    endloop
  endfacet
  facet normal -0.0657447 0.997836 0
    outer loop
      vertex 0 67 2
      vertex 0.130526 67.0086 -2
      vertex 0 67 -2
    endloop
  endfacet
  facet normal 0.19495 -0.980813 0
    outer loop
      vertex -0.258819 68.9659 -2
      vertex -0.130526 68.9914 2
      vertex -0.258819 68.9659 2
    endloop
  endfacet
  facet normal 0.19495 -0.980813 0
    outer loop
      vertex -0.130526 68.9914 2
      vertex -0.258819 68.9659 -2
      vertex -0.130526 68.9914 -2
    endloop
  endfacet
  facet normal -0.0657447 -0.997836 0
    outer loop
      vertex 0 69 -2
      vertex 0.130526 68.9914 2
      vertex 0 69 2
    endloop
  endfacet
  facet normal -0.0657447 -0.997836 -0
    outer loop
      vertex 0.130526 68.9914 2
      vertex 0 69 -2
      vertex 0.130526 68.9914 -2
    endloop
  endfacet
  facet normal -0.896848 0.442338 0
    outer loop
      vertex 0.866025 67.5 -2
      vertex 0.923879 67.6173 2
      vertex 0.923879 67.6173 -2
    endloop
  endfacet
  facet normal -0.896848 0.442338 0
    outer loop
      vertex 0.923879 67.6173 2
      vertex 0.866025 67.5 -2
      vertex 0.866025 67.5 2
    endloop
  endfacet
  facet normal 0.321123 -0.947038 0
    outer loop
      vertex -0.382683 68.9239 -2
      vertex -0.258819 68.9659 2
      vertex -0.382683 68.9239 2
    endloop
  endfacet
  facet normal 0.321123 -0.947038 0
    outer loop
      vertex -0.258819 68.9659 2
      vertex -0.382683 68.9239 -2
      vertex -0.258819 68.9659 -2
    endloop
  endfacet
  facet normal 0.555191 -0.831723 0
    outer loop
      vertex -0.608761 68.7934 -2
      vertex -0.5 68.866 2
      vertex -0.608761 68.7934 2
    endloop
  endfacet
  facet normal 0.555191 -0.831723 0
    outer loop
      vertex -0.5 68.866 2
      vertex -0.608761 68.7934 -2
      vertex -0.5 68.866 -2
    endloop
  endfacet
  facet normal -0.751691 -0.659515 0
    outer loop
      vertex 0.793353 68.6088 -2
      vertex 0.707107 68.7071 2
      vertex 0.707107 68.7071 -2
    endloop
  endfacet
  facet normal -0.751691 -0.659515 0
    outer loop
      vertex 0.707107 68.7071 2
      vertex 0.793353 68.6088 -2
      vertex 0.793353 68.6088 2
    endloop
  endfacet
  facet normal -0.321123 -0.947038 0
    outer loop
      vertex 0.258819 68.9659 -2
      vertex 0.382683 68.9239 2
      vertex 0.258819 68.9659 2
    endloop
  endfacet
  facet normal -0.321123 -0.947038 -0
    outer loop
      vertex 0.382683 68.9239 2
      vertex 0.258819 68.9659 -2
      vertex 0.382683 68.9239 -2
    endloop
  endfacet
  facet normal 0.659574 -0.751639 0
    outer loop
      vertex -0.707107 68.7071 -2
      vertex -0.608761 68.7934 2
      vertex -0.707107 68.7071 2
    endloop
  endfacet
  facet normal 0.659574 -0.751639 0
    outer loop
      vertex -0.608761 68.7934 2
      vertex -0.707107 68.7071 -2
      vertex -0.608761 68.7934 -2
    endloop
  endfacet
  facet normal 0.0657447 0.997836 -0
    outer loop
      vertex 0 67 -2
      vertex -0.130526 67.0086 2
      vertex 0 67 2
    endloop
  endfacet
  facet normal 0.0657447 0.997836 0
    outer loop
      vertex -0.130526 67.0086 2
      vertex 0 67 -2
      vertex -0.130526 67.0086 -2
    endloop
  endfacet
  facet normal -0.555191 0.831723 0
    outer loop
      vertex 0.608761 67.2066 -2
      vertex 0.5 67.134 2
      vertex 0.608761 67.2066 2
    endloop
  endfacet
  facet normal -0.555191 0.831723 0
    outer loop
      vertex 0.5 67.134 2
      vertex 0.608761 67.2066 -2
      vertex 0.5 67.134 -2
    endloop
  endfacet
  facet normal -0.555191 -0.831723 0
    outer loop
      vertex 0.5 68.866 -2
      vertex 0.608761 68.7934 2
      vertex 0.5 68.866 2
    endloop
  endfacet
  facet normal -0.555191 -0.831723 -0
    outer loop
      vertex 0.608761 68.7934 2
      vertex 0.5 68.866 -2
      vertex 0.608761 68.7934 -2
    endloop
  endfacet
  facet normal -0.442569 -0.896734 0
    outer loop
      vertex 0.382683 68.9239 -2
      vertex 0.5 68.866 2
      vertex 0.382683 68.9239 2
    endloop
  endfacet
  facet normal -0.442569 -0.896734 -0
    outer loop
      vertex 0.5 68.866 2
      vertex 0.382683 68.9239 -2
      vertex 0.5 68.866 -2
    endloop
  endfacet
  facet normal 0.946959 0.321355 0
    outer loop
      vertex -0.923879 67.6173 2
      vertex -0.965925 67.7412 -2
      vertex -0.965925 67.7412 2
    endloop
  endfacet
  facet normal 0.946959 0.321355 0
    outer loop
      vertex -0.965925 67.7412 -2
      vertex -0.923879 67.6173 2
      vertex -0.923879 67.6173 -2
    endloop
  endfacet
  facet normal 0.997858 0.0654151 0
    outer loop
      vertex -0.991445 67.8695 2
      vertex -1 68 -2
      vertex -1 68 2
    endloop
  endfacet
  facet normal 0.997858 0.0654151 0
    outer loop
      vertex -1 68 -2
      vertex -0.991445 67.8695 2
      vertex -0.991445 67.8695 -2
    endloop
  endfacet
  facet normal 0.896848 -0.442338 0
    outer loop
      vertex -0.923879 68.3827 2
      vertex -0.866025 68.5 -2
      vertex -0.866025 68.5 2
    endloop
  endfacet
  facet normal 0.896848 -0.442338 0
    outer loop
      vertex -0.866025 68.5 -2
      vertex -0.923879 68.3827 2
      vertex -0.923879 68.3827 -2
    endloop
  endfacet
  facet normal -0.946959 -0.321355 0
    outer loop
      vertex 0.965925 68.2588 -2
      vertex 0.923879 68.3827 2
      vertex 0.923879 68.3827 -2
    endloop
  endfacet
  facet normal -0.946959 -0.321355 0
    outer loop
      vertex 0.923879 68.3827 2
      vertex 0.965925 68.2588 -2
      vertex 0.965925 68.2588 2
    endloop
  endfacet
  facet normal 0.997858 -0.0654151 0
    outer loop
      vertex -1 68 2
      vertex -0.991445 68.1305 -2
      vertex -0.991445 68.1305 2
    endloop
  endfacet
  facet normal 0.997858 -0.0654151 0
    outer loop
      vertex -0.991445 68.1305 -2
      vertex -1 68 2
      vertex -1 68 -2
    endloop
  endfacet
  facet normal 0.442569 -0.896734 0
    outer loop
      vertex -0.5 68.866 -2
      vertex -0.382683 68.9239 2
      vertex -0.5 68.866 2
    endloop
  endfacet
  facet normal 0.442569 -0.896734 0
    outer loop
      vertex -0.382683 68.9239 2
      vertex -0.5 68.866 -2
      vertex -0.382683 68.9239 -2
    endloop
  endfacet
  facet normal 0.659574 0.751639 -0
    outer loop
      vertex -0.608761 67.2066 -2
      vertex -0.707107 67.2929 2
      vertex -0.608761 67.2066 2
    endloop
  endfacet
  facet normal 0.659574 0.751639 0
    outer loop
      vertex -0.707107 67.2929 2
      vertex -0.608761 67.2066 -2
      vertex -0.707107 67.2929 -2
    endloop
  endfacet
  facet normal -0.997858 0.0654151 0
    outer loop
      vertex 0.991445 67.8695 -2
      vertex 1 68 2
      vertex 1 68 -2
    endloop
  endfacet
  facet normal -0.997858 0.0654151 0
    outer loop
      vertex 1 68 2
      vertex 0.991445 67.8695 -2
      vertex 0.991445 67.8695 2
    endloop
  endfacet
  facet normal -0.19495 -0.980813 0
    outer loop
      vertex 0.130526 68.9914 -2
      vertex 0.258819 68.9659 2
      vertex 0.130526 68.9914 2
    endloop
  endfacet
  facet normal -0.19495 -0.980813 -0
    outer loop
      vertex 0.258819 68.9659 2
      vertex 0.130526 68.9914 -2
      vertex 0.258819 68.9659 -2
    endloop
  endfacet
  facet normal 0.0657447 -0.997836 0
    outer loop
      vertex -0.130526 68.9914 -2
      vertex 0 69 2
      vertex -0.130526 68.9914 2
    endloop
  endfacet
  facet normal 0.0657447 -0.997836 0
    outer loop
      vertex 0 69 2
      vertex -0.130526 68.9914 -2
      vertex 0 69 -2
    endloop
  endfacet
  facet normal -0.980786 0.195087 0
    outer loop
      vertex 0.965925 67.7412 -2
      vertex 0.991445 67.8695 2
      vertex 0.991445 67.8695 -2
    endloop
  endfacet
  facet normal -0.980786 0.195087 0
    outer loop
      vertex 0.991445 67.8695 2
      vertex 0.965925 67.7412 -2
      vertex 0.965925 67.7412 2
    endloop
  endfacet
  facet normal -0.946959 0.321355 0
    outer loop
      vertex 0.923879 67.6173 -2
      vertex 0.965925 67.7412 2
      vertex 0.965925 67.7412 -2
    endloop
  endfacet
  facet normal -0.946959 0.321355 0
    outer loop
      vertex 0.965925 67.7412 2
      vertex 0.923879 67.6173 -2
      vertex 0.923879 67.6173 2
    endloop
  endfacet
  facet normal 0.831561 -0.555434 0
    outer loop
      vertex -0.866025 68.5 2
      vertex -0.793353 68.6088 -2
      vertex -0.793353 68.6088 2
    endloop
  endfacet
  facet normal 0.831561 -0.555434 0
    outer loop
      vertex -0.793353 68.6088 -2
      vertex -0.866025 68.5 2
      vertex -0.866025 68.5 -2
    endloop
  endfacet
  facet normal -0.442569 0.896734 0
    outer loop
      vertex 0.5 67.134 -2
      vertex 0.382683 67.0761 2
      vertex 0.5 67.134 2
    endloop
  endfacet
  facet normal -0.442569 0.896734 0
    outer loop
      vertex 0.382683 67.0761 2
      vertex 0.5 67.134 -2
      vertex 0.382683 67.0761 -2
    endloop
  endfacet
  facet normal 0.555191 0.831723 -0
    outer loop
      vertex -0.5 67.134 -2
      vertex -0.608761 67.2066 2
      vertex -0.5 67.134 2
    endloop
  endfacet
  facet normal 0.555191 0.831723 0
    outer loop
      vertex -0.608761 67.2066 2
      vertex -0.5 67.134 -2
      vertex -0.608761 67.2066 -2
    endloop
  endfacet
  facet normal -0.321123 0.947038 0
    outer loop
      vertex 0.382683 67.0761 -2
      vertex 0.258819 67.0341 2
      vertex 0.382683 67.0761 2
    endloop
  endfacet
  facet normal -0.321123 0.947038 0
    outer loop
      vertex 0.258819 67.0341 2
      vertex 0.382683 67.0761 -2
      vertex 0.258819 67.0341 -2
    endloop
  endfacet
  facet normal 0.896848 0.442338 0
    outer loop
      vertex -0.866025 67.5 2
      vertex -0.923879 67.6173 -2
      vertex -0.923879 67.6173 2
    endloop
  endfacet
  facet normal 0.896848 0.442338 0
    outer loop
      vertex -0.923879 67.6173 -2
      vertex -0.866025 67.5 2
      vertex -0.866025 67.5 -2
    endloop
  endfacet
  facet normal 0.831561 0.555434 0
    outer loop
      vertex -0.793353 67.3912 2
      vertex -0.866025 67.5 -2
      vertex -0.866025 67.5 2
    endloop
  endfacet
  facet normal 0.831561 0.555434 0
    outer loop
      vertex -0.866025 67.5 -2
      vertex -0.793353 67.3912 2
      vertex -0.793353 67.3912 -2
    endloop
  endfacet
  facet normal 0.751691 0.659515 0
    outer loop
      vertex -0.707107 67.2929 2
      vertex -0.793353 67.3912 -2
      vertex -0.793353 67.3912 2
    endloop
  endfacet
  facet normal 0.751691 0.659515 0
    outer loop
      vertex -0.793353 67.3912 -2
      vertex -0.707107 67.2929 2
      vertex -0.707107 67.2929 -2
    endloop
  endfacet
  facet normal -0.659574 0.751639 0
    outer loop
      vertex 0.707107 67.2929 -2
      vertex 0.608761 67.2066 2
      vertex 0.707107 67.2929 2
    endloop
  endfacet
  facet normal -0.659574 0.751639 0
    outer loop
      vertex 0.608761 67.2066 2
      vertex 0.707107 67.2929 -2
      vertex 0.608761 67.2066 -2
    endloop
  endfacet
  facet normal 0.321123 0.947038 -0
    outer loop
      vertex -0.258819 67.0341 -2
      vertex -0.382683 67.0761 2
      vertex -0.258819 67.0341 2
    endloop
  endfacet
  facet normal 0.321123 0.947038 0
    outer loop
      vertex -0.382683 67.0761 2
      vertex -0.258819 67.0341 -2
      vertex -0.382683 67.0761 -2
    endloop
  endfacet
  facet normal 0.442569 0.896734 -0
    outer loop
      vertex -0.382683 67.0761 -2
      vertex -0.5 67.134 2
      vertex -0.382683 67.0761 2
    endloop
  endfacet
  facet normal 0.442569 0.896734 0
    outer loop
      vertex -0.5 67.134 2
      vertex -0.382683 67.0761 -2
      vertex -0.5 67.134 -2
    endloop
  endfacet
endsolid OpenSCAD_Model
