solid OpenSCAD_Model
  facet normal 0.997859 0.0653957 0
    outer loop
      vertex 24 0 50
      vertex 23.7947 3.13263 -50
      vertex 23.7947 3.13263 50
    endloop
  endfacet
  facet normal 0.997859 0.0653957 0
    outer loop
      vertex 23.7947 3.13263 -50
      vertex 24 0 50
      vertex 24 0 -50
    endloop
  endfacet
  facet normal 0.980783 0.195103 0
    outer loop
      vertex 23.7947 3.13263 50
      vertex 23.1822 6.21166 -50
      vertex 23.1822 6.21166 50
    endloop
  endfacet
  facet normal 0.980783 0.195103 0
    outer loop
      vertex 23.1822 6.21166 -50
      vertex 23.7947 3.13263 50
      vertex 23.7947 3.13263 -50
    endloop
  endfacet
  facet normal 0.946931 0.321437 0
    outer loop
      vertex 23.1822 6.21166 50
      vertex 22.1731 9.1844 -50
      vertex 22.1731 9.1844 50
    endloop
  endfacet
  facet normal 0.946931 0.321437 0
    outer loop
      vertex 22.1731 9.1844 -50
      vertex 23.1822 6.21166 50
      vertex 23.1822 6.21166 -50
    endloop
  endfacet
  facet normal 0.896873 0.442289 0
    outer loop
      vertex 22.1731 9.1844 50
      vertex 20.7846 12 -50
      vertex 20.7846 12 50
    endloop
  endfacet
  facet normal 0.896873 0.442289 0
    outer loop
      vertex 20.7846 12 -50
      vertex 22.1731 9.1844 50
      vertex 22.1731 9.1844 -50
    endloop
  endfacet
  facet normal 0.831476 0.55556 0
    outer loop
      vertex 20.7846 12 50
      vertex 19.0405 14.6103 -50
      vertex 19.0405 14.6103 50
    endloop
  endfacet
  facet normal 0.831476 0.55556 0
    outer loop
      vertex 19.0405 14.6103 -50
      vertex 20.7846 12 50
      vertex 20.7846 12 -50
    endloop
  endfacet
  facet normal 0.751844 0.659341 0
    outer loop
      vertex 19.0405 14.6103 50
      vertex 16.9706 16.9706 -50
      vertex 16.9706 16.9706 50
    endloop
  endfacet
  facet normal 0.751844 0.659341 0
    outer loop
      vertex 16.9706 16.9706 -50
      vertex 19.0405 14.6103 50
      vertex 19.0405 14.6103 -50
    endloop
  endfacet
  facet normal 0.659341 0.751844 -0
    outer loop
      vertex 16.9706 16.9706 -50
      vertex 14.6103 19.0405 50
      vertex 16.9706 16.9706 50
    endloop
  endfacet
  facet normal 0.659341 0.751844 0
    outer loop
      vertex 14.6103 19.0405 50
      vertex 16.9706 16.9706 -50
      vertex 14.6103 19.0405 -50
    endloop
  endfacet
  facet normal 0.55556 0.831476 -0
    outer loop
      vertex 14.6103 19.0405 -50
      vertex 12 20.7846 50
      vertex 14.6103 19.0405 50
    endloop
  endfacet
  facet normal 0.55556 0.831476 0
    outer loop
      vertex 12 20.7846 50
      vertex 14.6103 19.0405 -50
      vertex 12 20.7846 -50
    endloop
  endfacet
  facet normal 0.442289 0.896873 -0
    outer loop
      vertex 12 20.7846 -50
      vertex 9.1844 22.1731 50
      vertex 12 20.7846 50
    endloop
  endfacet
  facet normal 0.442289 0.896873 0
    outer loop
      vertex 9.1844 22.1731 50
      vertex 12 20.7846 -50
      vertex 9.1844 22.1731 -50
    endloop
  endfacet
  facet normal 0.321437 0.946931 -0
    outer loop
      vertex 9.1844 22.1731 -50
      vertex 6.21166 23.1822 50
      vertex 9.1844 22.1731 50
    endloop
  endfacet
  facet normal 0.321437 0.946931 0
    outer loop
      vertex 6.21166 23.1822 50
      vertex 9.1844 22.1731 -50
      vertex 6.21166 23.1822 -50
    endloop
  endfacet
  facet normal 0.195103 0.980783 -0
    outer loop
      vertex 6.21166 23.1822 -50
      vertex 3.13263 23.7947 50
      vertex 6.21166 23.1822 50
    endloop
  endfacet
  facet normal 0.195103 0.980783 0
    outer loop
      vertex 3.13263 23.7947 50
      vertex 6.21166 23.1822 -50
      vertex 3.13263 23.7947 -50
    endloop
  endfacet
  facet normal 0.0653957 0.997859 -0
    outer loop
      vertex 3.13263 23.7947 -50
      vertex 0 24 50
      vertex 3.13263 23.7947 50
    endloop
  endfacet
  facet normal 0.0653957 0.997859 0
    outer loop
      vertex 0 24 50
      vertex 3.13263 23.7947 -50
      vertex 0 24 -50
    endloop
  endfacet
  facet normal -0.0653957 0.997859 0
    outer loop
      vertex 0 24 -50
      vertex -3.13263 23.7947 50
      vertex 0 24 50
    endloop
  endfacet
  facet normal -0.0653957 0.997859 0
    outer loop
      vertex -3.13263 23.7947 50
      vertex 0 24 -50
      vertex -3.13263 23.7947 -50
    endloop
  endfacet
  facet normal -0.195103 0.980783 0
    outer loop
      vertex -3.13263 23.7947 -50
      vertex -6.21166 23.1822 50
      vertex -3.13263 23.7947 50
    endloop
  endfacet
  facet normal -0.195103 0.980783 0
    outer loop
      vertex -6.21166 23.1822 50
      vertex -3.13263 23.7947 -50
      vertex -6.21166 23.1822 -50
    endloop
  endfacet
  facet normal -0.321437 0.946931 0
    outer loop
      vertex -6.21166 23.1822 -50
      vertex -9.1844 22.1731 50
      vertex -6.21166 23.1822 50
    endloop
  endfacet
  facet normal -0.321437 0.946931 0
    outer loop
      vertex -9.1844 22.1731 50
      vertex -6.21166 23.1822 -50
      vertex -9.1844 22.1731 -50
    endloop
  endfacet
  facet normal -0.442289 0.896873 0
    outer loop
      vertex -9.1844 22.1731 -50
      vertex -12 20.7846 50
      vertex -9.1844 22.1731 50
    endloop
  endfacet
  facet normal -0.442289 0.896873 0
    outer loop
      vertex -12 20.7846 50
      vertex -9.1844 22.1731 -50
      vertex -12 20.7846 -50
    endloop
  endfacet
  facet normal -0.55556 0.831476 0
    outer loop
      vertex -12 20.7846 -50
      vertex -14.6103 19.0405 50
      vertex -12 20.7846 50
    endloop
  endfacet
  facet normal -0.55556 0.831476 0
    outer loop
      vertex -14.6103 19.0405 50
      vertex -12 20.7846 -50
      vertex -14.6103 19.0405 -50
    endloop
  endfacet
  facet normal -0.659341 0.751844 0
    outer loop
      vertex -14.6103 19.0405 -50
      vertex -16.9706 16.9706 50
      vertex -14.6103 19.0405 50
    endloop
  endfacet
  facet normal -0.659341 0.751844 0
    outer loop
      vertex -16.9706 16.9706 50
      vertex -14.6103 19.0405 -50
      vertex -16.9706 16.9706 -50
    endloop
  endfacet
  facet normal -0.751844 0.659341 0
    outer loop
      vertex -19.0405 14.6103 -50
      vertex -16.9706 16.9706 50
      vertex -16.9706 16.9706 -50
    endloop
  endfacet
  facet normal -0.751844 0.659341 0
    outer loop
      vertex -16.9706 16.9706 50
      vertex -19.0405 14.6103 -50
      vertex -19.0405 14.6103 50
    endloop
  endfacet
  facet normal -0.831476 0.55556 0
    outer loop
      vertex -20.7846 12 -50
      vertex -19.0405 14.6103 50
      vertex -19.0405 14.6103 -50
    endloop
  endfacet
  facet normal -0.831476 0.55556 0
    outer loop
      vertex -19.0405 14.6103 50
      vertex -20.7846 12 -50
      vertex -20.7846 12 50
    endloop
  endfacet
  facet normal -0.896873 0.442289 0
    outer loop
      vertex -22.1731 9.1844 -50
      vertex -20.7846 12 50
      vertex -20.7846 12 -50
    endloop
  endfacet
  facet normal -0.896873 0.442289 0
    outer loop
      vertex -20.7846 12 50
      vertex -22.1731 9.1844 -50
      vertex -22.1731 9.1844 50
    endloop
  endfacet
  facet normal -0.946931 0.321437 0
    outer loop
      vertex -23.1822 6.21166 -50
      vertex -22.1731 9.1844 50
      vertex -22.1731 9.1844 -50
    endloop
  endfacet
  facet normal -0.946931 0.321437 0
    outer loop
      vertex -22.1731 9.1844 50
      vertex -23.1822 6.21166 -50
      vertex -23.1822 6.21166 50
    endloop
  endfacet
  facet normal -0.980783 0.195103 0
    outer loop
      vertex -23.7947 3.13263 -50
      vertex -23.1822 6.21166 50
      vertex -23.1822 6.21166 -50
    endloop
  endfacet
  facet normal -0.980783 0.195103 0
    outer loop
      vertex -23.1822 6.21166 50
      vertex -23.7947 3.13263 -50
      vertex -23.7947 3.13263 50
    endloop
  endfacet
  facet normal -0.997859 0.0653957 0
    outer loop
      vertex -24 -0 -50
      vertex -23.7947 3.13263 50
      vertex -23.7947 3.13263 -50
    endloop
  endfacet
  facet normal -0.997859 0.0653957 0
    outer loop
      vertex -23.7947 3.13263 50
      vertex -24 -0 -50
      vertex -24 -0 50
    endloop
  endfacet
  facet normal -0.997859 -0.0653957 0
    outer loop
      vertex -23.7947 -3.13263 -50
      vertex -24 -0 50
      vertex -24 -0 -50
    endloop
  endfacet
  facet normal -0.997859 -0.0653957 0
    outer loop
      vertex -24 -0 50
      vertex -23.7947 -3.13263 -50
      vertex -23.7947 -3.13263 50
    endloop
  endfacet
  facet normal -0.980783 -0.195103 0
    outer loop
      vertex -23.1822 -6.21166 -50
      vertex -23.7947 -3.13263 50
      vertex -23.7947 -3.13263 -50
    endloop
  endfacet
  facet normal -0.980783 -0.195103 0
    outer loop
      vertex -23.7947 -3.13263 50
      vertex -23.1822 -6.21166 -50
      vertex -23.1822 -6.21166 50
    endloop
  endfacet
  facet normal -0.946931 -0.321437 0
    outer loop
      vertex -22.1731 -9.1844 -50
      vertex -23.1822 -6.21166 50
      vertex -23.1822 -6.21166 -50
    endloop
  endfacet
  facet normal -0.946931 -0.321437 0
    outer loop
      vertex -23.1822 -6.21166 50
      vertex -22.1731 -9.1844 -50
      vertex -22.1731 -9.1844 50
    endloop
  endfacet
  facet normal -0.896873 -0.442289 0
    outer loop
      vertex -20.7846 -12 -50
      vertex -22.1731 -9.1844 50
      vertex -22.1731 -9.1844 -50
    endloop
  endfacet
  facet normal -0.896873 -0.442289 0
    outer loop
      vertex -22.1731 -9.1844 50
      vertex -20.7846 -12 -50
      vertex -20.7846 -12 50
    endloop
  endfacet
  facet normal -0.831476 -0.55556 0
    outer loop
      vertex -19.0405 -14.6103 -50
      vertex -20.7846 -12 50
      vertex -20.7846 -12 -50
    endloop
  endfacet
  facet normal -0.831476 -0.55556 0
    outer loop
      vertex -20.7846 -12 50
      vertex -19.0405 -14.6103 -50
      vertex -19.0405 -14.6103 50
    endloop
  endfacet
  facet normal -0.751844 -0.659341 0
    outer loop
      vertex -16.9706 -16.9706 -50
      vertex -19.0405 -14.6103 50
      vertex -19.0405 -14.6103 -50
    endloop
  endfacet
  facet normal -0.751844 -0.659341 0
    outer loop
      vertex -19.0405 -14.6103 50
      vertex -16.9706 -16.9706 -50
      vertex -16.9706 -16.9706 50
    endloop
  endfacet
  facet normal -0.659341 -0.751844 0
    outer loop
      vertex -16.9706 -16.9706 -50
      vertex -14.6103 -19.0405 50
      vertex -16.9706 -16.9706 50
    endloop
  endfacet
  facet normal -0.659341 -0.751844 -0
    outer loop
      vertex -14.6103 -19.0405 50
      vertex -16.9706 -16.9706 -50
      vertex -14.6103 -19.0405 -50
    endloop
  endfacet
  facet normal -0.55556 -0.831476 0
    outer loop
      vertex -14.6103 -19.0405 -50
      vertex -12 -20.7846 50
      vertex -14.6103 -19.0405 50
    endloop
  endfacet
  facet normal -0.55556 -0.831476 -0
    outer loop
      vertex -12 -20.7846 50
      vertex -14.6103 -19.0405 -50
      vertex -12 -20.7846 -50
    endloop
  endfacet
  facet normal -0.442289 -0.896873 0
    outer loop
      vertex -12 -20.7846 -50
      vertex -9.1844 -22.1731 50
      vertex -12 -20.7846 50
    endloop
  endfacet
  facet normal -0.442289 -0.896873 -0
    outer loop
      vertex -9.1844 -22.1731 50
      vertex -12 -20.7846 -50
      vertex -9.1844 -22.1731 -50
    endloop
  endfacet
  facet normal -0.321437 -0.946931 0
    outer loop
      vertex -9.1844 -22.1731 -50
      vertex -6.21166 -23.1822 50
      vertex -9.1844 -22.1731 50
    endloop
  endfacet
  facet normal -0.321437 -0.946931 -0
    outer loop
      vertex -6.21166 -23.1822 50
      vertex -9.1844 -22.1731 -50
      vertex -6.21166 -23.1822 -50
    endloop
  endfacet
  facet normal -0.195103 -0.980783 0
    outer loop
      vertex -6.21166 -23.1822 -50
      vertex -3.13263 -23.7947 50
      vertex -6.21166 -23.1822 50
    endloop
  endfacet
  facet normal -0.195103 -0.980783 -0
    outer loop
      vertex -3.13263 -23.7947 50
      vertex -6.21166 -23.1822 -50
      vertex -3.13263 -23.7947 -50
    endloop
  endfacet
  facet normal -0.0653957 -0.997859 0
    outer loop
      vertex -3.13263 -23.7947 -50
      vertex -0 -24 50
      vertex -3.13263 -23.7947 50
    endloop
  endfacet
  facet normal -0.0653957 -0.997859 -0
    outer loop
      vertex -0 -24 50
      vertex -3.13263 -23.7947 -50
      vertex -0 -24 -50
    endloop
  endfacet
  facet normal 0.0653957 -0.997859 0
    outer loop
      vertex -0 -24 -50
      vertex 3.13263 -23.7947 50
      vertex -0 -24 50
    endloop
  endfacet
  facet normal 0.0653957 -0.997859 0
    outer loop
      vertex 3.13263 -23.7947 50
      vertex -0 -24 -50
      vertex 3.13263 -23.7947 -50
    endloop
  endfacet
  facet normal 0.195103 -0.980783 0
    outer loop
      vertex 3.13263 -23.7947 -50
      vertex 6.21166 -23.1822 50
      vertex 3.13263 -23.7947 50
    endloop
  endfacet
  facet normal 0.195103 -0.980783 0
    outer loop
      vertex 6.21166 -23.1822 50
      vertex 3.13263 -23.7947 -50
      vertex 6.21166 -23.1822 -50
    endloop
  endfacet
  facet normal 0.321437 -0.946931 0
    outer loop
      vertex 6.21166 -23.1822 -50
      vertex 9.1844 -22.1731 50
      vertex 6.21166 -23.1822 50
    endloop
  endfacet
  facet normal 0.321437 -0.946931 0
    outer loop
      vertex 9.1844 -22.1731 50
      vertex 6.21166 -23.1822 -50
      vertex 9.1844 -22.1731 -50
    endloop
  endfacet
  facet normal 0.442289 -0.896873 0
    outer loop
      vertex 9.1844 -22.1731 -50
      vertex 12 -20.7846 50
      vertex 9.1844 -22.1731 50
    endloop
  endfacet
  facet normal 0.442289 -0.896873 0
    outer loop
      vertex 12 -20.7846 50
      vertex 9.1844 -22.1731 -50
      vertex 12 -20.7846 -50
    endloop
  endfacet
  facet normal 0.55556 -0.831476 0
    outer loop
      vertex 12 -20.7846 -50
      vertex 14.6103 -19.0405 50
      vertex 12 -20.7846 50
    endloop
  endfacet
  facet normal 0.55556 -0.831476 0
    outer loop
      vertex 14.6103 -19.0405 50
      vertex 12 -20.7846 -50
      vertex 14.6103 -19.0405 -50
    endloop
  endfacet
  facet normal 0.659341 -0.751844 0
    outer loop
      vertex 14.6103 -19.0405 -50
      vertex 16.9706 -16.9706 50
      vertex 14.6103 -19.0405 50
    endloop
  endfacet
  facet normal 0.659341 -0.751844 0
    outer loop
      vertex 16.9706 -16.9706 50
      vertex 14.6103 -19.0405 -50
      vertex 16.9706 -16.9706 -50
    endloop
  endfacet
  facet normal 0.751844 -0.659341 0
    outer loop
      vertex 16.9706 -16.9706 50
      vertex 19.0405 -14.6103 -50
      vertex 19.0405 -14.6103 50
    endloop
  endfacet
  facet normal 0.751844 -0.659341 0
    outer loop
      vertex 19.0405 -14.6103 -50
      vertex 16.9706 -16.9706 50
      vertex 16.9706 -16.9706 -50
    endloop
  endfacet
  facet normal 0.831476 -0.55556 0
    outer loop
      vertex 19.0405 -14.6103 50
      vertex 20.7846 -12 -50
      vertex 20.7846 -12 50
    endloop
  endfacet
  facet normal 0.831476 -0.55556 0
    outer loop
      vertex 20.7846 -12 -50
      vertex 19.0405 -14.6103 50
      vertex 19.0405 -14.6103 -50
    endloop
  endfacet
  facet normal 0.896873 -0.442289 0
    outer loop
      vertex 20.7846 -12 50
      vertex 22.1731 -9.1844 -50
      vertex 22.1731 -9.1844 50
    endloop
  endfacet
  facet normal 0.896873 -0.442289 0
    outer loop
      vertex 22.1731 -9.1844 -50
      vertex 20.7846 -12 50
      vertex 20.7846 -12 -50
    endloop
  endfacet
  facet normal 0.946931 -0.321437 0
    outer loop
      vertex 22.1731 -9.1844 50
      vertex 23.1822 -6.21166 -50
      vertex 23.1822 -6.21166 50
    endloop
  endfacet
  facet normal 0.946931 -0.321437 0
    outer loop
      vertex 23.1822 -6.21166 -50
      vertex 22.1731 -9.1844 50
      vertex 22.1731 -9.1844 -50
    endloop
  endfacet
  facet normal 0.980783 -0.195103 0
    outer loop
      vertex 23.1822 -6.21166 50
      vertex 23.7947 -3.13263 -50
      vertex 23.7947 -3.13263 50
    endloop
  endfacet
  facet normal 0.980783 -0.195103 0
    outer loop
      vertex 23.7947 -3.13263 -50
      vertex 23.1822 -6.21166 50
      vertex 23.1822 -6.21166 -50
    endloop
  endfacet
  facet normal 0.997859 -0.0653957 0
    outer loop
      vertex 23.7947 -3.13263 50
      vertex 24 0 -50
      vertex 24 0 50
    endloop
  endfacet
  facet normal 0.997859 -0.0653957 0
    outer loop
      vertex 24 0 -50
      vertex 23.7947 -3.13263 50
      vertex 23.7947 -3.13263 -50
    endloop
  endfacet
  facet normal 0 0 -1
    outer loop
      vertex 23.7947 -3.13263 -50
      vertex 23.7947 3.13263 -50
      vertex 24 0 -50
    endloop
  endfacet
  facet normal 0 0 -1
    outer loop
      vertex 23.1822 -6.21166 -50
      vertex 23.7947 3.13263 -50
      vertex 23.7947 -3.13263 -50
    endloop
  endfacet
  facet normal 0 0 -1
    outer loop
      vertex 23.1822 -6.21166 -50
      vertex 23.1822 6.21166 -50
      vertex 23.7947 3.13263 -50
    endloop
  endfacet
  facet normal 0 0 -1
    outer loop
      vertex 22.1731 -9.1844 -50
      vertex 23.1822 6.21166 -50
      vertex 23.1822 -6.21166 -50
    endloop
  endfacet
  facet normal 0 0 -1
    outer loop
      vertex 22.1731 -9.1844 -50
      vertex 22.1731 9.1844 -50
      vertex 23.1822 6.21166 -50
    endloop
  endfacet
  facet normal 0 0 -1
    outer loop
      vertex 20.7846 -12 -50
      vertex 22.1731 9.1844 -50
      vertex 22.1731 -9.1844 -50
    endloop
  endfacet
  facet normal 0 0 -1
    outer loop
      vertex 20.7846 -12 -50
      vertex 20.7846 12 -50
      vertex 22.1731 9.1844 -50
    endloop
  endfacet
  facet normal 0 0 -1
    outer loop
      vertex 19.0405 -14.6103 -50
      vertex 20.7846 12 -50
      vertex 20.7846 -12 -50
    endloop
  endfacet
  facet normal 0 0 -1
    outer loop
      vertex 19.0405 -14.6103 -50
      vertex 19.0405 14.6103 -50
      vertex 20.7846 12 -50
    endloop
  endfacet
  facet normal 0 0 -1
    outer loop
      vertex 16.9706 -16.9706 -50
      vertex 19.0405 14.6103 -50
      vertex 19.0405 -14.6103 -50
    endloop
  endfacet
  facet normal 0 0 -1
    outer loop
      vertex 16.9706 -16.9706 -50
      vertex 16.9706 16.9706 -50
      vertex 19.0405 14.6103 -50
    endloop
  endfacet
  facet normal 0 0 -1
    outer loop
      vertex 14.6103 -19.0405 -50
      vertex 16.9706 16.9706 -50
      vertex 16.9706 -16.9706 -50
    endloop
  endfacet
  facet normal 0 0 -1
    outer loop
      vertex 14.6103 -19.0405 -50
      vertex 14.6103 19.0405 -50
      vertex 16.9706 16.9706 -50
    endloop
  endfacet
  facet normal 0 0 -1
    outer loop
      vertex 12 -20.7846 -50
      vertex 14.6103 19.0405 -50
      vertex 14.6103 -19.0405 -50
    endloop
  endfacet
  facet normal 0 0 -1
    outer loop
      vertex 12 -20.7846 -50
      vertex 12 20.7846 -50
      vertex 14.6103 19.0405 -50
    endloop
  endfacet
  facet normal 0 0 -1
    outer loop
      vertex 9.1844 -22.1731 -50
      vertex 12 20.7846 -50
      vertex 12 -20.7846 -50
    endloop
  endfacet
  facet normal 0 0 -1
    outer loop
      vertex 9.1844 -22.1731 -50
      vertex 9.1844 22.1731 -50
      vertex 12 20.7846 -50
    endloop
  endfacet
  facet normal 0 0 -1
    outer loop
      vertex 6.21166 -23.1822 -50
      vertex 9.1844 22.1731 -50
      vertex 9.1844 -22.1731 -50
    endloop
  endfacet
  facet normal 0 0 -1
    outer loop
      vertex 6.21166 -23.1822 -50
      vertex 6.21166 23.1822 -50
      vertex 9.1844 22.1731 -50
    endloop
  endfacet
  facet normal 0 0 -1
    outer loop
      vertex 3.13263 -23.7947 -50
      vertex 6.21166 23.1822 -50
      vertex 6.21166 -23.1822 -50
    endloop
  endfacet
  facet normal 0 0 -1
    outer loop
      vertex 3.13263 -23.7947 -50
      vertex 3.13263 23.7947 -50
      vertex 6.21166 23.1822 -50
    endloop
  endfacet
  facet normal 0 0 -1
    outer loop
      vertex -0 -24 -50
      vertex 3.13263 23.7947 -50
      vertex 3.13263 -23.7947 -50
    endloop
  endfacet
  facet normal 0 0 -1
    outer loop
      vertex -0 -24 -50
      vertex 0 24 -50
      vertex 3.13263 23.7947 -50
    endloop
  endfacet
  facet normal 0 0 -1
    outer loop
      vertex -3.13263 -23.7947 -50
      vertex 0 24 -50
      vertex -0 -24 -50
    endloop
  endfacet
  facet normal 0 0 -1
    outer loop
      vertex -3.13263 -23.7947 -50
      vertex -3.13263 23.7947 -50
      vertex 0 24 -50
    endloop
  endfacet
  facet normal 0 0 -1
    outer loop
      vertex -6.21166 -23.1822 -50
      vertex -3.13263 23.7947 -50
      vertex -3.13263 -23.7947 -50
    endloop
  endfacet
  facet normal 0 0 -1
    outer loop
      vertex -6.21166 -23.1822 -50
      vertex -6.21166 23.1822 -50
      vertex -3.13263 23.7947 -50
    endloop
  endfacet
  facet normal 0 0 -1
    outer loop
      vertex -9.1844 -22.1731 -50
      vertex -6.21166 23.1822 -50
      vertex -6.21166 -23.1822 -50
    endloop
  endfacet
  facet normal 0 0 -1
    outer loop
      vertex -9.1844 -22.1731 -50
      vertex -9.1844 22.1731 -50
      vertex -6.21166 23.1822 -50
    endloop
  endfacet
  facet normal 0 0 -1
    outer loop
      vertex -12 -20.7846 -50
      vertex -9.1844 22.1731 -50
      vertex -9.1844 -22.1731 -50
    endloop
  endfacet
  facet normal 0 0 -1
    outer loop
      vertex -12 -20.7846 -50
      vertex -12 20.7846 -50
      vertex -9.1844 22.1731 -50
    endloop
  endfacet
  facet normal 0 0 -1
    outer loop
      vertex -14.6103 -19.0405 -50
      vertex -12 20.7846 -50
      vertex -12 -20.7846 -50
    endloop
  endfacet
  facet normal 0 0 -1
    outer loop
      vertex -14.6103 -19.0405 -50
      vertex -14.6103 19.0405 -50
      vertex -12 20.7846 -50
    endloop
  endfacet
  facet normal 0 0 -1
    outer loop
      vertex -16.9706 -16.9706 -50
      vertex -14.6103 19.0405 -50
      vertex -14.6103 -19.0405 -50
    endloop
  endfacet
  facet normal 0 0 -1
    outer loop
      vertex -16.9706 -16.9706 -50
      vertex -16.9706 16.9706 -50
      vertex -14.6103 19.0405 -50
    endloop
  endfacet
  facet normal 0 0 -1
    outer loop
      vertex -19.0405 -14.6103 -50
      vertex -16.9706 16.9706 -50
      vertex -16.9706 -16.9706 -50
    endloop
  endfacet
  facet normal 0 0 -1
    outer loop
      vertex -19.0405 -14.6103 -50
      vertex -19.0405 14.6103 -50
      vertex -16.9706 16.9706 -50
    endloop
  endfacet
  facet normal 0 0 -1
    outer loop
      vertex -20.7846 -12 -50
      vertex -19.0405 14.6103 -50
      vertex -19.0405 -14.6103 -50
    endloop
  endfacet
  facet normal 0 0 -1
    outer loop
      vertex -20.7846 -12 -50
      vertex -20.7846 12 -50
      vertex -19.0405 14.6103 -50
    endloop
  endfacet
  facet normal 0 0 -1
    outer loop
      vertex -22.1731 -9.1844 -50
      vertex -20.7846 12 -50
      vertex -20.7846 -12 -50
    endloop
  endfacet
  facet normal 0 0 -1
    outer loop
      vertex -22.1731 -9.1844 -50
      vertex -22.1731 9.1844 -50
      vertex -20.7846 12 -50
    endloop
  endfacet
  facet normal 0 0 -1
    outer loop
      vertex -23.1822 -6.21166 -50
      vertex -22.1731 9.1844 -50
      vertex -22.1731 -9.1844 -50
    endloop
  endfacet
  facet normal 0 0 -1
    outer loop
      vertex -23.1822 -6.21166 -50
      vertex -23.1822 6.21166 -50
      vertex -22.1731 9.1844 -50
    endloop
  endfacet
  facet normal 0 0 -1
    outer loop
      vertex -23.7947 -3.13263 -50
      vertex -23.1822 6.21166 -50
      vertex -23.1822 -6.21166 -50
    endloop
  endfacet
  facet normal 0 0 -1
    outer loop
      vertex -23.7947 -3.13263 -50
      vertex -23.7947 3.13263 -50
      vertex -23.1822 6.21166 -50
    endloop
  endfacet
  facet normal 0 -0 -1
    outer loop
      vertex -23.7947 3.13263 -50
      vertex -23.7947 -3.13263 -50
      vertex -24 -0 -50
    endloop
  endfacet
  facet normal 0 0 1
    outer loop
      vertex 23.7947 3.13263 50
      vertex 23.7947 -3.13263 50
      vertex 24 0 50
    endloop
  endfacet
  facet normal 0 0 1
    outer loop
      vertex 23.1822 6.21166 50
      vertex 23.7947 -3.13263 50
      vertex 23.7947 3.13263 50
    endloop
  endfacet
  facet normal 0 0 1
    outer loop
      vertex 23.1822 6.21166 50
      vertex 23.1822 -6.21166 50
      vertex 23.7947 -3.13263 50
    endloop
  endfacet
  facet normal 0 0 1
    outer loop
      vertex 22.1731 9.1844 50
      vertex 23.1822 -6.21166 50
      vertex 23.1822 6.21166 50
    endloop
  endfacet
  facet normal 0 0 1
    outer loop
      vertex 22.1731 9.1844 50
      vertex 22.1731 -9.1844 50
      vertex 23.1822 -6.21166 50
    endloop
  endfacet
  facet normal 0 0 1
    outer loop
      vertex 20.7846 12 50
      vertex 22.1731 -9.1844 50
      vertex 22.1731 9.1844 50
    endloop
  endfacet
  facet normal 0 0 1
    outer loop
      vertex 20.7846 12 50
      vertex 20.7846 -12 50
      vertex 22.1731 -9.1844 50
    endloop
  endfacet
  facet normal 0 0 1
    outer loop
      vertex 19.0405 14.6103 50
      vertex 20.7846 -12 50
      vertex 20.7846 12 50
    endloop
  endfacet
  facet normal 0 0 1
    outer loop
      vertex 19.0405 14.6103 50
      vertex 19.0405 -14.6103 50
      vertex 20.7846 -12 50
    endloop
  endfacet
  facet normal 0 0 1
    outer loop
      vertex 16.9706 16.9706 50
      vertex 19.0405 -14.6103 50
      vertex 19.0405 14.6103 50
    endloop
  endfacet
  facet normal 0 0 1
    outer loop
      vertex 16.9706 16.9706 50
      vertex 16.9706 -16.9706 50
      vertex 19.0405 -14.6103 50
    endloop
  endfacet
  facet normal 0 0 1
    outer loop
      vertex 14.6103 19.0405 50
      vertex 16.9706 -16.9706 50
      vertex 16.9706 16.9706 50
    endloop
  endfacet
  facet normal 0 0 1
    outer loop
      vertex 14.6103 19.0405 50
      vertex 14.6103 -19.0405 50
      vertex 16.9706 -16.9706 50
    endloop
  endfacet
  facet normal 0 0 1
    outer loop
      vertex 12 20.7846 50
      vertex 14.6103 -19.0405 50
      vertex 14.6103 19.0405 50
    endloop
  endfacet
  facet normal 0 0 1
    outer loop
      vertex 12 20.7846 50
      vertex 12 -20.7846 50
      vertex 14.6103 -19.0405 50
    endloop
  endfacet
  facet normal 0 0 1
    outer loop
      vertex 9.1844 22.1731 50
      vertex 12 -20.7846 50
      vertex 12 20.7846 50
    endloop
  endfacet
  facet normal 0 0 1
    outer loop
      vertex 9.1844 22.1731 50
      vertex 9.1844 -22.1731 50
      vertex 12 -20.7846 50
    endloop
  endfacet
  facet normal 0 0 1
    outer loop
      vertex 6.21166 23.1822 50
      vertex 9.1844 -22.1731 50
      vertex 9.1844 22.1731 50
    endloop
  endfacet
  facet normal 0 0 1
    outer loop
      vertex 6.21166 23.1822 50
      vertex 6.21166 -23.1822 50
      vertex 9.1844 -22.1731 50
    endloop
  endfacet
  facet normal 0 0 1
    outer loop
      vertex 3.13263 23.7947 50
      vertex 6.21166 -23.1822 50
      vertex 6.21166 23.1822 50
    endloop
  endfacet
  facet normal 0 0 1
    outer loop
      vertex 3.13263 23.7947 50
      vertex 3.13263 -23.7947 50
      vertex 6.21166 -23.1822 50
    endloop
  endfacet
  facet normal 0 0 1
    outer loop
      vertex 0 24 50
      vertex 3.13263 -23.7947 50
      vertex 3.13263 23.7947 50
    endloop
  endfacet
  facet normal 0 0 1
    outer loop
      vertex 0 24 50
      vertex -0 -24 50
      vertex 3.13263 -23.7947 50
    endloop
  endfacet
  facet normal -0 0 1
    outer loop
      vertex -3.13263 23.7947 50
      vertex -0 -24 50
      vertex 0 24 50
    endloop
  endfacet
  facet normal 0 0 1
    outer loop
      vertex -3.13263 23.7947 50
      vertex -3.13263 -23.7947 50
      vertex -0 -24 50
    endloop
  endfacet
  facet normal -0 0 1
    outer loop
      vertex -6.21166 23.1822 50
      vertex -3.13263 -23.7947 50
      vertex -3.13263 23.7947 50
    endloop
  endfacet
  facet normal 0 0 1
    outer loop
      vertex -6.21166 23.1822 50
      vertex -6.21166 -23.1822 50
      vertex -3.13263 -23.7947 50
    endloop
  endfacet
  facet normal -0 0 1
    outer loop
      vertex -9.1844 22.1731 50
      vertex -6.21166 -23.1822 50
      vertex -6.21166 23.1822 50
    endloop
  endfacet
  facet normal 0 0 1
    outer loop
      vertex -9.1844 22.1731 50
      vertex -9.1844 -22.1731 50
      vertex -6.21166 -23.1822 50
    endloop
  endfacet
  facet normal -0 0 1
    outer loop
      vertex -12 20.7846 50
      vertex -9.1844 -22.1731 50
      vertex -9.1844 22.1731 50
    endloop
  endfacet
  facet normal 0 0 1
    outer loop
      vertex -12 20.7846 50
      vertex -12 -20.7846 50
      vertex -9.1844 -22.1731 50
    endloop
  endfacet
  facet normal -0 0 1
    outer loop
      vertex -14.6103 19.0405 50
      vertex -12 -20.7846 50
      vertex -12 20.7846 50
    endloop
  endfacet
  facet normal 0 0 1
    outer loop
      vertex -14.6103 19.0405 50
      vertex -14.6103 -19.0405 50
      vertex -12 -20.7846 50
    endloop
  endfacet
  facet normal -0 0 1
    outer loop
      vertex -16.9706 16.9706 50
      vertex -14.6103 -19.0405 50
      vertex -14.6103 19.0405 50
    endloop
  endfacet
  facet normal 0 0 1
    outer loop
      vertex -16.9706 16.9706 50
      vertex -16.9706 -16.9706 50
      vertex -14.6103 -19.0405 50
    endloop
  endfacet
  facet normal -0 0 1
    outer loop
      vertex -19.0405 14.6103 50
      vertex -16.9706 -16.9706 50
      vertex -16.9706 16.9706 50
    endloop
  endfacet
  facet normal 0 0 1
    outer loop
      vertex -19.0405 14.6103 50
      vertex -19.0405 -14.6103 50
      vertex -16.9706 -16.9706 50
    endloop
  endfacet
  facet normal -0 0 1
    outer loop
      vertex -20.7846 12 50
      vertex -19.0405 -14.6103 50
      vertex -19.0405 14.6103 50
    endloop
  endfacet
  facet normal 0 0 1
    outer loop
      vertex -20.7846 12 50
      vertex -20.7846 -12 50
      vertex -19.0405 -14.6103 50
    endloop
  endfacet
  facet normal -0 0 1
    outer loop
      vertex -22.1731 9.1844 50
      vertex -20.7846 -12 50
      vertex -20.7846 12 50
    endloop
  endfacet
  facet normal 0 0 1
    outer loop
      vertex -22.1731 9.1844 50
      vertex -22.1731 -9.1844 50
      vertex -20.7846 -12 50
    endloop
  endfacet
  facet normal -0 0 1
    outer loop
      vertex -23.1822 6.21166 50
      vertex -22.1731 -9.1844 50
      vertex -22.1731 9.1844 50
    endloop
  endfacet
  facet normal 0 0 1
    outer loop
      vertex -23.1822 6.21166 50
      vertex -23.1822 -6.21166 50
      vertex -22.1731 -9.1844 50
    endloop
  endfacet
  facet normal -0 0 1
    outer loop
      vertex -23.7947 3.13263 50
      vertex -23.1822 -6.21166 50
      vertex -23.1822 6.21166 50
    endloop
  endfacet
  facet normal 0 0 1
    outer loop
      vertex -23.7947 3.13263 50
      vertex -23.7947 -3.13263 50
      vertex -23.1822 -6.21166 50
    endloop
  endfacet
  facet normal 0 -0 1
    outer loop
      vertex -23.7947 -3.13263 50
      vertex -23.7947 3.13263 50
      vertex -24 -0 50
    endloop
  endfacet
endsolid OpenSCAD_Model
