solid OpenSCAD_Model
  facet normal 1 -0 0
    outer loop
      vertex 120 -60 2.5
      vertex 120 60 -2.5
      vertex 120 60 2.5
    endloop
  endfacet
  facet normal 1 0 0
    outer loop
      vertex 120 60 -2.5
      vertex 120 -60 2.5
      vertex 120 -60 -2.5
    endloop
  endfacet
  facet normal -0 0 1
    outer loop
      vertex -115 49 2.5
      vertex -105 -49 2.5
      vertex -105 49 2.5
    endloop
  endfacet
  facet normal 0 0 1
    outer loop
      vertex -105 -49 2.5
      vertex -115 49 2.5
      vertex -115 -49 2.5
    endloop
  endfacet
  facet normal -0 0 1
    outer loop
      vertex 105 49 2.5
      vertex 115 -49 2.5
      vertex 115 49 2.5
    endloop
  endfacet
  facet normal 0 0 1
    outer loop
      vertex 115 -49 2.5
      vertex 105 49 2.5
      vertex 105 -49 2.5
    endloop
  endfacet
  facet normal 0 0 1
    outer loop
      vertex 115 49 2.5
      vertex 120 60 2.5
      vertex 115 51 2.5
    endloop
  endfacet
  facet normal 0 0 1
    outer loop
      vertex 120 60 2.5
      vertex 105 51 2.5
      vertex 115 51 2.5
    endloop
  endfacet
  facet normal 0 0 1
    outer loop
      vertex -105 49 2.5
      vertex 105 49 2.5
      vertex 105 51 2.5
    endloop
  endfacet
  facet normal 0 0 1
    outer loop
      vertex 105 49 2.5
      vertex -105 49 2.5
      vertex 105 -49 2.5
    endloop
  endfacet
  facet normal 0 0 1
    outer loop
      vertex -105 49 2.5
      vertex 105 51 2.5
      vertex -105 51 2.5
    endloop
  endfacet
  facet normal 0 0 1
    outer loop
      vertex 120 60 2.5
      vertex -105 51 2.5
      vertex 105 51 2.5
    endloop
  endfacet
  facet normal -0 0 1
    outer loop
      vertex -120 60 2.5
      vertex -105 51 2.5
      vertex 120 60 2.5
    endloop
  endfacet
  facet normal 0 0 1
    outer loop
      vertex -120 60 2.5
      vertex -115 49 2.5
      vertex -115 51 2.5
    endloop
  endfacet
  facet normal 0 0 1
    outer loop
      vertex -115 49 2.5
      vertex -120 60 2.5
      vertex -115 -49 2.5
    endloop
  endfacet
  facet normal 0 0 1
    outer loop
      vertex -120 -60 2.5
      vertex -115 -49 2.5
      vertex -120 60 2.5
    endloop
  endfacet
  facet normal 0 0 1
    outer loop
      vertex -105 51 2.5
      vertex -120 60 2.5
      vertex -115 51 2.5
    endloop
  endfacet
  facet normal 0 0 1
    outer loop
      vertex 120 60 2.5
      vertex 115 49 2.5
      vertex 120 -60 2.5
    endloop
  endfacet
  facet normal -0 0 1
    outer loop
      vertex 115 -49 2.5
      vertex 120 -60 2.5
      vertex 115 49 2.5
    endloop
  endfacet
  facet normal -0 0 1
    outer loop
      vertex 115 -51 2.5
      vertex 120 -60 2.5
      vertex 115 -49 2.5
    endloop
  endfacet
  facet normal -0 0 1
    outer loop
      vertex 105 -51 2.5
      vertex 120 -60 2.5
      vertex 115 -51 2.5
    endloop
  endfacet
  facet normal 0 0 1
    outer loop
      vertex -105 -49 2.5
      vertex 105 -49 2.5
      vertex -105 49 2.5
    endloop
  endfacet
  facet normal 0 0 1
    outer loop
      vertex 105 -49 2.5
      vertex -105 -49 2.5
      vertex 105 -51 2.5
    endloop
  endfacet
  facet normal 0 0 1
    outer loop
      vertex -105 -51 2.5
      vertex 105 -51 2.5
      vertex -105 -49 2.5
    endloop
  endfacet
  facet normal 0 0 1
    outer loop
      vertex 105 -51 2.5
      vertex -105 -51 2.5
      vertex 120 -60 2.5
    endloop
  endfacet
  facet normal 0 0 1
    outer loop
      vertex -120 -60 2.5
      vertex -105 -51 2.5
      vertex -115 -51 2.5
    endloop
  endfacet
  facet normal 0 0 1
    outer loop
      vertex -105 -51 2.5
      vertex -120 -60 2.5
      vertex 120 -60 2.5
    endloop
  endfacet
  facet normal 0 0 1
    outer loop
      vertex -115 -49 2.5
      vertex -120 -60 2.5
      vertex -115 -51 2.5
    endloop
  endfacet
  facet normal 0 0 -1
    outer loop
      vertex -115 -49 -2.5
      vertex -105 49 -2.5
      vertex -105 -49 -2.5
    endloop
  endfacet
  facet normal -0 0 -1
    outer loop
      vertex -105 49 -2.5
      vertex -115 -49 -2.5
      vertex -115 49 -2.5
    endloop
  endfacet
  facet normal 0 0 -1
    outer loop
      vertex 105 -49 -2.5
      vertex 115 49 -2.5
      vertex 115 -49 -2.5
    endloop
  endfacet
  facet normal -0 0 -1
    outer loop
      vertex 115 49 -2.5
      vertex 105 -49 -2.5
      vertex 105 49 -2.5
    endloop
  endfacet
  facet normal 0 0 -1
    outer loop
      vertex 115 -49 -2.5
      vertex 120 -60 -2.5
      vertex 115 -51 -2.5
    endloop
  endfacet
  facet normal 0 0 -1
    outer loop
      vertex 120 -60 -2.5
      vertex 105 -51 -2.5
      vertex 115 -51 -2.5
    endloop
  endfacet
  facet normal 0 0 -1
    outer loop
      vertex -105 -49 -2.5
      vertex 105 -49 -2.5
      vertex 105 -51 -2.5
    endloop
  endfacet
  facet normal 0 0 -1
    outer loop
      vertex 105 -49 -2.5
      vertex -105 -49 -2.5
      vertex 105 49 -2.5
    endloop
  endfacet
  facet normal 0 0 -1
    outer loop
      vertex -105 -49 -2.5
      vertex 105 -51 -2.5
      vertex -105 -51 -2.5
    endloop
  endfacet
  facet normal 0 0 -1
    outer loop
      vertex 120 -60 -2.5
      vertex -105 -51 -2.5
      vertex 105 -51 -2.5
    endloop
  endfacet
  facet normal 0 0 -1
    outer loop
      vertex -120 -60 -2.5
      vertex -105 -51 -2.5
      vertex 120 -60 -2.5
    endloop
  endfacet
  facet normal 0 0 -1
    outer loop
      vertex -120 -60 -2.5
      vertex -115 -49 -2.5
      vertex -115 -51 -2.5
    endloop
  endfacet
  facet normal -0 0 -1
    outer loop
      vertex -115 -49 -2.5
      vertex -120 -60 -2.5
      vertex -115 49 -2.5
    endloop
  endfacet
  facet normal 0 0 -1
    outer loop
      vertex -120 60 -2.5
      vertex -115 49 -2.5
      vertex -120 -60 -2.5
    endloop
  endfacet
  facet normal -0 0 -1
    outer loop
      vertex -105 -51 -2.5
      vertex -120 -60 -2.5
      vertex -115 -51 -2.5
    endloop
  endfacet
  facet normal 0 0 -1
    outer loop
      vertex 120 -60 -2.5
      vertex 115 -49 -2.5
      vertex 120 60 -2.5
    endloop
  endfacet
  facet normal 0 0 -1
    outer loop
      vertex 115 49 -2.5
      vertex 120 60 -2.5
      vertex 115 -49 -2.5
    endloop
  endfacet
  facet normal 0 0 -1
    outer loop
      vertex 115 51 -2.5
      vertex 120 60 -2.5
      vertex 115 49 -2.5
    endloop
  endfacet
  facet normal 0 0 -1
    outer loop
      vertex 105 51 -2.5
      vertex 120 60 -2.5
      vertex 115 51 -2.5
    endloop
  endfacet
  facet normal 0 0 -1
    outer loop
      vertex -105 49 -2.5
      vertex 105 49 -2.5
      vertex -105 -49 -2.5
    endloop
  endfacet
  facet normal 0 0 -1
    outer loop
      vertex 105 49 -2.5
      vertex -105 49 -2.5
      vertex 105 51 -2.5
    endloop
  endfacet
  facet normal 0 0 -1
    outer loop
      vertex -105 51 -2.5
      vertex 105 51 -2.5
      vertex -105 49 -2.5
    endloop
  endfacet
  facet normal 0 0 -1
    outer loop
      vertex 105 51 -2.5
      vertex -105 51 -2.5
      vertex 120 60 -2.5
    endloop
  endfacet
  facet normal 0 0 -1
    outer loop
      vertex -120 60 -2.5
      vertex -105 51 -2.5
      vertex -115 51 -2.5
    endloop
  endfacet
  facet normal 0 0 -1
    outer loop
      vertex -105 51 -2.5
      vertex -120 60 -2.5
      vertex 120 60 -2.5
    endloop
  endfacet
  facet normal 0 0 -1
    outer loop
      vertex -115 49 -2.5
      vertex -120 60 -2.5
      vertex -115 51 -2.5
    endloop
  endfacet
  facet normal -1 0 0
    outer loop
      vertex -120 -60 -2.5
      vertex -120 60 2.5
      vertex -120 60 -2.5
    endloop
  endfacet
  facet normal -1 -0 0
    outer loop
      vertex -120 60 2.5
      vertex -120 -60 -2.5
      vertex -120 -60 2.5
    endloop
  endfacet
  facet normal 0 1 -0
    outer loop
      vertex 120 60 -2.5
      vertex -120 60 2.5
      vertex 120 60 2.5
    endloop
  endfacet
  facet normal 0 1 0
    outer loop
      vertex -120 60 2.5
      vertex 120 60 -2.5
      vertex -120 60 -2.5
    endloop
  endfacet
  facet normal 0 -1 0
    outer loop
      vertex -120 -60 -2.5
      vertex 120 -60 2.5
      vertex -120 -60 2.5
    endloop
  endfacet
  facet normal 0 -1 -0
    outer loop
      vertex 120 -60 2.5
      vertex -120 -60 -2.5
      vertex 120 -60 -2.5
    endloop
  endfacet
  facet normal -1 0 0
    outer loop
      vertex -105 -51 -2.5
      vertex -105 -49 2.5
      vertex -105 -49 -2.5
    endloop
  endfacet
  facet normal -1 -0 0
    outer loop
      vertex -105 -49 2.5
      vertex -105 -51 -2.5
      vertex -105 -51 2.5
    endloop
  endfacet
  facet normal 1 -0 0
    outer loop
      vertex -115 -51 2.5
      vertex -115 -49 -2.5
      vertex -115 -49 2.5
    endloop
  endfacet
  facet normal 1 0 0
    outer loop
      vertex -115 -49 -2.5
      vertex -115 -51 2.5
      vertex -115 -51 -2.5
    endloop
  endfacet
  facet normal 0 -1 0
    outer loop
      vertex -115 -49 -2.5
      vertex -105 -49 2.5
      vertex -115 -49 2.5
    endloop
  endfacet
  facet normal 0 -1 -0
    outer loop
      vertex -105 -49 2.5
      vertex -115 -49 -2.5
      vertex -105 -49 -2.5
    endloop
  endfacet
  facet normal 0 1 -0
    outer loop
      vertex -105 -51 -2.5
      vertex -115 -51 2.5
      vertex -105 -51 2.5
    endloop
  endfacet
  facet normal 0 1 0
    outer loop
      vertex -115 -51 2.5
      vertex -105 -51 -2.5
      vertex -115 -51 -2.5
    endloop
  endfacet
  facet normal -1 0 0
    outer loop
      vertex -105 49 -2.5
      vertex -105 51 2.5
      vertex -105 51 -2.5
    endloop
  endfacet
  facet normal -1 -0 0
    outer loop
      vertex -105 51 2.5
      vertex -105 49 -2.5
      vertex -105 49 2.5
    endloop
  endfacet
  facet normal 1 -0 0
    outer loop
      vertex -115 49 2.5
      vertex -115 51 -2.5
      vertex -115 51 2.5
    endloop
  endfacet
  facet normal 1 0 0
    outer loop
      vertex -115 51 -2.5
      vertex -115 49 2.5
      vertex -115 49 -2.5
    endloop
  endfacet
  facet normal 0 -1 0
    outer loop
      vertex -115 51 -2.5
      vertex -105 51 2.5
      vertex -115 51 2.5
    endloop
  endfacet
  facet normal 0 -1 -0
    outer loop
      vertex -105 51 2.5
      vertex -115 51 -2.5
      vertex -105 51 -2.5
    endloop
  endfacet
  facet normal 0 1 -0
    outer loop
      vertex -105 49 -2.5
      vertex -115 49 2.5
      vertex -105 49 2.5
    endloop
  endfacet
  facet normal 0 1 0
    outer loop
      vertex -115 49 2.5
      vertex -105 49 -2.5
      vertex -115 49 -2.5
    endloop
  endfacet
  facet normal -1 0 0
    outer loop
      vertex 115 -51 -2.5
      vertex 115 -49 2.5
      vertex 115 -49 -2.5
    endloop
  endfacet
  facet normal -1 -0 0
    outer loop
      vertex 115 -49 2.5
      vertex 115 -51 -2.5
      vertex 115 -51 2.5
    endloop
  endfacet
  facet normal 1 -0 0
    outer loop
      vertex 105 -51 2.5
      vertex 105 -49 -2.5
      vertex 105 -49 2.5
    endloop
  endfacet
  facet normal 1 0 0
    outer loop
      vertex 105 -49 -2.5
      vertex 105 -51 2.5
      vertex 105 -51 -2.5
    endloop
  endfacet
  facet normal 0 -1 0
    outer loop
      vertex 105 -49 -2.5
      vertex 115 -49 2.5
      vertex 105 -49 2.5
    endloop
  endfacet
  facet normal 0 -1 -0
    outer loop
      vertex 115 -49 2.5
      vertex 105 -49 -2.5
      vertex 115 -49 -2.5
    endloop
  endfacet
  facet normal 0 1 -0
    outer loop
      vertex 115 -51 -2.5
      vertex 105 -51 2.5
      vertex 115 -51 2.5
    endloop
  endfacet
  facet normal 0 1 0
    outer loop
      vertex 105 -51 2.5
      vertex 115 -51 -2.5
      vertex 105 -51 -2.5
    endloop
  endfacet
  facet normal -1 0 0
    outer loop
      vertex 115 49 -2.5
      vertex 115 51 2.5
      vertex 115 51 -2.5
    endloop
  endfacet
  facet normal -1 -0 0
    outer loop
      vertex 115 51 2.5
      vertex 115 49 -2.5
      vertex 115 49 2.5
    endloop
  endfacet
  facet normal 1 -0 0
    outer loop
      vertex 105 49 2.5
      vertex 105 51 -2.5
      vertex 105 51 2.5
    endloop
  endfacet
  facet normal 1 0 0
    outer loop
      vertex 105 51 -2.5
      vertex 105 49 2.5
      vertex 105 49 -2.5
    endloop
  endfacet
  facet normal 0 -1 0
    outer loop
      vertex 105 51 -2.5
      vertex 115 51 2.5
      vertex 105 51 2.5
    endloop
  endfacet
  facet normal 0 -1 -0
    outer loop
      vertex 115 51 2.5
      vertex 105 51 -2.5
      vertex 115 51 -2.5
    endloop
  endfacet
  facet normal 0 1 -0
    outer loop
      vertex 115 49 -2.5
      vertex 105 49 2.5
      vertex 115 49 2.5
    endloop
  endfacet
  facet normal 0 1 0
    outer loop
      vertex 105 49 2.5
      vertex 115 49 -2.5
      vertex 105 49 -2.5
    endloop
  endfacet
endsolid OpenSCAD_Model
