solid OpenSCAD_Model
  facet normal 1 -0 0
    outer loop
      vertex 80 -60 20
      vertex 80 60 -20
      vertex 80 60 20
    endloop
  endfacet
  facet normal 1 0 0
    outer loop
      vertex 80 60 -20
      vertex 80 -60 20
      vertex 80 -60 -20
    endloop
  endfacet
  facet normal 0 0 1
    outer loop
      vertex 80 60 20
      vertex 77 57 20
      vertex 80 -60 20
    endloop
  endfacet
  facet normal 0 0 1
    outer loop
      vertex 80 60 20
      vertex -77 57 20
      vertex 77 57 20
    endloop
  endfacet
  facet normal 0 0 1
    outer loop
      vertex -77 57 20
      vertex -80 60 20
      vertex -77 -57 20
    endloop
  endfacet
  facet normal -0 0 1
    outer loop
      vertex -80 60 20
      vertex -77 57 20
      vertex 80 60 20
    endloop
  endfacet
  facet normal -0 0 1
    outer loop
      vertex 77 -57 20
      vertex 80 -60 20
      vertex 77 57 20
    endloop
  endfacet
  facet normal -0 0 1
    outer loop
      vertex -77 -57 20
      vertex 80 -60 20
      vertex 77 -57 20
    endloop
  endfacet
  facet normal 0 0 1
    outer loop
      vertex -77 -57 20
      vertex -80 -60 20
      vertex 80 -60 20
    endloop
  endfacet
  facet normal 0 0 1
    outer loop
      vertex -80 -60 20
      vertex -77 -57 20
      vertex -80 60 20
    endloop
  endfacet
  facet normal 0 0 -1
    outer loop
      vertex -80 -60 -20
      vertex 80 60 -20
      vertex 80 -60 -20
    endloop
  endfacet
  facet normal -0 0 -1
    outer loop
      vertex 80 60 -20
      vertex -80 -60 -20
      vertex -80 60 -20
    endloop
  endfacet
  facet normal -1 0 0
    outer loop
      vertex -80 -60 -20
      vertex -80 60 20
      vertex -80 60 -20
    endloop
  endfacet
  facet normal -1 -0 0
    outer loop
      vertex -80 60 20
      vertex -80 -60 -20
      vertex -80 -60 20
    endloop
  endfacet
  facet normal 0 1 -0
    outer loop
      vertex 80 60 -20
      vertex -80 60 20
      vertex 80 60 20
    endloop
  endfacet
  facet normal 0 1 0
    outer loop
      vertex -80 60 20
      vertex 80 60 -20
      vertex -80 60 -20
    endloop
  endfacet
  facet normal 0 -1 0
    outer loop
      vertex -80 -60 -20
      vertex 80 -60 20
      vertex -80 -60 20
    endloop
  endfacet
  facet normal 0 -1 -0
    outer loop
      vertex 80 -60 20
      vertex -80 -60 -20
      vertex 80 -60 -20
    endloop
  endfacet
  facet normal -1 0 0
    outer loop
      vertex 77 -57 -17
      vertex 77 57 20
      vertex 77 57 -17
    endloop
  endfacet
  facet normal -1 -0 0
    outer loop
      vertex 77 57 20
      vertex 77 -57 -17
      vertex 77 -57 20
    endloop
  endfacet
  facet normal -0 0 1
    outer loop
      vertex -77 57 -17
      vertex 77 -57 -17
      vertex 77 57 -17
    endloop
  endfacet
  facet normal 0 0 1
    outer loop
      vertex 77 -57 -17
      vertex -77 57 -17
      vertex -77 -57 -17
    endloop
  endfacet
  facet normal 1 -0 0
    outer loop
      vertex -77 -57 20
      vertex -77 57 -17
      vertex -77 57 20
    endloop
  endfacet
  facet normal 1 0 0
    outer loop
      vertex -77 57 -17
      vertex -77 -57 20
      vertex -77 -57 -17
    endloop
  endfacet
  facet normal 0 -1 0
    outer loop
      vertex -77 57 -17
      vertex 77 57 20
      vertex -77 57 20
    endloop
  endfacet
  facet normal 0 -1 -0
    outer loop
      vertex 77 57 20
      vertex -77 57 -17
      vertex 77 57 -17
    endloop
  endfacet
  facet normal 0 1 -0
    outer loop
      vertex 77 -57 -17
      vertex -77 -57 20
      vertex 77 -57 20
    endloop
  endfacet
  facet normal 0 1 0
    outer loop
      vertex -77 -57 20
      vertex 77 -57 -17
      vertex -77 -57 -17
    endloop
  endfacet
endsolid OpenSCAD_Model
