solid OpenSCAD_Model
  facet normal 1 -0 0
    outer loop
      vertex 95 -55 17.5
      vertex 95 55 -17.5
      vertex 95 55 17.5
    endloop
  endfacet
  facet normal 1 0 0
    outer loop
      vertex 95 55 -17.5
      vertex 95 -55 17.5
      vertex 95 -55 -17.5
    endloop
  endfacet
  facet normal 0 0 1
    outer loop
      vertex 95 55 17.5
      vertex 93 53 17.5
      vertex 95 -55 17.5
    endloop
  endfacet
  facet normal 0 0 1
    outer loop
      vertex 95 55 17.5
      vertex -93 53 17.5
      vertex 93 53 17.5
    endloop
  endfacet
  facet normal 0 0 1
    outer loop
      vertex -93 53 17.5
      vertex -95 55 17.5
      vertex -93 -53 17.5
    endloop
  endfacet
  facet normal -0 0 1
    outer loop
      vertex -95 55 17.5
      vertex -93 53 17.5
      vertex 95 55 17.5
    endloop
  endfacet
  facet normal -0 0 1
    outer loop
      vertex 93 -53 17.5
      vertex 95 -55 17.5
      vertex 93 53 17.5
    endloop
  endfacet
  facet normal -0 0 1
    outer loop
      vertex -93 -53 17.5
      vertex 95 -55 17.5
      vertex 93 -53 17.5
    endloop
  endfacet
  facet normal 0 0 1
    outer loop
      vertex -93 -53 17.5
      vertex -95 -55 17.5
      vertex 95 -55 17.5
    endloop
  endfacet
  facet normal 0 0 1
    outer loop
      vertex -95 -55 17.5
      vertex -93 -53 17.5
      vertex -95 55 17.5
    endloop
  endfacet
  facet normal 0 0 -1
    outer loop
      vertex -95 -55 -17.5
      vertex 95 55 -17.5
      vertex 95 -55 -17.5
    endloop
  endfacet
  facet normal -0 0 -1
    outer loop
      vertex 95 55 -17.5
      vertex -95 -55 -17.5
      vertex -95 55 -17.5
    endloop
  endfacet
  facet normal -1 0 0
    outer loop
      vertex -95 -55 -17.5
      vertex -95 55 17.5
      vertex -95 55 -17.5
    endloop
  endfacet
  facet normal -1 -0 0
    outer loop
      vertex -95 55 17.5
      vertex -95 -55 -17.5
      vertex -95 -55 17.5
    endloop
  endfacet
  facet normal 0 1 -0
    outer loop
      vertex 95 55 -17.5
      vertex -95 55 17.5
      vertex 95 55 17.5
    endloop
  endfacet
  facet normal 0 1 0
    outer loop
      vertex -95 55 17.5
      vertex 95 55 -17.5
      vertex -95 55 -17.5
    endloop
  endfacet
  facet normal 0 -1 0
    outer loop
      vertex -95 -55 -17.5
      vertex 95 -55 17.5
      vertex -95 -55 17.5
    endloop
  endfacet
  facet normal 0 -1 -0
    outer loop
      vertex 95 -55 17.5
      vertex -95 -55 -17.5
      vertex 95 -55 -17.5
    endloop
  endfacet
  facet normal -1 0 0
    outer loop
      vertex 93 -53 -15.5
      vertex 93 53 17.5
      vertex 93 53 -15.5
    endloop
  endfacet
  facet normal -1 -0 0
    outer loop
      vertex 93 53 17.5
      vertex 93 -53 -15.5
      vertex 93 -53 17.5
    endloop
  endfacet
  facet normal -0 0 1
    outer loop
      vertex -93 53 -15.5
      vertex 93 -53 -15.5
      vertex 93 53 -15.5
    endloop
  endfacet
  facet normal 0 0 1
    outer loop
      vertex 93 -53 -15.5
      vertex -93 53 -15.5
      vertex -93 -53 -15.5
    endloop
  endfacet
  facet normal 1 -0 0
    outer loop
      vertex -93 -53 17.5
      vertex -93 53 -15.5
      vertex -93 53 17.5
    endloop
  endfacet
  facet normal 1 0 0
    outer loop
      vertex -93 53 -15.5
      vertex -93 -53 17.5
      vertex -93 -53 -15.5
    endloop
  endfacet
  facet normal 0 -1 0
    outer loop
      vertex -93 53 -15.5
      vertex 93 53 17.5
      vertex -93 53 17.5
    endloop
  endfacet
  facet normal 0 -1 -0
    outer loop
      vertex 93 53 17.5
      vertex -93 53 -15.5
      vertex 93 53 -15.5
    endloop
  endfacet
  facet normal 0 1 -0
    outer loop
      vertex 93 -53 -15.5
      vertex -93 -53 17.5
      vertex 93 -53 17.5
    endloop
  endfacet
  facet normal 0 1 0
    outer loop
      vertex -93 -53 17.5
      vertex 93 -53 -15.5
      vertex -93 -53 -15.5
    endloop
  endfacet
endsolid OpenSCAD_Model
