solid OpenSCAD_Model
  facet normal 1 -0 0
    outer loop
      vertex 50 -45 47.5
      vertex 50 45 -47.5
      vertex 50 45 47.5
    endloop
  endfacet
  facet normal 1 0 0
    outer loop
      vertex 50 45 -47.5
      vertex 50 -45 47.5
      vertex 50 -45 -47.5
    endloop
  endfacet
  facet normal 0 0 1
    outer loop
      vertex 50 45 47.5
      vertex 46 41 47.5
      vertex 50 -45 47.5
    endloop
  endfacet
  facet normal 0 0 1
    outer loop
      vertex 50 45 47.5
      vertex -46 41 47.5
      vertex 46 41 47.5
    endloop
  endfacet
  facet normal 0 0 1
    outer loop
      vertex -46 41 47.5
      vertex -50 45 47.5
      vertex -46 -41 47.5
    endloop
  endfacet
  facet normal -0 0 1
    outer loop
      vertex -50 45 47.5
      vertex -46 41 47.5
      vertex 50 45 47.5
    endloop
  endfacet
  facet normal -0 0 1
    outer loop
      vertex 46 -41 47.5
      vertex 50 -45 47.5
      vertex 46 41 47.5
    endloop
  endfacet
  facet normal -0 0 1
    outer loop
      vertex -46 -41 47.5
      vertex 50 -45 47.5
      vertex 46 -41 47.5
    endloop
  endfacet
  facet normal 0 0 1
    outer loop
      vertex -46 -41 47.5
      vertex -50 -45 47.5
      vertex 50 -45 47.5
    endloop
  endfacet
  facet normal 0 0 1
    outer loop
      vertex -50 -45 47.5
      vertex -46 -41 47.5
      vertex -50 45 47.5
    endloop
  endfacet
  facet normal 0 0 -1
    outer loop
      vertex -50 -45 -47.5
      vertex 50 45 -47.5
      vertex 50 -45 -47.5
    endloop
  endfacet
  facet normal -0 0 -1
    outer loop
      vertex 50 45 -47.5
      vertex -50 -45 -47.5
      vertex -50 45 -47.5
    endloop
  endfacet
  facet normal -1 0 0
    outer loop
      vertex -50 -45 -47.5
      vertex -50 45 47.5
      vertex -50 45 -47.5
    endloop
  endfacet
  facet normal -1 -0 0
    outer loop
      vertex -50 45 47.5
      vertex -50 -45 -47.5
      vertex -50 -45 47.5
    endloop
  endfacet
  facet normal 0 1 -0
    outer loop
      vertex 50 45 -47.5
      vertex -50 45 47.5
      vertex 50 45 47.5
    endloop
  endfacet
  facet normal 0 1 0
    outer loop
      vertex -50 45 47.5
      vertex 50 45 -47.5
      vertex -50 45 -47.5
    endloop
  endfacet
  facet normal 0 -1 0
    outer loop
      vertex -50 -45 -47.5
      vertex 50 -45 47.5
      vertex -50 -45 47.5
    endloop
  endfacet
  facet normal 0 -1 -0
    outer loop
      vertex 50 -45 47.5
      vertex -50 -45 -47.5
      vertex 50 -45 -47.5
    endloop
  endfacet
  facet normal -1 0 0
    outer loop
      vertex 46 -41 -43.5
      vertex 46 41 47.5
      vertex 46 41 -43.5
    endloop
  endfacet
  facet normal -1 -0 0
    outer loop
      vertex 46 41 47.5
      vertex 46 -41 -43.5
      vertex 46 -41 47.5
    endloop
  endfacet
  facet normal -0 0 1
    outer loop
      vertex -46 41 -43.5
      vertex 46 -41 -43.5
      vertex 46 41 -43.5
    endloop
  endfacet
  facet normal 0 0 1
    outer loop
      vertex 46 -41 -43.5
      vertex -46 41 -43.5
      vertex -46 -41 -43.5
    endloop
  endfacet
  facet normal 1 -0 0
    outer loop
      vertex -46 -41 47.5
      vertex -46 41 -43.5
      vertex -46 41 47.5
    endloop
  endfacet
  facet normal 1 0 0
    outer loop
      vertex -46 41 -43.5
      vertex -46 -41 47.5
      vertex -46 -41 -43.5
    endloop
  endfacet
  facet normal 0 -1 0
    outer loop
      vertex -46 41 -43.5
      vertex 46 41 47.5
      vertex -46 41 47.5
    endloop
  endfacet
  facet normal 0 -1 -0
    outer loop
      vertex 46 41 47.5
      vertex -46 41 -43.5
      vertex 46 41 -43.5
    endloop
  endfacet
  facet normal 0 1 -0
    outer loop
      vertex 46 -41 -43.5
      vertex -46 -41 47.5
      vertex 46 -41 47.5
    endloop
  endfacet
  facet normal 0 1 0
    outer loop
      vertex -46 -41 47.5
      vertex 46 -41 -43.5
      vertex -46 -41 -43.5
    endloop
  endfacet
endsolid OpenSCAD_Model
