solid OpenSCAD_Model
  facet normal 1 -0 0
    outer loop
      vertex 75 -45 35
      vertex 75 45 -35
      vertex 75 45 35
    endloop
  endfacet
  facet normal 1 0 0
    outer loop
      vertex 75 45 -35
      vertex 75 -45 35
      vertex 75 -45 -35
    endloop
  endfacet
  facet normal 0 0 1
    outer loop
      vertex 75 45 35
      vertex 72 42 35
      vertex 75 -45 35
    endloop
  endfacet
  facet normal 0 0 1
    outer loop
      vertex 75 45 35
      vertex -72 42 35
      vertex 72 42 35
    endloop
  endfacet
  facet normal 0 0 1
    outer loop
      vertex -72 42 35
      vertex -75 45 35
      vertex -72 -42 35
    endloop
  endfacet
  facet normal -0 0 1
    outer loop
      vertex -75 45 35
      vertex -72 42 35
      vertex 75 45 35
    endloop
  endfacet
  facet normal -0 0 1
    outer loop
      vertex 72 -42 35
      vertex 75 -45 35
      vertex 72 42 35
    endloop
  endfacet
  facet normal -0 0 1
    outer loop
      vertex -72 -42 35
      vertex 75 -45 35
      vertex 72 -42 35
    endloop
  endfacet
  facet normal 0 0 1
    outer loop
      vertex -72 -42 35
      vertex -75 -45 35
      vertex 75 -45 35
    endloop
  endfacet
  facet normal 0 0 1
    outer loop
      vertex -75 -45 35
      vertex -72 -42 35
      vertex -75 45 35
    endloop
  endfacet
  facet normal 0 0 -1
    outer loop
      vertex -75 -45 -35
      vertex 75 45 -35
      vertex 75 -45 -35
    endloop
  endfacet
  facet normal -0 0 -1
    outer loop
      vertex 75 45 -35
      vertex -75 -45 -35
      vertex -75 45 -35
    endloop
  endfacet
  facet normal -1 0 0
    outer loop
      vertex -75 -45 -35
      vertex -75 45 35
      vertex -75 45 -35
    endloop
  endfacet
  facet normal -1 -0 0
    outer loop
      vertex -75 45 35
      vertex -75 -45 -35
      vertex -75 -45 35
    endloop
  endfacet
  facet normal 0 1 -0
    outer loop
      vertex 75 45 -35
      vertex -75 45 35
      vertex 75 45 35
    endloop
  endfacet
  facet normal 0 1 0
    outer loop
      vertex -75 45 35
      vertex 75 45 -35
      vertex -75 45 -35
    endloop
  endfacet
  facet normal 0 -1 0
    outer loop
      vertex -75 -45 -35
      vertex 75 -45 35
      vertex -75 -45 35
    endloop
  endfacet
  facet normal 0 -1 -0
    outer loop
      vertex 75 -45 35
      vertex -75 -45 -35
      vertex 75 -45 -35
    endloop
  endfacet
  facet normal -1 0 0
    outer loop
      vertex 72 -42 -32
      vertex 72 42 35
      vertex 72 42 -32
    endloop
  endfacet
  facet normal -1 -0 0
    outer loop
      vertex 72 42 35
      vertex 72 -42 -32
      vertex 72 -42 35
    endloop
  endfacet
  facet normal -0 0 1
    outer loop
      vertex -72 42 -32
      vertex 72 -42 -32
      vertex 72 42 -32
    endloop
  endfacet
  facet normal 0 0 1
    outer loop
      vertex 72 -42 -32
      vertex -72 42 -32
      vertex -72 -42 -32
    endloop
  endfacet
  facet normal 1 -0 0
    outer loop
      vertex -72 -42 35
      vertex -72 42 -32
      vertex -72 42 35
    endloop
  endfacet
  facet normal 1 0 0
    outer loop
      vertex -72 42 -32
      vertex -72 -42 35
      vertex -72 -42 -32
    endloop
  endfacet
  facet normal 0 -1 0
    outer loop
      vertex -72 42 -32
      vertex 72 42 35
      vertex -72 42 35
    endloop
  endfacet
  facet normal 0 -1 -0
    outer loop
      vertex 72 42 35
      vertex -72 42 -32
      vertex 72 42 -32
    endloop
  endfacet
  facet normal 0 1 -0
    outer loop
      vertex 72 -42 -32
      vertex -72 -42 35
      vertex 72 -42 35
    endloop
  endfacet
  facet normal 0 1 0
    outer loop
      vertex -72 -42 35
      vertex 72 -42 -32
      vertex -72 -42 -32
    endloop
  endfacet
endsolid OpenSCAD_Model
