solid OpenSCAD_Model
  facet normal 1 -0 0
    outer loop
      vertex 85 -75 2
      vertex 85 75 -2
      vertex 85 75 2
    endloop
  endfacet
  facet normal 1 0 0
    outer loop
      vertex 85 75 -2
      vertex 85 -75 2
      vertex 85 -75 -2
    endloop
  endfacet
  facet normal -0 0 1
    outer loop
      vertex -42.5 49.0955 2
      vertex -26.5 -49.0955 2
      vertex -26.5 49.0955 2
    endloop
  endfacet
  facet normal 0 0 1
    outer loop
      vertex -26.5 -49.0955 2
      vertex -42.5 49.0955 2
      vertex -42.5 -49.0955 2
    endloop
  endfacet
  facet normal 0 0 1
    outer loop
      vertex 85 75 2
      vertex 77 2 2
      vertex 85 -75 2
    endloop
  endfacet
  facet normal 0 0 1
    outer loop
      vertex 85 75 2
      vertex 61 2 2
      vertex 77 2 2
    endloop
  endfacet
  facet normal -0 0 1
    outer loop
      vertex -26.5 49.0955 2
      vertex 61 2 2
      vertex -26.5 53.0955 2
    endloop
  endfacet
  facet normal 0 0 1
    outer loop
      vertex 85 75 2
      vertex -26.5 53.0955 2
      vertex 61 2 2
    endloop
  endfacet
  facet normal -0 0 1
    outer loop
      vertex -85 75 2
      vertex -26.5 53.0955 2
      vertex 85 75 2
    endloop
  endfacet
  facet normal 0 0 1
    outer loop
      vertex -85 75 2
      vertex -42.5 49.0955 2
      vertex -42.5 53.0955 2
    endloop
  endfacet
  facet normal 0 0 1
    outer loop
      vertex -42.5 49.0955 2
      vertex -85 75 2
      vertex -42.5 -49.0955 2
    endloop
  endfacet
  facet normal 0 0 1
    outer loop
      vertex -85 -75 2
      vertex -42.5 -49.0955 2
      vertex -85 75 2
    endloop
  endfacet
  facet normal 0 0 1
    outer loop
      vertex -26.5 53.0955 2
      vertex -85 75 2
      vertex -42.5 53.0955 2
    endloop
  endfacet
  facet normal -0 0 1
    outer loop
      vertex 77 -2 2
      vertex 85 -75 2
      vertex 77 2 2
    endloop
  endfacet
  facet normal -0 0 1
    outer loop
      vertex 61 -2 2
      vertex 85 -75 2
      vertex 77 -2 2
    endloop
  endfacet
  facet normal 0 0 1
    outer loop
      vertex 61 2 2
      vertex -26.5 49.0955 2
      vertex 61 -2 2
    endloop
  endfacet
  facet normal 0 0 1
    outer loop
      vertex -26.5 -49.0955 2
      vertex 61 -2 2
      vertex -26.5 49.0955 2
    endloop
  endfacet
  facet normal 0 0 1
    outer loop
      vertex -26.5 -53.0955 2
      vertex 61 -2 2
      vertex -26.5 -49.0955 2
    endloop
  endfacet
  facet normal 0 0 1
    outer loop
      vertex 61 -2 2
      vertex -26.5 -53.0955 2
      vertex 85 -75 2
    endloop
  endfacet
  facet normal 0 0 1
    outer loop
      vertex -85 -75 2
      vertex -26.5 -53.0955 2
      vertex -42.5 -53.0955 2
    endloop
  endfacet
  facet normal 0 0 1
    outer loop
      vertex -26.5 -53.0955 2
      vertex -85 -75 2
      vertex 85 -75 2
    endloop
  endfacet
  facet normal 0 0 1
    outer loop
      vertex -42.5 -49.0955 2
      vertex -85 -75 2
      vertex -42.5 -53.0955 2
    endloop
  endfacet
  facet normal 0 0 -1
    outer loop
      vertex -42.5 -49.0955 -2
      vertex -26.5 49.0955 -2
      vertex -26.5 -49.0955 -2
    endloop
  endfacet
  facet normal -0 0 -1
    outer loop
      vertex -26.5 49.0955 -2
      vertex -42.5 -49.0955 -2
      vertex -42.5 49.0955 -2
    endloop
  endfacet
  facet normal 0 0 -1
    outer loop
      vertex 85 -75 -2
      vertex 77 -2 -2
      vertex 85 75 -2
    endloop
  endfacet
  facet normal 0 0 -1
    outer loop
      vertex 85 -75 -2
      vertex 61 -2 -2
      vertex 77 -2 -2
    endloop
  endfacet
  facet normal 0 0 -1
    outer loop
      vertex -26.5 -49.0955 -2
      vertex 61 -2 -2
      vertex -26.5 -53.0955 -2
    endloop
  endfacet
  facet normal 0 0 -1
    outer loop
      vertex 85 -75 -2
      vertex -26.5 -53.0955 -2
      vertex 61 -2 -2
    endloop
  endfacet
  facet normal 0 0 -1
    outer loop
      vertex -85 -75 -2
      vertex -26.5 -53.0955 -2
      vertex 85 -75 -2
    endloop
  endfacet
  facet normal 0 0 -1
    outer loop
      vertex -85 -75 -2
      vertex -42.5 -49.0955 -2
      vertex -42.5 -53.0955 -2
    endloop
  endfacet
  facet normal -0 0 -1
    outer loop
      vertex -42.5 -49.0955 -2
      vertex -85 -75 -2
      vertex -42.5 49.0955 -2
    endloop
  endfacet
  facet normal 0 0 -1
    outer loop
      vertex -85 75 -2
      vertex -42.5 49.0955 -2
      vertex -85 -75 -2
    endloop
  endfacet
  facet normal -0 0 -1
    outer loop
      vertex -26.5 -53.0955 -2
      vertex -85 -75 -2
      vertex -42.5 -53.0955 -2
    endloop
  endfacet
  facet normal 0 0 -1
    outer loop
      vertex 77 2 -2
      vertex 85 75 -2
      vertex 77 -2 -2
    endloop
  endfacet
  facet normal 0 0 -1
    outer loop
      vertex 61 2 -2
      vertex 85 75 -2
      vertex 77 2 -2
    endloop
  endfacet
  facet normal -0 0 -1
    outer loop
      vertex 61 -2 -2
      vertex -26.5 -49.0955 -2
      vertex 61 2 -2
    endloop
  endfacet
  facet normal 0 0 -1
    outer loop
      vertex -26.5 49.0955 -2
      vertex 61 2 -2
      vertex -26.5 -49.0955 -2
    endloop
  endfacet
  facet normal 0 0 -1
    outer loop
      vertex -26.5 53.0955 -2
      vertex 61 2 -2
      vertex -26.5 49.0955 -2
    endloop
  endfacet
  facet normal 0 0 -1
    outer loop
      vertex 61 2 -2
      vertex -26.5 53.0955 -2
      vertex 85 75 -2
    endloop
  endfacet
  facet normal 0 0 -1
    outer loop
      vertex -85 75 -2
      vertex -26.5 53.0955 -2
      vertex -42.5 53.0955 -2
    endloop
  endfacet
  facet normal 0 0 -1
    outer loop
      vertex -26.5 53.0955 -2
      vertex -85 75 -2
      vertex 85 75 -2
    endloop
  endfacet
  facet normal 0 0 -1
    outer loop
      vertex -42.5 49.0955 -2
      vertex -85 75 -2
      vertex -42.5 53.0955 -2
    endloop
  endfacet
  facet normal -1 0 0
    outer loop
      vertex -85 -75 -2
      vertex -85 75 2
      vertex -85 75 -2
    endloop
  endfacet
  facet normal -1 -0 0
    outer loop
      vertex -85 75 2
      vertex -85 -75 -2
      vertex -85 -75 2
    endloop
  endfacet
  facet normal 0 1 -0
    outer loop
      vertex 85 75 -2
      vertex -85 75 2
      vertex 85 75 2
    endloop
  endfacet
  facet normal 0 1 0
    outer loop
      vertex -85 75 2
      vertex 85 75 -2
      vertex -85 75 -2
    endloop
  endfacet
  facet normal 0 -1 0
    outer loop
      vertex -85 -75 -2
      vertex 85 -75 2
      vertex -85 -75 2
    endloop
  endfacet
  facet normal 0 -1 -0
    outer loop
      vertex 85 -75 2
      vertex -85 -75 -2
      vertex 85 -75 -2
    endloop
  endfacet
  facet normal -1 0 0
    outer loop
      vertex 77 -2 -2
      vertex 77 2 2
      vertex 77 2 -2
    endloop
  endfacet
  facet normal -1 -0 0
    outer loop
      vertex 77 2 2
      vertex 77 -2 -2
      vertex 77 -2 2
    endloop
  endfacet
  facet normal 1 -0 0
    outer loop
      vertex 61 -2 2
      vertex 61 2 -2
      vertex 61 2 2
    endloop
  endfacet
  facet normal 1 0 0
    outer loop
      vertex 61 2 -2
      vertex 61 -2 2
      vertex 61 -2 -2
    endloop
  endfacet
  facet normal 0 -1 0
    outer loop
      vertex 61 2 -2
      vertex 77 2 2
      vertex 61 2 2
    endloop
  endfacet
  facet normal 0 -1 -0
    outer loop
      vertex 77 2 2
      vertex 61 2 -2
      vertex 77 2 -2
    endloop
  endfacet
  facet normal 0 1 -0
    outer loop
      vertex 77 -2 -2
      vertex 61 -2 2
      vertex 77 -2 2
    endloop
  endfacet
  facet normal 0 1 0
    outer loop
      vertex 61 -2 2
      vertex 77 -2 -2
      vertex 61 -2 -2
    endloop
  endfacet
  facet normal -1 0 0
    outer loop
      vertex -26.5 49.0955 -2
      vertex -26.5 53.0955 2
      vertex -26.5 53.0955 -2
    endloop
  endfacet
  facet normal -1 -0 0
    outer loop
      vertex -26.5 53.0955 2
      vertex -26.5 49.0955 -2
      vertex -26.5 49.0955 2
    endloop
  endfacet
  facet normal 1 -0 0
    outer loop
      vertex -42.5 49.0955 2
      vertex -42.5 53.0955 -2
      vertex -42.5 53.0955 2
    endloop
  endfacet
  facet normal 1 0 0
    outer loop
      vertex -42.5 53.0955 -2
      vertex -42.5 49.0955 2
      vertex -42.5 49.0955 -2
    endloop
  endfacet
  facet normal 0 -1 0
    outer loop
      vertex -42.5 53.0955 -2
      vertex -26.5 53.0955 2
      vertex -42.5 53.0955 2
    endloop
  endfacet
  facet normal 0 -1 -0
    outer loop
      vertex -26.5 53.0955 2
      vertex -42.5 53.0955 -2
      vertex -26.5 53.0955 -2
    endloop
  endfacet
  facet normal 0 1 -0
    outer loop
      vertex -26.5 49.0955 -2
      vertex -42.5 49.0955 2
      vertex -26.5 49.0955 2
    endloop
  endfacet
  facet normal 0 1 0
    outer loop
      vertex -42.5 49.0955 2
      vertex -26.5 49.0955 -2
      vertex -42.5 49.0955 -2
    endloop
  endfacet
  facet normal -1 0 0
    outer loop
      vertex -26.5 -53.0955 -2
      vertex -26.5 -49.0955 2
      vertex -26.5 -49.0955 -2
    endloop
  endfacet
  facet normal -1 -0 0
    outer loop
      vertex -26.5 -49.0955 2
      vertex -26.5 -53.0955 -2
      vertex -26.5 -53.0955 2
    endloop
  endfacet
  facet normal 1 -0 0
    outer loop
      vertex -42.5 -53.0955 2
      vertex -42.5 -49.0955 -2
      vertex -42.5 -49.0955 2
    endloop
  endfacet
  facet normal 1 0 0
    outer loop
      vertex -42.5 -49.0955 -2
      vertex -42.5 -53.0955 2
      vertex -42.5 -53.0955 -2
    endloop
  endfacet
  facet normal 0 -1 0
    outer loop
      vertex -42.5 -49.0955 -2
      vertex -26.5 -49.0955 2
      vertex -42.5 -49.0955 2
    endloop
  endfacet
  facet normal 0 -1 -0
    outer loop
      vertex -26.5 -49.0955 2
      vertex -42.5 -49.0955 -2
      vertex -26.5 -49.0955 -2
    endloop
  endfacet
  facet normal 0 1 -0
    outer loop
      vertex -26.5 -53.0955 -2
      vertex -42.5 -53.0955 2
      vertex -26.5 -53.0955 2
    endloop
  endfacet
  facet normal 0 1 0
    outer loop
      vertex -42.5 -53.0955 2
      vertex -26.5 -53.0955 -2
      vertex -42.5 -53.0955 -2
    endloop
  endfacet
endsolid OpenSCAD_Model
