solid OpenSCAD_Model
  facet normal 0.165338 0.724332 -0.669333
    outer loop
      vertex 10.0888 12.3014 -11.2654
      vertex 10.9772 11.0984 -12.3478
      vertex 10.3297 11.2462 -12.3478
    endloop
  endfacet
  facet normal 0 0.716046 -0.698053
    outer loop
      vertex -10.6703 11.2462 -12.3478
      vertex 10.0888 12.3014 -11.2654
      vertex 10.3297 11.2462 -12.3478
    endloop
  endfacet
  facet normal -0.463217 -0.580863 -0.669349
    outer loop
      vertex -11.1896 -10.8321 -12.3478
      vertex -10.9112 -12.3014 -11.2654
      vertex -12.1648 -11.3017 -11.2654
    endloop
  endfacet
  facet normal 0 0.716046 -0.698053
    outer loop
      vertex -10.9112 12.3014 -11.2654
      vertex 10.0888 12.3014 -11.2654
      vertex -10.6703 11.2462 -12.3478
    endloop
  endfacet
  facet normal 0 -0.716046 -0.698053
    outer loop
      vertex -10.6703 -11.2462 -12.3478
      vertex 10.0888 -12.3014 -11.2654
      vertex -10.9112 -12.3014 -11.2654
    endloop
  endfacet
  facet normal -0.742939 0 0.669359
    outer loop
      vertex -11.1896 -10.8321 12.3478
      vertex -11.1896 10.8321 12.3478
      vertex -12.1648 -11.3017 11.2654
    endloop
  endfacet
  facet normal 0.222513 0.97493 -0
    outer loop
      vertex 10.0888 12.3014 -11.2654
      vertex 10.0888 12.3014 11.2654
      vertex 11.6521 11.9446 -11.2654
    endloop
  endfacet
  facet normal 0.669344 0.322368 -0.669371
    outer loop
      vertex 11.2654 10.5 -12.3478
      vertex 10.9772 11.0984 -12.3478
      vertex 11.6521 11.9446 -11.2654
    endloop
  endfacet
  facet normal -0 0 -1
    outer loop
      vertex 10.9772 11.0984 -12.3478
      vertex -10.6703 -11.2462 -12.3478
      vertex 10.3297 11.2462 -12.3478
    endloop
  endfacet
  facet normal 0 0.716046 0.698053
    outer loop
      vertex 10.0888 12.3014 11.2654
      vertex -10.9112 12.3014 11.2654
      vertex 10.3297 11.2462 12.3478
    endloop
  endfacet
  facet normal 0.165317 -0.724327 0.669344
    outer loop
      vertex 11.6521 -11.9446 11.2654
      vertex 10.9772 -11.0984 12.3478
      vertex 10.0888 -12.3014 11.2654
    endloop
  endfacet
  facet normal -0.623485 -0.781835 0
    outer loop
      vertex -12.1648 -11.3017 -11.2654
      vertex -10.9112 -12.3014 -11.2654
      vertex -12.1648 -11.3017 11.2654
    endloop
  endfacet
  facet normal -0.742939 0 -0.669359
    outer loop
      vertex -11.1896 -10.8321 -12.3478
      vertex -12.1648 11.3017 -11.2654
      vertex -11.1896 10.8321 -12.3478
    endloop
  endfacet
  facet normal 0.900965 0.433893 0
    outer loop
      vertex 11.6521 11.9446 11.2654
      vertex 12.3478 10.5 11.2654
      vertex 11.6521 11.9446 -11.2654
    endloop
  endfacet
  facet normal 0.165317 -0.724327 -0.669344
    outer loop
      vertex 11.6521 -11.9446 -11.2654
      vertex 10.0888 -12.3014 -11.2654
      vertex 10.9772 -11.0984 -12.3478
    endloop
  endfacet
  facet normal 0.669361 -0.322355 -0.669361
    outer loop
      vertex 11.2654 -10.5 -12.3478
      vertex 12.3478 -10.5 -11.2654
      vertex 11.6521 -11.9446 -11.2654
    endloop
  endfacet
  facet normal -0.623485 -0.781835 0
    outer loop
      vertex -12.1648 -11.3017 11.2654
      vertex -10.9112 -12.3014 -11.2654
      vertex -10.9112 -12.3014 11.2654
    endloop
  endfacet
  facet normal 0.165317 0.724327 -0.669344
    outer loop
      vertex 11.6521 11.9446 -11.2654
      vertex 10.9772 11.0984 -12.3478
      vertex 10.0888 12.3014 -11.2654
    endloop
  endfacet
  facet normal 0 0 -1
    outer loop
      vertex -11.1896 10.8321 -12.3478
      vertex -10.6703 -11.2462 -12.3478
      vertex -11.1896 -10.8321 -12.3478
    endloop
  endfacet
  facet normal 0.669344 -0.322368 -0.669371
    outer loop
      vertex 11.6521 -11.9446 -11.2654
      vertex 10.9772 -11.0984 -12.3478
      vertex 11.2654 -10.5 -12.3478
    endloop
  endfacet
  facet normal 0.707107 0 -0.707107
    outer loop
      vertex 12.3478 10.5 -11.2654
      vertex 12.3478 -10.5 -11.2654
      vertex 11.2654 10.5 -12.3478
    endloop
  endfacet
  facet normal 0.707107 0 -0.707107
    outer loop
      vertex 11.2654 10.5 -12.3478
      vertex 12.3478 -10.5 -11.2654
      vertex 11.2654 -10.5 -12.3478
    endloop
  endfacet
  facet normal -1 0 0
    outer loop
      vertex -12.1648 -11.3017 11.2654
      vertex -12.1648 11.3017 11.2654
      vertex -12.1648 -11.3017 -11.2654
    endloop
  endfacet
  facet normal 0.669344 0.322368 0.669371
    outer loop
      vertex 10.9772 11.0984 12.3478
      vertex 11.2654 10.5 12.3478
      vertex 11.6521 11.9446 11.2654
    endloop
  endfacet
  facet normal -0.463217 0.580863 -0.669349
    outer loop
      vertex -11.1896 10.8321 -12.3478
      vertex -12.1648 11.3017 -11.2654
      vertex -10.9112 12.3014 -11.2654
    endloop
  endfacet
  facet normal -0.742939 0 -0.669359
    outer loop
      vertex -12.1648 -11.3017 -11.2654
      vertex -12.1648 11.3017 -11.2654
      vertex -11.1896 -10.8321 -12.3478
    endloop
  endfacet
  facet normal 1 0 0
    outer loop
      vertex 12.3478 -10.5 -11.2654
      vertex 12.3478 10.5 11.2654
      vertex 12.3478 -10.5 11.2654
    endloop
  endfacet
  facet normal 0.669361 0.322355 -0.669361
    outer loop
      vertex 11.6521 11.9446 -11.2654
      vertex 12.3478 10.5 -11.2654
      vertex 11.2654 10.5 -12.3478
    endloop
  endfacet
  facet normal -0 0 -1
    outer loop
      vertex 11.2654 10.5 -12.3478
      vertex -10.6703 -11.2462 -12.3478
      vertex 10.9772 11.0984 -12.3478
    endloop
  endfacet
  facet normal 0.165338 -0.724332 -0.669333
    outer loop
      vertex 10.9772 -11.0984 -12.3478
      vertex 10.0888 -12.3014 -11.2654
      vertex 10.3297 -11.2462 -12.3478
    endloop
  endfacet
  facet normal 0.707107 0 0.707107
    outer loop
      vertex 12.3478 10.5 11.2654
      vertex 11.2654 10.5 12.3478
      vertex 12.3478 -10.5 11.2654
    endloop
  endfacet
  facet normal 0 0 1
    outer loop
      vertex 10.3297 -11.2462 12.3478
      vertex -10.6703 11.2462 12.3478
      vertex -10.6703 -11.2462 12.3478
    endloop
  endfacet
  facet normal 0 0 1
    outer loop
      vertex 11.2654 -10.5 12.3478
      vertex -10.6703 11.2462 12.3478
      vertex 10.9772 -11.0984 12.3478
    endloop
  endfacet
  facet normal -0.623485 0.781835 0
    outer loop
      vertex -12.1648 11.3017 -11.2654
      vertex -10.9112 12.3014 11.2654
      vertex -10.9112 12.3014 -11.2654
    endloop
  endfacet
  facet normal -0.463217 -0.580863 0.669349
    outer loop
      vertex -10.9112 -12.3014 11.2654
      vertex -11.1896 -10.8321 12.3478
      vertex -12.1648 -11.3017 11.2654
    endloop
  endfacet
  facet normal 0 0 1
    outer loop
      vertex 10.9772 -11.0984 12.3478
      vertex -10.6703 11.2462 12.3478
      vertex 10.3297 -11.2462 12.3478
    endloop
  endfacet
  facet normal 0.900965 -0.433893 0
    outer loop
      vertex 11.6521 -11.9446 11.2654
      vertex 12.3478 -10.5 -11.2654
      vertex 12.3478 -10.5 11.2654
    endloop
  endfacet
  facet normal 0.900965 -0.433893 0
    outer loop
      vertex 11.6521 -11.9446 -11.2654
      vertex 12.3478 -10.5 -11.2654
      vertex 11.6521 -11.9446 11.2654
    endloop
  endfacet
  facet normal -0 -0.716046 -0.698053
    outer loop
      vertex 10.3297 -11.2462 -12.3478
      vertex 10.0888 -12.3014 -11.2654
      vertex -10.6703 -11.2462 -12.3478
    endloop
  endfacet
  facet normal -0.463195 -0.580868 -0.66936
    outer loop
      vertex -11.1896 -10.8321 -12.3478
      vertex -10.6703 -11.2462 -12.3478
      vertex -10.9112 -12.3014 -11.2654
    endloop
  endfacet
  facet normal -0.463195 0.580868 -0.66936
    outer loop
      vertex -10.6703 11.2462 -12.3478
      vertex -11.1896 10.8321 -12.3478
      vertex -10.9112 12.3014 -11.2654
    endloop
  endfacet
  facet normal -0 0 -1
    outer loop
      vertex 11.2654 -10.5 -12.3478
      vertex -10.6703 -11.2462 -12.3478
      vertex 11.2654 10.5 -12.3478
    endloop
  endfacet
  facet normal 0.165317 0.724327 0.669344
    outer loop
      vertex 11.6521 11.9446 11.2654
      vertex 10.0888 12.3014 11.2654
      vertex 10.9772 11.0984 12.3478
    endloop
  endfacet
  facet normal 0.222513 0.97493 -0
    outer loop
      vertex 11.6521 11.9446 -11.2654
      vertex 10.0888 12.3014 11.2654
      vertex 11.6521 11.9446 11.2654
    endloop
  endfacet
  facet normal 1 0 -0
    outer loop
      vertex 12.3478 10.5 -11.2654
      vertex 12.3478 10.5 11.2654
      vertex 12.3478 -10.5 -11.2654
    endloop
  endfacet
  facet normal 0.900965 0.433893 0
    outer loop
      vertex 11.6521 11.9446 -11.2654
      vertex 12.3478 10.5 11.2654
      vertex 12.3478 10.5 -11.2654
    endloop
  endfacet
  facet normal 0 -0.716046 0.698053
    outer loop
      vertex 10.3297 -11.2462 12.3478
      vertex -10.6703 -11.2462 12.3478
      vertex 10.0888 -12.3014 11.2654
    endloop
  endfacet
  facet normal 0.165338 -0.724332 0.669333
    outer loop
      vertex 10.0888 -12.3014 11.2654
      vertex 10.9772 -11.0984 12.3478
      vertex 10.3297 -11.2462 12.3478
    endloop
  endfacet
  facet normal 0.165338 0.724332 0.669333
    outer loop
      vertex 10.0888 12.3014 11.2654
      vertex 10.3297 11.2462 12.3478
      vertex 10.9772 11.0984 12.3478
    endloop
  endfacet
  facet normal 0 0.716046 0.698053
    outer loop
      vertex 10.3297 11.2462 12.3478
      vertex -10.9112 12.3014 11.2654
      vertex -10.6703 11.2462 12.3478
    endloop
  endfacet
  facet normal -0 0 -1
    outer loop
      vertex 10.9772 -11.0984 -12.3478
      vertex -10.6703 -11.2462 -12.3478
      vertex 11.2654 -10.5 -12.3478
    endloop
  endfacet
  facet normal 0 0 -1
    outer loop
      vertex 10.3297 -11.2462 -12.3478
      vertex -10.6703 -11.2462 -12.3478
      vertex 10.9772 -11.0984 -12.3478
    endloop
  endfacet
  facet normal 0 -1 0
    outer loop
      vertex -10.9112 -12.3014 11.2654
      vertex 10.0888 -12.3014 -11.2654
      vertex 10.0888 -12.3014 11.2654
    endloop
  endfacet
  facet normal 0 -1 0
    outer loop
      vertex -10.9112 -12.3014 -11.2654
      vertex 10.0888 -12.3014 -11.2654
      vertex -10.9112 -12.3014 11.2654
    endloop
  endfacet
  facet normal -1 0 0
    outer loop
      vertex -12.1648 -11.3017 -11.2654
      vertex -12.1648 11.3017 11.2654
      vertex -12.1648 11.3017 -11.2654
    endloop
  endfacet
  facet normal -0.463217 0.580863 0.669349
    outer loop
      vertex -11.1896 10.8321 12.3478
      vertex -10.9112 12.3014 11.2654
      vertex -12.1648 11.3017 11.2654
    endloop
  endfacet
  facet normal 0.669344 -0.322368 0.669371
    outer loop
      vertex 11.6521 -11.9446 11.2654
      vertex 11.2654 -10.5 12.3478
      vertex 10.9772 -11.0984 12.3478
    endloop
  endfacet
  facet normal 0.669361 -0.322355 0.669361
    outer loop
      vertex 12.3478 -10.5 11.2654
      vertex 11.2654 -10.5 12.3478
      vertex 11.6521 -11.9446 11.2654
    endloop
  endfacet
  facet normal -0.463195 -0.580868 0.66936
    outer loop
      vertex -10.9112 -12.3014 11.2654
      vertex -10.6703 -11.2462 12.3478
      vertex -11.1896 -10.8321 12.3478
    endloop
  endfacet
  facet normal 0 -0.716046 0.698053
    outer loop
      vertex 10.0888 -12.3014 11.2654
      vertex -10.6703 -11.2462 12.3478
      vertex -10.9112 -12.3014 11.2654
    endloop
  endfacet
  facet normal -0.742939 0 0.669359
    outer loop
      vertex -12.1648 -11.3017 11.2654
      vertex -11.1896 10.8321 12.3478
      vertex -12.1648 11.3017 11.2654
    endloop
  endfacet
  facet normal 0.669361 0.322355 0.669361
    outer loop
      vertex 11.6521 11.9446 11.2654
      vertex 11.2654 10.5 12.3478
      vertex 12.3478 10.5 11.2654
    endloop
  endfacet
  facet normal 0 -0 -1
    outer loop
      vertex -10.6703 11.2462 -12.3478
      vertex -10.6703 -11.2462 -12.3478
      vertex -11.1896 10.8321 -12.3478
    endloop
  endfacet
  facet normal -0 0 -1
    outer loop
      vertex 10.3297 11.2462 -12.3478
      vertex -10.6703 -11.2462 -12.3478
      vertex -10.6703 11.2462 -12.3478
    endloop
  endfacet
  facet normal 0.222513 -0.97493 0
    outer loop
      vertex 11.6521 -11.9446 11.2654
      vertex 10.0888 -12.3014 -11.2654
      vertex 11.6521 -11.9446 -11.2654
    endloop
  endfacet
  facet normal 0.222513 -0.97493 0
    outer loop
      vertex 10.0888 -12.3014 11.2654
      vertex 10.0888 -12.3014 -11.2654
      vertex 11.6521 -11.9446 11.2654
    endloop
  endfacet
  facet normal 0 0 1
    outer loop
      vertex 10.3297 11.2462 12.3478
      vertex -10.6703 11.2462 12.3478
      vertex 10.9772 11.0984 12.3478
    endloop
  endfacet
  facet normal -0.463195 0.580868 0.66936
    outer loop
      vertex -10.6703 11.2462 12.3478
      vertex -10.9112 12.3014 11.2654
      vertex -11.1896 10.8321 12.3478
    endloop
  endfacet
  facet normal 0 -0 1
    outer loop
      vertex -10.6703 -11.2462 12.3478
      vertex -10.6703 11.2462 12.3478
      vertex -11.1896 -10.8321 12.3478
    endloop
  endfacet
  facet normal 0.707107 0 0.707107
    outer loop
      vertex 12.3478 -10.5 11.2654
      vertex 11.2654 10.5 12.3478
      vertex 11.2654 -10.5 12.3478
    endloop
  endfacet
  facet normal 0 0 1
    outer loop
      vertex -11.1896 -10.8321 12.3478
      vertex -10.6703 11.2462 12.3478
      vertex -11.1896 10.8321 12.3478
    endloop
  endfacet
  facet normal -0.623485 0.781835 0
    outer loop
      vertex -12.1648 11.3017 11.2654
      vertex -10.9112 12.3014 11.2654
      vertex -12.1648 11.3017 -11.2654
    endloop
  endfacet
  facet normal 0 0 1
    outer loop
      vertex 11.2654 10.5 12.3478
      vertex -10.6703 11.2462 12.3478
      vertex 11.2654 -10.5 12.3478
    endloop
  endfacet
  facet normal 0 0 1
    outer loop
      vertex 10.9772 11.0984 12.3478
      vertex -10.6703 11.2462 12.3478
      vertex 11.2654 10.5 12.3478
    endloop
  endfacet
  facet normal 0 1 -0
    outer loop
      vertex 10.0888 12.3014 -11.2654
      vertex -10.9112 12.3014 11.2654
      vertex 10.0888 12.3014 11.2654
    endloop
  endfacet
  facet normal 0 1 0
    outer loop
      vertex -10.9112 12.3014 -11.2654
      vertex -10.9112 12.3014 11.2654
      vertex 10.0888 12.3014 -11.2654
    endloop
  endfacet
endsolid OpenSCAD_Model
