solid OpenSCAD_Model
  facet normal 1 -0 0
    outer loop
      vertex 65 -55 25
      vertex 65 55 -25
      vertex 65 55 25
    endloop
  endfacet
  facet normal 1 0 0
    outer loop
      vertex 65 55 -25
      vertex 65 -55 25
      vertex 65 -55 -25
    endloop
  endfacet
  facet normal 0 0 1
    outer loop
      vertex 65 55 25
      vertex 62 52 25
      vertex 65 -55 25
    endloop
  endfacet
  facet normal 0 0 1
    outer loop
      vertex 65 55 25
      vertex -62 52 25
      vertex 62 52 25
    endloop
  endfacet
  facet normal 0 0 1
    outer loop
      vertex -62 52 25
      vertex -65 55 25
      vertex -62 -52 25
    endloop
  endfacet
  facet normal -0 0 1
    outer loop
      vertex -65 55 25
      vertex -62 52 25
      vertex 65 55 25
    endloop
  endfacet
  facet normal -0 0 1
    outer loop
      vertex 62 -52 25
      vertex 65 -55 25
      vertex 62 52 25
    endloop
  endfacet
  facet normal -0 0 1
    outer loop
      vertex -62 -52 25
      vertex 65 -55 25
      vertex 62 -52 25
    endloop
  endfacet
  facet normal 0 0 1
    outer loop
      vertex -62 -52 25
      vertex -65 -55 25
      vertex 65 -55 25
    endloop
  endfacet
  facet normal 0 0 1
    outer loop
      vertex -65 -55 25
      vertex -62 -52 25
      vertex -65 55 25
    endloop
  endfacet
  facet normal 0 0 -1
    outer loop
      vertex -65 -55 -25
      vertex 65 55 -25
      vertex 65 -55 -25
    endloop
  endfacet
  facet normal -0 0 -1
    outer loop
      vertex 65 55 -25
      vertex -65 -55 -25
      vertex -65 55 -25
    endloop
  endfacet
  facet normal -1 0 0
    outer loop
      vertex -65 -55 -25
      vertex -65 55 25
      vertex -65 55 -25
    endloop
  endfacet
  facet normal -1 -0 0
    outer loop
      vertex -65 55 25
      vertex -65 -55 -25
      vertex -65 -55 25
    endloop
  endfacet
  facet normal 0 1 -0
    outer loop
      vertex 65 55 -25
      vertex -65 55 25
      vertex 65 55 25
    endloop
  endfacet
  facet normal 0 1 0
    outer loop
      vertex -65 55 25
      vertex 65 55 -25
      vertex -65 55 -25
    endloop
  endfacet
  facet normal 0 -1 0
    outer loop
      vertex -65 -55 -25
      vertex 65 -55 25
      vertex -65 -55 25
    endloop
  endfacet
  facet normal 0 -1 -0
    outer loop
      vertex 65 -55 25
      vertex -65 -55 -25
      vertex 65 -55 -25
    endloop
  endfacet
  facet normal -1 0 0
    outer loop
      vertex 62 -52 -22
      vertex 62 52 25
      vertex 62 52 -22
    endloop
  endfacet
  facet normal -1 -0 0
    outer loop
      vertex 62 52 25
      vertex 62 -52 -22
      vertex 62 -52 25
    endloop
  endfacet
  facet normal -0 0 1
    outer loop
      vertex -62 52 -22
      vertex 62 -52 -22
      vertex 62 52 -22
    endloop
  endfacet
  facet normal 0 0 1
    outer loop
      vertex 62 -52 -22
      vertex -62 52 -22
      vertex -62 -52 -22
    endloop
  endfacet
  facet normal 1 -0 0
    outer loop
      vertex -62 -52 25
      vertex -62 52 -22
      vertex -62 52 25
    endloop
  endfacet
  facet normal 1 0 0
    outer loop
      vertex -62 52 -22
      vertex -62 -52 25
      vertex -62 -52 -22
    endloop
  endfacet
  facet normal 0 -1 0
    outer loop
      vertex -62 52 -22
      vertex 62 52 25
      vertex -62 52 25
    endloop
  endfacet
  facet normal 0 -1 -0
    outer loop
      vertex 62 52 25
      vertex -62 52 -22
      vertex 62 52 -22
    endloop
  endfacet
  facet normal 0 1 -0
    outer loop
      vertex 62 -52 -22
      vertex -62 -52 25
      vertex 62 -52 25
    endloop
  endfacet
  facet normal 0 1 0
    outer loop
      vertex -62 -52 25
      vertex 62 -52 -22
      vertex -62 -52 -22
    endloop
  endfacet
endsolid OpenSCAD_Model
