solid OpenSCAD_Model
  facet normal 1 -0 0
    outer loop
      vertex 110 -45 1.5
      vertex 110 45 -1.5
      vertex 110 45 1.5
    endloop
  endfacet
  facet normal 1 0 0
    outer loop
      vertex 110 45 -1.5
      vertex 110 -45 1.5
      vertex 110 -45 -1.5
    endloop
  endfacet
  facet normal -0 0 1
    outer loop
      vertex -48.6522 30.4115 1.5
      vertex 99.0171 0.261052 1.5
      vertex -48.5681 30.6593 1.5
    endloop
  endfacet
  facet normal 0 0 1
    outer loop
      vertex 99 0 1.5
      vertex -48.5171 -30.9159 1.5
      vertex -48.5 -31.1769 1.5
    endloop
  endfacet
  facet normal 0 0 1
    outer loop
      vertex 99.0171 0.261052 1.5
      vertex -48.6522 30.4115 1.5
      vertex 99 0 1.5
    endloop
  endfacet
  facet normal 0 0 1
    outer loop
      vertex 99 0 1.5
      vertex -48.5681 -30.6593 1.5
      vertex -48.5171 -30.9159 1.5
    endloop
  endfacet
  facet normal 0 0 1
    outer loop
      vertex -48.6522 -30.4115 1.5
      vertex 99 0 1.5
      vertex -48.6522 30.4115 1.5
    endloop
  endfacet
  facet normal 0 0 1
    outer loop
      vertex 99 0 1.5
      vertex -48.6522 -30.4115 1.5
      vertex -48.5681 -30.6593 1.5
    endloop
  endfacet
  facet normal -0 0 1
    outer loop
      vertex -48.7679 30.1769 1.5
      vertex -48.6522 -30.4115 1.5
      vertex -48.6522 30.4115 1.5
    endloop
  endfacet
  facet normal 0 0 1
    outer loop
      vertex -48.7679 30.1769 1.5
      vertex -48.7679 -30.1769 1.5
      vertex -48.6522 -30.4115 1.5
    endloop
  endfacet
  facet normal -0 0 1
    outer loop
      vertex -48.9133 29.9594 1.5
      vertex -48.7679 -30.1769 1.5
      vertex -48.7679 30.1769 1.5
    endloop
  endfacet
  facet normal 0 0 1
    outer loop
      vertex -48.9133 29.9594 1.5
      vertex -48.9133 -29.9594 1.5
      vertex -48.7679 -30.1769 1.5
    endloop
  endfacet
  facet normal -0 0 1
    outer loop
      vertex -49.0858 29.7627 1.5
      vertex -48.9133 -29.9594 1.5
      vertex -48.9133 29.9594 1.5
    endloop
  endfacet
  facet normal 0 0 1
    outer loop
      vertex -49.0858 29.7627 1.5
      vertex -49.0858 -29.7627 1.5
      vertex -48.9133 -29.9594 1.5
    endloop
  endfacet
  facet normal -0 0 1
    outer loop
      vertex -49.2825 29.5902 1.5
      vertex -49.0858 -29.7627 1.5
      vertex -49.0858 29.7627 1.5
    endloop
  endfacet
  facet normal 0 0 1
    outer loop
      vertex -49.2825 29.5902 1.5
      vertex -49.2825 -29.5902 1.5
      vertex -49.0858 -29.7627 1.5
    endloop
  endfacet
  facet normal -0 0 1
    outer loop
      vertex -49.5 29.4449 1.5
      vertex -49.2825 -29.5902 1.5
      vertex -49.2825 29.5902 1.5
    endloop
  endfacet
  facet normal 0 0 1
    outer loop
      vertex -49.5 29.4449 1.5
      vertex -49.5 -29.4449 1.5
      vertex -49.2825 -29.5902 1.5
    endloop
  endfacet
  facet normal -0 0 1
    outer loop
      vertex -49.7346 29.3292 1.5
      vertex -49.5 -29.4449 1.5
      vertex -49.5 29.4449 1.5
    endloop
  endfacet
  facet normal 0 0 1
    outer loop
      vertex -49.7346 29.3292 1.5
      vertex -49.7346 -29.3292 1.5
      vertex -49.5 -29.4449 1.5
    endloop
  endfacet
  facet normal -0 0 1
    outer loop
      vertex -49.9824 29.2451 1.5
      vertex -49.7346 -29.3292 1.5
      vertex -49.7346 29.3292 1.5
    endloop
  endfacet
  facet normal 0 0 1
    outer loop
      vertex -49.9824 29.2451 1.5
      vertex -49.9824 -29.2451 1.5
      vertex -49.7346 -29.3292 1.5
    endloop
  endfacet
  facet normal -0 0 1
    outer loop
      vertex -50.2389 29.194 1.5
      vertex -49.9824 -29.2451 1.5
      vertex -49.9824 29.2451 1.5
    endloop
  endfacet
  facet normal 0 0 1
    outer loop
      vertex -50.2389 29.194 1.5
      vertex -50.2389 -29.194 1.5
      vertex -49.9824 -29.2451 1.5
    endloop
  endfacet
  facet normal -0 0 1
    outer loop
      vertex -50.5 29.1769 1.5
      vertex -50.2389 -29.194 1.5
      vertex -50.2389 29.194 1.5
    endloop
  endfacet
  facet normal 0 0 1
    outer loop
      vertex -50.5 29.1769 1.5
      vertex -50.5 -29.1769 1.5
      vertex -50.2389 -29.194 1.5
    endloop
  endfacet
  facet normal 0 0 1
    outer loop
      vertex -50.7611 29.194 1.5
      vertex -50.5 -29.1769 1.5
      vertex -50.5 29.1769 1.5
    endloop
  endfacet
  facet normal 0 0 1
    outer loop
      vertex -50.7611 29.194 1.5
      vertex -50.7611 -29.194 1.5
      vertex -50.5 -29.1769 1.5
    endloop
  endfacet
  facet normal 0 0 1
    outer loop
      vertex -51.0176 29.2451 1.5
      vertex -50.7611 -29.194 1.5
      vertex -50.7611 29.194 1.5
    endloop
  endfacet
  facet normal 0 0 1
    outer loop
      vertex -51.0176 29.2451 1.5
      vertex -51.0176 -29.2451 1.5
      vertex -50.7611 -29.194 1.5
    endloop
  endfacet
  facet normal 0 0 1
    outer loop
      vertex -51.2654 29.3292 1.5
      vertex -51.0176 -29.2451 1.5
      vertex -51.0176 29.2451 1.5
    endloop
  endfacet
  facet normal 0 0 1
    outer loop
      vertex -51.2654 29.3292 1.5
      vertex -51.2654 -29.3292 1.5
      vertex -51.0176 -29.2451 1.5
    endloop
  endfacet
  facet normal 0 0 1
    outer loop
      vertex -51.5 29.4449 1.5
      vertex -51.2654 -29.3292 1.5
      vertex -51.2654 29.3292 1.5
    endloop
  endfacet
  facet normal 0 0 1
    outer loop
      vertex -51.5 29.4449 1.5
      vertex -51.5 -29.4449 1.5
      vertex -51.2654 -29.3292 1.5
    endloop
  endfacet
  facet normal 0 0 1
    outer loop
      vertex -51.7175 29.5902 1.5
      vertex -51.5 -29.4449 1.5
      vertex -51.5 29.4449 1.5
    endloop
  endfacet
  facet normal 0 0 1
    outer loop
      vertex -51.7175 29.5902 1.5
      vertex -51.7175 -29.5902 1.5
      vertex -51.5 -29.4449 1.5
    endloop
  endfacet
  facet normal 0 0 1
    outer loop
      vertex -51.9142 29.7627 1.5
      vertex -51.7175 -29.5902 1.5
      vertex -51.7175 29.5902 1.5
    endloop
  endfacet
  facet normal 0 0 1
    outer loop
      vertex -51.9142 29.7627 1.5
      vertex -51.9142 -29.7627 1.5
      vertex -51.7175 -29.5902 1.5
    endloop
  endfacet
  facet normal 0 0 1
    outer loop
      vertex -52.0867 29.9594 1.5
      vertex -51.9142 -29.7627 1.5
      vertex -51.9142 29.7627 1.5
    endloop
  endfacet
  facet normal 0 0 1
    outer loop
      vertex -52.0867 29.9594 1.5
      vertex -52.0867 -29.9594 1.5
      vertex -51.9142 -29.7627 1.5
    endloop
  endfacet
  facet normal 0 0 1
    outer loop
      vertex -110 45 1.5
      vertex -52.0867 29.9594 1.5
      vertex -52.232 30.1769 1.5
    endloop
  endfacet
  facet normal 0 0 1
    outer loop
      vertex -52.0867 29.9594 1.5
      vertex -110 45 1.5
      vertex -52.0867 -29.9594 1.5
    endloop
  endfacet
  facet normal 0 0 1
    outer loop
      vertex -110 45 1.5
      vertex -52.232 30.1769 1.5
      vertex -52.3478 30.4115 1.5
    endloop
  endfacet
  facet normal 0 0 1
    outer loop
      vertex -110 -45 1.5
      vertex -52.0867 -29.9594 1.5
      vertex -110 45 1.5
    endloop
  endfacet
  facet normal 0 0 1
    outer loop
      vertex -110 45 1.5
      vertex -52.3478 30.4115 1.5
      vertex -52.4319 30.6593 1.5
    endloop
  endfacet
  facet normal 0 0 1
    outer loop
      vertex -52.0867 -29.9594 1.5
      vertex -110 -45 1.5
      vertex -52.232 -30.1769 1.5
    endloop
  endfacet
  facet normal 0 0 1
    outer loop
      vertex -110 45 1.5
      vertex -52.4319 30.6593 1.5
      vertex -52.4829 30.9159 1.5
    endloop
  endfacet
  facet normal 0 0 1
    outer loop
      vertex -52.232 -30.1769 1.5
      vertex -110 -45 1.5
      vertex -52.3478 -30.4115 1.5
    endloop
  endfacet
  facet normal 0 0 1
    outer loop
      vertex -110 45 1.5
      vertex -52.4829 30.9159 1.5
      vertex -52.5 31.1769 1.5
    endloop
  endfacet
  facet normal 0 0 1
    outer loop
      vertex -52.3478 -30.4115 1.5
      vertex -110 -45 1.5
      vertex -52.4319 -30.6593 1.5
    endloop
  endfacet
  facet normal 0 0 1
    outer loop
      vertex 110 45 1.5
      vertex 103 0 1.5
      vertex 110 -45 1.5
    endloop
  endfacet
  facet normal 0 0 1
    outer loop
      vertex 110 45 1.5
      vertex 102.983 0.261052 1.5
      vertex 103 0 1.5
    endloop
  endfacet
  facet normal 0 0 1
    outer loop
      vertex 110 45 1.5
      vertex 102.932 0.517637 1.5
      vertex 102.983 0.261052 1.5
    endloop
  endfacet
  facet normal 0 0 1
    outer loop
      vertex 110 45 1.5
      vertex 102.848 0.765367 1.5
      vertex 102.932 0.517637 1.5
    endloop
  endfacet
  facet normal 0 0 1
    outer loop
      vertex 110 45 1.5
      vertex 102.732 1 1.5
      vertex 102.848 0.765367 1.5
    endloop
  endfacet
  facet normal 0 0 1
    outer loop
      vertex 110 45 1.5
      vertex 102.587 1.21752 1.5
      vertex 102.732 1 1.5
    endloop
  endfacet
  facet normal 0 0 1
    outer loop
      vertex 110 45 1.5
      vertex 102.414 1.41421 1.5
      vertex 102.587 1.21752 1.5
    endloop
  endfacet
  facet normal 0 0 1
    outer loop
      vertex 110 45 1.5
      vertex 102.218 1.58671 1.5
      vertex 102.414 1.41421 1.5
    endloop
  endfacet
  facet normal 0 0 1
    outer loop
      vertex 110 45 1.5
      vertex 102 1.73205 1.5
      vertex 102.218 1.58671 1.5
    endloop
  endfacet
  facet normal 0 0 1
    outer loop
      vertex 110 45 1.5
      vertex 101.765 1.84776 1.5
      vertex 102 1.73205 1.5
    endloop
  endfacet
  facet normal 0 0 1
    outer loop
      vertex 110 45 1.5
      vertex 101.518 1.93185 1.5
      vertex 101.765 1.84776 1.5
    endloop
  endfacet
  facet normal 0 0 1
    outer loop
      vertex 110 45 1.5
      vertex 101.261 1.98289 1.5
      vertex 101.518 1.93185 1.5
    endloop
  endfacet
  facet normal 0 0 1
    outer loop
      vertex 110 45 1.5
      vertex 101 2 1.5
      vertex 101.261 1.98289 1.5
    endloop
  endfacet
  facet normal 0 0 1
    outer loop
      vertex 110 45 1.5
      vertex 100.739 1.98289 1.5
      vertex 101 2 1.5
    endloop
  endfacet
  facet normal 0 0 1
    outer loop
      vertex 110 45 1.5
      vertex 100.482 1.93185 1.5
      vertex 100.739 1.98289 1.5
    endloop
  endfacet
  facet normal 0 0 1
    outer loop
      vertex 110 45 1.5
      vertex 100.235 1.84776 1.5
      vertex 100.482 1.93185 1.5
    endloop
  endfacet
  facet normal 0 0 1
    outer loop
      vertex 110 45 1.5
      vertex 100 1.73205 1.5
      vertex 100.235 1.84776 1.5
    endloop
  endfacet
  facet normal 0 0 1
    outer loop
      vertex 110 45 1.5
      vertex 99.7825 1.58671 1.5
      vertex 100 1.73205 1.5
    endloop
  endfacet
  facet normal 0 0 1
    outer loop
      vertex 110 45 1.5
      vertex 99.5858 1.41421 1.5
      vertex 99.7825 1.58671 1.5
    endloop
  endfacet
  facet normal 0 0 1
    outer loop
      vertex 110 45 1.5
      vertex 99.4133 1.21752 1.5
      vertex 99.5858 1.41421 1.5
    endloop
  endfacet
  facet normal 0 0 1
    outer loop
      vertex 110 45 1.5
      vertex 99.268 1 1.5
      vertex 99.4133 1.21752 1.5
    endloop
  endfacet
  facet normal -0 0 1
    outer loop
      vertex -48.5171 31.438 1.5
      vertex 99.268 1 1.5
      vertex 110 45 1.5
    endloop
  endfacet
  facet normal -0 -0 1
    outer loop
      vertex -48.5 31.1769 1.5
      vertex 99.268 1 1.5
      vertex -48.5171 31.438 1.5
    endloop
  endfacet
  facet normal -0 0 1
    outer loop
      vertex -48.5681 30.6593 1.5
      vertex 99.0681 0.517637 1.5
      vertex -48.5171 30.9159 1.5
    endloop
  endfacet
  facet normal 0 0 1
    outer loop
      vertex 99.1522 0.765367 1.5
      vertex -48.5171 30.9159 1.5
      vertex 99.0681 0.517637 1.5
    endloop
  endfacet
  facet normal 0 0 1
    outer loop
      vertex 99.268 1 1.5
      vertex -48.5 31.1769 1.5
      vertex 99.1522 0.765367 1.5
    endloop
  endfacet
  facet normal -0 0 1
    outer loop
      vertex -48.5171 30.9159 1.5
      vertex 99.1522 0.765367 1.5
      vertex -48.5 31.1769 1.5
    endloop
  endfacet
  facet normal 0 0 1
    outer loop
      vertex 110 45 1.5
      vertex -48.5681 31.6946 1.5
      vertex -48.5171 31.438 1.5
    endloop
  endfacet
  facet normal 0 0 1
    outer loop
      vertex 110 45 1.5
      vertex -48.6522 31.9423 1.5
      vertex -48.5681 31.6946 1.5
    endloop
  endfacet
  facet normal 0 0 1
    outer loop
      vertex 110 45 1.5
      vertex -48.7679 32.1769 1.5
      vertex -48.6522 31.9423 1.5
    endloop
  endfacet
  facet normal 0 0 1
    outer loop
      vertex 110 45 1.5
      vertex -48.9133 32.3944 1.5
      vertex -48.7679 32.1769 1.5
    endloop
  endfacet
  facet normal 0 0 1
    outer loop
      vertex 110 45 1.5
      vertex -49.0858 32.5911 1.5
      vertex -48.9133 32.3944 1.5
    endloop
  endfacet
  facet normal 0 0 1
    outer loop
      vertex 110 45 1.5
      vertex -49.2825 32.7636 1.5
      vertex -49.0858 32.5911 1.5
    endloop
  endfacet
  facet normal 0 0 1
    outer loop
      vertex 110 45 1.5
      vertex -49.5 32.909 1.5
      vertex -49.2825 32.7636 1.5
    endloop
  endfacet
  facet normal 0 0 1
    outer loop
      vertex 110 45 1.5
      vertex -49.7346 33.0247 1.5
      vertex -49.5 32.909 1.5
    endloop
  endfacet
  facet normal 0 0 1
    outer loop
      vertex 110 45 1.5
      vertex -49.9824 33.1088 1.5
      vertex -49.7346 33.0247 1.5
    endloop
  endfacet
  facet normal 0 0 1
    outer loop
      vertex 110 45 1.5
      vertex -50.2389 33.1598 1.5
      vertex -49.9824 33.1088 1.5
    endloop
  endfacet
  facet normal -0 0 1
    outer loop
      vertex -110 45 1.5
      vertex -50.2389 33.1598 1.5
      vertex 110 45 1.5
    endloop
  endfacet
  facet normal 0 0 1
    outer loop
      vertex -50.2389 33.1598 1.5
      vertex -110 45 1.5
      vertex -50.5 33.1769 1.5
    endloop
  endfacet
  facet normal 0 0 1
    outer loop
      vertex -52.4319 -30.6593 1.5
      vertex -110 -45 1.5
      vertex -52.4829 -30.9159 1.5
    endloop
  endfacet
  facet normal 0 0 1
    outer loop
      vertex -52.4829 31.438 1.5
      vertex -110 45 1.5
      vertex -52.5 31.1769 1.5
    endloop
  endfacet
  facet normal 0 0 1
    outer loop
      vertex -52.4319 31.6946 1.5
      vertex -110 45 1.5
      vertex -52.4829 31.438 1.5
    endloop
  endfacet
  facet normal 0 0 1
    outer loop
      vertex -52.3478 31.9423 1.5
      vertex -110 45 1.5
      vertex -52.4319 31.6946 1.5
    endloop
  endfacet
  facet normal 0 0 1
    outer loop
      vertex -52.232 32.1769 1.5
      vertex -110 45 1.5
      vertex -52.3478 31.9423 1.5
    endloop
  endfacet
  facet normal 0 0 1
    outer loop
      vertex -52.0867 32.3944 1.5
      vertex -110 45 1.5
      vertex -52.232 32.1769 1.5
    endloop
  endfacet
  facet normal 0 0 1
    outer loop
      vertex -51.9142 32.5911 1.5
      vertex -110 45 1.5
      vertex -52.0867 32.3944 1.5
    endloop
  endfacet
  facet normal 0 0 1
    outer loop
      vertex -51.7175 32.7636 1.5
      vertex -110 45 1.5
      vertex -51.9142 32.5911 1.5
    endloop
  endfacet
  facet normal 0 0 1
    outer loop
      vertex -51.5 32.909 1.5
      vertex -110 45 1.5
      vertex -51.7175 32.7636 1.5
    endloop
  endfacet
  facet normal 0 0 1
    outer loop
      vertex -51.2654 33.0247 1.5
      vertex -110 45 1.5
      vertex -51.5 32.909 1.5
    endloop
  endfacet
  facet normal 0 0 1
    outer loop
      vertex -51.0176 33.1088 1.5
      vertex -110 45 1.5
      vertex -51.2654 33.0247 1.5
    endloop
  endfacet
  facet normal 0 0 1
    outer loop
      vertex -50.7611 33.1598 1.5
      vertex -110 45 1.5
      vertex -51.0176 33.1088 1.5
    endloop
  endfacet
  facet normal 0 0 1
    outer loop
      vertex -50.5 33.1769 1.5
      vertex -110 45 1.5
      vertex -50.7611 33.1598 1.5
    endloop
  endfacet
  facet normal -0 0 1
    outer loop
      vertex 102.983 -0.261052 1.5
      vertex 110 -45 1.5
      vertex 103 0 1.5
    endloop
  endfacet
  facet normal -0 0 1
    outer loop
      vertex 102.932 -0.517637 1.5
      vertex 110 -45 1.5
      vertex 102.983 -0.261052 1.5
    endloop
  endfacet
  facet normal -0 0 1
    outer loop
      vertex 102.848 -0.765367 1.5
      vertex 110 -45 1.5
      vertex 102.932 -0.517637 1.5
    endloop
  endfacet
  facet normal -0 0 1
    outer loop
      vertex 102.732 -1 1.5
      vertex 110 -45 1.5
      vertex 102.848 -0.765367 1.5
    endloop
  endfacet
  facet normal -0 0 1
    outer loop
      vertex 102.587 -1.21752 1.5
      vertex 110 -45 1.5
      vertex 102.732 -1 1.5
    endloop
  endfacet
  facet normal -0 0 1
    outer loop
      vertex 102.414 -1.41421 1.5
      vertex 110 -45 1.5
      vertex 102.587 -1.21752 1.5
    endloop
  endfacet
  facet normal -0 0 1
    outer loop
      vertex 102.218 -1.58671 1.5
      vertex 110 -45 1.5
      vertex 102.414 -1.41421 1.5
    endloop
  endfacet
  facet normal -0 0 1
    outer loop
      vertex 102 -1.73205 1.5
      vertex 110 -45 1.5
      vertex 102.218 -1.58671 1.5
    endloop
  endfacet
  facet normal -0 0 1
    outer loop
      vertex 101.765 -1.84776 1.5
      vertex 110 -45 1.5
      vertex 102 -1.73205 1.5
    endloop
  endfacet
  facet normal -0 0 1
    outer loop
      vertex 101.518 -1.93185 1.5
      vertex 110 -45 1.5
      vertex 101.765 -1.84776 1.5
    endloop
  endfacet
  facet normal -0 0 1
    outer loop
      vertex 101.261 -1.98289 1.5
      vertex 110 -45 1.5
      vertex 101.518 -1.93185 1.5
    endloop
  endfacet
  facet normal -0 0 1
    outer loop
      vertex 101 -2 1.5
      vertex 110 -45 1.5
      vertex 101.261 -1.98289 1.5
    endloop
  endfacet
  facet normal 0 0 1
    outer loop
      vertex 100.739 -1.98289 1.5
      vertex 110 -45 1.5
      vertex 101 -2 1.5
    endloop
  endfacet
  facet normal 0 0 1
    outer loop
      vertex 100.482 -1.93185 1.5
      vertex 110 -45 1.5
      vertex 100.739 -1.98289 1.5
    endloop
  endfacet
  facet normal 0 0 1
    outer loop
      vertex 100.235 -1.84776 1.5
      vertex 110 -45 1.5
      vertex 100.482 -1.93185 1.5
    endloop
  endfacet
  facet normal 0 0 1
    outer loop
      vertex 100 -1.73205 1.5
      vertex 110 -45 1.5
      vertex 100.235 -1.84776 1.5
    endloop
  endfacet
  facet normal 0 0 1
    outer loop
      vertex 99.7825 -1.58671 1.5
      vertex 110 -45 1.5
      vertex 100 -1.73205 1.5
    endloop
  endfacet
  facet normal 0 0 1
    outer loop
      vertex 99.5858 -1.41421 1.5
      vertex 110 -45 1.5
      vertex 99.7825 -1.58671 1.5
    endloop
  endfacet
  facet normal 0 0 1
    outer loop
      vertex 99.4133 -1.21752 1.5
      vertex 110 -45 1.5
      vertex 99.5858 -1.41421 1.5
    endloop
  endfacet
  facet normal 0 0 1
    outer loop
      vertex 99.268 -1 1.5
      vertex 110 -45 1.5
      vertex 99.4133 -1.21752 1.5
    endloop
  endfacet
  facet normal 0 0 1
    outer loop
      vertex -48.5 -31.1769 1.5
      vertex 99.268 -1 1.5
      vertex 99.1522 -0.765367 1.5
    endloop
  endfacet
  facet normal 0 0 1
    outer loop
      vertex -48.5 -31.1769 1.5
      vertex 99.1522 -0.765367 1.5
      vertex 99.0681 -0.517637 1.5
    endloop
  endfacet
  facet normal 0 0 1
    outer loop
      vertex 99.0681 0.517637 1.5
      vertex -48.5681 30.6593 1.5
      vertex 99.0171 0.261052 1.5
    endloop
  endfacet
  facet normal 0 0 1
    outer loop
      vertex 99 0 1.5
      vertex -48.5 -31.1769 1.5
      vertex 99.0171 -0.261052 1.5
    endloop
  endfacet
  facet normal 0 0 1
    outer loop
      vertex 99.0171 -0.261052 1.5
      vertex -48.5 -31.1769 1.5
      vertex 99.0681 -0.517637 1.5
    endloop
  endfacet
  facet normal 0 0 1
    outer loop
      vertex 99.268 -1 1.5
      vertex -48.5 -31.1769 1.5
      vertex -48.5171 -31.438 1.5
    endloop
  endfacet
  facet normal 0 0 1
    outer loop
      vertex 99.268 -1 1.5
      vertex -48.5171 -31.438 1.5
      vertex 110 -45 1.5
    endloop
  endfacet
  facet normal -0 0 1
    outer loop
      vertex -48.5681 -31.6946 1.5
      vertex 110 -45 1.5
      vertex -48.5171 -31.438 1.5
    endloop
  endfacet
  facet normal -0 0 1
    outer loop
      vertex -48.6522 -31.9423 1.5
      vertex 110 -45 1.5
      vertex -48.5681 -31.6946 1.5
    endloop
  endfacet
  facet normal -0 0 1
    outer loop
      vertex -48.7679 -32.1769 1.5
      vertex 110 -45 1.5
      vertex -48.6522 -31.9423 1.5
    endloop
  endfacet
  facet normal -0 0 1
    outer loop
      vertex -48.9133 -32.3944 1.5
      vertex 110 -45 1.5
      vertex -48.7679 -32.1769 1.5
    endloop
  endfacet
  facet normal -0 0 1
    outer loop
      vertex -49.0858 -32.5911 1.5
      vertex 110 -45 1.5
      vertex -48.9133 -32.3944 1.5
    endloop
  endfacet
  facet normal -0 0 1
    outer loop
      vertex -49.2825 -32.7636 1.5
      vertex 110 -45 1.5
      vertex -49.0858 -32.5911 1.5
    endloop
  endfacet
  facet normal -0 0 1
    outer loop
      vertex -49.5 -32.909 1.5
      vertex 110 -45 1.5
      vertex -49.2825 -32.7636 1.5
    endloop
  endfacet
  facet normal -0 0 1
    outer loop
      vertex -49.7346 -33.0247 1.5
      vertex 110 -45 1.5
      vertex -49.5 -32.909 1.5
    endloop
  endfacet
  facet normal -0 0 1
    outer loop
      vertex -49.9824 -33.1088 1.5
      vertex 110 -45 1.5
      vertex -49.7346 -33.0247 1.5
    endloop
  endfacet
  facet normal -0 0 1
    outer loop
      vertex -50.2389 -33.1598 1.5
      vertex 110 -45 1.5
      vertex -49.9824 -33.1088 1.5
    endloop
  endfacet
  facet normal 0 0 1
    outer loop
      vertex -110 -45 1.5
      vertex -50.2389 -33.1598 1.5
      vertex -50.5 -33.1769 1.5
    endloop
  endfacet
  facet normal 0 0 1
    outer loop
      vertex -110 -45 1.5
      vertex -50.5 -33.1769 1.5
      vertex -50.7611 -33.1598 1.5
    endloop
  endfacet
  facet normal 0 0 1
    outer loop
      vertex -52.4829 -30.9159 1.5
      vertex -110 -45 1.5
      vertex -52.5 -31.1769 1.5
    endloop
  endfacet
  facet normal 0 0 1
    outer loop
      vertex -52.5 -31.1769 1.5
      vertex -110 -45 1.5
      vertex -52.4829 -31.438 1.5
    endloop
  endfacet
  facet normal 0 0 1
    outer loop
      vertex -52.4829 -31.438 1.5
      vertex -110 -45 1.5
      vertex -52.4319 -31.6946 1.5
    endloop
  endfacet
  facet normal 0 0 1
    outer loop
      vertex -52.4319 -31.6946 1.5
      vertex -110 -45 1.5
      vertex -52.3478 -31.9423 1.5
    endloop
  endfacet
  facet normal 0 0 1
    outer loop
      vertex -52.3478 -31.9423 1.5
      vertex -110 -45 1.5
      vertex -52.232 -32.1769 1.5
    endloop
  endfacet
  facet normal 0 0 1
    outer loop
      vertex -50.2389 -33.1598 1.5
      vertex -110 -45 1.5
      vertex 110 -45 1.5
    endloop
  endfacet
  facet normal 0 0 1
    outer loop
      vertex -51.0176 -33.1088 1.5
      vertex -110 -45 1.5
      vertex -50.7611 -33.1598 1.5
    endloop
  endfacet
  facet normal 0 0 1
    outer loop
      vertex -51.2654 -33.0247 1.5
      vertex -110 -45 1.5
      vertex -51.0176 -33.1088 1.5
    endloop
  endfacet
  facet normal 0 0 1
    outer loop
      vertex -51.5 -32.909 1.5
      vertex -110 -45 1.5
      vertex -51.2654 -33.0247 1.5
    endloop
  endfacet
  facet normal 0 0 1
    outer loop
      vertex -51.7175 -32.7636 1.5
      vertex -110 -45 1.5
      vertex -51.5 -32.909 1.5
    endloop
  endfacet
  facet normal 0 0 1
    outer loop
      vertex -51.9142 -32.5911 1.5
      vertex -110 -45 1.5
      vertex -51.7175 -32.7636 1.5
    endloop
  endfacet
  facet normal 0 0 1
    outer loop
      vertex -52.0867 -32.3944 1.5
      vertex -110 -45 1.5
      vertex -51.9142 -32.5911 1.5
    endloop
  endfacet
  facet normal 0 0 1
    outer loop
      vertex -52.232 -32.1769 1.5
      vertex -110 -45 1.5
      vertex -52.0867 -32.3944 1.5
    endloop
  endfacet
  facet normal 0 0 -1
    outer loop
      vertex -48.6522 -30.4115 -1.5
      vertex 99.0171 -0.261052 -1.5
      vertex -48.5681 -30.6593 -1.5
    endloop
  endfacet
  facet normal 0 0 -1
    outer loop
      vertex 99 0 -1.5
      vertex -48.5171 30.9159 -1.5
      vertex -48.5 31.1769 -1.5
    endloop
  endfacet
  facet normal -0 0 -1
    outer loop
      vertex 99.0171 -0.261052 -1.5
      vertex -48.6522 -30.4115 -1.5
      vertex 99 0 -1.5
    endloop
  endfacet
  facet normal 0 0 -1
    outer loop
      vertex 99 0 -1.5
      vertex -48.5681 30.6593 -1.5
      vertex -48.5171 30.9159 -1.5
    endloop
  endfacet
  facet normal 0 0 -1
    outer loop
      vertex -48.6522 30.4115 -1.5
      vertex 99 0 -1.5
      vertex -48.6522 -30.4115 -1.5
    endloop
  endfacet
  facet normal 0 0 -1
    outer loop
      vertex 99 0 -1.5
      vertex -48.6522 30.4115 -1.5
      vertex -48.5681 30.6593 -1.5
    endloop
  endfacet
  facet normal 0 0 -1
    outer loop
      vertex -48.7679 -30.1769 -1.5
      vertex -48.6522 30.4115 -1.5
      vertex -48.6522 -30.4115 -1.5
    endloop
  endfacet
  facet normal 0 0 -1
    outer loop
      vertex -48.7679 -30.1769 -1.5
      vertex -48.7679 30.1769 -1.5
      vertex -48.6522 30.4115 -1.5
    endloop
  endfacet
  facet normal 0 0 -1
    outer loop
      vertex -48.9133 -29.9594 -1.5
      vertex -48.7679 30.1769 -1.5
      vertex -48.7679 -30.1769 -1.5
    endloop
  endfacet
  facet normal 0 0 -1
    outer loop
      vertex -48.9133 -29.9594 -1.5
      vertex -48.9133 29.9594 -1.5
      vertex -48.7679 30.1769 -1.5
    endloop
  endfacet
  facet normal 0 0 -1
    outer loop
      vertex -49.0858 -29.7627 -1.5
      vertex -48.9133 29.9594 -1.5
      vertex -48.9133 -29.9594 -1.5
    endloop
  endfacet
  facet normal 0 0 -1
    outer loop
      vertex -49.0858 -29.7627 -1.5
      vertex -49.0858 29.7627 -1.5
      vertex -48.9133 29.9594 -1.5
    endloop
  endfacet
  facet normal 0 0 -1
    outer loop
      vertex -49.2825 -29.5902 -1.5
      vertex -49.0858 29.7627 -1.5
      vertex -49.0858 -29.7627 -1.5
    endloop
  endfacet
  facet normal 0 0 -1
    outer loop
      vertex -49.2825 -29.5902 -1.5
      vertex -49.2825 29.5902 -1.5
      vertex -49.0858 29.7627 -1.5
    endloop
  endfacet
  facet normal 0 0 -1
    outer loop
      vertex -49.5 -29.4449 -1.5
      vertex -49.2825 29.5902 -1.5
      vertex -49.2825 -29.5902 -1.5
    endloop
  endfacet
  facet normal 0 0 -1
    outer loop
      vertex -49.5 -29.4449 -1.5
      vertex -49.5 29.4449 -1.5
      vertex -49.2825 29.5902 -1.5
    endloop
  endfacet
  facet normal 0 0 -1
    outer loop
      vertex -49.7346 -29.3292 -1.5
      vertex -49.5 29.4449 -1.5
      vertex -49.5 -29.4449 -1.5
    endloop
  endfacet
  facet normal 0 0 -1
    outer loop
      vertex -49.7346 -29.3292 -1.5
      vertex -49.7346 29.3292 -1.5
      vertex -49.5 29.4449 -1.5
    endloop
  endfacet
  facet normal 0 0 -1
    outer loop
      vertex -49.9824 -29.2451 -1.5
      vertex -49.7346 29.3292 -1.5
      vertex -49.7346 -29.3292 -1.5
    endloop
  endfacet
  facet normal 0 0 -1
    outer loop
      vertex -49.9824 -29.2451 -1.5
      vertex -49.9824 29.2451 -1.5
      vertex -49.7346 29.3292 -1.5
    endloop
  endfacet
  facet normal 0 0 -1
    outer loop
      vertex -50.2389 -29.194 -1.5
      vertex -49.9824 29.2451 -1.5
      vertex -49.9824 -29.2451 -1.5
    endloop
  endfacet
  facet normal 0 0 -1
    outer loop
      vertex -50.2389 -29.194 -1.5
      vertex -50.2389 29.194 -1.5
      vertex -49.9824 29.2451 -1.5
    endloop
  endfacet
  facet normal 0 0 -1
    outer loop
      vertex -50.5 -29.1769 -1.5
      vertex -50.2389 29.194 -1.5
      vertex -50.2389 -29.194 -1.5
    endloop
  endfacet
  facet normal 0 0 -1
    outer loop
      vertex -50.5 -29.1769 -1.5
      vertex -50.5 29.1769 -1.5
      vertex -50.2389 29.194 -1.5
    endloop
  endfacet
  facet normal 0 0 -1
    outer loop
      vertex -50.7611 -29.194 -1.5
      vertex -50.5 29.1769 -1.5
      vertex -50.5 -29.1769 -1.5
    endloop
  endfacet
  facet normal 0 0 -1
    outer loop
      vertex -50.7611 -29.194 -1.5
      vertex -50.7611 29.194 -1.5
      vertex -50.5 29.1769 -1.5
    endloop
  endfacet
  facet normal 0 0 -1
    outer loop
      vertex -51.0176 -29.2451 -1.5
      vertex -50.7611 29.194 -1.5
      vertex -50.7611 -29.194 -1.5
    endloop
  endfacet
  facet normal 0 0 -1
    outer loop
      vertex -51.0176 -29.2451 -1.5
      vertex -51.0176 29.2451 -1.5
      vertex -50.7611 29.194 -1.5
    endloop
  endfacet
  facet normal 0 0 -1
    outer loop
      vertex -51.2654 -29.3292 -1.5
      vertex -51.0176 29.2451 -1.5
      vertex -51.0176 -29.2451 -1.5
    endloop
  endfacet
  facet normal 0 0 -1
    outer loop
      vertex -51.2654 -29.3292 -1.5
      vertex -51.2654 29.3292 -1.5
      vertex -51.0176 29.2451 -1.5
    endloop
  endfacet
  facet normal 0 0 -1
    outer loop
      vertex -51.5 -29.4449 -1.5
      vertex -51.2654 29.3292 -1.5
      vertex -51.2654 -29.3292 -1.5
    endloop
  endfacet
  facet normal 0 0 -1
    outer loop
      vertex -51.5 -29.4449 -1.5
      vertex -51.5 29.4449 -1.5
      vertex -51.2654 29.3292 -1.5
    endloop
  endfacet
  facet normal 0 0 -1
    outer loop
      vertex -51.7175 -29.5902 -1.5
      vertex -51.5 29.4449 -1.5
      vertex -51.5 -29.4449 -1.5
    endloop
  endfacet
  facet normal 0 0 -1
    outer loop
      vertex -51.7175 -29.5902 -1.5
      vertex -51.7175 29.5902 -1.5
      vertex -51.5 29.4449 -1.5
    endloop
  endfacet
  facet normal 0 0 -1
    outer loop
      vertex -51.9142 -29.7627 -1.5
      vertex -51.7175 29.5902 -1.5
      vertex -51.7175 -29.5902 -1.5
    endloop
  endfacet
  facet normal 0 0 -1
    outer loop
      vertex -51.9142 -29.7627 -1.5
      vertex -51.9142 29.7627 -1.5
      vertex -51.7175 29.5902 -1.5
    endloop
  endfacet
  facet normal 0 0 -1
    outer loop
      vertex -52.0867 -29.9594 -1.5
      vertex -51.9142 29.7627 -1.5
      vertex -51.9142 -29.7627 -1.5
    endloop
  endfacet
  facet normal 0 0 -1
    outer loop
      vertex -52.0867 -29.9594 -1.5
      vertex -52.0867 29.9594 -1.5
      vertex -51.9142 29.7627 -1.5
    endloop
  endfacet
  facet normal 0 0 -1
    outer loop
      vertex -110 -45 -1.5
      vertex -52.0867 -29.9594 -1.5
      vertex -52.232 -30.1769 -1.5
    endloop
  endfacet
  facet normal -0 0 -1
    outer loop
      vertex -52.0867 -29.9594 -1.5
      vertex -110 -45 -1.5
      vertex -52.0867 29.9594 -1.5
    endloop
  endfacet
  facet normal 0 0 -1
    outer loop
      vertex -110 -45 -1.5
      vertex -52.232 -30.1769 -1.5
      vertex -52.3478 -30.4115 -1.5
    endloop
  endfacet
  facet normal 0 0 -1
    outer loop
      vertex -110 45 -1.5
      vertex -52.0867 29.9594 -1.5
      vertex -110 -45 -1.5
    endloop
  endfacet
  facet normal 0 0 -1
    outer loop
      vertex -110 -45 -1.5
      vertex -52.3478 -30.4115 -1.5
      vertex -52.4319 -30.6593 -1.5
    endloop
  endfacet
  facet normal 0 0 -1
    outer loop
      vertex -52.0867 29.9594 -1.5
      vertex -110 45 -1.5
      vertex -52.232 30.1769 -1.5
    endloop
  endfacet
  facet normal 0 0 -1
    outer loop
      vertex -110 -45 -1.5
      vertex -52.4319 -30.6593 -1.5
      vertex -52.4829 -30.9159 -1.5
    endloop
  endfacet
  facet normal 0 0 -1
    outer loop
      vertex -52.232 30.1769 -1.5
      vertex -110 45 -1.5
      vertex -52.3478 30.4115 -1.5
    endloop
  endfacet
  facet normal 0 0 -1
    outer loop
      vertex -110 -45 -1.5
      vertex -52.4829 -30.9159 -1.5
      vertex -52.5 -31.1769 -1.5
    endloop
  endfacet
  facet normal 0 0 -1
    outer loop
      vertex -52.3478 30.4115 -1.5
      vertex -110 45 -1.5
      vertex -52.4319 30.6593 -1.5
    endloop
  endfacet
  facet normal 0 0 -1
    outer loop
      vertex 110 -45 -1.5
      vertex 103 0 -1.5
      vertex 110 45 -1.5
    endloop
  endfacet
  facet normal 0 0 -1
    outer loop
      vertex 110 -45 -1.5
      vertex 102.983 -0.261052 -1.5
      vertex 103 0 -1.5
    endloop
  endfacet
  facet normal 0 0 -1
    outer loop
      vertex 110 -45 -1.5
      vertex 102.932 -0.517637 -1.5
      vertex 102.983 -0.261052 -1.5
    endloop
  endfacet
  facet normal 0 0 -1
    outer loop
      vertex 110 -45 -1.5
      vertex 102.848 -0.765367 -1.5
      vertex 102.932 -0.517637 -1.5
    endloop
  endfacet
  facet normal 0 0 -1
    outer loop
      vertex 110 -45 -1.5
      vertex 102.732 -1 -1.5
      vertex 102.848 -0.765367 -1.5
    endloop
  endfacet
  facet normal 0 0 -1
    outer loop
      vertex 110 -45 -1.5
      vertex 102.587 -1.21752 -1.5
      vertex 102.732 -1 -1.5
    endloop
  endfacet
  facet normal 0 0 -1
    outer loop
      vertex 110 -45 -1.5
      vertex 102.414 -1.41421 -1.5
      vertex 102.587 -1.21752 -1.5
    endloop
  endfacet
  facet normal 0 0 -1
    outer loop
      vertex 110 -45 -1.5
      vertex 102.218 -1.58671 -1.5
      vertex 102.414 -1.41421 -1.5
    endloop
  endfacet
  facet normal 0 0 -1
    outer loop
      vertex 110 -45 -1.5
      vertex 102 -1.73205 -1.5
      vertex 102.218 -1.58671 -1.5
    endloop
  endfacet
  facet normal 0 0 -1
    outer loop
      vertex 110 -45 -1.5
      vertex 101.765 -1.84776 -1.5
      vertex 102 -1.73205 -1.5
    endloop
  endfacet
  facet normal 0 0 -1
    outer loop
      vertex 110 -45 -1.5
      vertex 101.518 -1.93185 -1.5
      vertex 101.765 -1.84776 -1.5
    endloop
  endfacet
  facet normal 0 0 -1
    outer loop
      vertex 110 -45 -1.5
      vertex 101.261 -1.98289 -1.5
      vertex 101.518 -1.93185 -1.5
    endloop
  endfacet
  facet normal 0 0 -1
    outer loop
      vertex 110 -45 -1.5
      vertex 101 -2 -1.5
      vertex 101.261 -1.98289 -1.5
    endloop
  endfacet
  facet normal 0 0 -1
    outer loop
      vertex 110 -45 -1.5
      vertex 100.739 -1.98289 -1.5
      vertex 101 -2 -1.5
    endloop
  endfacet
  facet normal 0 0 -1
    outer loop
      vertex 110 -45 -1.5
      vertex 100.482 -1.93185 -1.5
      vertex 100.739 -1.98289 -1.5
    endloop
  endfacet
  facet normal 0 0 -1
    outer loop
      vertex 110 -45 -1.5
      vertex 100.235 -1.84776 -1.5
      vertex 100.482 -1.93185 -1.5
    endloop
  endfacet
  facet normal 0 0 -1
    outer loop
      vertex 110 -45 -1.5
      vertex 100 -1.73205 -1.5
      vertex 100.235 -1.84776 -1.5
    endloop
  endfacet
  facet normal 0 0 -1
    outer loop
      vertex 110 -45 -1.5
      vertex 99.7825 -1.58671 -1.5
      vertex 100 -1.73205 -1.5
    endloop
  endfacet
  facet normal 0 0 -1
    outer loop
      vertex 110 -45 -1.5
      vertex 99.5858 -1.41421 -1.5
      vertex 99.7825 -1.58671 -1.5
    endloop
  endfacet
  facet normal 0 0 -1
    outer loop
      vertex 110 -45 -1.5
      vertex 99.4133 -1.21752 -1.5
      vertex 99.5858 -1.41421 -1.5
    endloop
  endfacet
  facet normal 0 0 -1
    outer loop
      vertex 110 -45 -1.5
      vertex 99.268 -1 -1.5
      vertex 99.4133 -1.21752 -1.5
    endloop
  endfacet
  facet normal 0 0 -1
    outer loop
      vertex -48.5171 -31.438 -1.5
      vertex 99.268 -1 -1.5
      vertex 110 -45 -1.5
    endloop
  endfacet
  facet normal 0 -0 -1
    outer loop
      vertex -48.5 -31.1769 -1.5
      vertex 99.268 -1 -1.5
      vertex -48.5171 -31.438 -1.5
    endloop
  endfacet
  facet normal 0 0 -1
    outer loop
      vertex -48.5681 -30.6593 -1.5
      vertex 99.0681 -0.517637 -1.5
      vertex -48.5171 -30.9159 -1.5
    endloop
  endfacet
  facet normal -0 0 -1
    outer loop
      vertex 99.1522 -0.765367 -1.5
      vertex -48.5171 -30.9159 -1.5
      vertex 99.0681 -0.517637 -1.5
    endloop
  endfacet
  facet normal -0 0 -1
    outer loop
      vertex 99.268 -1 -1.5
      vertex -48.5 -31.1769 -1.5
      vertex 99.1522 -0.765367 -1.5
    endloop
  endfacet
  facet normal 0 0 -1
    outer loop
      vertex -48.5171 -30.9159 -1.5
      vertex 99.1522 -0.765367 -1.5
      vertex -48.5 -31.1769 -1.5
    endloop
  endfacet
  facet normal 0 0 -1
    outer loop
      vertex 110 -45 -1.5
      vertex -48.5681 -31.6946 -1.5
      vertex -48.5171 -31.438 -1.5
    endloop
  endfacet
  facet normal 0 0 -1
    outer loop
      vertex 110 -45 -1.5
      vertex -48.6522 -31.9423 -1.5
      vertex -48.5681 -31.6946 -1.5
    endloop
  endfacet
  facet normal 0 0 -1
    outer loop
      vertex 110 -45 -1.5
      vertex -48.7679 -32.1769 -1.5
      vertex -48.6522 -31.9423 -1.5
    endloop
  endfacet
  facet normal 0 0 -1
    outer loop
      vertex 110 -45 -1.5
      vertex -48.9133 -32.3944 -1.5
      vertex -48.7679 -32.1769 -1.5
    endloop
  endfacet
  facet normal 0 0 -1
    outer loop
      vertex 110 -45 -1.5
      vertex -49.0858 -32.5911 -1.5
      vertex -48.9133 -32.3944 -1.5
    endloop
  endfacet
  facet normal 0 0 -1
    outer loop
      vertex 110 -45 -1.5
      vertex -49.2825 -32.7636 -1.5
      vertex -49.0858 -32.5911 -1.5
    endloop
  endfacet
  facet normal 0 0 -1
    outer loop
      vertex 110 -45 -1.5
      vertex -49.5 -32.909 -1.5
      vertex -49.2825 -32.7636 -1.5
    endloop
  endfacet
  facet normal 0 0 -1
    outer loop
      vertex 110 -45 -1.5
      vertex -49.7346 -33.0247 -1.5
      vertex -49.5 -32.909 -1.5
    endloop
  endfacet
  facet normal 0 0 -1
    outer loop
      vertex 110 -45 -1.5
      vertex -49.9824 -33.1088 -1.5
      vertex -49.7346 -33.0247 -1.5
    endloop
  endfacet
  facet normal 0 0 -1
    outer loop
      vertex 110 -45 -1.5
      vertex -50.2389 -33.1598 -1.5
      vertex -49.9824 -33.1088 -1.5
    endloop
  endfacet
  facet normal 0 0 -1
    outer loop
      vertex -110 -45 -1.5
      vertex -50.2389 -33.1598 -1.5
      vertex 110 -45 -1.5
    endloop
  endfacet
  facet normal 0 0 -1
    outer loop
      vertex -50.2389 -33.1598 -1.5
      vertex -110 -45 -1.5
      vertex -50.5 -33.1769 -1.5
    endloop
  endfacet
  facet normal 0 0 -1
    outer loop
      vertex -52.4319 30.6593 -1.5
      vertex -110 45 -1.5
      vertex -52.4829 30.9159 -1.5
    endloop
  endfacet
  facet normal -0 0 -1
    outer loop
      vertex -52.4829 -31.438 -1.5
      vertex -110 -45 -1.5
      vertex -52.5 -31.1769 -1.5
    endloop
  endfacet
  facet normal -0 0 -1
    outer loop
      vertex -52.4319 -31.6946 -1.5
      vertex -110 -45 -1.5
      vertex -52.4829 -31.438 -1.5
    endloop
  endfacet
  facet normal -0 0 -1
    outer loop
      vertex -52.3478 -31.9423 -1.5
      vertex -110 -45 -1.5
      vertex -52.4319 -31.6946 -1.5
    endloop
  endfacet
  facet normal -0 0 -1
    outer loop
      vertex -52.232 -32.1769 -1.5
      vertex -110 -45 -1.5
      vertex -52.3478 -31.9423 -1.5
    endloop
  endfacet
  facet normal -0 0 -1
    outer loop
      vertex -52.0867 -32.3944 -1.5
      vertex -110 -45 -1.5
      vertex -52.232 -32.1769 -1.5
    endloop
  endfacet
  facet normal -0 0 -1
    outer loop
      vertex -51.9142 -32.5911 -1.5
      vertex -110 -45 -1.5
      vertex -52.0867 -32.3944 -1.5
    endloop
  endfacet
  facet normal -0 0 -1
    outer loop
      vertex -51.7175 -32.7636 -1.5
      vertex -110 -45 -1.5
      vertex -51.9142 -32.5911 -1.5
    endloop
  endfacet
  facet normal -0 0 -1
    outer loop
      vertex -51.5 -32.909 -1.5
      vertex -110 -45 -1.5
      vertex -51.7175 -32.7636 -1.5
    endloop
  endfacet
  facet normal -0 0 -1
    outer loop
      vertex -51.2654 -33.0247 -1.5
      vertex -110 -45 -1.5
      vertex -51.5 -32.909 -1.5
    endloop
  endfacet
  facet normal -0 0 -1
    outer loop
      vertex -51.0176 -33.1088 -1.5
      vertex -110 -45 -1.5
      vertex -51.2654 -33.0247 -1.5
    endloop
  endfacet
  facet normal -0 0 -1
    outer loop
      vertex -50.7611 -33.1598 -1.5
      vertex -110 -45 -1.5
      vertex -51.0176 -33.1088 -1.5
    endloop
  endfacet
  facet normal -0 0 -1
    outer loop
      vertex -50.5 -33.1769 -1.5
      vertex -110 -45 -1.5
      vertex -50.7611 -33.1598 -1.5
    endloop
  endfacet
  facet normal 0 0 -1
    outer loop
      vertex 102.983 0.261052 -1.5
      vertex 110 45 -1.5
      vertex 103 0 -1.5
    endloop
  endfacet
  facet normal 0 0 -1
    outer loop
      vertex 102.932 0.517637 -1.5
      vertex 110 45 -1.5
      vertex 102.983 0.261052 -1.5
    endloop
  endfacet
  facet normal 0 0 -1
    outer loop
      vertex 102.848 0.765367 -1.5
      vertex 110 45 -1.5
      vertex 102.932 0.517637 -1.5
    endloop
  endfacet
  facet normal 0 0 -1
    outer loop
      vertex 102.732 1 -1.5
      vertex 110 45 -1.5
      vertex 102.848 0.765367 -1.5
    endloop
  endfacet
  facet normal 0 0 -1
    outer loop
      vertex 102.587 1.21752 -1.5
      vertex 110 45 -1.5
      vertex 102.732 1 -1.5
    endloop
  endfacet
  facet normal 0 0 -1
    outer loop
      vertex 102.414 1.41421 -1.5
      vertex 110 45 -1.5
      vertex 102.587 1.21752 -1.5
    endloop
  endfacet
  facet normal 0 0 -1
    outer loop
      vertex 102.218 1.58671 -1.5
      vertex 110 45 -1.5
      vertex 102.414 1.41421 -1.5
    endloop
  endfacet
  facet normal 0 0 -1
    outer loop
      vertex 102 1.73205 -1.5
      vertex 110 45 -1.5
      vertex 102.218 1.58671 -1.5
    endloop
  endfacet
  facet normal 0 0 -1
    outer loop
      vertex 101.765 1.84776 -1.5
      vertex 110 45 -1.5
      vertex 102 1.73205 -1.5
    endloop
  endfacet
  facet normal 0 0 -1
    outer loop
      vertex 101.518 1.93185 -1.5
      vertex 110 45 -1.5
      vertex 101.765 1.84776 -1.5
    endloop
  endfacet
  facet normal 0 0 -1
    outer loop
      vertex 101.261 1.98289 -1.5
      vertex 110 45 -1.5
      vertex 101.518 1.93185 -1.5
    endloop
  endfacet
  facet normal 0 0 -1
    outer loop
      vertex 101 2 -1.5
      vertex 110 45 -1.5
      vertex 101.261 1.98289 -1.5
    endloop
  endfacet
  facet normal 0 0 -1
    outer loop
      vertex 100.739 1.98289 -1.5
      vertex 110 45 -1.5
      vertex 101 2 -1.5
    endloop
  endfacet
  facet normal 0 0 -1
    outer loop
      vertex 100.482 1.93185 -1.5
      vertex 110 45 -1.5
      vertex 100.739 1.98289 -1.5
    endloop
  endfacet
  facet normal 0 0 -1
    outer loop
      vertex 100.235 1.84776 -1.5
      vertex 110 45 -1.5
      vertex 100.482 1.93185 -1.5
    endloop
  endfacet
  facet normal 0 0 -1
    outer loop
      vertex 100 1.73205 -1.5
      vertex 110 45 -1.5
      vertex 100.235 1.84776 -1.5
    endloop
  endfacet
  facet normal 0 0 -1
    outer loop
      vertex 99.7825 1.58671 -1.5
      vertex 110 45 -1.5
      vertex 100 1.73205 -1.5
    endloop
  endfacet
  facet normal 0 0 -1
    outer loop
      vertex 99.5858 1.41421 -1.5
      vertex 110 45 -1.5
      vertex 99.7825 1.58671 -1.5
    endloop
  endfacet
  facet normal 0 0 -1
    outer loop
      vertex 99.4133 1.21752 -1.5
      vertex 110 45 -1.5
      vertex 99.5858 1.41421 -1.5
    endloop
  endfacet
  facet normal 0 0 -1
    outer loop
      vertex 99.268 1 -1.5
      vertex 110 45 -1.5
      vertex 99.4133 1.21752 -1.5
    endloop
  endfacet
  facet normal 0 0 -1
    outer loop
      vertex -48.5 31.1769 -1.5
      vertex 99.268 1 -1.5
      vertex 99.1522 0.765367 -1.5
    endloop
  endfacet
  facet normal 0 0 -1
    outer loop
      vertex -48.5 31.1769 -1.5
      vertex 99.1522 0.765367 -1.5
      vertex 99.0681 0.517637 -1.5
    endloop
  endfacet
  facet normal -0 0 -1
    outer loop
      vertex 99.0681 -0.517637 -1.5
      vertex -48.5681 -30.6593 -1.5
      vertex 99.0171 -0.261052 -1.5
    endloop
  endfacet
  facet normal 0 0 -1
    outer loop
      vertex 99 0 -1.5
      vertex -48.5 31.1769 -1.5
      vertex 99.0171 0.261052 -1.5
    endloop
  endfacet
  facet normal 0 0 -1
    outer loop
      vertex 99.0171 0.261052 -1.5
      vertex -48.5 31.1769 -1.5
      vertex 99.0681 0.517637 -1.5
    endloop
  endfacet
  facet normal 0 0 -1
    outer loop
      vertex 99.268 1 -1.5
      vertex -48.5 31.1769 -1.5
      vertex -48.5171 31.438 -1.5
    endloop
  endfacet
  facet normal 0 0 -1
    outer loop
      vertex 99.268 1 -1.5
      vertex -48.5171 31.438 -1.5
      vertex 110 45 -1.5
    endloop
  endfacet
  facet normal 0 0 -1
    outer loop
      vertex -48.5681 31.6946 -1.5
      vertex 110 45 -1.5
      vertex -48.5171 31.438 -1.5
    endloop
  endfacet
  facet normal 0 0 -1
    outer loop
      vertex -48.6522 31.9423 -1.5
      vertex 110 45 -1.5
      vertex -48.5681 31.6946 -1.5
    endloop
  endfacet
  facet normal 0 0 -1
    outer loop
      vertex -48.7679 32.1769 -1.5
      vertex 110 45 -1.5
      vertex -48.6522 31.9423 -1.5
    endloop
  endfacet
  facet normal 0 0 -1
    outer loop
      vertex -48.9133 32.3944 -1.5
      vertex 110 45 -1.5
      vertex -48.7679 32.1769 -1.5
    endloop
  endfacet
  facet normal 0 0 -1
    outer loop
      vertex -49.0858 32.5911 -1.5
      vertex 110 45 -1.5
      vertex -48.9133 32.3944 -1.5
    endloop
  endfacet
  facet normal 0 0 -1
    outer loop
      vertex -49.2825 32.7636 -1.5
      vertex 110 45 -1.5
      vertex -49.0858 32.5911 -1.5
    endloop
  endfacet
  facet normal 0 0 -1
    outer loop
      vertex -49.5 32.909 -1.5
      vertex 110 45 -1.5
      vertex -49.2825 32.7636 -1.5
    endloop
  endfacet
  facet normal 0 0 -1
    outer loop
      vertex -49.7346 33.0247 -1.5
      vertex 110 45 -1.5
      vertex -49.5 32.909 -1.5
    endloop
  endfacet
  facet normal 0 0 -1
    outer loop
      vertex -49.9824 33.1088 -1.5
      vertex 110 45 -1.5
      vertex -49.7346 33.0247 -1.5
    endloop
  endfacet
  facet normal 0 0 -1
    outer loop
      vertex -50.2389 33.1598 -1.5
      vertex 110 45 -1.5
      vertex -49.9824 33.1088 -1.5
    endloop
  endfacet
  facet normal 0 0 -1
    outer loop
      vertex -110 45 -1.5
      vertex -50.2389 33.1598 -1.5
      vertex -50.5 33.1769 -1.5
    endloop
  endfacet
  facet normal 0 0 -1
    outer loop
      vertex -110 45 -1.5
      vertex -50.5 33.1769 -1.5
      vertex -50.7611 33.1598 -1.5
    endloop
  endfacet
  facet normal 0 0 -1
    outer loop
      vertex -52.4829 30.9159 -1.5
      vertex -110 45 -1.5
      vertex -52.5 31.1769 -1.5
    endloop
  endfacet
  facet normal 0 0 -1
    outer loop
      vertex -52.5 31.1769 -1.5
      vertex -110 45 -1.5
      vertex -52.4829 31.438 -1.5
    endloop
  endfacet
  facet normal 0 0 -1
    outer loop
      vertex -52.4829 31.438 -1.5
      vertex -110 45 -1.5
      vertex -52.4319 31.6946 -1.5
    endloop
  endfacet
  facet normal 0 0 -1
    outer loop
      vertex -52.4319 31.6946 -1.5
      vertex -110 45 -1.5
      vertex -52.3478 31.9423 -1.5
    endloop
  endfacet
  facet normal 0 0 -1
    outer loop
      vertex -52.3478 31.9423 -1.5
      vertex -110 45 -1.5
      vertex -52.232 32.1769 -1.5
    endloop
  endfacet
  facet normal 0 0 -1
    outer loop
      vertex -50.2389 33.1598 -1.5
      vertex -110 45 -1.5
      vertex 110 45 -1.5
    endloop
  endfacet
  facet normal 0 0 -1
    outer loop
      vertex -51.0176 33.1088 -1.5
      vertex -110 45 -1.5
      vertex -50.7611 33.1598 -1.5
    endloop
  endfacet
  facet normal 0 0 -1
    outer loop
      vertex -51.2654 33.0247 -1.5
      vertex -110 45 -1.5
      vertex -51.0176 33.1088 -1.5
    endloop
  endfacet
  facet normal 0 0 -1
    outer loop
      vertex -51.5 32.909 -1.5
      vertex -110 45 -1.5
      vertex -51.2654 33.0247 -1.5
    endloop
  endfacet
  facet normal 0 0 -1
    outer loop
      vertex -51.7175 32.7636 -1.5
      vertex -110 45 -1.5
      vertex -51.5 32.909 -1.5
    endloop
  endfacet
  facet normal 0 0 -1
    outer loop
      vertex -51.9142 32.5911 -1.5
      vertex -110 45 -1.5
      vertex -51.7175 32.7636 -1.5
    endloop
  endfacet
  facet normal 0 0 -1
    outer loop
      vertex -52.0867 32.3944 -1.5
      vertex -110 45 -1.5
      vertex -51.9142 32.5911 -1.5
    endloop
  endfacet
  facet normal 0 0 -1
    outer loop
      vertex -52.232 32.1769 -1.5
      vertex -110 45 -1.5
      vertex -52.0867 32.3944 -1.5
    endloop
  endfacet
  facet normal -1 0 0
    outer loop
      vertex -110 -45 -1.5
      vertex -110 45 1.5
      vertex -110 45 -1.5
    endloop
  endfacet
  facet normal -1 -0 0
    outer loop
      vertex -110 45 1.5
      vertex -110 -45 -1.5
      vertex -110 -45 1.5
    endloop
  endfacet
  facet normal 0 1 -0
    outer loop
      vertex 110 45 -1.5
      vertex -110 45 1.5
      vertex 110 45 1.5
    endloop
  endfacet
  facet normal 0 1 0
    outer loop
      vertex -110 45 1.5
      vertex 110 45 -1.5
      vertex -110 45 -1.5
    endloop
  endfacet
  facet normal 0 -1 0
    outer loop
      vertex -110 -45 -1.5
      vertex 110 -45 1.5
      vertex -110 -45 1.5
    endloop
  endfacet
  facet normal 0 -1 -0
    outer loop
      vertex 110 -45 1.5
      vertex -110 -45 -1.5
      vertex 110 -45 -1.5
    endloop
  endfacet
  facet normal 0.896734 0.442571 0
    outer loop
      vertex 99.268 -1 1.5
      vertex 99.1522 -0.765367 -1.5
      vertex 99.1522 -0.765367 1.5
    endloop
  endfacet
  facet normal 0.896734 0.442571 0
    outer loop
      vertex 99.1522 -0.765367 -1.5
      vertex 99.268 -1 1.5
      vertex 99.268 -1 -1.5
    endloop
  endfacet
  facet normal -0.441738 0.897144 0
    outer loop
      vertex 102 -1.73205 -1.5
      vertex 101.765 -1.84776 1.5
      vertex 102 -1.73205 1.5
    endloop
  endfacet
  facet normal -0.441738 0.897144 0
    outer loop
      vertex 101.765 -1.84776 1.5
      vertex 102 -1.73205 -1.5
      vertex 101.765 -1.84776 -1.5
    endloop
  endfacet
  facet normal 0.659343 -0.751842 0
    outer loop
      vertex 99.5858 1.41421 -1.5
      vertex 99.7825 1.58671 1.5
      vertex 99.5858 1.41421 1.5
    endloop
  endfacet
  facet normal 0.659343 -0.751842 0
    outer loop
      vertex 99.7825 1.58671 1.5
      vertex 99.5858 1.41421 -1.5
      vertex 99.7825 1.58671 -1.5
    endloop
  endfacet
  facet normal -0.441738 -0.897144 0
    outer loop
      vertex 101.765 1.84776 -1.5
      vertex 102 1.73205 1.5
      vertex 101.765 1.84776 1.5
    endloop
  endfacet
  facet normal -0.441738 -0.897144 -0
    outer loop
      vertex 102 1.73205 1.5
      vertex 101.765 1.84776 -1.5
      vertex 102 1.73205 -1.5
    endloop
  endfacet
  facet normal 0.946922 -0.321463 0
    outer loop
      vertex 99.0681 0.517637 1.5
      vertex 99.1522 0.765367 -1.5
      vertex 99.1522 0.765367 1.5
    endloop
  endfacet
  facet normal 0.946922 -0.321463 0
    outer loop
      vertex 99.1522 0.765367 -1.5
      vertex 99.0681 0.517637 1.5
      vertex 99.0681 0.517637 -1.5
    endloop
  endfacet
  facet normal -0.322281 0.946644 0
    outer loop
      vertex 101.765 -1.84776 -1.5
      vertex 101.518 -1.93185 1.5
      vertex 101.765 -1.84776 1.5
    endloop
  endfacet
  facet normal -0.322281 0.946644 0
    outer loop
      vertex 101.518 -1.93185 1.5
      vertex 101.765 -1.84776 -1.5
      vertex 101.518 -1.93185 -1.5
    endloop
  endfacet
  facet normal 0.980813 0.194951 0
    outer loop
      vertex 99.0681 -0.517637 1.5
      vertex 99.0171 -0.261052 -1.5
      vertex 99.0171 -0.261052 1.5
    endloop
  endfacet
  facet normal 0.980813 0.194951 0
    outer loop
      vertex 99.0171 -0.261052 -1.5
      vertex 99.0681 -0.517637 1.5
      vertex 99.0681 -0.517637 -1.5
    endloop
  endfacet
  facet normal -0.750879 -0.66044 0
    outer loop
      vertex 102.587 1.21752 -1.5
      vertex 102.414 1.41421 1.5
      vertex 102.414 1.41421 -1.5
    endloop
  endfacet
  facet normal -0.750879 -0.66044 0
    outer loop
      vertex 102.414 1.41421 1.5
      vertex 102.587 1.21752 -1.5
      vertex 102.587 1.21752 1.5
    endloop
  endfacet
  facet normal 0.0654151 -0.997858 0
    outer loop
      vertex 100.739 1.98289 -1.5
      vertex 101 2 1.5
      vertex 100.739 1.98289 1.5
    endloop
  endfacet
  facet normal 0.0654151 -0.997858 0
    outer loop
      vertex 101 2 1.5
      vertex 100.739 1.98289 -1.5
      vertex 101 2 -1.5
    endloop
  endfacet
  facet normal -0.997886 -0.0649835 0
    outer loop
      vertex 103 0 -1.5
      vertex 102.983 0.261052 1.5
      vertex 102.983 0.261052 -1.5
    endloop
  endfacet
  facet normal -0.997886 -0.0649835 0
    outer loop
      vertex 102.983 0.261052 1.5
      vertex 103 0 -1.5
      vertex 103 0 1.5
    endloop
  endfacet
  facet normal 0.5556 0.83145 -0
    outer loop
      vertex 100 -1.73205 -1.5
      vertex 99.7825 -1.58671 1.5
      vertex 100 -1.73205 1.5
    endloop
  endfacet
  facet normal 0.5556 0.83145 0
    outer loop
      vertex 99.7825 -1.58671 1.5
      vertex 100 -1.73205 -1.5
      vertex 99.7825 -1.58671 -1.5
    endloop
  endfacet
  facet normal 0.194795 -0.980844 0
    outer loop
      vertex 100.482 1.93185 -1.5
      vertex 100.739 1.98289 1.5
      vertex 100.482 1.93185 1.5
    endloop
  endfacet
  facet normal 0.194795 -0.980844 0
    outer loop
      vertex 100.739 1.98289 1.5
      vertex 100.482 1.93185 -1.5
      vertex 100.739 1.98289 -1.5
    endloop
  endfacet
  facet normal -0.980813 -0.194951 0
    outer loop
      vertex 102.983 0.261052 -1.5
      vertex 102.932 0.517637 1.5
      vertex 102.932 0.517637 -1.5
    endloop
  endfacet
  facet normal -0.980813 -0.194951 0
    outer loop
      vertex 102.932 0.517637 1.5
      vertex 102.983 0.261052 -1.5
      vertex 102.983 0.261052 1.5
    endloop
  endfacet
  facet normal 0.831544 0.555459 0
    outer loop
      vertex 99.4133 -1.21752 1.5
      vertex 99.268 -1 -1.5
      vertex 99.268 -1 1.5
    endloop
  endfacet
  facet normal 0.831544 0.555459 0
    outer loop
      vertex 99.268 -1 -1.5
      vertex 99.4133 -1.21752 1.5
      vertex 99.4133 -1.21752 -1.5
    endloop
  endfacet
  facet normal 0.831544 -0.555459 0
    outer loop
      vertex 99.268 1 1.5
      vertex 99.4133 1.21752 -1.5
      vertex 99.4133 1.21752 1.5
    endloop
  endfacet
  facet normal 0.831544 -0.555459 0
    outer loop
      vertex 99.4133 1.21752 -1.5
      vertex 99.268 1 1.5
      vertex 99.268 1 -1.5
    endloop
  endfacet
  facet normal -0.554718 -0.832039 0
    outer loop
      vertex 102 1.73205 -1.5
      vertex 102.218 1.58671 1.5
      vertex 102 1.73205 1.5
    endloop
  endfacet
  facet normal -0.554718 -0.832039 -0
    outer loop
      vertex 102.218 1.58671 1.5
      vertex 102 1.73205 -1.5
      vertex 102.218 1.58671 -1.5
    endloop
  endfacet
  facet normal 0.980813 -0.194951 0
    outer loop
      vertex 99.0171 0.261052 1.5
      vertex 99.0681 0.517637 -1.5
      vertex 99.0681 0.517637 1.5
    endloop
  endfacet
  facet normal 0.980813 -0.194951 0
    outer loop
      vertex 99.0681 0.517637 -1.5
      vertex 99.0171 0.261052 1.5
      vertex 99.0171 0.261052 -1.5
    endloop
  endfacet
  facet normal 0.659343 0.751842 -0
    outer loop
      vertex 99.7825 -1.58671 -1.5
      vertex 99.5858 -1.41421 1.5
      vertex 99.7825 -1.58671 1.5
    endloop
  endfacet
  facet normal 0.659343 0.751842 0
    outer loop
      vertex 99.5858 -1.41421 1.5
      vertex 99.7825 -1.58671 -1.5
      vertex 99.5858 -1.41421 -1.5
    endloop
  endfacet
  facet normal -0.750879 0.66044 0
    outer loop
      vertex 102.414 -1.41421 -1.5
      vertex 102.587 -1.21752 1.5
      vertex 102.587 -1.21752 -1.5
    endloop
  endfacet
  facet normal -0.750879 0.66044 0
    outer loop
      vertex 102.587 -1.21752 1.5
      vertex 102.414 -1.41421 -1.5
      vertex 102.414 -1.41421 1.5
    endloop
  endfacet
  facet normal -0.947038 0.321121 0
    outer loop
      vertex 102.848 -0.765367 -1.5
      vertex 102.932 -0.517637 1.5
      vertex 102.932 -0.517637 -1.5
    endloop
  endfacet
  facet normal -0.947038 0.321121 0
    outer loop
      vertex 102.932 -0.517637 1.5
      vertex 102.848 -0.765367 -1.5
      vertex 102.848 -0.765367 1.5
    endloop
  endfacet
  facet normal -0.194795 -0.980844 0
    outer loop
      vertex 101.261 1.98289 -1.5
      vertex 101.518 1.93185 1.5
      vertex 101.261 1.98289 1.5
    endloop
  endfacet
  facet normal -0.194795 -0.980844 -0
    outer loop
      vertex 101.518 1.93185 1.5
      vertex 101.261 1.98289 -1.5
      vertex 101.518 1.93185 -1.5
    endloop
  endfacet
  facet normal -0.194795 0.980844 0
    outer loop
      vertex 101.518 -1.93185 -1.5
      vertex 101.261 -1.98289 1.5
      vertex 101.518 -1.93185 1.5
    endloop
  endfacet
  facet normal -0.194795 0.980844 0
    outer loop
      vertex 101.261 -1.98289 1.5
      vertex 101.518 -1.93185 -1.5
      vertex 101.261 -1.98289 -1.5
    endloop
  endfacet
  facet normal 0.194795 0.980844 -0
    outer loop
      vertex 100.739 -1.98289 -1.5
      vertex 100.482 -1.93185 1.5
      vertex 100.739 -1.98289 1.5
    endloop
  endfacet
  facet normal 0.194795 0.980844 0
    outer loop
      vertex 100.482 -1.93185 1.5
      vertex 100.739 -1.98289 -1.5
      vertex 100.482 -1.93185 -1.5
    endloop
  endfacet
  facet normal 0.0654151 0.997858 -0
    outer loop
      vertex 101 -2 -1.5
      vertex 100.739 -1.98289 1.5
      vertex 101 -2 1.5
    endloop
  endfacet
  facet normal 0.0654151 0.997858 0
    outer loop
      vertex 100.739 -1.98289 1.5
      vertex 101 -2 -1.5
      vertex 100.739 -1.98289 -1.5
    endloop
  endfacet
  facet normal -0.0654151 0.997858 0
    outer loop
      vertex 101.261 -1.98289 -1.5
      vertex 101 -2 1.5
      vertex 101.261 -1.98289 1.5
    endloop
  endfacet
  facet normal -0.0654151 0.997858 0
    outer loop
      vertex 101 -2 1.5
      vertex 101.261 -1.98289 -1.5
      vertex 101 -2 -1.5
    endloop
  endfacet
  facet normal -0.832074 -0.554665 0
    outer loop
      vertex 102.732 1 -1.5
      vertex 102.587 1.21752 1.5
      vertex 102.587 1.21752 -1.5
    endloop
  endfacet
  facet normal -0.832074 -0.554665 0
    outer loop
      vertex 102.587 1.21752 1.5
      vertex 102.732 1 -1.5
      vertex 102.732 1 1.5
    endloop
  endfacet
  facet normal 0.322281 -0.946644 0
    outer loop
      vertex 100.235 1.84776 -1.5
      vertex 100.482 1.93185 1.5
      vertex 100.235 1.84776 1.5
    endloop
  endfacet
  facet normal 0.322281 -0.946644 0
    outer loop
      vertex 100.482 1.93185 1.5
      vertex 100.235 1.84776 -1.5
      vertex 100.482 1.93185 -1.5
    endloop
  endfacet
  facet normal 0.441738 -0.897144 0
    outer loop
      vertex 100 1.73205 -1.5
      vertex 100.235 1.84776 1.5
      vertex 100 1.73205 1.5
    endloop
  endfacet
  facet normal 0.441738 -0.897144 0
    outer loop
      vertex 100.235 1.84776 1.5
      vertex 100 1.73205 -1.5
      vertex 100.235 1.84776 -1.5
    endloop
  endfacet
  facet normal -0.0654151 -0.997858 0
    outer loop
      vertex 101 2 -1.5
      vertex 101.261 1.98289 1.5
      vertex 101 2 1.5
    endloop
  endfacet
  facet normal -0.0654151 -0.997858 -0
    outer loop
      vertex 101.261 1.98289 1.5
      vertex 101 2 -1.5
      vertex 101.261 1.98289 -1.5
    endloop
  endfacet
  facet normal -0.947038 -0.321121 0
    outer loop
      vertex 102.932 0.517637 -1.5
      vertex 102.848 0.765367 1.5
      vertex 102.848 0.765367 -1.5
    endloop
  endfacet
  facet normal -0.947038 -0.321121 0
    outer loop
      vertex 102.848 0.765367 1.5
      vertex 102.932 0.517637 -1.5
      vertex 102.932 0.517637 1.5
    endloop
  endfacet
  facet normal -0.997886 0.0649835 0
    outer loop
      vertex 102.983 -0.261052 -1.5
      vertex 103 0 1.5
      vertex 103 0 -1.5
    endloop
  endfacet
  facet normal -0.997886 0.0649835 0
    outer loop
      vertex 103 0 1.5
      vertex 102.983 -0.261052 -1.5
      vertex 102.983 -0.261052 1.5
    endloop
  endfacet
  facet normal -0.322281 -0.946644 0
    outer loop
      vertex 101.518 1.93185 -1.5
      vertex 101.765 1.84776 1.5
      vertex 101.518 1.93185 1.5
    endloop
  endfacet
  facet normal -0.322281 -0.946644 -0
    outer loop
      vertex 101.765 1.84776 1.5
      vertex 101.518 1.93185 -1.5
      vertex 101.765 1.84776 -1.5
    endloop
  endfacet
  facet normal 0.5556 -0.83145 0
    outer loop
      vertex 99.7825 1.58671 -1.5
      vertex 100 1.73205 1.5
      vertex 99.7825 1.58671 1.5
    endloop
  endfacet
  facet normal 0.5556 -0.83145 0
    outer loop
      vertex 100 1.73205 1.5
      vertex 99.7825 1.58671 -1.5
      vertex 100 1.73205 -1.5
    endloop
  endfacet
  facet normal -0.832074 0.554665 0
    outer loop
      vertex 102.587 -1.21752 -1.5
      vertex 102.732 -1 1.5
      vertex 102.732 -1 -1.5
    endloop
  endfacet
  facet normal -0.832074 0.554665 0
    outer loop
      vertex 102.732 -1 1.5
      vertex 102.587 -1.21752 -1.5
      vertex 102.587 -1.21752 1.5
    endloop
  endfacet
  facet normal -0.89643 0.443185 0
    outer loop
      vertex 102.732 -1 -1.5
      vertex 102.848 -0.765367 1.5
      vertex 102.848 -0.765367 -1.5
    endloop
  endfacet
  facet normal -0.89643 0.443185 0
    outer loop
      vertex 102.848 -0.765367 1.5
      vertex 102.732 -1 -1.5
      vertex 102.732 -1 1.5
    endloop
  endfacet
  facet normal -0.660671 -0.750676 0
    outer loop
      vertex 102.218 1.58671 -1.5
      vertex 102.414 1.41421 1.5
      vertex 102.218 1.58671 1.5
    endloop
  endfacet
  facet normal -0.660671 -0.750676 -0
    outer loop
      vertex 102.414 1.41421 1.5
      vertex 102.218 1.58671 -1.5
      vertex 102.414 1.41421 -1.5
    endloop
  endfacet
  facet normal 0.946922 0.321463 0
    outer loop
      vertex 99.1522 -0.765367 1.5
      vertex 99.0681 -0.517637 -1.5
      vertex 99.0681 -0.517637 1.5
    endloop
  endfacet
  facet normal 0.946922 0.321463 0
    outer loop
      vertex 99.0681 -0.517637 -1.5
      vertex 99.1522 -0.765367 1.5
      vertex 99.1522 -0.765367 -1.5
    endloop
  endfacet
  facet normal 0.997861 0.0653641 0
    outer loop
      vertex 99.0171 -0.261052 1.5
      vertex 99 0 -1.5
      vertex 99 0 1.5
    endloop
  endfacet
  facet normal 0.997861 0.0653641 0
    outer loop
      vertex 99 0 -1.5
      vertex 99.0171 -0.261052 1.5
      vertex 99.0171 -0.261052 -1.5
    endloop
  endfacet
  facet normal -0.980813 0.194951 0
    outer loop
      vertex 102.932 -0.517637 -1.5
      vertex 102.983 -0.261052 1.5
      vertex 102.983 -0.261052 -1.5
    endloop
  endfacet
  facet normal -0.980813 0.194951 0
    outer loop
      vertex 102.983 -0.261052 1.5
      vertex 102.932 -0.517637 -1.5
      vertex 102.932 -0.517637 1.5
    endloop
  endfacet
  facet normal 0.322281 0.946644 -0
    outer loop
      vertex 100.482 -1.93185 -1.5
      vertex 100.235 -1.84776 1.5
      vertex 100.482 -1.93185 1.5
    endloop
  endfacet
  facet normal 0.322281 0.946644 0
    outer loop
      vertex 100.235 -1.84776 1.5
      vertex 100.482 -1.93185 -1.5
      vertex 100.235 -1.84776 -1.5
    endloop
  endfacet
  facet normal -0.89643 -0.443185 0
    outer loop
      vertex 102.848 0.765367 -1.5
      vertex 102.732 1 1.5
      vertex 102.732 1 -1.5
    endloop
  endfacet
  facet normal -0.89643 -0.443185 0
    outer loop
      vertex 102.732 1 1.5
      vertex 102.848 0.765367 -1.5
      vertex 102.848 0.765367 1.5
    endloop
  endfacet
  facet normal 0.751826 0.659362 0
    outer loop
      vertex 99.5858 -1.41421 1.5
      vertex 99.4133 -1.21752 -1.5
      vertex 99.4133 -1.21752 1.5
    endloop
  endfacet
  facet normal 0.751826 0.659362 0
    outer loop
      vertex 99.4133 -1.21752 -1.5
      vertex 99.5858 -1.41421 1.5
      vertex 99.5858 -1.41421 -1.5
    endloop
  endfacet
  facet normal 0.751826 -0.659362 0
    outer loop
      vertex 99.4133 1.21752 1.5
      vertex 99.5858 1.41421 -1.5
      vertex 99.5858 1.41421 1.5
    endloop
  endfacet
  facet normal 0.751826 -0.659362 0
    outer loop
      vertex 99.5858 1.41421 -1.5
      vertex 99.4133 1.21752 1.5
      vertex 99.4133 1.21752 -1.5
    endloop
  endfacet
  facet normal 0.441738 0.897144 -0
    outer loop
      vertex 100.235 -1.84776 -1.5
      vertex 100 -1.73205 1.5
      vertex 100.235 -1.84776 1.5
    endloop
  endfacet
  facet normal 0.441738 0.897144 0
    outer loop
      vertex 100 -1.73205 1.5
      vertex 100.235 -1.84776 -1.5
      vertex 100 -1.73205 -1.5
    endloop
  endfacet
  facet normal -0.554718 0.832039 0
    outer loop
      vertex 102.218 -1.58671 -1.5
      vertex 102 -1.73205 1.5
      vertex 102.218 -1.58671 1.5
    endloop
  endfacet
  facet normal -0.554718 0.832039 0
    outer loop
      vertex 102 -1.73205 1.5
      vertex 102.218 -1.58671 -1.5
      vertex 102 -1.73205 -1.5
    endloop
  endfacet
  facet normal -0.660671 0.750676 0
    outer loop
      vertex 102.414 -1.41421 -1.5
      vertex 102.218 -1.58671 1.5
      vertex 102.414 -1.41421 1.5
    endloop
  endfacet
  facet normal -0.660671 0.750676 0
    outer loop
      vertex 102.218 -1.58671 1.5
      vertex 102.414 -1.41421 -1.5
      vertex 102.218 -1.58671 -1.5
    endloop
  endfacet
  facet normal 0.997861 -0.0653641 0
    outer loop
      vertex 99 0 1.5
      vertex 99.0171 0.261052 -1.5
      vertex 99.0171 0.261052 1.5
    endloop
  endfacet
  facet normal 0.997861 -0.0653641 0
    outer loop
      vertex 99.0171 0.261052 -1.5
      vertex 99 0 1.5
      vertex 99 0 -1.5
    endloop
  endfacet
  facet normal 0.896734 -0.442571 0
    outer loop
      vertex 99.1522 0.765367 1.5
      vertex 99.268 1 -1.5
      vertex 99.268 1 1.5
    endloop
  endfacet
  facet normal 0.896734 -0.442571 0
    outer loop
      vertex 99.268 1 -1.5
      vertex 99.1522 0.765367 1.5
      vertex 99.1522 0.765367 -1.5
    endloop
  endfacet
  facet normal 0.442314 0.89686 -0
    outer loop
      vertex -51.2654 29.3292 -1.5
      vertex -51.5 29.4449 1.5
      vertex -51.2654 29.3292 1.5
    endloop
  endfacet
  facet normal 0.442314 0.89686 0
    outer loop
      vertex -51.5 29.4449 1.5
      vertex -51.2654 29.3292 -1.5
      vertex -51.5 29.4449 -1.5
    endloop
  endfacet
  facet normal -0.980815 -0.19494 0
    outer loop
      vertex -48.5171 31.438 -1.5
      vertex -48.5681 31.6946 1.5
      vertex -48.5681 31.6946 -1.5
    endloop
  endfacet
  facet normal -0.980815 -0.19494 0
    outer loop
      vertex -48.5681 31.6946 1.5
      vertex -48.5171 31.438 -1.5
      vertex -48.5171 31.438 1.5
    endloop
  endfacet
  facet normal -0.997862 -0.0653521 0
    outer loop
      vertex -48.5 31.1769 -1.5
      vertex -48.5171 31.438 1.5
      vertex -48.5171 31.438 -1.5
    endloop
  endfacet
  facet normal -0.997862 -0.0653521 0
    outer loop
      vertex -48.5171 31.438 1.5
      vertex -48.5 31.1769 -1.5
      vertex -48.5 31.1769 1.5
    endloop
  endfacet
  facet normal -0.321382 0.94695 0
    outer loop
      vertex -49.7346 29.3292 -1.5
      vertex -49.9824 29.2451 1.5
      vertex -49.7346 29.3292 1.5
    endloop
  endfacet
  facet normal -0.321382 0.94695 0
    outer loop
      vertex -49.9824 29.2451 1.5
      vertex -49.7346 29.3292 -1.5
      vertex -49.9824 29.2451 -1.5
    endloop
  endfacet
  facet normal -0.555494 0.831521 0
    outer loop
      vertex -49.2825 29.5902 -1.5
      vertex -49.5 29.4449 1.5
      vertex -49.2825 29.5902 1.5
    endloop
  endfacet
  facet normal -0.555494 0.831521 0
    outer loop
      vertex -49.5 29.4449 1.5
      vertex -49.2825 29.5902 -1.5
      vertex -49.5 29.4449 -1.5
    endloop
  endfacet
  facet normal -0.442314 0.89686 0
    outer loop
      vertex -49.5 29.4449 -1.5
      vertex -49.7346 29.3292 1.5
      vertex -49.5 29.4449 1.5
    endloop
  endfacet
  facet normal -0.442314 0.89686 0
    outer loop
      vertex -49.7346 29.3292 1.5
      vertex -49.5 29.4449 -1.5
      vertex -49.7346 29.3292 -1.5
    endloop
  endfacet
  facet normal 0.751842 -0.659343 0
    outer loop
      vertex -52.0867 32.3944 1.5
      vertex -51.9142 32.5911 -1.5
      vertex -51.9142 32.5911 1.5
    endloop
  endfacet
  facet normal 0.751842 -0.659343 0
    outer loop
      vertex -51.9142 32.5911 -1.5
      vertex -52.0867 32.3944 1.5
      vertex -52.0867 32.3944 -1.5
    endloop
  endfacet
  facet normal 0.896709 0.442621 0
    outer loop
      vertex -52.232 30.1769 1.5
      vertex -52.3478 30.4115 -1.5
      vertex -52.3478 30.4115 1.5
    endloop
  endfacet
  facet normal 0.896709 0.442621 0
    outer loop
      vertex -52.3478 30.4115 -1.5
      vertex -52.232 30.1769 1.5
      vertex -52.232 30.1769 -1.5
    endloop
  endfacet
  facet normal -0.831344 -0.555758 0
    outer loop
      vertex -48.7679 32.1769 -1.5
      vertex -48.9133 32.3944 1.5
      vertex -48.9133 32.3944 -1.5
    endloop
  endfacet
  facet normal -0.831344 -0.555758 0
    outer loop
      vertex -48.9133 32.3944 1.5
      vertex -48.7679 32.1769 -1.5
      vertex -48.7679 32.1769 1.5
    endloop
  endfacet
  facet normal -0.997861 0.0653771 0
    outer loop
      vertex -48.5171 30.9159 -1.5
      vertex -48.5 31.1769 1.5
      vertex -48.5 31.1769 -1.5
    endloop
  endfacet
  facet normal -0.997861 0.0653771 0
    outer loop
      vertex -48.5 31.1769 1.5
      vertex -48.5171 30.9159 -1.5
      vertex -48.5171 30.9159 1.5
    endloop
  endfacet
  facet normal 0.94695 0.321382 0
    outer loop
      vertex -52.3478 30.4115 1.5
      vertex -52.4319 30.6593 -1.5
      vertex -52.4319 30.6593 1.5
    endloop
  endfacet
  facet normal 0.94695 0.321382 0
    outer loop
      vertex -52.4319 30.6593 -1.5
      vertex -52.3478 30.4115 1.5
      vertex -52.3478 30.4115 -1.5
    endloop
  endfacet
  facet normal 0.831521 0.555494 0
    outer loop
      vertex -52.0867 29.9594 1.5
      vertex -52.232 30.1769 -1.5
      vertex -52.232 30.1769 1.5
    endloop
  endfacet
  facet normal 0.831521 0.555494 0
    outer loop
      vertex -52.232 30.1769 -1.5
      vertex -52.0867 29.9594 1.5
      vertex -52.0867 29.9594 -1.5
    endloop
  endfacet
  facet normal 0.321382 0.94695 -0
    outer loop
      vertex -51.0176 29.2451 -1.5
      vertex -51.2654 29.3292 1.5
      vertex -51.0176 29.2451 1.5
    endloop
  endfacet
  facet normal 0.321382 0.94695 0
    outer loop
      vertex -51.2654 29.3292 1.5
      vertex -51.0176 29.2451 -1.5
      vertex -51.2654 29.3292 -1.5
    endloop
  endfacet
  facet normal -0.442314 -0.89686 0
    outer loop
      vertex -49.7346 33.0247 -1.5
      vertex -49.5 32.909 1.5
      vertex -49.7346 33.0247 1.5
    endloop
  endfacet
  facet normal -0.442314 -0.89686 -0
    outer loop
      vertex -49.5 32.909 1.5
      vertex -49.7346 33.0247 -1.5
      vertex -49.5 32.909 -1.5
    endloop
  endfacet
  facet normal -0.659343 -0.751842 0
    outer loop
      vertex -49.2825 32.7636 -1.5
      vertex -49.0858 32.5911 1.5
      vertex -49.2825 32.7636 1.5
    endloop
  endfacet
  facet normal -0.659343 -0.751842 -0
    outer loop
      vertex -49.0858 32.5911 1.5
      vertex -49.2825 32.7636 -1.5
      vertex -49.0858 32.5911 -1.5
    endloop
  endfacet
  facet normal 0.555758 -0.831344 0
    outer loop
      vertex -51.7175 32.7636 -1.5
      vertex -51.5 32.909 1.5
      vertex -51.7175 32.7636 1.5
    endloop
  endfacet
  facet normal 0.555758 -0.831344 0
    outer loop
      vertex -51.5 32.909 1.5
      vertex -51.7175 32.7636 -1.5
      vertex -51.5 32.909 -1.5
    endloop
  endfacet
  facet normal 0.751842 0.659343 0
    outer loop
      vertex -51.9142 29.7627 1.5
      vertex -52.0867 29.9594 -1.5
      vertex -52.0867 29.9594 1.5
    endloop
  endfacet
  facet normal 0.751842 0.659343 0
    outer loop
      vertex -52.0867 29.9594 -1.5
      vertex -51.9142 29.7627 1.5
      vertex -51.9142 29.7627 -1.5
    endloop
  endfacet
  facet normal -0.831344 0.555758 0
    outer loop
      vertex -48.9133 29.9594 -1.5
      vertex -48.7679 30.1769 1.5
      vertex -48.7679 30.1769 -1.5
    endloop
  endfacet
  facet normal -0.831344 0.555758 0
    outer loop
      vertex -48.7679 30.1769 1.5
      vertex -48.9133 29.9594 -1.5
      vertex -48.9133 29.9594 1.5
    endloop
  endfacet
  facet normal 0.831521 -0.555494 0
    outer loop
      vertex -52.232 32.1769 1.5
      vertex -52.0867 32.3944 -1.5
      vertex -52.0867 32.3944 1.5
    endloop
  endfacet
  facet normal 0.831521 -0.555494 0
    outer loop
      vertex -52.0867 32.3944 -1.5
      vertex -52.232 32.1769 1.5
      vertex -52.232 32.1769 -1.5
    endloop
  endfacet
  facet normal 0.442314 -0.89686 0
    outer loop
      vertex -51.5 32.909 -1.5
      vertex -51.2654 33.0247 1.5
      vertex -51.5 32.909 1.5
    endloop
  endfacet
  facet normal 0.442314 -0.89686 0
    outer loop
      vertex -51.2654 33.0247 1.5
      vertex -51.5 32.909 -1.5
      vertex -51.2654 33.0247 -1.5
    endloop
  endfacet
  facet normal -0.980815 0.19494 0
    outer loop
      vertex -48.5681 30.6593 -1.5
      vertex -48.5171 30.9159 1.5
      vertex -48.5171 30.9159 -1.5
    endloop
  endfacet
  facet normal -0.980815 0.19494 0
    outer loop
      vertex -48.5171 30.9159 1.5
      vertex -48.5681 30.6593 -1.5
      vertex -48.5681 30.6593 1.5
    endloop
  endfacet
  facet normal -0.751842 -0.659343 0
    outer loop
      vertex -48.9133 32.3944 -1.5
      vertex -49.0858 32.5911 1.5
      vertex -49.0858 32.5911 -1.5
    endloop
  endfacet
  facet normal -0.751842 -0.659343 0
    outer loop
      vertex -49.0858 32.5911 1.5
      vertex -48.9133 32.3944 -1.5
      vertex -48.9133 32.3944 1.5
    endloop
  endfacet
  facet normal 0.195013 -0.980801 0
    outer loop
      vertex -51.0176 33.1088 -1.5
      vertex -50.7611 33.1598 1.5
      vertex -51.0176 33.1088 1.5
    endloop
  endfacet
  facet normal 0.195013 -0.980801 0
    outer loop
      vertex -50.7611 33.1598 1.5
      vertex -51.0176 33.1088 -1.5
      vertex -50.7611 33.1598 -1.5
    endloop
  endfacet
  facet normal -0.89686 -0.442314 0
    outer loop
      vertex -48.6522 31.9423 -1.5
      vertex -48.7679 32.1769 1.5
      vertex -48.7679 32.1769 -1.5
    endloop
  endfacet
  facet normal -0.89686 -0.442314 0
    outer loop
      vertex -48.7679 32.1769 1.5
      vertex -48.6522 31.9423 -1.5
      vertex -48.6522 31.9423 1.5
    endloop
  endfacet
  facet normal -0.94695 0.321382 0
    outer loop
      vertex -48.6522 30.4115 -1.5
      vertex -48.5681 30.6593 1.5
      vertex -48.5681 30.6593 -1.5
    endloop
  endfacet
  facet normal -0.94695 0.321382 0
    outer loop
      vertex -48.5681 30.6593 1.5
      vertex -48.6522 30.4115 -1.5
      vertex -48.6522 30.4115 1.5
    endloop
  endfacet
  facet normal -0.555758 -0.831344 0
    outer loop
      vertex -49.5 32.909 -1.5
      vertex -49.2825 32.7636 1.5
      vertex -49.5 32.909 1.5
    endloop
  endfacet
  facet normal -0.555758 -0.831344 -0
    outer loop
      vertex -49.2825 32.7636 1.5
      vertex -49.5 32.909 -1.5
      vertex -49.2825 32.7636 -1.5
    endloop
  endfacet
  facet normal 0.321382 -0.94695 0
    outer loop
      vertex -51.2654 33.0247 -1.5
      vertex -51.0176 33.1088 1.5
      vertex -51.2654 33.0247 1.5
    endloop
  endfacet
  facet normal 0.321382 -0.94695 0
    outer loop
      vertex -51.0176 33.1088 1.5
      vertex -51.2654 33.0247 -1.5
      vertex -51.0176 33.1088 -1.5
    endloop
  endfacet
  facet normal 0.659343 -0.751842 0
    outer loop
      vertex -51.9142 32.5911 -1.5
      vertex -51.7175 32.7636 1.5
      vertex -51.9142 32.5911 1.5
    endloop
  endfacet
  facet normal 0.659343 -0.751842 0
    outer loop
      vertex -51.7175 32.7636 1.5
      vertex -51.9142 32.5911 -1.5
      vertex -51.7175 32.7636 -1.5
    endloop
  endfacet
  facet normal -0.195381 0.980727 0
    outer loop
      vertex -49.9824 29.2451 -1.5
      vertex -50.2389 29.194 1.5
      vertex -49.9824 29.2451 1.5
    endloop
  endfacet
  facet normal -0.195381 0.980727 0
    outer loop
      vertex -50.2389 29.194 1.5
      vertex -49.9824 29.2451 -1.5
      vertex -50.2389 29.194 -1.5
    endloop
  endfacet
  facet normal 0.195381 0.980727 -0
    outer loop
      vertex -50.7611 29.194 -1.5
      vertex -51.0176 29.2451 1.5
      vertex -50.7611 29.194 1.5
    endloop
  endfacet
  facet normal 0.195381 0.980727 0
    outer loop
      vertex -51.0176 29.2451 1.5
      vertex -50.7611 29.194 -1.5
      vertex -51.0176 29.2451 -1.5
    endloop
  endfacet
  facet normal 0.997861 0.0653771 0
    outer loop
      vertex -52.4829 30.9159 1.5
      vertex -52.5 31.1769 -1.5
      vertex -52.5 31.1769 1.5
    endloop
  endfacet
  facet normal 0.997861 0.0653771 0
    outer loop
      vertex -52.5 31.1769 -1.5
      vertex -52.4829 30.9159 1.5
      vertex -52.4829 30.9159 -1.5
    endloop
  endfacet
  facet normal 0.659343 0.751842 -0
    outer loop
      vertex -51.7175 29.5902 -1.5
      vertex -51.9142 29.7627 1.5
      vertex -51.7175 29.5902 1.5
    endloop
  endfacet
  facet normal 0.659343 0.751842 0
    outer loop
      vertex -51.9142 29.7627 1.5
      vertex -51.7175 29.5902 -1.5
      vertex -51.9142 29.7627 -1.5
    endloop
  endfacet
  facet normal -0.89686 0.442314 0
    outer loop
      vertex -48.7679 30.1769 -1.5
      vertex -48.6522 30.4115 1.5
      vertex -48.6522 30.4115 -1.5
    endloop
  endfacet
  facet normal -0.89686 0.442314 0
    outer loop
      vertex -48.6522 30.4115 1.5
      vertex -48.7679 30.1769 -1.5
      vertex -48.7679 30.1769 1.5
    endloop
  endfacet
  facet normal -0.0653521 0.997862 0
    outer loop
      vertex -50.2389 29.194 -1.5
      vertex -50.5 29.1769 1.5
      vertex -50.2389 29.194 1.5
    endloop
  endfacet
  facet normal -0.0653521 0.997862 0
    outer loop
      vertex -50.5 29.1769 1.5
      vertex -50.2389 29.194 -1.5
      vertex -50.5 29.1769 -1.5
    endloop
  endfacet
  facet normal 0.94691 -0.321498 0
    outer loop
      vertex -52.4319 31.6946 1.5
      vertex -52.3478 31.9423 -1.5
      vertex -52.3478 31.9423 1.5
    endloop
  endfacet
  facet normal 0.94691 -0.321498 0
    outer loop
      vertex -52.3478 31.9423 -1.5
      vertex -52.4319 31.6946 1.5
      vertex -52.4319 31.6946 -1.5
    endloop
  endfacet
  facet normal -0.321382 -0.94695 0
    outer loop
      vertex -49.9824 33.1088 -1.5
      vertex -49.7346 33.0247 1.5
      vertex -49.9824 33.1088 1.5
    endloop
  endfacet
  facet normal -0.321382 -0.94695 -0
    outer loop
      vertex -49.7346 33.0247 1.5
      vertex -49.9824 33.1088 -1.5
      vertex -49.7346 33.0247 -1.5
    endloop
  endfacet
  facet normal 0.997862 -0.0653521 0
    outer loop
      vertex -52.5 31.1769 1.5
      vertex -52.4829 31.438 -1.5
      vertex -52.4829 31.438 1.5
    endloop
  endfacet
  facet normal 0.997862 -0.0653521 0
    outer loop
      vertex -52.4829 31.438 -1.5
      vertex -52.5 31.1769 1.5
      vertex -52.5 31.1769 -1.5
    endloop
  endfacet
  facet normal -0.94691 -0.321498 0
    outer loop
      vertex -48.5681 31.6946 -1.5
      vertex -48.6522 31.9423 1.5
      vertex -48.6522 31.9423 -1.5
    endloop
  endfacet
  facet normal -0.94691 -0.321498 0
    outer loop
      vertex -48.6522 31.9423 1.5
      vertex -48.5681 31.6946 -1.5
      vertex -48.5681 31.6946 1.5
    endloop
  endfacet
  facet normal 0.0653521 -0.997862 0
    outer loop
      vertex -50.7611 33.1598 -1.5
      vertex -50.5 33.1769 1.5
      vertex -50.7611 33.1598 1.5
    endloop
  endfacet
  facet normal 0.0653521 -0.997862 0
    outer loop
      vertex -50.5 33.1769 1.5
      vertex -50.7611 33.1598 -1.5
      vertex -50.5 33.1769 -1.5
    endloop
  endfacet
  facet normal 0.0653521 0.997862 -0
    outer loop
      vertex -50.5 29.1769 -1.5
      vertex -50.7611 29.194 1.5
      vertex -50.5 29.1769 1.5
    endloop
  endfacet
  facet normal 0.0653521 0.997862 0
    outer loop
      vertex -50.7611 29.194 1.5
      vertex -50.5 29.1769 -1.5
      vertex -50.7611 29.194 -1.5
    endloop
  endfacet
  facet normal 0.980815 0.19494 0
    outer loop
      vertex -52.4319 30.6593 1.5
      vertex -52.4829 30.9159 -1.5
      vertex -52.4829 30.9159 1.5
    endloop
  endfacet
  facet normal 0.980815 0.19494 0
    outer loop
      vertex -52.4829 30.9159 -1.5
      vertex -52.4319 30.6593 1.5
      vertex -52.4319 30.6593 -1.5
    endloop
  endfacet
  facet normal 0.980815 -0.19494 0
    outer loop
      vertex -52.4829 31.438 1.5
      vertex -52.4319 31.6946 -1.5
      vertex -52.4319 31.6946 1.5
    endloop
  endfacet
  facet normal 0.980815 -0.19494 0
    outer loop
      vertex -52.4319 31.6946 -1.5
      vertex -52.4829 31.438 1.5
      vertex -52.4829 31.438 -1.5
    endloop
  endfacet
  facet normal -0.0653521 -0.997862 0
    outer loop
      vertex -50.5 33.1769 -1.5
      vertex -50.2389 33.1598 1.5
      vertex -50.5 33.1769 1.5
    endloop
  endfacet
  facet normal -0.0653521 -0.997862 -0
    outer loop
      vertex -50.2389 33.1598 1.5
      vertex -50.5 33.1769 -1.5
      vertex -50.2389 33.1598 -1.5
    endloop
  endfacet
  facet normal 0.896709 -0.442621 0
    outer loop
      vertex -52.3478 31.9423 1.5
      vertex -52.232 32.1769 -1.5
      vertex -52.232 32.1769 1.5
    endloop
  endfacet
  facet normal 0.896709 -0.442621 0
    outer loop
      vertex -52.232 32.1769 -1.5
      vertex -52.3478 31.9423 1.5
      vertex -52.3478 31.9423 -1.5
    endloop
  endfacet
  facet normal -0.195013 -0.980801 0
    outer loop
      vertex -50.2389 33.1598 -1.5
      vertex -49.9824 33.1088 1.5
      vertex -50.2389 33.1598 1.5
    endloop
  endfacet
  facet normal -0.195013 -0.980801 -0
    outer loop
      vertex -49.9824 33.1088 1.5
      vertex -50.2389 33.1598 -1.5
      vertex -49.9824 33.1088 -1.5
    endloop
  endfacet
  facet normal -0.659343 0.751842 0
    outer loop
      vertex -49.0858 29.7627 -1.5
      vertex -49.2825 29.5902 1.5
      vertex -49.0858 29.7627 1.5
    endloop
  endfacet
  facet normal -0.659343 0.751842 0
    outer loop
      vertex -49.2825 29.5902 1.5
      vertex -49.0858 29.7627 -1.5
      vertex -49.2825 29.5902 -1.5
    endloop
  endfacet
  facet normal -0.751842 0.659343 0
    outer loop
      vertex -49.0858 29.7627 -1.5
      vertex -48.9133 29.9594 1.5
      vertex -48.9133 29.9594 -1.5
    endloop
  endfacet
  facet normal -0.751842 0.659343 0
    outer loop
      vertex -48.9133 29.9594 1.5
      vertex -49.0858 29.7627 -1.5
      vertex -49.0858 29.7627 1.5
    endloop
  endfacet
  facet normal 0.555494 0.831521 -0
    outer loop
      vertex -51.5 29.4449 -1.5
      vertex -51.7175 29.5902 1.5
      vertex -51.5 29.4449 1.5
    endloop
  endfacet
  facet normal 0.555494 0.831521 0
    outer loop
      vertex -51.7175 29.5902 1.5
      vertex -51.5 29.4449 -1.5
      vertex -51.7175 29.5902 -1.5
    endloop
  endfacet
  facet normal 0.751842 -0.659343 0
    outer loop
      vertex -52.0867 -29.9594 1.5
      vertex -51.9142 -29.7627 -1.5
      vertex -51.9142 -29.7627 1.5
    endloop
  endfacet
  facet normal 0.751842 -0.659343 0
    outer loop
      vertex -51.9142 -29.7627 -1.5
      vertex -52.0867 -29.9594 1.5
      vertex -52.0867 -29.9594 -1.5
    endloop
  endfacet
  facet normal -0.980815 -0.19494 0
    outer loop
      vertex -48.5171 -30.9159 -1.5
      vertex -48.5681 -30.6593 1.5
      vertex -48.5681 -30.6593 -1.5
    endloop
  endfacet
  facet normal -0.980815 -0.19494 0
    outer loop
      vertex -48.5681 -30.6593 1.5
      vertex -48.5171 -30.9159 -1.5
      vertex -48.5171 -30.9159 1.5
    endloop
  endfacet
  facet normal -0.831344 -0.555758 0
    outer loop
      vertex -48.7679 -30.1769 -1.5
      vertex -48.9133 -29.9594 1.5
      vertex -48.9133 -29.9594 -1.5
    endloop
  endfacet
  facet normal -0.831344 -0.555758 0
    outer loop
      vertex -48.9133 -29.9594 1.5
      vertex -48.7679 -30.1769 -1.5
      vertex -48.7679 -30.1769 1.5
    endloop
  endfacet
  facet normal 0.896709 0.442621 0
    outer loop
      vertex -52.232 -32.1769 1.5
      vertex -52.3478 -31.9423 -1.5
      vertex -52.3478 -31.9423 1.5
    endloop
  endfacet
  facet normal 0.896709 0.442621 0
    outer loop
      vertex -52.3478 -31.9423 -1.5
      vertex -52.232 -32.1769 1.5
      vertex -52.232 -32.1769 -1.5
    endloop
  endfacet
  facet normal -0.751842 0.659343 0
    outer loop
      vertex -49.0858 -32.5911 -1.5
      vertex -48.9133 -32.3944 1.5
      vertex -48.9133 -32.3944 -1.5
    endloop
  endfacet
  facet normal -0.751842 0.659343 0
    outer loop
      vertex -48.9133 -32.3944 1.5
      vertex -49.0858 -32.5911 -1.5
      vertex -49.0858 -32.5911 1.5
    endloop
  endfacet
  facet normal -0.94695 -0.321382 0
    outer loop
      vertex -48.5681 -30.6593 -1.5
      vertex -48.6522 -30.4115 1.5
      vertex -48.6522 -30.4115 -1.5
    endloop
  endfacet
  facet normal -0.94695 -0.321382 0
    outer loop
      vertex -48.6522 -30.4115 1.5
      vertex -48.5681 -30.6593 -1.5
      vertex -48.5681 -30.6593 1.5
    endloop
  endfacet
  facet normal 0.659343 -0.751842 0
    outer loop
      vertex -51.9142 -29.7627 -1.5
      vertex -51.7175 -29.5902 1.5
      vertex -51.9142 -29.7627 1.5
    endloop
  endfacet
  facet normal 0.659343 -0.751842 0
    outer loop
      vertex -51.7175 -29.5902 1.5
      vertex -51.9142 -29.7627 -1.5
      vertex -51.7175 -29.5902 -1.5
    endloop
  endfacet
  facet normal -0.659343 -0.751842 0
    outer loop
      vertex -49.2825 -29.5902 -1.5
      vertex -49.0858 -29.7627 1.5
      vertex -49.2825 -29.5902 1.5
    endloop
  endfacet
  facet normal -0.659343 -0.751842 -0
    outer loop
      vertex -49.0858 -29.7627 1.5
      vertex -49.2825 -29.5902 -1.5
      vertex -49.0858 -29.7627 -1.5
    endloop
  endfacet
  facet normal -0.89686 0.442314 0
    outer loop
      vertex -48.7679 -32.1769 -1.5
      vertex -48.6522 -31.9423 1.5
      vertex -48.6522 -31.9423 -1.5
    endloop
  endfacet
  facet normal -0.89686 0.442314 0
    outer loop
      vertex -48.6522 -31.9423 1.5
      vertex -48.7679 -32.1769 -1.5
      vertex -48.7679 -32.1769 1.5
    endloop
  endfacet
  facet normal -0.442314 0.89686 0
    outer loop
      vertex -49.5 -32.909 -1.5
      vertex -49.7346 -33.0247 1.5
      vertex -49.5 -32.909 1.5
    endloop
  endfacet
  facet normal -0.442314 0.89686 0
    outer loop
      vertex -49.7346 -33.0247 1.5
      vertex -49.5 -32.909 -1.5
      vertex -49.7346 -33.0247 -1.5
    endloop
  endfacet
  facet normal 0.659343 0.751842 -0
    outer loop
      vertex -51.7175 -32.7636 -1.5
      vertex -51.9142 -32.5911 1.5
      vertex -51.7175 -32.7636 1.5
    endloop
  endfacet
  facet normal 0.659343 0.751842 0
    outer loop
      vertex -51.9142 -32.5911 1.5
      vertex -51.7175 -32.7636 -1.5
      vertex -51.9142 -32.5911 -1.5
    endloop
  endfacet
  facet normal 0.321382 0.94695 -0
    outer loop
      vertex -51.0176 -33.1088 -1.5
      vertex -51.2654 -33.0247 1.5
      vertex -51.0176 -33.1088 1.5
    endloop
  endfacet
  facet normal 0.321382 0.94695 0
    outer loop
      vertex -51.2654 -33.0247 1.5
      vertex -51.0176 -33.1088 -1.5
      vertex -51.2654 -33.0247 -1.5
    endloop
  endfacet
  facet normal 0.321382 -0.94695 0
    outer loop
      vertex -51.2654 -29.3292 -1.5
      vertex -51.0176 -29.2451 1.5
      vertex -51.2654 -29.3292 1.5
    endloop
  endfacet
  facet normal 0.321382 -0.94695 0
    outer loop
      vertex -51.0176 -29.2451 1.5
      vertex -51.2654 -29.3292 -1.5
      vertex -51.0176 -29.2451 -1.5
    endloop
  endfacet
  facet normal -0.997861 -0.0653771 0
    outer loop
      vertex -48.5 -31.1769 -1.5
      vertex -48.5171 -30.9159 1.5
      vertex -48.5171 -30.9159 -1.5
    endloop
  endfacet
  facet normal -0.997861 -0.0653771 0
    outer loop
      vertex -48.5171 -30.9159 1.5
      vertex -48.5 -31.1769 -1.5
      vertex -48.5 -31.1769 1.5
    endloop
  endfacet
  facet normal 0.94691 0.321498 0
    outer loop
      vertex -52.3478 -31.9423 1.5
      vertex -52.4319 -31.6946 -1.5
      vertex -52.4319 -31.6946 1.5
    endloop
  endfacet
  facet normal 0.94691 0.321498 0
    outer loop
      vertex -52.4319 -31.6946 -1.5
      vertex -52.3478 -31.9423 1.5
      vertex -52.3478 -31.9423 -1.5
    endloop
  endfacet
  facet normal -0.555758 0.831344 0
    outer loop
      vertex -49.2825 -32.7636 -1.5
      vertex -49.5 -32.909 1.5
      vertex -49.2825 -32.7636 1.5
    endloop
  endfacet
  facet normal -0.555758 0.831344 0
    outer loop
      vertex -49.5 -32.909 1.5
      vertex -49.2825 -32.7636 -1.5
      vertex -49.5 -32.909 -1.5
    endloop
  endfacet
  facet normal 0.980815 0.19494 0
    outer loop
      vertex -52.4319 -31.6946 1.5
      vertex -52.4829 -31.438 -1.5
      vertex -52.4829 -31.438 1.5
    endloop
  endfacet
  facet normal 0.980815 0.19494 0
    outer loop
      vertex -52.4829 -31.438 -1.5
      vertex -52.4319 -31.6946 1.5
      vertex -52.4319 -31.6946 -1.5
    endloop
  endfacet
  facet normal -0.89686 -0.442314 0
    outer loop
      vertex -48.6522 -30.4115 -1.5
      vertex -48.7679 -30.1769 1.5
      vertex -48.7679 -30.1769 -1.5
    endloop
  endfacet
  facet normal -0.89686 -0.442314 0
    outer loop
      vertex -48.7679 -30.1769 1.5
      vertex -48.6522 -30.4115 -1.5
      vertex -48.6522 -30.4115 1.5
    endloop
  endfacet
  facet normal 0.0653521 0.997862 -0
    outer loop
      vertex -50.5 -33.1769 -1.5
      vertex -50.7611 -33.1598 1.5
      vertex -50.5 -33.1769 1.5
    endloop
  endfacet
  facet normal 0.0653521 0.997862 0
    outer loop
      vertex -50.7611 -33.1598 1.5
      vertex -50.5 -33.1769 -1.5
      vertex -50.7611 -33.1598 -1.5
    endloop
  endfacet
  facet normal -0.997862 0.0653521 0
    outer loop
      vertex -48.5171 -31.438 -1.5
      vertex -48.5 -31.1769 1.5
      vertex -48.5 -31.1769 -1.5
    endloop
  endfacet
  facet normal -0.997862 0.0653521 0
    outer loop
      vertex -48.5 -31.1769 1.5
      vertex -48.5171 -31.438 -1.5
      vertex -48.5171 -31.438 1.5
    endloop
  endfacet
  facet normal -0.980815 0.19494 0
    outer loop
      vertex -48.5681 -31.6946 -1.5
      vertex -48.5171 -31.438 1.5
      vertex -48.5171 -31.438 -1.5
    endloop
  endfacet
  facet normal -0.980815 0.19494 0
    outer loop
      vertex -48.5171 -31.438 1.5
      vertex -48.5681 -31.6946 -1.5
      vertex -48.5681 -31.6946 1.5
    endloop
  endfacet
  facet normal 0.94695 -0.321382 0
    outer loop
      vertex -52.4319 -30.6593 1.5
      vertex -52.3478 -30.4115 -1.5
      vertex -52.3478 -30.4115 1.5
    endloop
  endfacet
  facet normal 0.94695 -0.321382 0
    outer loop
      vertex -52.3478 -30.4115 -1.5
      vertex -52.4319 -30.6593 1.5
      vertex -52.4319 -30.6593 -1.5
    endloop
  endfacet
  facet normal -0.321382 0.94695 0
    outer loop
      vertex -49.7346 -33.0247 -1.5
      vertex -49.9824 -33.1088 1.5
      vertex -49.7346 -33.0247 1.5
    endloop
  endfacet
  facet normal -0.321382 0.94695 0
    outer loop
      vertex -49.9824 -33.1088 1.5
      vertex -49.7346 -33.0247 -1.5
      vertex -49.9824 -33.1088 -1.5
    endloop
  endfacet
  facet normal -0.442314 -0.89686 0
    outer loop
      vertex -49.7346 -29.3292 -1.5
      vertex -49.5 -29.4449 1.5
      vertex -49.7346 -29.3292 1.5
    endloop
  endfacet
  facet normal -0.442314 -0.89686 -0
    outer loop
      vertex -49.5 -29.4449 1.5
      vertex -49.7346 -29.3292 -1.5
      vertex -49.5 -29.4449 -1.5
    endloop
  endfacet
  facet normal -0.321382 -0.94695 0
    outer loop
      vertex -49.9824 -29.2451 -1.5
      vertex -49.7346 -29.3292 1.5
      vertex -49.9824 -29.2451 1.5
    endloop
  endfacet
  facet normal -0.321382 -0.94695 -0
    outer loop
      vertex -49.7346 -29.3292 1.5
      vertex -49.9824 -29.2451 -1.5
      vertex -49.7346 -29.3292 -1.5
    endloop
  endfacet
  facet normal -0.831344 0.555758 0
    outer loop
      vertex -48.9133 -32.3944 -1.5
      vertex -48.7679 -32.1769 1.5
      vertex -48.7679 -32.1769 -1.5
    endloop
  endfacet
  facet normal -0.831344 0.555758 0
    outer loop
      vertex -48.7679 -32.1769 1.5
      vertex -48.9133 -32.3944 -1.5
      vertex -48.9133 -32.3944 1.5
    endloop
  endfacet
  facet normal -0.0653521 0.997862 0
    outer loop
      vertex -50.2389 -33.1598 -1.5
      vertex -50.5 -33.1769 1.5
      vertex -50.2389 -33.1598 1.5
    endloop
  endfacet
  facet normal -0.0653521 0.997862 0
    outer loop
      vertex -50.5 -33.1769 1.5
      vertex -50.2389 -33.1598 -1.5
      vertex -50.5 -33.1769 -1.5
    endloop
  endfacet
  facet normal 0.997861 -0.0653771 0
    outer loop
      vertex -52.5 -31.1769 1.5
      vertex -52.4829 -30.9159 -1.5
      vertex -52.4829 -30.9159 1.5
    endloop
  endfacet
  facet normal 0.997861 -0.0653771 0
    outer loop
      vertex -52.4829 -30.9159 -1.5
      vertex -52.5 -31.1769 1.5
      vertex -52.5 -31.1769 -1.5
    endloop
  endfacet
  facet normal 0.195381 -0.980727 0
    outer loop
      vertex -51.0176 -29.2451 -1.5
      vertex -50.7611 -29.194 1.5
      vertex -51.0176 -29.2451 1.5
    endloop
  endfacet
  facet normal 0.195381 -0.980727 0
    outer loop
      vertex -50.7611 -29.194 1.5
      vertex -51.0176 -29.2451 -1.5
      vertex -50.7611 -29.194 -1.5
    endloop
  endfacet
  facet normal 0.831521 -0.555494 0
    outer loop
      vertex -52.232 -30.1769 1.5
      vertex -52.0867 -29.9594 -1.5
      vertex -52.0867 -29.9594 1.5
    endloop
  endfacet
  facet normal 0.831521 -0.555494 0
    outer loop
      vertex -52.0867 -29.9594 -1.5
      vertex -52.232 -30.1769 1.5
      vertex -52.232 -30.1769 -1.5
    endloop
  endfacet
  facet normal 0.555494 -0.831521 0
    outer loop
      vertex -51.7175 -29.5902 -1.5
      vertex -51.5 -29.4449 1.5
      vertex -51.7175 -29.5902 1.5
    endloop
  endfacet
  facet normal 0.555494 -0.831521 0
    outer loop
      vertex -51.5 -29.4449 1.5
      vertex -51.7175 -29.5902 -1.5
      vertex -51.5 -29.4449 -1.5
    endloop
  endfacet
  facet normal -0.659343 0.751842 0
    outer loop
      vertex -49.0858 -32.5911 -1.5
      vertex -49.2825 -32.7636 1.5
      vertex -49.0858 -32.5911 1.5
    endloop
  endfacet
  facet normal -0.659343 0.751842 0
    outer loop
      vertex -49.2825 -32.7636 1.5
      vertex -49.0858 -32.5911 -1.5
      vertex -49.2825 -32.7636 -1.5
    endloop
  endfacet
  facet normal 0.442314 -0.89686 0
    outer loop
      vertex -51.5 -29.4449 -1.5
      vertex -51.2654 -29.3292 1.5
      vertex -51.5 -29.4449 1.5
    endloop
  endfacet
  facet normal 0.442314 -0.89686 0
    outer loop
      vertex -51.2654 -29.3292 1.5
      vertex -51.5 -29.4449 -1.5
      vertex -51.2654 -29.3292 -1.5
    endloop
  endfacet
  facet normal 0.751842 0.659343 0
    outer loop
      vertex -51.9142 -32.5911 1.5
      vertex -52.0867 -32.3944 -1.5
      vertex -52.0867 -32.3944 1.5
    endloop
  endfacet
  facet normal 0.751842 0.659343 0
    outer loop
      vertex -52.0867 -32.3944 -1.5
      vertex -51.9142 -32.5911 1.5
      vertex -51.9142 -32.5911 -1.5
    endloop
  endfacet
  facet normal -0.195013 0.980801 0
    outer loop
      vertex -49.9824 -33.1088 -1.5
      vertex -50.2389 -33.1598 1.5
      vertex -49.9824 -33.1088 1.5
    endloop
  endfacet
  facet normal -0.195013 0.980801 0
    outer loop
      vertex -50.2389 -33.1598 1.5
      vertex -49.9824 -33.1088 -1.5
      vertex -50.2389 -33.1598 -1.5
    endloop
  endfacet
  facet normal -0.94691 0.321498 0
    outer loop
      vertex -48.6522 -31.9423 -1.5
      vertex -48.5681 -31.6946 1.5
      vertex -48.5681 -31.6946 -1.5
    endloop
  endfacet
  facet normal -0.94691 0.321498 0
    outer loop
      vertex -48.5681 -31.6946 1.5
      vertex -48.6522 -31.9423 -1.5
      vertex -48.6522 -31.9423 1.5
    endloop
  endfacet
  facet normal -0.751842 -0.659343 0
    outer loop
      vertex -48.9133 -29.9594 -1.5
      vertex -49.0858 -29.7627 1.5
      vertex -49.0858 -29.7627 -1.5
    endloop
  endfacet
  facet normal -0.751842 -0.659343 0
    outer loop
      vertex -49.0858 -29.7627 1.5
      vertex -48.9133 -29.9594 -1.5
      vertex -48.9133 -29.9594 1.5
    endloop
  endfacet
  facet normal -0.555494 -0.831521 0
    outer loop
      vertex -49.5 -29.4449 -1.5
      vertex -49.2825 -29.5902 1.5
      vertex -49.5 -29.4449 1.5
    endloop
  endfacet
  facet normal -0.555494 -0.831521 -0
    outer loop
      vertex -49.2825 -29.5902 1.5
      vertex -49.5 -29.4449 -1.5
      vertex -49.2825 -29.5902 -1.5
    endloop
  endfacet
  facet normal 0.555758 0.831344 -0
    outer loop
      vertex -51.5 -32.909 -1.5
      vertex -51.7175 -32.7636 1.5
      vertex -51.5 -32.909 1.5
    endloop
  endfacet
  facet normal 0.555758 0.831344 0
    outer loop
      vertex -51.7175 -32.7636 1.5
      vertex -51.5 -32.909 -1.5
      vertex -51.7175 -32.7636 -1.5
    endloop
  endfacet
  facet normal -0.195381 -0.980727 0
    outer loop
      vertex -50.2389 -29.194 -1.5
      vertex -49.9824 -29.2451 1.5
      vertex -50.2389 -29.194 1.5
    endloop
  endfacet
  facet normal -0.195381 -0.980727 -0
    outer loop
      vertex -49.9824 -29.2451 1.5
      vertex -50.2389 -29.194 -1.5
      vertex -49.9824 -29.2451 -1.5
    endloop
  endfacet
  facet normal 0.980815 -0.19494 0
    outer loop
      vertex -52.4829 -30.9159 1.5
      vertex -52.4319 -30.6593 -1.5
      vertex -52.4319 -30.6593 1.5
    endloop
  endfacet
  facet normal 0.980815 -0.19494 0
    outer loop
      vertex -52.4319 -30.6593 -1.5
      vertex -52.4829 -30.9159 1.5
      vertex -52.4829 -30.9159 -1.5
    endloop
  endfacet
  facet normal 0.896709 -0.442621 0
    outer loop
      vertex -52.3478 -30.4115 1.5
      vertex -52.232 -30.1769 -1.5
      vertex -52.232 -30.1769 1.5
    endloop
  endfacet
  facet normal 0.896709 -0.442621 0
    outer loop
      vertex -52.232 -30.1769 -1.5
      vertex -52.3478 -30.4115 1.5
      vertex -52.3478 -30.4115 -1.5
    endloop
  endfacet
  facet normal 0.997862 0.0653521 0
    outer loop
      vertex -52.4829 -31.438 1.5
      vertex -52.5 -31.1769 -1.5
      vertex -52.5 -31.1769 1.5
    endloop
  endfacet
  facet normal 0.997862 0.0653521 0
    outer loop
      vertex -52.5 -31.1769 -1.5
      vertex -52.4829 -31.438 1.5
      vertex -52.4829 -31.438 -1.5
    endloop
  endfacet
  facet normal 0.831521 0.555494 0
    outer loop
      vertex -52.0867 -32.3944 1.5
      vertex -52.232 -32.1769 -1.5
      vertex -52.232 -32.1769 1.5
    endloop
  endfacet
  facet normal 0.831521 0.555494 0
    outer loop
      vertex -52.232 -32.1769 -1.5
      vertex -52.0867 -32.3944 1.5
      vertex -52.0867 -32.3944 -1.5
    endloop
  endfacet
  facet normal 0.442314 0.89686 -0
    outer loop
      vertex -51.2654 -33.0247 -1.5
      vertex -51.5 -32.909 1.5
      vertex -51.2654 -33.0247 1.5
    endloop
  endfacet
  facet normal 0.442314 0.89686 0
    outer loop
      vertex -51.5 -32.909 1.5
      vertex -51.2654 -33.0247 -1.5
      vertex -51.5 -32.909 -1.5
    endloop
  endfacet
  facet normal -0.0653521 -0.997862 0
    outer loop
      vertex -50.5 -29.1769 -1.5
      vertex -50.2389 -29.194 1.5
      vertex -50.5 -29.1769 1.5
    endloop
  endfacet
  facet normal -0.0653521 -0.997862 -0
    outer loop
      vertex -50.2389 -29.194 1.5
      vertex -50.5 -29.1769 -1.5
      vertex -50.2389 -29.194 -1.5
    endloop
  endfacet
  facet normal 0.0653521 -0.997862 0
    outer loop
      vertex -50.7611 -29.194 -1.5
      vertex -50.5 -29.1769 1.5
      vertex -50.7611 -29.194 1.5
    endloop
  endfacet
  facet normal 0.0653521 -0.997862 0
    outer loop
      vertex -50.5 -29.1769 1.5
      vertex -50.7611 -29.194 -1.5
      vertex -50.5 -29.1769 -1.5
    endloop
  endfacet
  facet normal 0.195013 0.980801 -0
    outer loop
      vertex -50.7611 -33.1598 -1.5
      vertex -51.0176 -33.1088 1.5
      vertex -50.7611 -33.1598 1.5
    endloop
  endfacet
  facet normal 0.195013 0.980801 0
    outer loop
      vertex -51.0176 -33.1088 1.5
      vertex -50.7611 -33.1598 -1.5
      vertex -51.0176 -33.1088 -1.5
    endloop
  endfacet
endsolid OpenSCAD_Model
