solid OpenSCAD_Model
  facet normal -0 0 1
    outer loop
      vertex -63.5 38.1 25.4
      vertex 63.5 -38.1 25.4
      vertex 63.5 38.1 25.4
    endloop
  endfacet
  facet normal 0 0 1
    outer loop
      vertex 63.5 -38.1 25.4
      vertex -63.5 38.1 25.4
      vertex -63.5 -38.1 25.4
    endloop
  endfacet
  facet normal 0 0 -1
    outer loop
      vertex -63.5 -38.1 -25.4
      vertex 63.5 38.1 -25.4
      vertex 63.5 -38.1 -25.4
    endloop
  endfacet
  facet normal -0 0 -1
    outer loop
      vertex 63.5 38.1 -25.4
      vertex -63.5 -38.1 -25.4
      vertex -63.5 38.1 -25.4
    endloop
  endfacet
  facet normal 0 -1 0
    outer loop
      vertex -63.5 -38.1 -25.4
      vertex 63.5 -38.1 25.4
      vertex -63.5 -38.1 25.4
    endloop
  endfacet
  facet normal 0 -1 -0
    outer loop
      vertex 63.5 -38.1 25.4
      vertex -63.5 -38.1 -25.4
      vertex 63.5 -38.1 -25.4
    endloop
  endfacet
  facet normal 1 -0 0
    outer loop
      vertex 63.5 -38.1 25.4
      vertex 63.5 38.1 -25.4
      vertex 63.5 38.1 25.4
    endloop
  endfacet
  facet normal 1 0 0
    outer loop
      vertex 63.5 38.1 -25.4
      vertex 63.5 -38.1 25.4
      vertex 63.5 -38.1 -25.4
    endloop
  endfacet
  facet normal 0 1 -0
    outer loop
      vertex 63.5 38.1 -25.4
      vertex -63.5 38.1 25.4
      vertex 63.5 38.1 25.4
    endloop
  endfacet
  facet normal 0 1 0
    outer loop
      vertex -63.5 38.1 25.4
      vertex 63.5 38.1 -25.4
      vertex -63.5 38.1 -25.4
    endloop
  endfacet
  facet normal -1 0 0
    outer loop
      vertex -63.5 -38.1 -25.4
      vertex -63.5 38.1 25.4
      vertex -63.5 38.1 -25.4
    endloop
  endfacet
  facet normal -1 -0 0
    outer loop
      vertex -63.5 38.1 25.4
      vertex -63.5 -38.1 -25.4
      vertex -63.5 -38.1 25.4
    endloop
  endfacet
endsolid OpenSCAD_Model
