solid OpenSCAD_Model
  facet normal 1 -0 0
    outer loop
      vertex 90 -40 35
      vertex 90 40 -35
      vertex 90 40 35
    endloop
  endfacet
  facet normal 1 0 0
    outer loop
      vertex 90 40 -35
      vertex 90 -40 35
      vertex 90 -40 -35
    endloop
  endfacet
  facet normal 0 0 1
    outer loop
      vertex 90 40 35
      vertex 87 37 35
      vertex 90 -40 35
    endloop
  endfacet
  facet normal 0 0 1
    outer loop
      vertex 90 40 35
      vertex -87 37 35
      vertex 87 37 35
    endloop
  endfacet
  facet normal 0 0 1
    outer loop
      vertex -87 37 35
      vertex -90 40 35
      vertex -87 -37 35
    endloop
  endfacet
  facet normal -0 0 1
    outer loop
      vertex -90 40 35
      vertex -87 37 35
      vertex 90 40 35
    endloop
  endfacet
  facet normal -0 0 1
    outer loop
      vertex 87 -37 35
      vertex 90 -40 35
      vertex 87 37 35
    endloop
  endfacet
  facet normal -0 0 1
    outer loop
      vertex -87 -37 35
      vertex 90 -40 35
      vertex 87 -37 35
    endloop
  endfacet
  facet normal 0 0 1
    outer loop
      vertex -87 -37 35
      vertex -90 -40 35
      vertex 90 -40 35
    endloop
  endfacet
  facet normal 0 0 1
    outer loop
      vertex -90 -40 35
      vertex -87 -37 35
      vertex -90 40 35
    endloop
  endfacet
  facet normal 0 0 -1
    outer loop
      vertex -90 -40 -35
      vertex 90 40 -35
      vertex 90 -40 -35
    endloop
  endfacet
  facet normal -0 0 -1
    outer loop
      vertex 90 40 -35
      vertex -90 -40 -35
      vertex -90 40 -35
    endloop
  endfacet
  facet normal -1 0 0
    outer loop
      vertex -90 -40 -35
      vertex -90 40 35
      vertex -90 40 -35
    endloop
  endfacet
  facet normal -1 -0 0
    outer loop
      vertex -90 40 35
      vertex -90 -40 -35
      vertex -90 -40 35
    endloop
  endfacet
  facet normal 0 1 -0
    outer loop
      vertex 90 40 -35
      vertex -90 40 35
      vertex 90 40 35
    endloop
  endfacet
  facet normal 0 1 0
    outer loop
      vertex -90 40 35
      vertex 90 40 -35
      vertex -90 40 -35
    endloop
  endfacet
  facet normal 0 -1 0
    outer loop
      vertex -90 -40 -35
      vertex 90 -40 35
      vertex -90 -40 35
    endloop
  endfacet
  facet normal 0 -1 -0
    outer loop
      vertex 90 -40 35
      vertex -90 -40 -35
      vertex 90 -40 -35
    endloop
  endfacet
  facet normal -1 0 0
    outer loop
      vertex 87 -37 -32
      vertex 87 37 35
      vertex 87 37 -32
    endloop
  endfacet
  facet normal -1 -0 0
    outer loop
      vertex 87 37 35
      vertex 87 -37 -32
      vertex 87 -37 35
    endloop
  endfacet
  facet normal -0 0 1
    outer loop
      vertex -87 37 -32
      vertex 87 -37 -32
      vertex 87 37 -32
    endloop
  endfacet
  facet normal 0 0 1
    outer loop
      vertex 87 -37 -32
      vertex -87 37 -32
      vertex -87 -37 -32
    endloop
  endfacet
  facet normal 1 -0 0
    outer loop
      vertex -87 -37 35
      vertex -87 37 -32
      vertex -87 37 35
    endloop
  endfacet
  facet normal 1 0 0
    outer loop
      vertex -87 37 -32
      vertex -87 -37 35
      vertex -87 -37 -32
    endloop
  endfacet
  facet normal 0 -1 0
    outer loop
      vertex -87 37 -32
      vertex 87 37 35
      vertex -87 37 35
    endloop
  endfacet
  facet normal 0 -1 -0
    outer loop
      vertex 87 37 35
      vertex -87 37 -32
      vertex 87 37 -32
    endloop
  endfacet
  facet normal 0 1 -0
    outer loop
      vertex 87 -37 -32
      vertex -87 -37 35
      vertex 87 -37 35
    endloop
  endfacet
  facet normal 0 1 0
    outer loop
      vertex -87 -37 35
      vertex 87 -37 -32
      vertex -87 -37 -32
    endloop
  endfacet
endsolid OpenSCAD_Model
