solid OpenSCAD_Model
  facet normal 0.99786 0.0653895 0
    outer loop
      vertex 15 0 10
      vertex 14.8717 1.95789 -10
      vertex 14.8717 1.95789 10
    endloop
  endfacet
  facet normal 0.99786 0.0653895 0
    outer loop
      vertex 14.8717 1.95789 -10
      vertex 15 0 10
      vertex 15 0 -10
    endloop
  endfacet
  facet normal 0.980784 0.195097 0
    outer loop
      vertex 14.8717 1.95789 10
      vertex 14.4889 3.88229 -10
      vertex 14.4889 3.88229 10
    endloop
  endfacet
  facet normal 0.980784 0.195097 0
    outer loop
      vertex 14.4889 3.88229 -10
      vertex 14.8717 1.95789 10
      vertex 14.8717 1.95789 -10
    endloop
  endfacet
  facet normal 0.946929 0.321443 0
    outer loop
      vertex 14.4889 3.88229 10
      vertex 13.8582 5.74025 -10
      vertex 13.8582 5.74025 10
    endloop
  endfacet
  facet normal 0.946929 0.321443 0
    outer loop
      vertex 13.8582 5.74025 -10
      vertex 14.4889 3.88229 10
      vertex 14.4889 3.88229 -10
    endloop
  endfacet
  facet normal 0.896875 0.442283 0
    outer loop
      vertex 13.8582 5.74025 10
      vertex 12.9904 7.5 -10
      vertex 12.9904 7.5 10
    endloop
  endfacet
  facet normal 0.896875 0.442283 0
    outer loop
      vertex 12.9904 7.5 -10
      vertex 13.8582 5.74025 10
      vertex 13.8582 5.74025 -10
    endloop
  endfacet
  facet normal 0.831465 0.555577 0
    outer loop
      vertex 12.9904 7.5 10
      vertex 11.9003 9.13142 -10
      vertex 11.9003 9.13142 10
    endloop
  endfacet
  facet normal 0.831465 0.555577 0
    outer loop
      vertex 11.9003 9.13142 -10
      vertex 12.9904 7.5 10
      vertex 12.9904 7.5 -10
    endloop
  endfacet
  facet normal 0.751839 0.659346 0
    outer loop
      vertex 11.9003 9.13142 10
      vertex 10.6066 10.6066 -10
      vertex 10.6066 10.6066 10
    endloop
  endfacet
  facet normal 0.751839 0.659346 0
    outer loop
      vertex 10.6066 10.6066 -10
      vertex 11.9003 9.13142 10
      vertex 11.9003 9.13142 -10
    endloop
  endfacet
  facet normal 0.659346 0.751839 -0
    outer loop
      vertex 10.6066 10.6066 -10
      vertex 9.13142 11.9003 10
      vertex 10.6066 10.6066 10
    endloop
  endfacet
  facet normal 0.659346 0.751839 0
    outer loop
      vertex 9.13142 11.9003 10
      vertex 10.6066 10.6066 -10
      vertex 9.13142 11.9003 -10
    endloop
  endfacet
  facet normal 0.555577 0.831465 -0
    outer loop
      vertex 9.13142 11.9003 -10
      vertex 7.5 12.9904 10
      vertex 9.13142 11.9003 10
    endloop
  endfacet
  facet normal 0.555577 0.831465 0
    outer loop
      vertex 7.5 12.9904 10
      vertex 9.13142 11.9003 -10
      vertex 7.5 12.9904 -10
    endloop
  endfacet
  facet normal 0.442283 0.896875 -0
    outer loop
      vertex 7.5 12.9904 -10
      vertex 5.74025 13.8582 10
      vertex 7.5 12.9904 10
    endloop
  endfacet
  facet normal 0.442283 0.896875 0
    outer loop
      vertex 5.74025 13.8582 10
      vertex 7.5 12.9904 -10
      vertex 5.74025 13.8582 -10
    endloop
  endfacet
  facet normal 0.321443 0.946929 -0
    outer loop
      vertex 5.74025 13.8582 -10
      vertex 3.88229 14.4889 10
      vertex 5.74025 13.8582 10
    endloop
  endfacet
  facet normal 0.321443 0.946929 0
    outer loop
      vertex 3.88229 14.4889 10
      vertex 5.74025 13.8582 -10
      vertex 3.88229 14.4889 -10
    endloop
  endfacet
  facet normal 0.195097 0.980784 -0
    outer loop
      vertex 3.88229 14.4889 -10
      vertex 1.95789 14.8717 10
      vertex 3.88229 14.4889 10
    endloop
  endfacet
  facet normal 0.195097 0.980784 0
    outer loop
      vertex 1.95789 14.8717 10
      vertex 3.88229 14.4889 -10
      vertex 1.95789 14.8717 -10
    endloop
  endfacet
  facet normal 0.0653895 0.99786 -0
    outer loop
      vertex 1.95789 14.8717 -10
      vertex 0 15 10
      vertex 1.95789 14.8717 10
    endloop
  endfacet
  facet normal 0.0653895 0.99786 0
    outer loop
      vertex 0 15 10
      vertex 1.95789 14.8717 -10
      vertex 0 15 -10
    endloop
  endfacet
  facet normal -0.0653895 0.99786 0
    outer loop
      vertex 0 15 -10
      vertex -1.95789 14.8717 10
      vertex 0 15 10
    endloop
  endfacet
  facet normal -0.0653895 0.99786 0
    outer loop
      vertex -1.95789 14.8717 10
      vertex 0 15 -10
      vertex -1.95789 14.8717 -10
    endloop
  endfacet
  facet normal -0.195097 0.980784 0
    outer loop
      vertex -1.95789 14.8717 -10
      vertex -3.88229 14.4889 10
      vertex -1.95789 14.8717 10
    endloop
  endfacet
  facet normal -0.195097 0.980784 0
    outer loop
      vertex -3.88229 14.4889 10
      vertex -1.95789 14.8717 -10
      vertex -3.88229 14.4889 -10
    endloop
  endfacet
  facet normal -0.321443 0.946929 0
    outer loop
      vertex -3.88229 14.4889 -10
      vertex -5.74025 13.8582 10
      vertex -3.88229 14.4889 10
    endloop
  endfacet
  facet normal -0.321443 0.946929 0
    outer loop
      vertex -5.74025 13.8582 10
      vertex -3.88229 14.4889 -10
      vertex -5.74025 13.8582 -10
    endloop
  endfacet
  facet normal -0.442283 0.896875 0
    outer loop
      vertex -5.74025 13.8582 -10
      vertex -7.5 12.9904 10
      vertex -5.74025 13.8582 10
    endloop
  endfacet
  facet normal -0.442283 0.896875 0
    outer loop
      vertex -7.5 12.9904 10
      vertex -5.74025 13.8582 -10
      vertex -7.5 12.9904 -10
    endloop
  endfacet
  facet normal -0.555577 0.831465 0
    outer loop
      vertex -7.5 12.9904 -10
      vertex -9.13142 11.9003 10
      vertex -7.5 12.9904 10
    endloop
  endfacet
  facet normal -0.555577 0.831465 0
    outer loop
      vertex -9.13142 11.9003 10
      vertex -7.5 12.9904 -10
      vertex -9.13142 11.9003 -10
    endloop
  endfacet
  facet normal -0.659346 0.751839 0
    outer loop
      vertex -9.13142 11.9003 -10
      vertex -10.6066 10.6066 10
      vertex -9.13142 11.9003 10
    endloop
  endfacet
  facet normal -0.659346 0.751839 0
    outer loop
      vertex -10.6066 10.6066 10
      vertex -9.13142 11.9003 -10
      vertex -10.6066 10.6066 -10
    endloop
  endfacet
  facet normal -0.751839 0.659346 0
    outer loop
      vertex -11.9003 9.13142 -10
      vertex -10.6066 10.6066 10
      vertex -10.6066 10.6066 -10
    endloop
  endfacet
  facet normal -0.751839 0.659346 0
    outer loop
      vertex -10.6066 10.6066 10
      vertex -11.9003 9.13142 -10
      vertex -11.9003 9.13142 10
    endloop
  endfacet
  facet normal -0.831465 0.555577 0
    outer loop
      vertex -12.9904 7.5 -10
      vertex -11.9003 9.13142 10
      vertex -11.9003 9.13142 -10
    endloop
  endfacet
  facet normal -0.831465 0.555577 0
    outer loop
      vertex -11.9003 9.13142 10
      vertex -12.9904 7.5 -10
      vertex -12.9904 7.5 10
    endloop
  endfacet
  facet normal -0.896875 0.442283 0
    outer loop
      vertex -13.8582 5.74025 -10
      vertex -12.9904 7.5 10
      vertex -12.9904 7.5 -10
    endloop
  endfacet
  facet normal -0.896875 0.442283 0
    outer loop
      vertex -12.9904 7.5 10
      vertex -13.8582 5.74025 -10
      vertex -13.8582 5.74025 10
    endloop
  endfacet
  facet normal -0.946929 0.321443 0
    outer loop
      vertex -14.4889 3.88229 -10
      vertex -13.8582 5.74025 10
      vertex -13.8582 5.74025 -10
    endloop
  endfacet
  facet normal -0.946929 0.321443 0
    outer loop
      vertex -13.8582 5.74025 10
      vertex -14.4889 3.88229 -10
      vertex -14.4889 3.88229 10
    endloop
  endfacet
  facet normal -0.980784 0.195097 0
    outer loop
      vertex -14.8717 1.95789 -10
      vertex -14.4889 3.88229 10
      vertex -14.4889 3.88229 -10
    endloop
  endfacet
  facet normal -0.980784 0.195097 0
    outer loop
      vertex -14.4889 3.88229 10
      vertex -14.8717 1.95789 -10
      vertex -14.8717 1.95789 10
    endloop
  endfacet
  facet normal -0.99786 0.0653895 0
    outer loop
      vertex -15 -0 -10
      vertex -14.8717 1.95789 10
      vertex -14.8717 1.95789 -10
    endloop
  endfacet
  facet normal -0.99786 0.0653895 0
    outer loop
      vertex -14.8717 1.95789 10
      vertex -15 -0 -10
      vertex -15 -0 10
    endloop
  endfacet
  facet normal -0.99786 -0.0653895 0
    outer loop
      vertex -14.8717 -1.95789 -10
      vertex -15 -0 10
      vertex -15 -0 -10
    endloop
  endfacet
  facet normal -0.99786 -0.0653895 0
    outer loop
      vertex -15 -0 10
      vertex -14.8717 -1.95789 -10
      vertex -14.8717 -1.95789 10
    endloop
  endfacet
  facet normal -0.980784 -0.195097 0
    outer loop
      vertex -14.4889 -3.88229 -10
      vertex -14.8717 -1.95789 10
      vertex -14.8717 -1.95789 -10
    endloop
  endfacet
  facet normal -0.980784 -0.195097 0
    outer loop
      vertex -14.8717 -1.95789 10
      vertex -14.4889 -3.88229 -10
      vertex -14.4889 -3.88229 10
    endloop
  endfacet
  facet normal -0.946929 -0.321443 0
    outer loop
      vertex -13.8582 -5.74025 -10
      vertex -14.4889 -3.88229 10
      vertex -14.4889 -3.88229 -10
    endloop
  endfacet
  facet normal -0.946929 -0.321443 0
    outer loop
      vertex -14.4889 -3.88229 10
      vertex -13.8582 -5.74025 -10
      vertex -13.8582 -5.74025 10
    endloop
  endfacet
  facet normal -0.896875 -0.442283 0
    outer loop
      vertex -12.9904 -7.5 -10
      vertex -13.8582 -5.74025 10
      vertex -13.8582 -5.74025 -10
    endloop
  endfacet
  facet normal -0.896875 -0.442283 0
    outer loop
      vertex -13.8582 -5.74025 10
      vertex -12.9904 -7.5 -10
      vertex -12.9904 -7.5 10
    endloop
  endfacet
  facet normal -0.831465 -0.555577 0
    outer loop
      vertex -11.9003 -9.13142 -10
      vertex -12.9904 -7.5 10
      vertex -12.9904 -7.5 -10
    endloop
  endfacet
  facet normal -0.831465 -0.555577 0
    outer loop
      vertex -12.9904 -7.5 10
      vertex -11.9003 -9.13142 -10
      vertex -11.9003 -9.13142 10
    endloop
  endfacet
  facet normal -0.751839 -0.659346 0
    outer loop
      vertex -10.6066 -10.6066 -10
      vertex -11.9003 -9.13142 10
      vertex -11.9003 -9.13142 -10
    endloop
  endfacet
  facet normal -0.751839 -0.659346 0
    outer loop
      vertex -11.9003 -9.13142 10
      vertex -10.6066 -10.6066 -10
      vertex -10.6066 -10.6066 10
    endloop
  endfacet
  facet normal -0.659346 -0.751839 0
    outer loop
      vertex -10.6066 -10.6066 -10
      vertex -9.13142 -11.9003 10
      vertex -10.6066 -10.6066 10
    endloop
  endfacet
  facet normal -0.659346 -0.751839 -0
    outer loop
      vertex -9.13142 -11.9003 10
      vertex -10.6066 -10.6066 -10
      vertex -9.13142 -11.9003 -10
    endloop
  endfacet
  facet normal -0.555577 -0.831465 0
    outer loop
      vertex -9.13142 -11.9003 -10
      vertex -7.5 -12.9904 10
      vertex -9.13142 -11.9003 10
    endloop
  endfacet
  facet normal -0.555577 -0.831465 -0
    outer loop
      vertex -7.5 -12.9904 10
      vertex -9.13142 -11.9003 -10
      vertex -7.5 -12.9904 -10
    endloop
  endfacet
  facet normal -0.442283 -0.896875 0
    outer loop
      vertex -7.5 -12.9904 -10
      vertex -5.74025 -13.8582 10
      vertex -7.5 -12.9904 10
    endloop
  endfacet
  facet normal -0.442283 -0.896875 -0
    outer loop
      vertex -5.74025 -13.8582 10
      vertex -7.5 -12.9904 -10
      vertex -5.74025 -13.8582 -10
    endloop
  endfacet
  facet normal -0.321443 -0.946929 0
    outer loop
      vertex -5.74025 -13.8582 -10
      vertex -3.88229 -14.4889 10
      vertex -5.74025 -13.8582 10
    endloop
  endfacet
  facet normal -0.321443 -0.946929 -0
    outer loop
      vertex -3.88229 -14.4889 10
      vertex -5.74025 -13.8582 -10
      vertex -3.88229 -14.4889 -10
    endloop
  endfacet
  facet normal -0.195097 -0.980784 0
    outer loop
      vertex -3.88229 -14.4889 -10
      vertex -1.95789 -14.8717 10
      vertex -3.88229 -14.4889 10
    endloop
  endfacet
  facet normal -0.195097 -0.980784 -0
    outer loop
      vertex -1.95789 -14.8717 10
      vertex -3.88229 -14.4889 -10
      vertex -1.95789 -14.8717 -10
    endloop
  endfacet
  facet normal -0.0653895 -0.99786 0
    outer loop
      vertex -1.95789 -14.8717 -10
      vertex -0 -15 10
      vertex -1.95789 -14.8717 10
    endloop
  endfacet
  facet normal -0.0653895 -0.99786 -0
    outer loop
      vertex -0 -15 10
      vertex -1.95789 -14.8717 -10
      vertex -0 -15 -10
    endloop
  endfacet
  facet normal 0.0653895 -0.99786 0
    outer loop
      vertex -0 -15 -10
      vertex 1.95789 -14.8717 10
      vertex -0 -15 10
    endloop
  endfacet
  facet normal 0.0653895 -0.99786 0
    outer loop
      vertex 1.95789 -14.8717 10
      vertex -0 -15 -10
      vertex 1.95789 -14.8717 -10
    endloop
  endfacet
  facet normal 0.195097 -0.980784 0
    outer loop
      vertex 1.95789 -14.8717 -10
      vertex 3.88229 -14.4889 10
      vertex 1.95789 -14.8717 10
    endloop
  endfacet
  facet normal 0.195097 -0.980784 0
    outer loop
      vertex 3.88229 -14.4889 10
      vertex 1.95789 -14.8717 -10
      vertex 3.88229 -14.4889 -10
    endloop
  endfacet
  facet normal 0.321443 -0.946929 0
    outer loop
      vertex 3.88229 -14.4889 -10
      vertex 5.74025 -13.8582 10
      vertex 3.88229 -14.4889 10
    endloop
  endfacet
  facet normal 0.321443 -0.946929 0
    outer loop
      vertex 5.74025 -13.8582 10
      vertex 3.88229 -14.4889 -10
      vertex 5.74025 -13.8582 -10
    endloop
  endfacet
  facet normal 0.442283 -0.896875 0
    outer loop
      vertex 5.74025 -13.8582 -10
      vertex 7.5 -12.9904 10
      vertex 5.74025 -13.8582 10
    endloop
  endfacet
  facet normal 0.442283 -0.896875 0
    outer loop
      vertex 7.5 -12.9904 10
      vertex 5.74025 -13.8582 -10
      vertex 7.5 -12.9904 -10
    endloop
  endfacet
  facet normal 0.555577 -0.831465 0
    outer loop
      vertex 7.5 -12.9904 -10
      vertex 9.13142 -11.9003 10
      vertex 7.5 -12.9904 10
    endloop
  endfacet
  facet normal 0.555577 -0.831465 0
    outer loop
      vertex 9.13142 -11.9003 10
      vertex 7.5 -12.9904 -10
      vertex 9.13142 -11.9003 -10
    endloop
  endfacet
  facet normal 0.659346 -0.751839 0
    outer loop
      vertex 9.13142 -11.9003 -10
      vertex 10.6066 -10.6066 10
      vertex 9.13142 -11.9003 10
    endloop
  endfacet
  facet normal 0.659346 -0.751839 0
    outer loop
      vertex 10.6066 -10.6066 10
      vertex 9.13142 -11.9003 -10
      vertex 10.6066 -10.6066 -10
    endloop
  endfacet
  facet normal 0.751839 -0.659346 0
    outer loop
      vertex 10.6066 -10.6066 10
      vertex 11.9003 -9.13142 -10
      vertex 11.9003 -9.13142 10
    endloop
  endfacet
  facet normal 0.751839 -0.659346 0
    outer loop
      vertex 11.9003 -9.13142 -10
      vertex 10.6066 -10.6066 10
      vertex 10.6066 -10.6066 -10
    endloop
  endfacet
  facet normal 0.831465 -0.555577 0
    outer loop
      vertex 11.9003 -9.13142 10
      vertex 12.9904 -7.5 -10
      vertex 12.9904 -7.5 10
    endloop
  endfacet
  facet normal 0.831465 -0.555577 0
    outer loop
      vertex 12.9904 -7.5 -10
      vertex 11.9003 -9.13142 10
      vertex 11.9003 -9.13142 -10
    endloop
  endfacet
  facet normal 0.896875 -0.442283 0
    outer loop
      vertex 12.9904 -7.5 10
      vertex 13.8582 -5.74025 -10
      vertex 13.8582 -5.74025 10
    endloop
  endfacet
  facet normal 0.896875 -0.442283 0
    outer loop
      vertex 13.8582 -5.74025 -10
      vertex 12.9904 -7.5 10
      vertex 12.9904 -7.5 -10
    endloop
  endfacet
  facet normal 0.946929 -0.321443 0
    outer loop
      vertex 13.8582 -5.74025 10
      vertex 14.4889 -3.88229 -10
      vertex 14.4889 -3.88229 10
    endloop
  endfacet
  facet normal 0.946929 -0.321443 0
    outer loop
      vertex 14.4889 -3.88229 -10
      vertex 13.8582 -5.74025 10
      vertex 13.8582 -5.74025 -10
    endloop
  endfacet
  facet normal 0.980784 -0.195097 0
    outer loop
      vertex 14.4889 -3.88229 10
      vertex 14.8717 -1.95789 -10
      vertex 14.8717 -1.95789 10
    endloop
  endfacet
  facet normal 0.980784 -0.195097 0
    outer loop
      vertex 14.8717 -1.95789 -10
      vertex 14.4889 -3.88229 10
      vertex 14.4889 -3.88229 -10
    endloop
  endfacet
  facet normal 0.99786 -0.0653895 0
    outer loop
      vertex 14.8717 -1.95789 10
      vertex 15 0 -10
      vertex 15 0 10
    endloop
  endfacet
  facet normal 0.99786 -0.0653895 0
    outer loop
      vertex 15 0 -10
      vertex 14.8717 -1.95789 10
      vertex 14.8717 -1.95789 -10
    endloop
  endfacet
  facet normal 0 0 -1
    outer loop
      vertex 14.8717 -1.95789 -10
      vertex 14.8717 1.95789 -10
      vertex 15 0 -10
    endloop
  endfacet
  facet normal 0 0 -1
    outer loop
      vertex 14.4889 -3.88229 -10
      vertex 14.8717 1.95789 -10
      vertex 14.8717 -1.95789 -10
    endloop
  endfacet
  facet normal 0 0 -1
    outer loop
      vertex 14.4889 -3.88229 -10
      vertex 14.4889 3.88229 -10
      vertex 14.8717 1.95789 -10
    endloop
  endfacet
  facet normal 0 0 -1
    outer loop
      vertex 13.8582 -5.74025 -10
      vertex 14.4889 3.88229 -10
      vertex 14.4889 -3.88229 -10
    endloop
  endfacet
  facet normal 0 0 -1
    outer loop
      vertex 13.8582 -5.74025 -10
      vertex 13.8582 5.74025 -10
      vertex 14.4889 3.88229 -10
    endloop
  endfacet
  facet normal 0 0 -1
    outer loop
      vertex 12.9904 -7.5 -10
      vertex 13.8582 5.74025 -10
      vertex 13.8582 -5.74025 -10
    endloop
  endfacet
  facet normal 0 0 -1
    outer loop
      vertex 12.9904 -7.5 -10
      vertex 12.9904 7.5 -10
      vertex 13.8582 5.74025 -10
    endloop
  endfacet
  facet normal 0 0 -1
    outer loop
      vertex 11.9003 -9.13142 -10
      vertex 12.9904 7.5 -10
      vertex 12.9904 -7.5 -10
    endloop
  endfacet
  facet normal 0 0 -1
    outer loop
      vertex 11.9003 -9.13142 -10
      vertex 11.9003 9.13142 -10
      vertex 12.9904 7.5 -10
    endloop
  endfacet
  facet normal 0 0 -1
    outer loop
      vertex 10.6066 -10.6066 -10
      vertex 11.9003 9.13142 -10
      vertex 11.9003 -9.13142 -10
    endloop
  endfacet
  facet normal 0 0 -1
    outer loop
      vertex 10.6066 -10.6066 -10
      vertex 10.6066 10.6066 -10
      vertex 11.9003 9.13142 -10
    endloop
  endfacet
  facet normal 0 0 -1
    outer loop
      vertex 9.13142 -11.9003 -10
      vertex 10.6066 10.6066 -10
      vertex 10.6066 -10.6066 -10
    endloop
  endfacet
  facet normal 0 0 -1
    outer loop
      vertex 9.13142 -11.9003 -10
      vertex 9.13142 11.9003 -10
      vertex 10.6066 10.6066 -10
    endloop
  endfacet
  facet normal 0 0 -1
    outer loop
      vertex 7.5 -12.9904 -10
      vertex 9.13142 11.9003 -10
      vertex 9.13142 -11.9003 -10
    endloop
  endfacet
  facet normal 0 0 -1
    outer loop
      vertex 7.5 -12.9904 -10
      vertex 7.5 12.9904 -10
      vertex 9.13142 11.9003 -10
    endloop
  endfacet
  facet normal 0 0 -1
    outer loop
      vertex 5.74025 -13.8582 -10
      vertex 7.5 12.9904 -10
      vertex 7.5 -12.9904 -10
    endloop
  endfacet
  facet normal 0 0 -1
    outer loop
      vertex 5.74025 -13.8582 -10
      vertex 5.74025 13.8582 -10
      vertex 7.5 12.9904 -10
    endloop
  endfacet
  facet normal 0 0 -1
    outer loop
      vertex 3.88229 -14.4889 -10
      vertex 5.74025 13.8582 -10
      vertex 5.74025 -13.8582 -10
    endloop
  endfacet
  facet normal 0 0 -1
    outer loop
      vertex 3.88229 -14.4889 -10
      vertex 3.88229 14.4889 -10
      vertex 5.74025 13.8582 -10
    endloop
  endfacet
  facet normal 0 0 -1
    outer loop
      vertex 1.95789 -14.8717 -10
      vertex 3.88229 14.4889 -10
      vertex 3.88229 -14.4889 -10
    endloop
  endfacet
  facet normal 0 0 -1
    outer loop
      vertex 1.95789 -14.8717 -10
      vertex 1.95789 14.8717 -10
      vertex 3.88229 14.4889 -10
    endloop
  endfacet
  facet normal 0 0 -1
    outer loop
      vertex -0 -15 -10
      vertex 1.95789 14.8717 -10
      vertex 1.95789 -14.8717 -10
    endloop
  endfacet
  facet normal 0 0 -1
    outer loop
      vertex -0 -15 -10
      vertex 0 15 -10
      vertex 1.95789 14.8717 -10
    endloop
  endfacet
  facet normal 0 0 -1
    outer loop
      vertex -1.95789 -14.8717 -10
      vertex 0 15 -10
      vertex -0 -15 -10
    endloop
  endfacet
  facet normal 0 0 -1
    outer loop
      vertex -1.95789 -14.8717 -10
      vertex -1.95789 14.8717 -10
      vertex 0 15 -10
    endloop
  endfacet
  facet normal 0 0 -1
    outer loop
      vertex -3.88229 -14.4889 -10
      vertex -1.95789 14.8717 -10
      vertex -1.95789 -14.8717 -10
    endloop
  endfacet
  facet normal 0 0 -1
    outer loop
      vertex -3.88229 -14.4889 -10
      vertex -3.88229 14.4889 -10
      vertex -1.95789 14.8717 -10
    endloop
  endfacet
  facet normal 0 0 -1
    outer loop
      vertex -5.74025 -13.8582 -10
      vertex -3.88229 14.4889 -10
      vertex -3.88229 -14.4889 -10
    endloop
  endfacet
  facet normal 0 0 -1
    outer loop
      vertex -5.74025 -13.8582 -10
      vertex -5.74025 13.8582 -10
      vertex -3.88229 14.4889 -10
    endloop
  endfacet
  facet normal 0 0 -1
    outer loop
      vertex -7.5 -12.9904 -10
      vertex -5.74025 13.8582 -10
      vertex -5.74025 -13.8582 -10
    endloop
  endfacet
  facet normal 0 0 -1
    outer loop
      vertex -7.5 -12.9904 -10
      vertex -7.5 12.9904 -10
      vertex -5.74025 13.8582 -10
    endloop
  endfacet
  facet normal 0 0 -1
    outer loop
      vertex -9.13142 -11.9003 -10
      vertex -7.5 12.9904 -10
      vertex -7.5 -12.9904 -10
    endloop
  endfacet
  facet normal 0 0 -1
    outer loop
      vertex -9.13142 -11.9003 -10
      vertex -9.13142 11.9003 -10
      vertex -7.5 12.9904 -10
    endloop
  endfacet
  facet normal 0 0 -1
    outer loop
      vertex -10.6066 -10.6066 -10
      vertex -9.13142 11.9003 -10
      vertex -9.13142 -11.9003 -10
    endloop
  endfacet
  facet normal 0 0 -1
    outer loop
      vertex -10.6066 -10.6066 -10
      vertex -10.6066 10.6066 -10
      vertex -9.13142 11.9003 -10
    endloop
  endfacet
  facet normal 0 0 -1
    outer loop
      vertex -11.9003 -9.13142 -10
      vertex -10.6066 10.6066 -10
      vertex -10.6066 -10.6066 -10
    endloop
  endfacet
  facet normal 0 0 -1
    outer loop
      vertex -11.9003 -9.13142 -10
      vertex -11.9003 9.13142 -10
      vertex -10.6066 10.6066 -10
    endloop
  endfacet
  facet normal 0 0 -1
    outer loop
      vertex -12.9904 -7.5 -10
      vertex -11.9003 9.13142 -10
      vertex -11.9003 -9.13142 -10
    endloop
  endfacet
  facet normal 0 0 -1
    outer loop
      vertex -12.9904 -7.5 -10
      vertex -12.9904 7.5 -10
      vertex -11.9003 9.13142 -10
    endloop
  endfacet
  facet normal 0 0 -1
    outer loop
      vertex -13.8582 -5.74025 -10
      vertex -12.9904 7.5 -10
      vertex -12.9904 -7.5 -10
    endloop
  endfacet
  facet normal 0 0 -1
    outer loop
      vertex -13.8582 -5.74025 -10
      vertex -13.8582 5.74025 -10
      vertex -12.9904 7.5 -10
    endloop
  endfacet
  facet normal 0 0 -1
    outer loop
      vertex -14.4889 -3.88229 -10
      vertex -13.8582 5.74025 -10
      vertex -13.8582 -5.74025 -10
    endloop
  endfacet
  facet normal 0 0 -1
    outer loop
      vertex -14.4889 -3.88229 -10
      vertex -14.4889 3.88229 -10
      vertex -13.8582 5.74025 -10
    endloop
  endfacet
  facet normal 0 0 -1
    outer loop
      vertex -14.8717 -1.95789 -10
      vertex -14.4889 3.88229 -10
      vertex -14.4889 -3.88229 -10
    endloop
  endfacet
  facet normal 0 0 -1
    outer loop
      vertex -14.8717 -1.95789 -10
      vertex -14.8717 1.95789 -10
      vertex -14.4889 3.88229 -10
    endloop
  endfacet
  facet normal 0 -0 -1
    outer loop
      vertex -14.8717 1.95789 -10
      vertex -14.8717 -1.95789 -10
      vertex -15 -0 -10
    endloop
  endfacet
  facet normal 0 0 1
    outer loop
      vertex 14.8717 1.95789 10
      vertex 14.8717 -1.95789 10
      vertex 15 0 10
    endloop
  endfacet
  facet normal 0 0 1
    outer loop
      vertex 14.4889 3.88229 10
      vertex 14.8717 -1.95789 10
      vertex 14.8717 1.95789 10
    endloop
  endfacet
  facet normal 0 0 1
    outer loop
      vertex 14.4889 3.88229 10
      vertex 14.4889 -3.88229 10
      vertex 14.8717 -1.95789 10
    endloop
  endfacet
  facet normal 0 0 1
    outer loop
      vertex 13.8582 5.74025 10
      vertex 14.4889 -3.88229 10
      vertex 14.4889 3.88229 10
    endloop
  endfacet
  facet normal 0 0 1
    outer loop
      vertex 13.8582 5.74025 10
      vertex 13.8582 -5.74025 10
      vertex 14.4889 -3.88229 10
    endloop
  endfacet
  facet normal 0 0 1
    outer loop
      vertex 12.9904 7.5 10
      vertex 13.8582 -5.74025 10
      vertex 13.8582 5.74025 10
    endloop
  endfacet
  facet normal 0 0 1
    outer loop
      vertex 12.9904 7.5 10
      vertex 12.9904 -7.5 10
      vertex 13.8582 -5.74025 10
    endloop
  endfacet
  facet normal 0 0 1
    outer loop
      vertex 11.9003 9.13142 10
      vertex 12.9904 -7.5 10
      vertex 12.9904 7.5 10
    endloop
  endfacet
  facet normal 0 0 1
    outer loop
      vertex 11.9003 9.13142 10
      vertex 11.9003 -9.13142 10
      vertex 12.9904 -7.5 10
    endloop
  endfacet
  facet normal 0 0 1
    outer loop
      vertex 10.6066 10.6066 10
      vertex 11.9003 -9.13142 10
      vertex 11.9003 9.13142 10
    endloop
  endfacet
  facet normal 0 0 1
    outer loop
      vertex 10.6066 10.6066 10
      vertex 10.6066 -10.6066 10
      vertex 11.9003 -9.13142 10
    endloop
  endfacet
  facet normal 0 0 1
    outer loop
      vertex 9.13142 11.9003 10
      vertex 10.6066 -10.6066 10
      vertex 10.6066 10.6066 10
    endloop
  endfacet
  facet normal 0 0 1
    outer loop
      vertex 9.13142 11.9003 10
      vertex 9.13142 -11.9003 10
      vertex 10.6066 -10.6066 10
    endloop
  endfacet
  facet normal 0 0 1
    outer loop
      vertex 7.5 12.9904 10
      vertex 9.13142 -11.9003 10
      vertex 9.13142 11.9003 10
    endloop
  endfacet
  facet normal 0 0 1
    outer loop
      vertex 7.5 12.9904 10
      vertex 7.5 -12.9904 10
      vertex 9.13142 -11.9003 10
    endloop
  endfacet
  facet normal 0 0 1
    outer loop
      vertex 5.74025 13.8582 10
      vertex 7.5 -12.9904 10
      vertex 7.5 12.9904 10
    endloop
  endfacet
  facet normal 0 0 1
    outer loop
      vertex 5.74025 13.8582 10
      vertex 5.74025 -13.8582 10
      vertex 7.5 -12.9904 10
    endloop
  endfacet
  facet normal 0 0 1
    outer loop
      vertex 3.88229 14.4889 10
      vertex 5.74025 -13.8582 10
      vertex 5.74025 13.8582 10
    endloop
  endfacet
  facet normal 0 0 1
    outer loop
      vertex 3.88229 14.4889 10
      vertex 3.88229 -14.4889 10
      vertex 5.74025 -13.8582 10
    endloop
  endfacet
  facet normal 0 0 1
    outer loop
      vertex 1.95789 14.8717 10
      vertex 3.88229 -14.4889 10
      vertex 3.88229 14.4889 10
    endloop
  endfacet
  facet normal 0 0 1
    outer loop
      vertex 1.95789 14.8717 10
      vertex 1.95789 -14.8717 10
      vertex 3.88229 -14.4889 10
    endloop
  endfacet
  facet normal 0 0 1
    outer loop
      vertex 0 15 10
      vertex 1.95789 -14.8717 10
      vertex 1.95789 14.8717 10
    endloop
  endfacet
  facet normal 0 0 1
    outer loop
      vertex 0 15 10
      vertex -0 -15 10
      vertex 1.95789 -14.8717 10
    endloop
  endfacet
  facet normal -0 0 1
    outer loop
      vertex -1.95789 14.8717 10
      vertex -0 -15 10
      vertex 0 15 10
    endloop
  endfacet
  facet normal 0 0 1
    outer loop
      vertex -1.95789 14.8717 10
      vertex -1.95789 -14.8717 10
      vertex -0 -15 10
    endloop
  endfacet
  facet normal -0 0 1
    outer loop
      vertex -3.88229 14.4889 10
      vertex -1.95789 -14.8717 10
      vertex -1.95789 14.8717 10
    endloop
  endfacet
  facet normal 0 0 1
    outer loop
      vertex -3.88229 14.4889 10
      vertex -3.88229 -14.4889 10
      vertex -1.95789 -14.8717 10
    endloop
  endfacet
  facet normal -0 0 1
    outer loop
      vertex -5.74025 13.8582 10
      vertex -3.88229 -14.4889 10
      vertex -3.88229 14.4889 10
    endloop
  endfacet
  facet normal 0 0 1
    outer loop
      vertex -5.74025 13.8582 10
      vertex -5.74025 -13.8582 10
      vertex -3.88229 -14.4889 10
    endloop
  endfacet
  facet normal -0 0 1
    outer loop
      vertex -7.5 12.9904 10
      vertex -5.74025 -13.8582 10
      vertex -5.74025 13.8582 10
    endloop
  endfacet
  facet normal 0 0 1
    outer loop
      vertex -7.5 12.9904 10
      vertex -7.5 -12.9904 10
      vertex -5.74025 -13.8582 10
    endloop
  endfacet
  facet normal -0 0 1
    outer loop
      vertex -9.13142 11.9003 10
      vertex -7.5 -12.9904 10
      vertex -7.5 12.9904 10
    endloop
  endfacet
  facet normal 0 0 1
    outer loop
      vertex -9.13142 11.9003 10
      vertex -9.13142 -11.9003 10
      vertex -7.5 -12.9904 10
    endloop
  endfacet
  facet normal -0 0 1
    outer loop
      vertex -10.6066 10.6066 10
      vertex -9.13142 -11.9003 10
      vertex -9.13142 11.9003 10
    endloop
  endfacet
  facet normal 0 0 1
    outer loop
      vertex -10.6066 10.6066 10
      vertex -10.6066 -10.6066 10
      vertex -9.13142 -11.9003 10
    endloop
  endfacet
  facet normal -0 0 1
    outer loop
      vertex -11.9003 9.13142 10
      vertex -10.6066 -10.6066 10
      vertex -10.6066 10.6066 10
    endloop
  endfacet
  facet normal 0 0 1
    outer loop
      vertex -11.9003 9.13142 10
      vertex -11.9003 -9.13142 10
      vertex -10.6066 -10.6066 10
    endloop
  endfacet
  facet normal -0 0 1
    outer loop
      vertex -12.9904 7.5 10
      vertex -11.9003 -9.13142 10
      vertex -11.9003 9.13142 10
    endloop
  endfacet
  facet normal 0 0 1
    outer loop
      vertex -12.9904 7.5 10
      vertex -12.9904 -7.5 10
      vertex -11.9003 -9.13142 10
    endloop
  endfacet
  facet normal -0 0 1
    outer loop
      vertex -13.8582 5.74025 10
      vertex -12.9904 -7.5 10
      vertex -12.9904 7.5 10
    endloop
  endfacet
  facet normal 0 0 1
    outer loop
      vertex -13.8582 5.74025 10
      vertex -13.8582 -5.74025 10
      vertex -12.9904 -7.5 10
    endloop
  endfacet
  facet normal -0 0 1
    outer loop
      vertex -14.4889 3.88229 10
      vertex -13.8582 -5.74025 10
      vertex -13.8582 5.74025 10
    endloop
  endfacet
  facet normal 0 0 1
    outer loop
      vertex -14.4889 3.88229 10
      vertex -14.4889 -3.88229 10
      vertex -13.8582 -5.74025 10
    endloop
  endfacet
  facet normal -0 0 1
    outer loop
      vertex -14.8717 1.95789 10
      vertex -14.4889 -3.88229 10
      vertex -14.4889 3.88229 10
    endloop
  endfacet
  facet normal 0 0 1
    outer loop
      vertex -14.8717 1.95789 10
      vertex -14.8717 -1.95789 10
      vertex -14.4889 -3.88229 10
    endloop
  endfacet
  facet normal 0 -0 1
    outer loop
      vertex -14.8717 -1.95789 10
      vertex -14.8717 1.95789 10
      vertex -15 -0 10
    endloop
  endfacet
endsolid OpenSCAD_Model
