solid OpenSCAD_Model
  facet normal 1 -0 0
    outer loop
      vertex 75 -35 2.5
      vertex 75 35 -2.5
      vertex 75 35 2.5
    endloop
  endfacet
  facet normal 1 0 0
    outer loop
      vertex 75 35 -2.5
      vertex 75 -35 2.5
      vertex 75 -35 -2.5
    endloop
  endfacet
  facet normal 0 0 1
    outer loop
      vertex 75 35 2.5
      vertex 67 1 2.5
      vertex 75 -35 2.5
    endloop
  endfacet
  facet normal 0 0 1
    outer loop
      vertex 75 35 2.5
      vertex 51 1 2.5
      vertex 67 1 2.5
    endloop
  endfacet
  facet normal 0 0 1
    outer loop
      vertex 51 1 2.5
      vertex -51 1 2.5
      vertex 51 -1 2.5
    endloop
  endfacet
  facet normal 0 0 1
    outer loop
      vertex 75 35 2.5
      vertex -51 1 2.5
      vertex 51 1 2.5
    endloop
  endfacet
  facet normal -0 0 1
    outer loop
      vertex -75 35 2.5
      vertex -51 1 2.5
      vertex 75 35 2.5
    endloop
  endfacet
  facet normal 0 0 1
    outer loop
      vertex -67 1 2.5
      vertex -75 35 2.5
      vertex -67 -1 2.5
    endloop
  endfacet
  facet normal 0 0 1
    outer loop
      vertex -51 1 2.5
      vertex -75 35 2.5
      vertex -67 1 2.5
    endloop
  endfacet
  facet normal -0 0 1
    outer loop
      vertex 67 -1 2.5
      vertex 75 -35 2.5
      vertex 67 1 2.5
    endloop
  endfacet
  facet normal -0 0 1
    outer loop
      vertex 51 -1 2.5
      vertex 75 -35 2.5
      vertex 67 -1 2.5
    endloop
  endfacet
  facet normal 0 0 1
    outer loop
      vertex -51 -1 2.5
      vertex 51 -1 2.5
      vertex -51 1 2.5
    endloop
  endfacet
  facet normal 0 0 1
    outer loop
      vertex 51 -1 2.5
      vertex -51 -1 2.5
      vertex 75 -35 2.5
    endloop
  endfacet
  facet normal 0 0 1
    outer loop
      vertex -75 -35 2.5
      vertex -51 -1 2.5
      vertex -67 -1 2.5
    endloop
  endfacet
  facet normal 0 0 1
    outer loop
      vertex -51 -1 2.5
      vertex -75 -35 2.5
      vertex 75 -35 2.5
    endloop
  endfacet
  facet normal 0 0 1
    outer loop
      vertex -75 -35 2.5
      vertex -67 -1 2.5
      vertex -75 35 2.5
    endloop
  endfacet
  facet normal 0 0 -1
    outer loop
      vertex 75 -35 -2.5
      vertex 67 -1 -2.5
      vertex 75 35 -2.5
    endloop
  endfacet
  facet normal 0 0 -1
    outer loop
      vertex 75 -35 -2.5
      vertex 51 -1 -2.5
      vertex 67 -1 -2.5
    endloop
  endfacet
  facet normal 0 0 -1
    outer loop
      vertex 51 -1 -2.5
      vertex -51 -1 -2.5
      vertex 51 1 -2.5
    endloop
  endfacet
  facet normal 0 0 -1
    outer loop
      vertex 75 -35 -2.5
      vertex -51 -1 -2.5
      vertex 51 -1 -2.5
    endloop
  endfacet
  facet normal 0 0 -1
    outer loop
      vertex -75 -35 -2.5
      vertex -51 -1 -2.5
      vertex 75 -35 -2.5
    endloop
  endfacet
  facet normal -0 0 -1
    outer loop
      vertex -67 -1 -2.5
      vertex -75 -35 -2.5
      vertex -67 1 -2.5
    endloop
  endfacet
  facet normal -0 0 -1
    outer loop
      vertex -51 -1 -2.5
      vertex -75 -35 -2.5
      vertex -67 -1 -2.5
    endloop
  endfacet
  facet normal 0 0 -1
    outer loop
      vertex 67 1 -2.5
      vertex 75 35 -2.5
      vertex 67 -1 -2.5
    endloop
  endfacet
  facet normal 0 0 -1
    outer loop
      vertex 51 1 -2.5
      vertex 75 35 -2.5
      vertex 67 1 -2.5
    endloop
  endfacet
  facet normal 0 0 -1
    outer loop
      vertex -51 1 -2.5
      vertex 51 1 -2.5
      vertex -51 -1 -2.5
    endloop
  endfacet
  facet normal 0 0 -1
    outer loop
      vertex 51 1 -2.5
      vertex -51 1 -2.5
      vertex 75 35 -2.5
    endloop
  endfacet
  facet normal 0 0 -1
    outer loop
      vertex -75 35 -2.5
      vertex -51 1 -2.5
      vertex -67 1 -2.5
    endloop
  endfacet
  facet normal 0 0 -1
    outer loop
      vertex -51 1 -2.5
      vertex -75 35 -2.5
      vertex 75 35 -2.5
    endloop
  endfacet
  facet normal 0 0 -1
    outer loop
      vertex -75 35 -2.5
      vertex -67 1 -2.5
      vertex -75 -35 -2.5
    endloop
  endfacet
  facet normal -1 0 0
    outer loop
      vertex -75 -35 -2.5
      vertex -75 35 2.5
      vertex -75 35 -2.5
    endloop
  endfacet
  facet normal -1 -0 0
    outer loop
      vertex -75 35 2.5
      vertex -75 -35 -2.5
      vertex -75 -35 2.5
    endloop
  endfacet
  facet normal 0 1 -0
    outer loop
      vertex 75 35 -2.5
      vertex -75 35 2.5
      vertex 75 35 2.5
    endloop
  endfacet
  facet normal 0 1 0
    outer loop
      vertex -75 35 2.5
      vertex 75 35 -2.5
      vertex -75 35 -2.5
    endloop
  endfacet
  facet normal 0 -1 0
    outer loop
      vertex -75 -35 -2.5
      vertex 75 -35 2.5
      vertex -75 -35 2.5
    endloop
  endfacet
  facet normal 0 -1 -0
    outer loop
      vertex 75 -35 2.5
      vertex -75 -35 -2.5
      vertex 75 -35 -2.5
    endloop
  endfacet
  facet normal -1 0 0
    outer loop
      vertex -51 -1 -2.5
      vertex -51 1 2.5
      vertex -51 1 -2.5
    endloop
  endfacet
  facet normal -1 -0 0
    outer loop
      vertex -51 1 2.5
      vertex -51 -1 -2.5
      vertex -51 -1 2.5
    endloop
  endfacet
  facet normal 1 -0 0
    outer loop
      vertex -67 -1 2.5
      vertex -67 1 -2.5
      vertex -67 1 2.5
    endloop
  endfacet
  facet normal 1 0 0
    outer loop
      vertex -67 1 -2.5
      vertex -67 -1 2.5
      vertex -67 -1 -2.5
    endloop
  endfacet
  facet normal 0 -1 0
    outer loop
      vertex -67 1 -2.5
      vertex -51 1 2.5
      vertex -67 1 2.5
    endloop
  endfacet
  facet normal 0 -1 -0
    outer loop
      vertex -51 1 2.5
      vertex -67 1 -2.5
      vertex -51 1 -2.5
    endloop
  endfacet
  facet normal 0 1 -0
    outer loop
      vertex -51 -1 -2.5
      vertex -67 -1 2.5
      vertex -51 -1 2.5
    endloop
  endfacet
  facet normal 0 1 0
    outer loop
      vertex -67 -1 2.5
      vertex -51 -1 -2.5
      vertex -67 -1 -2.5
    endloop
  endfacet
  facet normal -1 0 0
    outer loop
      vertex 67 -1 -2.5
      vertex 67 1 2.5
      vertex 67 1 -2.5
    endloop
  endfacet
  facet normal -1 -0 0
    outer loop
      vertex 67 1 2.5
      vertex 67 -1 -2.5
      vertex 67 -1 2.5
    endloop
  endfacet
  facet normal 1 -0 0
    outer loop
      vertex 51 -1 2.5
      vertex 51 1 -2.5
      vertex 51 1 2.5
    endloop
  endfacet
  facet normal 1 0 0
    outer loop
      vertex 51 1 -2.5
      vertex 51 -1 2.5
      vertex 51 -1 -2.5
    endloop
  endfacet
  facet normal 0 -1 0
    outer loop
      vertex 51 1 -2.5
      vertex 67 1 2.5
      vertex 51 1 2.5
    endloop
  endfacet
  facet normal 0 -1 -0
    outer loop
      vertex 67 1 2.5
      vertex 51 1 -2.5
      vertex 67 1 -2.5
    endloop
  endfacet
  facet normal 0 1 -0
    outer loop
      vertex 67 -1 -2.5
      vertex 51 -1 2.5
      vertex 67 -1 2.5
    endloop
  endfacet
  facet normal 0 1 0
    outer loop
      vertex 51 -1 2.5
      vertex 67 -1 -2.5
      vertex 51 -1 -2.5
    endloop
  endfacet
endsolid OpenSCAD_Model
