solid OpenSCAD_Model
  facet normal 0.997859 0.0653987 0
    outer loop
      vertex 33 0 47.5
      vertex 32.7177 4.30736 -47.5
      vertex 32.7177 4.30736 47.5
    endloop
  endfacet
  facet normal 0.997859 0.0653987 0
    outer loop
      vertex 32.7177 4.30736 -47.5
      vertex 33 0 47.5
      vertex 33 0 -47.5
    endloop
  endfacet
  facet normal 0.980787 0.195084 0
    outer loop
      vertex 32.7177 4.30736 47.5
      vertex 31.8756 8.54103 -47.5
      vertex 31.8756 8.54103 47.5
    endloop
  endfacet
  facet normal 0.980787 0.195084 0
    outer loop
      vertex 31.8756 8.54103 -47.5
      vertex 32.7177 4.30736 47.5
      vertex 32.7177 4.30736 -47.5
    endloop
  endfacet
  facet normal 0.946926 0.321451 0
    outer loop
      vertex 31.8756 8.54103 47.5
      vertex 30.488 12.6286 -47.5
      vertex 30.488 12.6286 47.5
    endloop
  endfacet
  facet normal 0.946926 0.321451 0
    outer loop
      vertex 30.488 12.6286 -47.5
      vertex 31.8756 8.54103 47.5
      vertex 31.8756 8.54103 -47.5
    endloop
  endfacet
  facet normal 0.896869 0.442296 0
    outer loop
      vertex 30.488 12.6286 47.5
      vertex 28.5788 16.5 -47.5
      vertex 28.5788 16.5 47.5
    endloop
  endfacet
  facet normal 0.896869 0.442296 0
    outer loop
      vertex 28.5788 16.5 -47.5
      vertex 30.488 12.6286 47.5
      vertex 30.488 12.6286 -47.5
    endloop
  endfacet
  facet normal 0.831476 0.555561 0
    outer loop
      vertex 28.5788 16.5 47.5
      vertex 26.1807 20.0891 -47.5
      vertex 26.1807 20.0891 47.5
    endloop
  endfacet
  facet normal 0.831476 0.555561 0
    outer loop
      vertex 26.1807 20.0891 -47.5
      vertex 28.5788 16.5 47.5
      vertex 28.5788 16.5 -47.5
    endloop
  endfacet
  facet normal 0.751833 0.659354 0
    outer loop
      vertex 26.1807 20.0891 47.5
      vertex 23.3345 23.3345 -47.5
      vertex 23.3345 23.3345 47.5
    endloop
  endfacet
  facet normal 0.751833 0.659354 0
    outer loop
      vertex 23.3345 23.3345 -47.5
      vertex 26.1807 20.0891 47.5
      vertex 26.1807 20.0891 -47.5
    endloop
  endfacet
  facet normal 0.659354 0.751833 -0
    outer loop
      vertex 23.3345 23.3345 -47.5
      vertex 20.0891 26.1807 47.5
      vertex 23.3345 23.3345 47.5
    endloop
  endfacet
  facet normal 0.659354 0.751833 0
    outer loop
      vertex 20.0891 26.1807 47.5
      vertex 23.3345 23.3345 -47.5
      vertex 20.0891 26.1807 -47.5
    endloop
  endfacet
  facet normal 0.555561 0.831476 -0
    outer loop
      vertex 20.0891 26.1807 -47.5
      vertex 16.5 28.5788 47.5
      vertex 20.0891 26.1807 47.5
    endloop
  endfacet
  facet normal 0.555561 0.831476 0
    outer loop
      vertex 16.5 28.5788 47.5
      vertex 20.0891 26.1807 -47.5
      vertex 16.5 28.5788 -47.5
    endloop
  endfacet
  facet normal 0.442296 0.896869 -0
    outer loop
      vertex 16.5 28.5788 -47.5
      vertex 12.6286 30.488 47.5
      vertex 16.5 28.5788 47.5
    endloop
  endfacet
  facet normal 0.442296 0.896869 0
    outer loop
      vertex 12.6286 30.488 47.5
      vertex 16.5 28.5788 -47.5
      vertex 12.6286 30.488 -47.5
    endloop
  endfacet
  facet normal 0.321451 0.946926 -0
    outer loop
      vertex 12.6286 30.488 -47.5
      vertex 8.54103 31.8756 47.5
      vertex 12.6286 30.488 47.5
    endloop
  endfacet
  facet normal 0.321451 0.946926 0
    outer loop
      vertex 8.54103 31.8756 47.5
      vertex 12.6286 30.488 -47.5
      vertex 8.54103 31.8756 -47.5
    endloop
  endfacet
  facet normal 0.195084 0.980787 -0
    outer loop
      vertex 8.54103 31.8756 -47.5
      vertex 4.30736 32.7177 47.5
      vertex 8.54103 31.8756 47.5
    endloop
  endfacet
  facet normal 0.195084 0.980787 0
    outer loop
      vertex 4.30736 32.7177 47.5
      vertex 8.54103 31.8756 -47.5
      vertex 4.30736 32.7177 -47.5
    endloop
  endfacet
  facet normal 0.0653987 0.997859 -0
    outer loop
      vertex 4.30736 32.7177 -47.5
      vertex 0 33 47.5
      vertex 4.30736 32.7177 47.5
    endloop
  endfacet
  facet normal 0.0653987 0.997859 0
    outer loop
      vertex 0 33 47.5
      vertex 4.30736 32.7177 -47.5
      vertex 0 33 -47.5
    endloop
  endfacet
  facet normal -0.0653987 0.997859 0
    outer loop
      vertex 0 33 -47.5
      vertex -4.30736 32.7177 47.5
      vertex 0 33 47.5
    endloop
  endfacet
  facet normal -0.0653987 0.997859 0
    outer loop
      vertex -4.30736 32.7177 47.5
      vertex 0 33 -47.5
      vertex -4.30736 32.7177 -47.5
    endloop
  endfacet
  facet normal -0.195084 0.980787 0
    outer loop
      vertex -4.30736 32.7177 -47.5
      vertex -8.54103 31.8756 47.5
      vertex -4.30736 32.7177 47.5
    endloop
  endfacet
  facet normal -0.195084 0.980787 0
    outer loop
      vertex -8.54103 31.8756 47.5
      vertex -4.30736 32.7177 -47.5
      vertex -8.54103 31.8756 -47.5
    endloop
  endfacet
  facet normal -0.321451 0.946926 0
    outer loop
      vertex -8.54103 31.8756 -47.5
      vertex -12.6286 30.488 47.5
      vertex -8.54103 31.8756 47.5
    endloop
  endfacet
  facet normal -0.321451 0.946926 0
    outer loop
      vertex -12.6286 30.488 47.5
      vertex -8.54103 31.8756 -47.5
      vertex -12.6286 30.488 -47.5
    endloop
  endfacet
  facet normal -0.442296 0.896869 0
    outer loop
      vertex -12.6286 30.488 -47.5
      vertex -16.5 28.5788 47.5
      vertex -12.6286 30.488 47.5
    endloop
  endfacet
  facet normal -0.442296 0.896869 0
    outer loop
      vertex -16.5 28.5788 47.5
      vertex -12.6286 30.488 -47.5
      vertex -16.5 28.5788 -47.5
    endloop
  endfacet
  facet normal -0.555561 0.831476 0
    outer loop
      vertex -16.5 28.5788 -47.5
      vertex -20.0891 26.1807 47.5
      vertex -16.5 28.5788 47.5
    endloop
  endfacet
  facet normal -0.555561 0.831476 0
    outer loop
      vertex -20.0891 26.1807 47.5
      vertex -16.5 28.5788 -47.5
      vertex -20.0891 26.1807 -47.5
    endloop
  endfacet
  facet normal -0.659354 0.751833 0
    outer loop
      vertex -20.0891 26.1807 -47.5
      vertex -23.3345 23.3345 47.5
      vertex -20.0891 26.1807 47.5
    endloop
  endfacet
  facet normal -0.659354 0.751833 0
    outer loop
      vertex -23.3345 23.3345 47.5
      vertex -20.0891 26.1807 -47.5
      vertex -23.3345 23.3345 -47.5
    endloop
  endfacet
  facet normal -0.751833 0.659354 0
    outer loop
      vertex -26.1807 20.0891 -47.5
      vertex -23.3345 23.3345 47.5
      vertex -23.3345 23.3345 -47.5
    endloop
  endfacet
  facet normal -0.751833 0.659354 0
    outer loop
      vertex -23.3345 23.3345 47.5
      vertex -26.1807 20.0891 -47.5
      vertex -26.1807 20.0891 47.5
    endloop
  endfacet
  facet normal -0.831476 0.555561 0
    outer loop
      vertex -28.5788 16.5 -47.5
      vertex -26.1807 20.0891 47.5
      vertex -26.1807 20.0891 -47.5
    endloop
  endfacet
  facet normal -0.831476 0.555561 0
    outer loop
      vertex -26.1807 20.0891 47.5
      vertex -28.5788 16.5 -47.5
      vertex -28.5788 16.5 47.5
    endloop
  endfacet
  facet normal -0.896869 0.442296 0
    outer loop
      vertex -30.488 12.6286 -47.5
      vertex -28.5788 16.5 47.5
      vertex -28.5788 16.5 -47.5
    endloop
  endfacet
  facet normal -0.896869 0.442296 0
    outer loop
      vertex -28.5788 16.5 47.5
      vertex -30.488 12.6286 -47.5
      vertex -30.488 12.6286 47.5
    endloop
  endfacet
  facet normal -0.946926 0.321451 0
    outer loop
      vertex -31.8756 8.54103 -47.5
      vertex -30.488 12.6286 47.5
      vertex -30.488 12.6286 -47.5
    endloop
  endfacet
  facet normal -0.946926 0.321451 0
    outer loop
      vertex -30.488 12.6286 47.5
      vertex -31.8756 8.54103 -47.5
      vertex -31.8756 8.54103 47.5
    endloop
  endfacet
  facet normal -0.980787 0.195084 0
    outer loop
      vertex -32.7177 4.30736 -47.5
      vertex -31.8756 8.54103 47.5
      vertex -31.8756 8.54103 -47.5
    endloop
  endfacet
  facet normal -0.980787 0.195084 0
    outer loop
      vertex -31.8756 8.54103 47.5
      vertex -32.7177 4.30736 -47.5
      vertex -32.7177 4.30736 47.5
    endloop
  endfacet
  facet normal -0.997859 0.0653987 0
    outer loop
      vertex -33 -0 -47.5
      vertex -32.7177 4.30736 47.5
      vertex -32.7177 4.30736 -47.5
    endloop
  endfacet
  facet normal -0.997859 0.0653987 0
    outer loop
      vertex -32.7177 4.30736 47.5
      vertex -33 -0 -47.5
      vertex -33 -0 47.5
    endloop
  endfacet
  facet normal -0.997859 -0.0653987 0
    outer loop
      vertex -32.7177 -4.30736 -47.5
      vertex -33 -0 47.5
      vertex -33 -0 -47.5
    endloop
  endfacet
  facet normal -0.997859 -0.0653987 0
    outer loop
      vertex -33 -0 47.5
      vertex -32.7177 -4.30736 -47.5
      vertex -32.7177 -4.30736 47.5
    endloop
  endfacet
  facet normal -0.980787 -0.195084 0
    outer loop
      vertex -31.8756 -8.54103 -47.5
      vertex -32.7177 -4.30736 47.5
      vertex -32.7177 -4.30736 -47.5
    endloop
  endfacet
  facet normal -0.980787 -0.195084 0
    outer loop
      vertex -32.7177 -4.30736 47.5
      vertex -31.8756 -8.54103 -47.5
      vertex -31.8756 -8.54103 47.5
    endloop
  endfacet
  facet normal -0.946926 -0.321451 0
    outer loop
      vertex -30.488 -12.6286 -47.5
      vertex -31.8756 -8.54103 47.5
      vertex -31.8756 -8.54103 -47.5
    endloop
  endfacet
  facet normal -0.946926 -0.321451 0
    outer loop
      vertex -31.8756 -8.54103 47.5
      vertex -30.488 -12.6286 -47.5
      vertex -30.488 -12.6286 47.5
    endloop
  endfacet
  facet normal -0.896869 -0.442296 0
    outer loop
      vertex -28.5788 -16.5 -47.5
      vertex -30.488 -12.6286 47.5
      vertex -30.488 -12.6286 -47.5
    endloop
  endfacet
  facet normal -0.896869 -0.442296 0
    outer loop
      vertex -30.488 -12.6286 47.5
      vertex -28.5788 -16.5 -47.5
      vertex -28.5788 -16.5 47.5
    endloop
  endfacet
  facet normal -0.831476 -0.555561 0
    outer loop
      vertex -26.1807 -20.0891 -47.5
      vertex -28.5788 -16.5 47.5
      vertex -28.5788 -16.5 -47.5
    endloop
  endfacet
  facet normal -0.831476 -0.555561 0
    outer loop
      vertex -28.5788 -16.5 47.5
      vertex -26.1807 -20.0891 -47.5
      vertex -26.1807 -20.0891 47.5
    endloop
  endfacet
  facet normal -0.751833 -0.659354 0
    outer loop
      vertex -23.3345 -23.3345 -47.5
      vertex -26.1807 -20.0891 47.5
      vertex -26.1807 -20.0891 -47.5
    endloop
  endfacet
  facet normal -0.751833 -0.659354 0
    outer loop
      vertex -26.1807 -20.0891 47.5
      vertex -23.3345 -23.3345 -47.5
      vertex -23.3345 -23.3345 47.5
    endloop
  endfacet
  facet normal -0.659354 -0.751833 0
    outer loop
      vertex -23.3345 -23.3345 -47.5
      vertex -20.0891 -26.1807 47.5
      vertex -23.3345 -23.3345 47.5
    endloop
  endfacet
  facet normal -0.659354 -0.751833 -0
    outer loop
      vertex -20.0891 -26.1807 47.5
      vertex -23.3345 -23.3345 -47.5
      vertex -20.0891 -26.1807 -47.5
    endloop
  endfacet
  facet normal -0.555561 -0.831476 0
    outer loop
      vertex -20.0891 -26.1807 -47.5
      vertex -16.5 -28.5788 47.5
      vertex -20.0891 -26.1807 47.5
    endloop
  endfacet
  facet normal -0.555561 -0.831476 -0
    outer loop
      vertex -16.5 -28.5788 47.5
      vertex -20.0891 -26.1807 -47.5
      vertex -16.5 -28.5788 -47.5
    endloop
  endfacet
  facet normal -0.442296 -0.896869 0
    outer loop
      vertex -16.5 -28.5788 -47.5
      vertex -12.6286 -30.488 47.5
      vertex -16.5 -28.5788 47.5
    endloop
  endfacet
  facet normal -0.442296 -0.896869 -0
    outer loop
      vertex -12.6286 -30.488 47.5
      vertex -16.5 -28.5788 -47.5
      vertex -12.6286 -30.488 -47.5
    endloop
  endfacet
  facet normal -0.321451 -0.946926 0
    outer loop
      vertex -12.6286 -30.488 -47.5
      vertex -8.54103 -31.8756 47.5
      vertex -12.6286 -30.488 47.5
    endloop
  endfacet
  facet normal -0.321451 -0.946926 -0
    outer loop
      vertex -8.54103 -31.8756 47.5
      vertex -12.6286 -30.488 -47.5
      vertex -8.54103 -31.8756 -47.5
    endloop
  endfacet
  facet normal -0.195084 -0.980787 0
    outer loop
      vertex -8.54103 -31.8756 -47.5
      vertex -4.30736 -32.7177 47.5
      vertex -8.54103 -31.8756 47.5
    endloop
  endfacet
  facet normal -0.195084 -0.980787 -0
    outer loop
      vertex -4.30736 -32.7177 47.5
      vertex -8.54103 -31.8756 -47.5
      vertex -4.30736 -32.7177 -47.5
    endloop
  endfacet
  facet normal -0.0653987 -0.997859 0
    outer loop
      vertex -4.30736 -32.7177 -47.5
      vertex -0 -33 47.5
      vertex -4.30736 -32.7177 47.5
    endloop
  endfacet
  facet normal -0.0653987 -0.997859 -0
    outer loop
      vertex -0 -33 47.5
      vertex -4.30736 -32.7177 -47.5
      vertex -0 -33 -47.5
    endloop
  endfacet
  facet normal 0.0653987 -0.997859 0
    outer loop
      vertex -0 -33 -47.5
      vertex 4.30736 -32.7177 47.5
      vertex -0 -33 47.5
    endloop
  endfacet
  facet normal 0.0653987 -0.997859 0
    outer loop
      vertex 4.30736 -32.7177 47.5
      vertex -0 -33 -47.5
      vertex 4.30736 -32.7177 -47.5
    endloop
  endfacet
  facet normal 0.195084 -0.980787 0
    outer loop
      vertex 4.30736 -32.7177 -47.5
      vertex 8.54103 -31.8756 47.5
      vertex 4.30736 -32.7177 47.5
    endloop
  endfacet
  facet normal 0.195084 -0.980787 0
    outer loop
      vertex 8.54103 -31.8756 47.5
      vertex 4.30736 -32.7177 -47.5
      vertex 8.54103 -31.8756 -47.5
    endloop
  endfacet
  facet normal 0.321451 -0.946926 0
    outer loop
      vertex 8.54103 -31.8756 -47.5
      vertex 12.6286 -30.488 47.5
      vertex 8.54103 -31.8756 47.5
    endloop
  endfacet
  facet normal 0.321451 -0.946926 0
    outer loop
      vertex 12.6286 -30.488 47.5
      vertex 8.54103 -31.8756 -47.5
      vertex 12.6286 -30.488 -47.5
    endloop
  endfacet
  facet normal 0.442296 -0.896869 0
    outer loop
      vertex 12.6286 -30.488 -47.5
      vertex 16.5 -28.5788 47.5
      vertex 12.6286 -30.488 47.5
    endloop
  endfacet
  facet normal 0.442296 -0.896869 0
    outer loop
      vertex 16.5 -28.5788 47.5
      vertex 12.6286 -30.488 -47.5
      vertex 16.5 -28.5788 -47.5
    endloop
  endfacet
  facet normal 0.555561 -0.831476 0
    outer loop
      vertex 16.5 -28.5788 -47.5
      vertex 20.0891 -26.1807 47.5
      vertex 16.5 -28.5788 47.5
    endloop
  endfacet
  facet normal 0.555561 -0.831476 0
    outer loop
      vertex 20.0891 -26.1807 47.5
      vertex 16.5 -28.5788 -47.5
      vertex 20.0891 -26.1807 -47.5
    endloop
  endfacet
  facet normal 0.659354 -0.751833 0
    outer loop
      vertex 20.0891 -26.1807 -47.5
      vertex 23.3345 -23.3345 47.5
      vertex 20.0891 -26.1807 47.5
    endloop
  endfacet
  facet normal 0.659354 -0.751833 0
    outer loop
      vertex 23.3345 -23.3345 47.5
      vertex 20.0891 -26.1807 -47.5
      vertex 23.3345 -23.3345 -47.5
    endloop
  endfacet
  facet normal 0.751833 -0.659354 0
    outer loop
      vertex 23.3345 -23.3345 47.5
      vertex 26.1807 -20.0891 -47.5
      vertex 26.1807 -20.0891 47.5
    endloop
  endfacet
  facet normal 0.751833 -0.659354 0
    outer loop
      vertex 26.1807 -20.0891 -47.5
      vertex 23.3345 -23.3345 47.5
      vertex 23.3345 -23.3345 -47.5
    endloop
  endfacet
  facet normal 0.831476 -0.555561 0
    outer loop
      vertex 26.1807 -20.0891 47.5
      vertex 28.5788 -16.5 -47.5
      vertex 28.5788 -16.5 47.5
    endloop
  endfacet
  facet normal 0.831476 -0.555561 0
    outer loop
      vertex 28.5788 -16.5 -47.5
      vertex 26.1807 -20.0891 47.5
      vertex 26.1807 -20.0891 -47.5
    endloop
  endfacet
  facet normal 0.896869 -0.442296 0
    outer loop
      vertex 28.5788 -16.5 47.5
      vertex 30.488 -12.6286 -47.5
      vertex 30.488 -12.6286 47.5
    endloop
  endfacet
  facet normal 0.896869 -0.442296 0
    outer loop
      vertex 30.488 -12.6286 -47.5
      vertex 28.5788 -16.5 47.5
      vertex 28.5788 -16.5 -47.5
    endloop
  endfacet
  facet normal 0.946926 -0.321451 0
    outer loop
      vertex 30.488 -12.6286 47.5
      vertex 31.8756 -8.54103 -47.5
      vertex 31.8756 -8.54103 47.5
    endloop
  endfacet
  facet normal 0.946926 -0.321451 0
    outer loop
      vertex 31.8756 -8.54103 -47.5
      vertex 30.488 -12.6286 47.5
      vertex 30.488 -12.6286 -47.5
    endloop
  endfacet
  facet normal 0.980787 -0.195084 0
    outer loop
      vertex 31.8756 -8.54103 47.5
      vertex 32.7177 -4.30736 -47.5
      vertex 32.7177 -4.30736 47.5
    endloop
  endfacet
  facet normal 0.980787 -0.195084 0
    outer loop
      vertex 32.7177 -4.30736 -47.5
      vertex 31.8756 -8.54103 47.5
      vertex 31.8756 -8.54103 -47.5
    endloop
  endfacet
  facet normal 0.997859 -0.0653987 0
    outer loop
      vertex 32.7177 -4.30736 47.5
      vertex 33 0 -47.5
      vertex 33 0 47.5
    endloop
  endfacet
  facet normal 0.997859 -0.0653987 0
    outer loop
      vertex 33 0 -47.5
      vertex 32.7177 -4.30736 47.5
      vertex 32.7177 -4.30736 -47.5
    endloop
  endfacet
  facet normal 0 0 -1
    outer loop
      vertex 32.7177 -4.30736 -47.5
      vertex 32.7177 4.30736 -47.5
      vertex 33 0 -47.5
    endloop
  endfacet
  facet normal 0 0 -1
    outer loop
      vertex 31.8756 -8.54103 -47.5
      vertex 32.7177 4.30736 -47.5
      vertex 32.7177 -4.30736 -47.5
    endloop
  endfacet
  facet normal 0 0 -1
    outer loop
      vertex 31.8756 -8.54103 -47.5
      vertex 31.8756 8.54103 -47.5
      vertex 32.7177 4.30736 -47.5
    endloop
  endfacet
  facet normal 0 0 -1
    outer loop
      vertex 30.488 -12.6286 -47.5
      vertex 31.8756 8.54103 -47.5
      vertex 31.8756 -8.54103 -47.5
    endloop
  endfacet
  facet normal 0 0 -1
    outer loop
      vertex 30.488 -12.6286 -47.5
      vertex 30.488 12.6286 -47.5
      vertex 31.8756 8.54103 -47.5
    endloop
  endfacet
  facet normal 0 0 -1
    outer loop
      vertex 28.5788 -16.5 -47.5
      vertex 30.488 12.6286 -47.5
      vertex 30.488 -12.6286 -47.5
    endloop
  endfacet
  facet normal 0 0 -1
    outer loop
      vertex 28.5788 -16.5 -47.5
      vertex 28.5788 16.5 -47.5
      vertex 30.488 12.6286 -47.5
    endloop
  endfacet
  facet normal 0 0 -1
    outer loop
      vertex 26.1807 -20.0891 -47.5
      vertex 28.5788 16.5 -47.5
      vertex 28.5788 -16.5 -47.5
    endloop
  endfacet
  facet normal 0 0 -1
    outer loop
      vertex 26.1807 -20.0891 -47.5
      vertex 26.1807 20.0891 -47.5
      vertex 28.5788 16.5 -47.5
    endloop
  endfacet
  facet normal 0 0 -1
    outer loop
      vertex 23.3345 -23.3345 -47.5
      vertex 26.1807 20.0891 -47.5
      vertex 26.1807 -20.0891 -47.5
    endloop
  endfacet
  facet normal 0 0 -1
    outer loop
      vertex 23.3345 -23.3345 -47.5
      vertex 23.3345 23.3345 -47.5
      vertex 26.1807 20.0891 -47.5
    endloop
  endfacet
  facet normal 0 0 -1
    outer loop
      vertex 20.0891 -26.1807 -47.5
      vertex 23.3345 23.3345 -47.5
      vertex 23.3345 -23.3345 -47.5
    endloop
  endfacet
  facet normal 0 0 -1
    outer loop
      vertex 20.0891 -26.1807 -47.5
      vertex 20.0891 26.1807 -47.5
      vertex 23.3345 23.3345 -47.5
    endloop
  endfacet
  facet normal 0 0 -1
    outer loop
      vertex 16.5 -28.5788 -47.5
      vertex 20.0891 26.1807 -47.5
      vertex 20.0891 -26.1807 -47.5
    endloop
  endfacet
  facet normal 0 0 -1
    outer loop
      vertex 16.5 -28.5788 -47.5
      vertex 16.5 28.5788 -47.5
      vertex 20.0891 26.1807 -47.5
    endloop
  endfacet
  facet normal 0 0 -1
    outer loop
      vertex 12.6286 -30.488 -47.5
      vertex 16.5 28.5788 -47.5
      vertex 16.5 -28.5788 -47.5
    endloop
  endfacet
  facet normal 0 0 -1
    outer loop
      vertex 12.6286 -30.488 -47.5
      vertex 12.6286 30.488 -47.5
      vertex 16.5 28.5788 -47.5
    endloop
  endfacet
  facet normal 0 0 -1
    outer loop
      vertex 8.54103 -31.8756 -47.5
      vertex 12.6286 30.488 -47.5
      vertex 12.6286 -30.488 -47.5
    endloop
  endfacet
  facet normal 0 0 -1
    outer loop
      vertex 8.54103 -31.8756 -47.5
      vertex 8.54103 31.8756 -47.5
      vertex 12.6286 30.488 -47.5
    endloop
  endfacet
  facet normal 0 0 -1
    outer loop
      vertex 4.30736 -32.7177 -47.5
      vertex 8.54103 31.8756 -47.5
      vertex 8.54103 -31.8756 -47.5
    endloop
  endfacet
  facet normal 0 0 -1
    outer loop
      vertex 4.30736 -32.7177 -47.5
      vertex 4.30736 32.7177 -47.5
      vertex 8.54103 31.8756 -47.5
    endloop
  endfacet
  facet normal 0 0 -1
    outer loop
      vertex -0 -33 -47.5
      vertex 4.30736 32.7177 -47.5
      vertex 4.30736 -32.7177 -47.5
    endloop
  endfacet
  facet normal 0 0 -1
    outer loop
      vertex -0 -33 -47.5
      vertex 0 33 -47.5
      vertex 4.30736 32.7177 -47.5
    endloop
  endfacet
  facet normal 0 0 -1
    outer loop
      vertex -4.30736 -32.7177 -47.5
      vertex 0 33 -47.5
      vertex -0 -33 -47.5
    endloop
  endfacet
  facet normal 0 0 -1
    outer loop
      vertex -4.30736 -32.7177 -47.5
      vertex -4.30736 32.7177 -47.5
      vertex 0 33 -47.5
    endloop
  endfacet
  facet normal 0 0 -1
    outer loop
      vertex -8.54103 -31.8756 -47.5
      vertex -4.30736 32.7177 -47.5
      vertex -4.30736 -32.7177 -47.5
    endloop
  endfacet
  facet normal 0 0 -1
    outer loop
      vertex -8.54103 -31.8756 -47.5
      vertex -8.54103 31.8756 -47.5
      vertex -4.30736 32.7177 -47.5
    endloop
  endfacet
  facet normal 0 0 -1
    outer loop
      vertex -12.6286 -30.488 -47.5
      vertex -8.54103 31.8756 -47.5
      vertex -8.54103 -31.8756 -47.5
    endloop
  endfacet
  facet normal 0 0 -1
    outer loop
      vertex -12.6286 -30.488 -47.5
      vertex -12.6286 30.488 -47.5
      vertex -8.54103 31.8756 -47.5
    endloop
  endfacet
  facet normal 0 0 -1
    outer loop
      vertex -16.5 -28.5788 -47.5
      vertex -12.6286 30.488 -47.5
      vertex -12.6286 -30.488 -47.5
    endloop
  endfacet
  facet normal 0 0 -1
    outer loop
      vertex -16.5 -28.5788 -47.5
      vertex -16.5 28.5788 -47.5
      vertex -12.6286 30.488 -47.5
    endloop
  endfacet
  facet normal 0 0 -1
    outer loop
      vertex -20.0891 -26.1807 -47.5
      vertex -16.5 28.5788 -47.5
      vertex -16.5 -28.5788 -47.5
    endloop
  endfacet
  facet normal 0 0 -1
    outer loop
      vertex -20.0891 -26.1807 -47.5
      vertex -20.0891 26.1807 -47.5
      vertex -16.5 28.5788 -47.5
    endloop
  endfacet
  facet normal 0 0 -1
    outer loop
      vertex -23.3345 -23.3345 -47.5
      vertex -20.0891 26.1807 -47.5
      vertex -20.0891 -26.1807 -47.5
    endloop
  endfacet
  facet normal 0 0 -1
    outer loop
      vertex -23.3345 -23.3345 -47.5
      vertex -23.3345 23.3345 -47.5
      vertex -20.0891 26.1807 -47.5
    endloop
  endfacet
  facet normal 0 0 -1
    outer loop
      vertex -26.1807 -20.0891 -47.5
      vertex -23.3345 23.3345 -47.5
      vertex -23.3345 -23.3345 -47.5
    endloop
  endfacet
  facet normal 0 0 -1
    outer loop
      vertex -26.1807 -20.0891 -47.5
      vertex -26.1807 20.0891 -47.5
      vertex -23.3345 23.3345 -47.5
    endloop
  endfacet
  facet normal 0 0 -1
    outer loop
      vertex -28.5788 -16.5 -47.5
      vertex -26.1807 20.0891 -47.5
      vertex -26.1807 -20.0891 -47.5
    endloop
  endfacet
  facet normal 0 0 -1
    outer loop
      vertex -28.5788 -16.5 -47.5
      vertex -28.5788 16.5 -47.5
      vertex -26.1807 20.0891 -47.5
    endloop
  endfacet
  facet normal 0 0 -1
    outer loop
      vertex -30.488 -12.6286 -47.5
      vertex -28.5788 16.5 -47.5
      vertex -28.5788 -16.5 -47.5
    endloop
  endfacet
  facet normal 0 0 -1
    outer loop
      vertex -30.488 -12.6286 -47.5
      vertex -30.488 12.6286 -47.5
      vertex -28.5788 16.5 -47.5
    endloop
  endfacet
  facet normal 0 0 -1
    outer loop
      vertex -31.8756 -8.54103 -47.5
      vertex -30.488 12.6286 -47.5
      vertex -30.488 -12.6286 -47.5
    endloop
  endfacet
  facet normal 0 0 -1
    outer loop
      vertex -31.8756 -8.54103 -47.5
      vertex -31.8756 8.54103 -47.5
      vertex -30.488 12.6286 -47.5
    endloop
  endfacet
  facet normal 0 0 -1
    outer loop
      vertex -32.7177 -4.30736 -47.5
      vertex -31.8756 8.54103 -47.5
      vertex -31.8756 -8.54103 -47.5
    endloop
  endfacet
  facet normal 0 0 -1
    outer loop
      vertex -32.7177 -4.30736 -47.5
      vertex -32.7177 4.30736 -47.5
      vertex -31.8756 8.54103 -47.5
    endloop
  endfacet
  facet normal 0 -0 -1
    outer loop
      vertex -32.7177 4.30736 -47.5
      vertex -32.7177 -4.30736 -47.5
      vertex -33 -0 -47.5
    endloop
  endfacet
  facet normal 0 0 1
    outer loop
      vertex 32.7177 4.30736 47.5
      vertex 32.7177 -4.30736 47.5
      vertex 33 0 47.5
    endloop
  endfacet
  facet normal 0 0 1
    outer loop
      vertex 31.8756 8.54103 47.5
      vertex 32.7177 -4.30736 47.5
      vertex 32.7177 4.30736 47.5
    endloop
  endfacet
  facet normal 0 0 1
    outer loop
      vertex 31.8756 8.54103 47.5
      vertex 31.8756 -8.54103 47.5
      vertex 32.7177 -4.30736 47.5
    endloop
  endfacet
  facet normal 0 0 1
    outer loop
      vertex 30.488 12.6286 47.5
      vertex 31.8756 -8.54103 47.5
      vertex 31.8756 8.54103 47.5
    endloop
  endfacet
  facet normal 0 0 1
    outer loop
      vertex 30.488 12.6286 47.5
      vertex 30.488 -12.6286 47.5
      vertex 31.8756 -8.54103 47.5
    endloop
  endfacet
  facet normal 0 0 1
    outer loop
      vertex 28.5788 16.5 47.5
      vertex 30.488 -12.6286 47.5
      vertex 30.488 12.6286 47.5
    endloop
  endfacet
  facet normal 0 0 1
    outer loop
      vertex 28.5788 16.5 47.5
      vertex 28.5788 -16.5 47.5
      vertex 30.488 -12.6286 47.5
    endloop
  endfacet
  facet normal 0 0 1
    outer loop
      vertex 26.1807 20.0891 47.5
      vertex 28.5788 -16.5 47.5
      vertex 28.5788 16.5 47.5
    endloop
  endfacet
  facet normal 0 0 1
    outer loop
      vertex 26.1807 20.0891 47.5
      vertex 26.1807 -20.0891 47.5
      vertex 28.5788 -16.5 47.5
    endloop
  endfacet
  facet normal 0 0 1
    outer loop
      vertex 23.3345 23.3345 47.5
      vertex 26.1807 -20.0891 47.5
      vertex 26.1807 20.0891 47.5
    endloop
  endfacet
  facet normal 0 0 1
    outer loop
      vertex 23.3345 23.3345 47.5
      vertex 23.3345 -23.3345 47.5
      vertex 26.1807 -20.0891 47.5
    endloop
  endfacet
  facet normal 0 0 1
    outer loop
      vertex 20.0891 26.1807 47.5
      vertex 23.3345 -23.3345 47.5
      vertex 23.3345 23.3345 47.5
    endloop
  endfacet
  facet normal 0 0 1
    outer loop
      vertex 20.0891 26.1807 47.5
      vertex 20.0891 -26.1807 47.5
      vertex 23.3345 -23.3345 47.5
    endloop
  endfacet
  facet normal 0 0 1
    outer loop
      vertex 16.5 28.5788 47.5
      vertex 20.0891 -26.1807 47.5
      vertex 20.0891 26.1807 47.5
    endloop
  endfacet
  facet normal 0 0 1
    outer loop
      vertex 16.5 28.5788 47.5
      vertex 16.5 -28.5788 47.5
      vertex 20.0891 -26.1807 47.5
    endloop
  endfacet
  facet normal 0 0 1
    outer loop
      vertex 12.6286 30.488 47.5
      vertex 16.5 -28.5788 47.5
      vertex 16.5 28.5788 47.5
    endloop
  endfacet
  facet normal 0 0 1
    outer loop
      vertex 12.6286 30.488 47.5
      vertex 12.6286 -30.488 47.5
      vertex 16.5 -28.5788 47.5
    endloop
  endfacet
  facet normal 0 0 1
    outer loop
      vertex 8.54103 31.8756 47.5
      vertex 12.6286 -30.488 47.5
      vertex 12.6286 30.488 47.5
    endloop
  endfacet
  facet normal 0 0 1
    outer loop
      vertex 8.54103 31.8756 47.5
      vertex 8.54103 -31.8756 47.5
      vertex 12.6286 -30.488 47.5
    endloop
  endfacet
  facet normal 0 0 1
    outer loop
      vertex 4.30736 32.7177 47.5
      vertex 8.54103 -31.8756 47.5
      vertex 8.54103 31.8756 47.5
    endloop
  endfacet
  facet normal 0 0 1
    outer loop
      vertex 4.30736 32.7177 47.5
      vertex 4.30736 -32.7177 47.5
      vertex 8.54103 -31.8756 47.5
    endloop
  endfacet
  facet normal 0 0 1
    outer loop
      vertex 0 33 47.5
      vertex 4.30736 -32.7177 47.5
      vertex 4.30736 32.7177 47.5
    endloop
  endfacet
  facet normal 0 0 1
    outer loop
      vertex 0 33 47.5
      vertex -0 -33 47.5
      vertex 4.30736 -32.7177 47.5
    endloop
  endfacet
  facet normal -0 0 1
    outer loop
      vertex -4.30736 32.7177 47.5
      vertex -0 -33 47.5
      vertex 0 33 47.5
    endloop
  endfacet
  facet normal 0 0 1
    outer loop
      vertex -4.30736 32.7177 47.5
      vertex -4.30736 -32.7177 47.5
      vertex -0 -33 47.5
    endloop
  endfacet
  facet normal -0 0 1
    outer loop
      vertex -8.54103 31.8756 47.5
      vertex -4.30736 -32.7177 47.5
      vertex -4.30736 32.7177 47.5
    endloop
  endfacet
  facet normal 0 0 1
    outer loop
      vertex -8.54103 31.8756 47.5
      vertex -8.54103 -31.8756 47.5
      vertex -4.30736 -32.7177 47.5
    endloop
  endfacet
  facet normal -0 0 1
    outer loop
      vertex -12.6286 30.488 47.5
      vertex -8.54103 -31.8756 47.5
      vertex -8.54103 31.8756 47.5
    endloop
  endfacet
  facet normal 0 0 1
    outer loop
      vertex -12.6286 30.488 47.5
      vertex -12.6286 -30.488 47.5
      vertex -8.54103 -31.8756 47.5
    endloop
  endfacet
  facet normal -0 0 1
    outer loop
      vertex -16.5 28.5788 47.5
      vertex -12.6286 -30.488 47.5
      vertex -12.6286 30.488 47.5
    endloop
  endfacet
  facet normal 0 0 1
    outer loop
      vertex -16.5 28.5788 47.5
      vertex -16.5 -28.5788 47.5
      vertex -12.6286 -30.488 47.5
    endloop
  endfacet
  facet normal -0 0 1
    outer loop
      vertex -20.0891 26.1807 47.5
      vertex -16.5 -28.5788 47.5
      vertex -16.5 28.5788 47.5
    endloop
  endfacet
  facet normal 0 0 1
    outer loop
      vertex -20.0891 26.1807 47.5
      vertex -20.0891 -26.1807 47.5
      vertex -16.5 -28.5788 47.5
    endloop
  endfacet
  facet normal -0 0 1
    outer loop
      vertex -23.3345 23.3345 47.5
      vertex -20.0891 -26.1807 47.5
      vertex -20.0891 26.1807 47.5
    endloop
  endfacet
  facet normal 0 0 1
    outer loop
      vertex -23.3345 23.3345 47.5
      vertex -23.3345 -23.3345 47.5
      vertex -20.0891 -26.1807 47.5
    endloop
  endfacet
  facet normal -0 0 1
    outer loop
      vertex -26.1807 20.0891 47.5
      vertex -23.3345 -23.3345 47.5
      vertex -23.3345 23.3345 47.5
    endloop
  endfacet
  facet normal 0 0 1
    outer loop
      vertex -26.1807 20.0891 47.5
      vertex -26.1807 -20.0891 47.5
      vertex -23.3345 -23.3345 47.5
    endloop
  endfacet
  facet normal -0 0 1
    outer loop
      vertex -28.5788 16.5 47.5
      vertex -26.1807 -20.0891 47.5
      vertex -26.1807 20.0891 47.5
    endloop
  endfacet
  facet normal 0 0 1
    outer loop
      vertex -28.5788 16.5 47.5
      vertex -28.5788 -16.5 47.5
      vertex -26.1807 -20.0891 47.5
    endloop
  endfacet
  facet normal -0 0 1
    outer loop
      vertex -30.488 12.6286 47.5
      vertex -28.5788 -16.5 47.5
      vertex -28.5788 16.5 47.5
    endloop
  endfacet
  facet normal 0 0 1
    outer loop
      vertex -30.488 12.6286 47.5
      vertex -30.488 -12.6286 47.5
      vertex -28.5788 -16.5 47.5
    endloop
  endfacet
  facet normal -0 0 1
    outer loop
      vertex -31.8756 8.54103 47.5
      vertex -30.488 -12.6286 47.5
      vertex -30.488 12.6286 47.5
    endloop
  endfacet
  facet normal 0 0 1
    outer loop
      vertex -31.8756 8.54103 47.5
      vertex -31.8756 -8.54103 47.5
      vertex -30.488 -12.6286 47.5
    endloop
  endfacet
  facet normal -0 0 1
    outer loop
      vertex -32.7177 4.30736 47.5
      vertex -31.8756 -8.54103 47.5
      vertex -31.8756 8.54103 47.5
    endloop
  endfacet
  facet normal 0 0 1
    outer loop
      vertex -32.7177 4.30736 47.5
      vertex -32.7177 -4.30736 47.5
      vertex -31.8756 -8.54103 47.5
    endloop
  endfacet
  facet normal 0 -0 1
    outer loop
      vertex -32.7177 -4.30736 47.5
      vertex -32.7177 4.30736 47.5
      vertex -33 -0 47.5
    endloop
  endfacet
endsolid OpenSCAD_Model
