solid OpenSCAD_Model
  facet normal 1 -0 0
    outer loop
      vertex 40 -85 2.5
      vertex 40 85 -2.5
      vertex 40 85 2.5
    endloop
  endfacet
  facet normal 1 0 0
    outer loop
      vertex 40 85 -2.5
      vertex 40 -85 2.5
      vertex 40 -85 -2.5
    endloop
  endfacet
  facet normal 0 0 1
    outer loop
      vertex 40 85 2.5
      vertex 36 0 2.5
      vertex 40 -85 2.5
    endloop
  endfacet
  facet normal 0 0 1
    outer loop
      vertex 40 85 2.5
      vertex 35.9658 0.522104 2.5
      vertex 36 0 2.5
    endloop
  endfacet
  facet normal 0 0 1
    outer loop
      vertex 40 85 2.5
      vertex 35.8637 1.03528 2.5
      vertex 35.9658 0.522104 2.5
    endloop
  endfacet
  facet normal 0 0 1
    outer loop
      vertex 40 85 2.5
      vertex 35.6955 1.53073 2.5
      vertex 35.8637 1.03528 2.5
    endloop
  endfacet
  facet normal 0 0 1
    outer loop
      vertex 40 85 2.5
      vertex 35.4641 2 2.5
      vertex 35.6955 1.53073 2.5
    endloop
  endfacet
  facet normal 0 0 1
    outer loop
      vertex 40 85 2.5
      vertex 35.1734 2.43505 2.5
      vertex 35.4641 2 2.5
    endloop
  endfacet
  facet normal 0 0 1
    outer loop
      vertex 40 85 2.5
      vertex 34.8284 2.82843 2.5
      vertex 35.1734 2.43505 2.5
    endloop
  endfacet
  facet normal 0 0 1
    outer loop
      vertex 40 85 2.5
      vertex 34.435 3.17341 2.5
      vertex 34.8284 2.82843 2.5
    endloop
  endfacet
  facet normal 0 0 1
    outer loop
      vertex 40 85 2.5
      vertex 34 3.4641 2.5
      vertex 34.435 3.17341 2.5
    endloop
  endfacet
  facet normal 0 0 1
    outer loop
      vertex 40 85 2.5
      vertex 33.5307 3.69552 2.5
      vertex 34 3.4641 2.5
    endloop
  endfacet
  facet normal 0 0 1
    outer loop
      vertex 40 85 2.5
      vertex 33.0353 3.8637 2.5
      vertex 33.5307 3.69552 2.5
    endloop
  endfacet
  facet normal 0 0 1
    outer loop
      vertex 40 85 2.5
      vertex 32.5221 3.96578 2.5
      vertex 33.0353 3.8637 2.5
    endloop
  endfacet
  facet normal 0 0 1
    outer loop
      vertex 40 85 2.5
      vertex 32 4 2.5
      vertex 32.5221 3.96578 2.5
    endloop
  endfacet
  facet normal 0 0 1
    outer loop
      vertex 40 85 2.5
      vertex 31.4779 3.96578 2.5
      vertex 32 4 2.5
    endloop
  endfacet
  facet normal 0 0 1
    outer loop
      vertex 40 85 2.5
      vertex 30.9647 3.8637 2.5
      vertex 31.4779 3.96578 2.5
    endloop
  endfacet
  facet normal 0 0 1
    outer loop
      vertex 40 85 2.5
      vertex 30.4693 3.69552 2.5
      vertex 30.9647 3.8637 2.5
    endloop
  endfacet
  facet normal 0 0 1
    outer loop
      vertex 40 85 2.5
      vertex 30 3.4641 2.5
      vertex 30.4693 3.69552 2.5
    endloop
  endfacet
  facet normal 0 0 1
    outer loop
      vertex 40 85 2.5
      vertex 29.565 3.17341 2.5
      vertex 30 3.4641 2.5
    endloop
  endfacet
  facet normal 0 0 1
    outer loop
      vertex -29.565 3.17341 2.5
      vertex 29.565 3.17341 2.5
      vertex 40 85 2.5
    endloop
  endfacet
  facet normal 0 0 1
    outer loop
      vertex 29.565 3.17341 2.5
      vertex -29.565 3.17341 2.5
      vertex 29.1716 2.82843 2.5
    endloop
  endfacet
  facet normal 0 -0 1
    outer loop
      vertex -29.1716 2.82843 2.5
      vertex 29.1716 2.82843 2.5
      vertex -29.565 3.17341 2.5
    endloop
  endfacet
  facet normal 0 0 1
    outer loop
      vertex 29.1716 2.82843 2.5
      vertex -29.1716 2.82843 2.5
      vertex 28.8266 2.43505 2.5
    endloop
  endfacet
  facet normal 0 -0 1
    outer loop
      vertex -28.8266 2.43505 2.5
      vertex 28.8266 2.43505 2.5
      vertex -29.1716 2.82843 2.5
    endloop
  endfacet
  facet normal 0 0 1
    outer loop
      vertex 28.8266 2.43505 2.5
      vertex -28.8266 2.43505 2.5
      vertex 28.5359 2 2.5
    endloop
  endfacet
  facet normal 0 0 1
    outer loop
      vertex 28.0342 0.522104 2.5
      vertex -28 0 2.5
      vertex 28 0 2.5
    endloop
  endfacet
  facet normal 0 -0 1
    outer loop
      vertex -28.5359 2 2.5
      vertex 28.5359 2 2.5
      vertex -28.8266 2.43505 2.5
    endloop
  endfacet
  facet normal 0 0 1
    outer loop
      vertex 28.0342 0.522104 2.5
      vertex -28.0342 0.522104 2.5
      vertex -28 0 2.5
    endloop
  endfacet
  facet normal 0 0 1
    outer loop
      vertex 28.0342 0.522104 2.5
      vertex -28.1363 1.03528 2.5
      vertex -28.0342 0.522104 2.5
    endloop
  endfacet
  facet normal 0 0 1
    outer loop
      vertex 28.1363 1.03528 2.5
      vertex -28.1363 1.03528 2.5
      vertex 28.0342 0.522104 2.5
    endloop
  endfacet
  facet normal 0 -0 1
    outer loop
      vertex -28.1363 1.03528 2.5
      vertex 28.1363 1.03528 2.5
      vertex -28.3045 1.53073 2.5
    endloop
  endfacet
  facet normal 0 0 1
    outer loop
      vertex 28.3045 1.53073 2.5
      vertex -28.3045 1.53073 2.5
      vertex 28.1363 1.03528 2.5
    endloop
  endfacet
  facet normal 0 -0 1
    outer loop
      vertex -28.3045 1.53073 2.5
      vertex 28.3045 1.53073 2.5
      vertex -28.5359 2 2.5
    endloop
  endfacet
  facet normal 0 0 1
    outer loop
      vertex 28.5359 2 2.5
      vertex -28.5359 2 2.5
      vertex 28.3045 1.53073 2.5
    endloop
  endfacet
  facet normal 0 0 1
    outer loop
      vertex 40 85 2.5
      vertex -30 3.4641 2.5
      vertex -29.565 3.17341 2.5
    endloop
  endfacet
  facet normal -0 0 1
    outer loop
      vertex -40 85 2.5
      vertex -30 3.4641 2.5
      vertex 40 85 2.5
    endloop
  endfacet
  facet normal 0 0 1
    outer loop
      vertex -30 3.4641 2.5
      vertex -40 85 2.5
      vertex -30.4693 3.69552 2.5
    endloop
  endfacet
  facet normal 0 0 1
    outer loop
      vertex -30.4693 3.69552 2.5
      vertex -40 85 2.5
      vertex -30.9647 3.8637 2.5
    endloop
  endfacet
  facet normal 0 0 1
    outer loop
      vertex -30.9647 3.8637 2.5
      vertex -40 85 2.5
      vertex -31.4779 3.96578 2.5
    endloop
  endfacet
  facet normal 0 0 1
    outer loop
      vertex -31.4779 3.96578 2.5
      vertex -40 85 2.5
      vertex -32 4 2.5
    endloop
  endfacet
  facet normal 0 0 1
    outer loop
      vertex -32 4 2.5
      vertex -40 85 2.5
      vertex -32.5221 3.96578 2.5
    endloop
  endfacet
  facet normal 0 0 1
    outer loop
      vertex -32.5221 3.96578 2.5
      vertex -40 85 2.5
      vertex -33.0353 3.8637 2.5
    endloop
  endfacet
  facet normal 0 0 1
    outer loop
      vertex -33.0353 3.8637 2.5
      vertex -40 85 2.5
      vertex -33.5307 3.69552 2.5
    endloop
  endfacet
  facet normal 0 0 1
    outer loop
      vertex -33.5307 3.69552 2.5
      vertex -40 85 2.5
      vertex -34 3.4641 2.5
    endloop
  endfacet
  facet normal 0 0 1
    outer loop
      vertex -34 3.4641 2.5
      vertex -40 85 2.5
      vertex -34.435 3.17341 2.5
    endloop
  endfacet
  facet normal 0 0 1
    outer loop
      vertex -35.9658 0.522104 2.5
      vertex -40 85 2.5
      vertex -36 0 2.5
    endloop
  endfacet
  facet normal 0 0 1
    outer loop
      vertex -35.8637 1.03528 2.5
      vertex -40 85 2.5
      vertex -35.9658 0.522104 2.5
    endloop
  endfacet
  facet normal 0 0 1
    outer loop
      vertex -35.6955 1.53073 2.5
      vertex -40 85 2.5
      vertex -35.8637 1.03528 2.5
    endloop
  endfacet
  facet normal 0 0 1
    outer loop
      vertex -35.4641 2 2.5
      vertex -40 85 2.5
      vertex -35.6955 1.53073 2.5
    endloop
  endfacet
  facet normal 0 0 1
    outer loop
      vertex -35.1734 2.43505 2.5
      vertex -40 85 2.5
      vertex -35.4641 2 2.5
    endloop
  endfacet
  facet normal 0 0 1
    outer loop
      vertex -34.8284 2.82843 2.5
      vertex -40 85 2.5
      vertex -35.1734 2.43505 2.5
    endloop
  endfacet
  facet normal 0 0 1
    outer loop
      vertex -34.435 3.17341 2.5
      vertex -40 85 2.5
      vertex -34.8284 2.82843 2.5
    endloop
  endfacet
  facet normal -0 0 1
    outer loop
      vertex 35.9658 -0.522104 2.5
      vertex 40 -85 2.5
      vertex 36 0 2.5
    endloop
  endfacet
  facet normal -0 0 1
    outer loop
      vertex 35.8637 -1.03528 2.5
      vertex 40 -85 2.5
      vertex 35.9658 -0.522104 2.5
    endloop
  endfacet
  facet normal -0 0 1
    outer loop
      vertex 35.6955 -1.53073 2.5
      vertex 40 -85 2.5
      vertex 35.8637 -1.03528 2.5
    endloop
  endfacet
  facet normal -0 0 1
    outer loop
      vertex 35.4641 -2 2.5
      vertex 40 -85 2.5
      vertex 35.6955 -1.53073 2.5
    endloop
  endfacet
  facet normal -0 0 1
    outer loop
      vertex 35.1734 -2.43505 2.5
      vertex 40 -85 2.5
      vertex 35.4641 -2 2.5
    endloop
  endfacet
  facet normal -0 0 1
    outer loop
      vertex 34.8284 -2.82843 2.5
      vertex 40 -85 2.5
      vertex 35.1734 -2.43505 2.5
    endloop
  endfacet
  facet normal -0 0 1
    outer loop
      vertex 34.435 -3.17341 2.5
      vertex 40 -85 2.5
      vertex 34.8284 -2.82843 2.5
    endloop
  endfacet
  facet normal -0 0 1
    outer loop
      vertex 34 -3.4641 2.5
      vertex 40 -85 2.5
      vertex 34.435 -3.17341 2.5
    endloop
  endfacet
  facet normal -0 0 1
    outer loop
      vertex 33.5307 -3.69552 2.5
      vertex 40 -85 2.5
      vertex 34 -3.4641 2.5
    endloop
  endfacet
  facet normal -0 0 1
    outer loop
      vertex 33.0353 -3.8637 2.5
      vertex 40 -85 2.5
      vertex 33.5307 -3.69552 2.5
    endloop
  endfacet
  facet normal -0 0 1
    outer loop
      vertex 32.5221 -3.96578 2.5
      vertex 40 -85 2.5
      vertex 33.0353 -3.8637 2.5
    endloop
  endfacet
  facet normal -0 0 1
    outer loop
      vertex 32 -4 2.5
      vertex 40 -85 2.5
      vertex 32.5221 -3.96578 2.5
    endloop
  endfacet
  facet normal 0 0 1
    outer loop
      vertex 31.4779 -3.96578 2.5
      vertex 40 -85 2.5
      vertex 32 -4 2.5
    endloop
  endfacet
  facet normal 0 0 1
    outer loop
      vertex 30.9647 -3.8637 2.5
      vertex 40 -85 2.5
      vertex 31.4779 -3.96578 2.5
    endloop
  endfacet
  facet normal 0 0 1
    outer loop
      vertex 30.4693 -3.69552 2.5
      vertex 40 -85 2.5
      vertex 30.9647 -3.8637 2.5
    endloop
  endfacet
  facet normal 0 0 1
    outer loop
      vertex 30 -3.4641 2.5
      vertex 40 -85 2.5
      vertex 30.4693 -3.69552 2.5
    endloop
  endfacet
  facet normal 0 0 1
    outer loop
      vertex 29.565 -3.17341 2.5
      vertex 40 -85 2.5
      vertex 30 -3.4641 2.5
    endloop
  endfacet
  facet normal 0 0 1
    outer loop
      vertex -29.565 -3.17341 2.5
      vertex 29.565 -3.17341 2.5
      vertex 29.1716 -2.82843 2.5
    endloop
  endfacet
  facet normal 0 0 1
    outer loop
      vertex -29.1716 -2.82843 2.5
      vertex 29.1716 -2.82843 2.5
      vertex 28.8266 -2.43505 2.5
    endloop
  endfacet
  facet normal 0 0 1
    outer loop
      vertex -28.8266 -2.43505 2.5
      vertex 28.8266 -2.43505 2.5
      vertex 28.5359 -2 2.5
    endloop
  endfacet
  facet normal 0 0 1
    outer loop
      vertex -28.5359 -2 2.5
      vertex 28.5359 -2 2.5
      vertex 28.3045 -1.53073 2.5
    endloop
  endfacet
  facet normal 0 0 1
    outer loop
      vertex -28.3045 -1.53073 2.5
      vertex 28.3045 -1.53073 2.5
      vertex 28.1363 -1.03528 2.5
    endloop
  endfacet
  facet normal 0 0 1
    outer loop
      vertex -28.1363 -1.03528 2.5
      vertex 28.1363 -1.03528 2.5
      vertex 28.0342 -0.522104 2.5
    endloop
  endfacet
  facet normal -0 0 1
    outer loop
      vertex -28 0 2.5
      vertex 28.0342 -0.522104 2.5
      vertex 28 0 2.5
    endloop
  endfacet
  facet normal 0 0 1
    outer loop
      vertex -28.0342 -0.522104 2.5
      vertex 28.0342 -0.522104 2.5
      vertex -28 0 2.5
    endloop
  endfacet
  facet normal 0 0 1
    outer loop
      vertex -28.1363 -1.03528 2.5
      vertex 28.0342 -0.522104 2.5
      vertex -28.0342 -0.522104 2.5
    endloop
  endfacet
  facet normal 0 0 1
    outer loop
      vertex 28.1363 -1.03528 2.5
      vertex -28.1363 -1.03528 2.5
      vertex -28.3045 -1.53073 2.5
    endloop
  endfacet
  facet normal 0 0 1
    outer loop
      vertex 28.3045 -1.53073 2.5
      vertex -28.3045 -1.53073 2.5
      vertex -28.5359 -2 2.5
    endloop
  endfacet
  facet normal 0 0 1
    outer loop
      vertex 28.5359 -2 2.5
      vertex -28.5359 -2 2.5
      vertex -28.8266 -2.43505 2.5
    endloop
  endfacet
  facet normal 0 0 1
    outer loop
      vertex 28.8266 -2.43505 2.5
      vertex -28.8266 -2.43505 2.5
      vertex -29.1716 -2.82843 2.5
    endloop
  endfacet
  facet normal 0 0 1
    outer loop
      vertex 29.1716 -2.82843 2.5
      vertex -29.1716 -2.82843 2.5
      vertex -29.565 -3.17341 2.5
    endloop
  endfacet
  facet normal 0 0 1
    outer loop
      vertex 29.565 -3.17341 2.5
      vertex -29.565 -3.17341 2.5
      vertex 40 -85 2.5
    endloop
  endfacet
  facet normal -0 0 1
    outer loop
      vertex -30 -3.4641 2.5
      vertex 40 -85 2.5
      vertex -29.565 -3.17341 2.5
    endloop
  endfacet
  facet normal 0 0 1
    outer loop
      vertex -40 -85 2.5
      vertex -30 -3.4641 2.5
      vertex -30.4693 -3.69552 2.5
    endloop
  endfacet
  facet normal 0 0 1
    outer loop
      vertex -40 -85 2.5
      vertex -30.4693 -3.69552 2.5
      vertex -30.9647 -3.8637 2.5
    endloop
  endfacet
  facet normal 0 0 1
    outer loop
      vertex -40 -85 2.5
      vertex -30.9647 -3.8637 2.5
      vertex -31.4779 -3.96578 2.5
    endloop
  endfacet
  facet normal 0 0 1
    outer loop
      vertex -40 -85 2.5
      vertex -31.4779 -3.96578 2.5
      vertex -32 -4 2.5
    endloop
  endfacet
  facet normal 0 0 1
    outer loop
      vertex -40 -85 2.5
      vertex -32 -4 2.5
      vertex -32.5221 -3.96578 2.5
    endloop
  endfacet
  facet normal 0 0 1
    outer loop
      vertex -40 -85 2.5
      vertex -32.5221 -3.96578 2.5
      vertex -33.0353 -3.8637 2.5
    endloop
  endfacet
  facet normal 0 0 1
    outer loop
      vertex -40 -85 2.5
      vertex -33.0353 -3.8637 2.5
      vertex -33.5307 -3.69552 2.5
    endloop
  endfacet
  facet normal 0 0 1
    outer loop
      vertex -40 -85 2.5
      vertex -33.5307 -3.69552 2.5
      vertex -34 -3.4641 2.5
    endloop
  endfacet
  facet normal 0 0 1
    outer loop
      vertex -40 -85 2.5
      vertex -34 -3.4641 2.5
      vertex -34.435 -3.17341 2.5
    endloop
  endfacet
  facet normal 0 0 1
    outer loop
      vertex -40 -85 2.5
      vertex -34.435 -3.17341 2.5
      vertex -34.8284 -2.82843 2.5
    endloop
  endfacet
  facet normal 0 0 1
    outer loop
      vertex -30 -3.4641 2.5
      vertex -40 -85 2.5
      vertex 40 -85 2.5
    endloop
  endfacet
  facet normal 0 0 1
    outer loop
      vertex -35.1734 -2.43505 2.5
      vertex -40 -85 2.5
      vertex -34.8284 -2.82843 2.5
    endloop
  endfacet
  facet normal 0 0 1
    outer loop
      vertex -35.4641 -2 2.5
      vertex -40 -85 2.5
      vertex -35.1734 -2.43505 2.5
    endloop
  endfacet
  facet normal 0 0 1
    outer loop
      vertex -35.6955 -1.53073 2.5
      vertex -40 -85 2.5
      vertex -35.4641 -2 2.5
    endloop
  endfacet
  facet normal 0 0 1
    outer loop
      vertex -35.8637 -1.03528 2.5
      vertex -40 -85 2.5
      vertex -35.6955 -1.53073 2.5
    endloop
  endfacet
  facet normal 0 0 1
    outer loop
      vertex -35.9658 -0.522104 2.5
      vertex -40 -85 2.5
      vertex -35.8637 -1.03528 2.5
    endloop
  endfacet
  facet normal 0 0 1
    outer loop
      vertex -36 0 2.5
      vertex -40 -85 2.5
      vertex -35.9658 -0.522104 2.5
    endloop
  endfacet
  facet normal 0 0 1
    outer loop
      vertex -40 -85 2.5
      vertex -36 0 2.5
      vertex -40 85 2.5
    endloop
  endfacet
  facet normal 0 0 -1
    outer loop
      vertex 40 -85 -2.5
      vertex 36 0 -2.5
      vertex 40 85 -2.5
    endloop
  endfacet
  facet normal 0 0 -1
    outer loop
      vertex 40 -85 -2.5
      vertex 35.9658 -0.522104 -2.5
      vertex 36 0 -2.5
    endloop
  endfacet
  facet normal 0 0 -1
    outer loop
      vertex 40 -85 -2.5
      vertex 35.8637 -1.03528 -2.5
      vertex 35.9658 -0.522104 -2.5
    endloop
  endfacet
  facet normal 0 0 -1
    outer loop
      vertex 40 -85 -2.5
      vertex 35.6955 -1.53073 -2.5
      vertex 35.8637 -1.03528 -2.5
    endloop
  endfacet
  facet normal 0 0 -1
    outer loop
      vertex 40 -85 -2.5
      vertex 35.4641 -2 -2.5
      vertex 35.6955 -1.53073 -2.5
    endloop
  endfacet
  facet normal 0 0 -1
    outer loop
      vertex 40 -85 -2.5
      vertex 35.1734 -2.43505 -2.5
      vertex 35.4641 -2 -2.5
    endloop
  endfacet
  facet normal 0 0 -1
    outer loop
      vertex 40 -85 -2.5
      vertex 34.8284 -2.82843 -2.5
      vertex 35.1734 -2.43505 -2.5
    endloop
  endfacet
  facet normal 0 0 -1
    outer loop
      vertex 40 -85 -2.5
      vertex 34.435 -3.17341 -2.5
      vertex 34.8284 -2.82843 -2.5
    endloop
  endfacet
  facet normal 0 0 -1
    outer loop
      vertex 40 -85 -2.5
      vertex 34 -3.4641 -2.5
      vertex 34.435 -3.17341 -2.5
    endloop
  endfacet
  facet normal 0 0 -1
    outer loop
      vertex 40 -85 -2.5
      vertex 33.5307 -3.69552 -2.5
      vertex 34 -3.4641 -2.5
    endloop
  endfacet
  facet normal 0 0 -1
    outer loop
      vertex 40 -85 -2.5
      vertex 33.0353 -3.8637 -2.5
      vertex 33.5307 -3.69552 -2.5
    endloop
  endfacet
  facet normal 0 0 -1
    outer loop
      vertex 40 -85 -2.5
      vertex 32.5221 -3.96578 -2.5
      vertex 33.0353 -3.8637 -2.5
    endloop
  endfacet
  facet normal 0 0 -1
    outer loop
      vertex 40 -85 -2.5
      vertex 32 -4 -2.5
      vertex 32.5221 -3.96578 -2.5
    endloop
  endfacet
  facet normal 0 0 -1
    outer loop
      vertex 40 -85 -2.5
      vertex 31.4779 -3.96578 -2.5
      vertex 32 -4 -2.5
    endloop
  endfacet
  facet normal 0 0 -1
    outer loop
      vertex 40 -85 -2.5
      vertex 30.9647 -3.8637 -2.5
      vertex 31.4779 -3.96578 -2.5
    endloop
  endfacet
  facet normal 0 0 -1
    outer loop
      vertex 40 -85 -2.5
      vertex 30.4693 -3.69552 -2.5
      vertex 30.9647 -3.8637 -2.5
    endloop
  endfacet
  facet normal 0 0 -1
    outer loop
      vertex 40 -85 -2.5
      vertex 30 -3.4641 -2.5
      vertex 30.4693 -3.69552 -2.5
    endloop
  endfacet
  facet normal 0 0 -1
    outer loop
      vertex 40 -85 -2.5
      vertex 29.565 -3.17341 -2.5
      vertex 30 -3.4641 -2.5
    endloop
  endfacet
  facet normal 0 0 -1
    outer loop
      vertex -29.565 -3.17341 -2.5
      vertex 29.565 -3.17341 -2.5
      vertex 40 -85 -2.5
    endloop
  endfacet
  facet normal 0 0 -1
    outer loop
      vertex 29.565 -3.17341 -2.5
      vertex -29.565 -3.17341 -2.5
      vertex 29.1716 -2.82843 -2.5
    endloop
  endfacet
  facet normal 0 -0 -1
    outer loop
      vertex -29.1716 -2.82843 -2.5
      vertex 29.1716 -2.82843 -2.5
      vertex -29.565 -3.17341 -2.5
    endloop
  endfacet
  facet normal 0 0 -1
    outer loop
      vertex 29.1716 -2.82843 -2.5
      vertex -29.1716 -2.82843 -2.5
      vertex 28.8266 -2.43505 -2.5
    endloop
  endfacet
  facet normal 0 -0 -1
    outer loop
      vertex -28.8266 -2.43505 -2.5
      vertex 28.8266 -2.43505 -2.5
      vertex -29.1716 -2.82843 -2.5
    endloop
  endfacet
  facet normal 0 0 -1
    outer loop
      vertex 28.8266 -2.43505 -2.5
      vertex -28.8266 -2.43505 -2.5
      vertex 28.5359 -2 -2.5
    endloop
  endfacet
  facet normal 0 0 -1
    outer loop
      vertex 28.0342 -0.522104 -2.5
      vertex -28 0 -2.5
      vertex 28 0 -2.5
    endloop
  endfacet
  facet normal 0 -0 -1
    outer loop
      vertex -28.5359 -2 -2.5
      vertex 28.5359 -2 -2.5
      vertex -28.8266 -2.43505 -2.5
    endloop
  endfacet
  facet normal 0 0 -1
    outer loop
      vertex 28.0342 -0.522104 -2.5
      vertex -28.0342 -0.522104 -2.5
      vertex -28 0 -2.5
    endloop
  endfacet
  facet normal -0 0 -1
    outer loop
      vertex 28.0342 -0.522104 -2.5
      vertex -28.1363 -1.03528 -2.5
      vertex -28.0342 -0.522104 -2.5
    endloop
  endfacet
  facet normal 0 0 -1
    outer loop
      vertex 28.1363 -1.03528 -2.5
      vertex -28.1363 -1.03528 -2.5
      vertex 28.0342 -0.522104 -2.5
    endloop
  endfacet
  facet normal 0 -0 -1
    outer loop
      vertex -28.1363 -1.03528 -2.5
      vertex 28.1363 -1.03528 -2.5
      vertex -28.3045 -1.53073 -2.5
    endloop
  endfacet
  facet normal 0 0 -1
    outer loop
      vertex 28.3045 -1.53073 -2.5
      vertex -28.3045 -1.53073 -2.5
      vertex 28.1363 -1.03528 -2.5
    endloop
  endfacet
  facet normal 0 -0 -1
    outer loop
      vertex -28.3045 -1.53073 -2.5
      vertex 28.3045 -1.53073 -2.5
      vertex -28.5359 -2 -2.5
    endloop
  endfacet
  facet normal 0 0 -1
    outer loop
      vertex 28.5359 -2 -2.5
      vertex -28.5359 -2 -2.5
      vertex 28.3045 -1.53073 -2.5
    endloop
  endfacet
  facet normal 0 0 -1
    outer loop
      vertex 40 -85 -2.5
      vertex -30 -3.4641 -2.5
      vertex -29.565 -3.17341 -2.5
    endloop
  endfacet
  facet normal 0 0 -1
    outer loop
      vertex -40 -85 -2.5
      vertex -30 -3.4641 -2.5
      vertex 40 -85 -2.5
    endloop
  endfacet
  facet normal 0 0 -1
    outer loop
      vertex -30 -3.4641 -2.5
      vertex -40 -85 -2.5
      vertex -30.4693 -3.69552 -2.5
    endloop
  endfacet
  facet normal 0 0 -1
    outer loop
      vertex -30.4693 -3.69552 -2.5
      vertex -40 -85 -2.5
      vertex -30.9647 -3.8637 -2.5
    endloop
  endfacet
  facet normal 0 0 -1
    outer loop
      vertex -30.9647 -3.8637 -2.5
      vertex -40 -85 -2.5
      vertex -31.4779 -3.96578 -2.5
    endloop
  endfacet
  facet normal 0 0 -1
    outer loop
      vertex -31.4779 -3.96578 -2.5
      vertex -40 -85 -2.5
      vertex -32 -4 -2.5
    endloop
  endfacet
  facet normal -0 0 -1
    outer loop
      vertex -32 -4 -2.5
      vertex -40 -85 -2.5
      vertex -32.5221 -3.96578 -2.5
    endloop
  endfacet
  facet normal -0 0 -1
    outer loop
      vertex -32.5221 -3.96578 -2.5
      vertex -40 -85 -2.5
      vertex -33.0353 -3.8637 -2.5
    endloop
  endfacet
  facet normal -0 0 -1
    outer loop
      vertex -33.0353 -3.8637 -2.5
      vertex -40 -85 -2.5
      vertex -33.5307 -3.69552 -2.5
    endloop
  endfacet
  facet normal -0 0 -1
    outer loop
      vertex -33.5307 -3.69552 -2.5
      vertex -40 -85 -2.5
      vertex -34 -3.4641 -2.5
    endloop
  endfacet
  facet normal -0 0 -1
    outer loop
      vertex -34 -3.4641 -2.5
      vertex -40 -85 -2.5
      vertex -34.435 -3.17341 -2.5
    endloop
  endfacet
  facet normal -0 0 -1
    outer loop
      vertex -35.9658 -0.522104 -2.5
      vertex -40 -85 -2.5
      vertex -36 0 -2.5
    endloop
  endfacet
  facet normal -0 0 -1
    outer loop
      vertex -35.8637 -1.03528 -2.5
      vertex -40 -85 -2.5
      vertex -35.9658 -0.522104 -2.5
    endloop
  endfacet
  facet normal -0 0 -1
    outer loop
      vertex -35.6955 -1.53073 -2.5
      vertex -40 -85 -2.5
      vertex -35.8637 -1.03528 -2.5
    endloop
  endfacet
  facet normal -0 0 -1
    outer loop
      vertex -35.4641 -2 -2.5
      vertex -40 -85 -2.5
      vertex -35.6955 -1.53073 -2.5
    endloop
  endfacet
  facet normal -0 0 -1
    outer loop
      vertex -35.1734 -2.43505 -2.5
      vertex -40 -85 -2.5
      vertex -35.4641 -2 -2.5
    endloop
  endfacet
  facet normal -0 0 -1
    outer loop
      vertex -34.8284 -2.82843 -2.5
      vertex -40 -85 -2.5
      vertex -35.1734 -2.43505 -2.5
    endloop
  endfacet
  facet normal -0 0 -1
    outer loop
      vertex -34.435 -3.17341 -2.5
      vertex -40 -85 -2.5
      vertex -34.8284 -2.82843 -2.5
    endloop
  endfacet
  facet normal 0 0 -1
    outer loop
      vertex 35.9658 0.522104 -2.5
      vertex 40 85 -2.5
      vertex 36 0 -2.5
    endloop
  endfacet
  facet normal 0 0 -1
    outer loop
      vertex 35.8637 1.03528 -2.5
      vertex 40 85 -2.5
      vertex 35.9658 0.522104 -2.5
    endloop
  endfacet
  facet normal 0 0 -1
    outer loop
      vertex 35.6955 1.53073 -2.5
      vertex 40 85 -2.5
      vertex 35.8637 1.03528 -2.5
    endloop
  endfacet
  facet normal 0 0 -1
    outer loop
      vertex 35.4641 2 -2.5
      vertex 40 85 -2.5
      vertex 35.6955 1.53073 -2.5
    endloop
  endfacet
  facet normal 0 0 -1
    outer loop
      vertex 35.1734 2.43505 -2.5
      vertex 40 85 -2.5
      vertex 35.4641 2 -2.5
    endloop
  endfacet
  facet normal 0 0 -1
    outer loop
      vertex 34.8284 2.82843 -2.5
      vertex 40 85 -2.5
      vertex 35.1734 2.43505 -2.5
    endloop
  endfacet
  facet normal 0 0 -1
    outer loop
      vertex 34.435 3.17341 -2.5
      vertex 40 85 -2.5
      vertex 34.8284 2.82843 -2.5
    endloop
  endfacet
  facet normal 0 0 -1
    outer loop
      vertex 34 3.4641 -2.5
      vertex 40 85 -2.5
      vertex 34.435 3.17341 -2.5
    endloop
  endfacet
  facet normal 0 0 -1
    outer loop
      vertex 33.5307 3.69552 -2.5
      vertex 40 85 -2.5
      vertex 34 3.4641 -2.5
    endloop
  endfacet
  facet normal 0 0 -1
    outer loop
      vertex 33.0353 3.8637 -2.5
      vertex 40 85 -2.5
      vertex 33.5307 3.69552 -2.5
    endloop
  endfacet
  facet normal 0 0 -1
    outer loop
      vertex 32.5221 3.96578 -2.5
      vertex 40 85 -2.5
      vertex 33.0353 3.8637 -2.5
    endloop
  endfacet
  facet normal 0 0 -1
    outer loop
      vertex 32 4 -2.5
      vertex 40 85 -2.5
      vertex 32.5221 3.96578 -2.5
    endloop
  endfacet
  facet normal 0 0 -1
    outer loop
      vertex 31.4779 3.96578 -2.5
      vertex 40 85 -2.5
      vertex 32 4 -2.5
    endloop
  endfacet
  facet normal 0 0 -1
    outer loop
      vertex 30.9647 3.8637 -2.5
      vertex 40 85 -2.5
      vertex 31.4779 3.96578 -2.5
    endloop
  endfacet
  facet normal 0 0 -1
    outer loop
      vertex 30.4693 3.69552 -2.5
      vertex 40 85 -2.5
      vertex 30.9647 3.8637 -2.5
    endloop
  endfacet
  facet normal 0 0 -1
    outer loop
      vertex 30 3.4641 -2.5
      vertex 40 85 -2.5
      vertex 30.4693 3.69552 -2.5
    endloop
  endfacet
  facet normal 0 0 -1
    outer loop
      vertex 29.565 3.17341 -2.5
      vertex 40 85 -2.5
      vertex 30 3.4641 -2.5
    endloop
  endfacet
  facet normal 0 0 -1
    outer loop
      vertex -29.565 3.17341 -2.5
      vertex 29.565 3.17341 -2.5
      vertex 29.1716 2.82843 -2.5
    endloop
  endfacet
  facet normal 0 0 -1
    outer loop
      vertex -29.1716 2.82843 -2.5
      vertex 29.1716 2.82843 -2.5
      vertex 28.8266 2.43505 -2.5
    endloop
  endfacet
  facet normal 0 0 -1
    outer loop
      vertex -28.8266 2.43505 -2.5
      vertex 28.8266 2.43505 -2.5
      vertex 28.5359 2 -2.5
    endloop
  endfacet
  facet normal 0 0 -1
    outer loop
      vertex -28.5359 2 -2.5
      vertex 28.5359 2 -2.5
      vertex 28.3045 1.53073 -2.5
    endloop
  endfacet
  facet normal 0 0 -1
    outer loop
      vertex -28.3045 1.53073 -2.5
      vertex 28.3045 1.53073 -2.5
      vertex 28.1363 1.03528 -2.5
    endloop
  endfacet
  facet normal 0 0 -1
    outer loop
      vertex -28.1363 1.03528 -2.5
      vertex 28.1363 1.03528 -2.5
      vertex 28.0342 0.522104 -2.5
    endloop
  endfacet
  facet normal 0 0 -1
    outer loop
      vertex -28 0 -2.5
      vertex 28.0342 0.522104 -2.5
      vertex 28 0 -2.5
    endloop
  endfacet
  facet normal 0 0 -1
    outer loop
      vertex -28.0342 0.522104 -2.5
      vertex 28.0342 0.522104 -2.5
      vertex -28 0 -2.5
    endloop
  endfacet
  facet normal 0 0 -1
    outer loop
      vertex -28.1363 1.03528 -2.5
      vertex 28.0342 0.522104 -2.5
      vertex -28.0342 0.522104 -2.5
    endloop
  endfacet
  facet normal 0 0 -1
    outer loop
      vertex 28.1363 1.03528 -2.5
      vertex -28.1363 1.03528 -2.5
      vertex -28.3045 1.53073 -2.5
    endloop
  endfacet
  facet normal 0 0 -1
    outer loop
      vertex 28.3045 1.53073 -2.5
      vertex -28.3045 1.53073 -2.5
      vertex -28.5359 2 -2.5
    endloop
  endfacet
  facet normal 0 0 -1
    outer loop
      vertex 28.5359 2 -2.5
      vertex -28.5359 2 -2.5
      vertex -28.8266 2.43505 -2.5
    endloop
  endfacet
  facet normal 0 0 -1
    outer loop
      vertex 28.8266 2.43505 -2.5
      vertex -28.8266 2.43505 -2.5
      vertex -29.1716 2.82843 -2.5
    endloop
  endfacet
  facet normal 0 0 -1
    outer loop
      vertex 29.1716 2.82843 -2.5
      vertex -29.1716 2.82843 -2.5
      vertex -29.565 3.17341 -2.5
    endloop
  endfacet
  facet normal 0 0 -1
    outer loop
      vertex 29.565 3.17341 -2.5
      vertex -29.565 3.17341 -2.5
      vertex 40 85 -2.5
    endloop
  endfacet
  facet normal 0 0 -1
    outer loop
      vertex -30 3.4641 -2.5
      vertex 40 85 -2.5
      vertex -29.565 3.17341 -2.5
    endloop
  endfacet
  facet normal 0 0 -1
    outer loop
      vertex -40 85 -2.5
      vertex -30 3.4641 -2.5
      vertex -30.4693 3.69552 -2.5
    endloop
  endfacet
  facet normal 0 0 -1
    outer loop
      vertex -40 85 -2.5
      vertex -30.4693 3.69552 -2.5
      vertex -30.9647 3.8637 -2.5
    endloop
  endfacet
  facet normal 0 0 -1
    outer loop
      vertex -40 85 -2.5
      vertex -30.9647 3.8637 -2.5
      vertex -31.4779 3.96578 -2.5
    endloop
  endfacet
  facet normal 0 0 -1
    outer loop
      vertex -40 85 -2.5
      vertex -31.4779 3.96578 -2.5
      vertex -32 4 -2.5
    endloop
  endfacet
  facet normal 0 0 -1
    outer loop
      vertex -40 85 -2.5
      vertex -32 4 -2.5
      vertex -32.5221 3.96578 -2.5
    endloop
  endfacet
  facet normal 0 0 -1
    outer loop
      vertex -40 85 -2.5
      vertex -32.5221 3.96578 -2.5
      vertex -33.0353 3.8637 -2.5
    endloop
  endfacet
  facet normal 0 0 -1
    outer loop
      vertex -40 85 -2.5
      vertex -33.0353 3.8637 -2.5
      vertex -33.5307 3.69552 -2.5
    endloop
  endfacet
  facet normal 0 0 -1
    outer loop
      vertex -40 85 -2.5
      vertex -33.5307 3.69552 -2.5
      vertex -34 3.4641 -2.5
    endloop
  endfacet
  facet normal 0 0 -1
    outer loop
      vertex -40 85 -2.5
      vertex -34 3.4641 -2.5
      vertex -34.435 3.17341 -2.5
    endloop
  endfacet
  facet normal 0 0 -1
    outer loop
      vertex -40 85 -2.5
      vertex -34.435 3.17341 -2.5
      vertex -34.8284 2.82843 -2.5
    endloop
  endfacet
  facet normal 0 0 -1
    outer loop
      vertex -30 3.4641 -2.5
      vertex -40 85 -2.5
      vertex 40 85 -2.5
    endloop
  endfacet
  facet normal 0 0 -1
    outer loop
      vertex -35.1734 2.43505 -2.5
      vertex -40 85 -2.5
      vertex -34.8284 2.82843 -2.5
    endloop
  endfacet
  facet normal 0 0 -1
    outer loop
      vertex -35.4641 2 -2.5
      vertex -40 85 -2.5
      vertex -35.1734 2.43505 -2.5
    endloop
  endfacet
  facet normal 0 0 -1
    outer loop
      vertex -35.6955 1.53073 -2.5
      vertex -40 85 -2.5
      vertex -35.4641 2 -2.5
    endloop
  endfacet
  facet normal 0 0 -1
    outer loop
      vertex -35.8637 1.03528 -2.5
      vertex -40 85 -2.5
      vertex -35.6955 1.53073 -2.5
    endloop
  endfacet
  facet normal 0 0 -1
    outer loop
      vertex -35.9658 0.522104 -2.5
      vertex -40 85 -2.5
      vertex -35.8637 1.03528 -2.5
    endloop
  endfacet
  facet normal 0 0 -1
    outer loop
      vertex -36 0 -2.5
      vertex -40 85 -2.5
      vertex -35.9658 0.522104 -2.5
    endloop
  endfacet
  facet normal 0 0 -1
    outer loop
      vertex -40 85 -2.5
      vertex -36 0 -2.5
      vertex -40 -85 -2.5
    endloop
  endfacet
  facet normal -1 0 0
    outer loop
      vertex -40 -85 -2.5
      vertex -40 85 2.5
      vertex -40 85 -2.5
    endloop
  endfacet
  facet normal -1 -0 0
    outer loop
      vertex -40 85 2.5
      vertex -40 -85 -2.5
      vertex -40 -85 2.5
    endloop
  endfacet
  facet normal 0 1 -0
    outer loop
      vertex 40 85 -2.5
      vertex -40 85 2.5
      vertex 40 85 2.5
    endloop
  endfacet
  facet normal 0 1 0
    outer loop
      vertex -40 85 2.5
      vertex 40 85 -2.5
      vertex -40 85 -2.5
    endloop
  endfacet
  facet normal 0 -1 0
    outer loop
      vertex -40 -85 -2.5
      vertex 40 -85 2.5
      vertex -40 -85 2.5
    endloop
  endfacet
  facet normal 0 -1 -0
    outer loop
      vertex 40 -85 2.5
      vertex -40 -85 -2.5
      vertex 40 -85 -2.5
    endloop
  endfacet
  facet normal -0.0654027 0.997859 0
    outer loop
      vertex -31.4779 -3.96578 -2.5
      vertex -32 -4 2.5
      vertex -31.4779 -3.96578 2.5
    endloop
  endfacet
  facet normal -0.0654027 0.997859 0
    outer loop
      vertex -32 -4 2.5
      vertex -31.4779 -3.96578 -2.5
      vertex -32 -4 -2.5
    endloop
  endfacet
  facet normal -0.980777 -0.195133 0
    outer loop
      vertex -28.0342 0.522104 -2.5
      vertex -28.1363 1.03528 2.5
      vertex -28.1363 1.03528 -2.5
    endloop
  endfacet
  facet normal -0.980777 -0.195133 0
    outer loop
      vertex -28.1363 1.03528 2.5
      vertex -28.0342 0.522104 -2.5
      vertex -28.0342 0.522104 2.5
    endloop
  endfacet
  facet normal -0.997861 -0.0653641 0
    outer loop
      vertex -28 0 -2.5
      vertex -28.0342 0.522104 2.5
      vertex -28.0342 0.522104 -2.5
    endloop
  endfacet
  facet normal -0.997861 -0.0653641 0
    outer loop
      vertex -28.0342 0.522104 2.5
      vertex -28 0 -2.5
      vertex -28 0 2.5
    endloop
  endfacet
  facet normal -0.94692 -0.321469 0
    outer loop
      vertex -28.1363 1.03528 -2.5
      vertex -28.3045 1.53073 2.5
      vertex -28.3045 1.53073 -2.5
    endloop
  endfacet
  facet normal -0.94692 -0.321469 0
    outer loop
      vertex -28.3045 1.53073 2.5
      vertex -28.1363 1.03528 -2.5
      vertex -28.1363 1.03528 2.5
    endloop
  endfacet
  facet normal 0.997861 0.0653641 0
    outer loop
      vertex -35.9658 -0.522104 2.5
      vertex -36 0 -2.5
      vertex -36 0 2.5
    endloop
  endfacet
  facet normal 0.997861 0.0653641 0
    outer loop
      vertex -36 0 -2.5
      vertex -35.9658 -0.522104 2.5
      vertex -35.9658 -0.522104 -2.5
    endloop
  endfacet
  facet normal -0.555613 -0.831441 0
    outer loop
      vertex -30 3.4641 -2.5
      vertex -29.565 3.17341 2.5
      vertex -30 3.4641 2.5
    endloop
  endfacet
  facet normal -0.555613 -0.831441 -0
    outer loop
      vertex -29.565 3.17341 2.5
      vertex -30 3.4641 -2.5
      vertex -29.565 3.17341 -2.5
    endloop
  endfacet
  facet normal -0.980777 0.195133 0
    outer loop
      vertex -28.1363 -1.03528 -2.5
      vertex -28.0342 -0.522104 2.5
      vertex -28.0342 -0.522104 -2.5
    endloop
  endfacet
  facet normal -0.980777 0.195133 0
    outer loop
      vertex -28.0342 -0.522104 2.5
      vertex -28.1363 -1.03528 -2.5
      vertex -28.1363 -1.03528 2.5
    endloop
  endfacet
  facet normal 0.555613 -0.831441 0
    outer loop
      vertex -34.435 3.17341 -2.5
      vertex -34 3.4641 2.5
      vertex -34.435 3.17341 2.5
    endloop
  endfacet
  facet normal 0.555613 -0.831441 0
    outer loop
      vertex -34 3.4641 2.5
      vertex -34.435 3.17341 -2.5
      vertex -34 3.4641 -2.5
    endloop
  endfacet
  facet normal 0.980777 0.195133 0
    outer loop
      vertex -35.8637 -1.03528 2.5
      vertex -35.9658 -0.522104 -2.5
      vertex -35.9658 -0.522104 2.5
    endloop
  endfacet
  facet normal 0.980777 0.195133 0
    outer loop
      vertex -35.9658 -0.522104 -2.5
      vertex -35.8637 -1.03528 2.5
      vertex -35.8637 -1.03528 -2.5
    endloop
  endfacet
  facet normal -0.321464 -0.946922 0
    outer loop
      vertex -30.9647 3.8637 -2.5
      vertex -30.4693 3.69552 2.5
      vertex -30.9647 3.8637 2.5
    endloop
  endfacet
  facet normal -0.321464 -0.946922 -0
    outer loop
      vertex -30.4693 3.69552 2.5
      vertex -30.9647 3.8637 -2.5
      vertex -30.4693 3.69552 -2.5
    endloop
  endfacet
  facet normal -0.94692 0.321469 0
    outer loop
      vertex -28.3045 -1.53073 -2.5
      vertex -28.1363 -1.03528 2.5
      vertex -28.1363 -1.03528 -2.5
    endloop
  endfacet
  facet normal -0.94692 0.321469 0
    outer loop
      vertex -28.1363 -1.03528 2.5
      vertex -28.3045 -1.53073 -2.5
      vertex -28.3045 -1.53073 2.5
    endloop
  endfacet
  facet normal -0.831462 -0.555582 0
    outer loop
      vertex -28.5359 2 -2.5
      vertex -28.8266 2.43505 2.5
      vertex -28.8266 2.43505 -2.5
    endloop
  endfacet
  facet normal -0.831462 -0.555582 0
    outer loop
      vertex -28.8266 2.43505 2.5
      vertex -28.5359 2 -2.5
      vertex -28.5359 2 2.5
    endloop
  endfacet
  facet normal -0.896887 -0.44226 0
    outer loop
      vertex -28.3045 1.53073 -2.5
      vertex -28.5359 2 2.5
      vertex -28.5359 2 -2.5
    endloop
  endfacet
  facet normal -0.896887 -0.44226 0
    outer loop
      vertex -28.5359 2 2.5
      vertex -28.3045 1.53073 -2.5
      vertex -28.3045 1.53073 2.5
    endloop
  endfacet
  facet normal -0.659321 -0.751861 0
    outer loop
      vertex -29.565 3.17341 -2.5
      vertex -29.1716 2.82843 2.5
      vertex -29.565 3.17341 2.5
    endloop
  endfacet
  facet normal -0.659321 -0.751861 -0
    outer loop
      vertex -29.1716 2.82843 2.5
      vertex -29.565 3.17341 -2.5
      vertex -29.1716 2.82843 -2.5
    endloop
  endfacet
  facet normal 0.555613 0.831441 -0
    outer loop
      vertex -34 -3.4641 -2.5
      vertex -34.435 -3.17341 2.5
      vertex -34 -3.4641 2.5
    endloop
  endfacet
  facet normal 0.555613 0.831441 0
    outer loop
      vertex -34.435 -3.17341 2.5
      vertex -34 -3.4641 -2.5
      vertex -34.435 -3.17341 -2.5
    endloop
  endfacet
  facet normal 0.896887 -0.44226 0
    outer loop
      vertex -35.6955 1.53073 2.5
      vertex -35.4641 2 -2.5
      vertex -35.4641 2 2.5
    endloop
  endfacet
  facet normal 0.896887 -0.44226 0
    outer loop
      vertex -35.4641 2 -2.5
      vertex -35.6955 1.53073 2.5
      vertex -35.6955 1.53073 -2.5
    endloop
  endfacet
  facet normal 0.831462 0.555582 0
    outer loop
      vertex -35.1734 -2.43505 2.5
      vertex -35.4641 -2 -2.5
      vertex -35.4641 -2 2.5
    endloop
  endfacet
  facet normal 0.831462 0.555582 0
    outer loop
      vertex -35.4641 -2 -2.5
      vertex -35.1734 -2.43505 2.5
      vertex -35.1734 -2.43505 -2.5
    endloop
  endfacet
  facet normal 0.442268 -0.896883 0
    outer loop
      vertex -34 3.4641 -2.5
      vertex -33.5307 3.69552 2.5
      vertex -34 3.4641 2.5
    endloop
  endfacet
  facet normal 0.442268 -0.896883 0
    outer loop
      vertex -33.5307 3.69552 2.5
      vertex -34 3.4641 -2.5
      vertex -33.5307 3.69552 -2.5
    endloop
  endfacet
  facet normal -0.751826 -0.659362 0
    outer loop
      vertex -28.8266 2.43505 -2.5
      vertex -29.1716 2.82843 2.5
      vertex -29.1716 2.82843 -2.5
    endloop
  endfacet
  facet normal -0.751826 -0.659362 0
    outer loop
      vertex -29.1716 2.82843 2.5
      vertex -28.8266 2.43505 -2.5
      vertex -28.8266 2.43505 2.5
    endloop
  endfacet
  facet normal 0.896887 0.44226 0
    outer loop
      vertex -35.4641 -2 2.5
      vertex -35.6955 -1.53073 -2.5
      vertex -35.6955 -1.53073 2.5
    endloop
  endfacet
  facet normal 0.896887 0.44226 0
    outer loop
      vertex -35.6955 -1.53073 -2.5
      vertex -35.4641 -2 2.5
      vertex -35.4641 -2 -2.5
    endloop
  endfacet
  facet normal 0.751826 0.659362 0
    outer loop
      vertex -34.8284 -2.82843 2.5
      vertex -35.1734 -2.43505 -2.5
      vertex -35.1734 -2.43505 2.5
    endloop
  endfacet
  facet normal 0.751826 0.659362 0
    outer loop
      vertex -35.1734 -2.43505 -2.5
      vertex -34.8284 -2.82843 2.5
      vertex -34.8284 -2.82843 -2.5
    endloop
  endfacet
  facet normal 0.831462 -0.555582 0
    outer loop
      vertex -35.4641 2 2.5
      vertex -35.1734 2.43505 -2.5
      vertex -35.1734 2.43505 2.5
    endloop
  endfacet
  facet normal 0.831462 -0.555582 0
    outer loop
      vertex -35.1734 2.43505 -2.5
      vertex -35.4641 2 2.5
      vertex -35.4641 2 -2.5
    endloop
  endfacet
  facet normal 0.94692 0.321469 0
    outer loop
      vertex -35.6955 -1.53073 2.5
      vertex -35.8637 -1.03528 -2.5
      vertex -35.8637 -1.03528 2.5
    endloop
  endfacet
  facet normal 0.94692 0.321469 0
    outer loop
      vertex -35.8637 -1.03528 -2.5
      vertex -35.6955 -1.53073 2.5
      vertex -35.6955 -1.53073 -2.5
    endloop
  endfacet
  facet normal -0.195087 0.980786 0
    outer loop
      vertex -30.9647 -3.8637 -2.5
      vertex -31.4779 -3.96578 2.5
      vertex -30.9647 -3.8637 2.5
    endloop
  endfacet
  facet normal -0.195087 0.980786 0
    outer loop
      vertex -31.4779 -3.96578 2.5
      vertex -30.9647 -3.8637 -2.5
      vertex -31.4779 -3.96578 -2.5
    endloop
  endfacet
  facet normal 0.659321 -0.751861 0
    outer loop
      vertex -34.8284 2.82843 -2.5
      vertex -34.435 3.17341 2.5
      vertex -34.8284 2.82843 2.5
    endloop
  endfacet
  facet normal 0.659321 -0.751861 0
    outer loop
      vertex -34.435 3.17341 2.5
      vertex -34.8284 2.82843 -2.5
      vertex -34.435 3.17341 -2.5
    endloop
  endfacet
  facet normal -0.831462 0.555582 0
    outer loop
      vertex -28.8266 -2.43505 -2.5
      vertex -28.5359 -2 2.5
      vertex -28.5359 -2 -2.5
    endloop
  endfacet
  facet normal -0.831462 0.555582 0
    outer loop
      vertex -28.5359 -2 2.5
      vertex -28.8266 -2.43505 -2.5
      vertex -28.8266 -2.43505 2.5
    endloop
  endfacet
  facet normal 0.659321 0.751861 -0
    outer loop
      vertex -34.435 -3.17341 -2.5
      vertex -34.8284 -2.82843 2.5
      vertex -34.435 -3.17341 2.5
    endloop
  endfacet
  facet normal 0.659321 0.751861 0
    outer loop
      vertex -34.8284 -2.82843 2.5
      vertex -34.435 -3.17341 -2.5
      vertex -34.8284 -2.82843 -2.5
    endloop
  endfacet
  facet normal 0.321464 -0.946922 0
    outer loop
      vertex -33.5307 3.69552 -2.5
      vertex -33.0353 3.8637 2.5
      vertex -33.5307 3.69552 2.5
    endloop
  endfacet
  facet normal 0.321464 -0.946922 0
    outer loop
      vertex -33.0353 3.8637 2.5
      vertex -33.5307 3.69552 -2.5
      vertex -33.0353 3.8637 -2.5
    endloop
  endfacet
  facet normal -0.997861 0.0653641 0
    outer loop
      vertex -28.0342 -0.522104 -2.5
      vertex -28 0 2.5
      vertex -28 0 -2.5
    endloop
  endfacet
  facet normal -0.997861 0.0653641 0
    outer loop
      vertex -28 0 2.5
      vertex -28.0342 -0.522104 -2.5
      vertex -28.0342 -0.522104 2.5
    endloop
  endfacet
  facet normal 0.997861 -0.0653641 0
    outer loop
      vertex -36 0 2.5
      vertex -35.9658 0.522104 -2.5
      vertex -35.9658 0.522104 2.5
    endloop
  endfacet
  facet normal 0.997861 -0.0653641 0
    outer loop
      vertex -35.9658 0.522104 -2.5
      vertex -36 0 2.5
      vertex -36 0 -2.5
    endloop
  endfacet
  facet normal 0.0654027 -0.997859 0
    outer loop
      vertex -32.5221 3.96578 -2.5
      vertex -32 4 2.5
      vertex -32.5221 3.96578 2.5
    endloop
  endfacet
  facet normal 0.0654027 -0.997859 0
    outer loop
      vertex -32 4 2.5
      vertex -32.5221 3.96578 -2.5
      vertex -32 4 -2.5
    endloop
  endfacet
  facet normal -0.442268 0.896883 0
    outer loop
      vertex -30 -3.4641 -2.5
      vertex -30.4693 -3.69552 2.5
      vertex -30 -3.4641 2.5
    endloop
  endfacet
  facet normal -0.442268 0.896883 0
    outer loop
      vertex -30.4693 -3.69552 2.5
      vertex -30 -3.4641 -2.5
      vertex -30.4693 -3.69552 -2.5
    endloop
  endfacet
  facet normal -0.0654027 -0.997859 0
    outer loop
      vertex -32 4 -2.5
      vertex -31.4779 3.96578 2.5
      vertex -32 4 2.5
    endloop
  endfacet
  facet normal -0.0654027 -0.997859 -0
    outer loop
      vertex -31.4779 3.96578 2.5
      vertex -32 4 -2.5
      vertex -31.4779 3.96578 -2.5
    endloop
  endfacet
  facet normal -0.195087 -0.980786 0
    outer loop
      vertex -31.4779 3.96578 -2.5
      vertex -30.9647 3.8637 2.5
      vertex -31.4779 3.96578 2.5
    endloop
  endfacet
  facet normal -0.195087 -0.980786 -0
    outer loop
      vertex -30.9647 3.8637 2.5
      vertex -31.4779 3.96578 -2.5
      vertex -30.9647 3.8637 -2.5
    endloop
  endfacet
  facet normal -0.442268 -0.896883 0
    outer loop
      vertex -30.4693 3.69552 -2.5
      vertex -30 3.4641 2.5
      vertex -30.4693 3.69552 2.5
    endloop
  endfacet
  facet normal -0.442268 -0.896883 -0
    outer loop
      vertex -30 3.4641 2.5
      vertex -30.4693 3.69552 -2.5
      vertex -30 3.4641 -2.5
    endloop
  endfacet
  facet normal -0.896887 0.44226 0
    outer loop
      vertex -28.5359 -2 -2.5
      vertex -28.3045 -1.53073 2.5
      vertex -28.3045 -1.53073 -2.5
    endloop
  endfacet
  facet normal -0.896887 0.44226 0
    outer loop
      vertex -28.3045 -1.53073 2.5
      vertex -28.5359 -2 -2.5
      vertex -28.5359 -2 2.5
    endloop
  endfacet
  facet normal 0.751826 -0.659362 0
    outer loop
      vertex -35.1734 2.43505 2.5
      vertex -34.8284 2.82843 -2.5
      vertex -34.8284 2.82843 2.5
    endloop
  endfacet
  facet normal 0.751826 -0.659362 0
    outer loop
      vertex -34.8284 2.82843 -2.5
      vertex -35.1734 2.43505 2.5
      vertex -35.1734 2.43505 -2.5
    endloop
  endfacet
  facet normal 0.321464 0.946922 -0
    outer loop
      vertex -33.0353 -3.8637 -2.5
      vertex -33.5307 -3.69552 2.5
      vertex -33.0353 -3.8637 2.5
    endloop
  endfacet
  facet normal 0.321464 0.946922 0
    outer loop
      vertex -33.5307 -3.69552 2.5
      vertex -33.0353 -3.8637 -2.5
      vertex -33.5307 -3.69552 -2.5
    endloop
  endfacet
  facet normal 0.195087 0.980786 -0
    outer loop
      vertex -32.5221 -3.96578 -2.5
      vertex -33.0353 -3.8637 2.5
      vertex -32.5221 -3.96578 2.5
    endloop
  endfacet
  facet normal 0.195087 0.980786 0
    outer loop
      vertex -33.0353 -3.8637 2.5
      vertex -32.5221 -3.96578 -2.5
      vertex -33.0353 -3.8637 -2.5
    endloop
  endfacet
  facet normal 0.980777 -0.195133 0
    outer loop
      vertex -35.9658 0.522104 2.5
      vertex -35.8637 1.03528 -2.5
      vertex -35.8637 1.03528 2.5
    endloop
  endfacet
  facet normal 0.980777 -0.195133 0
    outer loop
      vertex -35.8637 1.03528 -2.5
      vertex -35.9658 0.522104 2.5
      vertex -35.9658 0.522104 -2.5
    endloop
  endfacet
  facet normal 0.442268 0.896883 -0
    outer loop
      vertex -33.5307 -3.69552 -2.5
      vertex -34 -3.4641 2.5
      vertex -33.5307 -3.69552 2.5
    endloop
  endfacet
  facet normal 0.442268 0.896883 0
    outer loop
      vertex -34 -3.4641 2.5
      vertex -33.5307 -3.69552 -2.5
      vertex -34 -3.4641 -2.5
    endloop
  endfacet
  facet normal 0.94692 -0.321469 0
    outer loop
      vertex -35.8637 1.03528 2.5
      vertex -35.6955 1.53073 -2.5
      vertex -35.6955 1.53073 2.5
    endloop
  endfacet
  facet normal 0.94692 -0.321469 0
    outer loop
      vertex -35.6955 1.53073 -2.5
      vertex -35.8637 1.03528 2.5
      vertex -35.8637 1.03528 -2.5
    endloop
  endfacet
  facet normal 0.195087 -0.980786 0
    outer loop
      vertex -33.0353 3.8637 -2.5
      vertex -32.5221 3.96578 2.5
      vertex -33.0353 3.8637 2.5
    endloop
  endfacet
  facet normal 0.195087 -0.980786 0
    outer loop
      vertex -32.5221 3.96578 2.5
      vertex -33.0353 3.8637 -2.5
      vertex -32.5221 3.96578 -2.5
    endloop
  endfacet
  facet normal 0.0654027 0.997859 -0
    outer loop
      vertex -32 -4 -2.5
      vertex -32.5221 -3.96578 2.5
      vertex -32 -4 2.5
    endloop
  endfacet
  facet normal 0.0654027 0.997859 0
    outer loop
      vertex -32.5221 -3.96578 2.5
      vertex -32 -4 -2.5
      vertex -32.5221 -3.96578 -2.5
    endloop
  endfacet
  facet normal -0.321464 0.946922 0
    outer loop
      vertex -30.4693 -3.69552 -2.5
      vertex -30.9647 -3.8637 2.5
      vertex -30.4693 -3.69552 2.5
    endloop
  endfacet
  facet normal -0.321464 0.946922 0
    outer loop
      vertex -30.9647 -3.8637 2.5
      vertex -30.4693 -3.69552 -2.5
      vertex -30.9647 -3.8637 -2.5
    endloop
  endfacet
  facet normal -0.555613 0.831441 0
    outer loop
      vertex -29.565 -3.17341 -2.5
      vertex -30 -3.4641 2.5
      vertex -29.565 -3.17341 2.5
    endloop
  endfacet
  facet normal -0.555613 0.831441 0
    outer loop
      vertex -30 -3.4641 2.5
      vertex -29.565 -3.17341 -2.5
      vertex -30 -3.4641 -2.5
    endloop
  endfacet
  facet normal -0.659321 0.751861 0
    outer loop
      vertex -29.1716 -2.82843 -2.5
      vertex -29.565 -3.17341 2.5
      vertex -29.1716 -2.82843 2.5
    endloop
  endfacet
  facet normal -0.659321 0.751861 0
    outer loop
      vertex -29.565 -3.17341 2.5
      vertex -29.1716 -2.82843 -2.5
      vertex -29.565 -3.17341 -2.5
    endloop
  endfacet
  facet normal -0.751826 0.659362 0
    outer loop
      vertex -29.1716 -2.82843 -2.5
      vertex -28.8266 -2.43505 2.5
      vertex -28.8266 -2.43505 -2.5
    endloop
  endfacet
  facet normal -0.751826 0.659362 0
    outer loop
      vertex -28.8266 -2.43505 2.5
      vertex -29.1716 -2.82843 -2.5
      vertex -29.1716 -2.82843 2.5
    endloop
  endfacet
  facet normal -0.321464 0.946922 0
    outer loop
      vertex 33.5307 -3.69552 -2.5
      vertex 33.0353 -3.8637 2.5
      vertex 33.5307 -3.69552 2.5
    endloop
  endfacet
  facet normal -0.321464 0.946922 0
    outer loop
      vertex 33.0353 -3.8637 2.5
      vertex 33.5307 -3.69552 -2.5
      vertex 33.0353 -3.8637 -2.5
    endloop
  endfacet
  facet normal -0.980777 -0.195133 0
    outer loop
      vertex 35.9658 0.522104 -2.5
      vertex 35.8637 1.03528 2.5
      vertex 35.8637 1.03528 -2.5
    endloop
  endfacet
  facet normal -0.980777 -0.195133 0
    outer loop
      vertex 35.8637 1.03528 2.5
      vertex 35.9658 0.522104 -2.5
      vertex 35.9658 0.522104 2.5
    endloop
  endfacet
  facet normal -0.997861 -0.0653641 0
    outer loop
      vertex 36 0 -2.5
      vertex 35.9658 0.522104 2.5
      vertex 35.9658 0.522104 -2.5
    endloop
  endfacet
  facet normal -0.997861 -0.0653641 0
    outer loop
      vertex 35.9658 0.522104 2.5
      vertex 36 0 -2.5
      vertex 36 0 2.5
    endloop
  endfacet
  facet normal -0.94692 -0.321469 0
    outer loop
      vertex 35.8637 1.03528 -2.5
      vertex 35.6955 1.53073 2.5
      vertex 35.6955 1.53073 -2.5
    endloop
  endfacet
  facet normal -0.94692 -0.321469 0
    outer loop
      vertex 35.6955 1.53073 2.5
      vertex 35.8637 1.03528 -2.5
      vertex 35.8637 1.03528 2.5
    endloop
  endfacet
  facet normal -0.442268 0.896883 0
    outer loop
      vertex 34 -3.4641 -2.5
      vertex 33.5307 -3.69552 2.5
      vertex 34 -3.4641 2.5
    endloop
  endfacet
  facet normal -0.442268 0.896883 0
    outer loop
      vertex 33.5307 -3.69552 2.5
      vertex 34 -3.4641 -2.5
      vertex 33.5307 -3.69552 -2.5
    endloop
  endfacet
  facet normal -0.321464 -0.946922 0
    outer loop
      vertex 33.0353 3.8637 -2.5
      vertex 33.5307 3.69552 2.5
      vertex 33.0353 3.8637 2.5
    endloop
  endfacet
  facet normal -0.321464 -0.946922 -0
    outer loop
      vertex 33.5307 3.69552 2.5
      vertex 33.0353 3.8637 -2.5
      vertex 33.5307 3.69552 -2.5
    endloop
  endfacet
  facet normal -0.659321 0.751861 0
    outer loop
      vertex 34.8284 -2.82843 -2.5
      vertex 34.435 -3.17341 2.5
      vertex 34.8284 -2.82843 2.5
    endloop
  endfacet
  facet normal -0.659321 0.751861 0
    outer loop
      vertex 34.435 -3.17341 2.5
      vertex 34.8284 -2.82843 -2.5
      vertex 34.435 -3.17341 -2.5
    endloop
  endfacet
  facet normal 0.321464 -0.946922 0
    outer loop
      vertex 30.4693 3.69552 -2.5
      vertex 30.9647 3.8637 2.5
      vertex 30.4693 3.69552 2.5
    endloop
  endfacet
  facet normal 0.321464 -0.946922 0
    outer loop
      vertex 30.9647 3.8637 2.5
      vertex 30.4693 3.69552 -2.5
      vertex 30.9647 3.8637 -2.5
    endloop
  endfacet
  facet normal -0.831462 -0.555582 0
    outer loop
      vertex 35.4641 2 -2.5
      vertex 35.1734 2.43505 2.5
      vertex 35.1734 2.43505 -2.5
    endloop
  endfacet
  facet normal -0.831462 -0.555582 0
    outer loop
      vertex 35.1734 2.43505 2.5
      vertex 35.4641 2 -2.5
      vertex 35.4641 2 2.5
    endloop
  endfacet
  facet normal -0.896887 -0.44226 0
    outer loop
      vertex 35.6955 1.53073 -2.5
      vertex 35.4641 2 2.5
      vertex 35.4641 2 -2.5
    endloop
  endfacet
  facet normal -0.896887 -0.44226 0
    outer loop
      vertex 35.4641 2 2.5
      vertex 35.6955 1.53073 -2.5
      vertex 35.6955 1.53073 2.5
    endloop
  endfacet
  facet normal 0.831462 -0.555582 0
    outer loop
      vertex 28.5359 2 2.5
      vertex 28.8266 2.43505 -2.5
      vertex 28.8266 2.43505 2.5
    endloop
  endfacet
  facet normal 0.831462 -0.555582 0
    outer loop
      vertex 28.8266 2.43505 -2.5
      vertex 28.5359 2 2.5
      vertex 28.5359 2 -2.5
    endloop
  endfacet
  facet normal -0.751826 -0.659362 0
    outer loop
      vertex 35.1734 2.43505 -2.5
      vertex 34.8284 2.82843 2.5
      vertex 34.8284 2.82843 -2.5
    endloop
  endfacet
  facet normal -0.751826 -0.659362 0
    outer loop
      vertex 34.8284 2.82843 2.5
      vertex 35.1734 2.43505 -2.5
      vertex 35.1734 2.43505 2.5
    endloop
  endfacet
  facet normal 0.555613 0.831441 -0
    outer loop
      vertex 30 -3.4641 -2.5
      vertex 29.565 -3.17341 2.5
      vertex 30 -3.4641 2.5
    endloop
  endfacet
  facet normal 0.555613 0.831441 0
    outer loop
      vertex 29.565 -3.17341 2.5
      vertex 30 -3.4641 -2.5
      vertex 29.565 -3.17341 -2.5
    endloop
  endfacet
  facet normal 0.659321 -0.751861 0
    outer loop
      vertex 29.1716 2.82843 -2.5
      vertex 29.565 3.17341 2.5
      vertex 29.1716 2.82843 2.5
    endloop
  endfacet
  facet normal 0.659321 -0.751861 0
    outer loop
      vertex 29.565 3.17341 2.5
      vertex 29.1716 2.82843 -2.5
      vertex 29.565 3.17341 -2.5
    endloop
  endfacet
  facet normal -0.94692 0.321469 0
    outer loop
      vertex 35.6955 -1.53073 -2.5
      vertex 35.8637 -1.03528 2.5
      vertex 35.8637 -1.03528 -2.5
    endloop
  endfacet
  facet normal -0.94692 0.321469 0
    outer loop
      vertex 35.8637 -1.03528 2.5
      vertex 35.6955 -1.53073 -2.5
      vertex 35.6955 -1.53073 2.5
    endloop
  endfacet
  facet normal 0.321464 0.946922 -0
    outer loop
      vertex 30.9647 -3.8637 -2.5
      vertex 30.4693 -3.69552 2.5
      vertex 30.9647 -3.8637 2.5
    endloop
  endfacet
  facet normal 0.321464 0.946922 0
    outer loop
      vertex 30.4693 -3.69552 2.5
      vertex 30.9647 -3.8637 -2.5
      vertex 30.4693 -3.69552 -2.5
    endloop
  endfacet
  facet normal 0.195087 0.980786 -0
    outer loop
      vertex 31.4779 -3.96578 -2.5
      vertex 30.9647 -3.8637 2.5
      vertex 31.4779 -3.96578 2.5
    endloop
  endfacet
  facet normal 0.195087 0.980786 0
    outer loop
      vertex 30.9647 -3.8637 2.5
      vertex 31.4779 -3.96578 -2.5
      vertex 30.9647 -3.8637 -2.5
    endloop
  endfacet
  facet normal -0.659321 -0.751861 0
    outer loop
      vertex 34.435 3.17341 -2.5
      vertex 34.8284 2.82843 2.5
      vertex 34.435 3.17341 2.5
    endloop
  endfacet
  facet normal -0.659321 -0.751861 -0
    outer loop
      vertex 34.8284 2.82843 2.5
      vertex 34.435 3.17341 -2.5
      vertex 34.8284 2.82843 -2.5
    endloop
  endfacet
  facet normal 0.195087 -0.980786 0
    outer loop
      vertex 30.9647 3.8637 -2.5
      vertex 31.4779 3.96578 2.5
      vertex 30.9647 3.8637 2.5
    endloop
  endfacet
  facet normal 0.195087 -0.980786 0
    outer loop
      vertex 31.4779 3.96578 2.5
      vertex 30.9647 3.8637 -2.5
      vertex 31.4779 3.96578 -2.5
    endloop
  endfacet
  facet normal 0.896887 -0.44226 0
    outer loop
      vertex 28.3045 1.53073 2.5
      vertex 28.5359 2 -2.5
      vertex 28.5359 2 2.5
    endloop
  endfacet
  facet normal 0.896887 -0.44226 0
    outer loop
      vertex 28.5359 2 -2.5
      vertex 28.3045 1.53073 2.5
      vertex 28.3045 1.53073 -2.5
    endloop
  endfacet
  facet normal 0.94692 0.321469 0
    outer loop
      vertex 28.3045 -1.53073 2.5
      vertex 28.1363 -1.03528 -2.5
      vertex 28.1363 -1.03528 2.5
    endloop
  endfacet
  facet normal 0.94692 0.321469 0
    outer loop
      vertex 28.1363 -1.03528 -2.5
      vertex 28.3045 -1.53073 2.5
      vertex 28.3045 -1.53073 -2.5
    endloop
  endfacet
  facet normal 0.442268 -0.896883 0
    outer loop
      vertex 30 3.4641 -2.5
      vertex 30.4693 3.69552 2.5
      vertex 30 3.4641 2.5
    endloop
  endfacet
  facet normal 0.442268 -0.896883 0
    outer loop
      vertex 30.4693 3.69552 2.5
      vertex 30 3.4641 -2.5
      vertex 30.4693 3.69552 -2.5
    endloop
  endfacet
  facet normal -0.195087 -0.980786 0
    outer loop
      vertex 32.5221 3.96578 -2.5
      vertex 33.0353 3.8637 2.5
      vertex 32.5221 3.96578 2.5
    endloop
  endfacet
  facet normal -0.195087 -0.980786 -0
    outer loop
      vertex 33.0353 3.8637 2.5
      vertex 32.5221 3.96578 -2.5
      vertex 33.0353 3.8637 -2.5
    endloop
  endfacet
  facet normal -0.831462 0.555582 0
    outer loop
      vertex 35.1734 -2.43505 -2.5
      vertex 35.4641 -2 2.5
      vertex 35.4641 -2 -2.5
    endloop
  endfacet
  facet normal -0.831462 0.555582 0
    outer loop
      vertex 35.4641 -2 2.5
      vertex 35.1734 -2.43505 -2.5
      vertex 35.1734 -2.43505 2.5
    endloop
  endfacet
  facet normal -0.195087 0.980786 0
    outer loop
      vertex 33.0353 -3.8637 -2.5
      vertex 32.5221 -3.96578 2.5
      vertex 33.0353 -3.8637 2.5
    endloop
  endfacet
  facet normal -0.195087 0.980786 0
    outer loop
      vertex 32.5221 -3.96578 2.5
      vertex 33.0353 -3.8637 -2.5
      vertex 32.5221 -3.96578 -2.5
    endloop
  endfacet
  facet normal -0.980777 0.195133 0
    outer loop
      vertex 35.8637 -1.03528 -2.5
      vertex 35.9658 -0.522104 2.5
      vertex 35.9658 -0.522104 -2.5
    endloop
  endfacet
  facet normal -0.980777 0.195133 0
    outer loop
      vertex 35.9658 -0.522104 2.5
      vertex 35.8637 -1.03528 -2.5
      vertex 35.8637 -1.03528 2.5
    endloop
  endfacet
  facet normal -0.555613 0.831441 0
    outer loop
      vertex 34.435 -3.17341 -2.5
      vertex 34 -3.4641 2.5
      vertex 34.435 -3.17341 2.5
    endloop
  endfacet
  facet normal -0.555613 0.831441 0
    outer loop
      vertex 34 -3.4641 2.5
      vertex 34.435 -3.17341 -2.5
      vertex 34 -3.4641 -2.5
    endloop
  endfacet
  facet normal -0.555613 -0.831441 0
    outer loop
      vertex 34 3.4641 -2.5
      vertex 34.435 3.17341 2.5
      vertex 34 3.4641 2.5
    endloop
  endfacet
  facet normal -0.555613 -0.831441 -0
    outer loop
      vertex 34.435 3.17341 2.5
      vertex 34 3.4641 -2.5
      vertex 34.435 3.17341 -2.5
    endloop
  endfacet
  facet normal -0.896887 0.44226 0
    outer loop
      vertex 35.4641 -2 -2.5
      vertex 35.6955 -1.53073 2.5
      vertex 35.6955 -1.53073 -2.5
    endloop
  endfacet
  facet normal -0.896887 0.44226 0
    outer loop
      vertex 35.6955 -1.53073 2.5
      vertex 35.4641 -2 -2.5
      vertex 35.4641 -2 2.5
    endloop
  endfacet
  facet normal 0.555613 -0.831441 0
    outer loop
      vertex 29.565 3.17341 -2.5
      vertex 30 3.4641 2.5
      vertex 29.565 3.17341 2.5
    endloop
  endfacet
  facet normal 0.555613 -0.831441 0
    outer loop
      vertex 30 3.4641 2.5
      vertex 29.565 3.17341 -2.5
      vertex 30 3.4641 -2.5
    endloop
  endfacet
  facet normal -0.751826 0.659362 0
    outer loop
      vertex 34.8284 -2.82843 -2.5
      vertex 35.1734 -2.43505 2.5
      vertex 35.1734 -2.43505 -2.5
    endloop
  endfacet
  facet normal -0.751826 0.659362 0
    outer loop
      vertex 35.1734 -2.43505 2.5
      vertex 34.8284 -2.82843 -2.5
      vertex 34.8284 -2.82843 2.5
    endloop
  endfacet
  facet normal 0.980777 -0.195133 0
    outer loop
      vertex 28.0342 0.522104 2.5
      vertex 28.1363 1.03528 -2.5
      vertex 28.1363 1.03528 2.5
    endloop
  endfacet
  facet normal 0.980777 -0.195133 0
    outer loop
      vertex 28.1363 1.03528 -2.5
      vertex 28.0342 0.522104 2.5
      vertex 28.0342 0.522104 -2.5
    endloop
  endfacet
  facet normal 0.997861 -0.0653641 0
    outer loop
      vertex 28 0 2.5
      vertex 28.0342 0.522104 -2.5
      vertex 28.0342 0.522104 2.5
    endloop
  endfacet
  facet normal 0.997861 -0.0653641 0
    outer loop
      vertex 28.0342 0.522104 -2.5
      vertex 28 0 2.5
      vertex 28 0 -2.5
    endloop
  endfacet
  facet normal -0.997861 0.0653641 0
    outer loop
      vertex 35.9658 -0.522104 -2.5
      vertex 36 0 2.5
      vertex 36 0 -2.5
    endloop
  endfacet
  facet normal -0.997861 0.0653641 0
    outer loop
      vertex 36 0 2.5
      vertex 35.9658 -0.522104 -2.5
      vertex 35.9658 -0.522104 2.5
    endloop
  endfacet
  facet normal 0.896887 0.44226 0
    outer loop
      vertex 28.5359 -2 2.5
      vertex 28.3045 -1.53073 -2.5
      vertex 28.3045 -1.53073 2.5
    endloop
  endfacet
  facet normal 0.896887 0.44226 0
    outer loop
      vertex 28.3045 -1.53073 -2.5
      vertex 28.5359 -2 2.5
      vertex 28.5359 -2 -2.5
    endloop
  endfacet
  facet normal 0.0654027 0.997859 -0
    outer loop
      vertex 32 -4 -2.5
      vertex 31.4779 -3.96578 2.5
      vertex 32 -4 2.5
    endloop
  endfacet
  facet normal 0.0654027 0.997859 0
    outer loop
      vertex 31.4779 -3.96578 2.5
      vertex 32 -4 -2.5
      vertex 31.4779 -3.96578 -2.5
    endloop
  endfacet
  facet normal 0.94692 -0.321469 0
    outer loop
      vertex 28.1363 1.03528 2.5
      vertex 28.3045 1.53073 -2.5
      vertex 28.3045 1.53073 2.5
    endloop
  endfacet
  facet normal 0.94692 -0.321469 0
    outer loop
      vertex 28.3045 1.53073 -2.5
      vertex 28.1363 1.03528 2.5
      vertex 28.1363 1.03528 -2.5
    endloop
  endfacet
  facet normal 0.831462 0.555582 0
    outer loop
      vertex 28.8266 -2.43505 2.5
      vertex 28.5359 -2 -2.5
      vertex 28.5359 -2 2.5
    endloop
  endfacet
  facet normal 0.831462 0.555582 0
    outer loop
      vertex 28.5359 -2 -2.5
      vertex 28.8266 -2.43505 2.5
      vertex 28.8266 -2.43505 -2.5
    endloop
  endfacet
  facet normal -0.0654027 -0.997859 0
    outer loop
      vertex 32 4 -2.5
      vertex 32.5221 3.96578 2.5
      vertex 32 4 2.5
    endloop
  endfacet
  facet normal -0.0654027 -0.997859 -0
    outer loop
      vertex 32.5221 3.96578 2.5
      vertex 32 4 -2.5
      vertex 32.5221 3.96578 -2.5
    endloop
  endfacet
  facet normal 0.751826 -0.659362 0
    outer loop
      vertex 28.8266 2.43505 2.5
      vertex 29.1716 2.82843 -2.5
      vertex 29.1716 2.82843 2.5
    endloop
  endfacet
  facet normal 0.751826 -0.659362 0
    outer loop
      vertex 29.1716 2.82843 -2.5
      vertex 28.8266 2.43505 2.5
      vertex 28.8266 2.43505 -2.5
    endloop
  endfacet
  facet normal 0.0654027 -0.997859 0
    outer loop
      vertex 31.4779 3.96578 -2.5
      vertex 32 4 2.5
      vertex 31.4779 3.96578 2.5
    endloop
  endfacet
  facet normal 0.0654027 -0.997859 0
    outer loop
      vertex 32 4 2.5
      vertex 31.4779 3.96578 -2.5
      vertex 32 4 -2.5
    endloop
  endfacet
  facet normal -0.442268 -0.896883 0
    outer loop
      vertex 33.5307 3.69552 -2.5
      vertex 34 3.4641 2.5
      vertex 33.5307 3.69552 2.5
    endloop
  endfacet
  facet normal -0.442268 -0.896883 -0
    outer loop
      vertex 34 3.4641 2.5
      vertex 33.5307 3.69552 -2.5
      vertex 34 3.4641 -2.5
    endloop
  endfacet
  facet normal 0.980777 0.195133 0
    outer loop
      vertex 28.1363 -1.03528 2.5
      vertex 28.0342 -0.522104 -2.5
      vertex 28.0342 -0.522104 2.5
    endloop
  endfacet
  facet normal 0.980777 0.195133 0
    outer loop
      vertex 28.0342 -0.522104 -2.5
      vertex 28.1363 -1.03528 2.5
      vertex 28.1363 -1.03528 -2.5
    endloop
  endfacet
  facet normal 0.659321 0.751861 -0
    outer loop
      vertex 29.565 -3.17341 -2.5
      vertex 29.1716 -2.82843 2.5
      vertex 29.565 -3.17341 2.5
    endloop
  endfacet
  facet normal 0.659321 0.751861 0
    outer loop
      vertex 29.1716 -2.82843 2.5
      vertex 29.565 -3.17341 -2.5
      vertex 29.1716 -2.82843 -2.5
    endloop
  endfacet
  facet normal 0.751826 0.659362 0
    outer loop
      vertex 29.1716 -2.82843 2.5
      vertex 28.8266 -2.43505 -2.5
      vertex 28.8266 -2.43505 2.5
    endloop
  endfacet
  facet normal 0.751826 0.659362 0
    outer loop
      vertex 28.8266 -2.43505 -2.5
      vertex 29.1716 -2.82843 2.5
      vertex 29.1716 -2.82843 -2.5
    endloop
  endfacet
  facet normal -0.0654027 0.997859 0
    outer loop
      vertex 32.5221 -3.96578 -2.5
      vertex 32 -4 2.5
      vertex 32.5221 -3.96578 2.5
    endloop
  endfacet
  facet normal -0.0654027 0.997859 0
    outer loop
      vertex 32 -4 2.5
      vertex 32.5221 -3.96578 -2.5
      vertex 32 -4 -2.5
    endloop
  endfacet
  facet normal 0.997861 0.0653641 0
    outer loop
      vertex 28.0342 -0.522104 2.5
      vertex 28 0 -2.5
      vertex 28 0 2.5
    endloop
  endfacet
  facet normal 0.997861 0.0653641 0
    outer loop
      vertex 28 0 -2.5
      vertex 28.0342 -0.522104 2.5
      vertex 28.0342 -0.522104 -2.5
    endloop
  endfacet
  facet normal 0.442268 0.896883 -0
    outer loop
      vertex 30.4693 -3.69552 -2.5
      vertex 30 -3.4641 2.5
      vertex 30.4693 -3.69552 2.5
    endloop
  endfacet
  facet normal 0.442268 0.896883 0
    outer loop
      vertex 30 -3.4641 2.5
      vertex 30.4693 -3.69552 -2.5
      vertex 30 -3.4641 -2.5
    endloop
  endfacet
endsolid OpenSCAD_Model
