solid OpenSCAD_Model
  facet normal 1 -0 0
    outer loop
      vertex 65 -75 45
      vertex 65 75 -45
      vertex 65 75 45
    endloop
  endfacet
  facet normal 1 0 0
    outer loop
      vertex 65 75 -45
      vertex 65 -75 45
      vertex 65 -75 -45
    endloop
  endfacet
  facet normal 0 0 1
    outer loop
      vertex 65 75 45
      vertex 63 73 45
      vertex 65 -75 45
    endloop
  endfacet
  facet normal 0 0 1
    outer loop
      vertex 65 75 45
      vertex -63 73 45
      vertex 63 73 45
    endloop
  endfacet
  facet normal 0 0 1
    outer loop
      vertex -63 73 45
      vertex -65 75 45
      vertex -63 -73 45
    endloop
  endfacet
  facet normal -0 0 1
    outer loop
      vertex -65 75 45
      vertex -63 73 45
      vertex 65 75 45
    endloop
  endfacet
  facet normal -0 0 1
    outer loop
      vertex 63 -73 45
      vertex 65 -75 45
      vertex 63 73 45
    endloop
  endfacet
  facet normal -0 0 1
    outer loop
      vertex -63 -73 45
      vertex 65 -75 45
      vertex 63 -73 45
    endloop
  endfacet
  facet normal 0 0 1
    outer loop
      vertex -63 -73 45
      vertex -65 -75 45
      vertex 65 -75 45
    endloop
  endfacet
  facet normal 0 0 1
    outer loop
      vertex -65 -75 45
      vertex -63 -73 45
      vertex -65 75 45
    endloop
  endfacet
  facet normal 0 0 -1
    outer loop
      vertex -65 -75 -45
      vertex 65 75 -45
      vertex 65 -75 -45
    endloop
  endfacet
  facet normal -0 0 -1
    outer loop
      vertex 65 75 -45
      vertex -65 -75 -45
      vertex -65 75 -45
    endloop
  endfacet
  facet normal -1 0 0
    outer loop
      vertex -65 -75 -45
      vertex -65 75 45
      vertex -65 75 -45
    endloop
  endfacet
  facet normal -1 -0 0
    outer loop
      vertex -65 75 45
      vertex -65 -75 -45
      vertex -65 -75 45
    endloop
  endfacet
  facet normal 0 1 -0
    outer loop
      vertex 65 75 -45
      vertex -65 75 45
      vertex 65 75 45
    endloop
  endfacet
  facet normal 0 1 0
    outer loop
      vertex -65 75 45
      vertex 65 75 -45
      vertex -65 75 -45
    endloop
  endfacet
  facet normal 0 -1 0
    outer loop
      vertex -65 -75 -45
      vertex 65 -75 45
      vertex -65 -75 45
    endloop
  endfacet
  facet normal 0 -1 -0
    outer loop
      vertex 65 -75 45
      vertex -65 -75 -45
      vertex 65 -75 -45
    endloop
  endfacet
  facet normal -1 0 0
    outer loop
      vertex 63 -73 -43
      vertex 63 73 45
      vertex 63 73 -43
    endloop
  endfacet
  facet normal -1 -0 0
    outer loop
      vertex 63 73 45
      vertex 63 -73 -43
      vertex 63 -73 45
    endloop
  endfacet
  facet normal -0 0 1
    outer loop
      vertex -63 73 -43
      vertex 63 -73 -43
      vertex 63 73 -43
    endloop
  endfacet
  facet normal 0 0 1
    outer loop
      vertex 63 -73 -43
      vertex -63 73 -43
      vertex -63 -73 -43
    endloop
  endfacet
  facet normal 1 -0 0
    outer loop
      vertex -63 -73 45
      vertex -63 73 -43
      vertex -63 73 45
    endloop
  endfacet
  facet normal 1 0 0
    outer loop
      vertex -63 73 -43
      vertex -63 -73 45
      vertex -63 -73 -43
    endloop
  endfacet
  facet normal 0 -1 0
    outer loop
      vertex -63 73 -43
      vertex 63 73 45
      vertex -63 73 45
    endloop
  endfacet
  facet normal 0 -1 -0
    outer loop
      vertex 63 73 45
      vertex -63 73 -43
      vertex 63 73 -43
    endloop
  endfacet
  facet normal 0 1 -0
    outer loop
      vertex 63 -73 -43
      vertex -63 -73 45
      vertex 63 -73 45
    endloop
  endfacet
  facet normal 0 1 0
    outer loop
      vertex -63 -73 45
      vertex 63 -73 -43
      vertex -63 -73 -43
    endloop
  endfacet
endsolid OpenSCAD_Model
