solid OpenSCAD_Model
  facet normal -0 0 1
    outer loop
      vertex -55 7.5 40
      vertex 55 -7.5 40
      vertex 55 7.5 40
    endloop
  endfacet
  facet normal 0 0 1
    outer loop
      vertex 55 -7.5 40
      vertex -55 7.5 40
      vertex -55 -7.5 40
    endloop
  endfacet
  facet normal 0 0 -1
    outer loop
      vertex -55 -7.5 -40
      vertex 55 7.5 -40
      vertex 55 -7.5 -40
    endloop
  endfacet
  facet normal -0 0 -1
    outer loop
      vertex 55 7.5 -40
      vertex -55 -7.5 -40
      vertex -55 7.5 -40
    endloop
  endfacet
  facet normal 0 -1 0
    outer loop
      vertex -55 -7.5 -40
      vertex 55 -7.5 40
      vertex -55 -7.5 40
    endloop
  endfacet
  facet normal 0 -1 -0
    outer loop
      vertex 55 -7.5 40
      vertex -55 -7.5 -40
      vertex 55 -7.5 -40
    endloop
  endfacet
  facet normal 1 -0 0
    outer loop
      vertex 55 -7.5 40
      vertex 55 7.5 -40
      vertex 55 7.5 40
    endloop
  endfacet
  facet normal 1 0 0
    outer loop
      vertex 55 7.5 -40
      vertex 55 -7.5 40
      vertex 55 -7.5 -40
    endloop
  endfacet
  facet normal 0 1 -0
    outer loop
      vertex 55 7.5 -40
      vertex -55 7.5 40
      vertex 55 7.5 40
    endloop
  endfacet
  facet normal 0 1 0
    outer loop
      vertex -55 7.5 40
      vertex 55 7.5 -40
      vertex -55 7.5 -40
    endloop
  endfacet
  facet normal -1 0 0
    outer loop
      vertex -55 -7.5 -40
      vertex -55 7.5 40
      vertex -55 7.5 -40
    endloop
  endfacet
  facet normal -1 -0 0
    outer loop
      vertex -55 7.5 40
      vertex -55 -7.5 -40
      vertex -55 -7.5 40
    endloop
  endfacet
endsolid OpenSCAD_Model
