solid OpenSCAD_Model
  facet normal 1 -0 0
    outer loop
      vertex 45 -75 2.5
      vertex 45 75 -2.5
      vertex 45 75 2.5
    endloop
  endfacet
  facet normal 1 0 0
    outer loop
      vertex 45 75 -2.5
      vertex 45 -75 2.5
      vertex 45 -75 -2.5
    endloop
  endfacet
  facet normal 0 0 1
    outer loop
      vertex 45 75 2.5
      vertex 37 -57.5 2.5
      vertex 45 -75 2.5
    endloop
  endfacet
  facet normal -0 0 1
    outer loop
      vertex 8 57.5 2.5
      vertex 37 -57.5 2.5
      vertex 45 75 2.5
    endloop
  endfacet
  facet normal 0 0 1
    outer loop
      vertex 37 -57.5 2.5
      vertex 8 57.5 2.5
      vertex 21 -57.5 2.5
    endloop
  endfacet
  facet normal 0 0 1
    outer loop
      vertex 8 57.5 2.5
      vertex 45 75 2.5
      vertex 8 60.5 2.5
    endloop
  endfacet
  facet normal 0 0 1
    outer loop
      vertex 45 75 2.5
      vertex -8 60.5 2.5
      vertex 8 60.5 2.5
    endloop
  endfacet
  facet normal 0 0 1
    outer loop
      vertex -45 75 2.5
      vertex -8 57.5 2.5
      vertex -8 60.5 2.5
    endloop
  endfacet
  facet normal 0 0 1
    outer loop
      vertex -8 57.5 2.5
      vertex -37 -57.5 2.5
      vertex -21 -57.5 2.5
    endloop
  endfacet
  facet normal 0 0 1
    outer loop
      vertex -45 -75 2.5
      vertex -37 -57.5 2.5
      vertex -45 75 2.5
    endloop
  endfacet
  facet normal 0 0 1
    outer loop
      vertex -8 57.5 2.5
      vertex -45 75 2.5
      vertex -37 -57.5 2.5
    endloop
  endfacet
  facet normal -0 0 1
    outer loop
      vertex -45 75 2.5
      vertex -8 60.5 2.5
      vertex 45 75 2.5
    endloop
  endfacet
  facet normal -0 0 1
    outer loop
      vertex 37 -60.5 2.5
      vertex 45 -75 2.5
      vertex 37 -57.5 2.5
    endloop
  endfacet
  facet normal -0 0 1
    outer loop
      vertex 21 -60.5 2.5
      vertex 45 -75 2.5
      vertex 37 -60.5 2.5
    endloop
  endfacet
  facet normal 0 0 1
    outer loop
      vertex -21 -57.5 2.5
      vertex 21 -57.5 2.5
      vertex 8 57.5 2.5
    endloop
  endfacet
  facet normal 0 0 1
    outer loop
      vertex -21 -57.5 2.5
      vertex 8 57.5 2.5
      vertex -8 57.5 2.5
    endloop
  endfacet
  facet normal 0 0 1
    outer loop
      vertex 21 -57.5 2.5
      vertex -21 -57.5 2.5
      vertex 21 -60.5 2.5
    endloop
  endfacet
  facet normal 0 0 1
    outer loop
      vertex -21 -60.5 2.5
      vertex 21 -60.5 2.5
      vertex -21 -57.5 2.5
    endloop
  endfacet
  facet normal 0 0 1
    outer loop
      vertex 21 -60.5 2.5
      vertex -21 -60.5 2.5
      vertex 45 -75 2.5
    endloop
  endfacet
  facet normal 0 0 1
    outer loop
      vertex -45 -75 2.5
      vertex -21 -60.5 2.5
      vertex -37 -60.5 2.5
    endloop
  endfacet
  facet normal 0 0 1
    outer loop
      vertex -21 -60.5 2.5
      vertex -45 -75 2.5
      vertex 45 -75 2.5
    endloop
  endfacet
  facet normal 0 0 1
    outer loop
      vertex -37 -57.5 2.5
      vertex -45 -75 2.5
      vertex -37 -60.5 2.5
    endloop
  endfacet
  facet normal 0 0 -1
    outer loop
      vertex 37 -57.5 -2.5
      vertex 45 -75 -2.5
      vertex 37 -60.5 -2.5
    endloop
  endfacet
  facet normal 0 0 -1
    outer loop
      vertex 45 -75 -2.5
      vertex 21 -60.5 -2.5
      vertex 37 -60.5 -2.5
    endloop
  endfacet
  facet normal 0 0 -1
    outer loop
      vertex -21 -57.5 -2.5
      vertex 21 -57.5 -2.5
      vertex 21 -60.5 -2.5
    endloop
  endfacet
  facet normal 0 0 -1
    outer loop
      vertex 21 -57.5 -2.5
      vertex -21 -57.5 -2.5
      vertex 8 57.5 -2.5
    endloop
  endfacet
  facet normal -0 0 -1
    outer loop
      vertex 8 57.5 -2.5
      vertex -21 -57.5 -2.5
      vertex -8 57.5 -2.5
    endloop
  endfacet
  facet normal 0 0 -1
    outer loop
      vertex -21 -57.5 -2.5
      vertex 21 -60.5 -2.5
      vertex -21 -60.5 -2.5
    endloop
  endfacet
  facet normal 0 0 -1
    outer loop
      vertex 45 -75 -2.5
      vertex -21 -60.5 -2.5
      vertex 21 -60.5 -2.5
    endloop
  endfacet
  facet normal 0 0 -1
    outer loop
      vertex -45 -75 -2.5
      vertex -21 -60.5 -2.5
      vertex 45 -75 -2.5
    endloop
  endfacet
  facet normal -0 0 -1
    outer loop
      vertex -37 -60.5 -2.5
      vertex -45 -75 -2.5
      vertex -37 -57.5 -2.5
    endloop
  endfacet
  facet normal -0 0 -1
    outer loop
      vertex -21 -60.5 -2.5
      vertex -45 -75 -2.5
      vertex -37 -60.5 -2.5
    endloop
  endfacet
  facet normal 0 0 -1
    outer loop
      vertex 45 -75 -2.5
      vertex 37 -57.5 -2.5
      vertex 45 75 -2.5
    endloop
  endfacet
  facet normal 0 0 -1
    outer loop
      vertex 8 57.5 -2.5
      vertex 37 -57.5 -2.5
      vertex 21 -57.5 -2.5
    endloop
  endfacet
  facet normal 0 0 -1
    outer loop
      vertex 37 -57.5 -2.5
      vertex 8 57.5 -2.5
      vertex 45 75 -2.5
    endloop
  endfacet
  facet normal 0 0 -1
    outer loop
      vertex 8 60.5 -2.5
      vertex 45 75 -2.5
      vertex 8 57.5 -2.5
    endloop
  endfacet
  facet normal 0 0 -1
    outer loop
      vertex -8 60.5 -2.5
      vertex 45 75 -2.5
      vertex 8 60.5 -2.5
    endloop
  endfacet
  facet normal 0 0 -1
    outer loop
      vertex -37 -57.5 -2.5
      vertex -8 57.5 -2.5
      vertex -21 -57.5 -2.5
    endloop
  endfacet
  facet normal 0 0 -1
    outer loop
      vertex -45 75 -2.5
      vertex -8 57.5 -2.5
      vertex -37 -57.5 -2.5
    endloop
  endfacet
  facet normal 0 0 -1
    outer loop
      vertex -45 75 -2.5
      vertex -37 -57.5 -2.5
      vertex -45 -75 -2.5
    endloop
  endfacet
  facet normal 0 0 -1
    outer loop
      vertex -8 60.5 -2.5
      vertex -45 75 -2.5
      vertex 45 75 -2.5
    endloop
  endfacet
  facet normal 0 0 -1
    outer loop
      vertex -8 57.5 -2.5
      vertex -45 75 -2.5
      vertex -8 60.5 -2.5
    endloop
  endfacet
  facet normal -1 0 0
    outer loop
      vertex -45 -75 -2.5
      vertex -45 75 2.5
      vertex -45 75 -2.5
    endloop
  endfacet
  facet normal -1 -0 0
    outer loop
      vertex -45 75 2.5
      vertex -45 -75 -2.5
      vertex -45 -75 2.5
    endloop
  endfacet
  facet normal 0 1 -0
    outer loop
      vertex 45 75 -2.5
      vertex -45 75 2.5
      vertex 45 75 2.5
    endloop
  endfacet
  facet normal 0 1 0
    outer loop
      vertex -45 75 2.5
      vertex 45 75 -2.5
      vertex -45 75 -2.5
    endloop
  endfacet
  facet normal 0 -1 0
    outer loop
      vertex -45 -75 -2.5
      vertex 45 -75 2.5
      vertex -45 -75 2.5
    endloop
  endfacet
  facet normal 0 -1 -0
    outer loop
      vertex 45 -75 2.5
      vertex -45 -75 -2.5
      vertex 45 -75 -2.5
    endloop
  endfacet
  facet normal -1 0 0
    outer loop
      vertex -21 -60.5 -2.5
      vertex -21 -57.5 2.5
      vertex -21 -57.5 -2.5
    endloop
  endfacet
  facet normal -1 -0 0
    outer loop
      vertex -21 -57.5 2.5
      vertex -21 -60.5 -2.5
      vertex -21 -60.5 2.5
    endloop
  endfacet
  facet normal 1 -0 0
    outer loop
      vertex -37 -60.5 2.5
      vertex -37 -57.5 -2.5
      vertex -37 -57.5 2.5
    endloop
  endfacet
  facet normal 1 0 0
    outer loop
      vertex -37 -57.5 -2.5
      vertex -37 -60.5 2.5
      vertex -37 -60.5 -2.5
    endloop
  endfacet
  facet normal 0 -1 0
    outer loop
      vertex -37 -57.5 -2.5
      vertex -21 -57.5 2.5
      vertex -37 -57.5 2.5
    endloop
  endfacet
  facet normal 0 -1 -0
    outer loop
      vertex -21 -57.5 2.5
      vertex -37 -57.5 -2.5
      vertex -21 -57.5 -2.5
    endloop
  endfacet
  facet normal 0 1 -0
    outer loop
      vertex -21 -60.5 -2.5
      vertex -37 -60.5 2.5
      vertex -21 -60.5 2.5
    endloop
  endfacet
  facet normal 0 1 0
    outer loop
      vertex -37 -60.5 2.5
      vertex -21 -60.5 -2.5
      vertex -37 -60.5 -2.5
    endloop
  endfacet
  facet normal -1 0 0
    outer loop
      vertex 37 -60.5 -2.5
      vertex 37 -57.5 2.5
      vertex 37 -57.5 -2.5
    endloop
  endfacet
  facet normal -1 -0 0
    outer loop
      vertex 37 -57.5 2.5
      vertex 37 -60.5 -2.5
      vertex 37 -60.5 2.5
    endloop
  endfacet
  facet normal 1 -0 0
    outer loop
      vertex 21 -60.5 2.5
      vertex 21 -57.5 -2.5
      vertex 21 -57.5 2.5
    endloop
  endfacet
  facet normal 1 0 0
    outer loop
      vertex 21 -57.5 -2.5
      vertex 21 -60.5 2.5
      vertex 21 -60.5 -2.5
    endloop
  endfacet
  facet normal 0 -1 0
    outer loop
      vertex 21 -57.5 -2.5
      vertex 37 -57.5 2.5
      vertex 21 -57.5 2.5
    endloop
  endfacet
  facet normal 0 -1 -0
    outer loop
      vertex 37 -57.5 2.5
      vertex 21 -57.5 -2.5
      vertex 37 -57.5 -2.5
    endloop
  endfacet
  facet normal 0 1 -0
    outer loop
      vertex 37 -60.5 -2.5
      vertex 21 -60.5 2.5
      vertex 37 -60.5 2.5
    endloop
  endfacet
  facet normal 0 1 0
    outer loop
      vertex 21 -60.5 2.5
      vertex 37 -60.5 -2.5
      vertex 21 -60.5 -2.5
    endloop
  endfacet
  facet normal -1 0 0
    outer loop
      vertex 8 57.5 -2.5
      vertex 8 60.5 2.5
      vertex 8 60.5 -2.5
    endloop
  endfacet
  facet normal -1 -0 0
    outer loop
      vertex 8 60.5 2.5
      vertex 8 57.5 -2.5
      vertex 8 57.5 2.5
    endloop
  endfacet
  facet normal 1 -0 0
    outer loop
      vertex -8 57.5 2.5
      vertex -8 60.5 -2.5
      vertex -8 60.5 2.5
    endloop
  endfacet
  facet normal 1 0 0
    outer loop
      vertex -8 60.5 -2.5
      vertex -8 57.5 2.5
      vertex -8 57.5 -2.5
    endloop
  endfacet
  facet normal 0 -1 0
    outer loop
      vertex -8 60.5 -2.5
      vertex 8 60.5 2.5
      vertex -8 60.5 2.5
    endloop
  endfacet
  facet normal 0 -1 -0
    outer loop
      vertex 8 60.5 2.5
      vertex -8 60.5 -2.5
      vertex 8 60.5 -2.5
    endloop
  endfacet
  facet normal 0 1 -0
    outer loop
      vertex 8 57.5 -2.5
      vertex -8 57.5 2.5
      vertex 8 57.5 2.5
    endloop
  endfacet
  facet normal 0 1 0
    outer loop
      vertex -8 57.5 2.5
      vertex 8 57.5 -2.5
      vertex -8 57.5 -2.5
    endloop
  endfacet
endsolid OpenSCAD_Model
