solid OpenSCAD_Model
  facet normal 1 -0 0
    outer loop
      vertex 110 -40 2.5
      vertex 110 40 -2.5
      vertex 110 40 2.5
    endloop
  endfacet
  facet normal 1 0 0
    outer loop
      vertex 110 40 -2.5
      vertex 110 -40 2.5
      vertex 110 -40 -2.5
    endloop
  endfacet
  facet normal -0 0 1
    outer loop
      vertex -100 17.5 2.5
      vertex -80 -17.5 2.5
      vertex -80 17.5 2.5
    endloop
  endfacet
  facet normal 0 0 1
    outer loop
      vertex -80 -17.5 2.5
      vertex -100 17.5 2.5
      vertex -100 -17.5 2.5
    endloop
  endfacet
  facet normal -0 0 1
    outer loop
      vertex 80 17.5 2.5
      vertex 100 -17.5 2.5
      vertex 100 17.5 2.5
    endloop
  endfacet
  facet normal 0 0 1
    outer loop
      vertex 100 -17.5 2.5
      vertex 80 17.5 2.5
      vertex 80 -17.5 2.5
    endloop
  endfacet
  facet normal 0 0 1
    outer loop
      vertex 100 17.5 2.5
      vertex 110 40 2.5
      vertex 100 22.5 2.5
    endloop
  endfacet
  facet normal 0 0 1
    outer loop
      vertex 110 40 2.5
      vertex 80 22.5 2.5
      vertex 100 22.5 2.5
    endloop
  endfacet
  facet normal 0 0 1
    outer loop
      vertex -80 17.5 2.5
      vertex 80 17.5 2.5
      vertex 80 22.5 2.5
    endloop
  endfacet
  facet normal 0 0 1
    outer loop
      vertex 80 17.5 2.5
      vertex -80 17.5 2.5
      vertex 80 -17.5 2.5
    endloop
  endfacet
  facet normal 0 0 1
    outer loop
      vertex -80 17.5 2.5
      vertex 80 22.5 2.5
      vertex -80 22.5 2.5
    endloop
  endfacet
  facet normal 0 0 1
    outer loop
      vertex 110 40 2.5
      vertex -80 22.5 2.5
      vertex 80 22.5 2.5
    endloop
  endfacet
  facet normal -0 0 1
    outer loop
      vertex -110 40 2.5
      vertex -80 22.5 2.5
      vertex 110 40 2.5
    endloop
  endfacet
  facet normal 0 0 1
    outer loop
      vertex -110 40 2.5
      vertex -100 17.5 2.5
      vertex -100 22.5 2.5
    endloop
  endfacet
  facet normal 0 0 1
    outer loop
      vertex -100 17.5 2.5
      vertex -110 40 2.5
      vertex -100 -17.5 2.5
    endloop
  endfacet
  facet normal 0 0 1
    outer loop
      vertex -110 -40 2.5
      vertex -100 -17.5 2.5
      vertex -110 40 2.5
    endloop
  endfacet
  facet normal 0 0 1
    outer loop
      vertex -80 22.5 2.5
      vertex -110 40 2.5
      vertex -100 22.5 2.5
    endloop
  endfacet
  facet normal 0 0 1
    outer loop
      vertex 110 40 2.5
      vertex 100 17.5 2.5
      vertex 110 -40 2.5
    endloop
  endfacet
  facet normal -0 0 1
    outer loop
      vertex 100 -17.5 2.5
      vertex 110 -40 2.5
      vertex 100 17.5 2.5
    endloop
  endfacet
  facet normal -0 0 1
    outer loop
      vertex 100 -22.5 2.5
      vertex 110 -40 2.5
      vertex 100 -17.5 2.5
    endloop
  endfacet
  facet normal -0 0 1
    outer loop
      vertex 80 -22.5 2.5
      vertex 110 -40 2.5
      vertex 100 -22.5 2.5
    endloop
  endfacet
  facet normal 0 0 1
    outer loop
      vertex -80 -17.5 2.5
      vertex 80 -17.5 2.5
      vertex -80 17.5 2.5
    endloop
  endfacet
  facet normal 0 0 1
    outer loop
      vertex 80 -17.5 2.5
      vertex -80 -17.5 2.5
      vertex 80 -22.5 2.5
    endloop
  endfacet
  facet normal 0 0 1
    outer loop
      vertex -80 -22.5 2.5
      vertex 80 -22.5 2.5
      vertex -80 -17.5 2.5
    endloop
  endfacet
  facet normal 0 0 1
    outer loop
      vertex 80 -22.5 2.5
      vertex -80 -22.5 2.5
      vertex 110 -40 2.5
    endloop
  endfacet
  facet normal 0 0 1
    outer loop
      vertex -110 -40 2.5
      vertex -80 -22.5 2.5
      vertex -100 -22.5 2.5
    endloop
  endfacet
  facet normal 0 0 1
    outer loop
      vertex -80 -22.5 2.5
      vertex -110 -40 2.5
      vertex 110 -40 2.5
    endloop
  endfacet
  facet normal 0 0 1
    outer loop
      vertex -100 -17.5 2.5
      vertex -110 -40 2.5
      vertex -100 -22.5 2.5
    endloop
  endfacet
  facet normal 0 0 -1
    outer loop
      vertex -100 -17.5 -2.5
      vertex -80 17.5 -2.5
      vertex -80 -17.5 -2.5
    endloop
  endfacet
  facet normal -0 0 -1
    outer loop
      vertex -80 17.5 -2.5
      vertex -100 -17.5 -2.5
      vertex -100 17.5 -2.5
    endloop
  endfacet
  facet normal 0 0 -1
    outer loop
      vertex 80 -17.5 -2.5
      vertex 100 17.5 -2.5
      vertex 100 -17.5 -2.5
    endloop
  endfacet
  facet normal -0 0 -1
    outer loop
      vertex 100 17.5 -2.5
      vertex 80 -17.5 -2.5
      vertex 80 17.5 -2.5
    endloop
  endfacet
  facet normal 0 0 -1
    outer loop
      vertex 100 -17.5 -2.5
      vertex 110 -40 -2.5
      vertex 100 -22.5 -2.5
    endloop
  endfacet
  facet normal 0 0 -1
    outer loop
      vertex 110 -40 -2.5
      vertex 80 -22.5 -2.5
      vertex 100 -22.5 -2.5
    endloop
  endfacet
  facet normal 0 0 -1
    outer loop
      vertex -80 -17.5 -2.5
      vertex 80 -17.5 -2.5
      vertex 80 -22.5 -2.5
    endloop
  endfacet
  facet normal 0 0 -1
    outer loop
      vertex 80 -17.5 -2.5
      vertex -80 -17.5 -2.5
      vertex 80 17.5 -2.5
    endloop
  endfacet
  facet normal 0 0 -1
    outer loop
      vertex -80 -17.5 -2.5
      vertex 80 -22.5 -2.5
      vertex -80 -22.5 -2.5
    endloop
  endfacet
  facet normal 0 0 -1
    outer loop
      vertex 110 -40 -2.5
      vertex -80 -22.5 -2.5
      vertex 80 -22.5 -2.5
    endloop
  endfacet
  facet normal 0 0 -1
    outer loop
      vertex -110 -40 -2.5
      vertex -80 -22.5 -2.5
      vertex 110 -40 -2.5
    endloop
  endfacet
  facet normal 0 0 -1
    outer loop
      vertex -110 -40 -2.5
      vertex -100 -17.5 -2.5
      vertex -100 -22.5 -2.5
    endloop
  endfacet
  facet normal -0 0 -1
    outer loop
      vertex -100 -17.5 -2.5
      vertex -110 -40 -2.5
      vertex -100 17.5 -2.5
    endloop
  endfacet
  facet normal 0 0 -1
    outer loop
      vertex -110 40 -2.5
      vertex -100 17.5 -2.5
      vertex -110 -40 -2.5
    endloop
  endfacet
  facet normal -0 0 -1
    outer loop
      vertex -80 -22.5 -2.5
      vertex -110 -40 -2.5
      vertex -100 -22.5 -2.5
    endloop
  endfacet
  facet normal 0 0 -1
    outer loop
      vertex 110 -40 -2.5
      vertex 100 -17.5 -2.5
      vertex 110 40 -2.5
    endloop
  endfacet
  facet normal 0 0 -1
    outer loop
      vertex 100 17.5 -2.5
      vertex 110 40 -2.5
      vertex 100 -17.5 -2.5
    endloop
  endfacet
  facet normal 0 0 -1
    outer loop
      vertex 100 22.5 -2.5
      vertex 110 40 -2.5
      vertex 100 17.5 -2.5
    endloop
  endfacet
  facet normal 0 0 -1
    outer loop
      vertex 80 22.5 -2.5
      vertex 110 40 -2.5
      vertex 100 22.5 -2.5
    endloop
  endfacet
  facet normal 0 0 -1
    outer loop
      vertex -80 17.5 -2.5
      vertex 80 17.5 -2.5
      vertex -80 -17.5 -2.5
    endloop
  endfacet
  facet normal 0 0 -1
    outer loop
      vertex 80 17.5 -2.5
      vertex -80 17.5 -2.5
      vertex 80 22.5 -2.5
    endloop
  endfacet
  facet normal 0 0 -1
    outer loop
      vertex -80 22.5 -2.5
      vertex 80 22.5 -2.5
      vertex -80 17.5 -2.5
    endloop
  endfacet
  facet normal 0 0 -1
    outer loop
      vertex 80 22.5 -2.5
      vertex -80 22.5 -2.5
      vertex 110 40 -2.5
    endloop
  endfacet
  facet normal 0 0 -1
    outer loop
      vertex -110 40 -2.5
      vertex -80 22.5 -2.5
      vertex -100 22.5 -2.5
    endloop
  endfacet
  facet normal 0 0 -1
    outer loop
      vertex -80 22.5 -2.5
      vertex -110 40 -2.5
      vertex 110 40 -2.5
    endloop
  endfacet
  facet normal 0 0 -1
    outer loop
      vertex -100 17.5 -2.5
      vertex -110 40 -2.5
      vertex -100 22.5 -2.5
    endloop
  endfacet
  facet normal -1 0 0
    outer loop
      vertex -110 -40 -2.5
      vertex -110 40 2.5
      vertex -110 40 -2.5
    endloop
  endfacet
  facet normal -1 -0 0
    outer loop
      vertex -110 40 2.5
      vertex -110 -40 -2.5
      vertex -110 -40 2.5
    endloop
  endfacet
  facet normal 0 1 -0
    outer loop
      vertex 110 40 -2.5
      vertex -110 40 2.5
      vertex 110 40 2.5
    endloop
  endfacet
  facet normal 0 1 0
    outer loop
      vertex -110 40 2.5
      vertex 110 40 -2.5
      vertex -110 40 -2.5
    endloop
  endfacet
  facet normal 0 -1 0
    outer loop
      vertex -110 -40 -2.5
      vertex 110 -40 2.5
      vertex -110 -40 2.5
    endloop
  endfacet
  facet normal 0 -1 -0
    outer loop
      vertex 110 -40 2.5
      vertex -110 -40 -2.5
      vertex 110 -40 -2.5
    endloop
  endfacet
  facet normal -1 0 0
    outer loop
      vertex -80 -22.5 -2.5
      vertex -80 -17.5 2.5
      vertex -80 -17.5 -2.5
    endloop
  endfacet
  facet normal -1 -0 0
    outer loop
      vertex -80 -17.5 2.5
      vertex -80 -22.5 -2.5
      vertex -80 -22.5 2.5
    endloop
  endfacet
  facet normal 1 -0 0
    outer loop
      vertex -100 -22.5 2.5
      vertex -100 -17.5 -2.5
      vertex -100 -17.5 2.5
    endloop
  endfacet
  facet normal 1 0 0
    outer loop
      vertex -100 -17.5 -2.5
      vertex -100 -22.5 2.5
      vertex -100 -22.5 -2.5
    endloop
  endfacet
  facet normal 0 -1 0
    outer loop
      vertex -100 -17.5 -2.5
      vertex -80 -17.5 2.5
      vertex -100 -17.5 2.5
    endloop
  endfacet
  facet normal 0 -1 -0
    outer loop
      vertex -80 -17.5 2.5
      vertex -100 -17.5 -2.5
      vertex -80 -17.5 -2.5
    endloop
  endfacet
  facet normal 0 1 -0
    outer loop
      vertex -80 -22.5 -2.5
      vertex -100 -22.5 2.5
      vertex -80 -22.5 2.5
    endloop
  endfacet
  facet normal 0 1 0
    outer loop
      vertex -100 -22.5 2.5
      vertex -80 -22.5 -2.5
      vertex -100 -22.5 -2.5
    endloop
  endfacet
  facet normal -1 0 0
    outer loop
      vertex -80 17.5 -2.5
      vertex -80 22.5 2.5
      vertex -80 22.5 -2.5
    endloop
  endfacet
  facet normal -1 -0 0
    outer loop
      vertex -80 22.5 2.5
      vertex -80 17.5 -2.5
      vertex -80 17.5 2.5
    endloop
  endfacet
  facet normal 1 -0 0
    outer loop
      vertex -100 17.5 2.5
      vertex -100 22.5 -2.5
      vertex -100 22.5 2.5
    endloop
  endfacet
  facet normal 1 0 0
    outer loop
      vertex -100 22.5 -2.5
      vertex -100 17.5 2.5
      vertex -100 17.5 -2.5
    endloop
  endfacet
  facet normal 0 -1 0
    outer loop
      vertex -100 22.5 -2.5
      vertex -80 22.5 2.5
      vertex -100 22.5 2.5
    endloop
  endfacet
  facet normal 0 -1 -0
    outer loop
      vertex -80 22.5 2.5
      vertex -100 22.5 -2.5
      vertex -80 22.5 -2.5
    endloop
  endfacet
  facet normal 0 1 -0
    outer loop
      vertex -80 17.5 -2.5
      vertex -100 17.5 2.5
      vertex -80 17.5 2.5
    endloop
  endfacet
  facet normal 0 1 0
    outer loop
      vertex -100 17.5 2.5
      vertex -80 17.5 -2.5
      vertex -100 17.5 -2.5
    endloop
  endfacet
  facet normal -1 0 0
    outer loop
      vertex 100 -22.5 -2.5
      vertex 100 -17.5 2.5
      vertex 100 -17.5 -2.5
    endloop
  endfacet
  facet normal -1 -0 0
    outer loop
      vertex 100 -17.5 2.5
      vertex 100 -22.5 -2.5
      vertex 100 -22.5 2.5
    endloop
  endfacet
  facet normal 1 -0 0
    outer loop
      vertex 80 -22.5 2.5
      vertex 80 -17.5 -2.5
      vertex 80 -17.5 2.5
    endloop
  endfacet
  facet normal 1 0 0
    outer loop
      vertex 80 -17.5 -2.5
      vertex 80 -22.5 2.5
      vertex 80 -22.5 -2.5
    endloop
  endfacet
  facet normal 0 -1 0
    outer loop
      vertex 80 -17.5 -2.5
      vertex 100 -17.5 2.5
      vertex 80 -17.5 2.5
    endloop
  endfacet
  facet normal 0 -1 -0
    outer loop
      vertex 100 -17.5 2.5
      vertex 80 -17.5 -2.5
      vertex 100 -17.5 -2.5
    endloop
  endfacet
  facet normal 0 1 -0
    outer loop
      vertex 100 -22.5 -2.5
      vertex 80 -22.5 2.5
      vertex 100 -22.5 2.5
    endloop
  endfacet
  facet normal 0 1 0
    outer loop
      vertex 80 -22.5 2.5
      vertex 100 -22.5 -2.5
      vertex 80 -22.5 -2.5
    endloop
  endfacet
  facet normal -1 0 0
    outer loop
      vertex 100 17.5 -2.5
      vertex 100 22.5 2.5
      vertex 100 22.5 -2.5
    endloop
  endfacet
  facet normal -1 -0 0
    outer loop
      vertex 100 22.5 2.5
      vertex 100 17.5 -2.5
      vertex 100 17.5 2.5
    endloop
  endfacet
  facet normal 1 -0 0
    outer loop
      vertex 80 17.5 2.5
      vertex 80 22.5 -2.5
      vertex 80 22.5 2.5
    endloop
  endfacet
  facet normal 1 0 0
    outer loop
      vertex 80 22.5 -2.5
      vertex 80 17.5 2.5
      vertex 80 17.5 -2.5
    endloop
  endfacet
  facet normal 0 -1 0
    outer loop
      vertex 80 22.5 -2.5
      vertex 100 22.5 2.5
      vertex 80 22.5 2.5
    endloop
  endfacet
  facet normal 0 -1 -0
    outer loop
      vertex 100 22.5 2.5
      vertex 80 22.5 -2.5
      vertex 100 22.5 -2.5
    endloop
  endfacet
  facet normal 0 1 -0
    outer loop
      vertex 100 17.5 -2.5
      vertex 80 17.5 2.5
      vertex 100 17.5 2.5
    endloop
  endfacet
  facet normal 0 1 0
    outer loop
      vertex 80 17.5 2.5
      vertex 100 17.5 -2.5
      vertex 80 17.5 -2.5
    endloop
  endfacet
endsolid OpenSCAD_Model
