$MeshFormat
4.1 0 8
$EndMeshFormat
$PhysicalNames
2
2 2 "boundary"
3 1 "domain"
$EndPhysicalNames
$Entities
8 12 6 1
1 0 0 0 0 
2 0 0 5 0 
3 0 10 0 0 
4 0 10 5 0 
5 20 0 0 0 
6 20 0 5 0 
7 20 10 0 0 
8 20 10 5 0 
1 -1e-07 -1e-07 -9.999999983634211e-08 1e-07 1e-07 5.0000001 0 2 1 -2 
2 -1e-07 -1.000000002804313e-07 -1e-07 1e-07 10.0000001 1e-07 0 2 1 -3 
3 -1e-07 9.999999900000001 -9.999999983634211e-08 1e-07 10.0000001 5.0000001 0 2 3 -4 
4 -1e-07 -1.000000002804313e-07 4.9999999 1e-07 10.0000001 5.0000001 0 2 2 -4 
5 19.9999999 -1e-07 -9.999999983634211e-08 20.0000001 1e-07 5.0000001 0 2 5 -6 
6 19.9999999 -1.000000002804313e-07 -1e-07 20.0000001 10.0000001 1e-07 0 2 5 -7 
7 19.9999999 9.999999900000001 -9.999999983634211e-08 20.0000001 10.0000001 5.0000001 0 2 7 -8 
8 19.9999999 -1.000000002804313e-07 4.9999999 20.0000001 10.0000001 5.0000001 0 2 6 -8 
9 -9.99999993922529e-08 -1e-07 -1e-07 20.0000001 1e-07 1e-07 0 2 1 -5 
10 -9.99999993922529e-08 -1e-07 4.9999999 20.0000001 1e-07 5.0000001 0 2 2 -6 
11 -9.99999993922529e-08 9.999999900000001 -1e-07 20.0000001 10.0000001 1e-07 0 2 3 -7 
12 -9.99999993922529e-08 9.999999900000001 4.9999999 20.0000001 10.0000001 5.0000001 0 2 4 -8 
1 -1e-07 -1.000000002804313e-07 -9.999999983634211e-08 1e-07 10.0000001 5.0000001 1 2 4 -1 2 3 -4 
2 19.9999999 -1.000000002804313e-07 -9.999999983634211e-08 20.0000001 10.0000001 5.0000001 1 2 4 -5 6 7 -8 
3 -9.99999993922529e-08 -1e-07 -9.999999983634211e-08 20.0000001 1e-07 5.0000001 1 2 4 -9 1 10 -5 
4 -9.99999993922529e-08 9.999999900000001 -9.999999983634211e-08 20.0000001 10.0000001 5.0000001 1 2 4 -11 3 12 -7 
5 -9.99999993922529e-08 -1.000000002804313e-07 -1e-07 20.0000001 10.0000001 1e-07 1 2 4 -2 9 6 -11 
6 -9.99999993922529e-08 -1.000000002804313e-07 4.9999999 20.0000001 10.0000001 5.0000001 1 2 4 -4 10 8 -12 
1 -9.99999993922529e-08 -1.000000002804313e-07 -9.999999983634211e-08 20.0000001 10.0000001 5.0000001 1 1 6 -1 2 -3 4 -5 6 
$EndEntities
$Nodes
27 233 1 233
0 1 0 1
1
0 0 0
0 2 0 1
2
0 0 5
0 3 0 1
3
0 10 0
0 4 0 1
4
0 10 5
0 5 0 1
5
20 0 0
0 6 0 1
6
20 0 5
0 7 0 1
7
20 10 0
0 8 0 1
8
20 10 5
1 1 0 2
9
10
0 0 1.666666666666667
0 0 3.333333333333333
1 2 0 4
11
12
13
14
0 2 0
0 4 0
0 6 0
0 8 0
1 3 0 2
15
16
0 10 1.666666666666667
0 10 3.333333333333333
1 4 0 4
17
18
19
20
0 2 5
0 4 5
0 6 5
0 8 5
1 5 0 2
21
22
20 0 1.666666666666667
20 0 3.333333333333333
1 6 0 4
23
24
25
26
20 2 0
20 4 0
20 6 0
20 8 0
1 7 0 2
27
28
20 10 1.666666666666667
20 10 3.333333333333333
1 8 0 4
29
30
31
32
20 2 5
20 4 5
20 6 5
20 8 5
1 9 0 8
33
34
35
36
37
38
39
40
2.222222222222222 0 0
4.444444444444445 0 0
6.666666666666666 0 0
8.888888888888888 0 0
11.11111111111111 0 0
13.33333333333333 0 0
15.55555555555555 0 0
17.77777777777778 0 0
1 10 0 8
41
42
43
44
45
46
47
48
2.222222222222222 0 5
4.444444444444445 0 5
6.666666666666666 0 5
8.888888888888888 0 5
11.11111111111111 0 5
13.33333333333333 0 5
15.55555555555555 0 5
17.77777777777778 0 5
1 11 0 8
49
50
51
52
53
54
55
56
2.222222222222222 10 0
4.444444444444445 10 0
6.666666666666666 10 0
8.888888888888888 10 0
11.11111111111111 10 0
13.33333333333333 10 0
15.55555555555555 10 0
17.77777777777778 10 0
1 12 0 8
57
58
59
60
61
62
63
64
2.222222222222222 10 5
4.444444444444445 10 5
6.666666666666666 10 5
8.888888888888888 10 5
11.11111111111111 10 5
13.33333333333333 10 5
15.55555555555555 10 5
17.77777777777778 10 5
2 1 0 12
65
66
67
68
69
70
71
72
73
74
75
76
0 1.437485240471661 2.521860072284436
0 8.562514759528339 2.521860072284436
0 5 1.637318807099607
0 3.123396842794429 1.660807607164363
0 6.876603157205571 1.660807607164364
0 2.803799576698712 3.592343742050993
0 7.196200423301287 3.592343742050993
0 5 3.519026558501913
0 8.738084623073817 3.852368214355247
0 1.312176416653218 1.169866869223093
0 1.261915376926184 3.852368214355248
0 8.687823583346782 1.169866869223093
2 2 0 12
77
78
79
80
81
82
83
84
85
86
87
88
20 1.437485240471661 2.521860072284436
20 8.562514759528339 2.521860072284436
20 5 1.637318807099607
20 3.123396842794429 1.660807607164363
20 6.876603157205571 1.660807607164364
20 2.803799576698712 3.592343742050993
20 7.196200423301287 3.592343742050993
20 5 3.519026558501913
20 8.738084623073817 3.852368214355247
20 1.312176416653218 1.169866869223093
20 1.261915376926184 3.852368214355248
20 8.687823583346782 1.169866869223093
2 3 0 22
89
90
91
92
93
94
95
96
97
98
99
100
101
102
103
104
105
106
107
108
109
110
1.500890214539812 0 2.580026560120404
18.49910978546018 0 2.580026560120402
14.33919150610348 0 1.748488403623873
5.660808493896522 0 1.748488403623875
9.999999999999998 0 3.075499102701248
11.95904561751779 0 1.837059105823404
8.040954382482203 0 1.837059105823404
16.68109721490175 0 1.747480393857732
3.318902785098244 0 1.747480393857734
16.9574904221957 0 3.647230628846863
3.042509577804298 0 3.647230628846865
13.33333333333333 0 3.261540277713179
9.999999999999998 0 1.337039380414429
6.666666666666665 0 3.26154027771318
18.59159695562794 0 1.19883472412896
18.64687559708673 0 3.91211810446012
1.408403044372056 0 1.198834724128961
1.353124402913267 0 3.91211810446012
4.966666439096139 0 3.400789950673609
15.03333356090386 0 3.400789950673607
11.94736467905911 0 3.634819697247567
8.052635320940885 0 3.634819697247567
2 4 0 21
111
112
113
114
115
116
117
118
119
120
121
122
123
124
125
126
127
128
129
130
131
1.500890214539812 10 2.580026560120404
18.49910978546018 10 2.419973439879596
14.05466534101574 10 3.34453897058919
5.660808493896522 10 1.748488403623875
9.999999999999998 10 3.075499102701248
12.16653949316098 10 1.822439636243552
8.040954382482203 10 1.837059105823404
16.55530120854418 10 3.235046595798723
3.318902785098244 10 1.747480393857734
16.95351294344517 10 1.304232124904347
3.042509577804298 10 3.647230628846865
14.67685411210972 10 1.537518076253624
9.999999999999998 10 1.337039380414429
12.1585848175808 10 3.65262842124359
6.666666666666665 10 3.26154027771318
18.56643775435642 10 3.797670673802331
18.64608010133662 10 1.078174446290122
1.408403044372056 10 1.198834724128961
1.353124402913267 10 3.91211810446012
4.966666439096139 10 3.400789950673609
8.052635320940885 10 3.634819697247567
2 5 0 42
132
133
134
135
136
137
138
139
140
141
142
143
144
145
146
147
148
149
150
151
152
153
154
155
156
157
158
159
160
161
162
163
164
165
166
167
168
169
170
171
172
173
18.36840238394604 5.000826618304949 0
1.636299465041296 4.831946480735368 0
12.23315448501633 1.922959026972028 0
7.784341595408206 1.935554998691171 0
9.965798304440783 8.004705843401208 0
14.49760616878652 7.986571965480181 0
5.167298547846383 8.188384840567261 0
16.75387404284169 2.016327141372088 0
3.270481263506107 2.005728468857235 0
14.46405431256473 1.930099937200688 0
13.35499050041169 3.835053875034661 0
11.13812394774641 3.854839052475686 0
12.26605577720206 5.758051664460972 0
14.47333786857624 5.733799826810907 0
10.05614743421929 5.783384110545399 0
8.920598550804804 3.872618349035945 0
7.837568969319408 5.815563725754433 0
6.703246736524194 3.886726782620573 0
5.629755000770812 5.836889471358425 0
4.5917351394337 3.772370477398925 0
5.535980540600575 1.913199257145105 0
7.668852230751637 8.020896625961306 0
3.741212368319263 6.923168458405368 0
15.44091109041169 3.920040081708006 0
12.2346675804697 8.082684433635587 0
16.8574100880765 8.266516564927921 0
10.01270309649596 1.930995237862472 0
1.71667808039392 7 0
18.30137590025379 7.000000000000001 0
16.4342013492931 5.983266821079122 0
18.45609505714184 3.068148282004727 0
1.644925223023616 3.001095728906085 0
3.067161129056224 8.518592216495438 0
3.407704863757306 5.227936995324448 0
18.57365754569801 1.416817415347953 0
1.427525741750389 1.401364839552664 0
18.51330125301049 8.582680404579559 0
17.10036594500092 3.975112690321896 0
13.38228199284483 6.891365553576604 0
1.401212286334473 8.703718443299087 0
11.1741136025918 6.905836082194016 0
2.936804402521205 3.766651704199655 0
2 6 0 42
174
175
176
177
178
179
180
181
182
183
184
185
186
187
188
189
190
191
192
193
194
195
196
197
198
199
200
201
202
203
204
205
206
207
208
209
210
211
212
213
214
215
18.36840238394604 5.000826618304949 5
1.636299465041296 4.831946480735368 5
12.23315448501633 1.922959026972028 5
7.784341595408206 1.935554998691171 5
9.965798304440783 8.004705843401208 5
14.49760616878652 7.986571965480181 5
5.167298547846383 8.188384840567261 5
16.75387404284169 2.016327141372088 5
3.270481263506107 2.005728468857235 5
14.46405431256473 1.930099937200688 5
13.35499050041169 3.835053875034661 5
11.13812394774641 3.854839052475686 5
12.26605577720206 5.758051664460972 5
14.47333786857624 5.733799826810907 5
10.05614743421929 5.783384110545399 5
8.920598550804804 3.872618349035945 5
7.837568969319408 5.815563725754433 5
6.703246736524194 3.886726782620573 5
5.629755000770812 5.836889471358425 5
4.5917351394337 3.772370477398925 5
5.535980540600575 1.913199257145105 5
7.668852230751637 8.020896625961306 5
3.741212368319263 6.923168458405368 5
15.44091109041169 3.920040081708006 5
12.2346675804697 8.082684433635587 5
16.8574100880765 8.266516564927921 5
10.01270309649596 1.930995237862472 5
1.71667808039392 7 5
18.30137590025379 7.000000000000001 5
16.4342013492931 5.983266821079122 5
18.45609505714184 3.068148282004727 5
1.644925223023616 3.001095728906085 5
3.067161129056224 8.518592216495438 5
3.407704863757306 5.227936995324448 5
18.57365754569801 1.416817415347953 5
1.427525741750389 1.401364839552664 5
18.51330125301049 8.582680404579559 5
17.10036594500092 3.975112690321896 5
13.38228199284483 6.891365553576604 5
1.401212286334473 8.703718443299087 5
11.1741136025918 6.905836082194016 5
2.936804402521205 3.766651704199655 5
3 1 0 18
216
217
218
219
220
221
222
223
224
225
226
227
228
229
230
231
232
233
2.458799541326885 4.509577851939762 2.5
17.37357137666628 2.916746600512976 2.5
17.49728731009664 5.636633856155411 2.5
13.17119882816559 2.657744463977796 2.5
6.811442437453201 2.671585750111706 2.5
11.15377306491859 5.131403255811736 2.5
9.533476853254282 2.929041966099577 2.5
2.738122348114031 7.203404207376441 2.5
6.171280350973552 7.318807556903145 2.5
14.85716658368344 4.773596142460008 2.5
4.145318837278786 2.430656328128418 2.505928485657015
12.63607937130584 7.320954039308037 2.5
17.86144546942303 7.86443682304656 2.929673811550799
15.29016242836265 7.393114927667588 2.463805477448452
2.022475359265434 2.135150125556394 1.991489399422321
5.010125823209524 4.85522034289213 2.306223986541559
8.962115749967053 6.851384192362598 2.334833341473926
15.31957826025246 2.021525088304758 2.106005898974823
$EndNodes
$Elements
7 1069 1 1069
2 1 2 38
1 1 9 74 
2 11 1 74 
3 10 2 75 
4 2 17 75 
5 3 14 76 
6 15 3 76 
7 4 16 73 
8 20 4 73 
9 9 10 65 
10 9 65 74 
11 65 10 75 
12 12 11 68 
13 68 11 74 
14 13 12 67 
15 67 12 68 
16 14 13 69 
17 13 67 69 
18 14 69 76 
19 16 15 66 
20 66 15 76 
21 16 66 73 
22 17 18 70 
23 17 70 75 
24 18 19 72 
25 70 18 72 
26 19 20 71 
27 19 71 72 
28 71 20 73 
29 68 65 70 
30 65 68 74 
31 70 65 75 
32 66 69 71 
33 69 66 76 
34 66 71 73 
35 67 68 72 
36 69 67 72 
37 68 70 72 
38 71 69 72 
2 2 2 38
39 5 86 21 
40 23 86 5 
41 22 87 6 
42 6 87 29 
43 7 88 26 
44 27 88 7 
45 8 85 28 
46 32 85 8 
47 21 77 22 
48 21 86 77 
49 77 87 22 
50 24 80 23 
51 80 86 23 
52 25 79 24 
53 79 80 24 
54 26 81 25 
55 25 81 79 
56 26 88 81 
57 28 78 27 
58 78 88 27 
59 28 85 78 
60 29 82 30 
61 29 87 82 
62 30 84 31 
63 82 84 30 
64 31 83 32 
65 31 84 83 
66 83 85 32 
67 80 82 77 
68 77 86 80 
69 82 87 77 
70 78 83 81 
71 81 88 78 
72 78 85 83 
73 79 84 80 
74 81 84 79 
75 80 84 82 
76 83 84 81 
2 3 2 66
77 9 1 105 
78 1 33 105 
79 2 10 106 
80 41 2 106 
81 5 21 103 
82 40 5 103 
83 22 6 104 
84 6 48 104 
85 10 9 89 
86 89 9 105 
87 10 89 106 
88 21 22 90 
89 21 90 103 
90 90 22 104 
91 33 34 97 
92 33 97 105 
93 34 35 92 
94 34 92 97 
95 35 36 95 
96 92 35 95 
97 36 37 101 
98 95 36 101 
99 37 38 94 
100 37 94 101 
101 38 39 91 
102 38 91 94 
103 39 40 96 
104 91 39 96 
105 96 40 103 
106 42 41 99 
107 99 41 106 
108 43 42 107 
109 42 99 107 
110 44 43 110 
111 102 43 107 
112 43 102 110 
113 45 44 93 
114 93 44 110 
115 46 45 109 
116 45 93 109 
117 47 46 108 
118 46 100 108 
119 100 46 109 
120 48 47 98 
121 98 47 108 
122 48 98 104 
123 89 97 99 
124 97 89 105 
125 89 99 106 
126 96 90 98 
127 90 96 103 
128 98 90 104 
129 94 91 100 
130 91 96 108 
131 100 91 108 
132 92 95 102 
133 97 92 107 
134 92 102 107 
135 94 93 101 
136 93 94 109 
137 93 95 101 
138 95 93 110 
139 94 100 109 
140 102 95 110 
141 96 98 108 
142 99 97 107 
2 4 2 64
143 15 128 3 
144 3 128 49 
145 4 129 16 
146 57 129 4 
147 7 127 27 
148 56 127 7 
149 28 126 8 
150 8 126 64 
151 16 111 15 
152 111 128 15 
153 16 129 111 
154 27 112 28 
155 27 127 112 
156 112 126 28 
157 49 119 50 
158 49 128 119 
159 50 114 51 
160 50 119 114 
161 51 117 52 
162 114 117 51 
163 52 123 53 
164 117 123 52 
165 53 116 54 
166 53 123 116 
167 54 122 55 
168 116 122 54 
169 55 120 56 
170 55 122 120 
171 120 127 56 
172 58 121 57 
173 121 129 57 
174 59 130 58 
175 58 130 121 
176 60 131 59 
177 125 130 59 
178 59 131 125 
179 61 115 60 
180 115 131 60 
181 62 124 61 
182 61 124 115 
183 63 113 62 
184 113 124 62 
185 64 118 63 
186 63 118 113 
187 64 126 118 
188 111 121 119 
189 119 128 111 
190 111 129 121 
191 112 120 118 
192 118 126 112 
193 112 127 120 
194 113 122 116 
195 116 124 113 
196 118 122 113 
197 114 125 117 
198 119 130 114 
199 114 130 125 
200 116 123 115 
201 115 124 116 
202 115 123 117 
203 117 131 115 
204 125 131 117 
205 120 122 118 
206 121 130 119 
2 5 2 110
207 1 11 167 
208 33 1 167 
209 14 3 171 
210 3 49 171 
211 23 5 166 
212 5 40 166 
213 7 26 168 
214 56 7 168 
215 11 12 163 
216 11 163 167 
217 12 13 133 
218 12 133 163 
219 13 14 159 
220 133 13 159 
221 159 14 171 
222 24 23 162 
223 162 23 166 
224 25 24 132 
225 132 24 162 
226 26 25 160 
227 25 132 160 
228 26 160 168 
229 34 33 140 
230 140 33 167 
231 35 34 152 
232 34 140 152 
233 36 35 135 
234 135 35 152 
235 37 36 158 
236 36 135 158 
237 38 37 134 
238 134 37 158 
239 39 38 141 
240 38 134 141 
241 40 39 139 
242 139 39 141 
243 40 139 166 
244 49 50 164 
245 49 164 171 
246 50 51 138 
247 50 138 164 
248 51 52 153 
249 138 51 153 
250 52 53 136 
251 52 136 153 
252 53 54 156 
253 136 53 156 
254 54 55 137 
255 54 137 156 
256 55 56 157 
257 137 55 157 
258 157 56 168 
259 160 132 161 
260 161 132 169 
261 132 162 169 
262 133 159 165 
263 163 133 173 
264 133 165 173 
265 141 134 142 
266 142 134 143 
267 143 134 158 
268 147 135 149 
269 135 147 158 
270 149 135 152 
271 136 146 148 
272 146 136 172 
273 136 148 153 
274 136 156 172 
275 145 137 161 
276 137 145 170 
277 156 137 170 
278 137 157 161 
279 150 138 153 
280 138 150 154 
281 138 154 164 
282 139 141 155 
283 139 155 169 
284 139 162 166 
285 162 139 169 
286 140 151 152 
287 151 140 173 
288 163 140 167 
289 140 163 173 
290 141 142 155 
291 142 143 144 
292 142 144 145 
293 142 145 155 
294 144 143 146 
295 146 143 147 
296 147 143 158 
297 145 144 170 
298 144 146 172 
299 170 144 172 
300 155 145 161 
301 146 147 148 
302 148 147 149 
303 148 149 150 
304 148 150 153 
305 150 149 151 
306 151 149 152 
307 150 151 165 
308 154 150 165 
309 165 151 173 
310 154 159 164 
311 159 154 165 
312 155 161 169 
313 156 170 172 
314 157 160 161 
315 160 157 168 
316 164 159 171 
2 6 2 110
317 2 209 17 
318 41 209 2 
319 20 213 4 
320 4 213 57 
321 29 208 6 
322 6 208 48 
323 8 210 32 
324 64 210 8 
325 17 205 18 
326 17 209 205 
327 18 175 19 
328 18 205 175 
329 19 201 20 
330 175 201 19 
331 201 213 20 
332 30 204 29 
333 204 208 29 
334 31 174 30 
335 174 204 30 
336 32 202 31 
337 31 202 174 
338 32 210 202 
339 42 182 41 
340 182 209 41 
341 43 194 42 
342 42 194 182 
343 44 177 43 
344 177 194 43 
345 45 200 44 
346 44 200 177 
347 46 176 45 
348 176 200 45 
349 47 183 46 
350 46 183 176 
351 48 181 47 
352 181 183 47 
353 48 208 181 
354 57 206 58 
355 57 213 206 
356 58 180 59 
357 58 206 180 
358 59 195 60 
359 180 195 59 
360 60 178 61 
361 60 195 178 
362 61 198 62 
363 178 198 61 
364 62 179 63 
365 62 198 179 
366 63 199 64 
367 179 199 63 
368 199 210 64 
369 202 203 174 
370 203 211 174 
371 174 211 204 
372 175 207 201 
373 205 215 175 
374 175 215 207 
375 183 184 176 
376 184 185 176 
377 185 200 176 
378 189 191 177 
379 177 200 189 
380 191 194 177 
381 178 190 188 
382 188 214 178 
383 178 195 190 
384 178 214 198 
385 187 203 179 
386 179 212 187 
387 198 212 179 
388 179 203 199 
389 192 195 180 
390 180 196 192 
391 180 206 196 
392 181 197 183 
393 181 211 197 
394 181 208 204 
395 204 211 181 
396 182 194 193 
397 193 215 182 
398 205 209 182 
399 182 215 205 
400 183 197 184 
401 184 186 185 
402 184 187 186 
403 184 197 187 
404 186 188 185 
405 188 189 185 
406 189 200 185 
407 187 212 186 
408 186 214 188 
409 212 214 186 
410 197 203 187 
411 188 190 189 
412 190 191 189 
413 190 192 191 
414 190 195 192 
415 192 193 191 
416 193 194 191 
417 192 207 193 
418 196 207 192 
419 207 215 193 
420 196 206 201 
421 201 207 196 
422 197 211 203 
423 198 214 212 
424 199 203 202 
425 202 210 199 
426 206 213 201 
3 1 4 643
427 176 219 109 222 
428 147 148 220 222 
429 109 219 94 222 
430 200 176 109 222 
431 190 220 231 232 
432 148 220 222 232 
433 148 231 220 232 
434 94 219 134 222 
435 73 129 213 223 
436 109 94 93 222 
437 200 109 93 222 
438 190 220 191 231 
439 73 111 129 223 
440 77 90 87 217 
441 176 185 219 222 
442 134 219 143 222 
443 148 149 220 231 
444 186 184 221 225 
445 144 221 142 225 
446 147 148 222 232 
447 186 225 221 227 
448 144 221 225 227 
449 189 221 222 232 
450 142 221 219 225 
451 219 221 184 225 
452 190 189 191 220 
453 149 147 148 220 
454 158 94 134 222 
455 215 205 216 230 
456 158 101 94 222 
457 143 219 221 222 
458 185 221 219 222 
459 123 227 115 232 
460 189 188 221 232 
461 73 66 111 223 
462 98 208 104 217 
463 86 103 77 217 
464 90 98 104 217 
465 147 222 221 232 
466 215 182 205 230 
467 215 216 226 230 
468 86 166 103 217 
469 121 213 129 223 
470 187 225 186 227 
471 144 225 145 227 
472 159 67 133 216 
473 90 77 103 217 
474 147 221 146 232 
475 206 121 130 223 
476 128 66 76 223 
477 128 76 171 223 
478 176 200 185 222 
479 158 134 143 222 
480 106 209 99 230 
481 190 231 224 232 
482 187 186 212 227 
483 144 145 170 227 
484 93 94 101 222 
485 209 106 75 230 
486 116 115 123 227 
487 111 121 129 223 
488 215 226 182 230 
489 87 82 77 217 
490 111 66 128 223 
491 73 213 71 223 
492 143 219 142 221 
493 185 184 219 221 
494 87 208 82 217 
495 110 220 177 222 
496 130 223 119 224 
497 148 224 231 232 
498 73 71 66 223 
499 214 227 221 232 
500 136 227 123 232 
501 186 187 184 225 
502 144 142 145 225 
503 119 223 138 224 
504 70 216 205 230 
505 106 89 75 230 
506 132 217 79 218 
507 180 206 130 223 
508 110 177 200 222 
509 110 95 220 222 
510 197 219 225 233 
511 103 166 96 217 
512 193 215 216 226 
513 67 159 69 216 
514 114 130 119 224 
515 138 119 164 223 
516 197 183 219 233 
517 209 182 99 230 
518 187 225 227 229 
519 221 227 172 232 
520 121 206 213 223 
521 121 119 130 223 
522 145 227 225 229 
523 106 99 89 230 
524 101 158 95 222 
525 171 164 128 223 
526 198 178 124 227 
527 114 119 138 224 
528 110 200 93 222 
529 223 224 196 231 
530 187 227 212 229 
531 170 227 145 229 
532 132 80 79 217 
533 182 209 205 230 
534 75 70 209 230 
535 197 225 217 233 
536 211 217 197 225 
537 155 217 169 225 
538 115 227 178 232 
539 132 169 162 217 
540 204 211 174 217 
541 211 218 217 225 
542 217 218 169 225 
543 130 180 223 224 
544 98 181 208 217 
545 103 96 90 217 
546 204 174 84 217 
547 189 221 185 222 
548 147 143 221 222 
549 142 225 219 233 
550 173 226 216 230 
551 154 138 164 223 
552 180 196 206 223 
553 95 158 135 222 
554 95 135 220 222 
555 76 159 171 223 
556 197 219 184 225 
557 132 162 80 217 
558 154 224 223 231 
559 89 65 75 230 
560 214 178 227 232 
561 209 70 205 230 
562 115 124 178 227 
563 207 216 175 223 
564 183 184 197 219 
565 144 143 142 221 
566 185 186 184 221 
567 207 223 196 231 
568 117 131 125 224 
569 181 197 217 233 
570 188 185 189 221 
571 147 143 146 221 
572 88 127 168 228 
573 124 115 116 227 
574 207 216 223 231 
575 189 177 220 222 
576 147 220 135 222 
577 181 217 98 233 
578 204 84 82 217 
579 142 155 225 233 
580 166 139 96 217 
581 182 226 99 230 
582 69 216 159 223 
583 136 172 227 232 
584 220 226 193 231 
585 160 157 218 228 
586 151 152 220 226 
587 193 220 194 226 
588 154 138 223 224 
589 196 223 180 224 
590 215 207 193 216 
591 189 190 188 232 
592 110 93 95 222 
593 67 69 72 216 
594 218 228 157 229 
595 217 225 155 233 
596 156 136 172 227 
597 214 178 198 227 
598 90 96 98 217 
599 82 208 204 217 
600 84 79 217 218 
601 107 194 102 220 
602 173 216 163 230 
603 193 191 220 231 
604 117 131 224 232 
605 156 122 116 227 
606 86 80 166 217 
607 119 128 164 223 
608 151 226 220 231 
609 107 194 220 226 
610 193 226 216 231 
611 119 111 128 223 
612 134 91 141 219 
613 214 221 188 232 
614 86 77 80 217 
615 181 183 197 233 
616 165 223 216 231 
617 120 168 127 228 
618 185 184 176 219 
619 143 134 142 219 
620 169 217 132 218 
621 174 217 211 218 
622 135 152 92 220 
623 134 94 91 219 
624 71 201 72 223 
625 176 100 109 219 
626 181 98 108 233 
627 69 76 66 223 
628 92 95 135 220 
629 154 223 165 231 
630 147 149 135 220 
631 191 189 177 220 
632 65 70 75 230 
633 102 177 110 220 
634 101 95 93 222 
635 88 112 127 228 
636 183 100 176 219 
637 207 175 201 223 
638 149 151 152 220 
639 194 193 191 220 
640 142 219 141 233 
641 84 217 174 218 
642 72 216 69 223 
643 79 80 84 217 
644 175 205 72 216 
645 98 217 96 233 
646 102 194 177 220 
647 205 70 72 216 
648 162 166 80 217 
649 151 220 149 231 
650 95 101 36 158 
651 34 152 140 226 
652 215 205 175 216 
653 173 133 163 216 
654 92 220 152 226 
655 156 137 122 227 
656 54 122 116 156 
657 92 152 34 226 
658 173 165 216 231 
659 213 201 71 223 
660 37 158 101 94 
661 142 141 155 233 
662 107 102 92 220 
663 34 140 97 226 
664 117 115 131 232 
665 190 191 192 231 
666 120 157 228 229 
667 92 34 97 226 
668 107 220 92 226 
669 161 155 169 225 
670 211 197 203 225 
671 173 140 226 230 
672 186 221 214 227 
673 172 221 144 227 
674 161 160 157 218 
675 155 139 169 217 
676 197 211 181 217 
677 172 146 221 232 
678 147 146 148 232 
679 161 218 157 229 
680 121 111 119 223 
681 152 92 35 135 
682 71 72 69 223 
683 102 110 95 220 
684 181 108 183 233 
685 13 133 159 67 
686 100 94 109 219 
687 92 95 35 135 
688 38 141 134 91 
689 193 216 207 231 
690 161 169 218 225 
691 211 203 218 225 
692 163 133 68 216 
693 192 196 224 231 
694 135 95 36 158 
695 91 134 38 94 
696 68 163 216 230 
697 113 227 122 229 
698 134 158 37 94 
699 124 113 198 227 
700 139 217 155 233 
701 99 182 107 226 
702 76 69 159 223 
703 156 54 122 137 
704 88 78 112 228 
705 166 162 139 217 
706 181 204 208 217 
707 68 133 67 216 
708 195 224 131 232 
709 115 117 123 232 
710 131 195 125 224 
711 190 192 224 231 
712 122 227 137 229 
713 157 160 168 228 
714 120 122 157 229 
715 112 120 127 228 
716 173 151 165 231 
717 116 123 53 156 
718 99 226 97 230 
719 115 178 131 232 
720 68 216 70 230 
721 82 84 80 217 
722 189 200 177 222 
723 147 135 158 222 
724 100 91 94 219 
725 120 157 168 228 
726 92 102 95 220 
727 200 44 110 93 
728 177 44 110 200 
729 213 206 201 223 
730 164 171 159 223 
731 120 228 118 229 
732 107 182 194 226 
733 109 45 200 93 
734 200 176 45 109 
735 91 219 100 233 
736 203 225 187 229 
737 154 150 224 231 
738 91 141 219 233 
739 151 173 140 226 
740 96 217 139 233 
741 179 227 113 229 
742 105 33 167 230 
743 189 185 200 222 
744 147 158 143 222 
745 193 182 215 226 
746 113 116 122 227 
747 198 113 179 227 
748 145 225 161 229 
749 81 132 79 218 
750 117 125 114 224 
751 203 218 225 229 
752 207 196 192 231 
753 148 150 149 231 
754 84 202 83 218 
755 83 218 202 228 
756 167 163 74 230 
757 161 225 218 229 
758 18 72 175 205 
759 84 174 202 218 
760 18 72 205 70 
761 159 13 67 69 
762 207 201 196 223 
763 165 154 159 223 
764 166 103 96 40 
765 148 224 150 231 
766 136 123 117 232 
767 183 176 184 219 
768 134 141 142 219 
769 203 199 228 229 
770 118 199 179 229 
771 146 143 144 221 
772 185 188 186 221 
773 81 160 132 218 
774 33 140 167 230 
775 118 228 199 229 
776 25 81 132 79 
777 74 167 11 163 
778 113 118 179 229 
779 152 135 149 220 
780 194 191 177 220 
781 31 202 83 84 
782 99 97 89 230 
783 202 31 174 84 
784 122 120 157 55 
785 203 228 218 229 
786 212 227 179 229 
787 71 69 66 223 
788 194 43 102 177 
789 176 183 46 100 
790 120 118 122 229 
791 214 186 188 221 
792 172 146 144 221 
793 160 218 81 228 
794 145 142 155 225 
795 187 197 184 225 
796 178 195 131 232 
797 97 226 140 230 
798 125 180 130 224 
799 105 97 33 230 
800 82 80 77 217 
801 81 78 88 228 
802 122 137 157 229 
803 47 98 108 181 
804 170 137 227 229 
805 182 42 99 107 
806 117 224 153 232 
807 179 63 199 118 
808 118 179 63 113 
809 117 114 153 224 
810 61 198 178 124 
811 53 123 136 156 
812 186 214 212 227 
813 172 144 170 227 
814 99 107 97 226 
815 137 156 170 227 
816 198 179 212 227 
817 138 50 164 119 
818 26 88 168 160 
819 72 68 67 216 
820 151 140 152 226 
821 25 81 160 132 
822 124 116 113 227 
823 72 70 68 216 
824 119 138 50 114 
825 108 91 100 233 
826 130 121 206 58 
827 74 65 105 230 
828 193 194 182 226 
829 211 204 181 217 
830 169 139 162 217 
831 47 108 183 181 
832 139 166 96 40 
833 182 42 107 194 
834 30 82 204 84 
835 187 212 179 229 
836 173 163 140 230 
837 61 178 115 124 
838 98 96 108 233 
839 156 172 170 227 
840 198 212 214 227 
841 126 78 85 228 
842 114 153 51 117 
843 174 30 204 84 
844 214 188 178 232 
845 113 198 62 124 
846 136 52 117 123 
847 33 97 140 230 
848 207 215 175 216 
849 165 133 173 216 
850 125 195 180 224 
851 71 19 72 201 
852 154 150 138 224 
853 192 196 180 224 
854 201 19 72 175 
855 89 105 65 230 
856 133 12 68 67 
857 193 192 191 231 
858 163 12 68 133 
859 14 159 171 76 
860 97 107 92 226 
861 145 155 161 225 
862 187 203 197 225 
863 55 157 122 137 
864 170 145 137 229 
865 113 122 118 229 
866 138 153 114 224 
867 138 153 51 114 
868 139 39 96 233 
869 83 81 218 228 
870 114 125 130 224 
871 74 163 68 230 
872 203 179 199 229 
873 87 90 22 104 
874 75 106 10 89 
875 129 16 111 73 
876 203 187 179 229 
877 202 218 203 228 
878 139 141 39 233 
879 196 201 206 223 
880 159 154 164 223 
881 154 165 150 231 
882 213 121 129 57 
883 85 83 210 228 
884 81 79 84 218 
885 210 199 126 228 
886 58 206 130 180 
887 117 153 136 232 
888 167 74 105 230 
889 126 85 210 228 
890 84 83 81 218 
891 48 104 98 208 
892 110 102 43 177 
893 195 59 125 180 
894 106 209 41 99 
895 68 74 11 163 
896 202 203 199 228 
897 137 161 157 229 
898 46 176 100 109 
899 141 139 155 233 
900 179 198 62 113 
901 145 161 137 229 
902 73 20 71 213 
903 22 77 90 87 
904 10 75 89 65 
905 66 111 16 73 
906 203 174 211 218 
907 161 169 132 218 
908 64 210 199 126 
909 60 131 115 178 
910 85 126 28 78 
911 203 202 174 218 
912 161 132 160 218 
913 78 126 112 228 
914 192 193 207 231 
915 88 26 81 160 
916 105 74 9 65 
917 15 76 128 66 
918 103 77 21 86 
919 91 39 141 233 
920 188 190 178 232 
921 127 27 112 88 
922 108 46 183 100 
923 96 39 91 233 
924 97 105 89 230 
925 118 126 199 228 
926 102 107 43 194 
927 190 224 195 232 
928 49 171 164 128 
929 209 182 41 99 
930 111 15 128 66 
931 90 77 21 103 
932 89 105 9 65 
933 181 48 98 208 
934 130 125 59 180 
935 44 200 45 93 
936 52 153 136 117 
937 126 199 64 118 
938 78 83 85 228 
939 172 136 146 232 
940 210 83 202 228 
941 78 112 27 88 
942 213 206 121 57 
943 32 210 85 83 
944 17 209 75 70 
945 128 164 49 119 
946 120 112 118 228 
947 76 14 159 69 
948 208 87 82 29 
949 148 153 224 232 
950 65 68 70 230 
951 150 151 149 231 
952 209 17 205 70 
953 37 38 134 94 
954 95 36 35 135 
955 153 138 150 224 
956 195 192 180 224 
957 163 167 140 230 
958 126 28 78 112 
959 120 127 168 56 
960 178 60 131 195 
961 13 12 133 67 
962 83 78 81 228 
963 29 82 208 204 
964 132 24 25 79 
965 33 34 140 97 
966 39 139 96 40 
967 20 71 213 201 
968 91 108 96 233 
969 210 32 202 83 
970 148 146 136 232 
971 118 112 126 228 
972 178 190 195 232 
973 59 125 131 195 
974 182 42 41 99 
975 74 68 65 230 
976 47 48 98 181 
977 195 190 192 224 
978 150 148 153 224 
979 101 36 158 37 
980 111 16 15 66 
981 77 21 22 90 
982 9 10 89 65 
983 183 46 108 47 
984 91 38 141 39 
985 53 54 116 156 
986 43 107 42 194 
987 35 34 92 152 
988 150 165 151 231 
989 43 44 110 177 
990 176 46 45 109 
991 28 78 112 27 
992 6 87 104 208 
993 2 209 106 75 
994 205 17 18 70 
995 59 58 130 180 
996 11 12 68 163 
997 138 51 50 114 
998 199 210 202 228 
999 88 127 7 168 
1000 73 129 4 213 
1001 168 157 120 56 
1002 31 202 32 83 
1003 81 26 25 160 
1004 85 210 8 126 
1005 50 49 164 119 
1006 115 60 178 61 
1007 153 52 51 117 
1008 148 136 153 232 
1009 63 64 199 118 
1010 198 61 62 124 
1011 179 62 63 113 
1012 5 103 86 166 
1013 1 167 74 105 
1014 162 23 24 80 
1015 76 171 3 128 
1016 204 29 82 30 
1017 168 127 7 56 
1018 48 6 104 208 
1019 2 209 41 106 
1020 57 206 121 58 
1021 8 32 210 85 
1022 129 4 213 57 
1023 4 16 129 73 
1024 106 10 2 75 
1025 87 22 6 104 
1026 71 20 19 201 
1027 14 13 159 69 
1028 2 17 209 75 
1029 208 6 87 29 
1030 127 7 27 88 
1031 54 55 122 137 
1032 73 4 20 213 
1033 7 26 88 168 
1034 60 59 131 195 
1035 5 103 166 40 
1036 1 33 167 105 
1037 8 85 126 28 
1038 171 49 3 128 
1039 86 23 5 166 
1040 11 1 167 74 
1041 74 9 1 105 
1042 76 3 15 128 
1043 103 21 5 86 
1044 56 157 120 55 
1045 72 19 18 175 
1046 210 64 8 126 
1047 3 14 171 76 
1048 30 174 31 84 
1049 136 52 123 53 
1050 232 189 220 222 
1051 232 220 189 190 
1052 104 217 87 90 
1053 87 217 104 208 
1054 216 159 165 133 
1055 216 165 159 223 
1056 223 175 72 216 
1057 223 72 175 201 
1058 231 173 226 216 
1059 231 226 173 151 
1060 100 233 183 108 
1061 183 233 100 219 
1062 156 123 227 116 
1063 156 227 123 136 
1064 80 166 23 86 
1065 23 166 80 162 
1066 132 80 24 79 
1067 24 80 132 162 
1068 88 160 228 168 
1069 228 160 88 81 
$EndElements
