solid OpenSCAD_Model
  facet normal 1 -0 0
    outer loop
      vertex 35 -80 30
      vertex 35 80 -30
      vertex 35 80 30
    endloop
  endfacet
  facet normal 1 0 0
    outer loop
      vertex 35 80 -30
      vertex 35 -80 30
      vertex 35 -80 -30
    endloop
  endfacet
  facet normal 0 0 1
    outer loop
      vertex 35 80 30
      vertex 32 77 30
      vertex 35 -80 30
    endloop
  endfacet
  facet normal 0 0 1
    outer loop
      vertex 35 80 30
      vertex -32 77 30
      vertex 32 77 30
    endloop
  endfacet
  facet normal 0 0 1
    outer loop
      vertex -32 77 30
      vertex -35 80 30
      vertex -32 -77 30
    endloop
  endfacet
  facet normal -0 0 1
    outer loop
      vertex -35 80 30
      vertex -32 77 30
      vertex 35 80 30
    endloop
  endfacet
  facet normal -0 0 1
    outer loop
      vertex 32 -77 30
      vertex 35 -80 30
      vertex 32 77 30
    endloop
  endfacet
  facet normal -0 0 1
    outer loop
      vertex -32 -77 30
      vertex 35 -80 30
      vertex 32 -77 30
    endloop
  endfacet
  facet normal 0 0 1
    outer loop
      vertex -32 -77 30
      vertex -35 -80 30
      vertex 35 -80 30
    endloop
  endfacet
  facet normal 0 0 1
    outer loop
      vertex -35 -80 30
      vertex -32 -77 30
      vertex -35 80 30
    endloop
  endfacet
  facet normal 0 0 -1
    outer loop
      vertex -35 -80 -30
      vertex 35 80 -30
      vertex 35 -80 -30
    endloop
  endfacet
  facet normal -0 0 -1
    outer loop
      vertex 35 80 -30
      vertex -35 -80 -30
      vertex -35 80 -30
    endloop
  endfacet
  facet normal -1 0 0
    outer loop
      vertex -35 -80 -30
      vertex -35 80 30
      vertex -35 80 -30
    endloop
  endfacet
  facet normal -1 -0 0
    outer loop
      vertex -35 80 30
      vertex -35 -80 -30
      vertex -35 -80 30
    endloop
  endfacet
  facet normal 0 1 -0
    outer loop
      vertex 35 80 -30
      vertex -35 80 30
      vertex 35 80 30
    endloop
  endfacet
  facet normal 0 1 0
    outer loop
      vertex -35 80 30
      vertex 35 80 -30
      vertex -35 80 -30
    endloop
  endfacet
  facet normal 0 -1 0
    outer loop
      vertex -35 -80 -30
      vertex 35 -80 30
      vertex -35 -80 30
    endloop
  endfacet
  facet normal 0 -1 -0
    outer loop
      vertex 35 -80 30
      vertex -35 -80 -30
      vertex 35 -80 -30
    endloop
  endfacet
  facet normal -1 0 0
    outer loop
      vertex 32 -77 -27
      vertex 32 77 30
      vertex 32 77 -27
    endloop
  endfacet
  facet normal -1 -0 0
    outer loop
      vertex 32 77 30
      vertex 32 -77 -27
      vertex 32 -77 30
    endloop
  endfacet
  facet normal -0 0 1
    outer loop
      vertex -32 77 -27
      vertex 32 -77 -27
      vertex 32 77 -27
    endloop
  endfacet
  facet normal 0 0 1
    outer loop
      vertex 32 -77 -27
      vertex -32 77 -27
      vertex -32 -77 -27
    endloop
  endfacet
  facet normal 1 -0 0
    outer loop
      vertex -32 -77 30
      vertex -32 77 -27
      vertex -32 77 30
    endloop
  endfacet
  facet normal 1 0 0
    outer loop
      vertex -32 77 -27
      vertex -32 -77 30
      vertex -32 -77 -27
    endloop
  endfacet
  facet normal 0 -1 0
    outer loop
      vertex -32 77 -27
      vertex 32 77 30
      vertex -32 77 30
    endloop
  endfacet
  facet normal 0 -1 -0
    outer loop
      vertex 32 77 30
      vertex -32 77 -27
      vertex 32 77 -27
    endloop
  endfacet
  facet normal 0 1 -0
    outer loop
      vertex 32 -77 -27
      vertex -32 -77 30
      vertex 32 -77 30
    endloop
  endfacet
  facet normal 0 1 0
    outer loop
      vertex -32 -77 30
      vertex 32 -77 -27
      vertex -32 -77 -27
    endloop
  endfacet
endsolid OpenSCAD_Model
