$MeshFormat
4.1 0 8
$EndMeshFormat
$PhysicalNames
2
2 2 "boundary"
3 1 "domain"
$EndPhysicalNames
$Entities
8 12 6 1
1 0 0 0 0 
2 0 0 5 0 
3 0 10 0 0 
4 0 10 5 0 
5 20 0 0 0 
6 20 0 5 0 
7 20 10 0 0 
8 20 10 5 0 
1 -1e-07 -1e-07 -9.999999983634211e-08 1e-07 1e-07 5.0000001 0 2 1 -2 
2 -1e-07 -1.000000002804313e-07 -1e-07 1e-07 10.0000001 1e-07 0 2 1 -3 
3 -1e-07 9.999999900000001 -9.999999983634211e-08 1e-07 10.0000001 5.0000001 0 2 3 -4 
4 -1e-07 -1.000000002804313e-07 4.9999999 1e-07 10.0000001 5.0000001 0 2 2 -4 
5 19.9999999 -1e-07 -9.999999983634211e-08 20.0000001 1e-07 5.0000001 0 2 5 -6 
6 19.9999999 -1.000000002804313e-07 -1e-07 20.0000001 10.0000001 1e-07 0 2 5 -7 
7 19.9999999 9.999999900000001 -9.999999983634211e-08 20.0000001 10.0000001 5.0000001 0 2 7 -8 
8 19.9999999 -1.000000002804313e-07 4.9999999 20.0000001 10.0000001 5.0000001 0 2 6 -8 
9 -9.99999993922529e-08 -1e-07 -1e-07 20.0000001 1e-07 1e-07 0 2 1 -5 
10 -9.99999993922529e-08 -1e-07 4.9999999 20.0000001 1e-07 5.0000001 0 2 2 -6 
11 -9.99999993922529e-08 9.999999900000001 -1e-07 20.0000001 10.0000001 1e-07 0 2 3 -7 
12 -9.99999993922529e-08 9.999999900000001 4.9999999 20.0000001 10.0000001 5.0000001 0 2 4 -8 
1 -1e-07 -1.000000002804313e-07 -9.999999983634211e-08 1e-07 10.0000001 5.0000001 1 2 4 -1 2 3 -4 
2 19.9999999 -1.000000002804313e-07 -9.999999983634211e-08 20.0000001 10.0000001 5.0000001 1 2 4 -5 6 7 -8 
3 -9.99999993922529e-08 -1e-07 -9.999999983634211e-08 20.0000001 1e-07 5.0000001 1 2 4 -9 1 10 -5 
4 -9.99999993922529e-08 9.999999900000001 -9.999999983634211e-08 20.0000001 10.0000001 5.0000001 1 2 4 -11 3 12 -7 
5 -9.99999993922529e-08 -1.000000002804313e-07 -1e-07 20.0000001 10.0000001 1e-07 1 2 4 -2 9 6 -11 
6 -9.99999993922529e-08 -1.000000002804313e-07 4.9999999 20.0000001 10.0000001 5.0000001 1 2 4 -4 10 8 -12 
1 -9.99999993922529e-08 -1.000000002804313e-07 -9.999999983634211e-08 20.0000001 10.0000001 5.0000001 1 1 6 -1 2 -3 4 -5 6 
$EndEntities
$Nodes
27 258 1 258
0 1 0 1
1
0 0 0
0 2 0 1
2
0 0 5
0 3 0 1
3
0 10 0
0 4 0 1
4
0 10 5
0 5 0 1
5
20 0 0
0 6 0 1
6
20 0 5
0 7 0 1
7
20 10 0
0 8 0 1
8
20 10 5
1 1 0 2
9
10
0 0 1.666666666666667
0 0 3.333333333333333
1 2 0 4
11
12
13
14
0 2 0
0 4 0
0 6 0
0 8 0
1 3 0 2
15
16
0 10 1.666666666666667
0 10 3.333333333333333
1 4 0 4
17
18
19
20
0 2 5
0 4 5
0 6 5
0 8 5
1 5 0 2
21
22
20 0 1.666666666666667
20 0 3.333333333333333
1 6 0 4
23
24
25
26
20 2 0
20 4 0
20 6 0
20 8 0
1 7 0 2
27
28
20 10 1.666666666666667
20 10 3.333333333333333
1 8 0 4
29
30
31
32
20 2 5
20 4 5
20 6 5
20 8 5
1 9 0 9
33
34
35
36
37
38
39
40
41
2 0 0
4 0 0
6 0 0
8 0 0
10 0 0
12 0 0
14 0 0
16 0 0
18 0 0
1 10 0 9
42
43
44
45
46
47
48
49
50
2 0 5
4 0 5
6 0 5
8 0 5
10 0 5
12 0 5
14 0 5
16 0 5
18 0 5
1 11 0 9
51
52
53
54
55
56
57
58
59
2 10 0
4 10 0
6 10 0
8 10 0
10 10 0
12 10 0
14 10 0
16 10 0
18 10 0
1 12 0 9
60
61
62
63
64
65
66
67
68
2 10 5
4 10 5
6 10 5
8 10 5
10 10 5
12 10 5
14 10 5
16 10 5
18 10 5
2 1 0 12
69
70
71
72
73
74
75
76
77
78
79
80
0 8.562514759528337 2.521860072284436
0 1.437485240471661 2.521860072284436
0 5 1.637318807099607
0 3.123396842794429 1.660807607164363
0 6.876603157205571 1.660807607164364
0 2.803799576698712 3.592343742050993
0 7.196200423301287 3.592343742050994
0 5 3.519026558501913
0 8.738084623073819 3.852368214355248
0 1.261915376926183 3.852368214355246
0 1.312176416653218 1.169866869223093
0 8.687823583346782 1.169866869223093
2 2 0 12
81
82
83
84
85
86
87
88
89
90
91
92
20 8.562514759528337 2.521860072284436
20 1.437485240471661 2.521860072284436
20 5 1.637318807099607
20 3.123396842794429 1.660807607164363
20 6.876603157205571 1.660807607164364
20 2.803799576698712 3.592343742050993
20 7.196200423301287 3.592343742050994
20 5 3.519026558501913
20 8.738084623073819 3.852368214355248
20 1.261915376926183 3.852368214355246
20 1.312176416653218 1.169866869223093
20 8.687823583346782 1.169866869223093
2 3 0 22
93
94
95
96
97
98
99
100
101
102
103
104
105
106
107
108
109
110
111
112
113
114
18.56251475952833 0 2.478139927715564
1.437485240471661 0 2.521860072284436
5.353899473799072 0 1.654792799932581
9 0 1.732050807568877
13 0 1.732050807568877
7 0 3.267949192431123
11 0 3.267949192431123
14.64610052620093 0 3.345207200067419
3.123396842794431 0 1.660807607164364
16.87660315720557 0 3.339192392835639
17.19620042330128 0 1.407656257949006
2.803799576698712 0 3.592343742050993
7.070779894759814 0 1.330958559986516
11 0 1.346410161513775
15.28648401778463 0 1.637351109736823
4.713515982215368 0 3.362648890263176
9 0 3.653589838486225
12.92922010524019 0 3.669041440013483
18.73808462307382 0 1.147631785644749
1.261915376926183 0 3.852368214355247
1.312176416653219 0 1.169866869223093
18.68782358334678 0 3.830133130776907
2 4 0 22
115
116
117
118
119
120
121
122
123
124
125
126
127
128
129
130
131
132
133
134
135
136
18.56251475952833 10 2.478139927715564
1.437485240471661 10 2.521860072284436
5.353899473799072 10 1.654792799932581
9 10 1.732050807568877
13 10 1.732050807568877
7 10 3.267949192431123
11 10 3.267949192431123
14.64610052620093 10 3.345207200067419
16.87660315720557 10 3.339192392835638
3.12339684279443 10 1.660807607164363
17.19620042330128 10 1.407656257949006
2.803799576698712 10 3.592343742050993
7.070779894759814 10 1.330958559986516
11 10 1.346410161513775
15.28648401778463 10 1.637351109736823
4.713515982215368 10 3.362648890263176
9 10 3.653589838486225
12.92922010524019 10 3.669041440013483
18.73808462307382 10 1.14763178564475
1.261915376926183 10 3.852368214355247
1.312176416653218 10 1.169866869223093
18.68782358334678 10 3.830133130776907
2 5 0 49
137
138
139
140
141
142
143
144
145
146
147
148
149
150
151
152
153
154
155
156
157
158
159
160
161
162
163
164
165
166
167
168
169
170
171
172
173
174
175
176
177
178
179
180
181
182
183
184
185
5.235879901488863 8.430315512596819 0
9.216380445854114 8.132747275213825 0
13.01840399803315 8.222913958563812 0
7.000000000000001 1.655457298470317 0
10.93680581256686 1.695565626443134 0
15.17345130941316 1.79259224991086 0
1.722613419731222 5.016346035225553 0
18.27738658026878 4.98365396477445 0
3.171054534061875 1.915029284634959 0
16.8163487618852 8.188605505118421 0
18.30702912343532 3.007481903574779 0
16.37177463526994 3.686747258593773 0
16.53589838486226 6.000000000000014 0
14.80384757729337 5.000000000000033 0
14.85422972348841 7.008544464467478 0
13.06545647740033 6.051771451822857 0
13.07212842920342 4.062848166521412 0
11.33974596215562 5.000000000000075 0
11.20506871083273 7.018785675386224 0
9.590425381553185 6.010406637348743 0
7.711198160118947 6.646373267642298 0
7.986005447709561 4.698006148063586 0
6.274673687462126 5.594508473872527 0
8.989467635427808 1.645760451588993 0
9.780469302116314 3.622052508758653 0
13.0580151585078 2.020610397516005 0
1.692970876564673 6.992518096425221 0
3.271797678325159 5.989035346846851 0
3.17804657660671 4.02157720607424 0
5.127467760279425 1.68177782461524 0
6.164850432901038 3.504687294923785 0
3.170787962070723 8.198955963662963 0
1.613909487957217 3.077671077181007 0
18.35053673316374 6.937235112798471 0
17.01818696973008 1.663326973871455 0
7.07687884620703 8.403688174467923 0
14.93779649668135 8.684012785629942 0
5.019388627799601 6.600774429973275 0
14.60288568297003 3.348076211353335 0
7.984158563630945 3.025192740361066 0
11 8.694874729368033 0
11.63743293291 3.280215339847856 0
18.53589838486225 1.464101615137753 0
18.53589838486225 8.535898384862247 0
1.464101615137754 1.464101615137755 0
1.464101615137755 8.535898384862245 0
4.750418171784884 4.803593185012573 0
4.534882368182078 3.148913399541598 0
6.29781456978026 7.212692991354609 0
2 6 0 50
186
187
188
189
190
191
192
193
194
195
196
197
198
199
200
201
202
203
204
205
206
207
208
209
210
211
212
213
214
215
216
217
218
219
220
221
222
223
224
225
226
227
228
229
230
231
232
233
234
235
7 8.267949192431123 5
11 8.267949192431123 5
14.88665085741266 1.637066120482574 5
5.103139180605273 1.635499239202777 5
9 1.732050807568877 5
14.90299689263822 8.353496491679774 5
18.27738658026878 4.98365396477445 5
1.637066120482571 4.886650857412667 5
3.008474738561752 8.306455909888335 5
18.30702912343532 3.007481903574779 5
16.70734446838928 3.961598772758896 5
16.75518891687297 6.002015905158336 5
14.80384757729337 5.000000000000032 5
5.001412456426958 8.274366978673992 5
6.000235409404491 6.536968015902723 5
8.000039234900747 6.536076656702325 5
6.999999999999996 4.80384757729337 5
8.999999999999995 4.803847577293366 5
4.847987673780915 4.814316211570357 5
10.00000653915012 6.535928096835592 5
11 4.803847577293369 5
7 1.732050807568877 5
1.693821434767737 3.001135766047713 5
11 1.732050807568877 5
12.99036146746706 1.694222401786257 5
9.000007629008477 8.267983856400026 5
12.9838328154397 8.30757582030845 5
11.9813277130339 6.577101910583201 5
16.89149378261835 8.146996124642143 5
3.939427841063037 6.708668710085234 5
12.94703332226189 4.91779357418093 5
18.40999461077039 6.944760729906195 5
3.156244321415932 1.891186510723138 5
1.878871514700897 6.836522174011114 5
16.83641488427554 1.881896957087881 5
13.84097909671071 3.269758183724447 5
3.159818118397772 3.858139942709487 5
13.83950327941607 6.675489584848536 5
9.999999999999996 3.267697113398556 5
6.078647621110748 3.231871997123371 5
7.999999999999992 3.267949192431124 5
12 3.266436718235727 5
18.53589838486225 1.464101615137753 5
18.53589838486225 8.535898384862248 5
1.464101615137755 1.464101615137755 5
1.464101615137753 8.535898384862247 5
4.469167383062127 3.086202780265826 5
15.41798135582932 3.103030287661162 5
3.092634253685039 5.420859579157773 5
15.41798135582932 6.896969712338836 5
3 1 0 23
236
237
238
239
240
241
242
243
244
245
246
247
248
249
250
251
252
253
254
255
256
257
258
4.14954606615409 4.040484215846408 2.506942825836873
7.000394500443649 7.113513217203248 2.582926738995925
8.999944250569097 2.825506072209293 2.512394909165187
12.0464909237117 4.236677900064518 2.486138028796916
2.4618154874187 7.538184512581301 2.49432798393359
14.56565289967596 2.582680996283113 2.541001106680219
17.24331947586355 3.042136984360663 2.5
12.87937874735524 7.212463972956822 2.516984341681007
6.29822476197125 2.451721638864932 2.453032331778487
9.860535673137511 7.679035209673786 2.547003551497486
17.25578987469345 7.047025650466398 2.513212204046764
2.331172756404362 2.331172756404362 2.675846705151471
15.56823519538259 5.049838393801409 2.5
7.365793405290629 4.673433728022023 2.563388949593076
4.645356271817546 6.436365008957812 2.66773853523941
9.806014915849143 5.084047858062227 2.746674541870393
2.210500154600071 5.25994381450177 2.240651368665029
15.08561985740873 7.598761560440495 2.869704038694864
12.39634143307209 2.03518649162547 2.848062936090458
4.281035091546623 2.14010936404053 3.212323087520542
17.59933340448515 5.04180658895442 3.017542678396111
13.63227940120196 5.390917661032772 3.115829737341104
10.86717935850399 2.775170146485597 1.781739722612623
$EndNodes
$Elements
7 1197 1 1197
2 1 2 38
1 1 9 79 
2 11 1 79 
3 10 2 78 
4 2 17 78 
5 3 14 80 
6 15 3 80 
7 4 16 77 
8 20 4 77 
9 9 10 70 
10 9 70 79 
11 70 10 78 
12 12 11 72 
13 72 11 79 
14 13 12 71 
15 71 12 72 
16 14 13 73 
17 13 71 73 
18 14 73 80 
19 16 15 69 
20 69 15 80 
21 16 69 77 
22 17 18 74 
23 17 74 78 
24 18 19 76 
25 74 18 76 
26 19 20 75 
27 19 75 76 
28 75 20 77 
29 69 73 75 
30 73 69 80 
31 69 75 77 
32 72 70 74 
33 70 72 79 
34 74 70 78 
35 71 72 76 
36 73 71 76 
37 72 74 76 
38 75 73 76 
2 2 2 38
39 5 91 21 
40 23 91 5 
41 22 90 6 
42 6 90 29 
43 7 92 26 
44 27 92 7 
45 8 89 28 
46 32 89 8 
47 21 82 22 
48 21 91 82 
49 82 90 22 
50 24 84 23 
51 84 91 23 
52 25 83 24 
53 83 84 24 
54 26 85 25 
55 25 85 83 
56 26 92 85 
57 28 81 27 
58 81 92 27 
59 28 89 81 
60 29 86 30 
61 29 90 86 
62 30 88 31 
63 86 88 30 
64 31 87 32 
65 31 88 87 
66 87 89 32 
67 81 87 85 
68 85 92 81 
69 81 89 87 
70 84 86 82 
71 82 91 84 
72 86 90 82 
73 83 88 84 
74 85 88 83 
75 84 88 86 
76 87 88 85 
2 3 2 68
77 9 1 113 
78 1 33 113 
79 2 10 112 
80 42 2 112 
81 5 21 111 
82 41 5 111 
83 22 6 114 
84 6 50 114 
85 10 9 94 
86 94 9 113 
87 10 94 112 
88 21 22 93 
89 21 93 111 
90 93 22 114 
91 33 34 101 
92 33 101 113 
93 34 35 95 
94 34 95 101 
95 35 36 105 
96 95 35 105 
97 36 37 96 
98 36 96 105 
99 37 38 106 
100 96 37 106 
101 38 39 97 
102 38 97 106 
103 39 40 107 
104 97 39 107 
105 40 41 103 
106 40 103 107 
107 103 41 111 
108 43 42 104 
109 104 42 112 
110 44 43 108 
111 43 104 108 
112 45 44 98 
113 98 44 108 
114 46 45 109 
115 45 98 109 
116 47 46 99 
117 99 46 109 
118 48 47 110 
119 47 99 110 
120 49 48 100 
121 100 48 110 
122 50 49 102 
123 49 100 102 
124 50 102 114 
125 93 102 103 
126 102 93 114 
127 93 103 111 
128 94 101 104 
129 101 94 113 
130 94 104 112 
131 98 95 105 
132 95 98 108 
133 101 95 108 
134 96 98 105 
135 98 96 109 
136 99 96 106 
137 96 99 109 
138 97 99 106 
139 99 97 110 
140 100 97 107 
141 97 100 110 
142 102 100 107 
143 104 101 108 
144 103 102 107 
2 4 2 68
145 15 135 3 
146 3 135 51 
147 4 134 16 
148 60 134 4 
149 7 133 27 
150 59 133 7 
151 28 136 8 
152 8 136 68 
153 16 116 15 
154 116 135 15 
155 16 134 116 
156 27 115 28 
157 27 133 115 
158 115 136 28 
159 51 124 52 
160 51 135 124 
161 52 117 53 
162 52 124 117 
163 53 127 54 
164 117 127 53 
165 54 118 55 
166 54 127 118 
167 55 128 56 
168 118 128 55 
169 56 119 57 
170 56 128 119 
171 57 129 58 
172 119 129 57 
173 58 125 59 
174 58 129 125 
175 125 133 59 
176 61 126 60 
177 126 134 60 
178 62 130 61 
179 61 130 126 
180 63 120 62 
181 120 130 62 
182 64 131 63 
183 63 131 120 
184 65 121 64 
185 121 131 64 
186 66 132 65 
187 65 132 121 
188 67 122 66 
189 122 132 66 
190 68 123 67 
191 67 123 122 
192 68 136 123 
193 115 125 123 
194 123 136 115 
195 115 133 125 
196 116 126 124 
197 124 135 116 
198 116 134 126 
199 120 127 117 
200 117 130 120 
201 124 130 117 
202 118 127 120 
203 120 131 118 
204 121 128 118 
205 118 131 121 
206 119 128 121 
207 121 132 119 
208 122 129 119 
209 119 132 122 
210 123 129 122 
211 125 129 123 
212 126 130 124 
2 5 2 126
213 1 11 181 
214 33 1 181 
215 14 3 182 
216 3 51 182 
217 23 5 179 
218 5 41 179 
219 7 26 180 
220 59 7 180 
221 11 12 169 
222 11 169 181 
223 12 13 143 
224 12 143 169 
225 13 14 163 
226 143 13 163 
227 163 14 182 
228 24 23 147 
229 147 23 179 
230 25 24 144 
231 144 24 147 
232 26 25 170 
233 25 144 170 
234 26 170 180 
235 34 33 145 
236 145 33 181 
237 35 34 166 
238 34 145 166 
239 36 35 140 
240 140 35 166 
241 37 36 160 
242 36 140 160 
243 38 37 141 
244 141 37 160 
245 39 38 162 
246 38 141 162 
247 40 39 142 
248 142 39 162 
249 41 40 171 
250 40 142 171 
251 41 171 179 
252 51 52 168 
253 51 168 182 
254 52 53 137 
255 52 137 168 
256 53 54 172 
257 137 53 172 
258 54 55 138 
259 54 138 172 
260 55 56 177 
261 138 55 177 
262 56 57 139 
263 56 139 177 
264 57 58 173 
265 139 57 173 
266 58 59 146 
267 58 146 173 
268 146 59 180 
269 168 137 174 
270 137 172 185 
271 174 137 185 
272 138 155 156 
273 155 138 177 
274 138 156 157 
275 138 157 172 
276 139 151 152 
277 151 139 173 
278 139 152 155 
279 139 155 177 
280 160 140 176 
281 140 166 167 
282 140 167 176 
283 141 160 161 
284 141 161 178 
285 162 141 178 
286 142 148 171 
287 148 142 175 
288 142 162 175 
289 143 163 164 
290 143 164 165 
291 143 165 169 
292 144 147 148 
293 144 148 149 
294 144 149 170 
295 165 145 169 
296 145 165 184 
297 166 145 184 
298 169 145 181 
299 146 149 151 
300 149 146 170 
301 146 151 173 
302 170 146 180 
303 148 147 171 
304 171 147 179 
305 149 148 150 
306 150 148 175 
307 149 150 151 
308 151 150 152 
309 152 150 153 
310 153 150 175 
311 152 153 154 
312 152 154 155 
313 154 153 178 
314 162 153 175 
315 153 162 178 
316 155 154 156 
317 156 154 161 
318 161 154 178 
319 157 156 158 
320 158 156 161 
321 157 158 159 
322 157 159 185 
323 172 157 185 
324 159 158 167 
325 158 161 176 
326 167 158 176 
327 159 167 183 
328 174 159 183 
329 159 174 185 
330 161 160 176 
331 164 163 168 
332 168 163 182 
333 165 164 183 
334 164 168 174 
335 164 174 183 
336 165 183 184 
337 167 166 184 
338 183 167 184 
2 6 2 128
339 2 230 17 
340 42 230 2 
341 20 231 4 
342 4 231 60 
343 29 228 6 
344 6 228 50 
345 8 229 32 
346 68 229 8 
347 17 208 18 
348 17 230 208 
349 18 193 19 
350 18 208 193 
351 19 219 20 
352 193 219 19 
353 219 231 20 
354 30 195 29 
355 195 228 29 
356 31 192 30 
357 192 195 30 
358 32 217 31 
359 31 217 192 
360 32 229 217 
361 43 218 42 
362 218 230 42 
363 44 189 43 
364 189 218 43 
365 45 207 44 
366 44 207 189 
367 46 190 45 
368 190 207 45 
369 47 209 46 
370 46 209 190 
371 48 210 47 
372 47 210 209 
373 49 188 48 
374 188 210 48 
375 50 220 49 
376 49 220 188 
377 50 228 220 
378 60 194 61 
379 60 231 194 
380 61 199 62 
381 194 199 61 
382 62 186 63 
383 62 199 186 
384 63 211 64 
385 186 211 63 
386 64 187 65 
387 64 211 187 
388 65 212 66 
389 187 212 65 
390 66 191 67 
391 66 212 191 
392 67 214 68 
393 191 214 67 
394 214 229 68 
395 199 200 186 
396 200 201 186 
397 201 211 186 
398 187 211 205 
399 205 213 187 
400 187 213 212 
401 188 221 210 
402 220 233 188 
403 188 233 221 
404 207 225 189 
405 189 232 218 
406 225 232 189 
407 190 226 207 
408 209 224 190 
409 224 226 190 
410 212 223 191 
411 191 235 214 
412 223 235 191 
413 192 196 195 
414 192 197 196 
415 192 217 197 
416 208 222 193 
417 193 234 219 
418 222 234 193 
419 194 215 199 
420 194 219 215 
421 194 231 219 
422 196 220 195 
423 220 228 195 
424 197 198 196 
425 198 233 196 
426 196 233 220 
427 197 235 198 
428 197 217 214 
429 214 235 197 
430 216 221 198 
431 198 223 216 
432 221 233 198 
433 198 235 223 
434 199 215 200 
435 200 202 201 
436 200 204 202 
437 200 215 204 
438 202 203 201 
439 203 205 201 
440 205 211 201 
441 202 226 203 
442 204 225 202 
443 225 226 202 
444 203 206 205 
445 203 224 206 
446 203 226 224 
447 215 234 204 
448 222 232 204 
449 204 234 222 
450 204 232 225 
451 206 213 205 
452 206 216 213 
453 206 227 216 
454 224 227 206 
455 207 226 225 
456 218 222 208 
457 208 230 218 
458 210 227 209 
459 209 227 224 
460 221 227 210 
461 213 223 212 
462 216 223 213 
463 217 229 214 
464 219 234 215 
465 216 227 221 
466 218 232 222 
3 1 4 731
467 157 237 249 251 
468 213 245 243 251 
469 137 117 240 250 
470 213 243 239 251 
471 155 243 245 251 
472 185 237 137 250 
473 157 245 237 251 
474 199 130 237 250 
475 128 177 243 245 
476 153 241 248 257 
477 183 236 167 249 
478 137 237 117 250 
479 153 241 175 248 
480 213 205 245 251 
481 91 111 93 179 
482 115 125 133 246 
483 137 240 168 250 
484 92 81 115 246 
485 204 249 236 250 
486 103 93 111 179 
487 81 136 115 246 
488 225 244 236 249 
489 124 137 117 240 
490 153 248 150 257 
491 204 225 236 249 
492 117 237 130 250 
493 153 175 150 248 
494 117 130 240 250 
495 153 239 241 257 
496 237 201 249 251 
497 199 194 240 250 
498 140 105 238 244 
499 187 243 213 245 
500 213 239 206 251 
501 159 249 237 250 
502 125 180 133 246 
503 222 247 208 252 
504 199 240 130 250 
505 200 237 249 250 
506 90 86 82 242 
507 200 249 204 250 
508 124 168 137 240 
509 222 208 193 252 
510 103 93 179 242 
511 167 236 244 249 
512 239 243 213 257 
513 159 183 167 249 
514 237 245 201 251 
515 199 194 130 240 
516 154 239 152 243 
517 155 243 177 245 
518 105 160 140 238 
519 172 137 185 237 
520 157 156 245 251 
521 212 187 132 243 
522 153 241 239 254 
523 151 248 253 257 
524 157 249 156 251 
525 151 253 243 257 
526 121 128 243 245 
527 81 87 89 246 
528 200 202 204 249 
529 222 236 247 252 
530 90 228 86 242 
531 184 236 145 255 
532 103 171 107 242 
533 150 248 151 257 
534 142 241 107 242 
535 117 130 124 240 
536 224 239 227 258 
537 114 93 102 242 
538 224 251 239 258 
539 224 227 254 258 
540 146 246 125 253 
541 121 243 187 245 
542 199 120 186 237 
543 184 244 236 255 
544 236 247 145 255 
545 224 254 209 258 
546 118 127 172 237 
547 240 250 234 252 
548 220 102 241 242 
549 224 209 238 258 
550 224 227 209 254 
551 165 169 247 252 
552 187 213 205 245 
553 89 87 229 246 
554 142 107 171 242 
555 140 238 176 244 
556 120 199 130 237 
557 166 244 184 255 
558 199 215 194 250 
559 151 243 152 257 
560 224 238 251 258 
561 228 114 102 242 
562 98 238 105 244 
563 150 151 152 257 
564 107 241 102 242 
565 165 247 236 252 
566 220 102 188 241 
567 99 238 209 258 
568 153 162 241 254 
569 204 202 225 249 
570 127 117 172 237 
571 200 199 237 250 
572 154 152 155 243 
573 233 242 241 248 
574 69 134 77 240 
575 221 241 239 257 
576 138 118 172 237 
577 123 115 136 246 
578 239 254 227 258 
579 138 118 237 245 
580 190 209 99 238 
581 98 207 190 238 
582 130 194 126 240 
583 166 184 145 255 
584 157 158 156 249 
585 236 234 250 252 
586 193 208 76 252 
587 149 248 246 253 
588 98 207 238 244 
589 172 117 137 237 
590 213 206 205 251 
591 212 243 132 253 
592 215 240 194 250 
593 215 234 240 250 
594 156 249 158 251 
595 207 226 238 244 
596 190 99 109 238 
597 98 190 109 238 
598 103 107 102 242 
599 158 249 238 251 
600 176 244 238 249 
601 239 241 221 254 
602 123 125 246 253 
603 178 254 239 258 
604 232 236 225 255 
605 203 249 201 251 
606 152 153 150 257 
607 71 169 143 252 
608 152 243 239 257 
609 103 179 171 242 
610 174 185 137 250 
611 224 206 239 251 
612 123 136 229 246 
613 173 119 139 253 
614 160 176 140 238 
615 216 239 213 257 
616 211 201 237 245 
617 134 231 77 240 
618 129 146 125 253 
619 119 243 139 253 
620 164 236 183 250 
621 165 145 236 247 
622 187 121 132 243 
623 198 241 221 257 
624 96 160 105 238 
625 213 216 206 239 
626 198 248 241 257 
627 201 245 205 251 
628 152 239 153 257 
629 220 241 233 242 
630 102 100 188 241 
631 211 201 186 237 
632 165 145 184 236 
633 238 244 226 249 
634 138 237 157 245 
635 69 116 134 240 
636 198 233 241 248 
637 138 172 157 237 
638 234 236 222 252 
639 200 237 202 249 
640 236 244 225 255 
641 198 233 221 241 
642 157 237 159 249 
643 202 237 201 249 
644 148 248 242 256 
645 167 236 184 244 
646 177 119 128 243 
647 173 139 151 253 
648 241 242 148 248 
649 155 245 156 251 
650 199 186 200 237 
651 164 236 250 252 
652 149 248 148 256 
653 139 243 151 253 
654 233 196 242 248 
655 190 224 209 238 
656 207 226 190 238 
657 225 226 244 249 
658 234 219 240 252 
659 203 238 226 249 
660 224 206 227 239 
661 166 145 101 255 
662 149 151 248 253 
663 117 120 130 237 
664 167 244 176 249 
665 220 188 233 241 
666 93 103 102 242 
667 99 209 254 258 
668 155 156 154 251 
669 239 251 154 258 
670 203 238 249 251 
671 187 211 131 245 
672 204 225 232 236 
673 86 242 195 256 
674 91 82 84 242 
675 204 236 234 250 
676 183 184 167 236 
677 169 72 247 252 
678 175 241 148 248 
679 142 148 241 242 
680 158 176 238 249 
681 177 139 119 243 
682 234 222 193 252 
683 80 135 116 240 
684 227 239 221 254 
685 101 95 166 255 
686 201 202 200 237 
687 158 238 161 251 
688 144 148 242 256 
689 228 195 86 242 
690 246 248 197 253 
691 116 69 80 240 
692 78 112 94 247 
693 119 173 129 253 
694 122 212 132 253 
695 228 102 220 242 
696 235 197 248 253 
697 74 247 72 252 
698 105 98 96 238 
699 118 120 127 237 
700 217 246 87 256 
701 125 146 180 246 
702 145 247 101 255 
703 91 84 179 242 
704 92 85 81 246 
705 75 240 219 252 
706 94 113 79 247 
707 221 239 216 257 
708 123 129 125 253 
709 164 168 240 250 
710 79 70 94 247 
711 125 115 123 246 
712 235 253 248 257 
713 79 113 181 247 
714 187 212 213 243 
715 173 146 129 253 
716 178 162 254 258 
717 215 234 219 240 
718 164 250 240 252 
719 229 214 123 246 
720 144 149 148 256 
721 229 87 217 246 
722 80 182 135 240 
723 95 244 166 255 
724 134 126 231 240 
725 216 221 227 239 
726 141 160 106 258 
727 174 137 168 250 
728 100 210 241 254 
729 203 201 205 251 
730 153 162 175 241 
731 149 246 248 256 
732 139 177 155 243 
733 222 247 236 255 
734 100 110 210 254 
735 78 230 112 247 
736 134 116 126 240 
737 127 120 117 237 
738 149 144 246 256 
739 159 157 185 237 
740 164 165 183 236 
741 94 70 78 247 
742 188 100 210 241 
743 165 169 145 247 
744 173 151 146 253 
745 203 224 238 251 
746 99 96 238 258 
747 124 130 126 240 
748 234 193 219 252 
749 161 154 251 258 
750 144 147 84 242 
751 141 106 254 258 
752 121 128 119 243 
753 212 122 191 253 
754 164 165 236 252 
755 142 171 148 242 
756 165 143 169 252 
757 177 128 138 245 
758 123 246 214 253 
759 202 201 203 249 
760 223 243 212 253 
761 71 72 169 252 
762 147 179 84 242 
763 226 203 224 238 
764 102 107 100 241 
765 207 225 226 244 
766 84 242 86 256 
767 108 189 244 255 
768 235 248 198 257 
769 158 167 176 249 
770 96 160 238 258 
771 77 231 75 240 
772 225 202 226 249 
773 109 99 96 238 
774 96 98 109 238 
775 101 181 113 247 
776 174 183 159 250 
777 96 106 160 258 
778 169 12 71 143 
779 187 131 121 245 
780 97 142 162 241 
781 149 144 170 246 
782 98 189 207 244 
783 77 75 69 240 
784 157 159 158 249 
785 141 106 97 254 
786 211 205 201 245 
787 158 176 161 238 
788 87 246 85 256 
789 242 248 196 256 
790 152 154 153 239 
791 175 142 148 241 
792 179 147 171 242 
793 99 106 96 258 
794 195 228 220 242 
795 107 142 97 241 
796 197 248 246 256 
797 235 223 253 257 
798 141 254 162 258 
799 164 174 168 250 
800 191 123 214 253 
801 121 119 132 243 
802 234 204 222 236 
803 210 221 241 254 
804 164 240 163 252 
805 162 97 241 254 
806 223 212 191 253 
807 124 135 182 240 
808 221 188 210 241 
809 194 231 126 240 
810 112 230 104 247 
811 76 219 193 252 
812 187 131 211 64 
813 211 63 131 186 
814 144 148 147 242 
815 161 251 238 258 
816 172 185 157 237 
817 214 229 217 246 
818 195 192 88 256 
819 75 219 76 252 
820 150 175 148 248 
821 88 86 195 256 
822 140 95 105 244 
823 166 167 184 244 
824 98 108 189 244 
825 232 222 236 255 
826 198 196 233 248 
827 167 158 159 249 
828 141 97 162 254 
829 156 158 161 251 
830 212 187 65 132 
831 112 104 94 247 
832 187 205 211 245 
833 210 110 47 254 
834 95 140 166 244 
835 138 128 118 245 
836 146 170 180 246 
837 189 225 207 244 
838 215 204 234 250 
839 101 145 181 247 
840 122 123 191 253 
841 209 210 47 254 
842 76 74 72 252 
843 140 176 167 244 
844 202 203 226 249 
845 189 225 244 255 
846 186 62 120 199 
847 150 149 151 248 
848 138 157 156 245 
849 144 25 170 83 
850 101 113 94 247 
851 161 154 156 251 
852 88 217 87 256 
853 223 243 253 257 
854 124 116 135 240 
855 174 164 183 250 
856 181 145 169 247 
857 235 197 198 248 
858 195 242 196 256 
859 139 152 151 243 
860 154 178 239 258 
861 186 201 200 237 
862 218 247 222 255 
863 78 74 230 247 
864 197 196 248 256 
865 217 88 192 256 
866 197 246 217 256 
867 200 215 199 250 
868 206 216 227 239 
869 220 233 196 242 
870 106 99 254 258 
871 101 247 104 255 
872 163 240 73 252 
873 73 182 80 240 
874 223 213 243 257 
875 73 240 75 252 
876 143 73 71 252 
877 204 232 222 236 
878 215 219 194 240 
879 86 84 82 242 
880 163 73 143 252 
881 177 138 155 245 
882 235 198 223 257 
883 97 39 162 142 
884 184 183 165 236 
885 226 224 190 238 
886 100 241 97 254 
887 122 119 129 253 
888 212 223 213 243 
889 84 88 83 256 
890 198 197 196 248 
891 70 74 78 247 
892 88 84 86 256 
893 39 97 107 142 
894 73 163 182 240 
895 231 219 75 240 
896 81 85 87 246 
897 191 67 214 123 
898 140 105 36 160 
899 49 102 188 220 
900 72 71 76 252 
901 124 137 52 117 
902 155 152 139 243 
903 18 76 193 208 
904 203 206 224 251 
905 37 141 160 106 
906 130 120 62 199 
907 64 187 131 121 
908 63 120 131 186 
909 222 218 208 247 
910 189 44 98 207 
911 85 83 88 256 
912 97 141 38 106 
913 150 148 149 248 
914 34 145 101 166 
915 104 247 218 255 
916 210 227 221 254 
917 12 71 72 169 
918 79 72 70 247 
919 230 218 104 247 
920 73 80 69 240 
921 153 154 178 239 
922 102 188 100 49 
923 25 85 170 83 
924 88 87 85 256 
925 143 13 71 73 
926 214 217 197 246 
927 162 142 175 241 
928 192 30 195 88 
929 138 55 128 177 
930 163 164 168 240 
931 140 167 166 244 
932 95 34 101 166 
933 182 168 124 240 
934 137 52 168 124 
935 123 191 67 122 
936 200 204 215 250 
937 13 143 163 73 
938 195 196 192 256 
939 230 74 208 247 
940 132 187 65 121 
941 189 232 225 255 
942 100 97 110 254 
943 108 244 95 255 
944 110 99 47 254 
945 61 194 130 199 
946 188 221 233 241 
947 148 171 147 242 
948 56 119 128 177 
949 196 195 220 242 
950 47 99 209 254 
951 160 161 238 258 
952 126 116 124 240 
953 164 163 143 252 
954 130 126 194 61 
955 203 205 206 251 
956 18 76 208 74 
957 121 118 128 245 
958 160 161 176 238 
959 48 210 188 100 
960 149 170 146 246 
961 30 86 195 88 
962 194 219 231 240 
963 66 191 212 122 
964 132 66 212 122 
965 37 160 96 106 
966 210 48 110 100 
967 156 155 138 245 
968 38 162 141 97 
969 107 97 100 241 
970 44 98 108 189 
971 79 181 11 169 
972 127 172 54 118 
973 43 104 218 255 
974 177 56 119 139 
975 154 161 178 258 
976 217 31 192 88 
977 197 217 192 256 
978 171 103 107 40 
979 122 129 123 253 
980 26 92 180 170 
981 104 101 94 247 
982 198 221 216 257 
983 95 105 35 140 
984 235 191 214 253 
985 118 121 131 245 
986 24 144 84 83 
987 232 218 222 255 
988 178 141 162 258 
989 139 57 119 173 
990 223 216 213 257 
991 101 108 95 255 
992 105 96 36 160 
993 219 19 76 193 
994 43 108 104 255 
995 140 35 95 166 
996 31 217 87 88 
997 168 182 163 240 
998 108 101 104 255 
999 138 55 118 128 
1000 98 95 108 244 
1001 147 24 144 84 
1002 76 75 19 219 
1003 172 138 54 118 
1004 73 75 76 252 
1005 210 209 227 254 
1006 164 143 165 252 
1007 95 98 105 244 
1008 171 107 142 40 
1009 129 119 57 173 
1010 129 125 146 58 
1011 218 189 43 255 
1012 16 69 134 77 
1013 78 112 10 94 
1014 58 146 129 173 
1015 235 223 191 253 
1016 76 71 73 252 
1017 218 230 208 247 
1018 69 75 73 240 
1019 43 189 108 255 
1020 182 51 135 124 
1021 229 68 136 123 
1022 111 93 21 91 
1023 133 27 115 92 
1024 90 82 22 114 
1025 136 28 89 81 
1026 50 114 102 228 
1027 69 116 16 134 
1028 10 78 94 70 
1029 72 79 11 169 
1030 113 33 181 101 
1031 70 72 74 247 
1032 113 79 9 94 
1033 15 80 135 116 
1034 92 26 85 170 
1035 94 79 9 70 
1036 15 80 116 69 
1037 99 97 106 254 
1038 160 141 161 258 
1039 68 229 214 123 
1040 93 82 21 91 
1041 27 81 115 92 
1042 81 136 28 115 
1043 114 82 22 93 
1044 220 50 102 228 
1045 33 145 181 101 
1046 179 111 103 41 
1047 126 134 231 60 
1048 12 13 71 143 
1049 197 192 196 256 
1050 110 97 99 254 
1051 51 182 168 124 
1052 223 198 216 257 
1053 125 133 180 59 
1054 231 194 126 60 
1055 112 230 42 104 
1056 89 32 229 87 
1057 29 86 90 228 
1058 17 230 78 74 
1059 144 24 25 83 
1060 230 218 42 104 
1061 171 179 103 41 
1062 230 17 208 74 
1063 29 86 228 195 
1064 180 146 125 59 
1065 217 229 32 87 
1066 47 46 209 99 
1067 187 64 65 121 
1068 62 61 130 199 
1069 77 20 75 231 
1070 232 189 218 255 
1071 60 194 126 61 
1072 116 16 15 69 
1073 9 10 94 70 
1074 28 27 81 115 
1075 82 21 22 93 
1076 112 2 230 78 
1077 77 134 4 231 
1078 44 45 98 207 
1079 63 62 120 186 
1080 218 43 42 104 
1081 188 48 100 49 
1082 191 66 67 122 
1083 67 68 214 123 
1084 178 161 141 258 
1085 33 34 145 101 
1086 35 34 95 166 
1087 20 75 231 219 
1088 49 50 102 220 
1089 38 39 162 97 
1090 190 45 109 46 
1091 131 63 211 64 
1092 210 48 47 110 
1093 55 54 138 118 
1094 212 65 66 132 
1095 114 6 90 228 
1096 91 5 111 179 
1097 92 133 7 180 
1098 89 229 8 136 
1099 59 146 125 58 
1100 44 108 43 189 
1101 56 57 119 139 
1102 107 39 142 40 
1103 40 171 103 41 
1104 208 17 18 74 
1105 29 86 195 30 
1106 96 36 160 37 
1107 14 13 163 73 
1108 137 53 52 117 
1109 105 36 35 140 
1110 80 182 3 135 
1111 79 1 181 113 
1112 75 20 19 219 
1113 147 23 24 84 
1114 11 12 72 169 
1115 85 26 25 170 
1116 52 51 168 124 
1117 31 217 32 87 
1118 6 29 90 228 
1119 32 229 8 89 
1120 2 17 230 78 
1121 179 5 111 41 
1122 231 134 4 60 
1123 30 192 31 88 
1124 112 10 2 78 
1125 4 16 134 77 
1126 23 5 91 179 
1127 11 1 181 79 
1128 3 14 182 80 
1129 92 7 26 180 
1130 57 58 129 173 
1131 180 133 7 59 
1132 111 21 5 91 
1133 90 22 6 114 
1134 89 8 28 136 
1135 7 27 133 92 
1136 77 4 20 231 
1137 2 230 42 112 
1138 79 9 1 113 
1139 80 3 15 135 
1140 38 141 37 106 
1141 76 19 18 193 
1142 172 54 53 127 
1143 182 51 3 135 
1144 229 68 8 136 
1145 6 114 50 228 
1146 1 33 181 113 
1147 56 128 55 177 
1148 249 183 250 159 
1149 249 250 183 236 
1150 243 154 251 155 
1151 243 251 154 239 
1152 242 82 114 93 
1153 242 91 93 179 
1154 242 93 91 82 
1155 242 90 114 82 
1156 242 114 90 228 
1157 133 246 92 115 
1158 92 246 133 180 
1159 89 246 136 81 
1160 136 246 89 229 
1161 250 185 159 174 
1162 250 159 185 237 
1163 190 98 45 207 
1164 190 45 98 109 
1165 190 99 46 109 
1166 46 99 190 209 
1167 131 186 237 211 
1168 237 186 131 120 
1169 237 245 131 211 
1170 254 153 178 239 
1171 254 178 153 162 
1172 252 74 208 76 
1173 252 208 74 247 
1174 253 149 146 246 
1175 253 146 149 151 
1176 132 253 119 122 
1177 119 253 132 243 
1178 256 84 144 83 
1179 256 144 84 242 
1180 253 197 214 235 
1181 253 214 197 246 
1182 172 117 53 137 
1183 53 117 172 127 
1184 83 256 246 144 
1185 246 256 83 85 
1186 246 170 83 144 
1187 83 170 246 85 
1188 79 169 247 181 
1189 247 169 79 72 
1190 73 182 14 80 
1191 73 14 182 163 
1192 84 179 23 91 
1193 23 179 84 147 
1194 92 170 246 180 
1195 246 170 92 85 
1196 131 237 118 245 
1197 118 237 131 120 
$EndElements
