solid OpenSCAD_Model
  facet normal 0.997859 0.0654082 0
    outer loop
      vertex 43 0 42.5
      vertex 42.6321 5.61263 -42.5
      vertex 42.6321 5.61263 42.5
    endloop
  endfacet
  facet normal 0.997859 0.0654082 0
    outer loop
      vertex 42.6321 5.61263 -42.5
      vertex 43 0 42.5
      vertex 43 0 -42.5
    endloop
  endfacet
  facet normal 0.980786 0.195088 0
    outer loop
      vertex 42.6321 5.61263 42.5
      vertex 41.5348 11.1292 -42.5
      vertex 41.5348 11.1292 42.5
    endloop
  endfacet
  facet normal 0.980786 0.195088 0
    outer loop
      vertex 41.5348 11.1292 -42.5
      vertex 42.6321 5.61263 42.5
      vertex 42.6321 5.61263 -42.5
    endloop
  endfacet
  facet normal 0.94693 0.321439 0
    outer loop
      vertex 41.5348 11.1292 42.5
      vertex 39.7268 16.4554 -42.5
      vertex 39.7268 16.4554 42.5
    endloop
  endfacet
  facet normal 0.94693 0.321439 0
    outer loop
      vertex 39.7268 16.4554 -42.5
      vertex 41.5348 11.1292 42.5
      vertex 41.5348 11.1292 -42.5
    endloop
  endfacet
  facet normal 0.896874 0.442286 0
    outer loop
      vertex 39.7268 16.4554 42.5
      vertex 37.2391 21.5 -42.5
      vertex 37.2391 21.5 42.5
    endloop
  endfacet
  facet normal 0.896874 0.442286 0
    outer loop
      vertex 37.2391 21.5 -42.5
      vertex 39.7268 16.4554 42.5
      vertex 39.7268 16.4554 -42.5
    endloop
  endfacet
  facet normal 0.831467 0.555574 0
    outer loop
      vertex 37.2391 21.5 42.5
      vertex 34.1142 26.1767 -42.5
      vertex 34.1142 26.1767 42.5
    endloop
  endfacet
  facet normal 0.831467 0.555574 0
    outer loop
      vertex 34.1142 26.1767 -42.5
      vertex 37.2391 21.5 42.5
      vertex 37.2391 21.5 -42.5
    endloop
  endfacet
  facet normal 0.751844 0.659341 0
    outer loop
      vertex 34.1142 26.1767 42.5
      vertex 30.4056 30.4056 -42.5
      vertex 30.4056 30.4056 42.5
    endloop
  endfacet
  facet normal 0.751844 0.659341 0
    outer loop
      vertex 30.4056 30.4056 -42.5
      vertex 34.1142 26.1767 42.5
      vertex 34.1142 26.1767 -42.5
    endloop
  endfacet
  facet normal 0.659341 0.751844 -0
    outer loop
      vertex 30.4056 30.4056 -42.5
      vertex 26.1767 34.1142 42.5
      vertex 30.4056 30.4056 42.5
    endloop
  endfacet
  facet normal 0.659341 0.751844 0
    outer loop
      vertex 26.1767 34.1142 42.5
      vertex 30.4056 30.4056 -42.5
      vertex 26.1767 34.1142 -42.5
    endloop
  endfacet
  facet normal 0.555574 0.831467 -0
    outer loop
      vertex 26.1767 34.1142 -42.5
      vertex 21.5 37.2391 42.5
      vertex 26.1767 34.1142 42.5
    endloop
  endfacet
  facet normal 0.555574 0.831467 0
    outer loop
      vertex 21.5 37.2391 42.5
      vertex 26.1767 34.1142 -42.5
      vertex 21.5 37.2391 -42.5
    endloop
  endfacet
  facet normal 0.442286 0.896874 -0
    outer loop
      vertex 21.5 37.2391 -42.5
      vertex 16.4554 39.7268 42.5
      vertex 21.5 37.2391 42.5
    endloop
  endfacet
  facet normal 0.442286 0.896874 0
    outer loop
      vertex 16.4554 39.7268 42.5
      vertex 21.5 37.2391 -42.5
      vertex 16.4554 39.7268 -42.5
    endloop
  endfacet
  facet normal 0.321439 0.94693 -0
    outer loop
      vertex 16.4554 39.7268 -42.5
      vertex 11.1292 41.5348 42.5
      vertex 16.4554 39.7268 42.5
    endloop
  endfacet
  facet normal 0.321439 0.94693 0
    outer loop
      vertex 11.1292 41.5348 42.5
      vertex 16.4554 39.7268 -42.5
      vertex 11.1292 41.5348 -42.5
    endloop
  endfacet
  facet normal 0.195088 0.980786 -0
    outer loop
      vertex 11.1292 41.5348 -42.5
      vertex 5.61263 42.6321 42.5
      vertex 11.1292 41.5348 42.5
    endloop
  endfacet
  facet normal 0.195088 0.980786 0
    outer loop
      vertex 5.61263 42.6321 42.5
      vertex 11.1292 41.5348 -42.5
      vertex 5.61263 42.6321 -42.5
    endloop
  endfacet
  facet normal 0.0654082 0.997859 -0
    outer loop
      vertex 5.61263 42.6321 -42.5
      vertex 0 43 42.5
      vertex 5.61263 42.6321 42.5
    endloop
  endfacet
  facet normal 0.0654082 0.997859 0
    outer loop
      vertex 0 43 42.5
      vertex 5.61263 42.6321 -42.5
      vertex 0 43 -42.5
    endloop
  endfacet
  facet normal -0.0654082 0.997859 0
    outer loop
      vertex 0 43 -42.5
      vertex -5.61263 42.6321 42.5
      vertex 0 43 42.5
    endloop
  endfacet
  facet normal -0.0654082 0.997859 0
    outer loop
      vertex -5.61263 42.6321 42.5
      vertex 0 43 -42.5
      vertex -5.61263 42.6321 -42.5
    endloop
  endfacet
  facet normal -0.195088 0.980786 0
    outer loop
      vertex -5.61263 42.6321 -42.5
      vertex -11.1292 41.5348 42.5
      vertex -5.61263 42.6321 42.5
    endloop
  endfacet
  facet normal -0.195088 0.980786 0
    outer loop
      vertex -11.1292 41.5348 42.5
      vertex -5.61263 42.6321 -42.5
      vertex -11.1292 41.5348 -42.5
    endloop
  endfacet
  facet normal -0.321439 0.94693 0
    outer loop
      vertex -11.1292 41.5348 -42.5
      vertex -16.4554 39.7268 42.5
      vertex -11.1292 41.5348 42.5
    endloop
  endfacet
  facet normal -0.321439 0.94693 0
    outer loop
      vertex -16.4554 39.7268 42.5
      vertex -11.1292 41.5348 -42.5
      vertex -16.4554 39.7268 -42.5
    endloop
  endfacet
  facet normal -0.442286 0.896874 0
    outer loop
      vertex -16.4554 39.7268 -42.5
      vertex -21.5 37.2391 42.5
      vertex -16.4554 39.7268 42.5
    endloop
  endfacet
  facet normal -0.442286 0.896874 0
    outer loop
      vertex -21.5 37.2391 42.5
      vertex -16.4554 39.7268 -42.5
      vertex -21.5 37.2391 -42.5
    endloop
  endfacet
  facet normal -0.555574 0.831467 0
    outer loop
      vertex -21.5 37.2391 -42.5
      vertex -26.1767 34.1142 42.5
      vertex -21.5 37.2391 42.5
    endloop
  endfacet
  facet normal -0.555574 0.831467 0
    outer loop
      vertex -26.1767 34.1142 42.5
      vertex -21.5 37.2391 -42.5
      vertex -26.1767 34.1142 -42.5
    endloop
  endfacet
  facet normal -0.659341 0.751844 0
    outer loop
      vertex -26.1767 34.1142 -42.5
      vertex -30.4056 30.4056 42.5
      vertex -26.1767 34.1142 42.5
    endloop
  endfacet
  facet normal -0.659341 0.751844 0
    outer loop
      vertex -30.4056 30.4056 42.5
      vertex -26.1767 34.1142 -42.5
      vertex -30.4056 30.4056 -42.5
    endloop
  endfacet
  facet normal -0.751844 0.659341 0
    outer loop
      vertex -34.1142 26.1767 -42.5
      vertex -30.4056 30.4056 42.5
      vertex -30.4056 30.4056 -42.5
    endloop
  endfacet
  facet normal -0.751844 0.659341 0
    outer loop
      vertex -30.4056 30.4056 42.5
      vertex -34.1142 26.1767 -42.5
      vertex -34.1142 26.1767 42.5
    endloop
  endfacet
  facet normal -0.831467 0.555574 0
    outer loop
      vertex -37.2391 21.5 -42.5
      vertex -34.1142 26.1767 42.5
      vertex -34.1142 26.1767 -42.5
    endloop
  endfacet
  facet normal -0.831467 0.555574 0
    outer loop
      vertex -34.1142 26.1767 42.5
      vertex -37.2391 21.5 -42.5
      vertex -37.2391 21.5 42.5
    endloop
  endfacet
  facet normal -0.896874 0.442286 0
    outer loop
      vertex -39.7268 16.4554 -42.5
      vertex -37.2391 21.5 42.5
      vertex -37.2391 21.5 -42.5
    endloop
  endfacet
  facet normal -0.896874 0.442286 0
    outer loop
      vertex -37.2391 21.5 42.5
      vertex -39.7268 16.4554 -42.5
      vertex -39.7268 16.4554 42.5
    endloop
  endfacet
  facet normal -0.94693 0.321439 0
    outer loop
      vertex -41.5348 11.1292 -42.5
      vertex -39.7268 16.4554 42.5
      vertex -39.7268 16.4554 -42.5
    endloop
  endfacet
  facet normal -0.94693 0.321439 0
    outer loop
      vertex -39.7268 16.4554 42.5
      vertex -41.5348 11.1292 -42.5
      vertex -41.5348 11.1292 42.5
    endloop
  endfacet
  facet normal -0.980786 0.195088 0
    outer loop
      vertex -42.6321 5.61263 -42.5
      vertex -41.5348 11.1292 42.5
      vertex -41.5348 11.1292 -42.5
    endloop
  endfacet
  facet normal -0.980786 0.195088 0
    outer loop
      vertex -41.5348 11.1292 42.5
      vertex -42.6321 5.61263 -42.5
      vertex -42.6321 5.61263 42.5
    endloop
  endfacet
  facet normal -0.997859 0.0654082 0
    outer loop
      vertex -43 -0 -42.5
      vertex -42.6321 5.61263 42.5
      vertex -42.6321 5.61263 -42.5
    endloop
  endfacet
  facet normal -0.997859 0.0654082 0
    outer loop
      vertex -42.6321 5.61263 42.5
      vertex -43 -0 -42.5
      vertex -43 -0 42.5
    endloop
  endfacet
  facet normal -0.997859 -0.0654082 0
    outer loop
      vertex -42.6321 -5.61263 -42.5
      vertex -43 -0 42.5
      vertex -43 -0 -42.5
    endloop
  endfacet
  facet normal -0.997859 -0.0654082 0
    outer loop
      vertex -43 -0 42.5
      vertex -42.6321 -5.61263 -42.5
      vertex -42.6321 -5.61263 42.5
    endloop
  endfacet
  facet normal -0.980786 -0.195088 0
    outer loop
      vertex -41.5348 -11.1292 -42.5
      vertex -42.6321 -5.61263 42.5
      vertex -42.6321 -5.61263 -42.5
    endloop
  endfacet
  facet normal -0.980786 -0.195088 0
    outer loop
      vertex -42.6321 -5.61263 42.5
      vertex -41.5348 -11.1292 -42.5
      vertex -41.5348 -11.1292 42.5
    endloop
  endfacet
  facet normal -0.94693 -0.321439 0
    outer loop
      vertex -39.7268 -16.4554 -42.5
      vertex -41.5348 -11.1292 42.5
      vertex -41.5348 -11.1292 -42.5
    endloop
  endfacet
  facet normal -0.94693 -0.321439 0
    outer loop
      vertex -41.5348 -11.1292 42.5
      vertex -39.7268 -16.4554 -42.5
      vertex -39.7268 -16.4554 42.5
    endloop
  endfacet
  facet normal -0.896874 -0.442286 0
    outer loop
      vertex -37.2391 -21.5 -42.5
      vertex -39.7268 -16.4554 42.5
      vertex -39.7268 -16.4554 -42.5
    endloop
  endfacet
  facet normal -0.896874 -0.442286 0
    outer loop
      vertex -39.7268 -16.4554 42.5
      vertex -37.2391 -21.5 -42.5
      vertex -37.2391 -21.5 42.5
    endloop
  endfacet
  facet normal -0.831467 -0.555574 0
    outer loop
      vertex -34.1142 -26.1767 -42.5
      vertex -37.2391 -21.5 42.5
      vertex -37.2391 -21.5 -42.5
    endloop
  endfacet
  facet normal -0.831467 -0.555574 0
    outer loop
      vertex -37.2391 -21.5 42.5
      vertex -34.1142 -26.1767 -42.5
      vertex -34.1142 -26.1767 42.5
    endloop
  endfacet
  facet normal -0.751844 -0.659341 0
    outer loop
      vertex -30.4056 -30.4056 -42.5
      vertex -34.1142 -26.1767 42.5
      vertex -34.1142 -26.1767 -42.5
    endloop
  endfacet
  facet normal -0.751844 -0.659341 0
    outer loop
      vertex -34.1142 -26.1767 42.5
      vertex -30.4056 -30.4056 -42.5
      vertex -30.4056 -30.4056 42.5
    endloop
  endfacet
  facet normal -0.659341 -0.751844 0
    outer loop
      vertex -30.4056 -30.4056 -42.5
      vertex -26.1767 -34.1142 42.5
      vertex -30.4056 -30.4056 42.5
    endloop
  endfacet
  facet normal -0.659341 -0.751844 -0
    outer loop
      vertex -26.1767 -34.1142 42.5
      vertex -30.4056 -30.4056 -42.5
      vertex -26.1767 -34.1142 -42.5
    endloop
  endfacet
  facet normal -0.555574 -0.831467 0
    outer loop
      vertex -26.1767 -34.1142 -42.5
      vertex -21.5 -37.2391 42.5
      vertex -26.1767 -34.1142 42.5
    endloop
  endfacet
  facet normal -0.555574 -0.831467 -0
    outer loop
      vertex -21.5 -37.2391 42.5
      vertex -26.1767 -34.1142 -42.5
      vertex -21.5 -37.2391 -42.5
    endloop
  endfacet
  facet normal -0.442286 -0.896874 0
    outer loop
      vertex -21.5 -37.2391 -42.5
      vertex -16.4554 -39.7268 42.5
      vertex -21.5 -37.2391 42.5
    endloop
  endfacet
  facet normal -0.442286 -0.896874 -0
    outer loop
      vertex -16.4554 -39.7268 42.5
      vertex -21.5 -37.2391 -42.5
      vertex -16.4554 -39.7268 -42.5
    endloop
  endfacet
  facet normal -0.321439 -0.94693 0
    outer loop
      vertex -16.4554 -39.7268 -42.5
      vertex -11.1292 -41.5348 42.5
      vertex -16.4554 -39.7268 42.5
    endloop
  endfacet
  facet normal -0.321439 -0.94693 -0
    outer loop
      vertex -11.1292 -41.5348 42.5
      vertex -16.4554 -39.7268 -42.5
      vertex -11.1292 -41.5348 -42.5
    endloop
  endfacet
  facet normal -0.195088 -0.980786 0
    outer loop
      vertex -11.1292 -41.5348 -42.5
      vertex -5.61263 -42.6321 42.5
      vertex -11.1292 -41.5348 42.5
    endloop
  endfacet
  facet normal -0.195088 -0.980786 -0
    outer loop
      vertex -5.61263 -42.6321 42.5
      vertex -11.1292 -41.5348 -42.5
      vertex -5.61263 -42.6321 -42.5
    endloop
  endfacet
  facet normal -0.0654082 -0.997859 0
    outer loop
      vertex -5.61263 -42.6321 -42.5
      vertex -0 -43 42.5
      vertex -5.61263 -42.6321 42.5
    endloop
  endfacet
  facet normal -0.0654082 -0.997859 -0
    outer loop
      vertex -0 -43 42.5
      vertex -5.61263 -42.6321 -42.5
      vertex -0 -43 -42.5
    endloop
  endfacet
  facet normal 0.0654082 -0.997859 0
    outer loop
      vertex -0 -43 -42.5
      vertex 5.61263 -42.6321 42.5
      vertex -0 -43 42.5
    endloop
  endfacet
  facet normal 0.0654082 -0.997859 0
    outer loop
      vertex 5.61263 -42.6321 42.5
      vertex -0 -43 -42.5
      vertex 5.61263 -42.6321 -42.5
    endloop
  endfacet
  facet normal 0.195088 -0.980786 0
    outer loop
      vertex 5.61263 -42.6321 -42.5
      vertex 11.1292 -41.5348 42.5
      vertex 5.61263 -42.6321 42.5
    endloop
  endfacet
  facet normal 0.195088 -0.980786 0
    outer loop
      vertex 11.1292 -41.5348 42.5
      vertex 5.61263 -42.6321 -42.5
      vertex 11.1292 -41.5348 -42.5
    endloop
  endfacet
  facet normal 0.321439 -0.94693 0
    outer loop
      vertex 11.1292 -41.5348 -42.5
      vertex 16.4554 -39.7268 42.5
      vertex 11.1292 -41.5348 42.5
    endloop
  endfacet
  facet normal 0.321439 -0.94693 0
    outer loop
      vertex 16.4554 -39.7268 42.5
      vertex 11.1292 -41.5348 -42.5
      vertex 16.4554 -39.7268 -42.5
    endloop
  endfacet
  facet normal 0.442286 -0.896874 0
    outer loop
      vertex 16.4554 -39.7268 -42.5
      vertex 21.5 -37.2391 42.5
      vertex 16.4554 -39.7268 42.5
    endloop
  endfacet
  facet normal 0.442286 -0.896874 0
    outer loop
      vertex 21.5 -37.2391 42.5
      vertex 16.4554 -39.7268 -42.5
      vertex 21.5 -37.2391 -42.5
    endloop
  endfacet
  facet normal 0.555574 -0.831467 0
    outer loop
      vertex 21.5 -37.2391 -42.5
      vertex 26.1767 -34.1142 42.5
      vertex 21.5 -37.2391 42.5
    endloop
  endfacet
  facet normal 0.555574 -0.831467 0
    outer loop
      vertex 26.1767 -34.1142 42.5
      vertex 21.5 -37.2391 -42.5
      vertex 26.1767 -34.1142 -42.5
    endloop
  endfacet
  facet normal 0.659341 -0.751844 0
    outer loop
      vertex 26.1767 -34.1142 -42.5
      vertex 30.4056 -30.4056 42.5
      vertex 26.1767 -34.1142 42.5
    endloop
  endfacet
  facet normal 0.659341 -0.751844 0
    outer loop
      vertex 30.4056 -30.4056 42.5
      vertex 26.1767 -34.1142 -42.5
      vertex 30.4056 -30.4056 -42.5
    endloop
  endfacet
  facet normal 0.751844 -0.659341 0
    outer loop
      vertex 30.4056 -30.4056 42.5
      vertex 34.1142 -26.1767 -42.5
      vertex 34.1142 -26.1767 42.5
    endloop
  endfacet
  facet normal 0.751844 -0.659341 0
    outer loop
      vertex 34.1142 -26.1767 -42.5
      vertex 30.4056 -30.4056 42.5
      vertex 30.4056 -30.4056 -42.5
    endloop
  endfacet
  facet normal 0.831467 -0.555574 0
    outer loop
      vertex 34.1142 -26.1767 42.5
      vertex 37.2391 -21.5 -42.5
      vertex 37.2391 -21.5 42.5
    endloop
  endfacet
  facet normal 0.831467 -0.555574 0
    outer loop
      vertex 37.2391 -21.5 -42.5
      vertex 34.1142 -26.1767 42.5
      vertex 34.1142 -26.1767 -42.5
    endloop
  endfacet
  facet normal 0.896874 -0.442286 0
    outer loop
      vertex 37.2391 -21.5 42.5
      vertex 39.7268 -16.4554 -42.5
      vertex 39.7268 -16.4554 42.5
    endloop
  endfacet
  facet normal 0.896874 -0.442286 0
    outer loop
      vertex 39.7268 -16.4554 -42.5
      vertex 37.2391 -21.5 42.5
      vertex 37.2391 -21.5 -42.5
    endloop
  endfacet
  facet normal 0.94693 -0.321439 0
    outer loop
      vertex 39.7268 -16.4554 42.5
      vertex 41.5348 -11.1292 -42.5
      vertex 41.5348 -11.1292 42.5
    endloop
  endfacet
  facet normal 0.94693 -0.321439 0
    outer loop
      vertex 41.5348 -11.1292 -42.5
      vertex 39.7268 -16.4554 42.5
      vertex 39.7268 -16.4554 -42.5
    endloop
  endfacet
  facet normal 0.980786 -0.195088 0
    outer loop
      vertex 41.5348 -11.1292 42.5
      vertex 42.6321 -5.61263 -42.5
      vertex 42.6321 -5.61263 42.5
    endloop
  endfacet
  facet normal 0.980786 -0.195088 0
    outer loop
      vertex 42.6321 -5.61263 -42.5
      vertex 41.5348 -11.1292 42.5
      vertex 41.5348 -11.1292 -42.5
    endloop
  endfacet
  facet normal 0.997859 -0.0654082 0
    outer loop
      vertex 42.6321 -5.61263 42.5
      vertex 43 0 -42.5
      vertex 43 0 42.5
    endloop
  endfacet
  facet normal 0.997859 -0.0654082 0
    outer loop
      vertex 43 0 -42.5
      vertex 42.6321 -5.61263 42.5
      vertex 42.6321 -5.61263 -42.5
    endloop
  endfacet
  facet normal 0 0 -1
    outer loop
      vertex 42.6321 -5.61263 -42.5
      vertex 42.6321 5.61263 -42.5
      vertex 43 0 -42.5
    endloop
  endfacet
  facet normal 0 0 -1
    outer loop
      vertex 41.5348 -11.1292 -42.5
      vertex 42.6321 5.61263 -42.5
      vertex 42.6321 -5.61263 -42.5
    endloop
  endfacet
  facet normal 0 0 -1
    outer loop
      vertex 41.5348 -11.1292 -42.5
      vertex 41.5348 11.1292 -42.5
      vertex 42.6321 5.61263 -42.5
    endloop
  endfacet
  facet normal 0 0 -1
    outer loop
      vertex 39.7268 -16.4554 -42.5
      vertex 41.5348 11.1292 -42.5
      vertex 41.5348 -11.1292 -42.5
    endloop
  endfacet
  facet normal 0 0 -1
    outer loop
      vertex 39.7268 -16.4554 -42.5
      vertex 39.7268 16.4554 -42.5
      vertex 41.5348 11.1292 -42.5
    endloop
  endfacet
  facet normal 0 0 -1
    outer loop
      vertex 37.2391 -21.5 -42.5
      vertex 39.7268 16.4554 -42.5
      vertex 39.7268 -16.4554 -42.5
    endloop
  endfacet
  facet normal 0 0 -1
    outer loop
      vertex 37.2391 -21.5 -42.5
      vertex 37.2391 21.5 -42.5
      vertex 39.7268 16.4554 -42.5
    endloop
  endfacet
  facet normal 0 0 -1
    outer loop
      vertex 34.1142 -26.1767 -42.5
      vertex 37.2391 21.5 -42.5
      vertex 37.2391 -21.5 -42.5
    endloop
  endfacet
  facet normal 0 0 -1
    outer loop
      vertex 34.1142 -26.1767 -42.5
      vertex 34.1142 26.1767 -42.5
      vertex 37.2391 21.5 -42.5
    endloop
  endfacet
  facet normal 0 0 -1
    outer loop
      vertex 30.4056 -30.4056 -42.5
      vertex 34.1142 26.1767 -42.5
      vertex 34.1142 -26.1767 -42.5
    endloop
  endfacet
  facet normal 0 0 -1
    outer loop
      vertex 30.4056 -30.4056 -42.5
      vertex 30.4056 30.4056 -42.5
      vertex 34.1142 26.1767 -42.5
    endloop
  endfacet
  facet normal 0 0 -1
    outer loop
      vertex 26.1767 -34.1142 -42.5
      vertex 30.4056 30.4056 -42.5
      vertex 30.4056 -30.4056 -42.5
    endloop
  endfacet
  facet normal 0 0 -1
    outer loop
      vertex 26.1767 -34.1142 -42.5
      vertex 26.1767 34.1142 -42.5
      vertex 30.4056 30.4056 -42.5
    endloop
  endfacet
  facet normal 0 0 -1
    outer loop
      vertex 21.5 -37.2391 -42.5
      vertex 26.1767 34.1142 -42.5
      vertex 26.1767 -34.1142 -42.5
    endloop
  endfacet
  facet normal 0 0 -1
    outer loop
      vertex 21.5 -37.2391 -42.5
      vertex 21.5 37.2391 -42.5
      vertex 26.1767 34.1142 -42.5
    endloop
  endfacet
  facet normal 0 0 -1
    outer loop
      vertex 16.4554 -39.7268 -42.5
      vertex 21.5 37.2391 -42.5
      vertex 21.5 -37.2391 -42.5
    endloop
  endfacet
  facet normal 0 0 -1
    outer loop
      vertex 16.4554 -39.7268 -42.5
      vertex 16.4554 39.7268 -42.5
      vertex 21.5 37.2391 -42.5
    endloop
  endfacet
  facet normal 0 0 -1
    outer loop
      vertex 11.1292 -41.5348 -42.5
      vertex 16.4554 39.7268 -42.5
      vertex 16.4554 -39.7268 -42.5
    endloop
  endfacet
  facet normal 0 0 -1
    outer loop
      vertex 11.1292 -41.5348 -42.5
      vertex 11.1292 41.5348 -42.5
      vertex 16.4554 39.7268 -42.5
    endloop
  endfacet
  facet normal 0 0 -1
    outer loop
      vertex 5.61263 -42.6321 -42.5
      vertex 11.1292 41.5348 -42.5
      vertex 11.1292 -41.5348 -42.5
    endloop
  endfacet
  facet normal 0 0 -1
    outer loop
      vertex 5.61263 -42.6321 -42.5
      vertex 5.61263 42.6321 -42.5
      vertex 11.1292 41.5348 -42.5
    endloop
  endfacet
  facet normal 0 0 -1
    outer loop
      vertex -0 -43 -42.5
      vertex 5.61263 42.6321 -42.5
      vertex 5.61263 -42.6321 -42.5
    endloop
  endfacet
  facet normal 0 0 -1
    outer loop
      vertex -0 -43 -42.5
      vertex 0 43 -42.5
      vertex 5.61263 42.6321 -42.5
    endloop
  endfacet
  facet normal 0 0 -1
    outer loop
      vertex -5.61263 -42.6321 -42.5
      vertex 0 43 -42.5
      vertex -0 -43 -42.5
    endloop
  endfacet
  facet normal 0 0 -1
    outer loop
      vertex -5.61263 -42.6321 -42.5
      vertex -5.61263 42.6321 -42.5
      vertex 0 43 -42.5
    endloop
  endfacet
  facet normal 0 0 -1
    outer loop
      vertex -11.1292 -41.5348 -42.5
      vertex -5.61263 42.6321 -42.5
      vertex -5.61263 -42.6321 -42.5
    endloop
  endfacet
  facet normal 0 0 -1
    outer loop
      vertex -11.1292 -41.5348 -42.5
      vertex -11.1292 41.5348 -42.5
      vertex -5.61263 42.6321 -42.5
    endloop
  endfacet
  facet normal 0 0 -1
    outer loop
      vertex -16.4554 -39.7268 -42.5
      vertex -11.1292 41.5348 -42.5
      vertex -11.1292 -41.5348 -42.5
    endloop
  endfacet
  facet normal 0 0 -1
    outer loop
      vertex -16.4554 -39.7268 -42.5
      vertex -16.4554 39.7268 -42.5
      vertex -11.1292 41.5348 -42.5
    endloop
  endfacet
  facet normal 0 0 -1
    outer loop
      vertex -21.5 -37.2391 -42.5
      vertex -16.4554 39.7268 -42.5
      vertex -16.4554 -39.7268 -42.5
    endloop
  endfacet
  facet normal 0 0 -1
    outer loop
      vertex -21.5 -37.2391 -42.5
      vertex -21.5 37.2391 -42.5
      vertex -16.4554 39.7268 -42.5
    endloop
  endfacet
  facet normal 0 0 -1
    outer loop
      vertex -26.1767 -34.1142 -42.5
      vertex -21.5 37.2391 -42.5
      vertex -21.5 -37.2391 -42.5
    endloop
  endfacet
  facet normal 0 0 -1
    outer loop
      vertex -26.1767 -34.1142 -42.5
      vertex -26.1767 34.1142 -42.5
      vertex -21.5 37.2391 -42.5
    endloop
  endfacet
  facet normal 0 0 -1
    outer loop
      vertex -30.4056 -30.4056 -42.5
      vertex -26.1767 34.1142 -42.5
      vertex -26.1767 -34.1142 -42.5
    endloop
  endfacet
  facet normal 0 0 -1
    outer loop
      vertex -30.4056 -30.4056 -42.5
      vertex -30.4056 30.4056 -42.5
      vertex -26.1767 34.1142 -42.5
    endloop
  endfacet
  facet normal 0 0 -1
    outer loop
      vertex -34.1142 -26.1767 -42.5
      vertex -30.4056 30.4056 -42.5
      vertex -30.4056 -30.4056 -42.5
    endloop
  endfacet
  facet normal 0 0 -1
    outer loop
      vertex -34.1142 -26.1767 -42.5
      vertex -34.1142 26.1767 -42.5
      vertex -30.4056 30.4056 -42.5
    endloop
  endfacet
  facet normal 0 0 -1
    outer loop
      vertex -37.2391 -21.5 -42.5
      vertex -34.1142 26.1767 -42.5
      vertex -34.1142 -26.1767 -42.5
    endloop
  endfacet
  facet normal 0 0 -1
    outer loop
      vertex -37.2391 -21.5 -42.5
      vertex -37.2391 21.5 -42.5
      vertex -34.1142 26.1767 -42.5
    endloop
  endfacet
  facet normal 0 0 -1
    outer loop
      vertex -39.7268 -16.4554 -42.5
      vertex -37.2391 21.5 -42.5
      vertex -37.2391 -21.5 -42.5
    endloop
  endfacet
  facet normal 0 0 -1
    outer loop
      vertex -39.7268 -16.4554 -42.5
      vertex -39.7268 16.4554 -42.5
      vertex -37.2391 21.5 -42.5
    endloop
  endfacet
  facet normal 0 0 -1
    outer loop
      vertex -41.5348 -11.1292 -42.5
      vertex -39.7268 16.4554 -42.5
      vertex -39.7268 -16.4554 -42.5
    endloop
  endfacet
  facet normal 0 0 -1
    outer loop
      vertex -41.5348 -11.1292 -42.5
      vertex -41.5348 11.1292 -42.5
      vertex -39.7268 16.4554 -42.5
    endloop
  endfacet
  facet normal 0 0 -1
    outer loop
      vertex -42.6321 -5.61263 -42.5
      vertex -41.5348 11.1292 -42.5
      vertex -41.5348 -11.1292 -42.5
    endloop
  endfacet
  facet normal 0 0 -1
    outer loop
      vertex -42.6321 -5.61263 -42.5
      vertex -42.6321 5.61263 -42.5
      vertex -41.5348 11.1292 -42.5
    endloop
  endfacet
  facet normal 0 -0 -1
    outer loop
      vertex -42.6321 5.61263 -42.5
      vertex -42.6321 -5.61263 -42.5
      vertex -43 -0 -42.5
    endloop
  endfacet
  facet normal 0 0 1
    outer loop
      vertex 42.6321 5.61263 42.5
      vertex 42.6321 -5.61263 42.5
      vertex 43 0 42.5
    endloop
  endfacet
  facet normal 0 0 1
    outer loop
      vertex 41.5348 11.1292 42.5
      vertex 42.6321 -5.61263 42.5
      vertex 42.6321 5.61263 42.5
    endloop
  endfacet
  facet normal 0 0 1
    outer loop
      vertex 41.5348 11.1292 42.5
      vertex 41.5348 -11.1292 42.5
      vertex 42.6321 -5.61263 42.5
    endloop
  endfacet
  facet normal 0 0 1
    outer loop
      vertex 39.7268 16.4554 42.5
      vertex 41.5348 -11.1292 42.5
      vertex 41.5348 11.1292 42.5
    endloop
  endfacet
  facet normal 0 0 1
    outer loop
      vertex 39.7268 16.4554 42.5
      vertex 39.7268 -16.4554 42.5
      vertex 41.5348 -11.1292 42.5
    endloop
  endfacet
  facet normal 0 0 1
    outer loop
      vertex 37.2391 21.5 42.5
      vertex 39.7268 -16.4554 42.5
      vertex 39.7268 16.4554 42.5
    endloop
  endfacet
  facet normal 0 0 1
    outer loop
      vertex 37.2391 21.5 42.5
      vertex 37.2391 -21.5 42.5
      vertex 39.7268 -16.4554 42.5
    endloop
  endfacet
  facet normal 0 0 1
    outer loop
      vertex 34.1142 26.1767 42.5
      vertex 37.2391 -21.5 42.5
      vertex 37.2391 21.5 42.5
    endloop
  endfacet
  facet normal 0 0 1
    outer loop
      vertex 34.1142 26.1767 42.5
      vertex 34.1142 -26.1767 42.5
      vertex 37.2391 -21.5 42.5
    endloop
  endfacet
  facet normal 0 0 1
    outer loop
      vertex 30.4056 30.4056 42.5
      vertex 34.1142 -26.1767 42.5
      vertex 34.1142 26.1767 42.5
    endloop
  endfacet
  facet normal 0 0 1
    outer loop
      vertex 30.4056 30.4056 42.5
      vertex 30.4056 -30.4056 42.5
      vertex 34.1142 -26.1767 42.5
    endloop
  endfacet
  facet normal 0 0 1
    outer loop
      vertex 26.1767 34.1142 42.5
      vertex 30.4056 -30.4056 42.5
      vertex 30.4056 30.4056 42.5
    endloop
  endfacet
  facet normal 0 0 1
    outer loop
      vertex 26.1767 34.1142 42.5
      vertex 26.1767 -34.1142 42.5
      vertex 30.4056 -30.4056 42.5
    endloop
  endfacet
  facet normal 0 0 1
    outer loop
      vertex 21.5 37.2391 42.5
      vertex 26.1767 -34.1142 42.5
      vertex 26.1767 34.1142 42.5
    endloop
  endfacet
  facet normal 0 0 1
    outer loop
      vertex 21.5 37.2391 42.5
      vertex 21.5 -37.2391 42.5
      vertex 26.1767 -34.1142 42.5
    endloop
  endfacet
  facet normal 0 0 1
    outer loop
      vertex 16.4554 39.7268 42.5
      vertex 21.5 -37.2391 42.5
      vertex 21.5 37.2391 42.5
    endloop
  endfacet
  facet normal 0 0 1
    outer loop
      vertex 16.4554 39.7268 42.5
      vertex 16.4554 -39.7268 42.5
      vertex 21.5 -37.2391 42.5
    endloop
  endfacet
  facet normal 0 0 1
    outer loop
      vertex 11.1292 41.5348 42.5
      vertex 16.4554 -39.7268 42.5
      vertex 16.4554 39.7268 42.5
    endloop
  endfacet
  facet normal 0 0 1
    outer loop
      vertex 11.1292 41.5348 42.5
      vertex 11.1292 -41.5348 42.5
      vertex 16.4554 -39.7268 42.5
    endloop
  endfacet
  facet normal 0 0 1
    outer loop
      vertex 5.61263 42.6321 42.5
      vertex 11.1292 -41.5348 42.5
      vertex 11.1292 41.5348 42.5
    endloop
  endfacet
  facet normal 0 0 1
    outer loop
      vertex 5.61263 42.6321 42.5
      vertex 5.61263 -42.6321 42.5
      vertex 11.1292 -41.5348 42.5
    endloop
  endfacet
  facet normal 0 0 1
    outer loop
      vertex 0 43 42.5
      vertex 5.61263 -42.6321 42.5
      vertex 5.61263 42.6321 42.5
    endloop
  endfacet
  facet normal 0 0 1
    outer loop
      vertex 0 43 42.5
      vertex -0 -43 42.5
      vertex 5.61263 -42.6321 42.5
    endloop
  endfacet
  facet normal -0 0 1
    outer loop
      vertex -5.61263 42.6321 42.5
      vertex -0 -43 42.5
      vertex 0 43 42.5
    endloop
  endfacet
  facet normal 0 0 1
    outer loop
      vertex -5.61263 42.6321 42.5
      vertex -5.61263 -42.6321 42.5
      vertex -0 -43 42.5
    endloop
  endfacet
  facet normal -0 0 1
    outer loop
      vertex -11.1292 41.5348 42.5
      vertex -5.61263 -42.6321 42.5
      vertex -5.61263 42.6321 42.5
    endloop
  endfacet
  facet normal 0 0 1
    outer loop
      vertex -11.1292 41.5348 42.5
      vertex -11.1292 -41.5348 42.5
      vertex -5.61263 -42.6321 42.5
    endloop
  endfacet
  facet normal -0 0 1
    outer loop
      vertex -16.4554 39.7268 42.5
      vertex -11.1292 -41.5348 42.5
      vertex -11.1292 41.5348 42.5
    endloop
  endfacet
  facet normal 0 0 1
    outer loop
      vertex -16.4554 39.7268 42.5
      vertex -16.4554 -39.7268 42.5
      vertex -11.1292 -41.5348 42.5
    endloop
  endfacet
  facet normal -0 0 1
    outer loop
      vertex -21.5 37.2391 42.5
      vertex -16.4554 -39.7268 42.5
      vertex -16.4554 39.7268 42.5
    endloop
  endfacet
  facet normal 0 0 1
    outer loop
      vertex -21.5 37.2391 42.5
      vertex -21.5 -37.2391 42.5
      vertex -16.4554 -39.7268 42.5
    endloop
  endfacet
  facet normal -0 0 1
    outer loop
      vertex -26.1767 34.1142 42.5
      vertex -21.5 -37.2391 42.5
      vertex -21.5 37.2391 42.5
    endloop
  endfacet
  facet normal 0 0 1
    outer loop
      vertex -26.1767 34.1142 42.5
      vertex -26.1767 -34.1142 42.5
      vertex -21.5 -37.2391 42.5
    endloop
  endfacet
  facet normal -0 0 1
    outer loop
      vertex -30.4056 30.4056 42.5
      vertex -26.1767 -34.1142 42.5
      vertex -26.1767 34.1142 42.5
    endloop
  endfacet
  facet normal 0 0 1
    outer loop
      vertex -30.4056 30.4056 42.5
      vertex -30.4056 -30.4056 42.5
      vertex -26.1767 -34.1142 42.5
    endloop
  endfacet
  facet normal -0 0 1
    outer loop
      vertex -34.1142 26.1767 42.5
      vertex -30.4056 -30.4056 42.5
      vertex -30.4056 30.4056 42.5
    endloop
  endfacet
  facet normal 0 0 1
    outer loop
      vertex -34.1142 26.1767 42.5
      vertex -34.1142 -26.1767 42.5
      vertex -30.4056 -30.4056 42.5
    endloop
  endfacet
  facet normal -0 0 1
    outer loop
      vertex -37.2391 21.5 42.5
      vertex -34.1142 -26.1767 42.5
      vertex -34.1142 26.1767 42.5
    endloop
  endfacet
  facet normal 0 0 1
    outer loop
      vertex -37.2391 21.5 42.5
      vertex -37.2391 -21.5 42.5
      vertex -34.1142 -26.1767 42.5
    endloop
  endfacet
  facet normal -0 0 1
    outer loop
      vertex -39.7268 16.4554 42.5
      vertex -37.2391 -21.5 42.5
      vertex -37.2391 21.5 42.5
    endloop
  endfacet
  facet normal 0 0 1
    outer loop
      vertex -39.7268 16.4554 42.5
      vertex -39.7268 -16.4554 42.5
      vertex -37.2391 -21.5 42.5
    endloop
  endfacet
  facet normal -0 0 1
    outer loop
      vertex -41.5348 11.1292 42.5
      vertex -39.7268 -16.4554 42.5
      vertex -39.7268 16.4554 42.5
    endloop
  endfacet
  facet normal 0 0 1
    outer loop
      vertex -41.5348 11.1292 42.5
      vertex -41.5348 -11.1292 42.5
      vertex -39.7268 -16.4554 42.5
    endloop
  endfacet
  facet normal -0 0 1
    outer loop
      vertex -42.6321 5.61263 42.5
      vertex -41.5348 -11.1292 42.5
      vertex -41.5348 11.1292 42.5
    endloop
  endfacet
  facet normal 0 0 1
    outer loop
      vertex -42.6321 5.61263 42.5
      vertex -42.6321 -5.61263 42.5
      vertex -41.5348 -11.1292 42.5
    endloop
  endfacet
  facet normal 0 -0 1
    outer loop
      vertex -42.6321 -5.61263 42.5
      vertex -42.6321 5.61263 42.5
      vertex -43 -0 42.5
    endloop
  endfacet
endsolid OpenSCAD_Model
