solid OpenSCAD_Model
  facet normal 1 -0 0
    outer loop
      vertex 55 -35 1
      vertex 55 35 -1
      vertex 55 35 1
    endloop
  endfacet
  facet normal 1 0 0
    outer loop
      vertex 55 35 -1
      vertex 55 -35 1
      vertex 55 -35 -1
    endloop
  endfacet
  facet normal -0 0 1
    outer loop
      vertex -47 17 1
      vertex -31 -17 1
      vertex -31 17 1
    endloop
  endfacet
  facet normal 0 0 1
    outer loop
      vertex -31 -17 1
      vertex -47 17 1
      vertex -47 -17 1
    endloop
  endfacet
  facet normal -0 0 1
    outer loop
      vertex 31 17 1
      vertex 47 -17 1
      vertex 47 17 1
    endloop
  endfacet
  facet normal 0 0 1
    outer loop
      vertex 47 -17 1
      vertex 31 17 1
      vertex 31 -17 1
    endloop
  endfacet
  facet normal 0 0 1
    outer loop
      vertex 47 17 1
      vertex 55 35 1
      vertex 47 21 1
    endloop
  endfacet
  facet normal 0 0 1
    outer loop
      vertex 55 35 1
      vertex 31 21 1
      vertex 47 21 1
    endloop
  endfacet
  facet normal 0 0 1
    outer loop
      vertex -31 17 1
      vertex 31 17 1
      vertex 31 21 1
    endloop
  endfacet
  facet normal 0 0 1
    outer loop
      vertex 31 17 1
      vertex -31 17 1
      vertex 31 -17 1
    endloop
  endfacet
  facet normal 0 0 1
    outer loop
      vertex -31 17 1
      vertex 31 21 1
      vertex -31 21 1
    endloop
  endfacet
  facet normal 0 0 1
    outer loop
      vertex 55 35 1
      vertex -31 21 1
      vertex 31 21 1
    endloop
  endfacet
  facet normal -0 0 1
    outer loop
      vertex -55 35 1
      vertex -31 21 1
      vertex 55 35 1
    endloop
  endfacet
  facet normal 0 0 1
    outer loop
      vertex -55 35 1
      vertex -47 17 1
      vertex -47 21 1
    endloop
  endfacet
  facet normal 0 0 1
    outer loop
      vertex -47 17 1
      vertex -55 35 1
      vertex -47 -17 1
    endloop
  endfacet
  facet normal 0 0 1
    outer loop
      vertex -55 -35 1
      vertex -47 -17 1
      vertex -55 35 1
    endloop
  endfacet
  facet normal 0 0 1
    outer loop
      vertex -31 21 1
      vertex -55 35 1
      vertex -47 21 1
    endloop
  endfacet
  facet normal 0 0 1
    outer loop
      vertex 55 35 1
      vertex 47 17 1
      vertex 55 -35 1
    endloop
  endfacet
  facet normal -0 0 1
    outer loop
      vertex 47 -17 1
      vertex 55 -35 1
      vertex 47 17 1
    endloop
  endfacet
  facet normal -0 0 1
    outer loop
      vertex 47 -21 1
      vertex 55 -35 1
      vertex 47 -17 1
    endloop
  endfacet
  facet normal -0 0 1
    outer loop
      vertex 31 -21 1
      vertex 55 -35 1
      vertex 47 -21 1
    endloop
  endfacet
  facet normal 0 0 1
    outer loop
      vertex -31 -17 1
      vertex 31 -17 1
      vertex -31 17 1
    endloop
  endfacet
  facet normal 0 0 1
    outer loop
      vertex 31 -17 1
      vertex -31 -17 1
      vertex 31 -21 1
    endloop
  endfacet
  facet normal 0 0 1
    outer loop
      vertex -31 -21 1
      vertex 31 -21 1
      vertex -31 -17 1
    endloop
  endfacet
  facet normal 0 0 1
    outer loop
      vertex 31 -21 1
      vertex -31 -21 1
      vertex 55 -35 1
    endloop
  endfacet
  facet normal 0 0 1
    outer loop
      vertex -55 -35 1
      vertex -31 -21 1
      vertex -47 -21 1
    endloop
  endfacet
  facet normal 0 0 1
    outer loop
      vertex -31 -21 1
      vertex -55 -35 1
      vertex 55 -35 1
    endloop
  endfacet
  facet normal 0 0 1
    outer loop
      vertex -47 -17 1
      vertex -55 -35 1
      vertex -47 -21 1
    endloop
  endfacet
  facet normal 0 0 -1
    outer loop
      vertex -47 -17 -1
      vertex -31 17 -1
      vertex -31 -17 -1
    endloop
  endfacet
  facet normal -0 0 -1
    outer loop
      vertex -31 17 -1
      vertex -47 -17 -1
      vertex -47 17 -1
    endloop
  endfacet
  facet normal 0 0 -1
    outer loop
      vertex 31 -17 -1
      vertex 47 17 -1
      vertex 47 -17 -1
    endloop
  endfacet
  facet normal -0 0 -1
    outer loop
      vertex 47 17 -1
      vertex 31 -17 -1
      vertex 31 17 -1
    endloop
  endfacet
  facet normal 0 0 -1
    outer loop
      vertex 47 -17 -1
      vertex 55 -35 -1
      vertex 47 -21 -1
    endloop
  endfacet
  facet normal 0 0 -1
    outer loop
      vertex 55 -35 -1
      vertex 31 -21 -1
      vertex 47 -21 -1
    endloop
  endfacet
  facet normal 0 0 -1
    outer loop
      vertex -31 -17 -1
      vertex 31 -17 -1
      vertex 31 -21 -1
    endloop
  endfacet
  facet normal 0 0 -1
    outer loop
      vertex 31 -17 -1
      vertex -31 -17 -1
      vertex 31 17 -1
    endloop
  endfacet
  facet normal 0 0 -1
    outer loop
      vertex -31 -17 -1
      vertex 31 -21 -1
      vertex -31 -21 -1
    endloop
  endfacet
  facet normal 0 0 -1
    outer loop
      vertex 55 -35 -1
      vertex -31 -21 -1
      vertex 31 -21 -1
    endloop
  endfacet
  facet normal 0 0 -1
    outer loop
      vertex -55 -35 -1
      vertex -31 -21 -1
      vertex 55 -35 -1
    endloop
  endfacet
  facet normal 0 0 -1
    outer loop
      vertex -55 -35 -1
      vertex -47 -17 -1
      vertex -47 -21 -1
    endloop
  endfacet
  facet normal -0 0 -1
    outer loop
      vertex -47 -17 -1
      vertex -55 -35 -1
      vertex -47 17 -1
    endloop
  endfacet
  facet normal 0 0 -1
    outer loop
      vertex -55 35 -1
      vertex -47 17 -1
      vertex -55 -35 -1
    endloop
  endfacet
  facet normal -0 0 -1
    outer loop
      vertex -31 -21 -1
      vertex -55 -35 -1
      vertex -47 -21 -1
    endloop
  endfacet
  facet normal 0 0 -1
    outer loop
      vertex 55 -35 -1
      vertex 47 -17 -1
      vertex 55 35 -1
    endloop
  endfacet
  facet normal 0 0 -1
    outer loop
      vertex 47 17 -1
      vertex 55 35 -1
      vertex 47 -17 -1
    endloop
  endfacet
  facet normal 0 0 -1
    outer loop
      vertex 47 21 -1
      vertex 55 35 -1
      vertex 47 17 -1
    endloop
  endfacet
  facet normal 0 0 -1
    outer loop
      vertex 31 21 -1
      vertex 55 35 -1
      vertex 47 21 -1
    endloop
  endfacet
  facet normal 0 0 -1
    outer loop
      vertex -31 17 -1
      vertex 31 17 -1
      vertex -31 -17 -1
    endloop
  endfacet
  facet normal 0 0 -1
    outer loop
      vertex 31 17 -1
      vertex -31 17 -1
      vertex 31 21 -1
    endloop
  endfacet
  facet normal 0 0 -1
    outer loop
      vertex -31 21 -1
      vertex 31 21 -1
      vertex -31 17 -1
    endloop
  endfacet
  facet normal 0 0 -1
    outer loop
      vertex 31 21 -1
      vertex -31 21 -1
      vertex 55 35 -1
    endloop
  endfacet
  facet normal 0 0 -1
    outer loop
      vertex -55 35 -1
      vertex -31 21 -1
      vertex -47 21 -1
    endloop
  endfacet
  facet normal 0 0 -1
    outer loop
      vertex -31 21 -1
      vertex -55 35 -1
      vertex 55 35 -1
    endloop
  endfacet
  facet normal 0 0 -1
    outer loop
      vertex -47 17 -1
      vertex -55 35 -1
      vertex -47 21 -1
    endloop
  endfacet
  facet normal -1 0 0
    outer loop
      vertex -55 -35 -1
      vertex -55 35 1
      vertex -55 35 -1
    endloop
  endfacet
  facet normal -1 -0 0
    outer loop
      vertex -55 35 1
      vertex -55 -35 -1
      vertex -55 -35 1
    endloop
  endfacet
  facet normal 0 1 -0
    outer loop
      vertex 55 35 -1
      vertex -55 35 1
      vertex 55 35 1
    endloop
  endfacet
  facet normal 0 1 0
    outer loop
      vertex -55 35 1
      vertex 55 35 -1
      vertex -55 35 -1
    endloop
  endfacet
  facet normal 0 -1 0
    outer loop
      vertex -55 -35 -1
      vertex 55 -35 1
      vertex -55 -35 1
    endloop
  endfacet
  facet normal 0 -1 -0
    outer loop
      vertex 55 -35 1
      vertex -55 -35 -1
      vertex 55 -35 -1
    endloop
  endfacet
  facet normal -1 0 0
    outer loop
      vertex -31 -21 -1
      vertex -31 -17 1
      vertex -31 -17 -1
    endloop
  endfacet
  facet normal -1 -0 0
    outer loop
      vertex -31 -17 1
      vertex -31 -21 -1
      vertex -31 -21 1
    endloop
  endfacet
  facet normal 1 -0 0
    outer loop
      vertex -47 -21 1
      vertex -47 -17 -1
      vertex -47 -17 1
    endloop
  endfacet
  facet normal 1 0 0
    outer loop
      vertex -47 -17 -1
      vertex -47 -21 1
      vertex -47 -21 -1
    endloop
  endfacet
  facet normal 0 -1 0
    outer loop
      vertex -47 -17 -1
      vertex -31 -17 1
      vertex -47 -17 1
    endloop
  endfacet
  facet normal 0 -1 -0
    outer loop
      vertex -31 -17 1
      vertex -47 -17 -1
      vertex -31 -17 -1
    endloop
  endfacet
  facet normal 0 1 -0
    outer loop
      vertex -31 -21 -1
      vertex -47 -21 1
      vertex -31 -21 1
    endloop
  endfacet
  facet normal 0 1 0
    outer loop
      vertex -47 -21 1
      vertex -31 -21 -1
      vertex -47 -21 -1
    endloop
  endfacet
  facet normal -1 0 0
    outer loop
      vertex -31 17 -1
      vertex -31 21 1
      vertex -31 21 -1
    endloop
  endfacet
  facet normal -1 -0 0
    outer loop
      vertex -31 21 1
      vertex -31 17 -1
      vertex -31 17 1
    endloop
  endfacet
  facet normal 1 -0 0
    outer loop
      vertex -47 17 1
      vertex -47 21 -1
      vertex -47 21 1
    endloop
  endfacet
  facet normal 1 0 0
    outer loop
      vertex -47 21 -1
      vertex -47 17 1
      vertex -47 17 -1
    endloop
  endfacet
  facet normal 0 -1 0
    outer loop
      vertex -47 21 -1
      vertex -31 21 1
      vertex -47 21 1
    endloop
  endfacet
  facet normal 0 -1 -0
    outer loop
      vertex -31 21 1
      vertex -47 21 -1
      vertex -31 21 -1
    endloop
  endfacet
  facet normal 0 1 -0
    outer loop
      vertex -31 17 -1
      vertex -47 17 1
      vertex -31 17 1
    endloop
  endfacet
  facet normal 0 1 0
    outer loop
      vertex -47 17 1
      vertex -31 17 -1
      vertex -47 17 -1
    endloop
  endfacet
  facet normal -1 0 0
    outer loop
      vertex 47 -21 -1
      vertex 47 -17 1
      vertex 47 -17 -1
    endloop
  endfacet
  facet normal -1 -0 0
    outer loop
      vertex 47 -17 1
      vertex 47 -21 -1
      vertex 47 -21 1
    endloop
  endfacet
  facet normal 1 -0 0
    outer loop
      vertex 31 -21 1
      vertex 31 -17 -1
      vertex 31 -17 1
    endloop
  endfacet
  facet normal 1 0 0
    outer loop
      vertex 31 -17 -1
      vertex 31 -21 1
      vertex 31 -21 -1
    endloop
  endfacet
  facet normal 0 -1 0
    outer loop
      vertex 31 -17 -1
      vertex 47 -17 1
      vertex 31 -17 1
    endloop
  endfacet
  facet normal 0 -1 -0
    outer loop
      vertex 47 -17 1
      vertex 31 -17 -1
      vertex 47 -17 -1
    endloop
  endfacet
  facet normal 0 1 -0
    outer loop
      vertex 47 -21 -1
      vertex 31 -21 1
      vertex 47 -21 1
    endloop
  endfacet
  facet normal 0 1 0
    outer loop
      vertex 31 -21 1
      vertex 47 -21 -1
      vertex 31 -21 -1
    endloop
  endfacet
  facet normal -1 0 0
    outer loop
      vertex 47 17 -1
      vertex 47 21 1
      vertex 47 21 -1
    endloop
  endfacet
  facet normal -1 -0 0
    outer loop
      vertex 47 21 1
      vertex 47 17 -1
      vertex 47 17 1
    endloop
  endfacet
  facet normal 1 -0 0
    outer loop
      vertex 31 17 1
      vertex 31 21 -1
      vertex 31 21 1
    endloop
  endfacet
  facet normal 1 0 0
    outer loop
      vertex 31 21 -1
      vertex 31 17 1
      vertex 31 17 -1
    endloop
  endfacet
  facet normal 0 -1 0
    outer loop
      vertex 31 21 -1
      vertex 47 21 1
      vertex 31 21 1
    endloop
  endfacet
  facet normal 0 -1 -0
    outer loop
      vertex 47 21 1
      vertex 31 21 -1
      vertex 47 21 -1
    endloop
  endfacet
  facet normal 0 1 -0
    outer loop
      vertex 47 17 -1
      vertex 31 17 1
      vertex 47 17 1
    endloop
  endfacet
  facet normal 0 1 0
    outer loop
      vertex 31 17 1
      vertex 47 17 -1
      vertex 31 17 -1
    endloop
  endfacet
endsolid OpenSCAD_Model
