solid OpenSCAD_Model
  facet normal -0 0 1
    outer loop
      vertex -62.5 52.5 20
      vertex 62.5 -52.5 20
      vertex 62.5 52.5 20
    endloop
  endfacet
  facet normal 0 0 1
    outer loop
      vertex 62.5 -52.5 20
      vertex -62.5 52.5 20
      vertex -62.5 -52.5 20
    endloop
  endfacet
  facet normal 0 0 -1
    outer loop
      vertex -62.5 -52.5 -20
      vertex 62.5 52.5 -20
      vertex 62.5 -52.5 -20
    endloop
  endfacet
  facet normal -0 0 -1
    outer loop
      vertex 62.5 52.5 -20
      vertex -62.5 -52.5 -20
      vertex -62.5 52.5 -20
    endloop
  endfacet
  facet normal 0 -1 0
    outer loop
      vertex -62.5 -52.5 -20
      vertex 62.5 -52.5 20
      vertex -62.5 -52.5 20
    endloop
  endfacet
  facet normal 0 -1 -0
    outer loop
      vertex 62.5 -52.5 20
      vertex -62.5 -52.5 -20
      vertex 62.5 -52.5 -20
    endloop
  endfacet
  facet normal 1 -0 0
    outer loop
      vertex 62.5 -52.5 20
      vertex 62.5 52.5 -20
      vertex 62.5 52.5 20
    endloop
  endfacet
  facet normal 1 0 0
    outer loop
      vertex 62.5 52.5 -20
      vertex 62.5 -52.5 20
      vertex 62.5 -52.5 -20
    endloop
  endfacet
  facet normal 0 1 -0
    outer loop
      vertex 62.5 52.5 -20
      vertex -62.5 52.5 20
      vertex 62.5 52.5 20
    endloop
  endfacet
  facet normal 0 1 0
    outer loop
      vertex -62.5 52.5 20
      vertex 62.5 52.5 -20
      vertex -62.5 52.5 -20
    endloop
  endfacet
  facet normal -1 0 0
    outer loop
      vertex -62.5 -52.5 -20
      vertex -62.5 52.5 20
      vertex -62.5 52.5 -20
    endloop
  endfacet
  facet normal -1 -0 0
    outer loop
      vertex -62.5 52.5 20
      vertex -62.5 -52.5 -20
      vertex -62.5 -52.5 20
    endloop
  endfacet
endsolid OpenSCAD_Model
