solid OpenSCAD_Model
  facet normal 1 -0 0
    outer loop
      vertex 35 -70 50
      vertex 35 70 -50
      vertex 35 70 50
    endloop
  endfacet
  facet normal 1 0 0
    outer loop
      vertex 35 70 -50
      vertex 35 -70 50
      vertex 35 -70 -50
    endloop
  endfacet
  facet normal 0 0 1
    outer loop
      vertex 35 70 50
      vertex 32 67 50
      vertex 35 -70 50
    endloop
  endfacet
  facet normal 0 0 1
    outer loop
      vertex 35 70 50
      vertex -32 67 50
      vertex 32 67 50
    endloop
  endfacet
  facet normal 0 0 1
    outer loop
      vertex -32 67 50
      vertex -35 70 50
      vertex -32 -67 50
    endloop
  endfacet
  facet normal -0 0 1
    outer loop
      vertex -35 70 50
      vertex -32 67 50
      vertex 35 70 50
    endloop
  endfacet
  facet normal -0 0 1
    outer loop
      vertex 32 -67 50
      vertex 35 -70 50
      vertex 32 67 50
    endloop
  endfacet
  facet normal -0 0 1
    outer loop
      vertex -32 -67 50
      vertex 35 -70 50
      vertex 32 -67 50
    endloop
  endfacet
  facet normal 0 0 1
    outer loop
      vertex -32 -67 50
      vertex -35 -70 50
      vertex 35 -70 50
    endloop
  endfacet
  facet normal 0 0 1
    outer loop
      vertex -35 -70 50
      vertex -32 -67 50
      vertex -35 70 50
    endloop
  endfacet
  facet normal 0 0 -1
    outer loop
      vertex -35 -70 -50
      vertex 35 70 -50
      vertex 35 -70 -50
    endloop
  endfacet
  facet normal -0 0 -1
    outer loop
      vertex 35 70 -50
      vertex -35 -70 -50
      vertex -35 70 -50
    endloop
  endfacet
  facet normal -1 0 0
    outer loop
      vertex -35 -70 -50
      vertex -35 70 50
      vertex -35 70 -50
    endloop
  endfacet
  facet normal -1 -0 0
    outer loop
      vertex -35 70 50
      vertex -35 -70 -50
      vertex -35 -70 50
    endloop
  endfacet
  facet normal 0 1 -0
    outer loop
      vertex 35 70 -50
      vertex -35 70 50
      vertex 35 70 50
    endloop
  endfacet
  facet normal 0 1 0
    outer loop
      vertex -35 70 50
      vertex 35 70 -50
      vertex -35 70 -50
    endloop
  endfacet
  facet normal 0 -1 0
    outer loop
      vertex -35 -70 -50
      vertex 35 -70 50
      vertex -35 -70 50
    endloop
  endfacet
  facet normal 0 -1 -0
    outer loop
      vertex 35 -70 50
      vertex -35 -70 -50
      vertex 35 -70 -50
    endloop
  endfacet
  facet normal -1 0 0
    outer loop
      vertex 32 -67 -47
      vertex 32 67 50
      vertex 32 67 -47
    endloop
  endfacet
  facet normal -1 -0 0
    outer loop
      vertex 32 67 50
      vertex 32 -67 -47
      vertex 32 -67 50
    endloop
  endfacet
  facet normal -0 0 1
    outer loop
      vertex -32 67 -47
      vertex 32 -67 -47
      vertex 32 67 -47
    endloop
  endfacet
  facet normal 0 0 1
    outer loop
      vertex 32 -67 -47
      vertex -32 67 -47
      vertex -32 -67 -47
    endloop
  endfacet
  facet normal 1 -0 0
    outer loop
      vertex -32 -67 50
      vertex -32 67 -47
      vertex -32 67 50
    endloop
  endfacet
  facet normal 1 0 0
    outer loop
      vertex -32 67 -47
      vertex -32 -67 50
      vertex -32 -67 -47
    endloop
  endfacet
  facet normal 0 -1 0
    outer loop
      vertex -32 67 -47
      vertex 32 67 50
      vertex -32 67 50
    endloop
  endfacet
  facet normal 0 -1 -0
    outer loop
      vertex 32 67 50
      vertex -32 67 -47
      vertex 32 67 -47
    endloop
  endfacet
  facet normal 0 1 -0
    outer loop
      vertex 32 -67 -47
      vertex -32 -67 50
      vertex 32 -67 50
    endloop
  endfacet
  facet normal 0 1 0
    outer loop
      vertex -32 -67 50
      vertex 32 -67 -47
      vertex -32 -67 -47
    endloop
  endfacet
endsolid OpenSCAD_Model
