solid OpenSCAD_Model
  facet normal 1 -0 0
    outer loop
      vertex 105 -85 2
      vertex 105 85 -2
      vertex 105 85 2
    endloop
  endfacet
  facet normal 1 0 0
    outer loop
      vertex 105 85 -2
      vertex 105 -85 2
      vertex 105 -85 -2
    endloop
  endfacet
  facet normal 0 0 1
    outer loop
      vertex 87.0761 0.382683 2
      vertex -43.134 58.3897 2
      vertex 87.0341 0.258819 2
    endloop
  endfacet
  facet normal 0 0 1
    outer loop
      vertex 87 0 2
      vertex -43.0086 -58.7592 2
      vertex -43 -58.8897 2
    endloop
  endfacet
  facet normal -0 0 1
    outer loop
      vertex -43.2066 58.281 2
      vertex 87.0341 0.258819 2
      vertex -43.134 58.3897 2
    endloop
  endfacet
  facet normal 0 0 1
    outer loop
      vertex 87 0 2
      vertex -43.0341 -58.6309 2
      vertex -43.0086 -58.7592 2
    endloop
  endfacet
  facet normal 0 0 1
    outer loop
      vertex 87.0341 0.258819 2
      vertex -43.2066 58.281 2
      vertex 87.0086 0.130526 2
    endloop
  endfacet
  facet normal 0 0 1
    outer loop
      vertex 87 0 2
      vertex -43.0761 -58.507 2
      vertex -43.0341 -58.6309 2
    endloop
  endfacet
  facet normal -0 0 1
    outer loop
      vertex -43.2929 58.1826 2
      vertex 87.0086 0.130526 2
      vertex -43.2066 58.281 2
    endloop
  endfacet
  facet normal 0 0 1
    outer loop
      vertex 87 0 2
      vertex -43.134 -58.3897 2
      vertex -43.0761 -58.507 2
    endloop
  endfacet
  facet normal 0 0 1
    outer loop
      vertex 87.0086 0.130526 2
      vertex -43.2929 58.1826 2
      vertex 87 0 2
    endloop
  endfacet
  facet normal 0 0 1
    outer loop
      vertex 87 0 2
      vertex -43.2066 -58.281 2
      vertex -43.134 -58.3897 2
    endloop
  endfacet
  facet normal 0 0 1
    outer loop
      vertex -43.2929 -58.1826 2
      vertex 87 0 2
      vertex -43.2929 58.1826 2
    endloop
  endfacet
  facet normal 0 0 1
    outer loop
      vertex 87 0 2
      vertex -43.2929 -58.1826 2
      vertex -43.2066 -58.281 2
    endloop
  endfacet
  facet normal -0 0 1
    outer loop
      vertex -43.3912 58.0964 2
      vertex -43.2929 -58.1826 2
      vertex -43.2929 58.1826 2
    endloop
  endfacet
  facet normal 0 0 1
    outer loop
      vertex -43.3912 58.0964 2
      vertex -43.3912 -58.0964 2
      vertex -43.2929 -58.1826 2
    endloop
  endfacet
  facet normal -0 0 1
    outer loop
      vertex -43.5 58.0237 2
      vertex -43.3912 -58.0964 2
      vertex -43.3912 58.0964 2
    endloop
  endfacet
  facet normal 0 0 1
    outer loop
      vertex -43.5 58.0237 2
      vertex -43.5 -58.0237 2
      vertex -43.3912 -58.0964 2
    endloop
  endfacet
  facet normal -0 0 1
    outer loop
      vertex -43.6173 57.9658 2
      vertex -43.5 -58.0237 2
      vertex -43.5 58.0237 2
    endloop
  endfacet
  facet normal 0 0 1
    outer loop
      vertex -43.6173 57.9658 2
      vertex -43.6173 -57.9658 2
      vertex -43.5 -58.0237 2
    endloop
  endfacet
  facet normal -0 0 1
    outer loop
      vertex -43.7412 57.9238 2
      vertex -43.6173 -57.9658 2
      vertex -43.6173 57.9658 2
    endloop
  endfacet
  facet normal 0 0 1
    outer loop
      vertex -43.7412 57.9238 2
      vertex -43.7412 -57.9238 2
      vertex -43.6173 -57.9658 2
    endloop
  endfacet
  facet normal -0 0 1
    outer loop
      vertex -43.8695 57.8983 2
      vertex -43.7412 -57.9238 2
      vertex -43.7412 57.9238 2
    endloop
  endfacet
  facet normal 0 0 1
    outer loop
      vertex -43.8695 57.8983 2
      vertex -43.8695 -57.8983 2
      vertex -43.7412 -57.9238 2
    endloop
  endfacet
  facet normal -0 0 1
    outer loop
      vertex -44 57.8897 2
      vertex -43.8695 -57.8983 2
      vertex -43.8695 57.8983 2
    endloop
  endfacet
  facet normal 0 0 1
    outer loop
      vertex -44 57.8897 2
      vertex -44 -57.8897 2
      vertex -43.8695 -57.8983 2
    endloop
  endfacet
  facet normal 0 0 1
    outer loop
      vertex -44.1305 57.8983 2
      vertex -44 -57.8897 2
      vertex -44 57.8897 2
    endloop
  endfacet
  facet normal 0 0 1
    outer loop
      vertex -44.1305 57.8983 2
      vertex -44.1305 -57.8983 2
      vertex -44 -57.8897 2
    endloop
  endfacet
  facet normal 0 0 1
    outer loop
      vertex -44.2588 57.9238 2
      vertex -44.1305 -57.8983 2
      vertex -44.1305 57.8983 2
    endloop
  endfacet
  facet normal 0 0 1
    outer loop
      vertex -44.2588 57.9238 2
      vertex -44.2588 -57.9238 2
      vertex -44.1305 -57.8983 2
    endloop
  endfacet
  facet normal 0 0 1
    outer loop
      vertex -44.3827 57.9658 2
      vertex -44.2588 -57.9238 2
      vertex -44.2588 57.9238 2
    endloop
  endfacet
  facet normal 0 0 1
    outer loop
      vertex -44.3827 57.9658 2
      vertex -44.3827 -57.9658 2
      vertex -44.2588 -57.9238 2
    endloop
  endfacet
  facet normal 0 0 1
    outer loop
      vertex -44.5 58.0237 2
      vertex -44.3827 -57.9658 2
      vertex -44.3827 57.9658 2
    endloop
  endfacet
  facet normal 0 0 1
    outer loop
      vertex -44.5 58.0237 2
      vertex -44.5 -58.0237 2
      vertex -44.3827 -57.9658 2
    endloop
  endfacet
  facet normal 0 0 1
    outer loop
      vertex -44.6088 58.0964 2
      vertex -44.5 -58.0237 2
      vertex -44.5 58.0237 2
    endloop
  endfacet
  facet normal 0 0 1
    outer loop
      vertex -44.6088 58.0964 2
      vertex -44.6088 -58.0964 2
      vertex -44.5 -58.0237 2
    endloop
  endfacet
  facet normal 0 0 1
    outer loop
      vertex -44.7071 58.1826 2
      vertex -44.6088 -58.0964 2
      vertex -44.6088 58.0964 2
    endloop
  endfacet
  facet normal 0 0 1
    outer loop
      vertex -44.7071 58.1826 2
      vertex -44.7071 -58.1826 2
      vertex -44.6088 -58.0964 2
    endloop
  endfacet
  facet normal 0 0 1
    outer loop
      vertex -105 85 2
      vertex -44.7071 58.1826 2
      vertex -44.7934 58.281 2
    endloop
  endfacet
  facet normal 0 0 1
    outer loop
      vertex -44.7071 58.1826 2
      vertex -105 85 2
      vertex -44.7071 -58.1826 2
    endloop
  endfacet
  facet normal 0 0 1
    outer loop
      vertex -105 85 2
      vertex -44.7934 58.281 2
      vertex -44.866 58.3897 2
    endloop
  endfacet
  facet normal 0 0 1
    outer loop
      vertex -105 -85 2
      vertex -44.7071 -58.1826 2
      vertex -105 85 2
    endloop
  endfacet
  facet normal 0 0 1
    outer loop
      vertex -105 85 2
      vertex -44.866 58.3897 2
      vertex -44.9239 58.507 2
    endloop
  endfacet
  facet normal 0 0 1
    outer loop
      vertex -44.7071 -58.1826 2
      vertex -105 -85 2
      vertex -44.7934 -58.281 2
    endloop
  endfacet
  facet normal 0 0 1
    outer loop
      vertex -105 85 2
      vertex -44.9239 58.507 2
      vertex -44.9659 58.6309 2
    endloop
  endfacet
  facet normal 0 0 1
    outer loop
      vertex -44.7934 -58.281 2
      vertex -105 -85 2
      vertex -44.866 -58.3897 2
    endloop
  endfacet
  facet normal 0 0 1
    outer loop
      vertex -105 85 2
      vertex -44.9659 58.6309 2
      vertex -44.9914 58.7592 2
    endloop
  endfacet
  facet normal 0 0 1
    outer loop
      vertex -44.866 -58.3897 2
      vertex -105 -85 2
      vertex -44.9239 -58.507 2
    endloop
  endfacet
  facet normal 0 0 1
    outer loop
      vertex -105 85 2
      vertex -44.9914 58.7592 2
      vertex -45 58.8897 2
    endloop
  endfacet
  facet normal 0 0 1
    outer loop
      vertex -44.9239 -58.507 2
      vertex -105 -85 2
      vertex -44.9659 -58.6309 2
    endloop
  endfacet
  facet normal 0 0 1
    outer loop
      vertex 105 85 2
      vertex 89 0 2
      vertex 105 -85 2
    endloop
  endfacet
  facet normal 0 0 1
    outer loop
      vertex 105 85 2
      vertex 88.9914 0.130526 2
      vertex 89 0 2
    endloop
  endfacet
  facet normal 0 0 1
    outer loop
      vertex 105 85 2
      vertex 88.9659 0.258819 2
      vertex 88.9914 0.130526 2
    endloop
  endfacet
  facet normal 0 0 1
    outer loop
      vertex 105 85 2
      vertex 88.9239 0.382683 2
      vertex 88.9659 0.258819 2
    endloop
  endfacet
  facet normal 0 0 1
    outer loop
      vertex 105 85 2
      vertex 88.866 0.5 2
      vertex 88.9239 0.382683 2
    endloop
  endfacet
  facet normal 0 0 1
    outer loop
      vertex 105 85 2
      vertex 88.7934 0.608761 2
      vertex 88.866 0.5 2
    endloop
  endfacet
  facet normal 0 0 1
    outer loop
      vertex 105 85 2
      vertex 88.7071 0.707107 2
      vertex 88.7934 0.608761 2
    endloop
  endfacet
  facet normal 0 0 1
    outer loop
      vertex 105 85 2
      vertex 88.6088 0.793353 2
      vertex 88.7071 0.707107 2
    endloop
  endfacet
  facet normal 0 0 1
    outer loop
      vertex 105 85 2
      vertex 88.5 0.866025 2
      vertex 88.6088 0.793353 2
    endloop
  endfacet
  facet normal 0 0 1
    outer loop
      vertex 105 85 2
      vertex 88.3827 0.923879 2
      vertex 88.5 0.866025 2
    endloop
  endfacet
  facet normal 0 0 1
    outer loop
      vertex 105 85 2
      vertex 88.2588 0.965925 2
      vertex 88.3827 0.923879 2
    endloop
  endfacet
  facet normal 0 0 1
    outer loop
      vertex 105 85 2
      vertex 88.1305 0.991445 2
      vertex 88.2588 0.965925 2
    endloop
  endfacet
  facet normal 0 0 1
    outer loop
      vertex 105 85 2
      vertex 88 1 2
      vertex 88.1305 0.991445 2
    endloop
  endfacet
  facet normal 0 0 1
    outer loop
      vertex 105 85 2
      vertex 87.8695 0.991445 2
      vertex 88 1 2
    endloop
  endfacet
  facet normal 0 0 1
    outer loop
      vertex 105 85 2
      vertex 87.7412 0.965925 2
      vertex 87.8695 0.991445 2
    endloop
  endfacet
  facet normal 0 0 1
    outer loop
      vertex 105 85 2
      vertex 87.6173 0.923879 2
      vertex 87.7412 0.965925 2
    endloop
  endfacet
  facet normal 0 0 1
    outer loop
      vertex 105 85 2
      vertex 87.5 0.866025 2
      vertex 87.6173 0.923879 2
    endloop
  endfacet
  facet normal 0 0 1
    outer loop
      vertex 105 85 2
      vertex 87.3912 0.793353 2
      vertex 87.5 0.866025 2
    endloop
  endfacet
  facet normal 0 0 1
    outer loop
      vertex 105 85 2
      vertex 87.2929 0.707107 2
      vertex 87.3912 0.793353 2
    endloop
  endfacet
  facet normal -0 0 1
    outer loop
      vertex -43 58.8897 2
      vertex 87.2929 0.707107 2
      vertex 105 85 2
    endloop
  endfacet
  facet normal -0 0 1
    outer loop
      vertex -43.0086 58.7592 2
      vertex 87.2929 0.707107 2
      vertex -43 58.8897 2
    endloop
  endfacet
  facet normal 0 0 1
    outer loop
      vertex 87.2929 0.707107 2
      vertex -43.0086 58.7592 2
      vertex 87.2066 0.608761 2
    endloop
  endfacet
  facet normal -0 0 1
    outer loop
      vertex -43.0341 58.6309 2
      vertex 87.2066 0.608761 2
      vertex -43.0086 58.7592 2
    endloop
  endfacet
  facet normal 0 0 1
    outer loop
      vertex 87.134 0.5 2
      vertex -43.0761 58.507 2
      vertex 87.0761 0.382683 2
    endloop
  endfacet
  facet normal -0 0 1
    outer loop
      vertex -43.0761 58.507 2
      vertex 87.134 0.5 2
      vertex -43.0341 58.6309 2
    endloop
  endfacet
  facet normal 0 0 1
    outer loop
      vertex 87.2066 0.608761 2
      vertex -43.0341 58.6309 2
      vertex 87.134 0.5 2
    endloop
  endfacet
  facet normal 0 0 1
    outer loop
      vertex 105 85 2
      vertex -43.0086 59.0203 2
      vertex -43 58.8897 2
    endloop
  endfacet
  facet normal 0 0 1
    outer loop
      vertex 105 85 2
      vertex -43.0341 59.1485 2
      vertex -43.0086 59.0203 2
    endloop
  endfacet
  facet normal 0 0 1
    outer loop
      vertex 105 85 2
      vertex -43.0761 59.2724 2
      vertex -43.0341 59.1485 2
    endloop
  endfacet
  facet normal 0 0 1
    outer loop
      vertex 105 85 2
      vertex -43.134 59.3897 2
      vertex -43.0761 59.2724 2
    endloop
  endfacet
  facet normal 0 0 1
    outer loop
      vertex 105 85 2
      vertex -43.2066 59.4985 2
      vertex -43.134 59.3897 2
    endloop
  endfacet
  facet normal 0 0 1
    outer loop
      vertex 105 85 2
      vertex -43.2929 59.5968 2
      vertex -43.2066 59.4985 2
    endloop
  endfacet
  facet normal 0 0 1
    outer loop
      vertex 105 85 2
      vertex -43.3912 59.6831 2
      vertex -43.2929 59.5968 2
    endloop
  endfacet
  facet normal 0 0 1
    outer loop
      vertex 105 85 2
      vertex -43.5 59.7558 2
      vertex -43.3912 59.6831 2
    endloop
  endfacet
  facet normal 0 0 1
    outer loop
      vertex 105 85 2
      vertex -43.6173 59.8136 2
      vertex -43.5 59.7558 2
    endloop
  endfacet
  facet normal 0 0 1
    outer loop
      vertex 105 85 2
      vertex -43.7412 59.8557 2
      vertex -43.6173 59.8136 2
    endloop
  endfacet
  facet normal -0 0 1
    outer loop
      vertex -105 85 2
      vertex -43.7412 59.8557 2
      vertex 105 85 2
    endloop
  endfacet
  facet normal 0 0 1
    outer loop
      vertex -43.7412 59.8557 2
      vertex -105 85 2
      vertex -43.8695 59.8812 2
    endloop
  endfacet
  facet normal 0 0 1
    outer loop
      vertex -43.8695 59.8812 2
      vertex -105 85 2
      vertex -44 59.8897 2
    endloop
  endfacet
  facet normal 0 0 1
    outer loop
      vertex -44.9659 -58.6309 2
      vertex -105 -85 2
      vertex -44.9914 -58.7592 2
    endloop
  endfacet
  facet normal 0 0 1
    outer loop
      vertex -44.9914 59.0203 2
      vertex -105 85 2
      vertex -45 58.8897 2
    endloop
  endfacet
  facet normal 0 0 1
    outer loop
      vertex -44.9659 59.1485 2
      vertex -105 85 2
      vertex -44.9914 59.0203 2
    endloop
  endfacet
  facet normal 0 0 1
    outer loop
      vertex -44.9239 59.2724 2
      vertex -105 85 2
      vertex -44.9659 59.1485 2
    endloop
  endfacet
  facet normal 0 0 1
    outer loop
      vertex -44.866 59.3897 2
      vertex -105 85 2
      vertex -44.9239 59.2724 2
    endloop
  endfacet
  facet normal 0 0 1
    outer loop
      vertex -44.7934 59.4985 2
      vertex -105 85 2
      vertex -44.866 59.3897 2
    endloop
  endfacet
  facet normal 0 0 1
    outer loop
      vertex -44.7071 59.5968 2
      vertex -105 85 2
      vertex -44.7934 59.4985 2
    endloop
  endfacet
  facet normal 0 0 1
    outer loop
      vertex -44.6088 59.6831 2
      vertex -105 85 2
      vertex -44.7071 59.5968 2
    endloop
  endfacet
  facet normal 0 0 1
    outer loop
      vertex -44.5 59.7558 2
      vertex -105 85 2
      vertex -44.6088 59.6831 2
    endloop
  endfacet
  facet normal 0 0 1
    outer loop
      vertex -44.3827 59.8136 2
      vertex -105 85 2
      vertex -44.5 59.7558 2
    endloop
  endfacet
  facet normal 0 0 1
    outer loop
      vertex -44.2588 59.8557 2
      vertex -105 85 2
      vertex -44.3827 59.8136 2
    endloop
  endfacet
  facet normal 0 0 1
    outer loop
      vertex -44.1305 59.8812 2
      vertex -105 85 2
      vertex -44.2588 59.8557 2
    endloop
  endfacet
  facet normal 0 0 1
    outer loop
      vertex -44 59.8897 2
      vertex -105 85 2
      vertex -44.1305 59.8812 2
    endloop
  endfacet
  facet normal -0 0 1
    outer loop
      vertex 88.9914 -0.130526 2
      vertex 105 -85 2
      vertex 89 0 2
    endloop
  endfacet
  facet normal -0 0 1
    outer loop
      vertex 88.9659 -0.258819 2
      vertex 105 -85 2
      vertex 88.9914 -0.130526 2
    endloop
  endfacet
  facet normal -0 0 1
    outer loop
      vertex 88.9239 -0.382683 2
      vertex 105 -85 2
      vertex 88.9659 -0.258819 2
    endloop
  endfacet
  facet normal -0 0 1
    outer loop
      vertex 88.866 -0.5 2
      vertex 105 -85 2
      vertex 88.9239 -0.382683 2
    endloop
  endfacet
  facet normal -0 0 1
    outer loop
      vertex 88.7934 -0.608761 2
      vertex 105 -85 2
      vertex 88.866 -0.5 2
    endloop
  endfacet
  facet normal -0 0 1
    outer loop
      vertex 88.7071 -0.707107 2
      vertex 105 -85 2
      vertex 88.7934 -0.608761 2
    endloop
  endfacet
  facet normal -0 0 1
    outer loop
      vertex 88.6088 -0.793353 2
      vertex 105 -85 2
      vertex 88.7071 -0.707107 2
    endloop
  endfacet
  facet normal -0 0 1
    outer loop
      vertex 88.5 -0.866025 2
      vertex 105 -85 2
      vertex 88.6088 -0.793353 2
    endloop
  endfacet
  facet normal -0 0 1
    outer loop
      vertex 88.3827 -0.923879 2
      vertex 105 -85 2
      vertex 88.5 -0.866025 2
    endloop
  endfacet
  facet normal -0 0 1
    outer loop
      vertex 88.2588 -0.965925 2
      vertex 105 -85 2
      vertex 88.3827 -0.923879 2
    endloop
  endfacet
  facet normal -0 0 1
    outer loop
      vertex 88.1305 -0.991445 2
      vertex 105 -85 2
      vertex 88.2588 -0.965925 2
    endloop
  endfacet
  facet normal -0 0 1
    outer loop
      vertex 88 -1 2
      vertex 105 -85 2
      vertex 88.1305 -0.991445 2
    endloop
  endfacet
  facet normal 0 0 1
    outer loop
      vertex 87.8695 -0.991445 2
      vertex 105 -85 2
      vertex 88 -1 2
    endloop
  endfacet
  facet normal 0 0 1
    outer loop
      vertex 87.7412 -0.965925 2
      vertex 105 -85 2
      vertex 87.8695 -0.991445 2
    endloop
  endfacet
  facet normal 0 0 1
    outer loop
      vertex 87.6173 -0.923879 2
      vertex 105 -85 2
      vertex 87.7412 -0.965925 2
    endloop
  endfacet
  facet normal 0 0 1
    outer loop
      vertex 87.5 -0.866025 2
      vertex 105 -85 2
      vertex 87.6173 -0.923879 2
    endloop
  endfacet
  facet normal 0 0 1
    outer loop
      vertex 87.3912 -0.793353 2
      vertex 105 -85 2
      vertex 87.5 -0.866025 2
    endloop
  endfacet
  facet normal 0 0 1
    outer loop
      vertex 87.2929 -0.707107 2
      vertex 105 -85 2
      vertex 87.3912 -0.793353 2
    endloop
  endfacet
  facet normal 0 0 1
    outer loop
      vertex -43 -58.8897 2
      vertex 87.2929 -0.707107 2
      vertex 87.2066 -0.608761 2
    endloop
  endfacet
  facet normal 0 0 1
    outer loop
      vertex -43 -58.8897 2
      vertex 87.2066 -0.608761 2
      vertex 87.134 -0.5 2
    endloop
  endfacet
  facet normal 0 0 1
    outer loop
      vertex -43 -58.8897 2
      vertex 87.134 -0.5 2
      vertex 87.0761 -0.382683 2
    endloop
  endfacet
  facet normal 0 0 1
    outer loop
      vertex -43 -58.8897 2
      vertex 87.0761 -0.382683 2
      vertex 87.0341 -0.258819 2
    endloop
  endfacet
  facet normal -0 0 1
    outer loop
      vertex -43.134 58.3897 2
      vertex 87.0761 0.382683 2
      vertex -43.0761 58.507 2
    endloop
  endfacet
  facet normal 0 0 1
    outer loop
      vertex 87 0 2
      vertex -43 -58.8897 2
      vertex 87.0086 -0.130526 2
    endloop
  endfacet
  facet normal 0 0 1
    outer loop
      vertex 87.0086 -0.130526 2
      vertex -43 -58.8897 2
      vertex 87.0341 -0.258819 2
    endloop
  endfacet
  facet normal 0 0 1
    outer loop
      vertex 87.2929 -0.707107 2
      vertex -43 -58.8897 2
      vertex 105 -85 2
    endloop
  endfacet
  facet normal -0 0 1
    outer loop
      vertex -43.0086 -59.0203 2
      vertex 105 -85 2
      vertex -43 -58.8897 2
    endloop
  endfacet
  facet normal -0 0 1
    outer loop
      vertex -43.0341 -59.1485 2
      vertex 105 -85 2
      vertex -43.0086 -59.0203 2
    endloop
  endfacet
  facet normal -0 0 1
    outer loop
      vertex -43.0761 -59.2724 2
      vertex 105 -85 2
      vertex -43.0341 -59.1485 2
    endloop
  endfacet
  facet normal -0 0 1
    outer loop
      vertex -43.134 -59.3897 2
      vertex 105 -85 2
      vertex -43.0761 -59.2724 2
    endloop
  endfacet
  facet normal -0 0 1
    outer loop
      vertex -43.2066 -59.4985 2
      vertex 105 -85 2
      vertex -43.134 -59.3897 2
    endloop
  endfacet
  facet normal -0 0 1
    outer loop
      vertex -43.2929 -59.5968 2
      vertex 105 -85 2
      vertex -43.2066 -59.4985 2
    endloop
  endfacet
  facet normal -0 0 1
    outer loop
      vertex -43.3912 -59.6831 2
      vertex 105 -85 2
      vertex -43.2929 -59.5968 2
    endloop
  endfacet
  facet normal -0 0 1
    outer loop
      vertex -43.5 -59.7558 2
      vertex 105 -85 2
      vertex -43.3912 -59.6831 2
    endloop
  endfacet
  facet normal -0 0 1
    outer loop
      vertex -43.6173 -59.8136 2
      vertex 105 -85 2
      vertex -43.5 -59.7558 2
    endloop
  endfacet
  facet normal -0 0 1
    outer loop
      vertex -43.7412 -59.8557 2
      vertex 105 -85 2
      vertex -43.6173 -59.8136 2
    endloop
  endfacet
  facet normal 0 0 1
    outer loop
      vertex -105 -85 2
      vertex -43.7412 -59.8557 2
      vertex -43.8695 -59.8812 2
    endloop
  endfacet
  facet normal 0 0 1
    outer loop
      vertex -105 -85 2
      vertex -43.8695 -59.8812 2
      vertex -44 -59.8897 2
    endloop
  endfacet
  facet normal 0 0 1
    outer loop
      vertex -105 -85 2
      vertex -44 -59.8897 2
      vertex -44.1305 -59.8812 2
    endloop
  endfacet
  facet normal 0 0 1
    outer loop
      vertex -44.9914 -58.7592 2
      vertex -105 -85 2
      vertex -45 -58.8897 2
    endloop
  endfacet
  facet normal 0 0 1
    outer loop
      vertex -45 -58.8897 2
      vertex -105 -85 2
      vertex -44.9914 -59.0203 2
    endloop
  endfacet
  facet normal 0 0 1
    outer loop
      vertex -44.9914 -59.0203 2
      vertex -105 -85 2
      vertex -44.9659 -59.1485 2
    endloop
  endfacet
  facet normal 0 0 1
    outer loop
      vertex -43.7412 -59.8557 2
      vertex -105 -85 2
      vertex 105 -85 2
    endloop
  endfacet
  facet normal 0 0 1
    outer loop
      vertex -44.2588 -59.8557 2
      vertex -105 -85 2
      vertex -44.1305 -59.8812 2
    endloop
  endfacet
  facet normal 0 0 1
    outer loop
      vertex -44.3827 -59.8136 2
      vertex -105 -85 2
      vertex -44.2588 -59.8557 2
    endloop
  endfacet
  facet normal 0 0 1
    outer loop
      vertex -44.5 -59.7558 2
      vertex -105 -85 2
      vertex -44.3827 -59.8136 2
    endloop
  endfacet
  facet normal 0 0 1
    outer loop
      vertex -44.6088 -59.6831 2
      vertex -105 -85 2
      vertex -44.5 -59.7558 2
    endloop
  endfacet
  facet normal 0 0 1
    outer loop
      vertex -44.7071 -59.5968 2
      vertex -105 -85 2
      vertex -44.6088 -59.6831 2
    endloop
  endfacet
  facet normal 0 0 1
    outer loop
      vertex -44.7934 -59.4985 2
      vertex -105 -85 2
      vertex -44.7071 -59.5968 2
    endloop
  endfacet
  facet normal 0 0 1
    outer loop
      vertex -44.866 -59.3897 2
      vertex -105 -85 2
      vertex -44.7934 -59.4985 2
    endloop
  endfacet
  facet normal 0 0 1
    outer loop
      vertex -44.9239 -59.2724 2
      vertex -105 -85 2
      vertex -44.866 -59.3897 2
    endloop
  endfacet
  facet normal 0 0 1
    outer loop
      vertex -44.9659 -59.1485 2
      vertex -105 -85 2
      vertex -44.9239 -59.2724 2
    endloop
  endfacet
  facet normal -0 0 -1
    outer loop
      vertex 87.0761 -0.382683 -2
      vertex -43.134 -58.3897 -2
      vertex 87.0341 -0.258819 -2
    endloop
  endfacet
  facet normal 0 0 -1
    outer loop
      vertex 87 0 -2
      vertex -43.0086 58.7592 -2
      vertex -43 58.8897 -2
    endloop
  endfacet
  facet normal 0 0 -1
    outer loop
      vertex -43.2066 -58.281 -2
      vertex 87.0341 -0.258819 -2
      vertex -43.134 -58.3897 -2
    endloop
  endfacet
  facet normal 0 0 -1
    outer loop
      vertex 87 0 -2
      vertex -43.0341 58.6309 -2
      vertex -43.0086 58.7592 -2
    endloop
  endfacet
  facet normal -0 0 -1
    outer loop
      vertex 87.0341 -0.258819 -2
      vertex -43.2066 -58.281 -2
      vertex 87.0086 -0.130526 -2
    endloop
  endfacet
  facet normal 0 0 -1
    outer loop
      vertex 87 0 -2
      vertex -43.0761 58.507 -2
      vertex -43.0341 58.6309 -2
    endloop
  endfacet
  facet normal 0 0 -1
    outer loop
      vertex -43.2929 -58.1826 -2
      vertex 87.0086 -0.130526 -2
      vertex -43.2066 -58.281 -2
    endloop
  endfacet
  facet normal 0 0 -1
    outer loop
      vertex 87 0 -2
      vertex -43.134 58.3897 -2
      vertex -43.0761 58.507 -2
    endloop
  endfacet
  facet normal -0 0 -1
    outer loop
      vertex 87.0086 -0.130526 -2
      vertex -43.2929 -58.1826 -2
      vertex 87 0 -2
    endloop
  endfacet
  facet normal 0 0 -1
    outer loop
      vertex 87 0 -2
      vertex -43.2066 58.281 -2
      vertex -43.134 58.3897 -2
    endloop
  endfacet
  facet normal 0 0 -1
    outer loop
      vertex -43.2929 58.1826 -2
      vertex 87 0 -2
      vertex -43.2929 -58.1826 -2
    endloop
  endfacet
  facet normal 0 0 -1
    outer loop
      vertex 87 0 -2
      vertex -43.2929 58.1826 -2
      vertex -43.2066 58.281 -2
    endloop
  endfacet
  facet normal 0 0 -1
    outer loop
      vertex -43.3912 -58.0964 -2
      vertex -43.2929 58.1826 -2
      vertex -43.2929 -58.1826 -2
    endloop
  endfacet
  facet normal 0 0 -1
    outer loop
      vertex -43.3912 -58.0964 -2
      vertex -43.3912 58.0964 -2
      vertex -43.2929 58.1826 -2
    endloop
  endfacet
  facet normal 0 0 -1
    outer loop
      vertex -43.5 -58.0237 -2
      vertex -43.3912 58.0964 -2
      vertex -43.3912 -58.0964 -2
    endloop
  endfacet
  facet normal 0 0 -1
    outer loop
      vertex -43.5 -58.0237 -2
      vertex -43.5 58.0237 -2
      vertex -43.3912 58.0964 -2
    endloop
  endfacet
  facet normal 0 0 -1
    outer loop
      vertex -43.6173 -57.9658 -2
      vertex -43.5 58.0237 -2
      vertex -43.5 -58.0237 -2
    endloop
  endfacet
  facet normal 0 0 -1
    outer loop
      vertex -43.6173 -57.9658 -2
      vertex -43.6173 57.9658 -2
      vertex -43.5 58.0237 -2
    endloop
  endfacet
  facet normal 0 0 -1
    outer loop
      vertex -43.7412 -57.9238 -2
      vertex -43.6173 57.9658 -2
      vertex -43.6173 -57.9658 -2
    endloop
  endfacet
  facet normal 0 0 -1
    outer loop
      vertex -43.7412 -57.9238 -2
      vertex -43.7412 57.9238 -2
      vertex -43.6173 57.9658 -2
    endloop
  endfacet
  facet normal 0 0 -1
    outer loop
      vertex -43.8695 -57.8983 -2
      vertex -43.7412 57.9238 -2
      vertex -43.7412 -57.9238 -2
    endloop
  endfacet
  facet normal 0 0 -1
    outer loop
      vertex -43.8695 -57.8983 -2
      vertex -43.8695 57.8983 -2
      vertex -43.7412 57.9238 -2
    endloop
  endfacet
  facet normal 0 0 -1
    outer loop
      vertex -44 -57.8897 -2
      vertex -43.8695 57.8983 -2
      vertex -43.8695 -57.8983 -2
    endloop
  endfacet
  facet normal 0 0 -1
    outer loop
      vertex -44 -57.8897 -2
      vertex -44 57.8897 -2
      vertex -43.8695 57.8983 -2
    endloop
  endfacet
  facet normal 0 0 -1
    outer loop
      vertex -44.1305 -57.8983 -2
      vertex -44 57.8897 -2
      vertex -44 -57.8897 -2
    endloop
  endfacet
  facet normal 0 0 -1
    outer loop
      vertex -44.1305 -57.8983 -2
      vertex -44.1305 57.8983 -2
      vertex -44 57.8897 -2
    endloop
  endfacet
  facet normal 0 0 -1
    outer loop
      vertex -44.2588 -57.9238 -2
      vertex -44.1305 57.8983 -2
      vertex -44.1305 -57.8983 -2
    endloop
  endfacet
  facet normal 0 0 -1
    outer loop
      vertex -44.2588 -57.9238 -2
      vertex -44.2588 57.9238 -2
      vertex -44.1305 57.8983 -2
    endloop
  endfacet
  facet normal 0 0 -1
    outer loop
      vertex -44.3827 -57.9658 -2
      vertex -44.2588 57.9238 -2
      vertex -44.2588 -57.9238 -2
    endloop
  endfacet
  facet normal 0 0 -1
    outer loop
      vertex -44.3827 -57.9658 -2
      vertex -44.3827 57.9658 -2
      vertex -44.2588 57.9238 -2
    endloop
  endfacet
  facet normal 0 0 -1
    outer loop
      vertex -44.5 -58.0237 -2
      vertex -44.3827 57.9658 -2
      vertex -44.3827 -57.9658 -2
    endloop
  endfacet
  facet normal 0 0 -1
    outer loop
      vertex -44.5 -58.0237 -2
      vertex -44.5 58.0237 -2
      vertex -44.3827 57.9658 -2
    endloop
  endfacet
  facet normal 0 0 -1
    outer loop
      vertex -44.6088 -58.0964 -2
      vertex -44.5 58.0237 -2
      vertex -44.5 -58.0237 -2
    endloop
  endfacet
  facet normal 0 0 -1
    outer loop
      vertex -44.6088 -58.0964 -2
      vertex -44.6088 58.0964 -2
      vertex -44.5 58.0237 -2
    endloop
  endfacet
  facet normal 0 0 -1
    outer loop
      vertex -44.7071 -58.1826 -2
      vertex -44.6088 58.0964 -2
      vertex -44.6088 -58.0964 -2
    endloop
  endfacet
  facet normal 0 0 -1
    outer loop
      vertex -44.7071 -58.1826 -2
      vertex -44.7071 58.1826 -2
      vertex -44.6088 58.0964 -2
    endloop
  endfacet
  facet normal 0 0 -1
    outer loop
      vertex -105 -85 -2
      vertex -44.7071 -58.1826 -2
      vertex -44.7934 -58.281 -2
    endloop
  endfacet
  facet normal -0 0 -1
    outer loop
      vertex -44.7071 -58.1826 -2
      vertex -105 -85 -2
      vertex -44.7071 58.1826 -2
    endloop
  endfacet
  facet normal 0 0 -1
    outer loop
      vertex -105 -85 -2
      vertex -44.7934 -58.281 -2
      vertex -44.866 -58.3897 -2
    endloop
  endfacet
  facet normal 0 0 -1
    outer loop
      vertex -105 85 -2
      vertex -44.7071 58.1826 -2
      vertex -105 -85 -2
    endloop
  endfacet
  facet normal 0 0 -1
    outer loop
      vertex -105 -85 -2
      vertex -44.866 -58.3897 -2
      vertex -44.9239 -58.507 -2
    endloop
  endfacet
  facet normal 0 0 -1
    outer loop
      vertex -44.7071 58.1826 -2
      vertex -105 85 -2
      vertex -44.7934 58.281 -2
    endloop
  endfacet
  facet normal 0 0 -1
    outer loop
      vertex -105 -85 -2
      vertex -44.9239 -58.507 -2
      vertex -44.9659 -58.6309 -2
    endloop
  endfacet
  facet normal 0 0 -1
    outer loop
      vertex -44.7934 58.281 -2
      vertex -105 85 -2
      vertex -44.866 58.3897 -2
    endloop
  endfacet
  facet normal 0 0 -1
    outer loop
      vertex -105 -85 -2
      vertex -44.9659 -58.6309 -2
      vertex -44.9914 -58.7592 -2
    endloop
  endfacet
  facet normal 0 0 -1
    outer loop
      vertex -44.866 58.3897 -2
      vertex -105 85 -2
      vertex -44.9239 58.507 -2
    endloop
  endfacet
  facet normal 0 0 -1
    outer loop
      vertex -105 -85 -2
      vertex -44.9914 -58.7592 -2
      vertex -45 -58.8897 -2
    endloop
  endfacet
  facet normal 0 0 -1
    outer loop
      vertex -44.9239 58.507 -2
      vertex -105 85 -2
      vertex -44.9659 58.6309 -2
    endloop
  endfacet
  facet normal 0 0 -1
    outer loop
      vertex 105 -85 -2
      vertex 89 0 -2
      vertex 105 85 -2
    endloop
  endfacet
  facet normal 0 0 -1
    outer loop
      vertex 105 -85 -2
      vertex 88.9914 -0.130526 -2
      vertex 89 0 -2
    endloop
  endfacet
  facet normal 0 0 -1
    outer loop
      vertex 105 -85 -2
      vertex 88.9659 -0.258819 -2
      vertex 88.9914 -0.130526 -2
    endloop
  endfacet
  facet normal 0 0 -1
    outer loop
      vertex 105 -85 -2
      vertex 88.9239 -0.382683 -2
      vertex 88.9659 -0.258819 -2
    endloop
  endfacet
  facet normal 0 0 -1
    outer loop
      vertex 105 -85 -2
      vertex 88.866 -0.5 -2
      vertex 88.9239 -0.382683 -2
    endloop
  endfacet
  facet normal 0 0 -1
    outer loop
      vertex 105 -85 -2
      vertex 88.7934 -0.608761 -2
      vertex 88.866 -0.5 -2
    endloop
  endfacet
  facet normal 0 0 -1
    outer loop
      vertex 105 -85 -2
      vertex 88.7071 -0.707107 -2
      vertex 88.7934 -0.608761 -2
    endloop
  endfacet
  facet normal 0 0 -1
    outer loop
      vertex 105 -85 -2
      vertex 88.6088 -0.793353 -2
      vertex 88.7071 -0.707107 -2
    endloop
  endfacet
  facet normal 0 0 -1
    outer loop
      vertex 105 -85 -2
      vertex 88.5 -0.866025 -2
      vertex 88.6088 -0.793353 -2
    endloop
  endfacet
  facet normal 0 0 -1
    outer loop
      vertex 105 -85 -2
      vertex 88.3827 -0.923879 -2
      vertex 88.5 -0.866025 -2
    endloop
  endfacet
  facet normal 0 0 -1
    outer loop
      vertex 105 -85 -2
      vertex 88.2588 -0.965925 -2
      vertex 88.3827 -0.923879 -2
    endloop
  endfacet
  facet normal 0 0 -1
    outer loop
      vertex 105 -85 -2
      vertex 88.1305 -0.991445 -2
      vertex 88.2588 -0.965925 -2
    endloop
  endfacet
  facet normal 0 0 -1
    outer loop
      vertex 105 -85 -2
      vertex 88 -1 -2
      vertex 88.1305 -0.991445 -2
    endloop
  endfacet
  facet normal 0 0 -1
    outer loop
      vertex 105 -85 -2
      vertex 87.8695 -0.991445 -2
      vertex 88 -1 -2
    endloop
  endfacet
  facet normal 0 0 -1
    outer loop
      vertex 105 -85 -2
      vertex 87.7412 -0.965925 -2
      vertex 87.8695 -0.991445 -2
    endloop
  endfacet
  facet normal 0 0 -1
    outer loop
      vertex 105 -85 -2
      vertex 87.6173 -0.923879 -2
      vertex 87.7412 -0.965925 -2
    endloop
  endfacet
  facet normal 0 0 -1
    outer loop
      vertex 105 -85 -2
      vertex 87.5 -0.866025 -2
      vertex 87.6173 -0.923879 -2
    endloop
  endfacet
  facet normal 0 0 -1
    outer loop
      vertex 105 -85 -2
      vertex 87.3912 -0.793353 -2
      vertex 87.5 -0.866025 -2
    endloop
  endfacet
  facet normal 0 0 -1
    outer loop
      vertex 105 -85 -2
      vertex 87.2929 -0.707107 -2
      vertex 87.3912 -0.793353 -2
    endloop
  endfacet
  facet normal 0 0 -1
    outer loop
      vertex -43 -58.8897 -2
      vertex 87.2929 -0.707107 -2
      vertex 105 -85 -2
    endloop
  endfacet
  facet normal 0 0 -1
    outer loop
      vertex -43.0086 -58.7592 -2
      vertex 87.2929 -0.707107 -2
      vertex -43 -58.8897 -2
    endloop
  endfacet
  facet normal -0 0 -1
    outer loop
      vertex 87.2929 -0.707107 -2
      vertex -43.0086 -58.7592 -2
      vertex 87.2066 -0.608761 -2
    endloop
  endfacet
  facet normal 0 0 -1
    outer loop
      vertex -43.0341 -58.6309 -2
      vertex 87.2066 -0.608761 -2
      vertex -43.0086 -58.7592 -2
    endloop
  endfacet
  facet normal -0 0 -1
    outer loop
      vertex 87.134 -0.5 -2
      vertex -43.0761 -58.507 -2
      vertex 87.0761 -0.382683 -2
    endloop
  endfacet
  facet normal 0 0 -1
    outer loop
      vertex -43.0761 -58.507 -2
      vertex 87.134 -0.5 -2
      vertex -43.0341 -58.6309 -2
    endloop
  endfacet
  facet normal -0 0 -1
    outer loop
      vertex 87.2066 -0.608761 -2
      vertex -43.0341 -58.6309 -2
      vertex 87.134 -0.5 -2
    endloop
  endfacet
  facet normal 0 0 -1
    outer loop
      vertex 105 -85 -2
      vertex -43.0086 -59.0203 -2
      vertex -43 -58.8897 -2
    endloop
  endfacet
  facet normal 0 0 -1
    outer loop
      vertex 105 -85 -2
      vertex -43.0341 -59.1485 -2
      vertex -43.0086 -59.0203 -2
    endloop
  endfacet
  facet normal 0 0 -1
    outer loop
      vertex 105 -85 -2
      vertex -43.0761 -59.2724 -2
      vertex -43.0341 -59.1485 -2
    endloop
  endfacet
  facet normal 0 0 -1
    outer loop
      vertex 105 -85 -2
      vertex -43.134 -59.3897 -2
      vertex -43.0761 -59.2724 -2
    endloop
  endfacet
  facet normal 0 0 -1
    outer loop
      vertex 105 -85 -2
      vertex -43.2066 -59.4985 -2
      vertex -43.134 -59.3897 -2
    endloop
  endfacet
  facet normal 0 0 -1
    outer loop
      vertex 105 -85 -2
      vertex -43.2929 -59.5968 -2
      vertex -43.2066 -59.4985 -2
    endloop
  endfacet
  facet normal 0 0 -1
    outer loop
      vertex 105 -85 -2
      vertex -43.3912 -59.6831 -2
      vertex -43.2929 -59.5968 -2
    endloop
  endfacet
  facet normal 0 0 -1
    outer loop
      vertex 105 -85 -2
      vertex -43.5 -59.7558 -2
      vertex -43.3912 -59.6831 -2
    endloop
  endfacet
  facet normal 0 0 -1
    outer loop
      vertex 105 -85 -2
      vertex -43.6173 -59.8136 -2
      vertex -43.5 -59.7558 -2
    endloop
  endfacet
  facet normal 0 0 -1
    outer loop
      vertex 105 -85 -2
      vertex -43.7412 -59.8557 -2
      vertex -43.6173 -59.8136 -2
    endloop
  endfacet
  facet normal 0 0 -1
    outer loop
      vertex -105 -85 -2
      vertex -43.7412 -59.8557 -2
      vertex 105 -85 -2
    endloop
  endfacet
  facet normal 0 0 -1
    outer loop
      vertex -43.7412 -59.8557 -2
      vertex -105 -85 -2
      vertex -43.8695 -59.8812 -2
    endloop
  endfacet
  facet normal 0 0 -1
    outer loop
      vertex -43.8695 -59.8812 -2
      vertex -105 -85 -2
      vertex -44 -59.8897 -2
    endloop
  endfacet
  facet normal 0 0 -1
    outer loop
      vertex -44.9659 58.6309 -2
      vertex -105 85 -2
      vertex -44.9914 58.7592 -2
    endloop
  endfacet
  facet normal -0 0 -1
    outer loop
      vertex -44.9914 -59.0203 -2
      vertex -105 -85 -2
      vertex -45 -58.8897 -2
    endloop
  endfacet
  facet normal -0 0 -1
    outer loop
      vertex -44.9659 -59.1485 -2
      vertex -105 -85 -2
      vertex -44.9914 -59.0203 -2
    endloop
  endfacet
  facet normal -0 0 -1
    outer loop
      vertex -44.9239 -59.2724 -2
      vertex -105 -85 -2
      vertex -44.9659 -59.1485 -2
    endloop
  endfacet
  facet normal -0 0 -1
    outer loop
      vertex -44.866 -59.3897 -2
      vertex -105 -85 -2
      vertex -44.9239 -59.2724 -2
    endloop
  endfacet
  facet normal -0 0 -1
    outer loop
      vertex -44.7934 -59.4985 -2
      vertex -105 -85 -2
      vertex -44.866 -59.3897 -2
    endloop
  endfacet
  facet normal -0 0 -1
    outer loop
      vertex -44.7071 -59.5968 -2
      vertex -105 -85 -2
      vertex -44.7934 -59.4985 -2
    endloop
  endfacet
  facet normal -0 0 -1
    outer loop
      vertex -44.6088 -59.6831 -2
      vertex -105 -85 -2
      vertex -44.7071 -59.5968 -2
    endloop
  endfacet
  facet normal -0 0 -1
    outer loop
      vertex -44.5 -59.7558 -2
      vertex -105 -85 -2
      vertex -44.6088 -59.6831 -2
    endloop
  endfacet
  facet normal -0 0 -1
    outer loop
      vertex -44.3827 -59.8136 -2
      vertex -105 -85 -2
      vertex -44.5 -59.7558 -2
    endloop
  endfacet
  facet normal -0 0 -1
    outer loop
      vertex -44.2588 -59.8557 -2
      vertex -105 -85 -2
      vertex -44.3827 -59.8136 -2
    endloop
  endfacet
  facet normal -0 0 -1
    outer loop
      vertex -44.1305 -59.8812 -2
      vertex -105 -85 -2
      vertex -44.2588 -59.8557 -2
    endloop
  endfacet
  facet normal -0 0 -1
    outer loop
      vertex -44 -59.8897 -2
      vertex -105 -85 -2
      vertex -44.1305 -59.8812 -2
    endloop
  endfacet
  facet normal 0 0 -1
    outer loop
      vertex 88.9914 0.130526 -2
      vertex 105 85 -2
      vertex 89 0 -2
    endloop
  endfacet
  facet normal 0 0 -1
    outer loop
      vertex 88.9659 0.258819 -2
      vertex 105 85 -2
      vertex 88.9914 0.130526 -2
    endloop
  endfacet
  facet normal 0 0 -1
    outer loop
      vertex 88.9239 0.382683 -2
      vertex 105 85 -2
      vertex 88.9659 0.258819 -2
    endloop
  endfacet
  facet normal 0 0 -1
    outer loop
      vertex 88.866 0.5 -2
      vertex 105 85 -2
      vertex 88.9239 0.382683 -2
    endloop
  endfacet
  facet normal 0 0 -1
    outer loop
      vertex 88.7934 0.608761 -2
      vertex 105 85 -2
      vertex 88.866 0.5 -2
    endloop
  endfacet
  facet normal 0 0 -1
    outer loop
      vertex 88.7071 0.707107 -2
      vertex 105 85 -2
      vertex 88.7934 0.608761 -2
    endloop
  endfacet
  facet normal 0 0 -1
    outer loop
      vertex 88.6088 0.793353 -2
      vertex 105 85 -2
      vertex 88.7071 0.707107 -2
    endloop
  endfacet
  facet normal 0 0 -1
    outer loop
      vertex 88.5 0.866025 -2
      vertex 105 85 -2
      vertex 88.6088 0.793353 -2
    endloop
  endfacet
  facet normal 0 0 -1
    outer loop
      vertex 88.3827 0.923879 -2
      vertex 105 85 -2
      vertex 88.5 0.866025 -2
    endloop
  endfacet
  facet normal 0 0 -1
    outer loop
      vertex 88.2588 0.965925 -2
      vertex 105 85 -2
      vertex 88.3827 0.923879 -2
    endloop
  endfacet
  facet normal 0 0 -1
    outer loop
      vertex 88.1305 0.991445 -2
      vertex 105 85 -2
      vertex 88.2588 0.965925 -2
    endloop
  endfacet
  facet normal 0 0 -1
    outer loop
      vertex 88 1 -2
      vertex 105 85 -2
      vertex 88.1305 0.991445 -2
    endloop
  endfacet
  facet normal 0 0 -1
    outer loop
      vertex 87.8695 0.991445 -2
      vertex 105 85 -2
      vertex 88 1 -2
    endloop
  endfacet
  facet normal 0 0 -1
    outer loop
      vertex 87.7412 0.965925 -2
      vertex 105 85 -2
      vertex 87.8695 0.991445 -2
    endloop
  endfacet
  facet normal 0 0 -1
    outer loop
      vertex 87.6173 0.923879 -2
      vertex 105 85 -2
      vertex 87.7412 0.965925 -2
    endloop
  endfacet
  facet normal 0 0 -1
    outer loop
      vertex 87.5 0.866025 -2
      vertex 105 85 -2
      vertex 87.6173 0.923879 -2
    endloop
  endfacet
  facet normal 0 0 -1
    outer loop
      vertex 87.3912 0.793353 -2
      vertex 105 85 -2
      vertex 87.5 0.866025 -2
    endloop
  endfacet
  facet normal 0 0 -1
    outer loop
      vertex 87.2929 0.707107 -2
      vertex 105 85 -2
      vertex 87.3912 0.793353 -2
    endloop
  endfacet
  facet normal 0 0 -1
    outer loop
      vertex -43 58.8897 -2
      vertex 87.2929 0.707107 -2
      vertex 87.2066 0.608761 -2
    endloop
  endfacet
  facet normal 0 0 -1
    outer loop
      vertex -43 58.8897 -2
      vertex 87.2066 0.608761 -2
      vertex 87.134 0.5 -2
    endloop
  endfacet
  facet normal 0 0 -1
    outer loop
      vertex -43 58.8897 -2
      vertex 87.134 0.5 -2
      vertex 87.0761 0.382683 -2
    endloop
  endfacet
  facet normal 0 0 -1
    outer loop
      vertex -43 58.8897 -2
      vertex 87.0761 0.382683 -2
      vertex 87.0341 0.258819 -2
    endloop
  endfacet
  facet normal 0 0 -1
    outer loop
      vertex -43.134 -58.3897 -2
      vertex 87.0761 -0.382683 -2
      vertex -43.0761 -58.507 -2
    endloop
  endfacet
  facet normal 0 0 -1
    outer loop
      vertex 87 0 -2
      vertex -43 58.8897 -2
      vertex 87.0086 0.130526 -2
    endloop
  endfacet
  facet normal 0 0 -1
    outer loop
      vertex 87.0086 0.130526 -2
      vertex -43 58.8897 -2
      vertex 87.0341 0.258819 -2
    endloop
  endfacet
  facet normal 0 0 -1
    outer loop
      vertex 87.2929 0.707107 -2
      vertex -43 58.8897 -2
      vertex 105 85 -2
    endloop
  endfacet
  facet normal 0 0 -1
    outer loop
      vertex -43.0086 59.0203 -2
      vertex 105 85 -2
      vertex -43 58.8897 -2
    endloop
  endfacet
  facet normal 0 0 -1
    outer loop
      vertex -43.0341 59.1485 -2
      vertex 105 85 -2
      vertex -43.0086 59.0203 -2
    endloop
  endfacet
  facet normal 0 0 -1
    outer loop
      vertex -43.0761 59.2724 -2
      vertex 105 85 -2
      vertex -43.0341 59.1485 -2
    endloop
  endfacet
  facet normal 0 0 -1
    outer loop
      vertex -43.134 59.3897 -2
      vertex 105 85 -2
      vertex -43.0761 59.2724 -2
    endloop
  endfacet
  facet normal 0 0 -1
    outer loop
      vertex -43.2066 59.4985 -2
      vertex 105 85 -2
      vertex -43.134 59.3897 -2
    endloop
  endfacet
  facet normal 0 0 -1
    outer loop
      vertex -43.2929 59.5968 -2
      vertex 105 85 -2
      vertex -43.2066 59.4985 -2
    endloop
  endfacet
  facet normal 0 0 -1
    outer loop
      vertex -43.3912 59.6831 -2
      vertex 105 85 -2
      vertex -43.2929 59.5968 -2
    endloop
  endfacet
  facet normal 0 0 -1
    outer loop
      vertex -43.5 59.7558 -2
      vertex 105 85 -2
      vertex -43.3912 59.6831 -2
    endloop
  endfacet
  facet normal 0 0 -1
    outer loop
      vertex -43.6173 59.8136 -2
      vertex 105 85 -2
      vertex -43.5 59.7558 -2
    endloop
  endfacet
  facet normal 0 0 -1
    outer loop
      vertex -43.7412 59.8557 -2
      vertex 105 85 -2
      vertex -43.6173 59.8136 -2
    endloop
  endfacet
  facet normal 0 0 -1
    outer loop
      vertex -105 85 -2
      vertex -43.7412 59.8557 -2
      vertex -43.8695 59.8812 -2
    endloop
  endfacet
  facet normal 0 0 -1
    outer loop
      vertex -105 85 -2
      vertex -43.8695 59.8812 -2
      vertex -44 59.8897 -2
    endloop
  endfacet
  facet normal 0 0 -1
    outer loop
      vertex -105 85 -2
      vertex -44 59.8897 -2
      vertex -44.1305 59.8812 -2
    endloop
  endfacet
  facet normal 0 0 -1
    outer loop
      vertex -44.9914 58.7592 -2
      vertex -105 85 -2
      vertex -45 58.8897 -2
    endloop
  endfacet
  facet normal 0 0 -1
    outer loop
      vertex -45 58.8897 -2
      vertex -105 85 -2
      vertex -44.9914 59.0203 -2
    endloop
  endfacet
  facet normal 0 0 -1
    outer loop
      vertex -44.9914 59.0203 -2
      vertex -105 85 -2
      vertex -44.9659 59.1485 -2
    endloop
  endfacet
  facet normal 0 0 -1
    outer loop
      vertex -43.7412 59.8557 -2
      vertex -105 85 -2
      vertex 105 85 -2
    endloop
  endfacet
  facet normal 0 0 -1
    outer loop
      vertex -44.2588 59.8557 -2
      vertex -105 85 -2
      vertex -44.1305 59.8812 -2
    endloop
  endfacet
  facet normal 0 0 -1
    outer loop
      vertex -44.3827 59.8136 -2
      vertex -105 85 -2
      vertex -44.2588 59.8557 -2
    endloop
  endfacet
  facet normal 0 0 -1
    outer loop
      vertex -44.5 59.7558 -2
      vertex -105 85 -2
      vertex -44.3827 59.8136 -2
    endloop
  endfacet
  facet normal 0 0 -1
    outer loop
      vertex -44.6088 59.6831 -2
      vertex -105 85 -2
      vertex -44.5 59.7558 -2
    endloop
  endfacet
  facet normal 0 0 -1
    outer loop
      vertex -44.7071 59.5968 -2
      vertex -105 85 -2
      vertex -44.6088 59.6831 -2
    endloop
  endfacet
  facet normal 0 0 -1
    outer loop
      vertex -44.7934 59.4985 -2
      vertex -105 85 -2
      vertex -44.7071 59.5968 -2
    endloop
  endfacet
  facet normal 0 0 -1
    outer loop
      vertex -44.866 59.3897 -2
      vertex -105 85 -2
      vertex -44.7934 59.4985 -2
    endloop
  endfacet
  facet normal 0 0 -1
    outer loop
      vertex -44.9239 59.2724 -2
      vertex -105 85 -2
      vertex -44.866 59.3897 -2
    endloop
  endfacet
  facet normal 0 0 -1
    outer loop
      vertex -44.9659 59.1485 -2
      vertex -105 85 -2
      vertex -44.9239 59.2724 -2
    endloop
  endfacet
  facet normal -1 0 0
    outer loop
      vertex -105 -85 -2
      vertex -105 85 2
      vertex -105 85 -2
    endloop
  endfacet
  facet normal -1 -0 0
    outer loop
      vertex -105 85 2
      vertex -105 -85 -2
      vertex -105 -85 2
    endloop
  endfacet
  facet normal 0 1 -0
    outer loop
      vertex 105 85 -2
      vertex -105 85 2
      vertex 105 85 2
    endloop
  endfacet
  facet normal 0 1 0
    outer loop
      vertex -105 85 2
      vertex 105 85 -2
      vertex -105 85 -2
    endloop
  endfacet
  facet normal 0 -1 0
    outer loop
      vertex -105 -85 -2
      vertex 105 -85 2
      vertex -105 -85 2
    endloop
  endfacet
  facet normal 0 -1 -0
    outer loop
      vertex 105 -85 2
      vertex -105 -85 -2
      vertex 105 -85 -2
    endloop
  endfacet
  facet normal -0.980813 -0.19495 0
    outer loop
      vertex 88.9914 0.130526 -2
      vertex 88.9659 0.258819 2
      vertex 88.9659 0.258819 -2
    endloop
  endfacet
  facet normal -0.980813 -0.19495 0
    outer loop
      vertex 88.9659 0.258819 2
      vertex 88.9914 0.130526 -2
      vertex 88.9914 0.130526 2
    endloop
  endfacet
  facet normal -0.997836 -0.0657447 0
    outer loop
      vertex 89 0 -2
      vertex 88.9914 0.130526 2
      vertex 88.9914 0.130526 -2
    endloop
  endfacet
  facet normal -0.997836 -0.0657447 0
    outer loop
      vertex 88.9914 0.130526 2
      vertex 89 0 -2
      vertex 89 0 2
    endloop
  endfacet
  facet normal 0.997836 -0.0657447 0
    outer loop
      vertex 87 0 2
      vertex 87.0086 0.130526 -2
      vertex 87.0086 0.130526 2
    endloop
  endfacet
  facet normal 0.997836 -0.0657447 0
    outer loop
      vertex 87.0086 0.130526 -2
      vertex 87 0 2
      vertex 87 0 -2
    endloop
  endfacet
  facet normal -0.442338 -0.896848 0
    outer loop
      vertex 88.3827 0.923879 -2
      vertex 88.5 0.866025 2
      vertex 88.3827 0.923879 2
    endloop
  endfacet
  facet normal -0.442338 -0.896848 -0
    outer loop
      vertex 88.5 0.866025 2
      vertex 88.3827 0.923879 -2
      vertex 88.5 0.866025 -2
    endloop
  endfacet
  facet normal -0.195087 -0.980786 0
    outer loop
      vertex 88.1305 0.991445 -2
      vertex 88.2588 0.965925 2
      vertex 88.1305 0.991445 2
    endloop
  endfacet
  facet normal -0.195087 -0.980786 -0
    outer loop
      vertex 88.2588 0.965925 2
      vertex 88.1305 0.991445 -2
      vertex 88.2588 0.965925 -2
    endloop
  endfacet
  facet normal 0.896734 0.442569 0
    outer loop
      vertex 87.134 -0.5 2
      vertex 87.0761 -0.382683 -2
      vertex 87.0761 -0.382683 2
    endloop
  endfacet
  facet normal 0.896734 0.442569 0
    outer loop
      vertex 87.0761 -0.382683 -2
      vertex 87.134 -0.5 2
      vertex 87.134 -0.5 -2
    endloop
  endfacet
  facet normal -0.321355 -0.946959 0
    outer loop
      vertex 88.2588 0.965925 -2
      vertex 88.3827 0.923879 2
      vertex 88.2588 0.965925 2
    endloop
  endfacet
  facet normal -0.321355 -0.946959 -0
    outer loop
      vertex 88.3827 0.923879 2
      vertex 88.2588 0.965925 -2
      vertex 88.3827 0.923879 -2
    endloop
  endfacet
  facet normal -0.947038 0.321123 0
    outer loop
      vertex 88.9239 -0.382683 -2
      vertex 88.9659 -0.258819 2
      vertex 88.9659 -0.258819 -2
    endloop
  endfacet
  facet normal -0.947038 0.321123 0
    outer loop
      vertex 88.9659 -0.258819 2
      vertex 88.9239 -0.382683 -2
      vertex 88.9239 -0.382683 2
    endloop
  endfacet
  facet normal -0.997836 0.0657447 0
    outer loop
      vertex 88.9914 -0.130526 -2
      vertex 89 0 2
      vertex 89 0 -2
    endloop
  endfacet
  facet normal -0.997836 0.0657447 0
    outer loop
      vertex 89 0 2
      vertex 88.9914 -0.130526 -2
      vertex 88.9914 -0.130526 2
    endloop
  endfacet
  facet normal -0.896734 -0.442569 0
    outer loop
      vertex 88.9239 0.382683 -2
      vertex 88.866 0.5 2
      vertex 88.866 0.5 -2
    endloop
  endfacet
  facet normal -0.896734 -0.442569 0
    outer loop
      vertex 88.866 0.5 2
      vertex 88.9239 0.382683 -2
      vertex 88.9239 0.382683 2
    endloop
  endfacet
  facet normal -0.659515 0.751691 0
    outer loop
      vertex 88.7071 -0.707107 -2
      vertex 88.6088 -0.793353 2
      vertex 88.7071 -0.707107 2
    endloop
  endfacet
  facet normal -0.659515 0.751691 0
    outer loop
      vertex 88.6088 -0.793353 2
      vertex 88.7071 -0.707107 -2
      vertex 88.6088 -0.793353 -2
    endloop
  endfacet
  facet normal 0.659515 -0.751691 0
    outer loop
      vertex 87.2929 0.707107 -2
      vertex 87.3912 0.793353 2
      vertex 87.2929 0.707107 2
    endloop
  endfacet
  facet normal 0.659515 -0.751691 0
    outer loop
      vertex 87.3912 0.793353 2
      vertex 87.2929 0.707107 -2
      vertex 87.3912 0.793353 -2
    endloop
  endfacet
  facet normal -0.659515 -0.751691 0
    outer loop
      vertex 88.6088 0.793353 -2
      vertex 88.7071 0.707107 2
      vertex 88.6088 0.793353 2
    endloop
  endfacet
  facet normal -0.659515 -0.751691 -0
    outer loop
      vertex 88.7071 0.707107 2
      vertex 88.6088 0.793353 -2
      vertex 88.7071 0.707107 -2
    endloop
  endfacet
  facet normal 0.0654151 -0.997858 0
    outer loop
      vertex 87.8695 0.991445 -2
      vertex 88 1 2
      vertex 87.8695 0.991445 2
    endloop
  endfacet
  facet normal 0.0654151 -0.997858 0
    outer loop
      vertex 88 1 2
      vertex 87.8695 0.991445 -2
      vertex 88 1 -2
    endloop
  endfacet
  facet normal 0.442338 -0.896848 0
    outer loop
      vertex 87.5 0.866025 -2
      vertex 87.6173 0.923879 2
      vertex 87.5 0.866025 2
    endloop
  endfacet
  facet normal 0.442338 -0.896848 0
    outer loop
      vertex 87.6173 0.923879 2
      vertex 87.5 0.866025 -2
      vertex 87.6173 0.923879 -2
    endloop
  endfacet
  facet normal -0.0654151 -0.997858 0
    outer loop
      vertex 88 1 -2
      vertex 88.1305 0.991445 2
      vertex 88 1 2
    endloop
  endfacet
  facet normal -0.0654151 -0.997858 -0
    outer loop
      vertex 88.1305 0.991445 2
      vertex 88 1 -2
      vertex 88.1305 0.991445 -2
    endloop
  endfacet
  facet normal -0.831723 0.555191 0
    outer loop
      vertex 88.7934 -0.608761 -2
      vertex 88.866 -0.5 2
      vertex 88.866 -0.5 -2
    endloop
  endfacet
  facet normal -0.831723 0.555191 0
    outer loop
      vertex 88.866 -0.5 2
      vertex 88.7934 -0.608761 -2
      vertex 88.7934 -0.608761 2
    endloop
  endfacet
  facet normal 0.947038 0.321123 0
    outer loop
      vertex 87.0761 -0.382683 2
      vertex 87.0341 -0.258819 -2
      vertex 87.0341 -0.258819 2
    endloop
  endfacet
  facet normal 0.947038 0.321123 0
    outer loop
      vertex 87.0341 -0.258819 -2
      vertex 87.0761 -0.382683 2
      vertex 87.0761 -0.382683 -2
    endloop
  endfacet
  facet normal 0.896734 -0.442569 0
    outer loop
      vertex 87.0761 0.382683 2
      vertex 87.134 0.5 -2
      vertex 87.134 0.5 2
    endloop
  endfacet
  facet normal 0.896734 -0.442569 0
    outer loop
      vertex 87.134 0.5 -2
      vertex 87.0761 0.382683 2
      vertex 87.0761 0.382683 -2
    endloop
  endfacet
  facet normal -0.896734 0.442569 0
    outer loop
      vertex 88.866 -0.5 -2
      vertex 88.9239 -0.382683 2
      vertex 88.9239 -0.382683 -2
    endloop
  endfacet
  facet normal -0.896734 0.442569 0
    outer loop
      vertex 88.9239 -0.382683 2
      vertex 88.866 -0.5 -2
      vertex 88.866 -0.5 2
    endloop
  endfacet
  facet normal -0.442338 0.896848 0
    outer loop
      vertex 88.5 -0.866025 -2
      vertex 88.3827 -0.923879 2
      vertex 88.5 -0.866025 2
    endloop
  endfacet
  facet normal -0.442338 0.896848 0
    outer loop
      vertex 88.3827 -0.923879 2
      vertex 88.5 -0.866025 -2
      vertex 88.3827 -0.923879 -2
    endloop
  endfacet
  facet normal -0.321355 0.946959 0
    outer loop
      vertex 88.3827 -0.923879 -2
      vertex 88.2588 -0.965925 2
      vertex 88.3827 -0.923879 2
    endloop
  endfacet
  facet normal -0.321355 0.946959 0
    outer loop
      vertex 88.2588 -0.965925 2
      vertex 88.3827 -0.923879 -2
      vertex 88.2588 -0.965925 -2
    endloop
  endfacet
  facet normal 0.980813 -0.19495 0
    outer loop
      vertex 87.0086 0.130526 2
      vertex 87.0341 0.258819 -2
      vertex 87.0341 0.258819 2
    endloop
  endfacet
  facet normal 0.980813 -0.19495 0
    outer loop
      vertex 87.0341 0.258819 -2
      vertex 87.0086 0.130526 2
      vertex 87.0086 0.130526 -2
    endloop
  endfacet
  facet normal 0.751639 0.659574 0
    outer loop
      vertex 87.2929 -0.707107 2
      vertex 87.2066 -0.608761 -2
      vertex 87.2066 -0.608761 2
    endloop
  endfacet
  facet normal 0.751639 0.659574 0
    outer loop
      vertex 87.2066 -0.608761 -2
      vertex 87.2929 -0.707107 2
      vertex 87.2929 -0.707107 -2
    endloop
  endfacet
  facet normal -0.555434 0.831561 0
    outer loop
      vertex 88.6088 -0.793353 -2
      vertex 88.5 -0.866025 2
      vertex 88.6088 -0.793353 2
    endloop
  endfacet
  facet normal -0.555434 0.831561 0
    outer loop
      vertex 88.5 -0.866025 2
      vertex 88.6088 -0.793353 -2
      vertex 88.5 -0.866025 -2
    endloop
  endfacet
  facet normal 0.751639 -0.659574 0
    outer loop
      vertex 87.2066 0.608761 2
      vertex 87.2929 0.707107 -2
      vertex 87.2929 0.707107 2
    endloop
  endfacet
  facet normal 0.751639 -0.659574 0
    outer loop
      vertex 87.2929 0.707107 -2
      vertex 87.2066 0.608761 2
      vertex 87.2066 0.608761 -2
    endloop
  endfacet
  facet normal -0.751639 0.659574 0
    outer loop
      vertex 88.7071 -0.707107 -2
      vertex 88.7934 -0.608761 2
      vertex 88.7934 -0.608761 -2
    endloop
  endfacet
  facet normal -0.751639 0.659574 0
    outer loop
      vertex 88.7934 -0.608761 2
      vertex 88.7071 -0.707107 -2
      vertex 88.7071 -0.707107 2
    endloop
  endfacet
  facet normal -0.831723 -0.555191 0
    outer loop
      vertex 88.866 0.5 -2
      vertex 88.7934 0.608761 2
      vertex 88.7934 0.608761 -2
    endloop
  endfacet
  facet normal -0.831723 -0.555191 0
    outer loop
      vertex 88.7934 0.608761 2
      vertex 88.866 0.5 -2
      vertex 88.866 0.5 2
    endloop
  endfacet
  facet normal 0.195087 0.980786 -0
    outer loop
      vertex 87.8695 -0.991445 -2
      vertex 87.7412 -0.965925 2
      vertex 87.8695 -0.991445 2
    endloop
  endfacet
  facet normal 0.195087 0.980786 0
    outer loop
      vertex 87.7412 -0.965925 2
      vertex 87.8695 -0.991445 -2
      vertex 87.7412 -0.965925 -2
    endloop
  endfacet
  facet normal -0.195087 0.980786 0
    outer loop
      vertex 88.2588 -0.965925 -2
      vertex 88.1305 -0.991445 2
      vertex 88.2588 -0.965925 2
    endloop
  endfacet
  facet normal -0.195087 0.980786 0
    outer loop
      vertex 88.1305 -0.991445 2
      vertex 88.2588 -0.965925 -2
      vertex 88.1305 -0.991445 -2
    endloop
  endfacet
  facet normal -0.555434 -0.831561 0
    outer loop
      vertex 88.5 0.866025 -2
      vertex 88.6088 0.793353 2
      vertex 88.5 0.866025 2
    endloop
  endfacet
  facet normal -0.555434 -0.831561 -0
    outer loop
      vertex 88.6088 0.793353 2
      vertex 88.5 0.866025 -2
      vertex 88.6088 0.793353 -2
    endloop
  endfacet
  facet normal -0.980813 0.19495 0
    outer loop
      vertex 88.9659 -0.258819 -2
      vertex 88.9914 -0.130526 2
      vertex 88.9914 -0.130526 -2
    endloop
  endfacet
  facet normal -0.980813 0.19495 0
    outer loop
      vertex 88.9914 -0.130526 2
      vertex 88.9659 -0.258819 -2
      vertex 88.9659 -0.258819 2
    endloop
  endfacet
  facet normal 0.831723 0.555191 0
    outer loop
      vertex 87.2066 -0.608761 2
      vertex 87.134 -0.5 -2
      vertex 87.134 -0.5 2
    endloop
  endfacet
  facet normal 0.831723 0.555191 0
    outer loop
      vertex 87.134 -0.5 -2
      vertex 87.2066 -0.608761 2
      vertex 87.2066 -0.608761 -2
    endloop
  endfacet
  facet normal 0.195087 -0.980786 0
    outer loop
      vertex 87.7412 0.965925 -2
      vertex 87.8695 0.991445 2
      vertex 87.7412 0.965925 2
    endloop
  endfacet
  facet normal 0.195087 -0.980786 0
    outer loop
      vertex 87.8695 0.991445 2
      vertex 87.7412 0.965925 -2
      vertex 87.8695 0.991445 -2
    endloop
  endfacet
  facet normal -0.0654151 0.997858 0
    outer loop
      vertex 88.1305 -0.991445 -2
      vertex 88 -1 2
      vertex 88.1305 -0.991445 2
    endloop
  endfacet
  facet normal -0.0654151 0.997858 0
    outer loop
      vertex 88 -1 2
      vertex 88.1305 -0.991445 -2
      vertex 88 -1 -2
    endloop
  endfacet
  facet normal 0.555434 -0.831561 0
    outer loop
      vertex 87.3912 0.793353 -2
      vertex 87.5 0.866025 2
      vertex 87.3912 0.793353 2
    endloop
  endfacet
  facet normal 0.555434 -0.831561 0
    outer loop
      vertex 87.5 0.866025 2
      vertex 87.3912 0.793353 -2
      vertex 87.5 0.866025 -2
    endloop
  endfacet
  facet normal 0.0654151 0.997858 -0
    outer loop
      vertex 88 -1 -2
      vertex 87.8695 -0.991445 2
      vertex 88 -1 2
    endloop
  endfacet
  facet normal 0.0654151 0.997858 0
    outer loop
      vertex 87.8695 -0.991445 2
      vertex 88 -1 -2
      vertex 87.8695 -0.991445 -2
    endloop
  endfacet
  facet normal 0.997836 0.0657447 0
    outer loop
      vertex 87.0086 -0.130526 2
      vertex 87 0 -2
      vertex 87 0 2
    endloop
  endfacet
  facet normal 0.997836 0.0657447 0
    outer loop
      vertex 87 0 -2
      vertex 87.0086 -0.130526 2
      vertex 87.0086 -0.130526 -2
    endloop
  endfacet
  facet normal 0.659515 0.751691 -0
    outer loop
      vertex 87.3912 -0.793353 -2
      vertex 87.2929 -0.707107 2
      vertex 87.3912 -0.793353 2
    endloop
  endfacet
  facet normal 0.659515 0.751691 0
    outer loop
      vertex 87.2929 -0.707107 2
      vertex 87.3912 -0.793353 -2
      vertex 87.2929 -0.707107 -2
    endloop
  endfacet
  facet normal 0.980813 0.19495 0
    outer loop
      vertex 87.0341 -0.258819 2
      vertex 87.0086 -0.130526 -2
      vertex 87.0086 -0.130526 2
    endloop
  endfacet
  facet normal 0.980813 0.19495 0
    outer loop
      vertex 87.0086 -0.130526 -2
      vertex 87.0341 -0.258819 2
      vertex 87.0341 -0.258819 -2
    endloop
  endfacet
  facet normal 0.555434 0.831561 -0
    outer loop
      vertex 87.5 -0.866025 -2
      vertex 87.3912 -0.793353 2
      vertex 87.5 -0.866025 2
    endloop
  endfacet
  facet normal 0.555434 0.831561 0
    outer loop
      vertex 87.3912 -0.793353 2
      vertex 87.5 -0.866025 -2
      vertex 87.3912 -0.793353 -2
    endloop
  endfacet
  facet normal -0.751639 -0.659574 0
    outer loop
      vertex 88.7934 0.608761 -2
      vertex 88.7071 0.707107 2
      vertex 88.7071 0.707107 -2
    endloop
  endfacet
  facet normal -0.751639 -0.659574 0
    outer loop
      vertex 88.7071 0.707107 2
      vertex 88.7934 0.608761 -2
      vertex 88.7934 0.608761 2
    endloop
  endfacet
  facet normal -0.947038 -0.321123 0
    outer loop
      vertex 88.9659 0.258819 -2
      vertex 88.9239 0.382683 2
      vertex 88.9239 0.382683 -2
    endloop
  endfacet
  facet normal -0.947038 -0.321123 0
    outer loop
      vertex 88.9239 0.382683 2
      vertex 88.9659 0.258819 -2
      vertex 88.9659 0.258819 2
    endloop
  endfacet
  facet normal 0.321355 -0.946959 0
    outer loop
      vertex 87.6173 0.923879 -2
      vertex 87.7412 0.965925 2
      vertex 87.6173 0.923879 2
    endloop
  endfacet
  facet normal 0.321355 -0.946959 0
    outer loop
      vertex 87.7412 0.965925 2
      vertex 87.6173 0.923879 -2
      vertex 87.7412 0.965925 -2
    endloop
  endfacet
  facet normal 0.442338 0.896848 -0
    outer loop
      vertex 87.6173 -0.923879 -2
      vertex 87.5 -0.866025 2
      vertex 87.6173 -0.923879 2
    endloop
  endfacet
  facet normal 0.442338 0.896848 0
    outer loop
      vertex 87.5 -0.866025 2
      vertex 87.6173 -0.923879 -2
      vertex 87.5 -0.866025 -2
    endloop
  endfacet
  facet normal 0.947038 -0.321123 0
    outer loop
      vertex 87.0341 0.258819 2
      vertex 87.0761 0.382683 -2
      vertex 87.0761 0.382683 2
    endloop
  endfacet
  facet normal 0.947038 -0.321123 0
    outer loop
      vertex 87.0761 0.382683 -2
      vertex 87.0341 0.258819 2
      vertex 87.0341 0.258819 -2
    endloop
  endfacet
  facet normal 0.831723 -0.555191 0
    outer loop
      vertex 87.134 0.5 2
      vertex 87.2066 0.608761 -2
      vertex 87.2066 0.608761 2
    endloop
  endfacet
  facet normal 0.831723 -0.555191 0
    outer loop
      vertex 87.2066 0.608761 -2
      vertex 87.134 0.5 2
      vertex 87.134 0.5 -2
    endloop
  endfacet
  facet normal 0.321355 0.946959 -0
    outer loop
      vertex 87.7412 -0.965925 -2
      vertex 87.6173 -0.923879 2
      vertex 87.7412 -0.965925 2
    endloop
  endfacet
  facet normal 0.321355 0.946959 0
    outer loop
      vertex 87.6173 -0.923879 2
      vertex 87.7412 -0.965925 -2
      vertex 87.6173 -0.923879 -2
    endloop
  endfacet
  facet normal -0.831579 0.555406 0
    outer loop
      vertex -43.2066 58.281 -2
      vertex -43.134 58.3897 2
      vertex -43.134 58.3897 -2
    endloop
  endfacet
  facet normal -0.831579 0.555406 0
    outer loop
      vertex -43.134 58.3897 2
      vertex -43.2066 58.281 -2
      vertex -43.2066 58.281 2
    endloop
  endfacet
  facet normal -0.0657577 0.997836 0
    outer loop
      vertex -43.8695 57.8983 -2
      vertex -44 57.8897 2
      vertex -43.8695 57.8983 2
    endloop
  endfacet
  facet normal -0.0657577 0.997836 0
    outer loop
      vertex -44 57.8897 2
      vertex -43.8695 57.8983 -2
      vertex -44 57.8897 -2
    endloop
  endfacet
  facet normal -0.980786 -0.195086 0
    outer loop
      vertex -43.0086 59.0203 -2
      vertex -43.0341 59.1485 2
      vertex -43.0341 59.1485 -2
    endloop
  endfacet
  facet normal -0.980786 -0.195086 0
    outer loop
      vertex -43.0341 59.1485 2
      vertex -43.0086 59.0203 -2
      vertex -43.0086 59.0203 2
    endloop
  endfacet
  facet normal -0.997839 -0.0657076 0
    outer loop
      vertex -43 58.8897 -2
      vertex -43.0086 59.0203 2
      vertex -43.0086 59.0203 -2
    endloop
  endfacet
  facet normal -0.997839 -0.0657076 0
    outer loop
      vertex -43.0086 59.0203 2
      vertex -43 58.8897 -2
      vertex -43 58.8897 2
    endloop
  endfacet
  facet normal 0.896709 -0.442621 0
    outer loop
      vertex -44.9239 59.2724 2
      vertex -44.866 59.3897 -2
      vertex -44.866 59.3897 2
    endloop
  endfacet
  facet normal 0.896709 -0.442621 0
    outer loop
      vertex -44.866 59.3897 -2
      vertex -44.9239 59.2724 2
      vertex -44.9239 59.2724 -2
    endloop
  endfacet
  facet normal -0.321725 -0.946833 0
    outer loop
      vertex -43.7412 59.8557 -2
      vertex -43.6173 59.8136 2
      vertex -43.7412 59.8557 2
    endloop
  endfacet
  facet normal -0.321725 -0.946833 -0
    outer loop
      vertex -43.6173 59.8136 2
      vertex -43.7412 59.8557 -2
      vertex -43.6173 59.8136 -2
    endloop
  endfacet
  facet normal -0.980815 0.19494 0
    outer loop
      vertex -43.0341 58.6309 -2
      vertex -43.0086 58.7592 2
      vertex -43.0086 58.7592 -2
    endloop
  endfacet
  facet normal -0.980815 0.19494 0
    outer loop
      vertex -43.0086 58.7592 2
      vertex -43.0341 58.6309 -2
      vertex -43.0341 58.6309 2
    endloop
  endfacet
  facet normal -0.896709 -0.442621 0
    outer loop
      vertex -43.0761 59.2724 -2
      vertex -43.134 59.3897 2
      vertex -43.134 59.3897 -2
    endloop
  endfacet
  facet normal -0.896709 -0.442621 0
    outer loop
      vertex -43.134 59.3897 2
      vertex -43.0761 59.2724 -2
      vertex -43.0761 59.2724 2
    endloop
  endfacet
  facet normal 0.19494 0.980815 -0
    outer loop
      vertex -44.1305 57.8983 -2
      vertex -44.2588 57.9238 2
      vertex -44.1305 57.8983 2
    endloop
  endfacet
  facet normal 0.19494 0.980815 0
    outer loop
      vertex -44.2588 57.9238 2
      vertex -44.1305 57.8983 -2
      vertex -44.2588 57.9238 -2
    endloop
  endfacet
  facet normal -0.659749 -0.751486 0
    outer loop
      vertex -43.3912 59.6831 -2
      vertex -43.2929 59.5968 2
      vertex -43.3912 59.6831 2
    endloop
  endfacet
  facet normal -0.659749 -0.751486 -0
    outer loop
      vertex -43.2929 59.5968 2
      vertex -43.3912 59.6831 -2
      vertex -43.2929 59.5968 -2
    endloop
  endfacet
  facet normal 0.997836 0.0657577 0
    outer loop
      vertex -44.9914 58.7592 2
      vertex -45 58.8897 -2
      vertex -45 58.8897 2
    endloop
  endfacet
  facet normal 0.997836 0.0657577 0
    outer loop
      vertex -45 58.8897 -2
      vertex -44.9914 58.7592 2
      vertex -44.9914 58.7592 -2
    endloop
  endfacet
  facet normal 0.947066 0.321039 0
    outer loop
      vertex -44.9239 58.507 2
      vertex -44.9659 58.6309 -2
      vertex -44.9659 58.6309 2
    endloop
  endfacet
  facet normal 0.947066 0.321039 0
    outer loop
      vertex -44.9659 58.6309 -2
      vertex -44.9239 58.507 2
      vertex -44.9239 58.507 -2
    endloop
  endfacet
  facet normal -0.896709 0.442621 0
    outer loop
      vertex -43.134 58.3897 -2
      vertex -43.0761 58.507 2
      vertex -43.0761 58.507 -2
    endloop
  endfacet
  facet normal -0.896709 0.442621 0
    outer loop
      vertex -43.0761 58.507 2
      vertex -43.134 58.3897 -2
      vertex -43.134 58.3897 2
    endloop
  endfacet
  facet normal 0.751486 -0.659749 0
    outer loop
      vertex -44.7934 59.4985 2
      vertex -44.7071 59.5968 -2
      vertex -44.7071 59.5968 2
    endloop
  endfacet
  facet normal 0.751486 -0.659749 0
    outer loop
      vertex -44.7071 59.5968 -2
      vertex -44.7934 59.4985 2
      vertex -44.7934 59.4985 -2
    endloop
  endfacet
  facet normal -0.947066 0.321039 0
    outer loop
      vertex -43.0761 58.507 -2
      vertex -43.0341 58.6309 2
      vertex -43.0341 58.6309 -2
    endloop
  endfacet
  facet normal -0.947066 0.321039 0
    outer loop
      vertex -43.0341 58.6309 2
      vertex -43.0761 58.507 -2
      vertex -43.0761 58.507 2
    endloop
  endfacet
  facet normal -0.831815 -0.555053 0
    outer loop
      vertex -43.134 59.3897 -2
      vertex -43.2066 59.4985 2
      vertex -43.2066 59.4985 -2
    endloop
  endfacet
  facet normal -0.831815 -0.555053 0
    outer loop
      vertex -43.2066 59.4985 2
      vertex -43.134 59.3897 -2
      vertex -43.134 59.3897 2
    endloop
  endfacet
  facet normal -0.0649964 -0.997886 0
    outer loop
      vertex -44 59.8897 -2
      vertex -43.8695 59.8812 2
      vertex -44 59.8897 2
    endloop
  endfacet
  facet normal -0.0649964 -0.997886 -0
    outer loop
      vertex -43.8695 59.8812 2
      vertex -44 59.8897 -2
      vertex -43.8695 59.8812 -2
    endloop
  endfacet
  facet normal 0.321039 0.947066 -0
    outer loop
      vertex -44.2588 57.9238 -2
      vertex -44.3827 57.9658 2
      vertex -44.2588 57.9238 2
    endloop
  endfacet
  facet normal 0.321039 0.947066 0
    outer loop
      vertex -44.3827 57.9658 2
      vertex -44.2588 57.9238 -2
      vertex -44.3827 57.9658 -2
    endloop
  endfacet
  facet normal -0.19494 0.980815 0
    outer loop
      vertex -43.7412 57.9238 -2
      vertex -43.8695 57.8983 2
      vertex -43.7412 57.9238 2
    endloop
  endfacet
  facet normal -0.19494 0.980815 0
    outer loop
      vertex -43.8695 57.8983 2
      vertex -43.7412 57.9238 -2
      vertex -43.8695 57.8983 -2
    endloop
  endfacet
  facet normal -0.659316 0.751866 0
    outer loop
      vertex -43.2929 58.1826 -2
      vertex -43.3912 58.0964 2
      vertex -43.2929 58.1826 2
    endloop
  endfacet
  facet normal -0.659316 0.751866 0
    outer loop
      vertex -43.3912 58.0964 2
      vertex -43.2929 58.1826 -2
      vertex -43.3912 58.0964 -2
    endloop
  endfacet
  facet normal -0.997836 0.0657577 0
    outer loop
      vertex -43.0086 58.7592 -2
      vertex -43 58.8897 2
      vertex -43 58.8897 -2
    endloop
  endfacet
  facet normal -0.997836 0.0657577 0
    outer loop
      vertex -43 58.8897 2
      vertex -43.0086 58.7592 -2
      vertex -43.0086 58.7592 2
    endloop
  endfacet
  facet normal -0.442006 -0.897012 0
    outer loop
      vertex -43.6173 59.8136 -2
      vertex -43.5 59.7558 2
      vertex -43.6173 59.8136 2
    endloop
  endfacet
  facet normal -0.442006 -0.897012 -0
    outer loop
      vertex -43.5 59.7558 2
      vertex -43.6173 59.8136 -2
      vertex -43.5 59.7558 -2
    endloop
  endfacet
  facet normal 0.659749 -0.751486 0
    outer loop
      vertex -44.7071 59.5968 -2
      vertex -44.6088 59.6831 2
      vertex -44.7071 59.5968 2
    endloop
  endfacet
  facet normal 0.659749 -0.751486 0
    outer loop
      vertex -44.6088 59.6831 2
      vertex -44.7071 59.5968 -2
      vertex -44.6088 59.6831 -2
    endloop
  endfacet
  facet normal 0.555582 -0.831462 0
    outer loop
      vertex -44.6088 59.6831 -2
      vertex -44.5 59.7558 2
      vertex -44.6088 59.6831 2
    endloop
  endfacet
  facet normal 0.555582 -0.831462 0
    outer loop
      vertex -44.5 59.7558 2
      vertex -44.6088 59.6831 -2
      vertex -44.5 59.7558 -2
    endloop
  endfacet
  facet normal 0.831579 0.555406 0
    outer loop
      vertex -44.7934 58.281 2
      vertex -44.866 58.3897 -2
      vertex -44.866 58.3897 2
    endloop
  endfacet
  facet normal 0.831579 0.555406 0
    outer loop
      vertex -44.866 58.3897 -2
      vertex -44.7934 58.281 2
      vertex -44.7934 58.281 -2
    endloop
  endfacet
  facet normal 0.555582 0.831462 -0
    outer loop
      vertex -44.5 58.0237 -2
      vertex -44.6088 58.0964 2
      vertex -44.5 58.0237 2
    endloop
  endfacet
  facet normal 0.555582 0.831462 0
    outer loop
      vertex -44.6088 58.0964 2
      vertex -44.5 58.0237 -2
      vertex -44.6088 58.0964 -2
    endloop
  endfacet
  facet normal -0.321039 0.947066 0
    outer loop
      vertex -43.6173 57.9658 -2
      vertex -43.7412 57.9238 2
      vertex -43.6173 57.9658 2
    endloop
  endfacet
  facet normal -0.321039 0.947066 0
    outer loop
      vertex -43.7412 57.9238 2
      vertex -43.6173 57.9658 -2
      vertex -43.7412 57.9238 -2
    endloop
  endfacet
  facet normal -0.555582 -0.831462 0
    outer loop
      vertex -43.5 59.7558 -2
      vertex -43.3912 59.6831 2
      vertex -43.5 59.7558 2
    endloop
  endfacet
  facet normal -0.555582 -0.831462 -0
    outer loop
      vertex -43.3912 59.6831 2
      vertex -43.5 59.7558 -2
      vertex -43.3912 59.6831 -2
    endloop
  endfacet
  facet normal 0.659316 0.751866 -0
    outer loop
      vertex -44.6088 58.0964 -2
      vertex -44.7071 58.1826 2
      vertex -44.6088 58.0964 2
    endloop
  endfacet
  facet normal 0.659316 0.751866 0
    outer loop
      vertex -44.7071 58.1826 2
      vertex -44.6088 58.0964 -2
      vertex -44.7071 58.1826 -2
    endloop
  endfacet
  facet normal 0.980786 -0.195086 0
    outer loop
      vertex -44.9914 59.0203 2
      vertex -44.9659 59.1485 -2
      vertex -44.9659 59.1485 2
    endloop
  endfacet
  facet normal 0.980786 -0.195086 0
    outer loop
      vertex -44.9659 59.1485 -2
      vertex -44.9914 59.0203 2
      vertex -44.9914 59.0203 -2
    endloop
  endfacet
  facet normal 0.19494 -0.980815 0
    outer loop
      vertex -44.2588 59.8557 -2
      vertex -44.1305 59.8812 2
      vertex -44.2588 59.8557 2
    endloop
  endfacet
  facet normal 0.19494 -0.980815 0
    outer loop
      vertex -44.1305 59.8812 2
      vertex -44.2588 59.8557 -2
      vertex -44.1305 59.8812 -2
    endloop
  endfacet
  facet normal 0.896709 0.442621 0
    outer loop
      vertex -44.866 58.3897 2
      vertex -44.9239 58.507 -2
      vertex -44.9239 58.507 2
    endloop
  endfacet
  facet normal 0.896709 0.442621 0
    outer loop
      vertex -44.9239 58.507 -2
      vertex -44.866 58.3897 2
      vertex -44.866 58.3897 -2
    endloop
  endfacet
  facet normal -0.751819 0.65937 0
    outer loop
      vertex -43.2929 58.1826 -2
      vertex -43.2066 58.281 2
      vertex -43.2066 58.281 -2
    endloop
  endfacet
  facet normal -0.751819 0.65937 0
    outer loop
      vertex -43.2066 58.281 2
      vertex -43.2929 58.1826 -2
      vertex -43.2929 58.1826 2
    endloop
  endfacet
  facet normal 0.0657577 0.997836 -0
    outer loop
      vertex -44 57.8897 -2
      vertex -44.1305 57.8983 2
      vertex -44 57.8897 2
    endloop
  endfacet
  facet normal 0.0657577 0.997836 0
    outer loop
      vertex -44.1305 57.8983 2
      vertex -44 57.8897 -2
      vertex -44.1305 57.8983 -2
    endloop
  endfacet
  facet normal -0.442621 0.896709 0
    outer loop
      vertex -43.5 58.0237 -2
      vertex -43.6173 57.9658 2
      vertex -43.5 58.0237 2
    endloop
  endfacet
  facet normal -0.442621 0.896709 0
    outer loop
      vertex -43.6173 57.9658 2
      vertex -43.5 58.0237 -2
      vertex -43.6173 57.9658 -2
    endloop
  endfacet
  facet normal 0.442006 -0.897012 0
    outer loop
      vertex -44.5 59.7558 -2
      vertex -44.3827 59.8136 2
      vertex -44.5 59.7558 2
    endloop
  endfacet
  facet normal 0.442006 -0.897012 0
    outer loop
      vertex -44.3827 59.8136 2
      vertex -44.5 59.7558 -2
      vertex -44.3827 59.8136 -2
    endloop
  endfacet
  facet normal 0.321725 -0.946833 0
    outer loop
      vertex -44.3827 59.8136 -2
      vertex -44.2588 59.8557 2
      vertex -44.3827 59.8136 2
    endloop
  endfacet
  facet normal 0.321725 -0.946833 0
    outer loop
      vertex -44.2588 59.8557 2
      vertex -44.3827 59.8136 -2
      vertex -44.2588 59.8557 -2
    endloop
  endfacet
  facet normal -0.555582 0.831462 0
    outer loop
      vertex -43.3912 58.0964 -2
      vertex -43.5 58.0237 2
      vertex -43.3912 58.0964 2
    endloop
  endfacet
  facet normal -0.555582 0.831462 0
    outer loop
      vertex -43.5 58.0237 2
      vertex -43.3912 58.0964 -2
      vertex -43.5 58.0237 -2
    endloop
  endfacet
  facet normal -0.19494 -0.980815 0
    outer loop
      vertex -43.8695 59.8812 -2
      vertex -43.7412 59.8557 2
      vertex -43.8695 59.8812 2
    endloop
  endfacet
  facet normal -0.19494 -0.980815 -0
    outer loop
      vertex -43.7412 59.8557 2
      vertex -43.8695 59.8812 -2
      vertex -43.7412 59.8557 -2
    endloop
  endfacet
  facet normal -0.751486 -0.659749 0
    outer loop
      vertex -43.2066 59.4985 -2
      vertex -43.2929 59.5968 2
      vertex -43.2929 59.5968 -2
    endloop
  endfacet
  facet normal -0.751486 -0.659749 0
    outer loop
      vertex -43.2929 59.5968 2
      vertex -43.2066 59.4985 -2
      vertex -43.2066 59.4985 2
    endloop
  endfacet
  facet normal -0.947066 -0.321039 0
    outer loop
      vertex -43.0341 59.1485 -2
      vertex -43.0761 59.2724 2
      vertex -43.0761 59.2724 -2
    endloop
  endfacet
  facet normal -0.947066 -0.321039 0
    outer loop
      vertex -43.0761 59.2724 2
      vertex -43.0341 59.1485 -2
      vertex -43.0341 59.1485 2
    endloop
  endfacet
  facet normal 0.980815 0.19494 0
    outer loop
      vertex -44.9659 58.6309 2
      vertex -44.9914 58.7592 -2
      vertex -44.9914 58.7592 2
    endloop
  endfacet
  facet normal 0.980815 0.19494 0
    outer loop
      vertex -44.9914 58.7592 -2
      vertex -44.9659 58.6309 2
      vertex -44.9659 58.6309 -2
    endloop
  endfacet
  facet normal 0.997839 -0.0657076 0
    outer loop
      vertex -45 58.8897 2
      vertex -44.9914 59.0203 -2
      vertex -44.9914 59.0203 2
    endloop
  endfacet
  facet normal 0.997839 -0.0657076 0
    outer loop
      vertex -44.9914 59.0203 -2
      vertex -45 58.8897 2
      vertex -45 58.8897 -2
    endloop
  endfacet
  facet normal 0.947066 -0.321039 0
    outer loop
      vertex -44.9659 59.1485 2
      vertex -44.9239 59.2724 -2
      vertex -44.9239 59.2724 2
    endloop
  endfacet
  facet normal 0.947066 -0.321039 0
    outer loop
      vertex -44.9239 59.2724 -2
      vertex -44.9659 59.1485 2
      vertex -44.9659 59.1485 -2
    endloop
  endfacet
  facet normal 0.751819 0.65937 0
    outer loop
      vertex -44.7071 58.1826 2
      vertex -44.7934 58.281 -2
      vertex -44.7934 58.281 2
    endloop
  endfacet
  facet normal 0.751819 0.65937 0
    outer loop
      vertex -44.7934 58.281 -2
      vertex -44.7071 58.1826 2
      vertex -44.7071 58.1826 -2
    endloop
  endfacet
  facet normal 0.0649964 -0.997886 0
    outer loop
      vertex -44.1305 59.8812 -2
      vertex -44 59.8897 2
      vertex -44.1305 59.8812 2
    endloop
  endfacet
  facet normal 0.0649964 -0.997886 0
    outer loop
      vertex -44 59.8897 2
      vertex -44.1305 59.8812 -2
      vertex -44 59.8897 -2
    endloop
  endfacet
  facet normal 0.442621 0.896709 -0
    outer loop
      vertex -44.3827 57.9658 -2
      vertex -44.5 58.0237 2
      vertex -44.3827 57.9658 2
    endloop
  endfacet
  facet normal 0.442621 0.896709 0
    outer loop
      vertex -44.5 58.0237 2
      vertex -44.3827 57.9658 -2
      vertex -44.5 58.0237 -2
    endloop
  endfacet
  facet normal 0.831815 -0.555053 0
    outer loop
      vertex -44.866 59.3897 2
      vertex -44.7934 59.4985 -2
      vertex -44.7934 59.4985 2
    endloop
  endfacet
  facet normal 0.831815 -0.555053 0
    outer loop
      vertex -44.7934 59.4985 -2
      vertex -44.866 59.3897 2
      vertex -44.866 59.3897 -2
    endloop
  endfacet
  facet normal 0.321725 0.946833 -0
    outer loop
      vertex -44.2588 -59.8557 -2
      vertex -44.3827 -59.8136 2
      vertex -44.2588 -59.8557 2
    endloop
  endfacet
  facet normal 0.321725 0.946833 0
    outer loop
      vertex -44.3827 -59.8136 2
      vertex -44.2588 -59.8557 -2
      vertex -44.3827 -59.8136 -2
    endloop
  endfacet
  facet normal -0.980815 -0.19494 0
    outer loop
      vertex -43.0086 -58.7592 -2
      vertex -43.0341 -58.6309 2
      vertex -43.0341 -58.6309 -2
    endloop
  endfacet
  facet normal -0.980815 -0.19494 0
    outer loop
      vertex -43.0341 -58.6309 2
      vertex -43.0086 -58.7592 -2
      vertex -43.0086 -58.7592 2
    endloop
  endfacet
  facet normal -0.997836 -0.0657577 0
    outer loop
      vertex -43 -58.8897 -2
      vertex -43.0086 -58.7592 2
      vertex -43.0086 -58.7592 -2
    endloop
  endfacet
  facet normal -0.997836 -0.0657577 0
    outer loop
      vertex -43.0086 -58.7592 2
      vertex -43 -58.8897 -2
      vertex -43 -58.8897 2
    endloop
  endfacet
  facet normal -0.896709 -0.442621 0
    outer loop
      vertex -43.0761 -58.507 -2
      vertex -43.134 -58.3897 2
      vertex -43.134 -58.3897 -2
    endloop
  endfacet
  facet normal -0.896709 -0.442621 0
    outer loop
      vertex -43.134 -58.3897 2
      vertex -43.0761 -58.507 -2
      vertex -43.0761 -58.507 2
    endloop
  endfacet
  facet normal -0.751819 -0.65937 0
    outer loop
      vertex -43.2066 -58.281 -2
      vertex -43.2929 -58.1826 2
      vertex -43.2929 -58.1826 -2
    endloop
  endfacet
  facet normal -0.751819 -0.65937 0
    outer loop
      vertex -43.2929 -58.1826 2
      vertex -43.2066 -58.281 -2
      vertex -43.2066 -58.281 2
    endloop
  endfacet
  facet normal -0.442006 0.897012 0
    outer loop
      vertex -43.5 -59.7558 -2
      vertex -43.6173 -59.8136 2
      vertex -43.5 -59.7558 2
    endloop
  endfacet
  facet normal -0.442006 0.897012 0
    outer loop
      vertex -43.6173 -59.8136 2
      vertex -43.5 -59.7558 -2
      vertex -43.6173 -59.8136 -2
    endloop
  endfacet
  facet normal -0.659749 0.751486 0
    outer loop
      vertex -43.2929 -59.5968 -2
      vertex -43.3912 -59.6831 2
      vertex -43.2929 -59.5968 2
    endloop
  endfacet
  facet normal -0.659749 0.751486 0
    outer loop
      vertex -43.3912 -59.6831 2
      vertex -43.2929 -59.5968 -2
      vertex -43.3912 -59.6831 -2
    endloop
  endfacet
  facet normal -0.19494 0.980815 0
    outer loop
      vertex -43.7412 -59.8557 -2
      vertex -43.8695 -59.8812 2
      vertex -43.7412 -59.8557 2
    endloop
  endfacet
  facet normal -0.19494 0.980815 0
    outer loop
      vertex -43.8695 -59.8812 2
      vertex -43.7412 -59.8557 -2
      vertex -43.8695 -59.8812 -2
    endloop
  endfacet
  facet normal 0.555582 -0.831462 0
    outer loop
      vertex -44.6088 -58.0964 -2
      vertex -44.5 -58.0237 2
      vertex -44.6088 -58.0964 2
    endloop
  endfacet
  facet normal 0.555582 -0.831462 0
    outer loop
      vertex -44.5 -58.0237 2
      vertex -44.6088 -58.0964 -2
      vertex -44.5 -58.0237 -2
    endloop
  endfacet
  facet normal -0.997839 0.0657076 0
    outer loop
      vertex -43.0086 -59.0203 -2
      vertex -43 -58.8897 2
      vertex -43 -58.8897 -2
    endloop
  endfacet
  facet normal -0.997839 0.0657076 0
    outer loop
      vertex -43 -58.8897 2
      vertex -43.0086 -59.0203 -2
      vertex -43.0086 -59.0203 2
    endloop
  endfacet
  facet normal 0.980786 0.195086 0
    outer loop
      vertex -44.9659 -59.1485 2
      vertex -44.9914 -59.0203 -2
      vertex -44.9914 -59.0203 2
    endloop
  endfacet
  facet normal 0.980786 0.195086 0
    outer loop
      vertex -44.9914 -59.0203 -2
      vertex -44.9659 -59.1485 2
      vertex -44.9659 -59.1485 -2
    endloop
  endfacet
  facet normal -0.0657577 -0.997836 0
    outer loop
      vertex -44 -57.8897 -2
      vertex -43.8695 -57.8983 2
      vertex -44 -57.8897 2
    endloop
  endfacet
  facet normal -0.0657577 -0.997836 -0
    outer loop
      vertex -43.8695 -57.8983 2
      vertex -44 -57.8897 -2
      vertex -43.8695 -57.8983 -2
    endloop
  endfacet
  facet normal -0.555582 0.831462 0
    outer loop
      vertex -43.3912 -59.6831 -2
      vertex -43.5 -59.7558 2
      vertex -43.3912 -59.6831 2
    endloop
  endfacet
  facet normal -0.555582 0.831462 0
    outer loop
      vertex -43.5 -59.7558 2
      vertex -43.3912 -59.6831 -2
      vertex -43.5 -59.7558 -2
    endloop
  endfacet
  facet normal 0.0649964 0.997886 -0
    outer loop
      vertex -44 -59.8897 -2
      vertex -44.1305 -59.8812 2
      vertex -44 -59.8897 2
    endloop
  endfacet
  facet normal 0.0649964 0.997886 0
    outer loop
      vertex -44.1305 -59.8812 2
      vertex -44 -59.8897 -2
      vertex -44.1305 -59.8812 -2
    endloop
  endfacet
  facet normal 0.831579 -0.555406 0
    outer loop
      vertex -44.866 -58.3897 2
      vertex -44.7934 -58.281 -2
      vertex -44.7934 -58.281 2
    endloop
  endfacet
  facet normal 0.831579 -0.555406 0
    outer loop
      vertex -44.7934 -58.281 -2
      vertex -44.866 -58.3897 2
      vertex -44.866 -58.3897 -2
    endloop
  endfacet
  facet normal -0.751486 0.659749 0
    outer loop
      vertex -43.2929 -59.5968 -2
      vertex -43.2066 -59.4985 2
      vertex -43.2066 -59.4985 -2
    endloop
  endfacet
  facet normal -0.751486 0.659749 0
    outer loop
      vertex -43.2066 -59.4985 2
      vertex -43.2929 -59.5968 -2
      vertex -43.2929 -59.5968 2
    endloop
  endfacet
  facet normal -0.896709 0.442621 0
    outer loop
      vertex -43.134 -59.3897 -2
      vertex -43.0761 -59.2724 2
      vertex -43.0761 -59.2724 -2
    endloop
  endfacet
  facet normal -0.896709 0.442621 0
    outer loop
      vertex -43.0761 -59.2724 2
      vertex -43.134 -59.3897 -2
      vertex -43.134 -59.3897 2
    endloop
  endfacet
  facet normal -0.442621 -0.896709 0
    outer loop
      vertex -43.6173 -57.9658 -2
      vertex -43.5 -58.0237 2
      vertex -43.6173 -57.9658 2
    endloop
  endfacet
  facet normal -0.442621 -0.896709 -0
    outer loop
      vertex -43.5 -58.0237 2
      vertex -43.6173 -57.9658 -2
      vertex -43.5 -58.0237 -2
    endloop
  endfacet
  facet normal 0.442621 -0.896709 0
    outer loop
      vertex -44.5 -58.0237 -2
      vertex -44.3827 -57.9658 2
      vertex -44.5 -58.0237 2
    endloop
  endfacet
  facet normal 0.442621 -0.896709 0
    outer loop
      vertex -44.3827 -57.9658 2
      vertex -44.5 -58.0237 -2
      vertex -44.3827 -57.9658 -2
    endloop
  endfacet
  facet normal -0.831579 -0.555406 0
    outer loop
      vertex -43.134 -58.3897 -2
      vertex -43.2066 -58.281 2
      vertex -43.2066 -58.281 -2
    endloop
  endfacet
  facet normal -0.831579 -0.555406 0
    outer loop
      vertex -43.2066 -58.281 2
      vertex -43.134 -58.3897 -2
      vertex -43.134 -58.3897 2
    endloop
  endfacet
  facet normal 0.947066 0.321039 0
    outer loop
      vertex -44.9239 -59.2724 2
      vertex -44.9659 -59.1485 -2
      vertex -44.9659 -59.1485 2
    endloop
  endfacet
  facet normal 0.947066 0.321039 0
    outer loop
      vertex -44.9659 -59.1485 -2
      vertex -44.9239 -59.2724 2
      vertex -44.9239 -59.2724 -2
    endloop
  endfacet
  facet normal 0.980815 -0.19494 0
    outer loop
      vertex -44.9914 -58.7592 2
      vertex -44.9659 -58.6309 -2
      vertex -44.9659 -58.6309 2
    endloop
  endfacet
  facet normal 0.980815 -0.19494 0
    outer loop
      vertex -44.9659 -58.6309 -2
      vertex -44.9914 -58.7592 2
      vertex -44.9914 -58.7592 -2
    endloop
  endfacet
  facet normal 0.659316 -0.751866 0
    outer loop
      vertex -44.7071 -58.1826 -2
      vertex -44.6088 -58.0964 2
      vertex -44.7071 -58.1826 2
    endloop
  endfacet
  facet normal 0.659316 -0.751866 0
    outer loop
      vertex -44.6088 -58.0964 2
      vertex -44.7071 -58.1826 -2
      vertex -44.6088 -58.0964 -2
    endloop
  endfacet
  facet normal -0.321725 0.946833 0
    outer loop
      vertex -43.6173 -59.8136 -2
      vertex -43.7412 -59.8557 2
      vertex -43.6173 -59.8136 2
    endloop
  endfacet
  facet normal -0.321725 0.946833 0
    outer loop
      vertex -43.7412 -59.8557 2
      vertex -43.6173 -59.8136 -2
      vertex -43.7412 -59.8557 -2
    endloop
  endfacet
  facet normal -0.321039 -0.947066 0
    outer loop
      vertex -43.7412 -57.9238 -2
      vertex -43.6173 -57.9658 2
      vertex -43.7412 -57.9238 2
    endloop
  endfacet
  facet normal -0.321039 -0.947066 -0
    outer loop
      vertex -43.6173 -57.9658 2
      vertex -43.7412 -57.9238 -2
      vertex -43.6173 -57.9658 -2
    endloop
  endfacet
  facet normal 0.442006 0.897012 -0
    outer loop
      vertex -44.3827 -59.8136 -2
      vertex -44.5 -59.7558 2
      vertex -44.3827 -59.8136 2
    endloop
  endfacet
  facet normal 0.442006 0.897012 0
    outer loop
      vertex -44.5 -59.7558 2
      vertex -44.3827 -59.8136 -2
      vertex -44.5 -59.7558 -2
    endloop
  endfacet
  facet normal -0.659316 -0.751866 0
    outer loop
      vertex -43.3912 -58.0964 -2
      vertex -43.2929 -58.1826 2
      vertex -43.3912 -58.0964 2
    endloop
  endfacet
  facet normal -0.659316 -0.751866 -0
    outer loop
      vertex -43.2929 -58.1826 2
      vertex -43.3912 -58.0964 -2
      vertex -43.2929 -58.1826 -2
    endloop
  endfacet
  facet normal 0.0657577 -0.997836 0
    outer loop
      vertex -44.1305 -57.8983 -2
      vertex -44 -57.8897 2
      vertex -44.1305 -57.8983 2
    endloop
  endfacet
  facet normal 0.0657577 -0.997836 0
    outer loop
      vertex -44 -57.8897 2
      vertex -44.1305 -57.8983 -2
      vertex -44 -57.8897 -2
    endloop
  endfacet
  facet normal -0.980786 0.195086 0
    outer loop
      vertex -43.0341 -59.1485 -2
      vertex -43.0086 -59.0203 2
      vertex -43.0086 -59.0203 -2
    endloop
  endfacet
  facet normal -0.980786 0.195086 0
    outer loop
      vertex -43.0086 -59.0203 2
      vertex -43.0341 -59.1485 -2
      vertex -43.0341 -59.1485 2
    endloop
  endfacet
  facet normal -0.831815 0.555053 0
    outer loop
      vertex -43.2066 -59.4985 -2
      vertex -43.134 -59.3897 2
      vertex -43.134 -59.3897 -2
    endloop
  endfacet
  facet normal -0.831815 0.555053 0
    outer loop
      vertex -43.134 -59.3897 2
      vertex -43.2066 -59.4985 -2
      vertex -43.2066 -59.4985 2
    endloop
  endfacet
  facet normal 0.896709 -0.442621 0
    outer loop
      vertex -44.9239 -58.507 2
      vertex -44.866 -58.3897 -2
      vertex -44.866 -58.3897 2
    endloop
  endfacet
  facet normal 0.896709 -0.442621 0
    outer loop
      vertex -44.866 -58.3897 -2
      vertex -44.9239 -58.507 2
      vertex -44.9239 -58.507 -2
    endloop
  endfacet
  facet normal 0.831815 0.555053 0
    outer loop
      vertex -44.7934 -59.4985 2
      vertex -44.866 -59.3897 -2
      vertex -44.866 -59.3897 2
    endloop
  endfacet
  facet normal 0.831815 0.555053 0
    outer loop
      vertex -44.866 -59.3897 -2
      vertex -44.7934 -59.4985 2
      vertex -44.7934 -59.4985 -2
    endloop
  endfacet
  facet normal 0.751486 0.659749 0
    outer loop
      vertex -44.7071 -59.5968 2
      vertex -44.7934 -59.4985 -2
      vertex -44.7934 -59.4985 2
    endloop
  endfacet
  facet normal 0.751486 0.659749 0
    outer loop
      vertex -44.7934 -59.4985 -2
      vertex -44.7071 -59.5968 2
      vertex -44.7071 -59.5968 -2
    endloop
  endfacet
  facet normal 0.659749 0.751486 -0
    outer loop
      vertex -44.6088 -59.6831 -2
      vertex -44.7071 -59.5968 2
      vertex -44.6088 -59.6831 2
    endloop
  endfacet
  facet normal 0.659749 0.751486 0
    outer loop
      vertex -44.7071 -59.5968 2
      vertex -44.6088 -59.6831 -2
      vertex -44.7071 -59.5968 -2
    endloop
  endfacet
  facet normal 0.947066 -0.321039 0
    outer loop
      vertex -44.9659 -58.6309 2
      vertex -44.9239 -58.507 -2
      vertex -44.9239 -58.507 2
    endloop
  endfacet
  facet normal 0.947066 -0.321039 0
    outer loop
      vertex -44.9239 -58.507 -2
      vertex -44.9659 -58.6309 2
      vertex -44.9659 -58.6309 -2
    endloop
  endfacet
  facet normal 0.997839 0.0657076 0
    outer loop
      vertex -44.9914 -59.0203 2
      vertex -45 -58.8897 -2
      vertex -45 -58.8897 2
    endloop
  endfacet
  facet normal 0.997839 0.0657076 0
    outer loop
      vertex -45 -58.8897 -2
      vertex -44.9914 -59.0203 2
      vertex -44.9914 -59.0203 -2
    endloop
  endfacet
  facet normal 0.19494 0.980815 -0
    outer loop
      vertex -44.1305 -59.8812 -2
      vertex -44.2588 -59.8557 2
      vertex -44.1305 -59.8812 2
    endloop
  endfacet
  facet normal 0.19494 0.980815 0
    outer loop
      vertex -44.2588 -59.8557 2
      vertex -44.1305 -59.8812 -2
      vertex -44.2588 -59.8557 -2
    endloop
  endfacet
  facet normal 0.321039 -0.947066 0
    outer loop
      vertex -44.3827 -57.9658 -2
      vertex -44.2588 -57.9238 2
      vertex -44.3827 -57.9658 2
    endloop
  endfacet
  facet normal 0.321039 -0.947066 0
    outer loop
      vertex -44.2588 -57.9238 2
      vertex -44.3827 -57.9658 -2
      vertex -44.2588 -57.9238 -2
    endloop
  endfacet
  facet normal -0.555582 -0.831462 0
    outer loop
      vertex -43.5 -58.0237 -2
      vertex -43.3912 -58.0964 2
      vertex -43.5 -58.0237 2
    endloop
  endfacet
  facet normal -0.555582 -0.831462 -0
    outer loop
      vertex -43.3912 -58.0964 2
      vertex -43.5 -58.0237 -2
      vertex -43.3912 -58.0964 -2
    endloop
  endfacet
  facet normal -0.947066 -0.321039 0
    outer loop
      vertex -43.0341 -58.6309 -2
      vertex -43.0761 -58.507 2
      vertex -43.0761 -58.507 -2
    endloop
  endfacet
  facet normal -0.947066 -0.321039 0
    outer loop
      vertex -43.0761 -58.507 2
      vertex -43.0341 -58.6309 -2
      vertex -43.0341 -58.6309 2
    endloop
  endfacet
  facet normal 0.997836 -0.0657577 0
    outer loop
      vertex -45 -58.8897 2
      vertex -44.9914 -58.7592 -2
      vertex -44.9914 -58.7592 2
    endloop
  endfacet
  facet normal 0.997836 -0.0657577 0
    outer loop
      vertex -44.9914 -58.7592 -2
      vertex -45 -58.8897 2
      vertex -45 -58.8897 -2
    endloop
  endfacet
  facet normal 0.19494 -0.980815 0
    outer loop
      vertex -44.2588 -57.9238 -2
      vertex -44.1305 -57.8983 2
      vertex -44.2588 -57.9238 2
    endloop
  endfacet
  facet normal 0.19494 -0.980815 0
    outer loop
      vertex -44.1305 -57.8983 2
      vertex -44.2588 -57.9238 -2
      vertex -44.1305 -57.8983 -2
    endloop
  endfacet
  facet normal 0.896709 0.442621 0
    outer loop
      vertex -44.866 -59.3897 2
      vertex -44.9239 -59.2724 -2
      vertex -44.9239 -59.2724 2
    endloop
  endfacet
  facet normal 0.896709 0.442621 0
    outer loop
      vertex -44.9239 -59.2724 -2
      vertex -44.866 -59.3897 2
      vertex -44.866 -59.3897 -2
    endloop
  endfacet
  facet normal -0.0649964 0.997886 0
    outer loop
      vertex -43.8695 -59.8812 -2
      vertex -44 -59.8897 2
      vertex -43.8695 -59.8812 2
    endloop
  endfacet
  facet normal -0.0649964 0.997886 0
    outer loop
      vertex -44 -59.8897 2
      vertex -43.8695 -59.8812 -2
      vertex -44 -59.8897 -2
    endloop
  endfacet
  facet normal -0.947066 0.321039 0
    outer loop
      vertex -43.0761 -59.2724 -2
      vertex -43.0341 -59.1485 2
      vertex -43.0341 -59.1485 -2
    endloop
  endfacet
  facet normal -0.947066 0.321039 0
    outer loop
      vertex -43.0341 -59.1485 2
      vertex -43.0761 -59.2724 -2
      vertex -43.0761 -59.2724 2
    endloop
  endfacet
  facet normal 0.555582 0.831462 -0
    outer loop
      vertex -44.5 -59.7558 -2
      vertex -44.6088 -59.6831 2
      vertex -44.5 -59.7558 2
    endloop
  endfacet
  facet normal 0.555582 0.831462 0
    outer loop
      vertex -44.6088 -59.6831 2
      vertex -44.5 -59.7558 -2
      vertex -44.6088 -59.6831 -2
    endloop
  endfacet
  facet normal -0.19494 -0.980815 0
    outer loop
      vertex -43.8695 -57.8983 -2
      vertex -43.7412 -57.9238 2
      vertex -43.8695 -57.8983 2
    endloop
  endfacet
  facet normal -0.19494 -0.980815 -0
    outer loop
      vertex -43.7412 -57.9238 2
      vertex -43.8695 -57.8983 -2
      vertex -43.7412 -57.9238 -2
    endloop
  endfacet
  facet normal 0.751819 -0.65937 0
    outer loop
      vertex -44.7934 -58.281 2
      vertex -44.7071 -58.1826 -2
      vertex -44.7071 -58.1826 2
    endloop
  endfacet
  facet normal 0.751819 -0.65937 0
    outer loop
      vertex -44.7071 -58.1826 -2
      vertex -44.7934 -58.281 2
      vertex -44.7934 -58.281 -2
    endloop
  endfacet
endsolid OpenSCAD_Model
