solid OpenSCAD_Model
  facet normal 0.997859 0.0654009 0
    outer loop
      vertex 31 0 70
      vertex 30.7348 4.04631 -70
      vertex 30.7348 4.04631 70
    endloop
  endfacet
  facet normal 0.997859 0.0654009 0
    outer loop
      vertex 30.7348 4.04631 -70
      vertex 31 0 70
      vertex 31 0 -70
    endloop
  endfacet
  facet normal 0.980785 0.195093 0
    outer loop
      vertex 30.7348 4.04631 70
      vertex 29.9437 8.02339 -70
      vertex 29.9437 8.02339 70
    endloop
  endfacet
  facet normal 0.980785 0.195093 0
    outer loop
      vertex 29.9437 8.02339 -70
      vertex 30.7348 4.04631 70
      vertex 30.7348 4.04631 -70
    endloop
  endfacet
  facet normal 0.946933 0.321431 0
    outer loop
      vertex 29.9437 8.02339 70
      vertex 28.6403 11.8632 -70
      vertex 28.6403 11.8632 70
    endloop
  endfacet
  facet normal 0.946933 0.321431 0
    outer loop
      vertex 28.6403 11.8632 -70
      vertex 29.9437 8.02339 70
      vertex 29.9437 8.02339 -70
    endloop
  endfacet
  facet normal 0.89687 0.442294 0
    outer loop
      vertex 28.6403 11.8632 70
      vertex 26.8468 15.5 -70
      vertex 26.8468 15.5 70
    endloop
  endfacet
  facet normal 0.89687 0.442294 0
    outer loop
      vertex 26.8468 15.5 -70
      vertex 28.6403 11.8632 70
      vertex 28.6403 11.8632 -70
    endloop
  endfacet
  facet normal 0.831473 0.555565 0
    outer loop
      vertex 26.8468 15.5 70
      vertex 24.594 18.8716 -70
      vertex 24.594 18.8716 70
    endloop
  endfacet
  facet normal 0.831473 0.555565 0
    outer loop
      vertex 24.594 18.8716 -70
      vertex 26.8468 15.5 70
      vertex 26.8468 15.5 -70
    endloop
  endfacet
  facet normal 0.751832 0.659354 0
    outer loop
      vertex 24.594 18.8716 70
      vertex 21.9203 21.9203 -70
      vertex 21.9203 21.9203 70
    endloop
  endfacet
  facet normal 0.751832 0.659354 0
    outer loop
      vertex 21.9203 21.9203 -70
      vertex 24.594 18.8716 70
      vertex 24.594 18.8716 -70
    endloop
  endfacet
  facet normal 0.659354 0.751832 -0
    outer loop
      vertex 21.9203 21.9203 -70
      vertex 18.8716 24.594 70
      vertex 21.9203 21.9203 70
    endloop
  endfacet
  facet normal 0.659354 0.751832 0
    outer loop
      vertex 18.8716 24.594 70
      vertex 21.9203 21.9203 -70
      vertex 18.8716 24.594 -70
    endloop
  endfacet
  facet normal 0.555565 0.831473 -0
    outer loop
      vertex 18.8716 24.594 -70
      vertex 15.5 26.8468 70
      vertex 18.8716 24.594 70
    endloop
  endfacet
  facet normal 0.555565 0.831473 0
    outer loop
      vertex 15.5 26.8468 70
      vertex 18.8716 24.594 -70
      vertex 15.5 26.8468 -70
    endloop
  endfacet
  facet normal 0.442294 0.89687 -0
    outer loop
      vertex 15.5 26.8468 -70
      vertex 11.8632 28.6403 70
      vertex 15.5 26.8468 70
    endloop
  endfacet
  facet normal 0.442294 0.89687 0
    outer loop
      vertex 11.8632 28.6403 70
      vertex 15.5 26.8468 -70
      vertex 11.8632 28.6403 -70
    endloop
  endfacet
  facet normal 0.321431 0.946933 -0
    outer loop
      vertex 11.8632 28.6403 -70
      vertex 8.02339 29.9437 70
      vertex 11.8632 28.6403 70
    endloop
  endfacet
  facet normal 0.321431 0.946933 0
    outer loop
      vertex 8.02339 29.9437 70
      vertex 11.8632 28.6403 -70
      vertex 8.02339 29.9437 -70
    endloop
  endfacet
  facet normal 0.195093 0.980785 -0
    outer loop
      vertex 8.02339 29.9437 -70
      vertex 4.04631 30.7348 70
      vertex 8.02339 29.9437 70
    endloop
  endfacet
  facet normal 0.195093 0.980785 0
    outer loop
      vertex 4.04631 30.7348 70
      vertex 8.02339 29.9437 -70
      vertex 4.04631 30.7348 -70
    endloop
  endfacet
  facet normal 0.0654009 0.997859 -0
    outer loop
      vertex 4.04631 30.7348 -70
      vertex 0 31 70
      vertex 4.04631 30.7348 70
    endloop
  endfacet
  facet normal 0.0654009 0.997859 0
    outer loop
      vertex 0 31 70
      vertex 4.04631 30.7348 -70
      vertex 0 31 -70
    endloop
  endfacet
  facet normal -0.0654009 0.997859 0
    outer loop
      vertex 0 31 -70
      vertex -4.04631 30.7348 70
      vertex 0 31 70
    endloop
  endfacet
  facet normal -0.0654009 0.997859 0
    outer loop
      vertex -4.04631 30.7348 70
      vertex 0 31 -70
      vertex -4.04631 30.7348 -70
    endloop
  endfacet
  facet normal -0.195093 0.980785 0
    outer loop
      vertex -4.04631 30.7348 -70
      vertex -8.02339 29.9437 70
      vertex -4.04631 30.7348 70
    endloop
  endfacet
  facet normal -0.195093 0.980785 0
    outer loop
      vertex -8.02339 29.9437 70
      vertex -4.04631 30.7348 -70
      vertex -8.02339 29.9437 -70
    endloop
  endfacet
  facet normal -0.321431 0.946933 0
    outer loop
      vertex -8.02339 29.9437 -70
      vertex -11.8632 28.6403 70
      vertex -8.02339 29.9437 70
    endloop
  endfacet
  facet normal -0.321431 0.946933 0
    outer loop
      vertex -11.8632 28.6403 70
      vertex -8.02339 29.9437 -70
      vertex -11.8632 28.6403 -70
    endloop
  endfacet
  facet normal -0.442294 0.89687 0
    outer loop
      vertex -11.8632 28.6403 -70
      vertex -15.5 26.8468 70
      vertex -11.8632 28.6403 70
    endloop
  endfacet
  facet normal -0.442294 0.89687 0
    outer loop
      vertex -15.5 26.8468 70
      vertex -11.8632 28.6403 -70
      vertex -15.5 26.8468 -70
    endloop
  endfacet
  facet normal -0.555565 0.831473 0
    outer loop
      vertex -15.5 26.8468 -70
      vertex -18.8716 24.594 70
      vertex -15.5 26.8468 70
    endloop
  endfacet
  facet normal -0.555565 0.831473 0
    outer loop
      vertex -18.8716 24.594 70
      vertex -15.5 26.8468 -70
      vertex -18.8716 24.594 -70
    endloop
  endfacet
  facet normal -0.659354 0.751832 0
    outer loop
      vertex -18.8716 24.594 -70
      vertex -21.9203 21.9203 70
      vertex -18.8716 24.594 70
    endloop
  endfacet
  facet normal -0.659354 0.751832 0
    outer loop
      vertex -21.9203 21.9203 70
      vertex -18.8716 24.594 -70
      vertex -21.9203 21.9203 -70
    endloop
  endfacet
  facet normal -0.751832 0.659354 0
    outer loop
      vertex -24.594 18.8716 -70
      vertex -21.9203 21.9203 70
      vertex -21.9203 21.9203 -70
    endloop
  endfacet
  facet normal -0.751832 0.659354 0
    outer loop
      vertex -21.9203 21.9203 70
      vertex -24.594 18.8716 -70
      vertex -24.594 18.8716 70
    endloop
  endfacet
  facet normal -0.831473 0.555565 0
    outer loop
      vertex -26.8468 15.5 -70
      vertex -24.594 18.8716 70
      vertex -24.594 18.8716 -70
    endloop
  endfacet
  facet normal -0.831473 0.555565 0
    outer loop
      vertex -24.594 18.8716 70
      vertex -26.8468 15.5 -70
      vertex -26.8468 15.5 70
    endloop
  endfacet
  facet normal -0.89687 0.442294 0
    outer loop
      vertex -28.6403 11.8632 -70
      vertex -26.8468 15.5 70
      vertex -26.8468 15.5 -70
    endloop
  endfacet
  facet normal -0.89687 0.442294 0
    outer loop
      vertex -26.8468 15.5 70
      vertex -28.6403 11.8632 -70
      vertex -28.6403 11.8632 70
    endloop
  endfacet
  facet normal -0.946933 0.321431 0
    outer loop
      vertex -29.9437 8.02339 -70
      vertex -28.6403 11.8632 70
      vertex -28.6403 11.8632 -70
    endloop
  endfacet
  facet normal -0.946933 0.321431 0
    outer loop
      vertex -28.6403 11.8632 70
      vertex -29.9437 8.02339 -70
      vertex -29.9437 8.02339 70
    endloop
  endfacet
  facet normal -0.980785 0.195093 0
    outer loop
      vertex -30.7348 4.04631 -70
      vertex -29.9437 8.02339 70
      vertex -29.9437 8.02339 -70
    endloop
  endfacet
  facet normal -0.980785 0.195093 0
    outer loop
      vertex -29.9437 8.02339 70
      vertex -30.7348 4.04631 -70
      vertex -30.7348 4.04631 70
    endloop
  endfacet
  facet normal -0.997859 0.0654009 0
    outer loop
      vertex -31 -0 -70
      vertex -30.7348 4.04631 70
      vertex -30.7348 4.04631 -70
    endloop
  endfacet
  facet normal -0.997859 0.0654009 0
    outer loop
      vertex -30.7348 4.04631 70
      vertex -31 -0 -70
      vertex -31 -0 70
    endloop
  endfacet
  facet normal -0.997859 -0.0654009 0
    outer loop
      vertex -30.7348 -4.04631 -70
      vertex -31 -0 70
      vertex -31 -0 -70
    endloop
  endfacet
  facet normal -0.997859 -0.0654009 0
    outer loop
      vertex -31 -0 70
      vertex -30.7348 -4.04631 -70
      vertex -30.7348 -4.04631 70
    endloop
  endfacet
  facet normal -0.980785 -0.195093 0
    outer loop
      vertex -29.9437 -8.02339 -70
      vertex -30.7348 -4.04631 70
      vertex -30.7348 -4.04631 -70
    endloop
  endfacet
  facet normal -0.980785 -0.195093 0
    outer loop
      vertex -30.7348 -4.04631 70
      vertex -29.9437 -8.02339 -70
      vertex -29.9437 -8.02339 70
    endloop
  endfacet
  facet normal -0.946933 -0.321431 0
    outer loop
      vertex -28.6403 -11.8632 -70
      vertex -29.9437 -8.02339 70
      vertex -29.9437 -8.02339 -70
    endloop
  endfacet
  facet normal -0.946933 -0.321431 0
    outer loop
      vertex -29.9437 -8.02339 70
      vertex -28.6403 -11.8632 -70
      vertex -28.6403 -11.8632 70
    endloop
  endfacet
  facet normal -0.89687 -0.442294 0
    outer loop
      vertex -26.8468 -15.5 -70
      vertex -28.6403 -11.8632 70
      vertex -28.6403 -11.8632 -70
    endloop
  endfacet
  facet normal -0.89687 -0.442294 0
    outer loop
      vertex -28.6403 -11.8632 70
      vertex -26.8468 -15.5 -70
      vertex -26.8468 -15.5 70
    endloop
  endfacet
  facet normal -0.831473 -0.555565 0
    outer loop
      vertex -24.594 -18.8716 -70
      vertex -26.8468 -15.5 70
      vertex -26.8468 -15.5 -70
    endloop
  endfacet
  facet normal -0.831473 -0.555565 0
    outer loop
      vertex -26.8468 -15.5 70
      vertex -24.594 -18.8716 -70
      vertex -24.594 -18.8716 70
    endloop
  endfacet
  facet normal -0.751832 -0.659354 0
    outer loop
      vertex -21.9203 -21.9203 -70
      vertex -24.594 -18.8716 70
      vertex -24.594 -18.8716 -70
    endloop
  endfacet
  facet normal -0.751832 -0.659354 0
    outer loop
      vertex -24.594 -18.8716 70
      vertex -21.9203 -21.9203 -70
      vertex -21.9203 -21.9203 70
    endloop
  endfacet
  facet normal -0.659354 -0.751832 0
    outer loop
      vertex -21.9203 -21.9203 -70
      vertex -18.8716 -24.594 70
      vertex -21.9203 -21.9203 70
    endloop
  endfacet
  facet normal -0.659354 -0.751832 -0
    outer loop
      vertex -18.8716 -24.594 70
      vertex -21.9203 -21.9203 -70
      vertex -18.8716 -24.594 -70
    endloop
  endfacet
  facet normal -0.555565 -0.831473 0
    outer loop
      vertex -18.8716 -24.594 -70
      vertex -15.5 -26.8468 70
      vertex -18.8716 -24.594 70
    endloop
  endfacet
  facet normal -0.555565 -0.831473 -0
    outer loop
      vertex -15.5 -26.8468 70
      vertex -18.8716 -24.594 -70
      vertex -15.5 -26.8468 -70
    endloop
  endfacet
  facet normal -0.442294 -0.89687 0
    outer loop
      vertex -15.5 -26.8468 -70
      vertex -11.8632 -28.6403 70
      vertex -15.5 -26.8468 70
    endloop
  endfacet
  facet normal -0.442294 -0.89687 -0
    outer loop
      vertex -11.8632 -28.6403 70
      vertex -15.5 -26.8468 -70
      vertex -11.8632 -28.6403 -70
    endloop
  endfacet
  facet normal -0.321431 -0.946933 0
    outer loop
      vertex -11.8632 -28.6403 -70
      vertex -8.02339 -29.9437 70
      vertex -11.8632 -28.6403 70
    endloop
  endfacet
  facet normal -0.321431 -0.946933 -0
    outer loop
      vertex -8.02339 -29.9437 70
      vertex -11.8632 -28.6403 -70
      vertex -8.02339 -29.9437 -70
    endloop
  endfacet
  facet normal -0.195093 -0.980785 0
    outer loop
      vertex -8.02339 -29.9437 -70
      vertex -4.04631 -30.7348 70
      vertex -8.02339 -29.9437 70
    endloop
  endfacet
  facet normal -0.195093 -0.980785 -0
    outer loop
      vertex -4.04631 -30.7348 70
      vertex -8.02339 -29.9437 -70
      vertex -4.04631 -30.7348 -70
    endloop
  endfacet
  facet normal -0.0654009 -0.997859 0
    outer loop
      vertex -4.04631 -30.7348 -70
      vertex -0 -31 70
      vertex -4.04631 -30.7348 70
    endloop
  endfacet
  facet normal -0.0654009 -0.997859 -0
    outer loop
      vertex -0 -31 70
      vertex -4.04631 -30.7348 -70
      vertex -0 -31 -70
    endloop
  endfacet
  facet normal 0.0654009 -0.997859 0
    outer loop
      vertex -0 -31 -70
      vertex 4.04631 -30.7348 70
      vertex -0 -31 70
    endloop
  endfacet
  facet normal 0.0654009 -0.997859 0
    outer loop
      vertex 4.04631 -30.7348 70
      vertex -0 -31 -70
      vertex 4.04631 -30.7348 -70
    endloop
  endfacet
  facet normal 0.195093 -0.980785 0
    outer loop
      vertex 4.04631 -30.7348 -70
      vertex 8.02339 -29.9437 70
      vertex 4.04631 -30.7348 70
    endloop
  endfacet
  facet normal 0.195093 -0.980785 0
    outer loop
      vertex 8.02339 -29.9437 70
      vertex 4.04631 -30.7348 -70
      vertex 8.02339 -29.9437 -70
    endloop
  endfacet
  facet normal 0.321431 -0.946933 0
    outer loop
      vertex 8.02339 -29.9437 -70
      vertex 11.8632 -28.6403 70
      vertex 8.02339 -29.9437 70
    endloop
  endfacet
  facet normal 0.321431 -0.946933 0
    outer loop
      vertex 11.8632 -28.6403 70
      vertex 8.02339 -29.9437 -70
      vertex 11.8632 -28.6403 -70
    endloop
  endfacet
  facet normal 0.442294 -0.89687 0
    outer loop
      vertex 11.8632 -28.6403 -70
      vertex 15.5 -26.8468 70
      vertex 11.8632 -28.6403 70
    endloop
  endfacet
  facet normal 0.442294 -0.89687 0
    outer loop
      vertex 15.5 -26.8468 70
      vertex 11.8632 -28.6403 -70
      vertex 15.5 -26.8468 -70
    endloop
  endfacet
  facet normal 0.555565 -0.831473 0
    outer loop
      vertex 15.5 -26.8468 -70
      vertex 18.8716 -24.594 70
      vertex 15.5 -26.8468 70
    endloop
  endfacet
  facet normal 0.555565 -0.831473 0
    outer loop
      vertex 18.8716 -24.594 70
      vertex 15.5 -26.8468 -70
      vertex 18.8716 -24.594 -70
    endloop
  endfacet
  facet normal 0.659354 -0.751832 0
    outer loop
      vertex 18.8716 -24.594 -70
      vertex 21.9203 -21.9203 70
      vertex 18.8716 -24.594 70
    endloop
  endfacet
  facet normal 0.659354 -0.751832 0
    outer loop
      vertex 21.9203 -21.9203 70
      vertex 18.8716 -24.594 -70
      vertex 21.9203 -21.9203 -70
    endloop
  endfacet
  facet normal 0.751832 -0.659354 0
    outer loop
      vertex 21.9203 -21.9203 70
      vertex 24.594 -18.8716 -70
      vertex 24.594 -18.8716 70
    endloop
  endfacet
  facet normal 0.751832 -0.659354 0
    outer loop
      vertex 24.594 -18.8716 -70
      vertex 21.9203 -21.9203 70
      vertex 21.9203 -21.9203 -70
    endloop
  endfacet
  facet normal 0.831473 -0.555565 0
    outer loop
      vertex 24.594 -18.8716 70
      vertex 26.8468 -15.5 -70
      vertex 26.8468 -15.5 70
    endloop
  endfacet
  facet normal 0.831473 -0.555565 0
    outer loop
      vertex 26.8468 -15.5 -70
      vertex 24.594 -18.8716 70
      vertex 24.594 -18.8716 -70
    endloop
  endfacet
  facet normal 0.89687 -0.442294 0
    outer loop
      vertex 26.8468 -15.5 70
      vertex 28.6403 -11.8632 -70
      vertex 28.6403 -11.8632 70
    endloop
  endfacet
  facet normal 0.89687 -0.442294 0
    outer loop
      vertex 28.6403 -11.8632 -70
      vertex 26.8468 -15.5 70
      vertex 26.8468 -15.5 -70
    endloop
  endfacet
  facet normal 0.946933 -0.321431 0
    outer loop
      vertex 28.6403 -11.8632 70
      vertex 29.9437 -8.02339 -70
      vertex 29.9437 -8.02339 70
    endloop
  endfacet
  facet normal 0.946933 -0.321431 0
    outer loop
      vertex 29.9437 -8.02339 -70
      vertex 28.6403 -11.8632 70
      vertex 28.6403 -11.8632 -70
    endloop
  endfacet
  facet normal 0.980785 -0.195093 0
    outer loop
      vertex 29.9437 -8.02339 70
      vertex 30.7348 -4.04631 -70
      vertex 30.7348 -4.04631 70
    endloop
  endfacet
  facet normal 0.980785 -0.195093 0
    outer loop
      vertex 30.7348 -4.04631 -70
      vertex 29.9437 -8.02339 70
      vertex 29.9437 -8.02339 -70
    endloop
  endfacet
  facet normal 0.997859 -0.0654009 0
    outer loop
      vertex 30.7348 -4.04631 70
      vertex 31 0 -70
      vertex 31 0 70
    endloop
  endfacet
  facet normal 0.997859 -0.0654009 0
    outer loop
      vertex 31 0 -70
      vertex 30.7348 -4.04631 70
      vertex 30.7348 -4.04631 -70
    endloop
  endfacet
  facet normal 0 0 -1
    outer loop
      vertex 30.7348 -4.04631 -70
      vertex 30.7348 4.04631 -70
      vertex 31 0 -70
    endloop
  endfacet
  facet normal 0 0 -1
    outer loop
      vertex 29.9437 -8.02339 -70
      vertex 30.7348 4.04631 -70
      vertex 30.7348 -4.04631 -70
    endloop
  endfacet
  facet normal 0 0 -1
    outer loop
      vertex 29.9437 -8.02339 -70
      vertex 29.9437 8.02339 -70
      vertex 30.7348 4.04631 -70
    endloop
  endfacet
  facet normal 0 0 -1
    outer loop
      vertex 28.6403 -11.8632 -70
      vertex 29.9437 8.02339 -70
      vertex 29.9437 -8.02339 -70
    endloop
  endfacet
  facet normal 0 0 -1
    outer loop
      vertex 28.6403 -11.8632 -70
      vertex 28.6403 11.8632 -70
      vertex 29.9437 8.02339 -70
    endloop
  endfacet
  facet normal 0 0 -1
    outer loop
      vertex 26.8468 -15.5 -70
      vertex 28.6403 11.8632 -70
      vertex 28.6403 -11.8632 -70
    endloop
  endfacet
  facet normal 0 0 -1
    outer loop
      vertex 26.8468 -15.5 -70
      vertex 26.8468 15.5 -70
      vertex 28.6403 11.8632 -70
    endloop
  endfacet
  facet normal 0 0 -1
    outer loop
      vertex 24.594 -18.8716 -70
      vertex 26.8468 15.5 -70
      vertex 26.8468 -15.5 -70
    endloop
  endfacet
  facet normal 0 0 -1
    outer loop
      vertex 24.594 -18.8716 -70
      vertex 24.594 18.8716 -70
      vertex 26.8468 15.5 -70
    endloop
  endfacet
  facet normal 0 0 -1
    outer loop
      vertex 21.9203 -21.9203 -70
      vertex 24.594 18.8716 -70
      vertex 24.594 -18.8716 -70
    endloop
  endfacet
  facet normal 0 0 -1
    outer loop
      vertex 21.9203 -21.9203 -70
      vertex 21.9203 21.9203 -70
      vertex 24.594 18.8716 -70
    endloop
  endfacet
  facet normal 0 0 -1
    outer loop
      vertex 18.8716 -24.594 -70
      vertex 21.9203 21.9203 -70
      vertex 21.9203 -21.9203 -70
    endloop
  endfacet
  facet normal 0 0 -1
    outer loop
      vertex 18.8716 -24.594 -70
      vertex 18.8716 24.594 -70
      vertex 21.9203 21.9203 -70
    endloop
  endfacet
  facet normal 0 0 -1
    outer loop
      vertex 15.5 -26.8468 -70
      vertex 18.8716 24.594 -70
      vertex 18.8716 -24.594 -70
    endloop
  endfacet
  facet normal 0 0 -1
    outer loop
      vertex 15.5 -26.8468 -70
      vertex 15.5 26.8468 -70
      vertex 18.8716 24.594 -70
    endloop
  endfacet
  facet normal 0 0 -1
    outer loop
      vertex 11.8632 -28.6403 -70
      vertex 15.5 26.8468 -70
      vertex 15.5 -26.8468 -70
    endloop
  endfacet
  facet normal 0 0 -1
    outer loop
      vertex 11.8632 -28.6403 -70
      vertex 11.8632 28.6403 -70
      vertex 15.5 26.8468 -70
    endloop
  endfacet
  facet normal 0 0 -1
    outer loop
      vertex 8.02339 -29.9437 -70
      vertex 11.8632 28.6403 -70
      vertex 11.8632 -28.6403 -70
    endloop
  endfacet
  facet normal 0 0 -1
    outer loop
      vertex 8.02339 -29.9437 -70
      vertex 8.02339 29.9437 -70
      vertex 11.8632 28.6403 -70
    endloop
  endfacet
  facet normal 0 0 -1
    outer loop
      vertex 4.04631 -30.7348 -70
      vertex 8.02339 29.9437 -70
      vertex 8.02339 -29.9437 -70
    endloop
  endfacet
  facet normal 0 0 -1
    outer loop
      vertex 4.04631 -30.7348 -70
      vertex 4.04631 30.7348 -70
      vertex 8.02339 29.9437 -70
    endloop
  endfacet
  facet normal 0 0 -1
    outer loop
      vertex -0 -31 -70
      vertex 4.04631 30.7348 -70
      vertex 4.04631 -30.7348 -70
    endloop
  endfacet
  facet normal 0 0 -1
    outer loop
      vertex -0 -31 -70
      vertex 0 31 -70
      vertex 4.04631 30.7348 -70
    endloop
  endfacet
  facet normal 0 0 -1
    outer loop
      vertex -4.04631 -30.7348 -70
      vertex 0 31 -70
      vertex -0 -31 -70
    endloop
  endfacet
  facet normal 0 0 -1
    outer loop
      vertex -4.04631 -30.7348 -70
      vertex -4.04631 30.7348 -70
      vertex 0 31 -70
    endloop
  endfacet
  facet normal 0 0 -1
    outer loop
      vertex -8.02339 -29.9437 -70
      vertex -4.04631 30.7348 -70
      vertex -4.04631 -30.7348 -70
    endloop
  endfacet
  facet normal 0 0 -1
    outer loop
      vertex -8.02339 -29.9437 -70
      vertex -8.02339 29.9437 -70
      vertex -4.04631 30.7348 -70
    endloop
  endfacet
  facet normal 0 0 -1
    outer loop
      vertex -11.8632 -28.6403 -70
      vertex -8.02339 29.9437 -70
      vertex -8.02339 -29.9437 -70
    endloop
  endfacet
  facet normal 0 0 -1
    outer loop
      vertex -11.8632 -28.6403 -70
      vertex -11.8632 28.6403 -70
      vertex -8.02339 29.9437 -70
    endloop
  endfacet
  facet normal 0 0 -1
    outer loop
      vertex -15.5 -26.8468 -70
      vertex -11.8632 28.6403 -70
      vertex -11.8632 -28.6403 -70
    endloop
  endfacet
  facet normal 0 0 -1
    outer loop
      vertex -15.5 -26.8468 -70
      vertex -15.5 26.8468 -70
      vertex -11.8632 28.6403 -70
    endloop
  endfacet
  facet normal 0 0 -1
    outer loop
      vertex -18.8716 -24.594 -70
      vertex -15.5 26.8468 -70
      vertex -15.5 -26.8468 -70
    endloop
  endfacet
  facet normal 0 0 -1
    outer loop
      vertex -18.8716 -24.594 -70
      vertex -18.8716 24.594 -70
      vertex -15.5 26.8468 -70
    endloop
  endfacet
  facet normal 0 0 -1
    outer loop
      vertex -21.9203 -21.9203 -70
      vertex -18.8716 24.594 -70
      vertex -18.8716 -24.594 -70
    endloop
  endfacet
  facet normal 0 0 -1
    outer loop
      vertex -21.9203 -21.9203 -70
      vertex -21.9203 21.9203 -70
      vertex -18.8716 24.594 -70
    endloop
  endfacet
  facet normal 0 0 -1
    outer loop
      vertex -24.594 -18.8716 -70
      vertex -21.9203 21.9203 -70
      vertex -21.9203 -21.9203 -70
    endloop
  endfacet
  facet normal 0 0 -1
    outer loop
      vertex -24.594 -18.8716 -70
      vertex -24.594 18.8716 -70
      vertex -21.9203 21.9203 -70
    endloop
  endfacet
  facet normal 0 0 -1
    outer loop
      vertex -26.8468 -15.5 -70
      vertex -24.594 18.8716 -70
      vertex -24.594 -18.8716 -70
    endloop
  endfacet
  facet normal 0 0 -1
    outer loop
      vertex -26.8468 -15.5 -70
      vertex -26.8468 15.5 -70
      vertex -24.594 18.8716 -70
    endloop
  endfacet
  facet normal 0 0 -1
    outer loop
      vertex -28.6403 -11.8632 -70
      vertex -26.8468 15.5 -70
      vertex -26.8468 -15.5 -70
    endloop
  endfacet
  facet normal 0 0 -1
    outer loop
      vertex -28.6403 -11.8632 -70
      vertex -28.6403 11.8632 -70
      vertex -26.8468 15.5 -70
    endloop
  endfacet
  facet normal 0 0 -1
    outer loop
      vertex -29.9437 -8.02339 -70
      vertex -28.6403 11.8632 -70
      vertex -28.6403 -11.8632 -70
    endloop
  endfacet
  facet normal 0 0 -1
    outer loop
      vertex -29.9437 -8.02339 -70
      vertex -29.9437 8.02339 -70
      vertex -28.6403 11.8632 -70
    endloop
  endfacet
  facet normal 0 0 -1
    outer loop
      vertex -30.7348 -4.04631 -70
      vertex -29.9437 8.02339 -70
      vertex -29.9437 -8.02339 -70
    endloop
  endfacet
  facet normal 0 0 -1
    outer loop
      vertex -30.7348 -4.04631 -70
      vertex -30.7348 4.04631 -70
      vertex -29.9437 8.02339 -70
    endloop
  endfacet
  facet normal 0 -0 -1
    outer loop
      vertex -30.7348 4.04631 -70
      vertex -30.7348 -4.04631 -70
      vertex -31 -0 -70
    endloop
  endfacet
  facet normal 0 0 1
    outer loop
      vertex 30.7348 4.04631 70
      vertex 30.7348 -4.04631 70
      vertex 31 0 70
    endloop
  endfacet
  facet normal 0 0 1
    outer loop
      vertex 29.9437 8.02339 70
      vertex 30.7348 -4.04631 70
      vertex 30.7348 4.04631 70
    endloop
  endfacet
  facet normal 0 0 1
    outer loop
      vertex 29.9437 8.02339 70
      vertex 29.9437 -8.02339 70
      vertex 30.7348 -4.04631 70
    endloop
  endfacet
  facet normal 0 0 1
    outer loop
      vertex 28.6403 11.8632 70
      vertex 29.9437 -8.02339 70
      vertex 29.9437 8.02339 70
    endloop
  endfacet
  facet normal 0 0 1
    outer loop
      vertex 28.6403 11.8632 70
      vertex 28.6403 -11.8632 70
      vertex 29.9437 -8.02339 70
    endloop
  endfacet
  facet normal 0 0 1
    outer loop
      vertex 26.8468 15.5 70
      vertex 28.6403 -11.8632 70
      vertex 28.6403 11.8632 70
    endloop
  endfacet
  facet normal 0 0 1
    outer loop
      vertex 26.8468 15.5 70
      vertex 26.8468 -15.5 70
      vertex 28.6403 -11.8632 70
    endloop
  endfacet
  facet normal 0 0 1
    outer loop
      vertex 24.594 18.8716 70
      vertex 26.8468 -15.5 70
      vertex 26.8468 15.5 70
    endloop
  endfacet
  facet normal 0 0 1
    outer loop
      vertex 24.594 18.8716 70
      vertex 24.594 -18.8716 70
      vertex 26.8468 -15.5 70
    endloop
  endfacet
  facet normal 0 0 1
    outer loop
      vertex 21.9203 21.9203 70
      vertex 24.594 -18.8716 70
      vertex 24.594 18.8716 70
    endloop
  endfacet
  facet normal 0 0 1
    outer loop
      vertex 21.9203 21.9203 70
      vertex 21.9203 -21.9203 70
      vertex 24.594 -18.8716 70
    endloop
  endfacet
  facet normal 0 0 1
    outer loop
      vertex 18.8716 24.594 70
      vertex 21.9203 -21.9203 70
      vertex 21.9203 21.9203 70
    endloop
  endfacet
  facet normal 0 0 1
    outer loop
      vertex 18.8716 24.594 70
      vertex 18.8716 -24.594 70
      vertex 21.9203 -21.9203 70
    endloop
  endfacet
  facet normal 0 0 1
    outer loop
      vertex 15.5 26.8468 70
      vertex 18.8716 -24.594 70
      vertex 18.8716 24.594 70
    endloop
  endfacet
  facet normal 0 0 1
    outer loop
      vertex 15.5 26.8468 70
      vertex 15.5 -26.8468 70
      vertex 18.8716 -24.594 70
    endloop
  endfacet
  facet normal 0 0 1
    outer loop
      vertex 11.8632 28.6403 70
      vertex 15.5 -26.8468 70
      vertex 15.5 26.8468 70
    endloop
  endfacet
  facet normal 0 0 1
    outer loop
      vertex 11.8632 28.6403 70
      vertex 11.8632 -28.6403 70
      vertex 15.5 -26.8468 70
    endloop
  endfacet
  facet normal 0 0 1
    outer loop
      vertex 8.02339 29.9437 70
      vertex 11.8632 -28.6403 70
      vertex 11.8632 28.6403 70
    endloop
  endfacet
  facet normal 0 0 1
    outer loop
      vertex 8.02339 29.9437 70
      vertex 8.02339 -29.9437 70
      vertex 11.8632 -28.6403 70
    endloop
  endfacet
  facet normal 0 0 1
    outer loop
      vertex 4.04631 30.7348 70
      vertex 8.02339 -29.9437 70
      vertex 8.02339 29.9437 70
    endloop
  endfacet
  facet normal 0 0 1
    outer loop
      vertex 4.04631 30.7348 70
      vertex 4.04631 -30.7348 70
      vertex 8.02339 -29.9437 70
    endloop
  endfacet
  facet normal 0 0 1
    outer loop
      vertex 0 31 70
      vertex 4.04631 -30.7348 70
      vertex 4.04631 30.7348 70
    endloop
  endfacet
  facet normal 0 0 1
    outer loop
      vertex 0 31 70
      vertex -0 -31 70
      vertex 4.04631 -30.7348 70
    endloop
  endfacet
  facet normal -0 0 1
    outer loop
      vertex -4.04631 30.7348 70
      vertex -0 -31 70
      vertex 0 31 70
    endloop
  endfacet
  facet normal 0 0 1
    outer loop
      vertex -4.04631 30.7348 70
      vertex -4.04631 -30.7348 70
      vertex -0 -31 70
    endloop
  endfacet
  facet normal -0 0 1
    outer loop
      vertex -8.02339 29.9437 70
      vertex -4.04631 -30.7348 70
      vertex -4.04631 30.7348 70
    endloop
  endfacet
  facet normal 0 0 1
    outer loop
      vertex -8.02339 29.9437 70
      vertex -8.02339 -29.9437 70
      vertex -4.04631 -30.7348 70
    endloop
  endfacet
  facet normal -0 0 1
    outer loop
      vertex -11.8632 28.6403 70
      vertex -8.02339 -29.9437 70
      vertex -8.02339 29.9437 70
    endloop
  endfacet
  facet normal 0 0 1
    outer loop
      vertex -11.8632 28.6403 70
      vertex -11.8632 -28.6403 70
      vertex -8.02339 -29.9437 70
    endloop
  endfacet
  facet normal -0 0 1
    outer loop
      vertex -15.5 26.8468 70
      vertex -11.8632 -28.6403 70
      vertex -11.8632 28.6403 70
    endloop
  endfacet
  facet normal 0 0 1
    outer loop
      vertex -15.5 26.8468 70
      vertex -15.5 -26.8468 70
      vertex -11.8632 -28.6403 70
    endloop
  endfacet
  facet normal -0 0 1
    outer loop
      vertex -18.8716 24.594 70
      vertex -15.5 -26.8468 70
      vertex -15.5 26.8468 70
    endloop
  endfacet
  facet normal 0 0 1
    outer loop
      vertex -18.8716 24.594 70
      vertex -18.8716 -24.594 70
      vertex -15.5 -26.8468 70
    endloop
  endfacet
  facet normal -0 0 1
    outer loop
      vertex -21.9203 21.9203 70
      vertex -18.8716 -24.594 70
      vertex -18.8716 24.594 70
    endloop
  endfacet
  facet normal 0 0 1
    outer loop
      vertex -21.9203 21.9203 70
      vertex -21.9203 -21.9203 70
      vertex -18.8716 -24.594 70
    endloop
  endfacet
  facet normal -0 0 1
    outer loop
      vertex -24.594 18.8716 70
      vertex -21.9203 -21.9203 70
      vertex -21.9203 21.9203 70
    endloop
  endfacet
  facet normal 0 0 1
    outer loop
      vertex -24.594 18.8716 70
      vertex -24.594 -18.8716 70
      vertex -21.9203 -21.9203 70
    endloop
  endfacet
  facet normal -0 0 1
    outer loop
      vertex -26.8468 15.5 70
      vertex -24.594 -18.8716 70
      vertex -24.594 18.8716 70
    endloop
  endfacet
  facet normal 0 0 1
    outer loop
      vertex -26.8468 15.5 70
      vertex -26.8468 -15.5 70
      vertex -24.594 -18.8716 70
    endloop
  endfacet
  facet normal -0 0 1
    outer loop
      vertex -28.6403 11.8632 70
      vertex -26.8468 -15.5 70
      vertex -26.8468 15.5 70
    endloop
  endfacet
  facet normal 0 0 1
    outer loop
      vertex -28.6403 11.8632 70
      vertex -28.6403 -11.8632 70
      vertex -26.8468 -15.5 70
    endloop
  endfacet
  facet normal -0 0 1
    outer loop
      vertex -29.9437 8.02339 70
      vertex -28.6403 -11.8632 70
      vertex -28.6403 11.8632 70
    endloop
  endfacet
  facet normal 0 0 1
    outer loop
      vertex -29.9437 8.02339 70
      vertex -29.9437 -8.02339 70
      vertex -28.6403 -11.8632 70
    endloop
  endfacet
  facet normal -0 0 1
    outer loop
      vertex -30.7348 4.04631 70
      vertex -29.9437 -8.02339 70
      vertex -29.9437 8.02339 70
    endloop
  endfacet
  facet normal 0 0 1
    outer loop
      vertex -30.7348 4.04631 70
      vertex -30.7348 -4.04631 70
      vertex -29.9437 -8.02339 70
    endloop
  endfacet
  facet normal 0 -0 1
    outer loop
      vertex -30.7348 -4.04631 70
      vertex -30.7348 4.04631 70
      vertex -31 -0 70
    endloop
  endfacet
endsolid OpenSCAD_Model
