solid OpenSCAD_Model
  facet normal 1 -0 0
    outer loop
      vertex 75 -50 2.5
      vertex 75 50 -2.5
      vertex 75 50 2.5
    endloop
  endfacet
  facet normal 1 0 0
    outer loop
      vertex 75 50 -2.5
      vertex 75 -50 2.5
      vertex 75 -50 -2.5
    endloop
  endfacet
  facet normal 0 0 1
    outer loop
      vertex 75 50 2.5
      vertex 70 -38 2.5
      vertex 75 -50 2.5
    endloop
  endfacet
  facet normal 0 0 1
    outer loop
      vertex 75 50 2.5
      vertex 60 -38 2.5
      vertex 70 -38 2.5
    endloop
  endfacet
  facet normal 0 0 1
    outer loop
      vertex 75 50 2.5
      vertex 5 38 2.5
      vertex 60 -38 2.5
    endloop
  endfacet
  facet normal 0 0 1
    outer loop
      vertex 5 38 2.5
      vertex 75 50 2.5
      vertex 5 42 2.5
    endloop
  endfacet
  facet normal 0 0 1
    outer loop
      vertex 75 50 2.5
      vertex -5 42 2.5
      vertex 5 42 2.5
    endloop
  endfacet
  facet normal 0 0 1
    outer loop
      vertex -75 50 2.5
      vertex -5 38 2.5
      vertex -5 42 2.5
    endloop
  endfacet
  facet normal 0 0 1
    outer loop
      vertex -5 38 2.5
      vertex -75 50 2.5
      vertex -60 -38 2.5
    endloop
  endfacet
  facet normal 0 0 1
    outer loop
      vertex -75 -50 2.5
      vertex -70 -38 2.5
      vertex -75 50 2.5
    endloop
  endfacet
  facet normal 0 0 1
    outer loop
      vertex -60 -38 2.5
      vertex -75 50 2.5
      vertex -70 -38 2.5
    endloop
  endfacet
  facet normal -0 0 1
    outer loop
      vertex -75 50 2.5
      vertex -5 42 2.5
      vertex 75 50 2.5
    endloop
  endfacet
  facet normal -0 0 1
    outer loop
      vertex 70 -42 2.5
      vertex 75 -50 2.5
      vertex 70 -38 2.5
    endloop
  endfacet
  facet normal -0 0 1
    outer loop
      vertex 60 -42 2.5
      vertex 75 -50 2.5
      vertex 70 -42 2.5
    endloop
  endfacet
  facet normal -0 0 1
    outer loop
      vertex -5 38 2.5
      vertex 60 -38 2.5
      vertex 5 38 2.5
    endloop
  endfacet
  facet normal 0 0 1
    outer loop
      vertex -60 -38 2.5
      vertex 60 -38 2.5
      vertex -5 38 2.5
    endloop
  endfacet
  facet normal 0 0 1
    outer loop
      vertex 60 -38 2.5
      vertex -60 -38 2.5
      vertex 60 -42 2.5
    endloop
  endfacet
  facet normal 0 0 1
    outer loop
      vertex -60 -42 2.5
      vertex 60 -42 2.5
      vertex -60 -38 2.5
    endloop
  endfacet
  facet normal 0 0 1
    outer loop
      vertex 60 -42 2.5
      vertex -60 -42 2.5
      vertex 75 -50 2.5
    endloop
  endfacet
  facet normal 0 0 1
    outer loop
      vertex -75 -50 2.5
      vertex -60 -42 2.5
      vertex -70 -42 2.5
    endloop
  endfacet
  facet normal 0 0 1
    outer loop
      vertex -60 -42 2.5
      vertex -75 -50 2.5
      vertex 75 -50 2.5
    endloop
  endfacet
  facet normal 0 0 1
    outer loop
      vertex -70 -38 2.5
      vertex -75 -50 2.5
      vertex -70 -42 2.5
    endloop
  endfacet
  facet normal 0 0 -1
    outer loop
      vertex 70 -38 -2.5
      vertex 75 -50 -2.5
      vertex 70 -42 -2.5
    endloop
  endfacet
  facet normal 0 0 -1
    outer loop
      vertex 75 -50 -2.5
      vertex 60 -42 -2.5
      vertex 70 -42 -2.5
    endloop
  endfacet
  facet normal 0 0 -1
    outer loop
      vertex -60 -38 -2.5
      vertex 60 -38 -2.5
      vertex 60 -42 -2.5
    endloop
  endfacet
  facet normal 0 0 -1
    outer loop
      vertex 60 -38 -2.5
      vertex -5 38 -2.5
      vertex 5 38 -2.5
    endloop
  endfacet
  facet normal 0 0 -1
    outer loop
      vertex 60 -38 -2.5
      vertex -60 -38 -2.5
      vertex -5 38 -2.5
    endloop
  endfacet
  facet normal 0 0 -1
    outer loop
      vertex -60 -38 -2.5
      vertex 60 -42 -2.5
      vertex -60 -42 -2.5
    endloop
  endfacet
  facet normal 0 0 -1
    outer loop
      vertex 75 -50 -2.5
      vertex -60 -42 -2.5
      vertex 60 -42 -2.5
    endloop
  endfacet
  facet normal 0 0 -1
    outer loop
      vertex -75 -50 -2.5
      vertex -60 -42 -2.5
      vertex 75 -50 -2.5
    endloop
  endfacet
  facet normal -0 0 -1
    outer loop
      vertex -70 -42 -2.5
      vertex -75 -50 -2.5
      vertex -70 -38 -2.5
    endloop
  endfacet
  facet normal -0 0 -1
    outer loop
      vertex -60 -42 -2.5
      vertex -75 -50 -2.5
      vertex -70 -42 -2.5
    endloop
  endfacet
  facet normal 0 0 -1
    outer loop
      vertex 75 -50 -2.5
      vertex 70 -38 -2.5
      vertex 75 50 -2.5
    endloop
  endfacet
  facet normal 0 0 -1
    outer loop
      vertex 60 -38 -2.5
      vertex 75 50 -2.5
      vertex 70 -38 -2.5
    endloop
  endfacet
  facet normal 0 0 -1
    outer loop
      vertex 5 38 -2.5
      vertex 75 50 -2.5
      vertex 60 -38 -2.5
    endloop
  endfacet
  facet normal 0 0 -1
    outer loop
      vertex 5 42 -2.5
      vertex 75 50 -2.5
      vertex 5 38 -2.5
    endloop
  endfacet
  facet normal 0 0 -1
    outer loop
      vertex -5 42 -2.5
      vertex 75 50 -2.5
      vertex 5 42 -2.5
    endloop
  endfacet
  facet normal 0 0 -1
    outer loop
      vertex -75 50 -2.5
      vertex -5 38 -2.5
      vertex -60 -38 -2.5
    endloop
  endfacet
  facet normal 0 0 -1
    outer loop
      vertex -75 50 -2.5
      vertex -60 -38 -2.5
      vertex -70 -38 -2.5
    endloop
  endfacet
  facet normal 0 0 -1
    outer loop
      vertex -5 42 -2.5
      vertex -75 50 -2.5
      vertex 75 50 -2.5
    endloop
  endfacet
  facet normal 0 0 -1
    outer loop
      vertex -5 38 -2.5
      vertex -75 50 -2.5
      vertex -5 42 -2.5
    endloop
  endfacet
  facet normal 0 0 -1
    outer loop
      vertex -75 50 -2.5
      vertex -70 -38 -2.5
      vertex -75 -50 -2.5
    endloop
  endfacet
  facet normal -1 0 0
    outer loop
      vertex -75 -50 -2.5
      vertex -75 50 2.5
      vertex -75 50 -2.5
    endloop
  endfacet
  facet normal -1 -0 0
    outer loop
      vertex -75 50 2.5
      vertex -75 -50 -2.5
      vertex -75 -50 2.5
    endloop
  endfacet
  facet normal 0 1 -0
    outer loop
      vertex 75 50 -2.5
      vertex -75 50 2.5
      vertex 75 50 2.5
    endloop
  endfacet
  facet normal 0 1 0
    outer loop
      vertex -75 50 2.5
      vertex 75 50 -2.5
      vertex -75 50 -2.5
    endloop
  endfacet
  facet normal 0 -1 0
    outer loop
      vertex -75 -50 -2.5
      vertex 75 -50 2.5
      vertex -75 -50 2.5
    endloop
  endfacet
  facet normal 0 -1 -0
    outer loop
      vertex 75 -50 2.5
      vertex -75 -50 -2.5
      vertex 75 -50 -2.5
    endloop
  endfacet
  facet normal -1 0 0
    outer loop
      vertex -60 -42 -2.5
      vertex -60 -38 2.5
      vertex -60 -38 -2.5
    endloop
  endfacet
  facet normal -1 -0 0
    outer loop
      vertex -60 -38 2.5
      vertex -60 -42 -2.5
      vertex -60 -42 2.5
    endloop
  endfacet
  facet normal 1 -0 0
    outer loop
      vertex -70 -42 2.5
      vertex -70 -38 -2.5
      vertex -70 -38 2.5
    endloop
  endfacet
  facet normal 1 0 0
    outer loop
      vertex -70 -38 -2.5
      vertex -70 -42 2.5
      vertex -70 -42 -2.5
    endloop
  endfacet
  facet normal 0 -1 0
    outer loop
      vertex -70 -38 -2.5
      vertex -60 -38 2.5
      vertex -70 -38 2.5
    endloop
  endfacet
  facet normal 0 -1 -0
    outer loop
      vertex -60 -38 2.5
      vertex -70 -38 -2.5
      vertex -60 -38 -2.5
    endloop
  endfacet
  facet normal 0 1 -0
    outer loop
      vertex -60 -42 -2.5
      vertex -70 -42 2.5
      vertex -60 -42 2.5
    endloop
  endfacet
  facet normal 0 1 0
    outer loop
      vertex -70 -42 2.5
      vertex -60 -42 -2.5
      vertex -70 -42 -2.5
    endloop
  endfacet
  facet normal -1 0 0
    outer loop
      vertex 70 -42 -2.5
      vertex 70 -38 2.5
      vertex 70 -38 -2.5
    endloop
  endfacet
  facet normal -1 -0 0
    outer loop
      vertex 70 -38 2.5
      vertex 70 -42 -2.5
      vertex 70 -42 2.5
    endloop
  endfacet
  facet normal 1 -0 0
    outer loop
      vertex 60 -42 2.5
      vertex 60 -38 -2.5
      vertex 60 -38 2.5
    endloop
  endfacet
  facet normal 1 0 0
    outer loop
      vertex 60 -38 -2.5
      vertex 60 -42 2.5
      vertex 60 -42 -2.5
    endloop
  endfacet
  facet normal 0 -1 0
    outer loop
      vertex 60 -38 -2.5
      vertex 70 -38 2.5
      vertex 60 -38 2.5
    endloop
  endfacet
  facet normal 0 -1 -0
    outer loop
      vertex 70 -38 2.5
      vertex 60 -38 -2.5
      vertex 70 -38 -2.5
    endloop
  endfacet
  facet normal 0 1 -0
    outer loop
      vertex 70 -42 -2.5
      vertex 60 -42 2.5
      vertex 70 -42 2.5
    endloop
  endfacet
  facet normal 0 1 0
    outer loop
      vertex 60 -42 2.5
      vertex 70 -42 -2.5
      vertex 60 -42 -2.5
    endloop
  endfacet
  facet normal -1 0 0
    outer loop
      vertex 5 38 -2.5
      vertex 5 42 2.5
      vertex 5 42 -2.5
    endloop
  endfacet
  facet normal -1 -0 0
    outer loop
      vertex 5 42 2.5
      vertex 5 38 -2.5
      vertex 5 38 2.5
    endloop
  endfacet
  facet normal 1 -0 0
    outer loop
      vertex -5 38 2.5
      vertex -5 42 -2.5
      vertex -5 42 2.5
    endloop
  endfacet
  facet normal 1 0 0
    outer loop
      vertex -5 42 -2.5
      vertex -5 38 2.5
      vertex -5 38 -2.5
    endloop
  endfacet
  facet normal 0 -1 0
    outer loop
      vertex -5 42 -2.5
      vertex 5 42 2.5
      vertex -5 42 2.5
    endloop
  endfacet
  facet normal 0 -1 -0
    outer loop
      vertex 5 42 2.5
      vertex -5 42 -2.5
      vertex 5 42 -2.5
    endloop
  endfacet
  facet normal 0 1 -0
    outer loop
      vertex 5 38 -2.5
      vertex -5 38 2.5
      vertex 5 38 2.5
    endloop
  endfacet
  facet normal 0 1 0
    outer loop
      vertex -5 38 2.5
      vertex 5 38 -2.5
      vertex -5 38 -2.5
    endloop
  endfacet
endsolid OpenSCAD_Model
