solid OpenSCAD_Model
  facet normal -0 0 1
    outer loop
      vertex -10 50 35
      vertex 10 -50 35
      vertex 10 50 35
    endloop
  endfacet
  facet normal 0 0 1
    outer loop
      vertex 10 -50 35
      vertex -10 50 35
      vertex -10 -50 35
    endloop
  endfacet
  facet normal 0 0 -1
    outer loop
      vertex -10 -50 -35
      vertex 10 50 -35
      vertex 10 -50 -35
    endloop
  endfacet
  facet normal -0 0 -1
    outer loop
      vertex 10 50 -35
      vertex -10 -50 -35
      vertex -10 50 -35
    endloop
  endfacet
  facet normal 0 -1 0
    outer loop
      vertex -10 -50 -35
      vertex 10 -50 35
      vertex -10 -50 35
    endloop
  endfacet
  facet normal 0 -1 -0
    outer loop
      vertex 10 -50 35
      vertex -10 -50 -35
      vertex 10 -50 -35
    endloop
  endfacet
  facet normal 1 -0 0
    outer loop
      vertex 10 -50 35
      vertex 10 50 -35
      vertex 10 50 35
    endloop
  endfacet
  facet normal 1 0 0
    outer loop
      vertex 10 50 -35
      vertex 10 -50 35
      vertex 10 -50 -35
    endloop
  endfacet
  facet normal 0 1 -0
    outer loop
      vertex 10 50 -35
      vertex -10 50 35
      vertex 10 50 35
    endloop
  endfacet
  facet normal 0 1 0
    outer loop
      vertex -10 50 35
      vertex 10 50 -35
      vertex -10 50 -35
    endloop
  endfacet
  facet normal -1 0 0
    outer loop
      vertex -10 -50 -35
      vertex -10 50 35
      vertex -10 50 -35
    endloop
  endfacet
  facet normal -1 -0 0
    outer loop
      vertex -10 50 35
      vertex -10 -50 -35
      vertex -10 -50 35
    endloop
  endfacet
endsolid OpenSCAD_Model
