solid OpenSCAD_Model
  facet normal 0.99786 0.0653933 0
    outer loop
      vertex 26 0 35
      vertex 25.7776 3.39368 -35
      vertex 25.7776 3.39368 35
    endloop
  endfacet
  facet normal 0.99786 0.0653933 0
    outer loop
      vertex 25.7776 3.39368 -35
      vertex 26 0 35
      vertex 26 0 -35
    endloop
  endfacet
  facet normal 0.980785 0.195091 0
    outer loop
      vertex 25.7776 3.39368 35
      vertex 25.1141 6.7293 -35
      vertex 25.1141 6.7293 35
    endloop
  endfacet
  facet normal 0.980785 0.195091 0
    outer loop
      vertex 25.1141 6.7293 -35
      vertex 25.7776 3.39368 35
      vertex 25.7776 3.39368 -35
    endloop
  endfacet
  facet normal 0.94693 0.321439 0
    outer loop
      vertex 25.1141 6.7293 35
      vertex 24.0209 9.94977 -35
      vertex 24.0209 9.94977 35
    endloop
  endfacet
  facet normal 0.94693 0.321439 0
    outer loop
      vertex 24.0209 9.94977 -35
      vertex 25.1141 6.7293 35
      vertex 25.1141 6.7293 -35
    endloop
  endfacet
  facet normal 0.896874 0.442287 0
    outer loop
      vertex 24.0209 9.94977 35
      vertex 22.5167 13 -35
      vertex 22.5167 13 35
    endloop
  endfacet
  facet normal 0.896874 0.442287 0
    outer loop
      vertex 22.5167 13 -35
      vertex 24.0209 9.94977 35
      vertex 24.0209 9.94977 -35
    endloop
  endfacet
  facet normal 0.831466 0.555575 0
    outer loop
      vertex 22.5167 13 35
      vertex 20.6272 15.8278 -35
      vertex 20.6272 15.8278 35
    endloop
  endfacet
  facet normal 0.831466 0.555575 0
    outer loop
      vertex 20.6272 15.8278 -35
      vertex 22.5167 13 35
      vertex 22.5167 13 -35
    endloop
  endfacet
  facet normal 0.751844 0.659341 0
    outer loop
      vertex 20.6272 15.8278 35
      vertex 18.3848 18.3848 -35
      vertex 18.3848 18.3848 35
    endloop
  endfacet
  facet normal 0.751844 0.659341 0
    outer loop
      vertex 18.3848 18.3848 -35
      vertex 20.6272 15.8278 35
      vertex 20.6272 15.8278 -35
    endloop
  endfacet
  facet normal 0.659341 0.751844 -0
    outer loop
      vertex 18.3848 18.3848 -35
      vertex 15.8278 20.6272 35
      vertex 18.3848 18.3848 35
    endloop
  endfacet
  facet normal 0.659341 0.751844 0
    outer loop
      vertex 15.8278 20.6272 35
      vertex 18.3848 18.3848 -35
      vertex 15.8278 20.6272 -35
    endloop
  endfacet
  facet normal 0.555575 0.831466 -0
    outer loop
      vertex 15.8278 20.6272 -35
      vertex 13 22.5167 35
      vertex 15.8278 20.6272 35
    endloop
  endfacet
  facet normal 0.555575 0.831466 0
    outer loop
      vertex 13 22.5167 35
      vertex 15.8278 20.6272 -35
      vertex 13 22.5167 -35
    endloop
  endfacet
  facet normal 0.442287 0.896874 -0
    outer loop
      vertex 13 22.5167 -35
      vertex 9.94977 24.0209 35
      vertex 13 22.5167 35
    endloop
  endfacet
  facet normal 0.442287 0.896874 0
    outer loop
      vertex 9.94977 24.0209 35
      vertex 13 22.5167 -35
      vertex 9.94977 24.0209 -35
    endloop
  endfacet
  facet normal 0.321439 0.94693 -0
    outer loop
      vertex 9.94977 24.0209 -35
      vertex 6.7293 25.1141 35
      vertex 9.94977 24.0209 35
    endloop
  endfacet
  facet normal 0.321439 0.94693 0
    outer loop
      vertex 6.7293 25.1141 35
      vertex 9.94977 24.0209 -35
      vertex 6.7293 25.1141 -35
    endloop
  endfacet
  facet normal 0.195091 0.980785 -0
    outer loop
      vertex 6.7293 25.1141 -35
      vertex 3.39368 25.7776 35
      vertex 6.7293 25.1141 35
    endloop
  endfacet
  facet normal 0.195091 0.980785 0
    outer loop
      vertex 3.39368 25.7776 35
      vertex 6.7293 25.1141 -35
      vertex 3.39368 25.7776 -35
    endloop
  endfacet
  facet normal 0.0653933 0.99786 -0
    outer loop
      vertex 3.39368 25.7776 -35
      vertex 0 26 35
      vertex 3.39368 25.7776 35
    endloop
  endfacet
  facet normal 0.0653933 0.99786 0
    outer loop
      vertex 0 26 35
      vertex 3.39368 25.7776 -35
      vertex 0 26 -35
    endloop
  endfacet
  facet normal -0.0653933 0.99786 0
    outer loop
      vertex 0 26 -35
      vertex -3.39368 25.7776 35
      vertex 0 26 35
    endloop
  endfacet
  facet normal -0.0653933 0.99786 0
    outer loop
      vertex -3.39368 25.7776 35
      vertex 0 26 -35
      vertex -3.39368 25.7776 -35
    endloop
  endfacet
  facet normal -0.195091 0.980785 0
    outer loop
      vertex -3.39368 25.7776 -35
      vertex -6.7293 25.1141 35
      vertex -3.39368 25.7776 35
    endloop
  endfacet
  facet normal -0.195091 0.980785 0
    outer loop
      vertex -6.7293 25.1141 35
      vertex -3.39368 25.7776 -35
      vertex -6.7293 25.1141 -35
    endloop
  endfacet
  facet normal -0.321439 0.94693 0
    outer loop
      vertex -6.7293 25.1141 -35
      vertex -9.94977 24.0209 35
      vertex -6.7293 25.1141 35
    endloop
  endfacet
  facet normal -0.321439 0.94693 0
    outer loop
      vertex -9.94977 24.0209 35
      vertex -6.7293 25.1141 -35
      vertex -9.94977 24.0209 -35
    endloop
  endfacet
  facet normal -0.442287 0.896874 0
    outer loop
      vertex -9.94977 24.0209 -35
      vertex -13 22.5167 35
      vertex -9.94977 24.0209 35
    endloop
  endfacet
  facet normal -0.442287 0.896874 0
    outer loop
      vertex -13 22.5167 35
      vertex -9.94977 24.0209 -35
      vertex -13 22.5167 -35
    endloop
  endfacet
  facet normal -0.555575 0.831466 0
    outer loop
      vertex -13 22.5167 -35
      vertex -15.8278 20.6272 35
      vertex -13 22.5167 35
    endloop
  endfacet
  facet normal -0.555575 0.831466 0
    outer loop
      vertex -15.8278 20.6272 35
      vertex -13 22.5167 -35
      vertex -15.8278 20.6272 -35
    endloop
  endfacet
  facet normal -0.659341 0.751844 0
    outer loop
      vertex -15.8278 20.6272 -35
      vertex -18.3848 18.3848 35
      vertex -15.8278 20.6272 35
    endloop
  endfacet
  facet normal -0.659341 0.751844 0
    outer loop
      vertex -18.3848 18.3848 35
      vertex -15.8278 20.6272 -35
      vertex -18.3848 18.3848 -35
    endloop
  endfacet
  facet normal -0.751844 0.659341 0
    outer loop
      vertex -20.6272 15.8278 -35
      vertex -18.3848 18.3848 35
      vertex -18.3848 18.3848 -35
    endloop
  endfacet
  facet normal -0.751844 0.659341 0
    outer loop
      vertex -18.3848 18.3848 35
      vertex -20.6272 15.8278 -35
      vertex -20.6272 15.8278 35
    endloop
  endfacet
  facet normal -0.831466 0.555575 0
    outer loop
      vertex -22.5167 13 -35
      vertex -20.6272 15.8278 35
      vertex -20.6272 15.8278 -35
    endloop
  endfacet
  facet normal -0.831466 0.555575 0
    outer loop
      vertex -20.6272 15.8278 35
      vertex -22.5167 13 -35
      vertex -22.5167 13 35
    endloop
  endfacet
  facet normal -0.896874 0.442287 0
    outer loop
      vertex -24.0209 9.94977 -35
      vertex -22.5167 13 35
      vertex -22.5167 13 -35
    endloop
  endfacet
  facet normal -0.896874 0.442287 0
    outer loop
      vertex -22.5167 13 35
      vertex -24.0209 9.94977 -35
      vertex -24.0209 9.94977 35
    endloop
  endfacet
  facet normal -0.94693 0.321439 0
    outer loop
      vertex -25.1141 6.7293 -35
      vertex -24.0209 9.94977 35
      vertex -24.0209 9.94977 -35
    endloop
  endfacet
  facet normal -0.94693 0.321439 0
    outer loop
      vertex -24.0209 9.94977 35
      vertex -25.1141 6.7293 -35
      vertex -25.1141 6.7293 35
    endloop
  endfacet
  facet normal -0.980785 0.195091 0
    outer loop
      vertex -25.7776 3.39368 -35
      vertex -25.1141 6.7293 35
      vertex -25.1141 6.7293 -35
    endloop
  endfacet
  facet normal -0.980785 0.195091 0
    outer loop
      vertex -25.1141 6.7293 35
      vertex -25.7776 3.39368 -35
      vertex -25.7776 3.39368 35
    endloop
  endfacet
  facet normal -0.99786 0.0653933 0
    outer loop
      vertex -26 -0 -35
      vertex -25.7776 3.39368 35
      vertex -25.7776 3.39368 -35
    endloop
  endfacet
  facet normal -0.99786 0.0653933 0
    outer loop
      vertex -25.7776 3.39368 35
      vertex -26 -0 -35
      vertex -26 -0 35
    endloop
  endfacet
  facet normal -0.99786 -0.0653933 0
    outer loop
      vertex -25.7776 -3.39368 -35
      vertex -26 -0 35
      vertex -26 -0 -35
    endloop
  endfacet
  facet normal -0.99786 -0.0653933 0
    outer loop
      vertex -26 -0 35
      vertex -25.7776 -3.39368 -35
      vertex -25.7776 -3.39368 35
    endloop
  endfacet
  facet normal -0.980785 -0.195091 0
    outer loop
      vertex -25.1141 -6.7293 -35
      vertex -25.7776 -3.39368 35
      vertex -25.7776 -3.39368 -35
    endloop
  endfacet
  facet normal -0.980785 -0.195091 0
    outer loop
      vertex -25.7776 -3.39368 35
      vertex -25.1141 -6.7293 -35
      vertex -25.1141 -6.7293 35
    endloop
  endfacet
  facet normal -0.94693 -0.321439 0
    outer loop
      vertex -24.0209 -9.94977 -35
      vertex -25.1141 -6.7293 35
      vertex -25.1141 -6.7293 -35
    endloop
  endfacet
  facet normal -0.94693 -0.321439 0
    outer loop
      vertex -25.1141 -6.7293 35
      vertex -24.0209 -9.94977 -35
      vertex -24.0209 -9.94977 35
    endloop
  endfacet
  facet normal -0.896874 -0.442287 0
    outer loop
      vertex -22.5167 -13 -35
      vertex -24.0209 -9.94977 35
      vertex -24.0209 -9.94977 -35
    endloop
  endfacet
  facet normal -0.896874 -0.442287 0
    outer loop
      vertex -24.0209 -9.94977 35
      vertex -22.5167 -13 -35
      vertex -22.5167 -13 35
    endloop
  endfacet
  facet normal -0.831466 -0.555575 0
    outer loop
      vertex -20.6272 -15.8278 -35
      vertex -22.5167 -13 35
      vertex -22.5167 -13 -35
    endloop
  endfacet
  facet normal -0.831466 -0.555575 0
    outer loop
      vertex -22.5167 -13 35
      vertex -20.6272 -15.8278 -35
      vertex -20.6272 -15.8278 35
    endloop
  endfacet
  facet normal -0.751844 -0.659341 0
    outer loop
      vertex -18.3848 -18.3848 -35
      vertex -20.6272 -15.8278 35
      vertex -20.6272 -15.8278 -35
    endloop
  endfacet
  facet normal -0.751844 -0.659341 0
    outer loop
      vertex -20.6272 -15.8278 35
      vertex -18.3848 -18.3848 -35
      vertex -18.3848 -18.3848 35
    endloop
  endfacet
  facet normal -0.659341 -0.751844 0
    outer loop
      vertex -18.3848 -18.3848 -35
      vertex -15.8278 -20.6272 35
      vertex -18.3848 -18.3848 35
    endloop
  endfacet
  facet normal -0.659341 -0.751844 -0
    outer loop
      vertex -15.8278 -20.6272 35
      vertex -18.3848 -18.3848 -35
      vertex -15.8278 -20.6272 -35
    endloop
  endfacet
  facet normal -0.555575 -0.831466 0
    outer loop
      vertex -15.8278 -20.6272 -35
      vertex -13 -22.5167 35
      vertex -15.8278 -20.6272 35
    endloop
  endfacet
  facet normal -0.555575 -0.831466 -0
    outer loop
      vertex -13 -22.5167 35
      vertex -15.8278 -20.6272 -35
      vertex -13 -22.5167 -35
    endloop
  endfacet
  facet normal -0.442287 -0.896874 0
    outer loop
      vertex -13 -22.5167 -35
      vertex -9.94977 -24.0209 35
      vertex -13 -22.5167 35
    endloop
  endfacet
  facet normal -0.442287 -0.896874 -0
    outer loop
      vertex -9.94977 -24.0209 35
      vertex -13 -22.5167 -35
      vertex -9.94977 -24.0209 -35
    endloop
  endfacet
  facet normal -0.321439 -0.94693 0
    outer loop
      vertex -9.94977 -24.0209 -35
      vertex -6.7293 -25.1141 35
      vertex -9.94977 -24.0209 35
    endloop
  endfacet
  facet normal -0.321439 -0.94693 -0
    outer loop
      vertex -6.7293 -25.1141 35
      vertex -9.94977 -24.0209 -35
      vertex -6.7293 -25.1141 -35
    endloop
  endfacet
  facet normal -0.195091 -0.980785 0
    outer loop
      vertex -6.7293 -25.1141 -35
      vertex -3.39368 -25.7776 35
      vertex -6.7293 -25.1141 35
    endloop
  endfacet
  facet normal -0.195091 -0.980785 -0
    outer loop
      vertex -3.39368 -25.7776 35
      vertex -6.7293 -25.1141 -35
      vertex -3.39368 -25.7776 -35
    endloop
  endfacet
  facet normal -0.0653933 -0.99786 0
    outer loop
      vertex -3.39368 -25.7776 -35
      vertex -0 -26 35
      vertex -3.39368 -25.7776 35
    endloop
  endfacet
  facet normal -0.0653933 -0.99786 -0
    outer loop
      vertex -0 -26 35
      vertex -3.39368 -25.7776 -35
      vertex -0 -26 -35
    endloop
  endfacet
  facet normal 0.0653933 -0.99786 0
    outer loop
      vertex -0 -26 -35
      vertex 3.39368 -25.7776 35
      vertex -0 -26 35
    endloop
  endfacet
  facet normal 0.0653933 -0.99786 0
    outer loop
      vertex 3.39368 -25.7776 35
      vertex -0 -26 -35
      vertex 3.39368 -25.7776 -35
    endloop
  endfacet
  facet normal 0.195091 -0.980785 0
    outer loop
      vertex 3.39368 -25.7776 -35
      vertex 6.7293 -25.1141 35
      vertex 3.39368 -25.7776 35
    endloop
  endfacet
  facet normal 0.195091 -0.980785 0
    outer loop
      vertex 6.7293 -25.1141 35
      vertex 3.39368 -25.7776 -35
      vertex 6.7293 -25.1141 -35
    endloop
  endfacet
  facet normal 0.321439 -0.94693 0
    outer loop
      vertex 6.7293 -25.1141 -35
      vertex 9.94977 -24.0209 35
      vertex 6.7293 -25.1141 35
    endloop
  endfacet
  facet normal 0.321439 -0.94693 0
    outer loop
      vertex 9.94977 -24.0209 35
      vertex 6.7293 -25.1141 -35
      vertex 9.94977 -24.0209 -35
    endloop
  endfacet
  facet normal 0.442287 -0.896874 0
    outer loop
      vertex 9.94977 -24.0209 -35
      vertex 13 -22.5167 35
      vertex 9.94977 -24.0209 35
    endloop
  endfacet
  facet normal 0.442287 -0.896874 0
    outer loop
      vertex 13 -22.5167 35
      vertex 9.94977 -24.0209 -35
      vertex 13 -22.5167 -35
    endloop
  endfacet
  facet normal 0.555575 -0.831466 0
    outer loop
      vertex 13 -22.5167 -35
      vertex 15.8278 -20.6272 35
      vertex 13 -22.5167 35
    endloop
  endfacet
  facet normal 0.555575 -0.831466 0
    outer loop
      vertex 15.8278 -20.6272 35
      vertex 13 -22.5167 -35
      vertex 15.8278 -20.6272 -35
    endloop
  endfacet
  facet normal 0.659341 -0.751844 0
    outer loop
      vertex 15.8278 -20.6272 -35
      vertex 18.3848 -18.3848 35
      vertex 15.8278 -20.6272 35
    endloop
  endfacet
  facet normal 0.659341 -0.751844 0
    outer loop
      vertex 18.3848 -18.3848 35
      vertex 15.8278 -20.6272 -35
      vertex 18.3848 -18.3848 -35
    endloop
  endfacet
  facet normal 0.751844 -0.659341 0
    outer loop
      vertex 18.3848 -18.3848 35
      vertex 20.6272 -15.8278 -35
      vertex 20.6272 -15.8278 35
    endloop
  endfacet
  facet normal 0.751844 -0.659341 0
    outer loop
      vertex 20.6272 -15.8278 -35
      vertex 18.3848 -18.3848 35
      vertex 18.3848 -18.3848 -35
    endloop
  endfacet
  facet normal 0.831466 -0.555575 0
    outer loop
      vertex 20.6272 -15.8278 35
      vertex 22.5167 -13 -35
      vertex 22.5167 -13 35
    endloop
  endfacet
  facet normal 0.831466 -0.555575 0
    outer loop
      vertex 22.5167 -13 -35
      vertex 20.6272 -15.8278 35
      vertex 20.6272 -15.8278 -35
    endloop
  endfacet
  facet normal 0.896874 -0.442287 0
    outer loop
      vertex 22.5167 -13 35
      vertex 24.0209 -9.94977 -35
      vertex 24.0209 -9.94977 35
    endloop
  endfacet
  facet normal 0.896874 -0.442287 0
    outer loop
      vertex 24.0209 -9.94977 -35
      vertex 22.5167 -13 35
      vertex 22.5167 -13 -35
    endloop
  endfacet
  facet normal 0.94693 -0.321439 0
    outer loop
      vertex 24.0209 -9.94977 35
      vertex 25.1141 -6.7293 -35
      vertex 25.1141 -6.7293 35
    endloop
  endfacet
  facet normal 0.94693 -0.321439 0
    outer loop
      vertex 25.1141 -6.7293 -35
      vertex 24.0209 -9.94977 35
      vertex 24.0209 -9.94977 -35
    endloop
  endfacet
  facet normal 0.980785 -0.195091 0
    outer loop
      vertex 25.1141 -6.7293 35
      vertex 25.7776 -3.39368 -35
      vertex 25.7776 -3.39368 35
    endloop
  endfacet
  facet normal 0.980785 -0.195091 0
    outer loop
      vertex 25.7776 -3.39368 -35
      vertex 25.1141 -6.7293 35
      vertex 25.1141 -6.7293 -35
    endloop
  endfacet
  facet normal 0.99786 -0.0653933 0
    outer loop
      vertex 25.7776 -3.39368 35
      vertex 26 0 -35
      vertex 26 0 35
    endloop
  endfacet
  facet normal 0.99786 -0.0653933 0
    outer loop
      vertex 26 0 -35
      vertex 25.7776 -3.39368 35
      vertex 25.7776 -3.39368 -35
    endloop
  endfacet
  facet normal 0 0 -1
    outer loop
      vertex 25.7776 -3.39368 -35
      vertex 25.7776 3.39368 -35
      vertex 26 0 -35
    endloop
  endfacet
  facet normal 0 0 -1
    outer loop
      vertex 25.1141 -6.7293 -35
      vertex 25.7776 3.39368 -35
      vertex 25.7776 -3.39368 -35
    endloop
  endfacet
  facet normal 0 0 -1
    outer loop
      vertex 25.1141 -6.7293 -35
      vertex 25.1141 6.7293 -35
      vertex 25.7776 3.39368 -35
    endloop
  endfacet
  facet normal 0 0 -1
    outer loop
      vertex 24.0209 -9.94977 -35
      vertex 25.1141 6.7293 -35
      vertex 25.1141 -6.7293 -35
    endloop
  endfacet
  facet normal 0 0 -1
    outer loop
      vertex 24.0209 -9.94977 -35
      vertex 24.0209 9.94977 -35
      vertex 25.1141 6.7293 -35
    endloop
  endfacet
  facet normal 0 0 -1
    outer loop
      vertex 22.5167 -13 -35
      vertex 24.0209 9.94977 -35
      vertex 24.0209 -9.94977 -35
    endloop
  endfacet
  facet normal 0 0 -1
    outer loop
      vertex 22.5167 -13 -35
      vertex 22.5167 13 -35
      vertex 24.0209 9.94977 -35
    endloop
  endfacet
  facet normal 0 0 -1
    outer loop
      vertex 20.6272 -15.8278 -35
      vertex 22.5167 13 -35
      vertex 22.5167 -13 -35
    endloop
  endfacet
  facet normal 0 0 -1
    outer loop
      vertex 20.6272 -15.8278 -35
      vertex 20.6272 15.8278 -35
      vertex 22.5167 13 -35
    endloop
  endfacet
  facet normal 0 0 -1
    outer loop
      vertex 18.3848 -18.3848 -35
      vertex 20.6272 15.8278 -35
      vertex 20.6272 -15.8278 -35
    endloop
  endfacet
  facet normal 0 0 -1
    outer loop
      vertex 18.3848 -18.3848 -35
      vertex 18.3848 18.3848 -35
      vertex 20.6272 15.8278 -35
    endloop
  endfacet
  facet normal 0 0 -1
    outer loop
      vertex 15.8278 -20.6272 -35
      vertex 18.3848 18.3848 -35
      vertex 18.3848 -18.3848 -35
    endloop
  endfacet
  facet normal 0 0 -1
    outer loop
      vertex 15.8278 -20.6272 -35
      vertex 15.8278 20.6272 -35
      vertex 18.3848 18.3848 -35
    endloop
  endfacet
  facet normal 0 0 -1
    outer loop
      vertex 13 -22.5167 -35
      vertex 15.8278 20.6272 -35
      vertex 15.8278 -20.6272 -35
    endloop
  endfacet
  facet normal 0 0 -1
    outer loop
      vertex 13 -22.5167 -35
      vertex 13 22.5167 -35
      vertex 15.8278 20.6272 -35
    endloop
  endfacet
  facet normal 0 0 -1
    outer loop
      vertex 9.94977 -24.0209 -35
      vertex 13 22.5167 -35
      vertex 13 -22.5167 -35
    endloop
  endfacet
  facet normal 0 0 -1
    outer loop
      vertex 9.94977 -24.0209 -35
      vertex 9.94977 24.0209 -35
      vertex 13 22.5167 -35
    endloop
  endfacet
  facet normal 0 0 -1
    outer loop
      vertex 6.7293 -25.1141 -35
      vertex 9.94977 24.0209 -35
      vertex 9.94977 -24.0209 -35
    endloop
  endfacet
  facet normal 0 0 -1
    outer loop
      vertex 6.7293 -25.1141 -35
      vertex 6.7293 25.1141 -35
      vertex 9.94977 24.0209 -35
    endloop
  endfacet
  facet normal 0 0 -1
    outer loop
      vertex 3.39368 -25.7776 -35
      vertex 6.7293 25.1141 -35
      vertex 6.7293 -25.1141 -35
    endloop
  endfacet
  facet normal 0 0 -1
    outer loop
      vertex 3.39368 -25.7776 -35
      vertex 3.39368 25.7776 -35
      vertex 6.7293 25.1141 -35
    endloop
  endfacet
  facet normal 0 0 -1
    outer loop
      vertex -0 -26 -35
      vertex 3.39368 25.7776 -35
      vertex 3.39368 -25.7776 -35
    endloop
  endfacet
  facet normal 0 0 -1
    outer loop
      vertex -0 -26 -35
      vertex 0 26 -35
      vertex 3.39368 25.7776 -35
    endloop
  endfacet
  facet normal 0 0 -1
    outer loop
      vertex -3.39368 -25.7776 -35
      vertex 0 26 -35
      vertex -0 -26 -35
    endloop
  endfacet
  facet normal 0 0 -1
    outer loop
      vertex -3.39368 -25.7776 -35
      vertex -3.39368 25.7776 -35
      vertex 0 26 -35
    endloop
  endfacet
  facet normal 0 0 -1
    outer loop
      vertex -6.7293 -25.1141 -35
      vertex -3.39368 25.7776 -35
      vertex -3.39368 -25.7776 -35
    endloop
  endfacet
  facet normal 0 0 -1
    outer loop
      vertex -6.7293 -25.1141 -35
      vertex -6.7293 25.1141 -35
      vertex -3.39368 25.7776 -35
    endloop
  endfacet
  facet normal 0 0 -1
    outer loop
      vertex -9.94977 -24.0209 -35
      vertex -6.7293 25.1141 -35
      vertex -6.7293 -25.1141 -35
    endloop
  endfacet
  facet normal 0 0 -1
    outer loop
      vertex -9.94977 -24.0209 -35
      vertex -9.94977 24.0209 -35
      vertex -6.7293 25.1141 -35
    endloop
  endfacet
  facet normal 0 0 -1
    outer loop
      vertex -13 -22.5167 -35
      vertex -9.94977 24.0209 -35
      vertex -9.94977 -24.0209 -35
    endloop
  endfacet
  facet normal 0 0 -1
    outer loop
      vertex -13 -22.5167 -35
      vertex -13 22.5167 -35
      vertex -9.94977 24.0209 -35
    endloop
  endfacet
  facet normal 0 0 -1
    outer loop
      vertex -15.8278 -20.6272 -35
      vertex -13 22.5167 -35
      vertex -13 -22.5167 -35
    endloop
  endfacet
  facet normal 0 0 -1
    outer loop
      vertex -15.8278 -20.6272 -35
      vertex -15.8278 20.6272 -35
      vertex -13 22.5167 -35
    endloop
  endfacet
  facet normal 0 0 -1
    outer loop
      vertex -18.3848 -18.3848 -35
      vertex -15.8278 20.6272 -35
      vertex -15.8278 -20.6272 -35
    endloop
  endfacet
  facet normal 0 0 -1
    outer loop
      vertex -18.3848 -18.3848 -35
      vertex -18.3848 18.3848 -35
      vertex -15.8278 20.6272 -35
    endloop
  endfacet
  facet normal 0 0 -1
    outer loop
      vertex -20.6272 -15.8278 -35
      vertex -18.3848 18.3848 -35
      vertex -18.3848 -18.3848 -35
    endloop
  endfacet
  facet normal 0 0 -1
    outer loop
      vertex -20.6272 -15.8278 -35
      vertex -20.6272 15.8278 -35
      vertex -18.3848 18.3848 -35
    endloop
  endfacet
  facet normal 0 0 -1
    outer loop
      vertex -22.5167 -13 -35
      vertex -20.6272 15.8278 -35
      vertex -20.6272 -15.8278 -35
    endloop
  endfacet
  facet normal 0 0 -1
    outer loop
      vertex -22.5167 -13 -35
      vertex -22.5167 13 -35
      vertex -20.6272 15.8278 -35
    endloop
  endfacet
  facet normal 0 0 -1
    outer loop
      vertex -24.0209 -9.94977 -35
      vertex -22.5167 13 -35
      vertex -22.5167 -13 -35
    endloop
  endfacet
  facet normal 0 0 -1
    outer loop
      vertex -24.0209 -9.94977 -35
      vertex -24.0209 9.94977 -35
      vertex -22.5167 13 -35
    endloop
  endfacet
  facet normal 0 0 -1
    outer loop
      vertex -25.1141 -6.7293 -35
      vertex -24.0209 9.94977 -35
      vertex -24.0209 -9.94977 -35
    endloop
  endfacet
  facet normal 0 0 -1
    outer loop
      vertex -25.1141 -6.7293 -35
      vertex -25.1141 6.7293 -35
      vertex -24.0209 9.94977 -35
    endloop
  endfacet
  facet normal 0 0 -1
    outer loop
      vertex -25.7776 -3.39368 -35
      vertex -25.1141 6.7293 -35
      vertex -25.1141 -6.7293 -35
    endloop
  endfacet
  facet normal 0 0 -1
    outer loop
      vertex -25.7776 -3.39368 -35
      vertex -25.7776 3.39368 -35
      vertex -25.1141 6.7293 -35
    endloop
  endfacet
  facet normal 0 -0 -1
    outer loop
      vertex -25.7776 3.39368 -35
      vertex -25.7776 -3.39368 -35
      vertex -26 -0 -35
    endloop
  endfacet
  facet normal 0 0 1
    outer loop
      vertex 25.7776 3.39368 35
      vertex 25.7776 -3.39368 35
      vertex 26 0 35
    endloop
  endfacet
  facet normal 0 0 1
    outer loop
      vertex 25.1141 6.7293 35
      vertex 25.7776 -3.39368 35
      vertex 25.7776 3.39368 35
    endloop
  endfacet
  facet normal 0 0 1
    outer loop
      vertex 25.1141 6.7293 35
      vertex 25.1141 -6.7293 35
      vertex 25.7776 -3.39368 35
    endloop
  endfacet
  facet normal 0 0 1
    outer loop
      vertex 24.0209 9.94977 35
      vertex 25.1141 -6.7293 35
      vertex 25.1141 6.7293 35
    endloop
  endfacet
  facet normal 0 0 1
    outer loop
      vertex 24.0209 9.94977 35
      vertex 24.0209 -9.94977 35
      vertex 25.1141 -6.7293 35
    endloop
  endfacet
  facet normal 0 0 1
    outer loop
      vertex 22.5167 13 35
      vertex 24.0209 -9.94977 35
      vertex 24.0209 9.94977 35
    endloop
  endfacet
  facet normal 0 0 1
    outer loop
      vertex 22.5167 13 35
      vertex 22.5167 -13 35
      vertex 24.0209 -9.94977 35
    endloop
  endfacet
  facet normal 0 0 1
    outer loop
      vertex 20.6272 15.8278 35
      vertex 22.5167 -13 35
      vertex 22.5167 13 35
    endloop
  endfacet
  facet normal 0 0 1
    outer loop
      vertex 20.6272 15.8278 35
      vertex 20.6272 -15.8278 35
      vertex 22.5167 -13 35
    endloop
  endfacet
  facet normal 0 0 1
    outer loop
      vertex 18.3848 18.3848 35
      vertex 20.6272 -15.8278 35
      vertex 20.6272 15.8278 35
    endloop
  endfacet
  facet normal 0 0 1
    outer loop
      vertex 18.3848 18.3848 35
      vertex 18.3848 -18.3848 35
      vertex 20.6272 -15.8278 35
    endloop
  endfacet
  facet normal 0 0 1
    outer loop
      vertex 15.8278 20.6272 35
      vertex 18.3848 -18.3848 35
      vertex 18.3848 18.3848 35
    endloop
  endfacet
  facet normal 0 0 1
    outer loop
      vertex 15.8278 20.6272 35
      vertex 15.8278 -20.6272 35
      vertex 18.3848 -18.3848 35
    endloop
  endfacet
  facet normal 0 0 1
    outer loop
      vertex 13 22.5167 35
      vertex 15.8278 -20.6272 35
      vertex 15.8278 20.6272 35
    endloop
  endfacet
  facet normal 0 0 1
    outer loop
      vertex 13 22.5167 35
      vertex 13 -22.5167 35
      vertex 15.8278 -20.6272 35
    endloop
  endfacet
  facet normal 0 0 1
    outer loop
      vertex 9.94977 24.0209 35
      vertex 13 -22.5167 35
      vertex 13 22.5167 35
    endloop
  endfacet
  facet normal 0 0 1
    outer loop
      vertex 9.94977 24.0209 35
      vertex 9.94977 -24.0209 35
      vertex 13 -22.5167 35
    endloop
  endfacet
  facet normal 0 0 1
    outer loop
      vertex 6.7293 25.1141 35
      vertex 9.94977 -24.0209 35
      vertex 9.94977 24.0209 35
    endloop
  endfacet
  facet normal 0 0 1
    outer loop
      vertex 6.7293 25.1141 35
      vertex 6.7293 -25.1141 35
      vertex 9.94977 -24.0209 35
    endloop
  endfacet
  facet normal 0 0 1
    outer loop
      vertex 3.39368 25.7776 35
      vertex 6.7293 -25.1141 35
      vertex 6.7293 25.1141 35
    endloop
  endfacet
  facet normal 0 0 1
    outer loop
      vertex 3.39368 25.7776 35
      vertex 3.39368 -25.7776 35
      vertex 6.7293 -25.1141 35
    endloop
  endfacet
  facet normal 0 0 1
    outer loop
      vertex 0 26 35
      vertex 3.39368 -25.7776 35
      vertex 3.39368 25.7776 35
    endloop
  endfacet
  facet normal 0 0 1
    outer loop
      vertex 0 26 35
      vertex -0 -26 35
      vertex 3.39368 -25.7776 35
    endloop
  endfacet
  facet normal -0 0 1
    outer loop
      vertex -3.39368 25.7776 35
      vertex -0 -26 35
      vertex 0 26 35
    endloop
  endfacet
  facet normal 0 0 1
    outer loop
      vertex -3.39368 25.7776 35
      vertex -3.39368 -25.7776 35
      vertex -0 -26 35
    endloop
  endfacet
  facet normal -0 0 1
    outer loop
      vertex -6.7293 25.1141 35
      vertex -3.39368 -25.7776 35
      vertex -3.39368 25.7776 35
    endloop
  endfacet
  facet normal 0 0 1
    outer loop
      vertex -6.7293 25.1141 35
      vertex -6.7293 -25.1141 35
      vertex -3.39368 -25.7776 35
    endloop
  endfacet
  facet normal -0 0 1
    outer loop
      vertex -9.94977 24.0209 35
      vertex -6.7293 -25.1141 35
      vertex -6.7293 25.1141 35
    endloop
  endfacet
  facet normal 0 0 1
    outer loop
      vertex -9.94977 24.0209 35
      vertex -9.94977 -24.0209 35
      vertex -6.7293 -25.1141 35
    endloop
  endfacet
  facet normal -0 0 1
    outer loop
      vertex -13 22.5167 35
      vertex -9.94977 -24.0209 35
      vertex -9.94977 24.0209 35
    endloop
  endfacet
  facet normal 0 0 1
    outer loop
      vertex -13 22.5167 35
      vertex -13 -22.5167 35
      vertex -9.94977 -24.0209 35
    endloop
  endfacet
  facet normal -0 0 1
    outer loop
      vertex -15.8278 20.6272 35
      vertex -13 -22.5167 35
      vertex -13 22.5167 35
    endloop
  endfacet
  facet normal 0 0 1
    outer loop
      vertex -15.8278 20.6272 35
      vertex -15.8278 -20.6272 35
      vertex -13 -22.5167 35
    endloop
  endfacet
  facet normal -0 0 1
    outer loop
      vertex -18.3848 18.3848 35
      vertex -15.8278 -20.6272 35
      vertex -15.8278 20.6272 35
    endloop
  endfacet
  facet normal 0 0 1
    outer loop
      vertex -18.3848 18.3848 35
      vertex -18.3848 -18.3848 35
      vertex -15.8278 -20.6272 35
    endloop
  endfacet
  facet normal -0 0 1
    outer loop
      vertex -20.6272 15.8278 35
      vertex -18.3848 -18.3848 35
      vertex -18.3848 18.3848 35
    endloop
  endfacet
  facet normal 0 0 1
    outer loop
      vertex -20.6272 15.8278 35
      vertex -20.6272 -15.8278 35
      vertex -18.3848 -18.3848 35
    endloop
  endfacet
  facet normal -0 0 1
    outer loop
      vertex -22.5167 13 35
      vertex -20.6272 -15.8278 35
      vertex -20.6272 15.8278 35
    endloop
  endfacet
  facet normal 0 0 1
    outer loop
      vertex -22.5167 13 35
      vertex -22.5167 -13 35
      vertex -20.6272 -15.8278 35
    endloop
  endfacet
  facet normal -0 0 1
    outer loop
      vertex -24.0209 9.94977 35
      vertex -22.5167 -13 35
      vertex -22.5167 13 35
    endloop
  endfacet
  facet normal 0 0 1
    outer loop
      vertex -24.0209 9.94977 35
      vertex -24.0209 -9.94977 35
      vertex -22.5167 -13 35
    endloop
  endfacet
  facet normal -0 0 1
    outer loop
      vertex -25.1141 6.7293 35
      vertex -24.0209 -9.94977 35
      vertex -24.0209 9.94977 35
    endloop
  endfacet
  facet normal 0 0 1
    outer loop
      vertex -25.1141 6.7293 35
      vertex -25.1141 -6.7293 35
      vertex -24.0209 -9.94977 35
    endloop
  endfacet
  facet normal -0 0 1
    outer loop
      vertex -25.7776 3.39368 35
      vertex -25.1141 -6.7293 35
      vertex -25.1141 6.7293 35
    endloop
  endfacet
  facet normal 0 0 1
    outer loop
      vertex -25.7776 3.39368 35
      vertex -25.7776 -3.39368 35
      vertex -25.1141 -6.7293 35
    endloop
  endfacet
  facet normal 0 -0 1
    outer loop
      vertex -25.7776 -3.39368 35
      vertex -25.7776 3.39368 35
      vertex -26 -0 35
    endloop
  endfacet
endsolid OpenSCAD_Model
