solid OpenSCAD_Model
  facet normal 1 -0 0
    outer loop
      vertex 90 -35 2.5
      vertex 90 35 -2.5
      vertex 90 35 2.5
    endloop
  endfacet
  facet normal 1 0 0
    outer loop
      vertex 90 35 -2.5
      vertex 90 -35 2.5
      vertex 90 -35 -2.5
    endloop
  endfacet
  facet normal -0 0 1
    outer loop
      vertex -80 13.5 2.5
      vertex -60 -13.5 2.5
      vertex -60 13.5 2.5
    endloop
  endfacet
  facet normal 0 0 1
    outer loop
      vertex -60 -13.5 2.5
      vertex -80 13.5 2.5
      vertex -80 -13.5 2.5
    endloop
  endfacet
  facet normal -0 0 1
    outer loop
      vertex 60 13.5 2.5
      vertex 80 -13.5 2.5
      vertex 80 13.5 2.5
    endloop
  endfacet
  facet normal 0 0 1
    outer loop
      vertex 80 -13.5 2.5
      vertex 60 13.5 2.5
      vertex 60 -13.5 2.5
    endloop
  endfacet
  facet normal 0 0 1
    outer loop
      vertex 80 13.5 2.5
      vertex 90 35 2.5
      vertex 80 16.5 2.5
    endloop
  endfacet
  facet normal 0 0 1
    outer loop
      vertex 90 35 2.5
      vertex 60 16.5 2.5
      vertex 80 16.5 2.5
    endloop
  endfacet
  facet normal 0 0 1
    outer loop
      vertex -60 13.5 2.5
      vertex 60 13.5 2.5
      vertex 60 16.5 2.5
    endloop
  endfacet
  facet normal 0 0 1
    outer loop
      vertex 60 13.5 2.5
      vertex -60 13.5 2.5
      vertex 60 -13.5 2.5
    endloop
  endfacet
  facet normal 0 0 1
    outer loop
      vertex -60 13.5 2.5
      vertex 60 16.5 2.5
      vertex -60 16.5 2.5
    endloop
  endfacet
  facet normal 0 0 1
    outer loop
      vertex 90 35 2.5
      vertex -60 16.5 2.5
      vertex 60 16.5 2.5
    endloop
  endfacet
  facet normal -0 0 1
    outer loop
      vertex -90 35 2.5
      vertex -60 16.5 2.5
      vertex 90 35 2.5
    endloop
  endfacet
  facet normal 0 0 1
    outer loop
      vertex -90 35 2.5
      vertex -80 13.5 2.5
      vertex -80 16.5 2.5
    endloop
  endfacet
  facet normal 0 0 1
    outer loop
      vertex -80 13.5 2.5
      vertex -90 35 2.5
      vertex -80 -13.5 2.5
    endloop
  endfacet
  facet normal 0 0 1
    outer loop
      vertex -90 -35 2.5
      vertex -80 -13.5 2.5
      vertex -90 35 2.5
    endloop
  endfacet
  facet normal 0 0 1
    outer loop
      vertex -60 16.5 2.5
      vertex -90 35 2.5
      vertex -80 16.5 2.5
    endloop
  endfacet
  facet normal 0 0 1
    outer loop
      vertex 90 35 2.5
      vertex 80 13.5 2.5
      vertex 90 -35 2.5
    endloop
  endfacet
  facet normal -0 0 1
    outer loop
      vertex 80 -13.5 2.5
      vertex 90 -35 2.5
      vertex 80 13.5 2.5
    endloop
  endfacet
  facet normal -0 0 1
    outer loop
      vertex 80 -16.5 2.5
      vertex 90 -35 2.5
      vertex 80 -13.5 2.5
    endloop
  endfacet
  facet normal -0 0 1
    outer loop
      vertex 60 -16.5 2.5
      vertex 90 -35 2.5
      vertex 80 -16.5 2.5
    endloop
  endfacet
  facet normal 0 0 1
    outer loop
      vertex -60 -13.5 2.5
      vertex 60 -13.5 2.5
      vertex -60 13.5 2.5
    endloop
  endfacet
  facet normal 0 0 1
    outer loop
      vertex 60 -13.5 2.5
      vertex -60 -13.5 2.5
      vertex 60 -16.5 2.5
    endloop
  endfacet
  facet normal 0 0 1
    outer loop
      vertex -60 -16.5 2.5
      vertex 60 -16.5 2.5
      vertex -60 -13.5 2.5
    endloop
  endfacet
  facet normal 0 0 1
    outer loop
      vertex 60 -16.5 2.5
      vertex -60 -16.5 2.5
      vertex 90 -35 2.5
    endloop
  endfacet
  facet normal 0 0 1
    outer loop
      vertex -90 -35 2.5
      vertex -60 -16.5 2.5
      vertex -80 -16.5 2.5
    endloop
  endfacet
  facet normal 0 0 1
    outer loop
      vertex -60 -16.5 2.5
      vertex -90 -35 2.5
      vertex 90 -35 2.5
    endloop
  endfacet
  facet normal 0 0 1
    outer loop
      vertex -80 -13.5 2.5
      vertex -90 -35 2.5
      vertex -80 -16.5 2.5
    endloop
  endfacet
  facet normal 0 0 -1
    outer loop
      vertex -80 -13.5 -2.5
      vertex -60 13.5 -2.5
      vertex -60 -13.5 -2.5
    endloop
  endfacet
  facet normal -0 0 -1
    outer loop
      vertex -60 13.5 -2.5
      vertex -80 -13.5 -2.5
      vertex -80 13.5 -2.5
    endloop
  endfacet
  facet normal 0 0 -1
    outer loop
      vertex 60 -13.5 -2.5
      vertex 80 13.5 -2.5
      vertex 80 -13.5 -2.5
    endloop
  endfacet
  facet normal -0 0 -1
    outer loop
      vertex 80 13.5 -2.5
      vertex 60 -13.5 -2.5
      vertex 60 13.5 -2.5
    endloop
  endfacet
  facet normal 0 0 -1
    outer loop
      vertex 80 -13.5 -2.5
      vertex 90 -35 -2.5
      vertex 80 -16.5 -2.5
    endloop
  endfacet
  facet normal 0 0 -1
    outer loop
      vertex 90 -35 -2.5
      vertex 60 -16.5 -2.5
      vertex 80 -16.5 -2.5
    endloop
  endfacet
  facet normal 0 0 -1
    outer loop
      vertex -60 -13.5 -2.5
      vertex 60 -13.5 -2.5
      vertex 60 -16.5 -2.5
    endloop
  endfacet
  facet normal 0 0 -1
    outer loop
      vertex 60 -13.5 -2.5
      vertex -60 -13.5 -2.5
      vertex 60 13.5 -2.5
    endloop
  endfacet
  facet normal 0 0 -1
    outer loop
      vertex -60 -13.5 -2.5
      vertex 60 -16.5 -2.5
      vertex -60 -16.5 -2.5
    endloop
  endfacet
  facet normal 0 0 -1
    outer loop
      vertex 90 -35 -2.5
      vertex -60 -16.5 -2.5
      vertex 60 -16.5 -2.5
    endloop
  endfacet
  facet normal 0 0 -1
    outer loop
      vertex -90 -35 -2.5
      vertex -60 -16.5 -2.5
      vertex 90 -35 -2.5
    endloop
  endfacet
  facet normal 0 0 -1
    outer loop
      vertex -90 -35 -2.5
      vertex -80 -13.5 -2.5
      vertex -80 -16.5 -2.5
    endloop
  endfacet
  facet normal -0 0 -1
    outer loop
      vertex -80 -13.5 -2.5
      vertex -90 -35 -2.5
      vertex -80 13.5 -2.5
    endloop
  endfacet
  facet normal 0 0 -1
    outer loop
      vertex -90 35 -2.5
      vertex -80 13.5 -2.5
      vertex -90 -35 -2.5
    endloop
  endfacet
  facet normal -0 0 -1
    outer loop
      vertex -60 -16.5 -2.5
      vertex -90 -35 -2.5
      vertex -80 -16.5 -2.5
    endloop
  endfacet
  facet normal 0 0 -1
    outer loop
      vertex 90 -35 -2.5
      vertex 80 -13.5 -2.5
      vertex 90 35 -2.5
    endloop
  endfacet
  facet normal 0 0 -1
    outer loop
      vertex 80 13.5 -2.5
      vertex 90 35 -2.5
      vertex 80 -13.5 -2.5
    endloop
  endfacet
  facet normal 0 0 -1
    outer loop
      vertex 80 16.5 -2.5
      vertex 90 35 -2.5
      vertex 80 13.5 -2.5
    endloop
  endfacet
  facet normal 0 0 -1
    outer loop
      vertex 60 16.5 -2.5
      vertex 90 35 -2.5
      vertex 80 16.5 -2.5
    endloop
  endfacet
  facet normal 0 0 -1
    outer loop
      vertex -60 13.5 -2.5
      vertex 60 13.5 -2.5
      vertex -60 -13.5 -2.5
    endloop
  endfacet
  facet normal 0 0 -1
    outer loop
      vertex 60 13.5 -2.5
      vertex -60 13.5 -2.5
      vertex 60 16.5 -2.5
    endloop
  endfacet
  facet normal 0 0 -1
    outer loop
      vertex -60 16.5 -2.5
      vertex 60 16.5 -2.5
      vertex -60 13.5 -2.5
    endloop
  endfacet
  facet normal 0 0 -1
    outer loop
      vertex 60 16.5 -2.5
      vertex -60 16.5 -2.5
      vertex 90 35 -2.5
    endloop
  endfacet
  facet normal 0 0 -1
    outer loop
      vertex -90 35 -2.5
      vertex -60 16.5 -2.5
      vertex -80 16.5 -2.5
    endloop
  endfacet
  facet normal 0 0 -1
    outer loop
      vertex -60 16.5 -2.5
      vertex -90 35 -2.5
      vertex 90 35 -2.5
    endloop
  endfacet
  facet normal 0 0 -1
    outer loop
      vertex -80 13.5 -2.5
      vertex -90 35 -2.5
      vertex -80 16.5 -2.5
    endloop
  endfacet
  facet normal -1 0 0
    outer loop
      vertex -90 -35 -2.5
      vertex -90 35 2.5
      vertex -90 35 -2.5
    endloop
  endfacet
  facet normal -1 -0 0
    outer loop
      vertex -90 35 2.5
      vertex -90 -35 -2.5
      vertex -90 -35 2.5
    endloop
  endfacet
  facet normal 0 1 -0
    outer loop
      vertex 90 35 -2.5
      vertex -90 35 2.5
      vertex 90 35 2.5
    endloop
  endfacet
  facet normal 0 1 0
    outer loop
      vertex -90 35 2.5
      vertex 90 35 -2.5
      vertex -90 35 -2.5
    endloop
  endfacet
  facet normal 0 -1 0
    outer loop
      vertex -90 -35 -2.5
      vertex 90 -35 2.5
      vertex -90 -35 2.5
    endloop
  endfacet
  facet normal 0 -1 -0
    outer loop
      vertex 90 -35 2.5
      vertex -90 -35 -2.5
      vertex 90 -35 -2.5
    endloop
  endfacet
  facet normal -1 0 0
    outer loop
      vertex -60 -16.5 -2.5
      vertex -60 -13.5 2.5
      vertex -60 -13.5 -2.5
    endloop
  endfacet
  facet normal -1 -0 0
    outer loop
      vertex -60 -13.5 2.5
      vertex -60 -16.5 -2.5
      vertex -60 -16.5 2.5
    endloop
  endfacet
  facet normal 1 -0 0
    outer loop
      vertex -80 -16.5 2.5
      vertex -80 -13.5 -2.5
      vertex -80 -13.5 2.5
    endloop
  endfacet
  facet normal 1 0 0
    outer loop
      vertex -80 -13.5 -2.5
      vertex -80 -16.5 2.5
      vertex -80 -16.5 -2.5
    endloop
  endfacet
  facet normal 0 -1 0
    outer loop
      vertex -80 -13.5 -2.5
      vertex -60 -13.5 2.5
      vertex -80 -13.5 2.5
    endloop
  endfacet
  facet normal 0 -1 -0
    outer loop
      vertex -60 -13.5 2.5
      vertex -80 -13.5 -2.5
      vertex -60 -13.5 -2.5
    endloop
  endfacet
  facet normal 0 1 -0
    outer loop
      vertex -60 -16.5 -2.5
      vertex -80 -16.5 2.5
      vertex -60 -16.5 2.5
    endloop
  endfacet
  facet normal 0 1 0
    outer loop
      vertex -80 -16.5 2.5
      vertex -60 -16.5 -2.5
      vertex -80 -16.5 -2.5
    endloop
  endfacet
  facet normal -1 0 0
    outer loop
      vertex -60 13.5 -2.5
      vertex -60 16.5 2.5
      vertex -60 16.5 -2.5
    endloop
  endfacet
  facet normal -1 -0 0
    outer loop
      vertex -60 16.5 2.5
      vertex -60 13.5 -2.5
      vertex -60 13.5 2.5
    endloop
  endfacet
  facet normal 1 -0 0
    outer loop
      vertex -80 13.5 2.5
      vertex -80 16.5 -2.5
      vertex -80 16.5 2.5
    endloop
  endfacet
  facet normal 1 0 0
    outer loop
      vertex -80 16.5 -2.5
      vertex -80 13.5 2.5
      vertex -80 13.5 -2.5
    endloop
  endfacet
  facet normal 0 -1 0
    outer loop
      vertex -80 16.5 -2.5
      vertex -60 16.5 2.5
      vertex -80 16.5 2.5
    endloop
  endfacet
  facet normal 0 -1 -0
    outer loop
      vertex -60 16.5 2.5
      vertex -80 16.5 -2.5
      vertex -60 16.5 -2.5
    endloop
  endfacet
  facet normal 0 1 -0
    outer loop
      vertex -60 13.5 -2.5
      vertex -80 13.5 2.5
      vertex -60 13.5 2.5
    endloop
  endfacet
  facet normal 0 1 0
    outer loop
      vertex -80 13.5 2.5
      vertex -60 13.5 -2.5
      vertex -80 13.5 -2.5
    endloop
  endfacet
  facet normal -1 0 0
    outer loop
      vertex 80 -16.5 -2.5
      vertex 80 -13.5 2.5
      vertex 80 -13.5 -2.5
    endloop
  endfacet
  facet normal -1 -0 0
    outer loop
      vertex 80 -13.5 2.5
      vertex 80 -16.5 -2.5
      vertex 80 -16.5 2.5
    endloop
  endfacet
  facet normal 1 -0 0
    outer loop
      vertex 60 -16.5 2.5
      vertex 60 -13.5 -2.5
      vertex 60 -13.5 2.5
    endloop
  endfacet
  facet normal 1 0 0
    outer loop
      vertex 60 -13.5 -2.5
      vertex 60 -16.5 2.5
      vertex 60 -16.5 -2.5
    endloop
  endfacet
  facet normal 0 -1 0
    outer loop
      vertex 60 -13.5 -2.5
      vertex 80 -13.5 2.5
      vertex 60 -13.5 2.5
    endloop
  endfacet
  facet normal 0 -1 -0
    outer loop
      vertex 80 -13.5 2.5
      vertex 60 -13.5 -2.5
      vertex 80 -13.5 -2.5
    endloop
  endfacet
  facet normal 0 1 -0
    outer loop
      vertex 80 -16.5 -2.5
      vertex 60 -16.5 2.5
      vertex 80 -16.5 2.5
    endloop
  endfacet
  facet normal 0 1 0
    outer loop
      vertex 60 -16.5 2.5
      vertex 80 -16.5 -2.5
      vertex 60 -16.5 -2.5
    endloop
  endfacet
  facet normal -1 0 0
    outer loop
      vertex 80 13.5 -2.5
      vertex 80 16.5 2.5
      vertex 80 16.5 -2.5
    endloop
  endfacet
  facet normal -1 -0 0
    outer loop
      vertex 80 16.5 2.5
      vertex 80 13.5 -2.5
      vertex 80 13.5 2.5
    endloop
  endfacet
  facet normal 1 -0 0
    outer loop
      vertex 60 13.5 2.5
      vertex 60 16.5 -2.5
      vertex 60 16.5 2.5
    endloop
  endfacet
  facet normal 1 0 0
    outer loop
      vertex 60 16.5 -2.5
      vertex 60 13.5 2.5
      vertex 60 13.5 -2.5
    endloop
  endfacet
  facet normal 0 -1 0
    outer loop
      vertex 60 16.5 -2.5
      vertex 80 16.5 2.5
      vertex 60 16.5 2.5
    endloop
  endfacet
  facet normal 0 -1 -0
    outer loop
      vertex 80 16.5 2.5
      vertex 60 16.5 -2.5
      vertex 80 16.5 -2.5
    endloop
  endfacet
  facet normal 0 1 -0
    outer loop
      vertex 80 13.5 -2.5
      vertex 60 13.5 2.5
      vertex 80 13.5 2.5
    endloop
  endfacet
  facet normal 0 1 0
    outer loop
      vertex 60 13.5 2.5
      vertex 80 13.5 -2.5
      vertex 60 13.5 -2.5
    endloop
  endfacet
endsolid OpenSCAD_Model
