solid OpenSCAD_Model
  facet normal 0.997859 0.0654029 0
    outer loop
      vertex 49 0 10
      vertex 48.5808 6.39578 -10
      vertex 48.5808 6.39578 10
    endloop
  endfacet
  facet normal 0.997859 0.0654029 0
    outer loop
      vertex 48.5808 6.39578 -10
      vertex 49 0 10
      vertex 49 0 -10
    endloop
  endfacet
  facet normal 0.980786 0.195086 0
    outer loop
      vertex 48.5808 6.39578 10
      vertex 47.3304 12.6821 -10
      vertex 47.3304 12.6821 10
    endloop
  endfacet
  facet normal 0.980786 0.195086 0
    outer loop
      vertex 47.3304 12.6821 -10
      vertex 48.5808 6.39578 10
      vertex 48.5808 6.39578 -10
    endloop
  endfacet
  facet normal 0.946929 0.321442 0
    outer loop
      vertex 47.3304 12.6821 10
      vertex 45.2701 18.7515 -10
      vertex 45.2701 18.7515 10
    endloop
  endfacet
  facet normal 0.946929 0.321442 0
    outer loop
      vertex 45.2701 18.7515 -10
      vertex 47.3304 12.6821 10
      vertex 47.3304 12.6821 -10
    endloop
  endfacet
  facet normal 0.896869 0.442295 0
    outer loop
      vertex 45.2701 18.7515 10
      vertex 42.4352 24.5 -10
      vertex 42.4352 24.5 10
    endloop
  endfacet
  facet normal 0.896869 0.442295 0
    outer loop
      vertex 42.4352 24.5 -10
      vertex 45.2701 18.7515 10
      vertex 45.2701 18.7515 -10
    endloop
  endfacet
  facet normal 0.831471 0.555568 0
    outer loop
      vertex 42.4352 24.5 10
      vertex 38.8743 29.8293 -10
      vertex 38.8743 29.8293 10
    endloop
  endfacet
  facet normal 0.831471 0.555568 0
    outer loop
      vertex 38.8743 29.8293 -10
      vertex 42.4352 24.5 10
      vertex 42.4352 24.5 -10
    endloop
  endfacet
  facet normal 0.751837 0.659349 0
    outer loop
      vertex 38.8743 29.8293 10
      vertex 34.6482 34.6482 -10
      vertex 34.6482 34.6482 10
    endloop
  endfacet
  facet normal 0.751837 0.659349 0
    outer loop
      vertex 34.6482 34.6482 -10
      vertex 38.8743 29.8293 10
      vertex 38.8743 29.8293 -10
    endloop
  endfacet
  facet normal 0.659349 0.751837 -0
    outer loop
      vertex 34.6482 34.6482 -10
      vertex 29.8293 38.8743 10
      vertex 34.6482 34.6482 10
    endloop
  endfacet
  facet normal 0.659349 0.751837 0
    outer loop
      vertex 29.8293 38.8743 10
      vertex 34.6482 34.6482 -10
      vertex 29.8293 38.8743 -10
    endloop
  endfacet
  facet normal 0.555568 0.831471 -0
    outer loop
      vertex 29.8293 38.8743 -10
      vertex 24.5 42.4352 10
      vertex 29.8293 38.8743 10
    endloop
  endfacet
  facet normal 0.555568 0.831471 0
    outer loop
      vertex 24.5 42.4352 10
      vertex 29.8293 38.8743 -10
      vertex 24.5 42.4352 -10
    endloop
  endfacet
  facet normal 0.442295 0.896869 -0
    outer loop
      vertex 24.5 42.4352 -10
      vertex 18.7515 45.2701 10
      vertex 24.5 42.4352 10
    endloop
  endfacet
  facet normal 0.442295 0.896869 0
    outer loop
      vertex 18.7515 45.2701 10
      vertex 24.5 42.4352 -10
      vertex 18.7515 45.2701 -10
    endloop
  endfacet
  facet normal 0.321442 0.946929 -0
    outer loop
      vertex 18.7515 45.2701 -10
      vertex 12.6821 47.3304 10
      vertex 18.7515 45.2701 10
    endloop
  endfacet
  facet normal 0.321442 0.946929 0
    outer loop
      vertex 12.6821 47.3304 10
      vertex 18.7515 45.2701 -10
      vertex 12.6821 47.3304 -10
    endloop
  endfacet
  facet normal 0.195086 0.980786 -0
    outer loop
      vertex 12.6821 47.3304 -10
      vertex 6.39578 48.5808 10
      vertex 12.6821 47.3304 10
    endloop
  endfacet
  facet normal 0.195086 0.980786 0
    outer loop
      vertex 6.39578 48.5808 10
      vertex 12.6821 47.3304 -10
      vertex 6.39578 48.5808 -10
    endloop
  endfacet
  facet normal 0.0654029 0.997859 -0
    outer loop
      vertex 6.39578 48.5808 -10
      vertex 0 49 10
      vertex 6.39578 48.5808 10
    endloop
  endfacet
  facet normal 0.0654029 0.997859 0
    outer loop
      vertex 0 49 10
      vertex 6.39578 48.5808 -10
      vertex 0 49 -10
    endloop
  endfacet
  facet normal -0.0654029 0.997859 0
    outer loop
      vertex 0 49 -10
      vertex -6.39578 48.5808 10
      vertex 0 49 10
    endloop
  endfacet
  facet normal -0.0654029 0.997859 0
    outer loop
      vertex -6.39578 48.5808 10
      vertex 0 49 -10
      vertex -6.39578 48.5808 -10
    endloop
  endfacet
  facet normal -0.195086 0.980786 0
    outer loop
      vertex -6.39578 48.5808 -10
      vertex -12.6821 47.3304 10
      vertex -6.39578 48.5808 10
    endloop
  endfacet
  facet normal -0.195086 0.980786 0
    outer loop
      vertex -12.6821 47.3304 10
      vertex -6.39578 48.5808 -10
      vertex -12.6821 47.3304 -10
    endloop
  endfacet
  facet normal -0.321442 0.946929 0
    outer loop
      vertex -12.6821 47.3304 -10
      vertex -18.7515 45.2701 10
      vertex -12.6821 47.3304 10
    endloop
  endfacet
  facet normal -0.321442 0.946929 0
    outer loop
      vertex -18.7515 45.2701 10
      vertex -12.6821 47.3304 -10
      vertex -18.7515 45.2701 -10
    endloop
  endfacet
  facet normal -0.442295 0.896869 0
    outer loop
      vertex -18.7515 45.2701 -10
      vertex -24.5 42.4352 10
      vertex -18.7515 45.2701 10
    endloop
  endfacet
  facet normal -0.442295 0.896869 0
    outer loop
      vertex -24.5 42.4352 10
      vertex -18.7515 45.2701 -10
      vertex -24.5 42.4352 -10
    endloop
  endfacet
  facet normal -0.555568 0.831471 0
    outer loop
      vertex -24.5 42.4352 -10
      vertex -29.8293 38.8743 10
      vertex -24.5 42.4352 10
    endloop
  endfacet
  facet normal -0.555568 0.831471 0
    outer loop
      vertex -29.8293 38.8743 10
      vertex -24.5 42.4352 -10
      vertex -29.8293 38.8743 -10
    endloop
  endfacet
  facet normal -0.659349 0.751837 0
    outer loop
      vertex -29.8293 38.8743 -10
      vertex -34.6482 34.6482 10
      vertex -29.8293 38.8743 10
    endloop
  endfacet
  facet normal -0.659349 0.751837 0
    outer loop
      vertex -34.6482 34.6482 10
      vertex -29.8293 38.8743 -10
      vertex -34.6482 34.6482 -10
    endloop
  endfacet
  facet normal -0.751837 0.659349 0
    outer loop
      vertex -38.8743 29.8293 -10
      vertex -34.6482 34.6482 10
      vertex -34.6482 34.6482 -10
    endloop
  endfacet
  facet normal -0.751837 0.659349 0
    outer loop
      vertex -34.6482 34.6482 10
      vertex -38.8743 29.8293 -10
      vertex -38.8743 29.8293 10
    endloop
  endfacet
  facet normal -0.831471 0.555568 0
    outer loop
      vertex -42.4352 24.5 -10
      vertex -38.8743 29.8293 10
      vertex -38.8743 29.8293 -10
    endloop
  endfacet
  facet normal -0.831471 0.555568 0
    outer loop
      vertex -38.8743 29.8293 10
      vertex -42.4352 24.5 -10
      vertex -42.4352 24.5 10
    endloop
  endfacet
  facet normal -0.896869 0.442295 0
    outer loop
      vertex -45.2701 18.7515 -10
      vertex -42.4352 24.5 10
      vertex -42.4352 24.5 -10
    endloop
  endfacet
  facet normal -0.896869 0.442295 0
    outer loop
      vertex -42.4352 24.5 10
      vertex -45.2701 18.7515 -10
      vertex -45.2701 18.7515 10
    endloop
  endfacet
  facet normal -0.946929 0.321442 0
    outer loop
      vertex -47.3304 12.6821 -10
      vertex -45.2701 18.7515 10
      vertex -45.2701 18.7515 -10
    endloop
  endfacet
  facet normal -0.946929 0.321442 0
    outer loop
      vertex -45.2701 18.7515 10
      vertex -47.3304 12.6821 -10
      vertex -47.3304 12.6821 10
    endloop
  endfacet
  facet normal -0.980786 0.195086 0
    outer loop
      vertex -48.5808 6.39578 -10
      vertex -47.3304 12.6821 10
      vertex -47.3304 12.6821 -10
    endloop
  endfacet
  facet normal -0.980786 0.195086 0
    outer loop
      vertex -47.3304 12.6821 10
      vertex -48.5808 6.39578 -10
      vertex -48.5808 6.39578 10
    endloop
  endfacet
  facet normal -0.997859 0.0654029 0
    outer loop
      vertex -49 -0 -10
      vertex -48.5808 6.39578 10
      vertex -48.5808 6.39578 -10
    endloop
  endfacet
  facet normal -0.997859 0.0654029 0
    outer loop
      vertex -48.5808 6.39578 10
      vertex -49 -0 -10
      vertex -49 -0 10
    endloop
  endfacet
  facet normal -0.997859 -0.0654029 0
    outer loop
      vertex -48.5808 -6.39578 -10
      vertex -49 -0 10
      vertex -49 -0 -10
    endloop
  endfacet
  facet normal -0.997859 -0.0654029 0
    outer loop
      vertex -49 -0 10
      vertex -48.5808 -6.39578 -10
      vertex -48.5808 -6.39578 10
    endloop
  endfacet
  facet normal -0.980786 -0.195086 0
    outer loop
      vertex -47.3304 -12.6821 -10
      vertex -48.5808 -6.39578 10
      vertex -48.5808 -6.39578 -10
    endloop
  endfacet
  facet normal -0.980786 -0.195086 0
    outer loop
      vertex -48.5808 -6.39578 10
      vertex -47.3304 -12.6821 -10
      vertex -47.3304 -12.6821 10
    endloop
  endfacet
  facet normal -0.946929 -0.321442 0
    outer loop
      vertex -45.2701 -18.7515 -10
      vertex -47.3304 -12.6821 10
      vertex -47.3304 -12.6821 -10
    endloop
  endfacet
  facet normal -0.946929 -0.321442 0
    outer loop
      vertex -47.3304 -12.6821 10
      vertex -45.2701 -18.7515 -10
      vertex -45.2701 -18.7515 10
    endloop
  endfacet
  facet normal -0.896869 -0.442295 0
    outer loop
      vertex -42.4352 -24.5 -10
      vertex -45.2701 -18.7515 10
      vertex -45.2701 -18.7515 -10
    endloop
  endfacet
  facet normal -0.896869 -0.442295 0
    outer loop
      vertex -45.2701 -18.7515 10
      vertex -42.4352 -24.5 -10
      vertex -42.4352 -24.5 10
    endloop
  endfacet
  facet normal -0.831471 -0.555568 0
    outer loop
      vertex -38.8743 -29.8293 -10
      vertex -42.4352 -24.5 10
      vertex -42.4352 -24.5 -10
    endloop
  endfacet
  facet normal -0.831471 -0.555568 0
    outer loop
      vertex -42.4352 -24.5 10
      vertex -38.8743 -29.8293 -10
      vertex -38.8743 -29.8293 10
    endloop
  endfacet
  facet normal -0.751837 -0.659349 0
    outer loop
      vertex -34.6482 -34.6482 -10
      vertex -38.8743 -29.8293 10
      vertex -38.8743 -29.8293 -10
    endloop
  endfacet
  facet normal -0.751837 -0.659349 0
    outer loop
      vertex -38.8743 -29.8293 10
      vertex -34.6482 -34.6482 -10
      vertex -34.6482 -34.6482 10
    endloop
  endfacet
  facet normal -0.659349 -0.751837 0
    outer loop
      vertex -34.6482 -34.6482 -10
      vertex -29.8293 -38.8743 10
      vertex -34.6482 -34.6482 10
    endloop
  endfacet
  facet normal -0.659349 -0.751837 -0
    outer loop
      vertex -29.8293 -38.8743 10
      vertex -34.6482 -34.6482 -10
      vertex -29.8293 -38.8743 -10
    endloop
  endfacet
  facet normal -0.555568 -0.831471 0
    outer loop
      vertex -29.8293 -38.8743 -10
      vertex -24.5 -42.4352 10
      vertex -29.8293 -38.8743 10
    endloop
  endfacet
  facet normal -0.555568 -0.831471 -0
    outer loop
      vertex -24.5 -42.4352 10
      vertex -29.8293 -38.8743 -10
      vertex -24.5 -42.4352 -10
    endloop
  endfacet
  facet normal -0.442295 -0.896869 0
    outer loop
      vertex -24.5 -42.4352 -10
      vertex -18.7515 -45.2701 10
      vertex -24.5 -42.4352 10
    endloop
  endfacet
  facet normal -0.442295 -0.896869 -0
    outer loop
      vertex -18.7515 -45.2701 10
      vertex -24.5 -42.4352 -10
      vertex -18.7515 -45.2701 -10
    endloop
  endfacet
  facet normal -0.321442 -0.946929 0
    outer loop
      vertex -18.7515 -45.2701 -10
      vertex -12.6821 -47.3304 10
      vertex -18.7515 -45.2701 10
    endloop
  endfacet
  facet normal -0.321442 -0.946929 -0
    outer loop
      vertex -12.6821 -47.3304 10
      vertex -18.7515 -45.2701 -10
      vertex -12.6821 -47.3304 -10
    endloop
  endfacet
  facet normal -0.195086 -0.980786 0
    outer loop
      vertex -12.6821 -47.3304 -10
      vertex -6.39578 -48.5808 10
      vertex -12.6821 -47.3304 10
    endloop
  endfacet
  facet normal -0.195086 -0.980786 -0
    outer loop
      vertex -6.39578 -48.5808 10
      vertex -12.6821 -47.3304 -10
      vertex -6.39578 -48.5808 -10
    endloop
  endfacet
  facet normal -0.0654029 -0.997859 0
    outer loop
      vertex -6.39578 -48.5808 -10
      vertex -0 -49 10
      vertex -6.39578 -48.5808 10
    endloop
  endfacet
  facet normal -0.0654029 -0.997859 -0
    outer loop
      vertex -0 -49 10
      vertex -6.39578 -48.5808 -10
      vertex -0 -49 -10
    endloop
  endfacet
  facet normal 0.0654029 -0.997859 0
    outer loop
      vertex -0 -49 -10
      vertex 6.39578 -48.5808 10
      vertex -0 -49 10
    endloop
  endfacet
  facet normal 0.0654029 -0.997859 0
    outer loop
      vertex 6.39578 -48.5808 10
      vertex -0 -49 -10
      vertex 6.39578 -48.5808 -10
    endloop
  endfacet
  facet normal 0.195086 -0.980786 0
    outer loop
      vertex 6.39578 -48.5808 -10
      vertex 12.6821 -47.3304 10
      vertex 6.39578 -48.5808 10
    endloop
  endfacet
  facet normal 0.195086 -0.980786 0
    outer loop
      vertex 12.6821 -47.3304 10
      vertex 6.39578 -48.5808 -10
      vertex 12.6821 -47.3304 -10
    endloop
  endfacet
  facet normal 0.321442 -0.946929 0
    outer loop
      vertex 12.6821 -47.3304 -10
      vertex 18.7515 -45.2701 10
      vertex 12.6821 -47.3304 10
    endloop
  endfacet
  facet normal 0.321442 -0.946929 0
    outer loop
      vertex 18.7515 -45.2701 10
      vertex 12.6821 -47.3304 -10
      vertex 18.7515 -45.2701 -10
    endloop
  endfacet
  facet normal 0.442295 -0.896869 0
    outer loop
      vertex 18.7515 -45.2701 -10
      vertex 24.5 -42.4352 10
      vertex 18.7515 -45.2701 10
    endloop
  endfacet
  facet normal 0.442295 -0.896869 0
    outer loop
      vertex 24.5 -42.4352 10
      vertex 18.7515 -45.2701 -10
      vertex 24.5 -42.4352 -10
    endloop
  endfacet
  facet normal 0.555568 -0.831471 0
    outer loop
      vertex 24.5 -42.4352 -10
      vertex 29.8293 -38.8743 10
      vertex 24.5 -42.4352 10
    endloop
  endfacet
  facet normal 0.555568 -0.831471 0
    outer loop
      vertex 29.8293 -38.8743 10
      vertex 24.5 -42.4352 -10
      vertex 29.8293 -38.8743 -10
    endloop
  endfacet
  facet normal 0.659349 -0.751837 0
    outer loop
      vertex 29.8293 -38.8743 -10
      vertex 34.6482 -34.6482 10
      vertex 29.8293 -38.8743 10
    endloop
  endfacet
  facet normal 0.659349 -0.751837 0
    outer loop
      vertex 34.6482 -34.6482 10
      vertex 29.8293 -38.8743 -10
      vertex 34.6482 -34.6482 -10
    endloop
  endfacet
  facet normal 0.751837 -0.659349 0
    outer loop
      vertex 34.6482 -34.6482 10
      vertex 38.8743 -29.8293 -10
      vertex 38.8743 -29.8293 10
    endloop
  endfacet
  facet normal 0.751837 -0.659349 0
    outer loop
      vertex 38.8743 -29.8293 -10
      vertex 34.6482 -34.6482 10
      vertex 34.6482 -34.6482 -10
    endloop
  endfacet
  facet normal 0.831471 -0.555568 0
    outer loop
      vertex 38.8743 -29.8293 10
      vertex 42.4352 -24.5 -10
      vertex 42.4352 -24.5 10
    endloop
  endfacet
  facet normal 0.831471 -0.555568 0
    outer loop
      vertex 42.4352 -24.5 -10
      vertex 38.8743 -29.8293 10
      vertex 38.8743 -29.8293 -10
    endloop
  endfacet
  facet normal 0.896869 -0.442295 0
    outer loop
      vertex 42.4352 -24.5 10
      vertex 45.2701 -18.7515 -10
      vertex 45.2701 -18.7515 10
    endloop
  endfacet
  facet normal 0.896869 -0.442295 0
    outer loop
      vertex 45.2701 -18.7515 -10
      vertex 42.4352 -24.5 10
      vertex 42.4352 -24.5 -10
    endloop
  endfacet
  facet normal 0.946929 -0.321442 0
    outer loop
      vertex 45.2701 -18.7515 10
      vertex 47.3304 -12.6821 -10
      vertex 47.3304 -12.6821 10
    endloop
  endfacet
  facet normal 0.946929 -0.321442 0
    outer loop
      vertex 47.3304 -12.6821 -10
      vertex 45.2701 -18.7515 10
      vertex 45.2701 -18.7515 -10
    endloop
  endfacet
  facet normal 0.980786 -0.195086 0
    outer loop
      vertex 47.3304 -12.6821 10
      vertex 48.5808 -6.39578 -10
      vertex 48.5808 -6.39578 10
    endloop
  endfacet
  facet normal 0.980786 -0.195086 0
    outer loop
      vertex 48.5808 -6.39578 -10
      vertex 47.3304 -12.6821 10
      vertex 47.3304 -12.6821 -10
    endloop
  endfacet
  facet normal 0.997859 -0.0654029 0
    outer loop
      vertex 48.5808 -6.39578 10
      vertex 49 0 -10
      vertex 49 0 10
    endloop
  endfacet
  facet normal 0.997859 -0.0654029 0
    outer loop
      vertex 49 0 -10
      vertex 48.5808 -6.39578 10
      vertex 48.5808 -6.39578 -10
    endloop
  endfacet
  facet normal 0 0 -1
    outer loop
      vertex 48.5808 -6.39578 -10
      vertex 48.5808 6.39578 -10
      vertex 49 0 -10
    endloop
  endfacet
  facet normal 0 0 -1
    outer loop
      vertex 47.3304 -12.6821 -10
      vertex 48.5808 6.39578 -10
      vertex 48.5808 -6.39578 -10
    endloop
  endfacet
  facet normal 0 0 -1
    outer loop
      vertex 47.3304 -12.6821 -10
      vertex 47.3304 12.6821 -10
      vertex 48.5808 6.39578 -10
    endloop
  endfacet
  facet normal 0 0 -1
    outer loop
      vertex 45.2701 -18.7515 -10
      vertex 47.3304 12.6821 -10
      vertex 47.3304 -12.6821 -10
    endloop
  endfacet
  facet normal 0 0 -1
    outer loop
      vertex 45.2701 -18.7515 -10
      vertex 45.2701 18.7515 -10
      vertex 47.3304 12.6821 -10
    endloop
  endfacet
  facet normal 0 0 -1
    outer loop
      vertex 42.4352 -24.5 -10
      vertex 45.2701 18.7515 -10
      vertex 45.2701 -18.7515 -10
    endloop
  endfacet
  facet normal 0 0 -1
    outer loop
      vertex 42.4352 -24.5 -10
      vertex 42.4352 24.5 -10
      vertex 45.2701 18.7515 -10
    endloop
  endfacet
  facet normal 0 0 -1
    outer loop
      vertex 38.8743 -29.8293 -10
      vertex 42.4352 24.5 -10
      vertex 42.4352 -24.5 -10
    endloop
  endfacet
  facet normal 0 0 -1
    outer loop
      vertex 38.8743 -29.8293 -10
      vertex 38.8743 29.8293 -10
      vertex 42.4352 24.5 -10
    endloop
  endfacet
  facet normal 0 0 -1
    outer loop
      vertex 34.6482 -34.6482 -10
      vertex 38.8743 29.8293 -10
      vertex 38.8743 -29.8293 -10
    endloop
  endfacet
  facet normal 0 0 -1
    outer loop
      vertex 34.6482 -34.6482 -10
      vertex 34.6482 34.6482 -10
      vertex 38.8743 29.8293 -10
    endloop
  endfacet
  facet normal 0 0 -1
    outer loop
      vertex 29.8293 -38.8743 -10
      vertex 34.6482 34.6482 -10
      vertex 34.6482 -34.6482 -10
    endloop
  endfacet
  facet normal 0 0 -1
    outer loop
      vertex 29.8293 -38.8743 -10
      vertex 29.8293 38.8743 -10
      vertex 34.6482 34.6482 -10
    endloop
  endfacet
  facet normal 0 0 -1
    outer loop
      vertex 24.5 -42.4352 -10
      vertex 29.8293 38.8743 -10
      vertex 29.8293 -38.8743 -10
    endloop
  endfacet
  facet normal 0 0 -1
    outer loop
      vertex 24.5 -42.4352 -10
      vertex 24.5 42.4352 -10
      vertex 29.8293 38.8743 -10
    endloop
  endfacet
  facet normal 0 0 -1
    outer loop
      vertex 18.7515 -45.2701 -10
      vertex 24.5 42.4352 -10
      vertex 24.5 -42.4352 -10
    endloop
  endfacet
  facet normal 0 0 -1
    outer loop
      vertex 18.7515 -45.2701 -10
      vertex 18.7515 45.2701 -10
      vertex 24.5 42.4352 -10
    endloop
  endfacet
  facet normal 0 0 -1
    outer loop
      vertex 12.6821 -47.3304 -10
      vertex 18.7515 45.2701 -10
      vertex 18.7515 -45.2701 -10
    endloop
  endfacet
  facet normal 0 0 -1
    outer loop
      vertex 12.6821 -47.3304 -10
      vertex 12.6821 47.3304 -10
      vertex 18.7515 45.2701 -10
    endloop
  endfacet
  facet normal 0 0 -1
    outer loop
      vertex 6.39578 -48.5808 -10
      vertex 12.6821 47.3304 -10
      vertex 12.6821 -47.3304 -10
    endloop
  endfacet
  facet normal 0 0 -1
    outer loop
      vertex 6.39578 -48.5808 -10
      vertex 6.39578 48.5808 -10
      vertex 12.6821 47.3304 -10
    endloop
  endfacet
  facet normal 0 0 -1
    outer loop
      vertex -0 -49 -10
      vertex 6.39578 48.5808 -10
      vertex 6.39578 -48.5808 -10
    endloop
  endfacet
  facet normal 0 0 -1
    outer loop
      vertex -0 -49 -10
      vertex 0 49 -10
      vertex 6.39578 48.5808 -10
    endloop
  endfacet
  facet normal 0 0 -1
    outer loop
      vertex -6.39578 -48.5808 -10
      vertex 0 49 -10
      vertex -0 -49 -10
    endloop
  endfacet
  facet normal 0 0 -1
    outer loop
      vertex -6.39578 -48.5808 -10
      vertex -6.39578 48.5808 -10
      vertex 0 49 -10
    endloop
  endfacet
  facet normal 0 0 -1
    outer loop
      vertex -12.6821 -47.3304 -10
      vertex -6.39578 48.5808 -10
      vertex -6.39578 -48.5808 -10
    endloop
  endfacet
  facet normal 0 0 -1
    outer loop
      vertex -12.6821 -47.3304 -10
      vertex -12.6821 47.3304 -10
      vertex -6.39578 48.5808 -10
    endloop
  endfacet
  facet normal 0 0 -1
    outer loop
      vertex -18.7515 -45.2701 -10
      vertex -12.6821 47.3304 -10
      vertex -12.6821 -47.3304 -10
    endloop
  endfacet
  facet normal 0 0 -1
    outer loop
      vertex -18.7515 -45.2701 -10
      vertex -18.7515 45.2701 -10
      vertex -12.6821 47.3304 -10
    endloop
  endfacet
  facet normal 0 0 -1
    outer loop
      vertex -24.5 -42.4352 -10
      vertex -18.7515 45.2701 -10
      vertex -18.7515 -45.2701 -10
    endloop
  endfacet
  facet normal 0 0 -1
    outer loop
      vertex -24.5 -42.4352 -10
      vertex -24.5 42.4352 -10
      vertex -18.7515 45.2701 -10
    endloop
  endfacet
  facet normal 0 0 -1
    outer loop
      vertex -29.8293 -38.8743 -10
      vertex -24.5 42.4352 -10
      vertex -24.5 -42.4352 -10
    endloop
  endfacet
  facet normal 0 0 -1
    outer loop
      vertex -29.8293 -38.8743 -10
      vertex -29.8293 38.8743 -10
      vertex -24.5 42.4352 -10
    endloop
  endfacet
  facet normal 0 0 -1
    outer loop
      vertex -34.6482 -34.6482 -10
      vertex -29.8293 38.8743 -10
      vertex -29.8293 -38.8743 -10
    endloop
  endfacet
  facet normal 0 0 -1
    outer loop
      vertex -34.6482 -34.6482 -10
      vertex -34.6482 34.6482 -10
      vertex -29.8293 38.8743 -10
    endloop
  endfacet
  facet normal 0 0 -1
    outer loop
      vertex -38.8743 -29.8293 -10
      vertex -34.6482 34.6482 -10
      vertex -34.6482 -34.6482 -10
    endloop
  endfacet
  facet normal 0 0 -1
    outer loop
      vertex -38.8743 -29.8293 -10
      vertex -38.8743 29.8293 -10
      vertex -34.6482 34.6482 -10
    endloop
  endfacet
  facet normal 0 0 -1
    outer loop
      vertex -42.4352 -24.5 -10
      vertex -38.8743 29.8293 -10
      vertex -38.8743 -29.8293 -10
    endloop
  endfacet
  facet normal 0 0 -1
    outer loop
      vertex -42.4352 -24.5 -10
      vertex -42.4352 24.5 -10
      vertex -38.8743 29.8293 -10
    endloop
  endfacet
  facet normal 0 0 -1
    outer loop
      vertex -45.2701 -18.7515 -10
      vertex -42.4352 24.5 -10
      vertex -42.4352 -24.5 -10
    endloop
  endfacet
  facet normal 0 0 -1
    outer loop
      vertex -45.2701 -18.7515 -10
      vertex -45.2701 18.7515 -10
      vertex -42.4352 24.5 -10
    endloop
  endfacet
  facet normal 0 0 -1
    outer loop
      vertex -47.3304 -12.6821 -10
      vertex -45.2701 18.7515 -10
      vertex -45.2701 -18.7515 -10
    endloop
  endfacet
  facet normal 0 0 -1
    outer loop
      vertex -47.3304 -12.6821 -10
      vertex -47.3304 12.6821 -10
      vertex -45.2701 18.7515 -10
    endloop
  endfacet
  facet normal 0 0 -1
    outer loop
      vertex -48.5808 -6.39578 -10
      vertex -47.3304 12.6821 -10
      vertex -47.3304 -12.6821 -10
    endloop
  endfacet
  facet normal 0 0 -1
    outer loop
      vertex -48.5808 -6.39578 -10
      vertex -48.5808 6.39578 -10
      vertex -47.3304 12.6821 -10
    endloop
  endfacet
  facet normal 0 -0 -1
    outer loop
      vertex -48.5808 6.39578 -10
      vertex -48.5808 -6.39578 -10
      vertex -49 -0 -10
    endloop
  endfacet
  facet normal 0 0 1
    outer loop
      vertex 48.5808 6.39578 10
      vertex 48.5808 -6.39578 10
      vertex 49 0 10
    endloop
  endfacet
  facet normal 0 0 1
    outer loop
      vertex 47.3304 12.6821 10
      vertex 48.5808 -6.39578 10
      vertex 48.5808 6.39578 10
    endloop
  endfacet
  facet normal 0 0 1
    outer loop
      vertex 47.3304 12.6821 10
      vertex 47.3304 -12.6821 10
      vertex 48.5808 -6.39578 10
    endloop
  endfacet
  facet normal 0 0 1
    outer loop
      vertex 45.2701 18.7515 10
      vertex 47.3304 -12.6821 10
      vertex 47.3304 12.6821 10
    endloop
  endfacet
  facet normal 0 0 1
    outer loop
      vertex 45.2701 18.7515 10
      vertex 45.2701 -18.7515 10
      vertex 47.3304 -12.6821 10
    endloop
  endfacet
  facet normal 0 0 1
    outer loop
      vertex 42.4352 24.5 10
      vertex 45.2701 -18.7515 10
      vertex 45.2701 18.7515 10
    endloop
  endfacet
  facet normal 0 0 1
    outer loop
      vertex 42.4352 24.5 10
      vertex 42.4352 -24.5 10
      vertex 45.2701 -18.7515 10
    endloop
  endfacet
  facet normal 0 0 1
    outer loop
      vertex 38.8743 29.8293 10
      vertex 42.4352 -24.5 10
      vertex 42.4352 24.5 10
    endloop
  endfacet
  facet normal 0 0 1
    outer loop
      vertex 38.8743 29.8293 10
      vertex 38.8743 -29.8293 10
      vertex 42.4352 -24.5 10
    endloop
  endfacet
  facet normal 0 0 1
    outer loop
      vertex 34.6482 34.6482 10
      vertex 38.8743 -29.8293 10
      vertex 38.8743 29.8293 10
    endloop
  endfacet
  facet normal 0 0 1
    outer loop
      vertex 34.6482 34.6482 10
      vertex 34.6482 -34.6482 10
      vertex 38.8743 -29.8293 10
    endloop
  endfacet
  facet normal 0 0 1
    outer loop
      vertex 29.8293 38.8743 10
      vertex 34.6482 -34.6482 10
      vertex 34.6482 34.6482 10
    endloop
  endfacet
  facet normal 0 0 1
    outer loop
      vertex 29.8293 38.8743 10
      vertex 29.8293 -38.8743 10
      vertex 34.6482 -34.6482 10
    endloop
  endfacet
  facet normal 0 0 1
    outer loop
      vertex 24.5 42.4352 10
      vertex 29.8293 -38.8743 10
      vertex 29.8293 38.8743 10
    endloop
  endfacet
  facet normal 0 0 1
    outer loop
      vertex 24.5 42.4352 10
      vertex 24.5 -42.4352 10
      vertex 29.8293 -38.8743 10
    endloop
  endfacet
  facet normal 0 0 1
    outer loop
      vertex 18.7515 45.2701 10
      vertex 24.5 -42.4352 10
      vertex 24.5 42.4352 10
    endloop
  endfacet
  facet normal 0 0 1
    outer loop
      vertex 18.7515 45.2701 10
      vertex 18.7515 -45.2701 10
      vertex 24.5 -42.4352 10
    endloop
  endfacet
  facet normal 0 0 1
    outer loop
      vertex 12.6821 47.3304 10
      vertex 18.7515 -45.2701 10
      vertex 18.7515 45.2701 10
    endloop
  endfacet
  facet normal 0 0 1
    outer loop
      vertex 12.6821 47.3304 10
      vertex 12.6821 -47.3304 10
      vertex 18.7515 -45.2701 10
    endloop
  endfacet
  facet normal 0 0 1
    outer loop
      vertex 6.39578 48.5808 10
      vertex 12.6821 -47.3304 10
      vertex 12.6821 47.3304 10
    endloop
  endfacet
  facet normal 0 0 1
    outer loop
      vertex 6.39578 48.5808 10
      vertex 6.39578 -48.5808 10
      vertex 12.6821 -47.3304 10
    endloop
  endfacet
  facet normal 0 0 1
    outer loop
      vertex 0 49 10
      vertex 6.39578 -48.5808 10
      vertex 6.39578 48.5808 10
    endloop
  endfacet
  facet normal 0 0 1
    outer loop
      vertex 0 49 10
      vertex -0 -49 10
      vertex 6.39578 -48.5808 10
    endloop
  endfacet
  facet normal -0 0 1
    outer loop
      vertex -6.39578 48.5808 10
      vertex -0 -49 10
      vertex 0 49 10
    endloop
  endfacet
  facet normal 0 0 1
    outer loop
      vertex -6.39578 48.5808 10
      vertex -6.39578 -48.5808 10
      vertex -0 -49 10
    endloop
  endfacet
  facet normal -0 0 1
    outer loop
      vertex -12.6821 47.3304 10
      vertex -6.39578 -48.5808 10
      vertex -6.39578 48.5808 10
    endloop
  endfacet
  facet normal 0 0 1
    outer loop
      vertex -12.6821 47.3304 10
      vertex -12.6821 -47.3304 10
      vertex -6.39578 -48.5808 10
    endloop
  endfacet
  facet normal -0 0 1
    outer loop
      vertex -18.7515 45.2701 10
      vertex -12.6821 -47.3304 10
      vertex -12.6821 47.3304 10
    endloop
  endfacet
  facet normal 0 0 1
    outer loop
      vertex -18.7515 45.2701 10
      vertex -18.7515 -45.2701 10
      vertex -12.6821 -47.3304 10
    endloop
  endfacet
  facet normal -0 0 1
    outer loop
      vertex -24.5 42.4352 10
      vertex -18.7515 -45.2701 10
      vertex -18.7515 45.2701 10
    endloop
  endfacet
  facet normal 0 0 1
    outer loop
      vertex -24.5 42.4352 10
      vertex -24.5 -42.4352 10
      vertex -18.7515 -45.2701 10
    endloop
  endfacet
  facet normal -0 0 1
    outer loop
      vertex -29.8293 38.8743 10
      vertex -24.5 -42.4352 10
      vertex -24.5 42.4352 10
    endloop
  endfacet
  facet normal 0 0 1
    outer loop
      vertex -29.8293 38.8743 10
      vertex -29.8293 -38.8743 10
      vertex -24.5 -42.4352 10
    endloop
  endfacet
  facet normal -0 0 1
    outer loop
      vertex -34.6482 34.6482 10
      vertex -29.8293 -38.8743 10
      vertex -29.8293 38.8743 10
    endloop
  endfacet
  facet normal 0 0 1
    outer loop
      vertex -34.6482 34.6482 10
      vertex -34.6482 -34.6482 10
      vertex -29.8293 -38.8743 10
    endloop
  endfacet
  facet normal -0 0 1
    outer loop
      vertex -38.8743 29.8293 10
      vertex -34.6482 -34.6482 10
      vertex -34.6482 34.6482 10
    endloop
  endfacet
  facet normal 0 0 1
    outer loop
      vertex -38.8743 29.8293 10
      vertex -38.8743 -29.8293 10
      vertex -34.6482 -34.6482 10
    endloop
  endfacet
  facet normal -0 0 1
    outer loop
      vertex -42.4352 24.5 10
      vertex -38.8743 -29.8293 10
      vertex -38.8743 29.8293 10
    endloop
  endfacet
  facet normal 0 0 1
    outer loop
      vertex -42.4352 24.5 10
      vertex -42.4352 -24.5 10
      vertex -38.8743 -29.8293 10
    endloop
  endfacet
  facet normal -0 0 1
    outer loop
      vertex -45.2701 18.7515 10
      vertex -42.4352 -24.5 10
      vertex -42.4352 24.5 10
    endloop
  endfacet
  facet normal 0 0 1
    outer loop
      vertex -45.2701 18.7515 10
      vertex -45.2701 -18.7515 10
      vertex -42.4352 -24.5 10
    endloop
  endfacet
  facet normal -0 0 1
    outer loop
      vertex -47.3304 12.6821 10
      vertex -45.2701 -18.7515 10
      vertex -45.2701 18.7515 10
    endloop
  endfacet
  facet normal 0 0 1
    outer loop
      vertex -47.3304 12.6821 10
      vertex -47.3304 -12.6821 10
      vertex -45.2701 -18.7515 10
    endloop
  endfacet
  facet normal -0 0 1
    outer loop
      vertex -48.5808 6.39578 10
      vertex -47.3304 -12.6821 10
      vertex -47.3304 12.6821 10
    endloop
  endfacet
  facet normal 0 0 1
    outer loop
      vertex -48.5808 6.39578 10
      vertex -48.5808 -6.39578 10
      vertex -47.3304 -12.6821 10
    endloop
  endfacet
  facet normal 0 -0 1
    outer loop
      vertex -48.5808 -6.39578 10
      vertex -48.5808 6.39578 10
      vertex -49 -0 10
    endloop
  endfacet
endsolid OpenSCAD_Model
