solid OpenSCAD_Model
  facet normal 0.997858 0.0654116 0
    outer loop
      vertex 32 0 7.5
      vertex 31.7262 4.17684 -7.5
      vertex 31.7262 4.17684 7.5
    endloop
  endfacet
  facet normal 0.997858 0.0654116 0
    outer loop
      vertex 31.7262 4.17684 -7.5
      vertex 32 0 7.5
      vertex 32 0 -7.5
    endloop
  endfacet
  facet normal 0.980786 0.195088 0
    outer loop
      vertex 31.7262 4.17684 7.5
      vertex 30.9096 8.28221 -7.5
      vertex 30.9096 8.28221 7.5
    endloop
  endfacet
  facet normal 0.980786 0.195088 0
    outer loop
      vertex 30.9096 8.28221 -7.5
      vertex 31.7262 4.17684 7.5
      vertex 31.7262 4.17684 -7.5
    endloop
  endfacet
  facet normal 0.94693 0.321441 0
    outer loop
      vertex 30.9096 8.28221 7.5
      vertex 29.5641 12.2459 -7.5
      vertex 29.5641 12.2459 7.5
    endloop
  endfacet
  facet normal 0.94693 0.321441 0
    outer loop
      vertex 29.5641 12.2459 -7.5
      vertex 30.9096 8.28221 7.5
      vertex 30.9096 8.28221 -7.5
    endloop
  endfacet
  facet normal 0.896874 0.442285 0
    outer loop
      vertex 29.5641 12.2459 7.5
      vertex 27.7128 16 -7.5
      vertex 27.7128 16 7.5
    endloop
  endfacet
  facet normal 0.896874 0.442285 0
    outer loop
      vertex 27.7128 16 -7.5
      vertex 29.5641 12.2459 7.5
      vertex 29.5641 12.2459 -7.5
    endloop
  endfacet
  facet normal 0.831473 0.555565 0
    outer loop
      vertex 27.7128 16 7.5
      vertex 25.3873 19.4804 -7.5
      vertex 25.3873 19.4804 7.5
    endloop
  endfacet
  facet normal 0.831473 0.555565 0
    outer loop
      vertex 25.3873 19.4804 -7.5
      vertex 27.7128 16 7.5
      vertex 27.7128 16 -7.5
    endloop
  endfacet
  facet normal 0.751833 0.659353 0
    outer loop
      vertex 25.3873 19.4804 7.5
      vertex 22.6274 22.6274 -7.5
      vertex 22.6274 22.6274 7.5
    endloop
  endfacet
  facet normal 0.751833 0.659353 0
    outer loop
      vertex 22.6274 22.6274 -7.5
      vertex 25.3873 19.4804 7.5
      vertex 25.3873 19.4804 -7.5
    endloop
  endfacet
  facet normal 0.659353 0.751833 -0
    outer loop
      vertex 22.6274 22.6274 -7.5
      vertex 19.4804 25.3873 7.5
      vertex 22.6274 22.6274 7.5
    endloop
  endfacet
  facet normal 0.659353 0.751833 0
    outer loop
      vertex 19.4804 25.3873 7.5
      vertex 22.6274 22.6274 -7.5
      vertex 19.4804 25.3873 -7.5
    endloop
  endfacet
  facet normal 0.555565 0.831473 -0
    outer loop
      vertex 19.4804 25.3873 -7.5
      vertex 16 27.7128 7.5
      vertex 19.4804 25.3873 7.5
    endloop
  endfacet
  facet normal 0.555565 0.831473 0
    outer loop
      vertex 16 27.7128 7.5
      vertex 19.4804 25.3873 -7.5
      vertex 16 27.7128 -7.5
    endloop
  endfacet
  facet normal 0.442285 0.896874 -0
    outer loop
      vertex 16 27.7128 -7.5
      vertex 12.2459 29.5641 7.5
      vertex 16 27.7128 7.5
    endloop
  endfacet
  facet normal 0.442285 0.896874 0
    outer loop
      vertex 12.2459 29.5641 7.5
      vertex 16 27.7128 -7.5
      vertex 12.2459 29.5641 -7.5
    endloop
  endfacet
  facet normal 0.321441 0.94693 -0
    outer loop
      vertex 12.2459 29.5641 -7.5
      vertex 8.28221 30.9096 7.5
      vertex 12.2459 29.5641 7.5
    endloop
  endfacet
  facet normal 0.321441 0.94693 0
    outer loop
      vertex 8.28221 30.9096 7.5
      vertex 12.2459 29.5641 -7.5
      vertex 8.28221 30.9096 -7.5
    endloop
  endfacet
  facet normal 0.195088 0.980786 -0
    outer loop
      vertex 8.28221 30.9096 -7.5
      vertex 4.17684 31.7262 7.5
      vertex 8.28221 30.9096 7.5
    endloop
  endfacet
  facet normal 0.195088 0.980786 0
    outer loop
      vertex 4.17684 31.7262 7.5
      vertex 8.28221 30.9096 -7.5
      vertex 4.17684 31.7262 -7.5
    endloop
  endfacet
  facet normal 0.0654116 0.997858 -0
    outer loop
      vertex 4.17684 31.7262 -7.5
      vertex 0 32 7.5
      vertex 4.17684 31.7262 7.5
    endloop
  endfacet
  facet normal 0.0654116 0.997858 0
    outer loop
      vertex 0 32 7.5
      vertex 4.17684 31.7262 -7.5
      vertex 0 32 -7.5
    endloop
  endfacet
  facet normal -0.0654116 0.997858 0
    outer loop
      vertex 0 32 -7.5
      vertex -4.17684 31.7262 7.5
      vertex 0 32 7.5
    endloop
  endfacet
  facet normal -0.0654116 0.997858 0
    outer loop
      vertex -4.17684 31.7262 7.5
      vertex 0 32 -7.5
      vertex -4.17684 31.7262 -7.5
    endloop
  endfacet
  facet normal -0.195088 0.980786 0
    outer loop
      vertex -4.17684 31.7262 -7.5
      vertex -8.28221 30.9096 7.5
      vertex -4.17684 31.7262 7.5
    endloop
  endfacet
  facet normal -0.195088 0.980786 0
    outer loop
      vertex -8.28221 30.9096 7.5
      vertex -4.17684 31.7262 -7.5
      vertex -8.28221 30.9096 -7.5
    endloop
  endfacet
  facet normal -0.321441 0.94693 0
    outer loop
      vertex -8.28221 30.9096 -7.5
      vertex -12.2459 29.5641 7.5
      vertex -8.28221 30.9096 7.5
    endloop
  endfacet
  facet normal -0.321441 0.94693 0
    outer loop
      vertex -12.2459 29.5641 7.5
      vertex -8.28221 30.9096 -7.5
      vertex -12.2459 29.5641 -7.5
    endloop
  endfacet
  facet normal -0.442285 0.896874 0
    outer loop
      vertex -12.2459 29.5641 -7.5
      vertex -16 27.7128 7.5
      vertex -12.2459 29.5641 7.5
    endloop
  endfacet
  facet normal -0.442285 0.896874 0
    outer loop
      vertex -16 27.7128 7.5
      vertex -12.2459 29.5641 -7.5
      vertex -16 27.7128 -7.5
    endloop
  endfacet
  facet normal -0.555565 0.831473 0
    outer loop
      vertex -16 27.7128 -7.5
      vertex -19.4804 25.3873 7.5
      vertex -16 27.7128 7.5
    endloop
  endfacet
  facet normal -0.555565 0.831473 0
    outer loop
      vertex -19.4804 25.3873 7.5
      vertex -16 27.7128 -7.5
      vertex -19.4804 25.3873 -7.5
    endloop
  endfacet
  facet normal -0.659353 0.751833 0
    outer loop
      vertex -19.4804 25.3873 -7.5
      vertex -22.6274 22.6274 7.5
      vertex -19.4804 25.3873 7.5
    endloop
  endfacet
  facet normal -0.659353 0.751833 0
    outer loop
      vertex -22.6274 22.6274 7.5
      vertex -19.4804 25.3873 -7.5
      vertex -22.6274 22.6274 -7.5
    endloop
  endfacet
  facet normal -0.751833 0.659353 0
    outer loop
      vertex -25.3873 19.4804 -7.5
      vertex -22.6274 22.6274 7.5
      vertex -22.6274 22.6274 -7.5
    endloop
  endfacet
  facet normal -0.751833 0.659353 0
    outer loop
      vertex -22.6274 22.6274 7.5
      vertex -25.3873 19.4804 -7.5
      vertex -25.3873 19.4804 7.5
    endloop
  endfacet
  facet normal -0.831473 0.555565 0
    outer loop
      vertex -27.7128 16 -7.5
      vertex -25.3873 19.4804 7.5
      vertex -25.3873 19.4804 -7.5
    endloop
  endfacet
  facet normal -0.831473 0.555565 0
    outer loop
      vertex -25.3873 19.4804 7.5
      vertex -27.7128 16 -7.5
      vertex -27.7128 16 7.5
    endloop
  endfacet
  facet normal -0.896874 0.442285 0
    outer loop
      vertex -29.5641 12.2459 -7.5
      vertex -27.7128 16 7.5
      vertex -27.7128 16 -7.5
    endloop
  endfacet
  facet normal -0.896874 0.442285 0
    outer loop
      vertex -27.7128 16 7.5
      vertex -29.5641 12.2459 -7.5
      vertex -29.5641 12.2459 7.5
    endloop
  endfacet
  facet normal -0.94693 0.321441 0
    outer loop
      vertex -30.9096 8.28221 -7.5
      vertex -29.5641 12.2459 7.5
      vertex -29.5641 12.2459 -7.5
    endloop
  endfacet
  facet normal -0.94693 0.321441 0
    outer loop
      vertex -29.5641 12.2459 7.5
      vertex -30.9096 8.28221 -7.5
      vertex -30.9096 8.28221 7.5
    endloop
  endfacet
  facet normal -0.980786 0.195088 0
    outer loop
      vertex -31.7262 4.17684 -7.5
      vertex -30.9096 8.28221 7.5
      vertex -30.9096 8.28221 -7.5
    endloop
  endfacet
  facet normal -0.980786 0.195088 0
    outer loop
      vertex -30.9096 8.28221 7.5
      vertex -31.7262 4.17684 -7.5
      vertex -31.7262 4.17684 7.5
    endloop
  endfacet
  facet normal -0.997858 0.0654116 0
    outer loop
      vertex -32 -0 -7.5
      vertex -31.7262 4.17684 7.5
      vertex -31.7262 4.17684 -7.5
    endloop
  endfacet
  facet normal -0.997858 0.0654116 0
    outer loop
      vertex -31.7262 4.17684 7.5
      vertex -32 -0 -7.5
      vertex -32 -0 7.5
    endloop
  endfacet
  facet normal -0.997858 -0.0654116 0
    outer loop
      vertex -31.7262 -4.17684 -7.5
      vertex -32 -0 7.5
      vertex -32 -0 -7.5
    endloop
  endfacet
  facet normal -0.997858 -0.0654116 0
    outer loop
      vertex -32 -0 7.5
      vertex -31.7262 -4.17684 -7.5
      vertex -31.7262 -4.17684 7.5
    endloop
  endfacet
  facet normal -0.980786 -0.195088 0
    outer loop
      vertex -30.9096 -8.28221 -7.5
      vertex -31.7262 -4.17684 7.5
      vertex -31.7262 -4.17684 -7.5
    endloop
  endfacet
  facet normal -0.980786 -0.195088 0
    outer loop
      vertex -31.7262 -4.17684 7.5
      vertex -30.9096 -8.28221 -7.5
      vertex -30.9096 -8.28221 7.5
    endloop
  endfacet
  facet normal -0.94693 -0.321441 0
    outer loop
      vertex -29.5641 -12.2459 -7.5
      vertex -30.9096 -8.28221 7.5
      vertex -30.9096 -8.28221 -7.5
    endloop
  endfacet
  facet normal -0.94693 -0.321441 0
    outer loop
      vertex -30.9096 -8.28221 7.5
      vertex -29.5641 -12.2459 -7.5
      vertex -29.5641 -12.2459 7.5
    endloop
  endfacet
  facet normal -0.896874 -0.442285 0
    outer loop
      vertex -27.7128 -16 -7.5
      vertex -29.5641 -12.2459 7.5
      vertex -29.5641 -12.2459 -7.5
    endloop
  endfacet
  facet normal -0.896874 -0.442285 0
    outer loop
      vertex -29.5641 -12.2459 7.5
      vertex -27.7128 -16 -7.5
      vertex -27.7128 -16 7.5
    endloop
  endfacet
  facet normal -0.831473 -0.555565 0
    outer loop
      vertex -25.3873 -19.4804 -7.5
      vertex -27.7128 -16 7.5
      vertex -27.7128 -16 -7.5
    endloop
  endfacet
  facet normal -0.831473 -0.555565 0
    outer loop
      vertex -27.7128 -16 7.5
      vertex -25.3873 -19.4804 -7.5
      vertex -25.3873 -19.4804 7.5
    endloop
  endfacet
  facet normal -0.751833 -0.659353 0
    outer loop
      vertex -22.6274 -22.6274 -7.5
      vertex -25.3873 -19.4804 7.5
      vertex -25.3873 -19.4804 -7.5
    endloop
  endfacet
  facet normal -0.751833 -0.659353 0
    outer loop
      vertex -25.3873 -19.4804 7.5
      vertex -22.6274 -22.6274 -7.5
      vertex -22.6274 -22.6274 7.5
    endloop
  endfacet
  facet normal -0.659353 -0.751833 0
    outer loop
      vertex -22.6274 -22.6274 -7.5
      vertex -19.4804 -25.3873 7.5
      vertex -22.6274 -22.6274 7.5
    endloop
  endfacet
  facet normal -0.659353 -0.751833 -0
    outer loop
      vertex -19.4804 -25.3873 7.5
      vertex -22.6274 -22.6274 -7.5
      vertex -19.4804 -25.3873 -7.5
    endloop
  endfacet
  facet normal -0.555565 -0.831473 0
    outer loop
      vertex -19.4804 -25.3873 -7.5
      vertex -16 -27.7128 7.5
      vertex -19.4804 -25.3873 7.5
    endloop
  endfacet
  facet normal -0.555565 -0.831473 -0
    outer loop
      vertex -16 -27.7128 7.5
      vertex -19.4804 -25.3873 -7.5
      vertex -16 -27.7128 -7.5
    endloop
  endfacet
  facet normal -0.442285 -0.896874 0
    outer loop
      vertex -16 -27.7128 -7.5
      vertex -12.2459 -29.5641 7.5
      vertex -16 -27.7128 7.5
    endloop
  endfacet
  facet normal -0.442285 -0.896874 -0
    outer loop
      vertex -12.2459 -29.5641 7.5
      vertex -16 -27.7128 -7.5
      vertex -12.2459 -29.5641 -7.5
    endloop
  endfacet
  facet normal -0.321441 -0.94693 0
    outer loop
      vertex -12.2459 -29.5641 -7.5
      vertex -8.28221 -30.9096 7.5
      vertex -12.2459 -29.5641 7.5
    endloop
  endfacet
  facet normal -0.321441 -0.94693 -0
    outer loop
      vertex -8.28221 -30.9096 7.5
      vertex -12.2459 -29.5641 -7.5
      vertex -8.28221 -30.9096 -7.5
    endloop
  endfacet
  facet normal -0.195088 -0.980786 0
    outer loop
      vertex -8.28221 -30.9096 -7.5
      vertex -4.17684 -31.7262 7.5
      vertex -8.28221 -30.9096 7.5
    endloop
  endfacet
  facet normal -0.195088 -0.980786 -0
    outer loop
      vertex -4.17684 -31.7262 7.5
      vertex -8.28221 -30.9096 -7.5
      vertex -4.17684 -31.7262 -7.5
    endloop
  endfacet
  facet normal -0.0654116 -0.997858 0
    outer loop
      vertex -4.17684 -31.7262 -7.5
      vertex -0 -32 7.5
      vertex -4.17684 -31.7262 7.5
    endloop
  endfacet
  facet normal -0.0654116 -0.997858 -0
    outer loop
      vertex -0 -32 7.5
      vertex -4.17684 -31.7262 -7.5
      vertex -0 -32 -7.5
    endloop
  endfacet
  facet normal 0.0654116 -0.997858 0
    outer loop
      vertex -0 -32 -7.5
      vertex 4.17684 -31.7262 7.5
      vertex -0 -32 7.5
    endloop
  endfacet
  facet normal 0.0654116 -0.997858 0
    outer loop
      vertex 4.17684 -31.7262 7.5
      vertex -0 -32 -7.5
      vertex 4.17684 -31.7262 -7.5
    endloop
  endfacet
  facet normal 0.195088 -0.980786 0
    outer loop
      vertex 4.17684 -31.7262 -7.5
      vertex 8.28221 -30.9096 7.5
      vertex 4.17684 -31.7262 7.5
    endloop
  endfacet
  facet normal 0.195088 -0.980786 0
    outer loop
      vertex 8.28221 -30.9096 7.5
      vertex 4.17684 -31.7262 -7.5
      vertex 8.28221 -30.9096 -7.5
    endloop
  endfacet
  facet normal 0.321441 -0.94693 0
    outer loop
      vertex 8.28221 -30.9096 -7.5
      vertex 12.2459 -29.5641 7.5
      vertex 8.28221 -30.9096 7.5
    endloop
  endfacet
  facet normal 0.321441 -0.94693 0
    outer loop
      vertex 12.2459 -29.5641 7.5
      vertex 8.28221 -30.9096 -7.5
      vertex 12.2459 -29.5641 -7.5
    endloop
  endfacet
  facet normal 0.442285 -0.896874 0
    outer loop
      vertex 12.2459 -29.5641 -7.5
      vertex 16 -27.7128 7.5
      vertex 12.2459 -29.5641 7.5
    endloop
  endfacet
  facet normal 0.442285 -0.896874 0
    outer loop
      vertex 16 -27.7128 7.5
      vertex 12.2459 -29.5641 -7.5
      vertex 16 -27.7128 -7.5
    endloop
  endfacet
  facet normal 0.555565 -0.831473 0
    outer loop
      vertex 16 -27.7128 -7.5
      vertex 19.4804 -25.3873 7.5
      vertex 16 -27.7128 7.5
    endloop
  endfacet
  facet normal 0.555565 -0.831473 0
    outer loop
      vertex 19.4804 -25.3873 7.5
      vertex 16 -27.7128 -7.5
      vertex 19.4804 -25.3873 -7.5
    endloop
  endfacet
  facet normal 0.659353 -0.751833 0
    outer loop
      vertex 19.4804 -25.3873 -7.5
      vertex 22.6274 -22.6274 7.5
      vertex 19.4804 -25.3873 7.5
    endloop
  endfacet
  facet normal 0.659353 -0.751833 0
    outer loop
      vertex 22.6274 -22.6274 7.5
      vertex 19.4804 -25.3873 -7.5
      vertex 22.6274 -22.6274 -7.5
    endloop
  endfacet
  facet normal 0.751833 -0.659353 0
    outer loop
      vertex 22.6274 -22.6274 7.5
      vertex 25.3873 -19.4804 -7.5
      vertex 25.3873 -19.4804 7.5
    endloop
  endfacet
  facet normal 0.751833 -0.659353 0
    outer loop
      vertex 25.3873 -19.4804 -7.5
      vertex 22.6274 -22.6274 7.5
      vertex 22.6274 -22.6274 -7.5
    endloop
  endfacet
  facet normal 0.831473 -0.555565 0
    outer loop
      vertex 25.3873 -19.4804 7.5
      vertex 27.7128 -16 -7.5
      vertex 27.7128 -16 7.5
    endloop
  endfacet
  facet normal 0.831473 -0.555565 0
    outer loop
      vertex 27.7128 -16 -7.5
      vertex 25.3873 -19.4804 7.5
      vertex 25.3873 -19.4804 -7.5
    endloop
  endfacet
  facet normal 0.896874 -0.442285 0
    outer loop
      vertex 27.7128 -16 7.5
      vertex 29.5641 -12.2459 -7.5
      vertex 29.5641 -12.2459 7.5
    endloop
  endfacet
  facet normal 0.896874 -0.442285 0
    outer loop
      vertex 29.5641 -12.2459 -7.5
      vertex 27.7128 -16 7.5
      vertex 27.7128 -16 -7.5
    endloop
  endfacet
  facet normal 0.94693 -0.321441 0
    outer loop
      vertex 29.5641 -12.2459 7.5
      vertex 30.9096 -8.28221 -7.5
      vertex 30.9096 -8.28221 7.5
    endloop
  endfacet
  facet normal 0.94693 -0.321441 0
    outer loop
      vertex 30.9096 -8.28221 -7.5
      vertex 29.5641 -12.2459 7.5
      vertex 29.5641 -12.2459 -7.5
    endloop
  endfacet
  facet normal 0.980786 -0.195088 0
    outer loop
      vertex 30.9096 -8.28221 7.5
      vertex 31.7262 -4.17684 -7.5
      vertex 31.7262 -4.17684 7.5
    endloop
  endfacet
  facet normal 0.980786 -0.195088 0
    outer loop
      vertex 31.7262 -4.17684 -7.5
      vertex 30.9096 -8.28221 7.5
      vertex 30.9096 -8.28221 -7.5
    endloop
  endfacet
  facet normal 0.997858 -0.0654116 0
    outer loop
      vertex 31.7262 -4.17684 7.5
      vertex 32 0 -7.5
      vertex 32 0 7.5
    endloop
  endfacet
  facet normal 0.997858 -0.0654116 0
    outer loop
      vertex 32 0 -7.5
      vertex 31.7262 -4.17684 7.5
      vertex 31.7262 -4.17684 -7.5
    endloop
  endfacet
  facet normal 0 0 -1
    outer loop
      vertex 31.7262 -4.17684 -7.5
      vertex 31.7262 4.17684 -7.5
      vertex 32 0 -7.5
    endloop
  endfacet
  facet normal 0 0 -1
    outer loop
      vertex 30.9096 -8.28221 -7.5
      vertex 31.7262 4.17684 -7.5
      vertex 31.7262 -4.17684 -7.5
    endloop
  endfacet
  facet normal 0 0 -1
    outer loop
      vertex 30.9096 -8.28221 -7.5
      vertex 30.9096 8.28221 -7.5
      vertex 31.7262 4.17684 -7.5
    endloop
  endfacet
  facet normal 0 0 -1
    outer loop
      vertex 29.5641 -12.2459 -7.5
      vertex 30.9096 8.28221 -7.5
      vertex 30.9096 -8.28221 -7.5
    endloop
  endfacet
  facet normal 0 0 -1
    outer loop
      vertex 29.5641 -12.2459 -7.5
      vertex 29.5641 12.2459 -7.5
      vertex 30.9096 8.28221 -7.5
    endloop
  endfacet
  facet normal 0 0 -1
    outer loop
      vertex 27.7128 -16 -7.5
      vertex 29.5641 12.2459 -7.5
      vertex 29.5641 -12.2459 -7.5
    endloop
  endfacet
  facet normal 0 0 -1
    outer loop
      vertex 27.7128 -16 -7.5
      vertex 27.7128 16 -7.5
      vertex 29.5641 12.2459 -7.5
    endloop
  endfacet
  facet normal 0 0 -1
    outer loop
      vertex 25.3873 -19.4804 -7.5
      vertex 27.7128 16 -7.5
      vertex 27.7128 -16 -7.5
    endloop
  endfacet
  facet normal 0 0 -1
    outer loop
      vertex 25.3873 -19.4804 -7.5
      vertex 25.3873 19.4804 -7.5
      vertex 27.7128 16 -7.5
    endloop
  endfacet
  facet normal 0 0 -1
    outer loop
      vertex 22.6274 -22.6274 -7.5
      vertex 25.3873 19.4804 -7.5
      vertex 25.3873 -19.4804 -7.5
    endloop
  endfacet
  facet normal 0 0 -1
    outer loop
      vertex 22.6274 -22.6274 -7.5
      vertex 22.6274 22.6274 -7.5
      vertex 25.3873 19.4804 -7.5
    endloop
  endfacet
  facet normal 0 0 -1
    outer loop
      vertex 19.4804 -25.3873 -7.5
      vertex 22.6274 22.6274 -7.5
      vertex 22.6274 -22.6274 -7.5
    endloop
  endfacet
  facet normal 0 0 -1
    outer loop
      vertex 19.4804 -25.3873 -7.5
      vertex 19.4804 25.3873 -7.5
      vertex 22.6274 22.6274 -7.5
    endloop
  endfacet
  facet normal 0 0 -1
    outer loop
      vertex 16 -27.7128 -7.5
      vertex 19.4804 25.3873 -7.5
      vertex 19.4804 -25.3873 -7.5
    endloop
  endfacet
  facet normal 0 0 -1
    outer loop
      vertex 16 -27.7128 -7.5
      vertex 16 27.7128 -7.5
      vertex 19.4804 25.3873 -7.5
    endloop
  endfacet
  facet normal 0 0 -1
    outer loop
      vertex 12.2459 -29.5641 -7.5
      vertex 16 27.7128 -7.5
      vertex 16 -27.7128 -7.5
    endloop
  endfacet
  facet normal 0 0 -1
    outer loop
      vertex 12.2459 -29.5641 -7.5
      vertex 12.2459 29.5641 -7.5
      vertex 16 27.7128 -7.5
    endloop
  endfacet
  facet normal 0 0 -1
    outer loop
      vertex 8.28221 -30.9096 -7.5
      vertex 12.2459 29.5641 -7.5
      vertex 12.2459 -29.5641 -7.5
    endloop
  endfacet
  facet normal 0 0 -1
    outer loop
      vertex 8.28221 -30.9096 -7.5
      vertex 8.28221 30.9096 -7.5
      vertex 12.2459 29.5641 -7.5
    endloop
  endfacet
  facet normal 0 0 -1
    outer loop
      vertex 4.17684 -31.7262 -7.5
      vertex 8.28221 30.9096 -7.5
      vertex 8.28221 -30.9096 -7.5
    endloop
  endfacet
  facet normal 0 0 -1
    outer loop
      vertex 4.17684 -31.7262 -7.5
      vertex 4.17684 31.7262 -7.5
      vertex 8.28221 30.9096 -7.5
    endloop
  endfacet
  facet normal 0 0 -1
    outer loop
      vertex -0 -32 -7.5
      vertex 4.17684 31.7262 -7.5
      vertex 4.17684 -31.7262 -7.5
    endloop
  endfacet
  facet normal 0 0 -1
    outer loop
      vertex -0 -32 -7.5
      vertex 0 32 -7.5
      vertex 4.17684 31.7262 -7.5
    endloop
  endfacet
  facet normal 0 0 -1
    outer loop
      vertex -4.17684 -31.7262 -7.5
      vertex 0 32 -7.5
      vertex -0 -32 -7.5
    endloop
  endfacet
  facet normal 0 0 -1
    outer loop
      vertex -4.17684 -31.7262 -7.5
      vertex -4.17684 31.7262 -7.5
      vertex 0 32 -7.5
    endloop
  endfacet
  facet normal 0 0 -1
    outer loop
      vertex -8.28221 -30.9096 -7.5
      vertex -4.17684 31.7262 -7.5
      vertex -4.17684 -31.7262 -7.5
    endloop
  endfacet
  facet normal 0 0 -1
    outer loop
      vertex -8.28221 -30.9096 -7.5
      vertex -8.28221 30.9096 -7.5
      vertex -4.17684 31.7262 -7.5
    endloop
  endfacet
  facet normal 0 0 -1
    outer loop
      vertex -12.2459 -29.5641 -7.5
      vertex -8.28221 30.9096 -7.5
      vertex -8.28221 -30.9096 -7.5
    endloop
  endfacet
  facet normal 0 0 -1
    outer loop
      vertex -12.2459 -29.5641 -7.5
      vertex -12.2459 29.5641 -7.5
      vertex -8.28221 30.9096 -7.5
    endloop
  endfacet
  facet normal 0 0 -1
    outer loop
      vertex -16 -27.7128 -7.5
      vertex -12.2459 29.5641 -7.5
      vertex -12.2459 -29.5641 -7.5
    endloop
  endfacet
  facet normal 0 0 -1
    outer loop
      vertex -16 -27.7128 -7.5
      vertex -16 27.7128 -7.5
      vertex -12.2459 29.5641 -7.5
    endloop
  endfacet
  facet normal 0 0 -1
    outer loop
      vertex -19.4804 -25.3873 -7.5
      vertex -16 27.7128 -7.5
      vertex -16 -27.7128 -7.5
    endloop
  endfacet
  facet normal 0 0 -1
    outer loop
      vertex -19.4804 -25.3873 -7.5
      vertex -19.4804 25.3873 -7.5
      vertex -16 27.7128 -7.5
    endloop
  endfacet
  facet normal 0 0 -1
    outer loop
      vertex -22.6274 -22.6274 -7.5
      vertex -19.4804 25.3873 -7.5
      vertex -19.4804 -25.3873 -7.5
    endloop
  endfacet
  facet normal 0 0 -1
    outer loop
      vertex -22.6274 -22.6274 -7.5
      vertex -22.6274 22.6274 -7.5
      vertex -19.4804 25.3873 -7.5
    endloop
  endfacet
  facet normal 0 0 -1
    outer loop
      vertex -25.3873 -19.4804 -7.5
      vertex -22.6274 22.6274 -7.5
      vertex -22.6274 -22.6274 -7.5
    endloop
  endfacet
  facet normal 0 0 -1
    outer loop
      vertex -25.3873 -19.4804 -7.5
      vertex -25.3873 19.4804 -7.5
      vertex -22.6274 22.6274 -7.5
    endloop
  endfacet
  facet normal 0 0 -1
    outer loop
      vertex -27.7128 -16 -7.5
      vertex -25.3873 19.4804 -7.5
      vertex -25.3873 -19.4804 -7.5
    endloop
  endfacet
  facet normal 0 0 -1
    outer loop
      vertex -27.7128 -16 -7.5
      vertex -27.7128 16 -7.5
      vertex -25.3873 19.4804 -7.5
    endloop
  endfacet
  facet normal 0 0 -1
    outer loop
      vertex -29.5641 -12.2459 -7.5
      vertex -27.7128 16 -7.5
      vertex -27.7128 -16 -7.5
    endloop
  endfacet
  facet normal 0 0 -1
    outer loop
      vertex -29.5641 -12.2459 -7.5
      vertex -29.5641 12.2459 -7.5
      vertex -27.7128 16 -7.5
    endloop
  endfacet
  facet normal 0 0 -1
    outer loop
      vertex -30.9096 -8.28221 -7.5
      vertex -29.5641 12.2459 -7.5
      vertex -29.5641 -12.2459 -7.5
    endloop
  endfacet
  facet normal 0 0 -1
    outer loop
      vertex -30.9096 -8.28221 -7.5
      vertex -30.9096 8.28221 -7.5
      vertex -29.5641 12.2459 -7.5
    endloop
  endfacet
  facet normal 0 0 -1
    outer loop
      vertex -31.7262 -4.17684 -7.5
      vertex -30.9096 8.28221 -7.5
      vertex -30.9096 -8.28221 -7.5
    endloop
  endfacet
  facet normal 0 0 -1
    outer loop
      vertex -31.7262 -4.17684 -7.5
      vertex -31.7262 4.17684 -7.5
      vertex -30.9096 8.28221 -7.5
    endloop
  endfacet
  facet normal 0 -0 -1
    outer loop
      vertex -31.7262 4.17684 -7.5
      vertex -31.7262 -4.17684 -7.5
      vertex -32 -0 -7.5
    endloop
  endfacet
  facet normal 0 0 1
    outer loop
      vertex 31.7262 4.17684 7.5
      vertex 31.7262 -4.17684 7.5
      vertex 32 0 7.5
    endloop
  endfacet
  facet normal 0 0 1
    outer loop
      vertex 30.9096 8.28221 7.5
      vertex 31.7262 -4.17684 7.5
      vertex 31.7262 4.17684 7.5
    endloop
  endfacet
  facet normal 0 0 1
    outer loop
      vertex 30.9096 8.28221 7.5
      vertex 30.9096 -8.28221 7.5
      vertex 31.7262 -4.17684 7.5
    endloop
  endfacet
  facet normal 0 0 1
    outer loop
      vertex 29.5641 12.2459 7.5
      vertex 30.9096 -8.28221 7.5
      vertex 30.9096 8.28221 7.5
    endloop
  endfacet
  facet normal 0 0 1
    outer loop
      vertex 29.5641 12.2459 7.5
      vertex 29.5641 -12.2459 7.5
      vertex 30.9096 -8.28221 7.5
    endloop
  endfacet
  facet normal 0 0 1
    outer loop
      vertex 27.7128 16 7.5
      vertex 29.5641 -12.2459 7.5
      vertex 29.5641 12.2459 7.5
    endloop
  endfacet
  facet normal 0 0 1
    outer loop
      vertex 27.7128 16 7.5
      vertex 27.7128 -16 7.5
      vertex 29.5641 -12.2459 7.5
    endloop
  endfacet
  facet normal 0 0 1
    outer loop
      vertex 25.3873 19.4804 7.5
      vertex 27.7128 -16 7.5
      vertex 27.7128 16 7.5
    endloop
  endfacet
  facet normal 0 0 1
    outer loop
      vertex 25.3873 19.4804 7.5
      vertex 25.3873 -19.4804 7.5
      vertex 27.7128 -16 7.5
    endloop
  endfacet
  facet normal 0 0 1
    outer loop
      vertex 22.6274 22.6274 7.5
      vertex 25.3873 -19.4804 7.5
      vertex 25.3873 19.4804 7.5
    endloop
  endfacet
  facet normal 0 0 1
    outer loop
      vertex 22.6274 22.6274 7.5
      vertex 22.6274 -22.6274 7.5
      vertex 25.3873 -19.4804 7.5
    endloop
  endfacet
  facet normal 0 0 1
    outer loop
      vertex 19.4804 25.3873 7.5
      vertex 22.6274 -22.6274 7.5
      vertex 22.6274 22.6274 7.5
    endloop
  endfacet
  facet normal 0 0 1
    outer loop
      vertex 19.4804 25.3873 7.5
      vertex 19.4804 -25.3873 7.5
      vertex 22.6274 -22.6274 7.5
    endloop
  endfacet
  facet normal 0 0 1
    outer loop
      vertex 16 27.7128 7.5
      vertex 19.4804 -25.3873 7.5
      vertex 19.4804 25.3873 7.5
    endloop
  endfacet
  facet normal 0 0 1
    outer loop
      vertex 16 27.7128 7.5
      vertex 16 -27.7128 7.5
      vertex 19.4804 -25.3873 7.5
    endloop
  endfacet
  facet normal 0 0 1
    outer loop
      vertex 12.2459 29.5641 7.5
      vertex 16 -27.7128 7.5
      vertex 16 27.7128 7.5
    endloop
  endfacet
  facet normal 0 0 1
    outer loop
      vertex 12.2459 29.5641 7.5
      vertex 12.2459 -29.5641 7.5
      vertex 16 -27.7128 7.5
    endloop
  endfacet
  facet normal 0 0 1
    outer loop
      vertex 8.28221 30.9096 7.5
      vertex 12.2459 -29.5641 7.5
      vertex 12.2459 29.5641 7.5
    endloop
  endfacet
  facet normal 0 0 1
    outer loop
      vertex 8.28221 30.9096 7.5
      vertex 8.28221 -30.9096 7.5
      vertex 12.2459 -29.5641 7.5
    endloop
  endfacet
  facet normal 0 0 1
    outer loop
      vertex 4.17684 31.7262 7.5
      vertex 8.28221 -30.9096 7.5
      vertex 8.28221 30.9096 7.5
    endloop
  endfacet
  facet normal 0 0 1
    outer loop
      vertex 4.17684 31.7262 7.5
      vertex 4.17684 -31.7262 7.5
      vertex 8.28221 -30.9096 7.5
    endloop
  endfacet
  facet normal 0 0 1
    outer loop
      vertex 0 32 7.5
      vertex 4.17684 -31.7262 7.5
      vertex 4.17684 31.7262 7.5
    endloop
  endfacet
  facet normal 0 0 1
    outer loop
      vertex 0 32 7.5
      vertex -0 -32 7.5
      vertex 4.17684 -31.7262 7.5
    endloop
  endfacet
  facet normal -0 0 1
    outer loop
      vertex -4.17684 31.7262 7.5
      vertex -0 -32 7.5
      vertex 0 32 7.5
    endloop
  endfacet
  facet normal 0 0 1
    outer loop
      vertex -4.17684 31.7262 7.5
      vertex -4.17684 -31.7262 7.5
      vertex -0 -32 7.5
    endloop
  endfacet
  facet normal -0 0 1
    outer loop
      vertex -8.28221 30.9096 7.5
      vertex -4.17684 -31.7262 7.5
      vertex -4.17684 31.7262 7.5
    endloop
  endfacet
  facet normal 0 0 1
    outer loop
      vertex -8.28221 30.9096 7.5
      vertex -8.28221 -30.9096 7.5
      vertex -4.17684 -31.7262 7.5
    endloop
  endfacet
  facet normal -0 0 1
    outer loop
      vertex -12.2459 29.5641 7.5
      vertex -8.28221 -30.9096 7.5
      vertex -8.28221 30.9096 7.5
    endloop
  endfacet
  facet normal 0 0 1
    outer loop
      vertex -12.2459 29.5641 7.5
      vertex -12.2459 -29.5641 7.5
      vertex -8.28221 -30.9096 7.5
    endloop
  endfacet
  facet normal -0 0 1
    outer loop
      vertex -16 27.7128 7.5
      vertex -12.2459 -29.5641 7.5
      vertex -12.2459 29.5641 7.5
    endloop
  endfacet
  facet normal 0 0 1
    outer loop
      vertex -16 27.7128 7.5
      vertex -16 -27.7128 7.5
      vertex -12.2459 -29.5641 7.5
    endloop
  endfacet
  facet normal -0 0 1
    outer loop
      vertex -19.4804 25.3873 7.5
      vertex -16 -27.7128 7.5
      vertex -16 27.7128 7.5
    endloop
  endfacet
  facet normal 0 0 1
    outer loop
      vertex -19.4804 25.3873 7.5
      vertex -19.4804 -25.3873 7.5
      vertex -16 -27.7128 7.5
    endloop
  endfacet
  facet normal -0 0 1
    outer loop
      vertex -22.6274 22.6274 7.5
      vertex -19.4804 -25.3873 7.5
      vertex -19.4804 25.3873 7.5
    endloop
  endfacet
  facet normal 0 0 1
    outer loop
      vertex -22.6274 22.6274 7.5
      vertex -22.6274 -22.6274 7.5
      vertex -19.4804 -25.3873 7.5
    endloop
  endfacet
  facet normal -0 0 1
    outer loop
      vertex -25.3873 19.4804 7.5
      vertex -22.6274 -22.6274 7.5
      vertex -22.6274 22.6274 7.5
    endloop
  endfacet
  facet normal 0 0 1
    outer loop
      vertex -25.3873 19.4804 7.5
      vertex -25.3873 -19.4804 7.5
      vertex -22.6274 -22.6274 7.5
    endloop
  endfacet
  facet normal -0 0 1
    outer loop
      vertex -27.7128 16 7.5
      vertex -25.3873 -19.4804 7.5
      vertex -25.3873 19.4804 7.5
    endloop
  endfacet
  facet normal 0 0 1
    outer loop
      vertex -27.7128 16 7.5
      vertex -27.7128 -16 7.5
      vertex -25.3873 -19.4804 7.5
    endloop
  endfacet
  facet normal -0 0 1
    outer loop
      vertex -29.5641 12.2459 7.5
      vertex -27.7128 -16 7.5
      vertex -27.7128 16 7.5
    endloop
  endfacet
  facet normal 0 0 1
    outer loop
      vertex -29.5641 12.2459 7.5
      vertex -29.5641 -12.2459 7.5
      vertex -27.7128 -16 7.5
    endloop
  endfacet
  facet normal -0 0 1
    outer loop
      vertex -30.9096 8.28221 7.5
      vertex -29.5641 -12.2459 7.5
      vertex -29.5641 12.2459 7.5
    endloop
  endfacet
  facet normal 0 0 1
    outer loop
      vertex -30.9096 8.28221 7.5
      vertex -30.9096 -8.28221 7.5
      vertex -29.5641 -12.2459 7.5
    endloop
  endfacet
  facet normal -0 0 1
    outer loop
      vertex -31.7262 4.17684 7.5
      vertex -30.9096 -8.28221 7.5
      vertex -30.9096 8.28221 7.5
    endloop
  endfacet
  facet normal 0 0 1
    outer loop
      vertex -31.7262 4.17684 7.5
      vertex -31.7262 -4.17684 7.5
      vertex -30.9096 -8.28221 7.5
    endloop
  endfacet
  facet normal 0 -0 1
    outer loop
      vertex -31.7262 -4.17684 7.5
      vertex -31.7262 4.17684 7.5
      vertex -32 -0 7.5
    endloop
  endfacet
endsolid OpenSCAD_Model
