solid OpenSCAD_Model
  facet normal 1 -0 0
    outer loop
      vertex 115 -85 1.5
      vertex 115 85 -1.5
      vertex 115 85 1.5
    endloop
  endfacet
  facet normal 1 0 0
    outer loop
      vertex 115 85 -1.5
      vertex 115 -85 1.5
      vertex 115 -85 -1.5
    endloop
  endfacet
  facet normal -0 0 1
    outer loop
      vertex -57.5 62.9519 1.5
      vertex -47.5 -62.9519 1.5
      vertex -47.5 62.9519 1.5
    endloop
  endfacet
  facet normal 0 0 1
    outer loop
      vertex -47.5 -62.9519 1.5
      vertex -57.5 62.9519 1.5
      vertex -57.5 -62.9519 1.5
    endloop
  endfacet
  facet normal 0 0 1
    outer loop
      vertex 115 85 1.5
      vertex 110 2 1.5
      vertex 115 -85 1.5
    endloop
  endfacet
  facet normal 0 0 1
    outer loop
      vertex 115 85 1.5
      vertex 100 2 1.5
      vertex 110 2 1.5
    endloop
  endfacet
  facet normal 0 0 1
    outer loop
      vertex 115 85 1.5
      vertex -47.5 62.9519 1.5
      vertex 100 2 1.5
    endloop
  endfacet
  facet normal 0 0 1
    outer loop
      vertex -47.5 62.9519 1.5
      vertex 115 85 1.5
      vertex -47.5 66.9519 1.5
    endloop
  endfacet
  facet normal -0 0 1
    outer loop
      vertex -115 85 1.5
      vertex -47.5 66.9519 1.5
      vertex 115 85 1.5
    endloop
  endfacet
  facet normal 0 0 1
    outer loop
      vertex -115 85 1.5
      vertex -57.5 62.9519 1.5
      vertex -57.5 66.9519 1.5
    endloop
  endfacet
  facet normal 0 0 1
    outer loop
      vertex -57.5 62.9519 1.5
      vertex -115 85 1.5
      vertex -57.5 -62.9519 1.5
    endloop
  endfacet
  facet normal 0 0 1
    outer loop
      vertex -115 -85 1.5
      vertex -57.5 -62.9519 1.5
      vertex -115 85 1.5
    endloop
  endfacet
  facet normal 0 0 1
    outer loop
      vertex -47.5 66.9519 1.5
      vertex -115 85 1.5
      vertex -57.5 66.9519 1.5
    endloop
  endfacet
  facet normal -0 0 1
    outer loop
      vertex 110 -2 1.5
      vertex 115 -85 1.5
      vertex 110 2 1.5
    endloop
  endfacet
  facet normal -0 0 1
    outer loop
      vertex 100 -2 1.5
      vertex 115 -85 1.5
      vertex 110 -2 1.5
    endloop
  endfacet
  facet normal 0 0 1
    outer loop
      vertex 100 2 1.5
      vertex -47.5 62.9519 1.5
      vertex 100 -2 1.5
    endloop
  endfacet
  facet normal 0 0 1
    outer loop
      vertex -47.5 -62.9519 1.5
      vertex 100 -2 1.5
      vertex -47.5 62.9519 1.5
    endloop
  endfacet
  facet normal 0 0 1
    outer loop
      vertex 100 -2 1.5
      vertex -47.5 -62.9519 1.5
      vertex 115 -85 1.5
    endloop
  endfacet
  facet normal -0 0 1
    outer loop
      vertex -47.5 -66.9519 1.5
      vertex 115 -85 1.5
      vertex -47.5 -62.9519 1.5
    endloop
  endfacet
  facet normal 0 0 1
    outer loop
      vertex -115 -85 1.5
      vertex -47.5 -66.9519 1.5
      vertex -57.5 -66.9519 1.5
    endloop
  endfacet
  facet normal 0 0 1
    outer loop
      vertex -47.5 -66.9519 1.5
      vertex -115 -85 1.5
      vertex 115 -85 1.5
    endloop
  endfacet
  facet normal 0 0 1
    outer loop
      vertex -57.5 -62.9519 1.5
      vertex -115 -85 1.5
      vertex -57.5 -66.9519 1.5
    endloop
  endfacet
  facet normal 0 0 -1
    outer loop
      vertex -57.5 -62.9519 -1.5
      vertex -47.5 62.9519 -1.5
      vertex -47.5 -62.9519 -1.5
    endloop
  endfacet
  facet normal -0 0 -1
    outer loop
      vertex -47.5 62.9519 -1.5
      vertex -57.5 -62.9519 -1.5
      vertex -57.5 62.9519 -1.5
    endloop
  endfacet
  facet normal 0 0 -1
    outer loop
      vertex 115 -85 -1.5
      vertex 110 -2 -1.5
      vertex 115 85 -1.5
    endloop
  endfacet
  facet normal 0 0 -1
    outer loop
      vertex 115 -85 -1.5
      vertex 100 -2 -1.5
      vertex 110 -2 -1.5
    endloop
  endfacet
  facet normal 0 0 -1
    outer loop
      vertex 115 -85 -1.5
      vertex -47.5 -62.9519 -1.5
      vertex 100 -2 -1.5
    endloop
  endfacet
  facet normal 0 0 -1
    outer loop
      vertex -47.5 -62.9519 -1.5
      vertex 115 -85 -1.5
      vertex -47.5 -66.9519 -1.5
    endloop
  endfacet
  facet normal 0 0 -1
    outer loop
      vertex -115 -85 -1.5
      vertex -47.5 -66.9519 -1.5
      vertex 115 -85 -1.5
    endloop
  endfacet
  facet normal 0 0 -1
    outer loop
      vertex -115 -85 -1.5
      vertex -57.5 -62.9519 -1.5
      vertex -57.5 -66.9519 -1.5
    endloop
  endfacet
  facet normal -0 0 -1
    outer loop
      vertex -57.5 -62.9519 -1.5
      vertex -115 -85 -1.5
      vertex -57.5 62.9519 -1.5
    endloop
  endfacet
  facet normal 0 0 -1
    outer loop
      vertex -115 85 -1.5
      vertex -57.5 62.9519 -1.5
      vertex -115 -85 -1.5
    endloop
  endfacet
  facet normal -0 0 -1
    outer loop
      vertex -47.5 -66.9519 -1.5
      vertex -115 -85 -1.5
      vertex -57.5 -66.9519 -1.5
    endloop
  endfacet
  facet normal 0 0 -1
    outer loop
      vertex 110 2 -1.5
      vertex 115 85 -1.5
      vertex 110 -2 -1.5
    endloop
  endfacet
  facet normal 0 0 -1
    outer loop
      vertex 100 2 -1.5
      vertex 115 85 -1.5
      vertex 110 2 -1.5
    endloop
  endfacet
  facet normal -0 0 -1
    outer loop
      vertex 100 -2 -1.5
      vertex -47.5 -62.9519 -1.5
      vertex 100 2 -1.5
    endloop
  endfacet
  facet normal 0 0 -1
    outer loop
      vertex -47.5 62.9519 -1.5
      vertex 100 2 -1.5
      vertex -47.5 -62.9519 -1.5
    endloop
  endfacet
  facet normal 0 0 -1
    outer loop
      vertex 100 2 -1.5
      vertex -47.5 62.9519 -1.5
      vertex 115 85 -1.5
    endloop
  endfacet
  facet normal 0 0 -1
    outer loop
      vertex -47.5 66.9519 -1.5
      vertex 115 85 -1.5
      vertex -47.5 62.9519 -1.5
    endloop
  endfacet
  facet normal 0 0 -1
    outer loop
      vertex -115 85 -1.5
      vertex -47.5 66.9519 -1.5
      vertex -57.5 66.9519 -1.5
    endloop
  endfacet
  facet normal 0 0 -1
    outer loop
      vertex -47.5 66.9519 -1.5
      vertex -115 85 -1.5
      vertex 115 85 -1.5
    endloop
  endfacet
  facet normal 0 0 -1
    outer loop
      vertex -57.5 62.9519 -1.5
      vertex -115 85 -1.5
      vertex -57.5 66.9519 -1.5
    endloop
  endfacet
  facet normal -1 0 0
    outer loop
      vertex -115 -85 -1.5
      vertex -115 85 1.5
      vertex -115 85 -1.5
    endloop
  endfacet
  facet normal -1 -0 0
    outer loop
      vertex -115 85 1.5
      vertex -115 -85 -1.5
      vertex -115 -85 1.5
    endloop
  endfacet
  facet normal 0 1 -0
    outer loop
      vertex 115 85 -1.5
      vertex -115 85 1.5
      vertex 115 85 1.5
    endloop
  endfacet
  facet normal 0 1 0
    outer loop
      vertex -115 85 1.5
      vertex 115 85 -1.5
      vertex -115 85 -1.5
    endloop
  endfacet
  facet normal 0 -1 0
    outer loop
      vertex -115 -85 -1.5
      vertex 115 -85 1.5
      vertex -115 -85 1.5
    endloop
  endfacet
  facet normal 0 -1 -0
    outer loop
      vertex 115 -85 1.5
      vertex -115 -85 -1.5
      vertex 115 -85 -1.5
    endloop
  endfacet
  facet normal -1 0 0
    outer loop
      vertex 110 -2 -1.5
      vertex 110 2 1.5
      vertex 110 2 -1.5
    endloop
  endfacet
  facet normal -1 -0 0
    outer loop
      vertex 110 2 1.5
      vertex 110 -2 -1.5
      vertex 110 -2 1.5
    endloop
  endfacet
  facet normal 1 -0 0
    outer loop
      vertex 100 -2 1.5
      vertex 100 2 -1.5
      vertex 100 2 1.5
    endloop
  endfacet
  facet normal 1 0 0
    outer loop
      vertex 100 2 -1.5
      vertex 100 -2 1.5
      vertex 100 -2 -1.5
    endloop
  endfacet
  facet normal 0 -1 0
    outer loop
      vertex 100 2 -1.5
      vertex 110 2 1.5
      vertex 100 2 1.5
    endloop
  endfacet
  facet normal 0 -1 -0
    outer loop
      vertex 110 2 1.5
      vertex 100 2 -1.5
      vertex 110 2 -1.5
    endloop
  endfacet
  facet normal 0 1 -0
    outer loop
      vertex 110 -2 -1.5
      vertex 100 -2 1.5
      vertex 110 -2 1.5
    endloop
  endfacet
  facet normal 0 1 0
    outer loop
      vertex 100 -2 1.5
      vertex 110 -2 -1.5
      vertex 100 -2 -1.5
    endloop
  endfacet
  facet normal -1 0 0
    outer loop
      vertex -47.5 62.9519 -1.5
      vertex -47.5 66.9519 1.5
      vertex -47.5 66.9519 -1.5
    endloop
  endfacet
  facet normal -1 -0 0
    outer loop
      vertex -47.5 66.9519 1.5
      vertex -47.5 62.9519 -1.5
      vertex -47.5 62.9519 1.5
    endloop
  endfacet
  facet normal 1 -0 0
    outer loop
      vertex -57.5 62.9519 1.5
      vertex -57.5 66.9519 -1.5
      vertex -57.5 66.9519 1.5
    endloop
  endfacet
  facet normal 1 0 0
    outer loop
      vertex -57.5 66.9519 -1.5
      vertex -57.5 62.9519 1.5
      vertex -57.5 62.9519 -1.5
    endloop
  endfacet
  facet normal 0 -1 0
    outer loop
      vertex -57.5 66.9519 -1.5
      vertex -47.5 66.9519 1.5
      vertex -57.5 66.9519 1.5
    endloop
  endfacet
  facet normal 0 -1 -0
    outer loop
      vertex -47.5 66.9519 1.5
      vertex -57.5 66.9519 -1.5
      vertex -47.5 66.9519 -1.5
    endloop
  endfacet
  facet normal 0 1 -0
    outer loop
      vertex -47.5 62.9519 -1.5
      vertex -57.5 62.9519 1.5
      vertex -47.5 62.9519 1.5
    endloop
  endfacet
  facet normal 0 1 0
    outer loop
      vertex -57.5 62.9519 1.5
      vertex -47.5 62.9519 -1.5
      vertex -57.5 62.9519 -1.5
    endloop
  endfacet
  facet normal -1 0 0
    outer loop
      vertex -47.5 -66.9519 -1.5
      vertex -47.5 -62.9519 1.5
      vertex -47.5 -62.9519 -1.5
    endloop
  endfacet
  facet normal -1 -0 0
    outer loop
      vertex -47.5 -62.9519 1.5
      vertex -47.5 -66.9519 -1.5
      vertex -47.5 -66.9519 1.5
    endloop
  endfacet
  facet normal 1 -0 0
    outer loop
      vertex -57.5 -66.9519 1.5
      vertex -57.5 -62.9519 -1.5
      vertex -57.5 -62.9519 1.5
    endloop
  endfacet
  facet normal 1 0 0
    outer loop
      vertex -57.5 -62.9519 -1.5
      vertex -57.5 -66.9519 1.5
      vertex -57.5 -66.9519 -1.5
    endloop
  endfacet
  facet normal 0 -1 0
    outer loop
      vertex -57.5 -62.9519 -1.5
      vertex -47.5 -62.9519 1.5
      vertex -57.5 -62.9519 1.5
    endloop
  endfacet
  facet normal 0 -1 -0
    outer loop
      vertex -47.5 -62.9519 1.5
      vertex -57.5 -62.9519 -1.5
      vertex -47.5 -62.9519 -1.5
    endloop
  endfacet
  facet normal 0 1 -0
    outer loop
      vertex -47.5 -66.9519 -1.5
      vertex -57.5 -66.9519 1.5
      vertex -47.5 -66.9519 1.5
    endloop
  endfacet
  facet normal 0 1 0
    outer loop
      vertex -57.5 -66.9519 1.5
      vertex -47.5 -66.9519 -1.5
      vertex -57.5 -66.9519 -1.5
    endloop
  endfacet
endsolid OpenSCAD_Model
