solid OpenSCAD_Model
  facet normal 1 -0 0
    outer loop
      vertex 70 -65 2.5
      vertex 70 65 -2.5
      vertex 70 65 2.5
    endloop
  endfacet
  facet normal 1 0 0
    outer loop
      vertex 70 65 -2.5
      vertex 70 -65 2.5
      vertex 70 -65 -2.5
    endloop
  endfacet
  facet normal -0 0 1
    outer loop
      vertex -25.3266 42.5983 2.5
      vertex 53.3045 1.53073 2.5
      vertex -25.0359 43.0333 2.5
    endloop
  endfacet
  facet normal 0 0 1
    outer loop
      vertex 53 0 2.5
      vertex -24.5342 -44.5112 2.5
      vertex -24.5 -45.0333 2.5
    endloop
  endfacet
  facet normal 0 0 1
    outer loop
      vertex 53.3045 1.53073 2.5
      vertex -25.3266 42.5983 2.5
      vertex 53.1363 1.03528 2.5
    endloop
  endfacet
  facet normal 0 0 1
    outer loop
      vertex 53 0 2.5
      vertex -24.6363 -43.998 2.5
      vertex -24.5342 -44.5112 2.5
    endloop
  endfacet
  facet normal -0 0 1
    outer loop
      vertex -25.6716 42.2049 2.5
      vertex 53.1363 1.03528 2.5
      vertex -25.3266 42.5983 2.5
    endloop
  endfacet
  facet normal 0 0 1
    outer loop
      vertex 53 0 2.5
      vertex -24.8045 -43.5026 2.5
      vertex -24.6363 -43.998 2.5
    endloop
  endfacet
  facet normal 0 0 1
    outer loop
      vertex 53.1363 1.03528 2.5
      vertex -25.6716 42.2049 2.5
      vertex 53.0342 0.522104 2.5
    endloop
  endfacet
  facet normal 0 0 1
    outer loop
      vertex 53 0 2.5
      vertex -25.0359 -43.0333 2.5
      vertex -24.8045 -43.5026 2.5
    endloop
  endfacet
  facet normal -0 0 1
    outer loop
      vertex -26.065 41.8599 2.5
      vertex 53.0342 0.522104 2.5
      vertex -25.6716 42.2049 2.5
    endloop
  endfacet
  facet normal 0 0 1
    outer loop
      vertex 53 0 2.5
      vertex -25.3266 -42.5983 2.5
      vertex -25.0359 -43.0333 2.5
    endloop
  endfacet
  facet normal 0 0 1
    outer loop
      vertex 53.0342 0.522104 2.5
      vertex -26.065 41.8599 2.5
      vertex 53 0 2.5
    endloop
  endfacet
  facet normal 0 0 1
    outer loop
      vertex 53 0 2.5
      vertex -25.6716 -42.2049 2.5
      vertex -25.3266 -42.5983 2.5
    endloop
  endfacet
  facet normal 0 0 1
    outer loop
      vertex -26.065 -41.8599 2.5
      vertex 53 0 2.5
      vertex -26.065 41.8599 2.5
    endloop
  endfacet
  facet normal 0 0 1
    outer loop
      vertex 53 0 2.5
      vertex -26.065 -41.8599 2.5
      vertex -25.6716 -42.2049 2.5
    endloop
  endfacet
  facet normal -0 0 1
    outer loop
      vertex -26.5 41.5692 2.5
      vertex -26.065 -41.8599 2.5
      vertex -26.065 41.8599 2.5
    endloop
  endfacet
  facet normal 0 0 1
    outer loop
      vertex -26.5 41.5692 2.5
      vertex -26.5 -41.5692 2.5
      vertex -26.065 -41.8599 2.5
    endloop
  endfacet
  facet normal -0 0 1
    outer loop
      vertex -26.9693 41.3378 2.5
      vertex -26.5 -41.5692 2.5
      vertex -26.5 41.5692 2.5
    endloop
  endfacet
  facet normal 0 0 1
    outer loop
      vertex -26.9693 41.3378 2.5
      vertex -26.9693 -41.3378 2.5
      vertex -26.5 -41.5692 2.5
    endloop
  endfacet
  facet normal -0 0 1
    outer loop
      vertex -27.4647 41.1696 2.5
      vertex -26.9693 -41.3378 2.5
      vertex -26.9693 41.3378 2.5
    endloop
  endfacet
  facet normal 0 0 1
    outer loop
      vertex -27.4647 41.1696 2.5
      vertex -27.4647 -41.1696 2.5
      vertex -26.9693 -41.3378 2.5
    endloop
  endfacet
  facet normal -0 0 1
    outer loop
      vertex -27.9779 41.0675 2.5
      vertex -27.4647 -41.1696 2.5
      vertex -27.4647 41.1696 2.5
    endloop
  endfacet
  facet normal 0 0 1
    outer loop
      vertex -27.9779 41.0675 2.5
      vertex -27.9779 -41.0675 2.5
      vertex -27.4647 -41.1696 2.5
    endloop
  endfacet
  facet normal -0 0 1
    outer loop
      vertex -28.5 41.0333 2.5
      vertex -27.9779 -41.0675 2.5
      vertex -27.9779 41.0675 2.5
    endloop
  endfacet
  facet normal 0 0 1
    outer loop
      vertex -28.5 41.0333 2.5
      vertex -28.5 -41.0333 2.5
      vertex -27.9779 -41.0675 2.5
    endloop
  endfacet
  facet normal 0 0 1
    outer loop
      vertex -29.0221 41.0675 2.5
      vertex -28.5 -41.0333 2.5
      vertex -28.5 41.0333 2.5
    endloop
  endfacet
  facet normal 0 0 1
    outer loop
      vertex -29.0221 41.0675 2.5
      vertex -29.0221 -41.0675 2.5
      vertex -28.5 -41.0333 2.5
    endloop
  endfacet
  facet normal 0 0 1
    outer loop
      vertex -29.5353 41.1696 2.5
      vertex -29.0221 -41.0675 2.5
      vertex -29.0221 41.0675 2.5
    endloop
  endfacet
  facet normal 0 0 1
    outer loop
      vertex -29.5353 41.1696 2.5
      vertex -29.5353 -41.1696 2.5
      vertex -29.0221 -41.0675 2.5
    endloop
  endfacet
  facet normal 0 0 1
    outer loop
      vertex -30.0307 41.3378 2.5
      vertex -29.5353 -41.1696 2.5
      vertex -29.5353 41.1696 2.5
    endloop
  endfacet
  facet normal 0 0 1
    outer loop
      vertex -30.0307 41.3378 2.5
      vertex -30.0307 -41.3378 2.5
      vertex -29.5353 -41.1696 2.5
    endloop
  endfacet
  facet normal 0 0 1
    outer loop
      vertex -30.5 41.5692 2.5
      vertex -30.0307 -41.3378 2.5
      vertex -30.0307 41.3378 2.5
    endloop
  endfacet
  facet normal 0 0 1
    outer loop
      vertex -30.5 41.5692 2.5
      vertex -30.5 -41.5692 2.5
      vertex -30.0307 -41.3378 2.5
    endloop
  endfacet
  facet normal 0 0 1
    outer loop
      vertex -30.935 41.8599 2.5
      vertex -30.5 -41.5692 2.5
      vertex -30.5 41.5692 2.5
    endloop
  endfacet
  facet normal 0 0 1
    outer loop
      vertex -30.935 41.8599 2.5
      vertex -30.935 -41.8599 2.5
      vertex -30.5 -41.5692 2.5
    endloop
  endfacet
  facet normal 0 0 1
    outer loop
      vertex -31.3284 42.2049 2.5
      vertex -30.935 -41.8599 2.5
      vertex -30.935 41.8599 2.5
    endloop
  endfacet
  facet normal 0 0 1
    outer loop
      vertex -31.3284 42.2049 2.5
      vertex -31.3284 -42.2049 2.5
      vertex -30.935 -41.8599 2.5
    endloop
  endfacet
  facet normal 0 0 1
    outer loop
      vertex -31.6734 42.5983 2.5
      vertex -31.3284 -42.2049 2.5
      vertex -31.3284 42.2049 2.5
    endloop
  endfacet
  facet normal 0 0 1
    outer loop
      vertex -31.6734 42.5983 2.5
      vertex -31.6734 -42.5983 2.5
      vertex -31.3284 -42.2049 2.5
    endloop
  endfacet
  facet normal 0 0 1
    outer loop
      vertex -70 65 2.5
      vertex -31.6734 42.5983 2.5
      vertex -31.9641 43.0333 2.5
    endloop
  endfacet
  facet normal 0 0 1
    outer loop
      vertex -31.6734 42.5983 2.5
      vertex -70 65 2.5
      vertex -31.6734 -42.5983 2.5
    endloop
  endfacet
  facet normal 0 0 1
    outer loop
      vertex -70 65 2.5
      vertex -31.9641 43.0333 2.5
      vertex -32.1955 43.5026 2.5
    endloop
  endfacet
  facet normal 0 0 1
    outer loop
      vertex -70 -65 2.5
      vertex -31.6734 -42.5983 2.5
      vertex -70 65 2.5
    endloop
  endfacet
  facet normal 0 0 1
    outer loop
      vertex -70 65 2.5
      vertex -32.1955 43.5026 2.5
      vertex -32.3637 43.998 2.5
    endloop
  endfacet
  facet normal 0 0 1
    outer loop
      vertex -31.6734 -42.5983 2.5
      vertex -70 -65 2.5
      vertex -31.9641 -43.0333 2.5
    endloop
  endfacet
  facet normal 0 0 1
    outer loop
      vertex -70 65 2.5
      vertex -32.3637 43.998 2.5
      vertex -32.4658 44.5112 2.5
    endloop
  endfacet
  facet normal 0 0 1
    outer loop
      vertex -31.9641 -43.0333 2.5
      vertex -70 -65 2.5
      vertex -32.1955 -43.5026 2.5
    endloop
  endfacet
  facet normal 0 0 1
    outer loop
      vertex -70 65 2.5
      vertex -32.4658 44.5112 2.5
      vertex -32.5 45.0333 2.5
    endloop
  endfacet
  facet normal 0 0 1
    outer loop
      vertex -32.1955 -43.5026 2.5
      vertex -70 -65 2.5
      vertex -32.3637 -43.998 2.5
    endloop
  endfacet
  facet normal 0 0 1
    outer loop
      vertex 70 65 2.5
      vertex 61 0 2.5
      vertex 70 -65 2.5
    endloop
  endfacet
  facet normal 0 0 1
    outer loop
      vertex 70 65 2.5
      vertex 60.9658 0.522104 2.5
      vertex 61 0 2.5
    endloop
  endfacet
  facet normal 0 0 1
    outer loop
      vertex 70 65 2.5
      vertex 60.8637 1.03528 2.5
      vertex 60.9658 0.522104 2.5
    endloop
  endfacet
  facet normal 0 0 1
    outer loop
      vertex 70 65 2.5
      vertex 60.6955 1.53073 2.5
      vertex 60.8637 1.03528 2.5
    endloop
  endfacet
  facet normal 0 0 1
    outer loop
      vertex 70 65 2.5
      vertex 60.4641 2 2.5
      vertex 60.6955 1.53073 2.5
    endloop
  endfacet
  facet normal 0 0 1
    outer loop
      vertex 70 65 2.5
      vertex 60.1734 2.43505 2.5
      vertex 60.4641 2 2.5
    endloop
  endfacet
  facet normal 0 0 1
    outer loop
      vertex 70 65 2.5
      vertex 59.8284 2.82843 2.5
      vertex 60.1734 2.43505 2.5
    endloop
  endfacet
  facet normal 0 0 1
    outer loop
      vertex 70 65 2.5
      vertex 59.435 3.17341 2.5
      vertex 59.8284 2.82843 2.5
    endloop
  endfacet
  facet normal 0 0 1
    outer loop
      vertex 70 65 2.5
      vertex 59 3.4641 2.5
      vertex 59.435 3.17341 2.5
    endloop
  endfacet
  facet normal 0 0 1
    outer loop
      vertex 70 65 2.5
      vertex 58.5307 3.69552 2.5
      vertex 59 3.4641 2.5
    endloop
  endfacet
  facet normal 0 0 1
    outer loop
      vertex 70 65 2.5
      vertex 58.0353 3.8637 2.5
      vertex 58.5307 3.69552 2.5
    endloop
  endfacet
  facet normal 0 0 1
    outer loop
      vertex 70 65 2.5
      vertex 57.5221 3.96578 2.5
      vertex 58.0353 3.8637 2.5
    endloop
  endfacet
  facet normal 0 0 1
    outer loop
      vertex 70 65 2.5
      vertex 57 4 2.5
      vertex 57.5221 3.96578 2.5
    endloop
  endfacet
  facet normal 0 0 1
    outer loop
      vertex 70 65 2.5
      vertex 56.4779 3.96578 2.5
      vertex 57 4 2.5
    endloop
  endfacet
  facet normal 0 0 1
    outer loop
      vertex 70 65 2.5
      vertex 55.9647 3.8637 2.5
      vertex 56.4779 3.96578 2.5
    endloop
  endfacet
  facet normal 0 0 1
    outer loop
      vertex 70 65 2.5
      vertex 55.4693 3.69552 2.5
      vertex 55.9647 3.8637 2.5
    endloop
  endfacet
  facet normal 0 0 1
    outer loop
      vertex 70 65 2.5
      vertex 55 3.4641 2.5
      vertex 55.4693 3.69552 2.5
    endloop
  endfacet
  facet normal 0 0 1
    outer loop
      vertex 70 65 2.5
      vertex 54.565 3.17341 2.5
      vertex 55 3.4641 2.5
    endloop
  endfacet
  facet normal -0 0 1
    outer loop
      vertex -24.5 45.0333 2.5
      vertex 54.565 3.17341 2.5
      vertex 70 65 2.5
    endloop
  endfacet
  facet normal -0 0 1
    outer loop
      vertex -24.5342 44.5112 2.5
      vertex 54.565 3.17341 2.5
      vertex -24.5 45.0333 2.5
    endloop
  endfacet
  facet normal 0 0 1
    outer loop
      vertex 54.565 3.17341 2.5
      vertex -24.5342 44.5112 2.5
      vertex 54.1716 2.82843 2.5
    endloop
  endfacet
  facet normal -0 0 1
    outer loop
      vertex -24.6363 43.998 2.5
      vertex 54.1716 2.82843 2.5
      vertex -24.5342 44.5112 2.5
    endloop
  endfacet
  facet normal 0 0 1
    outer loop
      vertex 54.1716 2.82843 2.5
      vertex -24.6363 43.998 2.5
      vertex 53.8266 2.43505 2.5
    endloop
  endfacet
  facet normal -0 0 1
    outer loop
      vertex -25.0359 43.0333 2.5
      vertex 53.5359 2 2.5
      vertex -24.8045 43.5026 2.5
    endloop
  endfacet
  facet normal 0 0 1
    outer loop
      vertex 53.8266 2.43505 2.5
      vertex -24.8045 43.5026 2.5
      vertex 53.5359 2 2.5
    endloop
  endfacet
  facet normal -0 0 1
    outer loop
      vertex -24.8045 43.5026 2.5
      vertex 53.8266 2.43505 2.5
      vertex -24.6363 43.998 2.5
    endloop
  endfacet
  facet normal 0 0 1
    outer loop
      vertex 70 65 2.5
      vertex -24.5342 45.5554 2.5
      vertex -24.5 45.0333 2.5
    endloop
  endfacet
  facet normal 0 0 1
    outer loop
      vertex 70 65 2.5
      vertex -24.6363 46.0686 2.5
      vertex -24.5342 45.5554 2.5
    endloop
  endfacet
  facet normal 0 0 1
    outer loop
      vertex 70 65 2.5
      vertex -24.8045 46.5641 2.5
      vertex -24.6363 46.0686 2.5
    endloop
  endfacet
  facet normal 0 0 1
    outer loop
      vertex 70 65 2.5
      vertex -25.0359 47.0333 2.5
      vertex -24.8045 46.5641 2.5
    endloop
  endfacet
  facet normal 0 0 1
    outer loop
      vertex 70 65 2.5
      vertex -25.3266 47.4684 2.5
      vertex -25.0359 47.0333 2.5
    endloop
  endfacet
  facet normal 0 0 1
    outer loop
      vertex 70 65 2.5
      vertex -25.6716 47.8617 2.5
      vertex -25.3266 47.4684 2.5
    endloop
  endfacet
  facet normal 0 0 1
    outer loop
      vertex 70 65 2.5
      vertex -26.065 48.2067 2.5
      vertex -25.6716 47.8617 2.5
    endloop
  endfacet
  facet normal 0 0 1
    outer loop
      vertex 70 65 2.5
      vertex -26.5 48.4974 2.5
      vertex -26.065 48.2067 2.5
    endloop
  endfacet
  facet normal 0 0 1
    outer loop
      vertex 70 65 2.5
      vertex -26.9693 48.7288 2.5
      vertex -26.5 48.4974 2.5
    endloop
  endfacet
  facet normal 0 0 1
    outer loop
      vertex 70 65 2.5
      vertex -27.4647 48.897 2.5
      vertex -26.9693 48.7288 2.5
    endloop
  endfacet
  facet normal 0 0 1
    outer loop
      vertex 70 65 2.5
      vertex -27.9779 48.9991 2.5
      vertex -27.4647 48.897 2.5
    endloop
  endfacet
  facet normal -0 0 1
    outer loop
      vertex -70 65 2.5
      vertex -27.9779 48.9991 2.5
      vertex 70 65 2.5
    endloop
  endfacet
  facet normal 0 0 1
    outer loop
      vertex -27.9779 48.9991 2.5
      vertex -70 65 2.5
      vertex -28.5 49.0333 2.5
    endloop
  endfacet
  facet normal 0 0 1
    outer loop
      vertex -32.3637 -43.998 2.5
      vertex -70 -65 2.5
      vertex -32.4658 -44.5112 2.5
    endloop
  endfacet
  facet normal 0 0 1
    outer loop
      vertex -32.4658 45.5554 2.5
      vertex -70 65 2.5
      vertex -32.5 45.0333 2.5
    endloop
  endfacet
  facet normal 0 0 1
    outer loop
      vertex -32.3637 46.0686 2.5
      vertex -70 65 2.5
      vertex -32.4658 45.5554 2.5
    endloop
  endfacet
  facet normal 0 0 1
    outer loop
      vertex -32.1955 46.5641 2.5
      vertex -70 65 2.5
      vertex -32.3637 46.0686 2.5
    endloop
  endfacet
  facet normal 0 0 1
    outer loop
      vertex -31.9641 47.0333 2.5
      vertex -70 65 2.5
      vertex -32.1955 46.5641 2.5
    endloop
  endfacet
  facet normal 0 0 1
    outer loop
      vertex -31.6734 47.4684 2.5
      vertex -70 65 2.5
      vertex -31.9641 47.0333 2.5
    endloop
  endfacet
  facet normal 0 0 1
    outer loop
      vertex -31.3284 47.8617 2.5
      vertex -70 65 2.5
      vertex -31.6734 47.4684 2.5
    endloop
  endfacet
  facet normal 0 0 1
    outer loop
      vertex -30.935 48.2067 2.5
      vertex -70 65 2.5
      vertex -31.3284 47.8617 2.5
    endloop
  endfacet
  facet normal 0 0 1
    outer loop
      vertex -30.5 48.4974 2.5
      vertex -70 65 2.5
      vertex -30.935 48.2067 2.5
    endloop
  endfacet
  facet normal 0 0 1
    outer loop
      vertex -30.0307 48.7288 2.5
      vertex -70 65 2.5
      vertex -30.5 48.4974 2.5
    endloop
  endfacet
  facet normal 0 0 1
    outer loop
      vertex -29.5353 48.897 2.5
      vertex -70 65 2.5
      vertex -30.0307 48.7288 2.5
    endloop
  endfacet
  facet normal 0 0 1
    outer loop
      vertex -29.0221 48.9991 2.5
      vertex -70 65 2.5
      vertex -29.5353 48.897 2.5
    endloop
  endfacet
  facet normal 0 0 1
    outer loop
      vertex -28.5 49.0333 2.5
      vertex -70 65 2.5
      vertex -29.0221 48.9991 2.5
    endloop
  endfacet
  facet normal -0 0 1
    outer loop
      vertex 60.9658 -0.522104 2.5
      vertex 70 -65 2.5
      vertex 61 0 2.5
    endloop
  endfacet
  facet normal -0 0 1
    outer loop
      vertex 60.8637 -1.03528 2.5
      vertex 70 -65 2.5
      vertex 60.9658 -0.522104 2.5
    endloop
  endfacet
  facet normal -0 0 1
    outer loop
      vertex 60.6955 -1.53073 2.5
      vertex 70 -65 2.5
      vertex 60.8637 -1.03528 2.5
    endloop
  endfacet
  facet normal -0 0 1
    outer loop
      vertex 60.4641 -2 2.5
      vertex 70 -65 2.5
      vertex 60.6955 -1.53073 2.5
    endloop
  endfacet
  facet normal -0 0 1
    outer loop
      vertex 60.1734 -2.43505 2.5
      vertex 70 -65 2.5
      vertex 60.4641 -2 2.5
    endloop
  endfacet
  facet normal -0 0 1
    outer loop
      vertex 59.8284 -2.82843 2.5
      vertex 70 -65 2.5
      vertex 60.1734 -2.43505 2.5
    endloop
  endfacet
  facet normal -0 0 1
    outer loop
      vertex 59.435 -3.17341 2.5
      vertex 70 -65 2.5
      vertex 59.8284 -2.82843 2.5
    endloop
  endfacet
  facet normal -0 0 1
    outer loop
      vertex 59 -3.4641 2.5
      vertex 70 -65 2.5
      vertex 59.435 -3.17341 2.5
    endloop
  endfacet
  facet normal -0 0 1
    outer loop
      vertex 58.5307 -3.69552 2.5
      vertex 70 -65 2.5
      vertex 59 -3.4641 2.5
    endloop
  endfacet
  facet normal -0 0 1
    outer loop
      vertex 58.0353 -3.8637 2.5
      vertex 70 -65 2.5
      vertex 58.5307 -3.69552 2.5
    endloop
  endfacet
  facet normal -0 0 1
    outer loop
      vertex 57.5221 -3.96578 2.5
      vertex 70 -65 2.5
      vertex 58.0353 -3.8637 2.5
    endloop
  endfacet
  facet normal -0 0 1
    outer loop
      vertex 57 -4 2.5
      vertex 70 -65 2.5
      vertex 57.5221 -3.96578 2.5
    endloop
  endfacet
  facet normal 0 0 1
    outer loop
      vertex 56.4779 -3.96578 2.5
      vertex 70 -65 2.5
      vertex 57 -4 2.5
    endloop
  endfacet
  facet normal 0 0 1
    outer loop
      vertex 55.9647 -3.8637 2.5
      vertex 70 -65 2.5
      vertex 56.4779 -3.96578 2.5
    endloop
  endfacet
  facet normal 0 0 1
    outer loop
      vertex 55.4693 -3.69552 2.5
      vertex 70 -65 2.5
      vertex 55.9647 -3.8637 2.5
    endloop
  endfacet
  facet normal 0 0 1
    outer loop
      vertex 55 -3.4641 2.5
      vertex 70 -65 2.5
      vertex 55.4693 -3.69552 2.5
    endloop
  endfacet
  facet normal 0 0 1
    outer loop
      vertex 54.565 -3.17341 2.5
      vertex 70 -65 2.5
      vertex 55 -3.4641 2.5
    endloop
  endfacet
  facet normal 0 0 1
    outer loop
      vertex -24.5 -45.0333 2.5
      vertex 54.565 -3.17341 2.5
      vertex 54.1716 -2.82843 2.5
    endloop
  endfacet
  facet normal 0 0 1
    outer loop
      vertex -24.5 -45.0333 2.5
      vertex 54.1716 -2.82843 2.5
      vertex 53.8266 -2.43505 2.5
    endloop
  endfacet
  facet normal 0 0 1
    outer loop
      vertex -24.5 -45.0333 2.5
      vertex 53.8266 -2.43505 2.5
      vertex 53.5359 -2 2.5
    endloop
  endfacet
  facet normal 0 0 1
    outer loop
      vertex -24.5 -45.0333 2.5
      vertex 53.5359 -2 2.5
      vertex 53.3045 -1.53073 2.5
    endloop
  endfacet
  facet normal 0 0 1
    outer loop
      vertex -24.5 -45.0333 2.5
      vertex 53.3045 -1.53073 2.5
      vertex 53.1363 -1.03528 2.5
    endloop
  endfacet
  facet normal 0 0 1
    outer loop
      vertex 53.5359 2 2.5
      vertex -25.0359 43.0333 2.5
      vertex 53.3045 1.53073 2.5
    endloop
  endfacet
  facet normal 0 0 1
    outer loop
      vertex 53 0 2.5
      vertex -24.5 -45.0333 2.5
      vertex 53.0342 -0.522104 2.5
    endloop
  endfacet
  facet normal 0 0 1
    outer loop
      vertex 53.0342 -0.522104 2.5
      vertex -24.5 -45.0333 2.5
      vertex 53.1363 -1.03528 2.5
    endloop
  endfacet
  facet normal 0 0 1
    outer loop
      vertex 54.565 -3.17341 2.5
      vertex -24.5 -45.0333 2.5
      vertex 70 -65 2.5
    endloop
  endfacet
  facet normal -0 0 1
    outer loop
      vertex -24.5342 -45.5554 2.5
      vertex 70 -65 2.5
      vertex -24.5 -45.0333 2.5
    endloop
  endfacet
  facet normal -0 0 1
    outer loop
      vertex -24.6363 -46.0686 2.5
      vertex 70 -65 2.5
      vertex -24.5342 -45.5554 2.5
    endloop
  endfacet
  facet normal -0 0 1
    outer loop
      vertex -24.8045 -46.5641 2.5
      vertex 70 -65 2.5
      vertex -24.6363 -46.0686 2.5
    endloop
  endfacet
  facet normal -0 0 1
    outer loop
      vertex -25.0359 -47.0333 2.5
      vertex 70 -65 2.5
      vertex -24.8045 -46.5641 2.5
    endloop
  endfacet
  facet normal -0 0 1
    outer loop
      vertex -25.3266 -47.4684 2.5
      vertex 70 -65 2.5
      vertex -25.0359 -47.0333 2.5
    endloop
  endfacet
  facet normal -0 0 1
    outer loop
      vertex -25.6716 -47.8617 2.5
      vertex 70 -65 2.5
      vertex -25.3266 -47.4684 2.5
    endloop
  endfacet
  facet normal -0 0 1
    outer loop
      vertex -26.065 -48.2067 2.5
      vertex 70 -65 2.5
      vertex -25.6716 -47.8617 2.5
    endloop
  endfacet
  facet normal -0 0 1
    outer loop
      vertex -26.5 -48.4974 2.5
      vertex 70 -65 2.5
      vertex -26.065 -48.2067 2.5
    endloop
  endfacet
  facet normal -0 0 1
    outer loop
      vertex -26.9693 -48.7288 2.5
      vertex 70 -65 2.5
      vertex -26.5 -48.4974 2.5
    endloop
  endfacet
  facet normal -0 0 1
    outer loop
      vertex -27.4647 -48.897 2.5
      vertex 70 -65 2.5
      vertex -26.9693 -48.7288 2.5
    endloop
  endfacet
  facet normal -0 0 1
    outer loop
      vertex -27.9779 -48.9991 2.5
      vertex 70 -65 2.5
      vertex -27.4647 -48.897 2.5
    endloop
  endfacet
  facet normal 0 0 1
    outer loop
      vertex -70 -65 2.5
      vertex -27.9779 -48.9991 2.5
      vertex -28.5 -49.0333 2.5
    endloop
  endfacet
  facet normal 0 0 1
    outer loop
      vertex -70 -65 2.5
      vertex -28.5 -49.0333 2.5
      vertex -29.0221 -48.9991 2.5
    endloop
  endfacet
  facet normal 0 0 1
    outer loop
      vertex -32.4658 -44.5112 2.5
      vertex -70 -65 2.5
      vertex -32.5 -45.0333 2.5
    endloop
  endfacet
  facet normal 0 0 1
    outer loop
      vertex -32.5 -45.0333 2.5
      vertex -70 -65 2.5
      vertex -32.4658 -45.5554 2.5
    endloop
  endfacet
  facet normal 0 0 1
    outer loop
      vertex -27.9779 -48.9991 2.5
      vertex -70 -65 2.5
      vertex 70 -65 2.5
    endloop
  endfacet
  facet normal 0 0 1
    outer loop
      vertex -29.5353 -48.897 2.5
      vertex -70 -65 2.5
      vertex -29.0221 -48.9991 2.5
    endloop
  endfacet
  facet normal 0 0 1
    outer loop
      vertex -30.0307 -48.7288 2.5
      vertex -70 -65 2.5
      vertex -29.5353 -48.897 2.5
    endloop
  endfacet
  facet normal 0 0 1
    outer loop
      vertex -30.5 -48.4974 2.5
      vertex -70 -65 2.5
      vertex -30.0307 -48.7288 2.5
    endloop
  endfacet
  facet normal 0 0 1
    outer loop
      vertex -30.935 -48.2067 2.5
      vertex -70 -65 2.5
      vertex -30.5 -48.4974 2.5
    endloop
  endfacet
  facet normal 0 0 1
    outer loop
      vertex -31.3284 -47.8617 2.5
      vertex -70 -65 2.5
      vertex -30.935 -48.2067 2.5
    endloop
  endfacet
  facet normal 0 0 1
    outer loop
      vertex -31.6734 -47.4684 2.5
      vertex -70 -65 2.5
      vertex -31.3284 -47.8617 2.5
    endloop
  endfacet
  facet normal 0 0 1
    outer loop
      vertex -31.9641 -47.0333 2.5
      vertex -70 -65 2.5
      vertex -31.6734 -47.4684 2.5
    endloop
  endfacet
  facet normal 0 0 1
    outer loop
      vertex -32.1955 -46.5641 2.5
      vertex -70 -65 2.5
      vertex -31.9641 -47.0333 2.5
    endloop
  endfacet
  facet normal 0 0 1
    outer loop
      vertex -32.3637 -46.0686 2.5
      vertex -70 -65 2.5
      vertex -32.1955 -46.5641 2.5
    endloop
  endfacet
  facet normal 0 0 1
    outer loop
      vertex -32.4658 -45.5554 2.5
      vertex -70 -65 2.5
      vertex -32.3637 -46.0686 2.5
    endloop
  endfacet
  facet normal 0 0 -1
    outer loop
      vertex -25.3266 -42.5983 -2.5
      vertex 53.3045 -1.53073 -2.5
      vertex -25.0359 -43.0333 -2.5
    endloop
  endfacet
  facet normal 0 0 -1
    outer loop
      vertex 53 0 -2.5
      vertex -24.5342 44.5112 -2.5
      vertex -24.5 45.0333 -2.5
    endloop
  endfacet
  facet normal -0 0 -1
    outer loop
      vertex 53.3045 -1.53073 -2.5
      vertex -25.3266 -42.5983 -2.5
      vertex 53.1363 -1.03528 -2.5
    endloop
  endfacet
  facet normal 0 0 -1
    outer loop
      vertex 53 0 -2.5
      vertex -24.6363 43.998 -2.5
      vertex -24.5342 44.5112 -2.5
    endloop
  endfacet
  facet normal 0 0 -1
    outer loop
      vertex -25.6716 -42.2049 -2.5
      vertex 53.1363 -1.03528 -2.5
      vertex -25.3266 -42.5983 -2.5
    endloop
  endfacet
  facet normal 0 0 -1
    outer loop
      vertex 53 0 -2.5
      vertex -24.8045 43.5026 -2.5
      vertex -24.6363 43.998 -2.5
    endloop
  endfacet
  facet normal -0 0 -1
    outer loop
      vertex 53.1363 -1.03528 -2.5
      vertex -25.6716 -42.2049 -2.5
      vertex 53.0342 -0.522104 -2.5
    endloop
  endfacet
  facet normal 0 0 -1
    outer loop
      vertex 53 0 -2.5
      vertex -25.0359 43.0333 -2.5
      vertex -24.8045 43.5026 -2.5
    endloop
  endfacet
  facet normal 0 0 -1
    outer loop
      vertex -26.065 -41.8599 -2.5
      vertex 53.0342 -0.522104 -2.5
      vertex -25.6716 -42.2049 -2.5
    endloop
  endfacet
  facet normal 0 0 -1
    outer loop
      vertex 53 0 -2.5
      vertex -25.3266 42.5983 -2.5
      vertex -25.0359 43.0333 -2.5
    endloop
  endfacet
  facet normal -0 0 -1
    outer loop
      vertex 53.0342 -0.522104 -2.5
      vertex -26.065 -41.8599 -2.5
      vertex 53 0 -2.5
    endloop
  endfacet
  facet normal 0 0 -1
    outer loop
      vertex 53 0 -2.5
      vertex -25.6716 42.2049 -2.5
      vertex -25.3266 42.5983 -2.5
    endloop
  endfacet
  facet normal 0 0 -1
    outer loop
      vertex -26.065 41.8599 -2.5
      vertex 53 0 -2.5
      vertex -26.065 -41.8599 -2.5
    endloop
  endfacet
  facet normal 0 0 -1
    outer loop
      vertex 53 0 -2.5
      vertex -26.065 41.8599 -2.5
      vertex -25.6716 42.2049 -2.5
    endloop
  endfacet
  facet normal 0 0 -1
    outer loop
      vertex -26.5 -41.5692 -2.5
      vertex -26.065 41.8599 -2.5
      vertex -26.065 -41.8599 -2.5
    endloop
  endfacet
  facet normal 0 0 -1
    outer loop
      vertex -26.5 -41.5692 -2.5
      vertex -26.5 41.5692 -2.5
      vertex -26.065 41.8599 -2.5
    endloop
  endfacet
  facet normal 0 0 -1
    outer loop
      vertex -26.9693 -41.3378 -2.5
      vertex -26.5 41.5692 -2.5
      vertex -26.5 -41.5692 -2.5
    endloop
  endfacet
  facet normal 0 0 -1
    outer loop
      vertex -26.9693 -41.3378 -2.5
      vertex -26.9693 41.3378 -2.5
      vertex -26.5 41.5692 -2.5
    endloop
  endfacet
  facet normal 0 0 -1
    outer loop
      vertex -27.4647 -41.1696 -2.5
      vertex -26.9693 41.3378 -2.5
      vertex -26.9693 -41.3378 -2.5
    endloop
  endfacet
  facet normal 0 0 -1
    outer loop
      vertex -27.4647 -41.1696 -2.5
      vertex -27.4647 41.1696 -2.5
      vertex -26.9693 41.3378 -2.5
    endloop
  endfacet
  facet normal 0 0 -1
    outer loop
      vertex -27.9779 -41.0675 -2.5
      vertex -27.4647 41.1696 -2.5
      vertex -27.4647 -41.1696 -2.5
    endloop
  endfacet
  facet normal 0 0 -1
    outer loop
      vertex -27.9779 -41.0675 -2.5
      vertex -27.9779 41.0675 -2.5
      vertex -27.4647 41.1696 -2.5
    endloop
  endfacet
  facet normal 0 0 -1
    outer loop
      vertex -28.5 -41.0333 -2.5
      vertex -27.9779 41.0675 -2.5
      vertex -27.9779 -41.0675 -2.5
    endloop
  endfacet
  facet normal 0 0 -1
    outer loop
      vertex -28.5 -41.0333 -2.5
      vertex -28.5 41.0333 -2.5
      vertex -27.9779 41.0675 -2.5
    endloop
  endfacet
  facet normal 0 0 -1
    outer loop
      vertex -29.0221 -41.0675 -2.5
      vertex -28.5 41.0333 -2.5
      vertex -28.5 -41.0333 -2.5
    endloop
  endfacet
  facet normal 0 0 -1
    outer loop
      vertex -29.0221 -41.0675 -2.5
      vertex -29.0221 41.0675 -2.5
      vertex -28.5 41.0333 -2.5
    endloop
  endfacet
  facet normal 0 0 -1
    outer loop
      vertex -29.5353 -41.1696 -2.5
      vertex -29.0221 41.0675 -2.5
      vertex -29.0221 -41.0675 -2.5
    endloop
  endfacet
  facet normal 0 0 -1
    outer loop
      vertex -29.5353 -41.1696 -2.5
      vertex -29.5353 41.1696 -2.5
      vertex -29.0221 41.0675 -2.5
    endloop
  endfacet
  facet normal 0 0 -1
    outer loop
      vertex -30.0307 -41.3378 -2.5
      vertex -29.5353 41.1696 -2.5
      vertex -29.5353 -41.1696 -2.5
    endloop
  endfacet
  facet normal 0 0 -1
    outer loop
      vertex -30.0307 -41.3378 -2.5
      vertex -30.0307 41.3378 -2.5
      vertex -29.5353 41.1696 -2.5
    endloop
  endfacet
  facet normal 0 0 -1
    outer loop
      vertex -30.5 -41.5692 -2.5
      vertex -30.0307 41.3378 -2.5
      vertex -30.0307 -41.3378 -2.5
    endloop
  endfacet
  facet normal 0 0 -1
    outer loop
      vertex -30.5 -41.5692 -2.5
      vertex -30.5 41.5692 -2.5
      vertex -30.0307 41.3378 -2.5
    endloop
  endfacet
  facet normal 0 0 -1
    outer loop
      vertex -30.935 -41.8599 -2.5
      vertex -30.5 41.5692 -2.5
      vertex -30.5 -41.5692 -2.5
    endloop
  endfacet
  facet normal 0 0 -1
    outer loop
      vertex -30.935 -41.8599 -2.5
      vertex -30.935 41.8599 -2.5
      vertex -30.5 41.5692 -2.5
    endloop
  endfacet
  facet normal 0 0 -1
    outer loop
      vertex -31.3284 -42.2049 -2.5
      vertex -30.935 41.8599 -2.5
      vertex -30.935 -41.8599 -2.5
    endloop
  endfacet
  facet normal 0 0 -1
    outer loop
      vertex -31.3284 -42.2049 -2.5
      vertex -31.3284 42.2049 -2.5
      vertex -30.935 41.8599 -2.5
    endloop
  endfacet
  facet normal 0 0 -1
    outer loop
      vertex -31.6734 -42.5983 -2.5
      vertex -31.3284 42.2049 -2.5
      vertex -31.3284 -42.2049 -2.5
    endloop
  endfacet
  facet normal 0 0 -1
    outer loop
      vertex -31.6734 -42.5983 -2.5
      vertex -31.6734 42.5983 -2.5
      vertex -31.3284 42.2049 -2.5
    endloop
  endfacet
  facet normal 0 0 -1
    outer loop
      vertex -70 -65 -2.5
      vertex -31.6734 -42.5983 -2.5
      vertex -31.9641 -43.0333 -2.5
    endloop
  endfacet
  facet normal -0 0 -1
    outer loop
      vertex -31.6734 -42.5983 -2.5
      vertex -70 -65 -2.5
      vertex -31.6734 42.5983 -2.5
    endloop
  endfacet
  facet normal 0 0 -1
    outer loop
      vertex -70 -65 -2.5
      vertex -31.9641 -43.0333 -2.5
      vertex -32.1955 -43.5026 -2.5
    endloop
  endfacet
  facet normal 0 0 -1
    outer loop
      vertex -70 65 -2.5
      vertex -31.6734 42.5983 -2.5
      vertex -70 -65 -2.5
    endloop
  endfacet
  facet normal 0 0 -1
    outer loop
      vertex -70 -65 -2.5
      vertex -32.1955 -43.5026 -2.5
      vertex -32.3637 -43.998 -2.5
    endloop
  endfacet
  facet normal 0 0 -1
    outer loop
      vertex -31.6734 42.5983 -2.5
      vertex -70 65 -2.5
      vertex -31.9641 43.0333 -2.5
    endloop
  endfacet
  facet normal 0 0 -1
    outer loop
      vertex -70 -65 -2.5
      vertex -32.3637 -43.998 -2.5
      vertex -32.4658 -44.5112 -2.5
    endloop
  endfacet
  facet normal 0 0 -1
    outer loop
      vertex -31.9641 43.0333 -2.5
      vertex -70 65 -2.5
      vertex -32.1955 43.5026 -2.5
    endloop
  endfacet
  facet normal 0 0 -1
    outer loop
      vertex -70 -65 -2.5
      vertex -32.4658 -44.5112 -2.5
      vertex -32.5 -45.0333 -2.5
    endloop
  endfacet
  facet normal 0 0 -1
    outer loop
      vertex -32.1955 43.5026 -2.5
      vertex -70 65 -2.5
      vertex -32.3637 43.998 -2.5
    endloop
  endfacet
  facet normal 0 0 -1
    outer loop
      vertex 70 -65 -2.5
      vertex 61 0 -2.5
      vertex 70 65 -2.5
    endloop
  endfacet
  facet normal 0 0 -1
    outer loop
      vertex 70 -65 -2.5
      vertex 60.9658 -0.522104 -2.5
      vertex 61 0 -2.5
    endloop
  endfacet
  facet normal 0 0 -1
    outer loop
      vertex 70 -65 -2.5
      vertex 60.8637 -1.03528 -2.5
      vertex 60.9658 -0.522104 -2.5
    endloop
  endfacet
  facet normal 0 0 -1
    outer loop
      vertex 70 -65 -2.5
      vertex 60.6955 -1.53073 -2.5
      vertex 60.8637 -1.03528 -2.5
    endloop
  endfacet
  facet normal 0 0 -1
    outer loop
      vertex 70 -65 -2.5
      vertex 60.4641 -2 -2.5
      vertex 60.6955 -1.53073 -2.5
    endloop
  endfacet
  facet normal 0 0 -1
    outer loop
      vertex 70 -65 -2.5
      vertex 60.1734 -2.43505 -2.5
      vertex 60.4641 -2 -2.5
    endloop
  endfacet
  facet normal 0 0 -1
    outer loop
      vertex 70 -65 -2.5
      vertex 59.8284 -2.82843 -2.5
      vertex 60.1734 -2.43505 -2.5
    endloop
  endfacet
  facet normal 0 0 -1
    outer loop
      vertex 70 -65 -2.5
      vertex 59.435 -3.17341 -2.5
      vertex 59.8284 -2.82843 -2.5
    endloop
  endfacet
  facet normal 0 0 -1
    outer loop
      vertex 70 -65 -2.5
      vertex 59 -3.4641 -2.5
      vertex 59.435 -3.17341 -2.5
    endloop
  endfacet
  facet normal 0 0 -1
    outer loop
      vertex 70 -65 -2.5
      vertex 58.5307 -3.69552 -2.5
      vertex 59 -3.4641 -2.5
    endloop
  endfacet
  facet normal 0 0 -1
    outer loop
      vertex 70 -65 -2.5
      vertex 58.0353 -3.8637 -2.5
      vertex 58.5307 -3.69552 -2.5
    endloop
  endfacet
  facet normal 0 0 -1
    outer loop
      vertex 70 -65 -2.5
      vertex 57.5221 -3.96578 -2.5
      vertex 58.0353 -3.8637 -2.5
    endloop
  endfacet
  facet normal 0 0 -1
    outer loop
      vertex 70 -65 -2.5
      vertex 57 -4 -2.5
      vertex 57.5221 -3.96578 -2.5
    endloop
  endfacet
  facet normal 0 0 -1
    outer loop
      vertex 70 -65 -2.5
      vertex 56.4779 -3.96578 -2.5
      vertex 57 -4 -2.5
    endloop
  endfacet
  facet normal 0 0 -1
    outer loop
      vertex 70 -65 -2.5
      vertex 55.9647 -3.8637 -2.5
      vertex 56.4779 -3.96578 -2.5
    endloop
  endfacet
  facet normal 0 0 -1
    outer loop
      vertex 70 -65 -2.5
      vertex 55.4693 -3.69552 -2.5
      vertex 55.9647 -3.8637 -2.5
    endloop
  endfacet
  facet normal 0 0 -1
    outer loop
      vertex 70 -65 -2.5
      vertex 55 -3.4641 -2.5
      vertex 55.4693 -3.69552 -2.5
    endloop
  endfacet
  facet normal 0 0 -1
    outer loop
      vertex 70 -65 -2.5
      vertex 54.565 -3.17341 -2.5
      vertex 55 -3.4641 -2.5
    endloop
  endfacet
  facet normal 0 0 -1
    outer loop
      vertex -24.5 -45.0333 -2.5
      vertex 54.565 -3.17341 -2.5
      vertex 70 -65 -2.5
    endloop
  endfacet
  facet normal 0 0 -1
    outer loop
      vertex -24.5342 -44.5112 -2.5
      vertex 54.565 -3.17341 -2.5
      vertex -24.5 -45.0333 -2.5
    endloop
  endfacet
  facet normal -0 0 -1
    outer loop
      vertex 54.565 -3.17341 -2.5
      vertex -24.5342 -44.5112 -2.5
      vertex 54.1716 -2.82843 -2.5
    endloop
  endfacet
  facet normal 0 0 -1
    outer loop
      vertex -24.6363 -43.998 -2.5
      vertex 54.1716 -2.82843 -2.5
      vertex -24.5342 -44.5112 -2.5
    endloop
  endfacet
  facet normal -0 0 -1
    outer loop
      vertex 54.1716 -2.82843 -2.5
      vertex -24.6363 -43.998 -2.5
      vertex 53.8266 -2.43505 -2.5
    endloop
  endfacet
  facet normal 0 0 -1
    outer loop
      vertex -25.0359 -43.0333 -2.5
      vertex 53.5359 -2 -2.5
      vertex -24.8045 -43.5026 -2.5
    endloop
  endfacet
  facet normal -0 0 -1
    outer loop
      vertex 53.8266 -2.43505 -2.5
      vertex -24.8045 -43.5026 -2.5
      vertex 53.5359 -2 -2.5
    endloop
  endfacet
  facet normal 0 0 -1
    outer loop
      vertex -24.8045 -43.5026 -2.5
      vertex 53.8266 -2.43505 -2.5
      vertex -24.6363 -43.998 -2.5
    endloop
  endfacet
  facet normal 0 0 -1
    outer loop
      vertex 70 -65 -2.5
      vertex -24.5342 -45.5554 -2.5
      vertex -24.5 -45.0333 -2.5
    endloop
  endfacet
  facet normal 0 0 -1
    outer loop
      vertex 70 -65 -2.5
      vertex -24.6363 -46.0686 -2.5
      vertex -24.5342 -45.5554 -2.5
    endloop
  endfacet
  facet normal 0 0 -1
    outer loop
      vertex 70 -65 -2.5
      vertex -24.8045 -46.5641 -2.5
      vertex -24.6363 -46.0686 -2.5
    endloop
  endfacet
  facet normal 0 0 -1
    outer loop
      vertex 70 -65 -2.5
      vertex -25.0359 -47.0333 -2.5
      vertex -24.8045 -46.5641 -2.5
    endloop
  endfacet
  facet normal 0 0 -1
    outer loop
      vertex 70 -65 -2.5
      vertex -25.3266 -47.4684 -2.5
      vertex -25.0359 -47.0333 -2.5
    endloop
  endfacet
  facet normal 0 0 -1
    outer loop
      vertex 70 -65 -2.5
      vertex -25.6716 -47.8617 -2.5
      vertex -25.3266 -47.4684 -2.5
    endloop
  endfacet
  facet normal 0 0 -1
    outer loop
      vertex 70 -65 -2.5
      vertex -26.065 -48.2067 -2.5
      vertex -25.6716 -47.8617 -2.5
    endloop
  endfacet
  facet normal 0 0 -1
    outer loop
      vertex 70 -65 -2.5
      vertex -26.5 -48.4974 -2.5
      vertex -26.065 -48.2067 -2.5
    endloop
  endfacet
  facet normal 0 0 -1
    outer loop
      vertex 70 -65 -2.5
      vertex -26.9693 -48.7288 -2.5
      vertex -26.5 -48.4974 -2.5
    endloop
  endfacet
  facet normal 0 0 -1
    outer loop
      vertex 70 -65 -2.5
      vertex -27.4647 -48.897 -2.5
      vertex -26.9693 -48.7288 -2.5
    endloop
  endfacet
  facet normal 0 0 -1
    outer loop
      vertex 70 -65 -2.5
      vertex -27.9779 -48.9991 -2.5
      vertex -27.4647 -48.897 -2.5
    endloop
  endfacet
  facet normal 0 0 -1
    outer loop
      vertex -70 -65 -2.5
      vertex -27.9779 -48.9991 -2.5
      vertex 70 -65 -2.5
    endloop
  endfacet
  facet normal 0 0 -1
    outer loop
      vertex -27.9779 -48.9991 -2.5
      vertex -70 -65 -2.5
      vertex -28.5 -49.0333 -2.5
    endloop
  endfacet
  facet normal 0 0 -1
    outer loop
      vertex -32.3637 43.998 -2.5
      vertex -70 65 -2.5
      vertex -32.4658 44.5112 -2.5
    endloop
  endfacet
  facet normal -0 0 -1
    outer loop
      vertex -32.4658 -45.5554 -2.5
      vertex -70 -65 -2.5
      vertex -32.5 -45.0333 -2.5
    endloop
  endfacet
  facet normal -0 0 -1
    outer loop
      vertex -32.3637 -46.0686 -2.5
      vertex -70 -65 -2.5
      vertex -32.4658 -45.5554 -2.5
    endloop
  endfacet
  facet normal -0 0 -1
    outer loop
      vertex -32.1955 -46.5641 -2.5
      vertex -70 -65 -2.5
      vertex -32.3637 -46.0686 -2.5
    endloop
  endfacet
  facet normal -0 0 -1
    outer loop
      vertex -31.9641 -47.0333 -2.5
      vertex -70 -65 -2.5
      vertex -32.1955 -46.5641 -2.5
    endloop
  endfacet
  facet normal -0 0 -1
    outer loop
      vertex -31.6734 -47.4684 -2.5
      vertex -70 -65 -2.5
      vertex -31.9641 -47.0333 -2.5
    endloop
  endfacet
  facet normal -0 0 -1
    outer loop
      vertex -31.3284 -47.8617 -2.5
      vertex -70 -65 -2.5
      vertex -31.6734 -47.4684 -2.5
    endloop
  endfacet
  facet normal -0 0 -1
    outer loop
      vertex -30.935 -48.2067 -2.5
      vertex -70 -65 -2.5
      vertex -31.3284 -47.8617 -2.5
    endloop
  endfacet
  facet normal -0 0 -1
    outer loop
      vertex -30.5 -48.4974 -2.5
      vertex -70 -65 -2.5
      vertex -30.935 -48.2067 -2.5
    endloop
  endfacet
  facet normal -0 0 -1
    outer loop
      vertex -30.0307 -48.7288 -2.5
      vertex -70 -65 -2.5
      vertex -30.5 -48.4974 -2.5
    endloop
  endfacet
  facet normal -0 0 -1
    outer loop
      vertex -29.5353 -48.897 -2.5
      vertex -70 -65 -2.5
      vertex -30.0307 -48.7288 -2.5
    endloop
  endfacet
  facet normal -0 0 -1
    outer loop
      vertex -29.0221 -48.9991 -2.5
      vertex -70 -65 -2.5
      vertex -29.5353 -48.897 -2.5
    endloop
  endfacet
  facet normal -0 0 -1
    outer loop
      vertex -28.5 -49.0333 -2.5
      vertex -70 -65 -2.5
      vertex -29.0221 -48.9991 -2.5
    endloop
  endfacet
  facet normal 0 0 -1
    outer loop
      vertex 60.9658 0.522104 -2.5
      vertex 70 65 -2.5
      vertex 61 0 -2.5
    endloop
  endfacet
  facet normal 0 0 -1
    outer loop
      vertex 60.8637 1.03528 -2.5
      vertex 70 65 -2.5
      vertex 60.9658 0.522104 -2.5
    endloop
  endfacet
  facet normal 0 0 -1
    outer loop
      vertex 60.6955 1.53073 -2.5
      vertex 70 65 -2.5
      vertex 60.8637 1.03528 -2.5
    endloop
  endfacet
  facet normal 0 0 -1
    outer loop
      vertex 60.4641 2 -2.5
      vertex 70 65 -2.5
      vertex 60.6955 1.53073 -2.5
    endloop
  endfacet
  facet normal 0 0 -1
    outer loop
      vertex 60.1734 2.43505 -2.5
      vertex 70 65 -2.5
      vertex 60.4641 2 -2.5
    endloop
  endfacet
  facet normal 0 0 -1
    outer loop
      vertex 59.8284 2.82843 -2.5
      vertex 70 65 -2.5
      vertex 60.1734 2.43505 -2.5
    endloop
  endfacet
  facet normal 0 0 -1
    outer loop
      vertex 59.435 3.17341 -2.5
      vertex 70 65 -2.5
      vertex 59.8284 2.82843 -2.5
    endloop
  endfacet
  facet normal 0 0 -1
    outer loop
      vertex 59 3.4641 -2.5
      vertex 70 65 -2.5
      vertex 59.435 3.17341 -2.5
    endloop
  endfacet
  facet normal 0 0 -1
    outer loop
      vertex 58.5307 3.69552 -2.5
      vertex 70 65 -2.5
      vertex 59 3.4641 -2.5
    endloop
  endfacet
  facet normal 0 0 -1
    outer loop
      vertex 58.0353 3.8637 -2.5
      vertex 70 65 -2.5
      vertex 58.5307 3.69552 -2.5
    endloop
  endfacet
  facet normal 0 0 -1
    outer loop
      vertex 57.5221 3.96578 -2.5
      vertex 70 65 -2.5
      vertex 58.0353 3.8637 -2.5
    endloop
  endfacet
  facet normal 0 0 -1
    outer loop
      vertex 57 4 -2.5
      vertex 70 65 -2.5
      vertex 57.5221 3.96578 -2.5
    endloop
  endfacet
  facet normal 0 0 -1
    outer loop
      vertex 56.4779 3.96578 -2.5
      vertex 70 65 -2.5
      vertex 57 4 -2.5
    endloop
  endfacet
  facet normal 0 0 -1
    outer loop
      vertex 55.9647 3.8637 -2.5
      vertex 70 65 -2.5
      vertex 56.4779 3.96578 -2.5
    endloop
  endfacet
  facet normal 0 0 -1
    outer loop
      vertex 55.4693 3.69552 -2.5
      vertex 70 65 -2.5
      vertex 55.9647 3.8637 -2.5
    endloop
  endfacet
  facet normal 0 0 -1
    outer loop
      vertex 55 3.4641 -2.5
      vertex 70 65 -2.5
      vertex 55.4693 3.69552 -2.5
    endloop
  endfacet
  facet normal 0 0 -1
    outer loop
      vertex 54.565 3.17341 -2.5
      vertex 70 65 -2.5
      vertex 55 3.4641 -2.5
    endloop
  endfacet
  facet normal 0 0 -1
    outer loop
      vertex -24.5 45.0333 -2.5
      vertex 54.565 3.17341 -2.5
      vertex 54.1716 2.82843 -2.5
    endloop
  endfacet
  facet normal 0 0 -1
    outer loop
      vertex -24.5 45.0333 -2.5
      vertex 54.1716 2.82843 -2.5
      vertex 53.8266 2.43505 -2.5
    endloop
  endfacet
  facet normal 0 0 -1
    outer loop
      vertex -24.5 45.0333 -2.5
      vertex 53.8266 2.43505 -2.5
      vertex 53.5359 2 -2.5
    endloop
  endfacet
  facet normal 0 0 -1
    outer loop
      vertex -24.5 45.0333 -2.5
      vertex 53.5359 2 -2.5
      vertex 53.3045 1.53073 -2.5
    endloop
  endfacet
  facet normal 0 0 -1
    outer loop
      vertex -24.5 45.0333 -2.5
      vertex 53.3045 1.53073 -2.5
      vertex 53.1363 1.03528 -2.5
    endloop
  endfacet
  facet normal -0 0 -1
    outer loop
      vertex 53.5359 -2 -2.5
      vertex -25.0359 -43.0333 -2.5
      vertex 53.3045 -1.53073 -2.5
    endloop
  endfacet
  facet normal 0 0 -1
    outer loop
      vertex 53 0 -2.5
      vertex -24.5 45.0333 -2.5
      vertex 53.0342 0.522104 -2.5
    endloop
  endfacet
  facet normal 0 0 -1
    outer loop
      vertex 53.0342 0.522104 -2.5
      vertex -24.5 45.0333 -2.5
      vertex 53.1363 1.03528 -2.5
    endloop
  endfacet
  facet normal 0 0 -1
    outer loop
      vertex 54.565 3.17341 -2.5
      vertex -24.5 45.0333 -2.5
      vertex 70 65 -2.5
    endloop
  endfacet
  facet normal 0 0 -1
    outer loop
      vertex -24.5342 45.5554 -2.5
      vertex 70 65 -2.5
      vertex -24.5 45.0333 -2.5
    endloop
  endfacet
  facet normal 0 0 -1
    outer loop
      vertex -24.6363 46.0686 -2.5
      vertex 70 65 -2.5
      vertex -24.5342 45.5554 -2.5
    endloop
  endfacet
  facet normal 0 0 -1
    outer loop
      vertex -24.8045 46.5641 -2.5
      vertex 70 65 -2.5
      vertex -24.6363 46.0686 -2.5
    endloop
  endfacet
  facet normal 0 0 -1
    outer loop
      vertex -25.0359 47.0333 -2.5
      vertex 70 65 -2.5
      vertex -24.8045 46.5641 -2.5
    endloop
  endfacet
  facet normal 0 0 -1
    outer loop
      vertex -25.3266 47.4684 -2.5
      vertex 70 65 -2.5
      vertex -25.0359 47.0333 -2.5
    endloop
  endfacet
  facet normal 0 0 -1
    outer loop
      vertex -25.6716 47.8617 -2.5
      vertex 70 65 -2.5
      vertex -25.3266 47.4684 -2.5
    endloop
  endfacet
  facet normal 0 0 -1
    outer loop
      vertex -26.065 48.2067 -2.5
      vertex 70 65 -2.5
      vertex -25.6716 47.8617 -2.5
    endloop
  endfacet
  facet normal 0 0 -1
    outer loop
      vertex -26.5 48.4974 -2.5
      vertex 70 65 -2.5
      vertex -26.065 48.2067 -2.5
    endloop
  endfacet
  facet normal 0 0 -1
    outer loop
      vertex -26.9693 48.7288 -2.5
      vertex 70 65 -2.5
      vertex -26.5 48.4974 -2.5
    endloop
  endfacet
  facet normal 0 0 -1
    outer loop
      vertex -27.4647 48.897 -2.5
      vertex 70 65 -2.5
      vertex -26.9693 48.7288 -2.5
    endloop
  endfacet
  facet normal 0 0 -1
    outer loop
      vertex -27.9779 48.9991 -2.5
      vertex 70 65 -2.5
      vertex -27.4647 48.897 -2.5
    endloop
  endfacet
  facet normal 0 0 -1
    outer loop
      vertex -70 65 -2.5
      vertex -27.9779 48.9991 -2.5
      vertex -28.5 49.0333 -2.5
    endloop
  endfacet
  facet normal 0 0 -1
    outer loop
      vertex -70 65 -2.5
      vertex -28.5 49.0333 -2.5
      vertex -29.0221 48.9991 -2.5
    endloop
  endfacet
  facet normal 0 0 -1
    outer loop
      vertex -32.4658 44.5112 -2.5
      vertex -70 65 -2.5
      vertex -32.5 45.0333 -2.5
    endloop
  endfacet
  facet normal 0 0 -1
    outer loop
      vertex -32.5 45.0333 -2.5
      vertex -70 65 -2.5
      vertex -32.4658 45.5554 -2.5
    endloop
  endfacet
  facet normal 0 0 -1
    outer loop
      vertex -27.9779 48.9991 -2.5
      vertex -70 65 -2.5
      vertex 70 65 -2.5
    endloop
  endfacet
  facet normal 0 0 -1
    outer loop
      vertex -29.5353 48.897 -2.5
      vertex -70 65 -2.5
      vertex -29.0221 48.9991 -2.5
    endloop
  endfacet
  facet normal 0 0 -1
    outer loop
      vertex -30.0307 48.7288 -2.5
      vertex -70 65 -2.5
      vertex -29.5353 48.897 -2.5
    endloop
  endfacet
  facet normal 0 0 -1
    outer loop
      vertex -30.5 48.4974 -2.5
      vertex -70 65 -2.5
      vertex -30.0307 48.7288 -2.5
    endloop
  endfacet
  facet normal 0 0 -1
    outer loop
      vertex -30.935 48.2067 -2.5
      vertex -70 65 -2.5
      vertex -30.5 48.4974 -2.5
    endloop
  endfacet
  facet normal 0 0 -1
    outer loop
      vertex -31.3284 47.8617 -2.5
      vertex -70 65 -2.5
      vertex -30.935 48.2067 -2.5
    endloop
  endfacet
  facet normal 0 0 -1
    outer loop
      vertex -31.6734 47.4684 -2.5
      vertex -70 65 -2.5
      vertex -31.3284 47.8617 -2.5
    endloop
  endfacet
  facet normal 0 0 -1
    outer loop
      vertex -31.9641 47.0333 -2.5
      vertex -70 65 -2.5
      vertex -31.6734 47.4684 -2.5
    endloop
  endfacet
  facet normal 0 0 -1
    outer loop
      vertex -32.1955 46.5641 -2.5
      vertex -70 65 -2.5
      vertex -31.9641 47.0333 -2.5
    endloop
  endfacet
  facet normal 0 0 -1
    outer loop
      vertex -32.3637 46.0686 -2.5
      vertex -70 65 -2.5
      vertex -32.1955 46.5641 -2.5
    endloop
  endfacet
  facet normal 0 0 -1
    outer loop
      vertex -32.4658 45.5554 -2.5
      vertex -70 65 -2.5
      vertex -32.3637 46.0686 -2.5
    endloop
  endfacet
  facet normal -1 0 0
    outer loop
      vertex -70 -65 -2.5
      vertex -70 65 2.5
      vertex -70 65 -2.5
    endloop
  endfacet
  facet normal -1 -0 0
    outer loop
      vertex -70 65 2.5
      vertex -70 -65 -2.5
      vertex -70 -65 2.5
    endloop
  endfacet
  facet normal 0 1 -0
    outer loop
      vertex 70 65 -2.5
      vertex -70 65 2.5
      vertex 70 65 2.5
    endloop
  endfacet
  facet normal 0 1 0
    outer loop
      vertex -70 65 2.5
      vertex 70 65 -2.5
      vertex -70 65 -2.5
    endloop
  endfacet
  facet normal 0 -1 0
    outer loop
      vertex -70 -65 -2.5
      vertex 70 -65 2.5
      vertex -70 -65 2.5
    endloop
  endfacet
  facet normal 0 -1 -0
    outer loop
      vertex 70 -65 2.5
      vertex -70 -65 -2.5
      vertex 70 -65 -2.5
    endloop
  endfacet
  facet normal -0.321464 0.946922 0
    outer loop
      vertex 58.5307 -3.69552 -2.5
      vertex 58.0353 -3.8637 2.5
      vertex 58.5307 -3.69552 2.5
    endloop
  endfacet
  facet normal -0.321464 0.946922 0
    outer loop
      vertex 58.0353 -3.8637 2.5
      vertex 58.5307 -3.69552 -2.5
      vertex 58.0353 -3.8637 -2.5
    endloop
  endfacet
  facet normal -0.980777 -0.195133 0
    outer loop
      vertex 60.9658 0.522104 -2.5
      vertex 60.8637 1.03528 2.5
      vertex 60.8637 1.03528 -2.5
    endloop
  endfacet
  facet normal -0.980777 -0.195133 0
    outer loop
      vertex 60.8637 1.03528 2.5
      vertex 60.9658 0.522104 -2.5
      vertex 60.9658 0.522104 2.5
    endloop
  endfacet
  facet normal -0.997861 -0.0653641 0
    outer loop
      vertex 61 0 -2.5
      vertex 60.9658 0.522104 2.5
      vertex 60.9658 0.522104 -2.5
    endloop
  endfacet
  facet normal -0.997861 -0.0653641 0
    outer loop
      vertex 60.9658 0.522104 2.5
      vertex 61 0 -2.5
      vertex 61 0 2.5
    endloop
  endfacet
  facet normal -0.94692 -0.321469 0
    outer loop
      vertex 60.8637 1.03528 -2.5
      vertex 60.6955 1.53073 2.5
      vertex 60.6955 1.53073 -2.5
    endloop
  endfacet
  facet normal -0.94692 -0.321469 0
    outer loop
      vertex 60.6955 1.53073 2.5
      vertex 60.8637 1.03528 -2.5
      vertex 60.8637 1.03528 2.5
    endloop
  endfacet
  facet normal -0.442268 0.896883 0
    outer loop
      vertex 59 -3.4641 -2.5
      vertex 58.5307 -3.69552 2.5
      vertex 59 -3.4641 2.5
    endloop
  endfacet
  facet normal -0.442268 0.896883 0
    outer loop
      vertex 58.5307 -3.69552 2.5
      vertex 59 -3.4641 -2.5
      vertex 58.5307 -3.69552 -2.5
    endloop
  endfacet
  facet normal -0.321464 -0.946922 0
    outer loop
      vertex 58.0353 3.8637 -2.5
      vertex 58.5307 3.69552 2.5
      vertex 58.0353 3.8637 2.5
    endloop
  endfacet
  facet normal -0.321464 -0.946922 -0
    outer loop
      vertex 58.5307 3.69552 2.5
      vertex 58.0353 3.8637 -2.5
      vertex 58.5307 3.69552 -2.5
    endloop
  endfacet
  facet normal 0.321464 -0.946922 0
    outer loop
      vertex 55.4693 3.69552 -2.5
      vertex 55.9647 3.8637 2.5
      vertex 55.4693 3.69552 2.5
    endloop
  endfacet
  facet normal 0.321464 -0.946922 0
    outer loop
      vertex 55.9647 3.8637 2.5
      vertex 55.4693 3.69552 -2.5
      vertex 55.9647 3.8637 -2.5
    endloop
  endfacet
  facet normal -0.751826 0.659362 0
    outer loop
      vertex 59.8284 -2.82843 -2.5
      vertex 60.1734 -2.43505 2.5
      vertex 60.1734 -2.43505 -2.5
    endloop
  endfacet
  facet normal -0.751826 0.659362 0
    outer loop
      vertex 60.1734 -2.43505 2.5
      vertex 59.8284 -2.82843 -2.5
      vertex 59.8284 -2.82843 2.5
    endloop
  endfacet
  facet normal -0.831462 -0.555582 0
    outer loop
      vertex 60.4641 2 -2.5
      vertex 60.1734 2.43505 2.5
      vertex 60.1734 2.43505 -2.5
    endloop
  endfacet
  facet normal -0.831462 -0.555582 0
    outer loop
      vertex 60.1734 2.43505 2.5
      vertex 60.4641 2 -2.5
      vertex 60.4641 2 2.5
    endloop
  endfacet
  facet normal -0.896887 -0.44226 0
    outer loop
      vertex 60.6955 1.53073 -2.5
      vertex 60.4641 2 2.5
      vertex 60.4641 2 -2.5
    endloop
  endfacet
  facet normal -0.896887 -0.44226 0
    outer loop
      vertex 60.4641 2 2.5
      vertex 60.6955 1.53073 -2.5
      vertex 60.6955 1.53073 2.5
    endloop
  endfacet
  facet normal -0.751826 -0.659362 0
    outer loop
      vertex 60.1734 2.43505 -2.5
      vertex 59.8284 2.82843 2.5
      vertex 59.8284 2.82843 -2.5
    endloop
  endfacet
  facet normal -0.751826 -0.659362 0
    outer loop
      vertex 59.8284 2.82843 2.5
      vertex 60.1734 2.43505 -2.5
      vertex 60.1734 2.43505 2.5
    endloop
  endfacet
  facet normal 0.659321 -0.751861 0
    outer loop
      vertex 54.1716 2.82843 -2.5
      vertex 54.565 3.17341 2.5
      vertex 54.1716 2.82843 2.5
    endloop
  endfacet
  facet normal 0.659321 -0.751861 0
    outer loop
      vertex 54.565 3.17341 2.5
      vertex 54.1716 2.82843 -2.5
      vertex 54.565 3.17341 -2.5
    endloop
  endfacet
  facet normal -0.94692 0.321469 0
    outer loop
      vertex 60.6955 -1.53073 -2.5
      vertex 60.8637 -1.03528 2.5
      vertex 60.8637 -1.03528 -2.5
    endloop
  endfacet
  facet normal -0.94692 0.321469 0
    outer loop
      vertex 60.8637 -1.03528 2.5
      vertex 60.6955 -1.53073 -2.5
      vertex 60.6955 -1.53073 2.5
    endloop
  endfacet
  facet normal -0.659321 -0.751861 0
    outer loop
      vertex 59.435 3.17341 -2.5
      vertex 59.8284 2.82843 2.5
      vertex 59.435 3.17341 2.5
    endloop
  endfacet
  facet normal -0.659321 -0.751861 -0
    outer loop
      vertex 59.8284 2.82843 2.5
      vertex 59.435 3.17341 -2.5
      vertex 59.8284 2.82843 -2.5
    endloop
  endfacet
  facet normal 0.195087 -0.980786 0
    outer loop
      vertex 55.9647 3.8637 -2.5
      vertex 56.4779 3.96578 2.5
      vertex 55.9647 3.8637 2.5
    endloop
  endfacet
  facet normal 0.195087 -0.980786 0
    outer loop
      vertex 56.4779 3.96578 2.5
      vertex 55.9647 3.8637 -2.5
      vertex 56.4779 3.96578 -2.5
    endloop
  endfacet
  facet normal 0.94692 0.321469 0
    outer loop
      vertex 53.3045 -1.53073 2.5
      vertex 53.1363 -1.03528 -2.5
      vertex 53.1363 -1.03528 2.5
    endloop
  endfacet
  facet normal 0.94692 0.321469 0
    outer loop
      vertex 53.1363 -1.03528 -2.5
      vertex 53.3045 -1.53073 2.5
      vertex 53.3045 -1.53073 -2.5
    endloop
  endfacet
  facet normal 0.442268 -0.896883 0
    outer loop
      vertex 55 3.4641 -2.5
      vertex 55.4693 3.69552 2.5
      vertex 55 3.4641 2.5
    endloop
  endfacet
  facet normal 0.442268 -0.896883 0
    outer loop
      vertex 55.4693 3.69552 2.5
      vertex 55 3.4641 -2.5
      vertex 55.4693 3.69552 -2.5
    endloop
  endfacet
  facet normal -0.831462 0.555582 0
    outer loop
      vertex 60.1734 -2.43505 -2.5
      vertex 60.4641 -2 2.5
      vertex 60.4641 -2 -2.5
    endloop
  endfacet
  facet normal -0.831462 0.555582 0
    outer loop
      vertex 60.4641 -2 2.5
      vertex 60.1734 -2.43505 -2.5
      vertex 60.1734 -2.43505 2.5
    endloop
  endfacet
  facet normal 0.195087 0.980786 -0
    outer loop
      vertex 56.4779 -3.96578 -2.5
      vertex 55.9647 -3.8637 2.5
      vertex 56.4779 -3.96578 2.5
    endloop
  endfacet
  facet normal 0.195087 0.980786 0
    outer loop
      vertex 55.9647 -3.8637 2.5
      vertex 56.4779 -3.96578 -2.5
      vertex 55.9647 -3.8637 -2.5
    endloop
  endfacet
  facet normal -0.195087 0.980786 0
    outer loop
      vertex 58.0353 -3.8637 -2.5
      vertex 57.5221 -3.96578 2.5
      vertex 58.0353 -3.8637 2.5
    endloop
  endfacet
  facet normal -0.195087 0.980786 0
    outer loop
      vertex 57.5221 -3.96578 2.5
      vertex 58.0353 -3.8637 -2.5
      vertex 57.5221 -3.96578 -2.5
    endloop
  endfacet
  facet normal -0.980777 0.195133 0
    outer loop
      vertex 60.8637 -1.03528 -2.5
      vertex 60.9658 -0.522104 2.5
      vertex 60.9658 -0.522104 -2.5
    endloop
  endfacet
  facet normal -0.980777 0.195133 0
    outer loop
      vertex 60.9658 -0.522104 2.5
      vertex 60.8637 -1.03528 -2.5
      vertex 60.8637 -1.03528 2.5
    endloop
  endfacet
  facet normal -0.555613 0.831441 0
    outer loop
      vertex 59.435 -3.17341 -2.5
      vertex 59 -3.4641 2.5
      vertex 59.435 -3.17341 2.5
    endloop
  endfacet
  facet normal -0.555613 0.831441 0
    outer loop
      vertex 59 -3.4641 2.5
      vertex 59.435 -3.17341 -2.5
      vertex 59 -3.4641 -2.5
    endloop
  endfacet
  facet normal -0.555613 -0.831441 0
    outer loop
      vertex 59 3.4641 -2.5
      vertex 59.435 3.17341 2.5
      vertex 59 3.4641 2.5
    endloop
  endfacet
  facet normal -0.555613 -0.831441 -0
    outer loop
      vertex 59.435 3.17341 2.5
      vertex 59 3.4641 -2.5
      vertex 59.435 3.17341 -2.5
    endloop
  endfacet
  facet normal -0.896887 0.44226 0
    outer loop
      vertex 60.4641 -2 -2.5
      vertex 60.6955 -1.53073 2.5
      vertex 60.6955 -1.53073 -2.5
    endloop
  endfacet
  facet normal -0.896887 0.44226 0
    outer loop
      vertex 60.6955 -1.53073 2.5
      vertex 60.4641 -2 -2.5
      vertex 60.4641 -2 2.5
    endloop
  endfacet
  facet normal 0.555613 -0.831441 0
    outer loop
      vertex 54.565 3.17341 -2.5
      vertex 55 3.4641 2.5
      vertex 54.565 3.17341 2.5
    endloop
  endfacet
  facet normal 0.555613 -0.831441 0
    outer loop
      vertex 55 3.4641 2.5
      vertex 54.565 3.17341 -2.5
      vertex 55 3.4641 -2.5
    endloop
  endfacet
  facet normal 0.980777 -0.195133 0
    outer loop
      vertex 53.0342 0.522104 2.5
      vertex 53.1363 1.03528 -2.5
      vertex 53.1363 1.03528 2.5
    endloop
  endfacet
  facet normal 0.980777 -0.195133 0
    outer loop
      vertex 53.1363 1.03528 -2.5
      vertex 53.0342 0.522104 2.5
      vertex 53.0342 0.522104 -2.5
    endloop
  endfacet
  facet normal 0.997861 -0.0653641 0
    outer loop
      vertex 53 0 2.5
      vertex 53.0342 0.522104 -2.5
      vertex 53.0342 0.522104 2.5
    endloop
  endfacet
  facet normal 0.997861 -0.0653641 0
    outer loop
      vertex 53.0342 0.522104 -2.5
      vertex 53 0 2.5
      vertex 53 0 -2.5
    endloop
  endfacet
  facet normal -0.997861 0.0653641 0
    outer loop
      vertex 60.9658 -0.522104 -2.5
      vertex 61 0 2.5
      vertex 61 0 -2.5
    endloop
  endfacet
  facet normal -0.997861 0.0653641 0
    outer loop
      vertex 61 0 2.5
      vertex 60.9658 -0.522104 -2.5
      vertex 60.9658 -0.522104 2.5
    endloop
  endfacet
  facet normal 0.896887 0.44226 0
    outer loop
      vertex 53.5359 -2 2.5
      vertex 53.3045 -1.53073 -2.5
      vertex 53.3045 -1.53073 2.5
    endloop
  endfacet
  facet normal 0.896887 0.44226 0
    outer loop
      vertex 53.3045 -1.53073 -2.5
      vertex 53.5359 -2 2.5
      vertex 53.5359 -2 -2.5
    endloop
  endfacet
  facet normal 0.896887 -0.44226 0
    outer loop
      vertex 53.3045 1.53073 2.5
      vertex 53.5359 2 -2.5
      vertex 53.5359 2 2.5
    endloop
  endfacet
  facet normal 0.896887 -0.44226 0
    outer loop
      vertex 53.5359 2 -2.5
      vertex 53.3045 1.53073 2.5
      vertex 53.3045 1.53073 -2.5
    endloop
  endfacet
  facet normal 0.0654027 0.997859 -0
    outer loop
      vertex 57 -4 -2.5
      vertex 56.4779 -3.96578 2.5
      vertex 57 -4 2.5
    endloop
  endfacet
  facet normal 0.0654027 0.997859 0
    outer loop
      vertex 56.4779 -3.96578 2.5
      vertex 57 -4 -2.5
      vertex 56.4779 -3.96578 -2.5
    endloop
  endfacet
  facet normal 0.94692 -0.321469 0
    outer loop
      vertex 53.1363 1.03528 2.5
      vertex 53.3045 1.53073 -2.5
      vertex 53.3045 1.53073 2.5
    endloop
  endfacet
  facet normal 0.94692 -0.321469 0
    outer loop
      vertex 53.3045 1.53073 -2.5
      vertex 53.1363 1.03528 2.5
      vertex 53.1363 1.03528 -2.5
    endloop
  endfacet
  facet normal -0.0654027 -0.997859 0
    outer loop
      vertex 57 4 -2.5
      vertex 57.5221 3.96578 2.5
      vertex 57 4 2.5
    endloop
  endfacet
  facet normal -0.0654027 -0.997859 -0
    outer loop
      vertex 57.5221 3.96578 2.5
      vertex 57 4 -2.5
      vertex 57.5221 3.96578 -2.5
    endloop
  endfacet
  facet normal 0.831462 0.555582 0
    outer loop
      vertex 53.8266 -2.43505 2.5
      vertex 53.5359 -2 -2.5
      vertex 53.5359 -2 2.5
    endloop
  endfacet
  facet normal 0.831462 0.555582 0
    outer loop
      vertex 53.5359 -2 -2.5
      vertex 53.8266 -2.43505 2.5
      vertex 53.8266 -2.43505 -2.5
    endloop
  endfacet
  facet normal 0.751826 -0.659362 0
    outer loop
      vertex 53.8266 2.43505 2.5
      vertex 54.1716 2.82843 -2.5
      vertex 54.1716 2.82843 2.5
    endloop
  endfacet
  facet normal 0.751826 -0.659362 0
    outer loop
      vertex 54.1716 2.82843 -2.5
      vertex 53.8266 2.43505 2.5
      vertex 53.8266 2.43505 -2.5
    endloop
  endfacet
  facet normal 0.0654027 -0.997859 0
    outer loop
      vertex 56.4779 3.96578 -2.5
      vertex 57 4 2.5
      vertex 56.4779 3.96578 2.5
    endloop
  endfacet
  facet normal 0.0654027 -0.997859 0
    outer loop
      vertex 57 4 2.5
      vertex 56.4779 3.96578 -2.5
      vertex 57 4 -2.5
    endloop
  endfacet
  facet normal -0.442268 -0.896883 0
    outer loop
      vertex 58.5307 3.69552 -2.5
      vertex 59 3.4641 2.5
      vertex 58.5307 3.69552 2.5
    endloop
  endfacet
  facet normal -0.442268 -0.896883 -0
    outer loop
      vertex 59 3.4641 2.5
      vertex 58.5307 3.69552 -2.5
      vertex 59 3.4641 -2.5
    endloop
  endfacet
  facet normal 0.980777 0.195133 0
    outer loop
      vertex 53.1363 -1.03528 2.5
      vertex 53.0342 -0.522104 -2.5
      vertex 53.0342 -0.522104 2.5
    endloop
  endfacet
  facet normal 0.980777 0.195133 0
    outer loop
      vertex 53.0342 -0.522104 -2.5
      vertex 53.1363 -1.03528 2.5
      vertex 53.1363 -1.03528 -2.5
    endloop
  endfacet
  facet normal 0.321464 0.946922 -0
    outer loop
      vertex 55.9647 -3.8637 -2.5
      vertex 55.4693 -3.69552 2.5
      vertex 55.9647 -3.8637 2.5
    endloop
  endfacet
  facet normal 0.321464 0.946922 0
    outer loop
      vertex 55.4693 -3.69552 2.5
      vertex 55.9647 -3.8637 -2.5
      vertex 55.4693 -3.69552 -2.5
    endloop
  endfacet
  facet normal -0.195087 -0.980786 0
    outer loop
      vertex 57.5221 3.96578 -2.5
      vertex 58.0353 3.8637 2.5
      vertex 57.5221 3.96578 2.5
    endloop
  endfacet
  facet normal -0.195087 -0.980786 -0
    outer loop
      vertex 58.0353 3.8637 2.5
      vertex 57.5221 3.96578 -2.5
      vertex 58.0353 3.8637 -2.5
    endloop
  endfacet
  facet normal 0.442268 0.896883 -0
    outer loop
      vertex 55.4693 -3.69552 -2.5
      vertex 55 -3.4641 2.5
      vertex 55.4693 -3.69552 2.5
    endloop
  endfacet
  facet normal 0.442268 0.896883 0
    outer loop
      vertex 55 -3.4641 2.5
      vertex 55.4693 -3.69552 -2.5
      vertex 55 -3.4641 -2.5
    endloop
  endfacet
  facet normal 0.659321 0.751861 -0
    outer loop
      vertex 54.565 -3.17341 -2.5
      vertex 54.1716 -2.82843 2.5
      vertex 54.565 -3.17341 2.5
    endloop
  endfacet
  facet normal 0.659321 0.751861 0
    outer loop
      vertex 54.1716 -2.82843 2.5
      vertex 54.565 -3.17341 -2.5
      vertex 54.1716 -2.82843 -2.5
    endloop
  endfacet
  facet normal 0.751826 0.659362 0
    outer loop
      vertex 54.1716 -2.82843 2.5
      vertex 53.8266 -2.43505 -2.5
      vertex 53.8266 -2.43505 2.5
    endloop
  endfacet
  facet normal 0.751826 0.659362 0
    outer loop
      vertex 53.8266 -2.43505 -2.5
      vertex 54.1716 -2.82843 2.5
      vertex 54.1716 -2.82843 -2.5
    endloop
  endfacet
  facet normal -0.0654027 0.997859 0
    outer loop
      vertex 57.5221 -3.96578 -2.5
      vertex 57 -4 2.5
      vertex 57.5221 -3.96578 2.5
    endloop
  endfacet
  facet normal -0.0654027 0.997859 0
    outer loop
      vertex 57 -4 2.5
      vertex 57.5221 -3.96578 -2.5
      vertex 57 -4 -2.5
    endloop
  endfacet
  facet normal 0.555613 0.831441 -0
    outer loop
      vertex 55 -3.4641 -2.5
      vertex 54.565 -3.17341 2.5
      vertex 55 -3.4641 2.5
    endloop
  endfacet
  facet normal 0.555613 0.831441 0
    outer loop
      vertex 54.565 -3.17341 2.5
      vertex 55 -3.4641 -2.5
      vertex 54.565 -3.17341 -2.5
    endloop
  endfacet
  facet normal 0.831462 -0.555582 0
    outer loop
      vertex 53.5359 2 2.5
      vertex 53.8266 2.43505 -2.5
      vertex 53.8266 2.43505 2.5
    endloop
  endfacet
  facet normal 0.831462 -0.555582 0
    outer loop
      vertex 53.8266 2.43505 -2.5
      vertex 53.5359 2 2.5
      vertex 53.5359 2 -2.5
    endloop
  endfacet
  facet normal 0.997861 0.0653641 0
    outer loop
      vertex 53.0342 -0.522104 2.5
      vertex 53 0 -2.5
      vertex 53 0 2.5
    endloop
  endfacet
  facet normal 0.997861 0.0653641 0
    outer loop
      vertex 53 0 -2.5
      vertex 53.0342 -0.522104 2.5
      vertex 53.0342 -0.522104 -2.5
    endloop
  endfacet
  facet normal -0.659321 0.751861 0
    outer loop
      vertex 59.8284 -2.82843 -2.5
      vertex 59.435 -3.17341 2.5
      vertex 59.8284 -2.82843 2.5
    endloop
  endfacet
  facet normal -0.659321 0.751861 0
    outer loop
      vertex 59.435 -3.17341 2.5
      vertex 59.8284 -2.82843 -2.5
      vertex 59.435 -3.17341 -2.5
    endloop
  endfacet
  facet normal -0.0653646 0.997861 0
    outer loop
      vertex -27.9779 41.0675 -2.5
      vertex -28.5 41.0333 2.5
      vertex -27.9779 41.0675 2.5
    endloop
  endfacet
  facet normal -0.0653646 0.997861 0
    outer loop
      vertex -28.5 41.0333 2.5
      vertex -27.9779 41.0675 -2.5
      vertex -28.5 41.0333 -2.5
    endloop
  endfacet
  facet normal -0.980779 -0.195124 0
    outer loop
      vertex -24.5342 45.5554 -2.5
      vertex -24.6363 46.0686 2.5
      vertex -24.6363 46.0686 -2.5
    endloop
  endfacet
  facet normal -0.980779 -0.195124 0
    outer loop
      vertex -24.6363 46.0686 2.5
      vertex -24.5342 45.5554 -2.5
      vertex -24.5342 45.5554 2.5
    endloop
  endfacet
  facet normal -0.997861 -0.0653646 0
    outer loop
      vertex -24.5 45.0333 -2.5
      vertex -24.5342 45.5554 2.5
      vertex -24.5342 45.5554 -2.5
    endloop
  endfacet
  facet normal -0.997861 -0.0653646 0
    outer loop
      vertex -24.5342 45.5554 2.5
      vertex -24.5 45.0333 -2.5
      vertex -24.5 45.0333 2.5
    endloop
  endfacet
  facet normal -0.94693 -0.32144 0
    outer loop
      vertex -24.6363 46.0686 -2.5
      vertex -24.8045 46.5641 2.5
      vertex -24.8045 46.5641 -2.5
    endloop
  endfacet
  facet normal -0.94693 -0.32144 0
    outer loop
      vertex -24.8045 46.5641 2.5
      vertex -24.6363 46.0686 -2.5
      vertex -24.6363 46.0686 2.5
    endloop
  endfacet
  facet normal 0.751759 -0.659438 0
    outer loop
      vertex -31.6734 47.4684 2.5
      vertex -31.3284 47.8617 -2.5
      vertex -31.3284 47.8617 2.5
    endloop
  endfacet
  facet normal 0.751759 -0.659438 0
    outer loop
      vertex -31.3284 47.8617 -2.5
      vertex -31.6734 47.4684 2.5
      vertex -31.6734 47.4684 -2.5
    endloop
  endfacet
  facet normal 0.997861 0.0653646 0
    outer loop
      vertex -32.4658 44.5112 2.5
      vertex -32.5 45.0333 -2.5
      vertex -32.5 45.0333 2.5
    endloop
  endfacet
  facet normal 0.997861 0.0653646 0
    outer loop
      vertex -32.5 45.0333 -2.5
      vertex -32.4658 44.5112 2.5
      vertex -32.4658 44.5112 -2.5
    endloop
  endfacet
  facet normal 0.659343 -0.751842 0
    outer loop
      vertex -31.3284 47.8617 -2.5
      vertex -30.935 48.2067 2.5
      vertex -31.3284 47.8617 2.5
    endloop
  endfacet
  facet normal 0.659343 -0.751842 0
    outer loop
      vertex -30.935 48.2067 2.5
      vertex -31.3284 47.8617 -2.5
      vertex -30.935 48.2067 -2.5
    endloop
  endfacet
  facet normal 0.555626 -0.831432 0
    outer loop
      vertex -30.935 48.2067 -2.5
      vertex -30.5 48.4974 2.5
      vertex -30.935 48.2067 2.5
    endloop
  endfacet
  facet normal 0.555626 -0.831432 0
    outer loop
      vertex -30.5 48.4974 2.5
      vertex -30.935 48.2067 -2.5
      vertex -30.5 48.4974 -2.5
    endloop
  endfacet
  facet normal -0.555626 -0.831432 0
    outer loop
      vertex -26.5 48.4974 -2.5
      vertex -26.065 48.2067 2.5
      vertex -26.5 48.4974 2.5
    endloop
  endfacet
  facet normal -0.555626 -0.831432 -0
    outer loop
      vertex -26.065 48.2067 2.5
      vertex -26.5 48.4974 -2.5
      vertex -26.065 48.2067 -2.5
    endloop
  endfacet
  facet normal -0.980779 0.195124 0
    outer loop
      vertex -24.6363 43.998 -2.5
      vertex -24.5342 44.5112 2.5
      vertex -24.5342 44.5112 -2.5
    endloop
  endfacet
  facet normal -0.980779 0.195124 0
    outer loop
      vertex -24.5342 44.5112 2.5
      vertex -24.6363 43.998 -2.5
      vertex -24.6363 43.998 2.5
    endloop
  endfacet
  facet normal 0.195124 0.980779 -0
    outer loop
      vertex -29.0221 41.0675 -2.5
      vertex -29.5353 41.1696 2.5
      vertex -29.0221 41.0675 2.5
    endloop
  endfacet
  facet normal 0.195124 0.980779 0
    outer loop
      vertex -29.5353 41.1696 2.5
      vertex -29.0221 41.0675 -2.5
      vertex -29.5353 41.1696 -2.5
    endloop
  endfacet
  facet normal 0.94691 0.321498 0
    outer loop
      vertex -32.1955 43.5026 2.5
      vertex -32.3637 43.998 -2.5
      vertex -32.3637 43.998 2.5
    endloop
  endfacet
  facet normal 0.94691 0.321498 0
    outer loop
      vertex -32.3637 43.998 -2.5
      vertex -32.1955 43.5026 2.5
      vertex -32.1955 43.5026 -2.5
    endloop
  endfacet
  facet normal -0.321498 -0.94691 0
    outer loop
      vertex -27.4647 48.897 -2.5
      vertex -26.9693 48.7288 2.5
      vertex -27.4647 48.897 2.5
    endloop
  endfacet
  facet normal -0.321498 -0.94691 -0
    outer loop
      vertex -26.9693 48.7288 2.5
      vertex -27.4647 48.897 -2.5
      vertex -26.9693 48.7288 -2.5
    endloop
  endfacet
  facet normal -0.94691 0.321498 0
    outer loop
      vertex -24.8045 43.5026 -2.5
      vertex -24.6363 43.998 2.5
      vertex -24.6363 43.998 -2.5
    endloop
  endfacet
  facet normal -0.94691 0.321498 0
    outer loop
      vertex -24.6363 43.998 2.5
      vertex -24.8045 43.5026 -2.5
      vertex -24.8045 43.5026 2.5
    endloop
  endfacet
  facet normal -0.831491 -0.555538 0
    outer loop
      vertex -25.0359 47.0333 -2.5
      vertex -25.3266 47.4684 2.5
      vertex -25.3266 47.4684 -2.5
    endloop
  endfacet
  facet normal -0.831491 -0.555538 0
    outer loop
      vertex -25.3266 47.4684 2.5
      vertex -25.0359 47.0333 -2.5
      vertex -25.0359 47.0333 2.5
    endloop
  endfacet
  facet normal -0.89686 -0.442314 0
    outer loop
      vertex -24.8045 46.5641 -2.5
      vertex -25.0359 47.0333 2.5
      vertex -25.0359 47.0333 -2.5
    endloop
  endfacet
  facet normal -0.89686 -0.442314 0
    outer loop
      vertex -25.0359 47.0333 2.5
      vertex -24.8045 46.5641 -2.5
      vertex -24.8045 46.5641 2.5
    endloop
  endfacet
  facet normal -0.0653646 -0.997861 0
    outer loop
      vertex -28.5 49.0333 -2.5
      vertex -27.9779 48.9991 2.5
      vertex -28.5 49.0333 2.5
    endloop
  endfacet
  facet normal -0.0653646 -0.997861 -0
    outer loop
      vertex -27.9779 48.9991 2.5
      vertex -28.5 49.0333 -2.5
      vertex -27.9779 48.9991 -2.5
    endloop
  endfacet
  facet normal 0.0653646 0.997861 -0
    outer loop
      vertex -28.5 41.0333 -2.5
      vertex -29.0221 41.0675 2.5
      vertex -28.5 41.0333 2.5
    endloop
  endfacet
  facet normal 0.0653646 0.997861 0
    outer loop
      vertex -29.0221 41.0675 2.5
      vertex -28.5 41.0333 -2.5
      vertex -29.0221 41.0675 -2.5
    endloop
  endfacet
  facet normal -0.751759 -0.659438 0
    outer loop
      vertex -25.3266 47.4684 -2.5
      vertex -25.6716 47.8617 2.5
      vertex -25.6716 47.8617 -2.5
    endloop
  endfacet
  facet normal -0.751759 -0.659438 0
    outer loop
      vertex -25.6716 47.8617 2.5
      vertex -25.3266 47.4684 -2.5
      vertex -25.3266 47.4684 2.5
    endloop
  endfacet
  facet normal 0.751842 0.659343 0
    outer loop
      vertex -31.3284 42.2049 2.5
      vertex -31.6734 42.5983 -2.5
      vertex -31.6734 42.5983 2.5
    endloop
  endfacet
  facet normal 0.751842 0.659343 0
    outer loop
      vertex -31.6734 42.5983 -2.5
      vertex -31.3284 42.2049 2.5
      vertex -31.3284 42.2049 -2.5
    endloop
  endfacet
  facet normal 0.980779 -0.195124 0
    outer loop
      vertex -32.4658 45.5554 2.5
      vertex -32.3637 46.0686 -2.5
      vertex -32.3637 46.0686 2.5
    endloop
  endfacet
  facet normal 0.980779 -0.195124 0
    outer loop
      vertex -32.3637 46.0686 -2.5
      vertex -32.4658 45.5554 2.5
      vertex -32.4658 45.5554 -2.5
    endloop
  endfacet
  facet normal 0.442238 -0.896898 0
    outer loop
      vertex -30.5 48.4974 -2.5
      vertex -30.0307 48.7288 2.5
      vertex -30.5 48.4974 2.5
    endloop
  endfacet
  facet normal 0.442238 -0.896898 0
    outer loop
      vertex -30.0307 48.7288 2.5
      vertex -30.5 48.4974 -2.5
      vertex -30.0307 48.7288 -2.5
    endloop
  endfacet
  facet normal 0.89686 -0.442314 0
    outer loop
      vertex -32.1955 46.5641 2.5
      vertex -31.9641 47.0333 -2.5
      vertex -31.9641 47.0333 2.5
    endloop
  endfacet
  facet normal 0.89686 -0.442314 0
    outer loop
      vertex -31.9641 47.0333 -2.5
      vertex -32.1955 46.5641 2.5
      vertex -32.1955 46.5641 -2.5
    endloop
  endfacet
  facet normal 0.94693 -0.32144 0
    outer loop
      vertex -32.3637 46.0686 2.5
      vertex -32.1955 46.5641 -2.5
      vertex -32.1955 46.5641 2.5
    endloop
  endfacet
  facet normal 0.94693 -0.32144 0
    outer loop
      vertex -32.1955 46.5641 -2.5
      vertex -32.3637 46.0686 2.5
      vertex -32.3637 46.0686 -2.5
    endloop
  endfacet
  facet normal -0.896898 0.442238 0
    outer loop
      vertex -25.0359 43.0333 -2.5
      vertex -24.8045 43.5026 2.5
      vertex -24.8045 43.5026 -2.5
    endloop
  endfacet
  facet normal -0.896898 0.442238 0
    outer loop
      vertex -24.8045 43.5026 2.5
      vertex -25.0359 43.0333 -2.5
      vertex -25.0359 43.0333 2.5
    endloop
  endfacet
  facet normal -0.997861 0.0653646 0
    outer loop
      vertex -24.5342 44.5112 -2.5
      vertex -24.5 45.0333 2.5
      vertex -24.5 45.0333 -2.5
    endloop
  endfacet
  facet normal -0.997861 0.0653646 0
    outer loop
      vertex -24.5 45.0333 2.5
      vertex -24.5342 44.5112 -2.5
      vertex -24.5342 44.5112 2.5
    endloop
  endfacet
  facet normal 0.555626 0.831432 -0
    outer loop
      vertex -30.5 41.5692 -2.5
      vertex -30.935 41.8599 2.5
      vertex -30.5 41.5692 2.5
    endloop
  endfacet
  facet normal 0.555626 0.831432 0
    outer loop
      vertex -30.935 41.8599 2.5
      vertex -30.5 41.5692 -2.5
      vertex -30.935 41.8599 -2.5
    endloop
  endfacet
  facet normal 0.195124 -0.980779 0
    outer loop
      vertex -29.5353 48.897 -2.5
      vertex -29.0221 48.9991 2.5
      vertex -29.5353 48.897 2.5
    endloop
  endfacet
  facet normal 0.195124 -0.980779 0
    outer loop
      vertex -29.0221 48.9991 2.5
      vertex -29.5353 48.897 -2.5
      vertex -29.0221 48.9991 -2.5
    endloop
  endfacet
  facet normal 0.831432 0.555626 0
    outer loop
      vertex -31.6734 42.5983 2.5
      vertex -31.9641 43.0333 -2.5
      vertex -31.9641 43.0333 2.5
    endloop
  endfacet
  facet normal 0.831432 0.555626 0
    outer loop
      vertex -31.9641 43.0333 -2.5
      vertex -31.6734 42.5983 2.5
      vertex -31.6734 42.5983 -2.5
    endloop
  endfacet
  facet normal -0.751842 0.659343 0
    outer loop
      vertex -25.6716 42.2049 -2.5
      vertex -25.3266 42.5983 2.5
      vertex -25.3266 42.5983 -2.5
    endloop
  endfacet
  facet normal -0.751842 0.659343 0
    outer loop
      vertex -25.3266 42.5983 2.5
      vertex -25.6716 42.2049 -2.5
      vertex -25.6716 42.2049 2.5
    endloop
  endfacet
  facet normal 0.321498 -0.94691 0
    outer loop
      vertex -30.0307 48.7288 -2.5
      vertex -29.5353 48.897 2.5
      vertex -30.0307 48.7288 2.5
    endloop
  endfacet
  facet normal 0.321498 -0.94691 0
    outer loop
      vertex -29.5353 48.897 2.5
      vertex -30.0307 48.7288 -2.5
      vertex -29.5353 48.897 -2.5
    endloop
  endfacet
  facet normal 0.980779 0.195124 0
    outer loop
      vertex -32.3637 43.998 2.5
      vertex -32.4658 44.5112 -2.5
      vertex -32.4658 44.5112 2.5
    endloop
  endfacet
  facet normal 0.980779 0.195124 0
    outer loop
      vertex -32.4658 44.5112 -2.5
      vertex -32.3637 43.998 2.5
      vertex -32.3637 43.998 -2.5
    endloop
  endfacet
  facet normal 0.321498 0.94691 -0
    outer loop
      vertex -29.5353 41.1696 -2.5
      vertex -30.0307 41.3378 2.5
      vertex -29.5353 41.1696 2.5
    endloop
  endfacet
  facet normal 0.321498 0.94691 0
    outer loop
      vertex -30.0307 41.3378 2.5
      vertex -29.5353 41.1696 -2.5
      vertex -30.0307 41.3378 -2.5
    endloop
  endfacet
  facet normal 0.997861 -0.0653646 0
    outer loop
      vertex -32.5 45.0333 2.5
      vertex -32.4658 45.5554 -2.5
      vertex -32.4658 45.5554 2.5
    endloop
  endfacet
  facet normal 0.997861 -0.0653646 0
    outer loop
      vertex -32.4658 45.5554 -2.5
      vertex -32.5 45.0333 2.5
      vertex -32.5 45.0333 -2.5
    endloop
  endfacet
  facet normal -0.442238 0.896898 0
    outer loop
      vertex -26.5 41.5692 -2.5
      vertex -26.9693 41.3378 2.5
      vertex -26.5 41.5692 2.5
    endloop
  endfacet
  facet normal -0.442238 0.896898 0
    outer loop
      vertex -26.9693 41.3378 2.5
      vertex -26.5 41.5692 -2.5
      vertex -26.9693 41.3378 -2.5
    endloop
  endfacet
  facet normal -0.195124 -0.980779 0
    outer loop
      vertex -27.9779 48.9991 -2.5
      vertex -27.4647 48.897 2.5
      vertex -27.9779 48.9991 2.5
    endloop
  endfacet
  facet normal -0.195124 -0.980779 -0
    outer loop
      vertex -27.4647 48.897 2.5
      vertex -27.9779 48.9991 -2.5
      vertex -27.4647 48.897 -2.5
    endloop
  endfacet
  facet normal -0.659343 0.751842 0
    outer loop
      vertex -25.6716 42.2049 -2.5
      vertex -26.065 41.8599 2.5
      vertex -25.6716 42.2049 2.5
    endloop
  endfacet
  facet normal -0.659343 0.751842 0
    outer loop
      vertex -26.065 41.8599 2.5
      vertex -25.6716 42.2049 -2.5
      vertex -26.065 41.8599 -2.5
    endloop
  endfacet
  facet normal -0.442238 -0.896898 0
    outer loop
      vertex -26.9693 48.7288 -2.5
      vertex -26.5 48.4974 2.5
      vertex -26.9693 48.7288 2.5
    endloop
  endfacet
  facet normal -0.442238 -0.896898 -0
    outer loop
      vertex -26.5 48.4974 2.5
      vertex -26.9693 48.7288 -2.5
      vertex -26.5 48.4974 -2.5
    endloop
  endfacet
  facet normal -0.831432 0.555626 0
    outer loop
      vertex -25.3266 42.5983 -2.5
      vertex -25.0359 43.0333 2.5
      vertex -25.0359 43.0333 -2.5
    endloop
  endfacet
  facet normal -0.831432 0.555626 0
    outer loop
      vertex -25.0359 43.0333 2.5
      vertex -25.3266 42.5983 -2.5
      vertex -25.3266 42.5983 2.5
    endloop
  endfacet
  facet normal 0.659343 0.751842 -0
    outer loop
      vertex -30.935 41.8599 -2.5
      vertex -31.3284 42.2049 2.5
      vertex -30.935 41.8599 2.5
    endloop
  endfacet
  facet normal 0.659343 0.751842 0
    outer loop
      vertex -31.3284 42.2049 2.5
      vertex -30.935 41.8599 -2.5
      vertex -31.3284 42.2049 -2.5
    endloop
  endfacet
  facet normal -0.659343 -0.751842 0
    outer loop
      vertex -26.065 48.2067 -2.5
      vertex -25.6716 47.8617 2.5
      vertex -26.065 48.2067 2.5
    endloop
  endfacet
  facet normal -0.659343 -0.751842 -0
    outer loop
      vertex -25.6716 47.8617 2.5
      vertex -26.065 48.2067 -2.5
      vertex -25.6716 47.8617 -2.5
    endloop
  endfacet
  facet normal 0.0653646 -0.997861 0
    outer loop
      vertex -29.0221 48.9991 -2.5
      vertex -28.5 49.0333 2.5
      vertex -29.0221 48.9991 2.5
    endloop
  endfacet
  facet normal 0.0653646 -0.997861 0
    outer loop
      vertex -28.5 49.0333 2.5
      vertex -29.0221 48.9991 -2.5
      vertex -28.5 49.0333 -2.5
    endloop
  endfacet
  facet normal -0.321498 0.94691 0
    outer loop
      vertex -26.9693 41.3378 -2.5
      vertex -27.4647 41.1696 2.5
      vertex -26.9693 41.3378 2.5
    endloop
  endfacet
  facet normal -0.321498 0.94691 0
    outer loop
      vertex -27.4647 41.1696 2.5
      vertex -26.9693 41.3378 -2.5
      vertex -27.4647 41.1696 -2.5
    endloop
  endfacet
  facet normal -0.195124 0.980779 0
    outer loop
      vertex -27.4647 41.1696 -2.5
      vertex -27.9779 41.0675 2.5
      vertex -27.4647 41.1696 2.5
    endloop
  endfacet
  facet normal -0.195124 0.980779 0
    outer loop
      vertex -27.9779 41.0675 2.5
      vertex -27.4647 41.1696 -2.5
      vertex -27.9779 41.0675 -2.5
    endloop
  endfacet
  facet normal 0.896898 0.442238 0
    outer loop
      vertex -31.9641 43.0333 2.5
      vertex -32.1955 43.5026 -2.5
      vertex -32.1955 43.5026 2.5
    endloop
  endfacet
  facet normal 0.896898 0.442238 0
    outer loop
      vertex -32.1955 43.5026 -2.5
      vertex -31.9641 43.0333 2.5
      vertex -31.9641 43.0333 -2.5
    endloop
  endfacet
  facet normal 0.442238 0.896898 -0
    outer loop
      vertex -30.0307 41.3378 -2.5
      vertex -30.5 41.5692 2.5
      vertex -30.0307 41.3378 2.5
    endloop
  endfacet
  facet normal 0.442238 0.896898 0
    outer loop
      vertex -30.5 41.5692 2.5
      vertex -30.0307 41.3378 -2.5
      vertex -30.5 41.5692 -2.5
    endloop
  endfacet
  facet normal -0.555626 0.831432 0
    outer loop
      vertex -26.065 41.8599 -2.5
      vertex -26.5 41.5692 2.5
      vertex -26.065 41.8599 2.5
    endloop
  endfacet
  facet normal -0.555626 0.831432 0
    outer loop
      vertex -26.5 41.5692 2.5
      vertex -26.065 41.8599 -2.5
      vertex -26.5 41.5692 -2.5
    endloop
  endfacet
  facet normal 0.831491 -0.555538 0
    outer loop
      vertex -31.9641 47.0333 2.5
      vertex -31.6734 47.4684 -2.5
      vertex -31.6734 47.4684 2.5
    endloop
  endfacet
  facet normal 0.831491 -0.555538 0
    outer loop
      vertex -31.6734 47.4684 -2.5
      vertex -31.9641 47.0333 2.5
      vertex -31.9641 47.0333 -2.5
    endloop
  endfacet
  facet normal -0.980779 -0.195124 0
    outer loop
      vertex -24.5342 -44.5112 -2.5
      vertex -24.6363 -43.998 2.5
      vertex -24.6363 -43.998 -2.5
    endloop
  endfacet
  facet normal -0.980779 -0.195124 0
    outer loop
      vertex -24.6363 -43.998 2.5
      vertex -24.5342 -44.5112 -2.5
      vertex -24.5342 -44.5112 2.5
    endloop
  endfacet
  facet normal -0.997861 -0.0653646 0
    outer loop
      vertex -24.5 -45.0333 -2.5
      vertex -24.5342 -44.5112 2.5
      vertex -24.5342 -44.5112 -2.5
    endloop
  endfacet
  facet normal -0.997861 -0.0653646 0
    outer loop
      vertex -24.5342 -44.5112 2.5
      vertex -24.5 -45.0333 -2.5
      vertex -24.5 -45.0333 2.5
    endloop
  endfacet
  facet normal -0.94691 -0.321498 0
    outer loop
      vertex -24.6363 -43.998 -2.5
      vertex -24.8045 -43.5026 2.5
      vertex -24.8045 -43.5026 -2.5
    endloop
  endfacet
  facet normal -0.94691 -0.321498 0
    outer loop
      vertex -24.8045 -43.5026 2.5
      vertex -24.6363 -43.998 -2.5
      vertex -24.6363 -43.998 2.5
    endloop
  endfacet
  facet normal -0.0653646 0.997861 0
    outer loop
      vertex -27.9779 -48.9991 -2.5
      vertex -28.5 -49.0333 2.5
      vertex -27.9779 -48.9991 2.5
    endloop
  endfacet
  facet normal -0.0653646 0.997861 0
    outer loop
      vertex -28.5 -49.0333 2.5
      vertex -27.9779 -48.9991 -2.5
      vertex -28.5 -49.0333 -2.5
    endloop
  endfacet
  facet normal -0.831432 -0.555626 0
    outer loop
      vertex -25.0359 -43.0333 -2.5
      vertex -25.3266 -42.5983 2.5
      vertex -25.3266 -42.5983 -2.5
    endloop
  endfacet
  facet normal -0.831432 -0.555626 0
    outer loop
      vertex -25.3266 -42.5983 2.5
      vertex -25.0359 -43.0333 -2.5
      vertex -25.0359 -43.0333 2.5
    endloop
  endfacet
  facet normal 0.980779 0.195124 0
    outer loop
      vertex -32.3637 -46.0686 2.5
      vertex -32.4658 -45.5554 -2.5
      vertex -32.4658 -45.5554 2.5
    endloop
  endfacet
  facet normal 0.980779 0.195124 0
    outer loop
      vertex -32.4658 -45.5554 -2.5
      vertex -32.3637 -46.0686 2.5
      vertex -32.3637 -46.0686 -2.5
    endloop
  endfacet
  facet normal 0.555626 -0.831432 0
    outer loop
      vertex -30.935 -41.8599 -2.5
      vertex -30.5 -41.5692 2.5
      vertex -30.935 -41.8599 2.5
    endloop
  endfacet
  facet normal 0.555626 -0.831432 0
    outer loop
      vertex -30.5 -41.5692 2.5
      vertex -30.935 -41.8599 -2.5
      vertex -30.5 -41.5692 -2.5
    endloop
  endfacet
  facet normal -0.442238 0.896898 0
    outer loop
      vertex -26.5 -48.4974 -2.5
      vertex -26.9693 -48.7288 2.5
      vertex -26.5 -48.4974 2.5
    endloop
  endfacet
  facet normal -0.442238 0.896898 0
    outer loop
      vertex -26.9693 -48.7288 2.5
      vertex -26.5 -48.4974 -2.5
      vertex -26.9693 -48.7288 -2.5
    endloop
  endfacet
  facet normal 0.980779 -0.195124 0
    outer loop
      vertex -32.4658 -44.5112 2.5
      vertex -32.3637 -43.998 -2.5
      vertex -32.3637 -43.998 2.5
    endloop
  endfacet
  facet normal 0.980779 -0.195124 0
    outer loop
      vertex -32.3637 -43.998 -2.5
      vertex -32.4658 -44.5112 2.5
      vertex -32.4658 -44.5112 -2.5
    endloop
  endfacet
  facet normal -0.980779 0.195124 0
    outer loop
      vertex -24.6363 -46.0686 -2.5
      vertex -24.5342 -45.5554 2.5
      vertex -24.5342 -45.5554 -2.5
    endloop
  endfacet
  facet normal -0.980779 0.195124 0
    outer loop
      vertex -24.5342 -45.5554 2.5
      vertex -24.6363 -46.0686 -2.5
      vertex -24.6363 -46.0686 2.5
    endloop
  endfacet
  facet normal 0.442238 -0.896898 0
    outer loop
      vertex -30.5 -41.5692 -2.5
      vertex -30.0307 -41.3378 2.5
      vertex -30.5 -41.5692 2.5
    endloop
  endfacet
  facet normal 0.442238 -0.896898 0
    outer loop
      vertex -30.0307 -41.3378 2.5
      vertex -30.5 -41.5692 -2.5
      vertex -30.0307 -41.3378 -2.5
    endloop
  endfacet
  facet normal -0.751842 -0.659343 0
    outer loop
      vertex -25.3266 -42.5983 -2.5
      vertex -25.6716 -42.2049 2.5
      vertex -25.6716 -42.2049 -2.5
    endloop
  endfacet
  facet normal -0.751842 -0.659343 0
    outer loop
      vertex -25.6716 -42.2049 2.5
      vertex -25.3266 -42.5983 -2.5
      vertex -25.3266 -42.5983 2.5
    endloop
  endfacet
  facet normal -0.442238 -0.896898 0
    outer loop
      vertex -26.9693 -41.3378 -2.5
      vertex -26.5 -41.5692 2.5
      vertex -26.9693 -41.3378 2.5
    endloop
  endfacet
  facet normal -0.442238 -0.896898 -0
    outer loop
      vertex -26.5 -41.5692 2.5
      vertex -26.9693 -41.3378 -2.5
      vertex -26.5 -41.5692 -2.5
    endloop
  endfacet
  facet normal -0.94693 0.32144 0
    outer loop
      vertex -24.8045 -46.5641 -2.5
      vertex -24.6363 -46.0686 2.5
      vertex -24.6363 -46.0686 -2.5
    endloop
  endfacet
  facet normal -0.94693 0.32144 0
    outer loop
      vertex -24.6363 -46.0686 2.5
      vertex -24.8045 -46.5641 -2.5
      vertex -24.8045 -46.5641 2.5
    endloop
  endfacet
  facet normal -0.321498 0.94691 0
    outer loop
      vertex -26.9693 -48.7288 -2.5
      vertex -27.4647 -48.897 2.5
      vertex -26.9693 -48.7288 2.5
    endloop
  endfacet
  facet normal -0.321498 0.94691 0
    outer loop
      vertex -27.4647 -48.897 2.5
      vertex -26.9693 -48.7288 -2.5
      vertex -27.4647 -48.897 -2.5
    endloop
  endfacet
  facet normal 0.659343 -0.751842 0
    outer loop
      vertex -31.3284 -42.2049 -2.5
      vertex -30.935 -41.8599 2.5
      vertex -31.3284 -42.2049 2.5
    endloop
  endfacet
  facet normal 0.659343 -0.751842 0
    outer loop
      vertex -30.935 -41.8599 2.5
      vertex -31.3284 -42.2049 -2.5
      vertex -30.935 -41.8599 -2.5
    endloop
  endfacet
  facet normal -0.896898 -0.442238 0
    outer loop
      vertex -24.8045 -43.5026 -2.5
      vertex -25.0359 -43.0333 2.5
      vertex -25.0359 -43.0333 -2.5
    endloop
  endfacet
  facet normal -0.896898 -0.442238 0
    outer loop
      vertex -25.0359 -43.0333 2.5
      vertex -24.8045 -43.5026 -2.5
      vertex -24.8045 -43.5026 2.5
    endloop
  endfacet
  facet normal -0.195124 0.980779 0
    outer loop
      vertex -27.4647 -48.897 -2.5
      vertex -27.9779 -48.9991 2.5
      vertex -27.4647 -48.897 2.5
    endloop
  endfacet
  facet normal -0.195124 0.980779 0
    outer loop
      vertex -27.9779 -48.9991 2.5
      vertex -27.4647 -48.897 -2.5
      vertex -27.9779 -48.9991 -2.5
    endloop
  endfacet
  facet normal -0.751759 0.659438 0
    outer loop
      vertex -25.6716 -47.8617 -2.5
      vertex -25.3266 -47.4684 2.5
      vertex -25.3266 -47.4684 -2.5
    endloop
  endfacet
  facet normal -0.751759 0.659438 0
    outer loop
      vertex -25.3266 -47.4684 2.5
      vertex -25.6716 -47.8617 -2.5
      vertex -25.6716 -47.8617 2.5
    endloop
  endfacet
  facet normal -0.659343 -0.751842 0
    outer loop
      vertex -26.065 -41.8599 -2.5
      vertex -25.6716 -42.2049 2.5
      vertex -26.065 -41.8599 2.5
    endloop
  endfacet
  facet normal -0.659343 -0.751842 -0
    outer loop
      vertex -25.6716 -42.2049 2.5
      vertex -26.065 -41.8599 -2.5
      vertex -25.6716 -42.2049 -2.5
    endloop
  endfacet
  facet normal -0.555626 0.831432 0
    outer loop
      vertex -26.065 -48.2067 -2.5
      vertex -26.5 -48.4974 2.5
      vertex -26.065 -48.2067 2.5
    endloop
  endfacet
  facet normal -0.555626 0.831432 0
    outer loop
      vertex -26.5 -48.4974 2.5
      vertex -26.065 -48.2067 -2.5
      vertex -26.5 -48.4974 -2.5
    endloop
  endfacet
  facet normal 0.751759 0.659438 0
    outer loop
      vertex -31.3284 -47.8617 2.5
      vertex -31.6734 -47.4684 -2.5
      vertex -31.6734 -47.4684 2.5
    endloop
  endfacet
  facet normal 0.751759 0.659438 0
    outer loop
      vertex -31.6734 -47.4684 -2.5
      vertex -31.3284 -47.8617 2.5
      vertex -31.3284 -47.8617 -2.5
    endloop
  endfacet
  facet normal 0.831491 0.555538 0
    outer loop
      vertex -31.6734 -47.4684 2.5
      vertex -31.9641 -47.0333 -2.5
      vertex -31.9641 -47.0333 2.5
    endloop
  endfacet
  facet normal 0.831491 0.555538 0
    outer loop
      vertex -31.9641 -47.0333 -2.5
      vertex -31.6734 -47.4684 2.5
      vertex -31.6734 -47.4684 -2.5
    endloop
  endfacet
  facet normal -0.831491 0.555538 0
    outer loop
      vertex -25.3266 -47.4684 -2.5
      vertex -25.0359 -47.0333 2.5
      vertex -25.0359 -47.0333 -2.5
    endloop
  endfacet
  facet normal -0.831491 0.555538 0
    outer loop
      vertex -25.0359 -47.0333 2.5
      vertex -25.3266 -47.4684 -2.5
      vertex -25.3266 -47.4684 2.5
    endloop
  endfacet
  facet normal 0.0653646 0.997861 -0
    outer loop
      vertex -28.5 -49.0333 -2.5
      vertex -29.0221 -48.9991 2.5
      vertex -28.5 -49.0333 2.5
    endloop
  endfacet
  facet normal 0.0653646 0.997861 0
    outer loop
      vertex -29.0221 -48.9991 2.5
      vertex -28.5 -49.0333 -2.5
      vertex -29.0221 -48.9991 -2.5
    endloop
  endfacet
  facet normal 0.555626 0.831432 -0
    outer loop
      vertex -30.5 -48.4974 -2.5
      vertex -30.935 -48.2067 2.5
      vertex -30.5 -48.4974 2.5
    endloop
  endfacet
  facet normal 0.555626 0.831432 0
    outer loop
      vertex -30.935 -48.2067 2.5
      vertex -30.5 -48.4974 -2.5
      vertex -30.935 -48.2067 -2.5
    endloop
  endfacet
  facet normal 0.321498 -0.94691 0
    outer loop
      vertex -30.0307 -41.3378 -2.5
      vertex -29.5353 -41.1696 2.5
      vertex -30.0307 -41.3378 2.5
    endloop
  endfacet
  facet normal 0.321498 -0.94691 0
    outer loop
      vertex -29.5353 -41.1696 2.5
      vertex -30.0307 -41.3378 -2.5
      vertex -29.5353 -41.1696 -2.5
    endloop
  endfacet
  facet normal 0.94693 0.32144 0
    outer loop
      vertex -32.1955 -46.5641 2.5
      vertex -32.3637 -46.0686 -2.5
      vertex -32.3637 -46.0686 2.5
    endloop
  endfacet
  facet normal 0.94693 0.32144 0
    outer loop
      vertex -32.3637 -46.0686 -2.5
      vertex -32.1955 -46.5641 2.5
      vertex -32.1955 -46.5641 -2.5
    endloop
  endfacet
  facet normal 0.751842 -0.659343 0
    outer loop
      vertex -31.6734 -42.5983 2.5
      vertex -31.3284 -42.2049 -2.5
      vertex -31.3284 -42.2049 2.5
    endloop
  endfacet
  facet normal 0.751842 -0.659343 0
    outer loop
      vertex -31.3284 -42.2049 -2.5
      vertex -31.6734 -42.5983 2.5
      vertex -31.6734 -42.5983 -2.5
    endloop
  endfacet
  facet normal -0.997861 0.0653646 0
    outer loop
      vertex -24.5342 -45.5554 -2.5
      vertex -24.5 -45.0333 2.5
      vertex -24.5 -45.0333 -2.5
    endloop
  endfacet
  facet normal -0.997861 0.0653646 0
    outer loop
      vertex -24.5 -45.0333 2.5
      vertex -24.5342 -45.5554 -2.5
      vertex -24.5342 -45.5554 2.5
    endloop
  endfacet
  facet normal -0.555626 -0.831432 0
    outer loop
      vertex -26.5 -41.5692 -2.5
      vertex -26.065 -41.8599 2.5
      vertex -26.5 -41.5692 2.5
    endloop
  endfacet
  facet normal -0.555626 -0.831432 -0
    outer loop
      vertex -26.065 -41.8599 2.5
      vertex -26.5 -41.5692 -2.5
      vertex -26.065 -41.8599 -2.5
    endloop
  endfacet
  facet normal -0.0653646 -0.997861 0
    outer loop
      vertex -28.5 -41.0333 -2.5
      vertex -27.9779 -41.0675 2.5
      vertex -28.5 -41.0333 2.5
    endloop
  endfacet
  facet normal -0.0653646 -0.997861 -0
    outer loop
      vertex -27.9779 -41.0675 2.5
      vertex -28.5 -41.0333 -2.5
      vertex -27.9779 -41.0675 -2.5
    endloop
  endfacet
  facet normal 0.195124 0.980779 -0
    outer loop
      vertex -29.0221 -48.9991 -2.5
      vertex -29.5353 -48.897 2.5
      vertex -29.0221 -48.9991 2.5
    endloop
  endfacet
  facet normal 0.195124 0.980779 0
    outer loop
      vertex -29.5353 -48.897 2.5
      vertex -29.0221 -48.9991 -2.5
      vertex -29.5353 -48.897 -2.5
    endloop
  endfacet
  facet normal -0.89686 0.442314 0
    outer loop
      vertex -25.0359 -47.0333 -2.5
      vertex -24.8045 -46.5641 2.5
      vertex -24.8045 -46.5641 -2.5
    endloop
  endfacet
  facet normal -0.89686 0.442314 0
    outer loop
      vertex -24.8045 -46.5641 2.5
      vertex -25.0359 -47.0333 -2.5
      vertex -25.0359 -47.0333 2.5
    endloop
  endfacet
  facet normal 0.0653646 -0.997861 0
    outer loop
      vertex -29.0221 -41.0675 -2.5
      vertex -28.5 -41.0333 2.5
      vertex -29.0221 -41.0675 2.5
    endloop
  endfacet
  facet normal 0.0653646 -0.997861 0
    outer loop
      vertex -28.5 -41.0333 2.5
      vertex -29.0221 -41.0675 -2.5
      vertex -28.5 -41.0333 -2.5
    endloop
  endfacet
  facet normal 0.997861 -0.0653646 0
    outer loop
      vertex -32.5 -45.0333 2.5
      vertex -32.4658 -44.5112 -2.5
      vertex -32.4658 -44.5112 2.5
    endloop
  endfacet
  facet normal 0.997861 -0.0653646 0
    outer loop
      vertex -32.4658 -44.5112 -2.5
      vertex -32.5 -45.0333 2.5
      vertex -32.5 -45.0333 -2.5
    endloop
  endfacet
  facet normal 0.94691 -0.321498 0
    outer loop
      vertex -32.3637 -43.998 2.5
      vertex -32.1955 -43.5026 -2.5
      vertex -32.1955 -43.5026 2.5
    endloop
  endfacet
  facet normal 0.94691 -0.321498 0
    outer loop
      vertex -32.1955 -43.5026 -2.5
      vertex -32.3637 -43.998 2.5
      vertex -32.3637 -43.998 -2.5
    endloop
  endfacet
  facet normal -0.321498 -0.94691 0
    outer loop
      vertex -27.4647 -41.1696 -2.5
      vertex -26.9693 -41.3378 2.5
      vertex -27.4647 -41.1696 2.5
    endloop
  endfacet
  facet normal -0.321498 -0.94691 -0
    outer loop
      vertex -26.9693 -41.3378 2.5
      vertex -27.4647 -41.1696 -2.5
      vertex -26.9693 -41.3378 -2.5
    endloop
  endfacet
  facet normal 0.659343 0.751842 -0
    outer loop
      vertex -30.935 -48.2067 -2.5
      vertex -31.3284 -47.8617 2.5
      vertex -30.935 -48.2067 2.5
    endloop
  endfacet
  facet normal 0.659343 0.751842 0
    outer loop
      vertex -31.3284 -47.8617 2.5
      vertex -30.935 -48.2067 -2.5
      vertex -31.3284 -47.8617 -2.5
    endloop
  endfacet
  facet normal 0.831432 -0.555626 0
    outer loop
      vertex -31.9641 -43.0333 2.5
      vertex -31.6734 -42.5983 -2.5
      vertex -31.6734 -42.5983 2.5
    endloop
  endfacet
  facet normal 0.831432 -0.555626 0
    outer loop
      vertex -31.6734 -42.5983 -2.5
      vertex -31.9641 -43.0333 2.5
      vertex -31.9641 -43.0333 -2.5
    endloop
  endfacet
  facet normal 0.997861 0.0653646 0
    outer loop
      vertex -32.4658 -45.5554 2.5
      vertex -32.5 -45.0333 -2.5
      vertex -32.5 -45.0333 2.5
    endloop
  endfacet
  facet normal 0.997861 0.0653646 0
    outer loop
      vertex -32.5 -45.0333 -2.5
      vertex -32.4658 -45.5554 2.5
      vertex -32.4658 -45.5554 -2.5
    endloop
  endfacet
  facet normal -0.195124 -0.980779 0
    outer loop
      vertex -27.9779 -41.0675 -2.5
      vertex -27.4647 -41.1696 2.5
      vertex -27.9779 -41.0675 2.5
    endloop
  endfacet
  facet normal -0.195124 -0.980779 -0
    outer loop
      vertex -27.4647 -41.1696 2.5
      vertex -27.9779 -41.0675 -2.5
      vertex -27.4647 -41.1696 -2.5
    endloop
  endfacet
  facet normal 0.442238 0.896898 -0
    outer loop
      vertex -30.0307 -48.7288 -2.5
      vertex -30.5 -48.4974 2.5
      vertex -30.0307 -48.7288 2.5
    endloop
  endfacet
  facet normal 0.442238 0.896898 0
    outer loop
      vertex -30.5 -48.4974 2.5
      vertex -30.0307 -48.7288 -2.5
      vertex -30.5 -48.4974 -2.5
    endloop
  endfacet
  facet normal 0.195124 -0.980779 0
    outer loop
      vertex -29.5353 -41.1696 -2.5
      vertex -29.0221 -41.0675 2.5
      vertex -29.5353 -41.1696 2.5
    endloop
  endfacet
  facet normal 0.195124 -0.980779 0
    outer loop
      vertex -29.0221 -41.0675 2.5
      vertex -29.5353 -41.1696 -2.5
      vertex -29.0221 -41.0675 -2.5
    endloop
  endfacet
  facet normal 0.321498 0.94691 -0
    outer loop
      vertex -29.5353 -48.897 -2.5
      vertex -30.0307 -48.7288 2.5
      vertex -29.5353 -48.897 2.5
    endloop
  endfacet
  facet normal 0.321498 0.94691 0
    outer loop
      vertex -30.0307 -48.7288 2.5
      vertex -29.5353 -48.897 -2.5
      vertex -30.0307 -48.7288 -2.5
    endloop
  endfacet
  facet normal 0.896898 -0.442238 0
    outer loop
      vertex -32.1955 -43.5026 2.5
      vertex -31.9641 -43.0333 -2.5
      vertex -31.9641 -43.0333 2.5
    endloop
  endfacet
  facet normal 0.896898 -0.442238 0
    outer loop
      vertex -31.9641 -43.0333 -2.5
      vertex -32.1955 -43.5026 2.5
      vertex -32.1955 -43.5026 -2.5
    endloop
  endfacet
  facet normal 0.89686 0.442314 0
    outer loop
      vertex -31.9641 -47.0333 2.5
      vertex -32.1955 -46.5641 -2.5
      vertex -32.1955 -46.5641 2.5
    endloop
  endfacet
  facet normal 0.89686 0.442314 0
    outer loop
      vertex -32.1955 -46.5641 -2.5
      vertex -31.9641 -47.0333 2.5
      vertex -31.9641 -47.0333 -2.5
    endloop
  endfacet
  facet normal -0.659343 0.751842 0
    outer loop
      vertex -25.6716 -47.8617 -2.5
      vertex -26.065 -48.2067 2.5
      vertex -25.6716 -47.8617 2.5
    endloop
  endfacet
  facet normal -0.659343 0.751842 0
    outer loop
      vertex -26.065 -48.2067 2.5
      vertex -25.6716 -47.8617 -2.5
      vertex -26.065 -48.2067 -2.5
    endloop
  endfacet
endsolid OpenSCAD_Model
