solid OpenSCAD_Model
  facet normal 0.99786 0.065384 0
    outer loop
      vertex 19 0 15
      vertex 18.8375 2.48 -15
      vertex 18.8375 2.48 15
    endloop
  endfacet
  facet normal 0.99786 0.065384 0
    outer loop
      vertex 18.8375 2.48 -15
      vertex 19 0 15
      vertex 19 0 -15
    endloop
  endfacet
  facet normal 0.980782 0.195105 0
    outer loop
      vertex 18.8375 2.48 15
      vertex 18.3526 4.91756 -15
      vertex 18.3526 4.91756 15
    endloop
  endfacet
  facet normal 0.980782 0.195105 0
    outer loop
      vertex 18.3526 4.91756 -15
      vertex 18.8375 2.48 15
      vertex 18.8375 2.48 -15
    endloop
  endfacet
  facet normal 0.946928 0.321446 0
    outer loop
      vertex 18.3526 4.91756 15
      vertex 17.5537 7.27099 -15
      vertex 17.5537 7.27099 15
    endloop
  endfacet
  facet normal 0.946928 0.321446 0
    outer loop
      vertex 17.5537 7.27099 -15
      vertex 18.3526 4.91756 15
      vertex 18.3526 4.91756 -15
    endloop
  endfacet
  facet normal 0.896877 0.44228 0
    outer loop
      vertex 17.5537 7.27099 15
      vertex 16.4545 9.5 -15
      vertex 16.4545 9.5 15
    endloop
  endfacet
  facet normal 0.896877 0.44228 0
    outer loop
      vertex 16.4545 9.5 -15
      vertex 17.5537 7.27099 15
      vertex 17.5537 7.27099 -15
    endloop
  endfacet
  facet normal 0.831468 0.555573 0
    outer loop
      vertex 16.4545 9.5 15
      vertex 15.0737 11.5665 -15
      vertex 15.0737 11.5665 15
    endloop
  endfacet
  facet normal 0.831468 0.555573 0
    outer loop
      vertex 15.0737 11.5665 -15
      vertex 16.4545 9.5 15
      vertex 16.4545 9.5 -15
    endloop
  endfacet
  facet normal 0.751826 0.659362 0
    outer loop
      vertex 15.0737 11.5665 15
      vertex 13.435 13.435 -15
      vertex 13.435 13.435 15
    endloop
  endfacet
  facet normal 0.751826 0.659362 0
    outer loop
      vertex 13.435 13.435 -15
      vertex 15.0737 11.5665 15
      vertex 15.0737 11.5665 -15
    endloop
  endfacet
  facet normal 0.659362 0.751826 -0
    outer loop
      vertex 13.435 13.435 -15
      vertex 11.5665 15.0737 15
      vertex 13.435 13.435 15
    endloop
  endfacet
  facet normal 0.659362 0.751826 0
    outer loop
      vertex 11.5665 15.0737 15
      vertex 13.435 13.435 -15
      vertex 11.5665 15.0737 -15
    endloop
  endfacet
  facet normal 0.555573 0.831468 -0
    outer loop
      vertex 11.5665 15.0737 -15
      vertex 9.5 16.4545 15
      vertex 11.5665 15.0737 15
    endloop
  endfacet
  facet normal 0.555573 0.831468 0
    outer loop
      vertex 9.5 16.4545 15
      vertex 11.5665 15.0737 -15
      vertex 9.5 16.4545 -15
    endloop
  endfacet
  facet normal 0.44228 0.896877 -0
    outer loop
      vertex 9.5 16.4545 -15
      vertex 7.27099 17.5537 15
      vertex 9.5 16.4545 15
    endloop
  endfacet
  facet normal 0.44228 0.896877 0
    outer loop
      vertex 7.27099 17.5537 15
      vertex 9.5 16.4545 -15
      vertex 7.27099 17.5537 -15
    endloop
  endfacet
  facet normal 0.321446 0.946928 -0
    outer loop
      vertex 7.27099 17.5537 -15
      vertex 4.91756 18.3526 15
      vertex 7.27099 17.5537 15
    endloop
  endfacet
  facet normal 0.321446 0.946928 0
    outer loop
      vertex 4.91756 18.3526 15
      vertex 7.27099 17.5537 -15
      vertex 4.91756 18.3526 -15
    endloop
  endfacet
  facet normal 0.195105 0.980782 -0
    outer loop
      vertex 4.91756 18.3526 -15
      vertex 2.48 18.8375 15
      vertex 4.91756 18.3526 15
    endloop
  endfacet
  facet normal 0.195105 0.980782 0
    outer loop
      vertex 2.48 18.8375 15
      vertex 4.91756 18.3526 -15
      vertex 2.48 18.8375 -15
    endloop
  endfacet
  facet normal 0.065384 0.99786 -0
    outer loop
      vertex 2.48 18.8375 -15
      vertex 0 19 15
      vertex 2.48 18.8375 15
    endloop
  endfacet
  facet normal 0.065384 0.99786 0
    outer loop
      vertex 0 19 15
      vertex 2.48 18.8375 -15
      vertex 0 19 -15
    endloop
  endfacet
  facet normal -0.065384 0.99786 0
    outer loop
      vertex 0 19 -15
      vertex -2.48 18.8375 15
      vertex 0 19 15
    endloop
  endfacet
  facet normal -0.065384 0.99786 0
    outer loop
      vertex -2.48 18.8375 15
      vertex 0 19 -15
      vertex -2.48 18.8375 -15
    endloop
  endfacet
  facet normal -0.195105 0.980782 0
    outer loop
      vertex -2.48 18.8375 -15
      vertex -4.91756 18.3526 15
      vertex -2.48 18.8375 15
    endloop
  endfacet
  facet normal -0.195105 0.980782 0
    outer loop
      vertex -4.91756 18.3526 15
      vertex -2.48 18.8375 -15
      vertex -4.91756 18.3526 -15
    endloop
  endfacet
  facet normal -0.321446 0.946928 0
    outer loop
      vertex -4.91756 18.3526 -15
      vertex -7.27099 17.5537 15
      vertex -4.91756 18.3526 15
    endloop
  endfacet
  facet normal -0.321446 0.946928 0
    outer loop
      vertex -7.27099 17.5537 15
      vertex -4.91756 18.3526 -15
      vertex -7.27099 17.5537 -15
    endloop
  endfacet
  facet normal -0.44228 0.896877 0
    outer loop
      vertex -7.27099 17.5537 -15
      vertex -9.5 16.4545 15
      vertex -7.27099 17.5537 15
    endloop
  endfacet
  facet normal -0.44228 0.896877 0
    outer loop
      vertex -9.5 16.4545 15
      vertex -7.27099 17.5537 -15
      vertex -9.5 16.4545 -15
    endloop
  endfacet
  facet normal -0.555573 0.831468 0
    outer loop
      vertex -9.5 16.4545 -15
      vertex -11.5665 15.0737 15
      vertex -9.5 16.4545 15
    endloop
  endfacet
  facet normal -0.555573 0.831468 0
    outer loop
      vertex -11.5665 15.0737 15
      vertex -9.5 16.4545 -15
      vertex -11.5665 15.0737 -15
    endloop
  endfacet
  facet normal -0.659362 0.751826 0
    outer loop
      vertex -11.5665 15.0737 -15
      vertex -13.435 13.435 15
      vertex -11.5665 15.0737 15
    endloop
  endfacet
  facet normal -0.659362 0.751826 0
    outer loop
      vertex -13.435 13.435 15
      vertex -11.5665 15.0737 -15
      vertex -13.435 13.435 -15
    endloop
  endfacet
  facet normal -0.751826 0.659362 0
    outer loop
      vertex -15.0737 11.5665 -15
      vertex -13.435 13.435 15
      vertex -13.435 13.435 -15
    endloop
  endfacet
  facet normal -0.751826 0.659362 0
    outer loop
      vertex -13.435 13.435 15
      vertex -15.0737 11.5665 -15
      vertex -15.0737 11.5665 15
    endloop
  endfacet
  facet normal -0.831468 0.555573 0
    outer loop
      vertex -16.4545 9.5 -15
      vertex -15.0737 11.5665 15
      vertex -15.0737 11.5665 -15
    endloop
  endfacet
  facet normal -0.831468 0.555573 0
    outer loop
      vertex -15.0737 11.5665 15
      vertex -16.4545 9.5 -15
      vertex -16.4545 9.5 15
    endloop
  endfacet
  facet normal -0.896877 0.44228 0
    outer loop
      vertex -17.5537 7.27099 -15
      vertex -16.4545 9.5 15
      vertex -16.4545 9.5 -15
    endloop
  endfacet
  facet normal -0.896877 0.44228 0
    outer loop
      vertex -16.4545 9.5 15
      vertex -17.5537 7.27099 -15
      vertex -17.5537 7.27099 15
    endloop
  endfacet
  facet normal -0.946928 0.321446 0
    outer loop
      vertex -18.3526 4.91756 -15
      vertex -17.5537 7.27099 15
      vertex -17.5537 7.27099 -15
    endloop
  endfacet
  facet normal -0.946928 0.321446 0
    outer loop
      vertex -17.5537 7.27099 15
      vertex -18.3526 4.91756 -15
      vertex -18.3526 4.91756 15
    endloop
  endfacet
  facet normal -0.980782 0.195105 0
    outer loop
      vertex -18.8375 2.48 -15
      vertex -18.3526 4.91756 15
      vertex -18.3526 4.91756 -15
    endloop
  endfacet
  facet normal -0.980782 0.195105 0
    outer loop
      vertex -18.3526 4.91756 15
      vertex -18.8375 2.48 -15
      vertex -18.8375 2.48 15
    endloop
  endfacet
  facet normal -0.99786 0.065384 0
    outer loop
      vertex -19 -0 -15
      vertex -18.8375 2.48 15
      vertex -18.8375 2.48 -15
    endloop
  endfacet
  facet normal -0.99786 0.065384 0
    outer loop
      vertex -18.8375 2.48 15
      vertex -19 -0 -15
      vertex -19 -0 15
    endloop
  endfacet
  facet normal -0.99786 -0.065384 0
    outer loop
      vertex -18.8375 -2.48 -15
      vertex -19 -0 15
      vertex -19 -0 -15
    endloop
  endfacet
  facet normal -0.99786 -0.065384 0
    outer loop
      vertex -19 -0 15
      vertex -18.8375 -2.48 -15
      vertex -18.8375 -2.48 15
    endloop
  endfacet
  facet normal -0.980782 -0.195105 0
    outer loop
      vertex -18.3526 -4.91756 -15
      vertex -18.8375 -2.48 15
      vertex -18.8375 -2.48 -15
    endloop
  endfacet
  facet normal -0.980782 -0.195105 0
    outer loop
      vertex -18.8375 -2.48 15
      vertex -18.3526 -4.91756 -15
      vertex -18.3526 -4.91756 15
    endloop
  endfacet
  facet normal -0.946928 -0.321446 0
    outer loop
      vertex -17.5537 -7.27099 -15
      vertex -18.3526 -4.91756 15
      vertex -18.3526 -4.91756 -15
    endloop
  endfacet
  facet normal -0.946928 -0.321446 0
    outer loop
      vertex -18.3526 -4.91756 15
      vertex -17.5537 -7.27099 -15
      vertex -17.5537 -7.27099 15
    endloop
  endfacet
  facet normal -0.896877 -0.44228 0
    outer loop
      vertex -16.4545 -9.5 -15
      vertex -17.5537 -7.27099 15
      vertex -17.5537 -7.27099 -15
    endloop
  endfacet
  facet normal -0.896877 -0.44228 0
    outer loop
      vertex -17.5537 -7.27099 15
      vertex -16.4545 -9.5 -15
      vertex -16.4545 -9.5 15
    endloop
  endfacet
  facet normal -0.831468 -0.555573 0
    outer loop
      vertex -15.0737 -11.5665 -15
      vertex -16.4545 -9.5 15
      vertex -16.4545 -9.5 -15
    endloop
  endfacet
  facet normal -0.831468 -0.555573 0
    outer loop
      vertex -16.4545 -9.5 15
      vertex -15.0737 -11.5665 -15
      vertex -15.0737 -11.5665 15
    endloop
  endfacet
  facet normal -0.751826 -0.659362 0
    outer loop
      vertex -13.435 -13.435 -15
      vertex -15.0737 -11.5665 15
      vertex -15.0737 -11.5665 -15
    endloop
  endfacet
  facet normal -0.751826 -0.659362 0
    outer loop
      vertex -15.0737 -11.5665 15
      vertex -13.435 -13.435 -15
      vertex -13.435 -13.435 15
    endloop
  endfacet
  facet normal -0.659362 -0.751826 0
    outer loop
      vertex -13.435 -13.435 -15
      vertex -11.5665 -15.0737 15
      vertex -13.435 -13.435 15
    endloop
  endfacet
  facet normal -0.659362 -0.751826 -0
    outer loop
      vertex -11.5665 -15.0737 15
      vertex -13.435 -13.435 -15
      vertex -11.5665 -15.0737 -15
    endloop
  endfacet
  facet normal -0.555573 -0.831468 0
    outer loop
      vertex -11.5665 -15.0737 -15
      vertex -9.5 -16.4545 15
      vertex -11.5665 -15.0737 15
    endloop
  endfacet
  facet normal -0.555573 -0.831468 -0
    outer loop
      vertex -9.5 -16.4545 15
      vertex -11.5665 -15.0737 -15
      vertex -9.5 -16.4545 -15
    endloop
  endfacet
  facet normal -0.44228 -0.896877 0
    outer loop
      vertex -9.5 -16.4545 -15
      vertex -7.27099 -17.5537 15
      vertex -9.5 -16.4545 15
    endloop
  endfacet
  facet normal -0.44228 -0.896877 -0
    outer loop
      vertex -7.27099 -17.5537 15
      vertex -9.5 -16.4545 -15
      vertex -7.27099 -17.5537 -15
    endloop
  endfacet
  facet normal -0.321446 -0.946928 0
    outer loop
      vertex -7.27099 -17.5537 -15
      vertex -4.91756 -18.3526 15
      vertex -7.27099 -17.5537 15
    endloop
  endfacet
  facet normal -0.321446 -0.946928 -0
    outer loop
      vertex -4.91756 -18.3526 15
      vertex -7.27099 -17.5537 -15
      vertex -4.91756 -18.3526 -15
    endloop
  endfacet
  facet normal -0.195105 -0.980782 0
    outer loop
      vertex -4.91756 -18.3526 -15
      vertex -2.48 -18.8375 15
      vertex -4.91756 -18.3526 15
    endloop
  endfacet
  facet normal -0.195105 -0.980782 -0
    outer loop
      vertex -2.48 -18.8375 15
      vertex -4.91756 -18.3526 -15
      vertex -2.48 -18.8375 -15
    endloop
  endfacet
  facet normal -0.065384 -0.99786 0
    outer loop
      vertex -2.48 -18.8375 -15
      vertex -0 -19 15
      vertex -2.48 -18.8375 15
    endloop
  endfacet
  facet normal -0.065384 -0.99786 -0
    outer loop
      vertex -0 -19 15
      vertex -2.48 -18.8375 -15
      vertex -0 -19 -15
    endloop
  endfacet
  facet normal 0.065384 -0.99786 0
    outer loop
      vertex -0 -19 -15
      vertex 2.48 -18.8375 15
      vertex -0 -19 15
    endloop
  endfacet
  facet normal 0.065384 -0.99786 0
    outer loop
      vertex 2.48 -18.8375 15
      vertex -0 -19 -15
      vertex 2.48 -18.8375 -15
    endloop
  endfacet
  facet normal 0.195105 -0.980782 0
    outer loop
      vertex 2.48 -18.8375 -15
      vertex 4.91756 -18.3526 15
      vertex 2.48 -18.8375 15
    endloop
  endfacet
  facet normal 0.195105 -0.980782 0
    outer loop
      vertex 4.91756 -18.3526 15
      vertex 2.48 -18.8375 -15
      vertex 4.91756 -18.3526 -15
    endloop
  endfacet
  facet normal 0.321446 -0.946928 0
    outer loop
      vertex 4.91756 -18.3526 -15
      vertex 7.27099 -17.5537 15
      vertex 4.91756 -18.3526 15
    endloop
  endfacet
  facet normal 0.321446 -0.946928 0
    outer loop
      vertex 7.27099 -17.5537 15
      vertex 4.91756 -18.3526 -15
      vertex 7.27099 -17.5537 -15
    endloop
  endfacet
  facet normal 0.44228 -0.896877 0
    outer loop
      vertex 7.27099 -17.5537 -15
      vertex 9.5 -16.4545 15
      vertex 7.27099 -17.5537 15
    endloop
  endfacet
  facet normal 0.44228 -0.896877 0
    outer loop
      vertex 9.5 -16.4545 15
      vertex 7.27099 -17.5537 -15
      vertex 9.5 -16.4545 -15
    endloop
  endfacet
  facet normal 0.555573 -0.831468 0
    outer loop
      vertex 9.5 -16.4545 -15
      vertex 11.5665 -15.0737 15
      vertex 9.5 -16.4545 15
    endloop
  endfacet
  facet normal 0.555573 -0.831468 0
    outer loop
      vertex 11.5665 -15.0737 15
      vertex 9.5 -16.4545 -15
      vertex 11.5665 -15.0737 -15
    endloop
  endfacet
  facet normal 0.659362 -0.751826 0
    outer loop
      vertex 11.5665 -15.0737 -15
      vertex 13.435 -13.435 15
      vertex 11.5665 -15.0737 15
    endloop
  endfacet
  facet normal 0.659362 -0.751826 0
    outer loop
      vertex 13.435 -13.435 15
      vertex 11.5665 -15.0737 -15
      vertex 13.435 -13.435 -15
    endloop
  endfacet
  facet normal 0.751826 -0.659362 0
    outer loop
      vertex 13.435 -13.435 15
      vertex 15.0737 -11.5665 -15
      vertex 15.0737 -11.5665 15
    endloop
  endfacet
  facet normal 0.751826 -0.659362 0
    outer loop
      vertex 15.0737 -11.5665 -15
      vertex 13.435 -13.435 15
      vertex 13.435 -13.435 -15
    endloop
  endfacet
  facet normal 0.831468 -0.555573 0
    outer loop
      vertex 15.0737 -11.5665 15
      vertex 16.4545 -9.5 -15
      vertex 16.4545 -9.5 15
    endloop
  endfacet
  facet normal 0.831468 -0.555573 0
    outer loop
      vertex 16.4545 -9.5 -15
      vertex 15.0737 -11.5665 15
      vertex 15.0737 -11.5665 -15
    endloop
  endfacet
  facet normal 0.896877 -0.44228 0
    outer loop
      vertex 16.4545 -9.5 15
      vertex 17.5537 -7.27099 -15
      vertex 17.5537 -7.27099 15
    endloop
  endfacet
  facet normal 0.896877 -0.44228 0
    outer loop
      vertex 17.5537 -7.27099 -15
      vertex 16.4545 -9.5 15
      vertex 16.4545 -9.5 -15
    endloop
  endfacet
  facet normal 0.946928 -0.321446 0
    outer loop
      vertex 17.5537 -7.27099 15
      vertex 18.3526 -4.91756 -15
      vertex 18.3526 -4.91756 15
    endloop
  endfacet
  facet normal 0.946928 -0.321446 0
    outer loop
      vertex 18.3526 -4.91756 -15
      vertex 17.5537 -7.27099 15
      vertex 17.5537 -7.27099 -15
    endloop
  endfacet
  facet normal 0.980782 -0.195105 0
    outer loop
      vertex 18.3526 -4.91756 15
      vertex 18.8375 -2.48 -15
      vertex 18.8375 -2.48 15
    endloop
  endfacet
  facet normal 0.980782 -0.195105 0
    outer loop
      vertex 18.8375 -2.48 -15
      vertex 18.3526 -4.91756 15
      vertex 18.3526 -4.91756 -15
    endloop
  endfacet
  facet normal 0.99786 -0.065384 0
    outer loop
      vertex 18.8375 -2.48 15
      vertex 19 0 -15
      vertex 19 0 15
    endloop
  endfacet
  facet normal 0.99786 -0.065384 0
    outer loop
      vertex 19 0 -15
      vertex 18.8375 -2.48 15
      vertex 18.8375 -2.48 -15
    endloop
  endfacet
  facet normal 0 0 -1
    outer loop
      vertex 18.8375 -2.48 -15
      vertex 18.8375 2.48 -15
      vertex 19 0 -15
    endloop
  endfacet
  facet normal 0 0 -1
    outer loop
      vertex 18.3526 -4.91756 -15
      vertex 18.8375 2.48 -15
      vertex 18.8375 -2.48 -15
    endloop
  endfacet
  facet normal 0 0 -1
    outer loop
      vertex 18.3526 -4.91756 -15
      vertex 18.3526 4.91756 -15
      vertex 18.8375 2.48 -15
    endloop
  endfacet
  facet normal 0 0 -1
    outer loop
      vertex 17.5537 -7.27099 -15
      vertex 18.3526 4.91756 -15
      vertex 18.3526 -4.91756 -15
    endloop
  endfacet
  facet normal 0 0 -1
    outer loop
      vertex 17.5537 -7.27099 -15
      vertex 17.5537 7.27099 -15
      vertex 18.3526 4.91756 -15
    endloop
  endfacet
  facet normal 0 0 -1
    outer loop
      vertex 16.4545 -9.5 -15
      vertex 17.5537 7.27099 -15
      vertex 17.5537 -7.27099 -15
    endloop
  endfacet
  facet normal 0 0 -1
    outer loop
      vertex 16.4545 -9.5 -15
      vertex 16.4545 9.5 -15
      vertex 17.5537 7.27099 -15
    endloop
  endfacet
  facet normal 0 0 -1
    outer loop
      vertex 15.0737 -11.5665 -15
      vertex 16.4545 9.5 -15
      vertex 16.4545 -9.5 -15
    endloop
  endfacet
  facet normal 0 0 -1
    outer loop
      vertex 15.0737 -11.5665 -15
      vertex 15.0737 11.5665 -15
      vertex 16.4545 9.5 -15
    endloop
  endfacet
  facet normal 0 0 -1
    outer loop
      vertex 13.435 -13.435 -15
      vertex 15.0737 11.5665 -15
      vertex 15.0737 -11.5665 -15
    endloop
  endfacet
  facet normal 0 0 -1
    outer loop
      vertex 13.435 -13.435 -15
      vertex 13.435 13.435 -15
      vertex 15.0737 11.5665 -15
    endloop
  endfacet
  facet normal 0 0 -1
    outer loop
      vertex 11.5665 -15.0737 -15
      vertex 13.435 13.435 -15
      vertex 13.435 -13.435 -15
    endloop
  endfacet
  facet normal 0 0 -1
    outer loop
      vertex 11.5665 -15.0737 -15
      vertex 11.5665 15.0737 -15
      vertex 13.435 13.435 -15
    endloop
  endfacet
  facet normal 0 0 -1
    outer loop
      vertex 9.5 -16.4545 -15
      vertex 11.5665 15.0737 -15
      vertex 11.5665 -15.0737 -15
    endloop
  endfacet
  facet normal 0 0 -1
    outer loop
      vertex 9.5 -16.4545 -15
      vertex 9.5 16.4545 -15
      vertex 11.5665 15.0737 -15
    endloop
  endfacet
  facet normal 0 0 -1
    outer loop
      vertex 7.27099 -17.5537 -15
      vertex 9.5 16.4545 -15
      vertex 9.5 -16.4545 -15
    endloop
  endfacet
  facet normal 0 0 -1
    outer loop
      vertex 7.27099 -17.5537 -15
      vertex 7.27099 17.5537 -15
      vertex 9.5 16.4545 -15
    endloop
  endfacet
  facet normal 0 0 -1
    outer loop
      vertex 4.91756 -18.3526 -15
      vertex 7.27099 17.5537 -15
      vertex 7.27099 -17.5537 -15
    endloop
  endfacet
  facet normal 0 0 -1
    outer loop
      vertex 4.91756 -18.3526 -15
      vertex 4.91756 18.3526 -15
      vertex 7.27099 17.5537 -15
    endloop
  endfacet
  facet normal 0 0 -1
    outer loop
      vertex 2.48 -18.8375 -15
      vertex 4.91756 18.3526 -15
      vertex 4.91756 -18.3526 -15
    endloop
  endfacet
  facet normal 0 0 -1
    outer loop
      vertex 2.48 -18.8375 -15
      vertex 2.48 18.8375 -15
      vertex 4.91756 18.3526 -15
    endloop
  endfacet
  facet normal 0 0 -1
    outer loop
      vertex -0 -19 -15
      vertex 2.48 18.8375 -15
      vertex 2.48 -18.8375 -15
    endloop
  endfacet
  facet normal 0 0 -1
    outer loop
      vertex -0 -19 -15
      vertex 0 19 -15
      vertex 2.48 18.8375 -15
    endloop
  endfacet
  facet normal 0 0 -1
    outer loop
      vertex -2.48 -18.8375 -15
      vertex 0 19 -15
      vertex -0 -19 -15
    endloop
  endfacet
  facet normal 0 0 -1
    outer loop
      vertex -2.48 -18.8375 -15
      vertex -2.48 18.8375 -15
      vertex 0 19 -15
    endloop
  endfacet
  facet normal 0 0 -1
    outer loop
      vertex -4.91756 -18.3526 -15
      vertex -2.48 18.8375 -15
      vertex -2.48 -18.8375 -15
    endloop
  endfacet
  facet normal 0 0 -1
    outer loop
      vertex -4.91756 -18.3526 -15
      vertex -4.91756 18.3526 -15
      vertex -2.48 18.8375 -15
    endloop
  endfacet
  facet normal 0 0 -1
    outer loop
      vertex -7.27099 -17.5537 -15
      vertex -4.91756 18.3526 -15
      vertex -4.91756 -18.3526 -15
    endloop
  endfacet
  facet normal 0 0 -1
    outer loop
      vertex -7.27099 -17.5537 -15
      vertex -7.27099 17.5537 -15
      vertex -4.91756 18.3526 -15
    endloop
  endfacet
  facet normal 0 0 -1
    outer loop
      vertex -9.5 -16.4545 -15
      vertex -7.27099 17.5537 -15
      vertex -7.27099 -17.5537 -15
    endloop
  endfacet
  facet normal 0 0 -1
    outer loop
      vertex -9.5 -16.4545 -15
      vertex -9.5 16.4545 -15
      vertex -7.27099 17.5537 -15
    endloop
  endfacet
  facet normal 0 0 -1
    outer loop
      vertex -11.5665 -15.0737 -15
      vertex -9.5 16.4545 -15
      vertex -9.5 -16.4545 -15
    endloop
  endfacet
  facet normal 0 0 -1
    outer loop
      vertex -11.5665 -15.0737 -15
      vertex -11.5665 15.0737 -15
      vertex -9.5 16.4545 -15
    endloop
  endfacet
  facet normal 0 0 -1
    outer loop
      vertex -13.435 -13.435 -15
      vertex -11.5665 15.0737 -15
      vertex -11.5665 -15.0737 -15
    endloop
  endfacet
  facet normal 0 0 -1
    outer loop
      vertex -13.435 -13.435 -15
      vertex -13.435 13.435 -15
      vertex -11.5665 15.0737 -15
    endloop
  endfacet
  facet normal 0 0 -1
    outer loop
      vertex -15.0737 -11.5665 -15
      vertex -13.435 13.435 -15
      vertex -13.435 -13.435 -15
    endloop
  endfacet
  facet normal 0 0 -1
    outer loop
      vertex -15.0737 -11.5665 -15
      vertex -15.0737 11.5665 -15
      vertex -13.435 13.435 -15
    endloop
  endfacet
  facet normal 0 0 -1
    outer loop
      vertex -16.4545 -9.5 -15
      vertex -15.0737 11.5665 -15
      vertex -15.0737 -11.5665 -15
    endloop
  endfacet
  facet normal 0 0 -1
    outer loop
      vertex -16.4545 -9.5 -15
      vertex -16.4545 9.5 -15
      vertex -15.0737 11.5665 -15
    endloop
  endfacet
  facet normal 0 0 -1
    outer loop
      vertex -17.5537 -7.27099 -15
      vertex -16.4545 9.5 -15
      vertex -16.4545 -9.5 -15
    endloop
  endfacet
  facet normal 0 0 -1
    outer loop
      vertex -17.5537 -7.27099 -15
      vertex -17.5537 7.27099 -15
      vertex -16.4545 9.5 -15
    endloop
  endfacet
  facet normal 0 0 -1
    outer loop
      vertex -18.3526 -4.91756 -15
      vertex -17.5537 7.27099 -15
      vertex -17.5537 -7.27099 -15
    endloop
  endfacet
  facet normal 0 0 -1
    outer loop
      vertex -18.3526 -4.91756 -15
      vertex -18.3526 4.91756 -15
      vertex -17.5537 7.27099 -15
    endloop
  endfacet
  facet normal 0 0 -1
    outer loop
      vertex -18.8375 -2.48 -15
      vertex -18.3526 4.91756 -15
      vertex -18.3526 -4.91756 -15
    endloop
  endfacet
  facet normal 0 0 -1
    outer loop
      vertex -18.8375 -2.48 -15
      vertex -18.8375 2.48 -15
      vertex -18.3526 4.91756 -15
    endloop
  endfacet
  facet normal 0 -0 -1
    outer loop
      vertex -18.8375 2.48 -15
      vertex -18.8375 -2.48 -15
      vertex -19 -0 -15
    endloop
  endfacet
  facet normal 0 0 1
    outer loop
      vertex 18.8375 2.48 15
      vertex 18.8375 -2.48 15
      vertex 19 0 15
    endloop
  endfacet
  facet normal 0 0 1
    outer loop
      vertex 18.3526 4.91756 15
      vertex 18.8375 -2.48 15
      vertex 18.8375 2.48 15
    endloop
  endfacet
  facet normal 0 0 1
    outer loop
      vertex 18.3526 4.91756 15
      vertex 18.3526 -4.91756 15
      vertex 18.8375 -2.48 15
    endloop
  endfacet
  facet normal 0 0 1
    outer loop
      vertex 17.5537 7.27099 15
      vertex 18.3526 -4.91756 15
      vertex 18.3526 4.91756 15
    endloop
  endfacet
  facet normal 0 0 1
    outer loop
      vertex 17.5537 7.27099 15
      vertex 17.5537 -7.27099 15
      vertex 18.3526 -4.91756 15
    endloop
  endfacet
  facet normal 0 0 1
    outer loop
      vertex 16.4545 9.5 15
      vertex 17.5537 -7.27099 15
      vertex 17.5537 7.27099 15
    endloop
  endfacet
  facet normal 0 0 1
    outer loop
      vertex 16.4545 9.5 15
      vertex 16.4545 -9.5 15
      vertex 17.5537 -7.27099 15
    endloop
  endfacet
  facet normal 0 0 1
    outer loop
      vertex 15.0737 11.5665 15
      vertex 16.4545 -9.5 15
      vertex 16.4545 9.5 15
    endloop
  endfacet
  facet normal 0 0 1
    outer loop
      vertex 15.0737 11.5665 15
      vertex 15.0737 -11.5665 15
      vertex 16.4545 -9.5 15
    endloop
  endfacet
  facet normal 0 0 1
    outer loop
      vertex 13.435 13.435 15
      vertex 15.0737 -11.5665 15
      vertex 15.0737 11.5665 15
    endloop
  endfacet
  facet normal 0 0 1
    outer loop
      vertex 13.435 13.435 15
      vertex 13.435 -13.435 15
      vertex 15.0737 -11.5665 15
    endloop
  endfacet
  facet normal 0 0 1
    outer loop
      vertex 11.5665 15.0737 15
      vertex 13.435 -13.435 15
      vertex 13.435 13.435 15
    endloop
  endfacet
  facet normal 0 0 1
    outer loop
      vertex 11.5665 15.0737 15
      vertex 11.5665 -15.0737 15
      vertex 13.435 -13.435 15
    endloop
  endfacet
  facet normal 0 0 1
    outer loop
      vertex 9.5 16.4545 15
      vertex 11.5665 -15.0737 15
      vertex 11.5665 15.0737 15
    endloop
  endfacet
  facet normal 0 0 1
    outer loop
      vertex 9.5 16.4545 15
      vertex 9.5 -16.4545 15
      vertex 11.5665 -15.0737 15
    endloop
  endfacet
  facet normal 0 0 1
    outer loop
      vertex 7.27099 17.5537 15
      vertex 9.5 -16.4545 15
      vertex 9.5 16.4545 15
    endloop
  endfacet
  facet normal 0 0 1
    outer loop
      vertex 7.27099 17.5537 15
      vertex 7.27099 -17.5537 15
      vertex 9.5 -16.4545 15
    endloop
  endfacet
  facet normal 0 0 1
    outer loop
      vertex 4.91756 18.3526 15
      vertex 7.27099 -17.5537 15
      vertex 7.27099 17.5537 15
    endloop
  endfacet
  facet normal 0 0 1
    outer loop
      vertex 4.91756 18.3526 15
      vertex 4.91756 -18.3526 15
      vertex 7.27099 -17.5537 15
    endloop
  endfacet
  facet normal 0 0 1
    outer loop
      vertex 2.48 18.8375 15
      vertex 4.91756 -18.3526 15
      vertex 4.91756 18.3526 15
    endloop
  endfacet
  facet normal 0 0 1
    outer loop
      vertex 2.48 18.8375 15
      vertex 2.48 -18.8375 15
      vertex 4.91756 -18.3526 15
    endloop
  endfacet
  facet normal 0 0 1
    outer loop
      vertex 0 19 15
      vertex 2.48 -18.8375 15
      vertex 2.48 18.8375 15
    endloop
  endfacet
  facet normal 0 0 1
    outer loop
      vertex 0 19 15
      vertex -0 -19 15
      vertex 2.48 -18.8375 15
    endloop
  endfacet
  facet normal -0 0 1
    outer loop
      vertex -2.48 18.8375 15
      vertex -0 -19 15
      vertex 0 19 15
    endloop
  endfacet
  facet normal 0 0 1
    outer loop
      vertex -2.48 18.8375 15
      vertex -2.48 -18.8375 15
      vertex -0 -19 15
    endloop
  endfacet
  facet normal -0 0 1
    outer loop
      vertex -4.91756 18.3526 15
      vertex -2.48 -18.8375 15
      vertex -2.48 18.8375 15
    endloop
  endfacet
  facet normal 0 0 1
    outer loop
      vertex -4.91756 18.3526 15
      vertex -4.91756 -18.3526 15
      vertex -2.48 -18.8375 15
    endloop
  endfacet
  facet normal -0 0 1
    outer loop
      vertex -7.27099 17.5537 15
      vertex -4.91756 -18.3526 15
      vertex -4.91756 18.3526 15
    endloop
  endfacet
  facet normal 0 0 1
    outer loop
      vertex -7.27099 17.5537 15
      vertex -7.27099 -17.5537 15
      vertex -4.91756 -18.3526 15
    endloop
  endfacet
  facet normal -0 0 1
    outer loop
      vertex -9.5 16.4545 15
      vertex -7.27099 -17.5537 15
      vertex -7.27099 17.5537 15
    endloop
  endfacet
  facet normal 0 0 1
    outer loop
      vertex -9.5 16.4545 15
      vertex -9.5 -16.4545 15
      vertex -7.27099 -17.5537 15
    endloop
  endfacet
  facet normal -0 0 1
    outer loop
      vertex -11.5665 15.0737 15
      vertex -9.5 -16.4545 15
      vertex -9.5 16.4545 15
    endloop
  endfacet
  facet normal 0 0 1
    outer loop
      vertex -11.5665 15.0737 15
      vertex -11.5665 -15.0737 15
      vertex -9.5 -16.4545 15
    endloop
  endfacet
  facet normal -0 0 1
    outer loop
      vertex -13.435 13.435 15
      vertex -11.5665 -15.0737 15
      vertex -11.5665 15.0737 15
    endloop
  endfacet
  facet normal 0 0 1
    outer loop
      vertex -13.435 13.435 15
      vertex -13.435 -13.435 15
      vertex -11.5665 -15.0737 15
    endloop
  endfacet
  facet normal -0 0 1
    outer loop
      vertex -15.0737 11.5665 15
      vertex -13.435 -13.435 15
      vertex -13.435 13.435 15
    endloop
  endfacet
  facet normal 0 0 1
    outer loop
      vertex -15.0737 11.5665 15
      vertex -15.0737 -11.5665 15
      vertex -13.435 -13.435 15
    endloop
  endfacet
  facet normal -0 0 1
    outer loop
      vertex -16.4545 9.5 15
      vertex -15.0737 -11.5665 15
      vertex -15.0737 11.5665 15
    endloop
  endfacet
  facet normal 0 0 1
    outer loop
      vertex -16.4545 9.5 15
      vertex -16.4545 -9.5 15
      vertex -15.0737 -11.5665 15
    endloop
  endfacet
  facet normal -0 0 1
    outer loop
      vertex -17.5537 7.27099 15
      vertex -16.4545 -9.5 15
      vertex -16.4545 9.5 15
    endloop
  endfacet
  facet normal 0 0 1
    outer loop
      vertex -17.5537 7.27099 15
      vertex -17.5537 -7.27099 15
      vertex -16.4545 -9.5 15
    endloop
  endfacet
  facet normal -0 0 1
    outer loop
      vertex -18.3526 4.91756 15
      vertex -17.5537 -7.27099 15
      vertex -17.5537 7.27099 15
    endloop
  endfacet
  facet normal 0 0 1
    outer loop
      vertex -18.3526 4.91756 15
      vertex -18.3526 -4.91756 15
      vertex -17.5537 -7.27099 15
    endloop
  endfacet
  facet normal -0 0 1
    outer loop
      vertex -18.8375 2.48 15
      vertex -18.3526 -4.91756 15
      vertex -18.3526 4.91756 15
    endloop
  endfacet
  facet normal 0 0 1
    outer loop
      vertex -18.8375 2.48 15
      vertex -18.8375 -2.48 15
      vertex -18.3526 -4.91756 15
    endloop
  endfacet
  facet normal 0 -0 1
    outer loop
      vertex -18.8375 -2.48 15
      vertex -18.8375 2.48 15
      vertex -19 -0 15
    endloop
  endfacet
endsolid OpenSCAD_Model
