solid OpenSCAD_Model
  facet normal 1 -0 0
    outer loop
      vertex 60 -65 20
      vertex 60 65 -20
      vertex 60 65 20
    endloop
  endfacet
  facet normal 1 0 0
    outer loop
      vertex 60 65 -20
      vertex 60 -65 20
      vertex 60 -65 -20
    endloop
  endfacet
  facet normal 0 0 1
    outer loop
      vertex 60 65 20
      vertex 58.5 63.5 20
      vertex 60 -65 20
    endloop
  endfacet
  facet normal 0 0 1
    outer loop
      vertex 60 65 20
      vertex -58.5 63.5 20
      vertex 58.5 63.5 20
    endloop
  endfacet
  facet normal 0 0 1
    outer loop
      vertex -58.5 63.5 20
      vertex -60 65 20
      vertex -58.5 -63.5 20
    endloop
  endfacet
  facet normal -0 0 1
    outer loop
      vertex -60 65 20
      vertex -58.5 63.5 20
      vertex 60 65 20
    endloop
  endfacet
  facet normal -0 0 1
    outer loop
      vertex 58.5 -63.5 20
      vertex 60 -65 20
      vertex 58.5 63.5 20
    endloop
  endfacet
  facet normal -0 0 1
    outer loop
      vertex -58.5 -63.5 20
      vertex 60 -65 20
      vertex 58.5 -63.5 20
    endloop
  endfacet
  facet normal 0 0 1
    outer loop
      vertex -58.5 -63.5 20
      vertex -60 -65 20
      vertex 60 -65 20
    endloop
  endfacet
  facet normal 0 0 1
    outer loop
      vertex -60 -65 20
      vertex -58.5 -63.5 20
      vertex -60 65 20
    endloop
  endfacet
  facet normal 0 0 -1
    outer loop
      vertex -60 -65 -20
      vertex 60 65 -20
      vertex 60 -65 -20
    endloop
  endfacet
  facet normal -0 0 -1
    outer loop
      vertex 60 65 -20
      vertex -60 -65 -20
      vertex -60 65 -20
    endloop
  endfacet
  facet normal -1 0 0
    outer loop
      vertex -60 -65 -20
      vertex -60 65 20
      vertex -60 65 -20
    endloop
  endfacet
  facet normal -1 -0 0
    outer loop
      vertex -60 65 20
      vertex -60 -65 -20
      vertex -60 -65 20
    endloop
  endfacet
  facet normal 0 1 -0
    outer loop
      vertex 60 65 -20
      vertex -60 65 20
      vertex 60 65 20
    endloop
  endfacet
  facet normal 0 1 0
    outer loop
      vertex -60 65 20
      vertex 60 65 -20
      vertex -60 65 -20
    endloop
  endfacet
  facet normal 0 -1 0
    outer loop
      vertex -60 -65 -20
      vertex 60 -65 20
      vertex -60 -65 20
    endloop
  endfacet
  facet normal 0 -1 -0
    outer loop
      vertex 60 -65 20
      vertex -60 -65 -20
      vertex 60 -65 -20
    endloop
  endfacet
  facet normal -1 0 0
    outer loop
      vertex 58.5 -63.5 -18.5
      vertex 58.5 63.5 20
      vertex 58.5 63.5 -18.5
    endloop
  endfacet
  facet normal -1 -0 0
    outer loop
      vertex 58.5 63.5 20
      vertex 58.5 -63.5 -18.5
      vertex 58.5 -63.5 20
    endloop
  endfacet
  facet normal -0 0 1
    outer loop
      vertex -58.5 63.5 -18.5
      vertex 58.5 -63.5 -18.5
      vertex 58.5 63.5 -18.5
    endloop
  endfacet
  facet normal 0 0 1
    outer loop
      vertex 58.5 -63.5 -18.5
      vertex -58.5 63.5 -18.5
      vertex -58.5 -63.5 -18.5
    endloop
  endfacet
  facet normal 1 -0 0
    outer loop
      vertex -58.5 -63.5 20
      vertex -58.5 63.5 -18.5
      vertex -58.5 63.5 20
    endloop
  endfacet
  facet normal 1 0 0
    outer loop
      vertex -58.5 63.5 -18.5
      vertex -58.5 -63.5 20
      vertex -58.5 -63.5 -18.5
    endloop
  endfacet
  facet normal 0 -1 0
    outer loop
      vertex -58.5 63.5 -18.5
      vertex 58.5 63.5 20
      vertex -58.5 63.5 20
    endloop
  endfacet
  facet normal 0 -1 -0
    outer loop
      vertex 58.5 63.5 20
      vertex -58.5 63.5 -18.5
      vertex 58.5 63.5 -18.5
    endloop
  endfacet
  facet normal 0 1 -0
    outer loop
      vertex 58.5 -63.5 -18.5
      vertex -58.5 -63.5 20
      vertex 58.5 -63.5 20
    endloop
  endfacet
  facet normal 0 1 0
    outer loop
      vertex -58.5 -63.5 20
      vertex 58.5 -63.5 -18.5
      vertex -58.5 -63.5 -18.5
    endloop
  endfacet
endsolid OpenSCAD_Model
