solid OpenSCAD_Model
  facet normal 1 -0 0
    outer loop
      vertex 75 -30 2
      vertex 75 30 -2
      vertex 75 30 2
    endloop
  endfacet
  facet normal 1 0 0
    outer loop
      vertex 75 30 -2
      vertex 75 -30 2
      vertex 75 -30 -2
    endloop
  endfacet
  facet normal -0 0 1
    outer loop
      vertex -70 17.5 2
      vertex -60 -17.5 2
      vertex -60 17.5 2
    endloop
  endfacet
  facet normal 0 0 1
    outer loop
      vertex -60 -17.5 2
      vertex -70 17.5 2
      vertex -70 -17.5 2
    endloop
  endfacet
  facet normal -0 0 1
    outer loop
      vertex 60 17.5 2
      vertex 70 -17.5 2
      vertex 70 17.5 2
    endloop
  endfacet
  facet normal 0 0 1
    outer loop
      vertex 70 -17.5 2
      vertex 60 17.5 2
      vertex 60 -17.5 2
    endloop
  endfacet
  facet normal 0 0 1
    outer loop
      vertex 70 17.5 2
      vertex 75 30 2
      vertex 70 22.5 2
    endloop
  endfacet
  facet normal 0 0 1
    outer loop
      vertex 75 30 2
      vertex 60 22.5 2
      vertex 70 22.5 2
    endloop
  endfacet
  facet normal 0 0 1
    outer loop
      vertex -60 17.5 2
      vertex 60 17.5 2
      vertex 60 22.5 2
    endloop
  endfacet
  facet normal 0 0 1
    outer loop
      vertex 60 17.5 2
      vertex -60 17.5 2
      vertex 60 -17.5 2
    endloop
  endfacet
  facet normal 0 0 1
    outer loop
      vertex -60 17.5 2
      vertex 60 22.5 2
      vertex -60 22.5 2
    endloop
  endfacet
  facet normal 0 0 1
    outer loop
      vertex 75 30 2
      vertex -60 22.5 2
      vertex 60 22.5 2
    endloop
  endfacet
  facet normal -0 0 1
    outer loop
      vertex -75 30 2
      vertex -60 22.5 2
      vertex 75 30 2
    endloop
  endfacet
  facet normal 0 0 1
    outer loop
      vertex -75 30 2
      vertex -70 17.5 2
      vertex -70 22.5 2
    endloop
  endfacet
  facet normal 0 0 1
    outer loop
      vertex -70 17.5 2
      vertex -75 30 2
      vertex -70 -17.5 2
    endloop
  endfacet
  facet normal 0 0 1
    outer loop
      vertex -75 -30 2
      vertex -70 -17.5 2
      vertex -75 30 2
    endloop
  endfacet
  facet normal 0 0 1
    outer loop
      vertex -60 22.5 2
      vertex -75 30 2
      vertex -70 22.5 2
    endloop
  endfacet
  facet normal 0 0 1
    outer loop
      vertex 75 30 2
      vertex 70 17.5 2
      vertex 75 -30 2
    endloop
  endfacet
  facet normal -0 0 1
    outer loop
      vertex 70 -17.5 2
      vertex 75 -30 2
      vertex 70 17.5 2
    endloop
  endfacet
  facet normal -0 0 1
    outer loop
      vertex 70 -22.5 2
      vertex 75 -30 2
      vertex 70 -17.5 2
    endloop
  endfacet
  facet normal -0 0 1
    outer loop
      vertex 60 -22.5 2
      vertex 75 -30 2
      vertex 70 -22.5 2
    endloop
  endfacet
  facet normal 0 0 1
    outer loop
      vertex -60 -17.5 2
      vertex 60 -17.5 2
      vertex -60 17.5 2
    endloop
  endfacet
  facet normal 0 0 1
    outer loop
      vertex 60 -17.5 2
      vertex -60 -17.5 2
      vertex 60 -22.5 2
    endloop
  endfacet
  facet normal 0 0 1
    outer loop
      vertex -60 -22.5 2
      vertex 60 -22.5 2
      vertex -60 -17.5 2
    endloop
  endfacet
  facet normal 0 0 1
    outer loop
      vertex 60 -22.5 2
      vertex -60 -22.5 2
      vertex 75 -30 2
    endloop
  endfacet
  facet normal 0 0 1
    outer loop
      vertex -75 -30 2
      vertex -60 -22.5 2
      vertex -70 -22.5 2
    endloop
  endfacet
  facet normal 0 0 1
    outer loop
      vertex -60 -22.5 2
      vertex -75 -30 2
      vertex 75 -30 2
    endloop
  endfacet
  facet normal 0 0 1
    outer loop
      vertex -70 -17.5 2
      vertex -75 -30 2
      vertex -70 -22.5 2
    endloop
  endfacet
  facet normal 0 0 -1
    outer loop
      vertex -70 -17.5 -2
      vertex -60 17.5 -2
      vertex -60 -17.5 -2
    endloop
  endfacet
  facet normal -0 0 -1
    outer loop
      vertex -60 17.5 -2
      vertex -70 -17.5 -2
      vertex -70 17.5 -2
    endloop
  endfacet
  facet normal 0 0 -1
    outer loop
      vertex 60 -17.5 -2
      vertex 70 17.5 -2
      vertex 70 -17.5 -2
    endloop
  endfacet
  facet normal -0 0 -1
    outer loop
      vertex 70 17.5 -2
      vertex 60 -17.5 -2
      vertex 60 17.5 -2
    endloop
  endfacet
  facet normal 0 0 -1
    outer loop
      vertex 70 -17.5 -2
      vertex 75 -30 -2
      vertex 70 -22.5 -2
    endloop
  endfacet
  facet normal 0 0 -1
    outer loop
      vertex 75 -30 -2
      vertex 60 -22.5 -2
      vertex 70 -22.5 -2
    endloop
  endfacet
  facet normal 0 0 -1
    outer loop
      vertex -60 -17.5 -2
      vertex 60 -17.5 -2
      vertex 60 -22.5 -2
    endloop
  endfacet
  facet normal 0 0 -1
    outer loop
      vertex 60 -17.5 -2
      vertex -60 -17.5 -2
      vertex 60 17.5 -2
    endloop
  endfacet
  facet normal 0 0 -1
    outer loop
      vertex -60 -17.5 -2
      vertex 60 -22.5 -2
      vertex -60 -22.5 -2
    endloop
  endfacet
  facet normal 0 0 -1
    outer loop
      vertex 75 -30 -2
      vertex -60 -22.5 -2
      vertex 60 -22.5 -2
    endloop
  endfacet
  facet normal 0 0 -1
    outer loop
      vertex -75 -30 -2
      vertex -60 -22.5 -2
      vertex 75 -30 -2
    endloop
  endfacet
  facet normal 0 0 -1
    outer loop
      vertex -75 -30 -2
      vertex -70 -17.5 -2
      vertex -70 -22.5 -2
    endloop
  endfacet
  facet normal -0 0 -1
    outer loop
      vertex -70 -17.5 -2
      vertex -75 -30 -2
      vertex -70 17.5 -2
    endloop
  endfacet
  facet normal 0 0 -1
    outer loop
      vertex -75 30 -2
      vertex -70 17.5 -2
      vertex -75 -30 -2
    endloop
  endfacet
  facet normal -0 0 -1
    outer loop
      vertex -60 -22.5 -2
      vertex -75 -30 -2
      vertex -70 -22.5 -2
    endloop
  endfacet
  facet normal 0 0 -1
    outer loop
      vertex 75 -30 -2
      vertex 70 -17.5 -2
      vertex 75 30 -2
    endloop
  endfacet
  facet normal 0 0 -1
    outer loop
      vertex 70 17.5 -2
      vertex 75 30 -2
      vertex 70 -17.5 -2
    endloop
  endfacet
  facet normal 0 0 -1
    outer loop
      vertex 70 22.5 -2
      vertex 75 30 -2
      vertex 70 17.5 -2
    endloop
  endfacet
  facet normal 0 0 -1
    outer loop
      vertex 60 22.5 -2
      vertex 75 30 -2
      vertex 70 22.5 -2
    endloop
  endfacet
  facet normal 0 0 -1
    outer loop
      vertex -60 17.5 -2
      vertex 60 17.5 -2
      vertex -60 -17.5 -2
    endloop
  endfacet
  facet normal 0 0 -1
    outer loop
      vertex 60 17.5 -2
      vertex -60 17.5 -2
      vertex 60 22.5 -2
    endloop
  endfacet
  facet normal 0 0 -1
    outer loop
      vertex -60 22.5 -2
      vertex 60 22.5 -2
      vertex -60 17.5 -2
    endloop
  endfacet
  facet normal 0 0 -1
    outer loop
      vertex 60 22.5 -2
      vertex -60 22.5 -2
      vertex 75 30 -2
    endloop
  endfacet
  facet normal 0 0 -1
    outer loop
      vertex -75 30 -2
      vertex -60 22.5 -2
      vertex -70 22.5 -2
    endloop
  endfacet
  facet normal 0 0 -1
    outer loop
      vertex -60 22.5 -2
      vertex -75 30 -2
      vertex 75 30 -2
    endloop
  endfacet
  facet normal 0 0 -1
    outer loop
      vertex -70 17.5 -2
      vertex -75 30 -2
      vertex -70 22.5 -2
    endloop
  endfacet
  facet normal -1 0 0
    outer loop
      vertex -75 -30 -2
      vertex -75 30 2
      vertex -75 30 -2
    endloop
  endfacet
  facet normal -1 -0 0
    outer loop
      vertex -75 30 2
      vertex -75 -30 -2
      vertex -75 -30 2
    endloop
  endfacet
  facet normal 0 1 -0
    outer loop
      vertex 75 30 -2
      vertex -75 30 2
      vertex 75 30 2
    endloop
  endfacet
  facet normal 0 1 0
    outer loop
      vertex -75 30 2
      vertex 75 30 -2
      vertex -75 30 -2
    endloop
  endfacet
  facet normal 0 -1 0
    outer loop
      vertex -75 -30 -2
      vertex 75 -30 2
      vertex -75 -30 2
    endloop
  endfacet
  facet normal 0 -1 -0
    outer loop
      vertex 75 -30 2
      vertex -75 -30 -2
      vertex 75 -30 -2
    endloop
  endfacet
  facet normal -1 0 0
    outer loop
      vertex -60 -22.5 -2
      vertex -60 -17.5 2
      vertex -60 -17.5 -2
    endloop
  endfacet
  facet normal -1 -0 0
    outer loop
      vertex -60 -17.5 2
      vertex -60 -22.5 -2
      vertex -60 -22.5 2
    endloop
  endfacet
  facet normal 1 -0 0
    outer loop
      vertex -70 -22.5 2
      vertex -70 -17.5 -2
      vertex -70 -17.5 2
    endloop
  endfacet
  facet normal 1 0 0
    outer loop
      vertex -70 -17.5 -2
      vertex -70 -22.5 2
      vertex -70 -22.5 -2
    endloop
  endfacet
  facet normal 0 -1 0
    outer loop
      vertex -70 -17.5 -2
      vertex -60 -17.5 2
      vertex -70 -17.5 2
    endloop
  endfacet
  facet normal 0 -1 -0
    outer loop
      vertex -60 -17.5 2
      vertex -70 -17.5 -2
      vertex -60 -17.5 -2
    endloop
  endfacet
  facet normal 0 1 -0
    outer loop
      vertex -60 -22.5 -2
      vertex -70 -22.5 2
      vertex -60 -22.5 2
    endloop
  endfacet
  facet normal 0 1 0
    outer loop
      vertex -70 -22.5 2
      vertex -60 -22.5 -2
      vertex -70 -22.5 -2
    endloop
  endfacet
  facet normal -1 0 0
    outer loop
      vertex -60 17.5 -2
      vertex -60 22.5 2
      vertex -60 22.5 -2
    endloop
  endfacet
  facet normal -1 -0 0
    outer loop
      vertex -60 22.5 2
      vertex -60 17.5 -2
      vertex -60 17.5 2
    endloop
  endfacet
  facet normal 1 -0 0
    outer loop
      vertex -70 17.5 2
      vertex -70 22.5 -2
      vertex -70 22.5 2
    endloop
  endfacet
  facet normal 1 0 0
    outer loop
      vertex -70 22.5 -2
      vertex -70 17.5 2
      vertex -70 17.5 -2
    endloop
  endfacet
  facet normal 0 -1 0
    outer loop
      vertex -70 22.5 -2
      vertex -60 22.5 2
      vertex -70 22.5 2
    endloop
  endfacet
  facet normal 0 -1 -0
    outer loop
      vertex -60 22.5 2
      vertex -70 22.5 -2
      vertex -60 22.5 -2
    endloop
  endfacet
  facet normal 0 1 -0
    outer loop
      vertex -60 17.5 -2
      vertex -70 17.5 2
      vertex -60 17.5 2
    endloop
  endfacet
  facet normal 0 1 0
    outer loop
      vertex -70 17.5 2
      vertex -60 17.5 -2
      vertex -70 17.5 -2
    endloop
  endfacet
  facet normal -1 0 0
    outer loop
      vertex 70 -22.5 -2
      vertex 70 -17.5 2
      vertex 70 -17.5 -2
    endloop
  endfacet
  facet normal -1 -0 0
    outer loop
      vertex 70 -17.5 2
      vertex 70 -22.5 -2
      vertex 70 -22.5 2
    endloop
  endfacet
  facet normal 1 -0 0
    outer loop
      vertex 60 -22.5 2
      vertex 60 -17.5 -2
      vertex 60 -17.5 2
    endloop
  endfacet
  facet normal 1 0 0
    outer loop
      vertex 60 -17.5 -2
      vertex 60 -22.5 2
      vertex 60 -22.5 -2
    endloop
  endfacet
  facet normal 0 -1 0
    outer loop
      vertex 60 -17.5 -2
      vertex 70 -17.5 2
      vertex 60 -17.5 2
    endloop
  endfacet
  facet normal 0 -1 -0
    outer loop
      vertex 70 -17.5 2
      vertex 60 -17.5 -2
      vertex 70 -17.5 -2
    endloop
  endfacet
  facet normal 0 1 -0
    outer loop
      vertex 70 -22.5 -2
      vertex 60 -22.5 2
      vertex 70 -22.5 2
    endloop
  endfacet
  facet normal 0 1 0
    outer loop
      vertex 60 -22.5 2
      vertex 70 -22.5 -2
      vertex 60 -22.5 -2
    endloop
  endfacet
  facet normal -1 0 0
    outer loop
      vertex 70 17.5 -2
      vertex 70 22.5 2
      vertex 70 22.5 -2
    endloop
  endfacet
  facet normal -1 -0 0
    outer loop
      vertex 70 22.5 2
      vertex 70 17.5 -2
      vertex 70 17.5 2
    endloop
  endfacet
  facet normal 1 -0 0
    outer loop
      vertex 60 17.5 2
      vertex 60 22.5 -2
      vertex 60 22.5 2
    endloop
  endfacet
  facet normal 1 0 0
    outer loop
      vertex 60 22.5 -2
      vertex 60 17.5 2
      vertex 60 17.5 -2
    endloop
  endfacet
  facet normal 0 -1 0
    outer loop
      vertex 60 22.5 -2
      vertex 70 22.5 2
      vertex 60 22.5 2
    endloop
  endfacet
  facet normal 0 -1 -0
    outer loop
      vertex 70 22.5 2
      vertex 60 22.5 -2
      vertex 70 22.5 -2
    endloop
  endfacet
  facet normal 0 1 -0
    outer loop
      vertex 70 17.5 -2
      vertex 60 17.5 2
      vertex 70 17.5 2
    endloop
  endfacet
  facet normal 0 1 0
    outer loop
      vertex 60 17.5 2
      vertex 70 17.5 -2
      vertex 60 17.5 -2
    endloop
  endfacet
endsolid OpenSCAD_Model
