solid OpenSCAD_Model
  facet normal -0 0 1
    outer loop
      vertex -32.5 47.5 42.5
      vertex 32.5 -47.5 42.5
      vertex 32.5 47.5 42.5
    endloop
  endfacet
  facet normal 0 0 1
    outer loop
      vertex 32.5 -47.5 42.5
      vertex -32.5 47.5 42.5
      vertex -32.5 -47.5 42.5
    endloop
  endfacet
  facet normal 0 0 -1
    outer loop
      vertex -32.5 -47.5 -42.5
      vertex 32.5 47.5 -42.5
      vertex 32.5 -47.5 -42.5
    endloop
  endfacet
  facet normal -0 0 -1
    outer loop
      vertex 32.5 47.5 -42.5
      vertex -32.5 -47.5 -42.5
      vertex -32.5 47.5 -42.5
    endloop
  endfacet
  facet normal 0 -1 0
    outer loop
      vertex -32.5 -47.5 -42.5
      vertex 32.5 -47.5 42.5
      vertex -32.5 -47.5 42.5
    endloop
  endfacet
  facet normal 0 -1 -0
    outer loop
      vertex 32.5 -47.5 42.5
      vertex -32.5 -47.5 -42.5
      vertex 32.5 -47.5 -42.5
    endloop
  endfacet
  facet normal 1 -0 0
    outer loop
      vertex 32.5 -47.5 42.5
      vertex 32.5 47.5 -42.5
      vertex 32.5 47.5 42.5
    endloop
  endfacet
  facet normal 1 0 0
    outer loop
      vertex 32.5 47.5 -42.5
      vertex 32.5 -47.5 42.5
      vertex 32.5 -47.5 -42.5
    endloop
  endfacet
  facet normal 0 1 -0
    outer loop
      vertex 32.5 47.5 -42.5
      vertex -32.5 47.5 42.5
      vertex 32.5 47.5 42.5
    endloop
  endfacet
  facet normal 0 1 0
    outer loop
      vertex -32.5 47.5 42.5
      vertex 32.5 47.5 -42.5
      vertex -32.5 47.5 -42.5
    endloop
  endfacet
  facet normal -1 0 0
    outer loop
      vertex -32.5 -47.5 -42.5
      vertex -32.5 47.5 42.5
      vertex -32.5 47.5 -42.5
    endloop
  endfacet
  facet normal -1 -0 0
    outer loop
      vertex -32.5 47.5 42.5
      vertex -32.5 -47.5 -42.5
      vertex -32.5 -47.5 42.5
    endloop
  endfacet
endsolid OpenSCAD_Model
