$MeshFormat
4.1 0 8
$EndMeshFormat
$PhysicalNames
2
2 2 "boundary"
3 1 "domain"
$EndPhysicalNames
$Entities
10 15 7 1
1 0 0 0 0 
2 0 0 4 0 
3 0 12 0 0 
4 0 12 4 0 
5 20 0 0 0 
6 20 0 4 0 
7 20 12 4 0 
8 12 6 4 0 
9 20 12 0 0 
10 12 6 0 0 
1 -1e-07 -1e-07 -9.999999983634211e-08 1e-07 1e-07 4.0000001 0 2 1 -2 
2 -1e-07 -1.000000002804313e-07 -1e-07 1e-07 12.0000001 1e-07 0 2 1 -3 
3 -1e-07 11.9999999 -9.999999983634211e-08 1e-07 12.0000001 4.0000001 0 2 3 -4 
4 -1e-07 -1.000000002804313e-07 3.9999999 1e-07 12.0000001 4.0000001 0 2 2 -4 
5 -9.99999993922529e-08 -1e-07 -1e-07 20.0000001 1e-07 1e-07 0 2 1 -5 
6 -9.99999993922529e-08 -1e-07 3.9999999 20.0000001 1e-07 4.0000001 0 2 2 -6 
7 19.9999999 -1e-07 -9.999999983634211e-08 20.0000001 1e-07 4.0000001 0 2 5 -6 
8 19.9999999 -1.000000002804313e-07 3.9999999 20.0000001 12.0000001 4.0000001 0 2 6 -7 
9 -9.99999993922529e-08 11.9999999 3.9999999 20.0000001 12.0000001 4.0000001 0 2 4 -7 
10 7.9999999 3.9999999 3.9999999 12.0000001 8.000000099999999 4.0000001 0 2 8 -8 
11 -9.99999993922529e-08 11.9999999 -1e-07 20.0000001 12.0000001 1e-07 0 2 3 -9 
12 19.9999999 11.9999999 -9.999999983634211e-08 20.0000001 12.0000001 4.0000001 0 2 9 -7 
13 19.9999999 -1.000000002804313e-07 -1e-07 20.0000001 12.0000001 1e-07 0 2 5 -9 
14 7.9999999 3.9999999 -1e-07 12.0000001 8.000000099999999 1e-07 0 2 10 -10 
15 11.9999999 5.9999999 -9.999999983634211e-08 12.0000001 6.0000001 4.0000001 0 2 10 -8 
1 -1e-07 -1.000000002804313e-07 -9.999999983634211e-08 1e-07 12.0000001 4.0000001 1 2 4 -1 2 3 -4 
2 -9.99999993922529e-08 -1e-07 -9.999999983634211e-08 20.0000001 1e-07 4.0000001 1 2 4 -5 1 6 -7 
3 -9.99999993922529e-08 -1.000000002804313e-07 3.9999999 20.0000001 12.0000001 4.0000001 1 2 5 -4 6 8 -9 -10 
4 -9.99999993922529e-08 11.9999999 -9.999999983634211e-08 20.0000001 12.0000001 4.0000001 1 2 4 -11 3 9 -12 
5 -9.99999993922529e-08 -1.000000002804313e-07 -1e-07 20.0000001 12.0000001 1e-07 1 2 5 -2 5 13 -11 -14 
6 19.9999999 -1.000000002804313e-07 -9.999999983634211e-08 20.0000001 12.0000001 4.0000001 1 2 4 -7 13 12 -8 
7 7.9999999 3.9999999 -9.999999983634211e-08 12.0000001 8.000000099999999 4.0000001 1 2 4 -10 -15 14 15 
1 -9.99999993922529e-08 -1.000000002804313e-07 -9.999999983634211e-08 20.0000001 12.0000001 4.0000001 1 1 7 -1 -2 3 4 -5 6 -7 
$EndEntities
$Nodes
33 260 1 260
0 1 0 1
1
0 0 0
0 2 0 1
2
0 0 4
0 3 0 1
3
0 12 0
0 4 0 1
4
0 12 4
0 5 0 1
5
20 0 0
0 6 0 1
6
20 0 4
0 7 0 1
7
20 12 4
0 8 0 1
8
12 6 4
0 9 0 1
9
20 12 0
0 10 0 1
10
12 6 0
1 1 0 1
11
0 0 2.000000000000007
1 2 0 5
12
13
14
15
16
0 1.999999999999997 0
0 3.99999999999999 0
0 5.999999999999989 0
0 7.999999999999993 0
0 9.999999999999996 0
1 3 0 1
17
0 12 2.000000000000007
1 4 0 5
18
19
20
21
22
0 1.999999999999997 4
0 3.99999999999999 4
0 5.999999999999989 4
0 7.999999999999993 4
0 9.999999999999996 4
1 5 0 8
23
24
25
26
27
28
29
30
2.222222222222223 0 0
4.444444444444445 0 0
6.666666666666666 0 0
8.888888888888888 0 0
11.11111111111111 0 0
13.33333333333333 0 0
15.55555555555555 0 0
17.77777777777778 0 0
1 6 0 8
31
32
33
34
35
36
37
38
2.222222222222223 0 4
4.444444444444445 0 4
6.666666666666666 0 4
8.888888888888888 0 4
11.11111111111111 0 4
13.33333333333333 0 4
15.55555555555555 0 4
17.77777777777778 0 4
1 7 0 1
39
20 0 2.000000000000007
1 8 0 5
40
41
42
43
44
20 1.999999999999997 4
20 3.99999999999999 4
20 5.999999999999989 4
20 7.999999999999993 4
20 9.999999999999996 4
1 9 0 8
45
46
47
48
49
50
51
52
2.222222222222223 12 4
4.444444444444445 12 4
6.666666666666666 12 4
8.888888888888888 12 4
11.11111111111111 12 4
13.33333333333333 12 4
15.55555555555555 12 4
17.77777777777778 12 4
1 10 0 6
53
54
55
56
57
58
11.24697960371747 7.563662964936061 4
9.554958132087371 7.949855824363647 4
8.198062264195162 6.867767478235114 4
8.198062264195162 5.132232521764883 4
9.554958132087371 4.050144175636353 4
11.24697960371747 4.436337035063941 4
1 11 0 8
59
60
61
62
63
64
65
66
2.222222222222223 12 0
4.444444444444445 12 0
6.666666666666666 12 0
8.888888888888888 12 0
11.11111111111111 12 0
13.33333333333333 12 0
15.55555555555555 12 0
17.77777777777778 12 0
1 12 0 1
67
20 12 2.000000000000007
1 13 0 5
68
69
70
71
72
20 1.999999999999997 0
20 3.99999999999999 0
20 5.999999999999989 0
20 7.999999999999993 0
20 9.999999999999996 0
1 14 0 6
73
74
75
76
77
78
11.24697960371747 7.563662964936061 0
9.554958132087371 7.949855824363647 0
8.198062264195162 6.867767478235114 0
8.198062264195162 5.132232521764883 0
9.554958132087371 4.050144175636353 0
11.24697960371747 4.436337035063941 0
1 15 0 1
79
12 6 2.000000000000007
2 1 0 8
80
81
82
83
84
85
86
87
0 2.999999999999994 1.732050807568871
0 6.996531297882148 2.070548943818751
0 8.999999999999995 1.73205080756888
0 4.985433810766351 2.089736187189582
0 1.314903332318047 2.532635433673371
0 10.68509666768195 2.532635433673371
0 1.159624267447218 1.155964129613708
0 10.84037573255278 1.155964129613708
2 2 0 10
88
89
90
91
92
93
94
95
96
97
12.22262597186896 0 1.999783854053217
5.555349405790005 0 1.975037048934775
16.90514692257798 0 2.079471795177581
9.99966323806731 0 2.011848007245825
3.427320375396161 0 1.933641064108114
14.48425844537079 0 2.0132092748718
7.777687292494737 0 1.9978141760301
18.52416179195724 0 1.519589748667509
1.675239513253629 0 1.62680933571391
18.80477992877112 0 2.897890783079091
2 3 0 55
98
99
100
101
102
103
104
105
106
107
108
109
110
111
112
113
114
115
116
117
118
119
120
121
122
123
124
125
126
127
128
129
130
131
132
133
134
135
136
137
138
139
140
141
142
143
144
145
146
147
148
149
150
151
152
6.695044902736022 5.999999999999998 4
18.37240399205749 5.005849780932352 4
12.98862841556896 4.59534336034969 4
13.74920463082549 6.142325172361959 4
1.625592343602337 5.003070925771617 4
6.610908007446664 7.643912653656625 4
6.584470457795874 3.928130491935033 4
16.60457429225758 10.09787322760597 4
3.357361760702888 10.05073571232397 4
5.048195425309274 6.888488321300112 4
14.72540782738606 4.603273383477506 4
15.51140228402773 6.096328779797074 4
14.53694005250901 7.639160754695326 4
16.66118602573453 1.920468930324481 4
3.276707049024617 2.015482995478056 4
12.41330116814622 3.048703075351206 4
12.22226223610476 10.15602280407781 4
7.64375565185175 10.30382440795048 4
7.629586801438126 1.885183158990013 4
9.804479547446684 9.981400417046185 4
9.947292642591282 1.894070290310553 4
14.39703789744969 10.38279343513947 4
5.618878936074205 10.34630297879199 4
5.516181201736419 1.927199638508361 4
4.48900866669015 3.848695497843414 4
14.2209596654412 1.810544399858158 4
16.52018484446798 7.832805817464132 4
18.37724002253322 6.967292684050028 4
1.687891376544643 6.980660988287778 4
3.491576691538247 5.697929356194781 4
3.378603212202917 7.847332867221309 4
1.72006230462117 8.938470611586137 4
18.28809842474219 3.03489949409627 4
16.57976437569215 4.248177658169239 4
1.55953429831029 3.077260653423695 4
18.33246213341286 8.909640612692145 4
12.72836286662418 7.562074562883423 4
5.261659228813913 5.272648733454668 4
8.074446163550972 8.657051053349081 4
8.081939239721779 3.594827881383938 4
5.038748588056253 8.59625343730225 4
13.95307925570156 3.426857491518711 4
12.02535061215762 1.543873178734419 4
17.08275287393169 5.999999999999992 4
2.888483809833128 3.928487885742312 4
11.03757643173999 2.994625551019295 4
11.30729515466419 8.875942824886854 4
13.34468808485427 8.993337526062476 4
1.477830285610053 10.582117809844 4
18.5454124456509 1.39107368488415 4
18.52862306941213 10.58960824776623 4
1.411692713911426 1.418548729780349 4
15.36789580442936 3.109076595000308 4
15.27958206077764 9.020248856252955 4
6.607966300505181 9.13406222981933 4
2 4 0 11
153
154
155
156
157
158
159
160
161
162
163
12.22262597186896 12 1.999783854053217
5.555540542906648 12 2.024598203783794
16.90514692257798 12 2.079471795177581
10.00001931980405 12 2.028309481830666
3.095197003883665 12 1.91385606060709
7.777727848034012 12 1.986269719041572
14.48425844537079 12 2.0132092748718
18.52416179195724 12 1.519589748667509
1.475873302579656 12 2.479729420290113
18.80477992877112 12 2.897890783079091
1.195247696666089 12 1.101573285779682
2 5 0 55
164
165
166
167
168
169
170
171
172
173
174
175
176
177
178
179
180
181
182
183
184
185
186
187
188
189
190
191
192
193
194
195
196
197
198
199
200
201
202
203
204
205
206
207
208
209
210
211
212
213
214
215
216
217
218
6.695044902736022 5.999999999999998 0
18.3724039920575 5.005849780932353 0
12.98862841556896 4.595343360349689 0
13.74920463082549 6.142325172361958 0
1.625592343602337 5.003070925771617 0
6.610908007446664 7.643912653656625 0
6.584470457795874 3.928130491935033 0
16.60457429225758 10.09787322760597 0
3.357361760702888 10.05073571232397 0
5.048195425309274 6.888488321300112 0
14.72540782738606 4.603273383477508 0
15.51140228402772 6.096328779797074 0
14.53694005250901 7.639160754695324 0
16.66118602573453 1.920468930324483 0
3.276707049024617 2.015482995478056 0
12.41330116814622 3.048703075351205 0
12.22226223610476 10.15602280407781 0
7.64375565185175 10.30382440795048 0
7.629586801438126 1.885183158990013 0
9.804479547446682 9.981400417046183 0
9.947292642591282 1.894070290310553 0
14.39703789744969 10.38279343513947 0
5.618878936074205 10.34630297879199 0
5.516181201736419 1.927199638508361 0
4.48900866669015 3.848695497843414 0
14.2209596654412 1.810544399858159 0
16.52018484446798 7.832805817464131 0
18.37724002253322 6.967292684050028 0
1.687891376544643 6.980660988287778 0
3.491576691538247 5.697929356194781 0
3.378603212202917 7.847332867221309 0
1.72006230462117 8.938470611586137 0
18.28809842474219 3.034899494096272 0
16.57976437569215 4.24817765816924 0
1.55953429831029 3.077260653423695 0
18.33246213341286 8.909640612692144 0
12.72836286662418 7.562074562883421 0
5.261659228813913 5.272648733454668 0
8.074446163550972 8.657051053349079 0
8.081939239721779 3.594827881383938 0
5.038748588056253 8.59625343730225 0
13.95307925570156 3.426857491518712 0
12.02535061215762 1.543873178734418 0
17.0827528739317 5.999999999999994 0
2.888483809833128 3.928487885742312 0
11.03757643173999 2.994625551019295 0
11.30729515466419 8.875942824886852 0
13.34468808485427 8.993337526062474 0
1.477830285610053 10.582117809844 0
18.5454124456509 1.39107368488415 0
18.52862306941213 10.58960824776623 0
1.411692713911426 1.418548729780349 0
15.36789580442936 3.109076595000312 0
15.27958206077765 9.020248856252959 0
6.607966300505181 9.13406222981933 0
2 6 0 8
219
220
221
222
223
224
225
226
20 2.999999999999994 2.267949192431129
20 6.995143817035009 1.997858777885682
20 8.999999999999995 2.204634925988026
20 4.985315827701118 1.91608079594855
20 1.314903332318048 1.467364566326632
20 10.68808114961961 1.453578446738782
20 10.81396311694585 2.81091538460985
20 1.159624267447221 2.844035870386293
2 7 0 14
227
228
229
230
231
232
233
234
235
236
237
238
239
240
10.44504186791263 4.050144175636353 2.510089758290861
10.3071548858949 7.976273229103428 1.505863027823591
8 5.999999999999998 1.489910241709139
8.732259041416256 7.546878425064222 2.549662027305198
8.54141058344838 4.631600601460375 2.639776990681984
8.753020396282533 7.56366296493606 1.076487161616424
8.980597882539332 4.279296852180276 1.274836100869684
10.41918051330522 4.044421390670994 1.041741550548583
8.001020966950527 6.063896990763213 2.910921958995898
10.3243904829842 7.973517371230686 2.929917144864723
11.59910953172866 7.201186374187853 1.284809713516453
11.55447032587766 7.258420440856638 2.686728887254548
11.62311741041527 4.831458228385982 2.719795033798858
11.55359407871621 4.740497940224819 1.319473464554748
3 1 0 20
241
242
243
244
245
246
247
248
249
250
251
252
253
254
255
256
257
258
259
260
13.85824390149385 4.330846418968867 2
5.986973674353046 8.387758635470394 2
14.63739034813966 6.39083744650237 2
5.715357726214049 6.154605334930931 2
14.31713132288226 8.647568504489799 1.999999999999999
15.93653644711481 3.718303144152832 2
2.69595283834126 4.981608975188805 2
12.22594531554458 9.159216375301495 1.927670109635238
17.29372032123478 7.067496348287367 2.000000000000001
2.912316944491613 8.944641539926049 2
17.69653459577866 9.835330663141079 2
11.0826554084423 1.963669256959841 1.991079438612255
18.03218348351976 2.057997847635892 2.000000000000001
2.535352507858455 2.735966425243798 2
5.563302844727414 3.187684756296919 2
8.773115758950615 2.092573771701272 2
17.65295961848822 4.972342397205598 1.999999999999999
8.671007785389566 9.786697071212517 2
3.682336683265272 6.9151793114646 2.062379234525173
13.30293938463134 2.171121053811028 2
$EndNodes
$Elements
8 1216 1 1216
2 1 2 30
1 1 11 86 
2 12 1 86 
3 11 2 84 
4 2 18 84 
5 3 16 87 
6 17 3 87 
7 4 17 85 
8 22 4 85 
9 11 84 86 
10 13 12 80 
11 80 12 86 
12 14 13 83 
13 13 80 83 
14 15 14 81 
15 81 14 83 
16 16 15 82 
17 15 81 82 
18 16 82 87 
19 85 17 87 
20 18 19 80 
21 18 80 84 
22 19 20 83 
23 80 19 83 
24 20 21 81 
25 20 81 83 
26 21 22 82 
27 81 21 82 
28 82 22 85 
29 84 80 86 
30 82 85 87 
2 2 2 40
31 11 1 96 
32 1 23 96 
33 2 11 96 
34 31 2 96 
35 30 5 95 
36 5 39 95 
37 6 38 97 
38 39 6 97 
39 23 24 92 
40 23 92 96 
41 24 25 89 
42 24 89 92 
43 25 26 94 
44 89 25 94 
45 26 27 91 
46 26 91 94 
47 27 28 88 
48 27 88 91 
49 28 29 93 
50 88 28 93 
51 29 30 90 
52 29 90 93 
53 90 30 95 
54 32 31 92 
55 92 31 96 
56 33 32 89 
57 89 32 92 
58 34 33 94 
59 33 89 94 
60 35 34 91 
61 91 34 94 
62 36 35 88 
63 88 35 91 
64 37 36 93 
65 36 88 93 
66 38 37 90 
67 90 37 93 
68 38 90 97 
69 95 39 97 
70 90 95 97 
2 3 2 147
71 2 149 18 
72 31 149 2 
73 22 146 4 
74 4 146 45 
75 6 147 38 
76 40 147 6 
77 7 148 44 
78 52 148 7 
79 8 134 53 
80 58 100 8 
81 100 101 8 
82 101 134 8 
83 18 132 19 
84 18 149 132 
85 19 102 20 
86 19 132 102 
87 20 126 21 
88 102 126 20 
89 21 129 22 
90 126 129 21 
91 129 146 22 
92 32 112 31 
93 112 149 31 
94 33 121 32 
95 32 121 112 
96 34 116 33 
97 116 121 33 
98 35 118 34 
99 34 118 116 
100 36 140 35 
101 35 140 118 
102 37 123 36 
103 123 140 36 
104 38 111 37 
105 111 123 37 
106 38 147 111 
107 41 130 40 
108 130 147 40 
109 42 99 41 
110 99 130 41 
111 43 125 42 
112 42 125 99 
113 44 133 43 
114 43 133 125 
115 44 148 133 
116 45 106 46 
117 45 146 106 
118 46 120 47 
119 106 120 46 
120 47 115 48 
121 47 120 115 
122 48 117 49 
123 115 117 48 
124 49 114 50 
125 49 117 114 
126 50 119 51 
127 114 119 50 
128 51 105 52 
129 51 119 105 
130 105 148 52 
131 53 144 54 
132 134 144 53 
133 54 136 55 
134 117 136 54 
135 54 144 117 
136 55 98 56 
137 55 103 98 
138 55 136 103 
139 56 137 57 
140 98 104 56 
141 104 137 56 
142 57 143 58 
143 57 137 118 
144 118 143 57 
145 58 113 100 
146 58 143 113 
147 103 107 98 
148 98 135 104 
149 107 135 98 
150 125 141 99 
151 99 131 130 
152 99 141 131 
153 100 108 101 
154 100 139 108 
155 113 139 100 
156 108 109 101 
157 109 110 101 
158 110 134 101 
159 102 127 126 
160 102 142 127 
161 132 142 102 
162 103 138 107 
163 136 152 103 
164 103 152 138 
165 104 121 116 
166 116 137 104 
167 104 122 121 
168 104 135 122 
169 119 151 105 
170 124 133 105 
171 105 151 124 
172 133 148 105 
173 106 138 120 
174 106 129 128 
175 128 138 106 
176 106 146 129 
177 107 128 127 
178 127 135 107 
179 107 138 128 
180 108 131 109 
181 108 150 131 
182 139 150 108 
183 109 124 110 
184 109 141 124 
185 131 141 109 
186 124 151 110 
187 110 145 134 
188 110 151 145 
189 111 150 123 
190 130 131 111 
191 111 147 130 
192 131 150 111 
193 121 122 112 
194 122 142 112 
195 112 142 132 
196 132 149 112 
197 123 139 113 
198 113 140 123 
199 113 143 140 
200 117 144 114 
201 114 145 119 
202 144 145 114 
203 115 136 117 
204 120 152 115 
205 115 152 136 
206 118 137 116 
207 140 143 118 
208 145 151 119 
209 138 152 120 
210 122 135 127 
211 127 142 122 
212 123 150 139 
213 125 133 124 
214 124 141 125 
215 127 128 126 
216 128 129 126 
217 134 145 144 
2 4 2 42
218 17 163 3 
219 3 163 59 
220 4 161 17 
221 45 161 4 
222 7 162 52 
223 67 162 7 
224 66 160 9 
225 9 160 67 
226 161 163 17 
227 46 157 45 
228 157 161 45 
229 47 154 46 
230 154 157 46 
231 48 158 47 
232 47 158 154 
233 49 156 48 
234 156 158 48 
235 50 153 49 
236 153 156 49 
237 51 159 50 
238 50 159 153 
239 52 155 51 
240 155 159 51 
241 52 162 155 
242 59 157 60 
243 59 163 157 
244 60 154 61 
245 60 157 154 
246 61 158 62 
247 154 158 61 
248 62 156 63 
249 62 158 156 
250 63 153 64 
251 63 156 153 
252 64 159 65 
253 153 159 64 
254 65 155 66 
255 65 159 155 
256 155 160 66 
257 160 162 67 
258 155 162 160 
259 157 163 161 
2 5 2 147
260 1 12 215 
261 23 1 215 
262 16 3 212 
263 3 59 212 
264 5 30 213 
265 68 5 213 
266 66 9 214 
267 9 72 214 
268 10 73 200 
269 78 10 166 
270 166 10 167 
271 167 10 200 
272 12 13 198 
273 12 198 215 
274 13 14 168 
275 13 168 198 
276 14 15 192 
277 168 14 192 
278 15 16 195 
279 192 15 195 
280 195 16 212 
281 24 23 178 
282 178 23 215 
283 25 24 187 
284 24 178 187 
285 26 25 182 
286 182 25 187 
287 27 26 184 
288 26 182 184 
289 28 27 206 
290 27 184 206 
291 29 28 189 
292 189 28 206 
293 30 29 177 
294 177 29 189 
295 30 177 213 
296 59 60 172 
297 59 172 212 
298 60 61 186 
299 172 60 186 
300 61 62 181 
301 61 181 186 
302 62 63 183 
303 181 62 183 
304 63 64 180 
305 63 180 183 
306 64 65 185 
307 180 64 185 
308 65 66 171 
309 65 171 185 
310 171 66 214 
311 69 68 196 
312 196 68 213 
313 70 69 165 
314 165 69 196 
315 71 70 191 
316 70 165 191 
317 72 71 199 
318 71 191 199 
319 72 199 214 
320 73 74 210 
321 200 73 210 
322 74 75 202 
323 183 74 202 
324 74 183 210 
325 75 76 164 
326 75 164 169 
327 75 169 202 
328 76 77 203 
329 164 76 170 
330 170 76 203 
331 77 78 209 
332 77 184 203 
333 184 77 209 
334 78 166 179 
335 78 179 209 
336 169 164 173 
337 164 170 201 
338 173 164 201 
339 191 165 207 
340 165 196 197 
341 165 197 207 
342 166 167 174 
343 166 174 205 
344 179 166 205 
345 174 167 175 
346 175 167 176 
347 176 167 200 
348 168 192 193 
349 168 193 208 
350 198 168 208 
351 169 173 204 
352 202 169 218 
353 169 204 218 
354 170 182 187 
355 182 170 203 
356 170 187 188 
357 170 188 201 
358 185 171 217 
359 190 171 199 
360 171 190 217 
361 199 171 214 
362 172 186 204 
363 172 194 195 
364 194 172 204 
365 172 195 212 
366 173 193 194 
367 193 173 201 
368 173 194 204 
369 174 175 197 
370 174 197 216 
371 205 174 216 
372 175 176 190 
373 175 190 207 
374 197 175 207 
375 190 176 217 
376 176 200 211 
377 176 211 217 
378 177 189 216 
379 196 177 197 
380 177 196 213 
381 197 177 216 
382 187 178 188 
383 188 178 208 
384 178 198 208 
385 198 178 215 
386 189 179 205 
387 179 189 206 
388 179 206 209 
389 183 180 210 
390 180 185 211 
391 210 180 211 
392 181 183 202 
393 186 181 218 
394 181 202 218 
395 184 182 203 
396 206 184 209 
397 211 185 217 
398 204 186 218 
399 188 193 201 
400 193 188 208 
401 189 205 216 
402 191 190 199 
403 190 191 207 
404 193 192 194 
405 194 192 195 
406 200 210 211 
2 6 2 30
407 5 223 39 
408 68 223 5 
409 39 226 6 
410 6 226 40 
411 44 225 7 
412 7 225 67 
413 67 224 9 
414 9 224 72 
415 223 226 39 
416 40 219 41 
417 40 226 219 
418 41 222 42 
419 219 222 41 
420 42 220 43 
421 42 222 220 
422 43 221 44 
423 220 221 43 
424 221 225 44 
425 67 225 224 
426 69 219 68 
427 219 223 68 
428 70 222 69 
429 69 222 219 
430 71 220 70 
431 220 222 70 
432 72 221 71 
433 71 221 220 
434 72 224 221 
435 219 226 223 
436 224 225 221 
2 7 2 44
437 8 53 238 
438 58 8 239 
439 79 8 238 
440 8 79 239 
441 73 10 237 
442 10 78 240 
443 10 79 237 
444 79 10 240 
445 53 54 236 
446 53 236 238 
447 54 55 230 
448 54 230 236 
449 55 56 235 
450 230 55 235 
451 56 57 231 
452 56 231 235 
453 57 58 227 
454 57 227 231 
455 227 58 239 
456 74 73 228 
457 228 73 237 
458 75 74 232 
459 74 228 232 
460 76 75 229 
461 229 75 232 
462 77 76 233 
463 76 229 233 
464 78 77 234 
465 77 233 234 
466 78 234 240 
467 237 79 238 
468 239 79 240 
469 231 227 233 
470 233 227 234 
471 234 227 240 
472 227 239 240 
473 228 230 232 
474 230 228 236 
475 236 228 238 
476 228 237 238 
477 230 229 232 
478 229 230 235 
479 229 231 233 
480 231 229 235 
3 1 4 736
481 154 186 242 250 
482 154 242 120 250 
483 159 245 171 251 
484 159 105 245 251 
485 122 135 244 247 
486 188 244 201 247 
487 185 217 171 245 
488 151 119 105 245 
489 229 231 244 255 
490 185 171 159 245 
491 190 217 245 251 
492 124 245 151 251 
493 119 159 105 245 
494 238 243 237 245 
495 236 248 228 258 
496 238 79 237 243 
497 124 249 245 251 
498 190 245 249 251 
499 171 245 217 251 
500 151 245 105 251 
501 204 242 186 250 
502 120 242 138 250 
503 154 172 186 250 
504 154 120 106 250 
505 122 244 135 255 
506 188 201 244 255 
507 231 235 229 244 
508 159 155 105 251 
509 231 104 235 244 
510 237 243 200 245 
511 238 134 243 245 
512 159 171 155 251 
513 122 247 244 255 
514 244 247 188 255 
515 233 231 255 256 
516 90 177 93 246 
517 111 90 93 246 
518 229 170 231 255 
519 229 244 170 255 
520 104 244 231 255 
521 81 247 192 259 
522 154 157 172 250 
523 81 192 250 259 
524 154 106 157 250 
525 126 247 81 259 
526 235 103 242 244 
527 235 103 230 242 
528 94 255 116 256 
529 94 182 255 256 
530 236 117 248 258 
531 81 250 126 259 
532 112 92 254 255 
533 85 161 146 250 
534 175 243 246 257 
535 109 246 243 257 
536 169 229 232 242 
537 178 254 92 255 
538 233 231 170 255 
539 177 246 90 253 
540 89 116 94 255 
541 212 163 87 161 
542 235 230 229 242 
543 89 94 182 255 
544 229 235 242 244 
545 111 90 246 253 
546 112 121 92 255 
547 238 134 79 243 
548 240 241 239 260 
549 193 201 244 247 
550 92 121 89 255 
551 187 178 92 255 
552 120 138 106 250 
553 204 186 172 250 
554 200 237 79 243 
555 159 245 119 248 
556 104 98 235 244 
557 156 248 117 258 
558 121 116 89 255 
559 92 89 187 255 
560 139 246 150 260 
561 205 216 246 260 
562 183 248 156 258 
563 159 185 245 248 
564 146 129 85 250 
565 182 187 89 255 
566 82 87 85 250 
567 241 246 139 260 
568 205 246 241 260 
569 175 249 243 257 
570 243 249 109 257 
571 229 230 232 242 
572 243 245 124 249 
573 190 245 243 249 
574 183 228 248 258 
575 79 134 101 243 
576 79 167 200 243 
577 240 239 252 260 
578 203 233 255 256 
579 168 192 81 247 
580 82 212 87 250 
581 81 129 126 250 
582 237 238 245 248 
583 229 170 233 231 
584 141 109 249 257 
585 175 207 249 257 
586 234 209 240 252 
587 232 242 230 258 
588 79 166 167 241 
589 79 101 100 241 
590 229 242 169 244 
591 81 126 102 247 
592 174 243 241 246 
593 241 243 108 246 
594 102 132 83 247 
595 236 117 144 248 
596 125 220 99 257 
597 159 119 153 248 
598 168 81 83 247 
599 110 124 243 245 
600 190 176 243 245 
601 227 240 239 252 
602 220 125 133 249 
603 220 199 191 249 
604 137 255 231 256 
605 156 153 114 248 
606 193 247 244 259 
607 159 153 185 248 
608 82 192 195 250 
609 175 243 174 246 
610 109 108 243 246 
611 114 117 156 248 
612 153 156 180 248 
613 161 212 157 250 
614 81 102 83 247 
615 79 241 167 243 
616 101 241 79 243 
617 232 202 242 258 
618 168 80 198 247 
619 114 153 119 248 
620 188 247 254 255 
621 122 254 247 255 
622 156 183 180 248 
623 122 127 135 247 
624 193 188 201 247 
625 233 170 203 255 
626 218 242 202 258 
627 136 242 152 258 
628 113 239 241 260 
629 165 222 191 257 
630 153 180 185 248 
631 229 164 170 244 
632 81 82 129 250 
633 200 243 176 245 
634 110 243 134 245 
635 163 212 157 161 
636 85 129 82 250 
637 169 232 202 242 
638 199 249 221 251 
639 196 222 165 257 
640 237 245 200 248 
641 113 252 239 260 
642 220 221 199 249 
643 196 246 253 257 
644 130 253 246 257 
645 82 81 192 250 
646 125 249 220 257 
647 238 134 245 248 
648 191 220 249 257 
649 99 220 222 257 
650 242 250 204 259 
651 124 151 105 251 
652 190 171 217 251 
653 239 79 100 241 
654 100 113 239 241 
655 175 246 197 257 
656 109 131 246 257 
657 119 245 145 248 
658 179 241 240 260 
659 138 250 242 259 
660 161 157 146 250 
661 80 198 247 254 
662 122 142 247 254 
663 188 247 208 254 
664 133 221 249 251 
665 170 244 201 255 
666 135 244 104 255 
667 227 239 113 252 
668 110 101 134 243 
669 200 167 176 243 
670 220 133 221 249 
671 191 222 220 257 
672 186 60 172 154 
673 168 83 80 247 
674 230 242 136 258 
675 183 228 210 248 
676 125 42 99 220 
677 175 197 207 257 
678 109 141 131 257 
679 137 104 231 255 
680 195 212 82 250 
681 240 179 166 241 
682 227 234 240 252 
683 196 253 219 257 
684 103 136 230 242 
685 211 245 185 248 
686 32 92 112 121 
687 99 219 130 257 
688 233 76 170 229 
689 89 92 32 121 
690 179 240 252 260 
691 235 98 103 244 
692 63 153 156 180 
693 203 255 182 256 
694 137 116 255 256 
695 106 146 157 250 
696 218 169 202 242 
697 103 152 136 242 
698 79 240 166 241 
699 119 51 105 159 
700 121 33 89 116 
701 197 246 196 257 
702 130 246 131 257 
703 94 89 33 116 
704 165 70 191 222 
705 157 172 60 154 
706 14 168 192 81 
707 196 219 222 257 
708 110 151 124 245 
709 190 217 176 245 
710 46 106 154 120 
711 49 114 156 153 
712 63 156 183 180 
713 187 89 25 182 
714 94 25 89 182 
715 149 84 132 254 
716 92 149 112 254 
717 170 164 201 244 
718 135 98 104 244 
719 20 81 126 102 
720 173 244 242 259 
721 179 240 209 252 
722 212 172 157 250 
723 167 241 174 243 
724 101 108 241 243 
725 65 171 159 185 
726 173 242 204 259 
727 169 229 75 232 
728 49 114 117 156 
729 107 244 135 259 
730 205 189 216 260 
731 123 139 150 260 
732 92 24 178 187 
733 24 92 89 187 
734 119 114 50 153 
735 14 168 81 83 
736 178 188 254 255 
737 122 112 254 255 
738 219 253 130 257 
739 114 144 117 248 
740 166 179 205 241 
741 100 139 113 241 
742 159 119 50 153 
743 180 64 153 185 
744 220 42 99 222 
745 102 142 132 247 
746 198 208 168 247 
747 173 193 201 244 
748 107 242 244 259 
749 106 154 157 46 
750 159 153 64 185 
751 124 109 243 249 
752 190 243 175 249 
753 20 81 102 83 
754 155 105 51 159 
755 37 93 123 111 
756 229 169 164 244 
757 143 227 113 252 
758 174 167 166 241 
759 100 101 108 241 
760 186 181 61 154 
761 99 222 219 257 
762 107 138 242 259 
763 197 175 174 246 
764 109 131 108 246 
765 220 199 71 191 
766 103 235 230 55 
767 158 61 181 154 
768 37 90 93 111 
769 113 143 239 227 
770 114 119 145 248 
771 171 159 155 65 
772 79 10 167 166 
773 8 100 79 101 
774 165 196 69 222 
775 190 249 199 251 
776 133 249 124 251 
777 115 47 154 120 
778 220 191 70 222 
779 93 29 189 177 
780 47 154 158 115 
781 182 203 170 255 
782 137 116 104 255 
783 110 124 109 243 
784 175 190 176 243 
785 29 93 90 177 
786 130 111 246 253 
787 196 246 177 253 
788 142 132 247 254 
789 208 247 198 254 
790 194 250 192 259 
791 183 210 180 248 
792 173 193 244 259 
793 194 204 250 259 
794 231 235 104 56 
795 192 247 193 259 
796 107 135 127 259 
797 227 234 252 256 
798 107 242 103 244 
799 169 242 173 244 
800 207 165 191 257 
801 141 125 99 257 
802 129 21 81 126 
803 128 126 250 259 
804 237 79 10 200 
805 13 80 198 168 
806 179 205 241 260 
807 113 241 139 260 
808 200 79 10 167 
809 101 79 8 134 
810 138 128 250 259 
811 86 80 84 254 
812 149 92 112 31 
813 86 215 80 254 
814 127 247 126 259 
815 180 211 185 248 
816 141 249 125 257 
817 207 191 249 257 
818 132 84 80 254 
819 19 102 132 83 
820 130 41 219 99 
821 214 199 224 251 
822 145 245 134 248 
823 79 100 8 239 
824 15 192 195 82 
825 227 233 234 256 
826 98 104 235 56 
827 199 221 220 71 
828 131 130 111 246 
829 197 177 196 246 
830 181 218 202 258 
831 115 136 152 258 
832 149 96 84 254 
833 122 121 112 255 
834 178 187 188 255 
835 86 84 96 254 
836 81 82 21 129 
837 96 149 92 254 
838 74 232 228 258 
839 211 200 245 248 
840 230 54 236 258 
841 99 41 219 222 
842 215 86 96 254 
843 126 127 102 247 
844 193 192 168 247 
845 229 76 170 164 
846 69 196 219 222 
847 129 128 126 250 
848 194 195 192 250 
849 13 80 168 83 
850 184 252 234 256 
851 224 199 221 251 
852 134 79 8 238 
853 198 80 215 254 
854 231 227 57 256 
855 194 173 204 259 
856 122 112 142 254 
857 188 208 178 254 
858 82 15 192 81 
859 79 239 240 241 
860 122 142 127 247 
861 188 193 208 247 
862 161 157 45 146 
863 190 199 171 251 
864 133 124 105 251 
865 204 218 186 242 
866 152 138 120 242 
867 200 176 211 245 
868 110 134 145 245 
869 10 79 240 166 
870 106 129 146 250 
871 172 212 195 250 
872 234 184 209 252 
873 160 66 214 251 
874 132 80 19 83 
875 45 157 106 146 
876 52 148 105 251 
877 160 224 225 251 
878 187 182 170 255 
879 121 104 116 255 
880 95 213 30 253 
881 130 131 99 257 
882 197 196 165 257 
883 22 85 146 129 
884 202 232 74 258 
885 221 148 225 251 
886 66 171 214 251 
887 167 174 175 243 
888 101 109 108 243 
889 97 38 147 253 
890 233 227 231 256 
891 54 117 236 258 
892 124 133 125 249 
893 199 190 191 249 
894 214 72 224 199 
895 76 170 203 233 
896 107 128 138 259 
897 38 111 147 253 
898 166 205 174 241 
899 139 100 108 241 
900 230 236 228 258 
901 162 160 225 251 
902 190 175 207 249 
903 124 141 109 249 
904 164 229 75 169 
905 178 215 96 254 
906 96 92 149 31 
907 177 30 213 253 
908 107 103 98 244 
909 164 169 173 244 
910 148 162 225 251 
911 225 44 148 221 
912 221 133 148 251 
913 149 96 11 84 
914 115 158 48 258 
915 85 22 82 129 
916 62 156 158 258 
917 134 238 144 248 
918 158 156 48 258 
919 183 156 62 258 
920 194 192 193 259 
921 103 107 138 242 
922 173 169 204 242 
923 149 18 132 84 
924 181 62 158 258 
925 149 11 2 84 
926 122 135 104 255 
927 188 170 201 255 
928 234 240 209 78 
929 117 48 156 258 
930 74 228 183 258 
931 111 150 131 246 
932 216 177 197 246 
933 57 227 118 256 
934 140 36 88 260 
935 230 136 54 258 
936 72 221 224 199 
937 147 226 219 40 
938 28 206 88 260 
939 194 204 172 250 
940 138 128 106 250 
941 59 212 172 157 
942 118 227 252 256 
943 66 155 171 251 
944 95 30 90 253 
945 160 155 66 251 
946 58 113 143 239 
947 116 34 94 256 
948 118 227 143 252 
949 224 160 214 251 
950 44 133 148 221 
951 182 94 26 256 
952 87 16 212 82 
953 145 134 144 248 
954 178 96 92 254 
955 212 59 163 157 
956 86 215 12 80 
957 230 228 232 258 
958 93 88 36 260 
959 52 105 155 251 
960 239 143 58 227 
961 200 210 237 248 
962 94 91 26 256 
963 136 103 230 55 
964 34 91 94 256 
965 28 88 93 260 
966 40 219 147 130 
967 16 195 212 82 
968 77 233 203 256 
969 18 80 132 84 
970 231 57 137 256 
971 68 213 223 253 
972 115 48 117 258 
973 219 226 147 253 
974 177 90 30 253 
975 181 183 62 258 
976 144 238 236 248 
977 219 68 223 253 
978 80 215 12 198 
979 128 127 126 259 
980 90 38 97 253 
981 221 225 224 251 
982 211 217 185 245 
983 151 145 119 245 
984 68 196 213 253 
985 184 26 91 256 
986 34 118 91 256 
987 238 228 236 248 
988 38 90 111 253 
989 196 68 219 253 
990 88 252 140 260 
991 206 252 88 260 
992 130 219 147 253 
993 35 88 91 252 
994 35 140 88 252 
995 91 88 27 252 
996 54 136 117 258 
997 183 202 74 258 
998 215 23 178 96 
999 206 27 88 252 
1000 93 36 123 260 
1001 118 35 91 252 
1002 173 194 193 259 
1003 140 123 36 260 
1004 189 28 93 260 
1005 55 103 235 98 
1006 27 184 91 252 
1007 28 189 206 260 
1008 103 138 152 242 
1009 218 204 169 242 
1010 197 174 216 246 
1011 150 108 131 246 
1012 91 252 184 256 
1013 91 118 252 256 
1014 200 211 210 248 
1015 95 226 223 253 
1016 109 101 110 243 
1017 176 167 175 243 
1018 118 57 143 227 
1019 75 202 169 232 
1020 140 252 113 260 
1021 112 149 132 254 
1022 178 198 215 254 
1023 116 118 34 256 
1024 237 210 228 248 
1025 209 240 179 78 
1026 182 26 184 256 
1027 176 217 211 245 
1028 151 110 145 245 
1029 89 32 33 121 
1030 206 179 252 260 
1031 32 112 92 31 
1032 183 62 156 63 
1033 237 200 73 210 
1034 226 95 97 253 
1035 140 143 113 252 
1036 25 24 89 187 
1037 107 98 135 244 
1038 201 164 173 244 
1039 45 106 157 46 
1040 53 144 134 238 
1041 94 26 25 182 
1042 33 34 94 116 
1043 209 206 179 252 
1044 23 24 178 92 
1045 140 35 118 252 
1046 96 23 178 92 
1047 49 117 48 156 
1048 147 226 97 253 
1049 137 57 118 256 
1050 184 77 203 256 
1051 238 237 228 248 
1052 207 197 165 257 
1053 141 99 131 257 
1054 107 127 128 259 
1055 113 58 100 239 
1056 66 171 155 65 
1057 127 142 102 247 
1058 208 193 168 247 
1059 27 206 184 252 
1060 223 213 95 253 
1061 128 129 106 250 
1062 195 194 172 250 
1063 190 207 191 249 
1064 141 124 125 249 
1065 184 77 234 209 
1066 82 22 21 129 
1067 96 11 2 149 
1068 187 170 188 255 
1069 122 104 121 255 
1070 41 99 42 222 
1071 60 59 172 157 
1072 240 166 179 78 
1073 48 47 158 115 
1074 168 14 13 83 
1075 184 26 27 91 
1076 162 155 160 251 
1077 30 29 90 177 
1078 123 113 139 260 
1079 179 189 205 260 
1080 219 196 69 68 
1081 118 34 91 35 
1082 51 52 105 155 
1083 214 171 199 251 
1084 105 148 133 251 
1085 74 183 228 210 
1086 199 72 221 71 
1087 181 62 61 158 
1088 178 208 198 254 
1089 142 112 132 254 
1090 42 125 43 220 
1091 114 49 50 153 
1092 15 14 192 81 
1093 63 64 153 180 
1094 37 38 90 111 
1095 19 18 80 132 
1096 191 71 220 70 
1097 182 184 203 256 
1098 116 137 118 256 
1099 140 36 35 88 
1100 85 161 4 146 
1101 123 36 93 37 
1102 111 130 147 253 
1103 196 177 213 253 
1104 224 160 9 214 
1105 5 95 223 213 
1106 206 27 28 88 
1107 183 181 202 258 
1108 117 136 115 258 
1109 228 237 73 210 
1110 97 95 90 253 
1111 114 145 144 248 
1112 93 29 28 189 
1113 149 2 96 31 
1114 186 61 60 154 
1115 206 189 179 260 
1116 123 140 113 260 
1117 118 143 140 252 
1118 119 50 51 159 
1119 209 184 206 252 
1120 219 223 226 253 
1121 53 144 238 236 
1122 95 226 39 223 
1123 17 87 161 85 
1124 102 19 20 83 
1125 160 67 225 224 
1126 70 165 69 222 
1127 44 43 133 221 
1128 81 21 20 126 
1129 64 65 159 185 
1130 16 15 195 82 
1131 166 240 10 78 
1132 97 226 39 95 
1133 87 163 17 161 
1134 144 54 117 236 
1135 219 40 41 130 
1136 47 46 154 120 
1137 225 162 67 160 
1138 58 8 100 239 
1139 180 210 211 248 
1140 104 137 231 56 
1141 66 9 160 214 
1142 4 161 45 146 
1143 95 5 30 213 
1144 12 13 80 198 
1145 73 74 228 210 
1146 4 17 161 85 
1147 95 39 5 223 
1148 9 67 160 224 
1149 164 229 76 75 
1150 8 53 134 238 
1151 86 1 215 96 
1152 57 58 143 227 
1153 72 224 9 214 
1154 10 237 200 73 
1155 44 148 7 225 
1156 85 4 22 146 
1157 3 16 212 87 
1158 147 6 226 40 
1159 162 7 148 225 
1160 68 5 223 213 
1161 144 53 54 236 
1162 147 97 6 38 
1163 148 52 7 162 
1164 212 59 3 163 
1165 54 136 230 55 
1166 96 86 11 84 
1167 77 234 209 78 
1168 163 3 212 87 
1169 235 55 98 56 
1170 226 97 6 147 
1171 1 23 215 96 
1172 215 12 1 86 
1173 86 11 1 96 
1174 75 74 202 232 
1175 225 162 7 67 
1176 163 17 3 87 
1177 226 6 97 39 
1178 2 18 149 84 
1179 137 57 231 56 
1180 76 203 77 233 
1181 152 258 158 115 
1182 158 258 152 242 
1183 152 158 154 115 
1184 154 158 152 242 
1185 152 154 120 115 
1186 120 154 152 242 
1187 258 218 158 181 
1188 258 158 218 242 
1189 158 218 154 181 
1190 158 154 218 242 
1191 154 218 186 181 
1192 154 186 218 242 
1193 250 87 161 212 
1194 250 161 87 85 
1195 246 205 174 216 
1196 246 174 205 241 
1197 246 139 108 241 
1198 246 108 139 150 
1199 260 93 111 123 
1200 111 93 260 246 
1201 111 150 260 123 
1202 260 150 111 246 
1203 93 260 177 189 
1204 93 177 260 246 
1205 216 177 260 189 
1206 216 260 177 246 
1207 220 133 43 221 
1208 220 43 133 125 
1209 247 80 132 83 
1210 247 132 80 254 
1211 259 135 247 244 
1212 259 247 135 127 
1213 251 52 162 155 
1214 251 162 52 148 
1215 256 77 234 184 
1216 256 234 77 233 
$EndElements
