solid OpenSCAD_Model
  facet normal 0.997859 0.0654063 0
    outer loop
      vertex 18 0 47.5
      vertex 17.846 2.34947 -47.5
      vertex 17.846 2.34947 47.5
    endloop
  endfacet
  facet normal 0.997859 0.0654063 0
    outer loop
      vertex 17.846 2.34947 -47.5
      vertex 18 0 47.5
      vertex 18 0 -47.5
    endloop
  endfacet
  facet normal 0.980789 0.195073 0
    outer loop
      vertex 17.846 2.34947 47.5
      vertex 17.3867 4.65874 -47.5
      vertex 17.3867 4.65874 47.5
    endloop
  endfacet
  facet normal 0.980789 0.195073 0
    outer loop
      vertex 17.3867 4.65874 -47.5
      vertex 17.846 2.34947 47.5
      vertex 17.846 2.34947 -47.5
    endloop
  endfacet
  facet normal 0.946922 0.321465 0
    outer loop
      vertex 17.3867 4.65874 47.5
      vertex 16.6298 6.8883 -47.5
      vertex 16.6298 6.8883 47.5
    endloop
  endfacet
  facet normal 0.946922 0.321465 0
    outer loop
      vertex 16.6298 6.8883 -47.5
      vertex 17.3867 4.65874 47.5
      vertex 17.3867 4.65874 -47.5
    endloop
  endfacet
  facet normal 0.896885 0.442263 0
    outer loop
      vertex 16.6298 6.8883 47.5
      vertex 15.5885 9 -47.5
      vertex 15.5885 9 47.5
    endloop
  endfacet
  facet normal 0.896885 0.442263 0
    outer loop
      vertex 15.5885 9 -47.5
      vertex 16.6298 6.8883 47.5
      vertex 16.6298 6.8883 -47.5
    endloop
  endfacet
  facet normal 0.831468 0.555572 0
    outer loop
      vertex 15.5885 9 47.5
      vertex 14.2804 10.9577 -47.5
      vertex 14.2804 10.9577 47.5
    endloop
  endfacet
  facet normal 0.831468 0.555572 0
    outer loop
      vertex 14.2804 10.9577 -47.5
      vertex 15.5885 9 47.5
      vertex 15.5885 9 -47.5
    endloop
  endfacet
  facet normal 0.751824 0.659364 0
    outer loop
      vertex 14.2804 10.9577 47.5
      vertex 12.7279 12.7279 -47.5
      vertex 12.7279 12.7279 47.5
    endloop
  endfacet
  facet normal 0.751824 0.659364 0
    outer loop
      vertex 12.7279 12.7279 -47.5
      vertex 14.2804 10.9577 47.5
      vertex 14.2804 10.9577 -47.5
    endloop
  endfacet
  facet normal 0.659364 0.751824 -0
    outer loop
      vertex 12.7279 12.7279 -47.5
      vertex 10.9577 14.2804 47.5
      vertex 12.7279 12.7279 47.5
    endloop
  endfacet
  facet normal 0.659364 0.751824 0
    outer loop
      vertex 10.9577 14.2804 47.5
      vertex 12.7279 12.7279 -47.5
      vertex 10.9577 14.2804 -47.5
    endloop
  endfacet
  facet normal 0.555572 0.831468 -0
    outer loop
      vertex 10.9577 14.2804 -47.5
      vertex 9 15.5885 47.5
      vertex 10.9577 14.2804 47.5
    endloop
  endfacet
  facet normal 0.555572 0.831468 0
    outer loop
      vertex 9 15.5885 47.5
      vertex 10.9577 14.2804 -47.5
      vertex 9 15.5885 -47.5
    endloop
  endfacet
  facet normal 0.442263 0.896885 -0
    outer loop
      vertex 9 15.5885 -47.5
      vertex 6.8883 16.6298 47.5
      vertex 9 15.5885 47.5
    endloop
  endfacet
  facet normal 0.442263 0.896885 0
    outer loop
      vertex 6.8883 16.6298 47.5
      vertex 9 15.5885 -47.5
      vertex 6.8883 16.6298 -47.5
    endloop
  endfacet
  facet normal 0.321465 0.946922 -0
    outer loop
      vertex 6.8883 16.6298 -47.5
      vertex 4.65874 17.3867 47.5
      vertex 6.8883 16.6298 47.5
    endloop
  endfacet
  facet normal 0.321465 0.946922 0
    outer loop
      vertex 4.65874 17.3867 47.5
      vertex 6.8883 16.6298 -47.5
      vertex 4.65874 17.3867 -47.5
    endloop
  endfacet
  facet normal 0.195073 0.980789 -0
    outer loop
      vertex 4.65874 17.3867 -47.5
      vertex 2.34947 17.846 47.5
      vertex 4.65874 17.3867 47.5
    endloop
  endfacet
  facet normal 0.195073 0.980789 0
    outer loop
      vertex 2.34947 17.846 47.5
      vertex 4.65874 17.3867 -47.5
      vertex 2.34947 17.846 -47.5
    endloop
  endfacet
  facet normal 0.0654063 0.997859 -0
    outer loop
      vertex 2.34947 17.846 -47.5
      vertex 0 18 47.5
      vertex 2.34947 17.846 47.5
    endloop
  endfacet
  facet normal 0.0654063 0.997859 0
    outer loop
      vertex 0 18 47.5
      vertex 2.34947 17.846 -47.5
      vertex 0 18 -47.5
    endloop
  endfacet
  facet normal -0.0654063 0.997859 0
    outer loop
      vertex 0 18 -47.5
      vertex -2.34947 17.846 47.5
      vertex 0 18 47.5
    endloop
  endfacet
  facet normal -0.0654063 0.997859 0
    outer loop
      vertex -2.34947 17.846 47.5
      vertex 0 18 -47.5
      vertex -2.34947 17.846 -47.5
    endloop
  endfacet
  facet normal -0.195073 0.980789 0
    outer loop
      vertex -2.34947 17.846 -47.5
      vertex -4.65874 17.3867 47.5
      vertex -2.34947 17.846 47.5
    endloop
  endfacet
  facet normal -0.195073 0.980789 0
    outer loop
      vertex -4.65874 17.3867 47.5
      vertex -2.34947 17.846 -47.5
      vertex -4.65874 17.3867 -47.5
    endloop
  endfacet
  facet normal -0.321465 0.946922 0
    outer loop
      vertex -4.65874 17.3867 -47.5
      vertex -6.8883 16.6298 47.5
      vertex -4.65874 17.3867 47.5
    endloop
  endfacet
  facet normal -0.321465 0.946922 0
    outer loop
      vertex -6.8883 16.6298 47.5
      vertex -4.65874 17.3867 -47.5
      vertex -6.8883 16.6298 -47.5
    endloop
  endfacet
  facet normal -0.442263 0.896885 0
    outer loop
      vertex -6.8883 16.6298 -47.5
      vertex -9 15.5885 47.5
      vertex -6.8883 16.6298 47.5
    endloop
  endfacet
  facet normal -0.442263 0.896885 0
    outer loop
      vertex -9 15.5885 47.5
      vertex -6.8883 16.6298 -47.5
      vertex -9 15.5885 -47.5
    endloop
  endfacet
  facet normal -0.555572 0.831468 0
    outer loop
      vertex -9 15.5885 -47.5
      vertex -10.9577 14.2804 47.5
      vertex -9 15.5885 47.5
    endloop
  endfacet
  facet normal -0.555572 0.831468 0
    outer loop
      vertex -10.9577 14.2804 47.5
      vertex -9 15.5885 -47.5
      vertex -10.9577 14.2804 -47.5
    endloop
  endfacet
  facet normal -0.659364 0.751824 0
    outer loop
      vertex -10.9577 14.2804 -47.5
      vertex -12.7279 12.7279 47.5
      vertex -10.9577 14.2804 47.5
    endloop
  endfacet
  facet normal -0.659364 0.751824 0
    outer loop
      vertex -12.7279 12.7279 47.5
      vertex -10.9577 14.2804 -47.5
      vertex -12.7279 12.7279 -47.5
    endloop
  endfacet
  facet normal -0.751824 0.659364 0
    outer loop
      vertex -14.2804 10.9577 -47.5
      vertex -12.7279 12.7279 47.5
      vertex -12.7279 12.7279 -47.5
    endloop
  endfacet
  facet normal -0.751824 0.659364 0
    outer loop
      vertex -12.7279 12.7279 47.5
      vertex -14.2804 10.9577 -47.5
      vertex -14.2804 10.9577 47.5
    endloop
  endfacet
  facet normal -0.831468 0.555572 0
    outer loop
      vertex -15.5885 9 -47.5
      vertex -14.2804 10.9577 47.5
      vertex -14.2804 10.9577 -47.5
    endloop
  endfacet
  facet normal -0.831468 0.555572 0
    outer loop
      vertex -14.2804 10.9577 47.5
      vertex -15.5885 9 -47.5
      vertex -15.5885 9 47.5
    endloop
  endfacet
  facet normal -0.896885 0.442263 0
    outer loop
      vertex -16.6298 6.8883 -47.5
      vertex -15.5885 9 47.5
      vertex -15.5885 9 -47.5
    endloop
  endfacet
  facet normal -0.896885 0.442263 0
    outer loop
      vertex -15.5885 9 47.5
      vertex -16.6298 6.8883 -47.5
      vertex -16.6298 6.8883 47.5
    endloop
  endfacet
  facet normal -0.946922 0.321465 0
    outer loop
      vertex -17.3867 4.65874 -47.5
      vertex -16.6298 6.8883 47.5
      vertex -16.6298 6.8883 -47.5
    endloop
  endfacet
  facet normal -0.946922 0.321465 0
    outer loop
      vertex -16.6298 6.8883 47.5
      vertex -17.3867 4.65874 -47.5
      vertex -17.3867 4.65874 47.5
    endloop
  endfacet
  facet normal -0.980789 0.195073 0
    outer loop
      vertex -17.846 2.34947 -47.5
      vertex -17.3867 4.65874 47.5
      vertex -17.3867 4.65874 -47.5
    endloop
  endfacet
  facet normal -0.980789 0.195073 0
    outer loop
      vertex -17.3867 4.65874 47.5
      vertex -17.846 2.34947 -47.5
      vertex -17.846 2.34947 47.5
    endloop
  endfacet
  facet normal -0.997859 0.0654063 0
    outer loop
      vertex -18 -0 -47.5
      vertex -17.846 2.34947 47.5
      vertex -17.846 2.34947 -47.5
    endloop
  endfacet
  facet normal -0.997859 0.0654063 0
    outer loop
      vertex -17.846 2.34947 47.5
      vertex -18 -0 -47.5
      vertex -18 -0 47.5
    endloop
  endfacet
  facet normal -0.997859 -0.0654063 0
    outer loop
      vertex -17.846 -2.34947 -47.5
      vertex -18 -0 47.5
      vertex -18 -0 -47.5
    endloop
  endfacet
  facet normal -0.997859 -0.0654063 0
    outer loop
      vertex -18 -0 47.5
      vertex -17.846 -2.34947 -47.5
      vertex -17.846 -2.34947 47.5
    endloop
  endfacet
  facet normal -0.980789 -0.195073 0
    outer loop
      vertex -17.3867 -4.65874 -47.5
      vertex -17.846 -2.34947 47.5
      vertex -17.846 -2.34947 -47.5
    endloop
  endfacet
  facet normal -0.980789 -0.195073 0
    outer loop
      vertex -17.846 -2.34947 47.5
      vertex -17.3867 -4.65874 -47.5
      vertex -17.3867 -4.65874 47.5
    endloop
  endfacet
  facet normal -0.946922 -0.321465 0
    outer loop
      vertex -16.6298 -6.8883 -47.5
      vertex -17.3867 -4.65874 47.5
      vertex -17.3867 -4.65874 -47.5
    endloop
  endfacet
  facet normal -0.946922 -0.321465 0
    outer loop
      vertex -17.3867 -4.65874 47.5
      vertex -16.6298 -6.8883 -47.5
      vertex -16.6298 -6.8883 47.5
    endloop
  endfacet
  facet normal -0.896885 -0.442263 0
    outer loop
      vertex -15.5885 -9 -47.5
      vertex -16.6298 -6.8883 47.5
      vertex -16.6298 -6.8883 -47.5
    endloop
  endfacet
  facet normal -0.896885 -0.442263 0
    outer loop
      vertex -16.6298 -6.8883 47.5
      vertex -15.5885 -9 -47.5
      vertex -15.5885 -9 47.5
    endloop
  endfacet
  facet normal -0.831468 -0.555572 0
    outer loop
      vertex -14.2804 -10.9577 -47.5
      vertex -15.5885 -9 47.5
      vertex -15.5885 -9 -47.5
    endloop
  endfacet
  facet normal -0.831468 -0.555572 0
    outer loop
      vertex -15.5885 -9 47.5
      vertex -14.2804 -10.9577 -47.5
      vertex -14.2804 -10.9577 47.5
    endloop
  endfacet
  facet normal -0.751824 -0.659364 0
    outer loop
      vertex -12.7279 -12.7279 -47.5
      vertex -14.2804 -10.9577 47.5
      vertex -14.2804 -10.9577 -47.5
    endloop
  endfacet
  facet normal -0.751824 -0.659364 0
    outer loop
      vertex -14.2804 -10.9577 47.5
      vertex -12.7279 -12.7279 -47.5
      vertex -12.7279 -12.7279 47.5
    endloop
  endfacet
  facet normal -0.659364 -0.751824 0
    outer loop
      vertex -12.7279 -12.7279 -47.5
      vertex -10.9577 -14.2804 47.5
      vertex -12.7279 -12.7279 47.5
    endloop
  endfacet
  facet normal -0.659364 -0.751824 -0
    outer loop
      vertex -10.9577 -14.2804 47.5
      vertex -12.7279 -12.7279 -47.5
      vertex -10.9577 -14.2804 -47.5
    endloop
  endfacet
  facet normal -0.555572 -0.831468 0
    outer loop
      vertex -10.9577 -14.2804 -47.5
      vertex -9 -15.5885 47.5
      vertex -10.9577 -14.2804 47.5
    endloop
  endfacet
  facet normal -0.555572 -0.831468 -0
    outer loop
      vertex -9 -15.5885 47.5
      vertex -10.9577 -14.2804 -47.5
      vertex -9 -15.5885 -47.5
    endloop
  endfacet
  facet normal -0.442263 -0.896885 0
    outer loop
      vertex -9 -15.5885 -47.5
      vertex -6.8883 -16.6298 47.5
      vertex -9 -15.5885 47.5
    endloop
  endfacet
  facet normal -0.442263 -0.896885 -0
    outer loop
      vertex -6.8883 -16.6298 47.5
      vertex -9 -15.5885 -47.5
      vertex -6.8883 -16.6298 -47.5
    endloop
  endfacet
  facet normal -0.321465 -0.946922 0
    outer loop
      vertex -6.8883 -16.6298 -47.5
      vertex -4.65874 -17.3867 47.5
      vertex -6.8883 -16.6298 47.5
    endloop
  endfacet
  facet normal -0.321465 -0.946922 -0
    outer loop
      vertex -4.65874 -17.3867 47.5
      vertex -6.8883 -16.6298 -47.5
      vertex -4.65874 -17.3867 -47.5
    endloop
  endfacet
  facet normal -0.195073 -0.980789 0
    outer loop
      vertex -4.65874 -17.3867 -47.5
      vertex -2.34947 -17.846 47.5
      vertex -4.65874 -17.3867 47.5
    endloop
  endfacet
  facet normal -0.195073 -0.980789 -0
    outer loop
      vertex -2.34947 -17.846 47.5
      vertex -4.65874 -17.3867 -47.5
      vertex -2.34947 -17.846 -47.5
    endloop
  endfacet
  facet normal -0.0654063 -0.997859 0
    outer loop
      vertex -2.34947 -17.846 -47.5
      vertex -0 -18 47.5
      vertex -2.34947 -17.846 47.5
    endloop
  endfacet
  facet normal -0.0654063 -0.997859 -0
    outer loop
      vertex -0 -18 47.5
      vertex -2.34947 -17.846 -47.5
      vertex -0 -18 -47.5
    endloop
  endfacet
  facet normal 0.0654063 -0.997859 0
    outer loop
      vertex -0 -18 -47.5
      vertex 2.34947 -17.846 47.5
      vertex -0 -18 47.5
    endloop
  endfacet
  facet normal 0.0654063 -0.997859 0
    outer loop
      vertex 2.34947 -17.846 47.5
      vertex -0 -18 -47.5
      vertex 2.34947 -17.846 -47.5
    endloop
  endfacet
  facet normal 0.195073 -0.980789 0
    outer loop
      vertex 2.34947 -17.846 -47.5
      vertex 4.65874 -17.3867 47.5
      vertex 2.34947 -17.846 47.5
    endloop
  endfacet
  facet normal 0.195073 -0.980789 0
    outer loop
      vertex 4.65874 -17.3867 47.5
      vertex 2.34947 -17.846 -47.5
      vertex 4.65874 -17.3867 -47.5
    endloop
  endfacet
  facet normal 0.321465 -0.946922 0
    outer loop
      vertex 4.65874 -17.3867 -47.5
      vertex 6.8883 -16.6298 47.5
      vertex 4.65874 -17.3867 47.5
    endloop
  endfacet
  facet normal 0.321465 -0.946922 0
    outer loop
      vertex 6.8883 -16.6298 47.5
      vertex 4.65874 -17.3867 -47.5
      vertex 6.8883 -16.6298 -47.5
    endloop
  endfacet
  facet normal 0.442263 -0.896885 0
    outer loop
      vertex 6.8883 -16.6298 -47.5
      vertex 9 -15.5885 47.5
      vertex 6.8883 -16.6298 47.5
    endloop
  endfacet
  facet normal 0.442263 -0.896885 0
    outer loop
      vertex 9 -15.5885 47.5
      vertex 6.8883 -16.6298 -47.5
      vertex 9 -15.5885 -47.5
    endloop
  endfacet
  facet normal 0.555572 -0.831468 0
    outer loop
      vertex 9 -15.5885 -47.5
      vertex 10.9577 -14.2804 47.5
      vertex 9 -15.5885 47.5
    endloop
  endfacet
  facet normal 0.555572 -0.831468 0
    outer loop
      vertex 10.9577 -14.2804 47.5
      vertex 9 -15.5885 -47.5
      vertex 10.9577 -14.2804 -47.5
    endloop
  endfacet
  facet normal 0.659364 -0.751824 0
    outer loop
      vertex 10.9577 -14.2804 -47.5
      vertex 12.7279 -12.7279 47.5
      vertex 10.9577 -14.2804 47.5
    endloop
  endfacet
  facet normal 0.659364 -0.751824 0
    outer loop
      vertex 12.7279 -12.7279 47.5
      vertex 10.9577 -14.2804 -47.5
      vertex 12.7279 -12.7279 -47.5
    endloop
  endfacet
  facet normal 0.751824 -0.659364 0
    outer loop
      vertex 12.7279 -12.7279 47.5
      vertex 14.2804 -10.9577 -47.5
      vertex 14.2804 -10.9577 47.5
    endloop
  endfacet
  facet normal 0.751824 -0.659364 0
    outer loop
      vertex 14.2804 -10.9577 -47.5
      vertex 12.7279 -12.7279 47.5
      vertex 12.7279 -12.7279 -47.5
    endloop
  endfacet
  facet normal 0.831468 -0.555572 0
    outer loop
      vertex 14.2804 -10.9577 47.5
      vertex 15.5885 -9 -47.5
      vertex 15.5885 -9 47.5
    endloop
  endfacet
  facet normal 0.831468 -0.555572 0
    outer loop
      vertex 15.5885 -9 -47.5
      vertex 14.2804 -10.9577 47.5
      vertex 14.2804 -10.9577 -47.5
    endloop
  endfacet
  facet normal 0.896885 -0.442263 0
    outer loop
      vertex 15.5885 -9 47.5
      vertex 16.6298 -6.8883 -47.5
      vertex 16.6298 -6.8883 47.5
    endloop
  endfacet
  facet normal 0.896885 -0.442263 0
    outer loop
      vertex 16.6298 -6.8883 -47.5
      vertex 15.5885 -9 47.5
      vertex 15.5885 -9 -47.5
    endloop
  endfacet
  facet normal 0.946922 -0.321465 0
    outer loop
      vertex 16.6298 -6.8883 47.5
      vertex 17.3867 -4.65874 -47.5
      vertex 17.3867 -4.65874 47.5
    endloop
  endfacet
  facet normal 0.946922 -0.321465 0
    outer loop
      vertex 17.3867 -4.65874 -47.5
      vertex 16.6298 -6.8883 47.5
      vertex 16.6298 -6.8883 -47.5
    endloop
  endfacet
  facet normal 0.980789 -0.195073 0
    outer loop
      vertex 17.3867 -4.65874 47.5
      vertex 17.846 -2.34947 -47.5
      vertex 17.846 -2.34947 47.5
    endloop
  endfacet
  facet normal 0.980789 -0.195073 0
    outer loop
      vertex 17.846 -2.34947 -47.5
      vertex 17.3867 -4.65874 47.5
      vertex 17.3867 -4.65874 -47.5
    endloop
  endfacet
  facet normal 0.997859 -0.0654063 0
    outer loop
      vertex 17.846 -2.34947 47.5
      vertex 18 0 -47.5
      vertex 18 0 47.5
    endloop
  endfacet
  facet normal 0.997859 -0.0654063 0
    outer loop
      vertex 18 0 -47.5
      vertex 17.846 -2.34947 47.5
      vertex 17.846 -2.34947 -47.5
    endloop
  endfacet
  facet normal 0 0 -1
    outer loop
      vertex 17.846 -2.34947 -47.5
      vertex 17.846 2.34947 -47.5
      vertex 18 0 -47.5
    endloop
  endfacet
  facet normal 0 0 -1
    outer loop
      vertex 17.3867 -4.65874 -47.5
      vertex 17.846 2.34947 -47.5
      vertex 17.846 -2.34947 -47.5
    endloop
  endfacet
  facet normal 0 0 -1
    outer loop
      vertex 17.3867 -4.65874 -47.5
      vertex 17.3867 4.65874 -47.5
      vertex 17.846 2.34947 -47.5
    endloop
  endfacet
  facet normal 0 0 -1
    outer loop
      vertex 16.6298 -6.8883 -47.5
      vertex 17.3867 4.65874 -47.5
      vertex 17.3867 -4.65874 -47.5
    endloop
  endfacet
  facet normal 0 0 -1
    outer loop
      vertex 16.6298 -6.8883 -47.5
      vertex 16.6298 6.8883 -47.5
      vertex 17.3867 4.65874 -47.5
    endloop
  endfacet
  facet normal 0 0 -1
    outer loop
      vertex 15.5885 -9 -47.5
      vertex 16.6298 6.8883 -47.5
      vertex 16.6298 -6.8883 -47.5
    endloop
  endfacet
  facet normal 0 0 -1
    outer loop
      vertex 15.5885 -9 -47.5
      vertex 15.5885 9 -47.5
      vertex 16.6298 6.8883 -47.5
    endloop
  endfacet
  facet normal 0 0 -1
    outer loop
      vertex 14.2804 -10.9577 -47.5
      vertex 15.5885 9 -47.5
      vertex 15.5885 -9 -47.5
    endloop
  endfacet
  facet normal 0 0 -1
    outer loop
      vertex 14.2804 -10.9577 -47.5
      vertex 14.2804 10.9577 -47.5
      vertex 15.5885 9 -47.5
    endloop
  endfacet
  facet normal 0 0 -1
    outer loop
      vertex 12.7279 -12.7279 -47.5
      vertex 14.2804 10.9577 -47.5
      vertex 14.2804 -10.9577 -47.5
    endloop
  endfacet
  facet normal 0 0 -1
    outer loop
      vertex 12.7279 -12.7279 -47.5
      vertex 12.7279 12.7279 -47.5
      vertex 14.2804 10.9577 -47.5
    endloop
  endfacet
  facet normal 0 0 -1
    outer loop
      vertex 10.9577 -14.2804 -47.5
      vertex 12.7279 12.7279 -47.5
      vertex 12.7279 -12.7279 -47.5
    endloop
  endfacet
  facet normal 0 0 -1
    outer loop
      vertex 10.9577 -14.2804 -47.5
      vertex 10.9577 14.2804 -47.5
      vertex 12.7279 12.7279 -47.5
    endloop
  endfacet
  facet normal 0 0 -1
    outer loop
      vertex 9 -15.5885 -47.5
      vertex 10.9577 14.2804 -47.5
      vertex 10.9577 -14.2804 -47.5
    endloop
  endfacet
  facet normal 0 0 -1
    outer loop
      vertex 9 -15.5885 -47.5
      vertex 9 15.5885 -47.5
      vertex 10.9577 14.2804 -47.5
    endloop
  endfacet
  facet normal 0 0 -1
    outer loop
      vertex 6.8883 -16.6298 -47.5
      vertex 9 15.5885 -47.5
      vertex 9 -15.5885 -47.5
    endloop
  endfacet
  facet normal 0 0 -1
    outer loop
      vertex 6.8883 -16.6298 -47.5
      vertex 6.8883 16.6298 -47.5
      vertex 9 15.5885 -47.5
    endloop
  endfacet
  facet normal 0 0 -1
    outer loop
      vertex 4.65874 -17.3867 -47.5
      vertex 6.8883 16.6298 -47.5
      vertex 6.8883 -16.6298 -47.5
    endloop
  endfacet
  facet normal 0 0 -1
    outer loop
      vertex 4.65874 -17.3867 -47.5
      vertex 4.65874 17.3867 -47.5
      vertex 6.8883 16.6298 -47.5
    endloop
  endfacet
  facet normal 0 0 -1
    outer loop
      vertex 2.34947 -17.846 -47.5
      vertex 4.65874 17.3867 -47.5
      vertex 4.65874 -17.3867 -47.5
    endloop
  endfacet
  facet normal 0 0 -1
    outer loop
      vertex 2.34947 -17.846 -47.5
      vertex 2.34947 17.846 -47.5
      vertex 4.65874 17.3867 -47.5
    endloop
  endfacet
  facet normal 0 0 -1
    outer loop
      vertex -0 -18 -47.5
      vertex 2.34947 17.846 -47.5
      vertex 2.34947 -17.846 -47.5
    endloop
  endfacet
  facet normal 0 0 -1
    outer loop
      vertex -0 -18 -47.5
      vertex 0 18 -47.5
      vertex 2.34947 17.846 -47.5
    endloop
  endfacet
  facet normal 0 0 -1
    outer loop
      vertex -2.34947 -17.846 -47.5
      vertex 0 18 -47.5
      vertex -0 -18 -47.5
    endloop
  endfacet
  facet normal 0 0 -1
    outer loop
      vertex -2.34947 -17.846 -47.5
      vertex -2.34947 17.846 -47.5
      vertex 0 18 -47.5
    endloop
  endfacet
  facet normal 0 0 -1
    outer loop
      vertex -4.65874 -17.3867 -47.5
      vertex -2.34947 17.846 -47.5
      vertex -2.34947 -17.846 -47.5
    endloop
  endfacet
  facet normal 0 0 -1
    outer loop
      vertex -4.65874 -17.3867 -47.5
      vertex -4.65874 17.3867 -47.5
      vertex -2.34947 17.846 -47.5
    endloop
  endfacet
  facet normal 0 0 -1
    outer loop
      vertex -6.8883 -16.6298 -47.5
      vertex -4.65874 17.3867 -47.5
      vertex -4.65874 -17.3867 -47.5
    endloop
  endfacet
  facet normal 0 0 -1
    outer loop
      vertex -6.8883 -16.6298 -47.5
      vertex -6.8883 16.6298 -47.5
      vertex -4.65874 17.3867 -47.5
    endloop
  endfacet
  facet normal 0 0 -1
    outer loop
      vertex -9 -15.5885 -47.5
      vertex -6.8883 16.6298 -47.5
      vertex -6.8883 -16.6298 -47.5
    endloop
  endfacet
  facet normal 0 0 -1
    outer loop
      vertex -9 -15.5885 -47.5
      vertex -9 15.5885 -47.5
      vertex -6.8883 16.6298 -47.5
    endloop
  endfacet
  facet normal 0 0 -1
    outer loop
      vertex -10.9577 -14.2804 -47.5
      vertex -9 15.5885 -47.5
      vertex -9 -15.5885 -47.5
    endloop
  endfacet
  facet normal 0 0 -1
    outer loop
      vertex -10.9577 -14.2804 -47.5
      vertex -10.9577 14.2804 -47.5
      vertex -9 15.5885 -47.5
    endloop
  endfacet
  facet normal 0 0 -1
    outer loop
      vertex -12.7279 -12.7279 -47.5
      vertex -10.9577 14.2804 -47.5
      vertex -10.9577 -14.2804 -47.5
    endloop
  endfacet
  facet normal 0 0 -1
    outer loop
      vertex -12.7279 -12.7279 -47.5
      vertex -12.7279 12.7279 -47.5
      vertex -10.9577 14.2804 -47.5
    endloop
  endfacet
  facet normal 0 0 -1
    outer loop
      vertex -14.2804 -10.9577 -47.5
      vertex -12.7279 12.7279 -47.5
      vertex -12.7279 -12.7279 -47.5
    endloop
  endfacet
  facet normal 0 0 -1
    outer loop
      vertex -14.2804 -10.9577 -47.5
      vertex -14.2804 10.9577 -47.5
      vertex -12.7279 12.7279 -47.5
    endloop
  endfacet
  facet normal 0 0 -1
    outer loop
      vertex -15.5885 -9 -47.5
      vertex -14.2804 10.9577 -47.5
      vertex -14.2804 -10.9577 -47.5
    endloop
  endfacet
  facet normal 0 0 -1
    outer loop
      vertex -15.5885 -9 -47.5
      vertex -15.5885 9 -47.5
      vertex -14.2804 10.9577 -47.5
    endloop
  endfacet
  facet normal 0 0 -1
    outer loop
      vertex -16.6298 -6.8883 -47.5
      vertex -15.5885 9 -47.5
      vertex -15.5885 -9 -47.5
    endloop
  endfacet
  facet normal 0 0 -1
    outer loop
      vertex -16.6298 -6.8883 -47.5
      vertex -16.6298 6.8883 -47.5
      vertex -15.5885 9 -47.5
    endloop
  endfacet
  facet normal 0 0 -1
    outer loop
      vertex -17.3867 -4.65874 -47.5
      vertex -16.6298 6.8883 -47.5
      vertex -16.6298 -6.8883 -47.5
    endloop
  endfacet
  facet normal 0 0 -1
    outer loop
      vertex -17.3867 -4.65874 -47.5
      vertex -17.3867 4.65874 -47.5
      vertex -16.6298 6.8883 -47.5
    endloop
  endfacet
  facet normal 0 0 -1
    outer loop
      vertex -17.846 -2.34947 -47.5
      vertex -17.3867 4.65874 -47.5
      vertex -17.3867 -4.65874 -47.5
    endloop
  endfacet
  facet normal 0 0 -1
    outer loop
      vertex -17.846 -2.34947 -47.5
      vertex -17.846 2.34947 -47.5
      vertex -17.3867 4.65874 -47.5
    endloop
  endfacet
  facet normal 0 -0 -1
    outer loop
      vertex -17.846 2.34947 -47.5
      vertex -17.846 -2.34947 -47.5
      vertex -18 -0 -47.5
    endloop
  endfacet
  facet normal 0 0 1
    outer loop
      vertex 17.846 2.34947 47.5
      vertex 17.846 -2.34947 47.5
      vertex 18 0 47.5
    endloop
  endfacet
  facet normal 0 0 1
    outer loop
      vertex 17.3867 4.65874 47.5
      vertex 17.846 -2.34947 47.5
      vertex 17.846 2.34947 47.5
    endloop
  endfacet
  facet normal 0 0 1
    outer loop
      vertex 17.3867 4.65874 47.5
      vertex 17.3867 -4.65874 47.5
      vertex 17.846 -2.34947 47.5
    endloop
  endfacet
  facet normal 0 0 1
    outer loop
      vertex 16.6298 6.8883 47.5
      vertex 17.3867 -4.65874 47.5
      vertex 17.3867 4.65874 47.5
    endloop
  endfacet
  facet normal 0 0 1
    outer loop
      vertex 16.6298 6.8883 47.5
      vertex 16.6298 -6.8883 47.5
      vertex 17.3867 -4.65874 47.5
    endloop
  endfacet
  facet normal 0 0 1
    outer loop
      vertex 15.5885 9 47.5
      vertex 16.6298 -6.8883 47.5
      vertex 16.6298 6.8883 47.5
    endloop
  endfacet
  facet normal 0 0 1
    outer loop
      vertex 15.5885 9 47.5
      vertex 15.5885 -9 47.5
      vertex 16.6298 -6.8883 47.5
    endloop
  endfacet
  facet normal 0 0 1
    outer loop
      vertex 14.2804 10.9577 47.5
      vertex 15.5885 -9 47.5
      vertex 15.5885 9 47.5
    endloop
  endfacet
  facet normal 0 0 1
    outer loop
      vertex 14.2804 10.9577 47.5
      vertex 14.2804 -10.9577 47.5
      vertex 15.5885 -9 47.5
    endloop
  endfacet
  facet normal 0 0 1
    outer loop
      vertex 12.7279 12.7279 47.5
      vertex 14.2804 -10.9577 47.5
      vertex 14.2804 10.9577 47.5
    endloop
  endfacet
  facet normal 0 0 1
    outer loop
      vertex 12.7279 12.7279 47.5
      vertex 12.7279 -12.7279 47.5
      vertex 14.2804 -10.9577 47.5
    endloop
  endfacet
  facet normal 0 0 1
    outer loop
      vertex 10.9577 14.2804 47.5
      vertex 12.7279 -12.7279 47.5
      vertex 12.7279 12.7279 47.5
    endloop
  endfacet
  facet normal 0 0 1
    outer loop
      vertex 10.9577 14.2804 47.5
      vertex 10.9577 -14.2804 47.5
      vertex 12.7279 -12.7279 47.5
    endloop
  endfacet
  facet normal 0 0 1
    outer loop
      vertex 9 15.5885 47.5
      vertex 10.9577 -14.2804 47.5
      vertex 10.9577 14.2804 47.5
    endloop
  endfacet
  facet normal 0 0 1
    outer loop
      vertex 9 15.5885 47.5
      vertex 9 -15.5885 47.5
      vertex 10.9577 -14.2804 47.5
    endloop
  endfacet
  facet normal 0 0 1
    outer loop
      vertex 6.8883 16.6298 47.5
      vertex 9 -15.5885 47.5
      vertex 9 15.5885 47.5
    endloop
  endfacet
  facet normal 0 0 1
    outer loop
      vertex 6.8883 16.6298 47.5
      vertex 6.8883 -16.6298 47.5
      vertex 9 -15.5885 47.5
    endloop
  endfacet
  facet normal 0 0 1
    outer loop
      vertex 4.65874 17.3867 47.5
      vertex 6.8883 -16.6298 47.5
      vertex 6.8883 16.6298 47.5
    endloop
  endfacet
  facet normal 0 0 1
    outer loop
      vertex 4.65874 17.3867 47.5
      vertex 4.65874 -17.3867 47.5
      vertex 6.8883 -16.6298 47.5
    endloop
  endfacet
  facet normal 0 0 1
    outer loop
      vertex 2.34947 17.846 47.5
      vertex 4.65874 -17.3867 47.5
      vertex 4.65874 17.3867 47.5
    endloop
  endfacet
  facet normal 0 0 1
    outer loop
      vertex 2.34947 17.846 47.5
      vertex 2.34947 -17.846 47.5
      vertex 4.65874 -17.3867 47.5
    endloop
  endfacet
  facet normal 0 0 1
    outer loop
      vertex 0 18 47.5
      vertex 2.34947 -17.846 47.5
      vertex 2.34947 17.846 47.5
    endloop
  endfacet
  facet normal 0 0 1
    outer loop
      vertex 0 18 47.5
      vertex -0 -18 47.5
      vertex 2.34947 -17.846 47.5
    endloop
  endfacet
  facet normal -0 0 1
    outer loop
      vertex -2.34947 17.846 47.5
      vertex -0 -18 47.5
      vertex 0 18 47.5
    endloop
  endfacet
  facet normal 0 0 1
    outer loop
      vertex -2.34947 17.846 47.5
      vertex -2.34947 -17.846 47.5
      vertex -0 -18 47.5
    endloop
  endfacet
  facet normal -0 0 1
    outer loop
      vertex -4.65874 17.3867 47.5
      vertex -2.34947 -17.846 47.5
      vertex -2.34947 17.846 47.5
    endloop
  endfacet
  facet normal 0 0 1
    outer loop
      vertex -4.65874 17.3867 47.5
      vertex -4.65874 -17.3867 47.5
      vertex -2.34947 -17.846 47.5
    endloop
  endfacet
  facet normal -0 0 1
    outer loop
      vertex -6.8883 16.6298 47.5
      vertex -4.65874 -17.3867 47.5
      vertex -4.65874 17.3867 47.5
    endloop
  endfacet
  facet normal 0 0 1
    outer loop
      vertex -6.8883 16.6298 47.5
      vertex -6.8883 -16.6298 47.5
      vertex -4.65874 -17.3867 47.5
    endloop
  endfacet
  facet normal -0 0 1
    outer loop
      vertex -9 15.5885 47.5
      vertex -6.8883 -16.6298 47.5
      vertex -6.8883 16.6298 47.5
    endloop
  endfacet
  facet normal 0 0 1
    outer loop
      vertex -9 15.5885 47.5
      vertex -9 -15.5885 47.5
      vertex -6.8883 -16.6298 47.5
    endloop
  endfacet
  facet normal -0 0 1
    outer loop
      vertex -10.9577 14.2804 47.5
      vertex -9 -15.5885 47.5
      vertex -9 15.5885 47.5
    endloop
  endfacet
  facet normal 0 0 1
    outer loop
      vertex -10.9577 14.2804 47.5
      vertex -10.9577 -14.2804 47.5
      vertex -9 -15.5885 47.5
    endloop
  endfacet
  facet normal -0 0 1
    outer loop
      vertex -12.7279 12.7279 47.5
      vertex -10.9577 -14.2804 47.5
      vertex -10.9577 14.2804 47.5
    endloop
  endfacet
  facet normal 0 0 1
    outer loop
      vertex -12.7279 12.7279 47.5
      vertex -12.7279 -12.7279 47.5
      vertex -10.9577 -14.2804 47.5
    endloop
  endfacet
  facet normal -0 0 1
    outer loop
      vertex -14.2804 10.9577 47.5
      vertex -12.7279 -12.7279 47.5
      vertex -12.7279 12.7279 47.5
    endloop
  endfacet
  facet normal 0 0 1
    outer loop
      vertex -14.2804 10.9577 47.5
      vertex -14.2804 -10.9577 47.5
      vertex -12.7279 -12.7279 47.5
    endloop
  endfacet
  facet normal -0 0 1
    outer loop
      vertex -15.5885 9 47.5
      vertex -14.2804 -10.9577 47.5
      vertex -14.2804 10.9577 47.5
    endloop
  endfacet
  facet normal 0 0 1
    outer loop
      vertex -15.5885 9 47.5
      vertex -15.5885 -9 47.5
      vertex -14.2804 -10.9577 47.5
    endloop
  endfacet
  facet normal -0 0 1
    outer loop
      vertex -16.6298 6.8883 47.5
      vertex -15.5885 -9 47.5
      vertex -15.5885 9 47.5
    endloop
  endfacet
  facet normal 0 0 1
    outer loop
      vertex -16.6298 6.8883 47.5
      vertex -16.6298 -6.8883 47.5
      vertex -15.5885 -9 47.5
    endloop
  endfacet
  facet normal -0 0 1
    outer loop
      vertex -17.3867 4.65874 47.5
      vertex -16.6298 -6.8883 47.5
      vertex -16.6298 6.8883 47.5
    endloop
  endfacet
  facet normal 0 0 1
    outer loop
      vertex -17.3867 4.65874 47.5
      vertex -17.3867 -4.65874 47.5
      vertex -16.6298 -6.8883 47.5
    endloop
  endfacet
  facet normal -0 0 1
    outer loop
      vertex -17.846 2.34947 47.5
      vertex -17.3867 -4.65874 47.5
      vertex -17.3867 4.65874 47.5
    endloop
  endfacet
  facet normal 0 0 1
    outer loop
      vertex -17.846 2.34947 47.5
      vertex -17.846 -2.34947 47.5
      vertex -17.3867 -4.65874 47.5
    endloop
  endfacet
  facet normal 0 -0 1
    outer loop
      vertex -17.846 -2.34947 47.5
      vertex -17.846 2.34947 47.5
      vertex -18 -0 47.5
    endloop
  endfacet
endsolid OpenSCAD_Model
