solid OpenSCAD_Model
  facet normal 1 -0 0
    outer loop
      vertex 105 -85 2
      vertex 105 85 -2
      vertex 105 85 2
    endloop
  endfacet
  facet normal 1 0 0
    outer loop
      vertex 105 85 -2
      vertex 105 -85 2
      vertex 105 -85 -2
    endloop
  endfacet
  facet normal 0 0 1
    outer loop
      vertex 105 85 2
      vertex 100 2.5 2
      vertex 105 -85 2
    endloop
  endfacet
  facet normal 0 0 1
    outer loop
      vertex 105 85 2
      vertex 90 2.5 2
      vertex 100 2.5 2
    endloop
  endfacet
  facet normal 0 0 1
    outer loop
      vertex 90 2.5 2
      vertex -90 2.5 2
      vertex 90 -2.5 2
    endloop
  endfacet
  facet normal 0 0 1
    outer loop
      vertex 105 85 2
      vertex -90 2.5 2
      vertex 90 2.5 2
    endloop
  endfacet
  facet normal -0 0 1
    outer loop
      vertex -105 85 2
      vertex -90 2.5 2
      vertex 105 85 2
    endloop
  endfacet
  facet normal 0 0 1
    outer loop
      vertex -100 2.5 2
      vertex -105 85 2
      vertex -100 -2.5 2
    endloop
  endfacet
  facet normal 0 0 1
    outer loop
      vertex -90 2.5 2
      vertex -105 85 2
      vertex -100 2.5 2
    endloop
  endfacet
  facet normal -0 0 1
    outer loop
      vertex 100 -2.5 2
      vertex 105 -85 2
      vertex 100 2.5 2
    endloop
  endfacet
  facet normal -0 0 1
    outer loop
      vertex 90 -2.5 2
      vertex 105 -85 2
      vertex 100 -2.5 2
    endloop
  endfacet
  facet normal 0 0 1
    outer loop
      vertex -90 -2.5 2
      vertex 90 -2.5 2
      vertex -90 2.5 2
    endloop
  endfacet
  facet normal 0 0 1
    outer loop
      vertex 90 -2.5 2
      vertex -90 -2.5 2
      vertex 105 -85 2
    endloop
  endfacet
  facet normal 0 0 1
    outer loop
      vertex -105 -85 2
      vertex -90 -2.5 2
      vertex -100 -2.5 2
    endloop
  endfacet
  facet normal 0 0 1
    outer loop
      vertex -90 -2.5 2
      vertex -105 -85 2
      vertex 105 -85 2
    endloop
  endfacet
  facet normal 0 0 1
    outer loop
      vertex -105 -85 2
      vertex -100 -2.5 2
      vertex -105 85 2
    endloop
  endfacet
  facet normal 0 0 -1
    outer loop
      vertex 105 -85 -2
      vertex 100 -2.5 -2
      vertex 105 85 -2
    endloop
  endfacet
  facet normal 0 0 -1
    outer loop
      vertex 105 -85 -2
      vertex 90 -2.5 -2
      vertex 100 -2.5 -2
    endloop
  endfacet
  facet normal 0 0 -1
    outer loop
      vertex 90 -2.5 -2
      vertex -90 -2.5 -2
      vertex 90 2.5 -2
    endloop
  endfacet
  facet normal 0 0 -1
    outer loop
      vertex 105 -85 -2
      vertex -90 -2.5 -2
      vertex 90 -2.5 -2
    endloop
  endfacet
  facet normal 0 0 -1
    outer loop
      vertex -105 -85 -2
      vertex -90 -2.5 -2
      vertex 105 -85 -2
    endloop
  endfacet
  facet normal -0 0 -1
    outer loop
      vertex -100 -2.5 -2
      vertex -105 -85 -2
      vertex -100 2.5 -2
    endloop
  endfacet
  facet normal -0 0 -1
    outer loop
      vertex -90 -2.5 -2
      vertex -105 -85 -2
      vertex -100 -2.5 -2
    endloop
  endfacet
  facet normal 0 0 -1
    outer loop
      vertex 100 2.5 -2
      vertex 105 85 -2
      vertex 100 -2.5 -2
    endloop
  endfacet
  facet normal 0 0 -1
    outer loop
      vertex 90 2.5 -2
      vertex 105 85 -2
      vertex 100 2.5 -2
    endloop
  endfacet
  facet normal 0 0 -1
    outer loop
      vertex -90 2.5 -2
      vertex 90 2.5 -2
      vertex -90 -2.5 -2
    endloop
  endfacet
  facet normal 0 0 -1
    outer loop
      vertex 90 2.5 -2
      vertex -90 2.5 -2
      vertex 105 85 -2
    endloop
  endfacet
  facet normal 0 0 -1
    outer loop
      vertex -105 85 -2
      vertex -90 2.5 -2
      vertex -100 2.5 -2
    endloop
  endfacet
  facet normal 0 0 -1
    outer loop
      vertex -90 2.5 -2
      vertex -105 85 -2
      vertex 105 85 -2
    endloop
  endfacet
  facet normal 0 0 -1
    outer loop
      vertex -105 85 -2
      vertex -100 2.5 -2
      vertex -105 -85 -2
    endloop
  endfacet
  facet normal -1 0 0
    outer loop
      vertex -105 -85 -2
      vertex -105 85 2
      vertex -105 85 -2
    endloop
  endfacet
  facet normal -1 -0 0
    outer loop
      vertex -105 85 2
      vertex -105 -85 -2
      vertex -105 -85 2
    endloop
  endfacet
  facet normal 0 1 -0
    outer loop
      vertex 105 85 -2
      vertex -105 85 2
      vertex 105 85 2
    endloop
  endfacet
  facet normal 0 1 0
    outer loop
      vertex -105 85 2
      vertex 105 85 -2
      vertex -105 85 -2
    endloop
  endfacet
  facet normal 0 -1 0
    outer loop
      vertex -105 -85 -2
      vertex 105 -85 2
      vertex -105 -85 2
    endloop
  endfacet
  facet normal 0 -1 -0
    outer loop
      vertex 105 -85 2
      vertex -105 -85 -2
      vertex 105 -85 -2
    endloop
  endfacet
  facet normal -1 0 0
    outer loop
      vertex -90 -2.5 -2
      vertex -90 2.5 2
      vertex -90 2.5 -2
    endloop
  endfacet
  facet normal -1 -0 0
    outer loop
      vertex -90 2.5 2
      vertex -90 -2.5 -2
      vertex -90 -2.5 2
    endloop
  endfacet
  facet normal 1 -0 0
    outer loop
      vertex -100 -2.5 2
      vertex -100 2.5 -2
      vertex -100 2.5 2
    endloop
  endfacet
  facet normal 1 0 0
    outer loop
      vertex -100 2.5 -2
      vertex -100 -2.5 2
      vertex -100 -2.5 -2
    endloop
  endfacet
  facet normal 0 -1 0
    outer loop
      vertex -100 2.5 -2
      vertex -90 2.5 2
      vertex -100 2.5 2
    endloop
  endfacet
  facet normal 0 -1 -0
    outer loop
      vertex -90 2.5 2
      vertex -100 2.5 -2
      vertex -90 2.5 -2
    endloop
  endfacet
  facet normal 0 1 -0
    outer loop
      vertex -90 -2.5 -2
      vertex -100 -2.5 2
      vertex -90 -2.5 2
    endloop
  endfacet
  facet normal 0 1 0
    outer loop
      vertex -100 -2.5 2
      vertex -90 -2.5 -2
      vertex -100 -2.5 -2
    endloop
  endfacet
  facet normal -1 0 0
    outer loop
      vertex 100 -2.5 -2
      vertex 100 2.5 2
      vertex 100 2.5 -2
    endloop
  endfacet
  facet normal -1 -0 0
    outer loop
      vertex 100 2.5 2
      vertex 100 -2.5 -2
      vertex 100 -2.5 2
    endloop
  endfacet
  facet normal 1 -0 0
    outer loop
      vertex 90 -2.5 2
      vertex 90 2.5 -2
      vertex 90 2.5 2
    endloop
  endfacet
  facet normal 1 0 0
    outer loop
      vertex 90 2.5 -2
      vertex 90 -2.5 2
      vertex 90 -2.5 -2
    endloop
  endfacet
  facet normal 0 -1 0
    outer loop
      vertex 90 2.5 -2
      vertex 100 2.5 2
      vertex 90 2.5 2
    endloop
  endfacet
  facet normal 0 -1 -0
    outer loop
      vertex 100 2.5 2
      vertex 90 2.5 -2
      vertex 100 2.5 -2
    endloop
  endfacet
  facet normal 0 1 -0
    outer loop
      vertex 100 -2.5 -2
      vertex 90 -2.5 2
      vertex 100 -2.5 2
    endloop
  endfacet
  facet normal 0 1 0
    outer loop
      vertex 90 -2.5 2
      vertex 100 -2.5 -2
      vertex 90 -2.5 -2
    endloop
  endfacet
endsolid OpenSCAD_Model
