solid OpenSCAD_Model
  facet normal 1 -0 0
    outer loop
      vertex 55 -70 2
      vertex 55 70 -2
      vertex 55 70 2
    endloop
  endfacet
  facet normal 1 0 0
    outer loop
      vertex 55 70 -2
      vertex 55 -70 2
      vertex 55 -70 -2
    endloop
  endfacet
  facet normal 0 0 1
    outer loop
      vertex 55 70 2
      vertex 45 1 2
      vertex 55 -70 2
    endloop
  endfacet
  facet normal 0 0 1
    outer loop
      vertex 55 70 2
      vertex 25 1 2
      vertex 45 1 2
    endloop
  endfacet
  facet normal 0 0 1
    outer loop
      vertex 25 1 2
      vertex -25 1 2
      vertex 25 -1 2
    endloop
  endfacet
  facet normal 0 0 1
    outer loop
      vertex 55 70 2
      vertex -25 1 2
      vertex 25 1 2
    endloop
  endfacet
  facet normal -0 0 1
    outer loop
      vertex -55 70 2
      vertex -25 1 2
      vertex 55 70 2
    endloop
  endfacet
  facet normal 0 0 1
    outer loop
      vertex -45 1 2
      vertex -55 70 2
      vertex -45 -1 2
    endloop
  endfacet
  facet normal 0 0 1
    outer loop
      vertex -25 1 2
      vertex -55 70 2
      vertex -45 1 2
    endloop
  endfacet
  facet normal -0 0 1
    outer loop
      vertex 45 -1 2
      vertex 55 -70 2
      vertex 45 1 2
    endloop
  endfacet
  facet normal -0 0 1
    outer loop
      vertex 25 -1 2
      vertex 55 -70 2
      vertex 45 -1 2
    endloop
  endfacet
  facet normal 0 0 1
    outer loop
      vertex -25 -1 2
      vertex 25 -1 2
      vertex -25 1 2
    endloop
  endfacet
  facet normal 0 0 1
    outer loop
      vertex 25 -1 2
      vertex -25 -1 2
      vertex 55 -70 2
    endloop
  endfacet
  facet normal 0 0 1
    outer loop
      vertex -55 -70 2
      vertex -25 -1 2
      vertex -45 -1 2
    endloop
  endfacet
  facet normal 0 0 1
    outer loop
      vertex -25 -1 2
      vertex -55 -70 2
      vertex 55 -70 2
    endloop
  endfacet
  facet normal 0 0 1
    outer loop
      vertex -55 -70 2
      vertex -45 -1 2
      vertex -55 70 2
    endloop
  endfacet
  facet normal 0 0 -1
    outer loop
      vertex 55 -70 -2
      vertex 45 -1 -2
      vertex 55 70 -2
    endloop
  endfacet
  facet normal 0 0 -1
    outer loop
      vertex 55 -70 -2
      vertex 25 -1 -2
      vertex 45 -1 -2
    endloop
  endfacet
  facet normal 0 0 -1
    outer loop
      vertex 25 -1 -2
      vertex -25 -1 -2
      vertex 25 1 -2
    endloop
  endfacet
  facet normal 0 0 -1
    outer loop
      vertex 55 -70 -2
      vertex -25 -1 -2
      vertex 25 -1 -2
    endloop
  endfacet
  facet normal 0 0 -1
    outer loop
      vertex -55 -70 -2
      vertex -25 -1 -2
      vertex 55 -70 -2
    endloop
  endfacet
  facet normal -0 0 -1
    outer loop
      vertex -45 -1 -2
      vertex -55 -70 -2
      vertex -45 1 -2
    endloop
  endfacet
  facet normal -0 0 -1
    outer loop
      vertex -25 -1 -2
      vertex -55 -70 -2
      vertex -45 -1 -2
    endloop
  endfacet
  facet normal 0 0 -1
    outer loop
      vertex 45 1 -2
      vertex 55 70 -2
      vertex 45 -1 -2
    endloop
  endfacet
  facet normal 0 0 -1
    outer loop
      vertex 25 1 -2
      vertex 55 70 -2
      vertex 45 1 -2
    endloop
  endfacet
  facet normal 0 0 -1
    outer loop
      vertex -25 1 -2
      vertex 25 1 -2
      vertex -25 -1 -2
    endloop
  endfacet
  facet normal 0 0 -1
    outer loop
      vertex 25 1 -2
      vertex -25 1 -2
      vertex 55 70 -2
    endloop
  endfacet
  facet normal 0 0 -1
    outer loop
      vertex -55 70 -2
      vertex -25 1 -2
      vertex -45 1 -2
    endloop
  endfacet
  facet normal 0 0 -1
    outer loop
      vertex -25 1 -2
      vertex -55 70 -2
      vertex 55 70 -2
    endloop
  endfacet
  facet normal 0 0 -1
    outer loop
      vertex -55 70 -2
      vertex -45 1 -2
      vertex -55 -70 -2
    endloop
  endfacet
  facet normal -1 0 0
    outer loop
      vertex -55 -70 -2
      vertex -55 70 2
      vertex -55 70 -2
    endloop
  endfacet
  facet normal -1 -0 0
    outer loop
      vertex -55 70 2
      vertex -55 -70 -2
      vertex -55 -70 2
    endloop
  endfacet
  facet normal 0 1 -0
    outer loop
      vertex 55 70 -2
      vertex -55 70 2
      vertex 55 70 2
    endloop
  endfacet
  facet normal 0 1 0
    outer loop
      vertex -55 70 2
      vertex 55 70 -2
      vertex -55 70 -2
    endloop
  endfacet
  facet normal 0 -1 0
    outer loop
      vertex -55 -70 -2
      vertex 55 -70 2
      vertex -55 -70 2
    endloop
  endfacet
  facet normal 0 -1 -0
    outer loop
      vertex 55 -70 2
      vertex -55 -70 -2
      vertex 55 -70 -2
    endloop
  endfacet
  facet normal -1 0 0
    outer loop
      vertex -25 -1 -2
      vertex -25 1 2
      vertex -25 1 -2
    endloop
  endfacet
  facet normal -1 -0 0
    outer loop
      vertex -25 1 2
      vertex -25 -1 -2
      vertex -25 -1 2
    endloop
  endfacet
  facet normal 1 -0 0
    outer loop
      vertex -45 -1 2
      vertex -45 1 -2
      vertex -45 1 2
    endloop
  endfacet
  facet normal 1 0 0
    outer loop
      vertex -45 1 -2
      vertex -45 -1 2
      vertex -45 -1 -2
    endloop
  endfacet
  facet normal 0 -1 0
    outer loop
      vertex -45 1 -2
      vertex -25 1 2
      vertex -45 1 2
    endloop
  endfacet
  facet normal 0 -1 -0
    outer loop
      vertex -25 1 2
      vertex -45 1 -2
      vertex -25 1 -2
    endloop
  endfacet
  facet normal 0 1 -0
    outer loop
      vertex -25 -1 -2
      vertex -45 -1 2
      vertex -25 -1 2
    endloop
  endfacet
  facet normal 0 1 0
    outer loop
      vertex -45 -1 2
      vertex -25 -1 -2
      vertex -45 -1 -2
    endloop
  endfacet
  facet normal -1 0 0
    outer loop
      vertex 45 -1 -2
      vertex 45 1 2
      vertex 45 1 -2
    endloop
  endfacet
  facet normal -1 -0 0
    outer loop
      vertex 45 1 2
      vertex 45 -1 -2
      vertex 45 -1 2
    endloop
  endfacet
  facet normal 1 -0 0
    outer loop
      vertex 25 -1 2
      vertex 25 1 -2
      vertex 25 1 2
    endloop
  endfacet
  facet normal 1 0 0
    outer loop
      vertex 25 1 -2
      vertex 25 -1 2
      vertex 25 -1 -2
    endloop
  endfacet
  facet normal 0 -1 0
    outer loop
      vertex 25 1 -2
      vertex 45 1 2
      vertex 25 1 2
    endloop
  endfacet
  facet normal 0 -1 -0
    outer loop
      vertex 45 1 2
      vertex 25 1 -2
      vertex 45 1 -2
    endloop
  endfacet
  facet normal 0 1 -0
    outer loop
      vertex 45 -1 -2
      vertex 25 -1 2
      vertex 45 -1 2
    endloop
  endfacet
  facet normal 0 1 0
    outer loop
      vertex 25 -1 2
      vertex 45 -1 -2
      vertex 25 -1 -2
    endloop
  endfacet
endsolid OpenSCAD_Model
