solid OpenSCAD_Model
  facet normal -0 0 1
    outer loop
      vertex -50.8 25.4 6.35
      vertex 50.8 -25.4 6.35
      vertex 50.8 25.4 6.35
    endloop
  endfacet
  facet normal 0 0 1
    outer loop
      vertex 50.8 -25.4 6.35
      vertex -50.8 25.4 6.35
      vertex -50.8 -25.4 6.35
    endloop
  endfacet
  facet normal 0 0 -1
    outer loop
      vertex -50.8 -25.4 -6.35
      vertex 50.8 25.4 -6.35
      vertex 50.8 -25.4 -6.35
    endloop
  endfacet
  facet normal -0 0 -1
    outer loop
      vertex 50.8 25.4 -6.35
      vertex -50.8 -25.4 -6.35
      vertex -50.8 25.4 -6.35
    endloop
  endfacet
  facet normal 0 -1 0
    outer loop
      vertex -50.8 -25.4 -6.35
      vertex 50.8 -25.4 6.35
      vertex -50.8 -25.4 6.35
    endloop
  endfacet
  facet normal 0 -1 -0
    outer loop
      vertex 50.8 -25.4 6.35
      vertex -50.8 -25.4 -6.35
      vertex 50.8 -25.4 -6.35
    endloop
  endfacet
  facet normal 1 -0 0
    outer loop
      vertex 50.8 -25.4 6.35
      vertex 50.8 25.4 -6.35
      vertex 50.8 25.4 6.35
    endloop
  endfacet
  facet normal 1 0 0
    outer loop
      vertex 50.8 25.4 -6.35
      vertex 50.8 -25.4 6.35
      vertex 50.8 -25.4 -6.35
    endloop
  endfacet
  facet normal 0 1 -0
    outer loop
      vertex 50.8 25.4 -6.35
      vertex -50.8 25.4 6.35
      vertex 50.8 25.4 6.35
    endloop
  endfacet
  facet normal 0 1 0
    outer loop
      vertex -50.8 25.4 6.35
      vertex 50.8 25.4 -6.35
      vertex -50.8 25.4 -6.35
    endloop
  endfacet
  facet normal -1 0 0
    outer loop
      vertex -50.8 -25.4 -6.35
      vertex -50.8 25.4 6.35
      vertex -50.8 25.4 -6.35
    endloop
  endfacet
  facet normal -1 -0 0
    outer loop
      vertex -50.8 25.4 6.35
      vertex -50.8 -25.4 -6.35
      vertex -50.8 -25.4 6.35
    endloop
  endfacet
endsolid OpenSCAD_Model
