solid OpenSCAD_Model
  facet normal 1 -0 0
    outer loop
      vertex 95 -55 2.5
      vertex 95 55 -2.5
      vertex 95 55 2.5
    endloop
  endfacet
  facet normal 1 0 0
    outer loop
      vertex 95 55 -2.5
      vertex 95 -55 2.5
      vertex 95 -55 -2.5
    endloop
  endfacet
  facet normal 0 0 1
    outer loop
      vertex 95 55 2.5
      vertex 90 -44 2.5
      vertex 95 -55 2.5
    endloop
  endfacet
  facet normal 0 0 1
    outer loop
      vertex 95 55 2.5
      vertex 80 -44 2.5
      vertex 90 -44 2.5
    endloop
  endfacet
  facet normal 0 0 1
    outer loop
      vertex 95 55 2.5
      vertex 5 44 2.5
      vertex 80 -44 2.5
    endloop
  endfacet
  facet normal 0 0 1
    outer loop
      vertex 5 44 2.5
      vertex 95 55 2.5
      vertex 5 46 2.5
    endloop
  endfacet
  facet normal 0 0 1
    outer loop
      vertex 95 55 2.5
      vertex -5 46 2.5
      vertex 5 46 2.5
    endloop
  endfacet
  facet normal 0 0 1
    outer loop
      vertex -95 55 2.5
      vertex -5 44 2.5
      vertex -5 46 2.5
    endloop
  endfacet
  facet normal 0 0 1
    outer loop
      vertex -5 44 2.5
      vertex -95 55 2.5
      vertex -80 -44 2.5
    endloop
  endfacet
  facet normal 0 0 1
    outer loop
      vertex -95 -55 2.5
      vertex -90 -44 2.5
      vertex -95 55 2.5
    endloop
  endfacet
  facet normal 0 0 1
    outer loop
      vertex -80 -44 2.5
      vertex -95 55 2.5
      vertex -90 -44 2.5
    endloop
  endfacet
  facet normal -0 0 1
    outer loop
      vertex -95 55 2.5
      vertex -5 46 2.5
      vertex 95 55 2.5
    endloop
  endfacet
  facet normal -0 0 1
    outer loop
      vertex 90 -46 2.5
      vertex 95 -55 2.5
      vertex 90 -44 2.5
    endloop
  endfacet
  facet normal -0 0 1
    outer loop
      vertex 80 -46 2.5
      vertex 95 -55 2.5
      vertex 90 -46 2.5
    endloop
  endfacet
  facet normal -0 0 1
    outer loop
      vertex -5 44 2.5
      vertex 80 -44 2.5
      vertex 5 44 2.5
    endloop
  endfacet
  facet normal 0 0 1
    outer loop
      vertex -80 -44 2.5
      vertex 80 -44 2.5
      vertex -5 44 2.5
    endloop
  endfacet
  facet normal 0 0 1
    outer loop
      vertex 80 -44 2.5
      vertex -80 -44 2.5
      vertex 80 -46 2.5
    endloop
  endfacet
  facet normal 0 0 1
    outer loop
      vertex -80 -46 2.5
      vertex 80 -46 2.5
      vertex -80 -44 2.5
    endloop
  endfacet
  facet normal 0 0 1
    outer loop
      vertex 80 -46 2.5
      vertex -80 -46 2.5
      vertex 95 -55 2.5
    endloop
  endfacet
  facet normal 0 0 1
    outer loop
      vertex -95 -55 2.5
      vertex -80 -46 2.5
      vertex -90 -46 2.5
    endloop
  endfacet
  facet normal 0 0 1
    outer loop
      vertex -80 -46 2.5
      vertex -95 -55 2.5
      vertex 95 -55 2.5
    endloop
  endfacet
  facet normal 0 0 1
    outer loop
      vertex -90 -44 2.5
      vertex -95 -55 2.5
      vertex -90 -46 2.5
    endloop
  endfacet
  facet normal 0 0 -1
    outer loop
      vertex 90 -44 -2.5
      vertex 95 -55 -2.5
      vertex 90 -46 -2.5
    endloop
  endfacet
  facet normal 0 0 -1
    outer loop
      vertex 95 -55 -2.5
      vertex 80 -46 -2.5
      vertex 90 -46 -2.5
    endloop
  endfacet
  facet normal 0 0 -1
    outer loop
      vertex -80 -44 -2.5
      vertex 80 -44 -2.5
      vertex 80 -46 -2.5
    endloop
  endfacet
  facet normal 0 0 -1
    outer loop
      vertex 80 -44 -2.5
      vertex -5 44 -2.5
      vertex 5 44 -2.5
    endloop
  endfacet
  facet normal 0 0 -1
    outer loop
      vertex 80 -44 -2.5
      vertex -80 -44 -2.5
      vertex -5 44 -2.5
    endloop
  endfacet
  facet normal 0 0 -1
    outer loop
      vertex -80 -44 -2.5
      vertex 80 -46 -2.5
      vertex -80 -46 -2.5
    endloop
  endfacet
  facet normal 0 0 -1
    outer loop
      vertex 95 -55 -2.5
      vertex -80 -46 -2.5
      vertex 80 -46 -2.5
    endloop
  endfacet
  facet normal 0 0 -1
    outer loop
      vertex -95 -55 -2.5
      vertex -80 -46 -2.5
      vertex 95 -55 -2.5
    endloop
  endfacet
  facet normal -0 0 -1
    outer loop
      vertex -90 -46 -2.5
      vertex -95 -55 -2.5
      vertex -90 -44 -2.5
    endloop
  endfacet
  facet normal -0 0 -1
    outer loop
      vertex -80 -46 -2.5
      vertex -95 -55 -2.5
      vertex -90 -46 -2.5
    endloop
  endfacet
  facet normal 0 0 -1
    outer loop
      vertex 95 -55 -2.5
      vertex 90 -44 -2.5
      vertex 95 55 -2.5
    endloop
  endfacet
  facet normal 0 0 -1
    outer loop
      vertex 80 -44 -2.5
      vertex 95 55 -2.5
      vertex 90 -44 -2.5
    endloop
  endfacet
  facet normal 0 0 -1
    outer loop
      vertex 5 44 -2.5
      vertex 95 55 -2.5
      vertex 80 -44 -2.5
    endloop
  endfacet
  facet normal 0 0 -1
    outer loop
      vertex 5 46 -2.5
      vertex 95 55 -2.5
      vertex 5 44 -2.5
    endloop
  endfacet
  facet normal 0 0 -1
    outer loop
      vertex -5 46 -2.5
      vertex 95 55 -2.5
      vertex 5 46 -2.5
    endloop
  endfacet
  facet normal 0 0 -1
    outer loop
      vertex -95 55 -2.5
      vertex -5 44 -2.5
      vertex -80 -44 -2.5
    endloop
  endfacet
  facet normal 0 0 -1
    outer loop
      vertex -95 55 -2.5
      vertex -80 -44 -2.5
      vertex -90 -44 -2.5
    endloop
  endfacet
  facet normal 0 0 -1
    outer loop
      vertex -5 46 -2.5
      vertex -95 55 -2.5
      vertex 95 55 -2.5
    endloop
  endfacet
  facet normal 0 0 -1
    outer loop
      vertex -5 44 -2.5
      vertex -95 55 -2.5
      vertex -5 46 -2.5
    endloop
  endfacet
  facet normal 0 0 -1
    outer loop
      vertex -95 55 -2.5
      vertex -90 -44 -2.5
      vertex -95 -55 -2.5
    endloop
  endfacet
  facet normal -1 0 0
    outer loop
      vertex -95 -55 -2.5
      vertex -95 55 2.5
      vertex -95 55 -2.5
    endloop
  endfacet
  facet normal -1 -0 0
    outer loop
      vertex -95 55 2.5
      vertex -95 -55 -2.5
      vertex -95 -55 2.5
    endloop
  endfacet
  facet normal 0 1 -0
    outer loop
      vertex 95 55 -2.5
      vertex -95 55 2.5
      vertex 95 55 2.5
    endloop
  endfacet
  facet normal 0 1 0
    outer loop
      vertex -95 55 2.5
      vertex 95 55 -2.5
      vertex -95 55 -2.5
    endloop
  endfacet
  facet normal 0 -1 0
    outer loop
      vertex -95 -55 -2.5
      vertex 95 -55 2.5
      vertex -95 -55 2.5
    endloop
  endfacet
  facet normal 0 -1 -0
    outer loop
      vertex 95 -55 2.5
      vertex -95 -55 -2.5
      vertex 95 -55 -2.5
    endloop
  endfacet
  facet normal -1 0 0
    outer loop
      vertex -80 -46 -2.5
      vertex -80 -44 2.5
      vertex -80 -44 -2.5
    endloop
  endfacet
  facet normal -1 -0 0
    outer loop
      vertex -80 -44 2.5
      vertex -80 -46 -2.5
      vertex -80 -46 2.5
    endloop
  endfacet
  facet normal 1 -0 0
    outer loop
      vertex -90 -46 2.5
      vertex -90 -44 -2.5
      vertex -90 -44 2.5
    endloop
  endfacet
  facet normal 1 0 0
    outer loop
      vertex -90 -44 -2.5
      vertex -90 -46 2.5
      vertex -90 -46 -2.5
    endloop
  endfacet
  facet normal 0 -1 0
    outer loop
      vertex -90 -44 -2.5
      vertex -80 -44 2.5
      vertex -90 -44 2.5
    endloop
  endfacet
  facet normal 0 -1 -0
    outer loop
      vertex -80 -44 2.5
      vertex -90 -44 -2.5
      vertex -80 -44 -2.5
    endloop
  endfacet
  facet normal 0 1 -0
    outer loop
      vertex -80 -46 -2.5
      vertex -90 -46 2.5
      vertex -80 -46 2.5
    endloop
  endfacet
  facet normal 0 1 0
    outer loop
      vertex -90 -46 2.5
      vertex -80 -46 -2.5
      vertex -90 -46 -2.5
    endloop
  endfacet
  facet normal -1 0 0
    outer loop
      vertex 90 -46 -2.5
      vertex 90 -44 2.5
      vertex 90 -44 -2.5
    endloop
  endfacet
  facet normal -1 -0 0
    outer loop
      vertex 90 -44 2.5
      vertex 90 -46 -2.5
      vertex 90 -46 2.5
    endloop
  endfacet
  facet normal 1 -0 0
    outer loop
      vertex 80 -46 2.5
      vertex 80 -44 -2.5
      vertex 80 -44 2.5
    endloop
  endfacet
  facet normal 1 0 0
    outer loop
      vertex 80 -44 -2.5
      vertex 80 -46 2.5
      vertex 80 -46 -2.5
    endloop
  endfacet
  facet normal 0 -1 0
    outer loop
      vertex 80 -44 -2.5
      vertex 90 -44 2.5
      vertex 80 -44 2.5
    endloop
  endfacet
  facet normal 0 -1 -0
    outer loop
      vertex 90 -44 2.5
      vertex 80 -44 -2.5
      vertex 90 -44 -2.5
    endloop
  endfacet
  facet normal 0 1 -0
    outer loop
      vertex 90 -46 -2.5
      vertex 80 -46 2.5
      vertex 90 -46 2.5
    endloop
  endfacet
  facet normal 0 1 0
    outer loop
      vertex 80 -46 2.5
      vertex 90 -46 -2.5
      vertex 80 -46 -2.5
    endloop
  endfacet
  facet normal -1 0 0
    outer loop
      vertex 5 44 -2.5
      vertex 5 46 2.5
      vertex 5 46 -2.5
    endloop
  endfacet
  facet normal -1 -0 0
    outer loop
      vertex 5 46 2.5
      vertex 5 44 -2.5
      vertex 5 44 2.5
    endloop
  endfacet
  facet normal 1 -0 0
    outer loop
      vertex -5 44 2.5
      vertex -5 46 -2.5
      vertex -5 46 2.5
    endloop
  endfacet
  facet normal 1 0 0
    outer loop
      vertex -5 46 -2.5
      vertex -5 44 2.5
      vertex -5 44 -2.5
    endloop
  endfacet
  facet normal 0 -1 0
    outer loop
      vertex -5 46 -2.5
      vertex 5 46 2.5
      vertex -5 46 2.5
    endloop
  endfacet
  facet normal 0 -1 -0
    outer loop
      vertex 5 46 2.5
      vertex -5 46 -2.5
      vertex 5 46 -2.5
    endloop
  endfacet
  facet normal 0 1 -0
    outer loop
      vertex 5 44 -2.5
      vertex -5 44 2.5
      vertex 5 44 2.5
    endloop
  endfacet
  facet normal 0 1 0
    outer loop
      vertex -5 44 2.5
      vertex 5 44 -2.5
      vertex -5 44 -2.5
    endloop
  endfacet
endsolid OpenSCAD_Model
