solid OpenSCAD_Model
  facet normal 1 -0 0
    outer loop
      vertex 85 -75 2
      vertex 85 75 -2
      vertex 85 75 2
    endloop
  endfacet
  facet normal 1 0 0
    outer loop
      vertex 85 75 -2
      vertex 85 -75 2
      vertex 85 -75 -2
    endloop
  endfacet
  facet normal 0 0 1
    outer loop
      vertex 85 75 2
      vertex 77 -57 2
      vertex 85 -75 2
    endloop
  endfacet
  facet normal 0 0 1
    outer loop
      vertex 85 75 2
      vertex 61 -57 2
      vertex 77 -57 2
    endloop
  endfacet
  facet normal 0 0 1
    outer loop
      vertex 85 75 2
      vertex 8 57 2
      vertex 61 -57 2
    endloop
  endfacet
  facet normal 0 0 1
    outer loop
      vertex 8 57 2
      vertex 85 75 2
      vertex 8 61 2
    endloop
  endfacet
  facet normal 0 0 1
    outer loop
      vertex 85 75 2
      vertex -8 61 2
      vertex 8 61 2
    endloop
  endfacet
  facet normal 0 0 1
    outer loop
      vertex -85 75 2
      vertex -8 57 2
      vertex -8 61 2
    endloop
  endfacet
  facet normal 0 0 1
    outer loop
      vertex -8 57 2
      vertex -85 75 2
      vertex -61 -57 2
    endloop
  endfacet
  facet normal 0 0 1
    outer loop
      vertex -85 -75 2
      vertex -77 -57 2
      vertex -85 75 2
    endloop
  endfacet
  facet normal 0 0 1
    outer loop
      vertex -61 -57 2
      vertex -85 75 2
      vertex -77 -57 2
    endloop
  endfacet
  facet normal -0 0 1
    outer loop
      vertex -85 75 2
      vertex -8 61 2
      vertex 85 75 2
    endloop
  endfacet
  facet normal -0 0 1
    outer loop
      vertex 77 -61 2
      vertex 85 -75 2
      vertex 77 -57 2
    endloop
  endfacet
  facet normal -0 0 1
    outer loop
      vertex 61 -61 2
      vertex 85 -75 2
      vertex 77 -61 2
    endloop
  endfacet
  facet normal 0 0 1
    outer loop
      vertex -61 -57 2
      vertex 61 -57 2
      vertex 8 57 2
    endloop
  endfacet
  facet normal 0 0 1
    outer loop
      vertex -61 -57 2
      vertex 8 57 2
      vertex -8 57 2
    endloop
  endfacet
  facet normal 0 0 1
    outer loop
      vertex 61 -57 2
      vertex -61 -57 2
      vertex 61 -61 2
    endloop
  endfacet
  facet normal 0 0 1
    outer loop
      vertex -61 -61 2
      vertex 61 -61 2
      vertex -61 -57 2
    endloop
  endfacet
  facet normal 0 0 1
    outer loop
      vertex 61 -61 2
      vertex -61 -61 2
      vertex 85 -75 2
    endloop
  endfacet
  facet normal 0 0 1
    outer loop
      vertex -85 -75 2
      vertex -61 -61 2
      vertex -77 -61 2
    endloop
  endfacet
  facet normal 0 0 1
    outer loop
      vertex -61 -61 2
      vertex -85 -75 2
      vertex 85 -75 2
    endloop
  endfacet
  facet normal 0 0 1
    outer loop
      vertex -77 -57 2
      vertex -85 -75 2
      vertex -77 -61 2
    endloop
  endfacet
  facet normal 0 0 -1
    outer loop
      vertex 77 -57 -2
      vertex 85 -75 -2
      vertex 77 -61 -2
    endloop
  endfacet
  facet normal 0 0 -1
    outer loop
      vertex 85 -75 -2
      vertex 61 -61 -2
      vertex 77 -61 -2
    endloop
  endfacet
  facet normal 0 0 -1
    outer loop
      vertex -61 -57 -2
      vertex 61 -57 -2
      vertex 61 -61 -2
    endloop
  endfacet
  facet normal 0 0 -1
    outer loop
      vertex 61 -57 -2
      vertex -61 -57 -2
      vertex 8 57 -2
    endloop
  endfacet
  facet normal -0 0 -1
    outer loop
      vertex 8 57 -2
      vertex -61 -57 -2
      vertex -8 57 -2
    endloop
  endfacet
  facet normal 0 0 -1
    outer loop
      vertex -61 -57 -2
      vertex 61 -61 -2
      vertex -61 -61 -2
    endloop
  endfacet
  facet normal 0 0 -1
    outer loop
      vertex 85 -75 -2
      vertex -61 -61 -2
      vertex 61 -61 -2
    endloop
  endfacet
  facet normal 0 0 -1
    outer loop
      vertex -85 -75 -2
      vertex -61 -61 -2
      vertex 85 -75 -2
    endloop
  endfacet
  facet normal -0 0 -1
    outer loop
      vertex -77 -61 -2
      vertex -85 -75 -2
      vertex -77 -57 -2
    endloop
  endfacet
  facet normal -0 0 -1
    outer loop
      vertex -61 -61 -2
      vertex -85 -75 -2
      vertex -77 -61 -2
    endloop
  endfacet
  facet normal 0 0 -1
    outer loop
      vertex 85 -75 -2
      vertex 77 -57 -2
      vertex 85 75 -2
    endloop
  endfacet
  facet normal 0 0 -1
    outer loop
      vertex 61 -57 -2
      vertex 85 75 -2
      vertex 77 -57 -2
    endloop
  endfacet
  facet normal 0 0 -1
    outer loop
      vertex 8 57 -2
      vertex 85 75 -2
      vertex 61 -57 -2
    endloop
  endfacet
  facet normal 0 0 -1
    outer loop
      vertex 8 61 -2
      vertex 85 75 -2
      vertex 8 57 -2
    endloop
  endfacet
  facet normal 0 0 -1
    outer loop
      vertex -8 61 -2
      vertex 85 75 -2
      vertex 8 61 -2
    endloop
  endfacet
  facet normal 0 0 -1
    outer loop
      vertex -85 75 -2
      vertex -8 57 -2
      vertex -61 -57 -2
    endloop
  endfacet
  facet normal 0 0 -1
    outer loop
      vertex -85 75 -2
      vertex -61 -57 -2
      vertex -77 -57 -2
    endloop
  endfacet
  facet normal 0 0 -1
    outer loop
      vertex -8 61 -2
      vertex -85 75 -2
      vertex 85 75 -2
    endloop
  endfacet
  facet normal 0 0 -1
    outer loop
      vertex -8 57 -2
      vertex -85 75 -2
      vertex -8 61 -2
    endloop
  endfacet
  facet normal 0 0 -1
    outer loop
      vertex -85 75 -2
      vertex -77 -57 -2
      vertex -85 -75 -2
    endloop
  endfacet
  facet normal -1 0 0
    outer loop
      vertex -85 -75 -2
      vertex -85 75 2
      vertex -85 75 -2
    endloop
  endfacet
  facet normal -1 -0 0
    outer loop
      vertex -85 75 2
      vertex -85 -75 -2
      vertex -85 -75 2
    endloop
  endfacet
  facet normal 0 1 -0
    outer loop
      vertex 85 75 -2
      vertex -85 75 2
      vertex 85 75 2
    endloop
  endfacet
  facet normal 0 1 0
    outer loop
      vertex -85 75 2
      vertex 85 75 -2
      vertex -85 75 -2
    endloop
  endfacet
  facet normal 0 -1 0
    outer loop
      vertex -85 -75 -2
      vertex 85 -75 2
      vertex -85 -75 2
    endloop
  endfacet
  facet normal 0 -1 -0
    outer loop
      vertex 85 -75 2
      vertex -85 -75 -2
      vertex 85 -75 -2
    endloop
  endfacet
  facet normal -1 0 0
    outer loop
      vertex -61 -61 -2
      vertex -61 -57 2
      vertex -61 -57 -2
    endloop
  endfacet
  facet normal -1 -0 0
    outer loop
      vertex -61 -57 2
      vertex -61 -61 -2
      vertex -61 -61 2
    endloop
  endfacet
  facet normal 1 -0 0
    outer loop
      vertex -77 -61 2
      vertex -77 -57 -2
      vertex -77 -57 2
    endloop
  endfacet
  facet normal 1 0 0
    outer loop
      vertex -77 -57 -2
      vertex -77 -61 2
      vertex -77 -61 -2
    endloop
  endfacet
  facet normal 0 -1 0
    outer loop
      vertex -77 -57 -2
      vertex -61 -57 2
      vertex -77 -57 2
    endloop
  endfacet
  facet normal 0 -1 -0
    outer loop
      vertex -61 -57 2
      vertex -77 -57 -2
      vertex -61 -57 -2
    endloop
  endfacet
  facet normal 0 1 -0
    outer loop
      vertex -61 -61 -2
      vertex -77 -61 2
      vertex -61 -61 2
    endloop
  endfacet
  facet normal 0 1 0
    outer loop
      vertex -77 -61 2
      vertex -61 -61 -2
      vertex -77 -61 -2
    endloop
  endfacet
  facet normal -1 0 0
    outer loop
      vertex 77 -61 -2
      vertex 77 -57 2
      vertex 77 -57 -2
    endloop
  endfacet
  facet normal -1 -0 0
    outer loop
      vertex 77 -57 2
      vertex 77 -61 -2
      vertex 77 -61 2
    endloop
  endfacet
  facet normal 1 -0 0
    outer loop
      vertex 61 -61 2
      vertex 61 -57 -2
      vertex 61 -57 2
    endloop
  endfacet
  facet normal 1 0 0
    outer loop
      vertex 61 -57 -2
      vertex 61 -61 2
      vertex 61 -61 -2
    endloop
  endfacet
  facet normal 0 -1 0
    outer loop
      vertex 61 -57 -2
      vertex 77 -57 2
      vertex 61 -57 2
    endloop
  endfacet
  facet normal 0 -1 -0
    outer loop
      vertex 77 -57 2
      vertex 61 -57 -2
      vertex 77 -57 -2
    endloop
  endfacet
  facet normal 0 1 -0
    outer loop
      vertex 77 -61 -2
      vertex 61 -61 2
      vertex 77 -61 2
    endloop
  endfacet
  facet normal 0 1 0
    outer loop
      vertex 61 -61 2
      vertex 77 -61 -2
      vertex 61 -61 -2
    endloop
  endfacet
  facet normal -1 0 0
    outer loop
      vertex 8 57 -2
      vertex 8 61 2
      vertex 8 61 -2
    endloop
  endfacet
  facet normal -1 -0 0
    outer loop
      vertex 8 61 2
      vertex 8 57 -2
      vertex 8 57 2
    endloop
  endfacet
  facet normal 1 -0 0
    outer loop
      vertex -8 57 2
      vertex -8 61 -2
      vertex -8 61 2
    endloop
  endfacet
  facet normal 1 0 0
    outer loop
      vertex -8 61 -2
      vertex -8 57 2
      vertex -8 57 -2
    endloop
  endfacet
  facet normal 0 -1 0
    outer loop
      vertex -8 61 -2
      vertex 8 61 2
      vertex -8 61 2
    endloop
  endfacet
  facet normal 0 -1 -0
    outer loop
      vertex 8 61 2
      vertex -8 61 -2
      vertex 8 61 -2
    endloop
  endfacet
  facet normal 0 1 -0
    outer loop
      vertex 8 57 -2
      vertex -8 57 2
      vertex 8 57 2
    endloop
  endfacet
  facet normal 0 1 0
    outer loop
      vertex -8 57 2
      vertex 8 57 -2
      vertex -8 57 -2
    endloop
  endfacet
endsolid OpenSCAD_Model
