solid OpenSCAD_Model
  facet normal 1 -0 0
    outer loop
      vertex 90 -40 1
      vertex 90 40 -1
      vertex 90 40 1
    endloop
  endfacet
  facet normal 1 0 0
    outer loop
      vertex 90 40 -1
      vertex 90 -40 1
      vertex 90 -40 -1
    endloop
  endfacet
  facet normal 0 0 1
    outer loop
      vertex 90 40 1
      vertex 83.5 0 1
      vertex 90 -40 1
    endloop
  endfacet
  facet normal 0 0 1
    outer loop
      vertex 90 40 1
      vertex 83.4872 0.195788 1
      vertex 83.5 0 1
    endloop
  endfacet
  facet normal 0 0 1
    outer loop
      vertex 90 40 1
      vertex 83.4489 0.388228 1
      vertex 83.4872 0.195788 1
    endloop
  endfacet
  facet normal 0 0 1
    outer loop
      vertex 90 40 1
      vertex 83.3858 0.574024 1
      vertex 83.4489 0.388228 1
    endloop
  endfacet
  facet normal 0 0 1
    outer loop
      vertex 90 40 1
      vertex 83.299 0.75 1
      vertex 83.3858 0.574024 1
    endloop
  endfacet
  facet normal 0 0 1
    outer loop
      vertex 90 40 1
      vertex 83.19 0.913141 1
      vertex 83.299 0.75 1
    endloop
  endfacet
  facet normal 0 0 1
    outer loop
      vertex 90 40 1
      vertex 83.0607 1.06066 1
      vertex 83.19 0.913141 1
    endloop
  endfacet
  facet normal 0 0 1
    outer loop
      vertex 90 40 1
      vertex 82.9131 1.19003 1
      vertex 83.0607 1.06066 1
    endloop
  endfacet
  facet normal 0 0 1
    outer loop
      vertex 90 40 1
      vertex 82.75 1.29904 1
      vertex 82.9131 1.19003 1
    endloop
  endfacet
  facet normal 0 0 1
    outer loop
      vertex 90 40 1
      vertex 82.574 1.38582 1
      vertex 82.75 1.29904 1
    endloop
  endfacet
  facet normal 0 0 1
    outer loop
      vertex 90 40 1
      vertex 82.3882 1.44889 1
      vertex 82.574 1.38582 1
    endloop
  endfacet
  facet normal 0 0 1
    outer loop
      vertex 90 40 1
      vertex 82.1958 1.48717 1
      vertex 82.3882 1.44889 1
    endloop
  endfacet
  facet normal 0 0 1
    outer loop
      vertex 90 40 1
      vertex 82 1.5 1
      vertex 82.1958 1.48717 1
    endloop
  endfacet
  facet normal 0 0 1
    outer loop
      vertex 90 40 1
      vertex 81.8042 1.48717 1
      vertex 82 1.5 1
    endloop
  endfacet
  facet normal 0 0 1
    outer loop
      vertex 90 40 1
      vertex 81.6118 1.44889 1
      vertex 81.8042 1.48717 1
    endloop
  endfacet
  facet normal 0 0 1
    outer loop
      vertex 90 40 1
      vertex 81.426 1.38582 1
      vertex 81.6118 1.44889 1
    endloop
  endfacet
  facet normal 0 0 1
    outer loop
      vertex 90 40 1
      vertex 81.25 1.29904 1
      vertex 81.426 1.38582 1
    endloop
  endfacet
  facet normal 0 0 1
    outer loop
      vertex 90 40 1
      vertex 81.0869 1.19003 1
      vertex 81.25 1.29904 1
    endloop
  endfacet
  facet normal 0 0 1
    outer loop
      vertex 90 40 1
      vertex 80.9393 1.06066 1
      vertex 81.0869 1.19003 1
    endloop
  endfacet
  facet normal 0 0 1
    outer loop
      vertex 90 40 1
      vertex 80.81 0.913141 1
      vertex 80.9393 1.06066 1
    endloop
  endfacet
  facet normal 0 0 1
    outer loop
      vertex 90 40 1
      vertex 80.701 0.75 1
      vertex 80.81 0.913141 1
    endloop
  endfacet
  facet normal 0 0 1
    outer loop
      vertex 90 40 1
      vertex 80.6142 0.574024 1
      vertex 80.701 0.75 1
    endloop
  endfacet
  facet normal 0 0 1
    outer loop
      vertex -80.6142 0.574024 1
      vertex 80.6142 0.574024 1
      vertex 90 40 1
    endloop
  endfacet
  facet normal 0 0 1
    outer loop
      vertex 80.5128 0.195788 1
      vertex -80.5 0 1
      vertex 80.5 0 1
    endloop
  endfacet
  facet normal 0 0 1
    outer loop
      vertex -80.5128 0.195788 1
      vertex 80.5128 0.195788 1
      vertex 80.5511 0.388228 1
    endloop
  endfacet
  facet normal 0 0 1
    outer loop
      vertex 80.6142 0.574024 1
      vertex -80.6142 0.574024 1
      vertex 80.5511 0.388228 1
    endloop
  endfacet
  facet normal 0 0 1
    outer loop
      vertex 80.5128 0.195788 1
      vertex -80.5128 0.195788 1
      vertex -80.5 0 1
    endloop
  endfacet
  facet normal 0 0 1
    outer loop
      vertex 80.5511 0.388228 1
      vertex -80.5511 0.388228 1
      vertex -80.5128 0.195788 1
    endloop
  endfacet
  facet normal 0 0 1
    outer loop
      vertex 80.5511 0.388228 1
      vertex -80.6142 0.574024 1
      vertex -80.5511 0.388228 1
    endloop
  endfacet
  facet normal 0 0 1
    outer loop
      vertex 90 40 1
      vertex -80.701 0.75 1
      vertex -80.6142 0.574024 1
    endloop
  endfacet
  facet normal -0 0 1
    outer loop
      vertex -90 40 1
      vertex -80.701 0.75 1
      vertex 90 40 1
    endloop
  endfacet
  facet normal 0 0 1
    outer loop
      vertex -80.701 0.75 1
      vertex -90 40 1
      vertex -80.81 0.913141 1
    endloop
  endfacet
  facet normal 0 0 1
    outer loop
      vertex -80.81 0.913141 1
      vertex -90 40 1
      vertex -80.9393 1.06066 1
    endloop
  endfacet
  facet normal 0 0 1
    outer loop
      vertex -80.9393 1.06066 1
      vertex -90 40 1
      vertex -81.0869 1.19003 1
    endloop
  endfacet
  facet normal 0 0 1
    outer loop
      vertex -81.0869 1.19003 1
      vertex -90 40 1
      vertex -81.25 1.29904 1
    endloop
  endfacet
  facet normal 0 0 1
    outer loop
      vertex -81.25 1.29904 1
      vertex -90 40 1
      vertex -81.426 1.38582 1
    endloop
  endfacet
  facet normal 0 0 1
    outer loop
      vertex -81.426 1.38582 1
      vertex -90 40 1
      vertex -81.6118 1.44889 1
    endloop
  endfacet
  facet normal 0 0 1
    outer loop
      vertex -81.6118 1.44889 1
      vertex -90 40 1
      vertex -81.8042 1.48717 1
    endloop
  endfacet
  facet normal 0 0 1
    outer loop
      vertex -81.8042 1.48717 1
      vertex -90 40 1
      vertex -82 1.5 1
    endloop
  endfacet
  facet normal 0 0 1
    outer loop
      vertex -82 1.5 1
      vertex -90 40 1
      vertex -82.1958 1.48717 1
    endloop
  endfacet
  facet normal 0 0 1
    outer loop
      vertex -83.4872 0.195788 1
      vertex -90 40 1
      vertex -83.5 0 1
    endloop
  endfacet
  facet normal 0 0 1
    outer loop
      vertex -83.4489 0.388228 1
      vertex -90 40 1
      vertex -83.4872 0.195788 1
    endloop
  endfacet
  facet normal 0 0 1
    outer loop
      vertex -83.3858 0.574024 1
      vertex -90 40 1
      vertex -83.4489 0.388228 1
    endloop
  endfacet
  facet normal 0 0 1
    outer loop
      vertex -83.299 0.75 1
      vertex -90 40 1
      vertex -83.3858 0.574024 1
    endloop
  endfacet
  facet normal 0 0 1
    outer loop
      vertex -83.19 0.913141 1
      vertex -90 40 1
      vertex -83.299 0.75 1
    endloop
  endfacet
  facet normal 0 0 1
    outer loop
      vertex -83.0607 1.06066 1
      vertex -90 40 1
      vertex -83.19 0.913141 1
    endloop
  endfacet
  facet normal 0 0 1
    outer loop
      vertex -82.9131 1.19003 1
      vertex -90 40 1
      vertex -83.0607 1.06066 1
    endloop
  endfacet
  facet normal 0 0 1
    outer loop
      vertex -82.75 1.29904 1
      vertex -90 40 1
      vertex -82.9131 1.19003 1
    endloop
  endfacet
  facet normal 0 0 1
    outer loop
      vertex -82.574 1.38582 1
      vertex -90 40 1
      vertex -82.75 1.29904 1
    endloop
  endfacet
  facet normal 0 0 1
    outer loop
      vertex -82.3882 1.44889 1
      vertex -90 40 1
      vertex -82.574 1.38582 1
    endloop
  endfacet
  facet normal 0 0 1
    outer loop
      vertex -82.1958 1.48717 1
      vertex -90 40 1
      vertex -82.3882 1.44889 1
    endloop
  endfacet
  facet normal -0 0 1
    outer loop
      vertex 83.4872 -0.195788 1
      vertex 90 -40 1
      vertex 83.5 0 1
    endloop
  endfacet
  facet normal -0 0 1
    outer loop
      vertex 83.4489 -0.388228 1
      vertex 90 -40 1
      vertex 83.4872 -0.195788 1
    endloop
  endfacet
  facet normal -0 0 1
    outer loop
      vertex 83.3858 -0.574024 1
      vertex 90 -40 1
      vertex 83.4489 -0.388228 1
    endloop
  endfacet
  facet normal -0 0 1
    outer loop
      vertex 83.299 -0.75 1
      vertex 90 -40 1
      vertex 83.3858 -0.574024 1
    endloop
  endfacet
  facet normal -0 0 1
    outer loop
      vertex 83.19 -0.913141 1
      vertex 90 -40 1
      vertex 83.299 -0.75 1
    endloop
  endfacet
  facet normal -0 0 1
    outer loop
      vertex 83.0607 -1.06066 1
      vertex 90 -40 1
      vertex 83.19 -0.913141 1
    endloop
  endfacet
  facet normal -0 0 1
    outer loop
      vertex 82.9131 -1.19003 1
      vertex 90 -40 1
      vertex 83.0607 -1.06066 1
    endloop
  endfacet
  facet normal -0 0 1
    outer loop
      vertex 82.75 -1.29904 1
      vertex 90 -40 1
      vertex 82.9131 -1.19003 1
    endloop
  endfacet
  facet normal -0 0 1
    outer loop
      vertex 82.574 -1.38582 1
      vertex 90 -40 1
      vertex 82.75 -1.29904 1
    endloop
  endfacet
  facet normal -0 0 1
    outer loop
      vertex 82.3882 -1.44889 1
      vertex 90 -40 1
      vertex 82.574 -1.38582 1
    endloop
  endfacet
  facet normal -0 0 1
    outer loop
      vertex 82.1958 -1.48717 1
      vertex 90 -40 1
      vertex 82.3882 -1.44889 1
    endloop
  endfacet
  facet normal -0 0 1
    outer loop
      vertex 82 -1.5 1
      vertex 90 -40 1
      vertex 82.1958 -1.48717 1
    endloop
  endfacet
  facet normal 0 0 1
    outer loop
      vertex 81.8042 -1.48717 1
      vertex 90 -40 1
      vertex 82 -1.5 1
    endloop
  endfacet
  facet normal 0 0 1
    outer loop
      vertex 81.6118 -1.44889 1
      vertex 90 -40 1
      vertex 81.8042 -1.48717 1
    endloop
  endfacet
  facet normal 0 0 1
    outer loop
      vertex 81.426 -1.38582 1
      vertex 90 -40 1
      vertex 81.6118 -1.44889 1
    endloop
  endfacet
  facet normal 0 0 1
    outer loop
      vertex 81.25 -1.29904 1
      vertex 90 -40 1
      vertex 81.426 -1.38582 1
    endloop
  endfacet
  facet normal 0 0 1
    outer loop
      vertex 81.0869 -1.19003 1
      vertex 90 -40 1
      vertex 81.25 -1.29904 1
    endloop
  endfacet
  facet normal 0 0 1
    outer loop
      vertex 80.9393 -1.06066 1
      vertex 90 -40 1
      vertex 81.0869 -1.19003 1
    endloop
  endfacet
  facet normal 0 0 1
    outer loop
      vertex 80.81 -0.913141 1
      vertex 90 -40 1
      vertex 80.9393 -1.06066 1
    endloop
  endfacet
  facet normal 0 0 1
    outer loop
      vertex 80.701 -0.75 1
      vertex 90 -40 1
      vertex 80.81 -0.913141 1
    endloop
  endfacet
  facet normal 0 0 1
    outer loop
      vertex 80.6142 -0.574024 1
      vertex 90 -40 1
      vertex 80.701 -0.75 1
    endloop
  endfacet
  facet normal 0 0 1
    outer loop
      vertex -80.6142 -0.574024 1
      vertex 80.6142 -0.574024 1
      vertex 80.5511 -0.388228 1
    endloop
  endfacet
  facet normal -0 0 1
    outer loop
      vertex -80.5 0 1
      vertex 80.5128 -0.195788 1
      vertex 80.5 0 1
    endloop
  endfacet
  facet normal 0 0 1
    outer loop
      vertex -80.5128 -0.195788 1
      vertex 80.5128 -0.195788 1
      vertex -80.5 0 1
    endloop
  endfacet
  facet normal 0 0 1
    outer loop
      vertex 80.5128 -0.195788 1
      vertex -80.5128 -0.195788 1
      vertex 80.5511 -0.388228 1
    endloop
  endfacet
  facet normal 0 0 1
    outer loop
      vertex -80.5511 -0.388228 1
      vertex 80.5511 -0.388228 1
      vertex -80.5128 -0.195788 1
    endloop
  endfacet
  facet normal 0 0 1
    outer loop
      vertex -80.6142 -0.574024 1
      vertex 80.5511 -0.388228 1
      vertex -80.5511 -0.388228 1
    endloop
  endfacet
  facet normal 0 0 1
    outer loop
      vertex 80.6142 -0.574024 1
      vertex -80.6142 -0.574024 1
      vertex 90 -40 1
    endloop
  endfacet
  facet normal -0 0 1
    outer loop
      vertex -80.701 -0.75 1
      vertex 90 -40 1
      vertex -80.6142 -0.574024 1
    endloop
  endfacet
  facet normal 0 0 1
    outer loop
      vertex -90 -40 1
      vertex -80.701 -0.75 1
      vertex -80.81 -0.913141 1
    endloop
  endfacet
  facet normal 0 0 1
    outer loop
      vertex -90 -40 1
      vertex -80.81 -0.913141 1
      vertex -80.9393 -1.06066 1
    endloop
  endfacet
  facet normal 0 0 1
    outer loop
      vertex -90 -40 1
      vertex -80.9393 -1.06066 1
      vertex -81.0869 -1.19003 1
    endloop
  endfacet
  facet normal 0 0 1
    outer loop
      vertex -90 -40 1
      vertex -81.0869 -1.19003 1
      vertex -81.25 -1.29904 1
    endloop
  endfacet
  facet normal 0 0 1
    outer loop
      vertex -90 -40 1
      vertex -81.25 -1.29904 1
      vertex -81.426 -1.38582 1
    endloop
  endfacet
  facet normal 0 0 1
    outer loop
      vertex -90 -40 1
      vertex -81.426 -1.38582 1
      vertex -81.6118 -1.44889 1
    endloop
  endfacet
  facet normal 0 0 1
    outer loop
      vertex -90 -40 1
      vertex -81.6118 -1.44889 1
      vertex -81.8042 -1.48717 1
    endloop
  endfacet
  facet normal 0 0 1
    outer loop
      vertex -90 -40 1
      vertex -81.8042 -1.48717 1
      vertex -82 -1.5 1
    endloop
  endfacet
  facet normal 0 0 1
    outer loop
      vertex -90 -40 1
      vertex -82 -1.5 1
      vertex -82.1958 -1.48717 1
    endloop
  endfacet
  facet normal 0 0 1
    outer loop
      vertex -90 -40 1
      vertex -82.1958 -1.48717 1
      vertex -82.3882 -1.44889 1
    endloop
  endfacet
  facet normal 0 0 1
    outer loop
      vertex -90 -40 1
      vertex -83.5 0 1
      vertex -90 40 1
    endloop
  endfacet
  facet normal 0 0 1
    outer loop
      vertex -80.701 -0.75 1
      vertex -90 -40 1
      vertex 90 -40 1
    endloop
  endfacet
  facet normal 0 0 1
    outer loop
      vertex -82.574 -1.38582 1
      vertex -90 -40 1
      vertex -82.3882 -1.44889 1
    endloop
  endfacet
  facet normal 0 0 1
    outer loop
      vertex -82.75 -1.29904 1
      vertex -90 -40 1
      vertex -82.574 -1.38582 1
    endloop
  endfacet
  facet normal 0 0 1
    outer loop
      vertex -82.9131 -1.19003 1
      vertex -90 -40 1
      vertex -82.75 -1.29904 1
    endloop
  endfacet
  facet normal 0 0 1
    outer loop
      vertex -83.0607 -1.06066 1
      vertex -90 -40 1
      vertex -82.9131 -1.19003 1
    endloop
  endfacet
  facet normal 0 0 1
    outer loop
      vertex -83.19 -0.913141 1
      vertex -90 -40 1
      vertex -83.0607 -1.06066 1
    endloop
  endfacet
  facet normal 0 0 1
    outer loop
      vertex -83.299 -0.75 1
      vertex -90 -40 1
      vertex -83.19 -0.913141 1
    endloop
  endfacet
  facet normal 0 0 1
    outer loop
      vertex -83.3858 -0.574024 1
      vertex -90 -40 1
      vertex -83.299 -0.75 1
    endloop
  endfacet
  facet normal 0 0 1
    outer loop
      vertex -83.4489 -0.388228 1
      vertex -90 -40 1
      vertex -83.3858 -0.574024 1
    endloop
  endfacet
  facet normal 0 0 1
    outer loop
      vertex -83.4872 -0.195788 1
      vertex -90 -40 1
      vertex -83.4489 -0.388228 1
    endloop
  endfacet
  facet normal 0 0 1
    outer loop
      vertex -83.5 0 1
      vertex -90 -40 1
      vertex -83.4872 -0.195788 1
    endloop
  endfacet
  facet normal 0 0 -1
    outer loop
      vertex 90 -40 -1
      vertex 83.5 0 -1
      vertex 90 40 -1
    endloop
  endfacet
  facet normal 0 0 -1
    outer loop
      vertex 90 -40 -1
      vertex 83.4872 -0.195788 -1
      vertex 83.5 0 -1
    endloop
  endfacet
  facet normal 0 0 -1
    outer loop
      vertex 90 -40 -1
      vertex 83.4489 -0.388228 -1
      vertex 83.4872 -0.195788 -1
    endloop
  endfacet
  facet normal 0 0 -1
    outer loop
      vertex 90 -40 -1
      vertex 83.3858 -0.574024 -1
      vertex 83.4489 -0.388228 -1
    endloop
  endfacet
  facet normal 0 0 -1
    outer loop
      vertex 90 -40 -1
      vertex 83.299 -0.75 -1
      vertex 83.3858 -0.574024 -1
    endloop
  endfacet
  facet normal 0 0 -1
    outer loop
      vertex 90 -40 -1
      vertex 83.19 -0.913141 -1
      vertex 83.299 -0.75 -1
    endloop
  endfacet
  facet normal 0 0 -1
    outer loop
      vertex 90 -40 -1
      vertex 83.0607 -1.06066 -1
      vertex 83.19 -0.913141 -1
    endloop
  endfacet
  facet normal 0 0 -1
    outer loop
      vertex 90 -40 -1
      vertex 82.9131 -1.19003 -1
      vertex 83.0607 -1.06066 -1
    endloop
  endfacet
  facet normal 0 0 -1
    outer loop
      vertex 90 -40 -1
      vertex 82.75 -1.29904 -1
      vertex 82.9131 -1.19003 -1
    endloop
  endfacet
  facet normal 0 0 -1
    outer loop
      vertex 90 -40 -1
      vertex 82.574 -1.38582 -1
      vertex 82.75 -1.29904 -1
    endloop
  endfacet
  facet normal 0 0 -1
    outer loop
      vertex 90 -40 -1
      vertex 82.3882 -1.44889 -1
      vertex 82.574 -1.38582 -1
    endloop
  endfacet
  facet normal 0 0 -1
    outer loop
      vertex 90 -40 -1
      vertex 82.1958 -1.48717 -1
      vertex 82.3882 -1.44889 -1
    endloop
  endfacet
  facet normal 0 0 -1
    outer loop
      vertex 90 -40 -1
      vertex 82 -1.5 -1
      vertex 82.1958 -1.48717 -1
    endloop
  endfacet
  facet normal 0 0 -1
    outer loop
      vertex 90 -40 -1
      vertex 81.8042 -1.48717 -1
      vertex 82 -1.5 -1
    endloop
  endfacet
  facet normal 0 0 -1
    outer loop
      vertex 90 -40 -1
      vertex 81.6118 -1.44889 -1
      vertex 81.8042 -1.48717 -1
    endloop
  endfacet
  facet normal 0 0 -1
    outer loop
      vertex 90 -40 -1
      vertex 81.426 -1.38582 -1
      vertex 81.6118 -1.44889 -1
    endloop
  endfacet
  facet normal 0 0 -1
    outer loop
      vertex 90 -40 -1
      vertex 81.25 -1.29904 -1
      vertex 81.426 -1.38582 -1
    endloop
  endfacet
  facet normal 0 0 -1
    outer loop
      vertex 90 -40 -1
      vertex 81.0869 -1.19003 -1
      vertex 81.25 -1.29904 -1
    endloop
  endfacet
  facet normal 0 0 -1
    outer loop
      vertex 90 -40 -1
      vertex 80.9393 -1.06066 -1
      vertex 81.0869 -1.19003 -1
    endloop
  endfacet
  facet normal 0 0 -1
    outer loop
      vertex 90 -40 -1
      vertex 80.81 -0.913141 -1
      vertex 80.9393 -1.06066 -1
    endloop
  endfacet
  facet normal 0 0 -1
    outer loop
      vertex 90 -40 -1
      vertex 80.701 -0.75 -1
      vertex 80.81 -0.913141 -1
    endloop
  endfacet
  facet normal 0 0 -1
    outer loop
      vertex 90 -40 -1
      vertex 80.6142 -0.574024 -1
      vertex 80.701 -0.75 -1
    endloop
  endfacet
  facet normal 0 0 -1
    outer loop
      vertex -80.6142 -0.574024 -1
      vertex 80.6142 -0.574024 -1
      vertex 90 -40 -1
    endloop
  endfacet
  facet normal 0 0 -1
    outer loop
      vertex 80.5128 -0.195788 -1
      vertex -80.5 0 -1
      vertex 80.5 0 -1
    endloop
  endfacet
  facet normal 0 0 -1
    outer loop
      vertex -80.5128 -0.195788 -1
      vertex 80.5128 -0.195788 -1
      vertex 80.5511 -0.388228 -1
    endloop
  endfacet
  facet normal 0 0 -1
    outer loop
      vertex 80.6142 -0.574024 -1
      vertex -80.6142 -0.574024 -1
      vertex 80.5511 -0.388228 -1
    endloop
  endfacet
  facet normal 0 0 -1
    outer loop
      vertex 80.5128 -0.195788 -1
      vertex -80.5128 -0.195788 -1
      vertex -80.5 0 -1
    endloop
  endfacet
  facet normal 0 0 -1
    outer loop
      vertex 80.5511 -0.388228 -1
      vertex -80.5511 -0.388228 -1
      vertex -80.5128 -0.195788 -1
    endloop
  endfacet
  facet normal -0 0 -1
    outer loop
      vertex 80.5511 -0.388228 -1
      vertex -80.6142 -0.574024 -1
      vertex -80.5511 -0.388228 -1
    endloop
  endfacet
  facet normal 0 0 -1
    outer loop
      vertex 90 -40 -1
      vertex -80.701 -0.75 -1
      vertex -80.6142 -0.574024 -1
    endloop
  endfacet
  facet normal 0 0 -1
    outer loop
      vertex -90 -40 -1
      vertex -80.701 -0.75 -1
      vertex 90 -40 -1
    endloop
  endfacet
  facet normal 0 0 -1
    outer loop
      vertex -80.701 -0.75 -1
      vertex -90 -40 -1
      vertex -80.81 -0.913141 -1
    endloop
  endfacet
  facet normal 0 0 -1
    outer loop
      vertex -80.81 -0.913141 -1
      vertex -90 -40 -1
      vertex -80.9393 -1.06066 -1
    endloop
  endfacet
  facet normal 0 0 -1
    outer loop
      vertex -80.9393 -1.06066 -1
      vertex -90 -40 -1
      vertex -81.0869 -1.19003 -1
    endloop
  endfacet
  facet normal 0 0 -1
    outer loop
      vertex -81.0869 -1.19003 -1
      vertex -90 -40 -1
      vertex -81.25 -1.29904 -1
    endloop
  endfacet
  facet normal 0 0 -1
    outer loop
      vertex -81.25 -1.29904 -1
      vertex -90 -40 -1
      vertex -81.426 -1.38582 -1
    endloop
  endfacet
  facet normal 0 0 -1
    outer loop
      vertex -81.426 -1.38582 -1
      vertex -90 -40 -1
      vertex -81.6118 -1.44889 -1
    endloop
  endfacet
  facet normal 0 0 -1
    outer loop
      vertex -81.6118 -1.44889 -1
      vertex -90 -40 -1
      vertex -81.8042 -1.48717 -1
    endloop
  endfacet
  facet normal 0 0 -1
    outer loop
      vertex -81.8042 -1.48717 -1
      vertex -90 -40 -1
      vertex -82 -1.5 -1
    endloop
  endfacet
  facet normal -0 0 -1
    outer loop
      vertex -82 -1.5 -1
      vertex -90 -40 -1
      vertex -82.1958 -1.48717 -1
    endloop
  endfacet
  facet normal -0 0 -1
    outer loop
      vertex -83.4872 -0.195788 -1
      vertex -90 -40 -1
      vertex -83.5 0 -1
    endloop
  endfacet
  facet normal -0 0 -1
    outer loop
      vertex -83.4489 -0.388228 -1
      vertex -90 -40 -1
      vertex -83.4872 -0.195788 -1
    endloop
  endfacet
  facet normal -0 0 -1
    outer loop
      vertex -83.3858 -0.574024 -1
      vertex -90 -40 -1
      vertex -83.4489 -0.388228 -1
    endloop
  endfacet
  facet normal -0 0 -1
    outer loop
      vertex -83.299 -0.75 -1
      vertex -90 -40 -1
      vertex -83.3858 -0.574024 -1
    endloop
  endfacet
  facet normal -0 0 -1
    outer loop
      vertex -83.19 -0.913141 -1
      vertex -90 -40 -1
      vertex -83.299 -0.75 -1
    endloop
  endfacet
  facet normal -0 0 -1
    outer loop
      vertex -83.0607 -1.06066 -1
      vertex -90 -40 -1
      vertex -83.19 -0.913141 -1
    endloop
  endfacet
  facet normal -0 0 -1
    outer loop
      vertex -82.9131 -1.19003 -1
      vertex -90 -40 -1
      vertex -83.0607 -1.06066 -1
    endloop
  endfacet
  facet normal -0 0 -1
    outer loop
      vertex -82.75 -1.29904 -1
      vertex -90 -40 -1
      vertex -82.9131 -1.19003 -1
    endloop
  endfacet
  facet normal -0 0 -1
    outer loop
      vertex -82.574 -1.38582 -1
      vertex -90 -40 -1
      vertex -82.75 -1.29904 -1
    endloop
  endfacet
  facet normal -0 0 -1
    outer loop
      vertex -82.3882 -1.44889 -1
      vertex -90 -40 -1
      vertex -82.574 -1.38582 -1
    endloop
  endfacet
  facet normal -0 0 -1
    outer loop
      vertex -82.1958 -1.48717 -1
      vertex -90 -40 -1
      vertex -82.3882 -1.44889 -1
    endloop
  endfacet
  facet normal 0 0 -1
    outer loop
      vertex 83.4872 0.195788 -1
      vertex 90 40 -1
      vertex 83.5 0 -1
    endloop
  endfacet
  facet normal 0 0 -1
    outer loop
      vertex 83.4489 0.388228 -1
      vertex 90 40 -1
      vertex 83.4872 0.195788 -1
    endloop
  endfacet
  facet normal 0 0 -1
    outer loop
      vertex 83.3858 0.574024 -1
      vertex 90 40 -1
      vertex 83.4489 0.388228 -1
    endloop
  endfacet
  facet normal 0 0 -1
    outer loop
      vertex 83.299 0.75 -1
      vertex 90 40 -1
      vertex 83.3858 0.574024 -1
    endloop
  endfacet
  facet normal 0 0 -1
    outer loop
      vertex 83.19 0.913141 -1
      vertex 90 40 -1
      vertex 83.299 0.75 -1
    endloop
  endfacet
  facet normal 0 0 -1
    outer loop
      vertex 83.0607 1.06066 -1
      vertex 90 40 -1
      vertex 83.19 0.913141 -1
    endloop
  endfacet
  facet normal 0 0 -1
    outer loop
      vertex 82.9131 1.19003 -1
      vertex 90 40 -1
      vertex 83.0607 1.06066 -1
    endloop
  endfacet
  facet normal 0 0 -1
    outer loop
      vertex 82.75 1.29904 -1
      vertex 90 40 -1
      vertex 82.9131 1.19003 -1
    endloop
  endfacet
  facet normal 0 0 -1
    outer loop
      vertex 82.574 1.38582 -1
      vertex 90 40 -1
      vertex 82.75 1.29904 -1
    endloop
  endfacet
  facet normal 0 0 -1
    outer loop
      vertex 82.3882 1.44889 -1
      vertex 90 40 -1
      vertex 82.574 1.38582 -1
    endloop
  endfacet
  facet normal 0 0 -1
    outer loop
      vertex 82.1958 1.48717 -1
      vertex 90 40 -1
      vertex 82.3882 1.44889 -1
    endloop
  endfacet
  facet normal 0 0 -1
    outer loop
      vertex 82 1.5 -1
      vertex 90 40 -1
      vertex 82.1958 1.48717 -1
    endloop
  endfacet
  facet normal 0 0 -1
    outer loop
      vertex 81.8042 1.48717 -1
      vertex 90 40 -1
      vertex 82 1.5 -1
    endloop
  endfacet
  facet normal 0 0 -1
    outer loop
      vertex 81.6118 1.44889 -1
      vertex 90 40 -1
      vertex 81.8042 1.48717 -1
    endloop
  endfacet
  facet normal 0 0 -1
    outer loop
      vertex 81.426 1.38582 -1
      vertex 90 40 -1
      vertex 81.6118 1.44889 -1
    endloop
  endfacet
  facet normal 0 0 -1
    outer loop
      vertex 81.25 1.29904 -1
      vertex 90 40 -1
      vertex 81.426 1.38582 -1
    endloop
  endfacet
  facet normal 0 0 -1
    outer loop
      vertex 81.0869 1.19003 -1
      vertex 90 40 -1
      vertex 81.25 1.29904 -1
    endloop
  endfacet
  facet normal 0 0 -1
    outer loop
      vertex 80.9393 1.06066 -1
      vertex 90 40 -1
      vertex 81.0869 1.19003 -1
    endloop
  endfacet
  facet normal 0 0 -1
    outer loop
      vertex 80.81 0.913141 -1
      vertex 90 40 -1
      vertex 80.9393 1.06066 -1
    endloop
  endfacet
  facet normal 0 0 -1
    outer loop
      vertex 80.701 0.75 -1
      vertex 90 40 -1
      vertex 80.81 0.913141 -1
    endloop
  endfacet
  facet normal 0 0 -1
    outer loop
      vertex 80.6142 0.574024 -1
      vertex 90 40 -1
      vertex 80.701 0.75 -1
    endloop
  endfacet
  facet normal 0 0 -1
    outer loop
      vertex -80.6142 0.574024 -1
      vertex 80.6142 0.574024 -1
      vertex 80.5511 0.388228 -1
    endloop
  endfacet
  facet normal 0 0 -1
    outer loop
      vertex -80.5 0 -1
      vertex 80.5128 0.195788 -1
      vertex 80.5 0 -1
    endloop
  endfacet
  facet normal 0 0 -1
    outer loop
      vertex -80.5128 0.195788 -1
      vertex 80.5128 0.195788 -1
      vertex -80.5 0 -1
    endloop
  endfacet
  facet normal 0 0 -1
    outer loop
      vertex 80.5128 0.195788 -1
      vertex -80.5128 0.195788 -1
      vertex 80.5511 0.388228 -1
    endloop
  endfacet
  facet normal 0 0 -1
    outer loop
      vertex -80.5511 0.388228 -1
      vertex 80.5511 0.388228 -1
      vertex -80.5128 0.195788 -1
    endloop
  endfacet
  facet normal 0 0 -1
    outer loop
      vertex -80.6142 0.574024 -1
      vertex 80.5511 0.388228 -1
      vertex -80.5511 0.388228 -1
    endloop
  endfacet
  facet normal 0 0 -1
    outer loop
      vertex 80.6142 0.574024 -1
      vertex -80.6142 0.574024 -1
      vertex 90 40 -1
    endloop
  endfacet
  facet normal 0 0 -1
    outer loop
      vertex -80.701 0.75 -1
      vertex 90 40 -1
      vertex -80.6142 0.574024 -1
    endloop
  endfacet
  facet normal 0 0 -1
    outer loop
      vertex -90 40 -1
      vertex -80.701 0.75 -1
      vertex -80.81 0.913141 -1
    endloop
  endfacet
  facet normal 0 0 -1
    outer loop
      vertex -90 40 -1
      vertex -80.81 0.913141 -1
      vertex -80.9393 1.06066 -1
    endloop
  endfacet
  facet normal 0 0 -1
    outer loop
      vertex -90 40 -1
      vertex -80.9393 1.06066 -1
      vertex -81.0869 1.19003 -1
    endloop
  endfacet
  facet normal 0 0 -1
    outer loop
      vertex -90 40 -1
      vertex -81.0869 1.19003 -1
      vertex -81.25 1.29904 -1
    endloop
  endfacet
  facet normal 0 0 -1
    outer loop
      vertex -90 40 -1
      vertex -81.25 1.29904 -1
      vertex -81.426 1.38582 -1
    endloop
  endfacet
  facet normal 0 0 -1
    outer loop
      vertex -90 40 -1
      vertex -81.426 1.38582 -1
      vertex -81.6118 1.44889 -1
    endloop
  endfacet
  facet normal 0 0 -1
    outer loop
      vertex -90 40 -1
      vertex -81.6118 1.44889 -1
      vertex -81.8042 1.48717 -1
    endloop
  endfacet
  facet normal 0 0 -1
    outer loop
      vertex -90 40 -1
      vertex -81.8042 1.48717 -1
      vertex -82 1.5 -1
    endloop
  endfacet
  facet normal 0 0 -1
    outer loop
      vertex -90 40 -1
      vertex -82 1.5 -1
      vertex -82.1958 1.48717 -1
    endloop
  endfacet
  facet normal 0 0 -1
    outer loop
      vertex -90 40 -1
      vertex -82.1958 1.48717 -1
      vertex -82.3882 1.44889 -1
    endloop
  endfacet
  facet normal 0 0 -1
    outer loop
      vertex -90 40 -1
      vertex -83.5 0 -1
      vertex -90 -40 -1
    endloop
  endfacet
  facet normal 0 0 -1
    outer loop
      vertex -80.701 0.75 -1
      vertex -90 40 -1
      vertex 90 40 -1
    endloop
  endfacet
  facet normal 0 0 -1
    outer loop
      vertex -82.574 1.38582 -1
      vertex -90 40 -1
      vertex -82.3882 1.44889 -1
    endloop
  endfacet
  facet normal 0 0 -1
    outer loop
      vertex -82.75 1.29904 -1
      vertex -90 40 -1
      vertex -82.574 1.38582 -1
    endloop
  endfacet
  facet normal 0 0 -1
    outer loop
      vertex -82.9131 1.19003 -1
      vertex -90 40 -1
      vertex -82.75 1.29904 -1
    endloop
  endfacet
  facet normal 0 0 -1
    outer loop
      vertex -83.0607 1.06066 -1
      vertex -90 40 -1
      vertex -82.9131 1.19003 -1
    endloop
  endfacet
  facet normal 0 0 -1
    outer loop
      vertex -83.19 0.913141 -1
      vertex -90 40 -1
      vertex -83.0607 1.06066 -1
    endloop
  endfacet
  facet normal 0 0 -1
    outer loop
      vertex -83.299 0.75 -1
      vertex -90 40 -1
      vertex -83.19 0.913141 -1
    endloop
  endfacet
  facet normal 0 0 -1
    outer loop
      vertex -83.3858 0.574024 -1
      vertex -90 40 -1
      vertex -83.299 0.75 -1
    endloop
  endfacet
  facet normal 0 0 -1
    outer loop
      vertex -83.4489 0.388228 -1
      vertex -90 40 -1
      vertex -83.3858 0.574024 -1
    endloop
  endfacet
  facet normal 0 0 -1
    outer loop
      vertex -83.4872 0.195788 -1
      vertex -90 40 -1
      vertex -83.4489 0.388228 -1
    endloop
  endfacet
  facet normal 0 0 -1
    outer loop
      vertex -83.5 0 -1
      vertex -90 40 -1
      vertex -83.4872 0.195788 -1
    endloop
  endfacet
  facet normal -1 0 0
    outer loop
      vertex -90 -40 -1
      vertex -90 40 1
      vertex -90 40 -1
    endloop
  endfacet
  facet normal -1 -0 0
    outer loop
      vertex -90 40 1
      vertex -90 -40 -1
      vertex -90 -40 1
    endloop
  endfacet
  facet normal 0 1 -0
    outer loop
      vertex 90 40 -1
      vertex -90 40 1
      vertex 90 40 1
    endloop
  endfacet
  facet normal 0 1 0
    outer loop
      vertex -90 40 1
      vertex 90 40 -1
      vertex -90 40 -1
    endloop
  endfacet
  facet normal 0 -1 0
    outer loop
      vertex -90 -40 -1
      vertex 90 -40 1
      vertex -90 -40 1
    endloop
  endfacet
  facet normal 0 -1 -0
    outer loop
      vertex 90 -40 1
      vertex -90 -40 -1
      vertex 90 -40 -1
    endloop
  endfacet
  facet normal 0.831487 -0.555544 0
    outer loop
      vertex -83.299 0.75 1
      vertex -83.19 0.913141 -1
      vertex -83.19 0.913141 1
    endloop
  endfacet
  facet normal 0.831487 -0.555544 0
    outer loop
      vertex -83.19 0.913141 -1
      vertex -83.299 0.75 1
      vertex -83.299 0.75 -1
    endloop
  endfacet
  facet normal -0.980764 -0.195195 0
    outer loop
      vertex -80.5128 0.195788 -1
      vertex -80.5511 0.388228 1
      vertex -80.5511 0.388228 -1
    endloop
  endfacet
  facet normal -0.980764 -0.195195 0
    outer loop
      vertex -80.5511 0.388228 1
      vertex -80.5128 0.195788 -1
      vertex -80.5128 0.195788 1
    endloop
  endfacet
  facet normal 0.659139 0.752021 -0
    outer loop
      vertex -82.9131 -1.19003 -1
      vertex -83.0607 -1.06066 1
      vertex -82.9131 -1.19003 1
    endloop
  endfacet
  facet normal 0.659139 0.752021 0
    outer loop
      vertex -83.0607 -1.06066 1
      vertex -82.9131 -1.19003 -1
      vertex -83.0607 -1.06066 -1
    endloop
  endfacet
  facet normal 0.946882 -0.32158 0
    outer loop
      vertex -83.4489 0.388228 1
      vertex -83.3858 0.574024 -1
      vertex -83.3858 0.574024 1
    endloop
  endfacet
  facet normal 0.946882 -0.32158 0
    outer loop
      vertex -83.3858 0.574024 -1
      vertex -83.4489 0.388228 1
      vertex -83.4489 0.388228 -1
    endloop
  endfacet
  facet normal -0.896836 -0.442363 0
    outer loop
      vertex -80.6142 0.574024 -1
      vertex -80.701 0.75 1
      vertex -80.701 0.75 -1
    endloop
  endfacet
  facet normal -0.896836 -0.442363 0
    outer loop
      vertex -80.701 0.75 1
      vertex -80.6142 0.574024 -1
      vertex -80.6142 0.574024 1
    endloop
  endfacet
  facet normal -0.195136 0.980776 0
    outer loop
      vertex -81.6118 -1.44889 -1
      vertex -81.8042 -1.48717 1
      vertex -81.6118 -1.44889 1
    endloop
  endfacet
  facet normal -0.195136 0.980776 0
    outer loop
      vertex -81.8042 -1.48717 1
      vertex -81.6118 -1.44889 -1
      vertex -81.8042 -1.48717 -1
    endloop
  endfacet
  facet normal -0.0653858 0.99786 0
    outer loop
      vertex -81.8042 -1.48717 -1
      vertex -82 -1.5 1
      vertex -81.8042 -1.48717 1
    endloop
  endfacet
  facet normal -0.0653858 0.99786 0
    outer loop
      vertex -82 -1.5 1
      vertex -81.8042 -1.48717 -1
      vertex -82 -1.5 -1
    endloop
  endfacet
  facet normal -0.946882 -0.32158 0
    outer loop
      vertex -80.5511 0.388228 -1
      vertex -80.6142 0.574024 1
      vertex -80.6142 0.574024 -1
    endloop
  endfacet
  facet normal -0.946882 -0.32158 0
    outer loop
      vertex -80.6142 0.574024 1
      vertex -80.5511 0.388228 -1
      vertex -80.5511 0.388228 1
    endloop
  endfacet
  facet normal 0.321437 0.946931 -0
    outer loop
      vertex -82.3882 -1.44889 -1
      vertex -82.574 -1.38582 1
      vertex -82.3882 -1.44889 1
    endloop
  endfacet
  facet normal 0.321437 0.946931 0
    outer loop
      vertex -82.574 -1.38582 1
      vertex -82.3882 -1.44889 -1
      vertex -82.574 -1.38582 -1
    endloop
  endfacet
  facet normal 0.195136 -0.980776 0
    outer loop
      vertex -82.3882 1.44889 -1
      vertex -82.1958 1.48717 1
      vertex -82.3882 1.44889 1
    endloop
  endfacet
  facet normal 0.195136 -0.980776 0
    outer loop
      vertex -82.1958 1.48717 1
      vertex -82.3882 1.44889 -1
      vertex -82.1958 1.48717 -1
    endloop
  endfacet
  facet normal -0.946882 0.32158 0
    outer loop
      vertex -80.6142 -0.574024 -1
      vertex -80.5511 -0.388228 1
      vertex -80.5511 -0.388228 -1
    endloop
  endfacet
  facet normal -0.946882 0.32158 0
    outer loop
      vertex -80.5511 -0.388228 1
      vertex -80.6142 -0.574024 -1
      vertex -80.6142 -0.574024 1
    endloop
  endfacet
  facet normal -0.0653858 -0.99786 0
    outer loop
      vertex -82 1.5 -1
      vertex -81.8042 1.48717 1
      vertex -82 1.5 1
    endloop
  endfacet
  facet normal -0.0653858 -0.99786 -0
    outer loop
      vertex -81.8042 1.48717 1
      vertex -82 1.5 -1
      vertex -81.8042 1.48717 -1
    endloop
  endfacet
  facet normal -0.99787 -0.0652376 0
    outer loop
      vertex -80.5 0 -1
      vertex -80.5128 0.195788 1
      vertex -80.5128 0.195788 -1
    endloop
  endfacet
  facet normal -0.99787 -0.0652376 0
    outer loop
      vertex -80.5128 0.195788 1
      vertex -80.5 0 -1
      vertex -80.5 0 1
    endloop
  endfacet
  facet normal -0.659139 0.752021 0
    outer loop
      vertex -80.9393 -1.06066 -1
      vertex -81.0869 -1.19003 1
      vertex -80.9393 -1.06066 1
    endloop
  endfacet
  facet normal -0.659139 0.752021 0
    outer loop
      vertex -81.0869 -1.19003 1
      vertex -80.9393 -1.06066 -1
      vertex -81.0869 -1.19003 -1
    endloop
  endfacet
  facet normal 0.321437 -0.946931 0
    outer loop
      vertex -82.574 1.38582 -1
      vertex -82.3882 1.44889 1
      vertex -82.574 1.38582 1
    endloop
  endfacet
  facet normal 0.321437 -0.946931 0
    outer loop
      vertex -82.3882 1.44889 1
      vertex -82.574 1.38582 -1
      vertex -82.3882 1.44889 -1
    endloop
  endfacet
  facet normal 0.980764 -0.195195 0
    outer loop
      vertex -83.4872 0.195788 1
      vertex -83.4489 0.388228 -1
      vertex -83.4489 0.388228 1
    endloop
  endfacet
  facet normal 0.980764 -0.195195 0
    outer loop
      vertex -83.4489 0.388228 -1
      vertex -83.4872 0.195788 1
      vertex -83.4872 0.195788 -1
    endloop
  endfacet
  facet normal 0.99787 -0.0652376 0
    outer loop
      vertex -83.5 0 1
      vertex -83.4872 0.195788 -1
      vertex -83.4872 0.195788 1
    endloop
  endfacet
  facet normal 0.99787 -0.0652376 0
    outer loop
      vertex -83.4872 0.195788 -1
      vertex -83.5 0 1
      vertex -83.5 0 -1
    endloop
  endfacet
  facet normal 0.442233 0.8969 -0
    outer loop
      vertex -82.574 -1.38582 -1
      vertex -82.75 -1.29904 1
      vertex -82.574 -1.38582 1
    endloop
  endfacet
  facet normal 0.442233 0.8969 0
    outer loop
      vertex -82.75 -1.29904 1
      vertex -82.574 -1.38582 -1
      vertex -82.75 -1.29904 -1
    endloop
  endfacet
  facet normal -0.555676 -0.831399 0
    outer loop
      vertex -81.25 1.29904 -1
      vertex -81.0869 1.19003 1
      vertex -81.25 1.29904 1
    endloop
  endfacet
  facet normal -0.555676 -0.831399 -0
    outer loop
      vertex -81.0869 1.19003 1
      vertex -81.25 1.29904 -1
      vertex -81.0869 1.19003 -1
    endloop
  endfacet
  facet normal -0.752018 -0.659142 0
    outer loop
      vertex -80.81 0.913141 -1
      vertex -80.9393 1.06066 1
      vertex -80.9393 1.06066 -1
    endloop
  endfacet
  facet normal -0.752018 -0.659142 0
    outer loop
      vertex -80.9393 1.06066 1
      vertex -80.81 0.913141 -1
      vertex -80.81 0.913141 1
    endloop
  endfacet
  facet normal -0.99787 0.0652376 0
    outer loop
      vertex -80.5128 -0.195788 -1
      vertex -80.5 0 1
      vertex -80.5 0 -1
    endloop
  endfacet
  facet normal -0.99787 0.0652376 0
    outer loop
      vertex -80.5 0 1
      vertex -80.5128 -0.195788 -1
      vertex -80.5128 -0.195788 1
    endloop
  endfacet
  facet normal -0.896836 0.442363 0
    outer loop
      vertex -80.701 -0.75 -1
      vertex -80.6142 -0.574024 1
      vertex -80.6142 -0.574024 -1
    endloop
  endfacet
  facet normal -0.896836 0.442363 0
    outer loop
      vertex -80.6142 -0.574024 1
      vertex -80.701 -0.75 -1
      vertex -80.701 -0.75 1
    endloop
  endfacet
  facet normal -0.980764 0.195195 0
    outer loop
      vertex -80.5511 -0.388228 -1
      vertex -80.5128 -0.195788 1
      vertex -80.5128 -0.195788 -1
    endloop
  endfacet
  facet normal -0.980764 0.195195 0
    outer loop
      vertex -80.5128 -0.195788 1
      vertex -80.5511 -0.388228 -1
      vertex -80.5511 -0.388228 1
    endloop
  endfacet
  facet normal -0.321437 0.946931 0
    outer loop
      vertex -81.426 -1.38582 -1
      vertex -81.6118 -1.44889 1
      vertex -81.426 -1.38582 1
    endloop
  endfacet
  facet normal -0.321437 0.946931 0
    outer loop
      vertex -81.6118 -1.44889 1
      vertex -81.426 -1.38582 -1
      vertex -81.6118 -1.44889 -1
    endloop
  endfacet
  facet normal -0.831487 -0.555544 0
    outer loop
      vertex -80.701 0.75 -1
      vertex -80.81 0.913141 1
      vertex -80.81 0.913141 -1
    endloop
  endfacet
  facet normal -0.831487 -0.555544 0
    outer loop
      vertex -80.81 0.913141 1
      vertex -80.701 0.75 -1
      vertex -80.701 0.75 1
    endloop
  endfacet
  facet normal -0.442233 -0.8969 0
    outer loop
      vertex -81.426 1.38582 -1
      vertex -81.25 1.29904 1
      vertex -81.426 1.38582 1
    endloop
  endfacet
  facet normal -0.442233 -0.8969 -0
    outer loop
      vertex -81.25 1.29904 1
      vertex -81.426 1.38582 -1
      vertex -81.25 1.29904 -1
    endloop
  endfacet
  facet normal -0.752018 0.659142 0
    outer loop
      vertex -80.9393 -1.06066 -1
      vertex -80.81 -0.913141 1
      vertex -80.81 -0.913141 -1
    endloop
  endfacet
  facet normal -0.752018 0.659142 0
    outer loop
      vertex -80.81 -0.913141 1
      vertex -80.9393 -1.06066 -1
      vertex -80.9393 -1.06066 1
    endloop
  endfacet
  facet normal 0.0653858 -0.99786 0
    outer loop
      vertex -82.1958 1.48717 -1
      vertex -82 1.5 1
      vertex -82.1958 1.48717 1
    endloop
  endfacet
  facet normal 0.0653858 -0.99786 0
    outer loop
      vertex -82 1.5 1
      vertex -82.1958 1.48717 -1
      vertex -82 1.5 -1
    endloop
  endfacet
  facet normal 0.659139 -0.752021 0
    outer loop
      vertex -83.0607 1.06066 -1
      vertex -82.9131 1.19003 1
      vertex -83.0607 1.06066 1
    endloop
  endfacet
  facet normal 0.659139 -0.752021 0
    outer loop
      vertex -82.9131 1.19003 1
      vertex -83.0607 1.06066 -1
      vertex -82.9131 1.19003 -1
    endloop
  endfacet
  facet normal 0.442233 -0.8969 0
    outer loop
      vertex -82.75 1.29904 -1
      vertex -82.574 1.38582 1
      vertex -82.75 1.29904 1
    endloop
  endfacet
  facet normal 0.442233 -0.8969 0
    outer loop
      vertex -82.574 1.38582 1
      vertex -82.75 1.29904 -1
      vertex -82.574 1.38582 -1
    endloop
  endfacet
  facet normal 0.896836 0.442363 0
    outer loop
      vertex -83.299 -0.75 1
      vertex -83.3858 -0.574024 -1
      vertex -83.3858 -0.574024 1
    endloop
  endfacet
  facet normal 0.896836 0.442363 0
    outer loop
      vertex -83.3858 -0.574024 -1
      vertex -83.299 -0.75 1
      vertex -83.299 -0.75 -1
    endloop
  endfacet
  facet normal -0.321437 -0.946931 0
    outer loop
      vertex -81.6118 1.44889 -1
      vertex -81.426 1.38582 1
      vertex -81.6118 1.44889 1
    endloop
  endfacet
  facet normal -0.321437 -0.946931 -0
    outer loop
      vertex -81.426 1.38582 1
      vertex -81.6118 1.44889 -1
      vertex -81.426 1.38582 -1
    endloop
  endfacet
  facet normal 0.946882 0.32158 0
    outer loop
      vertex -83.3858 -0.574024 1
      vertex -83.4489 -0.388228 -1
      vertex -83.4489 -0.388228 1
    endloop
  endfacet
  facet normal 0.946882 0.32158 0
    outer loop
      vertex -83.4489 -0.388228 -1
      vertex -83.3858 -0.574024 1
      vertex -83.3858 -0.574024 -1
    endloop
  endfacet
  facet normal -0.659139 -0.752021 0
    outer loop
      vertex -81.0869 1.19003 -1
      vertex -80.9393 1.06066 1
      vertex -81.0869 1.19003 1
    endloop
  endfacet
  facet normal -0.659139 -0.752021 -0
    outer loop
      vertex -80.9393 1.06066 1
      vertex -81.0869 1.19003 -1
      vertex -80.9393 1.06066 -1
    endloop
  endfacet
  facet normal -0.442233 0.8969 0
    outer loop
      vertex -81.25 -1.29904 -1
      vertex -81.426 -1.38582 1
      vertex -81.25 -1.29904 1
    endloop
  endfacet
  facet normal -0.442233 0.8969 0
    outer loop
      vertex -81.426 -1.38582 1
      vertex -81.25 -1.29904 -1
      vertex -81.426 -1.38582 -1
    endloop
  endfacet
  facet normal 0.980764 0.195195 0
    outer loop
      vertex -83.4489 -0.388228 1
      vertex -83.4872 -0.195788 -1
      vertex -83.4872 -0.195788 1
    endloop
  endfacet
  facet normal 0.980764 0.195195 0
    outer loop
      vertex -83.4872 -0.195788 -1
      vertex -83.4489 -0.388228 1
      vertex -83.4489 -0.388228 -1
    endloop
  endfacet
  facet normal -0.555676 0.831399 0
    outer loop
      vertex -81.0869 -1.19003 -1
      vertex -81.25 -1.29904 1
      vertex -81.0869 -1.19003 1
    endloop
  endfacet
  facet normal -0.555676 0.831399 0
    outer loop
      vertex -81.25 -1.29904 1
      vertex -81.0869 -1.19003 -1
      vertex -81.25 -1.29904 -1
    endloop
  endfacet
  facet normal 0.752018 -0.659142 0
    outer loop
      vertex -83.19 0.913141 1
      vertex -83.0607 1.06066 -1
      vertex -83.0607 1.06066 1
    endloop
  endfacet
  facet normal 0.752018 -0.659142 0
    outer loop
      vertex -83.0607 1.06066 -1
      vertex -83.19 0.913141 1
      vertex -83.19 0.913141 -1
    endloop
  endfacet
  facet normal 0.0653858 0.99786 -0
    outer loop
      vertex -82 -1.5 -1
      vertex -82.1958 -1.48717 1
      vertex -82 -1.5 1
    endloop
  endfacet
  facet normal 0.0653858 0.99786 0
    outer loop
      vertex -82.1958 -1.48717 1
      vertex -82 -1.5 -1
      vertex -82.1958 -1.48717 -1
    endloop
  endfacet
  facet normal 0.555676 -0.831399 0
    outer loop
      vertex -82.9131 1.19003 -1
      vertex -82.75 1.29904 1
      vertex -82.9131 1.19003 1
    endloop
  endfacet
  facet normal 0.555676 -0.831399 0
    outer loop
      vertex -82.75 1.29904 1
      vertex -82.9131 1.19003 -1
      vertex -82.75 1.29904 -1
    endloop
  endfacet
  facet normal 0.752018 0.659142 0
    outer loop
      vertex -83.0607 -1.06066 1
      vertex -83.19 -0.913141 -1
      vertex -83.19 -0.913141 1
    endloop
  endfacet
  facet normal 0.752018 0.659142 0
    outer loop
      vertex -83.19 -0.913141 -1
      vertex -83.0607 -1.06066 1
      vertex -83.0607 -1.06066 -1
    endloop
  endfacet
  facet normal 0.831487 0.555544 0
    outer loop
      vertex -83.19 -0.913141 1
      vertex -83.299 -0.75 -1
      vertex -83.299 -0.75 1
    endloop
  endfacet
  facet normal 0.831487 0.555544 0
    outer loop
      vertex -83.299 -0.75 -1
      vertex -83.19 -0.913141 1
      vertex -83.19 -0.913141 -1
    endloop
  endfacet
  facet normal 0.99787 0.0652376 0
    outer loop
      vertex -83.4872 -0.195788 1
      vertex -83.5 0 -1
      vertex -83.5 0 1
    endloop
  endfacet
  facet normal 0.99787 0.0652376 0
    outer loop
      vertex -83.5 0 -1
      vertex -83.4872 -0.195788 1
      vertex -83.4872 -0.195788 -1
    endloop
  endfacet
  facet normal -0.195136 -0.980776 0
    outer loop
      vertex -81.8042 1.48717 -1
      vertex -81.6118 1.44889 1
      vertex -81.8042 1.48717 1
    endloop
  endfacet
  facet normal -0.195136 -0.980776 -0
    outer loop
      vertex -81.6118 1.44889 1
      vertex -81.8042 1.48717 -1
      vertex -81.6118 1.44889 -1
    endloop
  endfacet
  facet normal 0.896836 -0.442363 0
    outer loop
      vertex -83.3858 0.574024 1
      vertex -83.299 0.75 -1
      vertex -83.299 0.75 1
    endloop
  endfacet
  facet normal 0.896836 -0.442363 0
    outer loop
      vertex -83.299 0.75 -1
      vertex -83.3858 0.574024 1
      vertex -83.3858 0.574024 -1
    endloop
  endfacet
  facet normal 0.555676 0.831399 -0
    outer loop
      vertex -82.75 -1.29904 -1
      vertex -82.9131 -1.19003 1
      vertex -82.75 -1.29904 1
    endloop
  endfacet
  facet normal 0.555676 0.831399 0
    outer loop
      vertex -82.9131 -1.19003 1
      vertex -82.75 -1.29904 -1
      vertex -82.9131 -1.19003 -1
    endloop
  endfacet
  facet normal -0.831487 0.555544 0
    outer loop
      vertex -80.81 -0.913141 -1
      vertex -80.701 -0.75 1
      vertex -80.701 -0.75 -1
    endloop
  endfacet
  facet normal -0.831487 0.555544 0
    outer loop
      vertex -80.701 -0.75 1
      vertex -80.81 -0.913141 -1
      vertex -80.81 -0.913141 1
    endloop
  endfacet
  facet normal 0.195136 0.980776 -0
    outer loop
      vertex -82.1958 -1.48717 -1
      vertex -82.3882 -1.44889 1
      vertex -82.1958 -1.48717 1
    endloop
  endfacet
  facet normal 0.195136 0.980776 0
    outer loop
      vertex -82.3882 -1.44889 1
      vertex -82.1958 -1.48717 -1
      vertex -82.3882 -1.44889 -1
    endloop
  endfacet
  facet normal 0.442233 0.8969 -0
    outer loop
      vertex 81.426 -1.38582 -1
      vertex 81.25 -1.29904 1
      vertex 81.426 -1.38582 1
    endloop
  endfacet
  facet normal 0.442233 0.8969 0
    outer loop
      vertex 81.25 -1.29904 1
      vertex 81.426 -1.38582 -1
      vertex 81.25 -1.29904 -1
    endloop
  endfacet
  facet normal -0.980764 -0.195195 0
    outer loop
      vertex 83.4872 0.195788 -1
      vertex 83.4489 0.388228 1
      vertex 83.4489 0.388228 -1
    endloop
  endfacet
  facet normal -0.980764 -0.195195 0
    outer loop
      vertex 83.4489 0.388228 1
      vertex 83.4872 0.195788 -1
      vertex 83.4872 0.195788 1
    endloop
  endfacet
  facet normal -0.99787 -0.0652376 0
    outer loop
      vertex 83.5 0 -1
      vertex 83.4872 0.195788 1
      vertex 83.4872 0.195788 -1
    endloop
  endfacet
  facet normal -0.99787 -0.0652376 0
    outer loop
      vertex 83.4872 0.195788 1
      vertex 83.5 0 -1
      vertex 83.5 0 1
    endloop
  endfacet
  facet normal -0.195136 0.980776 0
    outer loop
      vertex 82.3882 -1.44889 -1
      vertex 82.1958 -1.48717 1
      vertex 82.3882 -1.44889 1
    endloop
  endfacet
  facet normal -0.195136 0.980776 0
    outer loop
      vertex 82.1958 -1.48717 1
      vertex 82.3882 -1.44889 -1
      vertex 82.1958 -1.48717 -1
    endloop
  endfacet
  facet normal -0.752018 -0.659142 0
    outer loop
      vertex 83.19 0.913141 -1
      vertex 83.0607 1.06066 1
      vertex 83.0607 1.06066 -1
    endloop
  endfacet
  facet normal -0.752018 -0.659142 0
    outer loop
      vertex 83.0607 1.06066 1
      vertex 83.19 0.913141 -1
      vertex 83.19 0.913141 1
    endloop
  endfacet
  facet normal 0.442233 -0.8969 0
    outer loop
      vertex 81.25 1.29904 -1
      vertex 81.426 1.38582 1
      vertex 81.25 1.29904 1
    endloop
  endfacet
  facet normal 0.442233 -0.8969 0
    outer loop
      vertex 81.426 1.38582 1
      vertex 81.25 1.29904 -1
      vertex 81.426 1.38582 -1
    endloop
  endfacet
  facet normal -0.896836 0.442363 0
    outer loop
      vertex 83.299 -0.75 -1
      vertex 83.3858 -0.574024 1
      vertex 83.3858 -0.574024 -1
    endloop
  endfacet
  facet normal -0.896836 0.442363 0
    outer loop
      vertex 83.3858 -0.574024 1
      vertex 83.299 -0.75 -1
      vertex 83.299 -0.75 1
    endloop
  endfacet
  facet normal -0.0653858 0.99786 0
    outer loop
      vertex 82.1958 -1.48717 -1
      vertex 82 -1.5 1
      vertex 82.1958 -1.48717 1
    endloop
  endfacet
  facet normal -0.0653858 0.99786 0
    outer loop
      vertex 82 -1.5 1
      vertex 82.1958 -1.48717 -1
      vertex 82 -1.5 -1
    endloop
  endfacet
  facet normal 0.195136 0.980776 -0
    outer loop
      vertex 81.8042 -1.48717 -1
      vertex 81.6118 -1.44889 1
      vertex 81.8042 -1.48717 1
    endloop
  endfacet
  facet normal 0.195136 0.980776 0
    outer loop
      vertex 81.6118 -1.44889 1
      vertex 81.8042 -1.48717 -1
      vertex 81.6118 -1.44889 -1
    endloop
  endfacet
  facet normal -0.752018 0.659142 0
    outer loop
      vertex 83.0607 -1.06066 -1
      vertex 83.19 -0.913141 1
      vertex 83.19 -0.913141 -1
    endloop
  endfacet
  facet normal -0.752018 0.659142 0
    outer loop
      vertex 83.19 -0.913141 1
      vertex 83.0607 -1.06066 -1
      vertex 83.0607 -1.06066 1
    endloop
  endfacet
  facet normal -0.442233 -0.8969 0
    outer loop
      vertex 82.574 1.38582 -1
      vertex 82.75 1.29904 1
      vertex 82.574 1.38582 1
    endloop
  endfacet
  facet normal -0.442233 -0.8969 -0
    outer loop
      vertex 82.75 1.29904 1
      vertex 82.574 1.38582 -1
      vertex 82.75 1.29904 -1
    endloop
  endfacet
  facet normal 0.946882 0.32158 0
    outer loop
      vertex 80.6142 -0.574024 1
      vertex 80.5511 -0.388228 -1
      vertex 80.5511 -0.388228 1
    endloop
  endfacet
  facet normal 0.946882 0.32158 0
    outer loop
      vertex 80.5511 -0.388228 -1
      vertex 80.6142 -0.574024 1
      vertex 80.6142 -0.574024 -1
    endloop
  endfacet
  facet normal -0.99787 0.0652376 0
    outer loop
      vertex 83.4872 -0.195788 -1
      vertex 83.5 0 1
      vertex 83.5 0 -1
    endloop
  endfacet
  facet normal -0.99787 0.0652376 0
    outer loop
      vertex 83.5 0 1
      vertex 83.4872 -0.195788 -1
      vertex 83.4872 -0.195788 1
    endloop
  endfacet
  facet normal 0.321437 0.946931 -0
    outer loop
      vertex 81.6118 -1.44889 -1
      vertex 81.426 -1.38582 1
      vertex 81.6118 -1.44889 1
    endloop
  endfacet
  facet normal 0.321437 0.946931 0
    outer loop
      vertex 81.426 -1.38582 1
      vertex 81.6118 -1.44889 -1
      vertex 81.426 -1.38582 -1
    endloop
  endfacet
  facet normal 0.980764 -0.195195 0
    outer loop
      vertex 80.5128 0.195788 1
      vertex 80.5511 0.388228 -1
      vertex 80.5511 0.388228 1
    endloop
  endfacet
  facet normal 0.980764 -0.195195 0
    outer loop
      vertex 80.5511 0.388228 -1
      vertex 80.5128 0.195788 1
      vertex 80.5128 0.195788 -1
    endloop
  endfacet
  facet normal 0.321437 -0.946931 0
    outer loop
      vertex 81.426 1.38582 -1
      vertex 81.6118 1.44889 1
      vertex 81.426 1.38582 1
    endloop
  endfacet
  facet normal 0.321437 -0.946931 0
    outer loop
      vertex 81.6118 1.44889 1
      vertex 81.426 1.38582 -1
      vertex 81.6118 1.44889 -1
    endloop
  endfacet
  facet normal -0.321437 0.946931 0
    outer loop
      vertex 82.574 -1.38582 -1
      vertex 82.3882 -1.44889 1
      vertex 82.574 -1.38582 1
    endloop
  endfacet
  facet normal -0.321437 0.946931 0
    outer loop
      vertex 82.3882 -1.44889 1
      vertex 82.574 -1.38582 -1
      vertex 82.3882 -1.44889 -1
    endloop
  endfacet
  facet normal 0.99787 -0.0652376 0
    outer loop
      vertex 80.5 0 1
      vertex 80.5128 0.195788 -1
      vertex 80.5128 0.195788 1
    endloop
  endfacet
  facet normal 0.99787 -0.0652376 0
    outer loop
      vertex 80.5128 0.195788 -1
      vertex 80.5 0 1
      vertex 80.5 0 -1
    endloop
  endfacet
  facet normal -0.659139 -0.752021 0
    outer loop
      vertex 82.9131 1.19003 -1
      vertex 83.0607 1.06066 1
      vertex 82.9131 1.19003 1
    endloop
  endfacet
  facet normal -0.659139 -0.752021 -0
    outer loop
      vertex 83.0607 1.06066 1
      vertex 82.9131 1.19003 -1
      vertex 83.0607 1.06066 -1
    endloop
  endfacet
  facet normal -0.831487 -0.555544 0
    outer loop
      vertex 83.299 0.75 -1
      vertex 83.19 0.913141 1
      vertex 83.19 0.913141 -1
    endloop
  endfacet
  facet normal -0.831487 -0.555544 0
    outer loop
      vertex 83.19 0.913141 1
      vertex 83.299 0.75 -1
      vertex 83.299 0.75 1
    endloop
  endfacet
  facet normal 0.752018 0.659142 0
    outer loop
      vertex 80.9393 -1.06066 1
      vertex 80.81 -0.913141 -1
      vertex 80.81 -0.913141 1
    endloop
  endfacet
  facet normal 0.752018 0.659142 0
    outer loop
      vertex 80.81 -0.913141 -1
      vertex 80.9393 -1.06066 1
      vertex 80.9393 -1.06066 -1
    endloop
  endfacet
  facet normal -0.442233 0.8969 0
    outer loop
      vertex 82.75 -1.29904 -1
      vertex 82.574 -1.38582 1
      vertex 82.75 -1.29904 1
    endloop
  endfacet
  facet normal -0.442233 0.8969 0
    outer loop
      vertex 82.574 -1.38582 1
      vertex 82.75 -1.29904 -1
      vertex 82.574 -1.38582 -1
    endloop
  endfacet
  facet normal -0.321437 -0.946931 0
    outer loop
      vertex 82.3882 1.44889 -1
      vertex 82.574 1.38582 1
      vertex 82.3882 1.44889 1
    endloop
  endfacet
  facet normal -0.321437 -0.946931 -0
    outer loop
      vertex 82.574 1.38582 1
      vertex 82.3882 1.44889 -1
      vertex 82.574 1.38582 -1
    endloop
  endfacet
  facet normal 0.0653858 0.99786 -0
    outer loop
      vertex 82 -1.5 -1
      vertex 81.8042 -1.48717 1
      vertex 82 -1.5 1
    endloop
  endfacet
  facet normal 0.0653858 0.99786 0
    outer loop
      vertex 81.8042 -1.48717 1
      vertex 82 -1.5 -1
      vertex 81.8042 -1.48717 -1
    endloop
  endfacet
  facet normal -0.896836 -0.442363 0
    outer loop
      vertex 83.3858 0.574024 -1
      vertex 83.299 0.75 1
      vertex 83.299 0.75 -1
    endloop
  endfacet
  facet normal -0.896836 -0.442363 0
    outer loop
      vertex 83.299 0.75 1
      vertex 83.3858 0.574024 -1
      vertex 83.3858 0.574024 1
    endloop
  endfacet
  facet normal 0.195136 -0.980776 0
    outer loop
      vertex 81.6118 1.44889 -1
      vertex 81.8042 1.48717 1
      vertex 81.6118 1.44889 1
    endloop
  endfacet
  facet normal 0.195136 -0.980776 0
    outer loop
      vertex 81.8042 1.48717 1
      vertex 81.6118 1.44889 -1
      vertex 81.8042 1.48717 -1
    endloop
  endfacet
  facet normal -0.555676 -0.831399 0
    outer loop
      vertex 82.75 1.29904 -1
      vertex 82.9131 1.19003 1
      vertex 82.75 1.29904 1
    endloop
  endfacet
  facet normal -0.555676 -0.831399 -0
    outer loop
      vertex 82.9131 1.19003 1
      vertex 82.75 1.29904 -1
      vertex 82.9131 1.19003 -1
    endloop
  endfacet
  facet normal -0.980764 0.195195 0
    outer loop
      vertex 83.4489 -0.388228 -1
      vertex 83.4872 -0.195788 1
      vertex 83.4872 -0.195788 -1
    endloop
  endfacet
  facet normal -0.980764 0.195195 0
    outer loop
      vertex 83.4872 -0.195788 1
      vertex 83.4489 -0.388228 -1
      vertex 83.4489 -0.388228 1
    endloop
  endfacet
  facet normal 0.752018 -0.659142 0
    outer loop
      vertex 80.81 0.913141 1
      vertex 80.9393 1.06066 -1
      vertex 80.9393 1.06066 1
    endloop
  endfacet
  facet normal 0.752018 -0.659142 0
    outer loop
      vertex 80.9393 1.06066 -1
      vertex 80.81 0.913141 1
      vertex 80.81 0.913141 -1
    endloop
  endfacet
  facet normal 0.831487 -0.555544 0
    outer loop
      vertex 80.701 0.75 1
      vertex 80.81 0.913141 -1
      vertex 80.81 0.913141 1
    endloop
  endfacet
  facet normal 0.831487 -0.555544 0
    outer loop
      vertex 80.81 0.913141 -1
      vertex 80.701 0.75 1
      vertex 80.701 0.75 -1
    endloop
  endfacet
  facet normal -0.831487 0.555544 0
    outer loop
      vertex 83.19 -0.913141 -1
      vertex 83.299 -0.75 1
      vertex 83.299 -0.75 -1
    endloop
  endfacet
  facet normal -0.831487 0.555544 0
    outer loop
      vertex 83.299 -0.75 1
      vertex 83.19 -0.913141 -1
      vertex 83.19 -0.913141 1
    endloop
  endfacet
  facet normal -0.659139 0.752021 0
    outer loop
      vertex 83.0607 -1.06066 -1
      vertex 82.9131 -1.19003 1
      vertex 83.0607 -1.06066 1
    endloop
  endfacet
  facet normal -0.659139 0.752021 0
    outer loop
      vertex 82.9131 -1.19003 1
      vertex 83.0607 -1.06066 -1
      vertex 82.9131 -1.19003 -1
    endloop
  endfacet
  facet normal 0.831487 0.555544 0
    outer loop
      vertex 80.81 -0.913141 1
      vertex 80.701 -0.75 -1
      vertex 80.701 -0.75 1
    endloop
  endfacet
  facet normal 0.831487 0.555544 0
    outer loop
      vertex 80.701 -0.75 -1
      vertex 80.81 -0.913141 1
      vertex 80.81 -0.913141 -1
    endloop
  endfacet
  facet normal 0.555676 0.831399 -0
    outer loop
      vertex 81.25 -1.29904 -1
      vertex 81.0869 -1.19003 1
      vertex 81.25 -1.29904 1
    endloop
  endfacet
  facet normal 0.555676 0.831399 0
    outer loop
      vertex 81.0869 -1.19003 1
      vertex 81.25 -1.29904 -1
      vertex 81.0869 -1.19003 -1
    endloop
  endfacet
  facet normal 0.896836 0.442363 0
    outer loop
      vertex 80.701 -0.75 1
      vertex 80.6142 -0.574024 -1
      vertex 80.6142 -0.574024 1
    endloop
  endfacet
  facet normal 0.896836 0.442363 0
    outer loop
      vertex 80.6142 -0.574024 -1
      vertex 80.701 -0.75 1
      vertex 80.701 -0.75 -1
    endloop
  endfacet
  facet normal 0.896836 -0.442363 0
    outer loop
      vertex 80.6142 0.574024 1
      vertex 80.701 0.75 -1
      vertex 80.701 0.75 1
    endloop
  endfacet
  facet normal 0.896836 -0.442363 0
    outer loop
      vertex 80.701 0.75 -1
      vertex 80.6142 0.574024 1
      vertex 80.6142 0.574024 -1
    endloop
  endfacet
  facet normal -0.946882 -0.32158 0
    outer loop
      vertex 83.4489 0.388228 -1
      vertex 83.3858 0.574024 1
      vertex 83.3858 0.574024 -1
    endloop
  endfacet
  facet normal -0.946882 -0.32158 0
    outer loop
      vertex 83.3858 0.574024 1
      vertex 83.4489 0.388228 -1
      vertex 83.4489 0.388228 1
    endloop
  endfacet
  facet normal 0.0653858 -0.99786 0
    outer loop
      vertex 81.8042 1.48717 -1
      vertex 82 1.5 1
      vertex 81.8042 1.48717 1
    endloop
  endfacet
  facet normal 0.0653858 -0.99786 0
    outer loop
      vertex 82 1.5 1
      vertex 81.8042 1.48717 -1
      vertex 82 1.5 -1
    endloop
  endfacet
  facet normal 0.980764 0.195195 0
    outer loop
      vertex 80.5511 -0.388228 1
      vertex 80.5128 -0.195788 -1
      vertex 80.5128 -0.195788 1
    endloop
  endfacet
  facet normal 0.980764 0.195195 0
    outer loop
      vertex 80.5128 -0.195788 -1
      vertex 80.5511 -0.388228 1
      vertex 80.5511 -0.388228 -1
    endloop
  endfacet
  facet normal 0.659139 0.752021 -0
    outer loop
      vertex 81.0869 -1.19003 -1
      vertex 80.9393 -1.06066 1
      vertex 81.0869 -1.19003 1
    endloop
  endfacet
  facet normal 0.659139 0.752021 0
    outer loop
      vertex 80.9393 -1.06066 1
      vertex 81.0869 -1.19003 -1
      vertex 80.9393 -1.06066 -1
    endloop
  endfacet
  facet normal 0.946882 -0.32158 0
    outer loop
      vertex 80.5511 0.388228 1
      vertex 80.6142 0.574024 -1
      vertex 80.6142 0.574024 1
    endloop
  endfacet
  facet normal 0.946882 -0.32158 0
    outer loop
      vertex 80.6142 0.574024 -1
      vertex 80.5511 0.388228 1
      vertex 80.5511 0.388228 -1
    endloop
  endfacet
  facet normal -0.195136 -0.980776 0
    outer loop
      vertex 82.1958 1.48717 -1
      vertex 82.3882 1.44889 1
      vertex 82.1958 1.48717 1
    endloop
  endfacet
  facet normal -0.195136 -0.980776 -0
    outer loop
      vertex 82.3882 1.44889 1
      vertex 82.1958 1.48717 -1
      vertex 82.3882 1.44889 -1
    endloop
  endfacet
  facet normal -0.946882 0.32158 0
    outer loop
      vertex 83.3858 -0.574024 -1
      vertex 83.4489 -0.388228 1
      vertex 83.4489 -0.388228 -1
    endloop
  endfacet
  facet normal -0.946882 0.32158 0
    outer loop
      vertex 83.4489 -0.388228 1
      vertex 83.3858 -0.574024 -1
      vertex 83.3858 -0.574024 1
    endloop
  endfacet
  facet normal -0.555676 0.831399 0
    outer loop
      vertex 82.9131 -1.19003 -1
      vertex 82.75 -1.29904 1
      vertex 82.9131 -1.19003 1
    endloop
  endfacet
  facet normal -0.555676 0.831399 0
    outer loop
      vertex 82.75 -1.29904 1
      vertex 82.9131 -1.19003 -1
      vertex 82.75 -1.29904 -1
    endloop
  endfacet
  facet normal -0.0653858 -0.99786 0
    outer loop
      vertex 82 1.5 -1
      vertex 82.1958 1.48717 1
      vertex 82 1.5 1
    endloop
  endfacet
  facet normal -0.0653858 -0.99786 -0
    outer loop
      vertex 82.1958 1.48717 1
      vertex 82 1.5 -1
      vertex 82.1958 1.48717 -1
    endloop
  endfacet
  facet normal 0.99787 0.0652376 0
    outer loop
      vertex 80.5128 -0.195788 1
      vertex 80.5 0 -1
      vertex 80.5 0 1
    endloop
  endfacet
  facet normal 0.99787 0.0652376 0
    outer loop
      vertex 80.5 0 -1
      vertex 80.5128 -0.195788 1
      vertex 80.5128 -0.195788 -1
    endloop
  endfacet
  facet normal 0.555676 -0.831399 0
    outer loop
      vertex 81.0869 1.19003 -1
      vertex 81.25 1.29904 1
      vertex 81.0869 1.19003 1
    endloop
  endfacet
  facet normal 0.555676 -0.831399 0
    outer loop
      vertex 81.25 1.29904 1
      vertex 81.0869 1.19003 -1
      vertex 81.25 1.29904 -1
    endloop
  endfacet
  facet normal 0.659139 -0.752021 0
    outer loop
      vertex 80.9393 1.06066 -1
      vertex 81.0869 1.19003 1
      vertex 80.9393 1.06066 1
    endloop
  endfacet
  facet normal 0.659139 -0.752021 0
    outer loop
      vertex 81.0869 1.19003 1
      vertex 80.9393 1.06066 -1
      vertex 81.0869 1.19003 -1
    endloop
  endfacet
endsolid OpenSCAD_Model
