solid OpenSCAD_Model
  facet normal 1 -0 0
    outer loop
      vertex 95 -45 25
      vertex 95 45 -25
      vertex 95 45 25
    endloop
  endfacet
  facet normal 1 0 0
    outer loop
      vertex 95 45 -25
      vertex 95 -45 25
      vertex 95 -45 -25
    endloop
  endfacet
  facet normal 0 0 1
    outer loop
      vertex 95 45 25
      vertex 92.5 42.5 25
      vertex 95 -45 25
    endloop
  endfacet
  facet normal 0 0 1
    outer loop
      vertex 95 45 25
      vertex -92.5 42.5 25
      vertex 92.5 42.5 25
    endloop
  endfacet
  facet normal 0 0 1
    outer loop
      vertex -92.5 42.5 25
      vertex -95 45 25
      vertex -92.5 -42.5 25
    endloop
  endfacet
  facet normal -0 0 1
    outer loop
      vertex -95 45 25
      vertex -92.5 42.5 25
      vertex 95 45 25
    endloop
  endfacet
  facet normal -0 0 1
    outer loop
      vertex 92.5 -42.5 25
      vertex 95 -45 25
      vertex 92.5 42.5 25
    endloop
  endfacet
  facet normal -0 0 1
    outer loop
      vertex -92.5 -42.5 25
      vertex 95 -45 25
      vertex 92.5 -42.5 25
    endloop
  endfacet
  facet normal 0 0 1
    outer loop
      vertex -92.5 -42.5 25
      vertex -95 -45 25
      vertex 95 -45 25
    endloop
  endfacet
  facet normal 0 0 1
    outer loop
      vertex -95 -45 25
      vertex -92.5 -42.5 25
      vertex -95 45 25
    endloop
  endfacet
  facet normal 0 0 -1
    outer loop
      vertex -95 -45 -25
      vertex 95 45 -25
      vertex 95 -45 -25
    endloop
  endfacet
  facet normal -0 0 -1
    outer loop
      vertex 95 45 -25
      vertex -95 -45 -25
      vertex -95 45 -25
    endloop
  endfacet
  facet normal -1 0 0
    outer loop
      vertex -95 -45 -25
      vertex -95 45 25
      vertex -95 45 -25
    endloop
  endfacet
  facet normal -1 -0 0
    outer loop
      vertex -95 45 25
      vertex -95 -45 -25
      vertex -95 -45 25
    endloop
  endfacet
  facet normal 0 1 -0
    outer loop
      vertex 95 45 -25
      vertex -95 45 25
      vertex 95 45 25
    endloop
  endfacet
  facet normal 0 1 0
    outer loop
      vertex -95 45 25
      vertex 95 45 -25
      vertex -95 45 -25
    endloop
  endfacet
  facet normal 0 -1 0
    outer loop
      vertex -95 -45 -25
      vertex 95 -45 25
      vertex -95 -45 25
    endloop
  endfacet
  facet normal 0 -1 -0
    outer loop
      vertex 95 -45 25
      vertex -95 -45 -25
      vertex 95 -45 -25
    endloop
  endfacet
  facet normal -1 0 0
    outer loop
      vertex 92.5 -42.5 -22.5
      vertex 92.5 42.5 25
      vertex 92.5 42.5 -22.5
    endloop
  endfacet
  facet normal -1 -0 0
    outer loop
      vertex 92.5 42.5 25
      vertex 92.5 -42.5 -22.5
      vertex 92.5 -42.5 25
    endloop
  endfacet
  facet normal -0 0 1
    outer loop
      vertex -92.5 42.5 -22.5
      vertex 92.5 -42.5 -22.5
      vertex 92.5 42.5 -22.5
    endloop
  endfacet
  facet normal 0 0 1
    outer loop
      vertex 92.5 -42.5 -22.5
      vertex -92.5 42.5 -22.5
      vertex -92.5 -42.5 -22.5
    endloop
  endfacet
  facet normal 1 -0 0
    outer loop
      vertex -92.5 -42.5 25
      vertex -92.5 42.5 -22.5
      vertex -92.5 42.5 25
    endloop
  endfacet
  facet normal 1 0 0
    outer loop
      vertex -92.5 42.5 -22.5
      vertex -92.5 -42.5 25
      vertex -92.5 -42.5 -22.5
    endloop
  endfacet
  facet normal 0 -1 0
    outer loop
      vertex -92.5 42.5 -22.5
      vertex 92.5 42.5 25
      vertex -92.5 42.5 25
    endloop
  endfacet
  facet normal 0 -1 -0
    outer loop
      vertex 92.5 42.5 25
      vertex -92.5 42.5 -22.5
      vertex 92.5 42.5 -22.5
    endloop
  endfacet
  facet normal 0 1 -0
    outer loop
      vertex 92.5 -42.5 -22.5
      vertex -92.5 -42.5 25
      vertex 92.5 -42.5 25
    endloop
  endfacet
  facet normal 0 1 0
    outer loop
      vertex -92.5 -42.5 25
      vertex 92.5 -42.5 -22.5
      vertex -92.5 -42.5 -22.5
    endloop
  endfacet
endsolid OpenSCAD_Model
