solid OpenSCAD_Model
  facet normal 1 -0 0
    outer loop
      vertex 95 -25 2.5
      vertex 95 25 -2.5
      vertex 95 25 2.5
    endloop
  endfacet
  facet normal 1 0 0
    outer loop
      vertex 95 25 -2.5
      vertex 95 -25 2.5
      vertex 95 -25 -2.5
    endloop
  endfacet
  facet normal -0 0 1
    outer loop
      vertex -87 6.5 2.5
      vertex -71 -6.5 2.5
      vertex -71 6.5 2.5
    endloop
  endfacet
  facet normal 0 0 1
    outer loop
      vertex -71 -6.5 2.5
      vertex -87 6.5 2.5
      vertex -87 -6.5 2.5
    endloop
  endfacet
  facet normal -0 0 1
    outer loop
      vertex 71 6.5 2.5
      vertex 87 -6.5 2.5
      vertex 87 6.5 2.5
    endloop
  endfacet
  facet normal 0 0 1
    outer loop
      vertex 87 -6.5 2.5
      vertex 71 6.5 2.5
      vertex 71 -6.5 2.5
    endloop
  endfacet
  facet normal 0 0 1
    outer loop
      vertex 87 6.5 2.5
      vertex 95 25 2.5
      vertex 87 11.5 2.5
    endloop
  endfacet
  facet normal 0 0 1
    outer loop
      vertex 95 25 2.5
      vertex 71 11.5 2.5
      vertex 87 11.5 2.5
    endloop
  endfacet
  facet normal 0 0 1
    outer loop
      vertex -71 6.5 2.5
      vertex 71 6.5 2.5
      vertex 71 11.5 2.5
    endloop
  endfacet
  facet normal 0 0 1
    outer loop
      vertex 71 6.5 2.5
      vertex -71 6.5 2.5
      vertex 71 -6.5 2.5
    endloop
  endfacet
  facet normal 0 0 1
    outer loop
      vertex -71 6.5 2.5
      vertex 71 11.5 2.5
      vertex -71 11.5 2.5
    endloop
  endfacet
  facet normal 0 0 1
    outer loop
      vertex 95 25 2.5
      vertex -71 11.5 2.5
      vertex 71 11.5 2.5
    endloop
  endfacet
  facet normal -0 0 1
    outer loop
      vertex -95 25 2.5
      vertex -71 11.5 2.5
      vertex 95 25 2.5
    endloop
  endfacet
  facet normal 0 0 1
    outer loop
      vertex -95 25 2.5
      vertex -87 6.5 2.5
      vertex -87 11.5 2.5
    endloop
  endfacet
  facet normal 0 0 1
    outer loop
      vertex -87 6.5 2.5
      vertex -95 25 2.5
      vertex -87 -6.5 2.5
    endloop
  endfacet
  facet normal 0 0 1
    outer loop
      vertex -95 -25 2.5
      vertex -87 -6.5 2.5
      vertex -95 25 2.5
    endloop
  endfacet
  facet normal 0 0 1
    outer loop
      vertex -71 11.5 2.5
      vertex -95 25 2.5
      vertex -87 11.5 2.5
    endloop
  endfacet
  facet normal 0 0 1
    outer loop
      vertex 95 25 2.5
      vertex 87 6.5 2.5
      vertex 95 -25 2.5
    endloop
  endfacet
  facet normal -0 0 1
    outer loop
      vertex 87 -6.5 2.5
      vertex 95 -25 2.5
      vertex 87 6.5 2.5
    endloop
  endfacet
  facet normal -0 0 1
    outer loop
      vertex 87 -11.5 2.5
      vertex 95 -25 2.5
      vertex 87 -6.5 2.5
    endloop
  endfacet
  facet normal -0 0 1
    outer loop
      vertex 71 -11.5 2.5
      vertex 95 -25 2.5
      vertex 87 -11.5 2.5
    endloop
  endfacet
  facet normal 0 0 1
    outer loop
      vertex -71 -6.5 2.5
      vertex 71 -6.5 2.5
      vertex -71 6.5 2.5
    endloop
  endfacet
  facet normal 0 0 1
    outer loop
      vertex 71 -6.5 2.5
      vertex -71 -6.5 2.5
      vertex 71 -11.5 2.5
    endloop
  endfacet
  facet normal 0 0 1
    outer loop
      vertex -71 -11.5 2.5
      vertex 71 -11.5 2.5
      vertex -71 -6.5 2.5
    endloop
  endfacet
  facet normal 0 0 1
    outer loop
      vertex 71 -11.5 2.5
      vertex -71 -11.5 2.5
      vertex 95 -25 2.5
    endloop
  endfacet
  facet normal 0 0 1
    outer loop
      vertex -95 -25 2.5
      vertex -71 -11.5 2.5
      vertex -87 -11.5 2.5
    endloop
  endfacet
  facet normal 0 0 1
    outer loop
      vertex -71 -11.5 2.5
      vertex -95 -25 2.5
      vertex 95 -25 2.5
    endloop
  endfacet
  facet normal 0 0 1
    outer loop
      vertex -87 -6.5 2.5
      vertex -95 -25 2.5
      vertex -87 -11.5 2.5
    endloop
  endfacet
  facet normal 0 0 -1
    outer loop
      vertex -87 -6.5 -2.5
      vertex -71 6.5 -2.5
      vertex -71 -6.5 -2.5
    endloop
  endfacet
  facet normal -0 0 -1
    outer loop
      vertex -71 6.5 -2.5
      vertex -87 -6.5 -2.5
      vertex -87 6.5 -2.5
    endloop
  endfacet
  facet normal 0 0 -1
    outer loop
      vertex 71 -6.5 -2.5
      vertex 87 6.5 -2.5
      vertex 87 -6.5 -2.5
    endloop
  endfacet
  facet normal -0 0 -1
    outer loop
      vertex 87 6.5 -2.5
      vertex 71 -6.5 -2.5
      vertex 71 6.5 -2.5
    endloop
  endfacet
  facet normal 0 0 -1
    outer loop
      vertex 87 -6.5 -2.5
      vertex 95 -25 -2.5
      vertex 87 -11.5 -2.5
    endloop
  endfacet
  facet normal 0 0 -1
    outer loop
      vertex 95 -25 -2.5
      vertex 71 -11.5 -2.5
      vertex 87 -11.5 -2.5
    endloop
  endfacet
  facet normal 0 0 -1
    outer loop
      vertex -71 -6.5 -2.5
      vertex 71 -6.5 -2.5
      vertex 71 -11.5 -2.5
    endloop
  endfacet
  facet normal 0 0 -1
    outer loop
      vertex 71 -6.5 -2.5
      vertex -71 -6.5 -2.5
      vertex 71 6.5 -2.5
    endloop
  endfacet
  facet normal 0 0 -1
    outer loop
      vertex -71 -6.5 -2.5
      vertex 71 -11.5 -2.5
      vertex -71 -11.5 -2.5
    endloop
  endfacet
  facet normal 0 0 -1
    outer loop
      vertex 95 -25 -2.5
      vertex -71 -11.5 -2.5
      vertex 71 -11.5 -2.5
    endloop
  endfacet
  facet normal 0 0 -1
    outer loop
      vertex -95 -25 -2.5
      vertex -71 -11.5 -2.5
      vertex 95 -25 -2.5
    endloop
  endfacet
  facet normal 0 0 -1
    outer loop
      vertex -95 -25 -2.5
      vertex -87 -6.5 -2.5
      vertex -87 -11.5 -2.5
    endloop
  endfacet
  facet normal -0 0 -1
    outer loop
      vertex -87 -6.5 -2.5
      vertex -95 -25 -2.5
      vertex -87 6.5 -2.5
    endloop
  endfacet
  facet normal 0 0 -1
    outer loop
      vertex -95 25 -2.5
      vertex -87 6.5 -2.5
      vertex -95 -25 -2.5
    endloop
  endfacet
  facet normal -0 0 -1
    outer loop
      vertex -71 -11.5 -2.5
      vertex -95 -25 -2.5
      vertex -87 -11.5 -2.5
    endloop
  endfacet
  facet normal 0 0 -1
    outer loop
      vertex 95 -25 -2.5
      vertex 87 -6.5 -2.5
      vertex 95 25 -2.5
    endloop
  endfacet
  facet normal 0 0 -1
    outer loop
      vertex 87 6.5 -2.5
      vertex 95 25 -2.5
      vertex 87 -6.5 -2.5
    endloop
  endfacet
  facet normal 0 0 -1
    outer loop
      vertex 87 11.5 -2.5
      vertex 95 25 -2.5
      vertex 87 6.5 -2.5
    endloop
  endfacet
  facet normal 0 0 -1
    outer loop
      vertex 71 11.5 -2.5
      vertex 95 25 -2.5
      vertex 87 11.5 -2.5
    endloop
  endfacet
  facet normal 0 0 -1
    outer loop
      vertex -71 6.5 -2.5
      vertex 71 6.5 -2.5
      vertex -71 -6.5 -2.5
    endloop
  endfacet
  facet normal 0 0 -1
    outer loop
      vertex 71 6.5 -2.5
      vertex -71 6.5 -2.5
      vertex 71 11.5 -2.5
    endloop
  endfacet
  facet normal 0 0 -1
    outer loop
      vertex -71 11.5 -2.5
      vertex 71 11.5 -2.5
      vertex -71 6.5 -2.5
    endloop
  endfacet
  facet normal 0 0 -1
    outer loop
      vertex 71 11.5 -2.5
      vertex -71 11.5 -2.5
      vertex 95 25 -2.5
    endloop
  endfacet
  facet normal 0 0 -1
    outer loop
      vertex -95 25 -2.5
      vertex -71 11.5 -2.5
      vertex -87 11.5 -2.5
    endloop
  endfacet
  facet normal 0 0 -1
    outer loop
      vertex -71 11.5 -2.5
      vertex -95 25 -2.5
      vertex 95 25 -2.5
    endloop
  endfacet
  facet normal 0 0 -1
    outer loop
      vertex -87 6.5 -2.5
      vertex -95 25 -2.5
      vertex -87 11.5 -2.5
    endloop
  endfacet
  facet normal -1 0 0
    outer loop
      vertex -95 -25 -2.5
      vertex -95 25 2.5
      vertex -95 25 -2.5
    endloop
  endfacet
  facet normal -1 -0 0
    outer loop
      vertex -95 25 2.5
      vertex -95 -25 -2.5
      vertex -95 -25 2.5
    endloop
  endfacet
  facet normal 0 1 -0
    outer loop
      vertex 95 25 -2.5
      vertex -95 25 2.5
      vertex 95 25 2.5
    endloop
  endfacet
  facet normal 0 1 0
    outer loop
      vertex -95 25 2.5
      vertex 95 25 -2.5
      vertex -95 25 -2.5
    endloop
  endfacet
  facet normal 0 -1 0
    outer loop
      vertex -95 -25 -2.5
      vertex 95 -25 2.5
      vertex -95 -25 2.5
    endloop
  endfacet
  facet normal 0 -1 -0
    outer loop
      vertex 95 -25 2.5
      vertex -95 -25 -2.5
      vertex 95 -25 -2.5
    endloop
  endfacet
  facet normal -1 0 0
    outer loop
      vertex -71 -11.5 -2.5
      vertex -71 -6.5 2.5
      vertex -71 -6.5 -2.5
    endloop
  endfacet
  facet normal -1 -0 0
    outer loop
      vertex -71 -6.5 2.5
      vertex -71 -11.5 -2.5
      vertex -71 -11.5 2.5
    endloop
  endfacet
  facet normal 1 -0 0
    outer loop
      vertex -87 -11.5 2.5
      vertex -87 -6.5 -2.5
      vertex -87 -6.5 2.5
    endloop
  endfacet
  facet normal 1 0 0
    outer loop
      vertex -87 -6.5 -2.5
      vertex -87 -11.5 2.5
      vertex -87 -11.5 -2.5
    endloop
  endfacet
  facet normal 0 -1 0
    outer loop
      vertex -87 -6.5 -2.5
      vertex -71 -6.5 2.5
      vertex -87 -6.5 2.5
    endloop
  endfacet
  facet normal 0 -1 -0
    outer loop
      vertex -71 -6.5 2.5
      vertex -87 -6.5 -2.5
      vertex -71 -6.5 -2.5
    endloop
  endfacet
  facet normal 0 1 -0
    outer loop
      vertex -71 -11.5 -2.5
      vertex -87 -11.5 2.5
      vertex -71 -11.5 2.5
    endloop
  endfacet
  facet normal 0 1 0
    outer loop
      vertex -87 -11.5 2.5
      vertex -71 -11.5 -2.5
      vertex -87 -11.5 -2.5
    endloop
  endfacet
  facet normal -1 0 0
    outer loop
      vertex -71 6.5 -2.5
      vertex -71 11.5 2.5
      vertex -71 11.5 -2.5
    endloop
  endfacet
  facet normal -1 -0 0
    outer loop
      vertex -71 11.5 2.5
      vertex -71 6.5 -2.5
      vertex -71 6.5 2.5
    endloop
  endfacet
  facet normal 1 -0 0
    outer loop
      vertex -87 6.5 2.5
      vertex -87 11.5 -2.5
      vertex -87 11.5 2.5
    endloop
  endfacet
  facet normal 1 0 0
    outer loop
      vertex -87 11.5 -2.5
      vertex -87 6.5 2.5
      vertex -87 6.5 -2.5
    endloop
  endfacet
  facet normal 0 -1 0
    outer loop
      vertex -87 11.5 -2.5
      vertex -71 11.5 2.5
      vertex -87 11.5 2.5
    endloop
  endfacet
  facet normal 0 -1 -0
    outer loop
      vertex -71 11.5 2.5
      vertex -87 11.5 -2.5
      vertex -71 11.5 -2.5
    endloop
  endfacet
  facet normal 0 1 -0
    outer loop
      vertex -71 6.5 -2.5
      vertex -87 6.5 2.5
      vertex -71 6.5 2.5
    endloop
  endfacet
  facet normal 0 1 0
    outer loop
      vertex -87 6.5 2.5
      vertex -71 6.5 -2.5
      vertex -87 6.5 -2.5
    endloop
  endfacet
  facet normal -1 0 0
    outer loop
      vertex 87 -11.5 -2.5
      vertex 87 -6.5 2.5
      vertex 87 -6.5 -2.5
    endloop
  endfacet
  facet normal -1 -0 0
    outer loop
      vertex 87 -6.5 2.5
      vertex 87 -11.5 -2.5
      vertex 87 -11.5 2.5
    endloop
  endfacet
  facet normal 1 -0 0
    outer loop
      vertex 71 -11.5 2.5
      vertex 71 -6.5 -2.5
      vertex 71 -6.5 2.5
    endloop
  endfacet
  facet normal 1 0 0
    outer loop
      vertex 71 -6.5 -2.5
      vertex 71 -11.5 2.5
      vertex 71 -11.5 -2.5
    endloop
  endfacet
  facet normal 0 -1 0
    outer loop
      vertex 71 -6.5 -2.5
      vertex 87 -6.5 2.5
      vertex 71 -6.5 2.5
    endloop
  endfacet
  facet normal 0 -1 -0
    outer loop
      vertex 87 -6.5 2.5
      vertex 71 -6.5 -2.5
      vertex 87 -6.5 -2.5
    endloop
  endfacet
  facet normal 0 1 -0
    outer loop
      vertex 87 -11.5 -2.5
      vertex 71 -11.5 2.5
      vertex 87 -11.5 2.5
    endloop
  endfacet
  facet normal 0 1 0
    outer loop
      vertex 71 -11.5 2.5
      vertex 87 -11.5 -2.5
      vertex 71 -11.5 -2.5
    endloop
  endfacet
  facet normal -1 0 0
    outer loop
      vertex 87 6.5 -2.5
      vertex 87 11.5 2.5
      vertex 87 11.5 -2.5
    endloop
  endfacet
  facet normal -1 -0 0
    outer loop
      vertex 87 11.5 2.5
      vertex 87 6.5 -2.5
      vertex 87 6.5 2.5
    endloop
  endfacet
  facet normal 1 -0 0
    outer loop
      vertex 71 6.5 2.5
      vertex 71 11.5 -2.5
      vertex 71 11.5 2.5
    endloop
  endfacet
  facet normal 1 0 0
    outer loop
      vertex 71 11.5 -2.5
      vertex 71 6.5 2.5
      vertex 71 6.5 -2.5
    endloop
  endfacet
  facet normal 0 -1 0
    outer loop
      vertex 71 11.5 -2.5
      vertex 87 11.5 2.5
      vertex 71 11.5 2.5
    endloop
  endfacet
  facet normal 0 -1 -0
    outer loop
      vertex 87 11.5 2.5
      vertex 71 11.5 -2.5
      vertex 87 11.5 -2.5
    endloop
  endfacet
  facet normal 0 1 -0
    outer loop
      vertex 87 6.5 -2.5
      vertex 71 6.5 2.5
      vertex 87 6.5 2.5
    endloop
  endfacet
  facet normal 0 1 0
    outer loop
      vertex 71 6.5 2.5
      vertex 87 6.5 -2.5
      vertex 71 6.5 -2.5
    endloop
  endfacet
endsolid OpenSCAD_Model
