solid OpenSCAD_Model
  facet normal 0.997858 0.0654116 0
    outer loop
      vertex 16 0 25
      vertex 15.8631 2.08842 -25
      vertex 15.8631 2.08842 25
    endloop
  endfacet
  facet normal 0.997858 0.0654116 0
    outer loop
      vertex 15.8631 2.08842 -25
      vertex 16 0 25
      vertex 16 0 -25
    endloop
  endfacet
  facet normal 0.980786 0.195089 0
    outer loop
      vertex 15.8631 2.08842 25
      vertex 15.4548 4.1411 -25
      vertex 15.4548 4.1411 25
    endloop
  endfacet
  facet normal 0.980786 0.195089 0
    outer loop
      vertex 15.4548 4.1411 -25
      vertex 15.8631 2.08842 25
      vertex 15.8631 2.08842 -25
    endloop
  endfacet
  facet normal 0.946936 0.321422 0
    outer loop
      vertex 15.4548 4.1411 25
      vertex 14.7821 6.12293 -25
      vertex 14.7821 6.12293 25
    endloop
  endfacet
  facet normal 0.946936 0.321422 0
    outer loop
      vertex 14.7821 6.12293 -25
      vertex 15.4548 4.1411 25
      vertex 15.4548 4.1411 -25
    endloop
  endfacet
  facet normal 0.896867 0.442301 0
    outer loop
      vertex 14.7821 6.12293 25
      vertex 13.8564 8 -25
      vertex 13.8564 8 25
    endloop
  endfacet
  facet normal 0.896867 0.442301 0
    outer loop
      vertex 13.8564 8 -25
      vertex 14.7821 6.12293 25
      vertex 14.7821 6.12293 -25
    endloop
  endfacet
  facet normal 0.831481 0.555553 0
    outer loop
      vertex 13.8564 8 25
      vertex 12.6937 9.74018 -25
      vertex 12.6937 9.74018 25
    endloop
  endfacet
  facet normal 0.831481 0.555553 0
    outer loop
      vertex 12.6937 9.74018 -25
      vertex 13.8564 8 25
      vertex 13.8564 8 -25
    endloop
  endfacet
  facet normal 0.751826 0.659362 0
    outer loop
      vertex 12.6937 9.74018 25
      vertex 11.3137 11.3137 -25
      vertex 11.3137 11.3137 25
    endloop
  endfacet
  facet normal 0.751826 0.659362 0
    outer loop
      vertex 11.3137 11.3137 -25
      vertex 12.6937 9.74018 25
      vertex 12.6937 9.74018 -25
    endloop
  endfacet
  facet normal 0.659362 0.751826 -0
    outer loop
      vertex 11.3137 11.3137 -25
      vertex 9.74018 12.6937 25
      vertex 11.3137 11.3137 25
    endloop
  endfacet
  facet normal 0.659362 0.751826 0
    outer loop
      vertex 9.74018 12.6937 25
      vertex 11.3137 11.3137 -25
      vertex 9.74018 12.6937 -25
    endloop
  endfacet
  facet normal 0.555553 0.831481 -0
    outer loop
      vertex 9.74018 12.6937 -25
      vertex 8 13.8564 25
      vertex 9.74018 12.6937 25
    endloop
  endfacet
  facet normal 0.555553 0.831481 0
    outer loop
      vertex 8 13.8564 25
      vertex 9.74018 12.6937 -25
      vertex 8 13.8564 -25
    endloop
  endfacet
  facet normal 0.442301 0.896867 -0
    outer loop
      vertex 8 13.8564 -25
      vertex 6.12293 14.7821 25
      vertex 8 13.8564 25
    endloop
  endfacet
  facet normal 0.442301 0.896867 0
    outer loop
      vertex 6.12293 14.7821 25
      vertex 8 13.8564 -25
      vertex 6.12293 14.7821 -25
    endloop
  endfacet
  facet normal 0.321422 0.946936 -0
    outer loop
      vertex 6.12293 14.7821 -25
      vertex 4.1411 15.4548 25
      vertex 6.12293 14.7821 25
    endloop
  endfacet
  facet normal 0.321422 0.946936 0
    outer loop
      vertex 4.1411 15.4548 25
      vertex 6.12293 14.7821 -25
      vertex 4.1411 15.4548 -25
    endloop
  endfacet
  facet normal 0.195089 0.980786 -0
    outer loop
      vertex 4.1411 15.4548 -25
      vertex 2.08842 15.8631 25
      vertex 4.1411 15.4548 25
    endloop
  endfacet
  facet normal 0.195089 0.980786 0
    outer loop
      vertex 2.08842 15.8631 25
      vertex 4.1411 15.4548 -25
      vertex 2.08842 15.8631 -25
    endloop
  endfacet
  facet normal 0.0654116 0.997858 -0
    outer loop
      vertex 2.08842 15.8631 -25
      vertex 0 16 25
      vertex 2.08842 15.8631 25
    endloop
  endfacet
  facet normal 0.0654116 0.997858 0
    outer loop
      vertex 0 16 25
      vertex 2.08842 15.8631 -25
      vertex 0 16 -25
    endloop
  endfacet
  facet normal -0.0654116 0.997858 0
    outer loop
      vertex 0 16 -25
      vertex -2.08842 15.8631 25
      vertex 0 16 25
    endloop
  endfacet
  facet normal -0.0654116 0.997858 0
    outer loop
      vertex -2.08842 15.8631 25
      vertex 0 16 -25
      vertex -2.08842 15.8631 -25
    endloop
  endfacet
  facet normal -0.195089 0.980786 0
    outer loop
      vertex -2.08842 15.8631 -25
      vertex -4.1411 15.4548 25
      vertex -2.08842 15.8631 25
    endloop
  endfacet
  facet normal -0.195089 0.980786 0
    outer loop
      vertex -4.1411 15.4548 25
      vertex -2.08842 15.8631 -25
      vertex -4.1411 15.4548 -25
    endloop
  endfacet
  facet normal -0.321422 0.946936 0
    outer loop
      vertex -4.1411 15.4548 -25
      vertex -6.12293 14.7821 25
      vertex -4.1411 15.4548 25
    endloop
  endfacet
  facet normal -0.321422 0.946936 0
    outer loop
      vertex -6.12293 14.7821 25
      vertex -4.1411 15.4548 -25
      vertex -6.12293 14.7821 -25
    endloop
  endfacet
  facet normal -0.442301 0.896867 0
    outer loop
      vertex -6.12293 14.7821 -25
      vertex -8 13.8564 25
      vertex -6.12293 14.7821 25
    endloop
  endfacet
  facet normal -0.442301 0.896867 0
    outer loop
      vertex -8 13.8564 25
      vertex -6.12293 14.7821 -25
      vertex -8 13.8564 -25
    endloop
  endfacet
  facet normal -0.555553 0.831481 0
    outer loop
      vertex -8 13.8564 -25
      vertex -9.74018 12.6937 25
      vertex -8 13.8564 25
    endloop
  endfacet
  facet normal -0.555553 0.831481 0
    outer loop
      vertex -9.74018 12.6937 25
      vertex -8 13.8564 -25
      vertex -9.74018 12.6937 -25
    endloop
  endfacet
  facet normal -0.659362 0.751826 0
    outer loop
      vertex -9.74018 12.6937 -25
      vertex -11.3137 11.3137 25
      vertex -9.74018 12.6937 25
    endloop
  endfacet
  facet normal -0.659362 0.751826 0
    outer loop
      vertex -11.3137 11.3137 25
      vertex -9.74018 12.6937 -25
      vertex -11.3137 11.3137 -25
    endloop
  endfacet
  facet normal -0.751826 0.659362 0
    outer loop
      vertex -12.6937 9.74018 -25
      vertex -11.3137 11.3137 25
      vertex -11.3137 11.3137 -25
    endloop
  endfacet
  facet normal -0.751826 0.659362 0
    outer loop
      vertex -11.3137 11.3137 25
      vertex -12.6937 9.74018 -25
      vertex -12.6937 9.74018 25
    endloop
  endfacet
  facet normal -0.831481 0.555553 0
    outer loop
      vertex -13.8564 8 -25
      vertex -12.6937 9.74018 25
      vertex -12.6937 9.74018 -25
    endloop
  endfacet
  facet normal -0.831481 0.555553 0
    outer loop
      vertex -12.6937 9.74018 25
      vertex -13.8564 8 -25
      vertex -13.8564 8 25
    endloop
  endfacet
  facet normal -0.896867 0.442301 0
    outer loop
      vertex -14.7821 6.12293 -25
      vertex -13.8564 8 25
      vertex -13.8564 8 -25
    endloop
  endfacet
  facet normal -0.896867 0.442301 0
    outer loop
      vertex -13.8564 8 25
      vertex -14.7821 6.12293 -25
      vertex -14.7821 6.12293 25
    endloop
  endfacet
  facet normal -0.946936 0.321422 0
    outer loop
      vertex -15.4548 4.1411 -25
      vertex -14.7821 6.12293 25
      vertex -14.7821 6.12293 -25
    endloop
  endfacet
  facet normal -0.946936 0.321422 0
    outer loop
      vertex -14.7821 6.12293 25
      vertex -15.4548 4.1411 -25
      vertex -15.4548 4.1411 25
    endloop
  endfacet
  facet normal -0.980786 0.195089 0
    outer loop
      vertex -15.8631 2.08842 -25
      vertex -15.4548 4.1411 25
      vertex -15.4548 4.1411 -25
    endloop
  endfacet
  facet normal -0.980786 0.195089 0
    outer loop
      vertex -15.4548 4.1411 25
      vertex -15.8631 2.08842 -25
      vertex -15.8631 2.08842 25
    endloop
  endfacet
  facet normal -0.997858 0.0654116 0
    outer loop
      vertex -16 -0 -25
      vertex -15.8631 2.08842 25
      vertex -15.8631 2.08842 -25
    endloop
  endfacet
  facet normal -0.997858 0.0654116 0
    outer loop
      vertex -15.8631 2.08842 25
      vertex -16 -0 -25
      vertex -16 -0 25
    endloop
  endfacet
  facet normal -0.997858 -0.0654116 0
    outer loop
      vertex -15.8631 -2.08842 -25
      vertex -16 -0 25
      vertex -16 -0 -25
    endloop
  endfacet
  facet normal -0.997858 -0.0654116 0
    outer loop
      vertex -16 -0 25
      vertex -15.8631 -2.08842 -25
      vertex -15.8631 -2.08842 25
    endloop
  endfacet
  facet normal -0.980786 -0.195089 0
    outer loop
      vertex -15.4548 -4.1411 -25
      vertex -15.8631 -2.08842 25
      vertex -15.8631 -2.08842 -25
    endloop
  endfacet
  facet normal -0.980786 -0.195089 0
    outer loop
      vertex -15.8631 -2.08842 25
      vertex -15.4548 -4.1411 -25
      vertex -15.4548 -4.1411 25
    endloop
  endfacet
  facet normal -0.946936 -0.321422 0
    outer loop
      vertex -14.7821 -6.12293 -25
      vertex -15.4548 -4.1411 25
      vertex -15.4548 -4.1411 -25
    endloop
  endfacet
  facet normal -0.946936 -0.321422 0
    outer loop
      vertex -15.4548 -4.1411 25
      vertex -14.7821 -6.12293 -25
      vertex -14.7821 -6.12293 25
    endloop
  endfacet
  facet normal -0.896867 -0.442301 0
    outer loop
      vertex -13.8564 -8 -25
      vertex -14.7821 -6.12293 25
      vertex -14.7821 -6.12293 -25
    endloop
  endfacet
  facet normal -0.896867 -0.442301 0
    outer loop
      vertex -14.7821 -6.12293 25
      vertex -13.8564 -8 -25
      vertex -13.8564 -8 25
    endloop
  endfacet
  facet normal -0.831481 -0.555553 0
    outer loop
      vertex -12.6937 -9.74018 -25
      vertex -13.8564 -8 25
      vertex -13.8564 -8 -25
    endloop
  endfacet
  facet normal -0.831481 -0.555553 0
    outer loop
      vertex -13.8564 -8 25
      vertex -12.6937 -9.74018 -25
      vertex -12.6937 -9.74018 25
    endloop
  endfacet
  facet normal -0.751826 -0.659362 0
    outer loop
      vertex -11.3137 -11.3137 -25
      vertex -12.6937 -9.74018 25
      vertex -12.6937 -9.74018 -25
    endloop
  endfacet
  facet normal -0.751826 -0.659362 0
    outer loop
      vertex -12.6937 -9.74018 25
      vertex -11.3137 -11.3137 -25
      vertex -11.3137 -11.3137 25
    endloop
  endfacet
  facet normal -0.659362 -0.751826 0
    outer loop
      vertex -11.3137 -11.3137 -25
      vertex -9.74018 -12.6937 25
      vertex -11.3137 -11.3137 25
    endloop
  endfacet
  facet normal -0.659362 -0.751826 -0
    outer loop
      vertex -9.74018 -12.6937 25
      vertex -11.3137 -11.3137 -25
      vertex -9.74018 -12.6937 -25
    endloop
  endfacet
  facet normal -0.555553 -0.831481 0
    outer loop
      vertex -9.74018 -12.6937 -25
      vertex -8 -13.8564 25
      vertex -9.74018 -12.6937 25
    endloop
  endfacet
  facet normal -0.555553 -0.831481 -0
    outer loop
      vertex -8 -13.8564 25
      vertex -9.74018 -12.6937 -25
      vertex -8 -13.8564 -25
    endloop
  endfacet
  facet normal -0.442301 -0.896867 0
    outer loop
      vertex -8 -13.8564 -25
      vertex -6.12293 -14.7821 25
      vertex -8 -13.8564 25
    endloop
  endfacet
  facet normal -0.442301 -0.896867 -0
    outer loop
      vertex -6.12293 -14.7821 25
      vertex -8 -13.8564 -25
      vertex -6.12293 -14.7821 -25
    endloop
  endfacet
  facet normal -0.321422 -0.946936 0
    outer loop
      vertex -6.12293 -14.7821 -25
      vertex -4.1411 -15.4548 25
      vertex -6.12293 -14.7821 25
    endloop
  endfacet
  facet normal -0.321422 -0.946936 -0
    outer loop
      vertex -4.1411 -15.4548 25
      vertex -6.12293 -14.7821 -25
      vertex -4.1411 -15.4548 -25
    endloop
  endfacet
  facet normal -0.195089 -0.980786 0
    outer loop
      vertex -4.1411 -15.4548 -25
      vertex -2.08842 -15.8631 25
      vertex -4.1411 -15.4548 25
    endloop
  endfacet
  facet normal -0.195089 -0.980786 -0
    outer loop
      vertex -2.08842 -15.8631 25
      vertex -4.1411 -15.4548 -25
      vertex -2.08842 -15.8631 -25
    endloop
  endfacet
  facet normal -0.0654116 -0.997858 0
    outer loop
      vertex -2.08842 -15.8631 -25
      vertex -0 -16 25
      vertex -2.08842 -15.8631 25
    endloop
  endfacet
  facet normal -0.0654116 -0.997858 -0
    outer loop
      vertex -0 -16 25
      vertex -2.08842 -15.8631 -25
      vertex -0 -16 -25
    endloop
  endfacet
  facet normal 0.0654116 -0.997858 0
    outer loop
      vertex -0 -16 -25
      vertex 2.08842 -15.8631 25
      vertex -0 -16 25
    endloop
  endfacet
  facet normal 0.0654116 -0.997858 0
    outer loop
      vertex 2.08842 -15.8631 25
      vertex -0 -16 -25
      vertex 2.08842 -15.8631 -25
    endloop
  endfacet
  facet normal 0.195089 -0.980786 0
    outer loop
      vertex 2.08842 -15.8631 -25
      vertex 4.1411 -15.4548 25
      vertex 2.08842 -15.8631 25
    endloop
  endfacet
  facet normal 0.195089 -0.980786 0
    outer loop
      vertex 4.1411 -15.4548 25
      vertex 2.08842 -15.8631 -25
      vertex 4.1411 -15.4548 -25
    endloop
  endfacet
  facet normal 0.321422 -0.946936 0
    outer loop
      vertex 4.1411 -15.4548 -25
      vertex 6.12293 -14.7821 25
      vertex 4.1411 -15.4548 25
    endloop
  endfacet
  facet normal 0.321422 -0.946936 0
    outer loop
      vertex 6.12293 -14.7821 25
      vertex 4.1411 -15.4548 -25
      vertex 6.12293 -14.7821 -25
    endloop
  endfacet
  facet normal 0.442301 -0.896867 0
    outer loop
      vertex 6.12293 -14.7821 -25
      vertex 8 -13.8564 25
      vertex 6.12293 -14.7821 25
    endloop
  endfacet
  facet normal 0.442301 -0.896867 0
    outer loop
      vertex 8 -13.8564 25
      vertex 6.12293 -14.7821 -25
      vertex 8 -13.8564 -25
    endloop
  endfacet
  facet normal 0.555553 -0.831481 0
    outer loop
      vertex 8 -13.8564 -25
      vertex 9.74018 -12.6937 25
      vertex 8 -13.8564 25
    endloop
  endfacet
  facet normal 0.555553 -0.831481 0
    outer loop
      vertex 9.74018 -12.6937 25
      vertex 8 -13.8564 -25
      vertex 9.74018 -12.6937 -25
    endloop
  endfacet
  facet normal 0.659362 -0.751826 0
    outer loop
      vertex 9.74018 -12.6937 -25
      vertex 11.3137 -11.3137 25
      vertex 9.74018 -12.6937 25
    endloop
  endfacet
  facet normal 0.659362 -0.751826 0
    outer loop
      vertex 11.3137 -11.3137 25
      vertex 9.74018 -12.6937 -25
      vertex 11.3137 -11.3137 -25
    endloop
  endfacet
  facet normal 0.751826 -0.659362 0
    outer loop
      vertex 11.3137 -11.3137 25
      vertex 12.6937 -9.74018 -25
      vertex 12.6937 -9.74018 25
    endloop
  endfacet
  facet normal 0.751826 -0.659362 0
    outer loop
      vertex 12.6937 -9.74018 -25
      vertex 11.3137 -11.3137 25
      vertex 11.3137 -11.3137 -25
    endloop
  endfacet
  facet normal 0.831481 -0.555553 0
    outer loop
      vertex 12.6937 -9.74018 25
      vertex 13.8564 -8 -25
      vertex 13.8564 -8 25
    endloop
  endfacet
  facet normal 0.831481 -0.555553 0
    outer loop
      vertex 13.8564 -8 -25
      vertex 12.6937 -9.74018 25
      vertex 12.6937 -9.74018 -25
    endloop
  endfacet
  facet normal 0.896867 -0.442301 0
    outer loop
      vertex 13.8564 -8 25
      vertex 14.7821 -6.12293 -25
      vertex 14.7821 -6.12293 25
    endloop
  endfacet
  facet normal 0.896867 -0.442301 0
    outer loop
      vertex 14.7821 -6.12293 -25
      vertex 13.8564 -8 25
      vertex 13.8564 -8 -25
    endloop
  endfacet
  facet normal 0.946936 -0.321422 0
    outer loop
      vertex 14.7821 -6.12293 25
      vertex 15.4548 -4.1411 -25
      vertex 15.4548 -4.1411 25
    endloop
  endfacet
  facet normal 0.946936 -0.321422 0
    outer loop
      vertex 15.4548 -4.1411 -25
      vertex 14.7821 -6.12293 25
      vertex 14.7821 -6.12293 -25
    endloop
  endfacet
  facet normal 0.980786 -0.195089 0
    outer loop
      vertex 15.4548 -4.1411 25
      vertex 15.8631 -2.08842 -25
      vertex 15.8631 -2.08842 25
    endloop
  endfacet
  facet normal 0.980786 -0.195089 0
    outer loop
      vertex 15.8631 -2.08842 -25
      vertex 15.4548 -4.1411 25
      vertex 15.4548 -4.1411 -25
    endloop
  endfacet
  facet normal 0.997858 -0.0654116 0
    outer loop
      vertex 15.8631 -2.08842 25
      vertex 16 0 -25
      vertex 16 0 25
    endloop
  endfacet
  facet normal 0.997858 -0.0654116 0
    outer loop
      vertex 16 0 -25
      vertex 15.8631 -2.08842 25
      vertex 15.8631 -2.08842 -25
    endloop
  endfacet
  facet normal 0 0 -1
    outer loop
      vertex 15.8631 -2.08842 -25
      vertex 15.8631 2.08842 -25
      vertex 16 0 -25
    endloop
  endfacet
  facet normal 0 0 -1
    outer loop
      vertex 15.4548 -4.1411 -25
      vertex 15.8631 2.08842 -25
      vertex 15.8631 -2.08842 -25
    endloop
  endfacet
  facet normal 0 0 -1
    outer loop
      vertex 15.4548 -4.1411 -25
      vertex 15.4548 4.1411 -25
      vertex 15.8631 2.08842 -25
    endloop
  endfacet
  facet normal 0 0 -1
    outer loop
      vertex 14.7821 -6.12293 -25
      vertex 15.4548 4.1411 -25
      vertex 15.4548 -4.1411 -25
    endloop
  endfacet
  facet normal 0 0 -1
    outer loop
      vertex 14.7821 -6.12293 -25
      vertex 14.7821 6.12293 -25
      vertex 15.4548 4.1411 -25
    endloop
  endfacet
  facet normal 0 0 -1
    outer loop
      vertex 13.8564 -8 -25
      vertex 14.7821 6.12293 -25
      vertex 14.7821 -6.12293 -25
    endloop
  endfacet
  facet normal 0 0 -1
    outer loop
      vertex 13.8564 -8 -25
      vertex 13.8564 8 -25
      vertex 14.7821 6.12293 -25
    endloop
  endfacet
  facet normal 0 0 -1
    outer loop
      vertex 12.6937 -9.74018 -25
      vertex 13.8564 8 -25
      vertex 13.8564 -8 -25
    endloop
  endfacet
  facet normal 0 0 -1
    outer loop
      vertex 12.6937 -9.74018 -25
      vertex 12.6937 9.74018 -25
      vertex 13.8564 8 -25
    endloop
  endfacet
  facet normal 0 0 -1
    outer loop
      vertex 11.3137 -11.3137 -25
      vertex 12.6937 9.74018 -25
      vertex 12.6937 -9.74018 -25
    endloop
  endfacet
  facet normal 0 0 -1
    outer loop
      vertex 11.3137 -11.3137 -25
      vertex 11.3137 11.3137 -25
      vertex 12.6937 9.74018 -25
    endloop
  endfacet
  facet normal 0 0 -1
    outer loop
      vertex 9.74018 -12.6937 -25
      vertex 11.3137 11.3137 -25
      vertex 11.3137 -11.3137 -25
    endloop
  endfacet
  facet normal 0 0 -1
    outer loop
      vertex 9.74018 -12.6937 -25
      vertex 9.74018 12.6937 -25
      vertex 11.3137 11.3137 -25
    endloop
  endfacet
  facet normal 0 0 -1
    outer loop
      vertex 8 -13.8564 -25
      vertex 9.74018 12.6937 -25
      vertex 9.74018 -12.6937 -25
    endloop
  endfacet
  facet normal 0 0 -1
    outer loop
      vertex 8 -13.8564 -25
      vertex 8 13.8564 -25
      vertex 9.74018 12.6937 -25
    endloop
  endfacet
  facet normal 0 0 -1
    outer loop
      vertex 6.12293 -14.7821 -25
      vertex 8 13.8564 -25
      vertex 8 -13.8564 -25
    endloop
  endfacet
  facet normal 0 0 -1
    outer loop
      vertex 6.12293 -14.7821 -25
      vertex 6.12293 14.7821 -25
      vertex 8 13.8564 -25
    endloop
  endfacet
  facet normal 0 0 -1
    outer loop
      vertex 4.1411 -15.4548 -25
      vertex 6.12293 14.7821 -25
      vertex 6.12293 -14.7821 -25
    endloop
  endfacet
  facet normal 0 0 -1
    outer loop
      vertex 4.1411 -15.4548 -25
      vertex 4.1411 15.4548 -25
      vertex 6.12293 14.7821 -25
    endloop
  endfacet
  facet normal 0 0 -1
    outer loop
      vertex 2.08842 -15.8631 -25
      vertex 4.1411 15.4548 -25
      vertex 4.1411 -15.4548 -25
    endloop
  endfacet
  facet normal 0 0 -1
    outer loop
      vertex 2.08842 -15.8631 -25
      vertex 2.08842 15.8631 -25
      vertex 4.1411 15.4548 -25
    endloop
  endfacet
  facet normal 0 0 -1
    outer loop
      vertex -0 -16 -25
      vertex 2.08842 15.8631 -25
      vertex 2.08842 -15.8631 -25
    endloop
  endfacet
  facet normal 0 0 -1
    outer loop
      vertex -0 -16 -25
      vertex 0 16 -25
      vertex 2.08842 15.8631 -25
    endloop
  endfacet
  facet normal 0 0 -1
    outer loop
      vertex -2.08842 -15.8631 -25
      vertex 0 16 -25
      vertex -0 -16 -25
    endloop
  endfacet
  facet normal 0 0 -1
    outer loop
      vertex -2.08842 -15.8631 -25
      vertex -2.08842 15.8631 -25
      vertex 0 16 -25
    endloop
  endfacet
  facet normal 0 0 -1
    outer loop
      vertex -4.1411 -15.4548 -25
      vertex -2.08842 15.8631 -25
      vertex -2.08842 -15.8631 -25
    endloop
  endfacet
  facet normal 0 0 -1
    outer loop
      vertex -4.1411 -15.4548 -25
      vertex -4.1411 15.4548 -25
      vertex -2.08842 15.8631 -25
    endloop
  endfacet
  facet normal 0 0 -1
    outer loop
      vertex -6.12293 -14.7821 -25
      vertex -4.1411 15.4548 -25
      vertex -4.1411 -15.4548 -25
    endloop
  endfacet
  facet normal 0 0 -1
    outer loop
      vertex -6.12293 -14.7821 -25
      vertex -6.12293 14.7821 -25
      vertex -4.1411 15.4548 -25
    endloop
  endfacet
  facet normal 0 0 -1
    outer loop
      vertex -8 -13.8564 -25
      vertex -6.12293 14.7821 -25
      vertex -6.12293 -14.7821 -25
    endloop
  endfacet
  facet normal 0 0 -1
    outer loop
      vertex -8 -13.8564 -25
      vertex -8 13.8564 -25
      vertex -6.12293 14.7821 -25
    endloop
  endfacet
  facet normal 0 0 -1
    outer loop
      vertex -9.74018 -12.6937 -25
      vertex -8 13.8564 -25
      vertex -8 -13.8564 -25
    endloop
  endfacet
  facet normal 0 0 -1
    outer loop
      vertex -9.74018 -12.6937 -25
      vertex -9.74018 12.6937 -25
      vertex -8 13.8564 -25
    endloop
  endfacet
  facet normal 0 0 -1
    outer loop
      vertex -11.3137 -11.3137 -25
      vertex -9.74018 12.6937 -25
      vertex -9.74018 -12.6937 -25
    endloop
  endfacet
  facet normal 0 0 -1
    outer loop
      vertex -11.3137 -11.3137 -25
      vertex -11.3137 11.3137 -25
      vertex -9.74018 12.6937 -25
    endloop
  endfacet
  facet normal 0 0 -1
    outer loop
      vertex -12.6937 -9.74018 -25
      vertex -11.3137 11.3137 -25
      vertex -11.3137 -11.3137 -25
    endloop
  endfacet
  facet normal 0 0 -1
    outer loop
      vertex -12.6937 -9.74018 -25
      vertex -12.6937 9.74018 -25
      vertex -11.3137 11.3137 -25
    endloop
  endfacet
  facet normal 0 0 -1
    outer loop
      vertex -13.8564 -8 -25
      vertex -12.6937 9.74018 -25
      vertex -12.6937 -9.74018 -25
    endloop
  endfacet
  facet normal 0 0 -1
    outer loop
      vertex -13.8564 -8 -25
      vertex -13.8564 8 -25
      vertex -12.6937 9.74018 -25
    endloop
  endfacet
  facet normal 0 0 -1
    outer loop
      vertex -14.7821 -6.12293 -25
      vertex -13.8564 8 -25
      vertex -13.8564 -8 -25
    endloop
  endfacet
  facet normal 0 0 -1
    outer loop
      vertex -14.7821 -6.12293 -25
      vertex -14.7821 6.12293 -25
      vertex -13.8564 8 -25
    endloop
  endfacet
  facet normal 0 0 -1
    outer loop
      vertex -15.4548 -4.1411 -25
      vertex -14.7821 6.12293 -25
      vertex -14.7821 -6.12293 -25
    endloop
  endfacet
  facet normal 0 0 -1
    outer loop
      vertex -15.4548 -4.1411 -25
      vertex -15.4548 4.1411 -25
      vertex -14.7821 6.12293 -25
    endloop
  endfacet
  facet normal 0 0 -1
    outer loop
      vertex -15.8631 -2.08842 -25
      vertex -15.4548 4.1411 -25
      vertex -15.4548 -4.1411 -25
    endloop
  endfacet
  facet normal 0 0 -1
    outer loop
      vertex -15.8631 -2.08842 -25
      vertex -15.8631 2.08842 -25
      vertex -15.4548 4.1411 -25
    endloop
  endfacet
  facet normal 0 -0 -1
    outer loop
      vertex -15.8631 2.08842 -25
      vertex -15.8631 -2.08842 -25
      vertex -16 -0 -25
    endloop
  endfacet
  facet normal 0 0 1
    outer loop
      vertex 15.8631 2.08842 25
      vertex 15.8631 -2.08842 25
      vertex 16 0 25
    endloop
  endfacet
  facet normal 0 0 1
    outer loop
      vertex 15.4548 4.1411 25
      vertex 15.8631 -2.08842 25
      vertex 15.8631 2.08842 25
    endloop
  endfacet
  facet normal 0 0 1
    outer loop
      vertex 15.4548 4.1411 25
      vertex 15.4548 -4.1411 25
      vertex 15.8631 -2.08842 25
    endloop
  endfacet
  facet normal 0 0 1
    outer loop
      vertex 14.7821 6.12293 25
      vertex 15.4548 -4.1411 25
      vertex 15.4548 4.1411 25
    endloop
  endfacet
  facet normal 0 0 1
    outer loop
      vertex 14.7821 6.12293 25
      vertex 14.7821 -6.12293 25
      vertex 15.4548 -4.1411 25
    endloop
  endfacet
  facet normal 0 0 1
    outer loop
      vertex 13.8564 8 25
      vertex 14.7821 -6.12293 25
      vertex 14.7821 6.12293 25
    endloop
  endfacet
  facet normal 0 0 1
    outer loop
      vertex 13.8564 8 25
      vertex 13.8564 -8 25
      vertex 14.7821 -6.12293 25
    endloop
  endfacet
  facet normal 0 0 1
    outer loop
      vertex 12.6937 9.74018 25
      vertex 13.8564 -8 25
      vertex 13.8564 8 25
    endloop
  endfacet
  facet normal 0 0 1
    outer loop
      vertex 12.6937 9.74018 25
      vertex 12.6937 -9.74018 25
      vertex 13.8564 -8 25
    endloop
  endfacet
  facet normal 0 0 1
    outer loop
      vertex 11.3137 11.3137 25
      vertex 12.6937 -9.74018 25
      vertex 12.6937 9.74018 25
    endloop
  endfacet
  facet normal 0 0 1
    outer loop
      vertex 11.3137 11.3137 25
      vertex 11.3137 -11.3137 25
      vertex 12.6937 -9.74018 25
    endloop
  endfacet
  facet normal 0 0 1
    outer loop
      vertex 9.74018 12.6937 25
      vertex 11.3137 -11.3137 25
      vertex 11.3137 11.3137 25
    endloop
  endfacet
  facet normal 0 0 1
    outer loop
      vertex 9.74018 12.6937 25
      vertex 9.74018 -12.6937 25
      vertex 11.3137 -11.3137 25
    endloop
  endfacet
  facet normal 0 0 1
    outer loop
      vertex 8 13.8564 25
      vertex 9.74018 -12.6937 25
      vertex 9.74018 12.6937 25
    endloop
  endfacet
  facet normal 0 0 1
    outer loop
      vertex 8 13.8564 25
      vertex 8 -13.8564 25
      vertex 9.74018 -12.6937 25
    endloop
  endfacet
  facet normal 0 0 1
    outer loop
      vertex 6.12293 14.7821 25
      vertex 8 -13.8564 25
      vertex 8 13.8564 25
    endloop
  endfacet
  facet normal 0 0 1
    outer loop
      vertex 6.12293 14.7821 25
      vertex 6.12293 -14.7821 25
      vertex 8 -13.8564 25
    endloop
  endfacet
  facet normal 0 0 1
    outer loop
      vertex 4.1411 15.4548 25
      vertex 6.12293 -14.7821 25
      vertex 6.12293 14.7821 25
    endloop
  endfacet
  facet normal 0 0 1
    outer loop
      vertex 4.1411 15.4548 25
      vertex 4.1411 -15.4548 25
      vertex 6.12293 -14.7821 25
    endloop
  endfacet
  facet normal 0 0 1
    outer loop
      vertex 2.08842 15.8631 25
      vertex 4.1411 -15.4548 25
      vertex 4.1411 15.4548 25
    endloop
  endfacet
  facet normal 0 0 1
    outer loop
      vertex 2.08842 15.8631 25
      vertex 2.08842 -15.8631 25
      vertex 4.1411 -15.4548 25
    endloop
  endfacet
  facet normal 0 0 1
    outer loop
      vertex 0 16 25
      vertex 2.08842 -15.8631 25
      vertex 2.08842 15.8631 25
    endloop
  endfacet
  facet normal 0 0 1
    outer loop
      vertex 0 16 25
      vertex -0 -16 25
      vertex 2.08842 -15.8631 25
    endloop
  endfacet
  facet normal -0 0 1
    outer loop
      vertex -2.08842 15.8631 25
      vertex -0 -16 25
      vertex 0 16 25
    endloop
  endfacet
  facet normal 0 0 1
    outer loop
      vertex -2.08842 15.8631 25
      vertex -2.08842 -15.8631 25
      vertex -0 -16 25
    endloop
  endfacet
  facet normal -0 0 1
    outer loop
      vertex -4.1411 15.4548 25
      vertex -2.08842 -15.8631 25
      vertex -2.08842 15.8631 25
    endloop
  endfacet
  facet normal 0 0 1
    outer loop
      vertex -4.1411 15.4548 25
      vertex -4.1411 -15.4548 25
      vertex -2.08842 -15.8631 25
    endloop
  endfacet
  facet normal -0 0 1
    outer loop
      vertex -6.12293 14.7821 25
      vertex -4.1411 -15.4548 25
      vertex -4.1411 15.4548 25
    endloop
  endfacet
  facet normal 0 0 1
    outer loop
      vertex -6.12293 14.7821 25
      vertex -6.12293 -14.7821 25
      vertex -4.1411 -15.4548 25
    endloop
  endfacet
  facet normal -0 0 1
    outer loop
      vertex -8 13.8564 25
      vertex -6.12293 -14.7821 25
      vertex -6.12293 14.7821 25
    endloop
  endfacet
  facet normal 0 0 1
    outer loop
      vertex -8 13.8564 25
      vertex -8 -13.8564 25
      vertex -6.12293 -14.7821 25
    endloop
  endfacet
  facet normal -0 0 1
    outer loop
      vertex -9.74018 12.6937 25
      vertex -8 -13.8564 25
      vertex -8 13.8564 25
    endloop
  endfacet
  facet normal 0 0 1
    outer loop
      vertex -9.74018 12.6937 25
      vertex -9.74018 -12.6937 25
      vertex -8 -13.8564 25
    endloop
  endfacet
  facet normal -0 0 1
    outer loop
      vertex -11.3137 11.3137 25
      vertex -9.74018 -12.6937 25
      vertex -9.74018 12.6937 25
    endloop
  endfacet
  facet normal 0 0 1
    outer loop
      vertex -11.3137 11.3137 25
      vertex -11.3137 -11.3137 25
      vertex -9.74018 -12.6937 25
    endloop
  endfacet
  facet normal -0 0 1
    outer loop
      vertex -12.6937 9.74018 25
      vertex -11.3137 -11.3137 25
      vertex -11.3137 11.3137 25
    endloop
  endfacet
  facet normal 0 0 1
    outer loop
      vertex -12.6937 9.74018 25
      vertex -12.6937 -9.74018 25
      vertex -11.3137 -11.3137 25
    endloop
  endfacet
  facet normal -0 0 1
    outer loop
      vertex -13.8564 8 25
      vertex -12.6937 -9.74018 25
      vertex -12.6937 9.74018 25
    endloop
  endfacet
  facet normal 0 0 1
    outer loop
      vertex -13.8564 8 25
      vertex -13.8564 -8 25
      vertex -12.6937 -9.74018 25
    endloop
  endfacet
  facet normal -0 0 1
    outer loop
      vertex -14.7821 6.12293 25
      vertex -13.8564 -8 25
      vertex -13.8564 8 25
    endloop
  endfacet
  facet normal 0 0 1
    outer loop
      vertex -14.7821 6.12293 25
      vertex -14.7821 -6.12293 25
      vertex -13.8564 -8 25
    endloop
  endfacet
  facet normal -0 0 1
    outer loop
      vertex -15.4548 4.1411 25
      vertex -14.7821 -6.12293 25
      vertex -14.7821 6.12293 25
    endloop
  endfacet
  facet normal 0 0 1
    outer loop
      vertex -15.4548 4.1411 25
      vertex -15.4548 -4.1411 25
      vertex -14.7821 -6.12293 25
    endloop
  endfacet
  facet normal -0 0 1
    outer loop
      vertex -15.8631 2.08842 25
      vertex -15.4548 -4.1411 25
      vertex -15.4548 4.1411 25
    endloop
  endfacet
  facet normal 0 0 1
    outer loop
      vertex -15.8631 2.08842 25
      vertex -15.8631 -2.08842 25
      vertex -15.4548 -4.1411 25
    endloop
  endfacet
  facet normal 0 -0 1
    outer loop
      vertex -15.8631 -2.08842 25
      vertex -15.8631 2.08842 25
      vertex -16 -0 25
    endloop
  endfacet
endsolid OpenSCAD_Model
