solid OpenSCAD_Model
  facet normal 1 -0 0
    outer loop
      vertex 45 -85 1.5
      vertex 45 85 -1.5
      vertex 45 85 1.5
    endloop
  endfacet
  facet normal 1 0 0
    outer loop
      vertex 45 85 -1.5
      vertex 45 -85 1.5
      vertex 45 -85 -1.5
    endloop
  endfacet
  facet normal -0 0 1
    outer loop
      vertex -17.25 64.5189 1.5
      vertex 34.9393 1.06066 1.5
      vertex -17.0869 64.6279 1.5
    endloop
  endfacet
  facet normal 0 0 1
    outer loop
      vertex 34.5 0 1.5
      vertex -16.5128 -65.6221 1.5
      vertex -16.5 -65.8179 1.5
    endloop
  endfacet
  facet normal 0 0 1
    outer loop
      vertex 34.9393 1.06066 1.5
      vertex -17.25 64.5189 1.5
      vertex 34.81 0.913141 1.5
    endloop
  endfacet
  facet normal 0 0 1
    outer loop
      vertex 34.5 0 1.5
      vertex -16.5511 -65.4297 1.5
      vertex -16.5128 -65.6221 1.5
    endloop
  endfacet
  facet normal -0 0 1
    outer loop
      vertex -17.426 64.4321 1.5
      vertex 34.81 0.913141 1.5
      vertex -17.25 64.5189 1.5
    endloop
  endfacet
  facet normal 0 0 1
    outer loop
      vertex 34.5 0 1.5
      vertex -16.6142 -65.2439 1.5
      vertex -16.5511 -65.4297 1.5
    endloop
  endfacet
  facet normal 0 0 1
    outer loop
      vertex 34.81 0.913141 1.5
      vertex -17.426 64.4321 1.5
      vertex 34.701 0.75 1.5
    endloop
  endfacet
  facet normal 0 0 1
    outer loop
      vertex 34.5 0 1.5
      vertex -16.701 -65.0679 1.5
      vertex -16.6142 -65.2439 1.5
    endloop
  endfacet
  facet normal -0 0 1
    outer loop
      vertex -17.6118 64.369 1.5
      vertex 34.701 0.75 1.5
      vertex -17.426 64.4321 1.5
    endloop
  endfacet
  facet normal 0 0 1
    outer loop
      vertex 34.5 0 1.5
      vertex -16.81 -64.9048 1.5
      vertex -16.701 -65.0679 1.5
    endloop
  endfacet
  facet normal 0 0 1
    outer loop
      vertex 34.701 0.75 1.5
      vertex -17.6118 64.369 1.5
      vertex 34.6142 0.574024 1.5
    endloop
  endfacet
  facet normal 0 0 1
    outer loop
      vertex 34.5 0 1.5
      vertex -16.9393 -64.7573 1.5
      vertex -16.81 -64.9048 1.5
    endloop
  endfacet
  facet normal -0 0 1
    outer loop
      vertex -17.8042 64.3308 1.5
      vertex 34.6142 0.574024 1.5
      vertex -17.6118 64.369 1.5
    endloop
  endfacet
  facet normal 0 0 1
    outer loop
      vertex 34.5 0 1.5
      vertex -17.0869 -64.6279 1.5
      vertex -16.9393 -64.7573 1.5
    endloop
  endfacet
  facet normal 0 0 1
    outer loop
      vertex 34.6142 0.574024 1.5
      vertex -17.8042 64.3308 1.5
      vertex 34.5511 0.388228 1.5
    endloop
  endfacet
  facet normal 0 0 1
    outer loop
      vertex 34.5 0 1.5
      vertex -17.25 -64.5189 1.5
      vertex -17.0869 -64.6279 1.5
    endloop
  endfacet
  facet normal -0 0 1
    outer loop
      vertex -18 64.3179 1.5
      vertex 34.5511 0.388228 1.5
      vertex -17.8042 64.3308 1.5
    endloop
  endfacet
  facet normal 0 0 1
    outer loop
      vertex 34.5 0 1.5
      vertex -17.426 -64.4321 1.5
      vertex -17.25 -64.5189 1.5
    endloop
  endfacet
  facet normal 0 0 1
    outer loop
      vertex 34.5511 0.388228 1.5
      vertex -18 64.3179 1.5
      vertex 34.5128 0.195788 1.5
    endloop
  endfacet
  facet normal 0 0 1
    outer loop
      vertex 34.5 0 1.5
      vertex -17.6118 -64.369 1.5
      vertex -17.426 -64.4321 1.5
    endloop
  endfacet
  facet normal 0 0 1
    outer loop
      vertex -18.1958 64.3308 1.5
      vertex 34.5128 0.195788 1.5
      vertex -18 64.3179 1.5
    endloop
  endfacet
  facet normal 0 0 1
    outer loop
      vertex 34.5 0 1.5
      vertex -17.8042 -64.3308 1.5
      vertex -17.6118 -64.369 1.5
    endloop
  endfacet
  facet normal 0 0 1
    outer loop
      vertex 34.5128 0.195788 1.5
      vertex -18.1958 64.3308 1.5
      vertex 34.5 0 1.5
    endloop
  endfacet
  facet normal 0 0 1
    outer loop
      vertex 34.5 0 1.5
      vertex -18 -64.3179 1.5
      vertex -17.8042 -64.3308 1.5
    endloop
  endfacet
  facet normal 0 0 1
    outer loop
      vertex -18.1958 -64.3308 1.5
      vertex 34.5 0 1.5
      vertex -18.1958 64.3308 1.5
    endloop
  endfacet
  facet normal 0 0 1
    outer loop
      vertex 34.5 0 1.5
      vertex -18.1958 -64.3308 1.5
      vertex -18 -64.3179 1.5
    endloop
  endfacet
  facet normal 0 0 1
    outer loop
      vertex -18.3882 64.369 1.5
      vertex -18.1958 -64.3308 1.5
      vertex -18.1958 64.3308 1.5
    endloop
  endfacet
  facet normal 0 0 1
    outer loop
      vertex -18.3882 64.369 1.5
      vertex -18.3882 -64.369 1.5
      vertex -18.1958 -64.3308 1.5
    endloop
  endfacet
  facet normal 0 0 1
    outer loop
      vertex -18.574 64.4321 1.5
      vertex -18.3882 -64.369 1.5
      vertex -18.3882 64.369 1.5
    endloop
  endfacet
  facet normal 0 0 1
    outer loop
      vertex -18.574 64.4321 1.5
      vertex -18.574 -64.4321 1.5
      vertex -18.3882 -64.369 1.5
    endloop
  endfacet
  facet normal 0 0 1
    outer loop
      vertex -18.75 64.5189 1.5
      vertex -18.574 -64.4321 1.5
      vertex -18.574 64.4321 1.5
    endloop
  endfacet
  facet normal 0 0 1
    outer loop
      vertex -18.75 64.5189 1.5
      vertex -18.75 -64.5189 1.5
      vertex -18.574 -64.4321 1.5
    endloop
  endfacet
  facet normal 0 0 1
    outer loop
      vertex -18.9131 64.6279 1.5
      vertex -18.75 -64.5189 1.5
      vertex -18.75 64.5189 1.5
    endloop
  endfacet
  facet normal 0 0 1
    outer loop
      vertex -18.9131 64.6279 1.5
      vertex -18.9131 -64.6279 1.5
      vertex -18.75 -64.5189 1.5
    endloop
  endfacet
  facet normal 0 0 1
    outer loop
      vertex -19.0607 64.7573 1.5
      vertex -18.9131 -64.6279 1.5
      vertex -18.9131 64.6279 1.5
    endloop
  endfacet
  facet normal 0 0 1
    outer loop
      vertex -19.0607 64.7573 1.5
      vertex -19.0607 -64.7573 1.5
      vertex -18.9131 -64.6279 1.5
    endloop
  endfacet
  facet normal 0 0 1
    outer loop
      vertex -45 85 1.5
      vertex -19.0607 64.7573 1.5
      vertex -19.19 64.9048 1.5
    endloop
  endfacet
  facet normal 0 0 1
    outer loop
      vertex -19.0607 64.7573 1.5
      vertex -45 85 1.5
      vertex -19.0607 -64.7573 1.5
    endloop
  endfacet
  facet normal 0 0 1
    outer loop
      vertex -45 85 1.5
      vertex -19.19 64.9048 1.5
      vertex -19.299 65.0679 1.5
    endloop
  endfacet
  facet normal 0 0 1
    outer loop
      vertex -45 -85 1.5
      vertex -19.0607 -64.7573 1.5
      vertex -45 85 1.5
    endloop
  endfacet
  facet normal 0 0 1
    outer loop
      vertex -45 85 1.5
      vertex -19.299 65.0679 1.5
      vertex -19.3858 65.2439 1.5
    endloop
  endfacet
  facet normal 0 0 1
    outer loop
      vertex -19.0607 -64.7573 1.5
      vertex -45 -85 1.5
      vertex -19.19 -64.9048 1.5
    endloop
  endfacet
  facet normal 0 0 1
    outer loop
      vertex -45 85 1.5
      vertex -19.3858 65.2439 1.5
      vertex -19.4489 65.4297 1.5
    endloop
  endfacet
  facet normal 0 0 1
    outer loop
      vertex -19.19 -64.9048 1.5
      vertex -45 -85 1.5
      vertex -19.299 -65.0679 1.5
    endloop
  endfacet
  facet normal 0 0 1
    outer loop
      vertex -45 85 1.5
      vertex -19.4489 65.4297 1.5
      vertex -19.4872 65.6221 1.5
    endloop
  endfacet
  facet normal 0 0 1
    outer loop
      vertex -19.299 -65.0679 1.5
      vertex -45 -85 1.5
      vertex -19.3858 -65.2439 1.5
    endloop
  endfacet
  facet normal 0 0 1
    outer loop
      vertex -45 85 1.5
      vertex -19.4872 65.6221 1.5
      vertex -19.5 65.8179 1.5
    endloop
  endfacet
  facet normal 0 0 1
    outer loop
      vertex -19.3858 -65.2439 1.5
      vertex -45 -85 1.5
      vertex -19.4489 -65.4297 1.5
    endloop
  endfacet
  facet normal 0 0 1
    outer loop
      vertex 45 85 1.5
      vertex 37.5 0 1.5
      vertex 45 -85 1.5
    endloop
  endfacet
  facet normal 0 0 1
    outer loop
      vertex 45 85 1.5
      vertex 37.4872 0.195788 1.5
      vertex 37.5 0 1.5
    endloop
  endfacet
  facet normal 0 0 1
    outer loop
      vertex 45 85 1.5
      vertex 37.4489 0.388228 1.5
      vertex 37.4872 0.195788 1.5
    endloop
  endfacet
  facet normal 0 0 1
    outer loop
      vertex 45 85 1.5
      vertex 37.3858 0.574024 1.5
      vertex 37.4489 0.388228 1.5
    endloop
  endfacet
  facet normal 0 0 1
    outer loop
      vertex 45 85 1.5
      vertex 37.299 0.75 1.5
      vertex 37.3858 0.574024 1.5
    endloop
  endfacet
  facet normal 0 0 1
    outer loop
      vertex 45 85 1.5
      vertex 37.19 0.913141 1.5
      vertex 37.299 0.75 1.5
    endloop
  endfacet
  facet normal 0 0 1
    outer loop
      vertex 45 85 1.5
      vertex 37.0607 1.06066 1.5
      vertex 37.19 0.913141 1.5
    endloop
  endfacet
  facet normal 0 0 1
    outer loop
      vertex 45 85 1.5
      vertex 36.9131 1.19003 1.5
      vertex 37.0607 1.06066 1.5
    endloop
  endfacet
  facet normal 0 0 1
    outer loop
      vertex 45 85 1.5
      vertex 36.75 1.29904 1.5
      vertex 36.9131 1.19003 1.5
    endloop
  endfacet
  facet normal 0 0 1
    outer loop
      vertex 45 85 1.5
      vertex 36.574 1.38582 1.5
      vertex 36.75 1.29904 1.5
    endloop
  endfacet
  facet normal 0 0 1
    outer loop
      vertex 45 85 1.5
      vertex 36.3882 1.44889 1.5
      vertex 36.574 1.38582 1.5
    endloop
  endfacet
  facet normal 0 0 1
    outer loop
      vertex 45 85 1.5
      vertex 36.1958 1.48717 1.5
      vertex 36.3882 1.44889 1.5
    endloop
  endfacet
  facet normal 0 0 1
    outer loop
      vertex 45 85 1.5
      vertex 36 1.5 1.5
      vertex 36.1958 1.48717 1.5
    endloop
  endfacet
  facet normal 0 0 1
    outer loop
      vertex 45 85 1.5
      vertex 35.8042 1.48717 1.5
      vertex 36 1.5 1.5
    endloop
  endfacet
  facet normal 0 0 1
    outer loop
      vertex 45 85 1.5
      vertex 35.6118 1.44889 1.5
      vertex 35.8042 1.48717 1.5
    endloop
  endfacet
  facet normal 0 0 1
    outer loop
      vertex -16.5128 65.6221 1.5
      vertex 45 85 1.5
      vertex -16.5 65.8179 1.5
    endloop
  endfacet
  facet normal 0 0 1
    outer loop
      vertex -16.5511 65.4297 1.5
      vertex 45 85 1.5
      vertex -16.5128 65.6221 1.5
    endloop
  endfacet
  facet normal 0 0 1
    outer loop
      vertex -16.6142 65.2439 1.5
      vertex 45 85 1.5
      vertex -16.5511 65.4297 1.5
    endloop
  endfacet
  facet normal 0 0 1
    outer loop
      vertex 45 85 1.5
      vertex -16.6142 65.2439 1.5
      vertex 35.6118 1.44889 1.5
    endloop
  endfacet
  facet normal -0 0 1
    outer loop
      vertex -16.701 65.0679 1.5
      vertex 35.6118 1.44889 1.5
      vertex -16.6142 65.2439 1.5
    endloop
  endfacet
  facet normal 0 0 1
    outer loop
      vertex 35.6118 1.44889 1.5
      vertex -16.701 65.0679 1.5
      vertex 35.426 1.38582 1.5
    endloop
  endfacet
  facet normal -0 0 1
    outer loop
      vertex -16.81 64.9048 1.5
      vertex 35.426 1.38582 1.5
      vertex -16.701 65.0679 1.5
    endloop
  endfacet
  facet normal 0 0 1
    outer loop
      vertex 35.426 1.38582 1.5
      vertex -16.81 64.9048 1.5
      vertex 35.25 1.29904 1.5
    endloop
  endfacet
  facet normal -0 0 1
    outer loop
      vertex -16.9393 64.7573 1.5
      vertex 35.25 1.29904 1.5
      vertex -16.81 64.9048 1.5
    endloop
  endfacet
  facet normal -0 0 1
    outer loop
      vertex -17.0869 64.6279 1.5
      vertex 35.0869 1.19003 1.5
      vertex -16.9393 64.7573 1.5
    endloop
  endfacet
  facet normal 0 0 1
    outer loop
      vertex 35.25 1.29904 1.5
      vertex -16.9393 64.7573 1.5
      vertex 35.0869 1.19003 1.5
    endloop
  endfacet
  facet normal 0 0 1
    outer loop
      vertex 45 85 1.5
      vertex -16.5128 66.0137 1.5
      vertex -16.5 65.8179 1.5
    endloop
  endfacet
  facet normal 0 0 1
    outer loop
      vertex 45 85 1.5
      vertex -16.5511 66.2062 1.5
      vertex -16.5128 66.0137 1.5
    endloop
  endfacet
  facet normal 0 0 1
    outer loop
      vertex 45 85 1.5
      vertex -16.6142 66.392 1.5
      vertex -16.5511 66.2062 1.5
    endloop
  endfacet
  facet normal 0 0 1
    outer loop
      vertex 45 85 1.5
      vertex -16.701 66.5679 1.5
      vertex -16.6142 66.392 1.5
    endloop
  endfacet
  facet normal 0 0 1
    outer loop
      vertex 45 85 1.5
      vertex -16.81 66.7311 1.5
      vertex -16.701 66.5679 1.5
    endloop
  endfacet
  facet normal 0 0 1
    outer loop
      vertex 45 85 1.5
      vertex -16.9393 66.8786 1.5
      vertex -16.81 66.7311 1.5
    endloop
  endfacet
  facet normal 0 0 1
    outer loop
      vertex 45 85 1.5
      vertex -17.0869 67.008 1.5
      vertex -16.9393 66.8786 1.5
    endloop
  endfacet
  facet normal 0 0 1
    outer loop
      vertex 45 85 1.5
      vertex -17.25 67.117 1.5
      vertex -17.0869 67.008 1.5
    endloop
  endfacet
  facet normal 0 0 1
    outer loop
      vertex 45 85 1.5
      vertex -17.426 67.2038 1.5
      vertex -17.25 67.117 1.5
    endloop
  endfacet
  facet normal 0 0 1
    outer loop
      vertex 45 85 1.5
      vertex -17.6118 67.2668 1.5
      vertex -17.426 67.2038 1.5
    endloop
  endfacet
  facet normal -0 0 1
    outer loop
      vertex -45 85 1.5
      vertex -17.6118 67.2668 1.5
      vertex 45 85 1.5
    endloop
  endfacet
  facet normal 0 0 1
    outer loop
      vertex -17.6118 67.2668 1.5
      vertex -45 85 1.5
      vertex -17.8042 67.3051 1.5
    endloop
  endfacet
  facet normal 0 0 1
    outer loop
      vertex -17.8042 67.3051 1.5
      vertex -45 85 1.5
      vertex -18 67.3179 1.5
    endloop
  endfacet
  facet normal 0 0 1
    outer loop
      vertex -18 67.3179 1.5
      vertex -45 85 1.5
      vertex -18.1958 67.3051 1.5
    endloop
  endfacet
  facet normal 0 0 1
    outer loop
      vertex -19.4489 -65.4297 1.5
      vertex -45 -85 1.5
      vertex -19.4872 -65.6221 1.5
    endloop
  endfacet
  facet normal 0 0 1
    outer loop
      vertex -19.4872 66.0137 1.5
      vertex -45 85 1.5
      vertex -19.5 65.8179 1.5
    endloop
  endfacet
  facet normal 0 0 1
    outer loop
      vertex -19.4489 66.2062 1.5
      vertex -45 85 1.5
      vertex -19.4872 66.0137 1.5
    endloop
  endfacet
  facet normal 0 0 1
    outer loop
      vertex -19.3858 66.392 1.5
      vertex -45 85 1.5
      vertex -19.4489 66.2062 1.5
    endloop
  endfacet
  facet normal 0 0 1
    outer loop
      vertex -19.299 66.5679 1.5
      vertex -45 85 1.5
      vertex -19.3858 66.392 1.5
    endloop
  endfacet
  facet normal 0 0 1
    outer loop
      vertex -19.19 66.7311 1.5
      vertex -45 85 1.5
      vertex -19.299 66.5679 1.5
    endloop
  endfacet
  facet normal 0 0 1
    outer loop
      vertex -19.0607 66.8786 1.5
      vertex -45 85 1.5
      vertex -19.19 66.7311 1.5
    endloop
  endfacet
  facet normal 0 0 1
    outer loop
      vertex -18.9131 67.008 1.5
      vertex -45 85 1.5
      vertex -19.0607 66.8786 1.5
    endloop
  endfacet
  facet normal 0 0 1
    outer loop
      vertex -18.75 67.117 1.5
      vertex -45 85 1.5
      vertex -18.9131 67.008 1.5
    endloop
  endfacet
  facet normal 0 0 1
    outer loop
      vertex -18.574 67.2038 1.5
      vertex -45 85 1.5
      vertex -18.75 67.117 1.5
    endloop
  endfacet
  facet normal 0 0 1
    outer loop
      vertex -18.3882 67.2668 1.5
      vertex -45 85 1.5
      vertex -18.574 67.2038 1.5
    endloop
  endfacet
  facet normal 0 0 1
    outer loop
      vertex -18.1958 67.3051 1.5
      vertex -45 85 1.5
      vertex -18.3882 67.2668 1.5
    endloop
  endfacet
  facet normal -0 0 1
    outer loop
      vertex 37.4872 -0.195788 1.5
      vertex 45 -85 1.5
      vertex 37.5 0 1.5
    endloop
  endfacet
  facet normal -0 0 1
    outer loop
      vertex 37.4489 -0.388228 1.5
      vertex 45 -85 1.5
      vertex 37.4872 -0.195788 1.5
    endloop
  endfacet
  facet normal -0 0 1
    outer loop
      vertex 37.3858 -0.574024 1.5
      vertex 45 -85 1.5
      vertex 37.4489 -0.388228 1.5
    endloop
  endfacet
  facet normal -0 0 1
    outer loop
      vertex 37.299 -0.75 1.5
      vertex 45 -85 1.5
      vertex 37.3858 -0.574024 1.5
    endloop
  endfacet
  facet normal -0 0 1
    outer loop
      vertex 37.19 -0.913141 1.5
      vertex 45 -85 1.5
      vertex 37.299 -0.75 1.5
    endloop
  endfacet
  facet normal -0 0 1
    outer loop
      vertex 37.0607 -1.06066 1.5
      vertex 45 -85 1.5
      vertex 37.19 -0.913141 1.5
    endloop
  endfacet
  facet normal -0 0 1
    outer loop
      vertex 36.9131 -1.19003 1.5
      vertex 45 -85 1.5
      vertex 37.0607 -1.06066 1.5
    endloop
  endfacet
  facet normal -0 0 1
    outer loop
      vertex 36.75 -1.29904 1.5
      vertex 45 -85 1.5
      vertex 36.9131 -1.19003 1.5
    endloop
  endfacet
  facet normal -0 0 1
    outer loop
      vertex 36.574 -1.38582 1.5
      vertex 45 -85 1.5
      vertex 36.75 -1.29904 1.5
    endloop
  endfacet
  facet normal -0 0 1
    outer loop
      vertex 36.3882 -1.44889 1.5
      vertex 45 -85 1.5
      vertex 36.574 -1.38582 1.5
    endloop
  endfacet
  facet normal -0 0 1
    outer loop
      vertex 36.1958 -1.48717 1.5
      vertex 45 -85 1.5
      vertex 36.3882 -1.44889 1.5
    endloop
  endfacet
  facet normal -0 0 1
    outer loop
      vertex 36 -1.5 1.5
      vertex 45 -85 1.5
      vertex 36.1958 -1.48717 1.5
    endloop
  endfacet
  facet normal 0 0 1
    outer loop
      vertex 35.8042 -1.48717 1.5
      vertex 45 -85 1.5
      vertex 36 -1.5 1.5
    endloop
  endfacet
  facet normal 0 0 1
    outer loop
      vertex 35.6118 -1.44889 1.5
      vertex 45 -85 1.5
      vertex 35.8042 -1.48717 1.5
    endloop
  endfacet
  facet normal 0 0 1
    outer loop
      vertex -16.5 -65.8179 1.5
      vertex 35.6118 -1.44889 1.5
      vertex 35.426 -1.38582 1.5
    endloop
  endfacet
  facet normal 0 0 1
    outer loop
      vertex -16.5 -65.8179 1.5
      vertex 35.426 -1.38582 1.5
      vertex 35.25 -1.29904 1.5
    endloop
  endfacet
  facet normal 0 0 1
    outer loop
      vertex -16.5 -65.8179 1.5
      vertex 35.25 -1.29904 1.5
      vertex 35.0869 -1.19003 1.5
    endloop
  endfacet
  facet normal 0 0 1
    outer loop
      vertex -16.5 -65.8179 1.5
      vertex 35.0869 -1.19003 1.5
      vertex 34.9393 -1.06066 1.5
    endloop
  endfacet
  facet normal 0 0 1
    outer loop
      vertex -16.5 -65.8179 1.5
      vertex 34.9393 -1.06066 1.5
      vertex 34.81 -0.913141 1.5
    endloop
  endfacet
  facet normal 0 0 1
    outer loop
      vertex -16.5 -65.8179 1.5
      vertex 34.81 -0.913141 1.5
      vertex 34.701 -0.75 1.5
    endloop
  endfacet
  facet normal 0 0 1
    outer loop
      vertex -16.5 -65.8179 1.5
      vertex 34.701 -0.75 1.5
      vertex 34.6142 -0.574024 1.5
    endloop
  endfacet
  facet normal 0 0 1
    outer loop
      vertex -16.5 -65.8179 1.5
      vertex 34.6142 -0.574024 1.5
      vertex 34.5511 -0.388228 1.5
    endloop
  endfacet
  facet normal 0 0 1
    outer loop
      vertex -16.5 -65.8179 1.5
      vertex 34.5511 -0.388228 1.5
      vertex 34.5128 -0.195788 1.5
    endloop
  endfacet
  facet normal 0 0 1
    outer loop
      vertex 35.0869 1.19003 1.5
      vertex -17.0869 64.6279 1.5
      vertex 34.9393 1.06066 1.5
    endloop
  endfacet
  facet normal 0 0 1
    outer loop
      vertex 34.5 0 1.5
      vertex -16.5 -65.8179 1.5
      vertex 34.5128 -0.195788 1.5
    endloop
  endfacet
  facet normal 0 0 1
    outer loop
      vertex 35.6118 -1.44889 1.5
      vertex -16.5 -65.8179 1.5
      vertex 45 -85 1.5
    endloop
  endfacet
  facet normal -0 0 1
    outer loop
      vertex -16.5128 -66.0137 1.5
      vertex 45 -85 1.5
      vertex -16.5 -65.8179 1.5
    endloop
  endfacet
  facet normal -0 0 1
    outer loop
      vertex -16.5511 -66.2062 1.5
      vertex 45 -85 1.5
      vertex -16.5128 -66.0137 1.5
    endloop
  endfacet
  facet normal -0 0 1
    outer loop
      vertex -16.6142 -66.392 1.5
      vertex 45 -85 1.5
      vertex -16.5511 -66.2062 1.5
    endloop
  endfacet
  facet normal -0 0 1
    outer loop
      vertex -16.701 -66.5679 1.5
      vertex 45 -85 1.5
      vertex -16.6142 -66.392 1.5
    endloop
  endfacet
  facet normal -0 0 1
    outer loop
      vertex -16.81 -66.7311 1.5
      vertex 45 -85 1.5
      vertex -16.701 -66.5679 1.5
    endloop
  endfacet
  facet normal -0 0 1
    outer loop
      vertex -16.9393 -66.8786 1.5
      vertex 45 -85 1.5
      vertex -16.81 -66.7311 1.5
    endloop
  endfacet
  facet normal -0 0 1
    outer loop
      vertex -17.0869 -67.008 1.5
      vertex 45 -85 1.5
      vertex -16.9393 -66.8786 1.5
    endloop
  endfacet
  facet normal -0 0 1
    outer loop
      vertex -17.25 -67.117 1.5
      vertex 45 -85 1.5
      vertex -17.0869 -67.008 1.5
    endloop
  endfacet
  facet normal -0 0 1
    outer loop
      vertex -17.426 -67.2038 1.5
      vertex 45 -85 1.5
      vertex -17.25 -67.117 1.5
    endloop
  endfacet
  facet normal -0 0 1
    outer loop
      vertex -17.6118 -67.2668 1.5
      vertex 45 -85 1.5
      vertex -17.426 -67.2038 1.5
    endloop
  endfacet
  facet normal 0 0 1
    outer loop
      vertex -45 -85 1.5
      vertex -17.6118 -67.2668 1.5
      vertex -17.8042 -67.3051 1.5
    endloop
  endfacet
  facet normal 0 0 1
    outer loop
      vertex -45 -85 1.5
      vertex -17.8042 -67.3051 1.5
      vertex -18 -67.3179 1.5
    endloop
  endfacet
  facet normal 0 0 1
    outer loop
      vertex -45 -85 1.5
      vertex -18 -67.3179 1.5
      vertex -18.1958 -67.3051 1.5
    endloop
  endfacet
  facet normal 0 0 1
    outer loop
      vertex -45 -85 1.5
      vertex -18.1958 -67.3051 1.5
      vertex -18.3882 -67.2668 1.5
    endloop
  endfacet
  facet normal 0 0 1
    outer loop
      vertex -19.4872 -65.6221 1.5
      vertex -45 -85 1.5
      vertex -19.5 -65.8179 1.5
    endloop
  endfacet
  facet normal 0 0 1
    outer loop
      vertex -17.6118 -67.2668 1.5
      vertex -45 -85 1.5
      vertex 45 -85 1.5
    endloop
  endfacet
  facet normal 0 0 1
    outer loop
      vertex -18.574 -67.2038 1.5
      vertex -45 -85 1.5
      vertex -18.3882 -67.2668 1.5
    endloop
  endfacet
  facet normal 0 0 1
    outer loop
      vertex -18.75 -67.117 1.5
      vertex -45 -85 1.5
      vertex -18.574 -67.2038 1.5
    endloop
  endfacet
  facet normal 0 0 1
    outer loop
      vertex -18.9131 -67.008 1.5
      vertex -45 -85 1.5
      vertex -18.75 -67.117 1.5
    endloop
  endfacet
  facet normal 0 0 1
    outer loop
      vertex -19.0607 -66.8786 1.5
      vertex -45 -85 1.5
      vertex -18.9131 -67.008 1.5
    endloop
  endfacet
  facet normal 0 0 1
    outer loop
      vertex -19.19 -66.7311 1.5
      vertex -45 -85 1.5
      vertex -19.0607 -66.8786 1.5
    endloop
  endfacet
  facet normal 0 0 1
    outer loop
      vertex -19.299 -66.5679 1.5
      vertex -45 -85 1.5
      vertex -19.19 -66.7311 1.5
    endloop
  endfacet
  facet normal 0 0 1
    outer loop
      vertex -19.3858 -66.392 1.5
      vertex -45 -85 1.5
      vertex -19.299 -66.5679 1.5
    endloop
  endfacet
  facet normal 0 0 1
    outer loop
      vertex -19.4489 -66.2062 1.5
      vertex -45 -85 1.5
      vertex -19.3858 -66.392 1.5
    endloop
  endfacet
  facet normal 0 0 1
    outer loop
      vertex -19.4872 -66.0137 1.5
      vertex -45 -85 1.5
      vertex -19.4489 -66.2062 1.5
    endloop
  endfacet
  facet normal 0 0 1
    outer loop
      vertex -19.5 -65.8179 1.5
      vertex -45 -85 1.5
      vertex -19.4872 -66.0137 1.5
    endloop
  endfacet
  facet normal 0 0 -1
    outer loop
      vertex -17.25 -64.5189 -1.5
      vertex 34.9393 -1.06066 -1.5
      vertex -17.0869 -64.6279 -1.5
    endloop
  endfacet
  facet normal 0 0 -1
    outer loop
      vertex 34.5 0 -1.5
      vertex -16.5128 65.6221 -1.5
      vertex -16.5 65.8179 -1.5
    endloop
  endfacet
  facet normal -0 0 -1
    outer loop
      vertex 34.9393 -1.06066 -1.5
      vertex -17.25 -64.5189 -1.5
      vertex 34.81 -0.913141 -1.5
    endloop
  endfacet
  facet normal 0 0 -1
    outer loop
      vertex 34.5 0 -1.5
      vertex -16.5511 65.4297 -1.5
      vertex -16.5128 65.6221 -1.5
    endloop
  endfacet
  facet normal 0 0 -1
    outer loop
      vertex -17.426 -64.4321 -1.5
      vertex 34.81 -0.913141 -1.5
      vertex -17.25 -64.5189 -1.5
    endloop
  endfacet
  facet normal 0 0 -1
    outer loop
      vertex 34.5 0 -1.5
      vertex -16.6142 65.2439 -1.5
      vertex -16.5511 65.4297 -1.5
    endloop
  endfacet
  facet normal -0 0 -1
    outer loop
      vertex 34.81 -0.913141 -1.5
      vertex -17.426 -64.4321 -1.5
      vertex 34.701 -0.75 -1.5
    endloop
  endfacet
  facet normal 0 0 -1
    outer loop
      vertex 34.5 0 -1.5
      vertex -16.701 65.0679 -1.5
      vertex -16.6142 65.2439 -1.5
    endloop
  endfacet
  facet normal 0 0 -1
    outer loop
      vertex -17.6118 -64.369 -1.5
      vertex 34.701 -0.75 -1.5
      vertex -17.426 -64.4321 -1.5
    endloop
  endfacet
  facet normal 0 0 -1
    outer loop
      vertex 34.5 0 -1.5
      vertex -16.81 64.9048 -1.5
      vertex -16.701 65.0679 -1.5
    endloop
  endfacet
  facet normal -0 0 -1
    outer loop
      vertex 34.701 -0.75 -1.5
      vertex -17.6118 -64.369 -1.5
      vertex 34.6142 -0.574024 -1.5
    endloop
  endfacet
  facet normal 0 0 -1
    outer loop
      vertex 34.5 0 -1.5
      vertex -16.9393 64.7573 -1.5
      vertex -16.81 64.9048 -1.5
    endloop
  endfacet
  facet normal 0 0 -1
    outer loop
      vertex -17.8042 -64.3308 -1.5
      vertex 34.6142 -0.574024 -1.5
      vertex -17.6118 -64.369 -1.5
    endloop
  endfacet
  facet normal 0 0 -1
    outer loop
      vertex 34.5 0 -1.5
      vertex -17.0869 64.6279 -1.5
      vertex -16.9393 64.7573 -1.5
    endloop
  endfacet
  facet normal -0 0 -1
    outer loop
      vertex 34.6142 -0.574024 -1.5
      vertex -17.8042 -64.3308 -1.5
      vertex 34.5511 -0.388228 -1.5
    endloop
  endfacet
  facet normal 0 0 -1
    outer loop
      vertex 34.5 0 -1.5
      vertex -17.25 64.5189 -1.5
      vertex -17.0869 64.6279 -1.5
    endloop
  endfacet
  facet normal 0 0 -1
    outer loop
      vertex -18 -64.3179 -1.5
      vertex 34.5511 -0.388228 -1.5
      vertex -17.8042 -64.3308 -1.5
    endloop
  endfacet
  facet normal 0 0 -1
    outer loop
      vertex 34.5 0 -1.5
      vertex -17.426 64.4321 -1.5
      vertex -17.25 64.5189 -1.5
    endloop
  endfacet
  facet normal -0 0 -1
    outer loop
      vertex 34.5511 -0.388228 -1.5
      vertex -18 -64.3179 -1.5
      vertex 34.5128 -0.195788 -1.5
    endloop
  endfacet
  facet normal 0 0 -1
    outer loop
      vertex 34.5 0 -1.5
      vertex -17.6118 64.369 -1.5
      vertex -17.426 64.4321 -1.5
    endloop
  endfacet
  facet normal 0 0 -1
    outer loop
      vertex -18.1958 -64.3308 -1.5
      vertex 34.5128 -0.195788 -1.5
      vertex -18 -64.3179 -1.5
    endloop
  endfacet
  facet normal 0 0 -1
    outer loop
      vertex 34.5 0 -1.5
      vertex -17.8042 64.3308 -1.5
      vertex -17.6118 64.369 -1.5
    endloop
  endfacet
  facet normal -0 0 -1
    outer loop
      vertex 34.5128 -0.195788 -1.5
      vertex -18.1958 -64.3308 -1.5
      vertex 34.5 0 -1.5
    endloop
  endfacet
  facet normal 0 0 -1
    outer loop
      vertex 34.5 0 -1.5
      vertex -18 64.3179 -1.5
      vertex -17.8042 64.3308 -1.5
    endloop
  endfacet
  facet normal 0 0 -1
    outer loop
      vertex -18.1958 64.3308 -1.5
      vertex 34.5 0 -1.5
      vertex -18.1958 -64.3308 -1.5
    endloop
  endfacet
  facet normal 0 0 -1
    outer loop
      vertex 34.5 0 -1.5
      vertex -18.1958 64.3308 -1.5
      vertex -18 64.3179 -1.5
    endloop
  endfacet
  facet normal 0 0 -1
    outer loop
      vertex -18.3882 -64.369 -1.5
      vertex -18.1958 64.3308 -1.5
      vertex -18.1958 -64.3308 -1.5
    endloop
  endfacet
  facet normal 0 0 -1
    outer loop
      vertex -18.3882 -64.369 -1.5
      vertex -18.3882 64.369 -1.5
      vertex -18.1958 64.3308 -1.5
    endloop
  endfacet
  facet normal 0 0 -1
    outer loop
      vertex -18.574 -64.4321 -1.5
      vertex -18.3882 64.369 -1.5
      vertex -18.3882 -64.369 -1.5
    endloop
  endfacet
  facet normal 0 0 -1
    outer loop
      vertex -18.574 -64.4321 -1.5
      vertex -18.574 64.4321 -1.5
      vertex -18.3882 64.369 -1.5
    endloop
  endfacet
  facet normal 0 0 -1
    outer loop
      vertex -18.75 -64.5189 -1.5
      vertex -18.574 64.4321 -1.5
      vertex -18.574 -64.4321 -1.5
    endloop
  endfacet
  facet normal 0 0 -1
    outer loop
      vertex -18.75 -64.5189 -1.5
      vertex -18.75 64.5189 -1.5
      vertex -18.574 64.4321 -1.5
    endloop
  endfacet
  facet normal 0 0 -1
    outer loop
      vertex -18.9131 -64.6279 -1.5
      vertex -18.75 64.5189 -1.5
      vertex -18.75 -64.5189 -1.5
    endloop
  endfacet
  facet normal 0 0 -1
    outer loop
      vertex -18.9131 -64.6279 -1.5
      vertex -18.9131 64.6279 -1.5
      vertex -18.75 64.5189 -1.5
    endloop
  endfacet
  facet normal 0 0 -1
    outer loop
      vertex -19.0607 -64.7573 -1.5
      vertex -18.9131 64.6279 -1.5
      vertex -18.9131 -64.6279 -1.5
    endloop
  endfacet
  facet normal 0 0 -1
    outer loop
      vertex -19.0607 -64.7573 -1.5
      vertex -19.0607 64.7573 -1.5
      vertex -18.9131 64.6279 -1.5
    endloop
  endfacet
  facet normal 0 0 -1
    outer loop
      vertex -45 -85 -1.5
      vertex -19.0607 -64.7573 -1.5
      vertex -19.19 -64.9048 -1.5
    endloop
  endfacet
  facet normal -0 0 -1
    outer loop
      vertex -19.0607 -64.7573 -1.5
      vertex -45 -85 -1.5
      vertex -19.0607 64.7573 -1.5
    endloop
  endfacet
  facet normal 0 0 -1
    outer loop
      vertex -45 -85 -1.5
      vertex -19.19 -64.9048 -1.5
      vertex -19.299 -65.0679 -1.5
    endloop
  endfacet
  facet normal 0 0 -1
    outer loop
      vertex -45 85 -1.5
      vertex -19.0607 64.7573 -1.5
      vertex -45 -85 -1.5
    endloop
  endfacet
  facet normal 0 0 -1
    outer loop
      vertex -45 -85 -1.5
      vertex -19.299 -65.0679 -1.5
      vertex -19.3858 -65.2439 -1.5
    endloop
  endfacet
  facet normal 0 0 -1
    outer loop
      vertex -19.0607 64.7573 -1.5
      vertex -45 85 -1.5
      vertex -19.19 64.9048 -1.5
    endloop
  endfacet
  facet normal 0 0 -1
    outer loop
      vertex -45 -85 -1.5
      vertex -19.3858 -65.2439 -1.5
      vertex -19.4489 -65.4297 -1.5
    endloop
  endfacet
  facet normal 0 0 -1
    outer loop
      vertex -19.19 64.9048 -1.5
      vertex -45 85 -1.5
      vertex -19.299 65.0679 -1.5
    endloop
  endfacet
  facet normal 0 0 -1
    outer loop
      vertex -45 -85 -1.5
      vertex -19.4489 -65.4297 -1.5
      vertex -19.4872 -65.6221 -1.5
    endloop
  endfacet
  facet normal 0 0 -1
    outer loop
      vertex -19.299 65.0679 -1.5
      vertex -45 85 -1.5
      vertex -19.3858 65.2439 -1.5
    endloop
  endfacet
  facet normal 0 0 -1
    outer loop
      vertex -45 -85 -1.5
      vertex -19.4872 -65.6221 -1.5
      vertex -19.5 -65.8179 -1.5
    endloop
  endfacet
  facet normal 0 0 -1
    outer loop
      vertex -19.3858 65.2439 -1.5
      vertex -45 85 -1.5
      vertex -19.4489 65.4297 -1.5
    endloop
  endfacet
  facet normal 0 0 -1
    outer loop
      vertex 45 -85 -1.5
      vertex 37.5 0 -1.5
      vertex 45 85 -1.5
    endloop
  endfacet
  facet normal 0 0 -1
    outer loop
      vertex 45 -85 -1.5
      vertex 37.4872 -0.195788 -1.5
      vertex 37.5 0 -1.5
    endloop
  endfacet
  facet normal 0 0 -1
    outer loop
      vertex 45 -85 -1.5
      vertex 37.4489 -0.388228 -1.5
      vertex 37.4872 -0.195788 -1.5
    endloop
  endfacet
  facet normal 0 0 -1
    outer loop
      vertex 45 -85 -1.5
      vertex 37.3858 -0.574024 -1.5
      vertex 37.4489 -0.388228 -1.5
    endloop
  endfacet
  facet normal 0 0 -1
    outer loop
      vertex 45 -85 -1.5
      vertex 37.299 -0.75 -1.5
      vertex 37.3858 -0.574024 -1.5
    endloop
  endfacet
  facet normal 0 0 -1
    outer loop
      vertex 45 -85 -1.5
      vertex 37.19 -0.913141 -1.5
      vertex 37.299 -0.75 -1.5
    endloop
  endfacet
  facet normal 0 0 -1
    outer loop
      vertex 45 -85 -1.5
      vertex 37.0607 -1.06066 -1.5
      vertex 37.19 -0.913141 -1.5
    endloop
  endfacet
  facet normal 0 0 -1
    outer loop
      vertex 45 -85 -1.5
      vertex 36.9131 -1.19003 -1.5
      vertex 37.0607 -1.06066 -1.5
    endloop
  endfacet
  facet normal 0 0 -1
    outer loop
      vertex 45 -85 -1.5
      vertex 36.75 -1.29904 -1.5
      vertex 36.9131 -1.19003 -1.5
    endloop
  endfacet
  facet normal 0 0 -1
    outer loop
      vertex 45 -85 -1.5
      vertex 36.574 -1.38582 -1.5
      vertex 36.75 -1.29904 -1.5
    endloop
  endfacet
  facet normal 0 0 -1
    outer loop
      vertex 45 -85 -1.5
      vertex 36.3882 -1.44889 -1.5
      vertex 36.574 -1.38582 -1.5
    endloop
  endfacet
  facet normal 0 0 -1
    outer loop
      vertex 45 -85 -1.5
      vertex 36.1958 -1.48717 -1.5
      vertex 36.3882 -1.44889 -1.5
    endloop
  endfacet
  facet normal 0 0 -1
    outer loop
      vertex 45 -85 -1.5
      vertex 36 -1.5 -1.5
      vertex 36.1958 -1.48717 -1.5
    endloop
  endfacet
  facet normal 0 0 -1
    outer loop
      vertex 45 -85 -1.5
      vertex 35.8042 -1.48717 -1.5
      vertex 36 -1.5 -1.5
    endloop
  endfacet
  facet normal 0 0 -1
    outer loop
      vertex 45 -85 -1.5
      vertex 35.6118 -1.44889 -1.5
      vertex 35.8042 -1.48717 -1.5
    endloop
  endfacet
  facet normal 0 0 -1
    outer loop
      vertex -16.5128 -65.6221 -1.5
      vertex 45 -85 -1.5
      vertex -16.5 -65.8179 -1.5
    endloop
  endfacet
  facet normal 0 0 -1
    outer loop
      vertex -16.5511 -65.4297 -1.5
      vertex 45 -85 -1.5
      vertex -16.5128 -65.6221 -1.5
    endloop
  endfacet
  facet normal 0 0 -1
    outer loop
      vertex -16.6142 -65.2439 -1.5
      vertex 45 -85 -1.5
      vertex -16.5511 -65.4297 -1.5
    endloop
  endfacet
  facet normal 0 0 -1
    outer loop
      vertex 45 -85 -1.5
      vertex -16.6142 -65.2439 -1.5
      vertex 35.6118 -1.44889 -1.5
    endloop
  endfacet
  facet normal 0 0 -1
    outer loop
      vertex -16.701 -65.0679 -1.5
      vertex 35.6118 -1.44889 -1.5
      vertex -16.6142 -65.2439 -1.5
    endloop
  endfacet
  facet normal -0 0 -1
    outer loop
      vertex 35.6118 -1.44889 -1.5
      vertex -16.701 -65.0679 -1.5
      vertex 35.426 -1.38582 -1.5
    endloop
  endfacet
  facet normal 0 0 -1
    outer loop
      vertex -16.81 -64.9048 -1.5
      vertex 35.426 -1.38582 -1.5
      vertex -16.701 -65.0679 -1.5
    endloop
  endfacet
  facet normal -0 0 -1
    outer loop
      vertex 35.426 -1.38582 -1.5
      vertex -16.81 -64.9048 -1.5
      vertex 35.25 -1.29904 -1.5
    endloop
  endfacet
  facet normal 0 0 -1
    outer loop
      vertex -16.9393 -64.7573 -1.5
      vertex 35.25 -1.29904 -1.5
      vertex -16.81 -64.9048 -1.5
    endloop
  endfacet
  facet normal 0 0 -1
    outer loop
      vertex -17.0869 -64.6279 -1.5
      vertex 35.0869 -1.19003 -1.5
      vertex -16.9393 -64.7573 -1.5
    endloop
  endfacet
  facet normal -0 0 -1
    outer loop
      vertex 35.25 -1.29904 -1.5
      vertex -16.9393 -64.7573 -1.5
      vertex 35.0869 -1.19003 -1.5
    endloop
  endfacet
  facet normal 0 0 -1
    outer loop
      vertex 45 -85 -1.5
      vertex -16.5128 -66.0137 -1.5
      vertex -16.5 -65.8179 -1.5
    endloop
  endfacet
  facet normal 0 0 -1
    outer loop
      vertex 45 -85 -1.5
      vertex -16.5511 -66.2062 -1.5
      vertex -16.5128 -66.0137 -1.5
    endloop
  endfacet
  facet normal 0 0 -1
    outer loop
      vertex 45 -85 -1.5
      vertex -16.6142 -66.392 -1.5
      vertex -16.5511 -66.2062 -1.5
    endloop
  endfacet
  facet normal 0 0 -1
    outer loop
      vertex 45 -85 -1.5
      vertex -16.701 -66.5679 -1.5
      vertex -16.6142 -66.392 -1.5
    endloop
  endfacet
  facet normal 0 0 -1
    outer loop
      vertex 45 -85 -1.5
      vertex -16.81 -66.7311 -1.5
      vertex -16.701 -66.5679 -1.5
    endloop
  endfacet
  facet normal 0 0 -1
    outer loop
      vertex 45 -85 -1.5
      vertex -16.9393 -66.8786 -1.5
      vertex -16.81 -66.7311 -1.5
    endloop
  endfacet
  facet normal 0 0 -1
    outer loop
      vertex 45 -85 -1.5
      vertex -17.0869 -67.008 -1.5
      vertex -16.9393 -66.8786 -1.5
    endloop
  endfacet
  facet normal 0 0 -1
    outer loop
      vertex 45 -85 -1.5
      vertex -17.25 -67.117 -1.5
      vertex -17.0869 -67.008 -1.5
    endloop
  endfacet
  facet normal 0 0 -1
    outer loop
      vertex 45 -85 -1.5
      vertex -17.426 -67.2038 -1.5
      vertex -17.25 -67.117 -1.5
    endloop
  endfacet
  facet normal 0 0 -1
    outer loop
      vertex 45 -85 -1.5
      vertex -17.6118 -67.2668 -1.5
      vertex -17.426 -67.2038 -1.5
    endloop
  endfacet
  facet normal 0 0 -1
    outer loop
      vertex -45 -85 -1.5
      vertex -17.6118 -67.2668 -1.5
      vertex 45 -85 -1.5
    endloop
  endfacet
  facet normal 0 0 -1
    outer loop
      vertex -17.6118 -67.2668 -1.5
      vertex -45 -85 -1.5
      vertex -17.8042 -67.3051 -1.5
    endloop
  endfacet
  facet normal 0 0 -1
    outer loop
      vertex -17.8042 -67.3051 -1.5
      vertex -45 -85 -1.5
      vertex -18 -67.3179 -1.5
    endloop
  endfacet
  facet normal -0 0 -1
    outer loop
      vertex -18 -67.3179 -1.5
      vertex -45 -85 -1.5
      vertex -18.1958 -67.3051 -1.5
    endloop
  endfacet
  facet normal 0 0 -1
    outer loop
      vertex -19.4489 65.4297 -1.5
      vertex -45 85 -1.5
      vertex -19.4872 65.6221 -1.5
    endloop
  endfacet
  facet normal -0 0 -1
    outer loop
      vertex -19.4872 -66.0137 -1.5
      vertex -45 -85 -1.5
      vertex -19.5 -65.8179 -1.5
    endloop
  endfacet
  facet normal -0 0 -1
    outer loop
      vertex -19.4489 -66.2062 -1.5
      vertex -45 -85 -1.5
      vertex -19.4872 -66.0137 -1.5
    endloop
  endfacet
  facet normal -0 0 -1
    outer loop
      vertex -19.3858 -66.392 -1.5
      vertex -45 -85 -1.5
      vertex -19.4489 -66.2062 -1.5
    endloop
  endfacet
  facet normal -0 0 -1
    outer loop
      vertex -19.299 -66.5679 -1.5
      vertex -45 -85 -1.5
      vertex -19.3858 -66.392 -1.5
    endloop
  endfacet
  facet normal -0 0 -1
    outer loop
      vertex -19.19 -66.7311 -1.5
      vertex -45 -85 -1.5
      vertex -19.299 -66.5679 -1.5
    endloop
  endfacet
  facet normal -0 0 -1
    outer loop
      vertex -19.0607 -66.8786 -1.5
      vertex -45 -85 -1.5
      vertex -19.19 -66.7311 -1.5
    endloop
  endfacet
  facet normal -0 0 -1
    outer loop
      vertex -18.9131 -67.008 -1.5
      vertex -45 -85 -1.5
      vertex -19.0607 -66.8786 -1.5
    endloop
  endfacet
  facet normal -0 0 -1
    outer loop
      vertex -18.75 -67.117 -1.5
      vertex -45 -85 -1.5
      vertex -18.9131 -67.008 -1.5
    endloop
  endfacet
  facet normal -0 0 -1
    outer loop
      vertex -18.574 -67.2038 -1.5
      vertex -45 -85 -1.5
      vertex -18.75 -67.117 -1.5
    endloop
  endfacet
  facet normal -0 0 -1
    outer loop
      vertex -18.3882 -67.2668 -1.5
      vertex -45 -85 -1.5
      vertex -18.574 -67.2038 -1.5
    endloop
  endfacet
  facet normal -0 0 -1
    outer loop
      vertex -18.1958 -67.3051 -1.5
      vertex -45 -85 -1.5
      vertex -18.3882 -67.2668 -1.5
    endloop
  endfacet
  facet normal 0 0 -1
    outer loop
      vertex 37.4872 0.195788 -1.5
      vertex 45 85 -1.5
      vertex 37.5 0 -1.5
    endloop
  endfacet
  facet normal 0 0 -1
    outer loop
      vertex 37.4489 0.388228 -1.5
      vertex 45 85 -1.5
      vertex 37.4872 0.195788 -1.5
    endloop
  endfacet
  facet normal 0 0 -1
    outer loop
      vertex 37.3858 0.574024 -1.5
      vertex 45 85 -1.5
      vertex 37.4489 0.388228 -1.5
    endloop
  endfacet
  facet normal 0 0 -1
    outer loop
      vertex 37.299 0.75 -1.5
      vertex 45 85 -1.5
      vertex 37.3858 0.574024 -1.5
    endloop
  endfacet
  facet normal 0 0 -1
    outer loop
      vertex 37.19 0.913141 -1.5
      vertex 45 85 -1.5
      vertex 37.299 0.75 -1.5
    endloop
  endfacet
  facet normal 0 0 -1
    outer loop
      vertex 37.0607 1.06066 -1.5
      vertex 45 85 -1.5
      vertex 37.19 0.913141 -1.5
    endloop
  endfacet
  facet normal 0 0 -1
    outer loop
      vertex 36.9131 1.19003 -1.5
      vertex 45 85 -1.5
      vertex 37.0607 1.06066 -1.5
    endloop
  endfacet
  facet normal 0 0 -1
    outer loop
      vertex 36.75 1.29904 -1.5
      vertex 45 85 -1.5
      vertex 36.9131 1.19003 -1.5
    endloop
  endfacet
  facet normal 0 0 -1
    outer loop
      vertex 36.574 1.38582 -1.5
      vertex 45 85 -1.5
      vertex 36.75 1.29904 -1.5
    endloop
  endfacet
  facet normal 0 0 -1
    outer loop
      vertex 36.3882 1.44889 -1.5
      vertex 45 85 -1.5
      vertex 36.574 1.38582 -1.5
    endloop
  endfacet
  facet normal 0 0 -1
    outer loop
      vertex 36.1958 1.48717 -1.5
      vertex 45 85 -1.5
      vertex 36.3882 1.44889 -1.5
    endloop
  endfacet
  facet normal 0 0 -1
    outer loop
      vertex 36 1.5 -1.5
      vertex 45 85 -1.5
      vertex 36.1958 1.48717 -1.5
    endloop
  endfacet
  facet normal 0 0 -1
    outer loop
      vertex 35.8042 1.48717 -1.5
      vertex 45 85 -1.5
      vertex 36 1.5 -1.5
    endloop
  endfacet
  facet normal 0 0 -1
    outer loop
      vertex 35.6118 1.44889 -1.5
      vertex 45 85 -1.5
      vertex 35.8042 1.48717 -1.5
    endloop
  endfacet
  facet normal 0 0 -1
    outer loop
      vertex -16.5 65.8179 -1.5
      vertex 35.6118 1.44889 -1.5
      vertex 35.426 1.38582 -1.5
    endloop
  endfacet
  facet normal 0 0 -1
    outer loop
      vertex -16.5 65.8179 -1.5
      vertex 35.426 1.38582 -1.5
      vertex 35.25 1.29904 -1.5
    endloop
  endfacet
  facet normal 0 0 -1
    outer loop
      vertex -16.5 65.8179 -1.5
      vertex 35.25 1.29904 -1.5
      vertex 35.0869 1.19003 -1.5
    endloop
  endfacet
  facet normal 0 0 -1
    outer loop
      vertex -16.5 65.8179 -1.5
      vertex 35.0869 1.19003 -1.5
      vertex 34.9393 1.06066 -1.5
    endloop
  endfacet
  facet normal 0 0 -1
    outer loop
      vertex -16.5 65.8179 -1.5
      vertex 34.9393 1.06066 -1.5
      vertex 34.81 0.913141 -1.5
    endloop
  endfacet
  facet normal 0 0 -1
    outer loop
      vertex -16.5 65.8179 -1.5
      vertex 34.81 0.913141 -1.5
      vertex 34.701 0.75 -1.5
    endloop
  endfacet
  facet normal 0 0 -1
    outer loop
      vertex -16.5 65.8179 -1.5
      vertex 34.701 0.75 -1.5
      vertex 34.6142 0.574024 -1.5
    endloop
  endfacet
  facet normal 0 0 -1
    outer loop
      vertex -16.5 65.8179 -1.5
      vertex 34.6142 0.574024 -1.5
      vertex 34.5511 0.388228 -1.5
    endloop
  endfacet
  facet normal 0 0 -1
    outer loop
      vertex -16.5 65.8179 -1.5
      vertex 34.5511 0.388228 -1.5
      vertex 34.5128 0.195788 -1.5
    endloop
  endfacet
  facet normal -0 0 -1
    outer loop
      vertex 35.0869 -1.19003 -1.5
      vertex -17.0869 -64.6279 -1.5
      vertex 34.9393 -1.06066 -1.5
    endloop
  endfacet
  facet normal 0 0 -1
    outer loop
      vertex 34.5 0 -1.5
      vertex -16.5 65.8179 -1.5
      vertex 34.5128 0.195788 -1.5
    endloop
  endfacet
  facet normal 0 0 -1
    outer loop
      vertex 35.6118 1.44889 -1.5
      vertex -16.5 65.8179 -1.5
      vertex 45 85 -1.5
    endloop
  endfacet
  facet normal 0 0 -1
    outer loop
      vertex -16.5128 66.0137 -1.5
      vertex 45 85 -1.5
      vertex -16.5 65.8179 -1.5
    endloop
  endfacet
  facet normal 0 0 -1
    outer loop
      vertex -16.5511 66.2062 -1.5
      vertex 45 85 -1.5
      vertex -16.5128 66.0137 -1.5
    endloop
  endfacet
  facet normal 0 0 -1
    outer loop
      vertex -16.6142 66.392 -1.5
      vertex 45 85 -1.5
      vertex -16.5511 66.2062 -1.5
    endloop
  endfacet
  facet normal 0 0 -1
    outer loop
      vertex -16.701 66.5679 -1.5
      vertex 45 85 -1.5
      vertex -16.6142 66.392 -1.5
    endloop
  endfacet
  facet normal 0 0 -1
    outer loop
      vertex -16.81 66.7311 -1.5
      vertex 45 85 -1.5
      vertex -16.701 66.5679 -1.5
    endloop
  endfacet
  facet normal 0 0 -1
    outer loop
      vertex -16.9393 66.8786 -1.5
      vertex 45 85 -1.5
      vertex -16.81 66.7311 -1.5
    endloop
  endfacet
  facet normal 0 0 -1
    outer loop
      vertex -17.0869 67.008 -1.5
      vertex 45 85 -1.5
      vertex -16.9393 66.8786 -1.5
    endloop
  endfacet
  facet normal 0 0 -1
    outer loop
      vertex -17.25 67.117 -1.5
      vertex 45 85 -1.5
      vertex -17.0869 67.008 -1.5
    endloop
  endfacet
  facet normal 0 0 -1
    outer loop
      vertex -17.426 67.2038 -1.5
      vertex 45 85 -1.5
      vertex -17.25 67.117 -1.5
    endloop
  endfacet
  facet normal 0 0 -1
    outer loop
      vertex -17.6118 67.2668 -1.5
      vertex 45 85 -1.5
      vertex -17.426 67.2038 -1.5
    endloop
  endfacet
  facet normal 0 0 -1
    outer loop
      vertex -45 85 -1.5
      vertex -17.6118 67.2668 -1.5
      vertex -17.8042 67.3051 -1.5
    endloop
  endfacet
  facet normal 0 0 -1
    outer loop
      vertex -45 85 -1.5
      vertex -17.8042 67.3051 -1.5
      vertex -18 67.3179 -1.5
    endloop
  endfacet
  facet normal 0 0 -1
    outer loop
      vertex -45 85 -1.5
      vertex -18 67.3179 -1.5
      vertex -18.1958 67.3051 -1.5
    endloop
  endfacet
  facet normal 0 0 -1
    outer loop
      vertex -45 85 -1.5
      vertex -18.1958 67.3051 -1.5
      vertex -18.3882 67.2668 -1.5
    endloop
  endfacet
  facet normal 0 0 -1
    outer loop
      vertex -19.4872 65.6221 -1.5
      vertex -45 85 -1.5
      vertex -19.5 65.8179 -1.5
    endloop
  endfacet
  facet normal 0 0 -1
    outer loop
      vertex -17.6118 67.2668 -1.5
      vertex -45 85 -1.5
      vertex 45 85 -1.5
    endloop
  endfacet
  facet normal 0 0 -1
    outer loop
      vertex -18.574 67.2038 -1.5
      vertex -45 85 -1.5
      vertex -18.3882 67.2668 -1.5
    endloop
  endfacet
  facet normal 0 0 -1
    outer loop
      vertex -18.75 67.117 -1.5
      vertex -45 85 -1.5
      vertex -18.574 67.2038 -1.5
    endloop
  endfacet
  facet normal 0 0 -1
    outer loop
      vertex -18.9131 67.008 -1.5
      vertex -45 85 -1.5
      vertex -18.75 67.117 -1.5
    endloop
  endfacet
  facet normal 0 0 -1
    outer loop
      vertex -19.0607 66.8786 -1.5
      vertex -45 85 -1.5
      vertex -18.9131 67.008 -1.5
    endloop
  endfacet
  facet normal 0 0 -1
    outer loop
      vertex -19.19 66.7311 -1.5
      vertex -45 85 -1.5
      vertex -19.0607 66.8786 -1.5
    endloop
  endfacet
  facet normal 0 0 -1
    outer loop
      vertex -19.299 66.5679 -1.5
      vertex -45 85 -1.5
      vertex -19.19 66.7311 -1.5
    endloop
  endfacet
  facet normal 0 0 -1
    outer loop
      vertex -19.3858 66.392 -1.5
      vertex -45 85 -1.5
      vertex -19.299 66.5679 -1.5
    endloop
  endfacet
  facet normal 0 0 -1
    outer loop
      vertex -19.4489 66.2062 -1.5
      vertex -45 85 -1.5
      vertex -19.3858 66.392 -1.5
    endloop
  endfacet
  facet normal 0 0 -1
    outer loop
      vertex -19.4872 66.0137 -1.5
      vertex -45 85 -1.5
      vertex -19.4489 66.2062 -1.5
    endloop
  endfacet
  facet normal 0 0 -1
    outer loop
      vertex -19.5 65.8179 -1.5
      vertex -45 85 -1.5
      vertex -19.4872 66.0137 -1.5
    endloop
  endfacet
  facet normal -1 0 0
    outer loop
      vertex -45 -85 -1.5
      vertex -45 85 1.5
      vertex -45 85 -1.5
    endloop
  endfacet
  facet normal -1 -0 0
    outer loop
      vertex -45 85 1.5
      vertex -45 -85 -1.5
      vertex -45 -85 1.5
    endloop
  endfacet
  facet normal 0 1 -0
    outer loop
      vertex 45 85 -1.5
      vertex -45 85 1.5
      vertex 45 85 1.5
    endloop
  endfacet
  facet normal 0 1 0
    outer loop
      vertex -45 85 1.5
      vertex 45 85 -1.5
      vertex -45 85 -1.5
    endloop
  endfacet
  facet normal 0 -1 0
    outer loop
      vertex -45 -85 -1.5
      vertex 45 -85 1.5
      vertex -45 -85 1.5
    endloop
  endfacet
  facet normal 0 -1 -0
    outer loop
      vertex 45 -85 1.5
      vertex -45 -85 -1.5
      vertex 45 -85 -1.5
    endloop
  endfacet
  facet normal -0.980764 -0.195195 0
    outer loop
      vertex 37.4872 0.195788 -1.5
      vertex 37.4489 0.388228 1.5
      vertex 37.4489 0.388228 -1.5
    endloop
  endfacet
  facet normal -0.980764 -0.195195 0
    outer loop
      vertex 37.4489 0.388228 1.5
      vertex 37.4872 0.195788 -1.5
      vertex 37.4872 0.195788 1.5
    endloop
  endfacet
  facet normal -0.99787 -0.0652376 0
    outer loop
      vertex 37.5 0 -1.5
      vertex 37.4872 0.195788 1.5
      vertex 37.4872 0.195788 -1.5
    endloop
  endfacet
  facet normal -0.99787 -0.0652376 0
    outer loop
      vertex 37.4872 0.195788 1.5
      vertex 37.5 0 -1.5
      vertex 37.5 0 1.5
    endloop
  endfacet
  facet normal -0.442233 -0.8969 0
    outer loop
      vertex 36.574 1.38582 -1.5
      vertex 36.75 1.29904 1.5
      vertex 36.574 1.38582 1.5
    endloop
  endfacet
  facet normal -0.442233 -0.8969 -0
    outer loop
      vertex 36.75 1.29904 1.5
      vertex 36.574 1.38582 -1.5
      vertex 36.75 1.29904 -1.5
    endloop
  endfacet
  facet normal 0.896836 0.442363 0
    outer loop
      vertex 34.701 -0.75 1.5
      vertex 34.6142 -0.574024 -1.5
      vertex 34.6142 -0.574024 1.5
    endloop
  endfacet
  facet normal 0.896836 0.442363 0
    outer loop
      vertex 34.6142 -0.574024 -1.5
      vertex 34.701 -0.75 1.5
      vertex 34.701 -0.75 -1.5
    endloop
  endfacet
  facet normal -0.321437 -0.946931 0
    outer loop
      vertex 36.3882 1.44889 -1.5
      vertex 36.574 1.38582 1.5
      vertex 36.3882 1.44889 1.5
    endloop
  endfacet
  facet normal -0.321437 -0.946931 -0
    outer loop
      vertex 36.574 1.38582 1.5
      vertex 36.3882 1.44889 -1.5
      vertex 36.574 1.38582 -1.5
    endloop
  endfacet
  facet normal 0.99787 -0.0652376 0
    outer loop
      vertex 34.5 0 1.5
      vertex 34.5128 0.195788 -1.5
      vertex 34.5128 0.195788 1.5
    endloop
  endfacet
  facet normal 0.99787 -0.0652376 0
    outer loop
      vertex 34.5128 0.195788 -1.5
      vertex 34.5 0 1.5
      vertex 34.5 0 -1.5
    endloop
  endfacet
  facet normal -0.659139 -0.752021 0
    outer loop
      vertex 36.9131 1.19003 -1.5
      vertex 37.0607 1.06066 1.5
      vertex 36.9131 1.19003 1.5
    endloop
  endfacet
  facet normal -0.659139 -0.752021 -0
    outer loop
      vertex 37.0607 1.06066 1.5
      vertex 36.9131 1.19003 -1.5
      vertex 37.0607 1.06066 -1.5
    endloop
  endfacet
  facet normal 0.0653858 -0.99786 0
    outer loop
      vertex 35.8042 1.48717 -1.5
      vertex 36 1.5 1.5
      vertex 35.8042 1.48717 1.5
    endloop
  endfacet
  facet normal 0.0653858 -0.99786 0
    outer loop
      vertex 36 1.5 1.5
      vertex 35.8042 1.48717 -1.5
      vertex 36 1.5 -1.5
    endloop
  endfacet
  facet normal 0.195136 0.980776 -0
    outer loop
      vertex 35.8042 -1.48717 -1.5
      vertex 35.6118 -1.44889 1.5
      vertex 35.8042 -1.48717 1.5
    endloop
  endfacet
  facet normal 0.195136 0.980776 0
    outer loop
      vertex 35.6118 -1.44889 1.5
      vertex 35.8042 -1.48717 -1.5
      vertex 35.6118 -1.44889 -1.5
    endloop
  endfacet
  facet normal 0.555676 -0.831399 0
    outer loop
      vertex 35.0869 1.19003 -1.5
      vertex 35.25 1.29904 1.5
      vertex 35.0869 1.19003 1.5
    endloop
  endfacet
  facet normal 0.555676 -0.831399 0
    outer loop
      vertex 35.25 1.29904 1.5
      vertex 35.0869 1.19003 -1.5
      vertex 35.25 1.29904 -1.5
    endloop
  endfacet
  facet normal 0.99787 0.0652376 0
    outer loop
      vertex 34.5128 -0.195788 1.5
      vertex 34.5 0 -1.5
      vertex 34.5 0 1.5
    endloop
  endfacet
  facet normal 0.99787 0.0652376 0
    outer loop
      vertex 34.5 0 -1.5
      vertex 34.5128 -0.195788 1.5
      vertex 34.5128 -0.195788 -1.5
    endloop
  endfacet
  facet normal 0.946882 -0.32158 0
    outer loop
      vertex 34.5511 0.388228 1.5
      vertex 34.6142 0.574024 -1.5
      vertex 34.6142 0.574024 1.5
    endloop
  endfacet
  facet normal 0.946882 -0.32158 0
    outer loop
      vertex 34.6142 0.574024 -1.5
      vertex 34.5511 0.388228 1.5
      vertex 34.5511 0.388228 -1.5
    endloop
  endfacet
  facet normal -0.831487 0.555544 0
    outer loop
      vertex 37.19 -0.913141 -1.5
      vertex 37.299 -0.75 1.5
      vertex 37.299 -0.75 -1.5
    endloop
  endfacet
  facet normal -0.831487 0.555544 0
    outer loop
      vertex 37.299 -0.75 1.5
      vertex 37.19 -0.913141 -1.5
      vertex 37.19 -0.913141 1.5
    endloop
  endfacet
  facet normal -0.896836 -0.442363 0
    outer loop
      vertex 37.3858 0.574024 -1.5
      vertex 37.299 0.75 1.5
      vertex 37.299 0.75 -1.5
    endloop
  endfacet
  facet normal -0.896836 -0.442363 0
    outer loop
      vertex 37.299 0.75 1.5
      vertex 37.3858 0.574024 -1.5
      vertex 37.3858 0.574024 1.5
    endloop
  endfacet
  facet normal -0.831487 -0.555544 0
    outer loop
      vertex 37.299 0.75 -1.5
      vertex 37.19 0.913141 1.5
      vertex 37.19 0.913141 -1.5
    endloop
  endfacet
  facet normal -0.831487 -0.555544 0
    outer loop
      vertex 37.19 0.913141 1.5
      vertex 37.299 0.75 -1.5
      vertex 37.299 0.75 1.5
    endloop
  endfacet
  facet normal 0.752018 0.659142 0
    outer loop
      vertex 34.9393 -1.06066 1.5
      vertex 34.81 -0.913141 -1.5
      vertex 34.81 -0.913141 1.5
    endloop
  endfacet
  facet normal 0.752018 0.659142 0
    outer loop
      vertex 34.81 -0.913141 -1.5
      vertex 34.9393 -1.06066 1.5
      vertex 34.9393 -1.06066 -1.5
    endloop
  endfacet
  facet normal 0.442233 -0.8969 0
    outer loop
      vertex 35.25 1.29904 -1.5
      vertex 35.426 1.38582 1.5
      vertex 35.25 1.29904 1.5
    endloop
  endfacet
  facet normal 0.442233 -0.8969 0
    outer loop
      vertex 35.426 1.38582 1.5
      vertex 35.25 1.29904 -1.5
      vertex 35.426 1.38582 -1.5
    endloop
  endfacet
  facet normal 0.752018 -0.659142 0
    outer loop
      vertex 34.81 0.913141 1.5
      vertex 34.9393 1.06066 -1.5
      vertex 34.9393 1.06066 1.5
    endloop
  endfacet
  facet normal 0.752018 -0.659142 0
    outer loop
      vertex 34.9393 1.06066 -1.5
      vertex 34.81 0.913141 1.5
      vertex 34.81 0.913141 -1.5
    endloop
  endfacet
  facet normal -0.946882 0.32158 0
    outer loop
      vertex 37.3858 -0.574024 -1.5
      vertex 37.4489 -0.388228 1.5
      vertex 37.4489 -0.388228 -1.5
    endloop
  endfacet
  facet normal -0.946882 0.32158 0
    outer loop
      vertex 37.4489 -0.388228 1.5
      vertex 37.3858 -0.574024 -1.5
      vertex 37.3858 -0.574024 1.5
    endloop
  endfacet
  facet normal -0.321437 0.946931 0
    outer loop
      vertex 36.574 -1.38582 -1.5
      vertex 36.3882 -1.44889 1.5
      vertex 36.574 -1.38582 1.5
    endloop
  endfacet
  facet normal -0.321437 0.946931 0
    outer loop
      vertex 36.3882 -1.44889 1.5
      vertex 36.574 -1.38582 -1.5
      vertex 36.3882 -1.44889 -1.5
    endloop
  endfacet
  facet normal -0.99787 0.0652376 0
    outer loop
      vertex 37.4872 -0.195788 -1.5
      vertex 37.5 0 1.5
      vertex 37.5 0 -1.5
    endloop
  endfacet
  facet normal -0.99787 0.0652376 0
    outer loop
      vertex 37.5 0 1.5
      vertex 37.4872 -0.195788 -1.5
      vertex 37.4872 -0.195788 1.5
    endloop
  endfacet
  facet normal -0.195136 -0.980776 0
    outer loop
      vertex 36.1958 1.48717 -1.5
      vertex 36.3882 1.44889 1.5
      vertex 36.1958 1.48717 1.5
    endloop
  endfacet
  facet normal -0.195136 -0.980776 -0
    outer loop
      vertex 36.3882 1.44889 1.5
      vertex 36.1958 1.48717 -1.5
      vertex 36.3882 1.44889 -1.5
    endloop
  endfacet
  facet normal -0.195136 0.980776 0
    outer loop
      vertex 36.3882 -1.44889 -1.5
      vertex 36.1958 -1.48717 1.5
      vertex 36.3882 -1.44889 1.5
    endloop
  endfacet
  facet normal -0.195136 0.980776 0
    outer loop
      vertex 36.1958 -1.48717 1.5
      vertex 36.3882 -1.44889 -1.5
      vertex 36.1958 -1.48717 -1.5
    endloop
  endfacet
  facet normal -0.980764 0.195195 0
    outer loop
      vertex 37.4489 -0.388228 -1.5
      vertex 37.4872 -0.195788 1.5
      vertex 37.4872 -0.195788 -1.5
    endloop
  endfacet
  facet normal -0.980764 0.195195 0
    outer loop
      vertex 37.4872 -0.195788 1.5
      vertex 37.4489 -0.388228 -1.5
      vertex 37.4489 -0.388228 1.5
    endloop
  endfacet
  facet normal -0.555676 -0.831399 0
    outer loop
      vertex 36.75 1.29904 -1.5
      vertex 36.9131 1.19003 1.5
      vertex 36.75 1.29904 1.5
    endloop
  endfacet
  facet normal -0.555676 -0.831399 -0
    outer loop
      vertex 36.9131 1.19003 1.5
      vertex 36.75 1.29904 -1.5
      vertex 36.9131 1.19003 -1.5
    endloop
  endfacet
  facet normal 0.980764 0.195195 0
    outer loop
      vertex 34.5511 -0.388228 1.5
      vertex 34.5128 -0.195788 -1.5
      vertex 34.5128 -0.195788 1.5
    endloop
  endfacet
  facet normal 0.980764 0.195195 0
    outer loop
      vertex 34.5128 -0.195788 -1.5
      vertex 34.5511 -0.388228 1.5
      vertex 34.5511 -0.388228 -1.5
    endloop
  endfacet
  facet normal -0.555676 0.831399 0
    outer loop
      vertex 36.9131 -1.19003 -1.5
      vertex 36.75 -1.29904 1.5
      vertex 36.9131 -1.19003 1.5
    endloop
  endfacet
  facet normal -0.555676 0.831399 0
    outer loop
      vertex 36.75 -1.29904 1.5
      vertex 36.9131 -1.19003 -1.5
      vertex 36.75 -1.29904 -1.5
    endloop
  endfacet
  facet normal -0.0653858 -0.99786 0
    outer loop
      vertex 36 1.5 -1.5
      vertex 36.1958 1.48717 1.5
      vertex 36 1.5 1.5
    endloop
  endfacet
  facet normal -0.0653858 -0.99786 -0
    outer loop
      vertex 36.1958 1.48717 1.5
      vertex 36 1.5 -1.5
      vertex 36.1958 1.48717 -1.5
    endloop
  endfacet
  facet normal -0.896836 0.442363 0
    outer loop
      vertex 37.299 -0.75 -1.5
      vertex 37.3858 -0.574024 1.5
      vertex 37.3858 -0.574024 -1.5
    endloop
  endfacet
  facet normal -0.896836 0.442363 0
    outer loop
      vertex 37.3858 -0.574024 1.5
      vertex 37.299 -0.75 -1.5
      vertex 37.299 -0.75 1.5
    endloop
  endfacet
  facet normal 0.195136 -0.980776 0
    outer loop
      vertex 35.6118 1.44889 -1.5
      vertex 35.8042 1.48717 1.5
      vertex 35.6118 1.44889 1.5
    endloop
  endfacet
  facet normal 0.195136 -0.980776 0
    outer loop
      vertex 35.8042 1.48717 1.5
      vertex 35.6118 1.44889 -1.5
      vertex 35.8042 1.48717 -1.5
    endloop
  endfacet
  facet normal 0.946882 0.32158 0
    outer loop
      vertex 34.6142 -0.574024 1.5
      vertex 34.5511 -0.388228 -1.5
      vertex 34.5511 -0.388228 1.5
    endloop
  endfacet
  facet normal 0.946882 0.32158 0
    outer loop
      vertex 34.5511 -0.388228 -1.5
      vertex 34.6142 -0.574024 1.5
      vertex 34.6142 -0.574024 -1.5
    endloop
  endfacet
  facet normal -0.752018 0.659142 0
    outer loop
      vertex 37.0607 -1.06066 -1.5
      vertex 37.19 -0.913141 1.5
      vertex 37.19 -0.913141 -1.5
    endloop
  endfacet
  facet normal -0.752018 0.659142 0
    outer loop
      vertex 37.19 -0.913141 1.5
      vertex 37.0607 -1.06066 -1.5
      vertex 37.0607 -1.06066 1.5
    endloop
  endfacet
  facet normal -0.442233 0.8969 0
    outer loop
      vertex 36.75 -1.29904 -1.5
      vertex 36.574 -1.38582 1.5
      vertex 36.75 -1.29904 1.5
    endloop
  endfacet
  facet normal -0.442233 0.8969 0
    outer loop
      vertex 36.574 -1.38582 1.5
      vertex 36.75 -1.29904 -1.5
      vertex 36.574 -1.38582 -1.5
    endloop
  endfacet
  facet normal -0.0653858 0.99786 0
    outer loop
      vertex 36.1958 -1.48717 -1.5
      vertex 36 -1.5 1.5
      vertex 36.1958 -1.48717 1.5
    endloop
  endfacet
  facet normal -0.0653858 0.99786 0
    outer loop
      vertex 36 -1.5 1.5
      vertex 36.1958 -1.48717 -1.5
      vertex 36 -1.5 -1.5
    endloop
  endfacet
  facet normal 0.659139 -0.752021 0
    outer loop
      vertex 34.9393 1.06066 -1.5
      vertex 35.0869 1.19003 1.5
      vertex 34.9393 1.06066 1.5
    endloop
  endfacet
  facet normal 0.659139 -0.752021 0
    outer loop
      vertex 35.0869 1.19003 1.5
      vertex 34.9393 1.06066 -1.5
      vertex 35.0869 1.19003 -1.5
    endloop
  endfacet
  facet normal 0.980764 -0.195195 0
    outer loop
      vertex 34.5128 0.195788 1.5
      vertex 34.5511 0.388228 -1.5
      vertex 34.5511 0.388228 1.5
    endloop
  endfacet
  facet normal 0.980764 -0.195195 0
    outer loop
      vertex 34.5511 0.388228 -1.5
      vertex 34.5128 0.195788 1.5
      vertex 34.5128 0.195788 -1.5
    endloop
  endfacet
  facet normal -0.659139 0.752021 0
    outer loop
      vertex 37.0607 -1.06066 -1.5
      vertex 36.9131 -1.19003 1.5
      vertex 37.0607 -1.06066 1.5
    endloop
  endfacet
  facet normal -0.659139 0.752021 0
    outer loop
      vertex 36.9131 -1.19003 1.5
      vertex 37.0607 -1.06066 -1.5
      vertex 36.9131 -1.19003 -1.5
    endloop
  endfacet
  facet normal 0.0653858 0.99786 -0
    outer loop
      vertex 36 -1.5 -1.5
      vertex 35.8042 -1.48717 1.5
      vertex 36 -1.5 1.5
    endloop
  endfacet
  facet normal 0.0653858 0.99786 0
    outer loop
      vertex 35.8042 -1.48717 1.5
      vertex 36 -1.5 -1.5
      vertex 35.8042 -1.48717 -1.5
    endloop
  endfacet
  facet normal -0.752018 -0.659142 0
    outer loop
      vertex 37.19 0.913141 -1.5
      vertex 37.0607 1.06066 1.5
      vertex 37.0607 1.06066 -1.5
    endloop
  endfacet
  facet normal -0.752018 -0.659142 0
    outer loop
      vertex 37.0607 1.06066 1.5
      vertex 37.19 0.913141 -1.5
      vertex 37.19 0.913141 1.5
    endloop
  endfacet
  facet normal -0.946882 -0.32158 0
    outer loop
      vertex 37.4489 0.388228 -1.5
      vertex 37.3858 0.574024 1.5
      vertex 37.3858 0.574024 -1.5
    endloop
  endfacet
  facet normal -0.946882 -0.32158 0
    outer loop
      vertex 37.3858 0.574024 1.5
      vertex 37.4489 0.388228 -1.5
      vertex 37.4489 0.388228 1.5
    endloop
  endfacet
  facet normal 0.831487 0.555544 0
    outer loop
      vertex 34.81 -0.913141 1.5
      vertex 34.701 -0.75 -1.5
      vertex 34.701 -0.75 1.5
    endloop
  endfacet
  facet normal 0.831487 0.555544 0
    outer loop
      vertex 34.701 -0.75 -1.5
      vertex 34.81 -0.913141 1.5
      vertex 34.81 -0.913141 -1.5
    endloop
  endfacet
  facet normal 0.321437 -0.946931 0
    outer loop
      vertex 35.426 1.38582 -1.5
      vertex 35.6118 1.44889 1.5
      vertex 35.426 1.38582 1.5
    endloop
  endfacet
  facet normal 0.321437 -0.946931 0
    outer loop
      vertex 35.6118 1.44889 1.5
      vertex 35.426 1.38582 -1.5
      vertex 35.6118 1.44889 -1.5
    endloop
  endfacet
  facet normal 0.555676 0.831399 -0
    outer loop
      vertex 35.25 -1.29904 -1.5
      vertex 35.0869 -1.19003 1.5
      vertex 35.25 -1.29904 1.5
    endloop
  endfacet
  facet normal 0.555676 0.831399 0
    outer loop
      vertex 35.0869 -1.19003 1.5
      vertex 35.25 -1.29904 -1.5
      vertex 35.0869 -1.19003 -1.5
    endloop
  endfacet
  facet normal 0.442233 0.8969 -0
    outer loop
      vertex 35.426 -1.38582 -1.5
      vertex 35.25 -1.29904 1.5
      vertex 35.426 -1.38582 1.5
    endloop
  endfacet
  facet normal 0.442233 0.8969 0
    outer loop
      vertex 35.25 -1.29904 1.5
      vertex 35.426 -1.38582 -1.5
      vertex 35.25 -1.29904 -1.5
    endloop
  endfacet
  facet normal 0.831487 -0.555544 0
    outer loop
      vertex 34.701 0.75 1.5
      vertex 34.81 0.913141 -1.5
      vertex 34.81 0.913141 1.5
    endloop
  endfacet
  facet normal 0.831487 -0.555544 0
    outer loop
      vertex 34.81 0.913141 -1.5
      vertex 34.701 0.75 1.5
      vertex 34.701 0.75 -1.5
    endloop
  endfacet
  facet normal 0.321437 0.946931 -0
    outer loop
      vertex 35.6118 -1.44889 -1.5
      vertex 35.426 -1.38582 1.5
      vertex 35.6118 -1.44889 1.5
    endloop
  endfacet
  facet normal 0.321437 0.946931 0
    outer loop
      vertex 35.426 -1.38582 1.5
      vertex 35.6118 -1.44889 -1.5
      vertex 35.426 -1.38582 -1.5
    endloop
  endfacet
  facet normal 0.896836 -0.442363 0
    outer loop
      vertex 34.6142 0.574024 1.5
      vertex 34.701 0.75 -1.5
      vertex 34.701 0.75 1.5
    endloop
  endfacet
  facet normal 0.896836 -0.442363 0
    outer loop
      vertex 34.701 0.75 -1.5
      vertex 34.6142 0.574024 1.5
      vertex 34.6142 0.574024 -1.5
    endloop
  endfacet
  facet normal 0.659139 0.752021 -0
    outer loop
      vertex 35.0869 -1.19003 -1.5
      vertex 34.9393 -1.06066 1.5
      vertex 35.0869 -1.19003 1.5
    endloop
  endfacet
  facet normal 0.659139 0.752021 0
    outer loop
      vertex 34.9393 -1.06066 1.5
      vertex 35.0869 -1.19003 -1.5
      vertex 34.9393 -1.06066 -1.5
    endloop
  endfacet
  facet normal -0.980776 -0.195136 0
    outer loop
      vertex -16.5128 66.0137 -1.5
      vertex -16.5511 66.2062 1.5
      vertex -16.5511 66.2062 -1.5
    endloop
  endfacet
  facet normal -0.980776 -0.195136 0
    outer loop
      vertex -16.5511 66.2062 1.5
      vertex -16.5128 66.0137 -1.5
      vertex -16.5128 66.0137 1.5
    endloop
  endfacet
  facet normal -0.99787 -0.0652336 0
    outer loop
      vertex -16.5 65.8179 -1.5
      vertex -16.5128 66.0137 1.5
      vertex -16.5128 66.0137 -1.5
    endloop
  endfacet
  facet normal -0.99787 -0.0652336 0
    outer loop
      vertex -16.5128 66.0137 1.5
      vertex -16.5 65.8179 -1.5
      vertex -16.5 65.8179 1.5
    endloop
  endfacet
  facet normal 0.321574 0.946885 -0
    outer loop
      vertex -18.3882 64.369 -1.5
      vertex -18.574 64.4321 1.5
      vertex -18.3882 64.369 1.5
    endloop
  endfacet
  facet normal 0.321574 0.946885 0
    outer loop
      vertex -18.574 64.4321 1.5
      vertex -18.3882 64.369 -1.5
      vertex -18.574 64.4321 -1.5
    endloop
  endfacet
  facet normal 0.659226 0.751945 -0
    outer loop
      vertex -18.9131 64.6279 -1.5
      vertex -19.0607 64.7573 1.5
      vertex -18.9131 64.6279 1.5
    endloop
  endfacet
  facet normal 0.659226 0.751945 0
    outer loop
      vertex -19.0607 64.7573 1.5
      vertex -18.9131 64.6279 -1.5
      vertex -19.0607 64.7573 -1.5
    endloop
  endfacet
  facet normal -0.659226 -0.751945 0
    outer loop
      vertex -17.0869 67.008 -1.5
      vertex -16.9393 66.8786 1.5
      vertex -17.0869 67.008 1.5
    endloop
  endfacet
  facet normal -0.659226 -0.751945 -0
    outer loop
      vertex -16.9393 66.8786 1.5
      vertex -17.0869 67.008 -1.5
      vertex -16.9393 66.8786 -1.5
    endloop
  endfacet
  facet normal 0.83158 -0.555406 0
    outer loop
      vertex -19.299 66.5679 1.5
      vertex -19.19 66.7311 -1.5
      vertex -19.19 66.7311 1.5
    endloop
  endfacet
  facet normal 0.83158 -0.555406 0
    outer loop
      vertex -19.19 66.7311 -1.5
      vertex -19.299 66.5679 1.5
      vertex -19.299 66.5679 -1.5
    endloop
  endfacet
  facet normal -0.194743 0.980854 0
    outer loop
      vertex -17.6118 64.369 -1.5
      vertex -17.8042 64.3308 1.5
      vertex -17.6118 64.369 1.5
    endloop
  endfacet
  facet normal -0.194743 0.980854 0
    outer loop
      vertex -17.8042 64.3308 1.5
      vertex -17.6118 64.369 -1.5
      vertex -17.8042 64.3308 -1.5
    endloop
  endfacet
  facet normal 0.980757 0.195234 0
    outer loop
      vertex -19.4489 65.4297 1.5
      vertex -19.4872 65.6221 -1.5
      vertex -19.4872 65.6221 1.5
    endloop
  endfacet
  facet normal 0.980757 0.195234 0
    outer loop
      vertex -19.4872 65.6221 -1.5
      vertex -19.4489 65.4297 1.5
      vertex -19.4489 65.4297 -1.5
    endloop
  endfacet
  facet normal 0.99787 0.0652336 0
    outer loop
      vertex -19.4872 65.6221 1.5
      vertex -19.5 65.8179 -1.5
      vertex -19.5 65.8179 1.5
    endloop
  endfacet
  facet normal 0.99787 0.0652336 0
    outer loop
      vertex -19.5 65.8179 -1.5
      vertex -19.4872 65.6221 1.5
      vertex -19.4872 65.6221 -1.5
    endloop
  endfacet
  facet normal -0.0652336 -0.99787 0
    outer loop
      vertex -18 67.3179 -1.5
      vertex -17.8042 67.3051 1.5
      vertex -18 67.3179 1.5
    endloop
  endfacet
  facet normal -0.0652336 -0.99787 -0
    outer loop
      vertex -17.8042 67.3051 1.5
      vertex -18 67.3179 -1.5
      vertex -17.8042 67.3051 -1.5
    endloop
  endfacet
  facet normal -0.99787 0.0652336 0
    outer loop
      vertex -16.5128 65.6221 -1.5
      vertex -16.5 65.8179 1.5
      vertex -16.5 65.8179 -1.5
    endloop
  endfacet
  facet normal -0.99787 0.0652336 0
    outer loop
      vertex -16.5 65.8179 1.5
      vertex -16.5128 65.6221 -1.5
      vertex -16.5128 65.6221 1.5
    endloop
  endfacet
  facet normal 0.980776 -0.195136 0
    outer loop
      vertex -19.4872 66.0137 1.5
      vertex -19.4489 66.2062 -1.5
      vertex -19.4489 66.2062 1.5
    endloop
  endfacet
  facet normal 0.980776 -0.195136 0
    outer loop
      vertex -19.4489 66.2062 -1.5
      vertex -19.4872 66.0137 1.5
      vertex -19.4872 66.0137 -1.5
    endloop
  endfacet
  facet normal -0.83158 -0.555406 0
    outer loop
      vertex -16.701 66.5679 -1.5
      vertex -16.81 66.7311 1.5
      vertex -16.81 66.7311 -1.5
    endloop
  endfacet
  facet normal -0.83158 -0.555406 0
    outer loop
      vertex -16.81 66.7311 1.5
      vertex -16.701 66.5679 -1.5
      vertex -16.701 66.5679 1.5
    endloop
  endfacet
  facet normal 0.946885 -0.321574 0
    outer loop
      vertex -19.4489 66.2062 1.5
      vertex -19.3858 66.392 -1.5
      vertex -19.3858 66.392 1.5
    endloop
  endfacet
  facet normal 0.946885 -0.321574 0
    outer loop
      vertex -19.3858 66.392 -1.5
      vertex -19.4489 66.2062 1.5
      vertex -19.4489 66.2062 -1.5
    endloop
  endfacet
  facet normal 0.555641 0.831422 -0
    outer loop
      vertex -18.75 64.5189 -1.5
      vertex -18.9131 64.6279 1.5
      vertex -18.75 64.5189 1.5
    endloop
  endfacet
  facet normal 0.555641 0.831422 0
    outer loop
      vertex -18.9131 64.6279 1.5
      vertex -18.75 64.5189 -1.5
      vertex -18.9131 64.6279 -1.5
    endloop
  endfacet
  facet normal -0.321117 -0.94704 0
    outer loop
      vertex -17.6118 67.2668 -1.5
      vertex -17.426 67.2038 1.5
      vertex -17.6118 67.2668 1.5
    endloop
  endfacet
  facet normal -0.321117 -0.94704 -0
    outer loop
      vertex -17.426 67.2038 1.5
      vertex -17.6118 67.2668 -1.5
      vertex -17.426 67.2038 -1.5
    endloop
  endfacet
  facet normal -0.751976 0.65919 0
    outer loop
      vertex -16.9393 64.7573 -1.5
      vertex -16.81 64.9048 1.5
      vertex -16.81 64.9048 -1.5
    endloop
  endfacet
  facet normal -0.751976 0.65919 0
    outer loop
      vertex -16.81 64.9048 1.5
      vertex -16.9393 64.7573 -1.5
      vertex -16.9393 64.7573 1.5
    endloop
  endfacet
  facet normal -0.442315 0.89686 0
    outer loop
      vertex -17.25 64.5189 -1.5
      vertex -17.426 64.4321 1.5
      vertex -17.25 64.5189 1.5
    endloop
  endfacet
  facet normal -0.442315 0.89686 0
    outer loop
      vertex -17.426 64.4321 1.5
      vertex -17.25 64.5189 -1.5
      vertex -17.426 64.4321 -1.5
    endloop
  endfacet
  facet normal -0.980757 0.195234 0
    outer loop
      vertex -16.5511 65.4297 -1.5
      vertex -16.5128 65.6221 1.5
      vertex -16.5128 65.6221 -1.5
    endloop
  endfacet
  facet normal -0.980757 0.195234 0
    outer loop
      vertex -16.5128 65.6221 1.5
      vertex -16.5511 65.4297 -1.5
      vertex -16.5511 65.4297 1.5
    endloop
  endfacet
  facet normal -0.555641 -0.831422 0
    outer loop
      vertex -17.25 67.117 -1.5
      vertex -17.0869 67.008 1.5
      vertex -17.25 67.117 1.5
    endloop
  endfacet
  facet normal -0.555641 -0.831422 -0
    outer loop
      vertex -17.0869 67.008 1.5
      vertex -17.25 67.117 -1.5
      vertex -17.0869 67.008 -1.5
    endloop
  endfacet
  facet normal 0.89686 0.442315 0
    outer loop
      vertex -19.299 65.0679 1.5
      vertex -19.3858 65.2439 -1.5
      vertex -19.3858 65.2439 1.5
    endloop
  endfacet
  facet normal 0.89686 0.442315 0
    outer loop
      vertex -19.3858 65.2439 -1.5
      vertex -19.299 65.0679 1.5
      vertex -19.299 65.0679 -1.5
    endloop
  endfacet
  facet normal 0.751976 0.65919 0
    outer loop
      vertex -19.0607 64.7573 1.5
      vertex -19.19 64.9048 -1.5
      vertex -19.19 64.9048 1.5
    endloop
  endfacet
  facet normal 0.751976 0.65919 0
    outer loop
      vertex -19.19 64.9048 -1.5
      vertex -19.0607 64.7573 1.5
      vertex -19.0607 64.7573 -1.5
    endloop
  endfacet
  facet normal 0.659226 -0.751945 0
    outer loop
      vertex -19.0607 66.8786 -1.5
      vertex -18.9131 67.008 1.5
      vertex -19.0607 66.8786 1.5
    endloop
  endfacet
  facet normal 0.659226 -0.751945 0
    outer loop
      vertex -18.9131 67.008 1.5
      vertex -19.0607 66.8786 -1.5
      vertex -18.9131 67.008 -1.5
    endloop
  endfacet
  facet normal 0.555641 -0.831422 0
    outer loop
      vertex -18.9131 67.008 -1.5
      vertex -18.75 67.117 1.5
      vertex -18.9131 67.008 1.5
    endloop
  endfacet
  facet normal 0.555641 -0.831422 0
    outer loop
      vertex -18.75 67.117 1.5
      vertex -18.9131 67.008 -1.5
      vertex -18.75 67.117 -1.5
    endloop
  endfacet
  facet normal 0.321117 -0.94704 0
    outer loop
      vertex -18.574 67.2038 -1.5
      vertex -18.3882 67.2668 1.5
      vertex -18.574 67.2038 1.5
    endloop
  endfacet
  facet normal 0.321117 -0.94704 0
    outer loop
      vertex -18.3882 67.2668 1.5
      vertex -18.574 67.2038 -1.5
      vertex -18.3882 67.2668 -1.5
    endloop
  endfacet
  facet normal -0.442315 -0.89686 0
    outer loop
      vertex -17.426 67.2038 -1.5
      vertex -17.25 67.117 1.5
      vertex -17.426 67.2038 1.5
    endloop
  endfacet
  facet normal -0.442315 -0.89686 -0
    outer loop
      vertex -17.25 67.117 1.5
      vertex -17.426 67.2038 -1.5
      vertex -17.25 67.117 -1.5
    endloop
  endfacet
  facet normal -0.659226 0.751945 0
    outer loop
      vertex -16.9393 64.7573 -1.5
      vertex -17.0869 64.6279 1.5
      vertex -16.9393 64.7573 1.5
    endloop
  endfacet
  facet normal -0.659226 0.751945 0
    outer loop
      vertex -17.0869 64.6279 1.5
      vertex -16.9393 64.7573 -1.5
      vertex -17.0869 64.6279 -1.5
    endloop
  endfacet
  facet normal 0.831422 0.555641 0
    outer loop
      vertex -19.19 64.9048 1.5
      vertex -19.299 65.0679 -1.5
      vertex -19.299 65.0679 1.5
    endloop
  endfacet
  facet normal 0.831422 0.555641 0
    outer loop
      vertex -19.299 65.0679 -1.5
      vertex -19.19 64.9048 1.5
      vertex -19.19 64.9048 -1.5
    endloop
  endfacet
  facet normal -0.89676 -0.442517 0
    outer loop
      vertex -16.6142 66.392 -1.5
      vertex -16.701 66.5679 1.5
      vertex -16.701 66.5679 -1.5
    endloop
  endfacet
  facet normal -0.89676 -0.442517 0
    outer loop
      vertex -16.701 66.5679 1.5
      vertex -16.6142 66.392 -1.5
      vertex -16.6142 66.392 1.5
    endloop
  endfacet
  facet normal 0.065741 0.997837 -0
    outer loop
      vertex -18 64.3179 -1.5
      vertex -18.1958 64.3308 1.5
      vertex -18 64.3179 1.5
    endloop
  endfacet
  facet normal 0.065741 0.997837 0
    outer loop
      vertex -18.1958 64.3308 1.5
      vertex -18 64.3179 -1.5
      vertex -18.1958 64.3308 -1.5
    endloop
  endfacet
  facet normal -0.555641 0.831422 0
    outer loop
      vertex -17.0869 64.6279 -1.5
      vertex -17.25 64.5189 1.5
      vertex -17.0869 64.6279 1.5
    endloop
  endfacet
  facet normal -0.555641 0.831422 0
    outer loop
      vertex -17.25 64.5189 1.5
      vertex -17.0869 64.6279 -1.5
      vertex -17.25 64.5189 -1.5
    endloop
  endfacet
  facet normal 0.0652336 -0.99787 0
    outer loop
      vertex -18.1958 67.3051 -1.5
      vertex -18 67.3179 1.5
      vertex -18.1958 67.3051 1.5
    endloop
  endfacet
  facet normal 0.0652336 -0.99787 0
    outer loop
      vertex -18 67.3179 1.5
      vertex -18.1958 67.3051 -1.5
      vertex -18 67.3179 -1.5
    endloop
  endfacet
  facet normal -0.321574 0.946885 0
    outer loop
      vertex -17.426 64.4321 -1.5
      vertex -17.6118 64.369 1.5
      vertex -17.426 64.4321 1.5
    endloop
  endfacet
  facet normal -0.321574 0.946885 0
    outer loop
      vertex -17.6118 64.369 1.5
      vertex -17.426 64.4321 -1.5
      vertex -17.6118 64.369 -1.5
    endloop
  endfacet
  facet normal 0.195234 -0.980757 0
    outer loop
      vertex -18.3882 67.2668 -1.5
      vertex -18.1958 67.3051 1.5
      vertex -18.3882 67.2668 1.5
    endloop
  endfacet
  facet normal 0.195234 -0.980757 0
    outer loop
      vertex -18.1958 67.3051 1.5
      vertex -18.3882 67.2668 -1.5
      vertex -18.1958 67.3051 -1.5
    endloop
  endfacet
  facet normal 0.946885 0.321574 0
    outer loop
      vertex -19.3858 65.2439 1.5
      vertex -19.4489 65.4297 -1.5
      vertex -19.4489 65.4297 1.5
    endloop
  endfacet
  facet normal 0.946885 0.321574 0
    outer loop
      vertex -19.4489 65.4297 -1.5
      vertex -19.3858 65.2439 1.5
      vertex -19.3858 65.2439 -1.5
    endloop
  endfacet
  facet normal -0.831422 0.555641 0
    outer loop
      vertex -16.81 64.9048 -1.5
      vertex -16.701 65.0679 1.5
      vertex -16.701 65.0679 -1.5
    endloop
  endfacet
  facet normal -0.831422 0.555641 0
    outer loop
      vertex -16.701 65.0679 1.5
      vertex -16.81 64.9048 -1.5
      vertex -16.81 64.9048 1.5
    endloop
  endfacet
  facet normal -0.946885 0.321574 0
    outer loop
      vertex -16.6142 65.2439 -1.5
      vertex -16.5511 65.4297 1.5
      vertex -16.5511 65.4297 -1.5
    endloop
  endfacet
  facet normal -0.946885 0.321574 0
    outer loop
      vertex -16.5511 65.4297 1.5
      vertex -16.6142 65.2439 -1.5
      vertex -16.6142 65.2439 1.5
    endloop
  endfacet
  facet normal 0.194743 0.980854 -0
    outer loop
      vertex -18.1958 64.3308 -1.5
      vertex -18.3882 64.369 1.5
      vertex -18.1958 64.3308 1.5
    endloop
  endfacet
  facet normal 0.194743 0.980854 0
    outer loop
      vertex -18.3882 64.369 1.5
      vertex -18.1958 64.3308 -1.5
      vertex -18.3882 64.369 -1.5
    endloop
  endfacet
  facet normal 0.442315 0.89686 -0
    outer loop
      vertex -18.574 64.4321 -1.5
      vertex -18.75 64.5189 1.5
      vertex -18.574 64.4321 1.5
    endloop
  endfacet
  facet normal 0.442315 0.89686 0
    outer loop
      vertex -18.75 64.5189 1.5
      vertex -18.574 64.4321 -1.5
      vertex -18.75 64.5189 -1.5
    endloop
  endfacet
  facet normal -0.195234 -0.980757 0
    outer loop
      vertex -17.8042 67.3051 -1.5
      vertex -17.6118 67.2668 1.5
      vertex -17.8042 67.3051 1.5
    endloop
  endfacet
  facet normal -0.195234 -0.980757 -0
    outer loop
      vertex -17.6118 67.2668 1.5
      vertex -17.8042 67.3051 -1.5
      vertex -17.6118 67.2668 -1.5
    endloop
  endfacet
  facet normal 0.89676 -0.442517 0
    outer loop
      vertex -19.3858 66.392 1.5
      vertex -19.299 66.5679 -1.5
      vertex -19.299 66.5679 1.5
    endloop
  endfacet
  facet normal 0.89676 -0.442517 0
    outer loop
      vertex -19.299 66.5679 -1.5
      vertex -19.3858 66.392 1.5
      vertex -19.3858 66.392 -1.5
    endloop
  endfacet
  facet normal 0.442315 -0.89686 0
    outer loop
      vertex -18.75 67.117 -1.5
      vertex -18.574 67.2038 1.5
      vertex -18.75 67.117 1.5
    endloop
  endfacet
  facet normal 0.442315 -0.89686 0
    outer loop
      vertex -18.574 67.2038 1.5
      vertex -18.75 67.117 -1.5
      vertex -18.574 67.2038 -1.5
    endloop
  endfacet
  facet normal -0.751976 -0.65919 0
    outer loop
      vertex -16.81 66.7311 -1.5
      vertex -16.9393 66.8786 1.5
      vertex -16.9393 66.8786 -1.5
    endloop
  endfacet
  facet normal -0.751976 -0.65919 0
    outer loop
      vertex -16.9393 66.8786 1.5
      vertex -16.81 66.7311 -1.5
      vertex -16.81 66.7311 1.5
    endloop
  endfacet
  facet normal -0.946885 -0.321574 0
    outer loop
      vertex -16.5511 66.2062 -1.5
      vertex -16.6142 66.392 1.5
      vertex -16.6142 66.392 -1.5
    endloop
  endfacet
  facet normal -0.946885 -0.321574 0
    outer loop
      vertex -16.6142 66.392 1.5
      vertex -16.5511 66.2062 -1.5
      vertex -16.5511 66.2062 1.5
    endloop
  endfacet
  facet normal 0.99787 -0.0652336 0
    outer loop
      vertex -19.5 65.8179 1.5
      vertex -19.4872 66.0137 -1.5
      vertex -19.4872 66.0137 1.5
    endloop
  endfacet
  facet normal 0.99787 -0.0652336 0
    outer loop
      vertex -19.4872 66.0137 -1.5
      vertex -19.5 65.8179 1.5
      vertex -19.5 65.8179 -1.5
    endloop
  endfacet
  facet normal -0.065741 0.997837 0
    outer loop
      vertex -17.8042 64.3308 -1.5
      vertex -18 64.3179 1.5
      vertex -17.8042 64.3308 1.5
    endloop
  endfacet
  facet normal -0.065741 0.997837 0
    outer loop
      vertex -18 64.3179 1.5
      vertex -17.8042 64.3308 -1.5
      vertex -18 64.3179 -1.5
    endloop
  endfacet
  facet normal -0.89686 0.442315 0
    outer loop
      vertex -16.701 65.0679 -1.5
      vertex -16.6142 65.2439 1.5
      vertex -16.6142 65.2439 -1.5
    endloop
  endfacet
  facet normal -0.89686 0.442315 0
    outer loop
      vertex -16.6142 65.2439 1.5
      vertex -16.701 65.0679 -1.5
      vertex -16.701 65.0679 1.5
    endloop
  endfacet
  facet normal 0.751976 -0.65919 0
    outer loop
      vertex -19.19 66.7311 1.5
      vertex -19.0607 66.8786 -1.5
      vertex -19.0607 66.8786 1.5
    endloop
  endfacet
  facet normal 0.751976 -0.65919 0
    outer loop
      vertex -19.0607 66.8786 -1.5
      vertex -19.19 66.7311 1.5
      vertex -19.19 66.7311 -1.5
    endloop
  endfacet
  facet normal -0.980757 -0.195234 0
    outer loop
      vertex -16.5128 -65.6221 -1.5
      vertex -16.5511 -65.4297 1.5
      vertex -16.5511 -65.4297 -1.5
    endloop
  endfacet
  facet normal -0.980757 -0.195234 0
    outer loop
      vertex -16.5511 -65.4297 1.5
      vertex -16.5128 -65.6221 -1.5
      vertex -16.5128 -65.6221 1.5
    endloop
  endfacet
  facet normal -0.99787 -0.0652336 0
    outer loop
      vertex -16.5 -65.8179 -1.5
      vertex -16.5128 -65.6221 1.5
      vertex -16.5128 -65.6221 -1.5
    endloop
  endfacet
  facet normal -0.99787 -0.0652336 0
    outer loop
      vertex -16.5128 -65.6221 1.5
      vertex -16.5 -65.8179 -1.5
      vertex -16.5 -65.8179 1.5
    endloop
  endfacet
  facet normal 0.321117 0.94704 -0
    outer loop
      vertex -18.3882 -67.2668 -1.5
      vertex -18.574 -67.2038 1.5
      vertex -18.3882 -67.2668 1.5
    endloop
  endfacet
  facet normal 0.321117 0.94704 0
    outer loop
      vertex -18.574 -67.2038 1.5
      vertex -18.3882 -67.2668 -1.5
      vertex -18.574 -67.2038 -1.5
    endloop
  endfacet
  facet normal 0.659226 0.751945 -0
    outer loop
      vertex -18.9131 -67.008 -1.5
      vertex -19.0607 -66.8786 1.5
      vertex -18.9131 -67.008 1.5
    endloop
  endfacet
  facet normal 0.659226 0.751945 0
    outer loop
      vertex -19.0607 -66.8786 1.5
      vertex -18.9131 -67.008 -1.5
      vertex -19.0607 -66.8786 -1.5
    endloop
  endfacet
  facet normal -0.659226 -0.751945 0
    outer loop
      vertex -17.0869 -64.6279 -1.5
      vertex -16.9393 -64.7573 1.5
      vertex -17.0869 -64.6279 1.5
    endloop
  endfacet
  facet normal -0.659226 -0.751945 -0
    outer loop
      vertex -16.9393 -64.7573 1.5
      vertex -17.0869 -64.6279 -1.5
      vertex -16.9393 -64.7573 -1.5
    endloop
  endfacet
  facet normal 0.831422 -0.555641 0
    outer loop
      vertex -19.299 -65.0679 1.5
      vertex -19.19 -64.9048 -1.5
      vertex -19.19 -64.9048 1.5
    endloop
  endfacet
  facet normal 0.831422 -0.555641 0
    outer loop
      vertex -19.19 -64.9048 -1.5
      vertex -19.299 -65.0679 1.5
      vertex -19.299 -65.0679 -1.5
    endloop
  endfacet
  facet normal -0.195234 0.980757 0
    outer loop
      vertex -17.6118 -67.2668 -1.5
      vertex -17.8042 -67.3051 1.5
      vertex -17.6118 -67.2668 1.5
    endloop
  endfacet
  facet normal -0.195234 0.980757 0
    outer loop
      vertex -17.8042 -67.3051 1.5
      vertex -17.6118 -67.2668 -1.5
      vertex -17.8042 -67.3051 -1.5
    endloop
  endfacet
  facet normal 0.980776 0.195136 0
    outer loop
      vertex -19.4489 -66.2062 1.5
      vertex -19.4872 -66.0137 -1.5
      vertex -19.4872 -66.0137 1.5
    endloop
  endfacet
  facet normal 0.980776 0.195136 0
    outer loop
      vertex -19.4872 -66.0137 -1.5
      vertex -19.4489 -66.2062 1.5
      vertex -19.4489 -66.2062 -1.5
    endloop
  endfacet
  facet normal 0.99787 0.0652336 0
    outer loop
      vertex -19.4872 -66.0137 1.5
      vertex -19.5 -65.8179 -1.5
      vertex -19.5 -65.8179 1.5
    endloop
  endfacet
  facet normal 0.99787 0.0652336 0
    outer loop
      vertex -19.5 -65.8179 -1.5
      vertex -19.4872 -66.0137 1.5
      vertex -19.4872 -66.0137 -1.5
    endloop
  endfacet
  facet normal -0.065741 -0.997837 0
    outer loop
      vertex -18 -64.3179 -1.5
      vertex -17.8042 -64.3308 1.5
      vertex -18 -64.3179 1.5
    endloop
  endfacet
  facet normal -0.065741 -0.997837 -0
    outer loop
      vertex -17.8042 -64.3308 1.5
      vertex -18 -64.3179 -1.5
      vertex -17.8042 -64.3308 -1.5
    endloop
  endfacet
  facet normal -0.99787 0.0652336 0
    outer loop
      vertex -16.5128 -66.0137 -1.5
      vertex -16.5 -65.8179 1.5
      vertex -16.5 -65.8179 -1.5
    endloop
  endfacet
  facet normal -0.99787 0.0652336 0
    outer loop
      vertex -16.5 -65.8179 1.5
      vertex -16.5128 -66.0137 -1.5
      vertex -16.5128 -66.0137 1.5
    endloop
  endfacet
  facet normal 0.980757 -0.195234 0
    outer loop
      vertex -19.4872 -65.6221 1.5
      vertex -19.4489 -65.4297 -1.5
      vertex -19.4489 -65.4297 1.5
    endloop
  endfacet
  facet normal 0.980757 -0.195234 0
    outer loop
      vertex -19.4489 -65.4297 -1.5
      vertex -19.4872 -65.6221 1.5
      vertex -19.4872 -65.6221 -1.5
    endloop
  endfacet
  facet normal -0.831422 -0.555641 0
    outer loop
      vertex -16.701 -65.0679 -1.5
      vertex -16.81 -64.9048 1.5
      vertex -16.81 -64.9048 -1.5
    endloop
  endfacet
  facet normal -0.831422 -0.555641 0
    outer loop
      vertex -16.81 -64.9048 1.5
      vertex -16.701 -65.0679 -1.5
      vertex -16.701 -65.0679 1.5
    endloop
  endfacet
  facet normal -0.946885 -0.321574 0
    outer loop
      vertex -16.5511 -65.4297 -1.5
      vertex -16.6142 -65.2439 1.5
      vertex -16.6142 -65.2439 -1.5
    endloop
  endfacet
  facet normal -0.946885 -0.321574 0
    outer loop
      vertex -16.6142 -65.2439 1.5
      vertex -16.5511 -65.4297 -1.5
      vertex -16.5511 -65.4297 1.5
    endloop
  endfacet
  facet normal 0.946885 -0.321574 0
    outer loop
      vertex -19.4489 -65.4297 1.5
      vertex -19.3858 -65.2439 -1.5
      vertex -19.3858 -65.2439 1.5
    endloop
  endfacet
  facet normal 0.946885 -0.321574 0
    outer loop
      vertex -19.3858 -65.2439 -1.5
      vertex -19.4489 -65.4297 1.5
      vertex -19.4489 -65.4297 -1.5
    endloop
  endfacet
  facet normal 0.99787 -0.0652336 0
    outer loop
      vertex -19.5 -65.8179 1.5
      vertex -19.4872 -65.6221 -1.5
      vertex -19.4872 -65.6221 1.5
    endloop
  endfacet
  facet normal 0.99787 -0.0652336 0
    outer loop
      vertex -19.4872 -65.6221 -1.5
      vertex -19.5 -65.8179 1.5
      vertex -19.5 -65.8179 -1.5
    endloop
  endfacet
  facet normal 0.555641 0.831422 -0
    outer loop
      vertex -18.75 -67.117 -1.5
      vertex -18.9131 -67.008 1.5
      vertex -18.75 -67.117 1.5
    endloop
  endfacet
  facet normal 0.555641 0.831422 0
    outer loop
      vertex -18.9131 -67.008 1.5
      vertex -18.75 -67.117 -1.5
      vertex -18.9131 -67.008 -1.5
    endloop
  endfacet
  facet normal -0.321574 -0.946885 0
    outer loop
      vertex -17.6118 -64.369 -1.5
      vertex -17.426 -64.4321 1.5
      vertex -17.6118 -64.369 1.5
    endloop
  endfacet
  facet normal -0.321574 -0.946885 -0
    outer loop
      vertex -17.426 -64.4321 1.5
      vertex -17.6118 -64.369 -1.5
      vertex -17.426 -64.4321 -1.5
    endloop
  endfacet
  facet normal -0.751976 0.65919 0
    outer loop
      vertex -16.9393 -66.8786 -1.5
      vertex -16.81 -66.7311 1.5
      vertex -16.81 -66.7311 -1.5
    endloop
  endfacet
  facet normal -0.751976 0.65919 0
    outer loop
      vertex -16.81 -66.7311 1.5
      vertex -16.9393 -66.8786 -1.5
      vertex -16.9393 -66.8786 1.5
    endloop
  endfacet
  facet normal -0.442315 0.89686 0
    outer loop
      vertex -17.25 -67.117 -1.5
      vertex -17.426 -67.2038 1.5
      vertex -17.25 -67.117 1.5
    endloop
  endfacet
  facet normal -0.442315 0.89686 0
    outer loop
      vertex -17.426 -67.2038 1.5
      vertex -17.25 -67.117 -1.5
      vertex -17.426 -67.2038 -1.5
    endloop
  endfacet
  facet normal -0.980776 0.195136 0
    outer loop
      vertex -16.5511 -66.2062 -1.5
      vertex -16.5128 -66.0137 1.5
      vertex -16.5128 -66.0137 -1.5
    endloop
  endfacet
  facet normal -0.980776 0.195136 0
    outer loop
      vertex -16.5128 -66.0137 1.5
      vertex -16.5511 -66.2062 -1.5
      vertex -16.5511 -66.2062 1.5
    endloop
  endfacet
  facet normal -0.555641 -0.831422 0
    outer loop
      vertex -17.25 -64.5189 -1.5
      vertex -17.0869 -64.6279 1.5
      vertex -17.25 -64.5189 1.5
    endloop
  endfacet
  facet normal -0.555641 -0.831422 -0
    outer loop
      vertex -17.0869 -64.6279 1.5
      vertex -17.25 -64.5189 -1.5
      vertex -17.0869 -64.6279 -1.5
    endloop
  endfacet
  facet normal 0.89676 0.442517 0
    outer loop
      vertex -19.299 -66.5679 1.5
      vertex -19.3858 -66.392 -1.5
      vertex -19.3858 -66.392 1.5
    endloop
  endfacet
  facet normal 0.89676 0.442517 0
    outer loop
      vertex -19.3858 -66.392 -1.5
      vertex -19.299 -66.5679 1.5
      vertex -19.299 -66.5679 -1.5
    endloop
  endfacet
  facet normal 0.751976 0.65919 0
    outer loop
      vertex -19.0607 -66.8786 1.5
      vertex -19.19 -66.7311 -1.5
      vertex -19.19 -66.7311 1.5
    endloop
  endfacet
  facet normal 0.751976 0.65919 0
    outer loop
      vertex -19.19 -66.7311 -1.5
      vertex -19.0607 -66.8786 1.5
      vertex -19.0607 -66.8786 -1.5
    endloop
  endfacet
  facet normal 0.659226 -0.751945 0
    outer loop
      vertex -19.0607 -64.7573 -1.5
      vertex -18.9131 -64.6279 1.5
      vertex -19.0607 -64.7573 1.5
    endloop
  endfacet
  facet normal 0.659226 -0.751945 0
    outer loop
      vertex -18.9131 -64.6279 1.5
      vertex -19.0607 -64.7573 -1.5
      vertex -18.9131 -64.6279 -1.5
    endloop
  endfacet
  facet normal 0.555641 -0.831422 0
    outer loop
      vertex -18.9131 -64.6279 -1.5
      vertex -18.75 -64.5189 1.5
      vertex -18.9131 -64.6279 1.5
    endloop
  endfacet
  facet normal 0.555641 -0.831422 0
    outer loop
      vertex -18.75 -64.5189 1.5
      vertex -18.9131 -64.6279 -1.5
      vertex -18.75 -64.5189 -1.5
    endloop
  endfacet
  facet normal 0.321574 -0.946885 0
    outer loop
      vertex -18.574 -64.4321 -1.5
      vertex -18.3882 -64.369 1.5
      vertex -18.574 -64.4321 1.5
    endloop
  endfacet
  facet normal 0.321574 -0.946885 0
    outer loop
      vertex -18.3882 -64.369 1.5
      vertex -18.574 -64.4321 -1.5
      vertex -18.3882 -64.369 -1.5
    endloop
  endfacet
  facet normal -0.442315 -0.89686 0
    outer loop
      vertex -17.426 -64.4321 -1.5
      vertex -17.25 -64.5189 1.5
      vertex -17.426 -64.4321 1.5
    endloop
  endfacet
  facet normal -0.442315 -0.89686 -0
    outer loop
      vertex -17.25 -64.5189 1.5
      vertex -17.426 -64.4321 -1.5
      vertex -17.25 -64.5189 -1.5
    endloop
  endfacet
  facet normal -0.659226 0.751945 0
    outer loop
      vertex -16.9393 -66.8786 -1.5
      vertex -17.0869 -67.008 1.5
      vertex -16.9393 -66.8786 1.5
    endloop
  endfacet
  facet normal -0.659226 0.751945 0
    outer loop
      vertex -17.0869 -67.008 1.5
      vertex -16.9393 -66.8786 -1.5
      vertex -17.0869 -67.008 -1.5
    endloop
  endfacet
  facet normal 0.83158 0.555406 0
    outer loop
      vertex -19.19 -66.7311 1.5
      vertex -19.299 -66.5679 -1.5
      vertex -19.299 -66.5679 1.5
    endloop
  endfacet
  facet normal 0.83158 0.555406 0
    outer loop
      vertex -19.299 -66.5679 -1.5
      vertex -19.19 -66.7311 1.5
      vertex -19.19 -66.7311 -1.5
    endloop
  endfacet
  facet normal -0.321117 0.94704 0
    outer loop
      vertex -17.426 -67.2038 -1.5
      vertex -17.6118 -67.2668 1.5
      vertex -17.426 -67.2038 1.5
    endloop
  endfacet
  facet normal -0.321117 0.94704 0
    outer loop
      vertex -17.6118 -67.2668 1.5
      vertex -17.426 -67.2038 -1.5
      vertex -17.6118 -67.2668 -1.5
    endloop
  endfacet
  facet normal -0.89686 -0.442315 0
    outer loop
      vertex -16.6142 -65.2439 -1.5
      vertex -16.701 -65.0679 1.5
      vertex -16.701 -65.0679 -1.5
    endloop
  endfacet
  facet normal -0.89686 -0.442315 0
    outer loop
      vertex -16.701 -65.0679 1.5
      vertex -16.6142 -65.2439 -1.5
      vertex -16.6142 -65.2439 1.5
    endloop
  endfacet
  facet normal 0.0652336 0.99787 -0
    outer loop
      vertex -18 -67.3179 -1.5
      vertex -18.1958 -67.3051 1.5
      vertex -18 -67.3179 1.5
    endloop
  endfacet
  facet normal 0.0652336 0.99787 0
    outer loop
      vertex -18.1958 -67.3051 1.5
      vertex -18 -67.3179 -1.5
      vertex -18.1958 -67.3051 -1.5
    endloop
  endfacet
  facet normal -0.555641 0.831422 0
    outer loop
      vertex -17.0869 -67.008 -1.5
      vertex -17.25 -67.117 1.5
      vertex -17.0869 -67.008 1.5
    endloop
  endfacet
  facet normal -0.555641 0.831422 0
    outer loop
      vertex -17.25 -67.117 1.5
      vertex -17.0869 -67.008 -1.5
      vertex -17.25 -67.117 -1.5
    endloop
  endfacet
  facet normal 0.065741 -0.997837 0
    outer loop
      vertex -18.1958 -64.3308 -1.5
      vertex -18 -64.3179 1.5
      vertex -18.1958 -64.3308 1.5
    endloop
  endfacet
  facet normal 0.065741 -0.997837 0
    outer loop
      vertex -18 -64.3179 1.5
      vertex -18.1958 -64.3308 -1.5
      vertex -18 -64.3179 -1.5
    endloop
  endfacet
  facet normal 0.194743 -0.980854 0
    outer loop
      vertex -18.3882 -64.369 -1.5
      vertex -18.1958 -64.3308 1.5
      vertex -18.3882 -64.369 1.5
    endloop
  endfacet
  facet normal 0.194743 -0.980854 0
    outer loop
      vertex -18.1958 -64.3308 1.5
      vertex -18.3882 -64.369 -1.5
      vertex -18.1958 -64.3308 -1.5
    endloop
  endfacet
  facet normal 0.946885 0.321574 0
    outer loop
      vertex -19.3858 -66.392 1.5
      vertex -19.4489 -66.2062 -1.5
      vertex -19.4489 -66.2062 1.5
    endloop
  endfacet
  facet normal 0.946885 0.321574 0
    outer loop
      vertex -19.4489 -66.2062 -1.5
      vertex -19.3858 -66.392 1.5
      vertex -19.3858 -66.392 -1.5
    endloop
  endfacet
  facet normal -0.83158 0.555406 0
    outer loop
      vertex -16.81 -66.7311 -1.5
      vertex -16.701 -66.5679 1.5
      vertex -16.701 -66.5679 -1.5
    endloop
  endfacet
  facet normal -0.83158 0.555406 0
    outer loop
      vertex -16.701 -66.5679 1.5
      vertex -16.81 -66.7311 -1.5
      vertex -16.81 -66.7311 1.5
    endloop
  endfacet
  facet normal -0.946885 0.321574 0
    outer loop
      vertex -16.6142 -66.392 -1.5
      vertex -16.5511 -66.2062 1.5
      vertex -16.5511 -66.2062 -1.5
    endloop
  endfacet
  facet normal -0.946885 0.321574 0
    outer loop
      vertex -16.5511 -66.2062 1.5
      vertex -16.6142 -66.392 -1.5
      vertex -16.6142 -66.392 1.5
    endloop
  endfacet
  facet normal 0.195234 0.980757 -0
    outer loop
      vertex -18.1958 -67.3051 -1.5
      vertex -18.3882 -67.2668 1.5
      vertex -18.1958 -67.3051 1.5
    endloop
  endfacet
  facet normal 0.195234 0.980757 0
    outer loop
      vertex -18.3882 -67.2668 1.5
      vertex -18.1958 -67.3051 -1.5
      vertex -18.3882 -67.2668 -1.5
    endloop
  endfacet
  facet normal 0.442315 0.89686 -0
    outer loop
      vertex -18.574 -67.2038 -1.5
      vertex -18.75 -67.117 1.5
      vertex -18.574 -67.2038 1.5
    endloop
  endfacet
  facet normal 0.442315 0.89686 0
    outer loop
      vertex -18.75 -67.117 1.5
      vertex -18.574 -67.2038 -1.5
      vertex -18.75 -67.117 -1.5
    endloop
  endfacet
  facet normal -0.194743 -0.980854 0
    outer loop
      vertex -17.8042 -64.3308 -1.5
      vertex -17.6118 -64.369 1.5
      vertex -17.8042 -64.3308 1.5
    endloop
  endfacet
  facet normal -0.194743 -0.980854 -0
    outer loop
      vertex -17.6118 -64.369 1.5
      vertex -17.8042 -64.3308 -1.5
      vertex -17.6118 -64.369 -1.5
    endloop
  endfacet
  facet normal 0.89686 -0.442315 0
    outer loop
      vertex -19.3858 -65.2439 1.5
      vertex -19.299 -65.0679 -1.5
      vertex -19.299 -65.0679 1.5
    endloop
  endfacet
  facet normal 0.89686 -0.442315 0
    outer loop
      vertex -19.299 -65.0679 -1.5
      vertex -19.3858 -65.2439 1.5
      vertex -19.3858 -65.2439 -1.5
    endloop
  endfacet
  facet normal 0.442315 -0.89686 0
    outer loop
      vertex -18.75 -64.5189 -1.5
      vertex -18.574 -64.4321 1.5
      vertex -18.75 -64.5189 1.5
    endloop
  endfacet
  facet normal 0.442315 -0.89686 0
    outer loop
      vertex -18.574 -64.4321 1.5
      vertex -18.75 -64.5189 -1.5
      vertex -18.574 -64.4321 -1.5
    endloop
  endfacet
  facet normal -0.0652336 0.99787 0
    outer loop
      vertex -17.8042 -67.3051 -1.5
      vertex -18 -67.3179 1.5
      vertex -17.8042 -67.3051 1.5
    endloop
  endfacet
  facet normal -0.0652336 0.99787 0
    outer loop
      vertex -18 -67.3179 1.5
      vertex -17.8042 -67.3051 -1.5
      vertex -18 -67.3179 -1.5
    endloop
  endfacet
  facet normal -0.751976 -0.65919 0
    outer loop
      vertex -16.81 -64.9048 -1.5
      vertex -16.9393 -64.7573 1.5
      vertex -16.9393 -64.7573 -1.5
    endloop
  endfacet
  facet normal -0.751976 -0.65919 0
    outer loop
      vertex -16.9393 -64.7573 1.5
      vertex -16.81 -64.9048 -1.5
      vertex -16.81 -64.9048 1.5
    endloop
  endfacet
  facet normal -0.89676 0.442517 0
    outer loop
      vertex -16.701 -66.5679 -1.5
      vertex -16.6142 -66.392 1.5
      vertex -16.6142 -66.392 -1.5
    endloop
  endfacet
  facet normal -0.89676 0.442517 0
    outer loop
      vertex -16.6142 -66.392 1.5
      vertex -16.701 -66.5679 -1.5
      vertex -16.701 -66.5679 1.5
    endloop
  endfacet
  facet normal 0.751976 -0.65919 0
    outer loop
      vertex -19.19 -64.9048 1.5
      vertex -19.0607 -64.7573 -1.5
      vertex -19.0607 -64.7573 1.5
    endloop
  endfacet
  facet normal 0.751976 -0.65919 0
    outer loop
      vertex -19.0607 -64.7573 -1.5
      vertex -19.19 -64.9048 1.5
      vertex -19.19 -64.9048 -1.5
    endloop
  endfacet
endsolid OpenSCAD_Model
