solid OpenSCAD_Model
  facet normal 1 -0 0
    outer loop
      vertex 105 -30 1.5
      vertex 105 30 -1.5
      vertex 105 30 1.5
    endloop
  endfacet
  facet normal 1 0 0
    outer loop
      vertex 105 30 -1.5
      vertex 105 -30 1.5
      vertex 105 -30 -1.5
    endloop
  endfacet
  facet normal 0 0 1
    outer loop
      vertex 105 30 1.5
      vertex 101 -21 1.5
      vertex 105 -30 1.5
    endloop
  endfacet
  facet normal 0 0 1
    outer loop
      vertex 105 30 1.5
      vertex 93 -21 1.5
      vertex 101 -21 1.5
    endloop
  endfacet
  facet normal 0 0 1
    outer loop
      vertex 105 30 1.5
      vertex 4 21 1.5
      vertex 93 -21 1.5
    endloop
  endfacet
  facet normal 0 0 1
    outer loop
      vertex 4 21 1.5
      vertex 105 30 1.5
      vertex 4 23 1.5
    endloop
  endfacet
  facet normal 0 0 1
    outer loop
      vertex 105 30 1.5
      vertex -4 23 1.5
      vertex 4 23 1.5
    endloop
  endfacet
  facet normal 0 0 1
    outer loop
      vertex -105 30 1.5
      vertex -4 21 1.5
      vertex -4 23 1.5
    endloop
  endfacet
  facet normal 0 0 1
    outer loop
      vertex -4 21 1.5
      vertex -105 30 1.5
      vertex -93 -21 1.5
    endloop
  endfacet
  facet normal 0 0 1
    outer loop
      vertex -105 -30 1.5
      vertex -101 -21 1.5
      vertex -105 30 1.5
    endloop
  endfacet
  facet normal 0 0 1
    outer loop
      vertex -93 -21 1.5
      vertex -105 30 1.5
      vertex -101 -21 1.5
    endloop
  endfacet
  facet normal -0 0 1
    outer loop
      vertex -105 30 1.5
      vertex -4 23 1.5
      vertex 105 30 1.5
    endloop
  endfacet
  facet normal -0 0 1
    outer loop
      vertex 101 -23 1.5
      vertex 105 -30 1.5
      vertex 101 -21 1.5
    endloop
  endfacet
  facet normal -0 0 1
    outer loop
      vertex 93 -23 1.5
      vertex 105 -30 1.5
      vertex 101 -23 1.5
    endloop
  endfacet
  facet normal 0 0 1
    outer loop
      vertex 93 -21 1.5
      vertex 4 21 1.5
      vertex 93 -23 1.5
    endloop
  endfacet
  facet normal 0 0 1
    outer loop
      vertex -93 -23 1.5
      vertex 93 -23 1.5
      vertex 4 21 1.5
    endloop
  endfacet
  facet normal 0 0 1
    outer loop
      vertex -93 -23 1.5
      vertex 4 21 1.5
      vertex -4 21 1.5
    endloop
  endfacet
  facet normal 0 0 1
    outer loop
      vertex -93 -23 1.5
      vertex -4 21 1.5
      vertex -93 -21 1.5
    endloop
  endfacet
  facet normal 0 0 1
    outer loop
      vertex 93 -23 1.5
      vertex -93 -23 1.5
      vertex 105 -30 1.5
    endloop
  endfacet
  facet normal 0 0 1
    outer loop
      vertex -105 -30 1.5
      vertex -93 -23 1.5
      vertex -101 -23 1.5
    endloop
  endfacet
  facet normal 0 0 1
    outer loop
      vertex -93 -23 1.5
      vertex -105 -30 1.5
      vertex 105 -30 1.5
    endloop
  endfacet
  facet normal 0 0 1
    outer loop
      vertex -101 -21 1.5
      vertex -105 -30 1.5
      vertex -101 -23 1.5
    endloop
  endfacet
  facet normal 0 0 -1
    outer loop
      vertex 101 -21 -1.5
      vertex 105 -30 -1.5
      vertex 101 -23 -1.5
    endloop
  endfacet
  facet normal 0 0 -1
    outer loop
      vertex 105 -30 -1.5
      vertex 93 -23 -1.5
      vertex 101 -23 -1.5
    endloop
  endfacet
  facet normal 0 0 -1
    outer loop
      vertex 93 -23 -1.5
      vertex 4 21 -1.5
      vertex 93 -21 -1.5
    endloop
  endfacet
  facet normal 0 0 -1
    outer loop
      vertex -93 -23 -1.5
      vertex 93 -23 -1.5
      vertex 105 -30 -1.5
    endloop
  endfacet
  facet normal 0 0 -1
    outer loop
      vertex 93 -23 -1.5
      vertex -93 -23 -1.5
      vertex 4 21 -1.5
    endloop
  endfacet
  facet normal 0 0 -1
    outer loop
      vertex -93 -21 -1.5
      vertex -4 21 -1.5
      vertex -93 -23 -1.5
    endloop
  endfacet
  facet normal -0 0 -1
    outer loop
      vertex 4 21 -1.5
      vertex -93 -23 -1.5
      vertex -4 21 -1.5
    endloop
  endfacet
  facet normal 0 0 -1
    outer loop
      vertex -105 -30 -1.5
      vertex -93 -23 -1.5
      vertex 105 -30 -1.5
    endloop
  endfacet
  facet normal -0 0 -1
    outer loop
      vertex -101 -23 -1.5
      vertex -105 -30 -1.5
      vertex -101 -21 -1.5
    endloop
  endfacet
  facet normal -0 0 -1
    outer loop
      vertex -93 -23 -1.5
      vertex -105 -30 -1.5
      vertex -101 -23 -1.5
    endloop
  endfacet
  facet normal 0 0 -1
    outer loop
      vertex 105 -30 -1.5
      vertex 101 -21 -1.5
      vertex 105 30 -1.5
    endloop
  endfacet
  facet normal 0 0 -1
    outer loop
      vertex 93 -21 -1.5
      vertex 105 30 -1.5
      vertex 101 -21 -1.5
    endloop
  endfacet
  facet normal 0 0 -1
    outer loop
      vertex 4 21 -1.5
      vertex 105 30 -1.5
      vertex 93 -21 -1.5
    endloop
  endfacet
  facet normal 0 0 -1
    outer loop
      vertex 4 23 -1.5
      vertex 105 30 -1.5
      vertex 4 21 -1.5
    endloop
  endfacet
  facet normal 0 0 -1
    outer loop
      vertex -4 23 -1.5
      vertex 105 30 -1.5
      vertex 4 23 -1.5
    endloop
  endfacet
  facet normal 0 0 -1
    outer loop
      vertex -105 30 -1.5
      vertex -4 21 -1.5
      vertex -93 -21 -1.5
    endloop
  endfacet
  facet normal 0 0 -1
    outer loop
      vertex -105 30 -1.5
      vertex -93 -21 -1.5
      vertex -101 -21 -1.5
    endloop
  endfacet
  facet normal 0 0 -1
    outer loop
      vertex -4 23 -1.5
      vertex -105 30 -1.5
      vertex 105 30 -1.5
    endloop
  endfacet
  facet normal 0 0 -1
    outer loop
      vertex -4 21 -1.5
      vertex -105 30 -1.5
      vertex -4 23 -1.5
    endloop
  endfacet
  facet normal 0 0 -1
    outer loop
      vertex -105 30 -1.5
      vertex -101 -21 -1.5
      vertex -105 -30 -1.5
    endloop
  endfacet
  facet normal -1 0 0
    outer loop
      vertex -105 -30 -1.5
      vertex -105 30 1.5
      vertex -105 30 -1.5
    endloop
  endfacet
  facet normal -1 -0 0
    outer loop
      vertex -105 30 1.5
      vertex -105 -30 -1.5
      vertex -105 -30 1.5
    endloop
  endfacet
  facet normal 0 1 -0
    outer loop
      vertex 105 30 -1.5
      vertex -105 30 1.5
      vertex 105 30 1.5
    endloop
  endfacet
  facet normal 0 1 0
    outer loop
      vertex -105 30 1.5
      vertex 105 30 -1.5
      vertex -105 30 -1.5
    endloop
  endfacet
  facet normal 0 -1 0
    outer loop
      vertex -105 -30 -1.5
      vertex 105 -30 1.5
      vertex -105 -30 1.5
    endloop
  endfacet
  facet normal 0 -1 -0
    outer loop
      vertex 105 -30 1.5
      vertex -105 -30 -1.5
      vertex 105 -30 -1.5
    endloop
  endfacet
  facet normal -1 0 0
    outer loop
      vertex -93 -23 -1.5
      vertex -93 -21 1.5
      vertex -93 -21 -1.5
    endloop
  endfacet
  facet normal -1 -0 0
    outer loop
      vertex -93 -21 1.5
      vertex -93 -23 -1.5
      vertex -93 -23 1.5
    endloop
  endfacet
  facet normal 1 -0 0
    outer loop
      vertex -101 -23 1.5
      vertex -101 -21 -1.5
      vertex -101 -21 1.5
    endloop
  endfacet
  facet normal 1 0 0
    outer loop
      vertex -101 -21 -1.5
      vertex -101 -23 1.5
      vertex -101 -23 -1.5
    endloop
  endfacet
  facet normal 0 -1 0
    outer loop
      vertex -101 -21 -1.5
      vertex -93 -21 1.5
      vertex -101 -21 1.5
    endloop
  endfacet
  facet normal 0 -1 -0
    outer loop
      vertex -93 -21 1.5
      vertex -101 -21 -1.5
      vertex -93 -21 -1.5
    endloop
  endfacet
  facet normal 0 1 -0
    outer loop
      vertex -93 -23 -1.5
      vertex -101 -23 1.5
      vertex -93 -23 1.5
    endloop
  endfacet
  facet normal 0 1 0
    outer loop
      vertex -101 -23 1.5
      vertex -93 -23 -1.5
      vertex -101 -23 -1.5
    endloop
  endfacet
  facet normal -1 0 0
    outer loop
      vertex 101 -23 -1.5
      vertex 101 -21 1.5
      vertex 101 -21 -1.5
    endloop
  endfacet
  facet normal -1 -0 0
    outer loop
      vertex 101 -21 1.5
      vertex 101 -23 -1.5
      vertex 101 -23 1.5
    endloop
  endfacet
  facet normal 1 -0 0
    outer loop
      vertex 93 -23 1.5
      vertex 93 -21 -1.5
      vertex 93 -21 1.5
    endloop
  endfacet
  facet normal 1 0 0
    outer loop
      vertex 93 -21 -1.5
      vertex 93 -23 1.5
      vertex 93 -23 -1.5
    endloop
  endfacet
  facet normal 0 -1 0
    outer loop
      vertex 93 -21 -1.5
      vertex 101 -21 1.5
      vertex 93 -21 1.5
    endloop
  endfacet
  facet normal 0 -1 -0
    outer loop
      vertex 101 -21 1.5
      vertex 93 -21 -1.5
      vertex 101 -21 -1.5
    endloop
  endfacet
  facet normal 0 1 -0
    outer loop
      vertex 101 -23 -1.5
      vertex 93 -23 1.5
      vertex 101 -23 1.5
    endloop
  endfacet
  facet normal 0 1 0
    outer loop
      vertex 93 -23 1.5
      vertex 101 -23 -1.5
      vertex 93 -23 -1.5
    endloop
  endfacet
  facet normal -1 0 0
    outer loop
      vertex 4 21 -1.5
      vertex 4 23 1.5
      vertex 4 23 -1.5
    endloop
  endfacet
  facet normal -1 -0 0
    outer loop
      vertex 4 23 1.5
      vertex 4 21 -1.5
      vertex 4 21 1.5
    endloop
  endfacet
  facet normal 1 -0 0
    outer loop
      vertex -4 21 1.5
      vertex -4 23 -1.5
      vertex -4 23 1.5
    endloop
  endfacet
  facet normal 1 0 0
    outer loop
      vertex -4 23 -1.5
      vertex -4 21 1.5
      vertex -4 21 -1.5
    endloop
  endfacet
  facet normal 0 -1 0
    outer loop
      vertex -4 23 -1.5
      vertex 4 23 1.5
      vertex -4 23 1.5
    endloop
  endfacet
  facet normal 0 -1 -0
    outer loop
      vertex 4 23 1.5
      vertex -4 23 -1.5
      vertex 4 23 -1.5
    endloop
  endfacet
  facet normal 0 1 -0
    outer loop
      vertex 4 21 -1.5
      vertex -4 21 1.5
      vertex 4 21 1.5
    endloop
  endfacet
  facet normal 0 1 0
    outer loop
      vertex -4 21 1.5
      vertex 4 21 -1.5
      vertex -4 21 -1.5
    endloop
  endfacet
endsolid OpenSCAD_Model
