solid OpenSCAD_Model
  facet normal 1 -0 0
    outer loop
      vertex 65 -35 1
      vertex 65 35 -1
      vertex 65 35 1
    endloop
  endfacet
  facet normal 1 0 0
    outer loop
      vertex 65 35 -1
      vertex 65 -35 1
      vertex 65 -35 -1
    endloop
  endfacet
  facet normal 0 0 1
    outer loop
      vertex 65 35 1
      vertex 60 0 1
      vertex 65 -35 1
    endloop
  endfacet
  facet normal 0 0 1
    outer loop
      vertex 65 35 1
      vertex 59.9829 0.261052 1
      vertex 60 0 1
    endloop
  endfacet
  facet normal 0 0 1
    outer loop
      vertex 65 35 1
      vertex 59.9319 0.517637 1
      vertex 59.9829 0.261052 1
    endloop
  endfacet
  facet normal 0 0 1
    outer loop
      vertex 65 35 1
      vertex 59.8478 0.765367 1
      vertex 59.9319 0.517637 1
    endloop
  endfacet
  facet normal 0 0 1
    outer loop
      vertex 65 35 1
      vertex 59.732 1 1
      vertex 59.8478 0.765367 1
    endloop
  endfacet
  facet normal 0 0 1
    outer loop
      vertex 65 35 1
      vertex 59.5867 1.21752 1
      vertex 59.732 1 1
    endloop
  endfacet
  facet normal 0 0 1
    outer loop
      vertex 65 35 1
      vertex 59.4142 1.41421 1
      vertex 59.5867 1.21752 1
    endloop
  endfacet
  facet normal 0 0 1
    outer loop
      vertex 65 35 1
      vertex 59.2175 1.58671 1
      vertex 59.4142 1.41421 1
    endloop
  endfacet
  facet normal 0 0 1
    outer loop
      vertex 65 35 1
      vertex 59 1.73205 1
      vertex 59.2175 1.58671 1
    endloop
  endfacet
  facet normal 0 0 1
    outer loop
      vertex 65 35 1
      vertex 58.7654 1.84776 1
      vertex 59 1.73205 1
    endloop
  endfacet
  facet normal 0 0 1
    outer loop
      vertex 65 35 1
      vertex 58.5176 1.93185 1
      vertex 58.7654 1.84776 1
    endloop
  endfacet
  facet normal 0 0 1
    outer loop
      vertex 65 35 1
      vertex 58.2611 1.98289 1
      vertex 58.5176 1.93185 1
    endloop
  endfacet
  facet normal 0 0 1
    outer loop
      vertex 65 35 1
      vertex 58 2 1
      vertex 58.2611 1.98289 1
    endloop
  endfacet
  facet normal 0 0 1
    outer loop
      vertex 65 35 1
      vertex 57.7389 1.98289 1
      vertex 58 2 1
    endloop
  endfacet
  facet normal 0 0 1
    outer loop
      vertex 65 35 1
      vertex 57.4824 1.93185 1
      vertex 57.7389 1.98289 1
    endloop
  endfacet
  facet normal 0 0 1
    outer loop
      vertex 65 35 1
      vertex 57.2346 1.84776 1
      vertex 57.4824 1.93185 1
    endloop
  endfacet
  facet normal 0 0 1
    outer loop
      vertex 65 35 1
      vertex 57 1.73205 1
      vertex 57.2346 1.84776 1
    endloop
  endfacet
  facet normal 0 0 1
    outer loop
      vertex 65 35 1
      vertex 56.7825 1.58671 1
      vertex 57 1.73205 1
    endloop
  endfacet
  facet normal 0 0 1
    outer loop
      vertex 65 35 1
      vertex 56.5858 1.41421 1
      vertex 56.7825 1.58671 1
    endloop
  endfacet
  facet normal 0 0 1
    outer loop
      vertex 65 35 1
      vertex 56.4133 1.21752 1
      vertex 56.5858 1.41421 1
    endloop
  endfacet
  facet normal 0 0 1
    outer loop
      vertex 65 35 1
      vertex 56.2679 1 1
      vertex 56.4133 1.21752 1
    endloop
  endfacet
  facet normal 0 0 1
    outer loop
      vertex -56.2679 1 1
      vertex 56.2679 1 1
      vertex 65 35 1
    endloop
  endfacet
  facet normal 0 0 1
    outer loop
      vertex 56.2679 1 1
      vertex -56.2679 1 1
      vertex 56.1522 0.765367 1
    endloop
  endfacet
  facet normal 0 0 1
    outer loop
      vertex 56.0171 0.261052 1
      vertex -56 0 1
      vertex 56 0 1
    endloop
  endfacet
  facet normal 0 0 1
    outer loop
      vertex -56.0171 0.261052 1
      vertex 56.0171 0.261052 1
      vertex 56.0681 0.517637 1
    endloop
  endfacet
  facet normal 0 -0 1
    outer loop
      vertex -56.1522 0.765367 1
      vertex 56.1522 0.765367 1
      vertex -56.2679 1 1
    endloop
  endfacet
  facet normal 0 0 1
    outer loop
      vertex 56.0171 0.261052 1
      vertex -56.0171 0.261052 1
      vertex -56 0 1
    endloop
  endfacet
  facet normal 0 0 1
    outer loop
      vertex 56.0681 0.517637 1
      vertex -56.0681 0.517637 1
      vertex -56.0171 0.261052 1
    endloop
  endfacet
  facet normal 0 0 1
    outer loop
      vertex 56.0681 0.517637 1
      vertex -56.1522 0.765367 1
      vertex -56.0681 0.517637 1
    endloop
  endfacet
  facet normal 0 0 1
    outer loop
      vertex 56.1522 0.765367 1
      vertex -56.1522 0.765367 1
      vertex 56.0681 0.517637 1
    endloop
  endfacet
  facet normal -0 0 1
    outer loop
      vertex -65 35 1
      vertex -56.2679 1 1
      vertex 65 35 1
    endloop
  endfacet
  facet normal 0 0 1
    outer loop
      vertex -56.2679 1 1
      vertex -65 35 1
      vertex -56.4133 1.21752 1
    endloop
  endfacet
  facet normal 0 0 1
    outer loop
      vertex -56.4133 1.21752 1
      vertex -65 35 1
      vertex -56.5858 1.41421 1
    endloop
  endfacet
  facet normal 0 0 1
    outer loop
      vertex -56.5858 1.41421 1
      vertex -65 35 1
      vertex -56.7825 1.58671 1
    endloop
  endfacet
  facet normal 0 0 1
    outer loop
      vertex -56.7825 1.58671 1
      vertex -65 35 1
      vertex -57 1.73205 1
    endloop
  endfacet
  facet normal 0 0 1
    outer loop
      vertex -57 1.73205 1
      vertex -65 35 1
      vertex -57.2346 1.84776 1
    endloop
  endfacet
  facet normal 0 0 1
    outer loop
      vertex -57.2346 1.84776 1
      vertex -65 35 1
      vertex -57.4824 1.93185 1
    endloop
  endfacet
  facet normal 0 0 1
    outer loop
      vertex -57.4824 1.93185 1
      vertex -65 35 1
      vertex -57.7389 1.98289 1
    endloop
  endfacet
  facet normal 0 0 1
    outer loop
      vertex -57.7389 1.98289 1
      vertex -65 35 1
      vertex -58 2 1
    endloop
  endfacet
  facet normal 0 0 1
    outer loop
      vertex -58 2 1
      vertex -65 35 1
      vertex -58.2611 1.98289 1
    endloop
  endfacet
  facet normal 0 0 1
    outer loop
      vertex -59.9829 0.261052 1
      vertex -65 35 1
      vertex -60 0 1
    endloop
  endfacet
  facet normal 0 0 1
    outer loop
      vertex -59.9319 0.517637 1
      vertex -65 35 1
      vertex -59.9829 0.261052 1
    endloop
  endfacet
  facet normal 0 0 1
    outer loop
      vertex -59.8478 0.765367 1
      vertex -65 35 1
      vertex -59.9319 0.517637 1
    endloop
  endfacet
  facet normal 0 0 1
    outer loop
      vertex -59.732 1 1
      vertex -65 35 1
      vertex -59.8478 0.765367 1
    endloop
  endfacet
  facet normal 0 0 1
    outer loop
      vertex -59.5867 1.21752 1
      vertex -65 35 1
      vertex -59.732 1 1
    endloop
  endfacet
  facet normal 0 0 1
    outer loop
      vertex -59.4142 1.41421 1
      vertex -65 35 1
      vertex -59.5867 1.21752 1
    endloop
  endfacet
  facet normal 0 0 1
    outer loop
      vertex -59.2175 1.58671 1
      vertex -65 35 1
      vertex -59.4142 1.41421 1
    endloop
  endfacet
  facet normal 0 0 1
    outer loop
      vertex -59 1.73205 1
      vertex -65 35 1
      vertex -59.2175 1.58671 1
    endloop
  endfacet
  facet normal 0 0 1
    outer loop
      vertex -58.7654 1.84776 1
      vertex -65 35 1
      vertex -59 1.73205 1
    endloop
  endfacet
  facet normal 0 0 1
    outer loop
      vertex -58.5176 1.93185 1
      vertex -65 35 1
      vertex -58.7654 1.84776 1
    endloop
  endfacet
  facet normal 0 0 1
    outer loop
      vertex -58.2611 1.98289 1
      vertex -65 35 1
      vertex -58.5176 1.93185 1
    endloop
  endfacet
  facet normal -0 0 1
    outer loop
      vertex 59.9829 -0.261052 1
      vertex 65 -35 1
      vertex 60 0 1
    endloop
  endfacet
  facet normal -0 0 1
    outer loop
      vertex 59.9319 -0.517637 1
      vertex 65 -35 1
      vertex 59.9829 -0.261052 1
    endloop
  endfacet
  facet normal -0 0 1
    outer loop
      vertex 59.8478 -0.765367 1
      vertex 65 -35 1
      vertex 59.9319 -0.517637 1
    endloop
  endfacet
  facet normal -0 0 1
    outer loop
      vertex 59.732 -1 1
      vertex 65 -35 1
      vertex 59.8478 -0.765367 1
    endloop
  endfacet
  facet normal -0 0 1
    outer loop
      vertex 59.5867 -1.21752 1
      vertex 65 -35 1
      vertex 59.732 -1 1
    endloop
  endfacet
  facet normal -0 0 1
    outer loop
      vertex 59.4142 -1.41421 1
      vertex 65 -35 1
      vertex 59.5867 -1.21752 1
    endloop
  endfacet
  facet normal -0 0 1
    outer loop
      vertex 59.2175 -1.58671 1
      vertex 65 -35 1
      vertex 59.4142 -1.41421 1
    endloop
  endfacet
  facet normal -0 0 1
    outer loop
      vertex 59 -1.73205 1
      vertex 65 -35 1
      vertex 59.2175 -1.58671 1
    endloop
  endfacet
  facet normal -0 0 1
    outer loop
      vertex 58.7654 -1.84776 1
      vertex 65 -35 1
      vertex 59 -1.73205 1
    endloop
  endfacet
  facet normal -0 0 1
    outer loop
      vertex 58.5176 -1.93185 1
      vertex 65 -35 1
      vertex 58.7654 -1.84776 1
    endloop
  endfacet
  facet normal -0 0 1
    outer loop
      vertex 58.2611 -1.98289 1
      vertex 65 -35 1
      vertex 58.5176 -1.93185 1
    endloop
  endfacet
  facet normal -0 0 1
    outer loop
      vertex 58 -2 1
      vertex 65 -35 1
      vertex 58.2611 -1.98289 1
    endloop
  endfacet
  facet normal 0 0 1
    outer loop
      vertex 57.7389 -1.98289 1
      vertex 65 -35 1
      vertex 58 -2 1
    endloop
  endfacet
  facet normal 0 0 1
    outer loop
      vertex 57.4824 -1.93185 1
      vertex 65 -35 1
      vertex 57.7389 -1.98289 1
    endloop
  endfacet
  facet normal 0 0 1
    outer loop
      vertex 57.2346 -1.84776 1
      vertex 65 -35 1
      vertex 57.4824 -1.93185 1
    endloop
  endfacet
  facet normal 0 0 1
    outer loop
      vertex 57 -1.73205 1
      vertex 65 -35 1
      vertex 57.2346 -1.84776 1
    endloop
  endfacet
  facet normal 0 0 1
    outer loop
      vertex 56.7825 -1.58671 1
      vertex 65 -35 1
      vertex 57 -1.73205 1
    endloop
  endfacet
  facet normal 0 0 1
    outer loop
      vertex 56.5858 -1.41421 1
      vertex 65 -35 1
      vertex 56.7825 -1.58671 1
    endloop
  endfacet
  facet normal 0 0 1
    outer loop
      vertex 56.4133 -1.21752 1
      vertex 65 -35 1
      vertex 56.5858 -1.41421 1
    endloop
  endfacet
  facet normal 0 0 1
    outer loop
      vertex 56.2679 -1 1
      vertex 65 -35 1
      vertex 56.4133 -1.21752 1
    endloop
  endfacet
  facet normal 0 0 1
    outer loop
      vertex -56.2679 -1 1
      vertex 56.2679 -1 1
      vertex 56.1522 -0.765367 1
    endloop
  endfacet
  facet normal 0 0 1
    outer loop
      vertex -56.1522 -0.765367 1
      vertex 56.1522 -0.765367 1
      vertex 56.0681 -0.517637 1
    endloop
  endfacet
  facet normal -0 0 1
    outer loop
      vertex -56 0 1
      vertex 56.0171 -0.261052 1
      vertex 56 0 1
    endloop
  endfacet
  facet normal 0 0 1
    outer loop
      vertex -56.0171 -0.261052 1
      vertex 56.0171 -0.261052 1
      vertex -56 0 1
    endloop
  endfacet
  facet normal 0 0 1
    outer loop
      vertex 56.0171 -0.261052 1
      vertex -56.0171 -0.261052 1
      vertex 56.0681 -0.517637 1
    endloop
  endfacet
  facet normal 0 0 1
    outer loop
      vertex -56.0681 -0.517637 1
      vertex 56.0681 -0.517637 1
      vertex -56.0171 -0.261052 1
    endloop
  endfacet
  facet normal 0 0 1
    outer loop
      vertex -56.1522 -0.765367 1
      vertex 56.0681 -0.517637 1
      vertex -56.0681 -0.517637 1
    endloop
  endfacet
  facet normal 0 0 1
    outer loop
      vertex 56.1522 -0.765367 1
      vertex -56.1522 -0.765367 1
      vertex -56.2679 -1 1
    endloop
  endfacet
  facet normal 0 0 1
    outer loop
      vertex 56.2679 -1 1
      vertex -56.2679 -1 1
      vertex 65 -35 1
    endloop
  endfacet
  facet normal 0 0 1
    outer loop
      vertex -65 -35 1
      vertex -56.2679 -1 1
      vertex -56.4133 -1.21752 1
    endloop
  endfacet
  facet normal 0 0 1
    outer loop
      vertex -65 -35 1
      vertex -56.4133 -1.21752 1
      vertex -56.5858 -1.41421 1
    endloop
  endfacet
  facet normal 0 0 1
    outer loop
      vertex -65 -35 1
      vertex -56.5858 -1.41421 1
      vertex -56.7825 -1.58671 1
    endloop
  endfacet
  facet normal 0 0 1
    outer loop
      vertex -65 -35 1
      vertex -56.7825 -1.58671 1
      vertex -57 -1.73205 1
    endloop
  endfacet
  facet normal 0 0 1
    outer loop
      vertex -65 -35 1
      vertex -57 -1.73205 1
      vertex -57.2346 -1.84776 1
    endloop
  endfacet
  facet normal 0 0 1
    outer loop
      vertex -65 -35 1
      vertex -57.2346 -1.84776 1
      vertex -57.4824 -1.93185 1
    endloop
  endfacet
  facet normal 0 0 1
    outer loop
      vertex -65 -35 1
      vertex -57.4824 -1.93185 1
      vertex -57.7389 -1.98289 1
    endloop
  endfacet
  facet normal 0 0 1
    outer loop
      vertex -65 -35 1
      vertex -57.7389 -1.98289 1
      vertex -58 -2 1
    endloop
  endfacet
  facet normal 0 0 1
    outer loop
      vertex -65 -35 1
      vertex -58 -2 1
      vertex -58.2611 -1.98289 1
    endloop
  endfacet
  facet normal 0 0 1
    outer loop
      vertex -65 -35 1
      vertex -58.2611 -1.98289 1
      vertex -58.5176 -1.93185 1
    endloop
  endfacet
  facet normal 0 0 1
    outer loop
      vertex -65 -35 1
      vertex -60 0 1
      vertex -65 35 1
    endloop
  endfacet
  facet normal 0 0 1
    outer loop
      vertex -56.2679 -1 1
      vertex -65 -35 1
      vertex 65 -35 1
    endloop
  endfacet
  facet normal 0 0 1
    outer loop
      vertex -58.7654 -1.84776 1
      vertex -65 -35 1
      vertex -58.5176 -1.93185 1
    endloop
  endfacet
  facet normal 0 0 1
    outer loop
      vertex -59 -1.73205 1
      vertex -65 -35 1
      vertex -58.7654 -1.84776 1
    endloop
  endfacet
  facet normal 0 0 1
    outer loop
      vertex -59.2175 -1.58671 1
      vertex -65 -35 1
      vertex -59 -1.73205 1
    endloop
  endfacet
  facet normal 0 0 1
    outer loop
      vertex -59.4142 -1.41421 1
      vertex -65 -35 1
      vertex -59.2175 -1.58671 1
    endloop
  endfacet
  facet normal 0 0 1
    outer loop
      vertex -59.5867 -1.21752 1
      vertex -65 -35 1
      vertex -59.4142 -1.41421 1
    endloop
  endfacet
  facet normal 0 0 1
    outer loop
      vertex -59.732 -1 1
      vertex -65 -35 1
      vertex -59.5867 -1.21752 1
    endloop
  endfacet
  facet normal 0 0 1
    outer loop
      vertex -59.8478 -0.765367 1
      vertex -65 -35 1
      vertex -59.732 -1 1
    endloop
  endfacet
  facet normal 0 0 1
    outer loop
      vertex -59.9319 -0.517637 1
      vertex -65 -35 1
      vertex -59.8478 -0.765367 1
    endloop
  endfacet
  facet normal 0 0 1
    outer loop
      vertex -59.9829 -0.261052 1
      vertex -65 -35 1
      vertex -59.9319 -0.517637 1
    endloop
  endfacet
  facet normal 0 0 1
    outer loop
      vertex -60 0 1
      vertex -65 -35 1
      vertex -59.9829 -0.261052 1
    endloop
  endfacet
  facet normal 0 0 -1
    outer loop
      vertex 65 -35 -1
      vertex 60 0 -1
      vertex 65 35 -1
    endloop
  endfacet
  facet normal 0 0 -1
    outer loop
      vertex 65 -35 -1
      vertex 59.9829 -0.261052 -1
      vertex 60 0 -1
    endloop
  endfacet
  facet normal 0 0 -1
    outer loop
      vertex 65 -35 -1
      vertex 59.9319 -0.517637 -1
      vertex 59.9829 -0.261052 -1
    endloop
  endfacet
  facet normal 0 0 -1
    outer loop
      vertex 65 -35 -1
      vertex 59.8478 -0.765367 -1
      vertex 59.9319 -0.517637 -1
    endloop
  endfacet
  facet normal 0 0 -1
    outer loop
      vertex 65 -35 -1
      vertex 59.732 -1 -1
      vertex 59.8478 -0.765367 -1
    endloop
  endfacet
  facet normal 0 0 -1
    outer loop
      vertex 65 -35 -1
      vertex 59.5867 -1.21752 -1
      vertex 59.732 -1 -1
    endloop
  endfacet
  facet normal 0 0 -1
    outer loop
      vertex 65 -35 -1
      vertex 59.4142 -1.41421 -1
      vertex 59.5867 -1.21752 -1
    endloop
  endfacet
  facet normal 0 0 -1
    outer loop
      vertex 65 -35 -1
      vertex 59.2175 -1.58671 -1
      vertex 59.4142 -1.41421 -1
    endloop
  endfacet
  facet normal 0 0 -1
    outer loop
      vertex 65 -35 -1
      vertex 59 -1.73205 -1
      vertex 59.2175 -1.58671 -1
    endloop
  endfacet
  facet normal 0 0 -1
    outer loop
      vertex 65 -35 -1
      vertex 58.7654 -1.84776 -1
      vertex 59 -1.73205 -1
    endloop
  endfacet
  facet normal 0 0 -1
    outer loop
      vertex 65 -35 -1
      vertex 58.5176 -1.93185 -1
      vertex 58.7654 -1.84776 -1
    endloop
  endfacet
  facet normal 0 0 -1
    outer loop
      vertex 65 -35 -1
      vertex 58.2611 -1.98289 -1
      vertex 58.5176 -1.93185 -1
    endloop
  endfacet
  facet normal 0 0 -1
    outer loop
      vertex 65 -35 -1
      vertex 58 -2 -1
      vertex 58.2611 -1.98289 -1
    endloop
  endfacet
  facet normal 0 0 -1
    outer loop
      vertex 65 -35 -1
      vertex 57.7389 -1.98289 -1
      vertex 58 -2 -1
    endloop
  endfacet
  facet normal 0 0 -1
    outer loop
      vertex 65 -35 -1
      vertex 57.4824 -1.93185 -1
      vertex 57.7389 -1.98289 -1
    endloop
  endfacet
  facet normal 0 0 -1
    outer loop
      vertex 65 -35 -1
      vertex 57.2346 -1.84776 -1
      vertex 57.4824 -1.93185 -1
    endloop
  endfacet
  facet normal 0 0 -1
    outer loop
      vertex 65 -35 -1
      vertex 57 -1.73205 -1
      vertex 57.2346 -1.84776 -1
    endloop
  endfacet
  facet normal 0 0 -1
    outer loop
      vertex 65 -35 -1
      vertex 56.7825 -1.58671 -1
      vertex 57 -1.73205 -1
    endloop
  endfacet
  facet normal 0 0 -1
    outer loop
      vertex 65 -35 -1
      vertex 56.5858 -1.41421 -1
      vertex 56.7825 -1.58671 -1
    endloop
  endfacet
  facet normal 0 0 -1
    outer loop
      vertex 65 -35 -1
      vertex 56.4133 -1.21752 -1
      vertex 56.5858 -1.41421 -1
    endloop
  endfacet
  facet normal 0 0 -1
    outer loop
      vertex 65 -35 -1
      vertex 56.2679 -1 -1
      vertex 56.4133 -1.21752 -1
    endloop
  endfacet
  facet normal 0 0 -1
    outer loop
      vertex -56.2679 -1 -1
      vertex 56.2679 -1 -1
      vertex 65 -35 -1
    endloop
  endfacet
  facet normal 0 0 -1
    outer loop
      vertex 56.2679 -1 -1
      vertex -56.2679 -1 -1
      vertex 56.1522 -0.765367 -1
    endloop
  endfacet
  facet normal 0 0 -1
    outer loop
      vertex 56.0171 -0.261052 -1
      vertex -56 0 -1
      vertex 56 0 -1
    endloop
  endfacet
  facet normal 0 0 -1
    outer loop
      vertex -56.0171 -0.261052 -1
      vertex 56.0171 -0.261052 -1
      vertex 56.0681 -0.517637 -1
    endloop
  endfacet
  facet normal 0 -0 -1
    outer loop
      vertex -56.1522 -0.765367 -1
      vertex 56.1522 -0.765367 -1
      vertex -56.2679 -1 -1
    endloop
  endfacet
  facet normal 0 0 -1
    outer loop
      vertex 56.0171 -0.261052 -1
      vertex -56.0171 -0.261052 -1
      vertex -56 0 -1
    endloop
  endfacet
  facet normal 0 0 -1
    outer loop
      vertex 56.0681 -0.517637 -1
      vertex -56.0681 -0.517637 -1
      vertex -56.0171 -0.261052 -1
    endloop
  endfacet
  facet normal -0 0 -1
    outer loop
      vertex 56.0681 -0.517637 -1
      vertex -56.1522 -0.765367 -1
      vertex -56.0681 -0.517637 -1
    endloop
  endfacet
  facet normal 0 0 -1
    outer loop
      vertex 56.1522 -0.765367 -1
      vertex -56.1522 -0.765367 -1
      vertex 56.0681 -0.517637 -1
    endloop
  endfacet
  facet normal 0 0 -1
    outer loop
      vertex -65 -35 -1
      vertex -56.2679 -1 -1
      vertex 65 -35 -1
    endloop
  endfacet
  facet normal 0 0 -1
    outer loop
      vertex -56.2679 -1 -1
      vertex -65 -35 -1
      vertex -56.4133 -1.21752 -1
    endloop
  endfacet
  facet normal 0 0 -1
    outer loop
      vertex -56.4133 -1.21752 -1
      vertex -65 -35 -1
      vertex -56.5858 -1.41421 -1
    endloop
  endfacet
  facet normal 0 0 -1
    outer loop
      vertex -56.5858 -1.41421 -1
      vertex -65 -35 -1
      vertex -56.7825 -1.58671 -1
    endloop
  endfacet
  facet normal 0 0 -1
    outer loop
      vertex -56.7825 -1.58671 -1
      vertex -65 -35 -1
      vertex -57 -1.73205 -1
    endloop
  endfacet
  facet normal 0 0 -1
    outer loop
      vertex -57 -1.73205 -1
      vertex -65 -35 -1
      vertex -57.2346 -1.84776 -1
    endloop
  endfacet
  facet normal 0 0 -1
    outer loop
      vertex -57.2346 -1.84776 -1
      vertex -65 -35 -1
      vertex -57.4824 -1.93185 -1
    endloop
  endfacet
  facet normal 0 0 -1
    outer loop
      vertex -57.4824 -1.93185 -1
      vertex -65 -35 -1
      vertex -57.7389 -1.98289 -1
    endloop
  endfacet
  facet normal 0 0 -1
    outer loop
      vertex -57.7389 -1.98289 -1
      vertex -65 -35 -1
      vertex -58 -2 -1
    endloop
  endfacet
  facet normal -0 0 -1
    outer loop
      vertex -58 -2 -1
      vertex -65 -35 -1
      vertex -58.2611 -1.98289 -1
    endloop
  endfacet
  facet normal -0 0 -1
    outer loop
      vertex -59.9829 -0.261052 -1
      vertex -65 -35 -1
      vertex -60 0 -1
    endloop
  endfacet
  facet normal -0 0 -1
    outer loop
      vertex -59.9319 -0.517637 -1
      vertex -65 -35 -1
      vertex -59.9829 -0.261052 -1
    endloop
  endfacet
  facet normal -0 0 -1
    outer loop
      vertex -59.8478 -0.765367 -1
      vertex -65 -35 -1
      vertex -59.9319 -0.517637 -1
    endloop
  endfacet
  facet normal -0 0 -1
    outer loop
      vertex -59.732 -1 -1
      vertex -65 -35 -1
      vertex -59.8478 -0.765367 -1
    endloop
  endfacet
  facet normal -0 0 -1
    outer loop
      vertex -59.5867 -1.21752 -1
      vertex -65 -35 -1
      vertex -59.732 -1 -1
    endloop
  endfacet
  facet normal -0 0 -1
    outer loop
      vertex -59.4142 -1.41421 -1
      vertex -65 -35 -1
      vertex -59.5867 -1.21752 -1
    endloop
  endfacet
  facet normal -0 0 -1
    outer loop
      vertex -59.2175 -1.58671 -1
      vertex -65 -35 -1
      vertex -59.4142 -1.41421 -1
    endloop
  endfacet
  facet normal -0 0 -1
    outer loop
      vertex -59 -1.73205 -1
      vertex -65 -35 -1
      vertex -59.2175 -1.58671 -1
    endloop
  endfacet
  facet normal -0 0 -1
    outer loop
      vertex -58.7654 -1.84776 -1
      vertex -65 -35 -1
      vertex -59 -1.73205 -1
    endloop
  endfacet
  facet normal -0 0 -1
    outer loop
      vertex -58.5176 -1.93185 -1
      vertex -65 -35 -1
      vertex -58.7654 -1.84776 -1
    endloop
  endfacet
  facet normal -0 0 -1
    outer loop
      vertex -58.2611 -1.98289 -1
      vertex -65 -35 -1
      vertex -58.5176 -1.93185 -1
    endloop
  endfacet
  facet normal 0 0 -1
    outer loop
      vertex 59.9829 0.261052 -1
      vertex 65 35 -1
      vertex 60 0 -1
    endloop
  endfacet
  facet normal 0 0 -1
    outer loop
      vertex 59.9319 0.517637 -1
      vertex 65 35 -1
      vertex 59.9829 0.261052 -1
    endloop
  endfacet
  facet normal 0 0 -1
    outer loop
      vertex 59.8478 0.765367 -1
      vertex 65 35 -1
      vertex 59.9319 0.517637 -1
    endloop
  endfacet
  facet normal 0 0 -1
    outer loop
      vertex 59.732 1 -1
      vertex 65 35 -1
      vertex 59.8478 0.765367 -1
    endloop
  endfacet
  facet normal 0 0 -1
    outer loop
      vertex 59.5867 1.21752 -1
      vertex 65 35 -1
      vertex 59.732 1 -1
    endloop
  endfacet
  facet normal 0 0 -1
    outer loop
      vertex 59.4142 1.41421 -1
      vertex 65 35 -1
      vertex 59.5867 1.21752 -1
    endloop
  endfacet
  facet normal 0 0 -1
    outer loop
      vertex 59.2175 1.58671 -1
      vertex 65 35 -1
      vertex 59.4142 1.41421 -1
    endloop
  endfacet
  facet normal 0 0 -1
    outer loop
      vertex 59 1.73205 -1
      vertex 65 35 -1
      vertex 59.2175 1.58671 -1
    endloop
  endfacet
  facet normal 0 0 -1
    outer loop
      vertex 58.7654 1.84776 -1
      vertex 65 35 -1
      vertex 59 1.73205 -1
    endloop
  endfacet
  facet normal 0 0 -1
    outer loop
      vertex 58.5176 1.93185 -1
      vertex 65 35 -1
      vertex 58.7654 1.84776 -1
    endloop
  endfacet
  facet normal 0 0 -1
    outer loop
      vertex 58.2611 1.98289 -1
      vertex 65 35 -1
      vertex 58.5176 1.93185 -1
    endloop
  endfacet
  facet normal 0 0 -1
    outer loop
      vertex 58 2 -1
      vertex 65 35 -1
      vertex 58.2611 1.98289 -1
    endloop
  endfacet
  facet normal 0 0 -1
    outer loop
      vertex 57.7389 1.98289 -1
      vertex 65 35 -1
      vertex 58 2 -1
    endloop
  endfacet
  facet normal 0 0 -1
    outer loop
      vertex 57.4824 1.93185 -1
      vertex 65 35 -1
      vertex 57.7389 1.98289 -1
    endloop
  endfacet
  facet normal 0 0 -1
    outer loop
      vertex 57.2346 1.84776 -1
      vertex 65 35 -1
      vertex 57.4824 1.93185 -1
    endloop
  endfacet
  facet normal 0 0 -1
    outer loop
      vertex 57 1.73205 -1
      vertex 65 35 -1
      vertex 57.2346 1.84776 -1
    endloop
  endfacet
  facet normal 0 0 -1
    outer loop
      vertex 56.7825 1.58671 -1
      vertex 65 35 -1
      vertex 57 1.73205 -1
    endloop
  endfacet
  facet normal 0 0 -1
    outer loop
      vertex 56.5858 1.41421 -1
      vertex 65 35 -1
      vertex 56.7825 1.58671 -1
    endloop
  endfacet
  facet normal 0 0 -1
    outer loop
      vertex 56.4133 1.21752 -1
      vertex 65 35 -1
      vertex 56.5858 1.41421 -1
    endloop
  endfacet
  facet normal 0 0 -1
    outer loop
      vertex 56.2679 1 -1
      vertex 65 35 -1
      vertex 56.4133 1.21752 -1
    endloop
  endfacet
  facet normal 0 0 -1
    outer loop
      vertex -56.2679 1 -1
      vertex 56.2679 1 -1
      vertex 56.1522 0.765367 -1
    endloop
  endfacet
  facet normal 0 0 -1
    outer loop
      vertex -56.1522 0.765367 -1
      vertex 56.1522 0.765367 -1
      vertex 56.0681 0.517637 -1
    endloop
  endfacet
  facet normal 0 0 -1
    outer loop
      vertex -56 0 -1
      vertex 56.0171 0.261052 -1
      vertex 56 0 -1
    endloop
  endfacet
  facet normal 0 0 -1
    outer loop
      vertex -56.0171 0.261052 -1
      vertex 56.0171 0.261052 -1
      vertex -56 0 -1
    endloop
  endfacet
  facet normal 0 0 -1
    outer loop
      vertex 56.0171 0.261052 -1
      vertex -56.0171 0.261052 -1
      vertex 56.0681 0.517637 -1
    endloop
  endfacet
  facet normal 0 0 -1
    outer loop
      vertex -56.0681 0.517637 -1
      vertex 56.0681 0.517637 -1
      vertex -56.0171 0.261052 -1
    endloop
  endfacet
  facet normal 0 0 -1
    outer loop
      vertex -56.1522 0.765367 -1
      vertex 56.0681 0.517637 -1
      vertex -56.0681 0.517637 -1
    endloop
  endfacet
  facet normal 0 0 -1
    outer loop
      vertex 56.1522 0.765367 -1
      vertex -56.1522 0.765367 -1
      vertex -56.2679 1 -1
    endloop
  endfacet
  facet normal 0 0 -1
    outer loop
      vertex 56.2679 1 -1
      vertex -56.2679 1 -1
      vertex 65 35 -1
    endloop
  endfacet
  facet normal 0 0 -1
    outer loop
      vertex -65 35 -1
      vertex -56.2679 1 -1
      vertex -56.4133 1.21752 -1
    endloop
  endfacet
  facet normal 0 0 -1
    outer loop
      vertex -65 35 -1
      vertex -56.4133 1.21752 -1
      vertex -56.5858 1.41421 -1
    endloop
  endfacet
  facet normal 0 0 -1
    outer loop
      vertex -65 35 -1
      vertex -56.5858 1.41421 -1
      vertex -56.7825 1.58671 -1
    endloop
  endfacet
  facet normal 0 0 -1
    outer loop
      vertex -65 35 -1
      vertex -56.7825 1.58671 -1
      vertex -57 1.73205 -1
    endloop
  endfacet
  facet normal 0 0 -1
    outer loop
      vertex -65 35 -1
      vertex -57 1.73205 -1
      vertex -57.2346 1.84776 -1
    endloop
  endfacet
  facet normal 0 0 -1
    outer loop
      vertex -65 35 -1
      vertex -57.2346 1.84776 -1
      vertex -57.4824 1.93185 -1
    endloop
  endfacet
  facet normal 0 0 -1
    outer loop
      vertex -65 35 -1
      vertex -57.4824 1.93185 -1
      vertex -57.7389 1.98289 -1
    endloop
  endfacet
  facet normal 0 0 -1
    outer loop
      vertex -65 35 -1
      vertex -57.7389 1.98289 -1
      vertex -58 2 -1
    endloop
  endfacet
  facet normal 0 0 -1
    outer loop
      vertex -65 35 -1
      vertex -58 2 -1
      vertex -58.2611 1.98289 -1
    endloop
  endfacet
  facet normal 0 0 -1
    outer loop
      vertex -65 35 -1
      vertex -58.2611 1.98289 -1
      vertex -58.5176 1.93185 -1
    endloop
  endfacet
  facet normal 0 0 -1
    outer loop
      vertex -65 35 -1
      vertex -60 0 -1
      vertex -65 -35 -1
    endloop
  endfacet
  facet normal 0 0 -1
    outer loop
      vertex -56.2679 1 -1
      vertex -65 35 -1
      vertex 65 35 -1
    endloop
  endfacet
  facet normal 0 0 -1
    outer loop
      vertex -58.7654 1.84776 -1
      vertex -65 35 -1
      vertex -58.5176 1.93185 -1
    endloop
  endfacet
  facet normal 0 0 -1
    outer loop
      vertex -59 1.73205 -1
      vertex -65 35 -1
      vertex -58.7654 1.84776 -1
    endloop
  endfacet
  facet normal 0 0 -1
    outer loop
      vertex -59.2175 1.58671 -1
      vertex -65 35 -1
      vertex -59 1.73205 -1
    endloop
  endfacet
  facet normal 0 0 -1
    outer loop
      vertex -59.4142 1.41421 -1
      vertex -65 35 -1
      vertex -59.2175 1.58671 -1
    endloop
  endfacet
  facet normal 0 0 -1
    outer loop
      vertex -59.5867 1.21752 -1
      vertex -65 35 -1
      vertex -59.4142 1.41421 -1
    endloop
  endfacet
  facet normal 0 0 -1
    outer loop
      vertex -59.732 1 -1
      vertex -65 35 -1
      vertex -59.5867 1.21752 -1
    endloop
  endfacet
  facet normal 0 0 -1
    outer loop
      vertex -59.8478 0.765367 -1
      vertex -65 35 -1
      vertex -59.732 1 -1
    endloop
  endfacet
  facet normal 0 0 -1
    outer loop
      vertex -59.9319 0.517637 -1
      vertex -65 35 -1
      vertex -59.8478 0.765367 -1
    endloop
  endfacet
  facet normal 0 0 -1
    outer loop
      vertex -59.9829 0.261052 -1
      vertex -65 35 -1
      vertex -59.9319 0.517637 -1
    endloop
  endfacet
  facet normal 0 0 -1
    outer loop
      vertex -60 0 -1
      vertex -65 35 -1
      vertex -59.9829 0.261052 -1
    endloop
  endfacet
  facet normal -1 0 0
    outer loop
      vertex -65 -35 -1
      vertex -65 35 1
      vertex -65 35 -1
    endloop
  endfacet
  facet normal -1 -0 0
    outer loop
      vertex -65 35 1
      vertex -65 -35 -1
      vertex -65 -35 1
    endloop
  endfacet
  facet normal 0 1 -0
    outer loop
      vertex 65 35 -1
      vertex -65 35 1
      vertex 65 35 1
    endloop
  endfacet
  facet normal 0 1 0
    outer loop
      vertex -65 35 1
      vertex 65 35 -1
      vertex -65 35 -1
    endloop
  endfacet
  facet normal 0 -1 0
    outer loop
      vertex -65 -35 -1
      vertex 65 -35 1
      vertex -65 -35 1
    endloop
  endfacet
  facet normal 0 -1 -0
    outer loop
      vertex 65 -35 1
      vertex -65 -35 -1
      vertex 65 -35 -1
    endloop
  endfacet
  facet normal -0.980813 -0.194951 0
    outer loop
      vertex -56.0171 0.261052 -1
      vertex -56.0681 0.517637 1
      vertex -56.0681 0.517637 -1
    endloop
  endfacet
  facet normal -0.980813 -0.194951 0
    outer loop
      vertex -56.0681 0.517637 1
      vertex -56.0171 0.261052 -1
      vertex -56.0171 0.261052 1
    endloop
  endfacet
  facet normal -0.442344 -0.896845 0
    outer loop
      vertex -57.2346 1.84776 -1
      vertex -57 1.73205 1
      vertex -57.2346 1.84776 1
    endloop
  endfacet
  facet normal -0.442344 -0.896845 -0
    outer loop
      vertex -57 1.73205 1
      vertex -57.2346 1.84776 -1
      vertex -57 1.73205 -1
    endloop
  endfacet
  facet normal -0.980813 0.194951 0
    outer loop
      vertex -56.0681 -0.517637 -1
      vertex -56.0171 -0.261052 1
      vertex -56.0171 -0.261052 -1
    endloop
  endfacet
  facet normal -0.980813 0.194951 0
    outer loop
      vertex -56.0171 -0.261052 1
      vertex -56.0681 -0.517637 -1
      vertex -56.0681 -0.517637 1
    endloop
  endfacet
  facet normal 0.896734 -0.442571 0
    outer loop
      vertex -59.8478 0.765367 1
      vertex -59.732 1 -1
      vertex -59.732 1 1
    endloop
  endfacet
  facet normal 0.896734 -0.442571 0
    outer loop
      vertex -59.732 1 -1
      vertex -59.8478 0.765367 1
      vertex -59.8478 0.765367 -1
    endloop
  endfacet
  facet normal 0.321348 -0.946961 0
    outer loop
      vertex -58.7654 1.84776 -1
      vertex -58.5176 1.93185 1
      vertex -58.7654 1.84776 1
    endloop
  endfacet
  facet normal 0.321348 -0.946961 0
    outer loop
      vertex -58.5176 1.93185 1
      vertex -58.7654 1.84776 -1
      vertex -58.5176 1.93185 -1
    endloop
  endfacet
  facet normal -0.751826 0.659362 0
    outer loop
      vertex -56.5858 -1.41421 -1
      vertex -56.4133 -1.21752 1
      vertex -56.4133 -1.21752 -1
    endloop
  endfacet
  facet normal -0.751826 0.659362 0
    outer loop
      vertex -56.4133 -1.21752 1
      vertex -56.5858 -1.41421 -1
      vertex -56.5858 -1.41421 1
    endloop
  endfacet
  facet normal -0.946922 0.321463 0
    outer loop
      vertex -56.1522 -0.765367 -1
      vertex -56.0681 -0.517637 1
      vertex -56.0681 -0.517637 -1
    endloop
  endfacet
  facet normal -0.946922 0.321463 0
    outer loop
      vertex -56.0681 -0.517637 1
      vertex -56.1522 -0.765367 -1
      vertex -56.1522 -0.765367 1
    endloop
  endfacet
  facet normal -0.0653902 0.99786 0
    outer loop
      vertex -57.7389 -1.98289 -1
      vertex -58 -2 1
      vertex -57.7389 -1.98289 1
    endloop
  endfacet
  facet normal -0.0653902 0.99786 0
    outer loop
      vertex -58 -2 1
      vertex -57.7389 -1.98289 -1
      vertex -58 -2 -1
    endloop
  endfacet
  facet normal -0.5556 -0.83145 0
    outer loop
      vertex -57 1.73205 -1
      vertex -56.7825 1.58671 1
      vertex -57 1.73205 1
    endloop
  endfacet
  facet normal -0.5556 -0.83145 -0
    outer loop
      vertex -56.7825 1.58671 1
      vertex -57 1.73205 -1
      vertex -56.7825 1.58671 -1
    endloop
  endfacet
  facet normal 0.946922 0.321463 0
    outer loop
      vertex -59.8478 -0.765367 1
      vertex -59.9319 -0.517637 -1
      vertex -59.9319 -0.517637 1
    endloop
  endfacet
  facet normal 0.946922 0.321463 0
    outer loop
      vertex -59.9319 -0.517637 -1
      vertex -59.8478 -0.765367 1
      vertex -59.8478 -0.765367 -1
    endloop
  endfacet
  facet normal -0.946922 -0.321463 0
    outer loop
      vertex -56.0681 0.517637 -1
      vertex -56.1522 0.765367 1
      vertex -56.1522 0.765367 -1
    endloop
  endfacet
  facet normal -0.946922 -0.321463 0
    outer loop
      vertex -56.1522 0.765367 1
      vertex -56.0681 0.517637 -1
      vertex -56.0681 0.517637 1
    endloop
  endfacet
  facet normal -0.19516 -0.980771 0
    outer loop
      vertex -57.7389 1.98289 -1
      vertex -57.4824 1.93185 1
      vertex -57.7389 1.98289 1
    endloop
  endfacet
  facet normal -0.19516 -0.980771 -0
    outer loop
      vertex -57.4824 1.93185 1
      vertex -57.7389 1.98289 -1
      vertex -57.4824 1.93185 -1
    endloop
  endfacet
  facet normal 0.659343 -0.751842 0
    outer loop
      vertex -59.4142 1.41421 -1
      vertex -59.2175 1.58671 1
      vertex -59.4142 1.41421 1
    endloop
  endfacet
  facet normal 0.659343 -0.751842 0
    outer loop
      vertex -59.2175 1.58671 1
      vertex -59.4142 1.41421 -1
      vertex -59.2175 1.58671 -1
    endloop
  endfacet
  facet normal -0.997861 -0.0653641 0
    outer loop
      vertex -56 0 -1
      vertex -56.0171 0.261052 1
      vertex -56.0171 0.261052 -1
    endloop
  endfacet
  facet normal -0.997861 -0.0653641 0
    outer loop
      vertex -56.0171 0.261052 1
      vertex -56 0 -1
      vertex -56 0 1
    endloop
  endfacet
  facet normal -0.321348 -0.946961 0
    outer loop
      vertex -57.4824 1.93185 -1
      vertex -57.2346 1.84776 1
      vertex -57.4824 1.93185 1
    endloop
  endfacet
  facet normal -0.321348 -0.946961 -0
    outer loop
      vertex -57.2346 1.84776 1
      vertex -57.4824 1.93185 -1
      vertex -57.2346 1.84776 -1
    endloop
  endfacet
  facet normal 0.831544 -0.555459 0
    outer loop
      vertex -59.732 1 1
      vertex -59.5867 1.21752 -1
      vertex -59.5867 1.21752 1
    endloop
  endfacet
  facet normal 0.831544 -0.555459 0
    outer loop
      vertex -59.5867 1.21752 -1
      vertex -59.732 1 1
      vertex -59.732 1 -1
    endloop
  endfacet
  facet normal -0.321348 0.946961 0
    outer loop
      vertex -57.2346 -1.84776 -1
      vertex -57.4824 -1.93185 1
      vertex -57.2346 -1.84776 1
    endloop
  endfacet
  facet normal -0.321348 0.946961 0
    outer loop
      vertex -57.4824 -1.93185 1
      vertex -57.2346 -1.84776 -1
      vertex -57.4824 -1.93185 -1
    endloop
  endfacet
  facet normal 0.980813 -0.194951 0
    outer loop
      vertex -59.9829 0.261052 1
      vertex -59.9319 0.517637 -1
      vertex -59.9319 0.517637 1
    endloop
  endfacet
  facet normal 0.980813 -0.194951 0
    outer loop
      vertex -59.9319 0.517637 -1
      vertex -59.9829 0.261052 1
      vertex -59.9829 0.261052 -1
    endloop
  endfacet
  facet normal 0.751826 0.659362 0
    outer loop
      vertex -59.4142 -1.41421 1
      vertex -59.5867 -1.21752 -1
      vertex -59.5867 -1.21752 1
    endloop
  endfacet
  facet normal 0.751826 0.659362 0
    outer loop
      vertex -59.5867 -1.21752 -1
      vertex -59.4142 -1.41421 1
      vertex -59.4142 -1.41421 -1
    endloop
  endfacet
  facet normal -0.751826 -0.659362 0
    outer loop
      vertex -56.4133 1.21752 -1
      vertex -56.5858 1.41421 1
      vertex -56.5858 1.41421 -1
    endloop
  endfacet
  facet normal -0.751826 -0.659362 0
    outer loop
      vertex -56.5858 1.41421 1
      vertex -56.4133 1.21752 -1
      vertex -56.4133 1.21752 1
    endloop
  endfacet
  facet normal -0.442344 0.896845 0
    outer loop
      vertex -57 -1.73205 -1
      vertex -57.2346 -1.84776 1
      vertex -57 -1.73205 1
    endloop
  endfacet
  facet normal -0.442344 0.896845 0
    outer loop
      vertex -57.2346 -1.84776 1
      vertex -57 -1.73205 -1
      vertex -57.2346 -1.84776 -1
    endloop
  endfacet
  facet normal -0.831368 -0.555723 0
    outer loop
      vertex -56.2679 1 -1
      vertex -56.4133 1.21752 1
      vertex -56.4133 1.21752 -1
    endloop
  endfacet
  facet normal -0.831368 -0.555723 0
    outer loop
      vertex -56.4133 1.21752 1
      vertex -56.2679 1 -1
      vertex -56.2679 1 1
    endloop
  endfacet
  facet normal -0.997861 0.0653641 0
    outer loop
      vertex -56.0171 -0.261052 -1
      vertex -56 0 1
      vertex -56 0 -1
    endloop
  endfacet
  facet normal -0.997861 0.0653641 0
    outer loop
      vertex -56 0 1
      vertex -56.0171 -0.261052 -1
      vertex -56.0171 -0.261052 1
    endloop
  endfacet
  facet normal 0.19516 -0.980771 0
    outer loop
      vertex -58.5176 1.93185 -1
      vertex -58.2611 1.98289 1
      vertex -58.5176 1.93185 1
    endloop
  endfacet
  facet normal 0.19516 -0.980771 0
    outer loop
      vertex -58.2611 1.98289 1
      vertex -58.5176 1.93185 -1
      vertex -58.2611 1.98289 -1
    endloop
  endfacet
  facet normal 0.0653902 0.99786 -0
    outer loop
      vertex -58 -2 -1
      vertex -58.2611 -1.98289 1
      vertex -58 -2 1
    endloop
  endfacet
  facet normal 0.0653902 0.99786 0
    outer loop
      vertex -58.2611 -1.98289 1
      vertex -58 -2 -1
      vertex -58.2611 -1.98289 -1
    endloop
  endfacet
  facet normal 0.751826 -0.659362 0
    outer loop
      vertex -59.5867 1.21752 1
      vertex -59.4142 1.41421 -1
      vertex -59.4142 1.41421 1
    endloop
  endfacet
  facet normal 0.751826 -0.659362 0
    outer loop
      vertex -59.4142 1.41421 -1
      vertex -59.5867 1.21752 1
      vertex -59.5867 1.21752 -1
    endloop
  endfacet
  facet normal 0.831544 0.555459 0
    outer loop
      vertex -59.5867 -1.21752 1
      vertex -59.732 -1 -1
      vertex -59.732 -1 1
    endloop
  endfacet
  facet normal 0.831544 0.555459 0
    outer loop
      vertex -59.732 -1 -1
      vertex -59.5867 -1.21752 1
      vertex -59.5867 -1.21752 -1
    endloop
  endfacet
  facet normal 0.321348 0.946961 -0
    outer loop
      vertex -58.5176 -1.93185 -1
      vertex -58.7654 -1.84776 1
      vertex -58.5176 -1.93185 1
    endloop
  endfacet
  facet normal 0.321348 0.946961 0
    outer loop
      vertex -58.7654 -1.84776 1
      vertex -58.5176 -1.93185 -1
      vertex -58.7654 -1.84776 -1
    endloop
  endfacet
  facet normal 0.442344 -0.896845 0
    outer loop
      vertex -59 1.73205 -1
      vertex -58.7654 1.84776 1
      vertex -59 1.73205 1
    endloop
  endfacet
  facet normal 0.442344 -0.896845 0
    outer loop
      vertex -58.7654 1.84776 1
      vertex -59 1.73205 -1
      vertex -58.7654 1.84776 -1
    endloop
  endfacet
  facet normal 0.5556 -0.83145 0
    outer loop
      vertex -59.2175 1.58671 -1
      vertex -59 1.73205 1
      vertex -59.2175 1.58671 1
    endloop
  endfacet
  facet normal 0.5556 -0.83145 0
    outer loop
      vertex -59 1.73205 1
      vertex -59.2175 1.58671 -1
      vertex -59 1.73205 -1
    endloop
  endfacet
  facet normal -0.0653902 -0.99786 0
    outer loop
      vertex -58 2 -1
      vertex -57.7389 1.98289 1
      vertex -58 2 1
    endloop
  endfacet
  facet normal -0.0653902 -0.99786 -0
    outer loop
      vertex -57.7389 1.98289 1
      vertex -58 2 -1
      vertex -57.7389 1.98289 -1
    endloop
  endfacet
  facet normal -0.19516 0.980771 0
    outer loop
      vertex -57.4824 -1.93185 -1
      vertex -57.7389 -1.98289 1
      vertex -57.4824 -1.93185 1
    endloop
  endfacet
  facet normal -0.19516 0.980771 0
    outer loop
      vertex -57.7389 -1.98289 1
      vertex -57.4824 -1.93185 -1
      vertex -57.7389 -1.98289 -1
    endloop
  endfacet
  facet normal 0.0653902 -0.99786 0
    outer loop
      vertex -58.2611 1.98289 -1
      vertex -58 2 1
      vertex -58.2611 1.98289 1
    endloop
  endfacet
  facet normal 0.0653902 -0.99786 0
    outer loop
      vertex -58 2 1
      vertex -58.2611 1.98289 -1
      vertex -58 2 -1
    endloop
  endfacet
  facet normal 0.997861 -0.0653641 0
    outer loop
      vertex -60 0 1
      vertex -59.9829 0.261052 -1
      vertex -59.9829 0.261052 1
    endloop
  endfacet
  facet normal 0.997861 -0.0653641 0
    outer loop
      vertex -59.9829 0.261052 -1
      vertex -60 0 1
      vertex -60 0 -1
    endloop
  endfacet
  facet normal 0.946922 -0.321463 0
    outer loop
      vertex -59.9319 0.517637 1
      vertex -59.8478 0.765367 -1
      vertex -59.8478 0.765367 1
    endloop
  endfacet
  facet normal 0.946922 -0.321463 0
    outer loop
      vertex -59.8478 0.765367 -1
      vertex -59.9319 0.517637 1
      vertex -59.9319 0.517637 -1
    endloop
  endfacet
  facet normal 0.980813 0.194951 0
    outer loop
      vertex -59.9319 -0.517637 1
      vertex -59.9829 -0.261052 -1
      vertex -59.9829 -0.261052 1
    endloop
  endfacet
  facet normal 0.980813 0.194951 0
    outer loop
      vertex -59.9829 -0.261052 -1
      vertex -59.9319 -0.517637 1
      vertex -59.9319 -0.517637 -1
    endloop
  endfacet
  facet normal 0.5556 0.83145 -0
    outer loop
      vertex -59 -1.73205 -1
      vertex -59.2175 -1.58671 1
      vertex -59 -1.73205 1
    endloop
  endfacet
  facet normal 0.5556 0.83145 0
    outer loop
      vertex -59.2175 -1.58671 1
      vertex -59 -1.73205 -1
      vertex -59.2175 -1.58671 -1
    endloop
  endfacet
  facet normal -0.659343 -0.751842 0
    outer loop
      vertex -56.7825 1.58671 -1
      vertex -56.5858 1.41421 1
      vertex -56.7825 1.58671 1
    endloop
  endfacet
  facet normal -0.659343 -0.751842 -0
    outer loop
      vertex -56.5858 1.41421 1
      vertex -56.7825 1.58671 -1
      vertex -56.5858 1.41421 -1
    endloop
  endfacet
  facet normal -0.831368 0.555723 0
    outer loop
      vertex -56.4133 -1.21752 -1
      vertex -56.2679 -1 1
      vertex -56.2679 -1 -1
    endloop
  endfacet
  facet normal -0.831368 0.555723 0
    outer loop
      vertex -56.2679 -1 1
      vertex -56.4133 -1.21752 -1
      vertex -56.4133 -1.21752 1
    endloop
  endfacet
  facet normal -0.659343 0.751842 0
    outer loop
      vertex -56.5858 -1.41421 -1
      vertex -56.7825 -1.58671 1
      vertex -56.5858 -1.41421 1
    endloop
  endfacet
  facet normal -0.659343 0.751842 0
    outer loop
      vertex -56.7825 -1.58671 1
      vertex -56.5858 -1.41421 -1
      vertex -56.7825 -1.58671 -1
    endloop
  endfacet
  facet normal -0.896885 -0.442264 0
    outer loop
      vertex -56.1522 0.765367 -1
      vertex -56.2679 1 1
      vertex -56.2679 1 -1
    endloop
  endfacet
  facet normal -0.896885 -0.442264 0
    outer loop
      vertex -56.2679 1 1
      vertex -56.1522 0.765367 -1
      vertex -56.1522 0.765367 1
    endloop
  endfacet
  facet normal 0.997861 0.0653641 0
    outer loop
      vertex -59.9829 -0.261052 1
      vertex -60 0 -1
      vertex -60 0 1
    endloop
  endfacet
  facet normal 0.997861 0.0653641 0
    outer loop
      vertex -60 0 -1
      vertex -59.9829 -0.261052 1
      vertex -59.9829 -0.261052 -1
    endloop
  endfacet
  facet normal -0.896885 0.442264 0
    outer loop
      vertex -56.2679 -1 -1
      vertex -56.1522 -0.765367 1
      vertex -56.1522 -0.765367 -1
    endloop
  endfacet
  facet normal -0.896885 0.442264 0
    outer loop
      vertex -56.1522 -0.765367 1
      vertex -56.2679 -1 -1
      vertex -56.2679 -1 1
    endloop
  endfacet
  facet normal 0.19516 0.980771 -0
    outer loop
      vertex -58.2611 -1.98289 -1
      vertex -58.5176 -1.93185 1
      vertex -58.2611 -1.98289 1
    endloop
  endfacet
  facet normal 0.19516 0.980771 0
    outer loop
      vertex -58.5176 -1.93185 1
      vertex -58.2611 -1.98289 -1
      vertex -58.5176 -1.93185 -1
    endloop
  endfacet
  facet normal 0.659343 0.751842 -0
    outer loop
      vertex -59.2175 -1.58671 -1
      vertex -59.4142 -1.41421 1
      vertex -59.2175 -1.58671 1
    endloop
  endfacet
  facet normal 0.659343 0.751842 0
    outer loop
      vertex -59.4142 -1.41421 1
      vertex -59.2175 -1.58671 -1
      vertex -59.4142 -1.41421 -1
    endloop
  endfacet
  facet normal -0.5556 0.83145 0
    outer loop
      vertex -56.7825 -1.58671 -1
      vertex -57 -1.73205 1
      vertex -56.7825 -1.58671 1
    endloop
  endfacet
  facet normal -0.5556 0.83145 0
    outer loop
      vertex -57 -1.73205 1
      vertex -56.7825 -1.58671 -1
      vertex -57 -1.73205 -1
    endloop
  endfacet
  facet normal 0.442344 0.896845 -0
    outer loop
      vertex -58.7654 -1.84776 -1
      vertex -59 -1.73205 1
      vertex -58.7654 -1.84776 1
    endloop
  endfacet
  facet normal 0.442344 0.896845 0
    outer loop
      vertex -59 -1.73205 1
      vertex -58.7654 -1.84776 -1
      vertex -59 -1.73205 -1
    endloop
  endfacet
  facet normal 0.896734 0.442571 0
    outer loop
      vertex -59.732 -1 1
      vertex -59.8478 -0.765367 -1
      vertex -59.8478 -0.765367 1
    endloop
  endfacet
  facet normal 0.896734 0.442571 0
    outer loop
      vertex -59.8478 -0.765367 -1
      vertex -59.732 -1 1
      vertex -59.732 -1 -1
    endloop
  endfacet
  facet normal -0.0653902 0.99786 0
    outer loop
      vertex 58.2611 -1.98289 -1
      vertex 58 -2 1
      vertex 58.2611 -1.98289 1
    endloop
  endfacet
  facet normal -0.0653902 0.99786 0
    outer loop
      vertex 58 -2 1
      vertex 58.2611 -1.98289 -1
      vertex 58 -2 -1
    endloop
  endfacet
  facet normal -0.980813 -0.194951 0
    outer loop
      vertex 59.9829 0.261052 -1
      vertex 59.9319 0.517637 1
      vertex 59.9319 0.517637 -1
    endloop
  endfacet
  facet normal -0.980813 -0.194951 0
    outer loop
      vertex 59.9319 0.517637 1
      vertex 59.9829 0.261052 -1
      vertex 59.9829 0.261052 1
    endloop
  endfacet
  facet normal -0.997861 -0.0653641 0
    outer loop
      vertex 60 0 -1
      vertex 59.9829 0.261052 1
      vertex 59.9829 0.261052 -1
    endloop
  endfacet
  facet normal -0.997861 -0.0653641 0
    outer loop
      vertex 59.9829 0.261052 1
      vertex 60 0 -1
      vertex 60 0 1
    endloop
  endfacet
  facet normal -0.980813 0.194951 0
    outer loop
      vertex 59.9319 -0.517637 -1
      vertex 59.9829 -0.261052 1
      vertex 59.9829 -0.261052 -1
    endloop
  endfacet
  facet normal -0.980813 0.194951 0
    outer loop
      vertex 59.9829 -0.261052 1
      vertex 59.9319 -0.517637 -1
      vertex 59.9319 -0.517637 1
    endloop
  endfacet
  facet normal -0.946922 0.321463 0
    outer loop
      vertex 59.8478 -0.765367 -1
      vertex 59.9319 -0.517637 1
      vertex 59.9319 -0.517637 -1
    endloop
  endfacet
  facet normal -0.946922 0.321463 0
    outer loop
      vertex 59.9319 -0.517637 1
      vertex 59.8478 -0.765367 -1
      vertex 59.8478 -0.765367 1
    endloop
  endfacet
  facet normal 0.659343 0.751842 -0
    outer loop
      vertex 56.7825 -1.58671 -1
      vertex 56.5858 -1.41421 1
      vertex 56.7825 -1.58671 1
    endloop
  endfacet
  facet normal 0.659343 0.751842 0
    outer loop
      vertex 56.5858 -1.41421 1
      vertex 56.7825 -1.58671 -1
      vertex 56.5858 -1.41421 -1
    endloop
  endfacet
  facet normal 0.19516 0.980771 -0
    outer loop
      vertex 57.7389 -1.98289 -1
      vertex 57.4824 -1.93185 1
      vertex 57.7389 -1.98289 1
    endloop
  endfacet
  facet normal 0.19516 0.980771 0
    outer loop
      vertex 57.4824 -1.93185 1
      vertex 57.7389 -1.98289 -1
      vertex 57.4824 -1.93185 -1
    endloop
  endfacet
  facet normal 0.321348 -0.946961 0
    outer loop
      vertex 57.2346 1.84776 -1
      vertex 57.4824 1.93185 1
      vertex 57.2346 1.84776 1
    endloop
  endfacet
  facet normal 0.321348 -0.946961 0
    outer loop
      vertex 57.4824 1.93185 1
      vertex 57.2346 1.84776 -1
      vertex 57.4824 1.93185 -1
    endloop
  endfacet
  facet normal 0.5556 -0.83145 0
    outer loop
      vertex 56.7825 1.58671 -1
      vertex 57 1.73205 1
      vertex 56.7825 1.58671 1
    endloop
  endfacet
  facet normal 0.5556 -0.83145 0
    outer loop
      vertex 57 1.73205 1
      vertex 56.7825 1.58671 -1
      vertex 57 1.73205 -1
    endloop
  endfacet
  facet normal -0.896734 -0.442571 0
    outer loop
      vertex 59.8478 0.765367 -1
      vertex 59.732 1 1
      vertex 59.732 1 -1
    endloop
  endfacet
  facet normal -0.896734 -0.442571 0
    outer loop
      vertex 59.732 1 1
      vertex 59.8478 0.765367 -1
      vertex 59.8478 0.765367 1
    endloop
  endfacet
  facet normal -0.19516 0.980771 0
    outer loop
      vertex 58.5176 -1.93185 -1
      vertex 58.2611 -1.98289 1
      vertex 58.5176 -1.93185 1
    endloop
  endfacet
  facet normal -0.19516 0.980771 0
    outer loop
      vertex 58.2611 -1.98289 1
      vertex 58.5176 -1.93185 -1
      vertex 58.2611 -1.98289 -1
    endloop
  endfacet
  facet normal -0.442344 0.896845 0
    outer loop
      vertex 59 -1.73205 -1
      vertex 58.7654 -1.84776 1
      vertex 59 -1.73205 1
    endloop
  endfacet
  facet normal -0.442344 0.896845 0
    outer loop
      vertex 58.7654 -1.84776 1
      vertex 59 -1.73205 -1
      vertex 58.7654 -1.84776 -1
    endloop
  endfacet
  facet normal -0.321348 0.946961 0
    outer loop
      vertex 58.7654 -1.84776 -1
      vertex 58.5176 -1.93185 1
      vertex 58.7654 -1.84776 1
    endloop
  endfacet
  facet normal -0.321348 0.946961 0
    outer loop
      vertex 58.5176 -1.93185 1
      vertex 58.7654 -1.84776 -1
      vertex 58.5176 -1.93185 -1
    endloop
  endfacet
  facet normal -0.5556 0.83145 0
    outer loop
      vertex 59.2175 -1.58671 -1
      vertex 59 -1.73205 1
      vertex 59.2175 -1.58671 1
    endloop
  endfacet
  facet normal -0.5556 0.83145 0
    outer loop
      vertex 59 -1.73205 1
      vertex 59.2175 -1.58671 -1
      vertex 59 -1.73205 -1
    endloop
  endfacet
  facet normal 0.442344 -0.896845 0
    outer loop
      vertex 57 1.73205 -1
      vertex 57.2346 1.84776 1
      vertex 57 1.73205 1
    endloop
  endfacet
  facet normal 0.442344 -0.896845 0
    outer loop
      vertex 57.2346 1.84776 1
      vertex 57 1.73205 -1
      vertex 57.2346 1.84776 -1
    endloop
  endfacet
  facet normal 0.751826 0.659362 0
    outer loop
      vertex 56.5858 -1.41421 1
      vertex 56.4133 -1.21752 -1
      vertex 56.4133 -1.21752 1
    endloop
  endfacet
  facet normal 0.751826 0.659362 0
    outer loop
      vertex 56.4133 -1.21752 -1
      vertex 56.5858 -1.41421 1
      vertex 56.5858 -1.41421 -1
    endloop
  endfacet
  facet normal 0.997861 0.0653641 0
    outer loop
      vertex 56.0171 -0.261052 1
      vertex 56 0 -1
      vertex 56 0 1
    endloop
  endfacet
  facet normal 0.997861 0.0653641 0
    outer loop
      vertex 56 0 -1
      vertex 56.0171 -0.261052 1
      vertex 56.0171 -0.261052 -1
    endloop
  endfacet
  facet normal -0.831544 -0.555459 0
    outer loop
      vertex 59.732 1 -1
      vertex 59.5867 1.21752 1
      vertex 59.5867 1.21752 -1
    endloop
  endfacet
  facet normal -0.831544 -0.555459 0
    outer loop
      vertex 59.5867 1.21752 1
      vertex 59.732 1 -1
      vertex 59.732 1 1
    endloop
  endfacet
  facet normal 0.997861 -0.0653641 0
    outer loop
      vertex 56 0 1
      vertex 56.0171 0.261052 -1
      vertex 56.0171 0.261052 1
    endloop
  endfacet
  facet normal 0.997861 -0.0653641 0
    outer loop
      vertex 56.0171 0.261052 -1
      vertex 56 0 1
      vertex 56 0 -1
    endloop
  endfacet
  facet normal 0.5556 0.83145 -0
    outer loop
      vertex 57 -1.73205 -1
      vertex 56.7825 -1.58671 1
      vertex 57 -1.73205 1
    endloop
  endfacet
  facet normal 0.5556 0.83145 0
    outer loop
      vertex 56.7825 -1.58671 1
      vertex 57 -1.73205 -1
      vertex 56.7825 -1.58671 -1
    endloop
  endfacet
  facet normal 0.980813 -0.194951 0
    outer loop
      vertex 56.0171 0.261052 1
      vertex 56.0681 0.517637 -1
      vertex 56.0681 0.517637 1
    endloop
  endfacet
  facet normal 0.980813 -0.194951 0
    outer loop
      vertex 56.0681 0.517637 -1
      vertex 56.0171 0.261052 1
      vertex 56.0171 0.261052 -1
    endloop
  endfacet
  facet normal 0.751826 -0.659362 0
    outer loop
      vertex 56.4133 1.21752 1
      vertex 56.5858 1.41421 -1
      vertex 56.5858 1.41421 1
    endloop
  endfacet
  facet normal 0.751826 -0.659362 0
    outer loop
      vertex 56.5858 1.41421 -1
      vertex 56.4133 1.21752 1
      vertex 56.4133 1.21752 -1
    endloop
  endfacet
  facet normal 0.946922 0.321463 0
    outer loop
      vertex 56.1522 -0.765367 1
      vertex 56.0681 -0.517637 -1
      vertex 56.0681 -0.517637 1
    endloop
  endfacet
  facet normal 0.946922 0.321463 0
    outer loop
      vertex 56.0681 -0.517637 -1
      vertex 56.1522 -0.765367 1
      vertex 56.1522 -0.765367 -1
    endloop
  endfacet
  facet normal -0.997861 0.0653641 0
    outer loop
      vertex 59.9829 -0.261052 -1
      vertex 60 0 1
      vertex 60 0 -1
    endloop
  endfacet
  facet normal -0.997861 0.0653641 0
    outer loop
      vertex 60 0 1
      vertex 59.9829 -0.261052 -1
      vertex 59.9829 -0.261052 1
    endloop
  endfacet
  facet normal -0.442344 -0.896845 0
    outer loop
      vertex 58.7654 1.84776 -1
      vertex 59 1.73205 1
      vertex 58.7654 1.84776 1
    endloop
  endfacet
  facet normal -0.442344 -0.896845 -0
    outer loop
      vertex 59 1.73205 1
      vertex 58.7654 1.84776 -1
      vertex 59 1.73205 -1
    endloop
  endfacet
  facet normal -0.751826 -0.659362 0
    outer loop
      vertex 59.5867 1.21752 -1
      vertex 59.4142 1.41421 1
      vertex 59.4142 1.41421 -1
    endloop
  endfacet
  facet normal -0.751826 -0.659362 0
    outer loop
      vertex 59.4142 1.41421 1
      vertex 59.5867 1.21752 -1
      vertex 59.5867 1.21752 1
    endloop
  endfacet
  facet normal -0.5556 -0.83145 0
    outer loop
      vertex 59 1.73205 -1
      vertex 59.2175 1.58671 1
      vertex 59 1.73205 1
    endloop
  endfacet
  facet normal -0.5556 -0.83145 -0
    outer loop
      vertex 59.2175 1.58671 1
      vertex 59 1.73205 -1
      vertex 59.2175 1.58671 -1
    endloop
  endfacet
  facet normal -0.896734 0.442571 0
    outer loop
      vertex 59.732 -1 -1
      vertex 59.8478 -0.765367 1
      vertex 59.8478 -0.765367 -1
    endloop
  endfacet
  facet normal -0.896734 0.442571 0
    outer loop
      vertex 59.8478 -0.765367 1
      vertex 59.732 -1 -1
      vertex 59.732 -1 1
    endloop
  endfacet
  facet normal -0.831544 0.555459 0
    outer loop
      vertex 59.5867 -1.21752 -1
      vertex 59.732 -1 1
      vertex 59.732 -1 -1
    endloop
  endfacet
  facet normal -0.831544 0.555459 0
    outer loop
      vertex 59.732 -1 1
      vertex 59.5867 -1.21752 -1
      vertex 59.5867 -1.21752 1
    endloop
  endfacet
  facet normal 0.831368 -0.555723 0
    outer loop
      vertex 56.2679 1 1
      vertex 56.4133 1.21752 -1
      vertex 56.4133 1.21752 1
    endloop
  endfacet
  facet normal 0.831368 -0.555723 0
    outer loop
      vertex 56.4133 1.21752 -1
      vertex 56.2679 1 1
      vertex 56.2679 1 -1
    endloop
  endfacet
  facet normal 0.19516 -0.980771 0
    outer loop
      vertex 57.4824 1.93185 -1
      vertex 57.7389 1.98289 1
      vertex 57.4824 1.93185 1
    endloop
  endfacet
  facet normal 0.19516 -0.980771 0
    outer loop
      vertex 57.7389 1.98289 1
      vertex 57.4824 1.93185 -1
      vertex 57.7389 1.98289 -1
    endloop
  endfacet
  facet normal -0.659343 -0.751842 0
    outer loop
      vertex 59.2175 1.58671 -1
      vertex 59.4142 1.41421 1
      vertex 59.2175 1.58671 1
    endloop
  endfacet
  facet normal -0.659343 -0.751842 -0
    outer loop
      vertex 59.4142 1.41421 1
      vertex 59.2175 1.58671 -1
      vertex 59.4142 1.41421 -1
    endloop
  endfacet
  facet normal -0.751826 0.659362 0
    outer loop
      vertex 59.4142 -1.41421 -1
      vertex 59.5867 -1.21752 1
      vertex 59.5867 -1.21752 -1
    endloop
  endfacet
  facet normal -0.751826 0.659362 0
    outer loop
      vertex 59.5867 -1.21752 1
      vertex 59.4142 -1.41421 -1
      vertex 59.4142 -1.41421 1
    endloop
  endfacet
  facet normal 0.321348 0.946961 -0
    outer loop
      vertex 57.4824 -1.93185 -1
      vertex 57.2346 -1.84776 1
      vertex 57.4824 -1.93185 1
    endloop
  endfacet
  facet normal 0.321348 0.946961 0
    outer loop
      vertex 57.2346 -1.84776 1
      vertex 57.4824 -1.93185 -1
      vertex 57.2346 -1.84776 -1
    endloop
  endfacet
  facet normal -0.0653902 -0.99786 0
    outer loop
      vertex 58 2 -1
      vertex 58.2611 1.98289 1
      vertex 58 2 1
    endloop
  endfacet
  facet normal -0.0653902 -0.99786 -0
    outer loop
      vertex 58.2611 1.98289 1
      vertex 58 2 -1
      vertex 58.2611 1.98289 -1
    endloop
  endfacet
  facet normal 0.831368 0.555723 0
    outer loop
      vertex 56.4133 -1.21752 1
      vertex 56.2679 -1 -1
      vertex 56.2679 -1 1
    endloop
  endfacet
  facet normal 0.831368 0.555723 0
    outer loop
      vertex 56.2679 -1 -1
      vertex 56.4133 -1.21752 1
      vertex 56.4133 -1.21752 -1
    endloop
  endfacet
  facet normal 0.659343 -0.751842 0
    outer loop
      vertex 56.5858 1.41421 -1
      vertex 56.7825 1.58671 1
      vertex 56.5858 1.41421 1
    endloop
  endfacet
  facet normal 0.659343 -0.751842 0
    outer loop
      vertex 56.7825 1.58671 1
      vertex 56.5858 1.41421 -1
      vertex 56.7825 1.58671 -1
    endloop
  endfacet
  facet normal -0.19516 -0.980771 0
    outer loop
      vertex 58.2611 1.98289 -1
      vertex 58.5176 1.93185 1
      vertex 58.2611 1.98289 1
    endloop
  endfacet
  facet normal -0.19516 -0.980771 -0
    outer loop
      vertex 58.5176 1.93185 1
      vertex 58.2611 1.98289 -1
      vertex 58.5176 1.93185 -1
    endloop
  endfacet
  facet normal 0.896885 -0.442264 0
    outer loop
      vertex 56.1522 0.765367 1
      vertex 56.2679 1 -1
      vertex 56.2679 1 1
    endloop
  endfacet
  facet normal 0.896885 -0.442264 0
    outer loop
      vertex 56.2679 1 -1
      vertex 56.1522 0.765367 1
      vertex 56.1522 0.765367 -1
    endloop
  endfacet
  facet normal 0.0653902 -0.99786 0
    outer loop
      vertex 57.7389 1.98289 -1
      vertex 58 2 1
      vertex 57.7389 1.98289 1
    endloop
  endfacet
  facet normal 0.0653902 -0.99786 0
    outer loop
      vertex 58 2 1
      vertex 57.7389 1.98289 -1
      vertex 58 2 -1
    endloop
  endfacet
  facet normal 0.980813 0.194951 0
    outer loop
      vertex 56.0681 -0.517637 1
      vertex 56.0171 -0.261052 -1
      vertex 56.0171 -0.261052 1
    endloop
  endfacet
  facet normal 0.980813 0.194951 0
    outer loop
      vertex 56.0171 -0.261052 -1
      vertex 56.0681 -0.517637 1
      vertex 56.0681 -0.517637 -1
    endloop
  endfacet
  facet normal -0.321348 -0.946961 0
    outer loop
      vertex 58.5176 1.93185 -1
      vertex 58.7654 1.84776 1
      vertex 58.5176 1.93185 1
    endloop
  endfacet
  facet normal -0.321348 -0.946961 -0
    outer loop
      vertex 58.7654 1.84776 1
      vertex 58.5176 1.93185 -1
      vertex 58.7654 1.84776 -1
    endloop
  endfacet
  facet normal 0.946922 -0.321463 0
    outer loop
      vertex 56.0681 0.517637 1
      vertex 56.1522 0.765367 -1
      vertex 56.1522 0.765367 1
    endloop
  endfacet
  facet normal 0.946922 -0.321463 0
    outer loop
      vertex 56.1522 0.765367 -1
      vertex 56.0681 0.517637 1
      vertex 56.0681 0.517637 -1
    endloop
  endfacet
  facet normal -0.946922 -0.321463 0
    outer loop
      vertex 59.9319 0.517637 -1
      vertex 59.8478 0.765367 1
      vertex 59.8478 0.765367 -1
    endloop
  endfacet
  facet normal -0.946922 -0.321463 0
    outer loop
      vertex 59.8478 0.765367 1
      vertex 59.9319 0.517637 -1
      vertex 59.9319 0.517637 1
    endloop
  endfacet
  facet normal 0.442344 0.896845 -0
    outer loop
      vertex 57.2346 -1.84776 -1
      vertex 57 -1.73205 1
      vertex 57.2346 -1.84776 1
    endloop
  endfacet
  facet normal 0.442344 0.896845 0
    outer loop
      vertex 57 -1.73205 1
      vertex 57.2346 -1.84776 -1
      vertex 57 -1.73205 -1
    endloop
  endfacet
  facet normal 0.0653902 0.99786 -0
    outer loop
      vertex 58 -2 -1
      vertex 57.7389 -1.98289 1
      vertex 58 -2 1
    endloop
  endfacet
  facet normal 0.0653902 0.99786 0
    outer loop
      vertex 57.7389 -1.98289 1
      vertex 58 -2 -1
      vertex 57.7389 -1.98289 -1
    endloop
  endfacet
  facet normal 0.896885 0.442264 0
    outer loop
      vertex 56.2679 -1 1
      vertex 56.1522 -0.765367 -1
      vertex 56.1522 -0.765367 1
    endloop
  endfacet
  facet normal 0.896885 0.442264 0
    outer loop
      vertex 56.1522 -0.765367 -1
      vertex 56.2679 -1 1
      vertex 56.2679 -1 -1
    endloop
  endfacet
  facet normal -0.659343 0.751842 0
    outer loop
      vertex 59.4142 -1.41421 -1
      vertex 59.2175 -1.58671 1
      vertex 59.4142 -1.41421 1
    endloop
  endfacet
  facet normal -0.659343 0.751842 0
    outer loop
      vertex 59.2175 -1.58671 1
      vertex 59.4142 -1.41421 -1
      vertex 59.2175 -1.58671 -1
    endloop
  endfacet
endsolid OpenSCAD_Model
