solid OpenSCAD_Model
  facet normal 1 -0 0
    outer loop
      vertex 95 -55 1.5
      vertex 95 55 -1.5
      vertex 95 55 1.5
    endloop
  endfacet
  facet normal 1 0 0
    outer loop
      vertex 95 55 -1.5
      vertex 95 -55 1.5
      vertex 95 -55 -1.5
    endloop
  endfacet
  facet normal -0 0 1
    outer loop
      vertex -47.5 35.7391 1.5
      vertex -35.5 -35.7391 1.5
      vertex -35.5 35.7391 1.5
    endloop
  endfacet
  facet normal 0 0 1
    outer loop
      vertex -35.5 -35.7391 1.5
      vertex -47.5 35.7391 1.5
      vertex -47.5 -35.7391 1.5
    endloop
  endfacet
  facet normal 0 0 1
    outer loop
      vertex 95 55 1.5
      vertex 89 1.5 1.5
      vertex 95 -55 1.5
    endloop
  endfacet
  facet normal 0 0 1
    outer loop
      vertex 95 55 1.5
      vertex 77 1.5 1.5
      vertex 89 1.5 1.5
    endloop
  endfacet
  facet normal -0 0 1
    outer loop
      vertex -35.5 35.7391 1.5
      vertex 77 1.5 1.5
      vertex -35.5 38.7391 1.5
    endloop
  endfacet
  facet normal 0 0 1
    outer loop
      vertex 95 55 1.5
      vertex -35.5 38.7391 1.5
      vertex 77 1.5 1.5
    endloop
  endfacet
  facet normal -0 0 1
    outer loop
      vertex -95 55 1.5
      vertex -35.5 38.7391 1.5
      vertex 95 55 1.5
    endloop
  endfacet
  facet normal 0 0 1
    outer loop
      vertex -95 55 1.5
      vertex -47.5 35.7391 1.5
      vertex -47.5 38.7391 1.5
    endloop
  endfacet
  facet normal 0 0 1
    outer loop
      vertex -47.5 35.7391 1.5
      vertex -95 55 1.5
      vertex -47.5 -35.7391 1.5
    endloop
  endfacet
  facet normal 0 0 1
    outer loop
      vertex -95 -55 1.5
      vertex -47.5 -35.7391 1.5
      vertex -95 55 1.5
    endloop
  endfacet
  facet normal 0 0 1
    outer loop
      vertex -35.5 38.7391 1.5
      vertex -95 55 1.5
      vertex -47.5 38.7391 1.5
    endloop
  endfacet
  facet normal -0 0 1
    outer loop
      vertex 89 -1.5 1.5
      vertex 95 -55 1.5
      vertex 89 1.5 1.5
    endloop
  endfacet
  facet normal -0 0 1
    outer loop
      vertex 77 -1.5 1.5
      vertex 95 -55 1.5
      vertex 89 -1.5 1.5
    endloop
  endfacet
  facet normal 0 0 1
    outer loop
      vertex 77 1.5 1.5
      vertex -35.5 35.7391 1.5
      vertex 77 -1.5 1.5
    endloop
  endfacet
  facet normal 0 0 1
    outer loop
      vertex -35.5 -35.7391 1.5
      vertex 77 -1.5 1.5
      vertex -35.5 35.7391 1.5
    endloop
  endfacet
  facet normal 0 0 1
    outer loop
      vertex -35.5 -38.7391 1.5
      vertex 77 -1.5 1.5
      vertex -35.5 -35.7391 1.5
    endloop
  endfacet
  facet normal 0 0 1
    outer loop
      vertex 77 -1.5 1.5
      vertex -35.5 -38.7391 1.5
      vertex 95 -55 1.5
    endloop
  endfacet
  facet normal 0 0 1
    outer loop
      vertex -95 -55 1.5
      vertex -35.5 -38.7391 1.5
      vertex -47.5 -38.7391 1.5
    endloop
  endfacet
  facet normal 0 0 1
    outer loop
      vertex -35.5 -38.7391 1.5
      vertex -95 -55 1.5
      vertex 95 -55 1.5
    endloop
  endfacet
  facet normal 0 0 1
    outer loop
      vertex -47.5 -35.7391 1.5
      vertex -95 -55 1.5
      vertex -47.5 -38.7391 1.5
    endloop
  endfacet
  facet normal 0 0 -1
    outer loop
      vertex -47.5 -35.7391 -1.5
      vertex -35.5 35.7391 -1.5
      vertex -35.5 -35.7391 -1.5
    endloop
  endfacet
  facet normal -0 0 -1
    outer loop
      vertex -35.5 35.7391 -1.5
      vertex -47.5 -35.7391 -1.5
      vertex -47.5 35.7391 -1.5
    endloop
  endfacet
  facet normal 0 0 -1
    outer loop
      vertex 95 -55 -1.5
      vertex 89 -1.5 -1.5
      vertex 95 55 -1.5
    endloop
  endfacet
  facet normal 0 0 -1
    outer loop
      vertex 95 -55 -1.5
      vertex 77 -1.5 -1.5
      vertex 89 -1.5 -1.5
    endloop
  endfacet
  facet normal 0 0 -1
    outer loop
      vertex -35.5 -35.7391 -1.5
      vertex 77 -1.5 -1.5
      vertex -35.5 -38.7391 -1.5
    endloop
  endfacet
  facet normal 0 0 -1
    outer loop
      vertex 95 -55 -1.5
      vertex -35.5 -38.7391 -1.5
      vertex 77 -1.5 -1.5
    endloop
  endfacet
  facet normal 0 0 -1
    outer loop
      vertex -95 -55 -1.5
      vertex -35.5 -38.7391 -1.5
      vertex 95 -55 -1.5
    endloop
  endfacet
  facet normal 0 0 -1
    outer loop
      vertex -95 -55 -1.5
      vertex -47.5 -35.7391 -1.5
      vertex -47.5 -38.7391 -1.5
    endloop
  endfacet
  facet normal -0 0 -1
    outer loop
      vertex -47.5 -35.7391 -1.5
      vertex -95 -55 -1.5
      vertex -47.5 35.7391 -1.5
    endloop
  endfacet
  facet normal 0 0 -1
    outer loop
      vertex -95 55 -1.5
      vertex -47.5 35.7391 -1.5
      vertex -95 -55 -1.5
    endloop
  endfacet
  facet normal -0 0 -1
    outer loop
      vertex -35.5 -38.7391 -1.5
      vertex -95 -55 -1.5
      vertex -47.5 -38.7391 -1.5
    endloop
  endfacet
  facet normal 0 0 -1
    outer loop
      vertex 89 1.5 -1.5
      vertex 95 55 -1.5
      vertex 89 -1.5 -1.5
    endloop
  endfacet
  facet normal 0 0 -1
    outer loop
      vertex 77 1.5 -1.5
      vertex 95 55 -1.5
      vertex 89 1.5 -1.5
    endloop
  endfacet
  facet normal -0 0 -1
    outer loop
      vertex 77 -1.5 -1.5
      vertex -35.5 -35.7391 -1.5
      vertex 77 1.5 -1.5
    endloop
  endfacet
  facet normal 0 0 -1
    outer loop
      vertex -35.5 35.7391 -1.5
      vertex 77 1.5 -1.5
      vertex -35.5 -35.7391 -1.5
    endloop
  endfacet
  facet normal 0 0 -1
    outer loop
      vertex -35.5 38.7391 -1.5
      vertex 77 1.5 -1.5
      vertex -35.5 35.7391 -1.5
    endloop
  endfacet
  facet normal 0 0 -1
    outer loop
      vertex 77 1.5 -1.5
      vertex -35.5 38.7391 -1.5
      vertex 95 55 -1.5
    endloop
  endfacet
  facet normal 0 0 -1
    outer loop
      vertex -95 55 -1.5
      vertex -35.5 38.7391 -1.5
      vertex -47.5 38.7391 -1.5
    endloop
  endfacet
  facet normal 0 0 -1
    outer loop
      vertex -35.5 38.7391 -1.5
      vertex -95 55 -1.5
      vertex 95 55 -1.5
    endloop
  endfacet
  facet normal 0 0 -1
    outer loop
      vertex -47.5 35.7391 -1.5
      vertex -95 55 -1.5
      vertex -47.5 38.7391 -1.5
    endloop
  endfacet
  facet normal -1 0 0
    outer loop
      vertex -95 -55 -1.5
      vertex -95 55 1.5
      vertex -95 55 -1.5
    endloop
  endfacet
  facet normal -1 -0 0
    outer loop
      vertex -95 55 1.5
      vertex -95 -55 -1.5
      vertex -95 -55 1.5
    endloop
  endfacet
  facet normal 0 1 -0
    outer loop
      vertex 95 55 -1.5
      vertex -95 55 1.5
      vertex 95 55 1.5
    endloop
  endfacet
  facet normal 0 1 0
    outer loop
      vertex -95 55 1.5
      vertex 95 55 -1.5
      vertex -95 55 -1.5
    endloop
  endfacet
  facet normal 0 -1 0
    outer loop
      vertex -95 -55 -1.5
      vertex 95 -55 1.5
      vertex -95 -55 1.5
    endloop
  endfacet
  facet normal 0 -1 -0
    outer loop
      vertex 95 -55 1.5
      vertex -95 -55 -1.5
      vertex 95 -55 -1.5
    endloop
  endfacet
  facet normal -1 0 0
    outer loop
      vertex 89 -1.5 -1.5
      vertex 89 1.5 1.5
      vertex 89 1.5 -1.5
    endloop
  endfacet
  facet normal -1 -0 0
    outer loop
      vertex 89 1.5 1.5
      vertex 89 -1.5 -1.5
      vertex 89 -1.5 1.5
    endloop
  endfacet
  facet normal 1 -0 0
    outer loop
      vertex 77 -1.5 1.5
      vertex 77 1.5 -1.5
      vertex 77 1.5 1.5
    endloop
  endfacet
  facet normal 1 0 0
    outer loop
      vertex 77 1.5 -1.5
      vertex 77 -1.5 1.5
      vertex 77 -1.5 -1.5
    endloop
  endfacet
  facet normal 0 -1 0
    outer loop
      vertex 77 1.5 -1.5
      vertex 89 1.5 1.5
      vertex 77 1.5 1.5
    endloop
  endfacet
  facet normal 0 -1 -0
    outer loop
      vertex 89 1.5 1.5
      vertex 77 1.5 -1.5
      vertex 89 1.5 -1.5
    endloop
  endfacet
  facet normal 0 1 -0
    outer loop
      vertex 89 -1.5 -1.5
      vertex 77 -1.5 1.5
      vertex 89 -1.5 1.5
    endloop
  endfacet
  facet normal 0 1 0
    outer loop
      vertex 77 -1.5 1.5
      vertex 89 -1.5 -1.5
      vertex 77 -1.5 -1.5
    endloop
  endfacet
  facet normal -1 0 0
    outer loop
      vertex -35.5 35.7391 -1.5
      vertex -35.5 38.7391 1.5
      vertex -35.5 38.7391 -1.5
    endloop
  endfacet
  facet normal -1 -0 0
    outer loop
      vertex -35.5 38.7391 1.5
      vertex -35.5 35.7391 -1.5
      vertex -35.5 35.7391 1.5
    endloop
  endfacet
  facet normal 1 -0 0
    outer loop
      vertex -47.5 35.7391 1.5
      vertex -47.5 38.7391 -1.5
      vertex -47.5 38.7391 1.5
    endloop
  endfacet
  facet normal 1 0 0
    outer loop
      vertex -47.5 38.7391 -1.5
      vertex -47.5 35.7391 1.5
      vertex -47.5 35.7391 -1.5
    endloop
  endfacet
  facet normal 0 -1 0
    outer loop
      vertex -47.5 38.7391 -1.5
      vertex -35.5 38.7391 1.5
      vertex -47.5 38.7391 1.5
    endloop
  endfacet
  facet normal 0 -1 -0
    outer loop
      vertex -35.5 38.7391 1.5
      vertex -47.5 38.7391 -1.5
      vertex -35.5 38.7391 -1.5
    endloop
  endfacet
  facet normal 0 1 -0
    outer loop
      vertex -35.5 35.7391 -1.5
      vertex -47.5 35.7391 1.5
      vertex -35.5 35.7391 1.5
    endloop
  endfacet
  facet normal 0 1 0
    outer loop
      vertex -47.5 35.7391 1.5
      vertex -35.5 35.7391 -1.5
      vertex -47.5 35.7391 -1.5
    endloop
  endfacet
  facet normal -1 0 0
    outer loop
      vertex -35.5 -38.7391 -1.5
      vertex -35.5 -35.7391 1.5
      vertex -35.5 -35.7391 -1.5
    endloop
  endfacet
  facet normal -1 -0 0
    outer loop
      vertex -35.5 -35.7391 1.5
      vertex -35.5 -38.7391 -1.5
      vertex -35.5 -38.7391 1.5
    endloop
  endfacet
  facet normal 1 -0 0
    outer loop
      vertex -47.5 -38.7391 1.5
      vertex -47.5 -35.7391 -1.5
      vertex -47.5 -35.7391 1.5
    endloop
  endfacet
  facet normal 1 0 0
    outer loop
      vertex -47.5 -35.7391 -1.5
      vertex -47.5 -38.7391 1.5
      vertex -47.5 -38.7391 -1.5
    endloop
  endfacet
  facet normal 0 -1 0
    outer loop
      vertex -47.5 -35.7391 -1.5
      vertex -35.5 -35.7391 1.5
      vertex -47.5 -35.7391 1.5
    endloop
  endfacet
  facet normal 0 -1 -0
    outer loop
      vertex -35.5 -35.7391 1.5
      vertex -47.5 -35.7391 -1.5
      vertex -35.5 -35.7391 -1.5
    endloop
  endfacet
  facet normal 0 1 -0
    outer loop
      vertex -35.5 -38.7391 -1.5
      vertex -47.5 -38.7391 1.5
      vertex -35.5 -38.7391 1.5
    endloop
  endfacet
  facet normal 0 1 0
    outer loop
      vertex -47.5 -38.7391 1.5
      vertex -35.5 -38.7391 -1.5
      vertex -47.5 -38.7391 -1.5
    endloop
  endfacet
endsolid OpenSCAD_Model
