solid OpenSCAD_Model
  facet normal 0.99786 0.0653933 0
    outer loop
      vertex 13 0 35
      vertex 12.8888 1.69684 -35
      vertex 12.8888 1.69684 35
    endloop
  endfacet
  facet normal 0.99786 0.0653933 0
    outer loop
      vertex 12.8888 1.69684 -35
      vertex 13 0 35
      vertex 13 0 -35
    endloop
  endfacet
  facet normal 0.980779 0.19512 0
    outer loop
      vertex 12.8888 1.69684 35
      vertex 12.557 3.36465 -35
      vertex 12.557 3.36465 35
    endloop
  endfacet
  facet normal 0.980779 0.19512 0
    outer loop
      vertex 12.557 3.36465 -35
      vertex 12.8888 1.69684 35
      vertex 12.8888 1.69684 -35
    endloop
  endfacet
  facet normal 0.94693 0.32144 0
    outer loop
      vertex 12.557 3.36465 35
      vertex 12.0104 4.97488 -35
      vertex 12.0104 4.97488 35
    endloop
  endfacet
  facet normal 0.94693 0.32144 0
    outer loop
      vertex 12.0104 4.97488 -35
      vertex 12.557 3.36465 35
      vertex 12.557 3.36465 -35
    endloop
  endfacet
  facet normal 0.896874 0.442286 0
    outer loop
      vertex 12.0104 4.97488 35
      vertex 11.2583 6.5 -35
      vertex 11.2583 6.5 35
    endloop
  endfacet
  facet normal 0.896874 0.442286 0
    outer loop
      vertex 11.2583 6.5 -35
      vertex 12.0104 4.97488 35
      vertex 12.0104 4.97488 -35
    endloop
  endfacet
  facet normal 0.83148 0.555555 0
    outer loop
      vertex 11.2583 6.5 35
      vertex 10.3136 7.9139 -35
      vertex 10.3136 7.9139 35
    endloop
  endfacet
  facet normal 0.83148 0.555555 0
    outer loop
      vertex 10.3136 7.9139 -35
      vertex 11.2583 6.5 35
      vertex 11.2583 6.5 -35
    endloop
  endfacet
  facet normal 0.751839 0.659347 0
    outer loop
      vertex 10.3136 7.9139 35
      vertex 9.19239 9.19239 -35
      vertex 9.19239 9.19239 35
    endloop
  endfacet
  facet normal 0.751839 0.659347 0
    outer loop
      vertex 9.19239 9.19239 -35
      vertex 10.3136 7.9139 35
      vertex 10.3136 7.9139 -35
    endloop
  endfacet
  facet normal 0.659347 0.751839 -0
    outer loop
      vertex 9.19239 9.19239 -35
      vertex 7.9139 10.3136 35
      vertex 9.19239 9.19239 35
    endloop
  endfacet
  facet normal 0.659347 0.751839 0
    outer loop
      vertex 7.9139 10.3136 35
      vertex 9.19239 9.19239 -35
      vertex 7.9139 10.3136 -35
    endloop
  endfacet
  facet normal 0.555555 0.83148 -0
    outer loop
      vertex 7.9139 10.3136 -35
      vertex 6.5 11.2583 35
      vertex 7.9139 10.3136 35
    endloop
  endfacet
  facet normal 0.555555 0.83148 0
    outer loop
      vertex 6.5 11.2583 35
      vertex 7.9139 10.3136 -35
      vertex 6.5 11.2583 -35
    endloop
  endfacet
  facet normal 0.442286 0.896874 -0
    outer loop
      vertex 6.5 11.2583 -35
      vertex 4.97488 12.0104 35
      vertex 6.5 11.2583 35
    endloop
  endfacet
  facet normal 0.442286 0.896874 0
    outer loop
      vertex 4.97488 12.0104 35
      vertex 6.5 11.2583 -35
      vertex 4.97488 12.0104 -35
    endloop
  endfacet
  facet normal 0.32144 0.94693 -0
    outer loop
      vertex 4.97488 12.0104 -35
      vertex 3.36465 12.557 35
      vertex 4.97488 12.0104 35
    endloop
  endfacet
  facet normal 0.32144 0.94693 0
    outer loop
      vertex 3.36465 12.557 35
      vertex 4.97488 12.0104 -35
      vertex 3.36465 12.557 -35
    endloop
  endfacet
  facet normal 0.19512 0.980779 -0
    outer loop
      vertex 3.36465 12.557 -35
      vertex 1.69684 12.8888 35
      vertex 3.36465 12.557 35
    endloop
  endfacet
  facet normal 0.19512 0.980779 0
    outer loop
      vertex 1.69684 12.8888 35
      vertex 3.36465 12.557 -35
      vertex 1.69684 12.8888 -35
    endloop
  endfacet
  facet normal 0.0653933 0.99786 -0
    outer loop
      vertex 1.69684 12.8888 -35
      vertex 0 13 35
      vertex 1.69684 12.8888 35
    endloop
  endfacet
  facet normal 0.0653933 0.99786 0
    outer loop
      vertex 0 13 35
      vertex 1.69684 12.8888 -35
      vertex 0 13 -35
    endloop
  endfacet
  facet normal -0.0653933 0.99786 0
    outer loop
      vertex 0 13 -35
      vertex -1.69684 12.8888 35
      vertex 0 13 35
    endloop
  endfacet
  facet normal -0.0653933 0.99786 0
    outer loop
      vertex -1.69684 12.8888 35
      vertex 0 13 -35
      vertex -1.69684 12.8888 -35
    endloop
  endfacet
  facet normal -0.19512 0.980779 0
    outer loop
      vertex -1.69684 12.8888 -35
      vertex -3.36465 12.557 35
      vertex -1.69684 12.8888 35
    endloop
  endfacet
  facet normal -0.19512 0.980779 0
    outer loop
      vertex -3.36465 12.557 35
      vertex -1.69684 12.8888 -35
      vertex -3.36465 12.557 -35
    endloop
  endfacet
  facet normal -0.32144 0.94693 0
    outer loop
      vertex -3.36465 12.557 -35
      vertex -4.97488 12.0104 35
      vertex -3.36465 12.557 35
    endloop
  endfacet
  facet normal -0.32144 0.94693 0
    outer loop
      vertex -4.97488 12.0104 35
      vertex -3.36465 12.557 -35
      vertex -4.97488 12.0104 -35
    endloop
  endfacet
  facet normal -0.442286 0.896874 0
    outer loop
      vertex -4.97488 12.0104 -35
      vertex -6.5 11.2583 35
      vertex -4.97488 12.0104 35
    endloop
  endfacet
  facet normal -0.442286 0.896874 0
    outer loop
      vertex -6.5 11.2583 35
      vertex -4.97488 12.0104 -35
      vertex -6.5 11.2583 -35
    endloop
  endfacet
  facet normal -0.555555 0.83148 0
    outer loop
      vertex -6.5 11.2583 -35
      vertex -7.9139 10.3136 35
      vertex -6.5 11.2583 35
    endloop
  endfacet
  facet normal -0.555555 0.83148 0
    outer loop
      vertex -7.9139 10.3136 35
      vertex -6.5 11.2583 -35
      vertex -7.9139 10.3136 -35
    endloop
  endfacet
  facet normal -0.659347 0.751839 0
    outer loop
      vertex -7.9139 10.3136 -35
      vertex -9.19239 9.19239 35
      vertex -7.9139 10.3136 35
    endloop
  endfacet
  facet normal -0.659347 0.751839 0
    outer loop
      vertex -9.19239 9.19239 35
      vertex -7.9139 10.3136 -35
      vertex -9.19239 9.19239 -35
    endloop
  endfacet
  facet normal -0.751839 0.659347 0
    outer loop
      vertex -10.3136 7.9139 -35
      vertex -9.19239 9.19239 35
      vertex -9.19239 9.19239 -35
    endloop
  endfacet
  facet normal -0.751839 0.659347 0
    outer loop
      vertex -9.19239 9.19239 35
      vertex -10.3136 7.9139 -35
      vertex -10.3136 7.9139 35
    endloop
  endfacet
  facet normal -0.83148 0.555555 0
    outer loop
      vertex -11.2583 6.5 -35
      vertex -10.3136 7.9139 35
      vertex -10.3136 7.9139 -35
    endloop
  endfacet
  facet normal -0.83148 0.555555 0
    outer loop
      vertex -10.3136 7.9139 35
      vertex -11.2583 6.5 -35
      vertex -11.2583 6.5 35
    endloop
  endfacet
  facet normal -0.896874 0.442286 0
    outer loop
      vertex -12.0104 4.97488 -35
      vertex -11.2583 6.5 35
      vertex -11.2583 6.5 -35
    endloop
  endfacet
  facet normal -0.896874 0.442286 0
    outer loop
      vertex -11.2583 6.5 35
      vertex -12.0104 4.97488 -35
      vertex -12.0104 4.97488 35
    endloop
  endfacet
  facet normal -0.94693 0.32144 0
    outer loop
      vertex -12.557 3.36465 -35
      vertex -12.0104 4.97488 35
      vertex -12.0104 4.97488 -35
    endloop
  endfacet
  facet normal -0.94693 0.32144 0
    outer loop
      vertex -12.0104 4.97488 35
      vertex -12.557 3.36465 -35
      vertex -12.557 3.36465 35
    endloop
  endfacet
  facet normal -0.980779 0.19512 0
    outer loop
      vertex -12.8888 1.69684 -35
      vertex -12.557 3.36465 35
      vertex -12.557 3.36465 -35
    endloop
  endfacet
  facet normal -0.980779 0.19512 0
    outer loop
      vertex -12.557 3.36465 35
      vertex -12.8888 1.69684 -35
      vertex -12.8888 1.69684 35
    endloop
  endfacet
  facet normal -0.99786 0.0653933 0
    outer loop
      vertex -13 -0 -35
      vertex -12.8888 1.69684 35
      vertex -12.8888 1.69684 -35
    endloop
  endfacet
  facet normal -0.99786 0.0653933 0
    outer loop
      vertex -12.8888 1.69684 35
      vertex -13 -0 -35
      vertex -13 -0 35
    endloop
  endfacet
  facet normal -0.99786 -0.0653933 0
    outer loop
      vertex -12.8888 -1.69684 -35
      vertex -13 -0 35
      vertex -13 -0 -35
    endloop
  endfacet
  facet normal -0.99786 -0.0653933 0
    outer loop
      vertex -13 -0 35
      vertex -12.8888 -1.69684 -35
      vertex -12.8888 -1.69684 35
    endloop
  endfacet
  facet normal -0.980779 -0.19512 0
    outer loop
      vertex -12.557 -3.36465 -35
      vertex -12.8888 -1.69684 35
      vertex -12.8888 -1.69684 -35
    endloop
  endfacet
  facet normal -0.980779 -0.19512 0
    outer loop
      vertex -12.8888 -1.69684 35
      vertex -12.557 -3.36465 -35
      vertex -12.557 -3.36465 35
    endloop
  endfacet
  facet normal -0.94693 -0.32144 0
    outer loop
      vertex -12.0104 -4.97488 -35
      vertex -12.557 -3.36465 35
      vertex -12.557 -3.36465 -35
    endloop
  endfacet
  facet normal -0.94693 -0.32144 0
    outer loop
      vertex -12.557 -3.36465 35
      vertex -12.0104 -4.97488 -35
      vertex -12.0104 -4.97488 35
    endloop
  endfacet
  facet normal -0.896874 -0.442286 0
    outer loop
      vertex -11.2583 -6.5 -35
      vertex -12.0104 -4.97488 35
      vertex -12.0104 -4.97488 -35
    endloop
  endfacet
  facet normal -0.896874 -0.442286 0
    outer loop
      vertex -12.0104 -4.97488 35
      vertex -11.2583 -6.5 -35
      vertex -11.2583 -6.5 35
    endloop
  endfacet
  facet normal -0.83148 -0.555555 0
    outer loop
      vertex -10.3136 -7.9139 -35
      vertex -11.2583 -6.5 35
      vertex -11.2583 -6.5 -35
    endloop
  endfacet
  facet normal -0.83148 -0.555555 0
    outer loop
      vertex -11.2583 -6.5 35
      vertex -10.3136 -7.9139 -35
      vertex -10.3136 -7.9139 35
    endloop
  endfacet
  facet normal -0.751839 -0.659347 0
    outer loop
      vertex -9.19239 -9.19239 -35
      vertex -10.3136 -7.9139 35
      vertex -10.3136 -7.9139 -35
    endloop
  endfacet
  facet normal -0.751839 -0.659347 0
    outer loop
      vertex -10.3136 -7.9139 35
      vertex -9.19239 -9.19239 -35
      vertex -9.19239 -9.19239 35
    endloop
  endfacet
  facet normal -0.659347 -0.751839 0
    outer loop
      vertex -9.19239 -9.19239 -35
      vertex -7.9139 -10.3136 35
      vertex -9.19239 -9.19239 35
    endloop
  endfacet
  facet normal -0.659347 -0.751839 -0
    outer loop
      vertex -7.9139 -10.3136 35
      vertex -9.19239 -9.19239 -35
      vertex -7.9139 -10.3136 -35
    endloop
  endfacet
  facet normal -0.555555 -0.83148 0
    outer loop
      vertex -7.9139 -10.3136 -35
      vertex -6.5 -11.2583 35
      vertex -7.9139 -10.3136 35
    endloop
  endfacet
  facet normal -0.555555 -0.83148 -0
    outer loop
      vertex -6.5 -11.2583 35
      vertex -7.9139 -10.3136 -35
      vertex -6.5 -11.2583 -35
    endloop
  endfacet
  facet normal -0.442286 -0.896874 0
    outer loop
      vertex -6.5 -11.2583 -35
      vertex -4.97488 -12.0104 35
      vertex -6.5 -11.2583 35
    endloop
  endfacet
  facet normal -0.442286 -0.896874 -0
    outer loop
      vertex -4.97488 -12.0104 35
      vertex -6.5 -11.2583 -35
      vertex -4.97488 -12.0104 -35
    endloop
  endfacet
  facet normal -0.32144 -0.94693 0
    outer loop
      vertex -4.97488 -12.0104 -35
      vertex -3.36465 -12.557 35
      vertex -4.97488 -12.0104 35
    endloop
  endfacet
  facet normal -0.32144 -0.94693 -0
    outer loop
      vertex -3.36465 -12.557 35
      vertex -4.97488 -12.0104 -35
      vertex -3.36465 -12.557 -35
    endloop
  endfacet
  facet normal -0.19512 -0.980779 0
    outer loop
      vertex -3.36465 -12.557 -35
      vertex -1.69684 -12.8888 35
      vertex -3.36465 -12.557 35
    endloop
  endfacet
  facet normal -0.19512 -0.980779 -0
    outer loop
      vertex -1.69684 -12.8888 35
      vertex -3.36465 -12.557 -35
      vertex -1.69684 -12.8888 -35
    endloop
  endfacet
  facet normal -0.0653933 -0.99786 0
    outer loop
      vertex -1.69684 -12.8888 -35
      vertex -0 -13 35
      vertex -1.69684 -12.8888 35
    endloop
  endfacet
  facet normal -0.0653933 -0.99786 -0
    outer loop
      vertex -0 -13 35
      vertex -1.69684 -12.8888 -35
      vertex -0 -13 -35
    endloop
  endfacet
  facet normal 0.0653933 -0.99786 0
    outer loop
      vertex -0 -13 -35
      vertex 1.69684 -12.8888 35
      vertex -0 -13 35
    endloop
  endfacet
  facet normal 0.0653933 -0.99786 0
    outer loop
      vertex 1.69684 -12.8888 35
      vertex -0 -13 -35
      vertex 1.69684 -12.8888 -35
    endloop
  endfacet
  facet normal 0.19512 -0.980779 0
    outer loop
      vertex 1.69684 -12.8888 -35
      vertex 3.36465 -12.557 35
      vertex 1.69684 -12.8888 35
    endloop
  endfacet
  facet normal 0.19512 -0.980779 0
    outer loop
      vertex 3.36465 -12.557 35
      vertex 1.69684 -12.8888 -35
      vertex 3.36465 -12.557 -35
    endloop
  endfacet
  facet normal 0.32144 -0.94693 0
    outer loop
      vertex 3.36465 -12.557 -35
      vertex 4.97488 -12.0104 35
      vertex 3.36465 -12.557 35
    endloop
  endfacet
  facet normal 0.32144 -0.94693 0
    outer loop
      vertex 4.97488 -12.0104 35
      vertex 3.36465 -12.557 -35
      vertex 4.97488 -12.0104 -35
    endloop
  endfacet
  facet normal 0.442286 -0.896874 0
    outer loop
      vertex 4.97488 -12.0104 -35
      vertex 6.5 -11.2583 35
      vertex 4.97488 -12.0104 35
    endloop
  endfacet
  facet normal 0.442286 -0.896874 0
    outer loop
      vertex 6.5 -11.2583 35
      vertex 4.97488 -12.0104 -35
      vertex 6.5 -11.2583 -35
    endloop
  endfacet
  facet normal 0.555555 -0.83148 0
    outer loop
      vertex 6.5 -11.2583 -35
      vertex 7.9139 -10.3136 35
      vertex 6.5 -11.2583 35
    endloop
  endfacet
  facet normal 0.555555 -0.83148 0
    outer loop
      vertex 7.9139 -10.3136 35
      vertex 6.5 -11.2583 -35
      vertex 7.9139 -10.3136 -35
    endloop
  endfacet
  facet normal 0.659347 -0.751839 0
    outer loop
      vertex 7.9139 -10.3136 -35
      vertex 9.19239 -9.19239 35
      vertex 7.9139 -10.3136 35
    endloop
  endfacet
  facet normal 0.659347 -0.751839 0
    outer loop
      vertex 9.19239 -9.19239 35
      vertex 7.9139 -10.3136 -35
      vertex 9.19239 -9.19239 -35
    endloop
  endfacet
  facet normal 0.751839 -0.659347 0
    outer loop
      vertex 9.19239 -9.19239 35
      vertex 10.3136 -7.9139 -35
      vertex 10.3136 -7.9139 35
    endloop
  endfacet
  facet normal 0.751839 -0.659347 0
    outer loop
      vertex 10.3136 -7.9139 -35
      vertex 9.19239 -9.19239 35
      vertex 9.19239 -9.19239 -35
    endloop
  endfacet
  facet normal 0.83148 -0.555555 0
    outer loop
      vertex 10.3136 -7.9139 35
      vertex 11.2583 -6.5 -35
      vertex 11.2583 -6.5 35
    endloop
  endfacet
  facet normal 0.83148 -0.555555 0
    outer loop
      vertex 11.2583 -6.5 -35
      vertex 10.3136 -7.9139 35
      vertex 10.3136 -7.9139 -35
    endloop
  endfacet
  facet normal 0.896874 -0.442286 0
    outer loop
      vertex 11.2583 -6.5 35
      vertex 12.0104 -4.97488 -35
      vertex 12.0104 -4.97488 35
    endloop
  endfacet
  facet normal 0.896874 -0.442286 0
    outer loop
      vertex 12.0104 -4.97488 -35
      vertex 11.2583 -6.5 35
      vertex 11.2583 -6.5 -35
    endloop
  endfacet
  facet normal 0.94693 -0.32144 0
    outer loop
      vertex 12.0104 -4.97488 35
      vertex 12.557 -3.36465 -35
      vertex 12.557 -3.36465 35
    endloop
  endfacet
  facet normal 0.94693 -0.32144 0
    outer loop
      vertex 12.557 -3.36465 -35
      vertex 12.0104 -4.97488 35
      vertex 12.0104 -4.97488 -35
    endloop
  endfacet
  facet normal 0.980779 -0.19512 0
    outer loop
      vertex 12.557 -3.36465 35
      vertex 12.8888 -1.69684 -35
      vertex 12.8888 -1.69684 35
    endloop
  endfacet
  facet normal 0.980779 -0.19512 0
    outer loop
      vertex 12.8888 -1.69684 -35
      vertex 12.557 -3.36465 35
      vertex 12.557 -3.36465 -35
    endloop
  endfacet
  facet normal 0.99786 -0.0653933 0
    outer loop
      vertex 12.8888 -1.69684 35
      vertex 13 0 -35
      vertex 13 0 35
    endloop
  endfacet
  facet normal 0.99786 -0.0653933 0
    outer loop
      vertex 13 0 -35
      vertex 12.8888 -1.69684 35
      vertex 12.8888 -1.69684 -35
    endloop
  endfacet
  facet normal 0 0 -1
    outer loop
      vertex 12.8888 -1.69684 -35
      vertex 12.8888 1.69684 -35
      vertex 13 0 -35
    endloop
  endfacet
  facet normal 0 0 -1
    outer loop
      vertex 12.557 -3.36465 -35
      vertex 12.8888 1.69684 -35
      vertex 12.8888 -1.69684 -35
    endloop
  endfacet
  facet normal 0 0 -1
    outer loop
      vertex 12.557 -3.36465 -35
      vertex 12.557 3.36465 -35
      vertex 12.8888 1.69684 -35
    endloop
  endfacet
  facet normal 0 0 -1
    outer loop
      vertex 12.0104 -4.97488 -35
      vertex 12.557 3.36465 -35
      vertex 12.557 -3.36465 -35
    endloop
  endfacet
  facet normal 0 0 -1
    outer loop
      vertex 12.0104 -4.97488 -35
      vertex 12.0104 4.97488 -35
      vertex 12.557 3.36465 -35
    endloop
  endfacet
  facet normal 0 0 -1
    outer loop
      vertex 11.2583 -6.5 -35
      vertex 12.0104 4.97488 -35
      vertex 12.0104 -4.97488 -35
    endloop
  endfacet
  facet normal 0 0 -1
    outer loop
      vertex 11.2583 -6.5 -35
      vertex 11.2583 6.5 -35
      vertex 12.0104 4.97488 -35
    endloop
  endfacet
  facet normal 0 0 -1
    outer loop
      vertex 10.3136 -7.9139 -35
      vertex 11.2583 6.5 -35
      vertex 11.2583 -6.5 -35
    endloop
  endfacet
  facet normal 0 0 -1
    outer loop
      vertex 10.3136 -7.9139 -35
      vertex 10.3136 7.9139 -35
      vertex 11.2583 6.5 -35
    endloop
  endfacet
  facet normal 0 0 -1
    outer loop
      vertex 9.19239 -9.19239 -35
      vertex 10.3136 7.9139 -35
      vertex 10.3136 -7.9139 -35
    endloop
  endfacet
  facet normal 0 0 -1
    outer loop
      vertex 9.19239 -9.19239 -35
      vertex 9.19239 9.19239 -35
      vertex 10.3136 7.9139 -35
    endloop
  endfacet
  facet normal 0 0 -1
    outer loop
      vertex 7.9139 -10.3136 -35
      vertex 9.19239 9.19239 -35
      vertex 9.19239 -9.19239 -35
    endloop
  endfacet
  facet normal 0 0 -1
    outer loop
      vertex 7.9139 -10.3136 -35
      vertex 7.9139 10.3136 -35
      vertex 9.19239 9.19239 -35
    endloop
  endfacet
  facet normal 0 0 -1
    outer loop
      vertex 6.5 -11.2583 -35
      vertex 7.9139 10.3136 -35
      vertex 7.9139 -10.3136 -35
    endloop
  endfacet
  facet normal 0 0 -1
    outer loop
      vertex 6.5 -11.2583 -35
      vertex 6.5 11.2583 -35
      vertex 7.9139 10.3136 -35
    endloop
  endfacet
  facet normal 0 0 -1
    outer loop
      vertex 4.97488 -12.0104 -35
      vertex 6.5 11.2583 -35
      vertex 6.5 -11.2583 -35
    endloop
  endfacet
  facet normal 0 0 -1
    outer loop
      vertex 4.97488 -12.0104 -35
      vertex 4.97488 12.0104 -35
      vertex 6.5 11.2583 -35
    endloop
  endfacet
  facet normal 0 0 -1
    outer loop
      vertex 3.36465 -12.557 -35
      vertex 4.97488 12.0104 -35
      vertex 4.97488 -12.0104 -35
    endloop
  endfacet
  facet normal 0 0 -1
    outer loop
      vertex 3.36465 -12.557 -35
      vertex 3.36465 12.557 -35
      vertex 4.97488 12.0104 -35
    endloop
  endfacet
  facet normal 0 0 -1
    outer loop
      vertex 1.69684 -12.8888 -35
      vertex 3.36465 12.557 -35
      vertex 3.36465 -12.557 -35
    endloop
  endfacet
  facet normal 0 0 -1
    outer loop
      vertex 1.69684 -12.8888 -35
      vertex 1.69684 12.8888 -35
      vertex 3.36465 12.557 -35
    endloop
  endfacet
  facet normal 0 0 -1
    outer loop
      vertex -0 -13 -35
      vertex 1.69684 12.8888 -35
      vertex 1.69684 -12.8888 -35
    endloop
  endfacet
  facet normal 0 0 -1
    outer loop
      vertex -0 -13 -35
      vertex 0 13 -35
      vertex 1.69684 12.8888 -35
    endloop
  endfacet
  facet normal 0 0 -1
    outer loop
      vertex -1.69684 -12.8888 -35
      vertex 0 13 -35
      vertex -0 -13 -35
    endloop
  endfacet
  facet normal 0 0 -1
    outer loop
      vertex -1.69684 -12.8888 -35
      vertex -1.69684 12.8888 -35
      vertex 0 13 -35
    endloop
  endfacet
  facet normal 0 0 -1
    outer loop
      vertex -3.36465 -12.557 -35
      vertex -1.69684 12.8888 -35
      vertex -1.69684 -12.8888 -35
    endloop
  endfacet
  facet normal 0 0 -1
    outer loop
      vertex -3.36465 -12.557 -35
      vertex -3.36465 12.557 -35
      vertex -1.69684 12.8888 -35
    endloop
  endfacet
  facet normal 0 0 -1
    outer loop
      vertex -4.97488 -12.0104 -35
      vertex -3.36465 12.557 -35
      vertex -3.36465 -12.557 -35
    endloop
  endfacet
  facet normal 0 0 -1
    outer loop
      vertex -4.97488 -12.0104 -35
      vertex -4.97488 12.0104 -35
      vertex -3.36465 12.557 -35
    endloop
  endfacet
  facet normal 0 0 -1
    outer loop
      vertex -6.5 -11.2583 -35
      vertex -4.97488 12.0104 -35
      vertex -4.97488 -12.0104 -35
    endloop
  endfacet
  facet normal 0 0 -1
    outer loop
      vertex -6.5 -11.2583 -35
      vertex -6.5 11.2583 -35
      vertex -4.97488 12.0104 -35
    endloop
  endfacet
  facet normal 0 0 -1
    outer loop
      vertex -7.9139 -10.3136 -35
      vertex -6.5 11.2583 -35
      vertex -6.5 -11.2583 -35
    endloop
  endfacet
  facet normal 0 0 -1
    outer loop
      vertex -7.9139 -10.3136 -35
      vertex -7.9139 10.3136 -35
      vertex -6.5 11.2583 -35
    endloop
  endfacet
  facet normal 0 0 -1
    outer loop
      vertex -9.19239 -9.19239 -35
      vertex -7.9139 10.3136 -35
      vertex -7.9139 -10.3136 -35
    endloop
  endfacet
  facet normal 0 0 -1
    outer loop
      vertex -9.19239 -9.19239 -35
      vertex -9.19239 9.19239 -35
      vertex -7.9139 10.3136 -35
    endloop
  endfacet
  facet normal 0 0 -1
    outer loop
      vertex -10.3136 -7.9139 -35
      vertex -9.19239 9.19239 -35
      vertex -9.19239 -9.19239 -35
    endloop
  endfacet
  facet normal 0 0 -1
    outer loop
      vertex -10.3136 -7.9139 -35
      vertex -10.3136 7.9139 -35
      vertex -9.19239 9.19239 -35
    endloop
  endfacet
  facet normal 0 0 -1
    outer loop
      vertex -11.2583 -6.5 -35
      vertex -10.3136 7.9139 -35
      vertex -10.3136 -7.9139 -35
    endloop
  endfacet
  facet normal 0 0 -1
    outer loop
      vertex -11.2583 -6.5 -35
      vertex -11.2583 6.5 -35
      vertex -10.3136 7.9139 -35
    endloop
  endfacet
  facet normal 0 0 -1
    outer loop
      vertex -12.0104 -4.97488 -35
      vertex -11.2583 6.5 -35
      vertex -11.2583 -6.5 -35
    endloop
  endfacet
  facet normal 0 0 -1
    outer loop
      vertex -12.0104 -4.97488 -35
      vertex -12.0104 4.97488 -35
      vertex -11.2583 6.5 -35
    endloop
  endfacet
  facet normal 0 0 -1
    outer loop
      vertex -12.557 -3.36465 -35
      vertex -12.0104 4.97488 -35
      vertex -12.0104 -4.97488 -35
    endloop
  endfacet
  facet normal 0 0 -1
    outer loop
      vertex -12.557 -3.36465 -35
      vertex -12.557 3.36465 -35
      vertex -12.0104 4.97488 -35
    endloop
  endfacet
  facet normal 0 0 -1
    outer loop
      vertex -12.8888 -1.69684 -35
      vertex -12.557 3.36465 -35
      vertex -12.557 -3.36465 -35
    endloop
  endfacet
  facet normal 0 0 -1
    outer loop
      vertex -12.8888 -1.69684 -35
      vertex -12.8888 1.69684 -35
      vertex -12.557 3.36465 -35
    endloop
  endfacet
  facet normal 0 -0 -1
    outer loop
      vertex -12.8888 1.69684 -35
      vertex -12.8888 -1.69684 -35
      vertex -13 -0 -35
    endloop
  endfacet
  facet normal 0 0 1
    outer loop
      vertex 12.8888 1.69684 35
      vertex 12.8888 -1.69684 35
      vertex 13 0 35
    endloop
  endfacet
  facet normal 0 0 1
    outer loop
      vertex 12.557 3.36465 35
      vertex 12.8888 -1.69684 35
      vertex 12.8888 1.69684 35
    endloop
  endfacet
  facet normal 0 0 1
    outer loop
      vertex 12.557 3.36465 35
      vertex 12.557 -3.36465 35
      vertex 12.8888 -1.69684 35
    endloop
  endfacet
  facet normal 0 0 1
    outer loop
      vertex 12.0104 4.97488 35
      vertex 12.557 -3.36465 35
      vertex 12.557 3.36465 35
    endloop
  endfacet
  facet normal 0 0 1
    outer loop
      vertex 12.0104 4.97488 35
      vertex 12.0104 -4.97488 35
      vertex 12.557 -3.36465 35
    endloop
  endfacet
  facet normal 0 0 1
    outer loop
      vertex 11.2583 6.5 35
      vertex 12.0104 -4.97488 35
      vertex 12.0104 4.97488 35
    endloop
  endfacet
  facet normal 0 0 1
    outer loop
      vertex 11.2583 6.5 35
      vertex 11.2583 -6.5 35
      vertex 12.0104 -4.97488 35
    endloop
  endfacet
  facet normal 0 0 1
    outer loop
      vertex 10.3136 7.9139 35
      vertex 11.2583 -6.5 35
      vertex 11.2583 6.5 35
    endloop
  endfacet
  facet normal 0 0 1
    outer loop
      vertex 10.3136 7.9139 35
      vertex 10.3136 -7.9139 35
      vertex 11.2583 -6.5 35
    endloop
  endfacet
  facet normal 0 0 1
    outer loop
      vertex 9.19239 9.19239 35
      vertex 10.3136 -7.9139 35
      vertex 10.3136 7.9139 35
    endloop
  endfacet
  facet normal 0 0 1
    outer loop
      vertex 9.19239 9.19239 35
      vertex 9.19239 -9.19239 35
      vertex 10.3136 -7.9139 35
    endloop
  endfacet
  facet normal 0 0 1
    outer loop
      vertex 7.9139 10.3136 35
      vertex 9.19239 -9.19239 35
      vertex 9.19239 9.19239 35
    endloop
  endfacet
  facet normal 0 0 1
    outer loop
      vertex 7.9139 10.3136 35
      vertex 7.9139 -10.3136 35
      vertex 9.19239 -9.19239 35
    endloop
  endfacet
  facet normal 0 0 1
    outer loop
      vertex 6.5 11.2583 35
      vertex 7.9139 -10.3136 35
      vertex 7.9139 10.3136 35
    endloop
  endfacet
  facet normal 0 0 1
    outer loop
      vertex 6.5 11.2583 35
      vertex 6.5 -11.2583 35
      vertex 7.9139 -10.3136 35
    endloop
  endfacet
  facet normal 0 0 1
    outer loop
      vertex 4.97488 12.0104 35
      vertex 6.5 -11.2583 35
      vertex 6.5 11.2583 35
    endloop
  endfacet
  facet normal 0 0 1
    outer loop
      vertex 4.97488 12.0104 35
      vertex 4.97488 -12.0104 35
      vertex 6.5 -11.2583 35
    endloop
  endfacet
  facet normal 0 0 1
    outer loop
      vertex 3.36465 12.557 35
      vertex 4.97488 -12.0104 35
      vertex 4.97488 12.0104 35
    endloop
  endfacet
  facet normal 0 0 1
    outer loop
      vertex 3.36465 12.557 35
      vertex 3.36465 -12.557 35
      vertex 4.97488 -12.0104 35
    endloop
  endfacet
  facet normal 0 0 1
    outer loop
      vertex 1.69684 12.8888 35
      vertex 3.36465 -12.557 35
      vertex 3.36465 12.557 35
    endloop
  endfacet
  facet normal 0 0 1
    outer loop
      vertex 1.69684 12.8888 35
      vertex 1.69684 -12.8888 35
      vertex 3.36465 -12.557 35
    endloop
  endfacet
  facet normal 0 0 1
    outer loop
      vertex 0 13 35
      vertex 1.69684 -12.8888 35
      vertex 1.69684 12.8888 35
    endloop
  endfacet
  facet normal 0 0 1
    outer loop
      vertex 0 13 35
      vertex -0 -13 35
      vertex 1.69684 -12.8888 35
    endloop
  endfacet
  facet normal -0 0 1
    outer loop
      vertex -1.69684 12.8888 35
      vertex -0 -13 35
      vertex 0 13 35
    endloop
  endfacet
  facet normal 0 0 1
    outer loop
      vertex -1.69684 12.8888 35
      vertex -1.69684 -12.8888 35
      vertex -0 -13 35
    endloop
  endfacet
  facet normal -0 0 1
    outer loop
      vertex -3.36465 12.557 35
      vertex -1.69684 -12.8888 35
      vertex -1.69684 12.8888 35
    endloop
  endfacet
  facet normal 0 0 1
    outer loop
      vertex -3.36465 12.557 35
      vertex -3.36465 -12.557 35
      vertex -1.69684 -12.8888 35
    endloop
  endfacet
  facet normal -0 0 1
    outer loop
      vertex -4.97488 12.0104 35
      vertex -3.36465 -12.557 35
      vertex -3.36465 12.557 35
    endloop
  endfacet
  facet normal 0 0 1
    outer loop
      vertex -4.97488 12.0104 35
      vertex -4.97488 -12.0104 35
      vertex -3.36465 -12.557 35
    endloop
  endfacet
  facet normal -0 0 1
    outer loop
      vertex -6.5 11.2583 35
      vertex -4.97488 -12.0104 35
      vertex -4.97488 12.0104 35
    endloop
  endfacet
  facet normal 0 0 1
    outer loop
      vertex -6.5 11.2583 35
      vertex -6.5 -11.2583 35
      vertex -4.97488 -12.0104 35
    endloop
  endfacet
  facet normal -0 0 1
    outer loop
      vertex -7.9139 10.3136 35
      vertex -6.5 -11.2583 35
      vertex -6.5 11.2583 35
    endloop
  endfacet
  facet normal 0 0 1
    outer loop
      vertex -7.9139 10.3136 35
      vertex -7.9139 -10.3136 35
      vertex -6.5 -11.2583 35
    endloop
  endfacet
  facet normal -0 0 1
    outer loop
      vertex -9.19239 9.19239 35
      vertex -7.9139 -10.3136 35
      vertex -7.9139 10.3136 35
    endloop
  endfacet
  facet normal 0 0 1
    outer loop
      vertex -9.19239 9.19239 35
      vertex -9.19239 -9.19239 35
      vertex -7.9139 -10.3136 35
    endloop
  endfacet
  facet normal -0 0 1
    outer loop
      vertex -10.3136 7.9139 35
      vertex -9.19239 -9.19239 35
      vertex -9.19239 9.19239 35
    endloop
  endfacet
  facet normal 0 0 1
    outer loop
      vertex -10.3136 7.9139 35
      vertex -10.3136 -7.9139 35
      vertex -9.19239 -9.19239 35
    endloop
  endfacet
  facet normal -0 0 1
    outer loop
      vertex -11.2583 6.5 35
      vertex -10.3136 -7.9139 35
      vertex -10.3136 7.9139 35
    endloop
  endfacet
  facet normal 0 0 1
    outer loop
      vertex -11.2583 6.5 35
      vertex -11.2583 -6.5 35
      vertex -10.3136 -7.9139 35
    endloop
  endfacet
  facet normal -0 0 1
    outer loop
      vertex -12.0104 4.97488 35
      vertex -11.2583 -6.5 35
      vertex -11.2583 6.5 35
    endloop
  endfacet
  facet normal 0 0 1
    outer loop
      vertex -12.0104 4.97488 35
      vertex -12.0104 -4.97488 35
      vertex -11.2583 -6.5 35
    endloop
  endfacet
  facet normal -0 0 1
    outer loop
      vertex -12.557 3.36465 35
      vertex -12.0104 -4.97488 35
      vertex -12.0104 4.97488 35
    endloop
  endfacet
  facet normal 0 0 1
    outer loop
      vertex -12.557 3.36465 35
      vertex -12.557 -3.36465 35
      vertex -12.0104 -4.97488 35
    endloop
  endfacet
  facet normal -0 0 1
    outer loop
      vertex -12.8888 1.69684 35
      vertex -12.557 -3.36465 35
      vertex -12.557 3.36465 35
    endloop
  endfacet
  facet normal 0 0 1
    outer loop
      vertex -12.8888 1.69684 35
      vertex -12.8888 -1.69684 35
      vertex -12.557 -3.36465 35
    endloop
  endfacet
  facet normal 0 -0 1
    outer loop
      vertex -12.8888 -1.69684 35
      vertex -12.8888 1.69684 35
      vertex -13 -0 35
    endloop
  endfacet
endsolid OpenSCAD_Model
