solid OpenSCAD_Model
  facet normal 1 -0 0
    outer loop
      vertex 95 -55 2.5
      vertex 95 55 -2.5
      vertex 95 55 2.5
    endloop
  endfacet
  facet normal 1 0 0
    outer loop
      vertex 95 55 -2.5
      vertex 95 -55 2.5
      vertex 95 -55 -2.5
    endloop
  endfacet
  facet normal -0 0 1
    outer loop
      vertex -47.5 37.9711 2.5
      vertex -37.5 -37.9711 2.5
      vertex -37.5 37.9711 2.5
    endloop
  endfacet
  facet normal 0 0 1
    outer loop
      vertex -37.5 -37.9711 2.5
      vertex -47.5 37.9711 2.5
      vertex -47.5 -37.9711 2.5
    endloop
  endfacet
  facet normal 0 0 1
    outer loop
      vertex 95 55 2.5
      vertex 90 1 2.5
      vertex 95 -55 2.5
    endloop
  endfacet
  facet normal 0 0 1
    outer loop
      vertex 95 55 2.5
      vertex 80 1 2.5
      vertex 90 1 2.5
    endloop
  endfacet
  facet normal -0 0 1
    outer loop
      vertex -37.5 37.9711 2.5
      vertex 80 1 2.5
      vertex -37.5 39.9711 2.5
    endloop
  endfacet
  facet normal 0 0 1
    outer loop
      vertex 95 55 2.5
      vertex -37.5 39.9711 2.5
      vertex 80 1 2.5
    endloop
  endfacet
  facet normal -0 0 1
    outer loop
      vertex -95 55 2.5
      vertex -37.5 39.9711 2.5
      vertex 95 55 2.5
    endloop
  endfacet
  facet normal 0 0 1
    outer loop
      vertex -95 55 2.5
      vertex -47.5 37.9711 2.5
      vertex -47.5 39.9711 2.5
    endloop
  endfacet
  facet normal 0 0 1
    outer loop
      vertex -47.5 37.9711 2.5
      vertex -95 55 2.5
      vertex -47.5 -37.9711 2.5
    endloop
  endfacet
  facet normal 0 0 1
    outer loop
      vertex -95 -55 2.5
      vertex -47.5 -37.9711 2.5
      vertex -95 55 2.5
    endloop
  endfacet
  facet normal 0 0 1
    outer loop
      vertex -37.5 39.9711 2.5
      vertex -95 55 2.5
      vertex -47.5 39.9711 2.5
    endloop
  endfacet
  facet normal -0 0 1
    outer loop
      vertex 90 -1 2.5
      vertex 95 -55 2.5
      vertex 90 1 2.5
    endloop
  endfacet
  facet normal -0 0 1
    outer loop
      vertex 80 -1 2.5
      vertex 95 -55 2.5
      vertex 90 -1 2.5
    endloop
  endfacet
  facet normal 0 0 1
    outer loop
      vertex 80 1 2.5
      vertex -37.5 37.9711 2.5
      vertex 80 -1 2.5
    endloop
  endfacet
  facet normal 0 0 1
    outer loop
      vertex -37.5 -37.9711 2.5
      vertex 80 -1 2.5
      vertex -37.5 37.9711 2.5
    endloop
  endfacet
  facet normal 0 0 1
    outer loop
      vertex -37.5 -39.9711 2.5
      vertex 80 -1 2.5
      vertex -37.5 -37.9711 2.5
    endloop
  endfacet
  facet normal 0 0 1
    outer loop
      vertex 80 -1 2.5
      vertex -37.5 -39.9711 2.5
      vertex 95 -55 2.5
    endloop
  endfacet
  facet normal 0 0 1
    outer loop
      vertex -95 -55 2.5
      vertex -37.5 -39.9711 2.5
      vertex -47.5 -39.9711 2.5
    endloop
  endfacet
  facet normal 0 0 1
    outer loop
      vertex -37.5 -39.9711 2.5
      vertex -95 -55 2.5
      vertex 95 -55 2.5
    endloop
  endfacet
  facet normal 0 0 1
    outer loop
      vertex -47.5 -37.9711 2.5
      vertex -95 -55 2.5
      vertex -47.5 -39.9711 2.5
    endloop
  endfacet
  facet normal 0 0 -1
    outer loop
      vertex -47.5 -37.9711 -2.5
      vertex -37.5 37.9711 -2.5
      vertex -37.5 -37.9711 -2.5
    endloop
  endfacet
  facet normal -0 0 -1
    outer loop
      vertex -37.5 37.9711 -2.5
      vertex -47.5 -37.9711 -2.5
      vertex -47.5 37.9711 -2.5
    endloop
  endfacet
  facet normal 0 0 -1
    outer loop
      vertex 95 -55 -2.5
      vertex 90 -1 -2.5
      vertex 95 55 -2.5
    endloop
  endfacet
  facet normal 0 0 -1
    outer loop
      vertex 95 -55 -2.5
      vertex 80 -1 -2.5
      vertex 90 -1 -2.5
    endloop
  endfacet
  facet normal 0 0 -1
    outer loop
      vertex -37.5 -37.9711 -2.5
      vertex 80 -1 -2.5
      vertex -37.5 -39.9711 -2.5
    endloop
  endfacet
  facet normal 0 0 -1
    outer loop
      vertex 95 -55 -2.5
      vertex -37.5 -39.9711 -2.5
      vertex 80 -1 -2.5
    endloop
  endfacet
  facet normal 0 0 -1
    outer loop
      vertex -95 -55 -2.5
      vertex -37.5 -39.9711 -2.5
      vertex 95 -55 -2.5
    endloop
  endfacet
  facet normal 0 0 -1
    outer loop
      vertex -95 -55 -2.5
      vertex -47.5 -37.9711 -2.5
      vertex -47.5 -39.9711 -2.5
    endloop
  endfacet
  facet normal -0 0 -1
    outer loop
      vertex -47.5 -37.9711 -2.5
      vertex -95 -55 -2.5
      vertex -47.5 37.9711 -2.5
    endloop
  endfacet
  facet normal 0 0 -1
    outer loop
      vertex -95 55 -2.5
      vertex -47.5 37.9711 -2.5
      vertex -95 -55 -2.5
    endloop
  endfacet
  facet normal -0 0 -1
    outer loop
      vertex -37.5 -39.9711 -2.5
      vertex -95 -55 -2.5
      vertex -47.5 -39.9711 -2.5
    endloop
  endfacet
  facet normal 0 0 -1
    outer loop
      vertex 90 1 -2.5
      vertex 95 55 -2.5
      vertex 90 -1 -2.5
    endloop
  endfacet
  facet normal 0 0 -1
    outer loop
      vertex 80 1 -2.5
      vertex 95 55 -2.5
      vertex 90 1 -2.5
    endloop
  endfacet
  facet normal -0 0 -1
    outer loop
      vertex 80 -1 -2.5
      vertex -37.5 -37.9711 -2.5
      vertex 80 1 -2.5
    endloop
  endfacet
  facet normal 0 0 -1
    outer loop
      vertex -37.5 37.9711 -2.5
      vertex 80 1 -2.5
      vertex -37.5 -37.9711 -2.5
    endloop
  endfacet
  facet normal 0 0 -1
    outer loop
      vertex -37.5 39.9711 -2.5
      vertex 80 1 -2.5
      vertex -37.5 37.9711 -2.5
    endloop
  endfacet
  facet normal 0 0 -1
    outer loop
      vertex 80 1 -2.5
      vertex -37.5 39.9711 -2.5
      vertex 95 55 -2.5
    endloop
  endfacet
  facet normal 0 0 -1
    outer loop
      vertex -95 55 -2.5
      vertex -37.5 39.9711 -2.5
      vertex -47.5 39.9711 -2.5
    endloop
  endfacet
  facet normal 0 0 -1
    outer loop
      vertex -37.5 39.9711 -2.5
      vertex -95 55 -2.5
      vertex 95 55 -2.5
    endloop
  endfacet
  facet normal 0 0 -1
    outer loop
      vertex -47.5 37.9711 -2.5
      vertex -95 55 -2.5
      vertex -47.5 39.9711 -2.5
    endloop
  endfacet
  facet normal -1 0 0
    outer loop
      vertex -95 -55 -2.5
      vertex -95 55 2.5
      vertex -95 55 -2.5
    endloop
  endfacet
  facet normal -1 -0 0
    outer loop
      vertex -95 55 2.5
      vertex -95 -55 -2.5
      vertex -95 -55 2.5
    endloop
  endfacet
  facet normal 0 1 -0
    outer loop
      vertex 95 55 -2.5
      vertex -95 55 2.5
      vertex 95 55 2.5
    endloop
  endfacet
  facet normal 0 1 0
    outer loop
      vertex -95 55 2.5
      vertex 95 55 -2.5
      vertex -95 55 -2.5
    endloop
  endfacet
  facet normal 0 -1 0
    outer loop
      vertex -95 -55 -2.5
      vertex 95 -55 2.5
      vertex -95 -55 2.5
    endloop
  endfacet
  facet normal 0 -1 -0
    outer loop
      vertex 95 -55 2.5
      vertex -95 -55 -2.5
      vertex 95 -55 -2.5
    endloop
  endfacet
  facet normal -1 0 0
    outer loop
      vertex 90 -1 -2.5
      vertex 90 1 2.5
      vertex 90 1 -2.5
    endloop
  endfacet
  facet normal -1 -0 0
    outer loop
      vertex 90 1 2.5
      vertex 90 -1 -2.5
      vertex 90 -1 2.5
    endloop
  endfacet
  facet normal 1 -0 0
    outer loop
      vertex 80 -1 2.5
      vertex 80 1 -2.5
      vertex 80 1 2.5
    endloop
  endfacet
  facet normal 1 0 0
    outer loop
      vertex 80 1 -2.5
      vertex 80 -1 2.5
      vertex 80 -1 -2.5
    endloop
  endfacet
  facet normal 0 -1 0
    outer loop
      vertex 80 1 -2.5
      vertex 90 1 2.5
      vertex 80 1 2.5
    endloop
  endfacet
  facet normal 0 -1 -0
    outer loop
      vertex 90 1 2.5
      vertex 80 1 -2.5
      vertex 90 1 -2.5
    endloop
  endfacet
  facet normal 0 1 -0
    outer loop
      vertex 90 -1 -2.5
      vertex 80 -1 2.5
      vertex 90 -1 2.5
    endloop
  endfacet
  facet normal 0 1 0
    outer loop
      vertex 80 -1 2.5
      vertex 90 -1 -2.5
      vertex 80 -1 -2.5
    endloop
  endfacet
  facet normal -1 0 0
    outer loop
      vertex -37.5 37.9711 -2.5
      vertex -37.5 39.9711 2.5
      vertex -37.5 39.9711 -2.5
    endloop
  endfacet
  facet normal -1 -0 0
    outer loop
      vertex -37.5 39.9711 2.5
      vertex -37.5 37.9711 -2.5
      vertex -37.5 37.9711 2.5
    endloop
  endfacet
  facet normal 1 -0 0
    outer loop
      vertex -47.5 37.9711 2.5
      vertex -47.5 39.9711 -2.5
      vertex -47.5 39.9711 2.5
    endloop
  endfacet
  facet normal 1 0 0
    outer loop
      vertex -47.5 39.9711 -2.5
      vertex -47.5 37.9711 2.5
      vertex -47.5 37.9711 -2.5
    endloop
  endfacet
  facet normal 0 -1 0
    outer loop
      vertex -47.5 39.9711 -2.5
      vertex -37.5 39.9711 2.5
      vertex -47.5 39.9711 2.5
    endloop
  endfacet
  facet normal 0 -1 -0
    outer loop
      vertex -37.5 39.9711 2.5
      vertex -47.5 39.9711 -2.5
      vertex -37.5 39.9711 -2.5
    endloop
  endfacet
  facet normal 0 1 -0
    outer loop
      vertex -37.5 37.9711 -2.5
      vertex -47.5 37.9711 2.5
      vertex -37.5 37.9711 2.5
    endloop
  endfacet
  facet normal 0 1 0
    outer loop
      vertex -47.5 37.9711 2.5
      vertex -37.5 37.9711 -2.5
      vertex -47.5 37.9711 -2.5
    endloop
  endfacet
  facet normal -1 0 0
    outer loop
      vertex -37.5 -39.9711 -2.5
      vertex -37.5 -37.9711 2.5
      vertex -37.5 -37.9711 -2.5
    endloop
  endfacet
  facet normal -1 -0 0
    outer loop
      vertex -37.5 -37.9711 2.5
      vertex -37.5 -39.9711 -2.5
      vertex -37.5 -39.9711 2.5
    endloop
  endfacet
  facet normal 1 -0 0
    outer loop
      vertex -47.5 -39.9711 2.5
      vertex -47.5 -37.9711 -2.5
      vertex -47.5 -37.9711 2.5
    endloop
  endfacet
  facet normal 1 0 0
    outer loop
      vertex -47.5 -37.9711 -2.5
      vertex -47.5 -39.9711 2.5
      vertex -47.5 -39.9711 -2.5
    endloop
  endfacet
  facet normal 0 -1 0
    outer loop
      vertex -47.5 -37.9711 -2.5
      vertex -37.5 -37.9711 2.5
      vertex -47.5 -37.9711 2.5
    endloop
  endfacet
  facet normal 0 -1 -0
    outer loop
      vertex -37.5 -37.9711 2.5
      vertex -47.5 -37.9711 -2.5
      vertex -37.5 -37.9711 -2.5
    endloop
  endfacet
  facet normal 0 1 -0
    outer loop
      vertex -37.5 -39.9711 -2.5
      vertex -47.5 -39.9711 2.5
      vertex -37.5 -39.9711 2.5
    endloop
  endfacet
  facet normal 0 1 0
    outer loop
      vertex -47.5 -39.9711 2.5
      vertex -37.5 -39.9711 -2.5
      vertex -47.5 -39.9711 -2.5
    endloop
  endfacet
endsolid OpenSCAD_Model
