solid OpenSCAD_Model
  facet normal 1 -0 0
    outer loop
      vertex 55 -25 45
      vertex 55 25 -45
      vertex 55 25 45
    endloop
  endfacet
  facet normal 1 0 0
    outer loop
      vertex 55 25 -45
      vertex 55 -25 45
      vertex 55 -25 -45
    endloop
  endfacet
  facet normal 0 0 1
    outer loop
      vertex 55 25 45
      vertex 53.5 23.5 45
      vertex 55 -25 45
    endloop
  endfacet
  facet normal 0 0 1
    outer loop
      vertex 55 25 45
      vertex -53.5 23.5 45
      vertex 53.5 23.5 45
    endloop
  endfacet
  facet normal 0 0 1
    outer loop
      vertex -53.5 23.5 45
      vertex -55 25 45
      vertex -53.5 -23.5 45
    endloop
  endfacet
  facet normal -0 0 1
    outer loop
      vertex -55 25 45
      vertex -53.5 23.5 45
      vertex 55 25 45
    endloop
  endfacet
  facet normal -0 0 1
    outer loop
      vertex 53.5 -23.5 45
      vertex 55 -25 45
      vertex 53.5 23.5 45
    endloop
  endfacet
  facet normal -0 0 1
    outer loop
      vertex -53.5 -23.5 45
      vertex 55 -25 45
      vertex 53.5 -23.5 45
    endloop
  endfacet
  facet normal 0 0 1
    outer loop
      vertex -53.5 -23.5 45
      vertex -55 -25 45
      vertex 55 -25 45
    endloop
  endfacet
  facet normal 0 0 1
    outer loop
      vertex -55 -25 45
      vertex -53.5 -23.5 45
      vertex -55 25 45
    endloop
  endfacet
  facet normal 0 0 -1
    outer loop
      vertex -55 -25 -45
      vertex 55 25 -45
      vertex 55 -25 -45
    endloop
  endfacet
  facet normal -0 0 -1
    outer loop
      vertex 55 25 -45
      vertex -55 -25 -45
      vertex -55 25 -45
    endloop
  endfacet
  facet normal -1 0 0
    outer loop
      vertex -55 -25 -45
      vertex -55 25 45
      vertex -55 25 -45
    endloop
  endfacet
  facet normal -1 -0 0
    outer loop
      vertex -55 25 45
      vertex -55 -25 -45
      vertex -55 -25 45
    endloop
  endfacet
  facet normal 0 1 -0
    outer loop
      vertex 55 25 -45
      vertex -55 25 45
      vertex 55 25 45
    endloop
  endfacet
  facet normal 0 1 0
    outer loop
      vertex -55 25 45
      vertex 55 25 -45
      vertex -55 25 -45
    endloop
  endfacet
  facet normal 0 -1 0
    outer loop
      vertex -55 -25 -45
      vertex 55 -25 45
      vertex -55 -25 45
    endloop
  endfacet
  facet normal 0 -1 -0
    outer loop
      vertex 55 -25 45
      vertex -55 -25 -45
      vertex 55 -25 -45
    endloop
  endfacet
  facet normal -1 0 0
    outer loop
      vertex 53.5 -23.5 -43.5
      vertex 53.5 23.5 45
      vertex 53.5 23.5 -43.5
    endloop
  endfacet
  facet normal -1 -0 0
    outer loop
      vertex 53.5 23.5 45
      vertex 53.5 -23.5 -43.5
      vertex 53.5 -23.5 45
    endloop
  endfacet
  facet normal -0 0 1
    outer loop
      vertex -53.5 23.5 -43.5
      vertex 53.5 -23.5 -43.5
      vertex 53.5 23.5 -43.5
    endloop
  endfacet
  facet normal 0 0 1
    outer loop
      vertex 53.5 -23.5 -43.5
      vertex -53.5 23.5 -43.5
      vertex -53.5 -23.5 -43.5
    endloop
  endfacet
  facet normal 1 -0 0
    outer loop
      vertex -53.5 -23.5 45
      vertex -53.5 23.5 -43.5
      vertex -53.5 23.5 45
    endloop
  endfacet
  facet normal 1 0 0
    outer loop
      vertex -53.5 23.5 -43.5
      vertex -53.5 -23.5 45
      vertex -53.5 -23.5 -43.5
    endloop
  endfacet
  facet normal 0 -1 0
    outer loop
      vertex -53.5 23.5 -43.5
      vertex 53.5 23.5 45
      vertex -53.5 23.5 45
    endloop
  endfacet
  facet normal 0 -1 -0
    outer loop
      vertex 53.5 23.5 45
      vertex -53.5 23.5 -43.5
      vertex 53.5 23.5 -43.5
    endloop
  endfacet
  facet normal 0 1 -0
    outer loop
      vertex 53.5 -23.5 -43.5
      vertex -53.5 -23.5 45
      vertex 53.5 -23.5 45
    endloop
  endfacet
  facet normal 0 1 0
    outer loop
      vertex -53.5 -23.5 45
      vertex 53.5 -23.5 -43.5
      vertex -53.5 -23.5 -43.5
    endloop
  endfacet
endsolid OpenSCAD_Model
