solid OpenSCAD_Model
  facet normal 1 -0 0
    outer loop
      vertex 30 -80 45
      vertex 30 80 -45
      vertex 30 80 45
    endloop
  endfacet
  facet normal 1 0 0
    outer loop
      vertex 30 80 -45
      vertex 30 -80 45
      vertex 30 -80 -45
    endloop
  endfacet
  facet normal 0 0 1
    outer loop
      vertex 30 80 45
      vertex 28 78 45
      vertex 30 -80 45
    endloop
  endfacet
  facet normal 0 0 1
    outer loop
      vertex 30 80 45
      vertex -28 78 45
      vertex 28 78 45
    endloop
  endfacet
  facet normal 0 0 1
    outer loop
      vertex -28 78 45
      vertex -30 80 45
      vertex -28 -78 45
    endloop
  endfacet
  facet normal -0 0 1
    outer loop
      vertex -30 80 45
      vertex -28 78 45
      vertex 30 80 45
    endloop
  endfacet
  facet normal -0 0 1
    outer loop
      vertex 28 -78 45
      vertex 30 -80 45
      vertex 28 78 45
    endloop
  endfacet
  facet normal -0 0 1
    outer loop
      vertex -28 -78 45
      vertex 30 -80 45
      vertex 28 -78 45
    endloop
  endfacet
  facet normal 0 0 1
    outer loop
      vertex -28 -78 45
      vertex -30 -80 45
      vertex 30 -80 45
    endloop
  endfacet
  facet normal 0 0 1
    outer loop
      vertex -30 -80 45
      vertex -28 -78 45
      vertex -30 80 45
    endloop
  endfacet
  facet normal 0 0 -1
    outer loop
      vertex -30 -80 -45
      vertex 30 80 -45
      vertex 30 -80 -45
    endloop
  endfacet
  facet normal -0 0 -1
    outer loop
      vertex 30 80 -45
      vertex -30 -80 -45
      vertex -30 80 -45
    endloop
  endfacet
  facet normal -1 0 0
    outer loop
      vertex -30 -80 -45
      vertex -30 80 45
      vertex -30 80 -45
    endloop
  endfacet
  facet normal -1 -0 0
    outer loop
      vertex -30 80 45
      vertex -30 -80 -45
      vertex -30 -80 45
    endloop
  endfacet
  facet normal 0 1 -0
    outer loop
      vertex 30 80 -45
      vertex -30 80 45
      vertex 30 80 45
    endloop
  endfacet
  facet normal 0 1 0
    outer loop
      vertex -30 80 45
      vertex 30 80 -45
      vertex -30 80 -45
    endloop
  endfacet
  facet normal 0 -1 0
    outer loop
      vertex -30 -80 -45
      vertex 30 -80 45
      vertex -30 -80 45
    endloop
  endfacet
  facet normal 0 -1 -0
    outer loop
      vertex 30 -80 45
      vertex -30 -80 -45
      vertex 30 -80 -45
    endloop
  endfacet
  facet normal -1 0 0
    outer loop
      vertex 28 -78 -43
      vertex 28 78 45
      vertex 28 78 -43
    endloop
  endfacet
  facet normal -1 -0 0
    outer loop
      vertex 28 78 45
      vertex 28 -78 -43
      vertex 28 -78 45
    endloop
  endfacet
  facet normal -0 0 1
    outer loop
      vertex -28 78 -43
      vertex 28 -78 -43
      vertex 28 78 -43
    endloop
  endfacet
  facet normal 0 0 1
    outer loop
      vertex 28 -78 -43
      vertex -28 78 -43
      vertex -28 -78 -43
    endloop
  endfacet
  facet normal 1 -0 0
    outer loop
      vertex -28 -78 45
      vertex -28 78 -43
      vertex -28 78 45
    endloop
  endfacet
  facet normal 1 0 0
    outer loop
      vertex -28 78 -43
      vertex -28 -78 45
      vertex -28 -78 -43
    endloop
  endfacet
  facet normal 0 -1 0
    outer loop
      vertex -28 78 -43
      vertex 28 78 45
      vertex -28 78 45
    endloop
  endfacet
  facet normal 0 -1 -0
    outer loop
      vertex 28 78 45
      vertex -28 78 -43
      vertex 28 78 -43
    endloop
  endfacet
  facet normal 0 1 -0
    outer loop
      vertex 28 -78 -43
      vertex -28 -78 45
      vertex 28 -78 45
    endloop
  endfacet
  facet normal 0 1 0
    outer loop
      vertex -28 -78 45
      vertex 28 -78 -43
      vertex -28 -78 -43
    endloop
  endfacet
endsolid OpenSCAD_Model
