solid OpenSCAD_Model
  facet normal 1 -0 0
    outer loop
      vertex 70 -45 17.5
      vertex 70 45 -17.5
      vertex 70 45 17.5
    endloop
  endfacet
  facet normal 1 0 0
    outer loop
      vertex 70 45 -17.5
      vertex 70 -45 17.5
      vertex 70 -45 -17.5
    endloop
  endfacet
  facet normal 0 0 1
    outer loop
      vertex 70 45 17.5
      vertex 66 41 17.5
      vertex 70 -45 17.5
    endloop
  endfacet
  facet normal 0 0 1
    outer loop
      vertex 70 45 17.5
      vertex -66 41 17.5
      vertex 66 41 17.5
    endloop
  endfacet
  facet normal 0 0 1
    outer loop
      vertex -66 41 17.5
      vertex -70 45 17.5
      vertex -66 -41 17.5
    endloop
  endfacet
  facet normal -0 0 1
    outer loop
      vertex -70 45 17.5
      vertex -66 41 17.5
      vertex 70 45 17.5
    endloop
  endfacet
  facet normal -0 0 1
    outer loop
      vertex 66 -41 17.5
      vertex 70 -45 17.5
      vertex 66 41 17.5
    endloop
  endfacet
  facet normal -0 0 1
    outer loop
      vertex -66 -41 17.5
      vertex 70 -45 17.5
      vertex 66 -41 17.5
    endloop
  endfacet
  facet normal 0 0 1
    outer loop
      vertex -66 -41 17.5
      vertex -70 -45 17.5
      vertex 70 -45 17.5
    endloop
  endfacet
  facet normal 0 0 1
    outer loop
      vertex -70 -45 17.5
      vertex -66 -41 17.5
      vertex -70 45 17.5
    endloop
  endfacet
  facet normal 0 0 -1
    outer loop
      vertex -70 -45 -17.5
      vertex 70 45 -17.5
      vertex 70 -45 -17.5
    endloop
  endfacet
  facet normal -0 0 -1
    outer loop
      vertex 70 45 -17.5
      vertex -70 -45 -17.5
      vertex -70 45 -17.5
    endloop
  endfacet
  facet normal -1 0 0
    outer loop
      vertex -70 -45 -17.5
      vertex -70 45 17.5
      vertex -70 45 -17.5
    endloop
  endfacet
  facet normal -1 -0 0
    outer loop
      vertex -70 45 17.5
      vertex -70 -45 -17.5
      vertex -70 -45 17.5
    endloop
  endfacet
  facet normal 0 1 -0
    outer loop
      vertex 70 45 -17.5
      vertex -70 45 17.5
      vertex 70 45 17.5
    endloop
  endfacet
  facet normal 0 1 0
    outer loop
      vertex -70 45 17.5
      vertex 70 45 -17.5
      vertex -70 45 -17.5
    endloop
  endfacet
  facet normal 0 -1 0
    outer loop
      vertex -70 -45 -17.5
      vertex 70 -45 17.5
      vertex -70 -45 17.5
    endloop
  endfacet
  facet normal 0 -1 -0
    outer loop
      vertex 70 -45 17.5
      vertex -70 -45 -17.5
      vertex 70 -45 -17.5
    endloop
  endfacet
  facet normal -1 0 0
    outer loop
      vertex 66 -41 -13.5
      vertex 66 41 17.5
      vertex 66 41 -13.5
    endloop
  endfacet
  facet normal -1 -0 0
    outer loop
      vertex 66 41 17.5
      vertex 66 -41 -13.5
      vertex 66 -41 17.5
    endloop
  endfacet
  facet normal -0 0 1
    outer loop
      vertex -66 41 -13.5
      vertex 66 -41 -13.5
      vertex 66 41 -13.5
    endloop
  endfacet
  facet normal 0 0 1
    outer loop
      vertex 66 -41 -13.5
      vertex -66 41 -13.5
      vertex -66 -41 -13.5
    endloop
  endfacet
  facet normal 1 -0 0
    outer loop
      vertex -66 -41 17.5
      vertex -66 41 -13.5
      vertex -66 41 17.5
    endloop
  endfacet
  facet normal 1 0 0
    outer loop
      vertex -66 41 -13.5
      vertex -66 -41 17.5
      vertex -66 -41 -13.5
    endloop
  endfacet
  facet normal 0 -1 0
    outer loop
      vertex -66 41 -13.5
      vertex 66 41 17.5
      vertex -66 41 17.5
    endloop
  endfacet
  facet normal 0 -1 -0
    outer loop
      vertex 66 41 17.5
      vertex -66 41 -13.5
      vertex 66 41 -13.5
    endloop
  endfacet
  facet normal 0 1 -0
    outer loop
      vertex 66 -41 -13.5
      vertex -66 -41 17.5
      vertex 66 -41 17.5
    endloop
  endfacet
  facet normal 0 1 0
    outer loop
      vertex -66 -41 17.5
      vertex 66 -41 -13.5
      vertex -66 -41 -13.5
    endloop
  endfacet
endsolid OpenSCAD_Model
