solid OpenSCAD_Model
  facet normal 0.997859 0.0653966 0
    outer loop
      vertex 35 0 52.5
      vertex 34.7006 4.56842 -52.5
      vertex 34.7006 4.56842 52.5
    endloop
  endfacet
  facet normal 0.997859 0.0653966 0
    outer loop
      vertex 34.7006 4.56842 -52.5
      vertex 35 0 52.5
      vertex 35 0 -52.5
    endloop
  endfacet
  facet normal 0.980784 0.195097 0
    outer loop
      vertex 34.7006 4.56842 52.5
      vertex 33.8074 9.05867 -52.5
      vertex 33.8074 9.05867 52.5
    endloop
  endfacet
  facet normal 0.980784 0.195097 0
    outer loop
      vertex 33.8074 9.05867 -52.5
      vertex 34.7006 4.56842 52.5
      vertex 34.7006 4.56842 -52.5
    endloop
  endfacet
  facet normal 0.946931 0.321437 0
    outer loop
      vertex 33.8074 9.05867 52.5
      vertex 32.3358 13.3939 -52.5
      vertex 32.3358 13.3939 52.5
    endloop
  endfacet
  facet normal 0.946931 0.321437 0
    outer loop
      vertex 32.3358 13.3939 -52.5
      vertex 33.8074 9.05867 52.5
      vertex 33.8074 9.05867 -52.5
    endloop
  endfacet
  facet normal 0.896873 0.442288 0
    outer loop
      vertex 32.3358 13.3939 52.5
      vertex 30.3109 17.5 -52.5
      vertex 30.3109 17.5 52.5
    endloop
  endfacet
  facet normal 0.896873 0.442288 0
    outer loop
      vertex 30.3109 17.5 -52.5
      vertex 32.3358 13.3939 52.5
      vertex 32.3358 13.3939 -52.5
    endloop
  endfacet
  facet normal 0.831475 0.555562 0
    outer loop
      vertex 30.3109 17.5 52.5
      vertex 27.7674 21.3067 -52.5
      vertex 27.7674 21.3067 52.5
    endloop
  endfacet
  facet normal 0.831475 0.555562 0
    outer loop
      vertex 27.7674 21.3067 -52.5
      vertex 30.3109 17.5 52.5
      vertex 30.3109 17.5 -52.5
    endloop
  endfacet
  facet normal 0.751824 0.659364 0
    outer loop
      vertex 27.7674 21.3067 52.5
      vertex 24.7487 24.7487 -52.5
      vertex 24.7487 24.7487 52.5
    endloop
  endfacet
  facet normal 0.751824 0.659364 0
    outer loop
      vertex 24.7487 24.7487 -52.5
      vertex 27.7674 21.3067 52.5
      vertex 27.7674 21.3067 -52.5
    endloop
  endfacet
  facet normal 0.659364 0.751824 -0
    outer loop
      vertex 24.7487 24.7487 -52.5
      vertex 21.3067 27.7674 52.5
      vertex 24.7487 24.7487 52.5
    endloop
  endfacet
  facet normal 0.659364 0.751824 0
    outer loop
      vertex 21.3067 27.7674 52.5
      vertex 24.7487 24.7487 -52.5
      vertex 21.3067 27.7674 -52.5
    endloop
  endfacet
  facet normal 0.555562 0.831475 -0
    outer loop
      vertex 21.3067 27.7674 -52.5
      vertex 17.5 30.3109 52.5
      vertex 21.3067 27.7674 52.5
    endloop
  endfacet
  facet normal 0.555562 0.831475 0
    outer loop
      vertex 17.5 30.3109 52.5
      vertex 21.3067 27.7674 -52.5
      vertex 17.5 30.3109 -52.5
    endloop
  endfacet
  facet normal 0.442288 0.896873 -0
    outer loop
      vertex 17.5 30.3109 -52.5
      vertex 13.3939 32.3358 52.5
      vertex 17.5 30.3109 52.5
    endloop
  endfacet
  facet normal 0.442288 0.896873 0
    outer loop
      vertex 13.3939 32.3358 52.5
      vertex 17.5 30.3109 -52.5
      vertex 13.3939 32.3358 -52.5
    endloop
  endfacet
  facet normal 0.321437 0.946931 -0
    outer loop
      vertex 13.3939 32.3358 -52.5
      vertex 9.05867 33.8074 52.5
      vertex 13.3939 32.3358 52.5
    endloop
  endfacet
  facet normal 0.321437 0.946931 0
    outer loop
      vertex 9.05867 33.8074 52.5
      vertex 13.3939 32.3358 -52.5
      vertex 9.05867 33.8074 -52.5
    endloop
  endfacet
  facet normal 0.195097 0.980784 -0
    outer loop
      vertex 9.05867 33.8074 -52.5
      vertex 4.56842 34.7006 52.5
      vertex 9.05867 33.8074 52.5
    endloop
  endfacet
  facet normal 0.195097 0.980784 0
    outer loop
      vertex 4.56842 34.7006 52.5
      vertex 9.05867 33.8074 -52.5
      vertex 4.56842 34.7006 -52.5
    endloop
  endfacet
  facet normal 0.0653966 0.997859 -0
    outer loop
      vertex 4.56842 34.7006 -52.5
      vertex 0 35 52.5
      vertex 4.56842 34.7006 52.5
    endloop
  endfacet
  facet normal 0.0653966 0.997859 0
    outer loop
      vertex 0 35 52.5
      vertex 4.56842 34.7006 -52.5
      vertex 0 35 -52.5
    endloop
  endfacet
  facet normal -0.0653966 0.997859 0
    outer loop
      vertex 0 35 -52.5
      vertex -4.56842 34.7006 52.5
      vertex 0 35 52.5
    endloop
  endfacet
  facet normal -0.0653966 0.997859 0
    outer loop
      vertex -4.56842 34.7006 52.5
      vertex 0 35 -52.5
      vertex -4.56842 34.7006 -52.5
    endloop
  endfacet
  facet normal -0.195097 0.980784 0
    outer loop
      vertex -4.56842 34.7006 -52.5
      vertex -9.05867 33.8074 52.5
      vertex -4.56842 34.7006 52.5
    endloop
  endfacet
  facet normal -0.195097 0.980784 0
    outer loop
      vertex -9.05867 33.8074 52.5
      vertex -4.56842 34.7006 -52.5
      vertex -9.05867 33.8074 -52.5
    endloop
  endfacet
  facet normal -0.321437 0.946931 0
    outer loop
      vertex -9.05867 33.8074 -52.5
      vertex -13.3939 32.3358 52.5
      vertex -9.05867 33.8074 52.5
    endloop
  endfacet
  facet normal -0.321437 0.946931 0
    outer loop
      vertex -13.3939 32.3358 52.5
      vertex -9.05867 33.8074 -52.5
      vertex -13.3939 32.3358 -52.5
    endloop
  endfacet
  facet normal -0.442288 0.896873 0
    outer loop
      vertex -13.3939 32.3358 -52.5
      vertex -17.5 30.3109 52.5
      vertex -13.3939 32.3358 52.5
    endloop
  endfacet
  facet normal -0.442288 0.896873 0
    outer loop
      vertex -17.5 30.3109 52.5
      vertex -13.3939 32.3358 -52.5
      vertex -17.5 30.3109 -52.5
    endloop
  endfacet
  facet normal -0.555562 0.831475 0
    outer loop
      vertex -17.5 30.3109 -52.5
      vertex -21.3067 27.7674 52.5
      vertex -17.5 30.3109 52.5
    endloop
  endfacet
  facet normal -0.555562 0.831475 0
    outer loop
      vertex -21.3067 27.7674 52.5
      vertex -17.5 30.3109 -52.5
      vertex -21.3067 27.7674 -52.5
    endloop
  endfacet
  facet normal -0.659364 0.751824 0
    outer loop
      vertex -21.3067 27.7674 -52.5
      vertex -24.7487 24.7487 52.5
      vertex -21.3067 27.7674 52.5
    endloop
  endfacet
  facet normal -0.659364 0.751824 0
    outer loop
      vertex -24.7487 24.7487 52.5
      vertex -21.3067 27.7674 -52.5
      vertex -24.7487 24.7487 -52.5
    endloop
  endfacet
  facet normal -0.751824 0.659364 0
    outer loop
      vertex -27.7674 21.3067 -52.5
      vertex -24.7487 24.7487 52.5
      vertex -24.7487 24.7487 -52.5
    endloop
  endfacet
  facet normal -0.751824 0.659364 0
    outer loop
      vertex -24.7487 24.7487 52.5
      vertex -27.7674 21.3067 -52.5
      vertex -27.7674 21.3067 52.5
    endloop
  endfacet
  facet normal -0.831475 0.555562 0
    outer loop
      vertex -30.3109 17.5 -52.5
      vertex -27.7674 21.3067 52.5
      vertex -27.7674 21.3067 -52.5
    endloop
  endfacet
  facet normal -0.831475 0.555562 0
    outer loop
      vertex -27.7674 21.3067 52.5
      vertex -30.3109 17.5 -52.5
      vertex -30.3109 17.5 52.5
    endloop
  endfacet
  facet normal -0.896873 0.442288 0
    outer loop
      vertex -32.3358 13.3939 -52.5
      vertex -30.3109 17.5 52.5
      vertex -30.3109 17.5 -52.5
    endloop
  endfacet
  facet normal -0.896873 0.442288 0
    outer loop
      vertex -30.3109 17.5 52.5
      vertex -32.3358 13.3939 -52.5
      vertex -32.3358 13.3939 52.5
    endloop
  endfacet
  facet normal -0.946931 0.321437 0
    outer loop
      vertex -33.8074 9.05867 -52.5
      vertex -32.3358 13.3939 52.5
      vertex -32.3358 13.3939 -52.5
    endloop
  endfacet
  facet normal -0.946931 0.321437 0
    outer loop
      vertex -32.3358 13.3939 52.5
      vertex -33.8074 9.05867 -52.5
      vertex -33.8074 9.05867 52.5
    endloop
  endfacet
  facet normal -0.980784 0.195097 0
    outer loop
      vertex -34.7006 4.56842 -52.5
      vertex -33.8074 9.05867 52.5
      vertex -33.8074 9.05867 -52.5
    endloop
  endfacet
  facet normal -0.980784 0.195097 0
    outer loop
      vertex -33.8074 9.05867 52.5
      vertex -34.7006 4.56842 -52.5
      vertex -34.7006 4.56842 52.5
    endloop
  endfacet
  facet normal -0.997859 0.0653966 0
    outer loop
      vertex -35 -0 -52.5
      vertex -34.7006 4.56842 52.5
      vertex -34.7006 4.56842 -52.5
    endloop
  endfacet
  facet normal -0.997859 0.0653966 0
    outer loop
      vertex -34.7006 4.56842 52.5
      vertex -35 -0 -52.5
      vertex -35 -0 52.5
    endloop
  endfacet
  facet normal -0.997859 -0.0653966 0
    outer loop
      vertex -34.7006 -4.56842 -52.5
      vertex -35 -0 52.5
      vertex -35 -0 -52.5
    endloop
  endfacet
  facet normal -0.997859 -0.0653966 0
    outer loop
      vertex -35 -0 52.5
      vertex -34.7006 -4.56842 -52.5
      vertex -34.7006 -4.56842 52.5
    endloop
  endfacet
  facet normal -0.980784 -0.195097 0
    outer loop
      vertex -33.8074 -9.05867 -52.5
      vertex -34.7006 -4.56842 52.5
      vertex -34.7006 -4.56842 -52.5
    endloop
  endfacet
  facet normal -0.980784 -0.195097 0
    outer loop
      vertex -34.7006 -4.56842 52.5
      vertex -33.8074 -9.05867 -52.5
      vertex -33.8074 -9.05867 52.5
    endloop
  endfacet
  facet normal -0.946931 -0.321437 0
    outer loop
      vertex -32.3358 -13.3939 -52.5
      vertex -33.8074 -9.05867 52.5
      vertex -33.8074 -9.05867 -52.5
    endloop
  endfacet
  facet normal -0.946931 -0.321437 0
    outer loop
      vertex -33.8074 -9.05867 52.5
      vertex -32.3358 -13.3939 -52.5
      vertex -32.3358 -13.3939 52.5
    endloop
  endfacet
  facet normal -0.896873 -0.442288 0
    outer loop
      vertex -30.3109 -17.5 -52.5
      vertex -32.3358 -13.3939 52.5
      vertex -32.3358 -13.3939 -52.5
    endloop
  endfacet
  facet normal -0.896873 -0.442288 0
    outer loop
      vertex -32.3358 -13.3939 52.5
      vertex -30.3109 -17.5 -52.5
      vertex -30.3109 -17.5 52.5
    endloop
  endfacet
  facet normal -0.831475 -0.555562 0
    outer loop
      vertex -27.7674 -21.3067 -52.5
      vertex -30.3109 -17.5 52.5
      vertex -30.3109 -17.5 -52.5
    endloop
  endfacet
  facet normal -0.831475 -0.555562 0
    outer loop
      vertex -30.3109 -17.5 52.5
      vertex -27.7674 -21.3067 -52.5
      vertex -27.7674 -21.3067 52.5
    endloop
  endfacet
  facet normal -0.751824 -0.659364 0
    outer loop
      vertex -24.7487 -24.7487 -52.5
      vertex -27.7674 -21.3067 52.5
      vertex -27.7674 -21.3067 -52.5
    endloop
  endfacet
  facet normal -0.751824 -0.659364 0
    outer loop
      vertex -27.7674 -21.3067 52.5
      vertex -24.7487 -24.7487 -52.5
      vertex -24.7487 -24.7487 52.5
    endloop
  endfacet
  facet normal -0.659364 -0.751824 0
    outer loop
      vertex -24.7487 -24.7487 -52.5
      vertex -21.3067 -27.7674 52.5
      vertex -24.7487 -24.7487 52.5
    endloop
  endfacet
  facet normal -0.659364 -0.751824 -0
    outer loop
      vertex -21.3067 -27.7674 52.5
      vertex -24.7487 -24.7487 -52.5
      vertex -21.3067 -27.7674 -52.5
    endloop
  endfacet
  facet normal -0.555562 -0.831475 0
    outer loop
      vertex -21.3067 -27.7674 -52.5
      vertex -17.5 -30.3109 52.5
      vertex -21.3067 -27.7674 52.5
    endloop
  endfacet
  facet normal -0.555562 -0.831475 -0
    outer loop
      vertex -17.5 -30.3109 52.5
      vertex -21.3067 -27.7674 -52.5
      vertex -17.5 -30.3109 -52.5
    endloop
  endfacet
  facet normal -0.442288 -0.896873 0
    outer loop
      vertex -17.5 -30.3109 -52.5
      vertex -13.3939 -32.3358 52.5
      vertex -17.5 -30.3109 52.5
    endloop
  endfacet
  facet normal -0.442288 -0.896873 -0
    outer loop
      vertex -13.3939 -32.3358 52.5
      vertex -17.5 -30.3109 -52.5
      vertex -13.3939 -32.3358 -52.5
    endloop
  endfacet
  facet normal -0.321437 -0.946931 0
    outer loop
      vertex -13.3939 -32.3358 -52.5
      vertex -9.05867 -33.8074 52.5
      vertex -13.3939 -32.3358 52.5
    endloop
  endfacet
  facet normal -0.321437 -0.946931 -0
    outer loop
      vertex -9.05867 -33.8074 52.5
      vertex -13.3939 -32.3358 -52.5
      vertex -9.05867 -33.8074 -52.5
    endloop
  endfacet
  facet normal -0.195097 -0.980784 0
    outer loop
      vertex -9.05867 -33.8074 -52.5
      vertex -4.56842 -34.7006 52.5
      vertex -9.05867 -33.8074 52.5
    endloop
  endfacet
  facet normal -0.195097 -0.980784 -0
    outer loop
      vertex -4.56842 -34.7006 52.5
      vertex -9.05867 -33.8074 -52.5
      vertex -4.56842 -34.7006 -52.5
    endloop
  endfacet
  facet normal -0.0653966 -0.997859 0
    outer loop
      vertex -4.56842 -34.7006 -52.5
      vertex -0 -35 52.5
      vertex -4.56842 -34.7006 52.5
    endloop
  endfacet
  facet normal -0.0653966 -0.997859 -0
    outer loop
      vertex -0 -35 52.5
      vertex -4.56842 -34.7006 -52.5
      vertex -0 -35 -52.5
    endloop
  endfacet
  facet normal 0.0653966 -0.997859 0
    outer loop
      vertex -0 -35 -52.5
      vertex 4.56842 -34.7006 52.5
      vertex -0 -35 52.5
    endloop
  endfacet
  facet normal 0.0653966 -0.997859 0
    outer loop
      vertex 4.56842 -34.7006 52.5
      vertex -0 -35 -52.5
      vertex 4.56842 -34.7006 -52.5
    endloop
  endfacet
  facet normal 0.195097 -0.980784 0
    outer loop
      vertex 4.56842 -34.7006 -52.5
      vertex 9.05867 -33.8074 52.5
      vertex 4.56842 -34.7006 52.5
    endloop
  endfacet
  facet normal 0.195097 -0.980784 0
    outer loop
      vertex 9.05867 -33.8074 52.5
      vertex 4.56842 -34.7006 -52.5
      vertex 9.05867 -33.8074 -52.5
    endloop
  endfacet
  facet normal 0.321437 -0.946931 0
    outer loop
      vertex 9.05867 -33.8074 -52.5
      vertex 13.3939 -32.3358 52.5
      vertex 9.05867 -33.8074 52.5
    endloop
  endfacet
  facet normal 0.321437 -0.946931 0
    outer loop
      vertex 13.3939 -32.3358 52.5
      vertex 9.05867 -33.8074 -52.5
      vertex 13.3939 -32.3358 -52.5
    endloop
  endfacet
  facet normal 0.442288 -0.896873 0
    outer loop
      vertex 13.3939 -32.3358 -52.5
      vertex 17.5 -30.3109 52.5
      vertex 13.3939 -32.3358 52.5
    endloop
  endfacet
  facet normal 0.442288 -0.896873 0
    outer loop
      vertex 17.5 -30.3109 52.5
      vertex 13.3939 -32.3358 -52.5
      vertex 17.5 -30.3109 -52.5
    endloop
  endfacet
  facet normal 0.555562 -0.831475 0
    outer loop
      vertex 17.5 -30.3109 -52.5
      vertex 21.3067 -27.7674 52.5
      vertex 17.5 -30.3109 52.5
    endloop
  endfacet
  facet normal 0.555562 -0.831475 0
    outer loop
      vertex 21.3067 -27.7674 52.5
      vertex 17.5 -30.3109 -52.5
      vertex 21.3067 -27.7674 -52.5
    endloop
  endfacet
  facet normal 0.659364 -0.751824 0
    outer loop
      vertex 21.3067 -27.7674 -52.5
      vertex 24.7487 -24.7487 52.5
      vertex 21.3067 -27.7674 52.5
    endloop
  endfacet
  facet normal 0.659364 -0.751824 0
    outer loop
      vertex 24.7487 -24.7487 52.5
      vertex 21.3067 -27.7674 -52.5
      vertex 24.7487 -24.7487 -52.5
    endloop
  endfacet
  facet normal 0.751824 -0.659364 0
    outer loop
      vertex 24.7487 -24.7487 52.5
      vertex 27.7674 -21.3067 -52.5
      vertex 27.7674 -21.3067 52.5
    endloop
  endfacet
  facet normal 0.751824 -0.659364 0
    outer loop
      vertex 27.7674 -21.3067 -52.5
      vertex 24.7487 -24.7487 52.5
      vertex 24.7487 -24.7487 -52.5
    endloop
  endfacet
  facet normal 0.831475 -0.555562 0
    outer loop
      vertex 27.7674 -21.3067 52.5
      vertex 30.3109 -17.5 -52.5
      vertex 30.3109 -17.5 52.5
    endloop
  endfacet
  facet normal 0.831475 -0.555562 0
    outer loop
      vertex 30.3109 -17.5 -52.5
      vertex 27.7674 -21.3067 52.5
      vertex 27.7674 -21.3067 -52.5
    endloop
  endfacet
  facet normal 0.896873 -0.442288 0
    outer loop
      vertex 30.3109 -17.5 52.5
      vertex 32.3358 -13.3939 -52.5
      vertex 32.3358 -13.3939 52.5
    endloop
  endfacet
  facet normal 0.896873 -0.442288 0
    outer loop
      vertex 32.3358 -13.3939 -52.5
      vertex 30.3109 -17.5 52.5
      vertex 30.3109 -17.5 -52.5
    endloop
  endfacet
  facet normal 0.946931 -0.321437 0
    outer loop
      vertex 32.3358 -13.3939 52.5
      vertex 33.8074 -9.05867 -52.5
      vertex 33.8074 -9.05867 52.5
    endloop
  endfacet
  facet normal 0.946931 -0.321437 0
    outer loop
      vertex 33.8074 -9.05867 -52.5
      vertex 32.3358 -13.3939 52.5
      vertex 32.3358 -13.3939 -52.5
    endloop
  endfacet
  facet normal 0.980784 -0.195097 0
    outer loop
      vertex 33.8074 -9.05867 52.5
      vertex 34.7006 -4.56842 -52.5
      vertex 34.7006 -4.56842 52.5
    endloop
  endfacet
  facet normal 0.980784 -0.195097 0
    outer loop
      vertex 34.7006 -4.56842 -52.5
      vertex 33.8074 -9.05867 52.5
      vertex 33.8074 -9.05867 -52.5
    endloop
  endfacet
  facet normal 0.997859 -0.0653966 0
    outer loop
      vertex 34.7006 -4.56842 52.5
      vertex 35 0 -52.5
      vertex 35 0 52.5
    endloop
  endfacet
  facet normal 0.997859 -0.0653966 0
    outer loop
      vertex 35 0 -52.5
      vertex 34.7006 -4.56842 52.5
      vertex 34.7006 -4.56842 -52.5
    endloop
  endfacet
  facet normal 0 0 -1
    outer loop
      vertex 34.7006 -4.56842 -52.5
      vertex 34.7006 4.56842 -52.5
      vertex 35 0 -52.5
    endloop
  endfacet
  facet normal 0 0 -1
    outer loop
      vertex 33.8074 -9.05867 -52.5
      vertex 34.7006 4.56842 -52.5
      vertex 34.7006 -4.56842 -52.5
    endloop
  endfacet
  facet normal 0 0 -1
    outer loop
      vertex 33.8074 -9.05867 -52.5
      vertex 33.8074 9.05867 -52.5
      vertex 34.7006 4.56842 -52.5
    endloop
  endfacet
  facet normal 0 0 -1
    outer loop
      vertex 32.3358 -13.3939 -52.5
      vertex 33.8074 9.05867 -52.5
      vertex 33.8074 -9.05867 -52.5
    endloop
  endfacet
  facet normal 0 0 -1
    outer loop
      vertex 32.3358 -13.3939 -52.5
      vertex 32.3358 13.3939 -52.5
      vertex 33.8074 9.05867 -52.5
    endloop
  endfacet
  facet normal 0 0 -1
    outer loop
      vertex 30.3109 -17.5 -52.5
      vertex 32.3358 13.3939 -52.5
      vertex 32.3358 -13.3939 -52.5
    endloop
  endfacet
  facet normal 0 0 -1
    outer loop
      vertex 30.3109 -17.5 -52.5
      vertex 30.3109 17.5 -52.5
      vertex 32.3358 13.3939 -52.5
    endloop
  endfacet
  facet normal 0 0 -1
    outer loop
      vertex 27.7674 -21.3067 -52.5
      vertex 30.3109 17.5 -52.5
      vertex 30.3109 -17.5 -52.5
    endloop
  endfacet
  facet normal 0 0 -1
    outer loop
      vertex 27.7674 -21.3067 -52.5
      vertex 27.7674 21.3067 -52.5
      vertex 30.3109 17.5 -52.5
    endloop
  endfacet
  facet normal 0 0 -1
    outer loop
      vertex 24.7487 -24.7487 -52.5
      vertex 27.7674 21.3067 -52.5
      vertex 27.7674 -21.3067 -52.5
    endloop
  endfacet
  facet normal 0 0 -1
    outer loop
      vertex 24.7487 -24.7487 -52.5
      vertex 24.7487 24.7487 -52.5
      vertex 27.7674 21.3067 -52.5
    endloop
  endfacet
  facet normal 0 0 -1
    outer loop
      vertex 21.3067 -27.7674 -52.5
      vertex 24.7487 24.7487 -52.5
      vertex 24.7487 -24.7487 -52.5
    endloop
  endfacet
  facet normal 0 0 -1
    outer loop
      vertex 21.3067 -27.7674 -52.5
      vertex 21.3067 27.7674 -52.5
      vertex 24.7487 24.7487 -52.5
    endloop
  endfacet
  facet normal 0 0 -1
    outer loop
      vertex 17.5 -30.3109 -52.5
      vertex 21.3067 27.7674 -52.5
      vertex 21.3067 -27.7674 -52.5
    endloop
  endfacet
  facet normal 0 0 -1
    outer loop
      vertex 17.5 -30.3109 -52.5
      vertex 17.5 30.3109 -52.5
      vertex 21.3067 27.7674 -52.5
    endloop
  endfacet
  facet normal 0 0 -1
    outer loop
      vertex 13.3939 -32.3358 -52.5
      vertex 17.5 30.3109 -52.5
      vertex 17.5 -30.3109 -52.5
    endloop
  endfacet
  facet normal 0 0 -1
    outer loop
      vertex 13.3939 -32.3358 -52.5
      vertex 13.3939 32.3358 -52.5
      vertex 17.5 30.3109 -52.5
    endloop
  endfacet
  facet normal 0 0 -1
    outer loop
      vertex 9.05867 -33.8074 -52.5
      vertex 13.3939 32.3358 -52.5
      vertex 13.3939 -32.3358 -52.5
    endloop
  endfacet
  facet normal 0 0 -1
    outer loop
      vertex 9.05867 -33.8074 -52.5
      vertex 9.05867 33.8074 -52.5
      vertex 13.3939 32.3358 -52.5
    endloop
  endfacet
  facet normal 0 0 -1
    outer loop
      vertex 4.56842 -34.7006 -52.5
      vertex 9.05867 33.8074 -52.5
      vertex 9.05867 -33.8074 -52.5
    endloop
  endfacet
  facet normal 0 0 -1
    outer loop
      vertex 4.56842 -34.7006 -52.5
      vertex 4.56842 34.7006 -52.5
      vertex 9.05867 33.8074 -52.5
    endloop
  endfacet
  facet normal 0 0 -1
    outer loop
      vertex -0 -35 -52.5
      vertex 4.56842 34.7006 -52.5
      vertex 4.56842 -34.7006 -52.5
    endloop
  endfacet
  facet normal 0 0 -1
    outer loop
      vertex -0 -35 -52.5
      vertex 0 35 -52.5
      vertex 4.56842 34.7006 -52.5
    endloop
  endfacet
  facet normal 0 0 -1
    outer loop
      vertex -4.56842 -34.7006 -52.5
      vertex 0 35 -52.5
      vertex -0 -35 -52.5
    endloop
  endfacet
  facet normal 0 0 -1
    outer loop
      vertex -4.56842 -34.7006 -52.5
      vertex -4.56842 34.7006 -52.5
      vertex 0 35 -52.5
    endloop
  endfacet
  facet normal 0 0 -1
    outer loop
      vertex -9.05867 -33.8074 -52.5
      vertex -4.56842 34.7006 -52.5
      vertex -4.56842 -34.7006 -52.5
    endloop
  endfacet
  facet normal 0 0 -1
    outer loop
      vertex -9.05867 -33.8074 -52.5
      vertex -9.05867 33.8074 -52.5
      vertex -4.56842 34.7006 -52.5
    endloop
  endfacet
  facet normal 0 0 -1
    outer loop
      vertex -13.3939 -32.3358 -52.5
      vertex -9.05867 33.8074 -52.5
      vertex -9.05867 -33.8074 -52.5
    endloop
  endfacet
  facet normal 0 0 -1
    outer loop
      vertex -13.3939 -32.3358 -52.5
      vertex -13.3939 32.3358 -52.5
      vertex -9.05867 33.8074 -52.5
    endloop
  endfacet
  facet normal 0 0 -1
    outer loop
      vertex -17.5 -30.3109 -52.5
      vertex -13.3939 32.3358 -52.5
      vertex -13.3939 -32.3358 -52.5
    endloop
  endfacet
  facet normal 0 0 -1
    outer loop
      vertex -17.5 -30.3109 -52.5
      vertex -17.5 30.3109 -52.5
      vertex -13.3939 32.3358 -52.5
    endloop
  endfacet
  facet normal 0 0 -1
    outer loop
      vertex -21.3067 -27.7674 -52.5
      vertex -17.5 30.3109 -52.5
      vertex -17.5 -30.3109 -52.5
    endloop
  endfacet
  facet normal 0 0 -1
    outer loop
      vertex -21.3067 -27.7674 -52.5
      vertex -21.3067 27.7674 -52.5
      vertex -17.5 30.3109 -52.5
    endloop
  endfacet
  facet normal 0 0 -1
    outer loop
      vertex -24.7487 -24.7487 -52.5
      vertex -21.3067 27.7674 -52.5
      vertex -21.3067 -27.7674 -52.5
    endloop
  endfacet
  facet normal 0 0 -1
    outer loop
      vertex -24.7487 -24.7487 -52.5
      vertex -24.7487 24.7487 -52.5
      vertex -21.3067 27.7674 -52.5
    endloop
  endfacet
  facet normal 0 0 -1
    outer loop
      vertex -27.7674 -21.3067 -52.5
      vertex -24.7487 24.7487 -52.5
      vertex -24.7487 -24.7487 -52.5
    endloop
  endfacet
  facet normal 0 0 -1
    outer loop
      vertex -27.7674 -21.3067 -52.5
      vertex -27.7674 21.3067 -52.5
      vertex -24.7487 24.7487 -52.5
    endloop
  endfacet
  facet normal 0 0 -1
    outer loop
      vertex -30.3109 -17.5 -52.5
      vertex -27.7674 21.3067 -52.5
      vertex -27.7674 -21.3067 -52.5
    endloop
  endfacet
  facet normal 0 0 -1
    outer loop
      vertex -30.3109 -17.5 -52.5
      vertex -30.3109 17.5 -52.5
      vertex -27.7674 21.3067 -52.5
    endloop
  endfacet
  facet normal 0 0 -1
    outer loop
      vertex -32.3358 -13.3939 -52.5
      vertex -30.3109 17.5 -52.5
      vertex -30.3109 -17.5 -52.5
    endloop
  endfacet
  facet normal 0 0 -1
    outer loop
      vertex -32.3358 -13.3939 -52.5
      vertex -32.3358 13.3939 -52.5
      vertex -30.3109 17.5 -52.5
    endloop
  endfacet
  facet normal 0 0 -1
    outer loop
      vertex -33.8074 -9.05867 -52.5
      vertex -32.3358 13.3939 -52.5
      vertex -32.3358 -13.3939 -52.5
    endloop
  endfacet
  facet normal 0 0 -1
    outer loop
      vertex -33.8074 -9.05867 -52.5
      vertex -33.8074 9.05867 -52.5
      vertex -32.3358 13.3939 -52.5
    endloop
  endfacet
  facet normal 0 0 -1
    outer loop
      vertex -34.7006 -4.56842 -52.5
      vertex -33.8074 9.05867 -52.5
      vertex -33.8074 -9.05867 -52.5
    endloop
  endfacet
  facet normal 0 0 -1
    outer loop
      vertex -34.7006 -4.56842 -52.5
      vertex -34.7006 4.56842 -52.5
      vertex -33.8074 9.05867 -52.5
    endloop
  endfacet
  facet normal 0 -0 -1
    outer loop
      vertex -34.7006 4.56842 -52.5
      vertex -34.7006 -4.56842 -52.5
      vertex -35 -0 -52.5
    endloop
  endfacet
  facet normal 0 0 1
    outer loop
      vertex 34.7006 4.56842 52.5
      vertex 34.7006 -4.56842 52.5
      vertex 35 0 52.5
    endloop
  endfacet
  facet normal 0 0 1
    outer loop
      vertex 33.8074 9.05867 52.5
      vertex 34.7006 -4.56842 52.5
      vertex 34.7006 4.56842 52.5
    endloop
  endfacet
  facet normal 0 0 1
    outer loop
      vertex 33.8074 9.05867 52.5
      vertex 33.8074 -9.05867 52.5
      vertex 34.7006 -4.56842 52.5
    endloop
  endfacet
  facet normal 0 0 1
    outer loop
      vertex 32.3358 13.3939 52.5
      vertex 33.8074 -9.05867 52.5
      vertex 33.8074 9.05867 52.5
    endloop
  endfacet
  facet normal 0 0 1
    outer loop
      vertex 32.3358 13.3939 52.5
      vertex 32.3358 -13.3939 52.5
      vertex 33.8074 -9.05867 52.5
    endloop
  endfacet
  facet normal 0 0 1
    outer loop
      vertex 30.3109 17.5 52.5
      vertex 32.3358 -13.3939 52.5
      vertex 32.3358 13.3939 52.5
    endloop
  endfacet
  facet normal 0 0 1
    outer loop
      vertex 30.3109 17.5 52.5
      vertex 30.3109 -17.5 52.5
      vertex 32.3358 -13.3939 52.5
    endloop
  endfacet
  facet normal 0 0 1
    outer loop
      vertex 27.7674 21.3067 52.5
      vertex 30.3109 -17.5 52.5
      vertex 30.3109 17.5 52.5
    endloop
  endfacet
  facet normal 0 0 1
    outer loop
      vertex 27.7674 21.3067 52.5
      vertex 27.7674 -21.3067 52.5
      vertex 30.3109 -17.5 52.5
    endloop
  endfacet
  facet normal 0 0 1
    outer loop
      vertex 24.7487 24.7487 52.5
      vertex 27.7674 -21.3067 52.5
      vertex 27.7674 21.3067 52.5
    endloop
  endfacet
  facet normal 0 0 1
    outer loop
      vertex 24.7487 24.7487 52.5
      vertex 24.7487 -24.7487 52.5
      vertex 27.7674 -21.3067 52.5
    endloop
  endfacet
  facet normal 0 0 1
    outer loop
      vertex 21.3067 27.7674 52.5
      vertex 24.7487 -24.7487 52.5
      vertex 24.7487 24.7487 52.5
    endloop
  endfacet
  facet normal 0 0 1
    outer loop
      vertex 21.3067 27.7674 52.5
      vertex 21.3067 -27.7674 52.5
      vertex 24.7487 -24.7487 52.5
    endloop
  endfacet
  facet normal 0 0 1
    outer loop
      vertex 17.5 30.3109 52.5
      vertex 21.3067 -27.7674 52.5
      vertex 21.3067 27.7674 52.5
    endloop
  endfacet
  facet normal 0 0 1
    outer loop
      vertex 17.5 30.3109 52.5
      vertex 17.5 -30.3109 52.5
      vertex 21.3067 -27.7674 52.5
    endloop
  endfacet
  facet normal 0 0 1
    outer loop
      vertex 13.3939 32.3358 52.5
      vertex 17.5 -30.3109 52.5
      vertex 17.5 30.3109 52.5
    endloop
  endfacet
  facet normal 0 0 1
    outer loop
      vertex 13.3939 32.3358 52.5
      vertex 13.3939 -32.3358 52.5
      vertex 17.5 -30.3109 52.5
    endloop
  endfacet
  facet normal 0 0 1
    outer loop
      vertex 9.05867 33.8074 52.5
      vertex 13.3939 -32.3358 52.5
      vertex 13.3939 32.3358 52.5
    endloop
  endfacet
  facet normal 0 0 1
    outer loop
      vertex 9.05867 33.8074 52.5
      vertex 9.05867 -33.8074 52.5
      vertex 13.3939 -32.3358 52.5
    endloop
  endfacet
  facet normal 0 0 1
    outer loop
      vertex 4.56842 34.7006 52.5
      vertex 9.05867 -33.8074 52.5
      vertex 9.05867 33.8074 52.5
    endloop
  endfacet
  facet normal 0 0 1
    outer loop
      vertex 4.56842 34.7006 52.5
      vertex 4.56842 -34.7006 52.5
      vertex 9.05867 -33.8074 52.5
    endloop
  endfacet
  facet normal 0 0 1
    outer loop
      vertex 0 35 52.5
      vertex 4.56842 -34.7006 52.5
      vertex 4.56842 34.7006 52.5
    endloop
  endfacet
  facet normal 0 0 1
    outer loop
      vertex 0 35 52.5
      vertex -0 -35 52.5
      vertex 4.56842 -34.7006 52.5
    endloop
  endfacet
  facet normal -0 0 1
    outer loop
      vertex -4.56842 34.7006 52.5
      vertex -0 -35 52.5
      vertex 0 35 52.5
    endloop
  endfacet
  facet normal 0 0 1
    outer loop
      vertex -4.56842 34.7006 52.5
      vertex -4.56842 -34.7006 52.5
      vertex -0 -35 52.5
    endloop
  endfacet
  facet normal -0 0 1
    outer loop
      vertex -9.05867 33.8074 52.5
      vertex -4.56842 -34.7006 52.5
      vertex -4.56842 34.7006 52.5
    endloop
  endfacet
  facet normal 0 0 1
    outer loop
      vertex -9.05867 33.8074 52.5
      vertex -9.05867 -33.8074 52.5
      vertex -4.56842 -34.7006 52.5
    endloop
  endfacet
  facet normal -0 0 1
    outer loop
      vertex -13.3939 32.3358 52.5
      vertex -9.05867 -33.8074 52.5
      vertex -9.05867 33.8074 52.5
    endloop
  endfacet
  facet normal 0 0 1
    outer loop
      vertex -13.3939 32.3358 52.5
      vertex -13.3939 -32.3358 52.5
      vertex -9.05867 -33.8074 52.5
    endloop
  endfacet
  facet normal -0 0 1
    outer loop
      vertex -17.5 30.3109 52.5
      vertex -13.3939 -32.3358 52.5
      vertex -13.3939 32.3358 52.5
    endloop
  endfacet
  facet normal 0 0 1
    outer loop
      vertex -17.5 30.3109 52.5
      vertex -17.5 -30.3109 52.5
      vertex -13.3939 -32.3358 52.5
    endloop
  endfacet
  facet normal -0 0 1
    outer loop
      vertex -21.3067 27.7674 52.5
      vertex -17.5 -30.3109 52.5
      vertex -17.5 30.3109 52.5
    endloop
  endfacet
  facet normal 0 0 1
    outer loop
      vertex -21.3067 27.7674 52.5
      vertex -21.3067 -27.7674 52.5
      vertex -17.5 -30.3109 52.5
    endloop
  endfacet
  facet normal -0 0 1
    outer loop
      vertex -24.7487 24.7487 52.5
      vertex -21.3067 -27.7674 52.5
      vertex -21.3067 27.7674 52.5
    endloop
  endfacet
  facet normal 0 0 1
    outer loop
      vertex -24.7487 24.7487 52.5
      vertex -24.7487 -24.7487 52.5
      vertex -21.3067 -27.7674 52.5
    endloop
  endfacet
  facet normal -0 0 1
    outer loop
      vertex -27.7674 21.3067 52.5
      vertex -24.7487 -24.7487 52.5
      vertex -24.7487 24.7487 52.5
    endloop
  endfacet
  facet normal 0 0 1
    outer loop
      vertex -27.7674 21.3067 52.5
      vertex -27.7674 -21.3067 52.5
      vertex -24.7487 -24.7487 52.5
    endloop
  endfacet
  facet normal -0 0 1
    outer loop
      vertex -30.3109 17.5 52.5
      vertex -27.7674 -21.3067 52.5
      vertex -27.7674 21.3067 52.5
    endloop
  endfacet
  facet normal 0 0 1
    outer loop
      vertex -30.3109 17.5 52.5
      vertex -30.3109 -17.5 52.5
      vertex -27.7674 -21.3067 52.5
    endloop
  endfacet
  facet normal -0 0 1
    outer loop
      vertex -32.3358 13.3939 52.5
      vertex -30.3109 -17.5 52.5
      vertex -30.3109 17.5 52.5
    endloop
  endfacet
  facet normal 0 0 1
    outer loop
      vertex -32.3358 13.3939 52.5
      vertex -32.3358 -13.3939 52.5
      vertex -30.3109 -17.5 52.5
    endloop
  endfacet
  facet normal -0 0 1
    outer loop
      vertex -33.8074 9.05867 52.5
      vertex -32.3358 -13.3939 52.5
      vertex -32.3358 13.3939 52.5
    endloop
  endfacet
  facet normal 0 0 1
    outer loop
      vertex -33.8074 9.05867 52.5
      vertex -33.8074 -9.05867 52.5
      vertex -32.3358 -13.3939 52.5
    endloop
  endfacet
  facet normal -0 0 1
    outer loop
      vertex -34.7006 4.56842 52.5
      vertex -33.8074 -9.05867 52.5
      vertex -33.8074 9.05867 52.5
    endloop
  endfacet
  facet normal 0 0 1
    outer loop
      vertex -34.7006 4.56842 52.5
      vertex -34.7006 -4.56842 52.5
      vertex -33.8074 -9.05867 52.5
    endloop
  endfacet
  facet normal 0 -0 1
    outer loop
      vertex -34.7006 -4.56842 52.5
      vertex -34.7006 4.56842 52.5
      vertex -35 -0 52.5
    endloop
  endfacet
endsolid OpenSCAD_Model
