solid OpenSCAD_Model
  facet normal 1 -0 0
    outer loop
      vertex 95 -55 1.5
      vertex 95 55 -1.5
      vertex 95 55 1.5
    endloop
  endfacet
  facet normal 1 0 0
    outer loop
      vertex 95 55 -1.5
      vertex 95 -55 1.5
      vertex 95 -55 -1.5
    endloop
  endfacet
  facet normal 0 0 1
    outer loop
      vertex 95 55 1.5
      vertex 89 -41.5 1.5
      vertex 95 -55 1.5
    endloop
  endfacet
  facet normal 0 0 1
    outer loop
      vertex 95 55 1.5
      vertex 77 -41.5 1.5
      vertex 89 -41.5 1.5
    endloop
  endfacet
  facet normal 0 0 1
    outer loop
      vertex 95 55 1.5
      vertex 6 41.5 1.5
      vertex 77 -41.5 1.5
    endloop
  endfacet
  facet normal 0 0 1
    outer loop
      vertex 6 41.5 1.5
      vertex 95 55 1.5
      vertex 6 44.5 1.5
    endloop
  endfacet
  facet normal 0 0 1
    outer loop
      vertex 95 55 1.5
      vertex -6 44.5 1.5
      vertex 6 44.5 1.5
    endloop
  endfacet
  facet normal 0 0 1
    outer loop
      vertex -95 55 1.5
      vertex -6 41.5 1.5
      vertex -6 44.5 1.5
    endloop
  endfacet
  facet normal 0 0 1
    outer loop
      vertex -6 41.5 1.5
      vertex -95 55 1.5
      vertex -77 -41.5 1.5
    endloop
  endfacet
  facet normal 0 0 1
    outer loop
      vertex -95 -55 1.5
      vertex -89 -41.5 1.5
      vertex -95 55 1.5
    endloop
  endfacet
  facet normal 0 0 1
    outer loop
      vertex -77 -41.5 1.5
      vertex -95 55 1.5
      vertex -89 -41.5 1.5
    endloop
  endfacet
  facet normal -0 0 1
    outer loop
      vertex -95 55 1.5
      vertex -6 44.5 1.5
      vertex 95 55 1.5
    endloop
  endfacet
  facet normal -0 0 1
    outer loop
      vertex 89 -44.5 1.5
      vertex 95 -55 1.5
      vertex 89 -41.5 1.5
    endloop
  endfacet
  facet normal -0 0 1
    outer loop
      vertex 77 -44.5 1.5
      vertex 95 -55 1.5
      vertex 89 -44.5 1.5
    endloop
  endfacet
  facet normal -0 0 1
    outer loop
      vertex -6 41.5 1.5
      vertex 77 -41.5 1.5
      vertex 6 41.5 1.5
    endloop
  endfacet
  facet normal 0 0 1
    outer loop
      vertex -77 -41.5 1.5
      vertex 77 -41.5 1.5
      vertex -6 41.5 1.5
    endloop
  endfacet
  facet normal 0 0 1
    outer loop
      vertex 77 -41.5 1.5
      vertex -77 -41.5 1.5
      vertex 77 -44.5 1.5
    endloop
  endfacet
  facet normal 0 0 1
    outer loop
      vertex -77 -44.5 1.5
      vertex 77 -44.5 1.5
      vertex -77 -41.5 1.5
    endloop
  endfacet
  facet normal 0 0 1
    outer loop
      vertex 77 -44.5 1.5
      vertex -77 -44.5 1.5
      vertex 95 -55 1.5
    endloop
  endfacet
  facet normal 0 0 1
    outer loop
      vertex -95 -55 1.5
      vertex -77 -44.5 1.5
      vertex -89 -44.5 1.5
    endloop
  endfacet
  facet normal 0 0 1
    outer loop
      vertex -77 -44.5 1.5
      vertex -95 -55 1.5
      vertex 95 -55 1.5
    endloop
  endfacet
  facet normal 0 0 1
    outer loop
      vertex -89 -41.5 1.5
      vertex -95 -55 1.5
      vertex -89 -44.5 1.5
    endloop
  endfacet
  facet normal 0 0 -1
    outer loop
      vertex 89 -41.5 -1.5
      vertex 95 -55 -1.5
      vertex 89 -44.5 -1.5
    endloop
  endfacet
  facet normal 0 0 -1
    outer loop
      vertex 95 -55 -1.5
      vertex 77 -44.5 -1.5
      vertex 89 -44.5 -1.5
    endloop
  endfacet
  facet normal 0 0 -1
    outer loop
      vertex -77 -41.5 -1.5
      vertex 77 -41.5 -1.5
      vertex 77 -44.5 -1.5
    endloop
  endfacet
  facet normal 0 0 -1
    outer loop
      vertex 77 -41.5 -1.5
      vertex -6 41.5 -1.5
      vertex 6 41.5 -1.5
    endloop
  endfacet
  facet normal 0 0 -1
    outer loop
      vertex 77 -41.5 -1.5
      vertex -77 -41.5 -1.5
      vertex -6 41.5 -1.5
    endloop
  endfacet
  facet normal 0 0 -1
    outer loop
      vertex -77 -41.5 -1.5
      vertex 77 -44.5 -1.5
      vertex -77 -44.5 -1.5
    endloop
  endfacet
  facet normal 0 0 -1
    outer loop
      vertex 95 -55 -1.5
      vertex -77 -44.5 -1.5
      vertex 77 -44.5 -1.5
    endloop
  endfacet
  facet normal 0 0 -1
    outer loop
      vertex -95 -55 -1.5
      vertex -77 -44.5 -1.5
      vertex 95 -55 -1.5
    endloop
  endfacet
  facet normal -0 0 -1
    outer loop
      vertex -89 -44.5 -1.5
      vertex -95 -55 -1.5
      vertex -89 -41.5 -1.5
    endloop
  endfacet
  facet normal -0 0 -1
    outer loop
      vertex -77 -44.5 -1.5
      vertex -95 -55 -1.5
      vertex -89 -44.5 -1.5
    endloop
  endfacet
  facet normal 0 0 -1
    outer loop
      vertex 95 -55 -1.5
      vertex 89 -41.5 -1.5
      vertex 95 55 -1.5
    endloop
  endfacet
  facet normal 0 0 -1
    outer loop
      vertex 77 -41.5 -1.5
      vertex 95 55 -1.5
      vertex 89 -41.5 -1.5
    endloop
  endfacet
  facet normal 0 0 -1
    outer loop
      vertex 6 41.5 -1.5
      vertex 95 55 -1.5
      vertex 77 -41.5 -1.5
    endloop
  endfacet
  facet normal 0 0 -1
    outer loop
      vertex 6 44.5 -1.5
      vertex 95 55 -1.5
      vertex 6 41.5 -1.5
    endloop
  endfacet
  facet normal 0 0 -1
    outer loop
      vertex -6 44.5 -1.5
      vertex 95 55 -1.5
      vertex 6 44.5 -1.5
    endloop
  endfacet
  facet normal 0 0 -1
    outer loop
      vertex -95 55 -1.5
      vertex -6 41.5 -1.5
      vertex -77 -41.5 -1.5
    endloop
  endfacet
  facet normal 0 0 -1
    outer loop
      vertex -95 55 -1.5
      vertex -77 -41.5 -1.5
      vertex -89 -41.5 -1.5
    endloop
  endfacet
  facet normal 0 0 -1
    outer loop
      vertex -6 44.5 -1.5
      vertex -95 55 -1.5
      vertex 95 55 -1.5
    endloop
  endfacet
  facet normal 0 0 -1
    outer loop
      vertex -6 41.5 -1.5
      vertex -95 55 -1.5
      vertex -6 44.5 -1.5
    endloop
  endfacet
  facet normal 0 0 -1
    outer loop
      vertex -95 55 -1.5
      vertex -89 -41.5 -1.5
      vertex -95 -55 -1.5
    endloop
  endfacet
  facet normal -1 0 0
    outer loop
      vertex -95 -55 -1.5
      vertex -95 55 1.5
      vertex -95 55 -1.5
    endloop
  endfacet
  facet normal -1 -0 0
    outer loop
      vertex -95 55 1.5
      vertex -95 -55 -1.5
      vertex -95 -55 1.5
    endloop
  endfacet
  facet normal 0 1 -0
    outer loop
      vertex 95 55 -1.5
      vertex -95 55 1.5
      vertex 95 55 1.5
    endloop
  endfacet
  facet normal 0 1 0
    outer loop
      vertex -95 55 1.5
      vertex 95 55 -1.5
      vertex -95 55 -1.5
    endloop
  endfacet
  facet normal 0 -1 0
    outer loop
      vertex -95 -55 -1.5
      vertex 95 -55 1.5
      vertex -95 -55 1.5
    endloop
  endfacet
  facet normal 0 -1 -0
    outer loop
      vertex 95 -55 1.5
      vertex -95 -55 -1.5
      vertex 95 -55 -1.5
    endloop
  endfacet
  facet normal -1 0 0
    outer loop
      vertex -77 -44.5 -1.5
      vertex -77 -41.5 1.5
      vertex -77 -41.5 -1.5
    endloop
  endfacet
  facet normal -1 -0 0
    outer loop
      vertex -77 -41.5 1.5
      vertex -77 -44.5 -1.5
      vertex -77 -44.5 1.5
    endloop
  endfacet
  facet normal 1 -0 0
    outer loop
      vertex -89 -44.5 1.5
      vertex -89 -41.5 -1.5
      vertex -89 -41.5 1.5
    endloop
  endfacet
  facet normal 1 0 0
    outer loop
      vertex -89 -41.5 -1.5
      vertex -89 -44.5 1.5
      vertex -89 -44.5 -1.5
    endloop
  endfacet
  facet normal 0 -1 0
    outer loop
      vertex -89 -41.5 -1.5
      vertex -77 -41.5 1.5
      vertex -89 -41.5 1.5
    endloop
  endfacet
  facet normal 0 -1 -0
    outer loop
      vertex -77 -41.5 1.5
      vertex -89 -41.5 -1.5
      vertex -77 -41.5 -1.5
    endloop
  endfacet
  facet normal 0 1 -0
    outer loop
      vertex -77 -44.5 -1.5
      vertex -89 -44.5 1.5
      vertex -77 -44.5 1.5
    endloop
  endfacet
  facet normal 0 1 0
    outer loop
      vertex -89 -44.5 1.5
      vertex -77 -44.5 -1.5
      vertex -89 -44.5 -1.5
    endloop
  endfacet
  facet normal -1 0 0
    outer loop
      vertex 89 -44.5 -1.5
      vertex 89 -41.5 1.5
      vertex 89 -41.5 -1.5
    endloop
  endfacet
  facet normal -1 -0 0
    outer loop
      vertex 89 -41.5 1.5
      vertex 89 -44.5 -1.5
      vertex 89 -44.5 1.5
    endloop
  endfacet
  facet normal 1 -0 0
    outer loop
      vertex 77 -44.5 1.5
      vertex 77 -41.5 -1.5
      vertex 77 -41.5 1.5
    endloop
  endfacet
  facet normal 1 0 0
    outer loop
      vertex 77 -41.5 -1.5
      vertex 77 -44.5 1.5
      vertex 77 -44.5 -1.5
    endloop
  endfacet
  facet normal 0 -1 0
    outer loop
      vertex 77 -41.5 -1.5
      vertex 89 -41.5 1.5
      vertex 77 -41.5 1.5
    endloop
  endfacet
  facet normal 0 -1 -0
    outer loop
      vertex 89 -41.5 1.5
      vertex 77 -41.5 -1.5
      vertex 89 -41.5 -1.5
    endloop
  endfacet
  facet normal 0 1 -0
    outer loop
      vertex 89 -44.5 -1.5
      vertex 77 -44.5 1.5
      vertex 89 -44.5 1.5
    endloop
  endfacet
  facet normal 0 1 0
    outer loop
      vertex 77 -44.5 1.5
      vertex 89 -44.5 -1.5
      vertex 77 -44.5 -1.5
    endloop
  endfacet
  facet normal -1 0 0
    outer loop
      vertex 6 41.5 -1.5
      vertex 6 44.5 1.5
      vertex 6 44.5 -1.5
    endloop
  endfacet
  facet normal -1 -0 0
    outer loop
      vertex 6 44.5 1.5
      vertex 6 41.5 -1.5
      vertex 6 41.5 1.5
    endloop
  endfacet
  facet normal 1 -0 0
    outer loop
      vertex -6 41.5 1.5
      vertex -6 44.5 -1.5
      vertex -6 44.5 1.5
    endloop
  endfacet
  facet normal 1 0 0
    outer loop
      vertex -6 44.5 -1.5
      vertex -6 41.5 1.5
      vertex -6 41.5 -1.5
    endloop
  endfacet
  facet normal 0 -1 0
    outer loop
      vertex -6 44.5 -1.5
      vertex 6 44.5 1.5
      vertex -6 44.5 1.5
    endloop
  endfacet
  facet normal 0 -1 -0
    outer loop
      vertex 6 44.5 1.5
      vertex -6 44.5 -1.5
      vertex 6 44.5 -1.5
    endloop
  endfacet
  facet normal 0 1 -0
    outer loop
      vertex 6 41.5 -1.5
      vertex -6 41.5 1.5
      vertex 6 41.5 1.5
    endloop
  endfacet
  facet normal 0 1 0
    outer loop
      vertex -6 41.5 1.5
      vertex 6 41.5 -1.5
      vertex -6 41.5 -1.5
    endloop
  endfacet
endsolid OpenSCAD_Model
