solid OpenSCAD_Model
  facet normal 1 -0 0
    outer loop
      vertex 55 -30 1
      vertex 55 30 -1
      vertex 55 30 1
    endloop
  endfacet
  facet normal 1 0 0
    outer loop
      vertex 55 30 -1
      vertex 55 -30 1
      vertex 55 -30 -1
    endloop
  endfacet
  facet normal 0 0 1
    outer loop
      vertex 55 30 1
      vertex 51 0 1
      vertex 55 -30 1
    endloop
  endfacet
  facet normal 0 0 1
    outer loop
      vertex 55 30 1
      vertex 50.9658 0.522104 1
      vertex 51 0 1
    endloop
  endfacet
  facet normal 0 0 1
    outer loop
      vertex 55 30 1
      vertex 50.8637 1.03528 1
      vertex 50.9658 0.522104 1
    endloop
  endfacet
  facet normal 0 0 1
    outer loop
      vertex 55 30 1
      vertex 50.6955 1.53073 1
      vertex 50.8637 1.03528 1
    endloop
  endfacet
  facet normal 0 0 1
    outer loop
      vertex 55 30 1
      vertex 50.4641 2 1
      vertex 50.6955 1.53073 1
    endloop
  endfacet
  facet normal 0 0 1
    outer loop
      vertex 55 30 1
      vertex 50.1734 2.43505 1
      vertex 50.4641 2 1
    endloop
  endfacet
  facet normal 0 0 1
    outer loop
      vertex 55 30 1
      vertex 49.8284 2.82843 1
      vertex 50.1734 2.43505 1
    endloop
  endfacet
  facet normal 0 0 1
    outer loop
      vertex 55 30 1
      vertex 49.435 3.17341 1
      vertex 49.8284 2.82843 1
    endloop
  endfacet
  facet normal 0 0 1
    outer loop
      vertex 55 30 1
      vertex 49 3.4641 1
      vertex 49.435 3.17341 1
    endloop
  endfacet
  facet normal 0 0 1
    outer loop
      vertex 55 30 1
      vertex 48.5307 3.69552 1
      vertex 49 3.4641 1
    endloop
  endfacet
  facet normal 0 0 1
    outer loop
      vertex 55 30 1
      vertex 48.0353 3.8637 1
      vertex 48.5307 3.69552 1
    endloop
  endfacet
  facet normal 0 0 1
    outer loop
      vertex 55 30 1
      vertex 47.5221 3.96578 1
      vertex 48.0353 3.8637 1
    endloop
  endfacet
  facet normal 0 0 1
    outer loop
      vertex 55 30 1
      vertex 47 4 1
      vertex 47.5221 3.96578 1
    endloop
  endfacet
  facet normal 0 0 1
    outer loop
      vertex 55 30 1
      vertex 46.4779 3.96578 1
      vertex 47 4 1
    endloop
  endfacet
  facet normal 0 0 1
    outer loop
      vertex 55 30 1
      vertex 45.9647 3.8637 1
      vertex 46.4779 3.96578 1
    endloop
  endfacet
  facet normal 0 0 1
    outer loop
      vertex 55 30 1
      vertex 45.4693 3.69552 1
      vertex 45.9647 3.8637 1
    endloop
  endfacet
  facet normal 0 0 1
    outer loop
      vertex 55 30 1
      vertex 45 3.4641 1
      vertex 45.4693 3.69552 1
    endloop
  endfacet
  facet normal 0 0 1
    outer loop
      vertex 55 30 1
      vertex 44.565 3.17341 1
      vertex 45 3.4641 1
    endloop
  endfacet
  facet normal 0 0 1
    outer loop
      vertex 55 30 1
      vertex 44.1716 2.82843 1
      vertex 44.565 3.17341 1
    endloop
  endfacet
  facet normal 0 0 1
    outer loop
      vertex 55 30 1
      vertex 43.8266 2.43505 1
      vertex 44.1716 2.82843 1
    endloop
  endfacet
  facet normal 0 0 1
    outer loop
      vertex -43.8266 2.43505 1
      vertex 43.8266 2.43505 1
      vertex 55 30 1
    endloop
  endfacet
  facet normal 0 0 1
    outer loop
      vertex 43.8266 2.43505 1
      vertex -43.8266 2.43505 1
      vertex 43.5359 2 1
    endloop
  endfacet
  facet normal 0 0 1
    outer loop
      vertex 43.0342 0.522104 1
      vertex -43 0 1
      vertex 43 0 1
    endloop
  endfacet
  facet normal 0 0 1
    outer loop
      vertex -43.0342 0.522104 1
      vertex 43.0342 0.522104 1
      vertex 43.1363 1.03528 1
    endloop
  endfacet
  facet normal 0 0 1
    outer loop
      vertex -43.1363 1.03528 1
      vertex 43.1363 1.03528 1
      vertex 43.3045 1.53073 1
    endloop
  endfacet
  facet normal 0 -0 1
    outer loop
      vertex -43.5359 2 1
      vertex 43.5359 2 1
      vertex -43.8266 2.43505 1
    endloop
  endfacet
  facet normal 0 0 1
    outer loop
      vertex 43.0342 0.522104 1
      vertex -43.0342 0.522104 1
      vertex -43 0 1
    endloop
  endfacet
  facet normal 0 0 1
    outer loop
      vertex 43.1363 1.03528 1
      vertex -43.1363 1.03528 1
      vertex -43.0342 0.522104 1
    endloop
  endfacet
  facet normal 0 0 1
    outer loop
      vertex 43.3045 1.53073 1
      vertex -43.3045 1.53073 1
      vertex -43.1363 1.03528 1
    endloop
  endfacet
  facet normal 0 0 1
    outer loop
      vertex 43.3045 1.53073 1
      vertex -43.5359 2 1
      vertex -43.3045 1.53073 1
    endloop
  endfacet
  facet normal 0 0 1
    outer loop
      vertex 43.5359 2 1
      vertex -43.5359 2 1
      vertex 43.3045 1.53073 1
    endloop
  endfacet
  facet normal -0 0 1
    outer loop
      vertex -55 30 1
      vertex -43.8266 2.43505 1
      vertex 55 30 1
    endloop
  endfacet
  facet normal 0 0 1
    outer loop
      vertex -43.8266 2.43505 1
      vertex -55 30 1
      vertex -44.1716 2.82843 1
    endloop
  endfacet
  facet normal 0 0 1
    outer loop
      vertex -44.1716 2.82843 1
      vertex -55 30 1
      vertex -44.565 3.17341 1
    endloop
  endfacet
  facet normal 0 0 1
    outer loop
      vertex -44.565 3.17341 1
      vertex -55 30 1
      vertex -45 3.4641 1
    endloop
  endfacet
  facet normal 0 0 1
    outer loop
      vertex -45 3.4641 1
      vertex -55 30 1
      vertex -45.4693 3.69552 1
    endloop
  endfacet
  facet normal 0 0 1
    outer loop
      vertex -45.4693 3.69552 1
      vertex -55 30 1
      vertex -45.9647 3.8637 1
    endloop
  endfacet
  facet normal 0 0 1
    outer loop
      vertex -45.9647 3.8637 1
      vertex -55 30 1
      vertex -46.4779 3.96578 1
    endloop
  endfacet
  facet normal 0 0 1
    outer loop
      vertex -46.4779 3.96578 1
      vertex -55 30 1
      vertex -47 4 1
    endloop
  endfacet
  facet normal 0 0 1
    outer loop
      vertex -47 4 1
      vertex -55 30 1
      vertex -47.5221 3.96578 1
    endloop
  endfacet
  facet normal 0 0 1
    outer loop
      vertex -50.9658 0.522104 1
      vertex -55 30 1
      vertex -51 0 1
    endloop
  endfacet
  facet normal 0 0 1
    outer loop
      vertex -50.8637 1.03528 1
      vertex -55 30 1
      vertex -50.9658 0.522104 1
    endloop
  endfacet
  facet normal 0 0 1
    outer loop
      vertex -50.6955 1.53073 1
      vertex -55 30 1
      vertex -50.8637 1.03528 1
    endloop
  endfacet
  facet normal 0 0 1
    outer loop
      vertex -50.4641 2 1
      vertex -55 30 1
      vertex -50.6955 1.53073 1
    endloop
  endfacet
  facet normal 0 0 1
    outer loop
      vertex -50.1734 2.43505 1
      vertex -55 30 1
      vertex -50.4641 2 1
    endloop
  endfacet
  facet normal 0 0 1
    outer loop
      vertex -49.8284 2.82843 1
      vertex -55 30 1
      vertex -50.1734 2.43505 1
    endloop
  endfacet
  facet normal 0 0 1
    outer loop
      vertex -49.435 3.17341 1
      vertex -55 30 1
      vertex -49.8284 2.82843 1
    endloop
  endfacet
  facet normal 0 0 1
    outer loop
      vertex -49 3.4641 1
      vertex -55 30 1
      vertex -49.435 3.17341 1
    endloop
  endfacet
  facet normal 0 0 1
    outer loop
      vertex -48.5307 3.69552 1
      vertex -55 30 1
      vertex -49 3.4641 1
    endloop
  endfacet
  facet normal 0 0 1
    outer loop
      vertex -48.0353 3.8637 1
      vertex -55 30 1
      vertex -48.5307 3.69552 1
    endloop
  endfacet
  facet normal 0 0 1
    outer loop
      vertex -47.5221 3.96578 1
      vertex -55 30 1
      vertex -48.0353 3.8637 1
    endloop
  endfacet
  facet normal -0 0 1
    outer loop
      vertex 50.9658 -0.522104 1
      vertex 55 -30 1
      vertex 51 0 1
    endloop
  endfacet
  facet normal -0 0 1
    outer loop
      vertex 50.8637 -1.03528 1
      vertex 55 -30 1
      vertex 50.9658 -0.522104 1
    endloop
  endfacet
  facet normal -0 0 1
    outer loop
      vertex 50.6955 -1.53073 1
      vertex 55 -30 1
      vertex 50.8637 -1.03528 1
    endloop
  endfacet
  facet normal -0 0 1
    outer loop
      vertex 50.4641 -2 1
      vertex 55 -30 1
      vertex 50.6955 -1.53073 1
    endloop
  endfacet
  facet normal -0 0 1
    outer loop
      vertex 50.1734 -2.43505 1
      vertex 55 -30 1
      vertex 50.4641 -2 1
    endloop
  endfacet
  facet normal -0 0 1
    outer loop
      vertex 49.8284 -2.82843 1
      vertex 55 -30 1
      vertex 50.1734 -2.43505 1
    endloop
  endfacet
  facet normal -0 0 1
    outer loop
      vertex 49.435 -3.17341 1
      vertex 55 -30 1
      vertex 49.8284 -2.82843 1
    endloop
  endfacet
  facet normal -0 0 1
    outer loop
      vertex 49 -3.4641 1
      vertex 55 -30 1
      vertex 49.435 -3.17341 1
    endloop
  endfacet
  facet normal -0 0 1
    outer loop
      vertex 48.5307 -3.69552 1
      vertex 55 -30 1
      vertex 49 -3.4641 1
    endloop
  endfacet
  facet normal -0 0 1
    outer loop
      vertex 48.0353 -3.8637 1
      vertex 55 -30 1
      vertex 48.5307 -3.69552 1
    endloop
  endfacet
  facet normal -0 0 1
    outer loop
      vertex 47.5221 -3.96578 1
      vertex 55 -30 1
      vertex 48.0353 -3.8637 1
    endloop
  endfacet
  facet normal -0 0 1
    outer loop
      vertex 47 -4 1
      vertex 55 -30 1
      vertex 47.5221 -3.96578 1
    endloop
  endfacet
  facet normal 0 0 1
    outer loop
      vertex 46.4779 -3.96578 1
      vertex 55 -30 1
      vertex 47 -4 1
    endloop
  endfacet
  facet normal 0 0 1
    outer loop
      vertex 45.9647 -3.8637 1
      vertex 55 -30 1
      vertex 46.4779 -3.96578 1
    endloop
  endfacet
  facet normal 0 0 1
    outer loop
      vertex 45.4693 -3.69552 1
      vertex 55 -30 1
      vertex 45.9647 -3.8637 1
    endloop
  endfacet
  facet normal 0 0 1
    outer loop
      vertex 45 -3.4641 1
      vertex 55 -30 1
      vertex 45.4693 -3.69552 1
    endloop
  endfacet
  facet normal 0 0 1
    outer loop
      vertex 44.565 -3.17341 1
      vertex 55 -30 1
      vertex 45 -3.4641 1
    endloop
  endfacet
  facet normal 0 0 1
    outer loop
      vertex 44.1716 -2.82843 1
      vertex 55 -30 1
      vertex 44.565 -3.17341 1
    endloop
  endfacet
  facet normal 0 0 1
    outer loop
      vertex 43.8266 -2.43505 1
      vertex 55 -30 1
      vertex 44.1716 -2.82843 1
    endloop
  endfacet
  facet normal 0 0 1
    outer loop
      vertex -43.8266 -2.43505 1
      vertex 43.8266 -2.43505 1
      vertex 43.5359 -2 1
    endloop
  endfacet
  facet normal 0 0 1
    outer loop
      vertex -43.5359 -2 1
      vertex 43.5359 -2 1
      vertex 43.3045 -1.53073 1
    endloop
  endfacet
  facet normal -0 0 1
    outer loop
      vertex -43 0 1
      vertex 43.0342 -0.522104 1
      vertex 43 0 1
    endloop
  endfacet
  facet normal 0 0 1
    outer loop
      vertex -43.0342 -0.522104 1
      vertex 43.0342 -0.522104 1
      vertex -43 0 1
    endloop
  endfacet
  facet normal 0 0 1
    outer loop
      vertex 43.0342 -0.522104 1
      vertex -43.0342 -0.522104 1
      vertex 43.1363 -1.03528 1
    endloop
  endfacet
  facet normal 0 0 1
    outer loop
      vertex -43.1363 -1.03528 1
      vertex 43.1363 -1.03528 1
      vertex -43.0342 -0.522104 1
    endloop
  endfacet
  facet normal 0 0 1
    outer loop
      vertex 43.1363 -1.03528 1
      vertex -43.1363 -1.03528 1
      vertex 43.3045 -1.53073 1
    endloop
  endfacet
  facet normal 0 0 1
    outer loop
      vertex -43.3045 -1.53073 1
      vertex 43.3045 -1.53073 1
      vertex -43.1363 -1.03528 1
    endloop
  endfacet
  facet normal 0 0 1
    outer loop
      vertex -43.5359 -2 1
      vertex 43.3045 -1.53073 1
      vertex -43.3045 -1.53073 1
    endloop
  endfacet
  facet normal 0 0 1
    outer loop
      vertex 43.5359 -2 1
      vertex -43.5359 -2 1
      vertex -43.8266 -2.43505 1
    endloop
  endfacet
  facet normal 0 0 1
    outer loop
      vertex 43.8266 -2.43505 1
      vertex -43.8266 -2.43505 1
      vertex 55 -30 1
    endloop
  endfacet
  facet normal 0 0 1
    outer loop
      vertex -55 -30 1
      vertex -43.8266 -2.43505 1
      vertex -44.1716 -2.82843 1
    endloop
  endfacet
  facet normal 0 0 1
    outer loop
      vertex -55 -30 1
      vertex -44.1716 -2.82843 1
      vertex -44.565 -3.17341 1
    endloop
  endfacet
  facet normal 0 0 1
    outer loop
      vertex -55 -30 1
      vertex -44.565 -3.17341 1
      vertex -45 -3.4641 1
    endloop
  endfacet
  facet normal 0 0 1
    outer loop
      vertex -55 -30 1
      vertex -45 -3.4641 1
      vertex -45.4693 -3.69552 1
    endloop
  endfacet
  facet normal 0 0 1
    outer loop
      vertex -55 -30 1
      vertex -45.4693 -3.69552 1
      vertex -45.9647 -3.8637 1
    endloop
  endfacet
  facet normal 0 0 1
    outer loop
      vertex -55 -30 1
      vertex -45.9647 -3.8637 1
      vertex -46.4779 -3.96578 1
    endloop
  endfacet
  facet normal 0 0 1
    outer loop
      vertex -55 -30 1
      vertex -46.4779 -3.96578 1
      vertex -47 -4 1
    endloop
  endfacet
  facet normal 0 0 1
    outer loop
      vertex -55 -30 1
      vertex -47 -4 1
      vertex -47.5221 -3.96578 1
    endloop
  endfacet
  facet normal 0 0 1
    outer loop
      vertex -55 -30 1
      vertex -47.5221 -3.96578 1
      vertex -48.0353 -3.8637 1
    endloop
  endfacet
  facet normal 0 0 1
    outer loop
      vertex -55 -30 1
      vertex -51 0 1
      vertex -55 30 1
    endloop
  endfacet
  facet normal 0 0 1
    outer loop
      vertex -43.8266 -2.43505 1
      vertex -55 -30 1
      vertex 55 -30 1
    endloop
  endfacet
  facet normal 0 0 1
    outer loop
      vertex -48.5307 -3.69552 1
      vertex -55 -30 1
      vertex -48.0353 -3.8637 1
    endloop
  endfacet
  facet normal 0 0 1
    outer loop
      vertex -49 -3.4641 1
      vertex -55 -30 1
      vertex -48.5307 -3.69552 1
    endloop
  endfacet
  facet normal 0 0 1
    outer loop
      vertex -49.435 -3.17341 1
      vertex -55 -30 1
      vertex -49 -3.4641 1
    endloop
  endfacet
  facet normal 0 0 1
    outer loop
      vertex -49.8284 -2.82843 1
      vertex -55 -30 1
      vertex -49.435 -3.17341 1
    endloop
  endfacet
  facet normal 0 0 1
    outer loop
      vertex -50.1734 -2.43505 1
      vertex -55 -30 1
      vertex -49.8284 -2.82843 1
    endloop
  endfacet
  facet normal 0 0 1
    outer loop
      vertex -50.4641 -2 1
      vertex -55 -30 1
      vertex -50.1734 -2.43505 1
    endloop
  endfacet
  facet normal 0 0 1
    outer loop
      vertex -50.6955 -1.53073 1
      vertex -55 -30 1
      vertex -50.4641 -2 1
    endloop
  endfacet
  facet normal 0 0 1
    outer loop
      vertex -50.8637 -1.03528 1
      vertex -55 -30 1
      vertex -50.6955 -1.53073 1
    endloop
  endfacet
  facet normal 0 0 1
    outer loop
      vertex -50.9658 -0.522104 1
      vertex -55 -30 1
      vertex -50.8637 -1.03528 1
    endloop
  endfacet
  facet normal 0 0 1
    outer loop
      vertex -51 0 1
      vertex -55 -30 1
      vertex -50.9658 -0.522104 1
    endloop
  endfacet
  facet normal 0 0 -1
    outer loop
      vertex 55 -30 -1
      vertex 51 0 -1
      vertex 55 30 -1
    endloop
  endfacet
  facet normal 0 0 -1
    outer loop
      vertex 55 -30 -1
      vertex 50.9658 -0.522104 -1
      vertex 51 0 -1
    endloop
  endfacet
  facet normal 0 0 -1
    outer loop
      vertex 55 -30 -1
      vertex 50.8637 -1.03528 -1
      vertex 50.9658 -0.522104 -1
    endloop
  endfacet
  facet normal 0 0 -1
    outer loop
      vertex 55 -30 -1
      vertex 50.6955 -1.53073 -1
      vertex 50.8637 -1.03528 -1
    endloop
  endfacet
  facet normal 0 0 -1
    outer loop
      vertex 55 -30 -1
      vertex 50.4641 -2 -1
      vertex 50.6955 -1.53073 -1
    endloop
  endfacet
  facet normal 0 0 -1
    outer loop
      vertex 55 -30 -1
      vertex 50.1734 -2.43505 -1
      vertex 50.4641 -2 -1
    endloop
  endfacet
  facet normal 0 0 -1
    outer loop
      vertex 55 -30 -1
      vertex 49.8284 -2.82843 -1
      vertex 50.1734 -2.43505 -1
    endloop
  endfacet
  facet normal 0 0 -1
    outer loop
      vertex 55 -30 -1
      vertex 49.435 -3.17341 -1
      vertex 49.8284 -2.82843 -1
    endloop
  endfacet
  facet normal 0 0 -1
    outer loop
      vertex 55 -30 -1
      vertex 49 -3.4641 -1
      vertex 49.435 -3.17341 -1
    endloop
  endfacet
  facet normal 0 0 -1
    outer loop
      vertex 55 -30 -1
      vertex 48.5307 -3.69552 -1
      vertex 49 -3.4641 -1
    endloop
  endfacet
  facet normal 0 0 -1
    outer loop
      vertex 55 -30 -1
      vertex 48.0353 -3.8637 -1
      vertex 48.5307 -3.69552 -1
    endloop
  endfacet
  facet normal 0 0 -1
    outer loop
      vertex 55 -30 -1
      vertex 47.5221 -3.96578 -1
      vertex 48.0353 -3.8637 -1
    endloop
  endfacet
  facet normal 0 0 -1
    outer loop
      vertex 55 -30 -1
      vertex 47 -4 -1
      vertex 47.5221 -3.96578 -1
    endloop
  endfacet
  facet normal 0 0 -1
    outer loop
      vertex 55 -30 -1
      vertex 46.4779 -3.96578 -1
      vertex 47 -4 -1
    endloop
  endfacet
  facet normal 0 0 -1
    outer loop
      vertex 55 -30 -1
      vertex 45.9647 -3.8637 -1
      vertex 46.4779 -3.96578 -1
    endloop
  endfacet
  facet normal 0 0 -1
    outer loop
      vertex 55 -30 -1
      vertex 45.4693 -3.69552 -1
      vertex 45.9647 -3.8637 -1
    endloop
  endfacet
  facet normal 0 0 -1
    outer loop
      vertex 55 -30 -1
      vertex 45 -3.4641 -1
      vertex 45.4693 -3.69552 -1
    endloop
  endfacet
  facet normal 0 0 -1
    outer loop
      vertex 55 -30 -1
      vertex 44.565 -3.17341 -1
      vertex 45 -3.4641 -1
    endloop
  endfacet
  facet normal 0 0 -1
    outer loop
      vertex 55 -30 -1
      vertex 44.1716 -2.82843 -1
      vertex 44.565 -3.17341 -1
    endloop
  endfacet
  facet normal 0 0 -1
    outer loop
      vertex 55 -30 -1
      vertex 43.8266 -2.43505 -1
      vertex 44.1716 -2.82843 -1
    endloop
  endfacet
  facet normal 0 0 -1
    outer loop
      vertex -43.8266 -2.43505 -1
      vertex 43.8266 -2.43505 -1
      vertex 55 -30 -1
    endloop
  endfacet
  facet normal 0 0 -1
    outer loop
      vertex 43.8266 -2.43505 -1
      vertex -43.8266 -2.43505 -1
      vertex 43.5359 -2 -1
    endloop
  endfacet
  facet normal 0 0 -1
    outer loop
      vertex 43.0342 -0.522104 -1
      vertex -43 0 -1
      vertex 43 0 -1
    endloop
  endfacet
  facet normal 0 0 -1
    outer loop
      vertex -43.0342 -0.522104 -1
      vertex 43.0342 -0.522104 -1
      vertex 43.1363 -1.03528 -1
    endloop
  endfacet
  facet normal 0 0 -1
    outer loop
      vertex -43.1363 -1.03528 -1
      vertex 43.1363 -1.03528 -1
      vertex 43.3045 -1.53073 -1
    endloop
  endfacet
  facet normal 0 -0 -1
    outer loop
      vertex -43.5359 -2 -1
      vertex 43.5359 -2 -1
      vertex -43.8266 -2.43505 -1
    endloop
  endfacet
  facet normal 0 0 -1
    outer loop
      vertex 43.0342 -0.522104 -1
      vertex -43.0342 -0.522104 -1
      vertex -43 0 -1
    endloop
  endfacet
  facet normal 0 0 -1
    outer loop
      vertex 43.1363 -1.03528 -1
      vertex -43.1363 -1.03528 -1
      vertex -43.0342 -0.522104 -1
    endloop
  endfacet
  facet normal 0 0 -1
    outer loop
      vertex 43.3045 -1.53073 -1
      vertex -43.3045 -1.53073 -1
      vertex -43.1363 -1.03528 -1
    endloop
  endfacet
  facet normal -0 0 -1
    outer loop
      vertex 43.3045 -1.53073 -1
      vertex -43.5359 -2 -1
      vertex -43.3045 -1.53073 -1
    endloop
  endfacet
  facet normal 0 0 -1
    outer loop
      vertex 43.5359 -2 -1
      vertex -43.5359 -2 -1
      vertex 43.3045 -1.53073 -1
    endloop
  endfacet
  facet normal 0 0 -1
    outer loop
      vertex -55 -30 -1
      vertex -43.8266 -2.43505 -1
      vertex 55 -30 -1
    endloop
  endfacet
  facet normal 0 0 -1
    outer loop
      vertex -43.8266 -2.43505 -1
      vertex -55 -30 -1
      vertex -44.1716 -2.82843 -1
    endloop
  endfacet
  facet normal 0 0 -1
    outer loop
      vertex -44.1716 -2.82843 -1
      vertex -55 -30 -1
      vertex -44.565 -3.17341 -1
    endloop
  endfacet
  facet normal 0 0 -1
    outer loop
      vertex -44.565 -3.17341 -1
      vertex -55 -30 -1
      vertex -45 -3.4641 -1
    endloop
  endfacet
  facet normal 0 0 -1
    outer loop
      vertex -45 -3.4641 -1
      vertex -55 -30 -1
      vertex -45.4693 -3.69552 -1
    endloop
  endfacet
  facet normal 0 0 -1
    outer loop
      vertex -45.4693 -3.69552 -1
      vertex -55 -30 -1
      vertex -45.9647 -3.8637 -1
    endloop
  endfacet
  facet normal 0 0 -1
    outer loop
      vertex -45.9647 -3.8637 -1
      vertex -55 -30 -1
      vertex -46.4779 -3.96578 -1
    endloop
  endfacet
  facet normal 0 0 -1
    outer loop
      vertex -46.4779 -3.96578 -1
      vertex -55 -30 -1
      vertex -47 -4 -1
    endloop
  endfacet
  facet normal -0 0 -1
    outer loop
      vertex -47 -4 -1
      vertex -55 -30 -1
      vertex -47.5221 -3.96578 -1
    endloop
  endfacet
  facet normal -0 0 -1
    outer loop
      vertex -50.9658 -0.522104 -1
      vertex -55 -30 -1
      vertex -51 0 -1
    endloop
  endfacet
  facet normal -0 0 -1
    outer loop
      vertex -50.8637 -1.03528 -1
      vertex -55 -30 -1
      vertex -50.9658 -0.522104 -1
    endloop
  endfacet
  facet normal -0 0 -1
    outer loop
      vertex -50.6955 -1.53073 -1
      vertex -55 -30 -1
      vertex -50.8637 -1.03528 -1
    endloop
  endfacet
  facet normal -0 0 -1
    outer loop
      vertex -50.4641 -2 -1
      vertex -55 -30 -1
      vertex -50.6955 -1.53073 -1
    endloop
  endfacet
  facet normal -0 0 -1
    outer loop
      vertex -50.1734 -2.43505 -1
      vertex -55 -30 -1
      vertex -50.4641 -2 -1
    endloop
  endfacet
  facet normal -0 0 -1
    outer loop
      vertex -49.8284 -2.82843 -1
      vertex -55 -30 -1
      vertex -50.1734 -2.43505 -1
    endloop
  endfacet
  facet normal -0 0 -1
    outer loop
      vertex -49.435 -3.17341 -1
      vertex -55 -30 -1
      vertex -49.8284 -2.82843 -1
    endloop
  endfacet
  facet normal -0 0 -1
    outer loop
      vertex -49 -3.4641 -1
      vertex -55 -30 -1
      vertex -49.435 -3.17341 -1
    endloop
  endfacet
  facet normal -0 0 -1
    outer loop
      vertex -48.5307 -3.69552 -1
      vertex -55 -30 -1
      vertex -49 -3.4641 -1
    endloop
  endfacet
  facet normal -0 0 -1
    outer loop
      vertex -48.0353 -3.8637 -1
      vertex -55 -30 -1
      vertex -48.5307 -3.69552 -1
    endloop
  endfacet
  facet normal -0 0 -1
    outer loop
      vertex -47.5221 -3.96578 -1
      vertex -55 -30 -1
      vertex -48.0353 -3.8637 -1
    endloop
  endfacet
  facet normal 0 0 -1
    outer loop
      vertex 50.9658 0.522104 -1
      vertex 55 30 -1
      vertex 51 0 -1
    endloop
  endfacet
  facet normal 0 0 -1
    outer loop
      vertex 50.8637 1.03528 -1
      vertex 55 30 -1
      vertex 50.9658 0.522104 -1
    endloop
  endfacet
  facet normal 0 0 -1
    outer loop
      vertex 50.6955 1.53073 -1
      vertex 55 30 -1
      vertex 50.8637 1.03528 -1
    endloop
  endfacet
  facet normal 0 0 -1
    outer loop
      vertex 50.4641 2 -1
      vertex 55 30 -1
      vertex 50.6955 1.53073 -1
    endloop
  endfacet
  facet normal 0 0 -1
    outer loop
      vertex 50.1734 2.43505 -1
      vertex 55 30 -1
      vertex 50.4641 2 -1
    endloop
  endfacet
  facet normal 0 0 -1
    outer loop
      vertex 49.8284 2.82843 -1
      vertex 55 30 -1
      vertex 50.1734 2.43505 -1
    endloop
  endfacet
  facet normal 0 0 -1
    outer loop
      vertex 49.435 3.17341 -1
      vertex 55 30 -1
      vertex 49.8284 2.82843 -1
    endloop
  endfacet
  facet normal 0 0 -1
    outer loop
      vertex 49 3.4641 -1
      vertex 55 30 -1
      vertex 49.435 3.17341 -1
    endloop
  endfacet
  facet normal 0 0 -1
    outer loop
      vertex 48.5307 3.69552 -1
      vertex 55 30 -1
      vertex 49 3.4641 -1
    endloop
  endfacet
  facet normal 0 0 -1
    outer loop
      vertex 48.0353 3.8637 -1
      vertex 55 30 -1
      vertex 48.5307 3.69552 -1
    endloop
  endfacet
  facet normal 0 0 -1
    outer loop
      vertex 47.5221 3.96578 -1
      vertex 55 30 -1
      vertex 48.0353 3.8637 -1
    endloop
  endfacet
  facet normal 0 0 -1
    outer loop
      vertex 47 4 -1
      vertex 55 30 -1
      vertex 47.5221 3.96578 -1
    endloop
  endfacet
  facet normal 0 0 -1
    outer loop
      vertex 46.4779 3.96578 -1
      vertex 55 30 -1
      vertex 47 4 -1
    endloop
  endfacet
  facet normal 0 0 -1
    outer loop
      vertex 45.9647 3.8637 -1
      vertex 55 30 -1
      vertex 46.4779 3.96578 -1
    endloop
  endfacet
  facet normal 0 0 -1
    outer loop
      vertex 45.4693 3.69552 -1
      vertex 55 30 -1
      vertex 45.9647 3.8637 -1
    endloop
  endfacet
  facet normal 0 0 -1
    outer loop
      vertex 45 3.4641 -1
      vertex 55 30 -1
      vertex 45.4693 3.69552 -1
    endloop
  endfacet
  facet normal 0 0 -1
    outer loop
      vertex 44.565 3.17341 -1
      vertex 55 30 -1
      vertex 45 3.4641 -1
    endloop
  endfacet
  facet normal 0 0 -1
    outer loop
      vertex 44.1716 2.82843 -1
      vertex 55 30 -1
      vertex 44.565 3.17341 -1
    endloop
  endfacet
  facet normal 0 0 -1
    outer loop
      vertex 43.8266 2.43505 -1
      vertex 55 30 -1
      vertex 44.1716 2.82843 -1
    endloop
  endfacet
  facet normal 0 0 -1
    outer loop
      vertex -43.8266 2.43505 -1
      vertex 43.8266 2.43505 -1
      vertex 43.5359 2 -1
    endloop
  endfacet
  facet normal 0 0 -1
    outer loop
      vertex -43.5359 2 -1
      vertex 43.5359 2 -1
      vertex 43.3045 1.53073 -1
    endloop
  endfacet
  facet normal 0 0 -1
    outer loop
      vertex -43 0 -1
      vertex 43.0342 0.522104 -1
      vertex 43 0 -1
    endloop
  endfacet
  facet normal 0 0 -1
    outer loop
      vertex -43.0342 0.522104 -1
      vertex 43.0342 0.522104 -1
      vertex -43 0 -1
    endloop
  endfacet
  facet normal 0 0 -1
    outer loop
      vertex 43.0342 0.522104 -1
      vertex -43.0342 0.522104 -1
      vertex 43.1363 1.03528 -1
    endloop
  endfacet
  facet normal 0 0 -1
    outer loop
      vertex -43.1363 1.03528 -1
      vertex 43.1363 1.03528 -1
      vertex -43.0342 0.522104 -1
    endloop
  endfacet
  facet normal 0 0 -1
    outer loop
      vertex 43.1363 1.03528 -1
      vertex -43.1363 1.03528 -1
      vertex 43.3045 1.53073 -1
    endloop
  endfacet
  facet normal 0 0 -1
    outer loop
      vertex -43.3045 1.53073 -1
      vertex 43.3045 1.53073 -1
      vertex -43.1363 1.03528 -1
    endloop
  endfacet
  facet normal 0 0 -1
    outer loop
      vertex -43.5359 2 -1
      vertex 43.3045 1.53073 -1
      vertex -43.3045 1.53073 -1
    endloop
  endfacet
  facet normal 0 0 -1
    outer loop
      vertex 43.5359 2 -1
      vertex -43.5359 2 -1
      vertex -43.8266 2.43505 -1
    endloop
  endfacet
  facet normal 0 0 -1
    outer loop
      vertex 43.8266 2.43505 -1
      vertex -43.8266 2.43505 -1
      vertex 55 30 -1
    endloop
  endfacet
  facet normal 0 0 -1
    outer loop
      vertex -55 30 -1
      vertex -43.8266 2.43505 -1
      vertex -44.1716 2.82843 -1
    endloop
  endfacet
  facet normal 0 0 -1
    outer loop
      vertex -55 30 -1
      vertex -44.1716 2.82843 -1
      vertex -44.565 3.17341 -1
    endloop
  endfacet
  facet normal 0 0 -1
    outer loop
      vertex -55 30 -1
      vertex -44.565 3.17341 -1
      vertex -45 3.4641 -1
    endloop
  endfacet
  facet normal 0 0 -1
    outer loop
      vertex -55 30 -1
      vertex -45 3.4641 -1
      vertex -45.4693 3.69552 -1
    endloop
  endfacet
  facet normal 0 0 -1
    outer loop
      vertex -55 30 -1
      vertex -45.4693 3.69552 -1
      vertex -45.9647 3.8637 -1
    endloop
  endfacet
  facet normal 0 0 -1
    outer loop
      vertex -55 30 -1
      vertex -45.9647 3.8637 -1
      vertex -46.4779 3.96578 -1
    endloop
  endfacet
  facet normal 0 0 -1
    outer loop
      vertex -55 30 -1
      vertex -46.4779 3.96578 -1
      vertex -47 4 -1
    endloop
  endfacet
  facet normal 0 0 -1
    outer loop
      vertex -55 30 -1
      vertex -47 4 -1
      vertex -47.5221 3.96578 -1
    endloop
  endfacet
  facet normal 0 0 -1
    outer loop
      vertex -55 30 -1
      vertex -47.5221 3.96578 -1
      vertex -48.0353 3.8637 -1
    endloop
  endfacet
  facet normal 0 0 -1
    outer loop
      vertex -55 30 -1
      vertex -51 0 -1
      vertex -55 -30 -1
    endloop
  endfacet
  facet normal 0 0 -1
    outer loop
      vertex -43.8266 2.43505 -1
      vertex -55 30 -1
      vertex 55 30 -1
    endloop
  endfacet
  facet normal 0 0 -1
    outer loop
      vertex -48.5307 3.69552 -1
      vertex -55 30 -1
      vertex -48.0353 3.8637 -1
    endloop
  endfacet
  facet normal 0 0 -1
    outer loop
      vertex -49 3.4641 -1
      vertex -55 30 -1
      vertex -48.5307 3.69552 -1
    endloop
  endfacet
  facet normal 0 0 -1
    outer loop
      vertex -49.435 3.17341 -1
      vertex -55 30 -1
      vertex -49 3.4641 -1
    endloop
  endfacet
  facet normal 0 0 -1
    outer loop
      vertex -49.8284 2.82843 -1
      vertex -55 30 -1
      vertex -49.435 3.17341 -1
    endloop
  endfacet
  facet normal 0 0 -1
    outer loop
      vertex -50.1734 2.43505 -1
      vertex -55 30 -1
      vertex -49.8284 2.82843 -1
    endloop
  endfacet
  facet normal 0 0 -1
    outer loop
      vertex -50.4641 2 -1
      vertex -55 30 -1
      vertex -50.1734 2.43505 -1
    endloop
  endfacet
  facet normal 0 0 -1
    outer loop
      vertex -50.6955 1.53073 -1
      vertex -55 30 -1
      vertex -50.4641 2 -1
    endloop
  endfacet
  facet normal 0 0 -1
    outer loop
      vertex -50.8637 1.03528 -1
      vertex -55 30 -1
      vertex -50.6955 1.53073 -1
    endloop
  endfacet
  facet normal 0 0 -1
    outer loop
      vertex -50.9658 0.522104 -1
      vertex -55 30 -1
      vertex -50.8637 1.03528 -1
    endloop
  endfacet
  facet normal 0 0 -1
    outer loop
      vertex -51 0 -1
      vertex -55 30 -1
      vertex -50.9658 0.522104 -1
    endloop
  endfacet
  facet normal -1 0 0
    outer loop
      vertex -55 -30 -1
      vertex -55 30 1
      vertex -55 30 -1
    endloop
  endfacet
  facet normal -1 -0 0
    outer loop
      vertex -55 30 1
      vertex -55 -30 -1
      vertex -55 -30 1
    endloop
  endfacet
  facet normal 0 1 -0
    outer loop
      vertex 55 30 -1
      vertex -55 30 1
      vertex 55 30 1
    endloop
  endfacet
  facet normal 0 1 0
    outer loop
      vertex -55 30 1
      vertex 55 30 -1
      vertex -55 30 -1
    endloop
  endfacet
  facet normal 0 -1 0
    outer loop
      vertex -55 -30 -1
      vertex 55 -30 1
      vertex -55 -30 1
    endloop
  endfacet
  facet normal 0 -1 -0
    outer loop
      vertex 55 -30 1
      vertex -55 -30 -1
      vertex 55 -30 -1
    endloop
  endfacet
  facet normal -0.0654027 0.997859 0
    outer loop
      vertex -46.4779 -3.96578 -1
      vertex -47 -4 1
      vertex -46.4779 -3.96578 1
    endloop
  endfacet
  facet normal -0.0654027 0.997859 0
    outer loop
      vertex -47 -4 1
      vertex -46.4779 -3.96578 -1
      vertex -47 -4 -1
    endloop
  endfacet
  facet normal -0.980777 -0.195133 0
    outer loop
      vertex -43.0342 0.522104 -1
      vertex -43.1363 1.03528 1
      vertex -43.1363 1.03528 -1
    endloop
  endfacet
  facet normal -0.980777 -0.195133 0
    outer loop
      vertex -43.1363 1.03528 1
      vertex -43.0342 0.522104 -1
      vertex -43.0342 0.522104 1
    endloop
  endfacet
  facet normal -0.997861 -0.0653641 0
    outer loop
      vertex -43 0 -1
      vertex -43.0342 0.522104 1
      vertex -43.0342 0.522104 -1
    endloop
  endfacet
  facet normal -0.997861 -0.0653641 0
    outer loop
      vertex -43.0342 0.522104 1
      vertex -43 0 -1
      vertex -43 0 1
    endloop
  endfacet
  facet normal -0.94692 -0.321469 0
    outer loop
      vertex -43.1363 1.03528 -1
      vertex -43.3045 1.53073 1
      vertex -43.3045 1.53073 -1
    endloop
  endfacet
  facet normal -0.94692 -0.321469 0
    outer loop
      vertex -43.3045 1.53073 1
      vertex -43.1363 1.03528 -1
      vertex -43.1363 1.03528 1
    endloop
  endfacet
  facet normal 0.997861 0.0653641 0
    outer loop
      vertex -50.9658 -0.522104 1
      vertex -51 0 -1
      vertex -51 0 1
    endloop
  endfacet
  facet normal 0.997861 0.0653641 0
    outer loop
      vertex -51 0 -1
      vertex -50.9658 -0.522104 1
      vertex -50.9658 -0.522104 -1
    endloop
  endfacet
  facet normal -0.555613 -0.831441 0
    outer loop
      vertex -45 3.4641 -1
      vertex -44.565 3.17341 1
      vertex -45 3.4641 1
    endloop
  endfacet
  facet normal -0.555613 -0.831441 -0
    outer loop
      vertex -44.565 3.17341 1
      vertex -45 3.4641 -1
      vertex -44.565 3.17341 -1
    endloop
  endfacet
  facet normal -0.980777 0.195133 0
    outer loop
      vertex -43.1363 -1.03528 -1
      vertex -43.0342 -0.522104 1
      vertex -43.0342 -0.522104 -1
    endloop
  endfacet
  facet normal -0.980777 0.195133 0
    outer loop
      vertex -43.0342 -0.522104 1
      vertex -43.1363 -1.03528 -1
      vertex -43.1363 -1.03528 1
    endloop
  endfacet
  facet normal 0.555613 -0.831441 0
    outer loop
      vertex -49.435 3.17341 -1
      vertex -49 3.4641 1
      vertex -49.435 3.17341 1
    endloop
  endfacet
  facet normal 0.555613 -0.831441 0
    outer loop
      vertex -49 3.4641 1
      vertex -49.435 3.17341 -1
      vertex -49 3.4641 -1
    endloop
  endfacet
  facet normal 0.980777 0.195133 0
    outer loop
      vertex -50.8637 -1.03528 1
      vertex -50.9658 -0.522104 -1
      vertex -50.9658 -0.522104 1
    endloop
  endfacet
  facet normal 0.980777 0.195133 0
    outer loop
      vertex -50.9658 -0.522104 -1
      vertex -50.8637 -1.03528 1
      vertex -50.8637 -1.03528 -1
    endloop
  endfacet
  facet normal -0.321464 -0.946922 0
    outer loop
      vertex -45.9647 3.8637 -1
      vertex -45.4693 3.69552 1
      vertex -45.9647 3.8637 1
    endloop
  endfacet
  facet normal -0.321464 -0.946922 -0
    outer loop
      vertex -45.4693 3.69552 1
      vertex -45.9647 3.8637 -1
      vertex -45.4693 3.69552 -1
    endloop
  endfacet
  facet normal -0.94692 0.321469 0
    outer loop
      vertex -43.3045 -1.53073 -1
      vertex -43.1363 -1.03528 1
      vertex -43.1363 -1.03528 -1
    endloop
  endfacet
  facet normal -0.94692 0.321469 0
    outer loop
      vertex -43.1363 -1.03528 1
      vertex -43.3045 -1.53073 -1
      vertex -43.3045 -1.53073 1
    endloop
  endfacet
  facet normal -0.831462 -0.555582 0
    outer loop
      vertex -43.5359 2 -1
      vertex -43.8266 2.43505 1
      vertex -43.8266 2.43505 -1
    endloop
  endfacet
  facet normal -0.831462 -0.555582 0
    outer loop
      vertex -43.8266 2.43505 1
      vertex -43.5359 2 -1
      vertex -43.5359 2 1
    endloop
  endfacet
  facet normal -0.896887 -0.44226 0
    outer loop
      vertex -43.3045 1.53073 -1
      vertex -43.5359 2 1
      vertex -43.5359 2 -1
    endloop
  endfacet
  facet normal -0.896887 -0.44226 0
    outer loop
      vertex -43.5359 2 1
      vertex -43.3045 1.53073 -1
      vertex -43.3045 1.53073 1
    endloop
  endfacet
  facet normal -0.751826 0.659362 0
    outer loop
      vertex -44.1716 -2.82843 -1
      vertex -43.8266 -2.43505 1
      vertex -43.8266 -2.43505 -1
    endloop
  endfacet
  facet normal -0.751826 0.659362 0
    outer loop
      vertex -43.8266 -2.43505 1
      vertex -44.1716 -2.82843 -1
      vertex -44.1716 -2.82843 1
    endloop
  endfacet
  facet normal 0.831462 0.555582 0
    outer loop
      vertex -50.1734 -2.43505 1
      vertex -50.4641 -2 -1
      vertex -50.4641 -2 1
    endloop
  endfacet
  facet normal 0.831462 0.555582 0
    outer loop
      vertex -50.4641 -2 -1
      vertex -50.1734 -2.43505 1
      vertex -50.1734 -2.43505 -1
    endloop
  endfacet
  facet normal 0.442268 -0.896883 0
    outer loop
      vertex -49 3.4641 -1
      vertex -48.5307 3.69552 1
      vertex -49 3.4641 1
    endloop
  endfacet
  facet normal 0.442268 -0.896883 0
    outer loop
      vertex -48.5307 3.69552 1
      vertex -49 3.4641 -1
      vertex -48.5307 3.69552 -1
    endloop
  endfacet
  facet normal -0.751826 -0.659362 0
    outer loop
      vertex -43.8266 2.43505 -1
      vertex -44.1716 2.82843 1
      vertex -44.1716 2.82843 -1
    endloop
  endfacet
  facet normal -0.751826 -0.659362 0
    outer loop
      vertex -44.1716 2.82843 1
      vertex -43.8266 2.43505 -1
      vertex -43.8266 2.43505 1
    endloop
  endfacet
  facet normal 0.896887 0.44226 0
    outer loop
      vertex -50.4641 -2 1
      vertex -50.6955 -1.53073 -1
      vertex -50.6955 -1.53073 1
    endloop
  endfacet
  facet normal 0.896887 0.44226 0
    outer loop
      vertex -50.6955 -1.53073 -1
      vertex -50.4641 -2 1
      vertex -50.4641 -2 -1
    endloop
  endfacet
  facet normal 0.751826 0.659362 0
    outer loop
      vertex -49.8284 -2.82843 1
      vertex -50.1734 -2.43505 -1
      vertex -50.1734 -2.43505 1
    endloop
  endfacet
  facet normal 0.751826 0.659362 0
    outer loop
      vertex -50.1734 -2.43505 -1
      vertex -49.8284 -2.82843 1
      vertex -49.8284 -2.82843 -1
    endloop
  endfacet
  facet normal 0.94692 0.321469 0
    outer loop
      vertex -50.6955 -1.53073 1
      vertex -50.8637 -1.03528 -1
      vertex -50.8637 -1.03528 1
    endloop
  endfacet
  facet normal 0.94692 0.321469 0
    outer loop
      vertex -50.8637 -1.03528 -1
      vertex -50.6955 -1.53073 1
      vertex -50.6955 -1.53073 -1
    endloop
  endfacet
  facet normal -0.195087 0.980786 0
    outer loop
      vertex -45.9647 -3.8637 -1
      vertex -46.4779 -3.96578 1
      vertex -45.9647 -3.8637 1
    endloop
  endfacet
  facet normal -0.195087 0.980786 0
    outer loop
      vertex -46.4779 -3.96578 1
      vertex -45.9647 -3.8637 -1
      vertex -46.4779 -3.96578 -1
    endloop
  endfacet
  facet normal 0.659321 -0.751861 0
    outer loop
      vertex -49.8284 2.82843 -1
      vertex -49.435 3.17341 1
      vertex -49.8284 2.82843 1
    endloop
  endfacet
  facet normal 0.659321 -0.751861 0
    outer loop
      vertex -49.435 3.17341 1
      vertex -49.8284 2.82843 -1
      vertex -49.435 3.17341 -1
    endloop
  endfacet
  facet normal -0.831462 0.555582 0
    outer loop
      vertex -43.8266 -2.43505 -1
      vertex -43.5359 -2 1
      vertex -43.5359 -2 -1
    endloop
  endfacet
  facet normal -0.831462 0.555582 0
    outer loop
      vertex -43.5359 -2 1
      vertex -43.8266 -2.43505 -1
      vertex -43.8266 -2.43505 1
    endloop
  endfacet
  facet normal 0.659321 0.751861 -0
    outer loop
      vertex -49.435 -3.17341 -1
      vertex -49.8284 -2.82843 1
      vertex -49.435 -3.17341 1
    endloop
  endfacet
  facet normal 0.659321 0.751861 0
    outer loop
      vertex -49.8284 -2.82843 1
      vertex -49.435 -3.17341 -1
      vertex -49.8284 -2.82843 -1
    endloop
  endfacet
  facet normal 0.321464 -0.946922 0
    outer loop
      vertex -48.5307 3.69552 -1
      vertex -48.0353 3.8637 1
      vertex -48.5307 3.69552 1
    endloop
  endfacet
  facet normal 0.321464 -0.946922 0
    outer loop
      vertex -48.0353 3.8637 1
      vertex -48.5307 3.69552 -1
      vertex -48.0353 3.8637 -1
    endloop
  endfacet
  facet normal -0.997861 0.0653641 0
    outer loop
      vertex -43.0342 -0.522104 -1
      vertex -43 0 1
      vertex -43 0 -1
    endloop
  endfacet
  facet normal -0.997861 0.0653641 0
    outer loop
      vertex -43 0 1
      vertex -43.0342 -0.522104 -1
      vertex -43.0342 -0.522104 1
    endloop
  endfacet
  facet normal -0.659321 0.751861 0
    outer loop
      vertex -44.1716 -2.82843 -1
      vertex -44.565 -3.17341 1
      vertex -44.1716 -2.82843 1
    endloop
  endfacet
  facet normal -0.659321 0.751861 0
    outer loop
      vertex -44.565 -3.17341 1
      vertex -44.1716 -2.82843 -1
      vertex -44.565 -3.17341 -1
    endloop
  endfacet
  facet normal 0.997861 -0.0653641 0
    outer loop
      vertex -51 0 1
      vertex -50.9658 0.522104 -1
      vertex -50.9658 0.522104 1
    endloop
  endfacet
  facet normal 0.997861 -0.0653641 0
    outer loop
      vertex -50.9658 0.522104 -1
      vertex -51 0 1
      vertex -51 0 -1
    endloop
  endfacet
  facet normal -0.0654027 -0.997859 0
    outer loop
      vertex -47 4 -1
      vertex -46.4779 3.96578 1
      vertex -47 4 1
    endloop
  endfacet
  facet normal -0.0654027 -0.997859 -0
    outer loop
      vertex -46.4779 3.96578 1
      vertex -47 4 -1
      vertex -46.4779 3.96578 -1
    endloop
  endfacet
  facet normal 0.0654027 -0.997859 0
    outer loop
      vertex -47.5221 3.96578 -1
      vertex -47 4 1
      vertex -47.5221 3.96578 1
    endloop
  endfacet
  facet normal 0.0654027 -0.997859 0
    outer loop
      vertex -47 4 1
      vertex -47.5221 3.96578 -1
      vertex -47 4 -1
    endloop
  endfacet
  facet normal -0.442268 0.896883 0
    outer loop
      vertex -45 -3.4641 -1
      vertex -45.4693 -3.69552 1
      vertex -45 -3.4641 1
    endloop
  endfacet
  facet normal -0.442268 0.896883 0
    outer loop
      vertex -45.4693 -3.69552 1
      vertex -45 -3.4641 -1
      vertex -45.4693 -3.69552 -1
    endloop
  endfacet
  facet normal -0.195087 -0.980786 0
    outer loop
      vertex -46.4779 3.96578 -1
      vertex -45.9647 3.8637 1
      vertex -46.4779 3.96578 1
    endloop
  endfacet
  facet normal -0.195087 -0.980786 -0
    outer loop
      vertex -45.9647 3.8637 1
      vertex -46.4779 3.96578 -1
      vertex -45.9647 3.8637 -1
    endloop
  endfacet
  facet normal 0.831462 -0.555582 0
    outer loop
      vertex -50.4641 2 1
      vertex -50.1734 2.43505 -1
      vertex -50.1734 2.43505 1
    endloop
  endfacet
  facet normal 0.831462 -0.555582 0
    outer loop
      vertex -50.1734 2.43505 -1
      vertex -50.4641 2 1
      vertex -50.4641 2 -1
    endloop
  endfacet
  facet normal -0.442268 -0.896883 0
    outer loop
      vertex -45.4693 3.69552 -1
      vertex -45 3.4641 1
      vertex -45.4693 3.69552 1
    endloop
  endfacet
  facet normal -0.442268 -0.896883 -0
    outer loop
      vertex -45 3.4641 1
      vertex -45.4693 3.69552 -1
      vertex -45 3.4641 -1
    endloop
  endfacet
  facet normal -0.896887 0.44226 0
    outer loop
      vertex -43.5359 -2 -1
      vertex -43.3045 -1.53073 1
      vertex -43.3045 -1.53073 -1
    endloop
  endfacet
  facet normal -0.896887 0.44226 0
    outer loop
      vertex -43.3045 -1.53073 1
      vertex -43.5359 -2 -1
      vertex -43.5359 -2 1
    endloop
  endfacet
  facet normal 0.751826 -0.659362 0
    outer loop
      vertex -50.1734 2.43505 1
      vertex -49.8284 2.82843 -1
      vertex -49.8284 2.82843 1
    endloop
  endfacet
  facet normal 0.751826 -0.659362 0
    outer loop
      vertex -49.8284 2.82843 -1
      vertex -50.1734 2.43505 1
      vertex -50.1734 2.43505 -1
    endloop
  endfacet
  facet normal 0.896887 -0.44226 0
    outer loop
      vertex -50.6955 1.53073 1
      vertex -50.4641 2 -1
      vertex -50.4641 2 1
    endloop
  endfacet
  facet normal 0.896887 -0.44226 0
    outer loop
      vertex -50.4641 2 -1
      vertex -50.6955 1.53073 1
      vertex -50.6955 1.53073 -1
    endloop
  endfacet
  facet normal 0.321464 0.946922 -0
    outer loop
      vertex -48.0353 -3.8637 -1
      vertex -48.5307 -3.69552 1
      vertex -48.0353 -3.8637 1
    endloop
  endfacet
  facet normal 0.321464 0.946922 0
    outer loop
      vertex -48.5307 -3.69552 1
      vertex -48.0353 -3.8637 -1
      vertex -48.5307 -3.69552 -1
    endloop
  endfacet
  facet normal -0.659321 -0.751861 0
    outer loop
      vertex -44.565 3.17341 -1
      vertex -44.1716 2.82843 1
      vertex -44.565 3.17341 1
    endloop
  endfacet
  facet normal -0.659321 -0.751861 -0
    outer loop
      vertex -44.1716 2.82843 1
      vertex -44.565 3.17341 -1
      vertex -44.1716 2.82843 -1
    endloop
  endfacet
  facet normal 0.195087 0.980786 -0
    outer loop
      vertex -47.5221 -3.96578 -1
      vertex -48.0353 -3.8637 1
      vertex -47.5221 -3.96578 1
    endloop
  endfacet
  facet normal 0.195087 0.980786 0
    outer loop
      vertex -48.0353 -3.8637 1
      vertex -47.5221 -3.96578 -1
      vertex -48.0353 -3.8637 -1
    endloop
  endfacet
  facet normal 0.980777 -0.195133 0
    outer loop
      vertex -50.9658 0.522104 1
      vertex -50.8637 1.03528 -1
      vertex -50.8637 1.03528 1
    endloop
  endfacet
  facet normal 0.980777 -0.195133 0
    outer loop
      vertex -50.8637 1.03528 -1
      vertex -50.9658 0.522104 1
      vertex -50.9658 0.522104 -1
    endloop
  endfacet
  facet normal 0.442268 0.896883 -0
    outer loop
      vertex -48.5307 -3.69552 -1
      vertex -49 -3.4641 1
      vertex -48.5307 -3.69552 1
    endloop
  endfacet
  facet normal 0.442268 0.896883 0
    outer loop
      vertex -49 -3.4641 1
      vertex -48.5307 -3.69552 -1
      vertex -49 -3.4641 -1
    endloop
  endfacet
  facet normal 0.94692 -0.321469 0
    outer loop
      vertex -50.8637 1.03528 1
      vertex -50.6955 1.53073 -1
      vertex -50.6955 1.53073 1
    endloop
  endfacet
  facet normal 0.94692 -0.321469 0
    outer loop
      vertex -50.6955 1.53073 -1
      vertex -50.8637 1.03528 1
      vertex -50.8637 1.03528 -1
    endloop
  endfacet
  facet normal 0.195087 -0.980786 0
    outer loop
      vertex -48.0353 3.8637 -1
      vertex -47.5221 3.96578 1
      vertex -48.0353 3.8637 1
    endloop
  endfacet
  facet normal 0.195087 -0.980786 0
    outer loop
      vertex -47.5221 3.96578 1
      vertex -48.0353 3.8637 -1
      vertex -47.5221 3.96578 -1
    endloop
  endfacet
  facet normal 0.0654027 0.997859 -0
    outer loop
      vertex -47 -4 -1
      vertex -47.5221 -3.96578 1
      vertex -47 -4 1
    endloop
  endfacet
  facet normal 0.0654027 0.997859 0
    outer loop
      vertex -47.5221 -3.96578 1
      vertex -47 -4 -1
      vertex -47.5221 -3.96578 -1
    endloop
  endfacet
  facet normal -0.321464 0.946922 0
    outer loop
      vertex -45.4693 -3.69552 -1
      vertex -45.9647 -3.8637 1
      vertex -45.4693 -3.69552 1
    endloop
  endfacet
  facet normal -0.321464 0.946922 0
    outer loop
      vertex -45.9647 -3.8637 1
      vertex -45.4693 -3.69552 -1
      vertex -45.9647 -3.8637 -1
    endloop
  endfacet
  facet normal -0.555613 0.831441 0
    outer loop
      vertex -44.565 -3.17341 -1
      vertex -45 -3.4641 1
      vertex -44.565 -3.17341 1
    endloop
  endfacet
  facet normal -0.555613 0.831441 0
    outer loop
      vertex -45 -3.4641 1
      vertex -44.565 -3.17341 -1
      vertex -45 -3.4641 -1
    endloop
  endfacet
  facet normal 0.555613 0.831441 -0
    outer loop
      vertex -49 -3.4641 -1
      vertex -49.435 -3.17341 1
      vertex -49 -3.4641 1
    endloop
  endfacet
  facet normal 0.555613 0.831441 0
    outer loop
      vertex -49.435 -3.17341 1
      vertex -49 -3.4641 -1
      vertex -49.435 -3.17341 -1
    endloop
  endfacet
  facet normal 0.980777 -0.195133 0
    outer loop
      vertex 43.0342 0.522104 1
      vertex 43.1363 1.03528 -1
      vertex 43.1363 1.03528 1
    endloop
  endfacet
  facet normal 0.980777 -0.195133 0
    outer loop
      vertex 43.1363 1.03528 -1
      vertex 43.0342 0.522104 1
      vertex 43.0342 0.522104 -1
    endloop
  endfacet
  facet normal -0.831462 -0.555582 0
    outer loop
      vertex 50.4641 2 -1
      vertex 50.1734 2.43505 1
      vertex 50.1734 2.43505 -1
    endloop
  endfacet
  facet normal -0.831462 -0.555582 0
    outer loop
      vertex 50.1734 2.43505 1
      vertex 50.4641 2 -1
      vertex 50.4641 2 1
    endloop
  endfacet
  facet normal 0.94692 -0.321469 0
    outer loop
      vertex 43.1363 1.03528 1
      vertex 43.3045 1.53073 -1
      vertex 43.3045 1.53073 1
    endloop
  endfacet
  facet normal 0.94692 -0.321469 0
    outer loop
      vertex 43.3045 1.53073 -1
      vertex 43.1363 1.03528 1
      vertex 43.1363 1.03528 -1
    endloop
  endfacet
  facet normal -0.195087 0.980786 0
    outer loop
      vertex 48.0353 -3.8637 -1
      vertex 47.5221 -3.96578 1
      vertex 48.0353 -3.8637 1
    endloop
  endfacet
  facet normal -0.195087 0.980786 0
    outer loop
      vertex 47.5221 -3.96578 1
      vertex 48.0353 -3.8637 -1
      vertex 47.5221 -3.96578 -1
    endloop
  endfacet
  facet normal -0.659321 -0.751861 0
    outer loop
      vertex 49.435 3.17341 -1
      vertex 49.8284 2.82843 1
      vertex 49.435 3.17341 1
    endloop
  endfacet
  facet normal -0.659321 -0.751861 -0
    outer loop
      vertex 49.8284 2.82843 1
      vertex 49.435 3.17341 -1
      vertex 49.8284 2.82843 -1
    endloop
  endfacet
  facet normal -0.0654027 -0.997859 0
    outer loop
      vertex 47 4 -1
      vertex 47.5221 3.96578 1
      vertex 47 4 1
    endloop
  endfacet
  facet normal -0.0654027 -0.997859 -0
    outer loop
      vertex 47.5221 3.96578 1
      vertex 47 4 -1
      vertex 47.5221 3.96578 -1
    endloop
  endfacet
  facet normal -0.896887 -0.44226 0
    outer loop
      vertex 50.6955 1.53073 -1
      vertex 50.4641 2 1
      vertex 50.4641 2 -1
    endloop
  endfacet
  facet normal -0.896887 -0.44226 0
    outer loop
      vertex 50.4641 2 1
      vertex 50.6955 1.53073 -1
      vertex 50.6955 1.53073 1
    endloop
  endfacet
  facet normal 0.321464 0.946922 -0
    outer loop
      vertex 45.9647 -3.8637 -1
      vertex 45.4693 -3.69552 1
      vertex 45.9647 -3.8637 1
    endloop
  endfacet
  facet normal 0.321464 0.946922 0
    outer loop
      vertex 45.4693 -3.69552 1
      vertex 45.9647 -3.8637 -1
      vertex 45.4693 -3.69552 -1
    endloop
  endfacet
  facet normal 0.442268 0.896883 -0
    outer loop
      vertex 45.4693 -3.69552 -1
      vertex 45 -3.4641 1
      vertex 45.4693 -3.69552 1
    endloop
  endfacet
  facet normal 0.442268 0.896883 0
    outer loop
      vertex 45 -3.4641 1
      vertex 45.4693 -3.69552 -1
      vertex 45 -3.4641 -1
    endloop
  endfacet
  facet normal -0.997861 -0.0653641 0
    outer loop
      vertex 51 0 -1
      vertex 50.9658 0.522104 1
      vertex 50.9658 0.522104 -1
    endloop
  endfacet
  facet normal -0.997861 -0.0653641 0
    outer loop
      vertex 50.9658 0.522104 1
      vertex 51 0 -1
      vertex 51 0 1
    endloop
  endfacet
  facet normal 0.831462 -0.555582 0
    outer loop
      vertex 43.5359 2 1
      vertex 43.8266 2.43505 -1
      vertex 43.8266 2.43505 1
    endloop
  endfacet
  facet normal 0.831462 -0.555582 0
    outer loop
      vertex 43.8266 2.43505 -1
      vertex 43.5359 2 1
      vertex 43.5359 2 -1
    endloop
  endfacet
  facet normal -0.442268 -0.896883 0
    outer loop
      vertex 48.5307 3.69552 -1
      vertex 49 3.4641 1
      vertex 48.5307 3.69552 1
    endloop
  endfacet
  facet normal -0.442268 -0.896883 -0
    outer loop
      vertex 49 3.4641 1
      vertex 48.5307 3.69552 -1
      vertex 49 3.4641 -1
    endloop
  endfacet
  facet normal 0.896887 0.44226 0
    outer loop
      vertex 43.5359 -2 1
      vertex 43.3045 -1.53073 -1
      vertex 43.3045 -1.53073 1
    endloop
  endfacet
  facet normal 0.896887 0.44226 0
    outer loop
      vertex 43.3045 -1.53073 -1
      vertex 43.5359 -2 1
      vertex 43.5359 -2 -1
    endloop
  endfacet
  facet normal -0.896887 0.44226 0
    outer loop
      vertex 50.4641 -2 -1
      vertex 50.6955 -1.53073 1
      vertex 50.6955 -1.53073 -1
    endloop
  endfacet
  facet normal -0.896887 0.44226 0
    outer loop
      vertex 50.6955 -1.53073 1
      vertex 50.4641 -2 -1
      vertex 50.4641 -2 1
    endloop
  endfacet
  facet normal -0.831462 0.555582 0
    outer loop
      vertex 50.1734 -2.43505 -1
      vertex 50.4641 -2 1
      vertex 50.4641 -2 -1
    endloop
  endfacet
  facet normal -0.831462 0.555582 0
    outer loop
      vertex 50.4641 -2 1
      vertex 50.1734 -2.43505 -1
      vertex 50.1734 -2.43505 1
    endloop
  endfacet
  facet normal 0.555613 -0.831441 0
    outer loop
      vertex 44.565 3.17341 -1
      vertex 45 3.4641 1
      vertex 44.565 3.17341 1
    endloop
  endfacet
  facet normal 0.555613 -0.831441 0
    outer loop
      vertex 45 3.4641 1
      vertex 44.565 3.17341 -1
      vertex 45 3.4641 -1
    endloop
  endfacet
  facet normal 0.94692 0.321469 0
    outer loop
      vertex 43.3045 -1.53073 1
      vertex 43.1363 -1.03528 -1
      vertex 43.1363 -1.03528 1
    endloop
  endfacet
  facet normal 0.94692 0.321469 0
    outer loop
      vertex 43.1363 -1.03528 -1
      vertex 43.3045 -1.53073 1
      vertex 43.3045 -1.53073 -1
    endloop
  endfacet
  facet normal -0.321464 0.946922 0
    outer loop
      vertex 48.5307 -3.69552 -1
      vertex 48.0353 -3.8637 1
      vertex 48.5307 -3.69552 1
    endloop
  endfacet
  facet normal -0.321464 0.946922 0
    outer loop
      vertex 48.0353 -3.8637 1
      vertex 48.5307 -3.69552 -1
      vertex 48.0353 -3.8637 -1
    endloop
  endfacet
  facet normal -0.751826 -0.659362 0
    outer loop
      vertex 50.1734 2.43505 -1
      vertex 49.8284 2.82843 1
      vertex 49.8284 2.82843 -1
    endloop
  endfacet
  facet normal -0.751826 -0.659362 0
    outer loop
      vertex 49.8284 2.82843 1
      vertex 50.1734 2.43505 -1
      vertex 50.1734 2.43505 1
    endloop
  endfacet
  facet normal 0.831462 0.555582 0
    outer loop
      vertex 43.8266 -2.43505 1
      vertex 43.5359 -2 -1
      vertex 43.5359 -2 1
    endloop
  endfacet
  facet normal 0.831462 0.555582 0
    outer loop
      vertex 43.5359 -2 -1
      vertex 43.8266 -2.43505 1
      vertex 43.8266 -2.43505 -1
    endloop
  endfacet
  facet normal -0.94692 -0.321469 0
    outer loop
      vertex 50.8637 1.03528 -1
      vertex 50.6955 1.53073 1
      vertex 50.6955 1.53073 -1
    endloop
  endfacet
  facet normal -0.94692 -0.321469 0
    outer loop
      vertex 50.6955 1.53073 1
      vertex 50.8637 1.03528 -1
      vertex 50.8637 1.03528 1
    endloop
  endfacet
  facet normal 0.751826 -0.659362 0
    outer loop
      vertex 43.8266 2.43505 1
      vertex 44.1716 2.82843 -1
      vertex 44.1716 2.82843 1
    endloop
  endfacet
  facet normal 0.751826 -0.659362 0
    outer loop
      vertex 44.1716 2.82843 -1
      vertex 43.8266 2.43505 1
      vertex 43.8266 2.43505 -1
    endloop
  endfacet
  facet normal 0.195087 0.980786 -0
    outer loop
      vertex 46.4779 -3.96578 -1
      vertex 45.9647 -3.8637 1
      vertex 46.4779 -3.96578 1
    endloop
  endfacet
  facet normal 0.195087 0.980786 0
    outer loop
      vertex 45.9647 -3.8637 1
      vertex 46.4779 -3.96578 -1
      vertex 45.9647 -3.8637 -1
    endloop
  endfacet
  facet normal -0.555613 -0.831441 0
    outer loop
      vertex 49 3.4641 -1
      vertex 49.435 3.17341 1
      vertex 49 3.4641 1
    endloop
  endfacet
  facet normal -0.555613 -0.831441 -0
    outer loop
      vertex 49.435 3.17341 1
      vertex 49 3.4641 -1
      vertex 49.435 3.17341 -1
    endloop
  endfacet
  facet normal -0.997861 0.0653641 0
    outer loop
      vertex 50.9658 -0.522104 -1
      vertex 51 0 1
      vertex 51 0 -1
    endloop
  endfacet
  facet normal -0.997861 0.0653641 0
    outer loop
      vertex 51 0 1
      vertex 50.9658 -0.522104 -1
      vertex 50.9658 -0.522104 1
    endloop
  endfacet
  facet normal -0.980777 -0.195133 0
    outer loop
      vertex 50.9658 0.522104 -1
      vertex 50.8637 1.03528 1
      vertex 50.8637 1.03528 -1
    endloop
  endfacet
  facet normal -0.980777 -0.195133 0
    outer loop
      vertex 50.8637 1.03528 1
      vertex 50.9658 0.522104 -1
      vertex 50.9658 0.522104 1
    endloop
  endfacet
  facet normal 0.659321 0.751861 -0
    outer loop
      vertex 44.565 -3.17341 -1
      vertex 44.1716 -2.82843 1
      vertex 44.565 -3.17341 1
    endloop
  endfacet
  facet normal 0.659321 0.751861 0
    outer loop
      vertex 44.1716 -2.82843 1
      vertex 44.565 -3.17341 -1
      vertex 44.1716 -2.82843 -1
    endloop
  endfacet
  facet normal 0.195087 -0.980786 0
    outer loop
      vertex 45.9647 3.8637 -1
      vertex 46.4779 3.96578 1
      vertex 45.9647 3.8637 1
    endloop
  endfacet
  facet normal 0.195087 -0.980786 0
    outer loop
      vertex 46.4779 3.96578 1
      vertex 45.9647 3.8637 -1
      vertex 46.4779 3.96578 -1
    endloop
  endfacet
  facet normal -0.321464 -0.946922 0
    outer loop
      vertex 48.0353 3.8637 -1
      vertex 48.5307 3.69552 1
      vertex 48.0353 3.8637 1
    endloop
  endfacet
  facet normal -0.321464 -0.946922 -0
    outer loop
      vertex 48.5307 3.69552 1
      vertex 48.0353 3.8637 -1
      vertex 48.5307 3.69552 -1
    endloop
  endfacet
  facet normal 0.0654027 -0.997859 0
    outer loop
      vertex 46.4779 3.96578 -1
      vertex 47 4 1
      vertex 46.4779 3.96578 1
    endloop
  endfacet
  facet normal 0.0654027 -0.997859 0
    outer loop
      vertex 47 4 1
      vertex 46.4779 3.96578 -1
      vertex 47 4 -1
    endloop
  endfacet
  facet normal -0.555613 0.831441 0
    outer loop
      vertex 49.435 -3.17341 -1
      vertex 49 -3.4641 1
      vertex 49.435 -3.17341 1
    endloop
  endfacet
  facet normal -0.555613 0.831441 0
    outer loop
      vertex 49 -3.4641 1
      vertex 49.435 -3.17341 -1
      vertex 49 -3.4641 -1
    endloop
  endfacet
  facet normal -0.195087 -0.980786 0
    outer loop
      vertex 47.5221 3.96578 -1
      vertex 48.0353 3.8637 1
      vertex 47.5221 3.96578 1
    endloop
  endfacet
  facet normal -0.195087 -0.980786 -0
    outer loop
      vertex 48.0353 3.8637 1
      vertex 47.5221 3.96578 -1
      vertex 48.0353 3.8637 -1
    endloop
  endfacet
  facet normal -0.442268 0.896883 0
    outer loop
      vertex 49 -3.4641 -1
      vertex 48.5307 -3.69552 1
      vertex 49 -3.4641 1
    endloop
  endfacet
  facet normal -0.442268 0.896883 0
    outer loop
      vertex 48.5307 -3.69552 1
      vertex 49 -3.4641 -1
      vertex 48.5307 -3.69552 -1
    endloop
  endfacet
  facet normal 0.442268 -0.896883 0
    outer loop
      vertex 45 3.4641 -1
      vertex 45.4693 3.69552 1
      vertex 45 3.4641 1
    endloop
  endfacet
  facet normal 0.442268 -0.896883 0
    outer loop
      vertex 45.4693 3.69552 1
      vertex 45 3.4641 -1
      vertex 45.4693 3.69552 -1
    endloop
  endfacet
  facet normal 0.751826 0.659362 0
    outer loop
      vertex 44.1716 -2.82843 1
      vertex 43.8266 -2.43505 -1
      vertex 43.8266 -2.43505 1
    endloop
  endfacet
  facet normal 0.751826 0.659362 0
    outer loop
      vertex 43.8266 -2.43505 -1
      vertex 44.1716 -2.82843 1
      vertex 44.1716 -2.82843 -1
    endloop
  endfacet
  facet normal 0.997861 0.0653641 0
    outer loop
      vertex 43.0342 -0.522104 1
      vertex 43 0 -1
      vertex 43 0 1
    endloop
  endfacet
  facet normal 0.997861 0.0653641 0
    outer loop
      vertex 43 0 -1
      vertex 43.0342 -0.522104 1
      vertex 43.0342 -0.522104 -1
    endloop
  endfacet
  facet normal -0.980777 0.195133 0
    outer loop
      vertex 50.8637 -1.03528 -1
      vertex 50.9658 -0.522104 1
      vertex 50.9658 -0.522104 -1
    endloop
  endfacet
  facet normal -0.980777 0.195133 0
    outer loop
      vertex 50.9658 -0.522104 1
      vertex 50.8637 -1.03528 -1
      vertex 50.8637 -1.03528 1
    endloop
  endfacet
  facet normal 0.321464 -0.946922 0
    outer loop
      vertex 45.4693 3.69552 -1
      vertex 45.9647 3.8637 1
      vertex 45.4693 3.69552 1
    endloop
  endfacet
  facet normal 0.321464 -0.946922 0
    outer loop
      vertex 45.9647 3.8637 1
      vertex 45.4693 3.69552 -1
      vertex 45.9647 3.8637 -1
    endloop
  endfacet
  facet normal -0.751826 0.659362 0
    outer loop
      vertex 49.8284 -2.82843 -1
      vertex 50.1734 -2.43505 1
      vertex 50.1734 -2.43505 -1
    endloop
  endfacet
  facet normal -0.751826 0.659362 0
    outer loop
      vertex 50.1734 -2.43505 1
      vertex 49.8284 -2.82843 -1
      vertex 49.8284 -2.82843 1
    endloop
  endfacet
  facet normal -0.0654027 0.997859 0
    outer loop
      vertex 47.5221 -3.96578 -1
      vertex 47 -4 1
      vertex 47.5221 -3.96578 1
    endloop
  endfacet
  facet normal -0.0654027 0.997859 0
    outer loop
      vertex 47 -4 1
      vertex 47.5221 -3.96578 -1
      vertex 47 -4 -1
    endloop
  endfacet
  facet normal 0.659321 -0.751861 0
    outer loop
      vertex 44.1716 2.82843 -1
      vertex 44.565 3.17341 1
      vertex 44.1716 2.82843 1
    endloop
  endfacet
  facet normal 0.659321 -0.751861 0
    outer loop
      vertex 44.565 3.17341 1
      vertex 44.1716 2.82843 -1
      vertex 44.565 3.17341 -1
    endloop
  endfacet
  facet normal 0.997861 -0.0653641 0
    outer loop
      vertex 43 0 1
      vertex 43.0342 0.522104 -1
      vertex 43.0342 0.522104 1
    endloop
  endfacet
  facet normal 0.997861 -0.0653641 0
    outer loop
      vertex 43.0342 0.522104 -1
      vertex 43 0 1
      vertex 43 0 -1
    endloop
  endfacet
  facet normal -0.94692 0.321469 0
    outer loop
      vertex 50.6955 -1.53073 -1
      vertex 50.8637 -1.03528 1
      vertex 50.8637 -1.03528 -1
    endloop
  endfacet
  facet normal -0.94692 0.321469 0
    outer loop
      vertex 50.8637 -1.03528 1
      vertex 50.6955 -1.53073 -1
      vertex 50.6955 -1.53073 1
    endloop
  endfacet
  facet normal 0.0654027 0.997859 -0
    outer loop
      vertex 47 -4 -1
      vertex 46.4779 -3.96578 1
      vertex 47 -4 1
    endloop
  endfacet
  facet normal 0.0654027 0.997859 0
    outer loop
      vertex 46.4779 -3.96578 1
      vertex 47 -4 -1
      vertex 46.4779 -3.96578 -1
    endloop
  endfacet
  facet normal 0.980777 0.195133 0
    outer loop
      vertex 43.1363 -1.03528 1
      vertex 43.0342 -0.522104 -1
      vertex 43.0342 -0.522104 1
    endloop
  endfacet
  facet normal 0.980777 0.195133 0
    outer loop
      vertex 43.0342 -0.522104 -1
      vertex 43.1363 -1.03528 1
      vertex 43.1363 -1.03528 -1
    endloop
  endfacet
  facet normal -0.659321 0.751861 0
    outer loop
      vertex 49.8284 -2.82843 -1
      vertex 49.435 -3.17341 1
      vertex 49.8284 -2.82843 1
    endloop
  endfacet
  facet normal -0.659321 0.751861 0
    outer loop
      vertex 49.435 -3.17341 1
      vertex 49.8284 -2.82843 -1
      vertex 49.435 -3.17341 -1
    endloop
  endfacet
  facet normal 0.896887 -0.44226 0
    outer loop
      vertex 43.3045 1.53073 1
      vertex 43.5359 2 -1
      vertex 43.5359 2 1
    endloop
  endfacet
  facet normal 0.896887 -0.44226 0
    outer loop
      vertex 43.5359 2 -1
      vertex 43.3045 1.53073 1
      vertex 43.3045 1.53073 -1
    endloop
  endfacet
  facet normal 0.555613 0.831441 -0
    outer loop
      vertex 45 -3.4641 -1
      vertex 44.565 -3.17341 1
      vertex 45 -3.4641 1
    endloop
  endfacet
  facet normal 0.555613 0.831441 0
    outer loop
      vertex 44.565 -3.17341 1
      vertex 45 -3.4641 -1
      vertex 44.565 -3.17341 -1
    endloop
  endfacet
endsolid OpenSCAD_Model
