solid OpenSCAD_Model
  facet normal -0 0 1
    outer loop
      vertex -76.2 12.7 1.5875
      vertex 76.2 -12.7 1.5875
      vertex 76.2 12.7 1.5875
    endloop
  endfacet
  facet normal 0 0 1
    outer loop
      vertex 76.2 -12.7 1.5875
      vertex -76.2 12.7 1.5875
      vertex -76.2 -12.7 1.5875
    endloop
  endfacet
  facet normal 0 0 -1
    outer loop
      vertex -76.2 -12.7 -1.5875
      vertex 76.2 12.7 -1.5875
      vertex 76.2 -12.7 -1.5875
    endloop
  endfacet
  facet normal -0 0 -1
    outer loop
      vertex 76.2 12.7 -1.5875
      vertex -76.2 -12.7 -1.5875
      vertex -76.2 12.7 -1.5875
    endloop
  endfacet
  facet normal 0 -1 0
    outer loop
      vertex -76.2 -12.7 -1.5875
      vertex 76.2 -12.7 1.5875
      vertex -76.2 -12.7 1.5875
    endloop
  endfacet
  facet normal 0 -1 -0
    outer loop
      vertex 76.2 -12.7 1.5875
      vertex -76.2 -12.7 -1.5875
      vertex 76.2 -12.7 -1.5875
    endloop
  endfacet
  facet normal 1 -0 0
    outer loop
      vertex 76.2 -12.7 1.5875
      vertex 76.2 12.7 -1.5875
      vertex 76.2 12.7 1.5875
    endloop
  endfacet
  facet normal 1 0 0
    outer loop
      vertex 76.2 12.7 -1.5875
      vertex 76.2 -12.7 1.5875
      vertex 76.2 -12.7 -1.5875
    endloop
  endfacet
  facet normal 0 1 -0
    outer loop
      vertex 76.2 12.7 -1.5875
      vertex -76.2 12.7 1.5875
      vertex 76.2 12.7 1.5875
    endloop
  endfacet
  facet normal 0 1 0
    outer loop
      vertex -76.2 12.7 1.5875
      vertex 76.2 12.7 -1.5875
      vertex -76.2 12.7 -1.5875
    endloop
  endfacet
  facet normal -1 0 0
    outer loop
      vertex -76.2 -12.7 -1.5875
      vertex -76.2 12.7 1.5875
      vertex -76.2 12.7 -1.5875
    endloop
  endfacet
  facet normal -1 -0 0
    outer loop
      vertex -76.2 12.7 1.5875
      vertex -76.2 -12.7 -1.5875
      vertex -76.2 -12.7 1.5875
    endloop
  endfacet
endsolid OpenSCAD_Model
