solid OpenSCAD_Model
  facet normal 1 -0 0
    outer loop
      vertex 55 -85 1
      vertex 55 85 -1
      vertex 55 85 1
    endloop
  endfacet
  facet normal 1 0 0
    outer loop
      vertex 55 85 -1
      vertex 55 -85 1
      vertex 55 -85 -1
    endloop
  endfacet
  facet normal -0 0 1
    outer loop
      vertex -21.3912 63.2925 1
      vertex 43.2066 0.608761 1
      vertex -21.2929 63.3788 1
    endloop
  endfacet
  facet normal 0 0 1
    outer loop
      vertex 43 0 1
      vertex -21.0086 -63.9554 1
      vertex -21 -64.0859 1
    endloop
  endfacet
  facet normal 0 0 1
    outer loop
      vertex 43.2066 0.608761 1
      vertex -21.3912 63.2925 1
      vertex 43.134 0.5 1
    endloop
  endfacet
  facet normal 0 0 1
    outer loop
      vertex 43 0 1
      vertex -21.0341 -63.8271 1
      vertex -21.0086 -63.9554 1
    endloop
  endfacet
  facet normal -0 0 1
    outer loop
      vertex -21.5 63.2199 1
      vertex 43.134 0.5 1
      vertex -21.3912 63.2925 1
    endloop
  endfacet
  facet normal 0 0 1
    outer loop
      vertex 43 0 1
      vertex -21.0761 -63.7032 1
      vertex -21.0341 -63.8271 1
    endloop
  endfacet
  facet normal 0 0 1
    outer loop
      vertex 43.134 0.5 1
      vertex -21.5 63.2199 1
      vertex 43.0761 0.382683 1
    endloop
  endfacet
  facet normal 0 0 1
    outer loop
      vertex 43 0 1
      vertex -21.134 -63.5859 1
      vertex -21.0761 -63.7032 1
    endloop
  endfacet
  facet normal -0 0 1
    outer loop
      vertex -21.6173 63.162 1
      vertex 43.0761 0.382683 1
      vertex -21.5 63.2199 1
    endloop
  endfacet
  facet normal 0 0 1
    outer loop
      vertex 43 0 1
      vertex -21.2066 -63.4771 1
      vertex -21.134 -63.5859 1
    endloop
  endfacet
  facet normal 0 0 1
    outer loop
      vertex 43.0761 0.382683 1
      vertex -21.6173 63.162 1
      vertex 43.0341 0.258819 1
    endloop
  endfacet
  facet normal 0 0 1
    outer loop
      vertex 43 0 1
      vertex -21.2929 -63.3788 1
      vertex -21.2066 -63.4771 1
    endloop
  endfacet
  facet normal -0 0 1
    outer loop
      vertex -21.7412 63.12 1
      vertex 43.0341 0.258819 1
      vertex -21.6173 63.162 1
    endloop
  endfacet
  facet normal 0 0 1
    outer loop
      vertex 43 0 1
      vertex -21.3912 -63.2925 1
      vertex -21.2929 -63.3788 1
    endloop
  endfacet
  facet normal 0 0 1
    outer loop
      vertex 43.0341 0.258819 1
      vertex -21.7412 63.12 1
      vertex 43.0086 0.130526 1
    endloop
  endfacet
  facet normal 0 0 1
    outer loop
      vertex 43 0 1
      vertex -21.5 -63.2199 1
      vertex -21.3912 -63.2925 1
    endloop
  endfacet
  facet normal -0 0 1
    outer loop
      vertex -21.8695 63.0944 1
      vertex 43.0086 0.130526 1
      vertex -21.7412 63.12 1
    endloop
  endfacet
  facet normal 0 0 1
    outer loop
      vertex 43 0 1
      vertex -21.6173 -63.162 1
      vertex -21.5 -63.2199 1
    endloop
  endfacet
  facet normal 0 0 1
    outer loop
      vertex 43.0086 0.130526 1
      vertex -21.8695 63.0944 1
      vertex 43 0 1
    endloop
  endfacet
  facet normal 0 0 1
    outer loop
      vertex 43 0 1
      vertex -21.7412 -63.12 1
      vertex -21.6173 -63.162 1
    endloop
  endfacet
  facet normal -0 0 1
    outer loop
      vertex -22 63.0859 1
      vertex 43 0 1
      vertex -21.8695 63.0944 1
    endloop
  endfacet
  facet normal 0 0 1
    outer loop
      vertex 43 0 1
      vertex -21.8695 -63.0944 1
      vertex -21.7412 -63.12 1
    endloop
  endfacet
  facet normal 0 0 1
    outer loop
      vertex -22 -63.0859 1
      vertex 43 0 1
      vertex -22 63.0859 1
    endloop
  endfacet
  facet normal 0 0 1
    outer loop
      vertex 43 0 1
      vertex -22 -63.0859 1
      vertex -21.8695 -63.0944 1
    endloop
  endfacet
  facet normal 0 0 1
    outer loop
      vertex -22.1305 63.0944 1
      vertex -22 -63.0859 1
      vertex -22 63.0859 1
    endloop
  endfacet
  facet normal 0 0 1
    outer loop
      vertex -22.1305 63.0944 1
      vertex -22.1305 -63.0944 1
      vertex -22 -63.0859 1
    endloop
  endfacet
  facet normal 0 0 1
    outer loop
      vertex -22.2588 63.12 1
      vertex -22.1305 -63.0944 1
      vertex -22.1305 63.0944 1
    endloop
  endfacet
  facet normal 0 0 1
    outer loop
      vertex -22.2588 63.12 1
      vertex -22.2588 -63.12 1
      vertex -22.1305 -63.0944 1
    endloop
  endfacet
  facet normal 0 0 1
    outer loop
      vertex -22.3827 63.162 1
      vertex -22.2588 -63.12 1
      vertex -22.2588 63.12 1
    endloop
  endfacet
  facet normal 0 0 1
    outer loop
      vertex -22.3827 63.162 1
      vertex -22.3827 -63.162 1
      vertex -22.2588 -63.12 1
    endloop
  endfacet
  facet normal 0 0 1
    outer loop
      vertex -22.5 63.2199 1
      vertex -22.3827 -63.162 1
      vertex -22.3827 63.162 1
    endloop
  endfacet
  facet normal 0 0 1
    outer loop
      vertex -22.5 63.2199 1
      vertex -22.5 -63.2199 1
      vertex -22.3827 -63.162 1
    endloop
  endfacet
  facet normal 0 0 1
    outer loop
      vertex -22.6088 63.2925 1
      vertex -22.5 -63.2199 1
      vertex -22.5 63.2199 1
    endloop
  endfacet
  facet normal 0 0 1
    outer loop
      vertex -22.6088 63.2925 1
      vertex -22.6088 -63.2925 1
      vertex -22.5 -63.2199 1
    endloop
  endfacet
  facet normal 0 0 1
    outer loop
      vertex -22.7071 63.3788 1
      vertex -22.6088 -63.2925 1
      vertex -22.6088 63.2925 1
    endloop
  endfacet
  facet normal 0 0 1
    outer loop
      vertex -22.7071 63.3788 1
      vertex -22.7071 -63.3788 1
      vertex -22.6088 -63.2925 1
    endloop
  endfacet
  facet normal 0 0 1
    outer loop
      vertex -55 85 1
      vertex -22.7071 63.3788 1
      vertex -22.7934 63.4771 1
    endloop
  endfacet
  facet normal 0 0 1
    outer loop
      vertex -22.7071 63.3788 1
      vertex -55 85 1
      vertex -22.7071 -63.3788 1
    endloop
  endfacet
  facet normal 0 0 1
    outer loop
      vertex -55 85 1
      vertex -22.7934 63.4771 1
      vertex -22.866 63.5859 1
    endloop
  endfacet
  facet normal 0 0 1
    outer loop
      vertex -55 -85 1
      vertex -22.7071 -63.3788 1
      vertex -55 85 1
    endloop
  endfacet
  facet normal 0 0 1
    outer loop
      vertex -55 85 1
      vertex -22.866 63.5859 1
      vertex -22.9239 63.7032 1
    endloop
  endfacet
  facet normal 0 0 1
    outer loop
      vertex -22.7071 -63.3788 1
      vertex -55 -85 1
      vertex -22.7934 -63.4771 1
    endloop
  endfacet
  facet normal 0 0 1
    outer loop
      vertex -55 85 1
      vertex -22.9239 63.7032 1
      vertex -22.9659 63.8271 1
    endloop
  endfacet
  facet normal 0 0 1
    outer loop
      vertex -22.7934 -63.4771 1
      vertex -55 -85 1
      vertex -22.866 -63.5859 1
    endloop
  endfacet
  facet normal 0 0 1
    outer loop
      vertex -55 85 1
      vertex -22.9659 63.8271 1
      vertex -22.9914 63.9554 1
    endloop
  endfacet
  facet normal 0 0 1
    outer loop
      vertex -22.866 -63.5859 1
      vertex -55 -85 1
      vertex -22.9239 -63.7032 1
    endloop
  endfacet
  facet normal 0 0 1
    outer loop
      vertex -55 85 1
      vertex -22.9914 63.9554 1
      vertex -23 64.0859 1
    endloop
  endfacet
  facet normal 0 0 1
    outer loop
      vertex -22.9239 -63.7032 1
      vertex -55 -85 1
      vertex -22.9659 -63.8271 1
    endloop
  endfacet
  facet normal 0 0 1
    outer loop
      vertex 55 85 1
      vertex 45 0 1
      vertex 55 -85 1
    endloop
  endfacet
  facet normal 0 0 1
    outer loop
      vertex 55 85 1
      vertex 44.9914 0.130526 1
      vertex 45 0 1
    endloop
  endfacet
  facet normal 0 0 1
    outer loop
      vertex 55 85 1
      vertex 44.9659 0.258819 1
      vertex 44.9914 0.130526 1
    endloop
  endfacet
  facet normal 0 0 1
    outer loop
      vertex 55 85 1
      vertex 44.9239 0.382683 1
      vertex 44.9659 0.258819 1
    endloop
  endfacet
  facet normal 0 0 1
    outer loop
      vertex 55 85 1
      vertex 44.866 0.5 1
      vertex 44.9239 0.382683 1
    endloop
  endfacet
  facet normal 0 0 1
    outer loop
      vertex 55 85 1
      vertex 44.7934 0.608761 1
      vertex 44.866 0.5 1
    endloop
  endfacet
  facet normal 0 0 1
    outer loop
      vertex 55 85 1
      vertex 44.7071 0.707107 1
      vertex 44.7934 0.608761 1
    endloop
  endfacet
  facet normal 0 0 1
    outer loop
      vertex 55 85 1
      vertex 44.6088 0.793353 1
      vertex 44.7071 0.707107 1
    endloop
  endfacet
  facet normal 0 0 1
    outer loop
      vertex 55 85 1
      vertex 44.5 0.866025 1
      vertex 44.6088 0.793353 1
    endloop
  endfacet
  facet normal 0 0 1
    outer loop
      vertex 55 85 1
      vertex 44.3827 0.923879 1
      vertex 44.5 0.866025 1
    endloop
  endfacet
  facet normal 0 0 1
    outer loop
      vertex 55 85 1
      vertex 44.2588 0.965925 1
      vertex 44.3827 0.923879 1
    endloop
  endfacet
  facet normal 0 0 1
    outer loop
      vertex 55 85 1
      vertex 44.1305 0.991445 1
      vertex 44.2588 0.965925 1
    endloop
  endfacet
  facet normal 0 0 1
    outer loop
      vertex 55 85 1
      vertex 44 1 1
      vertex 44.1305 0.991445 1
    endloop
  endfacet
  facet normal 0 0 1
    outer loop
      vertex 55 85 1
      vertex 43.8695 0.991445 1
      vertex 44 1 1
    endloop
  endfacet
  facet normal 0 0 1
    outer loop
      vertex 55 85 1
      vertex 43.7412 0.965925 1
      vertex 43.8695 0.991445 1
    endloop
  endfacet
  facet normal 0 0 1
    outer loop
      vertex 55 85 1
      vertex 43.6173 0.923879 1
      vertex 43.7412 0.965925 1
    endloop
  endfacet
  facet normal 0 0 1
    outer loop
      vertex -21.0086 63.9554 1
      vertex 55 85 1
      vertex -21 64.0859 1
    endloop
  endfacet
  facet normal 0 0 1
    outer loop
      vertex -21.0341 63.8271 1
      vertex 55 85 1
      vertex -21.0086 63.9554 1
    endloop
  endfacet
  facet normal 0 0 1
    outer loop
      vertex -21.0761 63.7032 1
      vertex 55 85 1
      vertex -21.0341 63.8271 1
    endloop
  endfacet
  facet normal 0 0 1
    outer loop
      vertex 55 85 1
      vertex -21.0761 63.7032 1
      vertex 43.6173 0.923879 1
    endloop
  endfacet
  facet normal 0 0 1
    outer loop
      vertex 43.6173 0.923879 1
      vertex -21.0761 63.7032 1
      vertex 43.5 0.866025 1
    endloop
  endfacet
  facet normal -0 0 1
    outer loop
      vertex -21.134 63.5859 1
      vertex 43.5 0.866025 1
      vertex -21.0761 63.7032 1
    endloop
  endfacet
  facet normal 0 0 1
    outer loop
      vertex 43.5 0.866025 1
      vertex -21.134 63.5859 1
      vertex 43.3912 0.793353 1
    endloop
  endfacet
  facet normal -0 0 1
    outer loop
      vertex -21.2066 63.4771 1
      vertex 43.3912 0.793353 1
      vertex -21.134 63.5859 1
    endloop
  endfacet
  facet normal -0 0 1
    outer loop
      vertex -21.2929 63.3788 1
      vertex 43.2929 0.707107 1
      vertex -21.2066 63.4771 1
    endloop
  endfacet
  facet normal 0 0 1
    outer loop
      vertex 43.3912 0.793353 1
      vertex -21.2066 63.4771 1
      vertex 43.2929 0.707107 1
    endloop
  endfacet
  facet normal 0 0 1
    outer loop
      vertex 55 85 1
      vertex -21.0086 64.2164 1
      vertex -21 64.0859 1
    endloop
  endfacet
  facet normal 0 0 1
    outer loop
      vertex 55 85 1
      vertex -21.0341 64.3447 1
      vertex -21.0086 64.2164 1
    endloop
  endfacet
  facet normal 0 0 1
    outer loop
      vertex 55 85 1
      vertex -21.0761 64.4686 1
      vertex -21.0341 64.3447 1
    endloop
  endfacet
  facet normal 0 0 1
    outer loop
      vertex 55 85 1
      vertex -21.134 64.5859 1
      vertex -21.0761 64.4686 1
    endloop
  endfacet
  facet normal 0 0 1
    outer loop
      vertex 55 85 1
      vertex -21.2066 64.6946 1
      vertex -21.134 64.5859 1
    endloop
  endfacet
  facet normal 0 0 1
    outer loop
      vertex 55 85 1
      vertex -21.2929 64.793 1
      vertex -21.2066 64.6946 1
    endloop
  endfacet
  facet normal 0 0 1
    outer loop
      vertex 55 85 1
      vertex -21.3912 64.8792 1
      vertex -21.2929 64.793 1
    endloop
  endfacet
  facet normal 0 0 1
    outer loop
      vertex 55 85 1
      vertex -21.5 64.9519 1
      vertex -21.3912 64.8792 1
    endloop
  endfacet
  facet normal 0 0 1
    outer loop
      vertex 55 85 1
      vertex -21.6173 65.0098 1
      vertex -21.5 64.9519 1
    endloop
  endfacet
  facet normal 0 0 1
    outer loop
      vertex 55 85 1
      vertex -21.7412 65.0518 1
      vertex -21.6173 65.0098 1
    endloop
  endfacet
  facet normal -0 0 1
    outer loop
      vertex -55 85 1
      vertex -21.7412 65.0518 1
      vertex 55 85 1
    endloop
  endfacet
  facet normal 0 0 1
    outer loop
      vertex -21.7412 65.0518 1
      vertex -55 85 1
      vertex -21.8695 65.0773 1
    endloop
  endfacet
  facet normal 0 0 1
    outer loop
      vertex -21.8695 65.0773 1
      vertex -55 85 1
      vertex -22 65.0859 1
    endloop
  endfacet
  facet normal 0 0 1
    outer loop
      vertex -22 65.0859 1
      vertex -55 85 1
      vertex -22.1305 65.0773 1
    endloop
  endfacet
  facet normal 0 0 1
    outer loop
      vertex -22.9659 -63.8271 1
      vertex -55 -85 1
      vertex -22.9914 -63.9554 1
    endloop
  endfacet
  facet normal 0 0 1
    outer loop
      vertex -22.9914 64.2164 1
      vertex -55 85 1
      vertex -23 64.0859 1
    endloop
  endfacet
  facet normal 0 0 1
    outer loop
      vertex -22.9659 64.3447 1
      vertex -55 85 1
      vertex -22.9914 64.2164 1
    endloop
  endfacet
  facet normal 0 0 1
    outer loop
      vertex -22.9239 64.4686 1
      vertex -55 85 1
      vertex -22.9659 64.3447 1
    endloop
  endfacet
  facet normal 0 0 1
    outer loop
      vertex -22.866 64.5859 1
      vertex -55 85 1
      vertex -22.9239 64.4686 1
    endloop
  endfacet
  facet normal 0 0 1
    outer loop
      vertex -22.7934 64.6946 1
      vertex -55 85 1
      vertex -22.866 64.5859 1
    endloop
  endfacet
  facet normal 0 0 1
    outer loop
      vertex -22.7071 64.793 1
      vertex -55 85 1
      vertex -22.7934 64.6946 1
    endloop
  endfacet
  facet normal 0 0 1
    outer loop
      vertex -22.6088 64.8792 1
      vertex -55 85 1
      vertex -22.7071 64.793 1
    endloop
  endfacet
  facet normal 0 0 1
    outer loop
      vertex -22.5 64.9519 1
      vertex -55 85 1
      vertex -22.6088 64.8792 1
    endloop
  endfacet
  facet normal 0 0 1
    outer loop
      vertex -22.3827 65.0098 1
      vertex -55 85 1
      vertex -22.5 64.9519 1
    endloop
  endfacet
  facet normal 0 0 1
    outer loop
      vertex -22.2588 65.0518 1
      vertex -55 85 1
      vertex -22.3827 65.0098 1
    endloop
  endfacet
  facet normal 0 0 1
    outer loop
      vertex -22.1305 65.0773 1
      vertex -55 85 1
      vertex -22.2588 65.0518 1
    endloop
  endfacet
  facet normal -0 0 1
    outer loop
      vertex 44.9914 -0.130526 1
      vertex 55 -85 1
      vertex 45 0 1
    endloop
  endfacet
  facet normal -0 0 1
    outer loop
      vertex 44.9659 -0.258819 1
      vertex 55 -85 1
      vertex 44.9914 -0.130526 1
    endloop
  endfacet
  facet normal -0 0 1
    outer loop
      vertex 44.9239 -0.382683 1
      vertex 55 -85 1
      vertex 44.9659 -0.258819 1
    endloop
  endfacet
  facet normal -0 0 1
    outer loop
      vertex 44.866 -0.5 1
      vertex 55 -85 1
      vertex 44.9239 -0.382683 1
    endloop
  endfacet
  facet normal -0 0 1
    outer loop
      vertex 44.7934 -0.608761 1
      vertex 55 -85 1
      vertex 44.866 -0.5 1
    endloop
  endfacet
  facet normal -0 0 1
    outer loop
      vertex 44.7071 -0.707107 1
      vertex 55 -85 1
      vertex 44.7934 -0.608761 1
    endloop
  endfacet
  facet normal -0 0 1
    outer loop
      vertex 44.6088 -0.793353 1
      vertex 55 -85 1
      vertex 44.7071 -0.707107 1
    endloop
  endfacet
  facet normal -0 0 1
    outer loop
      vertex 44.5 -0.866025 1
      vertex 55 -85 1
      vertex 44.6088 -0.793353 1
    endloop
  endfacet
  facet normal -0 0 1
    outer loop
      vertex 44.3827 -0.923879 1
      vertex 55 -85 1
      vertex 44.5 -0.866025 1
    endloop
  endfacet
  facet normal -0 0 1
    outer loop
      vertex 44.2588 -0.965925 1
      vertex 55 -85 1
      vertex 44.3827 -0.923879 1
    endloop
  endfacet
  facet normal -0 0 1
    outer loop
      vertex 44.1305 -0.991445 1
      vertex 55 -85 1
      vertex 44.2588 -0.965925 1
    endloop
  endfacet
  facet normal -0 0 1
    outer loop
      vertex 44 -1 1
      vertex 55 -85 1
      vertex 44.1305 -0.991445 1
    endloop
  endfacet
  facet normal 0 0 1
    outer loop
      vertex 43.8695 -0.991445 1
      vertex 55 -85 1
      vertex 44 -1 1
    endloop
  endfacet
  facet normal 0 0 1
    outer loop
      vertex 43.7412 -0.965925 1
      vertex 55 -85 1
      vertex 43.8695 -0.991445 1
    endloop
  endfacet
  facet normal 0 0 1
    outer loop
      vertex 43.6173 -0.923879 1
      vertex 55 -85 1
      vertex 43.7412 -0.965925 1
    endloop
  endfacet
  facet normal 0 0 1
    outer loop
      vertex -21 -64.0859 1
      vertex 43.6173 -0.923879 1
      vertex 43.5 -0.866025 1
    endloop
  endfacet
  facet normal 0 0 1
    outer loop
      vertex -21 -64.0859 1
      vertex 43.5 -0.866025 1
      vertex 43.3912 -0.793353 1
    endloop
  endfacet
  facet normal 0 0 1
    outer loop
      vertex -21 -64.0859 1
      vertex 43.3912 -0.793353 1
      vertex 43.2929 -0.707107 1
    endloop
  endfacet
  facet normal 0 0 1
    outer loop
      vertex -21 -64.0859 1
      vertex 43.2929 -0.707107 1
      vertex 43.2066 -0.608761 1
    endloop
  endfacet
  facet normal 0 0 1
    outer loop
      vertex -21 -64.0859 1
      vertex 43.2066 -0.608761 1
      vertex 43.134 -0.5 1
    endloop
  endfacet
  facet normal 0 0 1
    outer loop
      vertex -21 -64.0859 1
      vertex 43.134 -0.5 1
      vertex 43.0761 -0.382683 1
    endloop
  endfacet
  facet normal 0 0 1
    outer loop
      vertex -21 -64.0859 1
      vertex 43.0761 -0.382683 1
      vertex 43.0341 -0.258819 1
    endloop
  endfacet
  facet normal 0 0 1
    outer loop
      vertex -21 -64.0859 1
      vertex 43.0341 -0.258819 1
      vertex 43.0086 -0.130526 1
    endloop
  endfacet
  facet normal 0 0 1
    outer loop
      vertex 43.2929 0.707107 1
      vertex -21.2929 63.3788 1
      vertex 43.2066 0.608761 1
    endloop
  endfacet
  facet normal 0 0 1
    outer loop
      vertex 43 0 1
      vertex -21 -64.0859 1
      vertex 43.0086 -0.130526 1
    endloop
  endfacet
  facet normal 0 0 1
    outer loop
      vertex 43.6173 -0.923879 1
      vertex -21 -64.0859 1
      vertex 55 -85 1
    endloop
  endfacet
  facet normal -0 0 1
    outer loop
      vertex -21.0086 -64.2164 1
      vertex 55 -85 1
      vertex -21 -64.0859 1
    endloop
  endfacet
  facet normal -0 0 1
    outer loop
      vertex -21.0341 -64.3447 1
      vertex 55 -85 1
      vertex -21.0086 -64.2164 1
    endloop
  endfacet
  facet normal -0 0 1
    outer loop
      vertex -21.0761 -64.4686 1
      vertex 55 -85 1
      vertex -21.0341 -64.3447 1
    endloop
  endfacet
  facet normal -0 0 1
    outer loop
      vertex -21.134 -64.5859 1
      vertex 55 -85 1
      vertex -21.0761 -64.4686 1
    endloop
  endfacet
  facet normal -0 0 1
    outer loop
      vertex -21.2066 -64.6946 1
      vertex 55 -85 1
      vertex -21.134 -64.5859 1
    endloop
  endfacet
  facet normal -0 0 1
    outer loop
      vertex -21.2929 -64.793 1
      vertex 55 -85 1
      vertex -21.2066 -64.6946 1
    endloop
  endfacet
  facet normal -0 0 1
    outer loop
      vertex -21.3912 -64.8792 1
      vertex 55 -85 1
      vertex -21.2929 -64.793 1
    endloop
  endfacet
  facet normal -0 0 1
    outer loop
      vertex -21.5 -64.9519 1
      vertex 55 -85 1
      vertex -21.3912 -64.8792 1
    endloop
  endfacet
  facet normal -0 0 1
    outer loop
      vertex -21.6173 -65.0098 1
      vertex 55 -85 1
      vertex -21.5 -64.9519 1
    endloop
  endfacet
  facet normal -0 0 1
    outer loop
      vertex -21.7412 -65.0518 1
      vertex 55 -85 1
      vertex -21.6173 -65.0098 1
    endloop
  endfacet
  facet normal 0 0 1
    outer loop
      vertex -55 -85 1
      vertex -21.7412 -65.0518 1
      vertex -21.8695 -65.0773 1
    endloop
  endfacet
  facet normal 0 0 1
    outer loop
      vertex -55 -85 1
      vertex -21.8695 -65.0773 1
      vertex -22 -65.0859 1
    endloop
  endfacet
  facet normal 0 0 1
    outer loop
      vertex -55 -85 1
      vertex -22 -65.0859 1
      vertex -22.1305 -65.0773 1
    endloop
  endfacet
  facet normal 0 0 1
    outer loop
      vertex -55 -85 1
      vertex -22.1305 -65.0773 1
      vertex -22.2588 -65.0518 1
    endloop
  endfacet
  facet normal 0 0 1
    outer loop
      vertex -22.9914 -63.9554 1
      vertex -55 -85 1
      vertex -23 -64.0859 1
    endloop
  endfacet
  facet normal 0 0 1
    outer loop
      vertex -23 -64.0859 1
      vertex -55 -85 1
      vertex -22.9914 -64.2164 1
    endloop
  endfacet
  facet normal 0 0 1
    outer loop
      vertex -21.7412 -65.0518 1
      vertex -55 -85 1
      vertex 55 -85 1
    endloop
  endfacet
  facet normal 0 0 1
    outer loop
      vertex -22.3827 -65.0098 1
      vertex -55 -85 1
      vertex -22.2588 -65.0518 1
    endloop
  endfacet
  facet normal 0 0 1
    outer loop
      vertex -22.5 -64.9519 1
      vertex -55 -85 1
      vertex -22.3827 -65.0098 1
    endloop
  endfacet
  facet normal 0 0 1
    outer loop
      vertex -22.6088 -64.8792 1
      vertex -55 -85 1
      vertex -22.5 -64.9519 1
    endloop
  endfacet
  facet normal 0 0 1
    outer loop
      vertex -22.7071 -64.793 1
      vertex -55 -85 1
      vertex -22.6088 -64.8792 1
    endloop
  endfacet
  facet normal 0 0 1
    outer loop
      vertex -22.7934 -64.6946 1
      vertex -55 -85 1
      vertex -22.7071 -64.793 1
    endloop
  endfacet
  facet normal 0 0 1
    outer loop
      vertex -22.866 -64.5859 1
      vertex -55 -85 1
      vertex -22.7934 -64.6946 1
    endloop
  endfacet
  facet normal 0 0 1
    outer loop
      vertex -22.9239 -64.4686 1
      vertex -55 -85 1
      vertex -22.866 -64.5859 1
    endloop
  endfacet
  facet normal 0 0 1
    outer loop
      vertex -22.9659 -64.3447 1
      vertex -55 -85 1
      vertex -22.9239 -64.4686 1
    endloop
  endfacet
  facet normal 0 0 1
    outer loop
      vertex -22.9914 -64.2164 1
      vertex -55 -85 1
      vertex -22.9659 -64.3447 1
    endloop
  endfacet
  facet normal 0 0 -1
    outer loop
      vertex -21.3912 -63.2925 -1
      vertex 43.2066 -0.608761 -1
      vertex -21.2929 -63.3788 -1
    endloop
  endfacet
  facet normal 0 0 -1
    outer loop
      vertex 43 0 -1
      vertex -21.0086 63.9554 -1
      vertex -21 64.0859 -1
    endloop
  endfacet
  facet normal -0 0 -1
    outer loop
      vertex 43.2066 -0.608761 -1
      vertex -21.3912 -63.2925 -1
      vertex 43.134 -0.5 -1
    endloop
  endfacet
  facet normal 0 0 -1
    outer loop
      vertex 43 0 -1
      vertex -21.0341 63.8271 -1
      vertex -21.0086 63.9554 -1
    endloop
  endfacet
  facet normal 0 0 -1
    outer loop
      vertex -21.5 -63.2199 -1
      vertex 43.134 -0.5 -1
      vertex -21.3912 -63.2925 -1
    endloop
  endfacet
  facet normal 0 0 -1
    outer loop
      vertex 43 0 -1
      vertex -21.0761 63.7032 -1
      vertex -21.0341 63.8271 -1
    endloop
  endfacet
  facet normal -0 0 -1
    outer loop
      vertex 43.134 -0.5 -1
      vertex -21.5 -63.2199 -1
      vertex 43.0761 -0.382683 -1
    endloop
  endfacet
  facet normal 0 0 -1
    outer loop
      vertex 43 0 -1
      vertex -21.134 63.5859 -1
      vertex -21.0761 63.7032 -1
    endloop
  endfacet
  facet normal 0 0 -1
    outer loop
      vertex -21.6173 -63.162 -1
      vertex 43.0761 -0.382683 -1
      vertex -21.5 -63.2199 -1
    endloop
  endfacet
  facet normal 0 0 -1
    outer loop
      vertex 43 0 -1
      vertex -21.2066 63.4771 -1
      vertex -21.134 63.5859 -1
    endloop
  endfacet
  facet normal -0 0 -1
    outer loop
      vertex 43.0761 -0.382683 -1
      vertex -21.6173 -63.162 -1
      vertex 43.0341 -0.258819 -1
    endloop
  endfacet
  facet normal 0 0 -1
    outer loop
      vertex 43 0 -1
      vertex -21.2929 63.3788 -1
      vertex -21.2066 63.4771 -1
    endloop
  endfacet
  facet normal 0 0 -1
    outer loop
      vertex -21.7412 -63.12 -1
      vertex 43.0341 -0.258819 -1
      vertex -21.6173 -63.162 -1
    endloop
  endfacet
  facet normal 0 0 -1
    outer loop
      vertex 43 0 -1
      vertex -21.3912 63.2925 -1
      vertex -21.2929 63.3788 -1
    endloop
  endfacet
  facet normal -0 0 -1
    outer loop
      vertex 43.0341 -0.258819 -1
      vertex -21.7412 -63.12 -1
      vertex 43.0086 -0.130526 -1
    endloop
  endfacet
  facet normal 0 0 -1
    outer loop
      vertex 43 0 -1
      vertex -21.5 63.2199 -1
      vertex -21.3912 63.2925 -1
    endloop
  endfacet
  facet normal 0 0 -1
    outer loop
      vertex -21.8695 -63.0944 -1
      vertex 43.0086 -0.130526 -1
      vertex -21.7412 -63.12 -1
    endloop
  endfacet
  facet normal 0 0 -1
    outer loop
      vertex 43 0 -1
      vertex -21.6173 63.162 -1
      vertex -21.5 63.2199 -1
    endloop
  endfacet
  facet normal -0 0 -1
    outer loop
      vertex 43.0086 -0.130526 -1
      vertex -21.8695 -63.0944 -1
      vertex 43 0 -1
    endloop
  endfacet
  facet normal 0 0 -1
    outer loop
      vertex 43 0 -1
      vertex -21.7412 63.12 -1
      vertex -21.6173 63.162 -1
    endloop
  endfacet
  facet normal 0 0 -1
    outer loop
      vertex -22 -63.0859 -1
      vertex 43 0 -1
      vertex -21.8695 -63.0944 -1
    endloop
  endfacet
  facet normal 0 0 -1
    outer loop
      vertex 43 0 -1
      vertex -21.8695 63.0944 -1
      vertex -21.7412 63.12 -1
    endloop
  endfacet
  facet normal 0 0 -1
    outer loop
      vertex -22 63.0859 -1
      vertex 43 0 -1
      vertex -22 -63.0859 -1
    endloop
  endfacet
  facet normal 0 0 -1
    outer loop
      vertex 43 0 -1
      vertex -22 63.0859 -1
      vertex -21.8695 63.0944 -1
    endloop
  endfacet
  facet normal 0 0 -1
    outer loop
      vertex -22.1305 -63.0944 -1
      vertex -22 63.0859 -1
      vertex -22 -63.0859 -1
    endloop
  endfacet
  facet normal 0 0 -1
    outer loop
      vertex -22.1305 -63.0944 -1
      vertex -22.1305 63.0944 -1
      vertex -22 63.0859 -1
    endloop
  endfacet
  facet normal 0 0 -1
    outer loop
      vertex -22.2588 -63.12 -1
      vertex -22.1305 63.0944 -1
      vertex -22.1305 -63.0944 -1
    endloop
  endfacet
  facet normal 0 0 -1
    outer loop
      vertex -22.2588 -63.12 -1
      vertex -22.2588 63.12 -1
      vertex -22.1305 63.0944 -1
    endloop
  endfacet
  facet normal 0 0 -1
    outer loop
      vertex -22.3827 -63.162 -1
      vertex -22.2588 63.12 -1
      vertex -22.2588 -63.12 -1
    endloop
  endfacet
  facet normal 0 0 -1
    outer loop
      vertex -22.3827 -63.162 -1
      vertex -22.3827 63.162 -1
      vertex -22.2588 63.12 -1
    endloop
  endfacet
  facet normal 0 0 -1
    outer loop
      vertex -22.5 -63.2199 -1
      vertex -22.3827 63.162 -1
      vertex -22.3827 -63.162 -1
    endloop
  endfacet
  facet normal 0 0 -1
    outer loop
      vertex -22.5 -63.2199 -1
      vertex -22.5 63.2199 -1
      vertex -22.3827 63.162 -1
    endloop
  endfacet
  facet normal 0 0 -1
    outer loop
      vertex -22.6088 -63.2925 -1
      vertex -22.5 63.2199 -1
      vertex -22.5 -63.2199 -1
    endloop
  endfacet
  facet normal 0 0 -1
    outer loop
      vertex -22.6088 -63.2925 -1
      vertex -22.6088 63.2925 -1
      vertex -22.5 63.2199 -1
    endloop
  endfacet
  facet normal 0 0 -1
    outer loop
      vertex -22.7071 -63.3788 -1
      vertex -22.6088 63.2925 -1
      vertex -22.6088 -63.2925 -1
    endloop
  endfacet
  facet normal 0 0 -1
    outer loop
      vertex -22.7071 -63.3788 -1
      vertex -22.7071 63.3788 -1
      vertex -22.6088 63.2925 -1
    endloop
  endfacet
  facet normal 0 0 -1
    outer loop
      vertex -55 -85 -1
      vertex -22.7071 -63.3788 -1
      vertex -22.7934 -63.4771 -1
    endloop
  endfacet
  facet normal -0 0 -1
    outer loop
      vertex -22.7071 -63.3788 -1
      vertex -55 -85 -1
      vertex -22.7071 63.3788 -1
    endloop
  endfacet
  facet normal 0 0 -1
    outer loop
      vertex -55 -85 -1
      vertex -22.7934 -63.4771 -1
      vertex -22.866 -63.5859 -1
    endloop
  endfacet
  facet normal 0 0 -1
    outer loop
      vertex -55 85 -1
      vertex -22.7071 63.3788 -1
      vertex -55 -85 -1
    endloop
  endfacet
  facet normal 0 0 -1
    outer loop
      vertex -55 -85 -1
      vertex -22.866 -63.5859 -1
      vertex -22.9239 -63.7032 -1
    endloop
  endfacet
  facet normal 0 0 -1
    outer loop
      vertex -22.7071 63.3788 -1
      vertex -55 85 -1
      vertex -22.7934 63.4771 -1
    endloop
  endfacet
  facet normal 0 0 -1
    outer loop
      vertex -55 -85 -1
      vertex -22.9239 -63.7032 -1
      vertex -22.9659 -63.8271 -1
    endloop
  endfacet
  facet normal 0 0 -1
    outer loop
      vertex -22.7934 63.4771 -1
      vertex -55 85 -1
      vertex -22.866 63.5859 -1
    endloop
  endfacet
  facet normal 0 0 -1
    outer loop
      vertex -55 -85 -1
      vertex -22.9659 -63.8271 -1
      vertex -22.9914 -63.9554 -1
    endloop
  endfacet
  facet normal 0 0 -1
    outer loop
      vertex -22.866 63.5859 -1
      vertex -55 85 -1
      vertex -22.9239 63.7032 -1
    endloop
  endfacet
  facet normal 0 0 -1
    outer loop
      vertex -55 -85 -1
      vertex -22.9914 -63.9554 -1
      vertex -23 -64.0859 -1
    endloop
  endfacet
  facet normal 0 0 -1
    outer loop
      vertex -22.9239 63.7032 -1
      vertex -55 85 -1
      vertex -22.9659 63.8271 -1
    endloop
  endfacet
  facet normal 0 0 -1
    outer loop
      vertex 55 -85 -1
      vertex 45 0 -1
      vertex 55 85 -1
    endloop
  endfacet
  facet normal 0 0 -1
    outer loop
      vertex 55 -85 -1
      vertex 44.9914 -0.130526 -1
      vertex 45 0 -1
    endloop
  endfacet
  facet normal 0 0 -1
    outer loop
      vertex 55 -85 -1
      vertex 44.9659 -0.258819 -1
      vertex 44.9914 -0.130526 -1
    endloop
  endfacet
  facet normal 0 0 -1
    outer loop
      vertex 55 -85 -1
      vertex 44.9239 -0.382683 -1
      vertex 44.9659 -0.258819 -1
    endloop
  endfacet
  facet normal 0 0 -1
    outer loop
      vertex 55 -85 -1
      vertex 44.866 -0.5 -1
      vertex 44.9239 -0.382683 -1
    endloop
  endfacet
  facet normal 0 0 -1
    outer loop
      vertex 55 -85 -1
      vertex 44.7934 -0.608761 -1
      vertex 44.866 -0.5 -1
    endloop
  endfacet
  facet normal 0 0 -1
    outer loop
      vertex 55 -85 -1
      vertex 44.7071 -0.707107 -1
      vertex 44.7934 -0.608761 -1
    endloop
  endfacet
  facet normal 0 0 -1
    outer loop
      vertex 55 -85 -1
      vertex 44.6088 -0.793353 -1
      vertex 44.7071 -0.707107 -1
    endloop
  endfacet
  facet normal 0 0 -1
    outer loop
      vertex 55 -85 -1
      vertex 44.5 -0.866025 -1
      vertex 44.6088 -0.793353 -1
    endloop
  endfacet
  facet normal 0 0 -1
    outer loop
      vertex 55 -85 -1
      vertex 44.3827 -0.923879 -1
      vertex 44.5 -0.866025 -1
    endloop
  endfacet
  facet normal 0 0 -1
    outer loop
      vertex 55 -85 -1
      vertex 44.2588 -0.965925 -1
      vertex 44.3827 -0.923879 -1
    endloop
  endfacet
  facet normal 0 0 -1
    outer loop
      vertex 55 -85 -1
      vertex 44.1305 -0.991445 -1
      vertex 44.2588 -0.965925 -1
    endloop
  endfacet
  facet normal 0 0 -1
    outer loop
      vertex 55 -85 -1
      vertex 44 -1 -1
      vertex 44.1305 -0.991445 -1
    endloop
  endfacet
  facet normal 0 0 -1
    outer loop
      vertex 55 -85 -1
      vertex 43.8695 -0.991445 -1
      vertex 44 -1 -1
    endloop
  endfacet
  facet normal 0 0 -1
    outer loop
      vertex 55 -85 -1
      vertex 43.7412 -0.965925 -1
      vertex 43.8695 -0.991445 -1
    endloop
  endfacet
  facet normal 0 0 -1
    outer loop
      vertex 55 -85 -1
      vertex 43.6173 -0.923879 -1
      vertex 43.7412 -0.965925 -1
    endloop
  endfacet
  facet normal 0 0 -1
    outer loop
      vertex -21.0086 -63.9554 -1
      vertex 55 -85 -1
      vertex -21 -64.0859 -1
    endloop
  endfacet
  facet normal 0 0 -1
    outer loop
      vertex -21.0341 -63.8271 -1
      vertex 55 -85 -1
      vertex -21.0086 -63.9554 -1
    endloop
  endfacet
  facet normal 0 0 -1
    outer loop
      vertex -21.0761 -63.7032 -1
      vertex 55 -85 -1
      vertex -21.0341 -63.8271 -1
    endloop
  endfacet
  facet normal 0 0 -1
    outer loop
      vertex 55 -85 -1
      vertex -21.0761 -63.7032 -1
      vertex 43.6173 -0.923879 -1
    endloop
  endfacet
  facet normal -0 0 -1
    outer loop
      vertex 43.6173 -0.923879 -1
      vertex -21.0761 -63.7032 -1
      vertex 43.5 -0.866025 -1
    endloop
  endfacet
  facet normal 0 0 -1
    outer loop
      vertex -21.134 -63.5859 -1
      vertex 43.5 -0.866025 -1
      vertex -21.0761 -63.7032 -1
    endloop
  endfacet
  facet normal -0 0 -1
    outer loop
      vertex 43.5 -0.866025 -1
      vertex -21.134 -63.5859 -1
      vertex 43.3912 -0.793353 -1
    endloop
  endfacet
  facet normal 0 0 -1
    outer loop
      vertex -21.2066 -63.4771 -1
      vertex 43.3912 -0.793353 -1
      vertex -21.134 -63.5859 -1
    endloop
  endfacet
  facet normal 0 0 -1
    outer loop
      vertex -21.2929 -63.3788 -1
      vertex 43.2929 -0.707107 -1
      vertex -21.2066 -63.4771 -1
    endloop
  endfacet
  facet normal -0 0 -1
    outer loop
      vertex 43.3912 -0.793353 -1
      vertex -21.2066 -63.4771 -1
      vertex 43.2929 -0.707107 -1
    endloop
  endfacet
  facet normal 0 0 -1
    outer loop
      vertex 55 -85 -1
      vertex -21.0086 -64.2164 -1
      vertex -21 -64.0859 -1
    endloop
  endfacet
  facet normal 0 0 -1
    outer loop
      vertex 55 -85 -1
      vertex -21.0341 -64.3447 -1
      vertex -21.0086 -64.2164 -1
    endloop
  endfacet
  facet normal 0 0 -1
    outer loop
      vertex 55 -85 -1
      vertex -21.0761 -64.4686 -1
      vertex -21.0341 -64.3447 -1
    endloop
  endfacet
  facet normal 0 0 -1
    outer loop
      vertex 55 -85 -1
      vertex -21.134 -64.5859 -1
      vertex -21.0761 -64.4686 -1
    endloop
  endfacet
  facet normal 0 0 -1
    outer loop
      vertex 55 -85 -1
      vertex -21.2066 -64.6946 -1
      vertex -21.134 -64.5859 -1
    endloop
  endfacet
  facet normal 0 0 -1
    outer loop
      vertex 55 -85 -1
      vertex -21.2929 -64.793 -1
      vertex -21.2066 -64.6946 -1
    endloop
  endfacet
  facet normal 0 0 -1
    outer loop
      vertex 55 -85 -1
      vertex -21.3912 -64.8792 -1
      vertex -21.2929 -64.793 -1
    endloop
  endfacet
  facet normal 0 0 -1
    outer loop
      vertex 55 -85 -1
      vertex -21.5 -64.9519 -1
      vertex -21.3912 -64.8792 -1
    endloop
  endfacet
  facet normal 0 0 -1
    outer loop
      vertex 55 -85 -1
      vertex -21.6173 -65.0098 -1
      vertex -21.5 -64.9519 -1
    endloop
  endfacet
  facet normal 0 0 -1
    outer loop
      vertex 55 -85 -1
      vertex -21.7412 -65.0518 -1
      vertex -21.6173 -65.0098 -1
    endloop
  endfacet
  facet normal 0 0 -1
    outer loop
      vertex -55 -85 -1
      vertex -21.7412 -65.0518 -1
      vertex 55 -85 -1
    endloop
  endfacet
  facet normal 0 0 -1
    outer loop
      vertex -21.7412 -65.0518 -1
      vertex -55 -85 -1
      vertex -21.8695 -65.0773 -1
    endloop
  endfacet
  facet normal 0 0 -1
    outer loop
      vertex -21.8695 -65.0773 -1
      vertex -55 -85 -1
      vertex -22 -65.0859 -1
    endloop
  endfacet
  facet normal -0 0 -1
    outer loop
      vertex -22 -65.0859 -1
      vertex -55 -85 -1
      vertex -22.1305 -65.0773 -1
    endloop
  endfacet
  facet normal 0 0 -1
    outer loop
      vertex -22.9659 63.8271 -1
      vertex -55 85 -1
      vertex -22.9914 63.9554 -1
    endloop
  endfacet
  facet normal -0 0 -1
    outer loop
      vertex -22.9914 -64.2164 -1
      vertex -55 -85 -1
      vertex -23 -64.0859 -1
    endloop
  endfacet
  facet normal -0 0 -1
    outer loop
      vertex -22.9659 -64.3447 -1
      vertex -55 -85 -1
      vertex -22.9914 -64.2164 -1
    endloop
  endfacet
  facet normal -0 0 -1
    outer loop
      vertex -22.9239 -64.4686 -1
      vertex -55 -85 -1
      vertex -22.9659 -64.3447 -1
    endloop
  endfacet
  facet normal -0 0 -1
    outer loop
      vertex -22.866 -64.5859 -1
      vertex -55 -85 -1
      vertex -22.9239 -64.4686 -1
    endloop
  endfacet
  facet normal -0 0 -1
    outer loop
      vertex -22.7934 -64.6946 -1
      vertex -55 -85 -1
      vertex -22.866 -64.5859 -1
    endloop
  endfacet
  facet normal -0 0 -1
    outer loop
      vertex -22.7071 -64.793 -1
      vertex -55 -85 -1
      vertex -22.7934 -64.6946 -1
    endloop
  endfacet
  facet normal -0 0 -1
    outer loop
      vertex -22.6088 -64.8792 -1
      vertex -55 -85 -1
      vertex -22.7071 -64.793 -1
    endloop
  endfacet
  facet normal -0 0 -1
    outer loop
      vertex -22.5 -64.9519 -1
      vertex -55 -85 -1
      vertex -22.6088 -64.8792 -1
    endloop
  endfacet
  facet normal -0 0 -1
    outer loop
      vertex -22.3827 -65.0098 -1
      vertex -55 -85 -1
      vertex -22.5 -64.9519 -1
    endloop
  endfacet
  facet normal -0 0 -1
    outer loop
      vertex -22.2588 -65.0518 -1
      vertex -55 -85 -1
      vertex -22.3827 -65.0098 -1
    endloop
  endfacet
  facet normal -0 0 -1
    outer loop
      vertex -22.1305 -65.0773 -1
      vertex -55 -85 -1
      vertex -22.2588 -65.0518 -1
    endloop
  endfacet
  facet normal 0 0 -1
    outer loop
      vertex 44.9914 0.130526 -1
      vertex 55 85 -1
      vertex 45 0 -1
    endloop
  endfacet
  facet normal 0 0 -1
    outer loop
      vertex 44.9659 0.258819 -1
      vertex 55 85 -1
      vertex 44.9914 0.130526 -1
    endloop
  endfacet
  facet normal 0 0 -1
    outer loop
      vertex 44.9239 0.382683 -1
      vertex 55 85 -1
      vertex 44.9659 0.258819 -1
    endloop
  endfacet
  facet normal 0 0 -1
    outer loop
      vertex 44.866 0.5 -1
      vertex 55 85 -1
      vertex 44.9239 0.382683 -1
    endloop
  endfacet
  facet normal 0 0 -1
    outer loop
      vertex 44.7934 0.608761 -1
      vertex 55 85 -1
      vertex 44.866 0.5 -1
    endloop
  endfacet
  facet normal 0 0 -1
    outer loop
      vertex 44.7071 0.707107 -1
      vertex 55 85 -1
      vertex 44.7934 0.608761 -1
    endloop
  endfacet
  facet normal 0 0 -1
    outer loop
      vertex 44.6088 0.793353 -1
      vertex 55 85 -1
      vertex 44.7071 0.707107 -1
    endloop
  endfacet
  facet normal 0 0 -1
    outer loop
      vertex 44.5 0.866025 -1
      vertex 55 85 -1
      vertex 44.6088 0.793353 -1
    endloop
  endfacet
  facet normal 0 0 -1
    outer loop
      vertex 44.3827 0.923879 -1
      vertex 55 85 -1
      vertex 44.5 0.866025 -1
    endloop
  endfacet
  facet normal 0 0 -1
    outer loop
      vertex 44.2588 0.965925 -1
      vertex 55 85 -1
      vertex 44.3827 0.923879 -1
    endloop
  endfacet
  facet normal 0 0 -1
    outer loop
      vertex 44.1305 0.991445 -1
      vertex 55 85 -1
      vertex 44.2588 0.965925 -1
    endloop
  endfacet
  facet normal 0 0 -1
    outer loop
      vertex 44 1 -1
      vertex 55 85 -1
      vertex 44.1305 0.991445 -1
    endloop
  endfacet
  facet normal 0 0 -1
    outer loop
      vertex 43.8695 0.991445 -1
      vertex 55 85 -1
      vertex 44 1 -1
    endloop
  endfacet
  facet normal 0 0 -1
    outer loop
      vertex 43.7412 0.965925 -1
      vertex 55 85 -1
      vertex 43.8695 0.991445 -1
    endloop
  endfacet
  facet normal 0 0 -1
    outer loop
      vertex 43.6173 0.923879 -1
      vertex 55 85 -1
      vertex 43.7412 0.965925 -1
    endloop
  endfacet
  facet normal 0 0 -1
    outer loop
      vertex -21 64.0859 -1
      vertex 43.6173 0.923879 -1
      vertex 43.5 0.866025 -1
    endloop
  endfacet
  facet normal 0 0 -1
    outer loop
      vertex -21 64.0859 -1
      vertex 43.5 0.866025 -1
      vertex 43.3912 0.793353 -1
    endloop
  endfacet
  facet normal 0 0 -1
    outer loop
      vertex -21 64.0859 -1
      vertex 43.3912 0.793353 -1
      vertex 43.2929 0.707107 -1
    endloop
  endfacet
  facet normal 0 0 -1
    outer loop
      vertex -21 64.0859 -1
      vertex 43.2929 0.707107 -1
      vertex 43.2066 0.608761 -1
    endloop
  endfacet
  facet normal 0 0 -1
    outer loop
      vertex -21 64.0859 -1
      vertex 43.2066 0.608761 -1
      vertex 43.134 0.5 -1
    endloop
  endfacet
  facet normal 0 0 -1
    outer loop
      vertex -21 64.0859 -1
      vertex 43.134 0.5 -1
      vertex 43.0761 0.382683 -1
    endloop
  endfacet
  facet normal 0 0 -1
    outer loop
      vertex -21 64.0859 -1
      vertex 43.0761 0.382683 -1
      vertex 43.0341 0.258819 -1
    endloop
  endfacet
  facet normal 0 0 -1
    outer loop
      vertex -21 64.0859 -1
      vertex 43.0341 0.258819 -1
      vertex 43.0086 0.130526 -1
    endloop
  endfacet
  facet normal -0 0 -1
    outer loop
      vertex 43.2929 -0.707107 -1
      vertex -21.2929 -63.3788 -1
      vertex 43.2066 -0.608761 -1
    endloop
  endfacet
  facet normal 0 0 -1
    outer loop
      vertex 43 0 -1
      vertex -21 64.0859 -1
      vertex 43.0086 0.130526 -1
    endloop
  endfacet
  facet normal 0 0 -1
    outer loop
      vertex 43.6173 0.923879 -1
      vertex -21 64.0859 -1
      vertex 55 85 -1
    endloop
  endfacet
  facet normal 0 0 -1
    outer loop
      vertex -21.0086 64.2164 -1
      vertex 55 85 -1
      vertex -21 64.0859 -1
    endloop
  endfacet
  facet normal 0 0 -1
    outer loop
      vertex -21.0341 64.3447 -1
      vertex 55 85 -1
      vertex -21.0086 64.2164 -1
    endloop
  endfacet
  facet normal 0 0 -1
    outer loop
      vertex -21.0761 64.4686 -1
      vertex 55 85 -1
      vertex -21.0341 64.3447 -1
    endloop
  endfacet
  facet normal 0 0 -1
    outer loop
      vertex -21.134 64.5859 -1
      vertex 55 85 -1
      vertex -21.0761 64.4686 -1
    endloop
  endfacet
  facet normal 0 0 -1
    outer loop
      vertex -21.2066 64.6946 -1
      vertex 55 85 -1
      vertex -21.134 64.5859 -1
    endloop
  endfacet
  facet normal 0 0 -1
    outer loop
      vertex -21.2929 64.793 -1
      vertex 55 85 -1
      vertex -21.2066 64.6946 -1
    endloop
  endfacet
  facet normal 0 0 -1
    outer loop
      vertex -21.3912 64.8792 -1
      vertex 55 85 -1
      vertex -21.2929 64.793 -1
    endloop
  endfacet
  facet normal 0 0 -1
    outer loop
      vertex -21.5 64.9519 -1
      vertex 55 85 -1
      vertex -21.3912 64.8792 -1
    endloop
  endfacet
  facet normal 0 0 -1
    outer loop
      vertex -21.6173 65.0098 -1
      vertex 55 85 -1
      vertex -21.5 64.9519 -1
    endloop
  endfacet
  facet normal 0 0 -1
    outer loop
      vertex -21.7412 65.0518 -1
      vertex 55 85 -1
      vertex -21.6173 65.0098 -1
    endloop
  endfacet
  facet normal 0 0 -1
    outer loop
      vertex -55 85 -1
      vertex -21.7412 65.0518 -1
      vertex -21.8695 65.0773 -1
    endloop
  endfacet
  facet normal 0 0 -1
    outer loop
      vertex -55 85 -1
      vertex -21.8695 65.0773 -1
      vertex -22 65.0859 -1
    endloop
  endfacet
  facet normal 0 0 -1
    outer loop
      vertex -55 85 -1
      vertex -22 65.0859 -1
      vertex -22.1305 65.0773 -1
    endloop
  endfacet
  facet normal 0 0 -1
    outer loop
      vertex -55 85 -1
      vertex -22.1305 65.0773 -1
      vertex -22.2588 65.0518 -1
    endloop
  endfacet
  facet normal 0 0 -1
    outer loop
      vertex -22.9914 63.9554 -1
      vertex -55 85 -1
      vertex -23 64.0859 -1
    endloop
  endfacet
  facet normal 0 0 -1
    outer loop
      vertex -23 64.0859 -1
      vertex -55 85 -1
      vertex -22.9914 64.2164 -1
    endloop
  endfacet
  facet normal 0 0 -1
    outer loop
      vertex -21.7412 65.0518 -1
      vertex -55 85 -1
      vertex 55 85 -1
    endloop
  endfacet
  facet normal 0 0 -1
    outer loop
      vertex -22.3827 65.0098 -1
      vertex -55 85 -1
      vertex -22.2588 65.0518 -1
    endloop
  endfacet
  facet normal 0 0 -1
    outer loop
      vertex -22.5 64.9519 -1
      vertex -55 85 -1
      vertex -22.3827 65.0098 -1
    endloop
  endfacet
  facet normal 0 0 -1
    outer loop
      vertex -22.6088 64.8792 -1
      vertex -55 85 -1
      vertex -22.5 64.9519 -1
    endloop
  endfacet
  facet normal 0 0 -1
    outer loop
      vertex -22.7071 64.793 -1
      vertex -55 85 -1
      vertex -22.6088 64.8792 -1
    endloop
  endfacet
  facet normal 0 0 -1
    outer loop
      vertex -22.7934 64.6946 -1
      vertex -55 85 -1
      vertex -22.7071 64.793 -1
    endloop
  endfacet
  facet normal 0 0 -1
    outer loop
      vertex -22.866 64.5859 -1
      vertex -55 85 -1
      vertex -22.7934 64.6946 -1
    endloop
  endfacet
  facet normal 0 0 -1
    outer loop
      vertex -22.9239 64.4686 -1
      vertex -55 85 -1
      vertex -22.866 64.5859 -1
    endloop
  endfacet
  facet normal 0 0 -1
    outer loop
      vertex -22.9659 64.3447 -1
      vertex -55 85 -1
      vertex -22.9239 64.4686 -1
    endloop
  endfacet
  facet normal 0 0 -1
    outer loop
      vertex -22.9914 64.2164 -1
      vertex -55 85 -1
      vertex -22.9659 64.3447 -1
    endloop
  endfacet
  facet normal -1 0 0
    outer loop
      vertex -55 -85 -1
      vertex -55 85 1
      vertex -55 85 -1
    endloop
  endfacet
  facet normal -1 -0 0
    outer loop
      vertex -55 85 1
      vertex -55 -85 -1
      vertex -55 -85 1
    endloop
  endfacet
  facet normal 0 1 -0
    outer loop
      vertex 55 85 -1
      vertex -55 85 1
      vertex 55 85 1
    endloop
  endfacet
  facet normal 0 1 0
    outer loop
      vertex -55 85 1
      vertex 55 85 -1
      vertex -55 85 -1
    endloop
  endfacet
  facet normal 0 -1 0
    outer loop
      vertex -55 -85 -1
      vertex 55 -85 1
      vertex -55 -85 1
    endloop
  endfacet
  facet normal 0 -1 -0
    outer loop
      vertex 55 -85 1
      vertex -55 -85 -1
      vertex 55 -85 -1
    endloop
  endfacet
  facet normal -0.980813 -0.19495 0
    outer loop
      vertex 44.9914 0.130526 -1
      vertex 44.9659 0.258819 1
      vertex 44.9659 0.258819 -1
    endloop
  endfacet
  facet normal -0.980813 -0.19495 0
    outer loop
      vertex 44.9659 0.258819 1
      vertex 44.9914 0.130526 -1
      vertex 44.9914 0.130526 1
    endloop
  endfacet
  facet normal -0.997836 -0.0657447 0
    outer loop
      vertex 45 0 -1
      vertex 44.9914 0.130526 1
      vertex 44.9914 0.130526 -1
    endloop
  endfacet
  facet normal -0.997836 -0.0657447 0
    outer loop
      vertex 44.9914 0.130526 1
      vertex 45 0 -1
      vertex 45 0 1
    endloop
  endfacet
  facet normal 0.997836 -0.0657447 0
    outer loop
      vertex 43 0 1
      vertex 43.0086 0.130526 -1
      vertex 43.0086 0.130526 1
    endloop
  endfacet
  facet normal 0.997836 -0.0657447 0
    outer loop
      vertex 43.0086 0.130526 -1
      vertex 43 0 1
      vertex 43 0 -1
    endloop
  endfacet
  facet normal -0.442338 -0.896848 0
    outer loop
      vertex 44.3827 0.923879 -1
      vertex 44.5 0.866025 1
      vertex 44.3827 0.923879 1
    endloop
  endfacet
  facet normal -0.442338 -0.896848 -0
    outer loop
      vertex 44.5 0.866025 1
      vertex 44.3827 0.923879 -1
      vertex 44.5 0.866025 -1
    endloop
  endfacet
  facet normal -0.195087 -0.980786 0
    outer loop
      vertex 44.1305 0.991445 -1
      vertex 44.2588 0.965925 1
      vertex 44.1305 0.991445 1
    endloop
  endfacet
  facet normal -0.195087 -0.980786 -0
    outer loop
      vertex 44.2588 0.965925 1
      vertex 44.1305 0.991445 -1
      vertex 44.2588 0.965925 -1
    endloop
  endfacet
  facet normal 0.896734 0.442569 0
    outer loop
      vertex 43.134 -0.5 1
      vertex 43.0761 -0.382683 -1
      vertex 43.0761 -0.382683 1
    endloop
  endfacet
  facet normal 0.896734 0.442569 0
    outer loop
      vertex 43.0761 -0.382683 -1
      vertex 43.134 -0.5 1
      vertex 43.134 -0.5 -1
    endloop
  endfacet
  facet normal -0.321355 -0.946959 0
    outer loop
      vertex 44.2588 0.965925 -1
      vertex 44.3827 0.923879 1
      vertex 44.2588 0.965925 1
    endloop
  endfacet
  facet normal -0.321355 -0.946959 -0
    outer loop
      vertex 44.3827 0.923879 1
      vertex 44.2588 0.965925 -1
      vertex 44.3827 0.923879 -1
    endloop
  endfacet
  facet normal -0.947038 0.321123 0
    outer loop
      vertex 44.9239 -0.382683 -1
      vertex 44.9659 -0.258819 1
      vertex 44.9659 -0.258819 -1
    endloop
  endfacet
  facet normal -0.947038 0.321123 0
    outer loop
      vertex 44.9659 -0.258819 1
      vertex 44.9239 -0.382683 -1
      vertex 44.9239 -0.382683 1
    endloop
  endfacet
  facet normal -0.997836 0.0657447 0
    outer loop
      vertex 44.9914 -0.130526 -1
      vertex 45 0 1
      vertex 45 0 -1
    endloop
  endfacet
  facet normal -0.997836 0.0657447 0
    outer loop
      vertex 45 0 1
      vertex 44.9914 -0.130526 -1
      vertex 44.9914 -0.130526 1
    endloop
  endfacet
  facet normal -0.896734 -0.442569 0
    outer loop
      vertex 44.9239 0.382683 -1
      vertex 44.866 0.5 1
      vertex 44.866 0.5 -1
    endloop
  endfacet
  facet normal -0.896734 -0.442569 0
    outer loop
      vertex 44.866 0.5 1
      vertex 44.9239 0.382683 -1
      vertex 44.9239 0.382683 1
    endloop
  endfacet
  facet normal -0.659515 0.751691 0
    outer loop
      vertex 44.7071 -0.707107 -1
      vertex 44.6088 -0.793353 1
      vertex 44.7071 -0.707107 1
    endloop
  endfacet
  facet normal -0.659515 0.751691 0
    outer loop
      vertex 44.6088 -0.793353 1
      vertex 44.7071 -0.707107 -1
      vertex 44.6088 -0.793353 -1
    endloop
  endfacet
  facet normal -0.659515 -0.751691 0
    outer loop
      vertex 44.6088 0.793353 -1
      vertex 44.7071 0.707107 1
      vertex 44.6088 0.793353 1
    endloop
  endfacet
  facet normal -0.659515 -0.751691 -0
    outer loop
      vertex 44.7071 0.707107 1
      vertex 44.6088 0.793353 -1
      vertex 44.7071 0.707107 -1
    endloop
  endfacet
  facet normal 0.0654151 -0.997858 0
    outer loop
      vertex 43.8695 0.991445 -1
      vertex 44 1 1
      vertex 43.8695 0.991445 1
    endloop
  endfacet
  facet normal 0.0654151 -0.997858 0
    outer loop
      vertex 44 1 1
      vertex 43.8695 0.991445 -1
      vertex 44 1 -1
    endloop
  endfacet
  facet normal 0.442338 -0.896848 0
    outer loop
      vertex 43.5 0.866025 -1
      vertex 43.6173 0.923879 1
      vertex 43.5 0.866025 1
    endloop
  endfacet
  facet normal 0.442338 -0.896848 0
    outer loop
      vertex 43.6173 0.923879 1
      vertex 43.5 0.866025 -1
      vertex 43.6173 0.923879 -1
    endloop
  endfacet
  facet normal -0.0654151 -0.997858 0
    outer loop
      vertex 44 1 -1
      vertex 44.1305 0.991445 1
      vertex 44 1 1
    endloop
  endfacet
  facet normal -0.0654151 -0.997858 -0
    outer loop
      vertex 44.1305 0.991445 1
      vertex 44 1 -1
      vertex 44.1305 0.991445 -1
    endloop
  endfacet
  facet normal -0.831723 0.555191 0
    outer loop
      vertex 44.7934 -0.608761 -1
      vertex 44.866 -0.5 1
      vertex 44.866 -0.5 -1
    endloop
  endfacet
  facet normal -0.831723 0.555191 0
    outer loop
      vertex 44.866 -0.5 1
      vertex 44.7934 -0.608761 -1
      vertex 44.7934 -0.608761 1
    endloop
  endfacet
  facet normal 0.947038 0.321123 0
    outer loop
      vertex 43.0761 -0.382683 1
      vertex 43.0341 -0.258819 -1
      vertex 43.0341 -0.258819 1
    endloop
  endfacet
  facet normal 0.947038 0.321123 0
    outer loop
      vertex 43.0341 -0.258819 -1
      vertex 43.0761 -0.382683 1
      vertex 43.0761 -0.382683 -1
    endloop
  endfacet
  facet normal 0.896734 -0.442569 0
    outer loop
      vertex 43.0761 0.382683 1
      vertex 43.134 0.5 -1
      vertex 43.134 0.5 1
    endloop
  endfacet
  facet normal 0.896734 -0.442569 0
    outer loop
      vertex 43.134 0.5 -1
      vertex 43.0761 0.382683 1
      vertex 43.0761 0.382683 -1
    endloop
  endfacet
  facet normal -0.896734 0.442569 0
    outer loop
      vertex 44.866 -0.5 -1
      vertex 44.9239 -0.382683 1
      vertex 44.9239 -0.382683 -1
    endloop
  endfacet
  facet normal -0.896734 0.442569 0
    outer loop
      vertex 44.9239 -0.382683 1
      vertex 44.866 -0.5 -1
      vertex 44.866 -0.5 1
    endloop
  endfacet
  facet normal -0.442338 0.896848 0
    outer loop
      vertex 44.5 -0.866025 -1
      vertex 44.3827 -0.923879 1
      vertex 44.5 -0.866025 1
    endloop
  endfacet
  facet normal -0.442338 0.896848 0
    outer loop
      vertex 44.3827 -0.923879 1
      vertex 44.5 -0.866025 -1
      vertex 44.3827 -0.923879 -1
    endloop
  endfacet
  facet normal -0.321355 0.946959 0
    outer loop
      vertex 44.3827 -0.923879 -1
      vertex 44.2588 -0.965925 1
      vertex 44.3827 -0.923879 1
    endloop
  endfacet
  facet normal -0.321355 0.946959 0
    outer loop
      vertex 44.2588 -0.965925 1
      vertex 44.3827 -0.923879 -1
      vertex 44.2588 -0.965925 -1
    endloop
  endfacet
  facet normal 0.980813 -0.19495 0
    outer loop
      vertex 43.0086 0.130526 1
      vertex 43.0341 0.258819 -1
      vertex 43.0341 0.258819 1
    endloop
  endfacet
  facet normal 0.980813 -0.19495 0
    outer loop
      vertex 43.0341 0.258819 -1
      vertex 43.0086 0.130526 1
      vertex 43.0086 0.130526 -1
    endloop
  endfacet
  facet normal 0.751639 0.659574 0
    outer loop
      vertex 43.2929 -0.707107 1
      vertex 43.2066 -0.608761 -1
      vertex 43.2066 -0.608761 1
    endloop
  endfacet
  facet normal 0.751639 0.659574 0
    outer loop
      vertex 43.2066 -0.608761 -1
      vertex 43.2929 -0.707107 1
      vertex 43.2929 -0.707107 -1
    endloop
  endfacet
  facet normal -0.555434 0.831561 0
    outer loop
      vertex 44.6088 -0.793353 -1
      vertex 44.5 -0.866025 1
      vertex 44.6088 -0.793353 1
    endloop
  endfacet
  facet normal -0.555434 0.831561 0
    outer loop
      vertex 44.5 -0.866025 1
      vertex 44.6088 -0.793353 -1
      vertex 44.5 -0.866025 -1
    endloop
  endfacet
  facet normal 0.751639 -0.659574 0
    outer loop
      vertex 43.2066 0.608761 1
      vertex 43.2929 0.707107 -1
      vertex 43.2929 0.707107 1
    endloop
  endfacet
  facet normal 0.751639 -0.659574 0
    outer loop
      vertex 43.2929 0.707107 -1
      vertex 43.2066 0.608761 1
      vertex 43.2066 0.608761 -1
    endloop
  endfacet
  facet normal -0.751639 0.659574 0
    outer loop
      vertex 44.7071 -0.707107 -1
      vertex 44.7934 -0.608761 1
      vertex 44.7934 -0.608761 -1
    endloop
  endfacet
  facet normal -0.751639 0.659574 0
    outer loop
      vertex 44.7934 -0.608761 1
      vertex 44.7071 -0.707107 -1
      vertex 44.7071 -0.707107 1
    endloop
  endfacet
  facet normal -0.831723 -0.555191 0
    outer loop
      vertex 44.866 0.5 -1
      vertex 44.7934 0.608761 1
      vertex 44.7934 0.608761 -1
    endloop
  endfacet
  facet normal -0.831723 -0.555191 0
    outer loop
      vertex 44.7934 0.608761 1
      vertex 44.866 0.5 -1
      vertex 44.866 0.5 1
    endloop
  endfacet
  facet normal 0.195087 0.980786 -0
    outer loop
      vertex 43.8695 -0.991445 -1
      vertex 43.7412 -0.965925 1
      vertex 43.8695 -0.991445 1
    endloop
  endfacet
  facet normal 0.195087 0.980786 0
    outer loop
      vertex 43.7412 -0.965925 1
      vertex 43.8695 -0.991445 -1
      vertex 43.7412 -0.965925 -1
    endloop
  endfacet
  facet normal -0.195087 0.980786 0
    outer loop
      vertex 44.2588 -0.965925 -1
      vertex 44.1305 -0.991445 1
      vertex 44.2588 -0.965925 1
    endloop
  endfacet
  facet normal -0.195087 0.980786 0
    outer loop
      vertex 44.1305 -0.991445 1
      vertex 44.2588 -0.965925 -1
      vertex 44.1305 -0.991445 -1
    endloop
  endfacet
  facet normal -0.555434 -0.831561 0
    outer loop
      vertex 44.5 0.866025 -1
      vertex 44.6088 0.793353 1
      vertex 44.5 0.866025 1
    endloop
  endfacet
  facet normal -0.555434 -0.831561 -0
    outer loop
      vertex 44.6088 0.793353 1
      vertex 44.5 0.866025 -1
      vertex 44.6088 0.793353 -1
    endloop
  endfacet
  facet normal -0.980813 0.19495 0
    outer loop
      vertex 44.9659 -0.258819 -1
      vertex 44.9914 -0.130526 1
      vertex 44.9914 -0.130526 -1
    endloop
  endfacet
  facet normal -0.980813 0.19495 0
    outer loop
      vertex 44.9914 -0.130526 1
      vertex 44.9659 -0.258819 -1
      vertex 44.9659 -0.258819 1
    endloop
  endfacet
  facet normal 0.831723 0.555191 0
    outer loop
      vertex 43.2066 -0.608761 1
      vertex 43.134 -0.5 -1
      vertex 43.134 -0.5 1
    endloop
  endfacet
  facet normal 0.831723 0.555191 0
    outer loop
      vertex 43.134 -0.5 -1
      vertex 43.2066 -0.608761 1
      vertex 43.2066 -0.608761 -1
    endloop
  endfacet
  facet normal 0.195087 -0.980786 0
    outer loop
      vertex 43.7412 0.965925 -1
      vertex 43.8695 0.991445 1
      vertex 43.7412 0.965925 1
    endloop
  endfacet
  facet normal 0.195087 -0.980786 0
    outer loop
      vertex 43.8695 0.991445 1
      vertex 43.7412 0.965925 -1
      vertex 43.8695 0.991445 -1
    endloop
  endfacet
  facet normal -0.0654151 0.997858 0
    outer loop
      vertex 44.1305 -0.991445 -1
      vertex 44 -1 1
      vertex 44.1305 -0.991445 1
    endloop
  endfacet
  facet normal -0.0654151 0.997858 0
    outer loop
      vertex 44 -1 1
      vertex 44.1305 -0.991445 -1
      vertex 44 -1 -1
    endloop
  endfacet
  facet normal 0.555434 -0.831561 0
    outer loop
      vertex 43.3912 0.793353 -1
      vertex 43.5 0.866025 1
      vertex 43.3912 0.793353 1
    endloop
  endfacet
  facet normal 0.555434 -0.831561 0
    outer loop
      vertex 43.5 0.866025 1
      vertex 43.3912 0.793353 -1
      vertex 43.5 0.866025 -1
    endloop
  endfacet
  facet normal 0.0654151 0.997858 -0
    outer loop
      vertex 44 -1 -1
      vertex 43.8695 -0.991445 1
      vertex 44 -1 1
    endloop
  endfacet
  facet normal 0.0654151 0.997858 0
    outer loop
      vertex 43.8695 -0.991445 1
      vertex 44 -1 -1
      vertex 43.8695 -0.991445 -1
    endloop
  endfacet
  facet normal 0.997836 0.0657447 0
    outer loop
      vertex 43.0086 -0.130526 1
      vertex 43 0 -1
      vertex 43 0 1
    endloop
  endfacet
  facet normal 0.997836 0.0657447 0
    outer loop
      vertex 43 0 -1
      vertex 43.0086 -0.130526 1
      vertex 43.0086 -0.130526 -1
    endloop
  endfacet
  facet normal 0.659515 0.751691 -0
    outer loop
      vertex 43.3912 -0.793353 -1
      vertex 43.2929 -0.707107 1
      vertex 43.3912 -0.793353 1
    endloop
  endfacet
  facet normal 0.659515 0.751691 0
    outer loop
      vertex 43.2929 -0.707107 1
      vertex 43.3912 -0.793353 -1
      vertex 43.2929 -0.707107 -1
    endloop
  endfacet
  facet normal 0.980813 0.19495 0
    outer loop
      vertex 43.0341 -0.258819 1
      vertex 43.0086 -0.130526 -1
      vertex 43.0086 -0.130526 1
    endloop
  endfacet
  facet normal 0.980813 0.19495 0
    outer loop
      vertex 43.0086 -0.130526 -1
      vertex 43.0341 -0.258819 1
      vertex 43.0341 -0.258819 -1
    endloop
  endfacet
  facet normal 0.555434 0.831561 -0
    outer loop
      vertex 43.5 -0.866025 -1
      vertex 43.3912 -0.793353 1
      vertex 43.5 -0.866025 1
    endloop
  endfacet
  facet normal 0.555434 0.831561 0
    outer loop
      vertex 43.3912 -0.793353 1
      vertex 43.5 -0.866025 -1
      vertex 43.3912 -0.793353 -1
    endloop
  endfacet
  facet normal -0.751639 -0.659574 0
    outer loop
      vertex 44.7934 0.608761 -1
      vertex 44.7071 0.707107 1
      vertex 44.7071 0.707107 -1
    endloop
  endfacet
  facet normal -0.751639 -0.659574 0
    outer loop
      vertex 44.7071 0.707107 1
      vertex 44.7934 0.608761 -1
      vertex 44.7934 0.608761 1
    endloop
  endfacet
  facet normal -0.947038 -0.321123 0
    outer loop
      vertex 44.9659 0.258819 -1
      vertex 44.9239 0.382683 1
      vertex 44.9239 0.382683 -1
    endloop
  endfacet
  facet normal -0.947038 -0.321123 0
    outer loop
      vertex 44.9239 0.382683 1
      vertex 44.9659 0.258819 -1
      vertex 44.9659 0.258819 1
    endloop
  endfacet
  facet normal 0.321355 -0.946959 0
    outer loop
      vertex 43.6173 0.923879 -1
      vertex 43.7412 0.965925 1
      vertex 43.6173 0.923879 1
    endloop
  endfacet
  facet normal 0.321355 -0.946959 0
    outer loop
      vertex 43.7412 0.965925 1
      vertex 43.6173 0.923879 -1
      vertex 43.7412 0.965925 -1
    endloop
  endfacet
  facet normal 0.442338 0.896848 -0
    outer loop
      vertex 43.6173 -0.923879 -1
      vertex 43.5 -0.866025 1
      vertex 43.6173 -0.923879 1
    endloop
  endfacet
  facet normal 0.442338 0.896848 0
    outer loop
      vertex 43.5 -0.866025 1
      vertex 43.6173 -0.923879 -1
      vertex 43.5 -0.866025 -1
    endloop
  endfacet
  facet normal 0.659515 -0.751691 0
    outer loop
      vertex 43.2929 0.707107 -1
      vertex 43.3912 0.793353 1
      vertex 43.2929 0.707107 1
    endloop
  endfacet
  facet normal 0.659515 -0.751691 0
    outer loop
      vertex 43.3912 0.793353 1
      vertex 43.2929 0.707107 -1
      vertex 43.3912 0.793353 -1
    endloop
  endfacet
  facet normal 0.831723 -0.555191 0
    outer loop
      vertex 43.134 0.5 1
      vertex 43.2066 0.608761 -1
      vertex 43.2066 0.608761 1
    endloop
  endfacet
  facet normal 0.831723 -0.555191 0
    outer loop
      vertex 43.2066 0.608761 -1
      vertex 43.134 0.5 1
      vertex 43.134 0.5 -1
    endloop
  endfacet
  facet normal 0.321355 0.946959 -0
    outer loop
      vertex 43.7412 -0.965925 -1
      vertex 43.6173 -0.923879 1
      vertex 43.7412 -0.965925 1
    endloop
  endfacet
  facet normal 0.321355 0.946959 0
    outer loop
      vertex 43.6173 -0.923879 1
      vertex 43.7412 -0.965925 -1
      vertex 43.6173 -0.923879 -1
    endloop
  endfacet
  facet normal 0.947038 -0.321123 0
    outer loop
      vertex 43.0341 0.258819 1
      vertex 43.0761 0.382683 -1
      vertex 43.0761 0.382683 1
    endloop
  endfacet
  facet normal 0.947038 -0.321123 0
    outer loop
      vertex 43.0761 0.382683 -1
      vertex 43.0341 0.258819 1
      vertex 43.0341 0.258819 -1
    endloop
  endfacet
  facet normal 0.195675 0.980669 -0
    outer loop
      vertex -22.1305 63.0944 -1
      vertex -22.2588 63.12 1
      vertex -22.1305 63.0944 1
    endloop
  endfacet
  facet normal 0.195675 0.980669 0
    outer loop
      vertex -22.2588 63.12 1
      vertex -22.1305 63.0944 -1
      vertex -22.2588 63.12 -1
    endloop
  endfacet
  facet normal -0.980815 -0.19494 0
    outer loop
      vertex -21.0086 64.2164 -1
      vertex -21.0341 64.3447 1
      vertex -21.0341 64.3447 -1
    endloop
  endfacet
  facet normal -0.980815 -0.19494 0
    outer loop
      vertex -21.0341 64.3447 1
      vertex -21.0086 64.2164 -1
      vertex -21.0086 64.2164 1
    endloop
  endfacet
  facet normal -0.997836 -0.0657577 0
    outer loop
      vertex -21 64.0859 -1
      vertex -21.0086 64.2164 1
      vertex -21.0086 64.2164 -1
    endloop
  endfacet
  facet normal -0.997836 -0.0657577 0
    outer loop
      vertex -21.0086 64.2164 1
      vertex -21 64.0859 -1
      vertex -21 64.0859 1
    endloop
  endfacet
  facet normal 0.896709 -0.442621 0
    outer loop
      vertex -22.9239 64.4686 1
      vertex -22.866 64.5859 -1
      vertex -22.866 64.5859 1
    endloop
  endfacet
  facet normal 0.896709 -0.442621 0
    outer loop
      vertex -22.866 64.5859 -1
      vertex -22.9239 64.4686 1
      vertex -22.9239 64.4686 -1
    endloop
  endfacet
  facet normal 0.321039 0.947066 -0
    outer loop
      vertex -22.2588 63.12 -1
      vertex -22.3827 63.162 1
      vertex -22.2588 63.12 1
    endloop
  endfacet
  facet normal 0.321039 0.947066 0
    outer loop
      vertex -22.3827 63.162 1
      vertex -22.2588 63.12 -1
      vertex -22.3827 63.162 -1
    endloop
  endfacet
  facet normal -0.980815 0.19494 0
    outer loop
      vertex -21.0341 63.8271 -1
      vertex -21.0086 63.9554 1
      vertex -21.0086 63.9554 -1
    endloop
  endfacet
  facet normal -0.980815 0.19494 0
    outer loop
      vertex -21.0086 63.9554 1
      vertex -21.0341 63.8271 -1
      vertex -21.0341 63.8271 1
    endloop
  endfacet
  facet normal -0.0657577 -0.997836 0
    outer loop
      vertex -22 65.0859 -1
      vertex -21.8695 65.0773 1
      vertex -22 65.0859 1
    endloop
  endfacet
  facet normal -0.0657577 -0.997836 -0
    outer loop
      vertex -21.8695 65.0773 1
      vertex -22 65.0859 -1
      vertex -21.8695 65.0773 -1
    endloop
  endfacet
  facet normal 0.947066 0.321039 0
    outer loop
      vertex -22.9239 63.7032 1
      vertex -22.9659 63.8271 -1
      vertex -22.9659 63.8271 1
    endloop
  endfacet
  facet normal 0.947066 0.321039 0
    outer loop
      vertex -22.9659 63.8271 -1
      vertex -22.9239 63.7032 1
      vertex -22.9239 63.7032 -1
    endloop
  endfacet
  facet normal -0.195675 0.980669 0
    outer loop
      vertex -21.7412 63.12 -1
      vertex -21.8695 63.0944 1
      vertex -21.7412 63.12 1
    endloop
  endfacet
  facet normal -0.195675 0.980669 0
    outer loop
      vertex -21.8695 63.0944 1
      vertex -21.7412 63.12 -1
      vertex -21.8695 63.0944 -1
    endloop
  endfacet
  facet normal 0.980815 -0.19494 0
    outer loop
      vertex -22.9914 64.2164 1
      vertex -22.9659 64.3447 -1
      vertex -22.9659 64.3447 1
    endloop
  endfacet
  facet normal 0.980815 -0.19494 0
    outer loop
      vertex -22.9659 64.3447 -1
      vertex -22.9914 64.2164 1
      vertex -22.9914 64.2164 -1
    endloop
  endfacet
  facet normal 0.659316 -0.751866 0
    outer loop
      vertex -22.7071 64.793 -1
      vertex -22.6088 64.8792 1
      vertex -22.7071 64.793 1
    endloop
  endfacet
  facet normal 0.659316 -0.751866 0
    outer loop
      vertex -22.6088 64.8792 1
      vertex -22.7071 64.793 -1
      vertex -22.6088 64.8792 -1
    endloop
  endfacet
  facet normal -0.896709 0.442621 0
    outer loop
      vertex -21.134 63.5859 -1
      vertex -21.0761 63.7032 1
      vertex -21.0761 63.7032 -1
    endloop
  endfacet
  facet normal -0.896709 0.442621 0
    outer loop
      vertex -21.0761 63.7032 1
      vertex -21.134 63.5859 -1
      vertex -21.134 63.5859 1
    endloop
  endfacet
  facet normal -0.831815 0.555053 0
    outer loop
      vertex -21.2066 63.4771 -1
      vertex -21.134 63.5859 1
      vertex -21.134 63.5859 -1
    endloop
  endfacet
  facet normal -0.831815 0.555053 0
    outer loop
      vertex -21.134 63.5859 1
      vertex -21.2066 63.4771 -1
      vertex -21.2066 63.4771 1
    endloop
  endfacet
  facet normal -0.321039 0.947066 0
    outer loop
      vertex -21.6173 63.162 -1
      vertex -21.7412 63.12 1
      vertex -21.6173 63.162 1
    endloop
  endfacet
  facet normal -0.321039 0.947066 0
    outer loop
      vertex -21.7412 63.12 1
      vertex -21.6173 63.162 -1
      vertex -21.7412 63.12 -1
    endloop
  endfacet
  facet normal -0.442621 -0.896709 0
    outer loop
      vertex -21.6173 65.0098 -1
      vertex -21.5 64.9519 1
      vertex -21.6173 65.0098 1
    endloop
  endfacet
  facet normal -0.442621 -0.896709 -0
    outer loop
      vertex -21.5 64.9519 1
      vertex -21.6173 65.0098 -1
      vertex -21.5 64.9519 -1
    endloop
  endfacet
  facet normal 0.321039 -0.947066 0
    outer loop
      vertex -22.3827 65.0098 -1
      vertex -22.2588 65.0518 1
      vertex -22.3827 65.0098 1
    endloop
  endfacet
  facet normal 0.321039 -0.947066 0
    outer loop
      vertex -22.2588 65.0518 1
      vertex -22.3827 65.0098 -1
      vertex -22.2588 65.0518 -1
    endloop
  endfacet
  facet normal 0.0649964 0.997886 -0
    outer loop
      vertex -22 63.0859 -1
      vertex -22.1305 63.0944 1
      vertex -22 63.0859 1
    endloop
  endfacet
  facet normal 0.0649964 0.997886 0
    outer loop
      vertex -22.1305 63.0944 1
      vertex -22 63.0859 -1
      vertex -22.1305 63.0944 -1
    endloop
  endfacet
  facet normal 0.751486 0.659749 0
    outer loop
      vertex -22.7071 63.3788 1
      vertex -22.7934 63.4771 -1
      vertex -22.7934 63.4771 1
    endloop
  endfacet
  facet normal 0.751486 0.659749 0
    outer loop
      vertex -22.7934 63.4771 -1
      vertex -22.7071 63.3788 1
      vertex -22.7071 63.3788 -1
    endloop
  endfacet
  facet normal 0.19494 -0.980815 0
    outer loop
      vertex -22.2588 65.0518 -1
      vertex -22.1305 65.0773 1
      vertex -22.2588 65.0518 1
    endloop
  endfacet
  facet normal 0.19494 -0.980815 0
    outer loop
      vertex -22.1305 65.0773 1
      vertex -22.2588 65.0518 -1
      vertex -22.1305 65.0773 -1
    endloop
  endfacet
  facet normal -0.555582 -0.831462 0
    outer loop
      vertex -21.5 64.9519 -1
      vertex -21.3912 64.8792 1
      vertex -21.5 64.9519 1
    endloop
  endfacet
  facet normal -0.555582 -0.831462 -0
    outer loop
      vertex -21.3912 64.8792 1
      vertex -21.5 64.9519 -1
      vertex -21.3912 64.8792 -1
    endloop
  endfacet
  facet normal -0.831579 -0.555406 0
    outer loop
      vertex -21.134 64.5859 -1
      vertex -21.2066 64.6946 1
      vertex -21.2066 64.6946 -1
    endloop
  endfacet
  facet normal -0.831579 -0.555406 0
    outer loop
      vertex -21.2066 64.6946 1
      vertex -21.134 64.5859 -1
      vertex -21.134 64.5859 1
    endloop
  endfacet
  facet normal 0.442621 -0.896709 0
    outer loop
      vertex -22.5 64.9519 -1
      vertex -22.3827 65.0098 1
      vertex -22.5 64.9519 1
    endloop
  endfacet
  facet normal 0.442621 -0.896709 0
    outer loop
      vertex -22.3827 65.0098 1
      vertex -22.5 64.9519 -1
      vertex -22.3827 65.0098 -1
    endloop
  endfacet
  facet normal -0.947066 0.321039 0
    outer loop
      vertex -21.0761 63.7032 -1
      vertex -21.0341 63.8271 1
      vertex -21.0341 63.8271 -1
    endloop
  endfacet
  facet normal -0.947066 0.321039 0
    outer loop
      vertex -21.0341 63.8271 1
      vertex -21.0761 63.7032 -1
      vertex -21.0761 63.7032 1
    endloop
  endfacet
  facet normal -0.997836 0.0657577 0
    outer loop
      vertex -21.0086 63.9554 -1
      vertex -21 64.0859 1
      vertex -21 64.0859 -1
    endloop
  endfacet
  facet normal -0.997836 0.0657577 0
    outer loop
      vertex -21 64.0859 1
      vertex -21.0086 63.9554 -1
      vertex -21.0086 63.9554 1
    endloop
  endfacet
  facet normal -0.751819 -0.65937 0
    outer loop
      vertex -21.2066 64.6946 -1
      vertex -21.2929 64.793 1
      vertex -21.2929 64.793 -1
    endloop
  endfacet
  facet normal -0.751819 -0.65937 0
    outer loop
      vertex -21.2929 64.793 1
      vertex -21.2066 64.6946 -1
      vertex -21.2066 64.6946 1
    endloop
  endfacet
  facet normal 0.0657577 -0.997836 0
    outer loop
      vertex -22.1305 65.0773 -1
      vertex -22 65.0859 1
      vertex -22.1305 65.0773 1
    endloop
  endfacet
  facet normal 0.0657577 -0.997836 0
    outer loop
      vertex -22 65.0859 1
      vertex -22.1305 65.0773 -1
      vertex -22 65.0859 -1
    endloop
  endfacet
  facet normal 0.980815 0.19494 0
    outer loop
      vertex -22.9659 63.8271 1
      vertex -22.9914 63.9554 -1
      vertex -22.9914 63.9554 1
    endloop
  endfacet
  facet normal 0.980815 0.19494 0
    outer loop
      vertex -22.9914 63.9554 -1
      vertex -22.9659 63.8271 1
      vertex -22.9659 63.8271 -1
    endloop
  endfacet
  facet normal -0.19494 -0.980815 0
    outer loop
      vertex -21.8695 65.0773 -1
      vertex -21.7412 65.0518 1
      vertex -21.8695 65.0773 1
    endloop
  endfacet
  facet normal -0.19494 -0.980815 -0
    outer loop
      vertex -21.7412 65.0518 1
      vertex -21.8695 65.0773 -1
      vertex -21.7412 65.0518 -1
    endloop
  endfacet
  facet normal 0.896709 0.442621 0
    outer loop
      vertex -22.866 63.5859 1
      vertex -22.9239 63.7032 -1
      vertex -22.9239 63.7032 1
    endloop
  endfacet
  facet normal 0.896709 0.442621 0
    outer loop
      vertex -22.9239 63.7032 -1
      vertex -22.866 63.5859 1
      vertex -22.866 63.5859 -1
    endloop
  endfacet
  facet normal 0.997836 -0.0657577 0
    outer loop
      vertex -23 64.0859 1
      vertex -22.9914 64.2164 -1
      vertex -22.9914 64.2164 1
    endloop
  endfacet
  facet normal 0.997836 -0.0657577 0
    outer loop
      vertex -22.9914 64.2164 -1
      vertex -23 64.0859 1
      vertex -23 64.0859 -1
    endloop
  endfacet
  facet normal -0.896709 -0.442621 0
    outer loop
      vertex -21.0761 64.4686 -1
      vertex -21.134 64.5859 1
      vertex -21.134 64.5859 -1
    endloop
  endfacet
  facet normal -0.896709 -0.442621 0
    outer loop
      vertex -21.134 64.5859 1
      vertex -21.0761 64.4686 -1
      vertex -21.0761 64.4686 1
    endloop
  endfacet
  facet normal -0.0649964 0.997886 0
    outer loop
      vertex -21.8695 63.0944 -1
      vertex -22 63.0859 1
      vertex -21.8695 63.0944 1
    endloop
  endfacet
  facet normal -0.0649964 0.997886 0
    outer loop
      vertex -22 63.0859 1
      vertex -21.8695 63.0944 -1
      vertex -22 63.0859 -1
    endloop
  endfacet
  facet normal -0.659316 -0.751866 0
    outer loop
      vertex -21.3912 64.8792 -1
      vertex -21.2929 64.793 1
      vertex -21.3912 64.8792 1
    endloop
  endfacet
  facet normal -0.659316 -0.751866 -0
    outer loop
      vertex -21.2929 64.793 1
      vertex -21.3912 64.8792 -1
      vertex -21.2929 64.793 -1
    endloop
  endfacet
  facet normal 0.555582 -0.831462 0
    outer loop
      vertex -22.6088 64.8792 -1
      vertex -22.5 64.9519 1
      vertex -22.6088 64.8792 1
    endloop
  endfacet
  facet normal 0.555582 -0.831462 0
    outer loop
      vertex -22.5 64.9519 1
      vertex -22.6088 64.8792 -1
      vertex -22.5 64.9519 -1
    endloop
  endfacet
  facet normal 0.751819 -0.65937 0
    outer loop
      vertex -22.7934 64.6946 1
      vertex -22.7071 64.793 -1
      vertex -22.7071 64.793 1
    endloop
  endfacet
  facet normal 0.751819 -0.65937 0
    outer loop
      vertex -22.7071 64.793 -1
      vertex -22.7934 64.6946 1
      vertex -22.7934 64.6946 -1
    endloop
  endfacet
  facet normal 0.997836 0.0657577 0
    outer loop
      vertex -22.9914 63.9554 1
      vertex -23 64.0859 -1
      vertex -23 64.0859 1
    endloop
  endfacet
  facet normal 0.997836 0.0657577 0
    outer loop
      vertex -23 64.0859 -1
      vertex -22.9914 63.9554 1
      vertex -22.9914 63.9554 -1
    endloop
  endfacet
  facet normal -0.321039 -0.947066 0
    outer loop
      vertex -21.7412 65.0518 -1
      vertex -21.6173 65.0098 1
      vertex -21.7412 65.0518 1
    endloop
  endfacet
  facet normal -0.321039 -0.947066 -0
    outer loop
      vertex -21.6173 65.0098 1
      vertex -21.7412 65.0518 -1
      vertex -21.6173 65.0098 -1
    endloop
  endfacet
  facet normal 0.947066 -0.321039 0
    outer loop
      vertex -22.9659 64.3447 1
      vertex -22.9239 64.4686 -1
      vertex -22.9239 64.4686 1
    endloop
  endfacet
  facet normal 0.947066 -0.321039 0
    outer loop
      vertex -22.9239 64.4686 -1
      vertex -22.9659 64.3447 1
      vertex -22.9659 64.3447 -1
    endloop
  endfacet
  facet normal -0.947066 -0.321039 0
    outer loop
      vertex -21.0341 64.3447 -1
      vertex -21.0761 64.4686 1
      vertex -21.0761 64.4686 -1
    endloop
  endfacet
  facet normal -0.947066 -0.321039 0
    outer loop
      vertex -21.0761 64.4686 1
      vertex -21.0341 64.3447 -1
      vertex -21.0341 64.3447 1
    endloop
  endfacet
  facet normal 0.831579 -0.555406 0
    outer loop
      vertex -22.866 64.5859 1
      vertex -22.7934 64.6946 -1
      vertex -22.7934 64.6946 1
    endloop
  endfacet
  facet normal 0.831579 -0.555406 0
    outer loop
      vertex -22.7934 64.6946 -1
      vertex -22.866 64.5859 1
      vertex -22.866 64.5859 -1
    endloop
  endfacet
  facet normal -0.555053 0.831815 0
    outer loop
      vertex -21.3912 63.2925 -1
      vertex -21.5 63.2199 1
      vertex -21.3912 63.2925 1
    endloop
  endfacet
  facet normal -0.555053 0.831815 0
    outer loop
      vertex -21.5 63.2199 1
      vertex -21.3912 63.2925 -1
      vertex -21.5 63.2199 -1
    endloop
  endfacet
  facet normal 0.659749 0.751486 -0
    outer loop
      vertex -22.6088 63.2925 -1
      vertex -22.7071 63.3788 1
      vertex -22.6088 63.2925 1
    endloop
  endfacet
  facet normal 0.659749 0.751486 0
    outer loop
      vertex -22.7071 63.3788 1
      vertex -22.6088 63.2925 -1
      vertex -22.7071 63.3788 -1
    endloop
  endfacet
  facet normal -0.442621 0.896709 0
    outer loop
      vertex -21.5 63.2199 -1
      vertex -21.6173 63.162 1
      vertex -21.5 63.2199 1
    endloop
  endfacet
  facet normal -0.442621 0.896709 0
    outer loop
      vertex -21.6173 63.162 1
      vertex -21.5 63.2199 -1
      vertex -21.6173 63.162 -1
    endloop
  endfacet
  facet normal -0.751486 0.659749 0
    outer loop
      vertex -21.2929 63.3788 -1
      vertex -21.2066 63.4771 1
      vertex -21.2066 63.4771 -1
    endloop
  endfacet
  facet normal -0.751486 0.659749 0
    outer loop
      vertex -21.2066 63.4771 1
      vertex -21.2929 63.3788 -1
      vertex -21.2929 63.3788 1
    endloop
  endfacet
  facet normal 0.831815 0.555053 0
    outer loop
      vertex -22.7934 63.4771 1
      vertex -22.866 63.5859 -1
      vertex -22.866 63.5859 1
    endloop
  endfacet
  facet normal 0.831815 0.555053 0
    outer loop
      vertex -22.866 63.5859 -1
      vertex -22.7934 63.4771 1
      vertex -22.7934 63.4771 -1
    endloop
  endfacet
  facet normal 0.555053 0.831815 -0
    outer loop
      vertex -22.5 63.2199 -1
      vertex -22.6088 63.2925 1
      vertex -22.5 63.2199 1
    endloop
  endfacet
  facet normal 0.555053 0.831815 0
    outer loop
      vertex -22.6088 63.2925 1
      vertex -22.5 63.2199 -1
      vertex -22.6088 63.2925 -1
    endloop
  endfacet
  facet normal 0.442621 0.896709 -0
    outer loop
      vertex -22.3827 63.162 -1
      vertex -22.5 63.2199 1
      vertex -22.3827 63.162 1
    endloop
  endfacet
  facet normal 0.442621 0.896709 0
    outer loop
      vertex -22.5 63.2199 1
      vertex -22.3827 63.162 -1
      vertex -22.5 63.2199 -1
    endloop
  endfacet
  facet normal -0.659749 0.751486 0
    outer loop
      vertex -21.2929 63.3788 -1
      vertex -21.3912 63.2925 1
      vertex -21.2929 63.3788 1
    endloop
  endfacet
  facet normal -0.659749 0.751486 0
    outer loop
      vertex -21.3912 63.2925 1
      vertex -21.2929 63.3788 -1
      vertex -21.3912 63.2925 -1
    endloop
  endfacet
  facet normal -0.980815 -0.19494 0
    outer loop
      vertex -21.0086 -63.9554 -1
      vertex -21.0341 -63.8271 1
      vertex -21.0341 -63.8271 -1
    endloop
  endfacet
  facet normal -0.980815 -0.19494 0
    outer loop
      vertex -21.0341 -63.8271 1
      vertex -21.0086 -63.9554 -1
      vertex -21.0086 -63.9554 1
    endloop
  endfacet
  facet normal -0.997836 -0.0657577 0
    outer loop
      vertex -21 -64.0859 -1
      vertex -21.0086 -63.9554 1
      vertex -21.0086 -63.9554 -1
    endloop
  endfacet
  facet normal -0.997836 -0.0657577 0
    outer loop
      vertex -21.0086 -63.9554 1
      vertex -21 -64.0859 -1
      vertex -21 -64.0859 1
    endloop
  endfacet
  facet normal -0.947066 -0.321039 0
    outer loop
      vertex -21.0341 -63.8271 -1
      vertex -21.0761 -63.7032 1
      vertex -21.0761 -63.7032 -1
    endloop
  endfacet
  facet normal -0.947066 -0.321039 0
    outer loop
      vertex -21.0761 -63.7032 1
      vertex -21.0341 -63.8271 -1
      vertex -21.0341 -63.8271 1
    endloop
  endfacet
  facet normal 0.997836 0.0657577 0
    outer loop
      vertex -22.9914 -64.2164 1
      vertex -23 -64.0859 -1
      vertex -23 -64.0859 1
    endloop
  endfacet
  facet normal 0.997836 0.0657577 0
    outer loop
      vertex -23 -64.0859 -1
      vertex -22.9914 -64.2164 1
      vertex -22.9914 -64.2164 -1
    endloop
  endfacet
  facet normal -0.19494 0.980815 0
    outer loop
      vertex -21.7412 -65.0518 -1
      vertex -21.8695 -65.0773 1
      vertex -21.7412 -65.0518 1
    endloop
  endfacet
  facet normal -0.19494 0.980815 0
    outer loop
      vertex -21.8695 -65.0773 1
      vertex -21.7412 -65.0518 -1
      vertex -21.8695 -65.0773 -1
    endloop
  endfacet
  facet normal -0.555053 -0.831815 0
    outer loop
      vertex -21.5 -63.2199 -1
      vertex -21.3912 -63.2925 1
      vertex -21.5 -63.2199 1
    endloop
  endfacet
  facet normal -0.555053 -0.831815 -0
    outer loop
      vertex -21.3912 -63.2925 1
      vertex -21.5 -63.2199 -1
      vertex -21.3912 -63.2925 -1
    endloop
  endfacet
  facet normal 0.555053 -0.831815 0
    outer loop
      vertex -22.6088 -63.2925 -1
      vertex -22.5 -63.2199 1
      vertex -22.6088 -63.2925 1
    endloop
  endfacet
  facet normal 0.555053 -0.831815 0
    outer loop
      vertex -22.5 -63.2199 1
      vertex -22.6088 -63.2925 -1
      vertex -22.5 -63.2199 -1
    endloop
  endfacet
  facet normal -0.980815 0.19494 0
    outer loop
      vertex -21.0341 -64.3447 -1
      vertex -21.0086 -64.2164 1
      vertex -21.0086 -64.2164 -1
    endloop
  endfacet
  facet normal -0.980815 0.19494 0
    outer loop
      vertex -21.0086 -64.2164 1
      vertex -21.0341 -64.3447 -1
      vertex -21.0341 -64.3447 1
    endloop
  endfacet
  facet normal 0.947066 0.321039 0
    outer loop
      vertex -22.9239 -64.4686 1
      vertex -22.9659 -64.3447 -1
      vertex -22.9659 -64.3447 1
    endloop
  endfacet
  facet normal 0.947066 0.321039 0
    outer loop
      vertex -22.9659 -64.3447 -1
      vertex -22.9239 -64.4686 1
      vertex -22.9239 -64.4686 -1
    endloop
  endfacet
  facet normal -0.659749 -0.751486 0
    outer loop
      vertex -21.3912 -63.2925 -1
      vertex -21.2929 -63.3788 1
      vertex -21.3912 -63.2925 1
    endloop
  endfacet
  facet normal -0.659749 -0.751486 -0
    outer loop
      vertex -21.2929 -63.3788 1
      vertex -21.3912 -63.2925 -1
      vertex -21.2929 -63.3788 -1
    endloop
  endfacet
  facet normal 0.980815 -0.19494 0
    outer loop
      vertex -22.9914 -63.9554 1
      vertex -22.9659 -63.8271 -1
      vertex -22.9659 -63.8271 1
    endloop
  endfacet
  facet normal 0.980815 -0.19494 0
    outer loop
      vertex -22.9659 -63.8271 -1
      vertex -22.9914 -63.9554 1
      vertex -22.9914 -63.9554 -1
    endloop
  endfacet
  facet normal -0.896709 -0.442621 0
    outer loop
      vertex -21.0761 -63.7032 -1
      vertex -21.134 -63.5859 1
      vertex -21.134 -63.5859 -1
    endloop
  endfacet
  facet normal -0.896709 -0.442621 0
    outer loop
      vertex -21.134 -63.5859 1
      vertex -21.0761 -63.7032 -1
      vertex -21.0761 -63.7032 1
    endloop
  endfacet
  facet normal -0.831579 0.555406 0
    outer loop
      vertex -21.2066 -64.6946 -1
      vertex -21.134 -64.5859 1
      vertex -21.134 -64.5859 -1
    endloop
  endfacet
  facet normal -0.831579 0.555406 0
    outer loop
      vertex -21.134 -64.5859 1
      vertex -21.2066 -64.6946 -1
      vertex -21.2066 -64.6946 1
    endloop
  endfacet
  facet normal 0.751819 0.65937 0
    outer loop
      vertex -22.7071 -64.793 1
      vertex -22.7934 -64.6946 -1
      vertex -22.7934 -64.6946 1
    endloop
  endfacet
  facet normal 0.751819 0.65937 0
    outer loop
      vertex -22.7934 -64.6946 -1
      vertex -22.7071 -64.793 1
      vertex -22.7071 -64.793 -1
    endloop
  endfacet
  facet normal 0.997836 -0.0657577 0
    outer loop
      vertex -23 -64.0859 1
      vertex -22.9914 -63.9554 -1
      vertex -22.9914 -63.9554 1
    endloop
  endfacet
  facet normal 0.997836 -0.0657577 0
    outer loop
      vertex -22.9914 -63.9554 -1
      vertex -23 -64.0859 1
      vertex -23 -64.0859 -1
    endloop
  endfacet
  facet normal -0.896709 0.442621 0
    outer loop
      vertex -21.134 -64.5859 -1
      vertex -21.0761 -64.4686 1
      vertex -21.0761 -64.4686 -1
    endloop
  endfacet
  facet normal -0.896709 0.442621 0
    outer loop
      vertex -21.0761 -64.4686 1
      vertex -21.134 -64.5859 -1
      vertex -21.134 -64.5859 1
    endloop
  endfacet
  facet normal -0.751819 0.65937 0
    outer loop
      vertex -21.2929 -64.793 -1
      vertex -21.2066 -64.6946 1
      vertex -21.2066 -64.6946 -1
    endloop
  endfacet
  facet normal -0.751819 0.65937 0
    outer loop
      vertex -21.2066 -64.6946 1
      vertex -21.2929 -64.793 -1
      vertex -21.2929 -64.793 1
    endloop
  endfacet
  facet normal 0.442621 -0.896709 0
    outer loop
      vertex -22.5 -63.2199 -1
      vertex -22.3827 -63.162 1
      vertex -22.5 -63.2199 1
    endloop
  endfacet
  facet normal 0.442621 -0.896709 0
    outer loop
      vertex -22.3827 -63.162 1
      vertex -22.5 -63.2199 -1
      vertex -22.3827 -63.162 -1
    endloop
  endfacet
  facet normal 0.19494 0.980815 -0
    outer loop
      vertex -22.1305 -65.0773 -1
      vertex -22.2588 -65.0518 1
      vertex -22.1305 -65.0773 1
    endloop
  endfacet
  facet normal 0.19494 0.980815 0
    outer loop
      vertex -22.2588 -65.0518 1
      vertex -22.1305 -65.0773 -1
      vertex -22.2588 -65.0518 -1
    endloop
  endfacet
  facet normal -0.831815 -0.555053 0
    outer loop
      vertex -21.134 -63.5859 -1
      vertex -21.2066 -63.4771 1
      vertex -21.2066 -63.4771 -1
    endloop
  endfacet
  facet normal -0.831815 -0.555053 0
    outer loop
      vertex -21.2066 -63.4771 1
      vertex -21.134 -63.5859 -1
      vertex -21.134 -63.5859 1
    endloop
  endfacet
  facet normal 0.659749 -0.751486 0
    outer loop
      vertex -22.7071 -63.3788 -1
      vertex -22.6088 -63.2925 1
      vertex -22.7071 -63.3788 1
    endloop
  endfacet
  facet normal 0.659749 -0.751486 0
    outer loop
      vertex -22.6088 -63.2925 1
      vertex -22.7071 -63.3788 -1
      vertex -22.6088 -63.2925 -1
    endloop
  endfacet
  facet normal -0.659316 0.751866 0
    outer loop
      vertex -21.2929 -64.793 -1
      vertex -21.3912 -64.8792 1
      vertex -21.2929 -64.793 1
    endloop
  endfacet
  facet normal -0.659316 0.751866 0
    outer loop
      vertex -21.3912 -64.8792 1
      vertex -21.2929 -64.793 -1
      vertex -21.3912 -64.8792 -1
    endloop
  endfacet
  facet normal 0.195675 -0.980669 0
    outer loop
      vertex -22.2588 -63.12 -1
      vertex -22.1305 -63.0944 1
      vertex -22.2588 -63.12 1
    endloop
  endfacet
  facet normal 0.195675 -0.980669 0
    outer loop
      vertex -22.1305 -63.0944 1
      vertex -22.2588 -63.12 -1
      vertex -22.1305 -63.0944 -1
    endloop
  endfacet
  facet normal -0.997836 0.0657577 0
    outer loop
      vertex -21.0086 -64.2164 -1
      vertex -21 -64.0859 1
      vertex -21 -64.0859 -1
    endloop
  endfacet
  facet normal -0.997836 0.0657577 0
    outer loop
      vertex -21 -64.0859 1
      vertex -21.0086 -64.2164 -1
      vertex -21.0086 -64.2164 1
    endloop
  endfacet
  facet normal -0.751486 -0.659749 0
    outer loop
      vertex -21.2066 -63.4771 -1
      vertex -21.2929 -63.3788 1
      vertex -21.2929 -63.3788 -1
    endloop
  endfacet
  facet normal -0.751486 -0.659749 0
    outer loop
      vertex -21.2929 -63.3788 1
      vertex -21.2066 -63.4771 -1
      vertex -21.2066 -63.4771 1
    endloop
  endfacet
  facet normal 0.947066 -0.321039 0
    outer loop
      vertex -22.9659 -63.8271 1
      vertex -22.9239 -63.7032 -1
      vertex -22.9239 -63.7032 1
    endloop
  endfacet
  facet normal 0.947066 -0.321039 0
    outer loop
      vertex -22.9239 -63.7032 -1
      vertex -22.9659 -63.8271 1
      vertex -22.9659 -63.8271 -1
    endloop
  endfacet
  facet normal -0.0649964 -0.997886 0
    outer loop
      vertex -22 -63.0859 -1
      vertex -21.8695 -63.0944 1
      vertex -22 -63.0859 1
    endloop
  endfacet
  facet normal -0.0649964 -0.997886 -0
    outer loop
      vertex -21.8695 -63.0944 1
      vertex -22 -63.0859 -1
      vertex -21.8695 -63.0944 -1
    endloop
  endfacet
  facet normal 0.321039 -0.947066 0
    outer loop
      vertex -22.3827 -63.162 -1
      vertex -22.2588 -63.12 1
      vertex -22.3827 -63.162 1
    endloop
  endfacet
  facet normal 0.321039 -0.947066 0
    outer loop
      vertex -22.2588 -63.12 1
      vertex -22.3827 -63.162 -1
      vertex -22.2588 -63.12 -1
    endloop
  endfacet
  facet normal -0.195675 -0.980669 0
    outer loop
      vertex -21.8695 -63.0944 -1
      vertex -21.7412 -63.12 1
      vertex -21.8695 -63.0944 1
    endloop
  endfacet
  facet normal -0.195675 -0.980669 -0
    outer loop
      vertex -21.7412 -63.12 1
      vertex -21.8695 -63.0944 -1
      vertex -21.7412 -63.12 -1
    endloop
  endfacet
  facet normal 0.831579 0.555406 0
    outer loop
      vertex -22.7934 -64.6946 1
      vertex -22.866 -64.5859 -1
      vertex -22.866 -64.5859 1
    endloop
  endfacet
  facet normal 0.831579 0.555406 0
    outer loop
      vertex -22.866 -64.5859 -1
      vertex -22.7934 -64.6946 1
      vertex -22.7934 -64.6946 -1
    endloop
  endfacet
  facet normal 0.442621 0.896709 -0
    outer loop
      vertex -22.3827 -65.0098 -1
      vertex -22.5 -64.9519 1
      vertex -22.3827 -65.0098 1
    endloop
  endfacet
  facet normal 0.442621 0.896709 0
    outer loop
      vertex -22.5 -64.9519 1
      vertex -22.3827 -65.0098 -1
      vertex -22.5 -64.9519 -1
    endloop
  endfacet
  facet normal -0.0657577 0.997836 0
    outer loop
      vertex -21.8695 -65.0773 -1
      vertex -22 -65.0859 1
      vertex -21.8695 -65.0773 1
    endloop
  endfacet
  facet normal -0.0657577 0.997836 0
    outer loop
      vertex -22 -65.0859 1
      vertex -21.8695 -65.0773 -1
      vertex -22 -65.0859 -1
    endloop
  endfacet
  facet normal -0.555582 0.831462 0
    outer loop
      vertex -21.3912 -64.8792 -1
      vertex -21.5 -64.9519 1
      vertex -21.3912 -64.8792 1
    endloop
  endfacet
  facet normal -0.555582 0.831462 0
    outer loop
      vertex -21.5 -64.9519 1
      vertex -21.3912 -64.8792 -1
      vertex -21.5 -64.9519 -1
    endloop
  endfacet
  facet normal 0.751486 -0.659749 0
    outer loop
      vertex -22.7934 -63.4771 1
      vertex -22.7071 -63.3788 -1
      vertex -22.7071 -63.3788 1
    endloop
  endfacet
  facet normal 0.751486 -0.659749 0
    outer loop
      vertex -22.7071 -63.3788 -1
      vertex -22.7934 -63.4771 1
      vertex -22.7934 -63.4771 -1
    endloop
  endfacet
  facet normal 0.980815 0.19494 0
    outer loop
      vertex -22.9659 -64.3447 1
      vertex -22.9914 -64.2164 -1
      vertex -22.9914 -64.2164 1
    endloop
  endfacet
  facet normal 0.980815 0.19494 0
    outer loop
      vertex -22.9914 -64.2164 -1
      vertex -22.9659 -64.3447 1
      vertex -22.9659 -64.3447 -1
    endloop
  endfacet
  facet normal 0.321039 0.947066 -0
    outer loop
      vertex -22.2588 -65.0518 -1
      vertex -22.3827 -65.0098 1
      vertex -22.2588 -65.0518 1
    endloop
  endfacet
  facet normal 0.321039 0.947066 0
    outer loop
      vertex -22.3827 -65.0098 1
      vertex -22.2588 -65.0518 -1
      vertex -22.3827 -65.0098 -1
    endloop
  endfacet
  facet normal -0.442621 0.896709 0
    outer loop
      vertex -21.5 -64.9519 -1
      vertex -21.6173 -65.0098 1
      vertex -21.5 -64.9519 1
    endloop
  endfacet
  facet normal -0.442621 0.896709 0
    outer loop
      vertex -21.6173 -65.0098 1
      vertex -21.5 -64.9519 -1
      vertex -21.6173 -65.0098 -1
    endloop
  endfacet
  facet normal -0.321039 -0.947066 0
    outer loop
      vertex -21.7412 -63.12 -1
      vertex -21.6173 -63.162 1
      vertex -21.7412 -63.12 1
    endloop
  endfacet
  facet normal -0.321039 -0.947066 -0
    outer loop
      vertex -21.6173 -63.162 1
      vertex -21.7412 -63.12 -1
      vertex -21.6173 -63.162 -1
    endloop
  endfacet
  facet normal -0.442621 -0.896709 0
    outer loop
      vertex -21.6173 -63.162 -1
      vertex -21.5 -63.2199 1
      vertex -21.6173 -63.162 1
    endloop
  endfacet
  facet normal -0.442621 -0.896709 -0
    outer loop
      vertex -21.5 -63.2199 1
      vertex -21.6173 -63.162 -1
      vertex -21.5 -63.2199 -1
    endloop
  endfacet
  facet normal 0.896709 -0.442621 0
    outer loop
      vertex -22.9239 -63.7032 1
      vertex -22.866 -63.5859 -1
      vertex -22.866 -63.5859 1
    endloop
  endfacet
  facet normal 0.896709 -0.442621 0
    outer loop
      vertex -22.866 -63.5859 -1
      vertex -22.9239 -63.7032 1
      vertex -22.9239 -63.7032 -1
    endloop
  endfacet
  facet normal 0.0657577 0.997836 -0
    outer loop
      vertex -22 -65.0859 -1
      vertex -22.1305 -65.0773 1
      vertex -22 -65.0859 1
    endloop
  endfacet
  facet normal 0.0657577 0.997836 0
    outer loop
      vertex -22.1305 -65.0773 1
      vertex -22 -65.0859 -1
      vertex -22.1305 -65.0773 -1
    endloop
  endfacet
  facet normal -0.321039 0.947066 0
    outer loop
      vertex -21.6173 -65.0098 -1
      vertex -21.7412 -65.0518 1
      vertex -21.6173 -65.0098 1
    endloop
  endfacet
  facet normal -0.321039 0.947066 0
    outer loop
      vertex -21.7412 -65.0518 1
      vertex -21.6173 -65.0098 -1
      vertex -21.7412 -65.0518 -1
    endloop
  endfacet
  facet normal 0.0649964 -0.997886 0
    outer loop
      vertex -22.1305 -63.0944 -1
      vertex -22 -63.0859 1
      vertex -22.1305 -63.0944 1
    endloop
  endfacet
  facet normal 0.0649964 -0.997886 0
    outer loop
      vertex -22 -63.0859 1
      vertex -22.1305 -63.0944 -1
      vertex -22 -63.0859 -1
    endloop
  endfacet
  facet normal -0.947066 0.321039 0
    outer loop
      vertex -21.0761 -64.4686 -1
      vertex -21.0341 -64.3447 1
      vertex -21.0341 -64.3447 -1
    endloop
  endfacet
  facet normal -0.947066 0.321039 0
    outer loop
      vertex -21.0341 -64.3447 1
      vertex -21.0761 -64.4686 -1
      vertex -21.0761 -64.4686 1
    endloop
  endfacet
  facet normal 0.831815 -0.555053 0
    outer loop
      vertex -22.866 -63.5859 1
      vertex -22.7934 -63.4771 -1
      vertex -22.7934 -63.4771 1
    endloop
  endfacet
  facet normal 0.831815 -0.555053 0
    outer loop
      vertex -22.7934 -63.4771 -1
      vertex -22.866 -63.5859 1
      vertex -22.866 -63.5859 -1
    endloop
  endfacet
  facet normal 0.659316 0.751866 -0
    outer loop
      vertex -22.6088 -64.8792 -1
      vertex -22.7071 -64.793 1
      vertex -22.6088 -64.8792 1
    endloop
  endfacet
  facet normal 0.659316 0.751866 0
    outer loop
      vertex -22.7071 -64.793 1
      vertex -22.6088 -64.8792 -1
      vertex -22.7071 -64.793 -1
    endloop
  endfacet
  facet normal 0.896709 0.442621 0
    outer loop
      vertex -22.866 -64.5859 1
      vertex -22.9239 -64.4686 -1
      vertex -22.9239 -64.4686 1
    endloop
  endfacet
  facet normal 0.896709 0.442621 0
    outer loop
      vertex -22.9239 -64.4686 -1
      vertex -22.866 -64.5859 1
      vertex -22.866 -64.5859 -1
    endloop
  endfacet
  facet normal 0.555582 0.831462 -0
    outer loop
      vertex -22.5 -64.9519 -1
      vertex -22.6088 -64.8792 1
      vertex -22.5 -64.9519 1
    endloop
  endfacet
  facet normal 0.555582 0.831462 0
    outer loop
      vertex -22.6088 -64.8792 1
      vertex -22.5 -64.9519 -1
      vertex -22.6088 -64.8792 -1
    endloop
  endfacet
endsolid OpenSCAD_Model
