solid OpenSCAD_Model
  facet normal -0 0 1
    outer loop
      vertex -7.5 55 30
      vertex 7.5 -55 30
      vertex 7.5 55 30
    endloop
  endfacet
  facet normal 0 0 1
    outer loop
      vertex 7.5 -55 30
      vertex -7.5 55 30
      vertex -7.5 -55 30
    endloop
  endfacet
  facet normal 0 0 -1
    outer loop
      vertex -7.5 -55 -30
      vertex 7.5 55 -30
      vertex 7.5 -55 -30
    endloop
  endfacet
  facet normal -0 0 -1
    outer loop
      vertex 7.5 55 -30
      vertex -7.5 -55 -30
      vertex -7.5 55 -30
    endloop
  endfacet
  facet normal 0 -1 0
    outer loop
      vertex -7.5 -55 -30
      vertex 7.5 -55 30
      vertex -7.5 -55 30
    endloop
  endfacet
  facet normal 0 -1 -0
    outer loop
      vertex 7.5 -55 30
      vertex -7.5 -55 -30
      vertex 7.5 -55 -30
    endloop
  endfacet
  facet normal 1 -0 0
    outer loop
      vertex 7.5 -55 30
      vertex 7.5 55 -30
      vertex 7.5 55 30
    endloop
  endfacet
  facet normal 1 0 0
    outer loop
      vertex 7.5 55 -30
      vertex 7.5 -55 30
      vertex 7.5 -55 -30
    endloop
  endfacet
  facet normal 0 1 -0
    outer loop
      vertex 7.5 55 -30
      vertex -7.5 55 30
      vertex 7.5 55 30
    endloop
  endfacet
  facet normal 0 1 0
    outer loop
      vertex -7.5 55 30
      vertex 7.5 55 -30
      vertex -7.5 55 -30
    endloop
  endfacet
  facet normal -1 0 0
    outer loop
      vertex -7.5 -55 -30
      vertex -7.5 55 30
      vertex -7.5 55 -30
    endloop
  endfacet
  facet normal -1 -0 0
    outer loop
      vertex -7.5 55 30
      vertex -7.5 -55 -30
      vertex -7.5 -55 30
    endloop
  endfacet
endsolid OpenSCAD_Model
