solid OpenSCAD_Model
  facet normal 1 -0 0
    outer loop
      vertex 80 -40 1
      vertex 80 40 -1
      vertex 80 40 1
    endloop
  endfacet
  facet normal 1 0 0
    outer loop
      vertex 80 40 -1
      vertex 80 -40 1
      vertex 80 -40 -1
    endloop
  endfacet
  facet normal -0 0 1
    outer loop
      vertex -40 19.2846 1
      vertex -24 -19.2846 1
      vertex -24 19.2846 1
    endloop
  endfacet
  facet normal 0 0 1
    outer loop
      vertex -24 -19.2846 1
      vertex -40 19.2846 1
      vertex -40 -19.2846 1
    endloop
  endfacet
  facet normal 0 0 1
    outer loop
      vertex 80 40 1
      vertex 72 1.5 1
      vertex 80 -40 1
    endloop
  endfacet
  facet normal 0 0 1
    outer loop
      vertex 80 40 1
      vertex 56 1.5 1
      vertex 72 1.5 1
    endloop
  endfacet
  facet normal -0 0 1
    outer loop
      vertex -24 19.2846 1
      vertex 56 1.5 1
      vertex -24 22.2846 1
    endloop
  endfacet
  facet normal 0 0 1
    outer loop
      vertex 80 40 1
      vertex -24 22.2846 1
      vertex 56 1.5 1
    endloop
  endfacet
  facet normal -0 0 1
    outer loop
      vertex -80 40 1
      vertex -24 22.2846 1
      vertex 80 40 1
    endloop
  endfacet
  facet normal 0 0 1
    outer loop
      vertex -80 40 1
      vertex -40 19.2846 1
      vertex -40 22.2846 1
    endloop
  endfacet
  facet normal 0 0 1
    outer loop
      vertex -40 19.2846 1
      vertex -80 40 1
      vertex -40 -19.2846 1
    endloop
  endfacet
  facet normal 0 0 1
    outer loop
      vertex -80 -40 1
      vertex -40 -19.2846 1
      vertex -80 40 1
    endloop
  endfacet
  facet normal 0 0 1
    outer loop
      vertex -24 22.2846 1
      vertex -80 40 1
      vertex -40 22.2846 1
    endloop
  endfacet
  facet normal -0 0 1
    outer loop
      vertex 72 -1.5 1
      vertex 80 -40 1
      vertex 72 1.5 1
    endloop
  endfacet
  facet normal -0 0 1
    outer loop
      vertex 56 -1.5 1
      vertex 80 -40 1
      vertex 72 -1.5 1
    endloop
  endfacet
  facet normal 0 0 1
    outer loop
      vertex 56 1.5 1
      vertex -24 19.2846 1
      vertex 56 -1.5 1
    endloop
  endfacet
  facet normal 0 0 1
    outer loop
      vertex -24 -19.2846 1
      vertex 56 -1.5 1
      vertex -24 19.2846 1
    endloop
  endfacet
  facet normal 0 0 1
    outer loop
      vertex -24 -22.2846 1
      vertex 56 -1.5 1
      vertex -24 -19.2846 1
    endloop
  endfacet
  facet normal 0 0 1
    outer loop
      vertex 56 -1.5 1
      vertex -24 -22.2846 1
      vertex 80 -40 1
    endloop
  endfacet
  facet normal 0 0 1
    outer loop
      vertex -80 -40 1
      vertex -24 -22.2846 1
      vertex -40 -22.2846 1
    endloop
  endfacet
  facet normal 0 0 1
    outer loop
      vertex -24 -22.2846 1
      vertex -80 -40 1
      vertex 80 -40 1
    endloop
  endfacet
  facet normal 0 0 1
    outer loop
      vertex -40 -19.2846 1
      vertex -80 -40 1
      vertex -40 -22.2846 1
    endloop
  endfacet
  facet normal 0 0 -1
    outer loop
      vertex -40 -19.2846 -1
      vertex -24 19.2846 -1
      vertex -24 -19.2846 -1
    endloop
  endfacet
  facet normal -0 0 -1
    outer loop
      vertex -24 19.2846 -1
      vertex -40 -19.2846 -1
      vertex -40 19.2846 -1
    endloop
  endfacet
  facet normal 0 0 -1
    outer loop
      vertex 80 -40 -1
      vertex 72 -1.5 -1
      vertex 80 40 -1
    endloop
  endfacet
  facet normal 0 0 -1
    outer loop
      vertex 80 -40 -1
      vertex 56 -1.5 -1
      vertex 72 -1.5 -1
    endloop
  endfacet
  facet normal 0 0 -1
    outer loop
      vertex -24 -19.2846 -1
      vertex 56 -1.5 -1
      vertex -24 -22.2846 -1
    endloop
  endfacet
  facet normal 0 0 -1
    outer loop
      vertex 80 -40 -1
      vertex -24 -22.2846 -1
      vertex 56 -1.5 -1
    endloop
  endfacet
  facet normal 0 0 -1
    outer loop
      vertex -80 -40 -1
      vertex -24 -22.2846 -1
      vertex 80 -40 -1
    endloop
  endfacet
  facet normal 0 0 -1
    outer loop
      vertex -80 -40 -1
      vertex -40 -19.2846 -1
      vertex -40 -22.2846 -1
    endloop
  endfacet
  facet normal -0 0 -1
    outer loop
      vertex -40 -19.2846 -1
      vertex -80 -40 -1
      vertex -40 19.2846 -1
    endloop
  endfacet
  facet normal 0 0 -1
    outer loop
      vertex -80 40 -1
      vertex -40 19.2846 -1
      vertex -80 -40 -1
    endloop
  endfacet
  facet normal -0 0 -1
    outer loop
      vertex -24 -22.2846 -1
      vertex -80 -40 -1
      vertex -40 -22.2846 -1
    endloop
  endfacet
  facet normal 0 0 -1
    outer loop
      vertex 72 1.5 -1
      vertex 80 40 -1
      vertex 72 -1.5 -1
    endloop
  endfacet
  facet normal 0 0 -1
    outer loop
      vertex 56 1.5 -1
      vertex 80 40 -1
      vertex 72 1.5 -1
    endloop
  endfacet
  facet normal -0 0 -1
    outer loop
      vertex 56 -1.5 -1
      vertex -24 -19.2846 -1
      vertex 56 1.5 -1
    endloop
  endfacet
  facet normal 0 0 -1
    outer loop
      vertex -24 19.2846 -1
      vertex 56 1.5 -1
      vertex -24 -19.2846 -1
    endloop
  endfacet
  facet normal 0 0 -1
    outer loop
      vertex -24 22.2846 -1
      vertex 56 1.5 -1
      vertex -24 19.2846 -1
    endloop
  endfacet
  facet normal 0 0 -1
    outer loop
      vertex 56 1.5 -1
      vertex -24 22.2846 -1
      vertex 80 40 -1
    endloop
  endfacet
  facet normal 0 0 -1
    outer loop
      vertex -80 40 -1
      vertex -24 22.2846 -1
      vertex -40 22.2846 -1
    endloop
  endfacet
  facet normal 0 0 -1
    outer loop
      vertex -24 22.2846 -1
      vertex -80 40 -1
      vertex 80 40 -1
    endloop
  endfacet
  facet normal 0 0 -1
    outer loop
      vertex -40 19.2846 -1
      vertex -80 40 -1
      vertex -40 22.2846 -1
    endloop
  endfacet
  facet normal -1 0 0
    outer loop
      vertex -80 -40 -1
      vertex -80 40 1
      vertex -80 40 -1
    endloop
  endfacet
  facet normal -1 -0 0
    outer loop
      vertex -80 40 1
      vertex -80 -40 -1
      vertex -80 -40 1
    endloop
  endfacet
  facet normal 0 1 -0
    outer loop
      vertex 80 40 -1
      vertex -80 40 1
      vertex 80 40 1
    endloop
  endfacet
  facet normal 0 1 0
    outer loop
      vertex -80 40 1
      vertex 80 40 -1
      vertex -80 40 -1
    endloop
  endfacet
  facet normal 0 -1 0
    outer loop
      vertex -80 -40 -1
      vertex 80 -40 1
      vertex -80 -40 1
    endloop
  endfacet
  facet normal 0 -1 -0
    outer loop
      vertex 80 -40 1
      vertex -80 -40 -1
      vertex 80 -40 -1
    endloop
  endfacet
  facet normal -1 0 0
    outer loop
      vertex 72 -1.5 -1
      vertex 72 1.5 1
      vertex 72 1.5 -1
    endloop
  endfacet
  facet normal -1 -0 0
    outer loop
      vertex 72 1.5 1
      vertex 72 -1.5 -1
      vertex 72 -1.5 1
    endloop
  endfacet
  facet normal 1 -0 0
    outer loop
      vertex 56 -1.5 1
      vertex 56 1.5 -1
      vertex 56 1.5 1
    endloop
  endfacet
  facet normal 1 0 0
    outer loop
      vertex 56 1.5 -1
      vertex 56 -1.5 1
      vertex 56 -1.5 -1
    endloop
  endfacet
  facet normal 0 -1 0
    outer loop
      vertex 56 1.5 -1
      vertex 72 1.5 1
      vertex 56 1.5 1
    endloop
  endfacet
  facet normal 0 -1 -0
    outer loop
      vertex 72 1.5 1
      vertex 56 1.5 -1
      vertex 72 1.5 -1
    endloop
  endfacet
  facet normal 0 1 -0
    outer loop
      vertex 72 -1.5 -1
      vertex 56 -1.5 1
      vertex 72 -1.5 1
    endloop
  endfacet
  facet normal 0 1 0
    outer loop
      vertex 56 -1.5 1
      vertex 72 -1.5 -1
      vertex 56 -1.5 -1
    endloop
  endfacet
  facet normal -1 0 0
    outer loop
      vertex -24 19.2846 -1
      vertex -24 22.2846 1
      vertex -24 22.2846 -1
    endloop
  endfacet
  facet normal -1 -0 0
    outer loop
      vertex -24 22.2846 1
      vertex -24 19.2846 -1
      vertex -24 19.2846 1
    endloop
  endfacet
  facet normal 1 -0 0
    outer loop
      vertex -40 19.2846 1
      vertex -40 22.2846 -1
      vertex -40 22.2846 1
    endloop
  endfacet
  facet normal 1 0 0
    outer loop
      vertex -40 22.2846 -1
      vertex -40 19.2846 1
      vertex -40 19.2846 -1
    endloop
  endfacet
  facet normal 0 -1 0
    outer loop
      vertex -40 22.2846 -1
      vertex -24 22.2846 1
      vertex -40 22.2846 1
    endloop
  endfacet
  facet normal 0 -1 -0
    outer loop
      vertex -24 22.2846 1
      vertex -40 22.2846 -1
      vertex -24 22.2846 -1
    endloop
  endfacet
  facet normal 0 1 -0
    outer loop
      vertex -24 19.2846 -1
      vertex -40 19.2846 1
      vertex -24 19.2846 1
    endloop
  endfacet
  facet normal 0 1 0
    outer loop
      vertex -40 19.2846 1
      vertex -24 19.2846 -1
      vertex -40 19.2846 -1
    endloop
  endfacet
  facet normal -1 0 0
    outer loop
      vertex -24 -22.2846 -1
      vertex -24 -19.2846 1
      vertex -24 -19.2846 -1
    endloop
  endfacet
  facet normal -1 -0 0
    outer loop
      vertex -24 -19.2846 1
      vertex -24 -22.2846 -1
      vertex -24 -22.2846 1
    endloop
  endfacet
  facet normal 1 -0 0
    outer loop
      vertex -40 -22.2846 1
      vertex -40 -19.2846 -1
      vertex -40 -19.2846 1
    endloop
  endfacet
  facet normal 1 0 0
    outer loop
      vertex -40 -19.2846 -1
      vertex -40 -22.2846 1
      vertex -40 -22.2846 -1
    endloop
  endfacet
  facet normal 0 -1 0
    outer loop
      vertex -40 -19.2846 -1
      vertex -24 -19.2846 1
      vertex -40 -19.2846 1
    endloop
  endfacet
  facet normal 0 -1 -0
    outer loop
      vertex -24 -19.2846 1
      vertex -40 -19.2846 -1
      vertex -24 -19.2846 -1
    endloop
  endfacet
  facet normal 0 1 -0
    outer loop
      vertex -24 -22.2846 -1
      vertex -40 -22.2846 1
      vertex -24 -22.2846 1
    endloop
  endfacet
  facet normal 0 1 0
    outer loop
      vertex -40 -22.2846 1
      vertex -24 -22.2846 -1
      vertex -40 -22.2846 -1
    endloop
  endfacet
endsolid OpenSCAD_Model
