solid OpenSCAD_Model
  facet normal 1 -0 0
    outer loop
      vertex 75 -30 32.5
      vertex 75 30 -32.5
      vertex 75 30 32.5
    endloop
  endfacet
  facet normal 1 0 0
    outer loop
      vertex 75 30 -32.5
      vertex 75 -30 32.5
      vertex 75 -30 -32.5
    endloop
  endfacet
  facet normal 0 0 1
    outer loop
      vertex 75 30 32.5
      vertex 72 27 32.5
      vertex 75 -30 32.5
    endloop
  endfacet
  facet normal 0 0 1
    outer loop
      vertex 75 30 32.5
      vertex -72 27 32.5
      vertex 72 27 32.5
    endloop
  endfacet
  facet normal 0 0 1
    outer loop
      vertex -72 27 32.5
      vertex -75 30 32.5
      vertex -72 -27 32.5
    endloop
  endfacet
  facet normal -0 0 1
    outer loop
      vertex -75 30 32.5
      vertex -72 27 32.5
      vertex 75 30 32.5
    endloop
  endfacet
  facet normal -0 0 1
    outer loop
      vertex 72 -27 32.5
      vertex 75 -30 32.5
      vertex 72 27 32.5
    endloop
  endfacet
  facet normal -0 0 1
    outer loop
      vertex -72 -27 32.5
      vertex 75 -30 32.5
      vertex 72 -27 32.5
    endloop
  endfacet
  facet normal 0 0 1
    outer loop
      vertex -72 -27 32.5
      vertex -75 -30 32.5
      vertex 75 -30 32.5
    endloop
  endfacet
  facet normal 0 0 1
    outer loop
      vertex -75 -30 32.5
      vertex -72 -27 32.5
      vertex -75 30 32.5
    endloop
  endfacet
  facet normal 0 0 -1
    outer loop
      vertex -75 -30 -32.5
      vertex 75 30 -32.5
      vertex 75 -30 -32.5
    endloop
  endfacet
  facet normal -0 0 -1
    outer loop
      vertex 75 30 -32.5
      vertex -75 -30 -32.5
      vertex -75 30 -32.5
    endloop
  endfacet
  facet normal -1 0 0
    outer loop
      vertex -75 -30 -32.5
      vertex -75 30 32.5
      vertex -75 30 -32.5
    endloop
  endfacet
  facet normal -1 -0 0
    outer loop
      vertex -75 30 32.5
      vertex -75 -30 -32.5
      vertex -75 -30 32.5
    endloop
  endfacet
  facet normal 0 1 -0
    outer loop
      vertex 75 30 -32.5
      vertex -75 30 32.5
      vertex 75 30 32.5
    endloop
  endfacet
  facet normal 0 1 0
    outer loop
      vertex -75 30 32.5
      vertex 75 30 -32.5
      vertex -75 30 -32.5
    endloop
  endfacet
  facet normal 0 -1 0
    outer loop
      vertex -75 -30 -32.5
      vertex 75 -30 32.5
      vertex -75 -30 32.5
    endloop
  endfacet
  facet normal 0 -1 -0
    outer loop
      vertex 75 -30 32.5
      vertex -75 -30 -32.5
      vertex 75 -30 -32.5
    endloop
  endfacet
  facet normal -1 0 0
    outer loop
      vertex 72 -27 -29.5
      vertex 72 27 32.5
      vertex 72 27 -29.5
    endloop
  endfacet
  facet normal -1 -0 0
    outer loop
      vertex 72 27 32.5
      vertex 72 -27 -29.5
      vertex 72 -27 32.5
    endloop
  endfacet
  facet normal -0 0 1
    outer loop
      vertex -72 27 -29.5
      vertex 72 -27 -29.5
      vertex 72 27 -29.5
    endloop
  endfacet
  facet normal 0 0 1
    outer loop
      vertex 72 -27 -29.5
      vertex -72 27 -29.5
      vertex -72 -27 -29.5
    endloop
  endfacet
  facet normal 1 -0 0
    outer loop
      vertex -72 -27 32.5
      vertex -72 27 -29.5
      vertex -72 27 32.5
    endloop
  endfacet
  facet normal 1 0 0
    outer loop
      vertex -72 27 -29.5
      vertex -72 -27 32.5
      vertex -72 -27 -29.5
    endloop
  endfacet
  facet normal 0 -1 0
    outer loop
      vertex -72 27 -29.5
      vertex 72 27 32.5
      vertex -72 27 32.5
    endloop
  endfacet
  facet normal 0 -1 -0
    outer loop
      vertex 72 27 32.5
      vertex -72 27 -29.5
      vertex 72 27 -29.5
    endloop
  endfacet
  facet normal 0 1 -0
    outer loop
      vertex 72 -27 -29.5
      vertex -72 -27 32.5
      vertex 72 -27 32.5
    endloop
  endfacet
  facet normal 0 1 0
    outer loop
      vertex -72 -27 32.5
      vertex 72 -27 -29.5
      vertex -72 -27 -29.5
    endloop
  endfacet
endsolid OpenSCAD_Model
