solid OpenSCAD_Model
  facet normal 1 -0 0
    outer loop
      vertex 70 -65 2.5
      vertex 70 65 -2.5
      vertex 70 65 2.5
    endloop
  endfacet
  facet normal 1 0 0
    outer loop
      vertex 70 65 -2.5
      vertex 70 -65 2.5
      vertex 70 -65 -2.5
    endloop
  endfacet
  facet normal -0 0 1
    outer loop
      vertex 60.4641 -50 2.5
      vertex 70 -65 2.5
      vertex 70 65 2.5
    endloop
  endfacet
  facet normal 0 0 1
    outer loop
      vertex 70 -65 2.5
      vertex 60.9658 -51.4779 2.5
      vertex 61 -52 2.5
    endloop
  endfacet
  facet normal 0 0 1
    outer loop
      vertex 70 -65 2.5
      vertex 60.8637 -50.9647 2.5
      vertex 60.9658 -51.4779 2.5
    endloop
  endfacet
  facet normal 0 0 1
    outer loop
      vertex 70 -65 2.5
      vertex 60.6955 -50.4693 2.5
      vertex 60.8637 -50.9647 2.5
    endloop
  endfacet
  facet normal 0 0 1
    outer loop
      vertex 70 -65 2.5
      vertex 60.4641 -50 2.5
      vertex 60.6955 -50.4693 2.5
    endloop
  endfacet
  facet normal 0 0 1
    outer loop
      vertex 70 65 2.5
      vertex 60.1734 -49.565 2.5
      vertex 60.4641 -50 2.5
    endloop
  endfacet
  facet normal 0 0 1
    outer loop
      vertex 70 65 2.5
      vertex 59.8284 -49.1716 2.5
      vertex 60.1734 -49.565 2.5
    endloop
  endfacet
  facet normal 0 0 1
    outer loop
      vertex 70 65 2.5
      vertex 59.435 -48.8266 2.5
      vertex 59.8284 -49.1716 2.5
    endloop
  endfacet
  facet normal 0 0 1
    outer loop
      vertex 70 65 2.5
      vertex 59 -48.5359 2.5
      vertex 59.435 -48.8266 2.5
    endloop
  endfacet
  facet normal 0 0 1
    outer loop
      vertex 70 65 2.5
      vertex 58.5307 -48.3045 2.5
      vertex 59 -48.5359 2.5
    endloop
  endfacet
  facet normal 0 0 1
    outer loop
      vertex 70 65 2.5
      vertex 58.0353 -48.1363 2.5
      vertex 58.5307 -48.3045 2.5
    endloop
  endfacet
  facet normal 0 0 1
    outer loop
      vertex 70 65 2.5
      vertex 57.5221 -48.0342 2.5
      vertex 58.0353 -48.1363 2.5
    endloop
  endfacet
  facet normal 0 0 1
    outer loop
      vertex 70 65 2.5
      vertex 57 -48 2.5
      vertex 57.5221 -48.0342 2.5
    endloop
  endfacet
  facet normal 0 0 1
    outer loop
      vertex 70 65 2.5
      vertex 56.4779 -48.0342 2.5
      vertex 57 -48 2.5
    endloop
  endfacet
  facet normal -0 0 1
    outer loop
      vertex 2.82843 49.1716 2.5
      vertex 56.4779 -48.0342 2.5
      vertex 70 65 2.5
    endloop
  endfacet
  facet normal 0 0 1
    outer loop
      vertex 56.4779 -48.0342 2.5
      vertex 2.82843 49.1716 2.5
      vertex 55.9647 -48.1363 2.5
    endloop
  endfacet
  facet normal -0 0 1
    outer loop
      vertex 2.43505 48.8266 2.5
      vertex 55.9647 -48.1363 2.5
      vertex 2.82843 49.1716 2.5
    endloop
  endfacet
  facet normal 0 0 1
    outer loop
      vertex 55.9647 -48.1363 2.5
      vertex 2.43505 48.8266 2.5
      vertex 55.4693 -48.3045 2.5
    endloop
  endfacet
  facet normal -0 0 1
    outer loop
      vertex 2 48.5359 2.5
      vertex 55.4693 -48.3045 2.5
      vertex 2.43505 48.8266 2.5
    endloop
  endfacet
  facet normal 0 0 1
    outer loop
      vertex 55.4693 -48.3045 2.5
      vertex 2 48.5359 2.5
      vertex 55 -48.5359 2.5
    endloop
  endfacet
  facet normal -0 0 1
    outer loop
      vertex 1.53073 48.3045 2.5
      vertex 55 -48.5359 2.5
      vertex 2 48.5359 2.5
    endloop
  endfacet
  facet normal 0 0 1
    outer loop
      vertex 55 -48.5359 2.5
      vertex 1.53073 48.3045 2.5
      vertex 54.565 -48.8266 2.5
    endloop
  endfacet
  facet normal -0 0 1
    outer loop
      vertex 1.03528 48.1363 2.5
      vertex 54.565 -48.8266 2.5
      vertex 1.53073 48.3045 2.5
    endloop
  endfacet
  facet normal 0 0 1
    outer loop
      vertex 54.565 -48.8266 2.5
      vertex 1.03528 48.1363 2.5
      vertex 54.1716 -49.1716 2.5
    endloop
  endfacet
  facet normal 0 0 1
    outer loop
      vertex 3.8637 50.9647 2.5
      vertex 70 65 2.5
      vertex 3.96578 51.4779 2.5
    endloop
  endfacet
  facet normal 0 0 1
    outer loop
      vertex 3.96578 51.4779 2.5
      vertex 70 65 2.5
      vertex 4 52 2.5
    endloop
  endfacet
  facet normal 0 0 1
    outer loop
      vertex 70 65 2.5
      vertex 3.96578 52.5221 2.5
      vertex 4 52 2.5
    endloop
  endfacet
  facet normal 0 0 1
    outer loop
      vertex 70 65 2.5
      vertex 3.8637 53.0353 2.5
      vertex 3.96578 52.5221 2.5
    endloop
  endfacet
  facet normal 0 0 1
    outer loop
      vertex 70 65 2.5
      vertex 3.69552 53.5307 2.5
      vertex 3.8637 53.0353 2.5
    endloop
  endfacet
  facet normal 0 0 1
    outer loop
      vertex 70 65 2.5
      vertex 3.4641 54 2.5
      vertex 3.69552 53.5307 2.5
    endloop
  endfacet
  facet normal 0 0 1
    outer loop
      vertex 70 65 2.5
      vertex 3.17341 54.435 2.5
      vertex 3.4641 54 2.5
    endloop
  endfacet
  facet normal 0 0 1
    outer loop
      vertex 70 65 2.5
      vertex 2.82843 54.8284 2.5
      vertex 3.17341 54.435 2.5
    endloop
  endfacet
  facet normal 0 0 1
    outer loop
      vertex 70 65 2.5
      vertex 2.43505 55.1734 2.5
      vertex 2.82843 54.8284 2.5
    endloop
  endfacet
  facet normal 0 0 1
    outer loop
      vertex 70 65 2.5
      vertex 2 55.4641 2.5
      vertex 2.43505 55.1734 2.5
    endloop
  endfacet
  facet normal 0 0 1
    outer loop
      vertex 70 65 2.5
      vertex 1.53073 55.6955 2.5
      vertex 2 55.4641 2.5
    endloop
  endfacet
  facet normal 0 0 1
    outer loop
      vertex 70 65 2.5
      vertex 1.03528 55.8637 2.5
      vertex 1.53073 55.6955 2.5
    endloop
  endfacet
  facet normal 0 0 1
    outer loop
      vertex 70 65 2.5
      vertex 0.522104 55.9658 2.5
      vertex 1.03528 55.8637 2.5
    endloop
  endfacet
  facet normal 0 0 1
    outer loop
      vertex 70 65 2.5
      vertex 0 56 2.5
      vertex 0.522104 55.9658 2.5
    endloop
  endfacet
  facet normal -0 0 1
    outer loop
      vertex -70 65 2.5
      vertex 0 56 2.5
      vertex 70 65 2.5
    endloop
  endfacet
  facet normal 0 0 1
    outer loop
      vertex -70 65 2.5
      vertex -4 52 2.5
      vertex -3.96578 52.5221 2.5
    endloop
  endfacet
  facet normal 0 0 1
    outer loop
      vertex -70 65 2.5
      vertex -3.96578 52.5221 2.5
      vertex -3.8637 53.0353 2.5
    endloop
  endfacet
  facet normal 0 0 1
    outer loop
      vertex -70 65 2.5
      vertex -3.8637 53.0353 2.5
      vertex -3.69552 53.5307 2.5
    endloop
  endfacet
  facet normal 0 0 1
    outer loop
      vertex -4 52 2.5
      vertex -53.0342 -51.4779 2.5
      vertex -53 -52 2.5
    endloop
  endfacet
  facet normal 0 0 1
    outer loop
      vertex -4 52 2.5
      vertex -53.1363 -50.9647 2.5
      vertex -53.0342 -51.4779 2.5
    endloop
  endfacet
  facet normal 0 0 1
    outer loop
      vertex -4 52 2.5
      vertex -53.3045 -50.4693 2.5
      vertex -53.1363 -50.9647 2.5
    endloop
  endfacet
  facet normal 0 0 1
    outer loop
      vertex -4 52 2.5
      vertex -53.5359 -50 2.5
      vertex -53.3045 -50.4693 2.5
    endloop
  endfacet
  facet normal 0 0 1
    outer loop
      vertex -4 52 2.5
      vertex -53.8266 -49.565 2.5
      vertex -53.5359 -50 2.5
    endloop
  endfacet
  facet normal 0 0 1
    outer loop
      vertex -4 52 2.5
      vertex -54.1716 -49.1716 2.5
      vertex -53.8266 -49.565 2.5
    endloop
  endfacet
  facet normal 0 0 1
    outer loop
      vertex -4 52 2.5
      vertex -54.565 -48.8266 2.5
      vertex -54.1716 -49.1716 2.5
    endloop
  endfacet
  facet normal 0 0 1
    outer loop
      vertex -70 65 2.5
      vertex -3.69552 53.5307 2.5
      vertex -3.4641 54 2.5
    endloop
  endfacet
  facet normal 0 0 1
    outer loop
      vertex -4 52 2.5
      vertex -55 -48.5359 2.5
      vertex -54.565 -48.8266 2.5
    endloop
  endfacet
  facet normal 0 0 1
    outer loop
      vertex -4 52 2.5
      vertex -55.4693 -48.3045 2.5
      vertex -55 -48.5359 2.5
    endloop
  endfacet
  facet normal 0 0 1
    outer loop
      vertex -4 52 2.5
      vertex -55.9647 -48.1363 2.5
      vertex -55.4693 -48.3045 2.5
    endloop
  endfacet
  facet normal 0 0 1
    outer loop
      vertex -4 52 2.5
      vertex -56.4779 -48.0342 2.5
      vertex -55.9647 -48.1363 2.5
    endloop
  endfacet
  facet normal 0 0 1
    outer loop
      vertex -4 52 2.5
      vertex -70 65 2.5
      vertex -56.4779 -48.0342 2.5
    endloop
  endfacet
  facet normal 0 0 1
    outer loop
      vertex -56.4779 -48.0342 2.5
      vertex -70 65 2.5
      vertex -57 -48 2.5
    endloop
  endfacet
  facet normal 0 0 1
    outer loop
      vertex -57 -48 2.5
      vertex -70 65 2.5
      vertex -57.5221 -48.0342 2.5
    endloop
  endfacet
  facet normal 0 0 1
    outer loop
      vertex -57.5221 -48.0342 2.5
      vertex -70 65 2.5
      vertex -58.0353 -48.1363 2.5
    endloop
  endfacet
  facet normal 0 0 1
    outer loop
      vertex -58.0353 -48.1363 2.5
      vertex -70 65 2.5
      vertex -58.5307 -48.3045 2.5
    endloop
  endfacet
  facet normal 0 0 1
    outer loop
      vertex -58.5307 -48.3045 2.5
      vertex -70 65 2.5
      vertex -59 -48.5359 2.5
    endloop
  endfacet
  facet normal 0 0 1
    outer loop
      vertex -59 -48.5359 2.5
      vertex -70 65 2.5
      vertex -59.435 -48.8266 2.5
    endloop
  endfacet
  facet normal 0 0 1
    outer loop
      vertex -59.435 -48.8266 2.5
      vertex -70 65 2.5
      vertex -59.8284 -49.1716 2.5
    endloop
  endfacet
  facet normal 0 0 1
    outer loop
      vertex -59.8284 -49.1716 2.5
      vertex -70 65 2.5
      vertex -60.1734 -49.565 2.5
    endloop
  endfacet
  facet normal 0 0 1
    outer loop
      vertex -60.8637 -50.9647 2.5
      vertex -70 -65 2.5
      vertex -60.9658 -51.4779 2.5
    endloop
  endfacet
  facet normal 0 0 1
    outer loop
      vertex -60.6955 -50.4693 2.5
      vertex -70 -65 2.5
      vertex -60.8637 -50.9647 2.5
    endloop
  endfacet
  facet normal 0 0 1
    outer loop
      vertex -60.4641 -50 2.5
      vertex -70 -65 2.5
      vertex -60.6955 -50.4693 2.5
    endloop
  endfacet
  facet normal 0 0 1
    outer loop
      vertex -70 -65 2.5
      vertex -60.4641 -50 2.5
      vertex -70 65 2.5
    endloop
  endfacet
  facet normal 0 0 1
    outer loop
      vertex -60.1734 -49.565 2.5
      vertex -70 65 2.5
      vertex -60.4641 -50 2.5
    endloop
  endfacet
  facet normal 0 0 1
    outer loop
      vertex -3.17341 54.435 2.5
      vertex -70 65 2.5
      vertex -3.4641 54 2.5
    endloop
  endfacet
  facet normal 0 0 1
    outer loop
      vertex -2.82843 54.8284 2.5
      vertex -70 65 2.5
      vertex -3.17341 54.435 2.5
    endloop
  endfacet
  facet normal 0 0 1
    outer loop
      vertex -2.43505 55.1734 2.5
      vertex -70 65 2.5
      vertex -2.82843 54.8284 2.5
    endloop
  endfacet
  facet normal 0 0 1
    outer loop
      vertex -2 55.4641 2.5
      vertex -70 65 2.5
      vertex -2.43505 55.1734 2.5
    endloop
  endfacet
  facet normal 0 0 1
    outer loop
      vertex -1.53073 55.6955 2.5
      vertex -70 65 2.5
      vertex -2 55.4641 2.5
    endloop
  endfacet
  facet normal 0 0 1
    outer loop
      vertex -1.03528 55.8637 2.5
      vertex -70 65 2.5
      vertex -1.53073 55.6955 2.5
    endloop
  endfacet
  facet normal 0 0 1
    outer loop
      vertex -0.522104 55.9658 2.5
      vertex -70 65 2.5
      vertex -1.03528 55.8637 2.5
    endloop
  endfacet
  facet normal 0 0 1
    outer loop
      vertex 0 56 2.5
      vertex -70 65 2.5
      vertex -0.522104 55.9658 2.5
    endloop
  endfacet
  facet normal -0 0 1
    outer loop
      vertex 60.9658 -52.5221 2.5
      vertex 70 -65 2.5
      vertex 61 -52 2.5
    endloop
  endfacet
  facet normal -0 0 1
    outer loop
      vertex 60.8637 -53.0353 2.5
      vertex 70 -65 2.5
      vertex 60.9658 -52.5221 2.5
    endloop
  endfacet
  facet normal -0 0 1
    outer loop
      vertex 60.6955 -53.5307 2.5
      vertex 70 -65 2.5
      vertex 60.8637 -53.0353 2.5
    endloop
  endfacet
  facet normal -0 0 1
    outer loop
      vertex 60.4641 -54 2.5
      vertex 70 -65 2.5
      vertex 60.6955 -53.5307 2.5
    endloop
  endfacet
  facet normal -0 0 1
    outer loop
      vertex 60.1734 -54.435 2.5
      vertex 70 -65 2.5
      vertex 60.4641 -54 2.5
    endloop
  endfacet
  facet normal -0 0 1
    outer loop
      vertex 59.8284 -54.8284 2.5
      vertex 70 -65 2.5
      vertex 60.1734 -54.435 2.5
    endloop
  endfacet
  facet normal -0 0 1
    outer loop
      vertex 59.435 -55.1734 2.5
      vertex 70 -65 2.5
      vertex 59.8284 -54.8284 2.5
    endloop
  endfacet
  facet normal -0 0 1
    outer loop
      vertex 59 -55.4641 2.5
      vertex 70 -65 2.5
      vertex 59.435 -55.1734 2.5
    endloop
  endfacet
  facet normal -0 0 1
    outer loop
      vertex 58.5307 -55.6955 2.5
      vertex 70 -65 2.5
      vertex 59 -55.4641 2.5
    endloop
  endfacet
  facet normal -0 0 1
    outer loop
      vertex 58.0353 -55.8637 2.5
      vertex 70 -65 2.5
      vertex 58.5307 -55.6955 2.5
    endloop
  endfacet
  facet normal -0 0 1
    outer loop
      vertex 57.5221 -55.9658 2.5
      vertex 70 -65 2.5
      vertex 58.0353 -55.8637 2.5
    endloop
  endfacet
  facet normal -0 0 1
    outer loop
      vertex 57 -56 2.5
      vertex 70 -65 2.5
      vertex 57.5221 -55.9658 2.5
    endloop
  endfacet
  facet normal 0 0 1
    outer loop
      vertex 56.4779 -55.9658 2.5
      vertex 70 -65 2.5
      vertex 57 -56 2.5
    endloop
  endfacet
  facet normal 0 0 1
    outer loop
      vertex 55.9647 -55.8637 2.5
      vertex 70 -65 2.5
      vertex 56.4779 -55.9658 2.5
    endloop
  endfacet
  facet normal 0 0 1
    outer loop
      vertex 55.4693 -55.6955 2.5
      vertex 70 -65 2.5
      vertex 55.9647 -55.8637 2.5
    endloop
  endfacet
  facet normal 0 0 1
    outer loop
      vertex 55 -55.4641 2.5
      vertex 70 -65 2.5
      vertex 55.4693 -55.6955 2.5
    endloop
  endfacet
  facet normal 0 0 1
    outer loop
      vertex 3.69552 50.4693 2.5
      vertex 70 65 2.5
      vertex 3.8637 50.9647 2.5
    endloop
  endfacet
  facet normal 0 0 1
    outer loop
      vertex 3.4641 50 2.5
      vertex 70 65 2.5
      vertex 3.69552 50.4693 2.5
    endloop
  endfacet
  facet normal 0 0 1
    outer loop
      vertex 3.17341 49.565 2.5
      vertex 70 65 2.5
      vertex 3.4641 50 2.5
    endloop
  endfacet
  facet normal 0 0 1
    outer loop
      vertex 2.82843 49.1716 2.5
      vertex 70 65 2.5
      vertex 3.17341 49.565 2.5
    endloop
  endfacet
  facet normal -0 0 1
    outer loop
      vertex 0.522104 48.0342 2.5
      vertex 54.1716 -49.1716 2.5
      vertex 1.03528 48.1363 2.5
    endloop
  endfacet
  facet normal 0 0 1
    outer loop
      vertex 54.1716 -49.1716 2.5
      vertex 0.522104 48.0342 2.5
      vertex 53.8266 -49.565 2.5
    endloop
  endfacet
  facet normal -0 0 1
    outer loop
      vertex 0 48 2.5
      vertex 53.8266 -49.565 2.5
      vertex 0.522104 48.0342 2.5
    endloop
  endfacet
  facet normal 0 0 1
    outer loop
      vertex 53.8266 -49.565 2.5
      vertex 0 48 2.5
      vertex 53.5359 -50 2.5
    endloop
  endfacet
  facet normal 0 0 1
    outer loop
      vertex -53 -52 2.5
      vertex 53.5359 -50 2.5
      vertex 0 48 2.5
    endloop
  endfacet
  facet normal 0 0 1
    outer loop
      vertex 53.5359 -50 2.5
      vertex -53 -52 2.5
      vertex 53.3045 -50.4693 2.5
    endloop
  endfacet
  facet normal 0 0 1
    outer loop
      vertex 53.3045 -50.4693 2.5
      vertex -53 -52 2.5
      vertex 53.1363 -50.9647 2.5
    endloop
  endfacet
  facet normal 0 0 1
    outer loop
      vertex 53.1363 -50.9647 2.5
      vertex -53 -52 2.5
      vertex 53.0342 -51.4779 2.5
    endloop
  endfacet
  facet normal 0 0 1
    outer loop
      vertex 53.0342 -51.4779 2.5
      vertex -53 -52 2.5
      vertex 53 -52 2.5
    endloop
  endfacet
  facet normal 0 0 1
    outer loop
      vertex 53 -52 2.5
      vertex -53 -52 2.5
      vertex 53.0342 -52.5221 2.5
    endloop
  endfacet
  facet normal 0 0 1
    outer loop
      vertex -53.0342 -52.5221 2.5
      vertex 53.0342 -52.5221 2.5
      vertex -53 -52 2.5
    endloop
  endfacet
  facet normal 0 0 1
    outer loop
      vertex 53.0342 -52.5221 2.5
      vertex -53.0342 -52.5221 2.5
      vertex 53.1363 -53.0353 2.5
    endloop
  endfacet
  facet normal 0 0 1
    outer loop
      vertex -53 -52 2.5
      vertex 0 48 2.5
      vertex -0.522104 48.0342 2.5
    endloop
  endfacet
  facet normal 0 0 1
    outer loop
      vertex -53 -52 2.5
      vertex -0.522104 48.0342 2.5
      vertex -1.03528 48.1363 2.5
    endloop
  endfacet
  facet normal 0 0 1
    outer loop
      vertex -53 -52 2.5
      vertex -1.03528 48.1363 2.5
      vertex -1.53073 48.3045 2.5
    endloop
  endfacet
  facet normal 0 0 1
    outer loop
      vertex -53 -52 2.5
      vertex -1.53073 48.3045 2.5
      vertex -2 48.5359 2.5
    endloop
  endfacet
  facet normal 0 0 1
    outer loop
      vertex -53 -52 2.5
      vertex -2 48.5359 2.5
      vertex -2.43505 48.8266 2.5
    endloop
  endfacet
  facet normal 0 0 1
    outer loop
      vertex -53 -52 2.5
      vertex -2.43505 48.8266 2.5
      vertex -2.82843 49.1716 2.5
    endloop
  endfacet
  facet normal 0 0 1
    outer loop
      vertex -53 -52 2.5
      vertex -2.82843 49.1716 2.5
      vertex -3.17341 49.565 2.5
    endloop
  endfacet
  facet normal 0 0 1
    outer loop
      vertex -53 -52 2.5
      vertex -3.17341 49.565 2.5
      vertex -3.4641 50 2.5
    endloop
  endfacet
  facet normal 0 0 1
    outer loop
      vertex -53 -52 2.5
      vertex -3.96578 51.4779 2.5
      vertex -4 52 2.5
    endloop
  endfacet
  facet normal 0 0 1
    outer loop
      vertex -53 -52 2.5
      vertex -3.8637 50.9647 2.5
      vertex -3.96578 51.4779 2.5
    endloop
  endfacet
  facet normal 0 0 1
    outer loop
      vertex -53 -52 2.5
      vertex -3.69552 50.4693 2.5
      vertex -3.8637 50.9647 2.5
    endloop
  endfacet
  facet normal 0 0 1
    outer loop
      vertex -53 -52 2.5
      vertex -3.4641 50 2.5
      vertex -3.69552 50.4693 2.5
    endloop
  endfacet
  facet normal 0 0 1
    outer loop
      vertex -53.1363 -53.0353 2.5
      vertex 53.1363 -53.0353 2.5
      vertex -53.0342 -52.5221 2.5
    endloop
  endfacet
  facet normal 0 0 1
    outer loop
      vertex 53.1363 -53.0353 2.5
      vertex -53.1363 -53.0353 2.5
      vertex 53.3045 -53.5307 2.5
    endloop
  endfacet
  facet normal 0 0 1
    outer loop
      vertex -53.3045 -53.5307 2.5
      vertex 53.3045 -53.5307 2.5
      vertex -53.1363 -53.0353 2.5
    endloop
  endfacet
  facet normal 0 0 1
    outer loop
      vertex 53.3045 -53.5307 2.5
      vertex -53.3045 -53.5307 2.5
      vertex 53.5359 -54 2.5
    endloop
  endfacet
  facet normal 0 0 1
    outer loop
      vertex -53.5359 -54 2.5
      vertex 53.5359 -54 2.5
      vertex -53.3045 -53.5307 2.5
    endloop
  endfacet
  facet normal 0 0 1
    outer loop
      vertex 53.5359 -54 2.5
      vertex -53.5359 -54 2.5
      vertex 53.8266 -54.435 2.5
    endloop
  endfacet
  facet normal 0 0 1
    outer loop
      vertex -53.8266 -54.435 2.5
      vertex 53.8266 -54.435 2.5
      vertex -53.5359 -54 2.5
    endloop
  endfacet
  facet normal 0 0 1
    outer loop
      vertex 53.8266 -54.435 2.5
      vertex -53.8266 -54.435 2.5
      vertex 54.1716 -54.8284 2.5
    endloop
  endfacet
  facet normal 0 0 1
    outer loop
      vertex -54.1716 -54.8284 2.5
      vertex 54.1716 -54.8284 2.5
      vertex -53.8266 -54.435 2.5
    endloop
  endfacet
  facet normal 0 0 1
    outer loop
      vertex 54.1716 -54.8284 2.5
      vertex -54.1716 -54.8284 2.5
      vertex 54.565 -55.1734 2.5
    endloop
  endfacet
  facet normal 0 0 1
    outer loop
      vertex -54.565 -55.1734 2.5
      vertex 54.565 -55.1734 2.5
      vertex -54.1716 -54.8284 2.5
    endloop
  endfacet
  facet normal 0 0 1
    outer loop
      vertex 54.565 -55.1734 2.5
      vertex -54.565 -55.1734 2.5
      vertex 55 -55.4641 2.5
    endloop
  endfacet
  facet normal 0 0 1
    outer loop
      vertex -55 -55.4641 2.5
      vertex 55 -55.4641 2.5
      vertex -54.565 -55.1734 2.5
    endloop
  endfacet
  facet normal 0 0 1
    outer loop
      vertex 55 -55.4641 2.5
      vertex -55 -55.4641 2.5
      vertex 70 -65 2.5
    endloop
  endfacet
  facet normal 0 0 1
    outer loop
      vertex -70 -65 2.5
      vertex -55 -55.4641 2.5
      vertex -55.4693 -55.6955 2.5
    endloop
  endfacet
  facet normal 0 0 1
    outer loop
      vertex -70 -65 2.5
      vertex -55.4693 -55.6955 2.5
      vertex -55.9647 -55.8637 2.5
    endloop
  endfacet
  facet normal 0 0 1
    outer loop
      vertex -70 -65 2.5
      vertex -55.9647 -55.8637 2.5
      vertex -56.4779 -55.9658 2.5
    endloop
  endfacet
  facet normal 0 0 1
    outer loop
      vertex -70 -65 2.5
      vertex -56.4779 -55.9658 2.5
      vertex -57 -56 2.5
    endloop
  endfacet
  facet normal 0 0 1
    outer loop
      vertex -70 -65 2.5
      vertex -57 -56 2.5
      vertex -57.5221 -55.9658 2.5
    endloop
  endfacet
  facet normal 0 0 1
    outer loop
      vertex -60.9658 -51.4779 2.5
      vertex -70 -65 2.5
      vertex -61 -52 2.5
    endloop
  endfacet
  facet normal 0 0 1
    outer loop
      vertex -55 -55.4641 2.5
      vertex -70 -65 2.5
      vertex 70 -65 2.5
    endloop
  endfacet
  facet normal 0 0 1
    outer loop
      vertex -58.0353 -55.8637 2.5
      vertex -70 -65 2.5
      vertex -57.5221 -55.9658 2.5
    endloop
  endfacet
  facet normal 0 0 1
    outer loop
      vertex -58.5307 -55.6955 2.5
      vertex -70 -65 2.5
      vertex -58.0353 -55.8637 2.5
    endloop
  endfacet
  facet normal 0 0 1
    outer loop
      vertex -59 -55.4641 2.5
      vertex -70 -65 2.5
      vertex -58.5307 -55.6955 2.5
    endloop
  endfacet
  facet normal 0 0 1
    outer loop
      vertex -59.435 -55.1734 2.5
      vertex -70 -65 2.5
      vertex -59 -55.4641 2.5
    endloop
  endfacet
  facet normal 0 0 1
    outer loop
      vertex -59.8284 -54.8284 2.5
      vertex -70 -65 2.5
      vertex -59.435 -55.1734 2.5
    endloop
  endfacet
  facet normal 0 0 1
    outer loop
      vertex -60.1734 -54.435 2.5
      vertex -70 -65 2.5
      vertex -59.8284 -54.8284 2.5
    endloop
  endfacet
  facet normal 0 0 1
    outer loop
      vertex -60.4641 -54 2.5
      vertex -70 -65 2.5
      vertex -60.1734 -54.435 2.5
    endloop
  endfacet
  facet normal 0 0 1
    outer loop
      vertex -60.6955 -53.5307 2.5
      vertex -70 -65 2.5
      vertex -60.4641 -54 2.5
    endloop
  endfacet
  facet normal 0 0 1
    outer loop
      vertex -60.8637 -53.0353 2.5
      vertex -70 -65 2.5
      vertex -60.6955 -53.5307 2.5
    endloop
  endfacet
  facet normal 0 0 1
    outer loop
      vertex -60.9658 -52.5221 2.5
      vertex -70 -65 2.5
      vertex -60.8637 -53.0353 2.5
    endloop
  endfacet
  facet normal 0 0 1
    outer loop
      vertex -61 -52 2.5
      vertex -70 -65 2.5
      vertex -60.9658 -52.5221 2.5
    endloop
  endfacet
  facet normal 0 0 -1
    outer loop
      vertex 60.9658 -51.4779 -2.5
      vertex 70 -65 -2.5
      vertex 61 -52 -2.5
    endloop
  endfacet
  facet normal 0 0 -1
    outer loop
      vertex 70 -65 -2.5
      vertex 60.9658 -52.5221 -2.5
      vertex 61 -52 -2.5
    endloop
  endfacet
  facet normal 0 0 -1
    outer loop
      vertex 70 -65 -2.5
      vertex 60.8637 -53.0353 -2.5
      vertex 60.9658 -52.5221 -2.5
    endloop
  endfacet
  facet normal 0 0 -1
    outer loop
      vertex 70 -65 -2.5
      vertex 60.6955 -53.5307 -2.5
      vertex 60.8637 -53.0353 -2.5
    endloop
  endfacet
  facet normal 0 0 -1
    outer loop
      vertex 70 -65 -2.5
      vertex 60.4641 -54 -2.5
      vertex 60.6955 -53.5307 -2.5
    endloop
  endfacet
  facet normal 0 0 -1
    outer loop
      vertex 70 -65 -2.5
      vertex 60.1734 -54.435 -2.5
      vertex 60.4641 -54 -2.5
    endloop
  endfacet
  facet normal 0 0 -1
    outer loop
      vertex 70 -65 -2.5
      vertex 59.8284 -54.8284 -2.5
      vertex 60.1734 -54.435 -2.5
    endloop
  endfacet
  facet normal 0 0 -1
    outer loop
      vertex 70 -65 -2.5
      vertex 59.435 -55.1734 -2.5
      vertex 59.8284 -54.8284 -2.5
    endloop
  endfacet
  facet normal 0 0 -1
    outer loop
      vertex 70 -65 -2.5
      vertex 59 -55.4641 -2.5
      vertex 59.435 -55.1734 -2.5
    endloop
  endfacet
  facet normal 0 0 -1
    outer loop
      vertex 70 -65 -2.5
      vertex 58.5307 -55.6955 -2.5
      vertex 59 -55.4641 -2.5
    endloop
  endfacet
  facet normal 0 0 -1
    outer loop
      vertex 70 -65 -2.5
      vertex 58.0353 -55.8637 -2.5
      vertex 58.5307 -55.6955 -2.5
    endloop
  endfacet
  facet normal 0 0 -1
    outer loop
      vertex 70 -65 -2.5
      vertex 57.5221 -55.9658 -2.5
      vertex 58.0353 -55.8637 -2.5
    endloop
  endfacet
  facet normal 0 0 -1
    outer loop
      vertex 70 -65 -2.5
      vertex 57 -56 -2.5
      vertex 57.5221 -55.9658 -2.5
    endloop
  endfacet
  facet normal 0 0 -1
    outer loop
      vertex 70 -65 -2.5
      vertex 56.4779 -55.9658 -2.5
      vertex 57 -56 -2.5
    endloop
  endfacet
  facet normal 0 0 -1
    outer loop
      vertex 70 -65 -2.5
      vertex 55.9647 -55.8637 -2.5
      vertex 56.4779 -55.9658 -2.5
    endloop
  endfacet
  facet normal 0 0 -1
    outer loop
      vertex 70 -65 -2.5
      vertex 55.4693 -55.6955 -2.5
      vertex 55.9647 -55.8637 -2.5
    endloop
  endfacet
  facet normal 0 0 -1
    outer loop
      vertex 70 -65 -2.5
      vertex 55 -55.4641 -2.5
      vertex 55.4693 -55.6955 -2.5
    endloop
  endfacet
  facet normal 0 0 -1
    outer loop
      vertex -53 -52 -2.5
      vertex 53 -52 -2.5
      vertex 53.0342 -52.5221 -2.5
    endloop
  endfacet
  facet normal 0 0 -1
    outer loop
      vertex -53.0342 -52.5221 -2.5
      vertex 53.0342 -52.5221 -2.5
      vertex 53.1363 -53.0353 -2.5
    endloop
  endfacet
  facet normal 0 0 -1
    outer loop
      vertex -53.1363 -53.0353 -2.5
      vertex 53.1363 -53.0353 -2.5
      vertex 53.3045 -53.5307 -2.5
    endloop
  endfacet
  facet normal 0 0 -1
    outer loop
      vertex 53 -52 -2.5
      vertex 3.96578 51.4779 -2.5
      vertex 4 52 -2.5
    endloop
  endfacet
  facet normal 0 0 -1
    outer loop
      vertex 53 -52 -2.5
      vertex 3.8637 50.9647 -2.5
      vertex 3.96578 51.4779 -2.5
    endloop
  endfacet
  facet normal 0 0 -1
    outer loop
      vertex 53 -52 -2.5
      vertex 3.69552 50.4693 -2.5
      vertex 3.8637 50.9647 -2.5
    endloop
  endfacet
  facet normal 0 0 -1
    outer loop
      vertex 53 -52 -2.5
      vertex 3.4641 50 -2.5
      vertex 3.69552 50.4693 -2.5
    endloop
  endfacet
  facet normal 0 0 -1
    outer loop
      vertex 53 -52 -2.5
      vertex 3.17341 49.565 -2.5
      vertex 3.4641 50 -2.5
    endloop
  endfacet
  facet normal 0 0 -1
    outer loop
      vertex 53 -52 -2.5
      vertex 2.82843 49.1716 -2.5
      vertex 3.17341 49.565 -2.5
    endloop
  endfacet
  facet normal 0 0 -1
    outer loop
      vertex 53 -52 -2.5
      vertex 2.43505 48.8266 -2.5
      vertex 2.82843 49.1716 -2.5
    endloop
  endfacet
  facet normal 0 0 -1
    outer loop
      vertex -53.3045 -53.5307 -2.5
      vertex 53.3045 -53.5307 -2.5
      vertex 53.5359 -54 -2.5
    endloop
  endfacet
  facet normal 0 0 -1
    outer loop
      vertex 53 -52 -2.5
      vertex 2 48.5359 -2.5
      vertex 2.43505 48.8266 -2.5
    endloop
  endfacet
  facet normal 0 0 -1
    outer loop
      vertex 53 -52 -2.5
      vertex 1.53073 48.3045 -2.5
      vertex 2 48.5359 -2.5
    endloop
  endfacet
  facet normal 0 0 -1
    outer loop
      vertex 53 -52 -2.5
      vertex 1.03528 48.1363 -2.5
      vertex 1.53073 48.3045 -2.5
    endloop
  endfacet
  facet normal 0 0 -1
    outer loop
      vertex 53 -52 -2.5
      vertex 0.522104 48.0342 -2.5
      vertex 1.03528 48.1363 -2.5
    endloop
  endfacet
  facet normal 0 0 -1
    outer loop
      vertex 53 -52 -2.5
      vertex 0 48 -2.5
      vertex 0.522104 48.0342 -2.5
    endloop
  endfacet
  facet normal 0 0 -1
    outer loop
      vertex 53 -52 -2.5
      vertex -53.5359 -50 -2.5
      vertex 0 48 -2.5
    endloop
  endfacet
  facet normal 0 0 -1
    outer loop
      vertex -53.8266 -49.565 -2.5
      vertex 0 48 -2.5
      vertex -53.5359 -50 -2.5
    endloop
  endfacet
  facet normal -0 0 -1
    outer loop
      vertex 0 48 -2.5
      vertex -53.8266 -49.565 -2.5
      vertex -0.522104 48.0342 -2.5
    endloop
  endfacet
  facet normal 0 0 -1
    outer loop
      vertex -54.1716 -49.1716 -2.5
      vertex -0.522104 48.0342 -2.5
      vertex -53.8266 -49.565 -2.5
    endloop
  endfacet
  facet normal -0 0 -1
    outer loop
      vertex -0.522104 48.0342 -2.5
      vertex -54.1716 -49.1716 -2.5
      vertex -1.03528 48.1363 -2.5
    endloop
  endfacet
  facet normal 0 0 -1
    outer loop
      vertex -54.565 -48.8266 -2.5
      vertex -1.03528 48.1363 -2.5
      vertex -54.1716 -49.1716 -2.5
    endloop
  endfacet
  facet normal -0 0 -1
    outer loop
      vertex -1.03528 48.1363 -2.5
      vertex -54.565 -48.8266 -2.5
      vertex -1.53073 48.3045 -2.5
    endloop
  endfacet
  facet normal 0 0 -1
    outer loop
      vertex -55 -48.5359 -2.5
      vertex -1.53073 48.3045 -2.5
      vertex -54.565 -48.8266 -2.5
    endloop
  endfacet
  facet normal -0 0 -1
    outer loop
      vertex -1.53073 48.3045 -2.5
      vertex -55 -48.5359 -2.5
      vertex -2 48.5359 -2.5
    endloop
  endfacet
  facet normal 0 0 -1
    outer loop
      vertex 53 -52 -2.5
      vertex -53.3045 -50.4693 -2.5
      vertex -53.5359 -50 -2.5
    endloop
  endfacet
  facet normal 0 0 -1
    outer loop
      vertex 53 -52 -2.5
      vertex -53.1363 -50.9647 -2.5
      vertex -53.3045 -50.4693 -2.5
    endloop
  endfacet
  facet normal 0 0 -1
    outer loop
      vertex 53 -52 -2.5
      vertex -53.0342 -51.4779 -2.5
      vertex -53.1363 -50.9647 -2.5
    endloop
  endfacet
  facet normal 0 0 -1
    outer loop
      vertex 53 -52 -2.5
      vertex -53 -52 -2.5
      vertex -53.0342 -51.4779 -2.5
    endloop
  endfacet
  facet normal 0 0 -1
    outer loop
      vertex -53.5359 -54 -2.5
      vertex 53.5359 -54 -2.5
      vertex 53.8266 -54.435 -2.5
    endloop
  endfacet
  facet normal 0 0 -1
    outer loop
      vertex -53.8266 -54.435 -2.5
      vertex 53.8266 -54.435 -2.5
      vertex 54.1716 -54.8284 -2.5
    endloop
  endfacet
  facet normal 0 0 -1
    outer loop
      vertex -54.1716 -54.8284 -2.5
      vertex 54.1716 -54.8284 -2.5
      vertex 54.565 -55.1734 -2.5
    endloop
  endfacet
  facet normal 0 0 -1
    outer loop
      vertex -54.565 -55.1734 -2.5
      vertex 54.565 -55.1734 -2.5
      vertex 55 -55.4641 -2.5
    endloop
  endfacet
  facet normal 0 0 -1
    outer loop
      vertex -55 -55.4641 -2.5
      vertex 55 -55.4641 -2.5
      vertex 70 -65 -2.5
    endloop
  endfacet
  facet normal 0 0 -1
    outer loop
      vertex 53.0342 -52.5221 -2.5
      vertex -53.0342 -52.5221 -2.5
      vertex -53 -52 -2.5
    endloop
  endfacet
  facet normal 0 0 -1
    outer loop
      vertex 53.1363 -53.0353 -2.5
      vertex -53.1363 -53.0353 -2.5
      vertex -53.0342 -52.5221 -2.5
    endloop
  endfacet
  facet normal 0 0 -1
    outer loop
      vertex 53.3045 -53.5307 -2.5
      vertex -53.3045 -53.5307 -2.5
      vertex -53.1363 -53.0353 -2.5
    endloop
  endfacet
  facet normal 0 0 -1
    outer loop
      vertex 53.5359 -54 -2.5
      vertex -53.5359 -54 -2.5
      vertex -53.3045 -53.5307 -2.5
    endloop
  endfacet
  facet normal 0 0 -1
    outer loop
      vertex 53.8266 -54.435 -2.5
      vertex -53.8266 -54.435 -2.5
      vertex -53.5359 -54 -2.5
    endloop
  endfacet
  facet normal 0 0 -1
    outer loop
      vertex 54.1716 -54.8284 -2.5
      vertex -54.1716 -54.8284 -2.5
      vertex -53.8266 -54.435 -2.5
    endloop
  endfacet
  facet normal 0 0 -1
    outer loop
      vertex 54.565 -55.1734 -2.5
      vertex -54.565 -55.1734 -2.5
      vertex -54.1716 -54.8284 -2.5
    endloop
  endfacet
  facet normal 0 0 -1
    outer loop
      vertex 55 -55.4641 -2.5
      vertex -55 -55.4641 -2.5
      vertex -54.565 -55.1734 -2.5
    endloop
  endfacet
  facet normal 0 0 -1
    outer loop
      vertex -70 -65 -2.5
      vertex -55 -55.4641 -2.5
      vertex 70 -65 -2.5
    endloop
  endfacet
  facet normal 0 0 -1
    outer loop
      vertex -55 -55.4641 -2.5
      vertex -70 -65 -2.5
      vertex -55.4693 -55.6955 -2.5
    endloop
  endfacet
  facet normal 0 0 -1
    outer loop
      vertex -55.4693 -55.6955 -2.5
      vertex -70 -65 -2.5
      vertex -55.9647 -55.8637 -2.5
    endloop
  endfacet
  facet normal 0 0 -1
    outer loop
      vertex -55.9647 -55.8637 -2.5
      vertex -70 -65 -2.5
      vertex -56.4779 -55.9658 -2.5
    endloop
  endfacet
  facet normal 0 0 -1
    outer loop
      vertex -56.4779 -55.9658 -2.5
      vertex -70 -65 -2.5
      vertex -57 -56 -2.5
    endloop
  endfacet
  facet normal -0 0 -1
    outer loop
      vertex -60.9658 -52.5221 -2.5
      vertex -70 -65 -2.5
      vertex -61 -52 -2.5
    endloop
  endfacet
  facet normal -0 0 -1
    outer loop
      vertex -60.8637 -53.0353 -2.5
      vertex -70 -65 -2.5
      vertex -60.9658 -52.5221 -2.5
    endloop
  endfacet
  facet normal -0 0 -1
    outer loop
      vertex -60.6955 -53.5307 -2.5
      vertex -70 -65 -2.5
      vertex -60.8637 -53.0353 -2.5
    endloop
  endfacet
  facet normal -0 0 -1
    outer loop
      vertex -60.4641 -54 -2.5
      vertex -70 -65 -2.5
      vertex -60.6955 -53.5307 -2.5
    endloop
  endfacet
  facet normal -0 0 -1
    outer loop
      vertex -60.1734 -54.435 -2.5
      vertex -70 -65 -2.5
      vertex -60.4641 -54 -2.5
    endloop
  endfacet
  facet normal -0 0 -1
    outer loop
      vertex -59.8284 -54.8284 -2.5
      vertex -70 -65 -2.5
      vertex -60.1734 -54.435 -2.5
    endloop
  endfacet
  facet normal -0 0 -1
    outer loop
      vertex -59.435 -55.1734 -2.5
      vertex -70 -65 -2.5
      vertex -59.8284 -54.8284 -2.5
    endloop
  endfacet
  facet normal -0 0 -1
    outer loop
      vertex -59 -55.4641 -2.5
      vertex -70 -65 -2.5
      vertex -59.435 -55.1734 -2.5
    endloop
  endfacet
  facet normal -0 0 -1
    outer loop
      vertex -58.5307 -55.6955 -2.5
      vertex -70 -65 -2.5
      vertex -59 -55.4641 -2.5
    endloop
  endfacet
  facet normal -0 0 -1
    outer loop
      vertex -58.0353 -55.8637 -2.5
      vertex -70 -65 -2.5
      vertex -58.5307 -55.6955 -2.5
    endloop
  endfacet
  facet normal -0 0 -1
    outer loop
      vertex -57.5221 -55.9658 -2.5
      vertex -70 -65 -2.5
      vertex -58.0353 -55.8637 -2.5
    endloop
  endfacet
  facet normal -0 0 -1
    outer loop
      vertex -57 -56 -2.5
      vertex -70 -65 -2.5
      vertex -57.5221 -55.9658 -2.5
    endloop
  endfacet
  facet normal 0 0 -1
    outer loop
      vertex 60.8637 -50.9647 -2.5
      vertex 70 -65 -2.5
      vertex 60.9658 -51.4779 -2.5
    endloop
  endfacet
  facet normal 0 0 -1
    outer loop
      vertex 60.6955 -50.4693 -2.5
      vertex 70 -65 -2.5
      vertex 60.8637 -50.9647 -2.5
    endloop
  endfacet
  facet normal 0 0 -1
    outer loop
      vertex 60.4641 -50 -2.5
      vertex 70 -65 -2.5
      vertex 60.6955 -50.4693 -2.5
    endloop
  endfacet
  facet normal 0 0 -1
    outer loop
      vertex 70 -65 -2.5
      vertex 60.4641 -50 -2.5
      vertex 70 65 -2.5
    endloop
  endfacet
  facet normal 0 0 -1
    outer loop
      vertex 60.1734 -49.565 -2.5
      vertex 70 65 -2.5
      vertex 60.4641 -50 -2.5
    endloop
  endfacet
  facet normal 0 0 -1
    outer loop
      vertex 59.8284 -49.1716 -2.5
      vertex 70 65 -2.5
      vertex 60.1734 -49.565 -2.5
    endloop
  endfacet
  facet normal 0 0 -1
    outer loop
      vertex 59.435 -48.8266 -2.5
      vertex 70 65 -2.5
      vertex 59.8284 -49.1716 -2.5
    endloop
  endfacet
  facet normal 0 0 -1
    outer loop
      vertex 59 -48.5359 -2.5
      vertex 70 65 -2.5
      vertex 59.435 -48.8266 -2.5
    endloop
  endfacet
  facet normal 0 0 -1
    outer loop
      vertex 58.5307 -48.3045 -2.5
      vertex 70 65 -2.5
      vertex 59 -48.5359 -2.5
    endloop
  endfacet
  facet normal 0 0 -1
    outer loop
      vertex 58.0353 -48.1363 -2.5
      vertex 70 65 -2.5
      vertex 58.5307 -48.3045 -2.5
    endloop
  endfacet
  facet normal 0 0 -1
    outer loop
      vertex 57.5221 -48.0342 -2.5
      vertex 70 65 -2.5
      vertex 58.0353 -48.1363 -2.5
    endloop
  endfacet
  facet normal 0 0 -1
    outer loop
      vertex 57 -48 -2.5
      vertex 70 65 -2.5
      vertex 57.5221 -48.0342 -2.5
    endloop
  endfacet
  facet normal 0 0 -1
    outer loop
      vertex 56.4779 -48.0342 -2.5
      vertex 70 65 -2.5
      vertex 57 -48 -2.5
    endloop
  endfacet
  facet normal 0 0 -1
    outer loop
      vertex 4 52 -2.5
      vertex 56.4779 -48.0342 -2.5
      vertex 55.9647 -48.1363 -2.5
    endloop
  endfacet
  facet normal 0 0 -1
    outer loop
      vertex 4 52 -2.5
      vertex 55.9647 -48.1363 -2.5
      vertex 55.4693 -48.3045 -2.5
    endloop
  endfacet
  facet normal 0 0 -1
    outer loop
      vertex 4 52 -2.5
      vertex 55.4693 -48.3045 -2.5
      vertex 55 -48.5359 -2.5
    endloop
  endfacet
  facet normal 0 0 -1
    outer loop
      vertex 4 52 -2.5
      vertex 55 -48.5359 -2.5
      vertex 54.565 -48.8266 -2.5
    endloop
  endfacet
  facet normal 0 0 -1
    outer loop
      vertex 4 52 -2.5
      vertex 54.565 -48.8266 -2.5
      vertex 54.1716 -49.1716 -2.5
    endloop
  endfacet
  facet normal 0 0 -1
    outer loop
      vertex 4 52 -2.5
      vertex 54.1716 -49.1716 -2.5
      vertex 53.8266 -49.565 -2.5
    endloop
  endfacet
  facet normal 0 0 -1
    outer loop
      vertex 4 52 -2.5
      vertex 53.8266 -49.565 -2.5
      vertex 53.5359 -50 -2.5
    endloop
  endfacet
  facet normal 0 0 -1
    outer loop
      vertex 4 52 -2.5
      vertex 53.5359 -50 -2.5
      vertex 53.3045 -50.4693 -2.5
    endloop
  endfacet
  facet normal 0 0 -1
    outer loop
      vertex 4 52 -2.5
      vertex 53.3045 -50.4693 -2.5
      vertex 53.1363 -50.9647 -2.5
    endloop
  endfacet
  facet normal 0 0 -1
    outer loop
      vertex 4 52 -2.5
      vertex 53.1363 -50.9647 -2.5
      vertex 53.0342 -51.4779 -2.5
    endloop
  endfacet
  facet normal 0 0 -1
    outer loop
      vertex 4 52 -2.5
      vertex 53.0342 -51.4779 -2.5
      vertex 53 -52 -2.5
    endloop
  endfacet
  facet normal 0 0 -1
    outer loop
      vertex 56.4779 -48.0342 -2.5
      vertex 4 52 -2.5
      vertex 70 65 -2.5
    endloop
  endfacet
  facet normal 0 0 -1
    outer loop
      vertex 3.96578 52.5221 -2.5
      vertex 70 65 -2.5
      vertex 4 52 -2.5
    endloop
  endfacet
  facet normal 0 0 -1
    outer loop
      vertex 3.8637 53.0353 -2.5
      vertex 70 65 -2.5
      vertex 3.96578 52.5221 -2.5
    endloop
  endfacet
  facet normal 0 0 -1
    outer loop
      vertex 3.69552 53.5307 -2.5
      vertex 70 65 -2.5
      vertex 3.8637 53.0353 -2.5
    endloop
  endfacet
  facet normal 0 0 -1
    outer loop
      vertex 3.4641 54 -2.5
      vertex 70 65 -2.5
      vertex 3.69552 53.5307 -2.5
    endloop
  endfacet
  facet normal 0 0 -1
    outer loop
      vertex 3.17341 54.435 -2.5
      vertex 70 65 -2.5
      vertex 3.4641 54 -2.5
    endloop
  endfacet
  facet normal 0 0 -1
    outer loop
      vertex 2.82843 54.8284 -2.5
      vertex 70 65 -2.5
      vertex 3.17341 54.435 -2.5
    endloop
  endfacet
  facet normal 0 0 -1
    outer loop
      vertex 2.43505 55.1734 -2.5
      vertex 70 65 -2.5
      vertex 2.82843 54.8284 -2.5
    endloop
  endfacet
  facet normal 0 0 -1
    outer loop
      vertex 2 55.4641 -2.5
      vertex 70 65 -2.5
      vertex 2.43505 55.1734 -2.5
    endloop
  endfacet
  facet normal 0 0 -1
    outer loop
      vertex 1.53073 55.6955 -2.5
      vertex 70 65 -2.5
      vertex 2 55.4641 -2.5
    endloop
  endfacet
  facet normal 0 0 -1
    outer loop
      vertex 1.03528 55.8637 -2.5
      vertex 70 65 -2.5
      vertex 1.53073 55.6955 -2.5
    endloop
  endfacet
  facet normal 0 0 -1
    outer loop
      vertex 0.522104 55.9658 -2.5
      vertex 70 65 -2.5
      vertex 1.03528 55.8637 -2.5
    endloop
  endfacet
  facet normal 0 0 -1
    outer loop
      vertex 0 56 -2.5
      vertex 70 65 -2.5
      vertex 0.522104 55.9658 -2.5
    endloop
  endfacet
  facet normal 0 0 -1
    outer loop
      vertex -70 65 -2.5
      vertex 0 56 -2.5
      vertex -0.522104 55.9658 -2.5
    endloop
  endfacet
  facet normal 0 0 -1
    outer loop
      vertex -55.4693 -48.3045 -2.5
      vertex -2 48.5359 -2.5
      vertex -55 -48.5359 -2.5
    endloop
  endfacet
  facet normal -0 0 -1
    outer loop
      vertex -2 48.5359 -2.5
      vertex -55.4693 -48.3045 -2.5
      vertex -2.43505 48.8266 -2.5
    endloop
  endfacet
  facet normal 0 0 -1
    outer loop
      vertex -55.9647 -48.1363 -2.5
      vertex -2.43505 48.8266 -2.5
      vertex -55.4693 -48.3045 -2.5
    endloop
  endfacet
  facet normal -0 0 -1
    outer loop
      vertex -2.43505 48.8266 -2.5
      vertex -55.9647 -48.1363 -2.5
      vertex -2.82843 49.1716 -2.5
    endloop
  endfacet
  facet normal 0 0 -1
    outer loop
      vertex -56.4779 -48.0342 -2.5
      vertex -2.82843 49.1716 -2.5
      vertex -55.9647 -48.1363 -2.5
    endloop
  endfacet
  facet normal -0 0 -1
    outer loop
      vertex -2.82843 49.1716 -2.5
      vertex -56.4779 -48.0342 -2.5
      vertex -3.17341 49.565 -2.5
    endloop
  endfacet
  facet normal 0 0 -1
    outer loop
      vertex -70 65 -2.5
      vertex -3.17341 49.565 -2.5
      vertex -56.4779 -48.0342 -2.5
    endloop
  endfacet
  facet normal 0 0 -1
    outer loop
      vertex -3.17341 49.565 -2.5
      vertex -70 65 -2.5
      vertex -3.4641 50 -2.5
    endloop
  endfacet
  facet normal 0 0 -1
    outer loop
      vertex -3.4641 50 -2.5
      vertex -70 65 -2.5
      vertex -3.69552 50.4693 -2.5
    endloop
  endfacet
  facet normal 0 0 -1
    outer loop
      vertex -3.69552 50.4693 -2.5
      vertex -70 65 -2.5
      vertex -3.8637 50.9647 -2.5
    endloop
  endfacet
  facet normal 0 0 -1
    outer loop
      vertex -3.8637 50.9647 -2.5
      vertex -70 65 -2.5
      vertex -3.96578 51.4779 -2.5
    endloop
  endfacet
  facet normal 0 0 -1
    outer loop
      vertex -3.96578 51.4779 -2.5
      vertex -70 65 -2.5
      vertex -4 52 -2.5
    endloop
  endfacet
  facet normal 0 0 -1
    outer loop
      vertex -4 52 -2.5
      vertex -70 65 -2.5
      vertex -3.96578 52.5221 -2.5
    endloop
  endfacet
  facet normal 0 0 -1
    outer loop
      vertex -3.96578 52.5221 -2.5
      vertex -70 65 -2.5
      vertex -3.8637 53.0353 -2.5
    endloop
  endfacet
  facet normal 0 0 -1
    outer loop
      vertex -3.8637 53.0353 -2.5
      vertex -70 65 -2.5
      vertex -3.69552 53.5307 -2.5
    endloop
  endfacet
  facet normal 0 0 -1
    outer loop
      vertex -70 65 -2.5
      vertex -56.4779 -48.0342 -2.5
      vertex -57 -48 -2.5
    endloop
  endfacet
  facet normal 0 0 -1
    outer loop
      vertex -70 65 -2.5
      vertex -57 -48 -2.5
      vertex -57.5221 -48.0342 -2.5
    endloop
  endfacet
  facet normal 0 0 -1
    outer loop
      vertex -70 65 -2.5
      vertex -57.5221 -48.0342 -2.5
      vertex -58.0353 -48.1363 -2.5
    endloop
  endfacet
  facet normal 0 0 -1
    outer loop
      vertex -70 65 -2.5
      vertex -58.0353 -48.1363 -2.5
      vertex -58.5307 -48.3045 -2.5
    endloop
  endfacet
  facet normal 0 0 -1
    outer loop
      vertex -70 65 -2.5
      vertex -58.5307 -48.3045 -2.5
      vertex -59 -48.5359 -2.5
    endloop
  endfacet
  facet normal 0 0 -1
    outer loop
      vertex -70 65 -2.5
      vertex -59 -48.5359 -2.5
      vertex -59.435 -48.8266 -2.5
    endloop
  endfacet
  facet normal 0 0 -1
    outer loop
      vertex -70 65 -2.5
      vertex -59.435 -48.8266 -2.5
      vertex -59.8284 -49.1716 -2.5
    endloop
  endfacet
  facet normal 0 0 -1
    outer loop
      vertex -70 65 -2.5
      vertex -59.8284 -49.1716 -2.5
      vertex -60.1734 -49.565 -2.5
    endloop
  endfacet
  facet normal 0 0 -1
    outer loop
      vertex -70 65 -2.5
      vertex -60.1734 -49.565 -2.5
      vertex -60.4641 -50 -2.5
    endloop
  endfacet
  facet normal 0 0 -1
    outer loop
      vertex -70 -65 -2.5
      vertex -60.9658 -51.4779 -2.5
      vertex -61 -52 -2.5
    endloop
  endfacet
  facet normal 0 0 -1
    outer loop
      vertex -70 -65 -2.5
      vertex -60.8637 -50.9647 -2.5
      vertex -60.9658 -51.4779 -2.5
    endloop
  endfacet
  facet normal 0 0 -1
    outer loop
      vertex -70 -65 -2.5
      vertex -60.6955 -50.4693 -2.5
      vertex -60.8637 -50.9647 -2.5
    endloop
  endfacet
  facet normal 0 0 -1
    outer loop
      vertex -70 -65 -2.5
      vertex -60.4641 -50 -2.5
      vertex -60.6955 -50.4693 -2.5
    endloop
  endfacet
  facet normal 0 0 -1
    outer loop
      vertex -70 65 -2.5
      vertex -60.4641 -50 -2.5
      vertex -70 -65 -2.5
    endloop
  endfacet
  facet normal 0 0 -1
    outer loop
      vertex 0 56 -2.5
      vertex -70 65 -2.5
      vertex 70 65 -2.5
    endloop
  endfacet
  facet normal 0 0 -1
    outer loop
      vertex -1.03528 55.8637 -2.5
      vertex -70 65 -2.5
      vertex -0.522104 55.9658 -2.5
    endloop
  endfacet
  facet normal 0 0 -1
    outer loop
      vertex -1.53073 55.6955 -2.5
      vertex -70 65 -2.5
      vertex -1.03528 55.8637 -2.5
    endloop
  endfacet
  facet normal 0 0 -1
    outer loop
      vertex -2 55.4641 -2.5
      vertex -70 65 -2.5
      vertex -1.53073 55.6955 -2.5
    endloop
  endfacet
  facet normal 0 0 -1
    outer loop
      vertex -2.43505 55.1734 -2.5
      vertex -70 65 -2.5
      vertex -2 55.4641 -2.5
    endloop
  endfacet
  facet normal 0 0 -1
    outer loop
      vertex -2.82843 54.8284 -2.5
      vertex -70 65 -2.5
      vertex -2.43505 55.1734 -2.5
    endloop
  endfacet
  facet normal 0 0 -1
    outer loop
      vertex -3.17341 54.435 -2.5
      vertex -70 65 -2.5
      vertex -2.82843 54.8284 -2.5
    endloop
  endfacet
  facet normal 0 0 -1
    outer loop
      vertex -3.4641 54 -2.5
      vertex -70 65 -2.5
      vertex -3.17341 54.435 -2.5
    endloop
  endfacet
  facet normal 0 0 -1
    outer loop
      vertex -3.69552 53.5307 -2.5
      vertex -70 65 -2.5
      vertex -3.4641 54 -2.5
    endloop
  endfacet
  facet normal -1 0 0
    outer loop
      vertex -70 -65 -2.5
      vertex -70 65 2.5
      vertex -70 65 -2.5
    endloop
  endfacet
  facet normal -1 -0 0
    outer loop
      vertex -70 65 2.5
      vertex -70 -65 -2.5
      vertex -70 -65 2.5
    endloop
  endfacet
  facet normal 0 1 -0
    outer loop
      vertex 70 65 -2.5
      vertex -70 65 2.5
      vertex 70 65 2.5
    endloop
  endfacet
  facet normal 0 1 0
    outer loop
      vertex -70 65 2.5
      vertex 70 65 -2.5
      vertex -70 65 -2.5
    endloop
  endfacet
  facet normal 0 -1 0
    outer loop
      vertex -70 -65 -2.5
      vertex 70 -65 2.5
      vertex -70 -65 2.5
    endloop
  endfacet
  facet normal 0 -1 -0
    outer loop
      vertex 70 -65 2.5
      vertex -70 -65 -2.5
      vertex 70 -65 -2.5
    endloop
  endfacet
  facet normal -0.0653646 0.997861 0
    outer loop
      vertex -56.4779 -55.9658 -2.5
      vertex -57 -56 2.5
      vertex -56.4779 -55.9658 2.5
    endloop
  endfacet
  facet normal -0.0653646 0.997861 0
    outer loop
      vertex -57 -56 2.5
      vertex -56.4779 -55.9658 -2.5
      vertex -57 -56 -2.5
    endloop
  endfacet
  facet normal -0.980779 -0.195124 0
    outer loop
      vertex -53.0342 -51.4779 -2.5
      vertex -53.1363 -50.9647 2.5
      vertex -53.1363 -50.9647 -2.5
    endloop
  endfacet
  facet normal -0.980779 -0.195124 0
    outer loop
      vertex -53.1363 -50.9647 2.5
      vertex -53.0342 -51.4779 -2.5
      vertex -53.0342 -51.4779 2.5
    endloop
  endfacet
  facet normal -0.997861 -0.0653646 0
    outer loop
      vertex -53 -52 -2.5
      vertex -53.0342 -51.4779 2.5
      vertex -53.0342 -51.4779 -2.5
    endloop
  endfacet
  facet normal -0.997861 -0.0653646 0
    outer loop
      vertex -53.0342 -51.4779 2.5
      vertex -53 -52 -2.5
      vertex -53 -52 2.5
    endloop
  endfacet
  facet normal -0.94691 -0.321498 0
    outer loop
      vertex -53.1363 -50.9647 -2.5
      vertex -53.3045 -50.4693 2.5
      vertex -53.3045 -50.4693 -2.5
    endloop
  endfacet
  facet normal -0.94691 -0.321498 0
    outer loop
      vertex -53.3045 -50.4693 2.5
      vertex -53.1363 -50.9647 -2.5
      vertex -53.1363 -50.9647 2.5
    endloop
  endfacet
  facet normal 0.997861 0.0653646 0
    outer loop
      vertex -60.9658 -52.5221 2.5
      vertex -61 -52 -2.5
      vertex -61 -52 2.5
    endloop
  endfacet
  facet normal 0.997861 0.0653646 0
    outer loop
      vertex -61 -52 -2.5
      vertex -60.9658 -52.5221 2.5
      vertex -60.9658 -52.5221 -2.5
    endloop
  endfacet
  facet normal 0.94691 -0.321498 0
    outer loop
      vertex -60.8637 -50.9647 2.5
      vertex -60.6955 -50.4693 -2.5
      vertex -60.6955 -50.4693 2.5
    endloop
  endfacet
  facet normal 0.94691 -0.321498 0
    outer loop
      vertex -60.6955 -50.4693 -2.5
      vertex -60.8637 -50.9647 2.5
      vertex -60.8637 -50.9647 -2.5
    endloop
  endfacet
  facet normal 0.896898 -0.442238 0
    outer loop
      vertex -60.6955 -50.4693 2.5
      vertex -60.4641 -50 -2.5
      vertex -60.4641 -50 2.5
    endloop
  endfacet
  facet normal 0.896898 -0.442238 0
    outer loop
      vertex -60.4641 -50 -2.5
      vertex -60.6955 -50.4693 2.5
      vertex -60.6955 -50.4693 -2.5
    endloop
  endfacet
  facet normal 0.980779 0.195124 0
    outer loop
      vertex -60.8637 -53.0353 2.5
      vertex -60.9658 -52.5221 -2.5
      vertex -60.9658 -52.5221 2.5
    endloop
  endfacet
  facet normal 0.980779 0.195124 0
    outer loop
      vertex -60.9658 -52.5221 -2.5
      vertex -60.8637 -53.0353 2.5
      vertex -60.8637 -53.0353 -2.5
    endloop
  endfacet
  facet normal -0.980779 0.195124 0
    outer loop
      vertex -53.1363 -53.0353 -2.5
      vertex -53.0342 -52.5221 2.5
      vertex -53.0342 -52.5221 -2.5
    endloop
  endfacet
  facet normal -0.980779 0.195124 0
    outer loop
      vertex -53.0342 -52.5221 2.5
      vertex -53.1363 -53.0353 -2.5
      vertex -53.1363 -53.0353 2.5
    endloop
  endfacet
  facet normal 0.555626 0.831432 -0
    outer loop
      vertex -59 -55.4641 -2.5
      vertex -59.435 -55.1734 2.5
      vertex -59 -55.4641 2.5
    endloop
  endfacet
  facet normal 0.555626 0.831432 0
    outer loop
      vertex -59.435 -55.1734 2.5
      vertex -59 -55.4641 -2.5
      vertex -59.435 -55.1734 -2.5
    endloop
  endfacet
  facet normal 0.94691 0.321498 0
    outer loop
      vertex -60.6955 -53.5307 2.5
      vertex -60.8637 -53.0353 -2.5
      vertex -60.8637 -53.0353 2.5
    endloop
  endfacet
  facet normal 0.94691 0.321498 0
    outer loop
      vertex -60.8637 -53.0353 -2.5
      vertex -60.6955 -53.5307 2.5
      vertex -60.6955 -53.5307 -2.5
    endloop
  endfacet
  facet normal -0.321498 -0.94691 0
    outer loop
      vertex -55.9647 -48.1363 -2.5
      vertex -55.4693 -48.3045 2.5
      vertex -55.9647 -48.1363 2.5
    endloop
  endfacet
  facet normal -0.321498 -0.94691 -0
    outer loop
      vertex -55.4693 -48.3045 2.5
      vertex -55.9647 -48.1363 -2.5
      vertex -55.4693 -48.3045 -2.5
    endloop
  endfacet
  facet normal -0.94691 0.321498 0
    outer loop
      vertex -53.3045 -53.5307 -2.5
      vertex -53.1363 -53.0353 2.5
      vertex -53.1363 -53.0353 -2.5
    endloop
  endfacet
  facet normal -0.94691 0.321498 0
    outer loop
      vertex -53.1363 -53.0353 2.5
      vertex -53.3045 -53.5307 -2.5
      vertex -53.3045 -53.5307 2.5
    endloop
  endfacet
  facet normal 0.442238 0.896898 -0
    outer loop
      vertex -58.5307 -55.6955 -2.5
      vertex -59 -55.4641 2.5
      vertex -58.5307 -55.6955 2.5
    endloop
  endfacet
  facet normal 0.442238 0.896898 0
    outer loop
      vertex -59 -55.4641 2.5
      vertex -58.5307 -55.6955 -2.5
      vertex -59 -55.4641 -2.5
    endloop
  endfacet
  facet normal -0.831432 -0.555626 0
    outer loop
      vertex -53.5359 -50 -2.5
      vertex -53.8266 -49.565 2.5
      vertex -53.8266 -49.565 -2.5
    endloop
  endfacet
  facet normal -0.831432 -0.555626 0
    outer loop
      vertex -53.8266 -49.565 2.5
      vertex -53.5359 -50 -2.5
      vertex -53.5359 -50 2.5
    endloop
  endfacet
  facet normal -0.896898 -0.442238 0
    outer loop
      vertex -53.3045 -50.4693 -2.5
      vertex -53.5359 -50 2.5
      vertex -53.5359 -50 -2.5
    endloop
  endfacet
  facet normal -0.896898 -0.442238 0
    outer loop
      vertex -53.5359 -50 2.5
      vertex -53.3045 -50.4693 -2.5
      vertex -53.3045 -50.4693 2.5
    endloop
  endfacet
  facet normal 0.0653646 0.997861 -0
    outer loop
      vertex -57 -56 -2.5
      vertex -57.5221 -55.9658 2.5
      vertex -57 -56 2.5
    endloop
  endfacet
  facet normal 0.0653646 0.997861 0
    outer loop
      vertex -57.5221 -55.9658 2.5
      vertex -57 -56 -2.5
      vertex -57.5221 -55.9658 -2.5
    endloop
  endfacet
  facet normal -0.751842 -0.659343 0
    outer loop
      vertex -53.8266 -49.565 -2.5
      vertex -54.1716 -49.1716 2.5
      vertex -54.1716 -49.1716 -2.5
    endloop
  endfacet
  facet normal -0.751842 -0.659343 0
    outer loop
      vertex -54.1716 -49.1716 2.5
      vertex -53.8266 -49.565 -2.5
      vertex -53.8266 -49.565 2.5
    endloop
  endfacet
  facet normal 0.195124 -0.980779 0
    outer loop
      vertex -58.0353 -48.1363 -2.5
      vertex -57.5221 -48.0342 2.5
      vertex -58.0353 -48.1363 2.5
    endloop
  endfacet
  facet normal 0.195124 -0.980779 0
    outer loop
      vertex -57.5221 -48.0342 2.5
      vertex -58.0353 -48.1363 -2.5
      vertex -57.5221 -48.0342 -2.5
    endloop
  endfacet
  facet normal 0.751842 0.659343 0
    outer loop
      vertex -59.8284 -54.8284 2.5
      vertex -60.1734 -54.435 -2.5
      vertex -60.1734 -54.435 2.5
    endloop
  endfacet
  facet normal 0.751842 0.659343 0
    outer loop
      vertex -60.1734 -54.435 -2.5
      vertex -59.8284 -54.8284 2.5
      vertex -59.8284 -54.8284 -2.5
    endloop
  endfacet
  facet normal 0.321498 -0.94691 0
    outer loop
      vertex -58.5307 -48.3045 -2.5
      vertex -58.0353 -48.1363 2.5
      vertex -58.5307 -48.3045 2.5
    endloop
  endfacet
  facet normal 0.321498 -0.94691 0
    outer loop
      vertex -58.0353 -48.1363 2.5
      vertex -58.5307 -48.3045 -2.5
      vertex -58.0353 -48.1363 -2.5
    endloop
  endfacet
  facet normal 0.555626 -0.831432 0
    outer loop
      vertex -59.435 -48.8266 -2.5
      vertex -59 -48.5359 2.5
      vertex -59.435 -48.8266 2.5
    endloop
  endfacet
  facet normal 0.555626 -0.831432 0
    outer loop
      vertex -59 -48.5359 2.5
      vertex -59.435 -48.8266 -2.5
      vertex -59 -48.5359 -2.5
    endloop
  endfacet
  facet normal -0.442238 -0.896898 0
    outer loop
      vertex -55.4693 -48.3045 -2.5
      vertex -55 -48.5359 2.5
      vertex -55.4693 -48.3045 2.5
    endloop
  endfacet
  facet normal -0.442238 -0.896898 -0
    outer loop
      vertex -55 -48.5359 2.5
      vertex -55.4693 -48.3045 -2.5
      vertex -55 -48.5359 -2.5
    endloop
  endfacet
  facet normal -0.659343 -0.751842 0
    outer loop
      vertex -54.565 -48.8266 -2.5
      vertex -54.1716 -49.1716 2.5
      vertex -54.565 -48.8266 2.5
    endloop
  endfacet
  facet normal -0.659343 -0.751842 -0
    outer loop
      vertex -54.1716 -49.1716 2.5
      vertex -54.565 -48.8266 -2.5
      vertex -54.1716 -49.1716 -2.5
    endloop
  endfacet
  facet normal 0.0653646 -0.997861 0
    outer loop
      vertex -57.5221 -48.0342 -2.5
      vertex -57 -48 2.5
      vertex -57.5221 -48.0342 2.5
    endloop
  endfacet
  facet normal 0.0653646 -0.997861 0
    outer loop
      vertex -57 -48 2.5
      vertex -57.5221 -48.0342 -2.5
      vertex -57 -48 -2.5
    endloop
  endfacet
  facet normal 0.659343 -0.751842 0
    outer loop
      vertex -59.8284 -49.1716 -2.5
      vertex -59.435 -48.8266 2.5
      vertex -59.8284 -49.1716 2.5
    endloop
  endfacet
  facet normal 0.659343 -0.751842 0
    outer loop
      vertex -59.435 -48.8266 2.5
      vertex -59.8284 -49.1716 -2.5
      vertex -59.435 -48.8266 -2.5
    endloop
  endfacet
  facet normal -0.751842 0.659343 0
    outer loop
      vertex -54.1716 -54.8284 -2.5
      vertex -53.8266 -54.435 2.5
      vertex -53.8266 -54.435 -2.5
    endloop
  endfacet
  facet normal -0.751842 0.659343 0
    outer loop
      vertex -53.8266 -54.435 2.5
      vertex -54.1716 -54.8284 -2.5
      vertex -54.1716 -54.8284 2.5
    endloop
  endfacet
  facet normal -0.195124 0.980779 0
    outer loop
      vertex -55.9647 -55.8637 -2.5
      vertex -56.4779 -55.9658 2.5
      vertex -55.9647 -55.8637 2.5
    endloop
  endfacet
  facet normal -0.195124 0.980779 0
    outer loop
      vertex -56.4779 -55.9658 2.5
      vertex -55.9647 -55.8637 -2.5
      vertex -56.4779 -55.9658 -2.5
    endloop
  endfacet
  facet normal 0.980779 -0.195124 0
    outer loop
      vertex -60.9658 -51.4779 2.5
      vertex -60.8637 -50.9647 -2.5
      vertex -60.8637 -50.9647 2.5
    endloop
  endfacet
  facet normal 0.980779 -0.195124 0
    outer loop
      vertex -60.8637 -50.9647 -2.5
      vertex -60.9658 -51.4779 2.5
      vertex -60.9658 -51.4779 -2.5
    endloop
  endfacet
  facet normal -0.896898 0.442238 0
    outer loop
      vertex -53.5359 -54 -2.5
      vertex -53.3045 -53.5307 2.5
      vertex -53.3045 -53.5307 -2.5
    endloop
  endfacet
  facet normal -0.896898 0.442238 0
    outer loop
      vertex -53.3045 -53.5307 2.5
      vertex -53.5359 -54 -2.5
      vertex -53.5359 -54 2.5
    endloop
  endfacet
  facet normal -0.997861 0.0653646 0
    outer loop
      vertex -53.0342 -52.5221 -2.5
      vertex -53 -52 2.5
      vertex -53 -52 -2.5
    endloop
  endfacet
  facet normal -0.997861 0.0653646 0
    outer loop
      vertex -53 -52 2.5
      vertex -53.0342 -52.5221 -2.5
      vertex -53.0342 -52.5221 2.5
    endloop
  endfacet
  facet normal 0.195124 0.980779 -0
    outer loop
      vertex -57.5221 -55.9658 -2.5
      vertex -58.0353 -55.8637 2.5
      vertex -57.5221 -55.9658 2.5
    endloop
  endfacet
  facet normal 0.195124 0.980779 0
    outer loop
      vertex -58.0353 -55.8637 2.5
      vertex -57.5221 -55.9658 -2.5
      vertex -58.0353 -55.8637 -2.5
    endloop
  endfacet
  facet normal 0.442238 -0.896898 0
    outer loop
      vertex -59 -48.5359 -2.5
      vertex -58.5307 -48.3045 2.5
      vertex -59 -48.5359 2.5
    endloop
  endfacet
  facet normal 0.442238 -0.896898 0
    outer loop
      vertex -58.5307 -48.3045 2.5
      vertex -59 -48.5359 -2.5
      vertex -58.5307 -48.3045 -2.5
    endloop
  endfacet
  facet normal 0.997861 -0.0653646 0
    outer loop
      vertex -61 -52 2.5
      vertex -60.9658 -51.4779 -2.5
      vertex -60.9658 -51.4779 2.5
    endloop
  endfacet
  facet normal 0.997861 -0.0653646 0
    outer loop
      vertex -60.9658 -51.4779 -2.5
      vertex -61 -52 2.5
      vertex -61 -52 -2.5
    endloop
  endfacet
  facet normal -0.442238 0.896898 0
    outer loop
      vertex -55 -55.4641 -2.5
      vertex -55.4693 -55.6955 2.5
      vertex -55 -55.4641 2.5
    endloop
  endfacet
  facet normal -0.442238 0.896898 0
    outer loop
      vertex -55.4693 -55.6955 2.5
      vertex -55 -55.4641 -2.5
      vertex -55.4693 -55.6955 -2.5
    endloop
  endfacet
  facet normal 0.896898 0.442238 0
    outer loop
      vertex -60.4641 -54 2.5
      vertex -60.6955 -53.5307 -2.5
      vertex -60.6955 -53.5307 2.5
    endloop
  endfacet
  facet normal 0.896898 0.442238 0
    outer loop
      vertex -60.6955 -53.5307 -2.5
      vertex -60.4641 -54 2.5
      vertex -60.4641 -54 -2.5
    endloop
  endfacet
  facet normal -0.195124 -0.980779 0
    outer loop
      vertex -56.4779 -48.0342 -2.5
      vertex -55.9647 -48.1363 2.5
      vertex -56.4779 -48.0342 2.5
    endloop
  endfacet
  facet normal -0.195124 -0.980779 -0
    outer loop
      vertex -55.9647 -48.1363 2.5
      vertex -56.4779 -48.0342 -2.5
      vertex -55.9647 -48.1363 -2.5
    endloop
  endfacet
  facet normal 0.659343 0.751842 -0
    outer loop
      vertex -59.435 -55.1734 -2.5
      vertex -59.8284 -54.8284 2.5
      vertex -59.435 -55.1734 2.5
    endloop
  endfacet
  facet normal 0.659343 0.751842 0
    outer loop
      vertex -59.8284 -54.8284 2.5
      vertex -59.435 -55.1734 -2.5
      vertex -59.8284 -54.8284 -2.5
    endloop
  endfacet
  facet normal -0.831432 0.555626 0
    outer loop
      vertex -53.8266 -54.435 -2.5
      vertex -53.5359 -54 2.5
      vertex -53.5359 -54 -2.5
    endloop
  endfacet
  facet normal -0.831432 0.555626 0
    outer loop
      vertex -53.5359 -54 2.5
      vertex -53.8266 -54.435 -2.5
      vertex -53.8266 -54.435 2.5
    endloop
  endfacet
  facet normal -0.321498 0.94691 0
    outer loop
      vertex -55.4693 -55.6955 -2.5
      vertex -55.9647 -55.8637 2.5
      vertex -55.4693 -55.6955 2.5
    endloop
  endfacet
  facet normal -0.321498 0.94691 0
    outer loop
      vertex -55.9647 -55.8637 2.5
      vertex -55.4693 -55.6955 -2.5
      vertex -55.9647 -55.8637 -2.5
    endloop
  endfacet
  facet normal -0.555626 -0.831432 0
    outer loop
      vertex -55 -48.5359 -2.5
      vertex -54.565 -48.8266 2.5
      vertex -55 -48.5359 2.5
    endloop
  endfacet
  facet normal -0.555626 -0.831432 -0
    outer loop
      vertex -54.565 -48.8266 2.5
      vertex -55 -48.5359 -2.5
      vertex -54.565 -48.8266 -2.5
    endloop
  endfacet
  facet normal 0.751842 -0.659343 0
    outer loop
      vertex -60.1734 -49.565 2.5
      vertex -59.8284 -49.1716 -2.5
      vertex -59.8284 -49.1716 2.5
    endloop
  endfacet
  facet normal 0.751842 -0.659343 0
    outer loop
      vertex -59.8284 -49.1716 -2.5
      vertex -60.1734 -49.565 2.5
      vertex -60.1734 -49.565 -2.5
    endloop
  endfacet
  facet normal -0.0653646 -0.997861 0
    outer loop
      vertex -57 -48 -2.5
      vertex -56.4779 -48.0342 2.5
      vertex -57 -48 2.5
    endloop
  endfacet
  facet normal -0.0653646 -0.997861 -0
    outer loop
      vertex -56.4779 -48.0342 2.5
      vertex -57 -48 -2.5
      vertex -56.4779 -48.0342 -2.5
    endloop
  endfacet
  facet normal 0.321498 0.94691 -0
    outer loop
      vertex -58.0353 -55.8637 -2.5
      vertex -58.5307 -55.6955 2.5
      vertex -58.0353 -55.8637 2.5
    endloop
  endfacet
  facet normal 0.321498 0.94691 0
    outer loop
      vertex -58.5307 -55.6955 2.5
      vertex -58.0353 -55.8637 -2.5
      vertex -58.5307 -55.6955 -2.5
    endloop
  endfacet
  facet normal -0.555626 0.831432 0
    outer loop
      vertex -54.565 -55.1734 -2.5
      vertex -55 -55.4641 2.5
      vertex -54.565 -55.1734 2.5
    endloop
  endfacet
  facet normal -0.555626 0.831432 0
    outer loop
      vertex -55 -55.4641 2.5
      vertex -54.565 -55.1734 -2.5
      vertex -55 -55.4641 -2.5
    endloop
  endfacet
  facet normal -0.659343 0.751842 0
    outer loop
      vertex -54.1716 -54.8284 -2.5
      vertex -54.565 -55.1734 2.5
      vertex -54.1716 -54.8284 2.5
    endloop
  endfacet
  facet normal -0.659343 0.751842 0
    outer loop
      vertex -54.565 -55.1734 2.5
      vertex -54.1716 -54.8284 -2.5
      vertex -54.565 -55.1734 -2.5
    endloop
  endfacet
  facet normal 0.831432 0.555626 0
    outer loop
      vertex -60.1734 -54.435 2.5
      vertex -60.4641 -54 -2.5
      vertex -60.4641 -54 2.5
    endloop
  endfacet
  facet normal 0.831432 0.555626 0
    outer loop
      vertex -60.4641 -54 -2.5
      vertex -60.1734 -54.435 2.5
      vertex -60.1734 -54.435 -2.5
    endloop
  endfacet
  facet normal 0.831432 -0.555626 0
    outer loop
      vertex -60.4641 -50 2.5
      vertex -60.1734 -49.565 -2.5
      vertex -60.1734 -49.565 2.5
    endloop
  endfacet
  facet normal 0.831432 -0.555626 0
    outer loop
      vertex -60.1734 -49.565 -2.5
      vertex -60.4641 -50 2.5
      vertex -60.4641 -50 -2.5
    endloop
  endfacet
  facet normal -0.321498 0.94691 0
    outer loop
      vertex 58.5307 -55.6955 -2.5
      vertex 58.0353 -55.8637 2.5
      vertex 58.5307 -55.6955 2.5
    endloop
  endfacet
  facet normal -0.321498 0.94691 0
    outer loop
      vertex 58.0353 -55.8637 2.5
      vertex 58.5307 -55.6955 -2.5
      vertex 58.0353 -55.8637 -2.5
    endloop
  endfacet
  facet normal -0.980779 -0.195124 0
    outer loop
      vertex 60.9658 -51.4779 -2.5
      vertex 60.8637 -50.9647 2.5
      vertex 60.8637 -50.9647 -2.5
    endloop
  endfacet
  facet normal -0.980779 -0.195124 0
    outer loop
      vertex 60.8637 -50.9647 2.5
      vertex 60.9658 -51.4779 -2.5
      vertex 60.9658 -51.4779 2.5
    endloop
  endfacet
  facet normal -0.997861 -0.0653646 0
    outer loop
      vertex 61 -52 -2.5
      vertex 60.9658 -51.4779 2.5
      vertex 60.9658 -51.4779 -2.5
    endloop
  endfacet
  facet normal -0.997861 -0.0653646 0
    outer loop
      vertex 60.9658 -51.4779 2.5
      vertex 61 -52 -2.5
      vertex 61 -52 2.5
    endloop
  endfacet
  facet normal -0.94691 -0.321498 0
    outer loop
      vertex 60.8637 -50.9647 -2.5
      vertex 60.6955 -50.4693 2.5
      vertex 60.6955 -50.4693 -2.5
    endloop
  endfacet
  facet normal -0.94691 -0.321498 0
    outer loop
      vertex 60.6955 -50.4693 2.5
      vertex 60.8637 -50.9647 -2.5
      vertex 60.8637 -50.9647 2.5
    endloop
  endfacet
  facet normal -0.442238 0.896898 0
    outer loop
      vertex 59 -55.4641 -2.5
      vertex 58.5307 -55.6955 2.5
      vertex 59 -55.4641 2.5
    endloop
  endfacet
  facet normal -0.442238 0.896898 0
    outer loop
      vertex 58.5307 -55.6955 2.5
      vertex 59 -55.4641 -2.5
      vertex 58.5307 -55.6955 -2.5
    endloop
  endfacet
  facet normal 0.997861 -0.0653646 0
    outer loop
      vertex 53 -52 2.5
      vertex 53.0342 -51.4779 -2.5
      vertex 53.0342 -51.4779 2.5
    endloop
  endfacet
  facet normal 0.997861 -0.0653646 0
    outer loop
      vertex 53.0342 -51.4779 -2.5
      vertex 53 -52 2.5
      vertex 53 -52 -2.5
    endloop
  endfacet
  facet normal -0.321498 -0.94691 0
    outer loop
      vertex 58.0353 -48.1363 -2.5
      vertex 58.5307 -48.3045 2.5
      vertex 58.0353 -48.1363 2.5
    endloop
  endfacet
  facet normal -0.321498 -0.94691 -0
    outer loop
      vertex 58.5307 -48.3045 2.5
      vertex 58.0353 -48.1363 -2.5
      vertex 58.5307 -48.3045 -2.5
    endloop
  endfacet
  facet normal 0.980779 0.195124 0
    outer loop
      vertex 53.1363 -53.0353 2.5
      vertex 53.0342 -52.5221 -2.5
      vertex 53.0342 -52.5221 2.5
    endloop
  endfacet
  facet normal 0.980779 0.195124 0
    outer loop
      vertex 53.0342 -52.5221 -2.5
      vertex 53.1363 -53.0353 2.5
      vertex 53.1363 -53.0353 -2.5
    endloop
  endfacet
  facet normal -0.831432 -0.555626 0
    outer loop
      vertex 60.4641 -50 -2.5
      vertex 60.1734 -49.565 2.5
      vertex 60.1734 -49.565 -2.5
    endloop
  endfacet
  facet normal -0.831432 -0.555626 0
    outer loop
      vertex 60.1734 -49.565 2.5
      vertex 60.4641 -50 -2.5
      vertex 60.4641 -50 2.5
    endloop
  endfacet
  facet normal -0.896898 -0.442238 0
    outer loop
      vertex 60.6955 -50.4693 -2.5
      vertex 60.4641 -50 2.5
      vertex 60.4641 -50 -2.5
    endloop
  endfacet
  facet normal -0.896898 -0.442238 0
    outer loop
      vertex 60.4641 -50 2.5
      vertex 60.6955 -50.4693 -2.5
      vertex 60.6955 -50.4693 2.5
    endloop
  endfacet
  facet normal 0.94691 0.321498 0
    outer loop
      vertex 53.3045 -53.5307 2.5
      vertex 53.1363 -53.0353 -2.5
      vertex 53.1363 -53.0353 2.5
    endloop
  endfacet
  facet normal 0.94691 0.321498 0
    outer loop
      vertex 53.1363 -53.0353 -2.5
      vertex 53.3045 -53.5307 2.5
      vertex 53.3045 -53.5307 -2.5
    endloop
  endfacet
  facet normal 0.442238 0.896898 -0
    outer loop
      vertex 55.4693 -55.6955 -2.5
      vertex 55 -55.4641 2.5
      vertex 55.4693 -55.6955 2.5
    endloop
  endfacet
  facet normal 0.442238 0.896898 0
    outer loop
      vertex 55 -55.4641 2.5
      vertex 55.4693 -55.6955 -2.5
      vertex 55 -55.4641 -2.5
    endloop
  endfacet
  facet normal 0.751842 -0.659343 0
    outer loop
      vertex 53.8266 -49.565 2.5
      vertex 54.1716 -49.1716 -2.5
      vertex 54.1716 -49.1716 2.5
    endloop
  endfacet
  facet normal 0.751842 -0.659343 0
    outer loop
      vertex 54.1716 -49.1716 -2.5
      vertex 53.8266 -49.565 2.5
      vertex 53.8266 -49.565 -2.5
    endloop
  endfacet
  facet normal -0.0653646 -0.997861 0
    outer loop
      vertex 57 -48 -2.5
      vertex 57.5221 -48.0342 2.5
      vertex 57 -48 2.5
    endloop
  endfacet
  facet normal -0.0653646 -0.997861 -0
    outer loop
      vertex 57.5221 -48.0342 2.5
      vertex 57 -48 -2.5
      vertex 57.5221 -48.0342 -2.5
    endloop
  endfacet
  facet normal 0.195124 0.980779 -0
    outer loop
      vertex 56.4779 -55.9658 -2.5
      vertex 55.9647 -55.8637 2.5
      vertex 56.4779 -55.9658 2.5
    endloop
  endfacet
  facet normal 0.195124 0.980779 0
    outer loop
      vertex 55.9647 -55.8637 2.5
      vertex 56.4779 -55.9658 -2.5
      vertex 55.9647 -55.8637 -2.5
    endloop
  endfacet
  facet normal -0.659343 -0.751842 0
    outer loop
      vertex 59.435 -48.8266 -2.5
      vertex 59.8284 -49.1716 2.5
      vertex 59.435 -48.8266 2.5
    endloop
  endfacet
  facet normal -0.659343 -0.751842 -0
    outer loop
      vertex 59.8284 -49.1716 2.5
      vertex 59.435 -48.8266 -2.5
      vertex 59.8284 -49.1716 -2.5
    endloop
  endfacet
  facet normal 0.751842 0.659343 0
    outer loop
      vertex 54.1716 -54.8284 2.5
      vertex 53.8266 -54.435 -2.5
      vertex 53.8266 -54.435 2.5
    endloop
  endfacet
  facet normal 0.751842 0.659343 0
    outer loop
      vertex 53.8266 -54.435 -2.5
      vertex 54.1716 -54.8284 2.5
      vertex 54.1716 -54.8284 -2.5
    endloop
  endfacet
  facet normal 0.442238 -0.896898 0
    outer loop
      vertex 55 -48.5359 -2.5
      vertex 55.4693 -48.3045 2.5
      vertex 55 -48.5359 2.5
    endloop
  endfacet
  facet normal 0.442238 -0.896898 0
    outer loop
      vertex 55.4693 -48.3045 2.5
      vertex 55 -48.5359 -2.5
      vertex 55.4693 -48.3045 -2.5
    endloop
  endfacet
  facet normal 0.0653646 -0.997861 0
    outer loop
      vertex 56.4779 -48.0342 -2.5
      vertex 57 -48 2.5
      vertex 56.4779 -48.0342 2.5
    endloop
  endfacet
  facet normal 0.0653646 -0.997861 0
    outer loop
      vertex 57 -48 2.5
      vertex 56.4779 -48.0342 -2.5
      vertex 57 -48 -2.5
    endloop
  endfacet
  facet normal -0.831432 0.555626 0
    outer loop
      vertex 60.1734 -54.435 -2.5
      vertex 60.4641 -54 2.5
      vertex 60.4641 -54 -2.5
    endloop
  endfacet
  facet normal -0.831432 0.555626 0
    outer loop
      vertex 60.4641 -54 2.5
      vertex 60.1734 -54.435 -2.5
      vertex 60.1734 -54.435 2.5
    endloop
  endfacet
  facet normal -0.195124 0.980779 0
    outer loop
      vertex 58.0353 -55.8637 -2.5
      vertex 57.5221 -55.9658 2.5
      vertex 58.0353 -55.8637 2.5
    endloop
  endfacet
  facet normal -0.195124 0.980779 0
    outer loop
      vertex 57.5221 -55.9658 2.5
      vertex 58.0353 -55.8637 -2.5
      vertex 57.5221 -55.9658 -2.5
    endloop
  endfacet
  facet normal 0.555626 0.831432 -0
    outer loop
      vertex 55 -55.4641 -2.5
      vertex 54.565 -55.1734 2.5
      vertex 55 -55.4641 2.5
    endloop
  endfacet
  facet normal 0.555626 0.831432 0
    outer loop
      vertex 54.565 -55.1734 2.5
      vertex 55 -55.4641 -2.5
      vertex 54.565 -55.1734 -2.5
    endloop
  endfacet
  facet normal -0.980779 0.195124 0
    outer loop
      vertex 60.8637 -53.0353 -2.5
      vertex 60.9658 -52.5221 2.5
      vertex 60.9658 -52.5221 -2.5
    endloop
  endfacet
  facet normal -0.980779 0.195124 0
    outer loop
      vertex 60.9658 -52.5221 2.5
      vertex 60.8637 -53.0353 -2.5
      vertex 60.8637 -53.0353 2.5
    endloop
  endfacet
  facet normal -0.555626 -0.831432 0
    outer loop
      vertex 59 -48.5359 -2.5
      vertex 59.435 -48.8266 2.5
      vertex 59 -48.5359 2.5
    endloop
  endfacet
  facet normal -0.555626 -0.831432 -0
    outer loop
      vertex 59.435 -48.8266 2.5
      vertex 59 -48.5359 -2.5
      vertex 59.435 -48.8266 -2.5
    endloop
  endfacet
  facet normal -0.555626 0.831432 0
    outer loop
      vertex 59.435 -55.1734 -2.5
      vertex 59 -55.4641 2.5
      vertex 59.435 -55.1734 2.5
    endloop
  endfacet
  facet normal -0.555626 0.831432 0
    outer loop
      vertex 59 -55.4641 2.5
      vertex 59.435 -55.1734 -2.5
      vertex 59 -55.4641 -2.5
    endloop
  endfacet
  facet normal -0.751842 0.659343 0
    outer loop
      vertex 59.8284 -54.8284 -2.5
      vertex 60.1734 -54.435 2.5
      vertex 60.1734 -54.435 -2.5
    endloop
  endfacet
  facet normal -0.751842 0.659343 0
    outer loop
      vertex 60.1734 -54.435 2.5
      vertex 59.8284 -54.8284 -2.5
      vertex 59.8284 -54.8284 2.5
    endloop
  endfacet
  facet normal -0.896898 0.442238 0
    outer loop
      vertex 60.4641 -54 -2.5
      vertex 60.6955 -53.5307 2.5
      vertex 60.6955 -53.5307 -2.5
    endloop
  endfacet
  facet normal -0.896898 0.442238 0
    outer loop
      vertex 60.6955 -53.5307 2.5
      vertex 60.4641 -54 -2.5
      vertex 60.4641 -54 2.5
    endloop
  endfacet
  facet normal 0.555626 -0.831432 0
    outer loop
      vertex 54.565 -48.8266 -2.5
      vertex 55 -48.5359 2.5
      vertex 54.565 -48.8266 2.5
    endloop
  endfacet
  facet normal 0.555626 -0.831432 0
    outer loop
      vertex 55 -48.5359 2.5
      vertex 54.565 -48.8266 -2.5
      vertex 55 -48.5359 -2.5
    endloop
  endfacet
  facet normal 0.980779 -0.195124 0
    outer loop
      vertex 53.0342 -51.4779 2.5
      vertex 53.1363 -50.9647 -2.5
      vertex 53.1363 -50.9647 2.5
    endloop
  endfacet
  facet normal 0.980779 -0.195124 0
    outer loop
      vertex 53.1363 -50.9647 -2.5
      vertex 53.0342 -51.4779 2.5
      vertex 53.0342 -51.4779 -2.5
    endloop
  endfacet
  facet normal 0.321498 0.94691 -0
    outer loop
      vertex 55.9647 -55.8637 -2.5
      vertex 55.4693 -55.6955 2.5
      vertex 55.9647 -55.8637 2.5
    endloop
  endfacet
  facet normal 0.321498 0.94691 0
    outer loop
      vertex 55.4693 -55.6955 2.5
      vertex 55.9647 -55.8637 -2.5
      vertex 55.4693 -55.6955 -2.5
    endloop
  endfacet
  facet normal 0.195124 -0.980779 0
    outer loop
      vertex 55.9647 -48.1363 -2.5
      vertex 56.4779 -48.0342 2.5
      vertex 55.9647 -48.1363 2.5
    endloop
  endfacet
  facet normal 0.195124 -0.980779 0
    outer loop
      vertex 56.4779 -48.0342 2.5
      vertex 55.9647 -48.1363 -2.5
      vertex 56.4779 -48.0342 -2.5
    endloop
  endfacet
  facet normal -0.997861 0.0653646 0
    outer loop
      vertex 60.9658 -52.5221 -2.5
      vertex 61 -52 2.5
      vertex 61 -52 -2.5
    endloop
  endfacet
  facet normal -0.997861 0.0653646 0
    outer loop
      vertex 61 -52 2.5
      vertex 60.9658 -52.5221 -2.5
      vertex 60.9658 -52.5221 2.5
    endloop
  endfacet
  facet normal 0.896898 0.442238 0
    outer loop
      vertex 53.5359 -54 2.5
      vertex 53.3045 -53.5307 -2.5
      vertex 53.3045 -53.5307 2.5
    endloop
  endfacet
  facet normal 0.896898 0.442238 0
    outer loop
      vertex 53.3045 -53.5307 -2.5
      vertex 53.5359 -54 2.5
      vertex 53.5359 -54 -2.5
    endloop
  endfacet
  facet normal -0.195124 -0.980779 0
    outer loop
      vertex 57.5221 -48.0342 -2.5
      vertex 58.0353 -48.1363 2.5
      vertex 57.5221 -48.0342 2.5
    endloop
  endfacet
  facet normal -0.195124 -0.980779 -0
    outer loop
      vertex 58.0353 -48.1363 2.5
      vertex 57.5221 -48.0342 -2.5
      vertex 58.0353 -48.1363 -2.5
    endloop
  endfacet
  facet normal 0.0653646 0.997861 -0
    outer loop
      vertex 57 -56 -2.5
      vertex 56.4779 -55.9658 2.5
      vertex 57 -56 2.5
    endloop
  endfacet
  facet normal 0.0653646 0.997861 0
    outer loop
      vertex 56.4779 -55.9658 2.5
      vertex 57 -56 -2.5
      vertex 56.4779 -55.9658 -2.5
    endloop
  endfacet
  facet normal -0.442238 -0.896898 0
    outer loop
      vertex 58.5307 -48.3045 -2.5
      vertex 59 -48.5359 2.5
      vertex 58.5307 -48.3045 2.5
    endloop
  endfacet
  facet normal -0.442238 -0.896898 -0
    outer loop
      vertex 59 -48.5359 2.5
      vertex 58.5307 -48.3045 -2.5
      vertex 59 -48.5359 -2.5
    endloop
  endfacet
  facet normal 0.321498 -0.94691 0
    outer loop
      vertex 55.4693 -48.3045 -2.5
      vertex 55.9647 -48.1363 2.5
      vertex 55.4693 -48.3045 2.5
    endloop
  endfacet
  facet normal 0.321498 -0.94691 0
    outer loop
      vertex 55.9647 -48.1363 2.5
      vertex 55.4693 -48.3045 -2.5
      vertex 55.9647 -48.1363 -2.5
    endloop
  endfacet
  facet normal 0.831432 0.555626 0
    outer loop
      vertex 53.8266 -54.435 2.5
      vertex 53.5359 -54 -2.5
      vertex 53.5359 -54 2.5
    endloop
  endfacet
  facet normal 0.831432 0.555626 0
    outer loop
      vertex 53.5359 -54 -2.5
      vertex 53.8266 -54.435 2.5
      vertex 53.8266 -54.435 -2.5
    endloop
  endfacet
  facet normal -0.94691 0.321498 0
    outer loop
      vertex 60.6955 -53.5307 -2.5
      vertex 60.8637 -53.0353 2.5
      vertex 60.8637 -53.0353 -2.5
    endloop
  endfacet
  facet normal -0.94691 0.321498 0
    outer loop
      vertex 60.8637 -53.0353 2.5
      vertex 60.6955 -53.5307 -2.5
      vertex 60.6955 -53.5307 2.5
    endloop
  endfacet
  facet normal 0.659343 -0.751842 0
    outer loop
      vertex 54.1716 -49.1716 -2.5
      vertex 54.565 -48.8266 2.5
      vertex 54.1716 -49.1716 2.5
    endloop
  endfacet
  facet normal 0.659343 -0.751842 0
    outer loop
      vertex 54.565 -48.8266 2.5
      vertex 54.1716 -49.1716 -2.5
      vertex 54.565 -48.8266 -2.5
    endloop
  endfacet
  facet normal 0.659343 0.751842 -0
    outer loop
      vertex 54.565 -55.1734 -2.5
      vertex 54.1716 -54.8284 2.5
      vertex 54.565 -55.1734 2.5
    endloop
  endfacet
  facet normal 0.659343 0.751842 0
    outer loop
      vertex 54.1716 -54.8284 2.5
      vertex 54.565 -55.1734 -2.5
      vertex 54.1716 -54.8284 -2.5
    endloop
  endfacet
  facet normal -0.751842 -0.659343 0
    outer loop
      vertex 60.1734 -49.565 -2.5
      vertex 59.8284 -49.1716 2.5
      vertex 59.8284 -49.1716 -2.5
    endloop
  endfacet
  facet normal -0.751842 -0.659343 0
    outer loop
      vertex 59.8284 -49.1716 2.5
      vertex 60.1734 -49.565 -2.5
      vertex 60.1734 -49.565 2.5
    endloop
  endfacet
  facet normal -0.0653646 0.997861 0
    outer loop
      vertex 57.5221 -55.9658 -2.5
      vertex 57 -56 2.5
      vertex 57.5221 -55.9658 2.5
    endloop
  endfacet
  facet normal -0.0653646 0.997861 0
    outer loop
      vertex 57 -56 2.5
      vertex 57.5221 -55.9658 -2.5
      vertex 57 -56 -2.5
    endloop
  endfacet
  facet normal 0.896898 -0.442238 0
    outer loop
      vertex 53.3045 -50.4693 2.5
      vertex 53.5359 -50 -2.5
      vertex 53.5359 -50 2.5
    endloop
  endfacet
  facet normal 0.896898 -0.442238 0
    outer loop
      vertex 53.5359 -50 -2.5
      vertex 53.3045 -50.4693 2.5
      vertex 53.3045 -50.4693 -2.5
    endloop
  endfacet
  facet normal 0.997861 0.0653646 0
    outer loop
      vertex 53.0342 -52.5221 2.5
      vertex 53 -52 -2.5
      vertex 53 -52 2.5
    endloop
  endfacet
  facet normal 0.997861 0.0653646 0
    outer loop
      vertex 53 -52 -2.5
      vertex 53.0342 -52.5221 2.5
      vertex 53.0342 -52.5221 -2.5
    endloop
  endfacet
  facet normal 0.94691 -0.321498 0
    outer loop
      vertex 53.1363 -50.9647 2.5
      vertex 53.3045 -50.4693 -2.5
      vertex 53.3045 -50.4693 2.5
    endloop
  endfacet
  facet normal 0.94691 -0.321498 0
    outer loop
      vertex 53.3045 -50.4693 -2.5
      vertex 53.1363 -50.9647 2.5
      vertex 53.1363 -50.9647 -2.5
    endloop
  endfacet
  facet normal -0.659343 0.751842 0
    outer loop
      vertex 59.8284 -54.8284 -2.5
      vertex 59.435 -55.1734 2.5
      vertex 59.8284 -54.8284 2.5
    endloop
  endfacet
  facet normal -0.659343 0.751842 0
    outer loop
      vertex 59.435 -55.1734 2.5
      vertex 59.8284 -54.8284 -2.5
      vertex 59.435 -55.1734 -2.5
    endloop
  endfacet
  facet normal 0.831432 -0.555626 0
    outer loop
      vertex 53.5359 -50 2.5
      vertex 53.8266 -49.565 -2.5
      vertex 53.8266 -49.565 2.5
    endloop
  endfacet
  facet normal 0.831432 -0.555626 0
    outer loop
      vertex 53.8266 -49.565 -2.5
      vertex 53.5359 -50 2.5
      vertex 53.5359 -50 -2.5
    endloop
  endfacet
  facet normal 0.0653641 -0.997861 0
    outer loop
      vertex -0.522104 55.9658 -2.5
      vertex 0 56 2.5
      vertex -0.522104 55.9658 2.5
    endloop
  endfacet
  facet normal 0.0653641 -0.997861 0
    outer loop
      vertex 0 56 2.5
      vertex -0.522104 55.9658 -2.5
      vertex 0 56 -2.5
    endloop
  endfacet
  facet normal -0.980786 -0.195087 0
    outer loop
      vertex 3.96578 52.5221 -2.5
      vertex 3.8637 53.0353 2.5
      vertex 3.8637 53.0353 -2.5
    endloop
  endfacet
  facet normal -0.980786 -0.195087 0
    outer loop
      vertex 3.8637 53.0353 2.5
      vertex 3.96578 52.5221 -2.5
      vertex 3.96578 52.5221 2.5
    endloop
  endfacet
  facet normal 0.980786 -0.195087 0
    outer loop
      vertex -3.96578 52.5221 2.5
      vertex -3.8637 53.0353 -2.5
      vertex -3.8637 53.0353 2.5
    endloop
  endfacet
  facet normal 0.980786 -0.195087 0
    outer loop
      vertex -3.8637 53.0353 -2.5
      vertex -3.96578 52.5221 2.5
      vertex -3.96578 52.5221 -2.5
    endloop
  endfacet
  facet normal -0.896883 0.442268 0
    outer loop
      vertex 3.4641 50 -2.5
      vertex 3.69552 50.4693 2.5
      vertex 3.69552 50.4693 -2.5
    endloop
  endfacet
  facet normal -0.896883 0.442268 0
    outer loop
      vertex 3.69552 50.4693 2.5
      vertex 3.4641 50 -2.5
      vertex 3.4641 50 2.5
    endloop
  endfacet
  facet normal -0.831441 0.555613 0
    outer loop
      vertex 3.17341 49.565 -2.5
      vertex 3.4641 50 2.5
      vertex 3.4641 50 -2.5
    endloop
  endfacet
  facet normal -0.831441 0.555613 0
    outer loop
      vertex 3.4641 50 2.5
      vertex 3.17341 49.565 -2.5
      vertex 3.17341 49.565 2.5
    endloop
  endfacet
  facet normal 0.946922 0.321464 0
    outer loop
      vertex -3.69552 50.4693 2.5
      vertex -3.8637 50.9647 -2.5
      vertex -3.8637 50.9647 2.5
    endloop
  endfacet
  facet normal 0.946922 0.321464 0
    outer loop
      vertex -3.8637 50.9647 -2.5
      vertex -3.69552 50.4693 2.5
      vertex -3.69552 50.4693 -2.5
    endloop
  endfacet
  facet normal 0.831441 -0.555613 0
    outer loop
      vertex -3.4641 54 2.5
      vertex -3.17341 54.435 -2.5
      vertex -3.17341 54.435 2.5
    endloop
  endfacet
  facet normal 0.831441 -0.555613 0
    outer loop
      vertex -3.17341 54.435 -2.5
      vertex -3.4641 54 2.5
      vertex -3.4641 54 -2.5
    endloop
  endfacet
  facet normal -0.555582 -0.831462 0
    outer loop
      vertex 2 55.4641 -2.5
      vertex 2.43505 55.1734 2.5
      vertex 2 55.4641 2.5
    endloop
  endfacet
  facet normal -0.555582 -0.831462 -0
    outer loop
      vertex 2.43505 55.1734 2.5
      vertex 2 55.4641 -2.5
      vertex 2.43505 55.1734 -2.5
    endloop
  endfacet
  facet normal 0.997859 -0.0654027 0
    outer loop
      vertex -4 52 2.5
      vertex -3.96578 52.5221 -2.5
      vertex -3.96578 52.5221 2.5
    endloop
  endfacet
  facet normal 0.997859 -0.0654027 0
    outer loop
      vertex -3.96578 52.5221 -2.5
      vertex -4 52 2.5
      vertex -4 52 -2.5
    endloop
  endfacet
  facet normal 0.896883 0.442268 0
    outer loop
      vertex -3.4641 50 2.5
      vertex -3.69552 50.4693 -2.5
      vertex -3.69552 50.4693 2.5
    endloop
  endfacet
  facet normal 0.896883 0.442268 0
    outer loop
      vertex -3.69552 50.4693 -2.5
      vertex -3.4641 50 2.5
      vertex -3.4641 50 -2.5
    endloop
  endfacet
  facet normal 0.997859 0.0654027 0
    outer loop
      vertex -3.96578 51.4779 2.5
      vertex -4 52 -2.5
      vertex -4 52 2.5
    endloop
  endfacet
  facet normal 0.997859 0.0654027 0
    outer loop
      vertex -4 52 -2.5
      vertex -3.96578 51.4779 2.5
      vertex -3.96578 51.4779 -2.5
    endloop
  endfacet
  facet normal -0.896883 -0.442268 0
    outer loop
      vertex 3.69552 53.5307 -2.5
      vertex 3.4641 54 2.5
      vertex 3.4641 54 -2.5
    endloop
  endfacet
  facet normal -0.896883 -0.442268 0
    outer loop
      vertex 3.4641 54 2.5
      vertex 3.69552 53.5307 -2.5
      vertex 3.69552 53.5307 2.5
    endloop
  endfacet
  facet normal 0.555582 -0.831462 0
    outer loop
      vertex -2.43505 55.1734 -2.5
      vertex -2 55.4641 2.5
      vertex -2.43505 55.1734 2.5
    endloop
  endfacet
  facet normal 0.555582 -0.831462 0
    outer loop
      vertex -2 55.4641 2.5
      vertex -2.43505 55.1734 -2.5
      vertex -2 55.4641 -2.5
    endloop
  endfacet
  facet normal -0.751861 -0.659321 0
    outer loop
      vertex 3.17341 54.435 -2.5
      vertex 2.82843 54.8284 2.5
      vertex 2.82843 54.8284 -2.5
    endloop
  endfacet
  facet normal -0.751861 -0.659321 0
    outer loop
      vertex 2.82843 54.8284 2.5
      vertex 3.17341 54.435 -2.5
      vertex 3.17341 54.435 2.5
    endloop
  endfacet
  facet normal 0.321469 -0.94692 0
    outer loop
      vertex -1.53073 55.6955 -2.5
      vertex -1.03528 55.8637 2.5
      vertex -1.53073 55.6955 2.5
    endloop
  endfacet
  facet normal 0.321469 -0.94692 0
    outer loop
      vertex -1.03528 55.8637 2.5
      vertex -1.53073 55.6955 -2.5
      vertex -1.03528 55.8637 -2.5
    endloop
  endfacet
  facet normal 0.44226 0.896887 -0
    outer loop
      vertex -1.53073 48.3045 -2.5
      vertex -2 48.5359 2.5
      vertex -1.53073 48.3045 2.5
    endloop
  endfacet
  facet normal 0.44226 0.896887 0
    outer loop
      vertex -2 48.5359 2.5
      vertex -1.53073 48.3045 -2.5
      vertex -2 48.5359 -2.5
    endloop
  endfacet
  facet normal -0.946922 0.321464 0
    outer loop
      vertex 3.69552 50.4693 -2.5
      vertex 3.8637 50.9647 2.5
      vertex 3.8637 50.9647 -2.5
    endloop
  endfacet
  facet normal -0.946922 0.321464 0
    outer loop
      vertex 3.8637 50.9647 2.5
      vertex 3.69552 50.4693 -2.5
      vertex 3.69552 50.4693 2.5
    endloop
  endfacet
  facet normal -0.659362 -0.751826 0
    outer loop
      vertex 2.43505 55.1734 -2.5
      vertex 2.82843 54.8284 2.5
      vertex 2.43505 55.1734 2.5
    endloop
  endfacet
  facet normal -0.659362 -0.751826 -0
    outer loop
      vertex 2.82843 54.8284 2.5
      vertex 2.43505 55.1734 -2.5
      vertex 2.82843 54.8284 -2.5
    endloop
  endfacet
  facet normal -0.997859 -0.0654027 0
    outer loop
      vertex 4 52 -2.5
      vertex 3.96578 52.5221 2.5
      vertex 3.96578 52.5221 -2.5
    endloop
  endfacet
  facet normal -0.997859 -0.0654027 0
    outer loop
      vertex 3.96578 52.5221 2.5
      vertex 4 52 -2.5
      vertex 4 52 2.5
    endloop
  endfacet
  facet normal 0.659362 0.751826 -0
    outer loop
      vertex -2.43505 48.8266 -2.5
      vertex -2.82843 49.1716 2.5
      vertex -2.43505 48.8266 2.5
    endloop
  endfacet
  facet normal 0.659362 0.751826 0
    outer loop
      vertex -2.82843 49.1716 2.5
      vertex -2.43505 48.8266 -2.5
      vertex -2.82843 49.1716 -2.5
    endloop
  endfacet
  facet normal -0.946922 -0.321464 0
    outer loop
      vertex 3.8637 53.0353 -2.5
      vertex 3.69552 53.5307 2.5
      vertex 3.69552 53.5307 -2.5
    endloop
  endfacet
  facet normal -0.946922 -0.321464 0
    outer loop
      vertex 3.69552 53.5307 2.5
      vertex 3.8637 53.0353 -2.5
      vertex 3.8637 53.0353 2.5
    endloop
  endfacet
  facet normal -0.997859 0.0654027 0
    outer loop
      vertex 3.96578 51.4779 -2.5
      vertex 4 52 2.5
      vertex 4 52 -2.5
    endloop
  endfacet
  facet normal -0.997859 0.0654027 0
    outer loop
      vertex 4 52 2.5
      vertex 3.96578 51.4779 -2.5
      vertex 3.96578 51.4779 2.5
    endloop
  endfacet
  facet normal 0.195133 0.980777 -0
    outer loop
      vertex -0.522104 48.0342 -2.5
      vertex -1.03528 48.1363 2.5
      vertex -0.522104 48.0342 2.5
    endloop
  endfacet
  facet normal 0.195133 0.980777 0
    outer loop
      vertex -1.03528 48.1363 2.5
      vertex -0.522104 48.0342 -2.5
      vertex -1.03528 48.1363 -2.5
    endloop
  endfacet
  facet normal -0.44226 -0.896887 0
    outer loop
      vertex 1.53073 55.6955 -2.5
      vertex 2 55.4641 2.5
      vertex 1.53073 55.6955 2.5
    endloop
  endfacet
  facet normal -0.44226 -0.896887 -0
    outer loop
      vertex 2 55.4641 2.5
      vertex 1.53073 55.6955 -2.5
      vertex 2 55.4641 -2.5
    endloop
  endfacet
  facet normal -0.555582 0.831462 0
    outer loop
      vertex 2.43505 48.8266 -2.5
      vertex 2 48.5359 2.5
      vertex 2.43505 48.8266 2.5
    endloop
  endfacet
  facet normal -0.555582 0.831462 0
    outer loop
      vertex 2 48.5359 2.5
      vertex 2.43505 48.8266 -2.5
      vertex 2 48.5359 -2.5
    endloop
  endfacet
  facet normal -0.831441 -0.555613 0
    outer loop
      vertex 3.4641 54 -2.5
      vertex 3.17341 54.435 2.5
      vertex 3.17341 54.435 -2.5
    endloop
  endfacet
  facet normal -0.831441 -0.555613 0
    outer loop
      vertex 3.17341 54.435 2.5
      vertex 3.4641 54 -2.5
      vertex 3.4641 54 2.5
    endloop
  endfacet
  facet normal -0.44226 0.896887 0
    outer loop
      vertex 2 48.5359 -2.5
      vertex 1.53073 48.3045 2.5
      vertex 2 48.5359 2.5
    endloop
  endfacet
  facet normal -0.44226 0.896887 0
    outer loop
      vertex 1.53073 48.3045 2.5
      vertex 2 48.5359 -2.5
      vertex 1.53073 48.3045 -2.5
    endloop
  endfacet
  facet normal -0.0653641 0.997861 0
    outer loop
      vertex 0.522104 48.0342 -2.5
      vertex 0 48 2.5
      vertex 0.522104 48.0342 2.5
    endloop
  endfacet
  facet normal -0.0653641 0.997861 0
    outer loop
      vertex 0 48 2.5
      vertex 0.522104 48.0342 -2.5
      vertex 0 48 -2.5
    endloop
  endfacet
  facet normal -0.321469 -0.94692 0
    outer loop
      vertex 1.03528 55.8637 -2.5
      vertex 1.53073 55.6955 2.5
      vertex 1.03528 55.8637 2.5
    endloop
  endfacet
  facet normal -0.321469 -0.94692 -0
    outer loop
      vertex 1.53073 55.6955 2.5
      vertex 1.03528 55.8637 -2.5
      vertex 1.53073 55.6955 -2.5
    endloop
  endfacet
  facet normal -0.980786 0.195087 0
    outer loop
      vertex 3.8637 50.9647 -2.5
      vertex 3.96578 51.4779 2.5
      vertex 3.96578 51.4779 -2.5
    endloop
  endfacet
  facet normal -0.980786 0.195087 0
    outer loop
      vertex 3.96578 51.4779 2.5
      vertex 3.8637 50.9647 -2.5
      vertex 3.8637 50.9647 2.5
    endloop
  endfacet
  facet normal -0.195133 0.980777 0
    outer loop
      vertex 1.03528 48.1363 -2.5
      vertex 0.522104 48.0342 2.5
      vertex 1.03528 48.1363 2.5
    endloop
  endfacet
  facet normal -0.195133 0.980777 0
    outer loop
      vertex 0.522104 48.0342 2.5
      vertex 1.03528 48.1363 -2.5
      vertex 0.522104 48.0342 -2.5
    endloop
  endfacet
  facet normal -0.321469 0.94692 0
    outer loop
      vertex 1.53073 48.3045 -2.5
      vertex 1.03528 48.1363 2.5
      vertex 1.53073 48.3045 2.5
    endloop
  endfacet
  facet normal -0.321469 0.94692 0
    outer loop
      vertex 1.03528 48.1363 2.5
      vertex 1.53073 48.3045 -2.5
      vertex 1.03528 48.1363 -2.5
    endloop
  endfacet
  facet normal -0.659362 0.751826 0
    outer loop
      vertex 2.82843 49.1716 -2.5
      vertex 2.43505 48.8266 2.5
      vertex 2.82843 49.1716 2.5
    endloop
  endfacet
  facet normal -0.659362 0.751826 0
    outer loop
      vertex 2.43505 48.8266 2.5
      vertex 2.82843 49.1716 -2.5
      vertex 2.43505 48.8266 -2.5
    endloop
  endfacet
  facet normal -0.0653641 -0.997861 0
    outer loop
      vertex 0 56 -2.5
      vertex 0.522104 55.9658 2.5
      vertex 0 56 2.5
    endloop
  endfacet
  facet normal -0.0653641 -0.997861 -0
    outer loop
      vertex 0.522104 55.9658 2.5
      vertex 0 56 -2.5
      vertex 0.522104 55.9658 -2.5
    endloop
  endfacet
  facet normal 0.195133 -0.980777 0
    outer loop
      vertex -1.03528 55.8637 -2.5
      vertex -0.522104 55.9658 2.5
      vertex -1.03528 55.8637 2.5
    endloop
  endfacet
  facet normal 0.195133 -0.980777 0
    outer loop
      vertex -0.522104 55.9658 2.5
      vertex -1.03528 55.8637 -2.5
      vertex -0.522104 55.9658 -2.5
    endloop
  endfacet
  facet normal 0.980786 0.195087 0
    outer loop
      vertex -3.8637 50.9647 2.5
      vertex -3.96578 51.4779 -2.5
      vertex -3.96578 51.4779 2.5
    endloop
  endfacet
  facet normal 0.980786 0.195087 0
    outer loop
      vertex -3.96578 51.4779 -2.5
      vertex -3.8637 50.9647 2.5
      vertex -3.8637 50.9647 -2.5
    endloop
  endfacet
  facet normal 0.44226 -0.896887 0
    outer loop
      vertex -2 55.4641 -2.5
      vertex -1.53073 55.6955 2.5
      vertex -2 55.4641 2.5
    endloop
  endfacet
  facet normal 0.44226 -0.896887 0
    outer loop
      vertex -1.53073 55.6955 2.5
      vertex -2 55.4641 -2.5
      vertex -1.53073 55.6955 -2.5
    endloop
  endfacet
  facet normal 0.831441 0.555613 0
    outer loop
      vertex -3.17341 49.565 2.5
      vertex -3.4641 50 -2.5
      vertex -3.4641 50 2.5
    endloop
  endfacet
  facet normal 0.831441 0.555613 0
    outer loop
      vertex -3.4641 50 -2.5
      vertex -3.17341 49.565 2.5
      vertex -3.17341 49.565 -2.5
    endloop
  endfacet
  facet normal 0.751861 0.659321 0
    outer loop
      vertex -2.82843 49.1716 2.5
      vertex -3.17341 49.565 -2.5
      vertex -3.17341 49.565 2.5
    endloop
  endfacet
  facet normal 0.751861 0.659321 0
    outer loop
      vertex -3.17341 49.565 -2.5
      vertex -2.82843 49.1716 2.5
      vertex -2.82843 49.1716 -2.5
    endloop
  endfacet
  facet normal 0.946922 -0.321464 0
    outer loop
      vertex -3.8637 53.0353 2.5
      vertex -3.69552 53.5307 -2.5
      vertex -3.69552 53.5307 2.5
    endloop
  endfacet
  facet normal 0.946922 -0.321464 0
    outer loop
      vertex -3.69552 53.5307 -2.5
      vertex -3.8637 53.0353 2.5
      vertex -3.8637 53.0353 -2.5
    endloop
  endfacet
  facet normal -0.195133 -0.980777 0
    outer loop
      vertex 0.522104 55.9658 -2.5
      vertex 1.03528 55.8637 2.5
      vertex 0.522104 55.9658 2.5
    endloop
  endfacet
  facet normal -0.195133 -0.980777 -0
    outer loop
      vertex 1.03528 55.8637 2.5
      vertex 0.522104 55.9658 -2.5
      vertex 1.03528 55.8637 -2.5
    endloop
  endfacet
  facet normal 0.751861 -0.659321 0
    outer loop
      vertex -3.17341 54.435 2.5
      vertex -2.82843 54.8284 -2.5
      vertex -2.82843 54.8284 2.5
    endloop
  endfacet
  facet normal 0.751861 -0.659321 0
    outer loop
      vertex -2.82843 54.8284 -2.5
      vertex -3.17341 54.435 2.5
      vertex -3.17341 54.435 -2.5
    endloop
  endfacet
  facet normal 0.321469 0.94692 -0
    outer loop
      vertex -1.03528 48.1363 -2.5
      vertex -1.53073 48.3045 2.5
      vertex -1.03528 48.1363 2.5
    endloop
  endfacet
  facet normal 0.321469 0.94692 0
    outer loop
      vertex -1.53073 48.3045 2.5
      vertex -1.03528 48.1363 -2.5
      vertex -1.53073 48.3045 -2.5
    endloop
  endfacet
  facet normal 0.659362 -0.751826 0
    outer loop
      vertex -2.82843 54.8284 -2.5
      vertex -2.43505 55.1734 2.5
      vertex -2.82843 54.8284 2.5
    endloop
  endfacet
  facet normal 0.659362 -0.751826 0
    outer loop
      vertex -2.43505 55.1734 2.5
      vertex -2.82843 54.8284 -2.5
      vertex -2.43505 55.1734 -2.5
    endloop
  endfacet
  facet normal 0.896883 -0.442268 0
    outer loop
      vertex -3.69552 53.5307 2.5
      vertex -3.4641 54 -2.5
      vertex -3.4641 54 2.5
    endloop
  endfacet
  facet normal 0.896883 -0.442268 0
    outer loop
      vertex -3.4641 54 -2.5
      vertex -3.69552 53.5307 2.5
      vertex -3.69552 53.5307 -2.5
    endloop
  endfacet
  facet normal 0.555582 0.831462 -0
    outer loop
      vertex -2 48.5359 -2.5
      vertex -2.43505 48.8266 2.5
      vertex -2 48.5359 2.5
    endloop
  endfacet
  facet normal 0.555582 0.831462 0
    outer loop
      vertex -2.43505 48.8266 2.5
      vertex -2 48.5359 -2.5
      vertex -2.43505 48.8266 -2.5
    endloop
  endfacet
  facet normal -0.751861 0.659321 0
    outer loop
      vertex 2.82843 49.1716 -2.5
      vertex 3.17341 49.565 2.5
      vertex 3.17341 49.565 -2.5
    endloop
  endfacet
  facet normal -0.751861 0.659321 0
    outer loop
      vertex 3.17341 49.565 2.5
      vertex 2.82843 49.1716 -2.5
      vertex 2.82843 49.1716 2.5
    endloop
  endfacet
  facet normal 0.0653641 0.997861 -0
    outer loop
      vertex 0 48 -2.5
      vertex -0.522104 48.0342 2.5
      vertex 0 48 2.5
    endloop
  endfacet
  facet normal 0.0653641 0.997861 0
    outer loop
      vertex -0.522104 48.0342 2.5
      vertex 0 48 -2.5
      vertex -0.522104 48.0342 -2.5
    endloop
  endfacet
endsolid OpenSCAD_Model
