solid OpenSCAD_Model
  facet normal 1 -0 0
    outer loop
      vertex 85 -35 10
      vertex 85 35 -10
      vertex 85 35 10
    endloop
  endfacet
  facet normal 1 0 0
    outer loop
      vertex 85 35 -10
      vertex 85 -35 10
      vertex 85 -35 -10
    endloop
  endfacet
  facet normal 0 0 1
    outer loop
      vertex 85 35 10
      vertex 81 31 10
      vertex 85 -35 10
    endloop
  endfacet
  facet normal 0 0 1
    outer loop
      vertex 85 35 10
      vertex -81 31 10
      vertex 81 31 10
    endloop
  endfacet
  facet normal 0 0 1
    outer loop
      vertex -81 31 10
      vertex -85 35 10
      vertex -81 -31 10
    endloop
  endfacet
  facet normal -0 0 1
    outer loop
      vertex -85 35 10
      vertex -81 31 10
      vertex 85 35 10
    endloop
  endfacet
  facet normal -0 0 1
    outer loop
      vertex 81 -31 10
      vertex 85 -35 10
      vertex 81 31 10
    endloop
  endfacet
  facet normal -0 0 1
    outer loop
      vertex -81 -31 10
      vertex 85 -35 10
      vertex 81 -31 10
    endloop
  endfacet
  facet normal 0 0 1
    outer loop
      vertex -81 -31 10
      vertex -85 -35 10
      vertex 85 -35 10
    endloop
  endfacet
  facet normal 0 0 1
    outer loop
      vertex -85 -35 10
      vertex -81 -31 10
      vertex -85 35 10
    endloop
  endfacet
  facet normal 0 0 -1
    outer loop
      vertex -85 -35 -10
      vertex 85 35 -10
      vertex 85 -35 -10
    endloop
  endfacet
  facet normal -0 0 -1
    outer loop
      vertex 85 35 -10
      vertex -85 -35 -10
      vertex -85 35 -10
    endloop
  endfacet
  facet normal -1 0 0
    outer loop
      vertex -85 -35 -10
      vertex -85 35 10
      vertex -85 35 -10
    endloop
  endfacet
  facet normal -1 -0 0
    outer loop
      vertex -85 35 10
      vertex -85 -35 -10
      vertex -85 -35 10
    endloop
  endfacet
  facet normal 0 1 -0
    outer loop
      vertex 85 35 -10
      vertex -85 35 10
      vertex 85 35 10
    endloop
  endfacet
  facet normal 0 1 0
    outer loop
      vertex -85 35 10
      vertex 85 35 -10
      vertex -85 35 -10
    endloop
  endfacet
  facet normal 0 -1 0
    outer loop
      vertex -85 -35 -10
      vertex 85 -35 10
      vertex -85 -35 10
    endloop
  endfacet
  facet normal 0 -1 -0
    outer loop
      vertex 85 -35 10
      vertex -85 -35 -10
      vertex 85 -35 -10
    endloop
  endfacet
  facet normal -1 0 0
    outer loop
      vertex 81 -31 -6
      vertex 81 31 10
      vertex 81 31 -6
    endloop
  endfacet
  facet normal -1 -0 0
    outer loop
      vertex 81 31 10
      vertex 81 -31 -6
      vertex 81 -31 10
    endloop
  endfacet
  facet normal -0 0 1
    outer loop
      vertex -81 31 -6
      vertex 81 -31 -6
      vertex 81 31 -6
    endloop
  endfacet
  facet normal 0 0 1
    outer loop
      vertex 81 -31 -6
      vertex -81 31 -6
      vertex -81 -31 -6
    endloop
  endfacet
  facet normal 1 -0 0
    outer loop
      vertex -81 -31 10
      vertex -81 31 -6
      vertex -81 31 10
    endloop
  endfacet
  facet normal 1 0 0
    outer loop
      vertex -81 31 -6
      vertex -81 -31 10
      vertex -81 -31 -6
    endloop
  endfacet
  facet normal 0 -1 0
    outer loop
      vertex -81 31 -6
      vertex 81 31 10
      vertex -81 31 10
    endloop
  endfacet
  facet normal 0 -1 -0
    outer loop
      vertex 81 31 10
      vertex -81 31 -6
      vertex 81 31 -6
    endloop
  endfacet
  facet normal 0 1 -0
    outer loop
      vertex 81 -31 -6
      vertex -81 -31 10
      vertex 81 -31 10
    endloop
  endfacet
  facet normal 0 1 0
    outer loop
      vertex -81 -31 10
      vertex 81 -31 -6
      vertex -81 -31 -6
    endloop
  endfacet
endsolid OpenSCAD_Model
