solid OpenSCAD_Model
  facet normal 1 -0 0
    outer loop
      vertex 80 -65 32.5
      vertex 80 65 -32.5
      vertex 80 65 32.5
    endloop
  endfacet
  facet normal 1 0 0
    outer loop
      vertex 80 65 -32.5
      vertex 80 -65 32.5
      vertex 80 -65 -32.5
    endloop
  endfacet
  facet normal 0 0 1
    outer loop
      vertex 80 65 32.5
      vertex 78.5 63.5 32.5
      vertex 80 -65 32.5
    endloop
  endfacet
  facet normal 0 0 1
    outer loop
      vertex 80 65 32.5
      vertex -78.5 63.5 32.5
      vertex 78.5 63.5 32.5
    endloop
  endfacet
  facet normal 0 0 1
    outer loop
      vertex -78.5 63.5 32.5
      vertex -80 65 32.5
      vertex -78.5 -63.5 32.5
    endloop
  endfacet
  facet normal -0 0 1
    outer loop
      vertex -80 65 32.5
      vertex -78.5 63.5 32.5
      vertex 80 65 32.5
    endloop
  endfacet
  facet normal -0 0 1
    outer loop
      vertex 78.5 -63.5 32.5
      vertex 80 -65 32.5
      vertex 78.5 63.5 32.5
    endloop
  endfacet
  facet normal -0 0 1
    outer loop
      vertex -78.5 -63.5 32.5
      vertex 80 -65 32.5
      vertex 78.5 -63.5 32.5
    endloop
  endfacet
  facet normal 0 0 1
    outer loop
      vertex -78.5 -63.5 32.5
      vertex -80 -65 32.5
      vertex 80 -65 32.5
    endloop
  endfacet
  facet normal 0 0 1
    outer loop
      vertex -80 -65 32.5
      vertex -78.5 -63.5 32.5
      vertex -80 65 32.5
    endloop
  endfacet
  facet normal 0 0 -1
    outer loop
      vertex -80 -65 -32.5
      vertex 80 65 -32.5
      vertex 80 -65 -32.5
    endloop
  endfacet
  facet normal -0 0 -1
    outer loop
      vertex 80 65 -32.5
      vertex -80 -65 -32.5
      vertex -80 65 -32.5
    endloop
  endfacet
  facet normal -1 0 0
    outer loop
      vertex -80 -65 -32.5
      vertex -80 65 32.5
      vertex -80 65 -32.5
    endloop
  endfacet
  facet normal -1 -0 0
    outer loop
      vertex -80 65 32.5
      vertex -80 -65 -32.5
      vertex -80 -65 32.5
    endloop
  endfacet
  facet normal 0 1 -0
    outer loop
      vertex 80 65 -32.5
      vertex -80 65 32.5
      vertex 80 65 32.5
    endloop
  endfacet
  facet normal 0 1 0
    outer loop
      vertex -80 65 32.5
      vertex 80 65 -32.5
      vertex -80 65 -32.5
    endloop
  endfacet
  facet normal 0 -1 0
    outer loop
      vertex -80 -65 -32.5
      vertex 80 -65 32.5
      vertex -80 -65 32.5
    endloop
  endfacet
  facet normal 0 -1 -0
    outer loop
      vertex 80 -65 32.5
      vertex -80 -65 -32.5
      vertex 80 -65 -32.5
    endloop
  endfacet
  facet normal -1 0 0
    outer loop
      vertex 78.5 -63.5 -31
      vertex 78.5 63.5 32.5
      vertex 78.5 63.5 -31
    endloop
  endfacet
  facet normal -1 -0 0
    outer loop
      vertex 78.5 63.5 32.5
      vertex 78.5 -63.5 -31
      vertex 78.5 -63.5 32.5
    endloop
  endfacet
  facet normal -0 0 1
    outer loop
      vertex -78.5 63.5 -31
      vertex 78.5 -63.5 -31
      vertex 78.5 63.5 -31
    endloop
  endfacet
  facet normal 0 0 1
    outer loop
      vertex 78.5 -63.5 -31
      vertex -78.5 63.5 -31
      vertex -78.5 -63.5 -31
    endloop
  endfacet
  facet normal 1 -0 0
    outer loop
      vertex -78.5 -63.5 32.5
      vertex -78.5 63.5 -31
      vertex -78.5 63.5 32.5
    endloop
  endfacet
  facet normal 1 0 0
    outer loop
      vertex -78.5 63.5 -31
      vertex -78.5 -63.5 32.5
      vertex -78.5 -63.5 -31
    endloop
  endfacet
  facet normal 0 -1 0
    outer loop
      vertex -78.5 63.5 -31
      vertex 78.5 63.5 32.5
      vertex -78.5 63.5 32.5
    endloop
  endfacet
  facet normal 0 -1 -0
    outer loop
      vertex 78.5 63.5 32.5
      vertex -78.5 63.5 -31
      vertex 78.5 63.5 -31
    endloop
  endfacet
  facet normal 0 1 -0
    outer loop
      vertex 78.5 -63.5 -31
      vertex -78.5 -63.5 32.5
      vertex 78.5 -63.5 32.5
    endloop
  endfacet
  facet normal 0 1 0
    outer loop
      vertex -78.5 -63.5 32.5
      vertex 78.5 -63.5 -31
      vertex -78.5 -63.5 -31
    endloop
  endfacet
endsolid OpenSCAD_Model
