solid OpenSCAD_Model
  facet normal -0 0 1
    outer loop
      vertex -6.35 25.4 3.175
      vertex 6.35 -25.4 3.175
      vertex 6.35 25.4 3.175
    endloop
  endfacet
  facet normal 0 0 1
    outer loop
      vertex 6.35 -25.4 3.175
      vertex -6.35 25.4 3.175
      vertex -6.35 -25.4 3.175
    endloop
  endfacet
  facet normal 0 0 -1
    outer loop
      vertex -6.35 -25.4 -3.175
      vertex 6.35 25.4 -3.175
      vertex 6.35 -25.4 -3.175
    endloop
  endfacet
  facet normal -0 0 -1
    outer loop
      vertex 6.35 25.4 -3.175
      vertex -6.35 -25.4 -3.175
      vertex -6.35 25.4 -3.175
    endloop
  endfacet
  facet normal 0 -1 0
    outer loop
      vertex -6.35 -25.4 -3.175
      vertex 6.35 -25.4 3.175
      vertex -6.35 -25.4 3.175
    endloop
  endfacet
  facet normal 0 -1 -0
    outer loop
      vertex 6.35 -25.4 3.175
      vertex -6.35 -25.4 -3.175
      vertex 6.35 -25.4 -3.175
    endloop
  endfacet
  facet normal 1 -0 0
    outer loop
      vertex 6.35 -25.4 3.175
      vertex 6.35 25.4 -3.175
      vertex 6.35 25.4 3.175
    endloop
  endfacet
  facet normal 1 0 0
    outer loop
      vertex 6.35 25.4 -3.175
      vertex 6.35 -25.4 3.175
      vertex 6.35 -25.4 -3.175
    endloop
  endfacet
  facet normal 0 1 -0
    outer loop
      vertex 6.35 25.4 -3.175
      vertex -6.35 25.4 3.175
      vertex 6.35 25.4 3.175
    endloop
  endfacet
  facet normal 0 1 0
    outer loop
      vertex -6.35 25.4 3.175
      vertex 6.35 25.4 -3.175
      vertex -6.35 25.4 -3.175
    endloop
  endfacet
  facet normal -1 0 0
    outer loop
      vertex -6.35 -25.4 -3.175
      vertex -6.35 25.4 3.175
      vertex -6.35 25.4 -3.175
    endloop
  endfacet
  facet normal -1 -0 0
    outer loop
      vertex -6.35 25.4 3.175
      vertex -6.35 -25.4 -3.175
      vertex -6.35 -25.4 3.175
    endloop
  endfacet
endsolid OpenSCAD_Model
