solid OpenSCAD_Model
  facet normal 0.997859 0.0654063 0
    outer loop
      vertex 45 0 50
      vertex 44.615 5.87368 -50
      vertex 44.615 5.87368 50
    endloop
  endfacet
  facet normal 0.997859 0.0654063 0
    outer loop
      vertex 44.615 5.87368 -50
      vertex 45 0 50
      vertex 45 0 -50
    endloop
  endfacet
  facet normal 0.980787 0.19508 0
    outer loop
      vertex 44.615 5.87368 50
      vertex 43.4667 11.6469 -50
      vertex 43.4667 11.6469 50
    endloop
  endfacet
  facet normal 0.980787 0.19508 0
    outer loop
      vertex 43.4667 11.6469 -50
      vertex 44.615 5.87368 50
      vertex 44.615 5.87368 -50
    endloop
  endfacet
  facet normal 0.946929 0.321442 0
    outer loop
      vertex 43.4667 11.6469 50
      vertex 41.5746 17.2208 -50
      vertex 41.5746 17.2208 50
    endloop
  endfacet
  facet normal 0.946929 0.321442 0
    outer loop
      vertex 41.5746 17.2208 -50
      vertex 43.4667 11.6469 50
      vertex 43.4667 11.6469 -50
    endloop
  endfacet
  facet normal 0.896867 0.442301 0
    outer loop
      vertex 41.5746 17.2208 50
      vertex 38.9711 22.5 -50
      vertex 38.9711 22.5 50
    endloop
  endfacet
  facet normal 0.896867 0.442301 0
    outer loop
      vertex 38.9711 22.5 -50
      vertex 41.5746 17.2208 50
      vertex 41.5746 17.2208 -50
    endloop
  endfacet
  facet normal 0.831475 0.555562 0
    outer loop
      vertex 38.9711 22.5 50
      vertex 35.7009 27.3943 -50
      vertex 35.7009 27.3943 50
    endloop
  endfacet
  facet normal 0.831475 0.555562 0
    outer loop
      vertex 35.7009 27.3943 -50
      vertex 38.9711 22.5 50
      vertex 38.9711 22.5 -50
    endloop
  endfacet
  facet normal 0.751836 0.65935 0
    outer loop
      vertex 35.7009 27.3943 50
      vertex 31.8198 31.8198 -50
      vertex 31.8198 31.8198 50
    endloop
  endfacet
  facet normal 0.751836 0.65935 0
    outer loop
      vertex 31.8198 31.8198 -50
      vertex 35.7009 27.3943 50
      vertex 35.7009 27.3943 -50
    endloop
  endfacet
  facet normal 0.65935 0.751836 -0
    outer loop
      vertex 31.8198 31.8198 -50
      vertex 27.3943 35.7009 50
      vertex 31.8198 31.8198 50
    endloop
  endfacet
  facet normal 0.65935 0.751836 0
    outer loop
      vertex 27.3943 35.7009 50
      vertex 31.8198 31.8198 -50
      vertex 27.3943 35.7009 -50
    endloop
  endfacet
  facet normal 0.555562 0.831475 -0
    outer loop
      vertex 27.3943 35.7009 -50
      vertex 22.5 38.9711 50
      vertex 27.3943 35.7009 50
    endloop
  endfacet
  facet normal 0.555562 0.831475 0
    outer loop
      vertex 22.5 38.9711 50
      vertex 27.3943 35.7009 -50
      vertex 22.5 38.9711 -50
    endloop
  endfacet
  facet normal 0.442301 0.896867 -0
    outer loop
      vertex 22.5 38.9711 -50
      vertex 17.2208 41.5746 50
      vertex 22.5 38.9711 50
    endloop
  endfacet
  facet normal 0.442301 0.896867 0
    outer loop
      vertex 17.2208 41.5746 50
      vertex 22.5 38.9711 -50
      vertex 17.2208 41.5746 -50
    endloop
  endfacet
  facet normal 0.321442 0.946929 -0
    outer loop
      vertex 17.2208 41.5746 -50
      vertex 11.6469 43.4667 50
      vertex 17.2208 41.5746 50
    endloop
  endfacet
  facet normal 0.321442 0.946929 0
    outer loop
      vertex 11.6469 43.4667 50
      vertex 17.2208 41.5746 -50
      vertex 11.6469 43.4667 -50
    endloop
  endfacet
  facet normal 0.19508 0.980787 -0
    outer loop
      vertex 11.6469 43.4667 -50
      vertex 5.87368 44.615 50
      vertex 11.6469 43.4667 50
    endloop
  endfacet
  facet normal 0.19508 0.980787 0
    outer loop
      vertex 5.87368 44.615 50
      vertex 11.6469 43.4667 -50
      vertex 5.87368 44.615 -50
    endloop
  endfacet
  facet normal 0.0654063 0.997859 -0
    outer loop
      vertex 5.87368 44.615 -50
      vertex 0 45 50
      vertex 5.87368 44.615 50
    endloop
  endfacet
  facet normal 0.0654063 0.997859 0
    outer loop
      vertex 0 45 50
      vertex 5.87368 44.615 -50
      vertex 0 45 -50
    endloop
  endfacet
  facet normal -0.0654063 0.997859 0
    outer loop
      vertex 0 45 -50
      vertex -5.87368 44.615 50
      vertex 0 45 50
    endloop
  endfacet
  facet normal -0.0654063 0.997859 0
    outer loop
      vertex -5.87368 44.615 50
      vertex 0 45 -50
      vertex -5.87368 44.615 -50
    endloop
  endfacet
  facet normal -0.19508 0.980787 0
    outer loop
      vertex -5.87368 44.615 -50
      vertex -11.6469 43.4667 50
      vertex -5.87368 44.615 50
    endloop
  endfacet
  facet normal -0.19508 0.980787 0
    outer loop
      vertex -11.6469 43.4667 50
      vertex -5.87368 44.615 -50
      vertex -11.6469 43.4667 -50
    endloop
  endfacet
  facet normal -0.321442 0.946929 0
    outer loop
      vertex -11.6469 43.4667 -50
      vertex -17.2208 41.5746 50
      vertex -11.6469 43.4667 50
    endloop
  endfacet
  facet normal -0.321442 0.946929 0
    outer loop
      vertex -17.2208 41.5746 50
      vertex -11.6469 43.4667 -50
      vertex -17.2208 41.5746 -50
    endloop
  endfacet
  facet normal -0.442301 0.896867 0
    outer loop
      vertex -17.2208 41.5746 -50
      vertex -22.5 38.9711 50
      vertex -17.2208 41.5746 50
    endloop
  endfacet
  facet normal -0.442301 0.896867 0
    outer loop
      vertex -22.5 38.9711 50
      vertex -17.2208 41.5746 -50
      vertex -22.5 38.9711 -50
    endloop
  endfacet
  facet normal -0.555562 0.831475 0
    outer loop
      vertex -22.5 38.9711 -50
      vertex -27.3943 35.7009 50
      vertex -22.5 38.9711 50
    endloop
  endfacet
  facet normal -0.555562 0.831475 0
    outer loop
      vertex -27.3943 35.7009 50
      vertex -22.5 38.9711 -50
      vertex -27.3943 35.7009 -50
    endloop
  endfacet
  facet normal -0.65935 0.751836 0
    outer loop
      vertex -27.3943 35.7009 -50
      vertex -31.8198 31.8198 50
      vertex -27.3943 35.7009 50
    endloop
  endfacet
  facet normal -0.65935 0.751836 0
    outer loop
      vertex -31.8198 31.8198 50
      vertex -27.3943 35.7009 -50
      vertex -31.8198 31.8198 -50
    endloop
  endfacet
  facet normal -0.751836 0.65935 0
    outer loop
      vertex -35.7009 27.3943 -50
      vertex -31.8198 31.8198 50
      vertex -31.8198 31.8198 -50
    endloop
  endfacet
  facet normal -0.751836 0.65935 0
    outer loop
      vertex -31.8198 31.8198 50
      vertex -35.7009 27.3943 -50
      vertex -35.7009 27.3943 50
    endloop
  endfacet
  facet normal -0.831475 0.555562 0
    outer loop
      vertex -38.9711 22.5 -50
      vertex -35.7009 27.3943 50
      vertex -35.7009 27.3943 -50
    endloop
  endfacet
  facet normal -0.831475 0.555562 0
    outer loop
      vertex -35.7009 27.3943 50
      vertex -38.9711 22.5 -50
      vertex -38.9711 22.5 50
    endloop
  endfacet
  facet normal -0.896867 0.442301 0
    outer loop
      vertex -41.5746 17.2208 -50
      vertex -38.9711 22.5 50
      vertex -38.9711 22.5 -50
    endloop
  endfacet
  facet normal -0.896867 0.442301 0
    outer loop
      vertex -38.9711 22.5 50
      vertex -41.5746 17.2208 -50
      vertex -41.5746 17.2208 50
    endloop
  endfacet
  facet normal -0.946929 0.321442 0
    outer loop
      vertex -43.4667 11.6469 -50
      vertex -41.5746 17.2208 50
      vertex -41.5746 17.2208 -50
    endloop
  endfacet
  facet normal -0.946929 0.321442 0
    outer loop
      vertex -41.5746 17.2208 50
      vertex -43.4667 11.6469 -50
      vertex -43.4667 11.6469 50
    endloop
  endfacet
  facet normal -0.980787 0.19508 0
    outer loop
      vertex -44.615 5.87368 -50
      vertex -43.4667 11.6469 50
      vertex -43.4667 11.6469 -50
    endloop
  endfacet
  facet normal -0.980787 0.19508 0
    outer loop
      vertex -43.4667 11.6469 50
      vertex -44.615 5.87368 -50
      vertex -44.615 5.87368 50
    endloop
  endfacet
  facet normal -0.997859 0.0654063 0
    outer loop
      vertex -45 -0 -50
      vertex -44.615 5.87368 50
      vertex -44.615 5.87368 -50
    endloop
  endfacet
  facet normal -0.997859 0.0654063 0
    outer loop
      vertex -44.615 5.87368 50
      vertex -45 -0 -50
      vertex -45 -0 50
    endloop
  endfacet
  facet normal -0.997859 -0.0654063 0
    outer loop
      vertex -44.615 -5.87368 -50
      vertex -45 -0 50
      vertex -45 -0 -50
    endloop
  endfacet
  facet normal -0.997859 -0.0654063 0
    outer loop
      vertex -45 -0 50
      vertex -44.615 -5.87368 -50
      vertex -44.615 -5.87368 50
    endloop
  endfacet
  facet normal -0.980787 -0.19508 0
    outer loop
      vertex -43.4667 -11.6469 -50
      vertex -44.615 -5.87368 50
      vertex -44.615 -5.87368 -50
    endloop
  endfacet
  facet normal -0.980787 -0.19508 0
    outer loop
      vertex -44.615 -5.87368 50
      vertex -43.4667 -11.6469 -50
      vertex -43.4667 -11.6469 50
    endloop
  endfacet
  facet normal -0.946929 -0.321442 0
    outer loop
      vertex -41.5746 -17.2208 -50
      vertex -43.4667 -11.6469 50
      vertex -43.4667 -11.6469 -50
    endloop
  endfacet
  facet normal -0.946929 -0.321442 0
    outer loop
      vertex -43.4667 -11.6469 50
      vertex -41.5746 -17.2208 -50
      vertex -41.5746 -17.2208 50
    endloop
  endfacet
  facet normal -0.896867 -0.442301 0
    outer loop
      vertex -38.9711 -22.5 -50
      vertex -41.5746 -17.2208 50
      vertex -41.5746 -17.2208 -50
    endloop
  endfacet
  facet normal -0.896867 -0.442301 0
    outer loop
      vertex -41.5746 -17.2208 50
      vertex -38.9711 -22.5 -50
      vertex -38.9711 -22.5 50
    endloop
  endfacet
  facet normal -0.831475 -0.555562 0
    outer loop
      vertex -35.7009 -27.3943 -50
      vertex -38.9711 -22.5 50
      vertex -38.9711 -22.5 -50
    endloop
  endfacet
  facet normal -0.831475 -0.555562 0
    outer loop
      vertex -38.9711 -22.5 50
      vertex -35.7009 -27.3943 -50
      vertex -35.7009 -27.3943 50
    endloop
  endfacet
  facet normal -0.751836 -0.65935 0
    outer loop
      vertex -31.8198 -31.8198 -50
      vertex -35.7009 -27.3943 50
      vertex -35.7009 -27.3943 -50
    endloop
  endfacet
  facet normal -0.751836 -0.65935 0
    outer loop
      vertex -35.7009 -27.3943 50
      vertex -31.8198 -31.8198 -50
      vertex -31.8198 -31.8198 50
    endloop
  endfacet
  facet normal -0.65935 -0.751836 0
    outer loop
      vertex -31.8198 -31.8198 -50
      vertex -27.3943 -35.7009 50
      vertex -31.8198 -31.8198 50
    endloop
  endfacet
  facet normal -0.65935 -0.751836 -0
    outer loop
      vertex -27.3943 -35.7009 50
      vertex -31.8198 -31.8198 -50
      vertex -27.3943 -35.7009 -50
    endloop
  endfacet
  facet normal -0.555562 -0.831475 0
    outer loop
      vertex -27.3943 -35.7009 -50
      vertex -22.5 -38.9711 50
      vertex -27.3943 -35.7009 50
    endloop
  endfacet
  facet normal -0.555562 -0.831475 -0
    outer loop
      vertex -22.5 -38.9711 50
      vertex -27.3943 -35.7009 -50
      vertex -22.5 -38.9711 -50
    endloop
  endfacet
  facet normal -0.442301 -0.896867 0
    outer loop
      vertex -22.5 -38.9711 -50
      vertex -17.2208 -41.5746 50
      vertex -22.5 -38.9711 50
    endloop
  endfacet
  facet normal -0.442301 -0.896867 -0
    outer loop
      vertex -17.2208 -41.5746 50
      vertex -22.5 -38.9711 -50
      vertex -17.2208 -41.5746 -50
    endloop
  endfacet
  facet normal -0.321442 -0.946929 0
    outer loop
      vertex -17.2208 -41.5746 -50
      vertex -11.6469 -43.4667 50
      vertex -17.2208 -41.5746 50
    endloop
  endfacet
  facet normal -0.321442 -0.946929 -0
    outer loop
      vertex -11.6469 -43.4667 50
      vertex -17.2208 -41.5746 -50
      vertex -11.6469 -43.4667 -50
    endloop
  endfacet
  facet normal -0.19508 -0.980787 0
    outer loop
      vertex -11.6469 -43.4667 -50
      vertex -5.87368 -44.615 50
      vertex -11.6469 -43.4667 50
    endloop
  endfacet
  facet normal -0.19508 -0.980787 -0
    outer loop
      vertex -5.87368 -44.615 50
      vertex -11.6469 -43.4667 -50
      vertex -5.87368 -44.615 -50
    endloop
  endfacet
  facet normal -0.0654063 -0.997859 0
    outer loop
      vertex -5.87368 -44.615 -50
      vertex -0 -45 50
      vertex -5.87368 -44.615 50
    endloop
  endfacet
  facet normal -0.0654063 -0.997859 -0
    outer loop
      vertex -0 -45 50
      vertex -5.87368 -44.615 -50
      vertex -0 -45 -50
    endloop
  endfacet
  facet normal 0.0654063 -0.997859 0
    outer loop
      vertex -0 -45 -50
      vertex 5.87368 -44.615 50
      vertex -0 -45 50
    endloop
  endfacet
  facet normal 0.0654063 -0.997859 0
    outer loop
      vertex 5.87368 -44.615 50
      vertex -0 -45 -50
      vertex 5.87368 -44.615 -50
    endloop
  endfacet
  facet normal 0.19508 -0.980787 0
    outer loop
      vertex 5.87368 -44.615 -50
      vertex 11.6469 -43.4667 50
      vertex 5.87368 -44.615 50
    endloop
  endfacet
  facet normal 0.19508 -0.980787 0
    outer loop
      vertex 11.6469 -43.4667 50
      vertex 5.87368 -44.615 -50
      vertex 11.6469 -43.4667 -50
    endloop
  endfacet
  facet normal 0.321442 -0.946929 0
    outer loop
      vertex 11.6469 -43.4667 -50
      vertex 17.2208 -41.5746 50
      vertex 11.6469 -43.4667 50
    endloop
  endfacet
  facet normal 0.321442 -0.946929 0
    outer loop
      vertex 17.2208 -41.5746 50
      vertex 11.6469 -43.4667 -50
      vertex 17.2208 -41.5746 -50
    endloop
  endfacet
  facet normal 0.442301 -0.896867 0
    outer loop
      vertex 17.2208 -41.5746 -50
      vertex 22.5 -38.9711 50
      vertex 17.2208 -41.5746 50
    endloop
  endfacet
  facet normal 0.442301 -0.896867 0
    outer loop
      vertex 22.5 -38.9711 50
      vertex 17.2208 -41.5746 -50
      vertex 22.5 -38.9711 -50
    endloop
  endfacet
  facet normal 0.555562 -0.831475 0
    outer loop
      vertex 22.5 -38.9711 -50
      vertex 27.3943 -35.7009 50
      vertex 22.5 -38.9711 50
    endloop
  endfacet
  facet normal 0.555562 -0.831475 0
    outer loop
      vertex 27.3943 -35.7009 50
      vertex 22.5 -38.9711 -50
      vertex 27.3943 -35.7009 -50
    endloop
  endfacet
  facet normal 0.65935 -0.751836 0
    outer loop
      vertex 27.3943 -35.7009 -50
      vertex 31.8198 -31.8198 50
      vertex 27.3943 -35.7009 50
    endloop
  endfacet
  facet normal 0.65935 -0.751836 0
    outer loop
      vertex 31.8198 -31.8198 50
      vertex 27.3943 -35.7009 -50
      vertex 31.8198 -31.8198 -50
    endloop
  endfacet
  facet normal 0.751836 -0.65935 0
    outer loop
      vertex 31.8198 -31.8198 50
      vertex 35.7009 -27.3943 -50
      vertex 35.7009 -27.3943 50
    endloop
  endfacet
  facet normal 0.751836 -0.65935 0
    outer loop
      vertex 35.7009 -27.3943 -50
      vertex 31.8198 -31.8198 50
      vertex 31.8198 -31.8198 -50
    endloop
  endfacet
  facet normal 0.831475 -0.555562 0
    outer loop
      vertex 35.7009 -27.3943 50
      vertex 38.9711 -22.5 -50
      vertex 38.9711 -22.5 50
    endloop
  endfacet
  facet normal 0.831475 -0.555562 0
    outer loop
      vertex 38.9711 -22.5 -50
      vertex 35.7009 -27.3943 50
      vertex 35.7009 -27.3943 -50
    endloop
  endfacet
  facet normal 0.896867 -0.442301 0
    outer loop
      vertex 38.9711 -22.5 50
      vertex 41.5746 -17.2208 -50
      vertex 41.5746 -17.2208 50
    endloop
  endfacet
  facet normal 0.896867 -0.442301 0
    outer loop
      vertex 41.5746 -17.2208 -50
      vertex 38.9711 -22.5 50
      vertex 38.9711 -22.5 -50
    endloop
  endfacet
  facet normal 0.946929 -0.321442 0
    outer loop
      vertex 41.5746 -17.2208 50
      vertex 43.4667 -11.6469 -50
      vertex 43.4667 -11.6469 50
    endloop
  endfacet
  facet normal 0.946929 -0.321442 0
    outer loop
      vertex 43.4667 -11.6469 -50
      vertex 41.5746 -17.2208 50
      vertex 41.5746 -17.2208 -50
    endloop
  endfacet
  facet normal 0.980787 -0.19508 0
    outer loop
      vertex 43.4667 -11.6469 50
      vertex 44.615 -5.87368 -50
      vertex 44.615 -5.87368 50
    endloop
  endfacet
  facet normal 0.980787 -0.19508 0
    outer loop
      vertex 44.615 -5.87368 -50
      vertex 43.4667 -11.6469 50
      vertex 43.4667 -11.6469 -50
    endloop
  endfacet
  facet normal 0.997859 -0.0654063 0
    outer loop
      vertex 44.615 -5.87368 50
      vertex 45 0 -50
      vertex 45 0 50
    endloop
  endfacet
  facet normal 0.997859 -0.0654063 0
    outer loop
      vertex 45 0 -50
      vertex 44.615 -5.87368 50
      vertex 44.615 -5.87368 -50
    endloop
  endfacet
  facet normal 0 0 -1
    outer loop
      vertex 44.615 -5.87368 -50
      vertex 44.615 5.87368 -50
      vertex 45 0 -50
    endloop
  endfacet
  facet normal 0 0 -1
    outer loop
      vertex 43.4667 -11.6469 -50
      vertex 44.615 5.87368 -50
      vertex 44.615 -5.87368 -50
    endloop
  endfacet
  facet normal 0 0 -1
    outer loop
      vertex 43.4667 -11.6469 -50
      vertex 43.4667 11.6469 -50
      vertex 44.615 5.87368 -50
    endloop
  endfacet
  facet normal 0 0 -1
    outer loop
      vertex 41.5746 -17.2208 -50
      vertex 43.4667 11.6469 -50
      vertex 43.4667 -11.6469 -50
    endloop
  endfacet
  facet normal 0 0 -1
    outer loop
      vertex 41.5746 -17.2208 -50
      vertex 41.5746 17.2208 -50
      vertex 43.4667 11.6469 -50
    endloop
  endfacet
  facet normal 0 0 -1
    outer loop
      vertex 38.9711 -22.5 -50
      vertex 41.5746 17.2208 -50
      vertex 41.5746 -17.2208 -50
    endloop
  endfacet
  facet normal 0 0 -1
    outer loop
      vertex 38.9711 -22.5 -50
      vertex 38.9711 22.5 -50
      vertex 41.5746 17.2208 -50
    endloop
  endfacet
  facet normal 0 0 -1
    outer loop
      vertex 35.7009 -27.3943 -50
      vertex 38.9711 22.5 -50
      vertex 38.9711 -22.5 -50
    endloop
  endfacet
  facet normal 0 0 -1
    outer loop
      vertex 35.7009 -27.3943 -50
      vertex 35.7009 27.3943 -50
      vertex 38.9711 22.5 -50
    endloop
  endfacet
  facet normal 0 0 -1
    outer loop
      vertex 31.8198 -31.8198 -50
      vertex 35.7009 27.3943 -50
      vertex 35.7009 -27.3943 -50
    endloop
  endfacet
  facet normal 0 0 -1
    outer loop
      vertex 31.8198 -31.8198 -50
      vertex 31.8198 31.8198 -50
      vertex 35.7009 27.3943 -50
    endloop
  endfacet
  facet normal 0 0 -1
    outer loop
      vertex 27.3943 -35.7009 -50
      vertex 31.8198 31.8198 -50
      vertex 31.8198 -31.8198 -50
    endloop
  endfacet
  facet normal 0 0 -1
    outer loop
      vertex 27.3943 -35.7009 -50
      vertex 27.3943 35.7009 -50
      vertex 31.8198 31.8198 -50
    endloop
  endfacet
  facet normal 0 0 -1
    outer loop
      vertex 22.5 -38.9711 -50
      vertex 27.3943 35.7009 -50
      vertex 27.3943 -35.7009 -50
    endloop
  endfacet
  facet normal 0 0 -1
    outer loop
      vertex 22.5 -38.9711 -50
      vertex 22.5 38.9711 -50
      vertex 27.3943 35.7009 -50
    endloop
  endfacet
  facet normal 0 0 -1
    outer loop
      vertex 17.2208 -41.5746 -50
      vertex 22.5 38.9711 -50
      vertex 22.5 -38.9711 -50
    endloop
  endfacet
  facet normal 0 0 -1
    outer loop
      vertex 17.2208 -41.5746 -50
      vertex 17.2208 41.5746 -50
      vertex 22.5 38.9711 -50
    endloop
  endfacet
  facet normal 0 0 -1
    outer loop
      vertex 11.6469 -43.4667 -50
      vertex 17.2208 41.5746 -50
      vertex 17.2208 -41.5746 -50
    endloop
  endfacet
  facet normal 0 0 -1
    outer loop
      vertex 11.6469 -43.4667 -50
      vertex 11.6469 43.4667 -50
      vertex 17.2208 41.5746 -50
    endloop
  endfacet
  facet normal 0 0 -1
    outer loop
      vertex 5.87368 -44.615 -50
      vertex 11.6469 43.4667 -50
      vertex 11.6469 -43.4667 -50
    endloop
  endfacet
  facet normal 0 0 -1
    outer loop
      vertex 5.87368 -44.615 -50
      vertex 5.87368 44.615 -50
      vertex 11.6469 43.4667 -50
    endloop
  endfacet
  facet normal 0 0 -1
    outer loop
      vertex -0 -45 -50
      vertex 5.87368 44.615 -50
      vertex 5.87368 -44.615 -50
    endloop
  endfacet
  facet normal 0 0 -1
    outer loop
      vertex -0 -45 -50
      vertex 0 45 -50
      vertex 5.87368 44.615 -50
    endloop
  endfacet
  facet normal 0 0 -1
    outer loop
      vertex -5.87368 -44.615 -50
      vertex 0 45 -50
      vertex -0 -45 -50
    endloop
  endfacet
  facet normal 0 0 -1
    outer loop
      vertex -5.87368 -44.615 -50
      vertex -5.87368 44.615 -50
      vertex 0 45 -50
    endloop
  endfacet
  facet normal 0 0 -1
    outer loop
      vertex -11.6469 -43.4667 -50
      vertex -5.87368 44.615 -50
      vertex -5.87368 -44.615 -50
    endloop
  endfacet
  facet normal 0 0 -1
    outer loop
      vertex -11.6469 -43.4667 -50
      vertex -11.6469 43.4667 -50
      vertex -5.87368 44.615 -50
    endloop
  endfacet
  facet normal 0 0 -1
    outer loop
      vertex -17.2208 -41.5746 -50
      vertex -11.6469 43.4667 -50
      vertex -11.6469 -43.4667 -50
    endloop
  endfacet
  facet normal 0 0 -1
    outer loop
      vertex -17.2208 -41.5746 -50
      vertex -17.2208 41.5746 -50
      vertex -11.6469 43.4667 -50
    endloop
  endfacet
  facet normal 0 0 -1
    outer loop
      vertex -22.5 -38.9711 -50
      vertex -17.2208 41.5746 -50
      vertex -17.2208 -41.5746 -50
    endloop
  endfacet
  facet normal 0 0 -1
    outer loop
      vertex -22.5 -38.9711 -50
      vertex -22.5 38.9711 -50
      vertex -17.2208 41.5746 -50
    endloop
  endfacet
  facet normal 0 0 -1
    outer loop
      vertex -27.3943 -35.7009 -50
      vertex -22.5 38.9711 -50
      vertex -22.5 -38.9711 -50
    endloop
  endfacet
  facet normal 0 0 -1
    outer loop
      vertex -27.3943 -35.7009 -50
      vertex -27.3943 35.7009 -50
      vertex -22.5 38.9711 -50
    endloop
  endfacet
  facet normal 0 0 -1
    outer loop
      vertex -31.8198 -31.8198 -50
      vertex -27.3943 35.7009 -50
      vertex -27.3943 -35.7009 -50
    endloop
  endfacet
  facet normal 0 0 -1
    outer loop
      vertex -31.8198 -31.8198 -50
      vertex -31.8198 31.8198 -50
      vertex -27.3943 35.7009 -50
    endloop
  endfacet
  facet normal 0 0 -1
    outer loop
      vertex -35.7009 -27.3943 -50
      vertex -31.8198 31.8198 -50
      vertex -31.8198 -31.8198 -50
    endloop
  endfacet
  facet normal 0 0 -1
    outer loop
      vertex -35.7009 -27.3943 -50
      vertex -35.7009 27.3943 -50
      vertex -31.8198 31.8198 -50
    endloop
  endfacet
  facet normal 0 0 -1
    outer loop
      vertex -38.9711 -22.5 -50
      vertex -35.7009 27.3943 -50
      vertex -35.7009 -27.3943 -50
    endloop
  endfacet
  facet normal 0 0 -1
    outer loop
      vertex -38.9711 -22.5 -50
      vertex -38.9711 22.5 -50
      vertex -35.7009 27.3943 -50
    endloop
  endfacet
  facet normal 0 0 -1
    outer loop
      vertex -41.5746 -17.2208 -50
      vertex -38.9711 22.5 -50
      vertex -38.9711 -22.5 -50
    endloop
  endfacet
  facet normal 0 0 -1
    outer loop
      vertex -41.5746 -17.2208 -50
      vertex -41.5746 17.2208 -50
      vertex -38.9711 22.5 -50
    endloop
  endfacet
  facet normal 0 0 -1
    outer loop
      vertex -43.4667 -11.6469 -50
      vertex -41.5746 17.2208 -50
      vertex -41.5746 -17.2208 -50
    endloop
  endfacet
  facet normal 0 0 -1
    outer loop
      vertex -43.4667 -11.6469 -50
      vertex -43.4667 11.6469 -50
      vertex -41.5746 17.2208 -50
    endloop
  endfacet
  facet normal 0 0 -1
    outer loop
      vertex -44.615 -5.87368 -50
      vertex -43.4667 11.6469 -50
      vertex -43.4667 -11.6469 -50
    endloop
  endfacet
  facet normal 0 0 -1
    outer loop
      vertex -44.615 -5.87368 -50
      vertex -44.615 5.87368 -50
      vertex -43.4667 11.6469 -50
    endloop
  endfacet
  facet normal 0 -0 -1
    outer loop
      vertex -44.615 5.87368 -50
      vertex -44.615 -5.87368 -50
      vertex -45 -0 -50
    endloop
  endfacet
  facet normal 0 0 1
    outer loop
      vertex 44.615 5.87368 50
      vertex 44.615 -5.87368 50
      vertex 45 0 50
    endloop
  endfacet
  facet normal 0 0 1
    outer loop
      vertex 43.4667 11.6469 50
      vertex 44.615 -5.87368 50
      vertex 44.615 5.87368 50
    endloop
  endfacet
  facet normal 0 0 1
    outer loop
      vertex 43.4667 11.6469 50
      vertex 43.4667 -11.6469 50
      vertex 44.615 -5.87368 50
    endloop
  endfacet
  facet normal 0 0 1
    outer loop
      vertex 41.5746 17.2208 50
      vertex 43.4667 -11.6469 50
      vertex 43.4667 11.6469 50
    endloop
  endfacet
  facet normal 0 0 1
    outer loop
      vertex 41.5746 17.2208 50
      vertex 41.5746 -17.2208 50
      vertex 43.4667 -11.6469 50
    endloop
  endfacet
  facet normal 0 0 1
    outer loop
      vertex 38.9711 22.5 50
      vertex 41.5746 -17.2208 50
      vertex 41.5746 17.2208 50
    endloop
  endfacet
  facet normal 0 0 1
    outer loop
      vertex 38.9711 22.5 50
      vertex 38.9711 -22.5 50
      vertex 41.5746 -17.2208 50
    endloop
  endfacet
  facet normal 0 0 1
    outer loop
      vertex 35.7009 27.3943 50
      vertex 38.9711 -22.5 50
      vertex 38.9711 22.5 50
    endloop
  endfacet
  facet normal 0 0 1
    outer loop
      vertex 35.7009 27.3943 50
      vertex 35.7009 -27.3943 50
      vertex 38.9711 -22.5 50
    endloop
  endfacet
  facet normal 0 0 1
    outer loop
      vertex 31.8198 31.8198 50
      vertex 35.7009 -27.3943 50
      vertex 35.7009 27.3943 50
    endloop
  endfacet
  facet normal 0 0 1
    outer loop
      vertex 31.8198 31.8198 50
      vertex 31.8198 -31.8198 50
      vertex 35.7009 -27.3943 50
    endloop
  endfacet
  facet normal 0 0 1
    outer loop
      vertex 27.3943 35.7009 50
      vertex 31.8198 -31.8198 50
      vertex 31.8198 31.8198 50
    endloop
  endfacet
  facet normal 0 0 1
    outer loop
      vertex 27.3943 35.7009 50
      vertex 27.3943 -35.7009 50
      vertex 31.8198 -31.8198 50
    endloop
  endfacet
  facet normal 0 0 1
    outer loop
      vertex 22.5 38.9711 50
      vertex 27.3943 -35.7009 50
      vertex 27.3943 35.7009 50
    endloop
  endfacet
  facet normal 0 0 1
    outer loop
      vertex 22.5 38.9711 50
      vertex 22.5 -38.9711 50
      vertex 27.3943 -35.7009 50
    endloop
  endfacet
  facet normal 0 0 1
    outer loop
      vertex 17.2208 41.5746 50
      vertex 22.5 -38.9711 50
      vertex 22.5 38.9711 50
    endloop
  endfacet
  facet normal 0 0 1
    outer loop
      vertex 17.2208 41.5746 50
      vertex 17.2208 -41.5746 50
      vertex 22.5 -38.9711 50
    endloop
  endfacet
  facet normal 0 0 1
    outer loop
      vertex 11.6469 43.4667 50
      vertex 17.2208 -41.5746 50
      vertex 17.2208 41.5746 50
    endloop
  endfacet
  facet normal 0 0 1
    outer loop
      vertex 11.6469 43.4667 50
      vertex 11.6469 -43.4667 50
      vertex 17.2208 -41.5746 50
    endloop
  endfacet
  facet normal 0 0 1
    outer loop
      vertex 5.87368 44.615 50
      vertex 11.6469 -43.4667 50
      vertex 11.6469 43.4667 50
    endloop
  endfacet
  facet normal 0 0 1
    outer loop
      vertex 5.87368 44.615 50
      vertex 5.87368 -44.615 50
      vertex 11.6469 -43.4667 50
    endloop
  endfacet
  facet normal 0 0 1
    outer loop
      vertex 0 45 50
      vertex 5.87368 -44.615 50
      vertex 5.87368 44.615 50
    endloop
  endfacet
  facet normal 0 0 1
    outer loop
      vertex 0 45 50
      vertex -0 -45 50
      vertex 5.87368 -44.615 50
    endloop
  endfacet
  facet normal -0 0 1
    outer loop
      vertex -5.87368 44.615 50
      vertex -0 -45 50
      vertex 0 45 50
    endloop
  endfacet
  facet normal 0 0 1
    outer loop
      vertex -5.87368 44.615 50
      vertex -5.87368 -44.615 50
      vertex -0 -45 50
    endloop
  endfacet
  facet normal -0 0 1
    outer loop
      vertex -11.6469 43.4667 50
      vertex -5.87368 -44.615 50
      vertex -5.87368 44.615 50
    endloop
  endfacet
  facet normal 0 0 1
    outer loop
      vertex -11.6469 43.4667 50
      vertex -11.6469 -43.4667 50
      vertex -5.87368 -44.615 50
    endloop
  endfacet
  facet normal -0 0 1
    outer loop
      vertex -17.2208 41.5746 50
      vertex -11.6469 -43.4667 50
      vertex -11.6469 43.4667 50
    endloop
  endfacet
  facet normal 0 0 1
    outer loop
      vertex -17.2208 41.5746 50
      vertex -17.2208 -41.5746 50
      vertex -11.6469 -43.4667 50
    endloop
  endfacet
  facet normal -0 0 1
    outer loop
      vertex -22.5 38.9711 50
      vertex -17.2208 -41.5746 50
      vertex -17.2208 41.5746 50
    endloop
  endfacet
  facet normal 0 0 1
    outer loop
      vertex -22.5 38.9711 50
      vertex -22.5 -38.9711 50
      vertex -17.2208 -41.5746 50
    endloop
  endfacet
  facet normal -0 0 1
    outer loop
      vertex -27.3943 35.7009 50
      vertex -22.5 -38.9711 50
      vertex -22.5 38.9711 50
    endloop
  endfacet
  facet normal 0 0 1
    outer loop
      vertex -27.3943 35.7009 50
      vertex -27.3943 -35.7009 50
      vertex -22.5 -38.9711 50
    endloop
  endfacet
  facet normal -0 0 1
    outer loop
      vertex -31.8198 31.8198 50
      vertex -27.3943 -35.7009 50
      vertex -27.3943 35.7009 50
    endloop
  endfacet
  facet normal 0 0 1
    outer loop
      vertex -31.8198 31.8198 50
      vertex -31.8198 -31.8198 50
      vertex -27.3943 -35.7009 50
    endloop
  endfacet
  facet normal -0 0 1
    outer loop
      vertex -35.7009 27.3943 50
      vertex -31.8198 -31.8198 50
      vertex -31.8198 31.8198 50
    endloop
  endfacet
  facet normal 0 0 1
    outer loop
      vertex -35.7009 27.3943 50
      vertex -35.7009 -27.3943 50
      vertex -31.8198 -31.8198 50
    endloop
  endfacet
  facet normal -0 0 1
    outer loop
      vertex -38.9711 22.5 50
      vertex -35.7009 -27.3943 50
      vertex -35.7009 27.3943 50
    endloop
  endfacet
  facet normal 0 0 1
    outer loop
      vertex -38.9711 22.5 50
      vertex -38.9711 -22.5 50
      vertex -35.7009 -27.3943 50
    endloop
  endfacet
  facet normal -0 0 1
    outer loop
      vertex -41.5746 17.2208 50
      vertex -38.9711 -22.5 50
      vertex -38.9711 22.5 50
    endloop
  endfacet
  facet normal 0 0 1
    outer loop
      vertex -41.5746 17.2208 50
      vertex -41.5746 -17.2208 50
      vertex -38.9711 -22.5 50
    endloop
  endfacet
  facet normal -0 0 1
    outer loop
      vertex -43.4667 11.6469 50
      vertex -41.5746 -17.2208 50
      vertex -41.5746 17.2208 50
    endloop
  endfacet
  facet normal 0 0 1
    outer loop
      vertex -43.4667 11.6469 50
      vertex -43.4667 -11.6469 50
      vertex -41.5746 -17.2208 50
    endloop
  endfacet
  facet normal -0 0 1
    outer loop
      vertex -44.615 5.87368 50
      vertex -43.4667 -11.6469 50
      vertex -43.4667 11.6469 50
    endloop
  endfacet
  facet normal 0 0 1
    outer loop
      vertex -44.615 5.87368 50
      vertex -44.615 -5.87368 50
      vertex -43.4667 -11.6469 50
    endloop
  endfacet
  facet normal 0 -0 1
    outer loop
      vertex -44.615 -5.87368 50
      vertex -44.615 5.87368 50
      vertex -45 -0 50
    endloop
  endfacet
endsolid OpenSCAD_Model
