solid OpenSCAD_Model
  facet normal 0.997859 0.0653957 0
    outer loop
      vertex 24 0 57.5
      vertex 23.7947 3.13263 -57.5
      vertex 23.7947 3.13263 57.5
    endloop
  endfacet
  facet normal 0.997859 0.0653957 0
    outer loop
      vertex 23.7947 3.13263 -57.5
      vertex 24 0 57.5
      vertex 24 0 -57.5
    endloop
  endfacet
  facet normal 0.980783 0.195103 0
    outer loop
      vertex 23.7947 3.13263 57.5
      vertex 23.1822 6.21166 -57.5
      vertex 23.1822 6.21166 57.5
    endloop
  endfacet
  facet normal 0.980783 0.195103 0
    outer loop
      vertex 23.1822 6.21166 -57.5
      vertex 23.7947 3.13263 57.5
      vertex 23.7947 3.13263 -57.5
    endloop
  endfacet
  facet normal 0.946931 0.321437 0
    outer loop
      vertex 23.1822 6.21166 57.5
      vertex 22.1731 9.1844 -57.5
      vertex 22.1731 9.1844 57.5
    endloop
  endfacet
  facet normal 0.946931 0.321437 0
    outer loop
      vertex 22.1731 9.1844 -57.5
      vertex 23.1822 6.21166 57.5
      vertex 23.1822 6.21166 -57.5
    endloop
  endfacet
  facet normal 0.896873 0.442289 0
    outer loop
      vertex 22.1731 9.1844 57.5
      vertex 20.7846 12 -57.5
      vertex 20.7846 12 57.5
    endloop
  endfacet
  facet normal 0.896873 0.442289 0
    outer loop
      vertex 20.7846 12 -57.5
      vertex 22.1731 9.1844 57.5
      vertex 22.1731 9.1844 -57.5
    endloop
  endfacet
  facet normal 0.831476 0.55556 0
    outer loop
      vertex 20.7846 12 57.5
      vertex 19.0405 14.6103 -57.5
      vertex 19.0405 14.6103 57.5
    endloop
  endfacet
  facet normal 0.831476 0.55556 0
    outer loop
      vertex 19.0405 14.6103 -57.5
      vertex 20.7846 12 57.5
      vertex 20.7846 12 -57.5
    endloop
  endfacet
  facet normal 0.751844 0.659341 0
    outer loop
      vertex 19.0405 14.6103 57.5
      vertex 16.9706 16.9706 -57.5
      vertex 16.9706 16.9706 57.5
    endloop
  endfacet
  facet normal 0.751844 0.659341 0
    outer loop
      vertex 16.9706 16.9706 -57.5
      vertex 19.0405 14.6103 57.5
      vertex 19.0405 14.6103 -57.5
    endloop
  endfacet
  facet normal 0.659341 0.751844 -0
    outer loop
      vertex 16.9706 16.9706 -57.5
      vertex 14.6103 19.0405 57.5
      vertex 16.9706 16.9706 57.5
    endloop
  endfacet
  facet normal 0.659341 0.751844 0
    outer loop
      vertex 14.6103 19.0405 57.5
      vertex 16.9706 16.9706 -57.5
      vertex 14.6103 19.0405 -57.5
    endloop
  endfacet
  facet normal 0.55556 0.831476 -0
    outer loop
      vertex 14.6103 19.0405 -57.5
      vertex 12 20.7846 57.5
      vertex 14.6103 19.0405 57.5
    endloop
  endfacet
  facet normal 0.55556 0.831476 0
    outer loop
      vertex 12 20.7846 57.5
      vertex 14.6103 19.0405 -57.5
      vertex 12 20.7846 -57.5
    endloop
  endfacet
  facet normal 0.442289 0.896873 -0
    outer loop
      vertex 12 20.7846 -57.5
      vertex 9.1844 22.1731 57.5
      vertex 12 20.7846 57.5
    endloop
  endfacet
  facet normal 0.442289 0.896873 0
    outer loop
      vertex 9.1844 22.1731 57.5
      vertex 12 20.7846 -57.5
      vertex 9.1844 22.1731 -57.5
    endloop
  endfacet
  facet normal 0.321437 0.946931 -0
    outer loop
      vertex 9.1844 22.1731 -57.5
      vertex 6.21166 23.1822 57.5
      vertex 9.1844 22.1731 57.5
    endloop
  endfacet
  facet normal 0.321437 0.946931 0
    outer loop
      vertex 6.21166 23.1822 57.5
      vertex 9.1844 22.1731 -57.5
      vertex 6.21166 23.1822 -57.5
    endloop
  endfacet
  facet normal 0.195103 0.980783 -0
    outer loop
      vertex 6.21166 23.1822 -57.5
      vertex 3.13263 23.7947 57.5
      vertex 6.21166 23.1822 57.5
    endloop
  endfacet
  facet normal 0.195103 0.980783 0
    outer loop
      vertex 3.13263 23.7947 57.5
      vertex 6.21166 23.1822 -57.5
      vertex 3.13263 23.7947 -57.5
    endloop
  endfacet
  facet normal 0.0653957 0.997859 -0
    outer loop
      vertex 3.13263 23.7947 -57.5
      vertex 0 24 57.5
      vertex 3.13263 23.7947 57.5
    endloop
  endfacet
  facet normal 0.0653957 0.997859 0
    outer loop
      vertex 0 24 57.5
      vertex 3.13263 23.7947 -57.5
      vertex 0 24 -57.5
    endloop
  endfacet
  facet normal -0.0653957 0.997859 0
    outer loop
      vertex 0 24 -57.5
      vertex -3.13263 23.7947 57.5
      vertex 0 24 57.5
    endloop
  endfacet
  facet normal -0.0653957 0.997859 0
    outer loop
      vertex -3.13263 23.7947 57.5
      vertex 0 24 -57.5
      vertex -3.13263 23.7947 -57.5
    endloop
  endfacet
  facet normal -0.195103 0.980783 0
    outer loop
      vertex -3.13263 23.7947 -57.5
      vertex -6.21166 23.1822 57.5
      vertex -3.13263 23.7947 57.5
    endloop
  endfacet
  facet normal -0.195103 0.980783 0
    outer loop
      vertex -6.21166 23.1822 57.5
      vertex -3.13263 23.7947 -57.5
      vertex -6.21166 23.1822 -57.5
    endloop
  endfacet
  facet normal -0.321437 0.946931 0
    outer loop
      vertex -6.21166 23.1822 -57.5
      vertex -9.1844 22.1731 57.5
      vertex -6.21166 23.1822 57.5
    endloop
  endfacet
  facet normal -0.321437 0.946931 0
    outer loop
      vertex -9.1844 22.1731 57.5
      vertex -6.21166 23.1822 -57.5
      vertex -9.1844 22.1731 -57.5
    endloop
  endfacet
  facet normal -0.442289 0.896873 0
    outer loop
      vertex -9.1844 22.1731 -57.5
      vertex -12 20.7846 57.5
      vertex -9.1844 22.1731 57.5
    endloop
  endfacet
  facet normal -0.442289 0.896873 0
    outer loop
      vertex -12 20.7846 57.5
      vertex -9.1844 22.1731 -57.5
      vertex -12 20.7846 -57.5
    endloop
  endfacet
  facet normal -0.55556 0.831476 0
    outer loop
      vertex -12 20.7846 -57.5
      vertex -14.6103 19.0405 57.5
      vertex -12 20.7846 57.5
    endloop
  endfacet
  facet normal -0.55556 0.831476 0
    outer loop
      vertex -14.6103 19.0405 57.5
      vertex -12 20.7846 -57.5
      vertex -14.6103 19.0405 -57.5
    endloop
  endfacet
  facet normal -0.659341 0.751844 0
    outer loop
      vertex -14.6103 19.0405 -57.5
      vertex -16.9706 16.9706 57.5
      vertex -14.6103 19.0405 57.5
    endloop
  endfacet
  facet normal -0.659341 0.751844 0
    outer loop
      vertex -16.9706 16.9706 57.5
      vertex -14.6103 19.0405 -57.5
      vertex -16.9706 16.9706 -57.5
    endloop
  endfacet
  facet normal -0.751844 0.659341 0
    outer loop
      vertex -19.0405 14.6103 -57.5
      vertex -16.9706 16.9706 57.5
      vertex -16.9706 16.9706 -57.5
    endloop
  endfacet
  facet normal -0.751844 0.659341 0
    outer loop
      vertex -16.9706 16.9706 57.5
      vertex -19.0405 14.6103 -57.5
      vertex -19.0405 14.6103 57.5
    endloop
  endfacet
  facet normal -0.831476 0.55556 0
    outer loop
      vertex -20.7846 12 -57.5
      vertex -19.0405 14.6103 57.5
      vertex -19.0405 14.6103 -57.5
    endloop
  endfacet
  facet normal -0.831476 0.55556 0
    outer loop
      vertex -19.0405 14.6103 57.5
      vertex -20.7846 12 -57.5
      vertex -20.7846 12 57.5
    endloop
  endfacet
  facet normal -0.896873 0.442289 0
    outer loop
      vertex -22.1731 9.1844 -57.5
      vertex -20.7846 12 57.5
      vertex -20.7846 12 -57.5
    endloop
  endfacet
  facet normal -0.896873 0.442289 0
    outer loop
      vertex -20.7846 12 57.5
      vertex -22.1731 9.1844 -57.5
      vertex -22.1731 9.1844 57.5
    endloop
  endfacet
  facet normal -0.946931 0.321437 0
    outer loop
      vertex -23.1822 6.21166 -57.5
      vertex -22.1731 9.1844 57.5
      vertex -22.1731 9.1844 -57.5
    endloop
  endfacet
  facet normal -0.946931 0.321437 0
    outer loop
      vertex -22.1731 9.1844 57.5
      vertex -23.1822 6.21166 -57.5
      vertex -23.1822 6.21166 57.5
    endloop
  endfacet
  facet normal -0.980783 0.195103 0
    outer loop
      vertex -23.7947 3.13263 -57.5
      vertex -23.1822 6.21166 57.5
      vertex -23.1822 6.21166 -57.5
    endloop
  endfacet
  facet normal -0.980783 0.195103 0
    outer loop
      vertex -23.1822 6.21166 57.5
      vertex -23.7947 3.13263 -57.5
      vertex -23.7947 3.13263 57.5
    endloop
  endfacet
  facet normal -0.997859 0.0653957 0
    outer loop
      vertex -24 -0 -57.5
      vertex -23.7947 3.13263 57.5
      vertex -23.7947 3.13263 -57.5
    endloop
  endfacet
  facet normal -0.997859 0.0653957 0
    outer loop
      vertex -23.7947 3.13263 57.5
      vertex -24 -0 -57.5
      vertex -24 -0 57.5
    endloop
  endfacet
  facet normal -0.997859 -0.0653957 0
    outer loop
      vertex -23.7947 -3.13263 -57.5
      vertex -24 -0 57.5
      vertex -24 -0 -57.5
    endloop
  endfacet
  facet normal -0.997859 -0.0653957 0
    outer loop
      vertex -24 -0 57.5
      vertex -23.7947 -3.13263 -57.5
      vertex -23.7947 -3.13263 57.5
    endloop
  endfacet
  facet normal -0.980783 -0.195103 0
    outer loop
      vertex -23.1822 -6.21166 -57.5
      vertex -23.7947 -3.13263 57.5
      vertex -23.7947 -3.13263 -57.5
    endloop
  endfacet
  facet normal -0.980783 -0.195103 0
    outer loop
      vertex -23.7947 -3.13263 57.5
      vertex -23.1822 -6.21166 -57.5
      vertex -23.1822 -6.21166 57.5
    endloop
  endfacet
  facet normal -0.946931 -0.321437 0
    outer loop
      vertex -22.1731 -9.1844 -57.5
      vertex -23.1822 -6.21166 57.5
      vertex -23.1822 -6.21166 -57.5
    endloop
  endfacet
  facet normal -0.946931 -0.321437 0
    outer loop
      vertex -23.1822 -6.21166 57.5
      vertex -22.1731 -9.1844 -57.5
      vertex -22.1731 -9.1844 57.5
    endloop
  endfacet
  facet normal -0.896873 -0.442289 0
    outer loop
      vertex -20.7846 -12 -57.5
      vertex -22.1731 -9.1844 57.5
      vertex -22.1731 -9.1844 -57.5
    endloop
  endfacet
  facet normal -0.896873 -0.442289 0
    outer loop
      vertex -22.1731 -9.1844 57.5
      vertex -20.7846 -12 -57.5
      vertex -20.7846 -12 57.5
    endloop
  endfacet
  facet normal -0.831476 -0.55556 0
    outer loop
      vertex -19.0405 -14.6103 -57.5
      vertex -20.7846 -12 57.5
      vertex -20.7846 -12 -57.5
    endloop
  endfacet
  facet normal -0.831476 -0.55556 0
    outer loop
      vertex -20.7846 -12 57.5
      vertex -19.0405 -14.6103 -57.5
      vertex -19.0405 -14.6103 57.5
    endloop
  endfacet
  facet normal -0.751844 -0.659341 0
    outer loop
      vertex -16.9706 -16.9706 -57.5
      vertex -19.0405 -14.6103 57.5
      vertex -19.0405 -14.6103 -57.5
    endloop
  endfacet
  facet normal -0.751844 -0.659341 0
    outer loop
      vertex -19.0405 -14.6103 57.5
      vertex -16.9706 -16.9706 -57.5
      vertex -16.9706 -16.9706 57.5
    endloop
  endfacet
  facet normal -0.659341 -0.751844 0
    outer loop
      vertex -16.9706 -16.9706 -57.5
      vertex -14.6103 -19.0405 57.5
      vertex -16.9706 -16.9706 57.5
    endloop
  endfacet
  facet normal -0.659341 -0.751844 -0
    outer loop
      vertex -14.6103 -19.0405 57.5
      vertex -16.9706 -16.9706 -57.5
      vertex -14.6103 -19.0405 -57.5
    endloop
  endfacet
  facet normal -0.55556 -0.831476 0
    outer loop
      vertex -14.6103 -19.0405 -57.5
      vertex -12 -20.7846 57.5
      vertex -14.6103 -19.0405 57.5
    endloop
  endfacet
  facet normal -0.55556 -0.831476 -0
    outer loop
      vertex -12 -20.7846 57.5
      vertex -14.6103 -19.0405 -57.5
      vertex -12 -20.7846 -57.5
    endloop
  endfacet
  facet normal -0.442289 -0.896873 0
    outer loop
      vertex -12 -20.7846 -57.5
      vertex -9.1844 -22.1731 57.5
      vertex -12 -20.7846 57.5
    endloop
  endfacet
  facet normal -0.442289 -0.896873 -0
    outer loop
      vertex -9.1844 -22.1731 57.5
      vertex -12 -20.7846 -57.5
      vertex -9.1844 -22.1731 -57.5
    endloop
  endfacet
  facet normal -0.321437 -0.946931 0
    outer loop
      vertex -9.1844 -22.1731 -57.5
      vertex -6.21166 -23.1822 57.5
      vertex -9.1844 -22.1731 57.5
    endloop
  endfacet
  facet normal -0.321437 -0.946931 -0
    outer loop
      vertex -6.21166 -23.1822 57.5
      vertex -9.1844 -22.1731 -57.5
      vertex -6.21166 -23.1822 -57.5
    endloop
  endfacet
  facet normal -0.195103 -0.980783 0
    outer loop
      vertex -6.21166 -23.1822 -57.5
      vertex -3.13263 -23.7947 57.5
      vertex -6.21166 -23.1822 57.5
    endloop
  endfacet
  facet normal -0.195103 -0.980783 -0
    outer loop
      vertex -3.13263 -23.7947 57.5
      vertex -6.21166 -23.1822 -57.5
      vertex -3.13263 -23.7947 -57.5
    endloop
  endfacet
  facet normal -0.0653957 -0.997859 0
    outer loop
      vertex -3.13263 -23.7947 -57.5
      vertex -0 -24 57.5
      vertex -3.13263 -23.7947 57.5
    endloop
  endfacet
  facet normal -0.0653957 -0.997859 -0
    outer loop
      vertex -0 -24 57.5
      vertex -3.13263 -23.7947 -57.5
      vertex -0 -24 -57.5
    endloop
  endfacet
  facet normal 0.0653957 -0.997859 0
    outer loop
      vertex -0 -24 -57.5
      vertex 3.13263 -23.7947 57.5
      vertex -0 -24 57.5
    endloop
  endfacet
  facet normal 0.0653957 -0.997859 0
    outer loop
      vertex 3.13263 -23.7947 57.5
      vertex -0 -24 -57.5
      vertex 3.13263 -23.7947 -57.5
    endloop
  endfacet
  facet normal 0.195103 -0.980783 0
    outer loop
      vertex 3.13263 -23.7947 -57.5
      vertex 6.21166 -23.1822 57.5
      vertex 3.13263 -23.7947 57.5
    endloop
  endfacet
  facet normal 0.195103 -0.980783 0
    outer loop
      vertex 6.21166 -23.1822 57.5
      vertex 3.13263 -23.7947 -57.5
      vertex 6.21166 -23.1822 -57.5
    endloop
  endfacet
  facet normal 0.321437 -0.946931 0
    outer loop
      vertex 6.21166 -23.1822 -57.5
      vertex 9.1844 -22.1731 57.5
      vertex 6.21166 -23.1822 57.5
    endloop
  endfacet
  facet normal 0.321437 -0.946931 0
    outer loop
      vertex 9.1844 -22.1731 57.5
      vertex 6.21166 -23.1822 -57.5
      vertex 9.1844 -22.1731 -57.5
    endloop
  endfacet
  facet normal 0.442289 -0.896873 0
    outer loop
      vertex 9.1844 -22.1731 -57.5
      vertex 12 -20.7846 57.5
      vertex 9.1844 -22.1731 57.5
    endloop
  endfacet
  facet normal 0.442289 -0.896873 0
    outer loop
      vertex 12 -20.7846 57.5
      vertex 9.1844 -22.1731 -57.5
      vertex 12 -20.7846 -57.5
    endloop
  endfacet
  facet normal 0.55556 -0.831476 0
    outer loop
      vertex 12 -20.7846 -57.5
      vertex 14.6103 -19.0405 57.5
      vertex 12 -20.7846 57.5
    endloop
  endfacet
  facet normal 0.55556 -0.831476 0
    outer loop
      vertex 14.6103 -19.0405 57.5
      vertex 12 -20.7846 -57.5
      vertex 14.6103 -19.0405 -57.5
    endloop
  endfacet
  facet normal 0.659341 -0.751844 0
    outer loop
      vertex 14.6103 -19.0405 -57.5
      vertex 16.9706 -16.9706 57.5
      vertex 14.6103 -19.0405 57.5
    endloop
  endfacet
  facet normal 0.659341 -0.751844 0
    outer loop
      vertex 16.9706 -16.9706 57.5
      vertex 14.6103 -19.0405 -57.5
      vertex 16.9706 -16.9706 -57.5
    endloop
  endfacet
  facet normal 0.751844 -0.659341 0
    outer loop
      vertex 16.9706 -16.9706 57.5
      vertex 19.0405 -14.6103 -57.5
      vertex 19.0405 -14.6103 57.5
    endloop
  endfacet
  facet normal 0.751844 -0.659341 0
    outer loop
      vertex 19.0405 -14.6103 -57.5
      vertex 16.9706 -16.9706 57.5
      vertex 16.9706 -16.9706 -57.5
    endloop
  endfacet
  facet normal 0.831476 -0.55556 0
    outer loop
      vertex 19.0405 -14.6103 57.5
      vertex 20.7846 -12 -57.5
      vertex 20.7846 -12 57.5
    endloop
  endfacet
  facet normal 0.831476 -0.55556 0
    outer loop
      vertex 20.7846 -12 -57.5
      vertex 19.0405 -14.6103 57.5
      vertex 19.0405 -14.6103 -57.5
    endloop
  endfacet
  facet normal 0.896873 -0.442289 0
    outer loop
      vertex 20.7846 -12 57.5
      vertex 22.1731 -9.1844 -57.5
      vertex 22.1731 -9.1844 57.5
    endloop
  endfacet
  facet normal 0.896873 -0.442289 0
    outer loop
      vertex 22.1731 -9.1844 -57.5
      vertex 20.7846 -12 57.5
      vertex 20.7846 -12 -57.5
    endloop
  endfacet
  facet normal 0.946931 -0.321437 0
    outer loop
      vertex 22.1731 -9.1844 57.5
      vertex 23.1822 -6.21166 -57.5
      vertex 23.1822 -6.21166 57.5
    endloop
  endfacet
  facet normal 0.946931 -0.321437 0
    outer loop
      vertex 23.1822 -6.21166 -57.5
      vertex 22.1731 -9.1844 57.5
      vertex 22.1731 -9.1844 -57.5
    endloop
  endfacet
  facet normal 0.980783 -0.195103 0
    outer loop
      vertex 23.1822 -6.21166 57.5
      vertex 23.7947 -3.13263 -57.5
      vertex 23.7947 -3.13263 57.5
    endloop
  endfacet
  facet normal 0.980783 -0.195103 0
    outer loop
      vertex 23.7947 -3.13263 -57.5
      vertex 23.1822 -6.21166 57.5
      vertex 23.1822 -6.21166 -57.5
    endloop
  endfacet
  facet normal 0.997859 -0.0653957 0
    outer loop
      vertex 23.7947 -3.13263 57.5
      vertex 24 0 -57.5
      vertex 24 0 57.5
    endloop
  endfacet
  facet normal 0.997859 -0.0653957 0
    outer loop
      vertex 24 0 -57.5
      vertex 23.7947 -3.13263 57.5
      vertex 23.7947 -3.13263 -57.5
    endloop
  endfacet
  facet normal 0 0 -1
    outer loop
      vertex 23.7947 -3.13263 -57.5
      vertex 23.7947 3.13263 -57.5
      vertex 24 0 -57.5
    endloop
  endfacet
  facet normal 0 0 -1
    outer loop
      vertex 23.1822 -6.21166 -57.5
      vertex 23.7947 3.13263 -57.5
      vertex 23.7947 -3.13263 -57.5
    endloop
  endfacet
  facet normal 0 0 -1
    outer loop
      vertex 23.1822 -6.21166 -57.5
      vertex 23.1822 6.21166 -57.5
      vertex 23.7947 3.13263 -57.5
    endloop
  endfacet
  facet normal 0 0 -1
    outer loop
      vertex 22.1731 -9.1844 -57.5
      vertex 23.1822 6.21166 -57.5
      vertex 23.1822 -6.21166 -57.5
    endloop
  endfacet
  facet normal 0 0 -1
    outer loop
      vertex 22.1731 -9.1844 -57.5
      vertex 22.1731 9.1844 -57.5
      vertex 23.1822 6.21166 -57.5
    endloop
  endfacet
  facet normal 0 0 -1
    outer loop
      vertex 20.7846 -12 -57.5
      vertex 22.1731 9.1844 -57.5
      vertex 22.1731 -9.1844 -57.5
    endloop
  endfacet
  facet normal 0 0 -1
    outer loop
      vertex 20.7846 -12 -57.5
      vertex 20.7846 12 -57.5
      vertex 22.1731 9.1844 -57.5
    endloop
  endfacet
  facet normal 0 0 -1
    outer loop
      vertex 19.0405 -14.6103 -57.5
      vertex 20.7846 12 -57.5
      vertex 20.7846 -12 -57.5
    endloop
  endfacet
  facet normal 0 0 -1
    outer loop
      vertex 19.0405 -14.6103 -57.5
      vertex 19.0405 14.6103 -57.5
      vertex 20.7846 12 -57.5
    endloop
  endfacet
  facet normal 0 0 -1
    outer loop
      vertex 16.9706 -16.9706 -57.5
      vertex 19.0405 14.6103 -57.5
      vertex 19.0405 -14.6103 -57.5
    endloop
  endfacet
  facet normal 0 0 -1
    outer loop
      vertex 16.9706 -16.9706 -57.5
      vertex 16.9706 16.9706 -57.5
      vertex 19.0405 14.6103 -57.5
    endloop
  endfacet
  facet normal 0 0 -1
    outer loop
      vertex 14.6103 -19.0405 -57.5
      vertex 16.9706 16.9706 -57.5
      vertex 16.9706 -16.9706 -57.5
    endloop
  endfacet
  facet normal 0 0 -1
    outer loop
      vertex 14.6103 -19.0405 -57.5
      vertex 14.6103 19.0405 -57.5
      vertex 16.9706 16.9706 -57.5
    endloop
  endfacet
  facet normal 0 0 -1
    outer loop
      vertex 12 -20.7846 -57.5
      vertex 14.6103 19.0405 -57.5
      vertex 14.6103 -19.0405 -57.5
    endloop
  endfacet
  facet normal 0 0 -1
    outer loop
      vertex 12 -20.7846 -57.5
      vertex 12 20.7846 -57.5
      vertex 14.6103 19.0405 -57.5
    endloop
  endfacet
  facet normal 0 0 -1
    outer loop
      vertex 9.1844 -22.1731 -57.5
      vertex 12 20.7846 -57.5
      vertex 12 -20.7846 -57.5
    endloop
  endfacet
  facet normal 0 0 -1
    outer loop
      vertex 9.1844 -22.1731 -57.5
      vertex 9.1844 22.1731 -57.5
      vertex 12 20.7846 -57.5
    endloop
  endfacet
  facet normal 0 0 -1
    outer loop
      vertex 6.21166 -23.1822 -57.5
      vertex 9.1844 22.1731 -57.5
      vertex 9.1844 -22.1731 -57.5
    endloop
  endfacet
  facet normal 0 0 -1
    outer loop
      vertex 6.21166 -23.1822 -57.5
      vertex 6.21166 23.1822 -57.5
      vertex 9.1844 22.1731 -57.5
    endloop
  endfacet
  facet normal 0 0 -1
    outer loop
      vertex 3.13263 -23.7947 -57.5
      vertex 6.21166 23.1822 -57.5
      vertex 6.21166 -23.1822 -57.5
    endloop
  endfacet
  facet normal 0 0 -1
    outer loop
      vertex 3.13263 -23.7947 -57.5
      vertex 3.13263 23.7947 -57.5
      vertex 6.21166 23.1822 -57.5
    endloop
  endfacet
  facet normal 0 0 -1
    outer loop
      vertex -0 -24 -57.5
      vertex 3.13263 23.7947 -57.5
      vertex 3.13263 -23.7947 -57.5
    endloop
  endfacet
  facet normal 0 0 -1
    outer loop
      vertex -0 -24 -57.5
      vertex 0 24 -57.5
      vertex 3.13263 23.7947 -57.5
    endloop
  endfacet
  facet normal 0 0 -1
    outer loop
      vertex -3.13263 -23.7947 -57.5
      vertex 0 24 -57.5
      vertex -0 -24 -57.5
    endloop
  endfacet
  facet normal 0 0 -1
    outer loop
      vertex -3.13263 -23.7947 -57.5
      vertex -3.13263 23.7947 -57.5
      vertex 0 24 -57.5
    endloop
  endfacet
  facet normal 0 0 -1
    outer loop
      vertex -6.21166 -23.1822 -57.5
      vertex -3.13263 23.7947 -57.5
      vertex -3.13263 -23.7947 -57.5
    endloop
  endfacet
  facet normal 0 0 -1
    outer loop
      vertex -6.21166 -23.1822 -57.5
      vertex -6.21166 23.1822 -57.5
      vertex -3.13263 23.7947 -57.5
    endloop
  endfacet
  facet normal 0 0 -1
    outer loop
      vertex -9.1844 -22.1731 -57.5
      vertex -6.21166 23.1822 -57.5
      vertex -6.21166 -23.1822 -57.5
    endloop
  endfacet
  facet normal 0 0 -1
    outer loop
      vertex -9.1844 -22.1731 -57.5
      vertex -9.1844 22.1731 -57.5
      vertex -6.21166 23.1822 -57.5
    endloop
  endfacet
  facet normal 0 0 -1
    outer loop
      vertex -12 -20.7846 -57.5
      vertex -9.1844 22.1731 -57.5
      vertex -9.1844 -22.1731 -57.5
    endloop
  endfacet
  facet normal 0 0 -1
    outer loop
      vertex -12 -20.7846 -57.5
      vertex -12 20.7846 -57.5
      vertex -9.1844 22.1731 -57.5
    endloop
  endfacet
  facet normal 0 0 -1
    outer loop
      vertex -14.6103 -19.0405 -57.5
      vertex -12 20.7846 -57.5
      vertex -12 -20.7846 -57.5
    endloop
  endfacet
  facet normal 0 0 -1
    outer loop
      vertex -14.6103 -19.0405 -57.5
      vertex -14.6103 19.0405 -57.5
      vertex -12 20.7846 -57.5
    endloop
  endfacet
  facet normal 0 0 -1
    outer loop
      vertex -16.9706 -16.9706 -57.5
      vertex -14.6103 19.0405 -57.5
      vertex -14.6103 -19.0405 -57.5
    endloop
  endfacet
  facet normal 0 0 -1
    outer loop
      vertex -16.9706 -16.9706 -57.5
      vertex -16.9706 16.9706 -57.5
      vertex -14.6103 19.0405 -57.5
    endloop
  endfacet
  facet normal 0 0 -1
    outer loop
      vertex -19.0405 -14.6103 -57.5
      vertex -16.9706 16.9706 -57.5
      vertex -16.9706 -16.9706 -57.5
    endloop
  endfacet
  facet normal 0 0 -1
    outer loop
      vertex -19.0405 -14.6103 -57.5
      vertex -19.0405 14.6103 -57.5
      vertex -16.9706 16.9706 -57.5
    endloop
  endfacet
  facet normal 0 0 -1
    outer loop
      vertex -20.7846 -12 -57.5
      vertex -19.0405 14.6103 -57.5
      vertex -19.0405 -14.6103 -57.5
    endloop
  endfacet
  facet normal 0 0 -1
    outer loop
      vertex -20.7846 -12 -57.5
      vertex -20.7846 12 -57.5
      vertex -19.0405 14.6103 -57.5
    endloop
  endfacet
  facet normal 0 0 -1
    outer loop
      vertex -22.1731 -9.1844 -57.5
      vertex -20.7846 12 -57.5
      vertex -20.7846 -12 -57.5
    endloop
  endfacet
  facet normal 0 0 -1
    outer loop
      vertex -22.1731 -9.1844 -57.5
      vertex -22.1731 9.1844 -57.5
      vertex -20.7846 12 -57.5
    endloop
  endfacet
  facet normal 0 0 -1
    outer loop
      vertex -23.1822 -6.21166 -57.5
      vertex -22.1731 9.1844 -57.5
      vertex -22.1731 -9.1844 -57.5
    endloop
  endfacet
  facet normal 0 0 -1
    outer loop
      vertex -23.1822 -6.21166 -57.5
      vertex -23.1822 6.21166 -57.5
      vertex -22.1731 9.1844 -57.5
    endloop
  endfacet
  facet normal 0 0 -1
    outer loop
      vertex -23.7947 -3.13263 -57.5
      vertex -23.1822 6.21166 -57.5
      vertex -23.1822 -6.21166 -57.5
    endloop
  endfacet
  facet normal 0 0 -1
    outer loop
      vertex -23.7947 -3.13263 -57.5
      vertex -23.7947 3.13263 -57.5
      vertex -23.1822 6.21166 -57.5
    endloop
  endfacet
  facet normal 0 -0 -1
    outer loop
      vertex -23.7947 3.13263 -57.5
      vertex -23.7947 -3.13263 -57.5
      vertex -24 -0 -57.5
    endloop
  endfacet
  facet normal 0 0 1
    outer loop
      vertex 23.7947 3.13263 57.5
      vertex 23.7947 -3.13263 57.5
      vertex 24 0 57.5
    endloop
  endfacet
  facet normal 0 0 1
    outer loop
      vertex 23.1822 6.21166 57.5
      vertex 23.7947 -3.13263 57.5
      vertex 23.7947 3.13263 57.5
    endloop
  endfacet
  facet normal 0 0 1
    outer loop
      vertex 23.1822 6.21166 57.5
      vertex 23.1822 -6.21166 57.5
      vertex 23.7947 -3.13263 57.5
    endloop
  endfacet
  facet normal 0 0 1
    outer loop
      vertex 22.1731 9.1844 57.5
      vertex 23.1822 -6.21166 57.5
      vertex 23.1822 6.21166 57.5
    endloop
  endfacet
  facet normal 0 0 1
    outer loop
      vertex 22.1731 9.1844 57.5
      vertex 22.1731 -9.1844 57.5
      vertex 23.1822 -6.21166 57.5
    endloop
  endfacet
  facet normal 0 0 1
    outer loop
      vertex 20.7846 12 57.5
      vertex 22.1731 -9.1844 57.5
      vertex 22.1731 9.1844 57.5
    endloop
  endfacet
  facet normal 0 0 1
    outer loop
      vertex 20.7846 12 57.5
      vertex 20.7846 -12 57.5
      vertex 22.1731 -9.1844 57.5
    endloop
  endfacet
  facet normal 0 0 1
    outer loop
      vertex 19.0405 14.6103 57.5
      vertex 20.7846 -12 57.5
      vertex 20.7846 12 57.5
    endloop
  endfacet
  facet normal 0 0 1
    outer loop
      vertex 19.0405 14.6103 57.5
      vertex 19.0405 -14.6103 57.5
      vertex 20.7846 -12 57.5
    endloop
  endfacet
  facet normal 0 0 1
    outer loop
      vertex 16.9706 16.9706 57.5
      vertex 19.0405 -14.6103 57.5
      vertex 19.0405 14.6103 57.5
    endloop
  endfacet
  facet normal 0 0 1
    outer loop
      vertex 16.9706 16.9706 57.5
      vertex 16.9706 -16.9706 57.5
      vertex 19.0405 -14.6103 57.5
    endloop
  endfacet
  facet normal 0 0 1
    outer loop
      vertex 14.6103 19.0405 57.5
      vertex 16.9706 -16.9706 57.5
      vertex 16.9706 16.9706 57.5
    endloop
  endfacet
  facet normal 0 0 1
    outer loop
      vertex 14.6103 19.0405 57.5
      vertex 14.6103 -19.0405 57.5
      vertex 16.9706 -16.9706 57.5
    endloop
  endfacet
  facet normal 0 0 1
    outer loop
      vertex 12 20.7846 57.5
      vertex 14.6103 -19.0405 57.5
      vertex 14.6103 19.0405 57.5
    endloop
  endfacet
  facet normal 0 0 1
    outer loop
      vertex 12 20.7846 57.5
      vertex 12 -20.7846 57.5
      vertex 14.6103 -19.0405 57.5
    endloop
  endfacet
  facet normal 0 0 1
    outer loop
      vertex 9.1844 22.1731 57.5
      vertex 12 -20.7846 57.5
      vertex 12 20.7846 57.5
    endloop
  endfacet
  facet normal 0 0 1
    outer loop
      vertex 9.1844 22.1731 57.5
      vertex 9.1844 -22.1731 57.5
      vertex 12 -20.7846 57.5
    endloop
  endfacet
  facet normal 0 0 1
    outer loop
      vertex 6.21166 23.1822 57.5
      vertex 9.1844 -22.1731 57.5
      vertex 9.1844 22.1731 57.5
    endloop
  endfacet
  facet normal 0 0 1
    outer loop
      vertex 6.21166 23.1822 57.5
      vertex 6.21166 -23.1822 57.5
      vertex 9.1844 -22.1731 57.5
    endloop
  endfacet
  facet normal 0 0 1
    outer loop
      vertex 3.13263 23.7947 57.5
      vertex 6.21166 -23.1822 57.5
      vertex 6.21166 23.1822 57.5
    endloop
  endfacet
  facet normal 0 0 1
    outer loop
      vertex 3.13263 23.7947 57.5
      vertex 3.13263 -23.7947 57.5
      vertex 6.21166 -23.1822 57.5
    endloop
  endfacet
  facet normal 0 0 1
    outer loop
      vertex 0 24 57.5
      vertex 3.13263 -23.7947 57.5
      vertex 3.13263 23.7947 57.5
    endloop
  endfacet
  facet normal 0 0 1
    outer loop
      vertex 0 24 57.5
      vertex -0 -24 57.5
      vertex 3.13263 -23.7947 57.5
    endloop
  endfacet
  facet normal -0 0 1
    outer loop
      vertex -3.13263 23.7947 57.5
      vertex -0 -24 57.5
      vertex 0 24 57.5
    endloop
  endfacet
  facet normal 0 0 1
    outer loop
      vertex -3.13263 23.7947 57.5
      vertex -3.13263 -23.7947 57.5
      vertex -0 -24 57.5
    endloop
  endfacet
  facet normal -0 0 1
    outer loop
      vertex -6.21166 23.1822 57.5
      vertex -3.13263 -23.7947 57.5
      vertex -3.13263 23.7947 57.5
    endloop
  endfacet
  facet normal 0 0 1
    outer loop
      vertex -6.21166 23.1822 57.5
      vertex -6.21166 -23.1822 57.5
      vertex -3.13263 -23.7947 57.5
    endloop
  endfacet
  facet normal -0 0 1
    outer loop
      vertex -9.1844 22.1731 57.5
      vertex -6.21166 -23.1822 57.5
      vertex -6.21166 23.1822 57.5
    endloop
  endfacet
  facet normal 0 0 1
    outer loop
      vertex -9.1844 22.1731 57.5
      vertex -9.1844 -22.1731 57.5
      vertex -6.21166 -23.1822 57.5
    endloop
  endfacet
  facet normal -0 0 1
    outer loop
      vertex -12 20.7846 57.5
      vertex -9.1844 -22.1731 57.5
      vertex -9.1844 22.1731 57.5
    endloop
  endfacet
  facet normal 0 0 1
    outer loop
      vertex -12 20.7846 57.5
      vertex -12 -20.7846 57.5
      vertex -9.1844 -22.1731 57.5
    endloop
  endfacet
  facet normal -0 0 1
    outer loop
      vertex -14.6103 19.0405 57.5
      vertex -12 -20.7846 57.5
      vertex -12 20.7846 57.5
    endloop
  endfacet
  facet normal 0 0 1
    outer loop
      vertex -14.6103 19.0405 57.5
      vertex -14.6103 -19.0405 57.5
      vertex -12 -20.7846 57.5
    endloop
  endfacet
  facet normal -0 0 1
    outer loop
      vertex -16.9706 16.9706 57.5
      vertex -14.6103 -19.0405 57.5
      vertex -14.6103 19.0405 57.5
    endloop
  endfacet
  facet normal 0 0 1
    outer loop
      vertex -16.9706 16.9706 57.5
      vertex -16.9706 -16.9706 57.5
      vertex -14.6103 -19.0405 57.5
    endloop
  endfacet
  facet normal -0 0 1
    outer loop
      vertex -19.0405 14.6103 57.5
      vertex -16.9706 -16.9706 57.5
      vertex -16.9706 16.9706 57.5
    endloop
  endfacet
  facet normal 0 0 1
    outer loop
      vertex -19.0405 14.6103 57.5
      vertex -19.0405 -14.6103 57.5
      vertex -16.9706 -16.9706 57.5
    endloop
  endfacet
  facet normal -0 0 1
    outer loop
      vertex -20.7846 12 57.5
      vertex -19.0405 -14.6103 57.5
      vertex -19.0405 14.6103 57.5
    endloop
  endfacet
  facet normal 0 0 1
    outer loop
      vertex -20.7846 12 57.5
      vertex -20.7846 -12 57.5
      vertex -19.0405 -14.6103 57.5
    endloop
  endfacet
  facet normal -0 0 1
    outer loop
      vertex -22.1731 9.1844 57.5
      vertex -20.7846 -12 57.5
      vertex -20.7846 12 57.5
    endloop
  endfacet
  facet normal 0 0 1
    outer loop
      vertex -22.1731 9.1844 57.5
      vertex -22.1731 -9.1844 57.5
      vertex -20.7846 -12 57.5
    endloop
  endfacet
  facet normal -0 0 1
    outer loop
      vertex -23.1822 6.21166 57.5
      vertex -22.1731 -9.1844 57.5
      vertex -22.1731 9.1844 57.5
    endloop
  endfacet
  facet normal 0 0 1
    outer loop
      vertex -23.1822 6.21166 57.5
      vertex -23.1822 -6.21166 57.5
      vertex -22.1731 -9.1844 57.5
    endloop
  endfacet
  facet normal -0 0 1
    outer loop
      vertex -23.7947 3.13263 57.5
      vertex -23.1822 -6.21166 57.5
      vertex -23.1822 6.21166 57.5
    endloop
  endfacet
  facet normal 0 0 1
    outer loop
      vertex -23.7947 3.13263 57.5
      vertex -23.7947 -3.13263 57.5
      vertex -23.1822 -6.21166 57.5
    endloop
  endfacet
  facet normal 0 -0 1
    outer loop
      vertex -23.7947 -3.13263 57.5
      vertex -23.7947 3.13263 57.5
      vertex -24 -0 57.5
    endloop
  endfacet
endsolid OpenSCAD_Model
