solid OpenSCAD_Model
  facet normal 1 -0 0
    outer loop
      vertex 70 -45 20
      vertex 70 45 -20
      vertex 70 45 20
    endloop
  endfacet
  facet normal 1 0 0
    outer loop
      vertex 70 45 -20
      vertex 70 -45 20
      vertex 70 -45 -20
    endloop
  endfacet
  facet normal 0 0 1
    outer loop
      vertex 70 45 20
      vertex 67 42 20
      vertex 70 -45 20
    endloop
  endfacet
  facet normal 0 0 1
    outer loop
      vertex 70 45 20
      vertex -67 42 20
      vertex 67 42 20
    endloop
  endfacet
  facet normal 0 0 1
    outer loop
      vertex -67 42 20
      vertex -70 45 20
      vertex -67 -42 20
    endloop
  endfacet
  facet normal -0 0 1
    outer loop
      vertex -70 45 20
      vertex -67 42 20
      vertex 70 45 20
    endloop
  endfacet
  facet normal -0 0 1
    outer loop
      vertex 67 -42 20
      vertex 70 -45 20
      vertex 67 42 20
    endloop
  endfacet
  facet normal -0 0 1
    outer loop
      vertex -67 -42 20
      vertex 70 -45 20
      vertex 67 -42 20
    endloop
  endfacet
  facet normal 0 0 1
    outer loop
      vertex -67 -42 20
      vertex -70 -45 20
      vertex 70 -45 20
    endloop
  endfacet
  facet normal 0 0 1
    outer loop
      vertex -70 -45 20
      vertex -67 -42 20
      vertex -70 45 20
    endloop
  endfacet
  facet normal 0 0 -1
    outer loop
      vertex -70 -45 -20
      vertex 70 45 -20
      vertex 70 -45 -20
    endloop
  endfacet
  facet normal -0 0 -1
    outer loop
      vertex 70 45 -20
      vertex -70 -45 -20
      vertex -70 45 -20
    endloop
  endfacet
  facet normal -1 0 0
    outer loop
      vertex -70 -45 -20
      vertex -70 45 20
      vertex -70 45 -20
    endloop
  endfacet
  facet normal -1 -0 0
    outer loop
      vertex -70 45 20
      vertex -70 -45 -20
      vertex -70 -45 20
    endloop
  endfacet
  facet normal 0 1 -0
    outer loop
      vertex 70 45 -20
      vertex -70 45 20
      vertex 70 45 20
    endloop
  endfacet
  facet normal 0 1 0
    outer loop
      vertex -70 45 20
      vertex 70 45 -20
      vertex -70 45 -20
    endloop
  endfacet
  facet normal 0 -1 0
    outer loop
      vertex -70 -45 -20
      vertex 70 -45 20
      vertex -70 -45 20
    endloop
  endfacet
  facet normal 0 -1 -0
    outer loop
      vertex 70 -45 20
      vertex -70 -45 -20
      vertex 70 -45 -20
    endloop
  endfacet
  facet normal -1 0 0
    outer loop
      vertex 67 -42 -17
      vertex 67 42 20
      vertex 67 42 -17
    endloop
  endfacet
  facet normal -1 -0 0
    outer loop
      vertex 67 42 20
      vertex 67 -42 -17
      vertex 67 -42 20
    endloop
  endfacet
  facet normal -0 0 1
    outer loop
      vertex -67 42 -17
      vertex 67 -42 -17
      vertex 67 42 -17
    endloop
  endfacet
  facet normal 0 0 1
    outer loop
      vertex 67 -42 -17
      vertex -67 42 -17
      vertex -67 -42 -17
    endloop
  endfacet
  facet normal 1 -0 0
    outer loop
      vertex -67 -42 20
      vertex -67 42 -17
      vertex -67 42 20
    endloop
  endfacet
  facet normal 1 0 0
    outer loop
      vertex -67 42 -17
      vertex -67 -42 20
      vertex -67 -42 -17
    endloop
  endfacet
  facet normal 0 -1 0
    outer loop
      vertex -67 42 -17
      vertex 67 42 20
      vertex -67 42 20
    endloop
  endfacet
  facet normal 0 -1 -0
    outer loop
      vertex 67 42 20
      vertex -67 42 -17
      vertex 67 42 -17
    endloop
  endfacet
  facet normal 0 1 -0
    outer loop
      vertex 67 -42 -17
      vertex -67 -42 20
      vertex 67 -42 20
    endloop
  endfacet
  facet normal 0 1 0
    outer loop
      vertex -67 -42 20
      vertex 67 -42 -17
      vertex -67 -42 -17
    endloop
  endfacet
endsolid OpenSCAD_Model
