solid OpenSCAD_Model
  facet normal 0.997858 0.0654097 0
    outer loop
      vertex 50 0 35
      vertex 49.5722 6.52631 -35
      vertex 49.5722 6.52631 35
    endloop
  endfacet
  facet normal 0.997858 0.0654097 0
    outer loop
      vertex 49.5722 6.52631 -35
      vertex 50 0 35
      vertex 50 0 -35
    endloop
  endfacet
  facet normal 0.980787 0.195081 0
    outer loop
      vertex 49.5722 6.52631 35
      vertex 48.2963 12.941 -35
      vertex 48.2963 12.941 35
    endloop
  endfacet
  facet normal 0.980787 0.195081 0
    outer loop
      vertex 48.2963 12.941 -35
      vertex 49.5722 6.52631 35
      vertex 49.5722 6.52631 -35
    endloop
  endfacet
  facet normal 0.946931 0.321438 0
    outer loop
      vertex 48.2963 12.941 35
      vertex 46.194 19.1342 -35
      vertex 46.194 19.1342 35
    endloop
  endfacet
  facet normal 0.946931 0.321438 0
    outer loop
      vertex 46.194 19.1342 -35
      vertex 48.2963 12.941 35
      vertex 48.2963 12.941 -35
    endloop
  endfacet
  facet normal 0.896872 0.44229 0
    outer loop
      vertex 46.194 19.1342 35
      vertex 43.3013 25 -35
      vertex 43.3013 25 35
    endloop
  endfacet
  facet normal 0.896872 0.44229 0
    outer loop
      vertex 43.3013 25 -35
      vertex 46.194 19.1342 35
      vertex 46.194 19.1342 -35
    endloop
  endfacet
  facet normal 0.831471 0.555568 0
    outer loop
      vertex 43.3013 25 35
      vertex 39.6677 30.4381 -35
      vertex 39.6677 30.4381 35
    endloop
  endfacet
  facet normal 0.831471 0.555568 0
    outer loop
      vertex 39.6677 30.4381 -35
      vertex 43.3013 25 35
      vertex 43.3013 25 -35
    endloop
  endfacet
  facet normal 0.75183 0.659357 0
    outer loop
      vertex 39.6677 30.4381 35
      vertex 35.3553 35.3553 -35
      vertex 35.3553 35.3553 35
    endloop
  endfacet
  facet normal 0.75183 0.659357 0
    outer loop
      vertex 35.3553 35.3553 -35
      vertex 39.6677 30.4381 35
      vertex 39.6677 30.4381 -35
    endloop
  endfacet
  facet normal 0.659357 0.75183 -0
    outer loop
      vertex 35.3553 35.3553 -35
      vertex 30.4381 39.6677 35
      vertex 35.3553 35.3553 35
    endloop
  endfacet
  facet normal 0.659357 0.75183 0
    outer loop
      vertex 30.4381 39.6677 35
      vertex 35.3553 35.3553 -35
      vertex 30.4381 39.6677 -35
    endloop
  endfacet
  facet normal 0.555568 0.831471 -0
    outer loop
      vertex 30.4381 39.6677 -35
      vertex 25 43.3013 35
      vertex 30.4381 39.6677 35
    endloop
  endfacet
  facet normal 0.555568 0.831471 0
    outer loop
      vertex 25 43.3013 35
      vertex 30.4381 39.6677 -35
      vertex 25 43.3013 -35
    endloop
  endfacet
  facet normal 0.44229 0.896872 -0
    outer loop
      vertex 25 43.3013 -35
      vertex 19.1342 46.194 35
      vertex 25 43.3013 35
    endloop
  endfacet
  facet normal 0.44229 0.896872 0
    outer loop
      vertex 19.1342 46.194 35
      vertex 25 43.3013 -35
      vertex 19.1342 46.194 -35
    endloop
  endfacet
  facet normal 0.321438 0.946931 -0
    outer loop
      vertex 19.1342 46.194 -35
      vertex 12.941 48.2963 35
      vertex 19.1342 46.194 35
    endloop
  endfacet
  facet normal 0.321438 0.946931 0
    outer loop
      vertex 12.941 48.2963 35
      vertex 19.1342 46.194 -35
      vertex 12.941 48.2963 -35
    endloop
  endfacet
  facet normal 0.195081 0.980787 -0
    outer loop
      vertex 12.941 48.2963 -35
      vertex 6.52631 49.5722 35
      vertex 12.941 48.2963 35
    endloop
  endfacet
  facet normal 0.195081 0.980787 0
    outer loop
      vertex 6.52631 49.5722 35
      vertex 12.941 48.2963 -35
      vertex 6.52631 49.5722 -35
    endloop
  endfacet
  facet normal 0.0654097 0.997858 -0
    outer loop
      vertex 6.52631 49.5722 -35
      vertex 0 50 35
      vertex 6.52631 49.5722 35
    endloop
  endfacet
  facet normal 0.0654097 0.997858 0
    outer loop
      vertex 0 50 35
      vertex 6.52631 49.5722 -35
      vertex 0 50 -35
    endloop
  endfacet
  facet normal -0.0654097 0.997858 0
    outer loop
      vertex 0 50 -35
      vertex -6.52631 49.5722 35
      vertex 0 50 35
    endloop
  endfacet
  facet normal -0.0654097 0.997858 0
    outer loop
      vertex -6.52631 49.5722 35
      vertex 0 50 -35
      vertex -6.52631 49.5722 -35
    endloop
  endfacet
  facet normal -0.195081 0.980787 0
    outer loop
      vertex -6.52631 49.5722 -35
      vertex -12.941 48.2963 35
      vertex -6.52631 49.5722 35
    endloop
  endfacet
  facet normal -0.195081 0.980787 0
    outer loop
      vertex -12.941 48.2963 35
      vertex -6.52631 49.5722 -35
      vertex -12.941 48.2963 -35
    endloop
  endfacet
  facet normal -0.321438 0.946931 0
    outer loop
      vertex -12.941 48.2963 -35
      vertex -19.1342 46.194 35
      vertex -12.941 48.2963 35
    endloop
  endfacet
  facet normal -0.321438 0.946931 0
    outer loop
      vertex -19.1342 46.194 35
      vertex -12.941 48.2963 -35
      vertex -19.1342 46.194 -35
    endloop
  endfacet
  facet normal -0.44229 0.896872 0
    outer loop
      vertex -19.1342 46.194 -35
      vertex -25 43.3013 35
      vertex -19.1342 46.194 35
    endloop
  endfacet
  facet normal -0.44229 0.896872 0
    outer loop
      vertex -25 43.3013 35
      vertex -19.1342 46.194 -35
      vertex -25 43.3013 -35
    endloop
  endfacet
  facet normal -0.555568 0.831471 0
    outer loop
      vertex -25 43.3013 -35
      vertex -30.4381 39.6677 35
      vertex -25 43.3013 35
    endloop
  endfacet
  facet normal -0.555568 0.831471 0
    outer loop
      vertex -30.4381 39.6677 35
      vertex -25 43.3013 -35
      vertex -30.4381 39.6677 -35
    endloop
  endfacet
  facet normal -0.659357 0.75183 0
    outer loop
      vertex -30.4381 39.6677 -35
      vertex -35.3553 35.3553 35
      vertex -30.4381 39.6677 35
    endloop
  endfacet
  facet normal -0.659357 0.75183 0
    outer loop
      vertex -35.3553 35.3553 35
      vertex -30.4381 39.6677 -35
      vertex -35.3553 35.3553 -35
    endloop
  endfacet
  facet normal -0.75183 0.659357 0
    outer loop
      vertex -39.6677 30.4381 -35
      vertex -35.3553 35.3553 35
      vertex -35.3553 35.3553 -35
    endloop
  endfacet
  facet normal -0.75183 0.659357 0
    outer loop
      vertex -35.3553 35.3553 35
      vertex -39.6677 30.4381 -35
      vertex -39.6677 30.4381 35
    endloop
  endfacet
  facet normal -0.831471 0.555568 0
    outer loop
      vertex -43.3013 25 -35
      vertex -39.6677 30.4381 35
      vertex -39.6677 30.4381 -35
    endloop
  endfacet
  facet normal -0.831471 0.555568 0
    outer loop
      vertex -39.6677 30.4381 35
      vertex -43.3013 25 -35
      vertex -43.3013 25 35
    endloop
  endfacet
  facet normal -0.896872 0.44229 0
    outer loop
      vertex -46.194 19.1342 -35
      vertex -43.3013 25 35
      vertex -43.3013 25 -35
    endloop
  endfacet
  facet normal -0.896872 0.44229 0
    outer loop
      vertex -43.3013 25 35
      vertex -46.194 19.1342 -35
      vertex -46.194 19.1342 35
    endloop
  endfacet
  facet normal -0.946931 0.321438 0
    outer loop
      vertex -48.2963 12.941 -35
      vertex -46.194 19.1342 35
      vertex -46.194 19.1342 -35
    endloop
  endfacet
  facet normal -0.946931 0.321438 0
    outer loop
      vertex -46.194 19.1342 35
      vertex -48.2963 12.941 -35
      vertex -48.2963 12.941 35
    endloop
  endfacet
  facet normal -0.980787 0.195081 0
    outer loop
      vertex -49.5722 6.52631 -35
      vertex -48.2963 12.941 35
      vertex -48.2963 12.941 -35
    endloop
  endfacet
  facet normal -0.980787 0.195081 0
    outer loop
      vertex -48.2963 12.941 35
      vertex -49.5722 6.52631 -35
      vertex -49.5722 6.52631 35
    endloop
  endfacet
  facet normal -0.997858 0.0654097 0
    outer loop
      vertex -50 -0 -35
      vertex -49.5722 6.52631 35
      vertex -49.5722 6.52631 -35
    endloop
  endfacet
  facet normal -0.997858 0.0654097 0
    outer loop
      vertex -49.5722 6.52631 35
      vertex -50 -0 -35
      vertex -50 -0 35
    endloop
  endfacet
  facet normal -0.997858 -0.0654097 0
    outer loop
      vertex -49.5722 -6.52631 -35
      vertex -50 -0 35
      vertex -50 -0 -35
    endloop
  endfacet
  facet normal -0.997858 -0.0654097 0
    outer loop
      vertex -50 -0 35
      vertex -49.5722 -6.52631 -35
      vertex -49.5722 -6.52631 35
    endloop
  endfacet
  facet normal -0.980787 -0.195081 0
    outer loop
      vertex -48.2963 -12.941 -35
      vertex -49.5722 -6.52631 35
      vertex -49.5722 -6.52631 -35
    endloop
  endfacet
  facet normal -0.980787 -0.195081 0
    outer loop
      vertex -49.5722 -6.52631 35
      vertex -48.2963 -12.941 -35
      vertex -48.2963 -12.941 35
    endloop
  endfacet
  facet normal -0.946931 -0.321438 0
    outer loop
      vertex -46.194 -19.1342 -35
      vertex -48.2963 -12.941 35
      vertex -48.2963 -12.941 -35
    endloop
  endfacet
  facet normal -0.946931 -0.321438 0
    outer loop
      vertex -48.2963 -12.941 35
      vertex -46.194 -19.1342 -35
      vertex -46.194 -19.1342 35
    endloop
  endfacet
  facet normal -0.896872 -0.44229 0
    outer loop
      vertex -43.3013 -25 -35
      vertex -46.194 -19.1342 35
      vertex -46.194 -19.1342 -35
    endloop
  endfacet
  facet normal -0.896872 -0.44229 0
    outer loop
      vertex -46.194 -19.1342 35
      vertex -43.3013 -25 -35
      vertex -43.3013 -25 35
    endloop
  endfacet
  facet normal -0.831471 -0.555568 0
    outer loop
      vertex -39.6677 -30.4381 -35
      vertex -43.3013 -25 35
      vertex -43.3013 -25 -35
    endloop
  endfacet
  facet normal -0.831471 -0.555568 0
    outer loop
      vertex -43.3013 -25 35
      vertex -39.6677 -30.4381 -35
      vertex -39.6677 -30.4381 35
    endloop
  endfacet
  facet normal -0.75183 -0.659357 0
    outer loop
      vertex -35.3553 -35.3553 -35
      vertex -39.6677 -30.4381 35
      vertex -39.6677 -30.4381 -35
    endloop
  endfacet
  facet normal -0.75183 -0.659357 0
    outer loop
      vertex -39.6677 -30.4381 35
      vertex -35.3553 -35.3553 -35
      vertex -35.3553 -35.3553 35
    endloop
  endfacet
  facet normal -0.659357 -0.75183 0
    outer loop
      vertex -35.3553 -35.3553 -35
      vertex -30.4381 -39.6677 35
      vertex -35.3553 -35.3553 35
    endloop
  endfacet
  facet normal -0.659357 -0.75183 -0
    outer loop
      vertex -30.4381 -39.6677 35
      vertex -35.3553 -35.3553 -35
      vertex -30.4381 -39.6677 -35
    endloop
  endfacet
  facet normal -0.555568 -0.831471 0
    outer loop
      vertex -30.4381 -39.6677 -35
      vertex -25 -43.3013 35
      vertex -30.4381 -39.6677 35
    endloop
  endfacet
  facet normal -0.555568 -0.831471 -0
    outer loop
      vertex -25 -43.3013 35
      vertex -30.4381 -39.6677 -35
      vertex -25 -43.3013 -35
    endloop
  endfacet
  facet normal -0.44229 -0.896872 0
    outer loop
      vertex -25 -43.3013 -35
      vertex -19.1342 -46.194 35
      vertex -25 -43.3013 35
    endloop
  endfacet
  facet normal -0.44229 -0.896872 -0
    outer loop
      vertex -19.1342 -46.194 35
      vertex -25 -43.3013 -35
      vertex -19.1342 -46.194 -35
    endloop
  endfacet
  facet normal -0.321438 -0.946931 0
    outer loop
      vertex -19.1342 -46.194 -35
      vertex -12.941 -48.2963 35
      vertex -19.1342 -46.194 35
    endloop
  endfacet
  facet normal -0.321438 -0.946931 -0
    outer loop
      vertex -12.941 -48.2963 35
      vertex -19.1342 -46.194 -35
      vertex -12.941 -48.2963 -35
    endloop
  endfacet
  facet normal -0.195081 -0.980787 0
    outer loop
      vertex -12.941 -48.2963 -35
      vertex -6.52631 -49.5722 35
      vertex -12.941 -48.2963 35
    endloop
  endfacet
  facet normal -0.195081 -0.980787 -0
    outer loop
      vertex -6.52631 -49.5722 35
      vertex -12.941 -48.2963 -35
      vertex -6.52631 -49.5722 -35
    endloop
  endfacet
  facet normal -0.0654097 -0.997858 0
    outer loop
      vertex -6.52631 -49.5722 -35
      vertex -0 -50 35
      vertex -6.52631 -49.5722 35
    endloop
  endfacet
  facet normal -0.0654097 -0.997858 -0
    outer loop
      vertex -0 -50 35
      vertex -6.52631 -49.5722 -35
      vertex -0 -50 -35
    endloop
  endfacet
  facet normal 0.0654097 -0.997858 0
    outer loop
      vertex -0 -50 -35
      vertex 6.52631 -49.5722 35
      vertex -0 -50 35
    endloop
  endfacet
  facet normal 0.0654097 -0.997858 0
    outer loop
      vertex 6.52631 -49.5722 35
      vertex -0 -50 -35
      vertex 6.52631 -49.5722 -35
    endloop
  endfacet
  facet normal 0.195081 -0.980787 0
    outer loop
      vertex 6.52631 -49.5722 -35
      vertex 12.941 -48.2963 35
      vertex 6.52631 -49.5722 35
    endloop
  endfacet
  facet normal 0.195081 -0.980787 0
    outer loop
      vertex 12.941 -48.2963 35
      vertex 6.52631 -49.5722 -35
      vertex 12.941 -48.2963 -35
    endloop
  endfacet
  facet normal 0.321438 -0.946931 0
    outer loop
      vertex 12.941 -48.2963 -35
      vertex 19.1342 -46.194 35
      vertex 12.941 -48.2963 35
    endloop
  endfacet
  facet normal 0.321438 -0.946931 0
    outer loop
      vertex 19.1342 -46.194 35
      vertex 12.941 -48.2963 -35
      vertex 19.1342 -46.194 -35
    endloop
  endfacet
  facet normal 0.44229 -0.896872 0
    outer loop
      vertex 19.1342 -46.194 -35
      vertex 25 -43.3013 35
      vertex 19.1342 -46.194 35
    endloop
  endfacet
  facet normal 0.44229 -0.896872 0
    outer loop
      vertex 25 -43.3013 35
      vertex 19.1342 -46.194 -35
      vertex 25 -43.3013 -35
    endloop
  endfacet
  facet normal 0.555568 -0.831471 0
    outer loop
      vertex 25 -43.3013 -35
      vertex 30.4381 -39.6677 35
      vertex 25 -43.3013 35
    endloop
  endfacet
  facet normal 0.555568 -0.831471 0
    outer loop
      vertex 30.4381 -39.6677 35
      vertex 25 -43.3013 -35
      vertex 30.4381 -39.6677 -35
    endloop
  endfacet
  facet normal 0.659357 -0.75183 0
    outer loop
      vertex 30.4381 -39.6677 -35
      vertex 35.3553 -35.3553 35
      vertex 30.4381 -39.6677 35
    endloop
  endfacet
  facet normal 0.659357 -0.75183 0
    outer loop
      vertex 35.3553 -35.3553 35
      vertex 30.4381 -39.6677 -35
      vertex 35.3553 -35.3553 -35
    endloop
  endfacet
  facet normal 0.75183 -0.659357 0
    outer loop
      vertex 35.3553 -35.3553 35
      vertex 39.6677 -30.4381 -35
      vertex 39.6677 -30.4381 35
    endloop
  endfacet
  facet normal 0.75183 -0.659357 0
    outer loop
      vertex 39.6677 -30.4381 -35
      vertex 35.3553 -35.3553 35
      vertex 35.3553 -35.3553 -35
    endloop
  endfacet
  facet normal 0.831471 -0.555568 0
    outer loop
      vertex 39.6677 -30.4381 35
      vertex 43.3013 -25 -35
      vertex 43.3013 -25 35
    endloop
  endfacet
  facet normal 0.831471 -0.555568 0
    outer loop
      vertex 43.3013 -25 -35
      vertex 39.6677 -30.4381 35
      vertex 39.6677 -30.4381 -35
    endloop
  endfacet
  facet normal 0.896872 -0.44229 0
    outer loop
      vertex 43.3013 -25 35
      vertex 46.194 -19.1342 -35
      vertex 46.194 -19.1342 35
    endloop
  endfacet
  facet normal 0.896872 -0.44229 0
    outer loop
      vertex 46.194 -19.1342 -35
      vertex 43.3013 -25 35
      vertex 43.3013 -25 -35
    endloop
  endfacet
  facet normal 0.946931 -0.321438 0
    outer loop
      vertex 46.194 -19.1342 35
      vertex 48.2963 -12.941 -35
      vertex 48.2963 -12.941 35
    endloop
  endfacet
  facet normal 0.946931 -0.321438 0
    outer loop
      vertex 48.2963 -12.941 -35
      vertex 46.194 -19.1342 35
      vertex 46.194 -19.1342 -35
    endloop
  endfacet
  facet normal 0.980787 -0.195081 0
    outer loop
      vertex 48.2963 -12.941 35
      vertex 49.5722 -6.52631 -35
      vertex 49.5722 -6.52631 35
    endloop
  endfacet
  facet normal 0.980787 -0.195081 0
    outer loop
      vertex 49.5722 -6.52631 -35
      vertex 48.2963 -12.941 35
      vertex 48.2963 -12.941 -35
    endloop
  endfacet
  facet normal 0.997858 -0.0654097 0
    outer loop
      vertex 49.5722 -6.52631 35
      vertex 50 0 -35
      vertex 50 0 35
    endloop
  endfacet
  facet normal 0.997858 -0.0654097 0
    outer loop
      vertex 50 0 -35
      vertex 49.5722 -6.52631 35
      vertex 49.5722 -6.52631 -35
    endloop
  endfacet
  facet normal 0 0 -1
    outer loop
      vertex 49.5722 -6.52631 -35
      vertex 49.5722 6.52631 -35
      vertex 50 0 -35
    endloop
  endfacet
  facet normal 0 0 -1
    outer loop
      vertex 48.2963 -12.941 -35
      vertex 49.5722 6.52631 -35
      vertex 49.5722 -6.52631 -35
    endloop
  endfacet
  facet normal 0 0 -1
    outer loop
      vertex 48.2963 -12.941 -35
      vertex 48.2963 12.941 -35
      vertex 49.5722 6.52631 -35
    endloop
  endfacet
  facet normal 0 0 -1
    outer loop
      vertex 46.194 -19.1342 -35
      vertex 48.2963 12.941 -35
      vertex 48.2963 -12.941 -35
    endloop
  endfacet
  facet normal 0 0 -1
    outer loop
      vertex 46.194 -19.1342 -35
      vertex 46.194 19.1342 -35
      vertex 48.2963 12.941 -35
    endloop
  endfacet
  facet normal 0 0 -1
    outer loop
      vertex 43.3013 -25 -35
      vertex 46.194 19.1342 -35
      vertex 46.194 -19.1342 -35
    endloop
  endfacet
  facet normal 0 0 -1
    outer loop
      vertex 43.3013 -25 -35
      vertex 43.3013 25 -35
      vertex 46.194 19.1342 -35
    endloop
  endfacet
  facet normal 0 0 -1
    outer loop
      vertex 39.6677 -30.4381 -35
      vertex 43.3013 25 -35
      vertex 43.3013 -25 -35
    endloop
  endfacet
  facet normal 0 0 -1
    outer loop
      vertex 39.6677 -30.4381 -35
      vertex 39.6677 30.4381 -35
      vertex 43.3013 25 -35
    endloop
  endfacet
  facet normal 0 0 -1
    outer loop
      vertex 35.3553 -35.3553 -35
      vertex 39.6677 30.4381 -35
      vertex 39.6677 -30.4381 -35
    endloop
  endfacet
  facet normal 0 0 -1
    outer loop
      vertex 35.3553 -35.3553 -35
      vertex 35.3553 35.3553 -35
      vertex 39.6677 30.4381 -35
    endloop
  endfacet
  facet normal 0 0 -1
    outer loop
      vertex 30.4381 -39.6677 -35
      vertex 35.3553 35.3553 -35
      vertex 35.3553 -35.3553 -35
    endloop
  endfacet
  facet normal 0 0 -1
    outer loop
      vertex 30.4381 -39.6677 -35
      vertex 30.4381 39.6677 -35
      vertex 35.3553 35.3553 -35
    endloop
  endfacet
  facet normal 0 0 -1
    outer loop
      vertex 25 -43.3013 -35
      vertex 30.4381 39.6677 -35
      vertex 30.4381 -39.6677 -35
    endloop
  endfacet
  facet normal 0 0 -1
    outer loop
      vertex 25 -43.3013 -35
      vertex 25 43.3013 -35
      vertex 30.4381 39.6677 -35
    endloop
  endfacet
  facet normal 0 0 -1
    outer loop
      vertex 19.1342 -46.194 -35
      vertex 25 43.3013 -35
      vertex 25 -43.3013 -35
    endloop
  endfacet
  facet normal 0 0 -1
    outer loop
      vertex 19.1342 -46.194 -35
      vertex 19.1342 46.194 -35
      vertex 25 43.3013 -35
    endloop
  endfacet
  facet normal 0 0 -1
    outer loop
      vertex 12.941 -48.2963 -35
      vertex 19.1342 46.194 -35
      vertex 19.1342 -46.194 -35
    endloop
  endfacet
  facet normal 0 0 -1
    outer loop
      vertex 12.941 -48.2963 -35
      vertex 12.941 48.2963 -35
      vertex 19.1342 46.194 -35
    endloop
  endfacet
  facet normal 0 0 -1
    outer loop
      vertex 6.52631 -49.5722 -35
      vertex 12.941 48.2963 -35
      vertex 12.941 -48.2963 -35
    endloop
  endfacet
  facet normal 0 0 -1
    outer loop
      vertex 6.52631 -49.5722 -35
      vertex 6.52631 49.5722 -35
      vertex 12.941 48.2963 -35
    endloop
  endfacet
  facet normal 0 0 -1
    outer loop
      vertex -0 -50 -35
      vertex 6.52631 49.5722 -35
      vertex 6.52631 -49.5722 -35
    endloop
  endfacet
  facet normal 0 0 -1
    outer loop
      vertex -0 -50 -35
      vertex 0 50 -35
      vertex 6.52631 49.5722 -35
    endloop
  endfacet
  facet normal 0 0 -1
    outer loop
      vertex -6.52631 -49.5722 -35
      vertex 0 50 -35
      vertex -0 -50 -35
    endloop
  endfacet
  facet normal 0 0 -1
    outer loop
      vertex -6.52631 -49.5722 -35
      vertex -6.52631 49.5722 -35
      vertex 0 50 -35
    endloop
  endfacet
  facet normal 0 0 -1
    outer loop
      vertex -12.941 -48.2963 -35
      vertex -6.52631 49.5722 -35
      vertex -6.52631 -49.5722 -35
    endloop
  endfacet
  facet normal 0 0 -1
    outer loop
      vertex -12.941 -48.2963 -35
      vertex -12.941 48.2963 -35
      vertex -6.52631 49.5722 -35
    endloop
  endfacet
  facet normal 0 0 -1
    outer loop
      vertex -19.1342 -46.194 -35
      vertex -12.941 48.2963 -35
      vertex -12.941 -48.2963 -35
    endloop
  endfacet
  facet normal 0 0 -1
    outer loop
      vertex -19.1342 -46.194 -35
      vertex -19.1342 46.194 -35
      vertex -12.941 48.2963 -35
    endloop
  endfacet
  facet normal 0 0 -1
    outer loop
      vertex -25 -43.3013 -35
      vertex -19.1342 46.194 -35
      vertex -19.1342 -46.194 -35
    endloop
  endfacet
  facet normal 0 0 -1
    outer loop
      vertex -25 -43.3013 -35
      vertex -25 43.3013 -35
      vertex -19.1342 46.194 -35
    endloop
  endfacet
  facet normal 0 0 -1
    outer loop
      vertex -30.4381 -39.6677 -35
      vertex -25 43.3013 -35
      vertex -25 -43.3013 -35
    endloop
  endfacet
  facet normal 0 0 -1
    outer loop
      vertex -30.4381 -39.6677 -35
      vertex -30.4381 39.6677 -35
      vertex -25 43.3013 -35
    endloop
  endfacet
  facet normal 0 0 -1
    outer loop
      vertex -35.3553 -35.3553 -35
      vertex -30.4381 39.6677 -35
      vertex -30.4381 -39.6677 -35
    endloop
  endfacet
  facet normal 0 0 -1
    outer loop
      vertex -35.3553 -35.3553 -35
      vertex -35.3553 35.3553 -35
      vertex -30.4381 39.6677 -35
    endloop
  endfacet
  facet normal 0 0 -1
    outer loop
      vertex -39.6677 -30.4381 -35
      vertex -35.3553 35.3553 -35
      vertex -35.3553 -35.3553 -35
    endloop
  endfacet
  facet normal 0 0 -1
    outer loop
      vertex -39.6677 -30.4381 -35
      vertex -39.6677 30.4381 -35
      vertex -35.3553 35.3553 -35
    endloop
  endfacet
  facet normal 0 0 -1
    outer loop
      vertex -43.3013 -25 -35
      vertex -39.6677 30.4381 -35
      vertex -39.6677 -30.4381 -35
    endloop
  endfacet
  facet normal 0 0 -1
    outer loop
      vertex -43.3013 -25 -35
      vertex -43.3013 25 -35
      vertex -39.6677 30.4381 -35
    endloop
  endfacet
  facet normal 0 0 -1
    outer loop
      vertex -46.194 -19.1342 -35
      vertex -43.3013 25 -35
      vertex -43.3013 -25 -35
    endloop
  endfacet
  facet normal 0 0 -1
    outer loop
      vertex -46.194 -19.1342 -35
      vertex -46.194 19.1342 -35
      vertex -43.3013 25 -35
    endloop
  endfacet
  facet normal 0 0 -1
    outer loop
      vertex -48.2963 -12.941 -35
      vertex -46.194 19.1342 -35
      vertex -46.194 -19.1342 -35
    endloop
  endfacet
  facet normal 0 0 -1
    outer loop
      vertex -48.2963 -12.941 -35
      vertex -48.2963 12.941 -35
      vertex -46.194 19.1342 -35
    endloop
  endfacet
  facet normal 0 0 -1
    outer loop
      vertex -49.5722 -6.52631 -35
      vertex -48.2963 12.941 -35
      vertex -48.2963 -12.941 -35
    endloop
  endfacet
  facet normal 0 0 -1
    outer loop
      vertex -49.5722 -6.52631 -35
      vertex -49.5722 6.52631 -35
      vertex -48.2963 12.941 -35
    endloop
  endfacet
  facet normal 0 -0 -1
    outer loop
      vertex -49.5722 6.52631 -35
      vertex -49.5722 -6.52631 -35
      vertex -50 -0 -35
    endloop
  endfacet
  facet normal 0 0 1
    outer loop
      vertex 49.5722 6.52631 35
      vertex 49.5722 -6.52631 35
      vertex 50 0 35
    endloop
  endfacet
  facet normal 0 0 1
    outer loop
      vertex 48.2963 12.941 35
      vertex 49.5722 -6.52631 35
      vertex 49.5722 6.52631 35
    endloop
  endfacet
  facet normal 0 0 1
    outer loop
      vertex 48.2963 12.941 35
      vertex 48.2963 -12.941 35
      vertex 49.5722 -6.52631 35
    endloop
  endfacet
  facet normal 0 0 1
    outer loop
      vertex 46.194 19.1342 35
      vertex 48.2963 -12.941 35
      vertex 48.2963 12.941 35
    endloop
  endfacet
  facet normal 0 0 1
    outer loop
      vertex 46.194 19.1342 35
      vertex 46.194 -19.1342 35
      vertex 48.2963 -12.941 35
    endloop
  endfacet
  facet normal 0 0 1
    outer loop
      vertex 43.3013 25 35
      vertex 46.194 -19.1342 35
      vertex 46.194 19.1342 35
    endloop
  endfacet
  facet normal 0 0 1
    outer loop
      vertex 43.3013 25 35
      vertex 43.3013 -25 35
      vertex 46.194 -19.1342 35
    endloop
  endfacet
  facet normal 0 0 1
    outer loop
      vertex 39.6677 30.4381 35
      vertex 43.3013 -25 35
      vertex 43.3013 25 35
    endloop
  endfacet
  facet normal 0 0 1
    outer loop
      vertex 39.6677 30.4381 35
      vertex 39.6677 -30.4381 35
      vertex 43.3013 -25 35
    endloop
  endfacet
  facet normal 0 0 1
    outer loop
      vertex 35.3553 35.3553 35
      vertex 39.6677 -30.4381 35
      vertex 39.6677 30.4381 35
    endloop
  endfacet
  facet normal 0 0 1
    outer loop
      vertex 35.3553 35.3553 35
      vertex 35.3553 -35.3553 35
      vertex 39.6677 -30.4381 35
    endloop
  endfacet
  facet normal 0 0 1
    outer loop
      vertex 30.4381 39.6677 35
      vertex 35.3553 -35.3553 35
      vertex 35.3553 35.3553 35
    endloop
  endfacet
  facet normal 0 0 1
    outer loop
      vertex 30.4381 39.6677 35
      vertex 30.4381 -39.6677 35
      vertex 35.3553 -35.3553 35
    endloop
  endfacet
  facet normal 0 0 1
    outer loop
      vertex 25 43.3013 35
      vertex 30.4381 -39.6677 35
      vertex 30.4381 39.6677 35
    endloop
  endfacet
  facet normal 0 0 1
    outer loop
      vertex 25 43.3013 35
      vertex 25 -43.3013 35
      vertex 30.4381 -39.6677 35
    endloop
  endfacet
  facet normal 0 0 1
    outer loop
      vertex 19.1342 46.194 35
      vertex 25 -43.3013 35
      vertex 25 43.3013 35
    endloop
  endfacet
  facet normal 0 0 1
    outer loop
      vertex 19.1342 46.194 35
      vertex 19.1342 -46.194 35
      vertex 25 -43.3013 35
    endloop
  endfacet
  facet normal 0 0 1
    outer loop
      vertex 12.941 48.2963 35
      vertex 19.1342 -46.194 35
      vertex 19.1342 46.194 35
    endloop
  endfacet
  facet normal 0 0 1
    outer loop
      vertex 12.941 48.2963 35
      vertex 12.941 -48.2963 35
      vertex 19.1342 -46.194 35
    endloop
  endfacet
  facet normal 0 0 1
    outer loop
      vertex 6.52631 49.5722 35
      vertex 12.941 -48.2963 35
      vertex 12.941 48.2963 35
    endloop
  endfacet
  facet normal 0 0 1
    outer loop
      vertex 6.52631 49.5722 35
      vertex 6.52631 -49.5722 35
      vertex 12.941 -48.2963 35
    endloop
  endfacet
  facet normal 0 0 1
    outer loop
      vertex 0 50 35
      vertex 6.52631 -49.5722 35
      vertex 6.52631 49.5722 35
    endloop
  endfacet
  facet normal 0 0 1
    outer loop
      vertex 0 50 35
      vertex -0 -50 35
      vertex 6.52631 -49.5722 35
    endloop
  endfacet
  facet normal -0 0 1
    outer loop
      vertex -6.52631 49.5722 35
      vertex -0 -50 35
      vertex 0 50 35
    endloop
  endfacet
  facet normal 0 0 1
    outer loop
      vertex -6.52631 49.5722 35
      vertex -6.52631 -49.5722 35
      vertex -0 -50 35
    endloop
  endfacet
  facet normal -0 0 1
    outer loop
      vertex -12.941 48.2963 35
      vertex -6.52631 -49.5722 35
      vertex -6.52631 49.5722 35
    endloop
  endfacet
  facet normal 0 0 1
    outer loop
      vertex -12.941 48.2963 35
      vertex -12.941 -48.2963 35
      vertex -6.52631 -49.5722 35
    endloop
  endfacet
  facet normal -0 0 1
    outer loop
      vertex -19.1342 46.194 35
      vertex -12.941 -48.2963 35
      vertex -12.941 48.2963 35
    endloop
  endfacet
  facet normal 0 0 1
    outer loop
      vertex -19.1342 46.194 35
      vertex -19.1342 -46.194 35
      vertex -12.941 -48.2963 35
    endloop
  endfacet
  facet normal -0 0 1
    outer loop
      vertex -25 43.3013 35
      vertex -19.1342 -46.194 35
      vertex -19.1342 46.194 35
    endloop
  endfacet
  facet normal 0 0 1
    outer loop
      vertex -25 43.3013 35
      vertex -25 -43.3013 35
      vertex -19.1342 -46.194 35
    endloop
  endfacet
  facet normal -0 0 1
    outer loop
      vertex -30.4381 39.6677 35
      vertex -25 -43.3013 35
      vertex -25 43.3013 35
    endloop
  endfacet
  facet normal 0 0 1
    outer loop
      vertex -30.4381 39.6677 35
      vertex -30.4381 -39.6677 35
      vertex -25 -43.3013 35
    endloop
  endfacet
  facet normal -0 0 1
    outer loop
      vertex -35.3553 35.3553 35
      vertex -30.4381 -39.6677 35
      vertex -30.4381 39.6677 35
    endloop
  endfacet
  facet normal 0 0 1
    outer loop
      vertex -35.3553 35.3553 35
      vertex -35.3553 -35.3553 35
      vertex -30.4381 -39.6677 35
    endloop
  endfacet
  facet normal -0 0 1
    outer loop
      vertex -39.6677 30.4381 35
      vertex -35.3553 -35.3553 35
      vertex -35.3553 35.3553 35
    endloop
  endfacet
  facet normal 0 0 1
    outer loop
      vertex -39.6677 30.4381 35
      vertex -39.6677 -30.4381 35
      vertex -35.3553 -35.3553 35
    endloop
  endfacet
  facet normal -0 0 1
    outer loop
      vertex -43.3013 25 35
      vertex -39.6677 -30.4381 35
      vertex -39.6677 30.4381 35
    endloop
  endfacet
  facet normal 0 0 1
    outer loop
      vertex -43.3013 25 35
      vertex -43.3013 -25 35
      vertex -39.6677 -30.4381 35
    endloop
  endfacet
  facet normal -0 0 1
    outer loop
      vertex -46.194 19.1342 35
      vertex -43.3013 -25 35
      vertex -43.3013 25 35
    endloop
  endfacet
  facet normal 0 0 1
    outer loop
      vertex -46.194 19.1342 35
      vertex -46.194 -19.1342 35
      vertex -43.3013 -25 35
    endloop
  endfacet
  facet normal -0 0 1
    outer loop
      vertex -48.2963 12.941 35
      vertex -46.194 -19.1342 35
      vertex -46.194 19.1342 35
    endloop
  endfacet
  facet normal 0 0 1
    outer loop
      vertex -48.2963 12.941 35
      vertex -48.2963 -12.941 35
      vertex -46.194 -19.1342 35
    endloop
  endfacet
  facet normal -0 0 1
    outer loop
      vertex -49.5722 6.52631 35
      vertex -48.2963 -12.941 35
      vertex -48.2963 12.941 35
    endloop
  endfacet
  facet normal 0 0 1
    outer loop
      vertex -49.5722 6.52631 35
      vertex -49.5722 -6.52631 35
      vertex -48.2963 -12.941 35
    endloop
  endfacet
  facet normal 0 -0 1
    outer loop
      vertex -49.5722 -6.52631 35
      vertex -49.5722 6.52631 35
      vertex -50 -0 35
    endloop
  endfacet
endsolid OpenSCAD_Model
