solid OpenSCAD_Model
  facet normal -0 0 1
    outer loop
      vertex -38.1 25.4 1.27
      vertex 38.1 -25.4 1.27
      vertex 38.1 25.4 1.27
    endloop
  endfacet
  facet normal 0 0 1
    outer loop
      vertex 38.1 -25.4 1.27
      vertex -38.1 25.4 1.27
      vertex -38.1 -25.4 1.27
    endloop
  endfacet
  facet normal 0 0 -1
    outer loop
      vertex -38.1 -25.4 -1.27
      vertex 38.1 25.4 -1.27
      vertex 38.1 -25.4 -1.27
    endloop
  endfacet
  facet normal -0 0 -1
    outer loop
      vertex 38.1 25.4 -1.27
      vertex -38.1 -25.4 -1.27
      vertex -38.1 25.4 -1.27
    endloop
  endfacet
  facet normal 0 -1 0
    outer loop
      vertex -38.1 -25.4 -1.27
      vertex 38.1 -25.4 1.27
      vertex -38.1 -25.4 1.27
    endloop
  endfacet
  facet normal 0 -1 -0
    outer loop
      vertex 38.1 -25.4 1.27
      vertex -38.1 -25.4 -1.27
      vertex 38.1 -25.4 -1.27
    endloop
  endfacet
  facet normal 1 -0 0
    outer loop
      vertex 38.1 -25.4 1.27
      vertex 38.1 25.4 -1.27
      vertex 38.1 25.4 1.27
    endloop
  endfacet
  facet normal 1 0 0
    outer loop
      vertex 38.1 25.4 -1.27
      vertex 38.1 -25.4 1.27
      vertex 38.1 -25.4 -1.27
    endloop
  endfacet
  facet normal 0 1 -0
    outer loop
      vertex 38.1 25.4 -1.27
      vertex -38.1 25.4 1.27
      vertex 38.1 25.4 1.27
    endloop
  endfacet
  facet normal 0 1 0
    outer loop
      vertex -38.1 25.4 1.27
      vertex 38.1 25.4 -1.27
      vertex -38.1 25.4 -1.27
    endloop
  endfacet
  facet normal -1 0 0
    outer loop
      vertex -38.1 -25.4 -1.27
      vertex -38.1 25.4 1.27
      vertex -38.1 25.4 -1.27
    endloop
  endfacet
  facet normal -1 -0 0
    outer loop
      vertex -38.1 25.4 1.27
      vertex -38.1 -25.4 -1.27
      vertex -38.1 -25.4 1.27
    endloop
  endfacet
endsolid OpenSCAD_Model
