solid OpenSCAD_Model
  facet normal 1 -0 0
    outer loop
      vertex 85 -75 1
      vertex 85 75 -1
      vertex 85 75 1
    endloop
  endfacet
  facet normal 1 0 0
    outer loop
      vertex 85 75 -1
      vertex 85 -75 1
      vertex 85 -75 -1
    endloop
  endfacet
  facet normal 0 0 1
    outer loop
      vertex 85 75 1
      vertex 73 0 1
      vertex 85 -75 1
    endloop
  endfacet
  facet normal 0 0 1
    outer loop
      vertex 85 75 1
      vertex 72.9743 0.391578 1
      vertex 73 0 1
    endloop
  endfacet
  facet normal 0 0 1
    outer loop
      vertex 85 75 1
      vertex 72.8978 0.776457 1
      vertex 72.9743 0.391578 1
    endloop
  endfacet
  facet normal 0 0 1
    outer loop
      vertex 85 75 1
      vertex 72.7716 1.14805 1
      vertex 72.8978 0.776457 1
    endloop
  endfacet
  facet normal 0 0 1
    outer loop
      vertex 85 75 1
      vertex 72.5981 1.5 1
      vertex 72.7716 1.14805 1
    endloop
  endfacet
  facet normal 0 0 1
    outer loop
      vertex 85 75 1
      vertex 72.3801 1.82628 1
      vertex 72.5981 1.5 1
    endloop
  endfacet
  facet normal 0 0 1
    outer loop
      vertex 85 75 1
      vertex 72.1213 2.12132 1
      vertex 72.3801 1.82628 1
    endloop
  endfacet
  facet normal 0 0 1
    outer loop
      vertex 85 75 1
      vertex 71.8263 2.38006 1
      vertex 72.1213 2.12132 1
    endloop
  endfacet
  facet normal 0 0 1
    outer loop
      vertex 85 75 1
      vertex 71.5 2.59808 1
      vertex 71.8263 2.38006 1
    endloop
  endfacet
  facet normal 0 0 1
    outer loop
      vertex 85 75 1
      vertex 71.148 2.77164 1
      vertex 71.5 2.59808 1
    endloop
  endfacet
  facet normal 0 0 1
    outer loop
      vertex 85 75 1
      vertex 70.7765 2.89778 1
      vertex 71.148 2.77164 1
    endloop
  endfacet
  facet normal 0 0 1
    outer loop
      vertex 85 75 1
      vertex 70.3916 2.97433 1
      vertex 70.7765 2.89778 1
    endloop
  endfacet
  facet normal 0 0 1
    outer loop
      vertex 85 75 1
      vertex 70 3 1
      vertex 70.3916 2.97433 1
    endloop
  endfacet
  facet normal 0 0 1
    outer loop
      vertex 85 75 1
      vertex 69.6084 2.97433 1
      vertex 70 3 1
    endloop
  endfacet
  facet normal 0 0 1
    outer loop
      vertex 85 75 1
      vertex 69.2235 2.89778 1
      vertex 69.6084 2.97433 1
    endloop
  endfacet
  facet normal 0 0 1
    outer loop
      vertex 85 75 1
      vertex 68.852 2.77164 1
      vertex 69.2235 2.89778 1
    endloop
  endfacet
  facet normal 0 0 1
    outer loop
      vertex 85 75 1
      vertex 68.5 2.59808 1
      vertex 68.852 2.77164 1
    endloop
  endfacet
  facet normal 0 0 1
    outer loop
      vertex 85 75 1
      vertex 68.1737 2.38006 1
      vertex 68.5 2.59808 1
    endloop
  endfacet
  facet normal 0 0 1
    outer loop
      vertex 85 75 1
      vertex 67.8787 2.12132 1
      vertex 68.1737 2.38006 1
    endloop
  endfacet
  facet normal 0 0 1
    outer loop
      vertex 85 75 1
      vertex 67.6199 1.82628 1
      vertex 67.8787 2.12132 1
    endloop
  endfacet
  facet normal 0 0 1
    outer loop
      vertex -67.6199 1.82628 1
      vertex 67.6199 1.82628 1
      vertex 85 75 1
    endloop
  endfacet
  facet normal 0 0 1
    outer loop
      vertex 67.6199 1.82628 1
      vertex -67.6199 1.82628 1
      vertex 67.4019 1.5 1
    endloop
  endfacet
  facet normal 0 -0 1
    outer loop
      vertex -67.4019 1.5 1
      vertex 67.4019 1.5 1
      vertex -67.6199 1.82628 1
    endloop
  endfacet
  facet normal 0 0 1
    outer loop
      vertex 67.0257 0.391578 1
      vertex -67 0 1
      vertex 67 0 1
    endloop
  endfacet
  facet normal 0 0 1
    outer loop
      vertex -67.0257 0.391578 1
      vertex 67.0257 0.391578 1
      vertex 67.1022 0.776457 1
    endloop
  endfacet
  facet normal 0 0 1
    outer loop
      vertex 67.4019 1.5 1
      vertex -67.4019 1.5 1
      vertex 67.2284 1.14805 1
    endloop
  endfacet
  facet normal 0 0 1
    outer loop
      vertex 67.0257 0.391578 1
      vertex -67.0257 0.391578 1
      vertex -67 0 1
    endloop
  endfacet
  facet normal 0 0 1
    outer loop
      vertex 67.1022 0.776457 1
      vertex -67.1022 0.776457 1
      vertex -67.0257 0.391578 1
    endloop
  endfacet
  facet normal 0 0 1
    outer loop
      vertex 67.1022 0.776457 1
      vertex -67.2284 1.14805 1
      vertex -67.1022 0.776457 1
    endloop
  endfacet
  facet normal 0 0 1
    outer loop
      vertex 67.2284 1.14805 1
      vertex -67.2284 1.14805 1
      vertex 67.1022 0.776457 1
    endloop
  endfacet
  facet normal 0 -0 1
    outer loop
      vertex -67.2284 1.14805 1
      vertex 67.2284 1.14805 1
      vertex -67.4019 1.5 1
    endloop
  endfacet
  facet normal -0 0 1
    outer loop
      vertex -85 75 1
      vertex -67.6199 1.82628 1
      vertex 85 75 1
    endloop
  endfacet
  facet normal 0 0 1
    outer loop
      vertex -67.6199 1.82628 1
      vertex -85 75 1
      vertex -67.8787 2.12132 1
    endloop
  endfacet
  facet normal 0 0 1
    outer loop
      vertex -67.8787 2.12132 1
      vertex -85 75 1
      vertex -68.1737 2.38006 1
    endloop
  endfacet
  facet normal 0 0 1
    outer loop
      vertex -68.1737 2.38006 1
      vertex -85 75 1
      vertex -68.5 2.59808 1
    endloop
  endfacet
  facet normal 0 0 1
    outer loop
      vertex -68.5 2.59808 1
      vertex -85 75 1
      vertex -68.852 2.77164 1
    endloop
  endfacet
  facet normal 0 0 1
    outer loop
      vertex -68.852 2.77164 1
      vertex -85 75 1
      vertex -69.2235 2.89778 1
    endloop
  endfacet
  facet normal 0 0 1
    outer loop
      vertex -69.2235 2.89778 1
      vertex -85 75 1
      vertex -69.6084 2.97433 1
    endloop
  endfacet
  facet normal 0 0 1
    outer loop
      vertex -69.6084 2.97433 1
      vertex -85 75 1
      vertex -70 3 1
    endloop
  endfacet
  facet normal 0 0 1
    outer loop
      vertex -70 3 1
      vertex -85 75 1
      vertex -70.3916 2.97433 1
    endloop
  endfacet
  facet normal 0 0 1
    outer loop
      vertex -70.3916 2.97433 1
      vertex -85 75 1
      vertex -70.7765 2.89778 1
    endloop
  endfacet
  facet normal 0 0 1
    outer loop
      vertex -72.9743 0.391578 1
      vertex -85 75 1
      vertex -73 0 1
    endloop
  endfacet
  facet normal 0 0 1
    outer loop
      vertex -72.8978 0.776457 1
      vertex -85 75 1
      vertex -72.9743 0.391578 1
    endloop
  endfacet
  facet normal 0 0 1
    outer loop
      vertex -72.7716 1.14805 1
      vertex -85 75 1
      vertex -72.8978 0.776457 1
    endloop
  endfacet
  facet normal 0 0 1
    outer loop
      vertex -72.5981 1.5 1
      vertex -85 75 1
      vertex -72.7716 1.14805 1
    endloop
  endfacet
  facet normal 0 0 1
    outer loop
      vertex -72.3801 1.82628 1
      vertex -85 75 1
      vertex -72.5981 1.5 1
    endloop
  endfacet
  facet normal 0 0 1
    outer loop
      vertex -72.1213 2.12132 1
      vertex -85 75 1
      vertex -72.3801 1.82628 1
    endloop
  endfacet
  facet normal 0 0 1
    outer loop
      vertex -71.8263 2.38006 1
      vertex -85 75 1
      vertex -72.1213 2.12132 1
    endloop
  endfacet
  facet normal 0 0 1
    outer loop
      vertex -71.5 2.59808 1
      vertex -85 75 1
      vertex -71.8263 2.38006 1
    endloop
  endfacet
  facet normal 0 0 1
    outer loop
      vertex -71.148 2.77164 1
      vertex -85 75 1
      vertex -71.5 2.59808 1
    endloop
  endfacet
  facet normal 0 0 1
    outer loop
      vertex -70.7765 2.89778 1
      vertex -85 75 1
      vertex -71.148 2.77164 1
    endloop
  endfacet
  facet normal -0 0 1
    outer loop
      vertex 72.9743 -0.391578 1
      vertex 85 -75 1
      vertex 73 0 1
    endloop
  endfacet
  facet normal -0 0 1
    outer loop
      vertex 72.8978 -0.776457 1
      vertex 85 -75 1
      vertex 72.9743 -0.391578 1
    endloop
  endfacet
  facet normal -0 0 1
    outer loop
      vertex 72.7716 -1.14805 1
      vertex 85 -75 1
      vertex 72.8978 -0.776457 1
    endloop
  endfacet
  facet normal -0 0 1
    outer loop
      vertex 72.5981 -1.5 1
      vertex 85 -75 1
      vertex 72.7716 -1.14805 1
    endloop
  endfacet
  facet normal -0 0 1
    outer loop
      vertex 72.3801 -1.82628 1
      vertex 85 -75 1
      vertex 72.5981 -1.5 1
    endloop
  endfacet
  facet normal -0 0 1
    outer loop
      vertex 72.1213 -2.12132 1
      vertex 85 -75 1
      vertex 72.3801 -1.82628 1
    endloop
  endfacet
  facet normal -0 0 1
    outer loop
      vertex 71.8263 -2.38006 1
      vertex 85 -75 1
      vertex 72.1213 -2.12132 1
    endloop
  endfacet
  facet normal -0 0 1
    outer loop
      vertex 71.5 -2.59808 1
      vertex 85 -75 1
      vertex 71.8263 -2.38006 1
    endloop
  endfacet
  facet normal -0 0 1
    outer loop
      vertex 71.148 -2.77164 1
      vertex 85 -75 1
      vertex 71.5 -2.59808 1
    endloop
  endfacet
  facet normal -0 0 1
    outer loop
      vertex 70.7765 -2.89778 1
      vertex 85 -75 1
      vertex 71.148 -2.77164 1
    endloop
  endfacet
  facet normal -0 0 1
    outer loop
      vertex 70.3916 -2.97433 1
      vertex 85 -75 1
      vertex 70.7765 -2.89778 1
    endloop
  endfacet
  facet normal -0 0 1
    outer loop
      vertex 70 -3 1
      vertex 85 -75 1
      vertex 70.3916 -2.97433 1
    endloop
  endfacet
  facet normal 0 0 1
    outer loop
      vertex 69.6084 -2.97433 1
      vertex 85 -75 1
      vertex 70 -3 1
    endloop
  endfacet
  facet normal 0 0 1
    outer loop
      vertex 69.2235 -2.89778 1
      vertex 85 -75 1
      vertex 69.6084 -2.97433 1
    endloop
  endfacet
  facet normal 0 0 1
    outer loop
      vertex 68.852 -2.77164 1
      vertex 85 -75 1
      vertex 69.2235 -2.89778 1
    endloop
  endfacet
  facet normal 0 0 1
    outer loop
      vertex 68.5 -2.59808 1
      vertex 85 -75 1
      vertex 68.852 -2.77164 1
    endloop
  endfacet
  facet normal 0 0 1
    outer loop
      vertex 68.1737 -2.38006 1
      vertex 85 -75 1
      vertex 68.5 -2.59808 1
    endloop
  endfacet
  facet normal 0 0 1
    outer loop
      vertex 67.8787 -2.12132 1
      vertex 85 -75 1
      vertex 68.1737 -2.38006 1
    endloop
  endfacet
  facet normal 0 0 1
    outer loop
      vertex 67.6199 -1.82628 1
      vertex 85 -75 1
      vertex 67.8787 -2.12132 1
    endloop
  endfacet
  facet normal 0 0 1
    outer loop
      vertex -67.6199 -1.82628 1
      vertex 67.6199 -1.82628 1
      vertex 67.4019 -1.5 1
    endloop
  endfacet
  facet normal 0 0 1
    outer loop
      vertex -67.4019 -1.5 1
      vertex 67.4019 -1.5 1
      vertex 67.2284 -1.14805 1
    endloop
  endfacet
  facet normal 0 0 1
    outer loop
      vertex -67.2284 -1.14805 1
      vertex 67.2284 -1.14805 1
      vertex 67.1022 -0.776457 1
    endloop
  endfacet
  facet normal -0 0 1
    outer loop
      vertex -67 0 1
      vertex 67.0257 -0.391578 1
      vertex 67 0 1
    endloop
  endfacet
  facet normal 0 0 1
    outer loop
      vertex -67.0257 -0.391578 1
      vertex 67.0257 -0.391578 1
      vertex -67 0 1
    endloop
  endfacet
  facet normal 0 0 1
    outer loop
      vertex 67.0257 -0.391578 1
      vertex -67.0257 -0.391578 1
      vertex 67.1022 -0.776457 1
    endloop
  endfacet
  facet normal 0 0 1
    outer loop
      vertex -67.1022 -0.776457 1
      vertex 67.1022 -0.776457 1
      vertex -67.0257 -0.391578 1
    endloop
  endfacet
  facet normal 0 0 1
    outer loop
      vertex -67.2284 -1.14805 1
      vertex 67.1022 -0.776457 1
      vertex -67.1022 -0.776457 1
    endloop
  endfacet
  facet normal 0 0 1
    outer loop
      vertex 67.2284 -1.14805 1
      vertex -67.2284 -1.14805 1
      vertex -67.4019 -1.5 1
    endloop
  endfacet
  facet normal 0 0 1
    outer loop
      vertex 67.4019 -1.5 1
      vertex -67.4019 -1.5 1
      vertex -67.6199 -1.82628 1
    endloop
  endfacet
  facet normal 0 0 1
    outer loop
      vertex 67.6199 -1.82628 1
      vertex -67.6199 -1.82628 1
      vertex 85 -75 1
    endloop
  endfacet
  facet normal 0 0 1
    outer loop
      vertex -85 -75 1
      vertex -67.6199 -1.82628 1
      vertex -67.8787 -2.12132 1
    endloop
  endfacet
  facet normal 0 0 1
    outer loop
      vertex -85 -75 1
      vertex -67.8787 -2.12132 1
      vertex -68.1737 -2.38006 1
    endloop
  endfacet
  facet normal 0 0 1
    outer loop
      vertex -85 -75 1
      vertex -68.1737 -2.38006 1
      vertex -68.5 -2.59808 1
    endloop
  endfacet
  facet normal 0 0 1
    outer loop
      vertex -85 -75 1
      vertex -68.5 -2.59808 1
      vertex -68.852 -2.77164 1
    endloop
  endfacet
  facet normal 0 0 1
    outer loop
      vertex -85 -75 1
      vertex -68.852 -2.77164 1
      vertex -69.2235 -2.89778 1
    endloop
  endfacet
  facet normal 0 0 1
    outer loop
      vertex -85 -75 1
      vertex -69.2235 -2.89778 1
      vertex -69.6084 -2.97433 1
    endloop
  endfacet
  facet normal 0 0 1
    outer loop
      vertex -85 -75 1
      vertex -69.6084 -2.97433 1
      vertex -70 -3 1
    endloop
  endfacet
  facet normal 0 0 1
    outer loop
      vertex -85 -75 1
      vertex -70 -3 1
      vertex -70.3916 -2.97433 1
    endloop
  endfacet
  facet normal 0 0 1
    outer loop
      vertex -85 -75 1
      vertex -70.3916 -2.97433 1
      vertex -70.7765 -2.89778 1
    endloop
  endfacet
  facet normal 0 0 1
    outer loop
      vertex -85 -75 1
      vertex -70.7765 -2.89778 1
      vertex -71.148 -2.77164 1
    endloop
  endfacet
  facet normal 0 0 1
    outer loop
      vertex -85 -75 1
      vertex -73 0 1
      vertex -85 75 1
    endloop
  endfacet
  facet normal 0 0 1
    outer loop
      vertex -67.6199 -1.82628 1
      vertex -85 -75 1
      vertex 85 -75 1
    endloop
  endfacet
  facet normal 0 0 1
    outer loop
      vertex -71.5 -2.59808 1
      vertex -85 -75 1
      vertex -71.148 -2.77164 1
    endloop
  endfacet
  facet normal 0 0 1
    outer loop
      vertex -71.8263 -2.38006 1
      vertex -85 -75 1
      vertex -71.5 -2.59808 1
    endloop
  endfacet
  facet normal 0 0 1
    outer loop
      vertex -72.1213 -2.12132 1
      vertex -85 -75 1
      vertex -71.8263 -2.38006 1
    endloop
  endfacet
  facet normal 0 0 1
    outer loop
      vertex -72.3801 -1.82628 1
      vertex -85 -75 1
      vertex -72.1213 -2.12132 1
    endloop
  endfacet
  facet normal 0 0 1
    outer loop
      vertex -72.5981 -1.5 1
      vertex -85 -75 1
      vertex -72.3801 -1.82628 1
    endloop
  endfacet
  facet normal 0 0 1
    outer loop
      vertex -72.7716 -1.14805 1
      vertex -85 -75 1
      vertex -72.5981 -1.5 1
    endloop
  endfacet
  facet normal 0 0 1
    outer loop
      vertex -72.8978 -0.776457 1
      vertex -85 -75 1
      vertex -72.7716 -1.14805 1
    endloop
  endfacet
  facet normal 0 0 1
    outer loop
      vertex -72.9743 -0.391578 1
      vertex -85 -75 1
      vertex -72.8978 -0.776457 1
    endloop
  endfacet
  facet normal 0 0 1
    outer loop
      vertex -73 0 1
      vertex -85 -75 1
      vertex -72.9743 -0.391578 1
    endloop
  endfacet
  facet normal 0 0 -1
    outer loop
      vertex 85 -75 -1
      vertex 73 0 -1
      vertex 85 75 -1
    endloop
  endfacet
  facet normal 0 0 -1
    outer loop
      vertex 85 -75 -1
      vertex 72.9743 -0.391578 -1
      vertex 73 0 -1
    endloop
  endfacet
  facet normal 0 0 -1
    outer loop
      vertex 85 -75 -1
      vertex 72.8978 -0.776457 -1
      vertex 72.9743 -0.391578 -1
    endloop
  endfacet
  facet normal 0 0 -1
    outer loop
      vertex 85 -75 -1
      vertex 72.7716 -1.14805 -1
      vertex 72.8978 -0.776457 -1
    endloop
  endfacet
  facet normal 0 0 -1
    outer loop
      vertex 85 -75 -1
      vertex 72.5981 -1.5 -1
      vertex 72.7716 -1.14805 -1
    endloop
  endfacet
  facet normal 0 0 -1
    outer loop
      vertex 85 -75 -1
      vertex 72.3801 -1.82628 -1
      vertex 72.5981 -1.5 -1
    endloop
  endfacet
  facet normal 0 0 -1
    outer loop
      vertex 85 -75 -1
      vertex 72.1213 -2.12132 -1
      vertex 72.3801 -1.82628 -1
    endloop
  endfacet
  facet normal 0 0 -1
    outer loop
      vertex 85 -75 -1
      vertex 71.8263 -2.38006 -1
      vertex 72.1213 -2.12132 -1
    endloop
  endfacet
  facet normal 0 0 -1
    outer loop
      vertex 85 -75 -1
      vertex 71.5 -2.59808 -1
      vertex 71.8263 -2.38006 -1
    endloop
  endfacet
  facet normal 0 0 -1
    outer loop
      vertex 85 -75 -1
      vertex 71.148 -2.77164 -1
      vertex 71.5 -2.59808 -1
    endloop
  endfacet
  facet normal 0 0 -1
    outer loop
      vertex 85 -75 -1
      vertex 70.7765 -2.89778 -1
      vertex 71.148 -2.77164 -1
    endloop
  endfacet
  facet normal 0 0 -1
    outer loop
      vertex 85 -75 -1
      vertex 70.3916 -2.97433 -1
      vertex 70.7765 -2.89778 -1
    endloop
  endfacet
  facet normal 0 0 -1
    outer loop
      vertex 85 -75 -1
      vertex 70 -3 -1
      vertex 70.3916 -2.97433 -1
    endloop
  endfacet
  facet normal 0 0 -1
    outer loop
      vertex 85 -75 -1
      vertex 69.6084 -2.97433 -1
      vertex 70 -3 -1
    endloop
  endfacet
  facet normal 0 0 -1
    outer loop
      vertex 85 -75 -1
      vertex 69.2235 -2.89778 -1
      vertex 69.6084 -2.97433 -1
    endloop
  endfacet
  facet normal 0 0 -1
    outer loop
      vertex 85 -75 -1
      vertex 68.852 -2.77164 -1
      vertex 69.2235 -2.89778 -1
    endloop
  endfacet
  facet normal 0 0 -1
    outer loop
      vertex 85 -75 -1
      vertex 68.5 -2.59808 -1
      vertex 68.852 -2.77164 -1
    endloop
  endfacet
  facet normal 0 0 -1
    outer loop
      vertex 85 -75 -1
      vertex 68.1737 -2.38006 -1
      vertex 68.5 -2.59808 -1
    endloop
  endfacet
  facet normal 0 0 -1
    outer loop
      vertex 85 -75 -1
      vertex 67.8787 -2.12132 -1
      vertex 68.1737 -2.38006 -1
    endloop
  endfacet
  facet normal 0 0 -1
    outer loop
      vertex 85 -75 -1
      vertex 67.6199 -1.82628 -1
      vertex 67.8787 -2.12132 -1
    endloop
  endfacet
  facet normal 0 0 -1
    outer loop
      vertex -67.6199 -1.82628 -1
      vertex 67.6199 -1.82628 -1
      vertex 85 -75 -1
    endloop
  endfacet
  facet normal 0 0 -1
    outer loop
      vertex 67.6199 -1.82628 -1
      vertex -67.6199 -1.82628 -1
      vertex 67.4019 -1.5 -1
    endloop
  endfacet
  facet normal 0 -0 -1
    outer loop
      vertex -67.4019 -1.5 -1
      vertex 67.4019 -1.5 -1
      vertex -67.6199 -1.82628 -1
    endloop
  endfacet
  facet normal 0 0 -1
    outer loop
      vertex 67.0257 -0.391578 -1
      vertex -67 0 -1
      vertex 67 0 -1
    endloop
  endfacet
  facet normal 0 0 -1
    outer loop
      vertex -67.0257 -0.391578 -1
      vertex 67.0257 -0.391578 -1
      vertex 67.1022 -0.776457 -1
    endloop
  endfacet
  facet normal 0 0 -1
    outer loop
      vertex 67.4019 -1.5 -1
      vertex -67.4019 -1.5 -1
      vertex 67.2284 -1.14805 -1
    endloop
  endfacet
  facet normal 0 0 -1
    outer loop
      vertex 67.0257 -0.391578 -1
      vertex -67.0257 -0.391578 -1
      vertex -67 0 -1
    endloop
  endfacet
  facet normal 0 0 -1
    outer loop
      vertex 67.1022 -0.776457 -1
      vertex -67.1022 -0.776457 -1
      vertex -67.0257 -0.391578 -1
    endloop
  endfacet
  facet normal -0 0 -1
    outer loop
      vertex 67.1022 -0.776457 -1
      vertex -67.2284 -1.14805 -1
      vertex -67.1022 -0.776457 -1
    endloop
  endfacet
  facet normal 0 0 -1
    outer loop
      vertex 67.2284 -1.14805 -1
      vertex -67.2284 -1.14805 -1
      vertex 67.1022 -0.776457 -1
    endloop
  endfacet
  facet normal 0 -0 -1
    outer loop
      vertex -67.2284 -1.14805 -1
      vertex 67.2284 -1.14805 -1
      vertex -67.4019 -1.5 -1
    endloop
  endfacet
  facet normal 0 0 -1
    outer loop
      vertex -85 -75 -1
      vertex -67.6199 -1.82628 -1
      vertex 85 -75 -1
    endloop
  endfacet
  facet normal 0 0 -1
    outer loop
      vertex -67.6199 -1.82628 -1
      vertex -85 -75 -1
      vertex -67.8787 -2.12132 -1
    endloop
  endfacet
  facet normal 0 0 -1
    outer loop
      vertex -67.8787 -2.12132 -1
      vertex -85 -75 -1
      vertex -68.1737 -2.38006 -1
    endloop
  endfacet
  facet normal 0 0 -1
    outer loop
      vertex -68.1737 -2.38006 -1
      vertex -85 -75 -1
      vertex -68.5 -2.59808 -1
    endloop
  endfacet
  facet normal 0 0 -1
    outer loop
      vertex -68.5 -2.59808 -1
      vertex -85 -75 -1
      vertex -68.852 -2.77164 -1
    endloop
  endfacet
  facet normal 0 0 -1
    outer loop
      vertex -68.852 -2.77164 -1
      vertex -85 -75 -1
      vertex -69.2235 -2.89778 -1
    endloop
  endfacet
  facet normal 0 0 -1
    outer loop
      vertex -69.2235 -2.89778 -1
      vertex -85 -75 -1
      vertex -69.6084 -2.97433 -1
    endloop
  endfacet
  facet normal 0 0 -1
    outer loop
      vertex -69.6084 -2.97433 -1
      vertex -85 -75 -1
      vertex -70 -3 -1
    endloop
  endfacet
  facet normal -0 0 -1
    outer loop
      vertex -70 -3 -1
      vertex -85 -75 -1
      vertex -70.3916 -2.97433 -1
    endloop
  endfacet
  facet normal -0 0 -1
    outer loop
      vertex -70.3916 -2.97433 -1
      vertex -85 -75 -1
      vertex -70.7765 -2.89778 -1
    endloop
  endfacet
  facet normal -0 0 -1
    outer loop
      vertex -72.9743 -0.391578 -1
      vertex -85 -75 -1
      vertex -73 0 -1
    endloop
  endfacet
  facet normal -0 0 -1
    outer loop
      vertex -72.8978 -0.776457 -1
      vertex -85 -75 -1
      vertex -72.9743 -0.391578 -1
    endloop
  endfacet
  facet normal -0 0 -1
    outer loop
      vertex -72.7716 -1.14805 -1
      vertex -85 -75 -1
      vertex -72.8978 -0.776457 -1
    endloop
  endfacet
  facet normal -0 0 -1
    outer loop
      vertex -72.5981 -1.5 -1
      vertex -85 -75 -1
      vertex -72.7716 -1.14805 -1
    endloop
  endfacet
  facet normal -0 0 -1
    outer loop
      vertex -72.3801 -1.82628 -1
      vertex -85 -75 -1
      vertex -72.5981 -1.5 -1
    endloop
  endfacet
  facet normal -0 0 -1
    outer loop
      vertex -72.1213 -2.12132 -1
      vertex -85 -75 -1
      vertex -72.3801 -1.82628 -1
    endloop
  endfacet
  facet normal -0 0 -1
    outer loop
      vertex -71.8263 -2.38006 -1
      vertex -85 -75 -1
      vertex -72.1213 -2.12132 -1
    endloop
  endfacet
  facet normal -0 0 -1
    outer loop
      vertex -71.5 -2.59808 -1
      vertex -85 -75 -1
      vertex -71.8263 -2.38006 -1
    endloop
  endfacet
  facet normal -0 0 -1
    outer loop
      vertex -71.148 -2.77164 -1
      vertex -85 -75 -1
      vertex -71.5 -2.59808 -1
    endloop
  endfacet
  facet normal -0 0 -1
    outer loop
      vertex -70.7765 -2.89778 -1
      vertex -85 -75 -1
      vertex -71.148 -2.77164 -1
    endloop
  endfacet
  facet normal 0 0 -1
    outer loop
      vertex 72.9743 0.391578 -1
      vertex 85 75 -1
      vertex 73 0 -1
    endloop
  endfacet
  facet normal 0 0 -1
    outer loop
      vertex 72.8978 0.776457 -1
      vertex 85 75 -1
      vertex 72.9743 0.391578 -1
    endloop
  endfacet
  facet normal 0 0 -1
    outer loop
      vertex 72.7716 1.14805 -1
      vertex 85 75 -1
      vertex 72.8978 0.776457 -1
    endloop
  endfacet
  facet normal 0 0 -1
    outer loop
      vertex 72.5981 1.5 -1
      vertex 85 75 -1
      vertex 72.7716 1.14805 -1
    endloop
  endfacet
  facet normal 0 0 -1
    outer loop
      vertex 72.3801 1.82628 -1
      vertex 85 75 -1
      vertex 72.5981 1.5 -1
    endloop
  endfacet
  facet normal 0 0 -1
    outer loop
      vertex 72.1213 2.12132 -1
      vertex 85 75 -1
      vertex 72.3801 1.82628 -1
    endloop
  endfacet
  facet normal 0 0 -1
    outer loop
      vertex 71.8263 2.38006 -1
      vertex 85 75 -1
      vertex 72.1213 2.12132 -1
    endloop
  endfacet
  facet normal 0 0 -1
    outer loop
      vertex 71.5 2.59808 -1
      vertex 85 75 -1
      vertex 71.8263 2.38006 -1
    endloop
  endfacet
  facet normal 0 0 -1
    outer loop
      vertex 71.148 2.77164 -1
      vertex 85 75 -1
      vertex 71.5 2.59808 -1
    endloop
  endfacet
  facet normal 0 0 -1
    outer loop
      vertex 70.7765 2.89778 -1
      vertex 85 75 -1
      vertex 71.148 2.77164 -1
    endloop
  endfacet
  facet normal 0 0 -1
    outer loop
      vertex 70.3916 2.97433 -1
      vertex 85 75 -1
      vertex 70.7765 2.89778 -1
    endloop
  endfacet
  facet normal 0 0 -1
    outer loop
      vertex 70 3 -1
      vertex 85 75 -1
      vertex 70.3916 2.97433 -1
    endloop
  endfacet
  facet normal 0 0 -1
    outer loop
      vertex 69.6084 2.97433 -1
      vertex 85 75 -1
      vertex 70 3 -1
    endloop
  endfacet
  facet normal 0 0 -1
    outer loop
      vertex 69.2235 2.89778 -1
      vertex 85 75 -1
      vertex 69.6084 2.97433 -1
    endloop
  endfacet
  facet normal 0 0 -1
    outer loop
      vertex 68.852 2.77164 -1
      vertex 85 75 -1
      vertex 69.2235 2.89778 -1
    endloop
  endfacet
  facet normal 0 0 -1
    outer loop
      vertex 68.5 2.59808 -1
      vertex 85 75 -1
      vertex 68.852 2.77164 -1
    endloop
  endfacet
  facet normal 0 0 -1
    outer loop
      vertex 68.1737 2.38006 -1
      vertex 85 75 -1
      vertex 68.5 2.59808 -1
    endloop
  endfacet
  facet normal 0 0 -1
    outer loop
      vertex 67.8787 2.12132 -1
      vertex 85 75 -1
      vertex 68.1737 2.38006 -1
    endloop
  endfacet
  facet normal 0 0 -1
    outer loop
      vertex 67.6199 1.82628 -1
      vertex 85 75 -1
      vertex 67.8787 2.12132 -1
    endloop
  endfacet
  facet normal 0 0 -1
    outer loop
      vertex -67.6199 1.82628 -1
      vertex 67.6199 1.82628 -1
      vertex 67.4019 1.5 -1
    endloop
  endfacet
  facet normal 0 0 -1
    outer loop
      vertex -67.4019 1.5 -1
      vertex 67.4019 1.5 -1
      vertex 67.2284 1.14805 -1
    endloop
  endfacet
  facet normal 0 0 -1
    outer loop
      vertex -67.2284 1.14805 -1
      vertex 67.2284 1.14805 -1
      vertex 67.1022 0.776457 -1
    endloop
  endfacet
  facet normal 0 0 -1
    outer loop
      vertex -67 0 -1
      vertex 67.0257 0.391578 -1
      vertex 67 0 -1
    endloop
  endfacet
  facet normal 0 0 -1
    outer loop
      vertex -67.0257 0.391578 -1
      vertex 67.0257 0.391578 -1
      vertex -67 0 -1
    endloop
  endfacet
  facet normal 0 0 -1
    outer loop
      vertex 67.0257 0.391578 -1
      vertex -67.0257 0.391578 -1
      vertex 67.1022 0.776457 -1
    endloop
  endfacet
  facet normal 0 0 -1
    outer loop
      vertex -67.1022 0.776457 -1
      vertex 67.1022 0.776457 -1
      vertex -67.0257 0.391578 -1
    endloop
  endfacet
  facet normal 0 0 -1
    outer loop
      vertex -67.2284 1.14805 -1
      vertex 67.1022 0.776457 -1
      vertex -67.1022 0.776457 -1
    endloop
  endfacet
  facet normal 0 0 -1
    outer loop
      vertex 67.2284 1.14805 -1
      vertex -67.2284 1.14805 -1
      vertex -67.4019 1.5 -1
    endloop
  endfacet
  facet normal 0 0 -1
    outer loop
      vertex 67.4019 1.5 -1
      vertex -67.4019 1.5 -1
      vertex -67.6199 1.82628 -1
    endloop
  endfacet
  facet normal 0 0 -1
    outer loop
      vertex 67.6199 1.82628 -1
      vertex -67.6199 1.82628 -1
      vertex 85 75 -1
    endloop
  endfacet
  facet normal 0 0 -1
    outer loop
      vertex -85 75 -1
      vertex -67.6199 1.82628 -1
      vertex -67.8787 2.12132 -1
    endloop
  endfacet
  facet normal 0 0 -1
    outer loop
      vertex -85 75 -1
      vertex -67.8787 2.12132 -1
      vertex -68.1737 2.38006 -1
    endloop
  endfacet
  facet normal 0 0 -1
    outer loop
      vertex -85 75 -1
      vertex -68.1737 2.38006 -1
      vertex -68.5 2.59808 -1
    endloop
  endfacet
  facet normal 0 0 -1
    outer loop
      vertex -85 75 -1
      vertex -68.5 2.59808 -1
      vertex -68.852 2.77164 -1
    endloop
  endfacet
  facet normal 0 0 -1
    outer loop
      vertex -85 75 -1
      vertex -68.852 2.77164 -1
      vertex -69.2235 2.89778 -1
    endloop
  endfacet
  facet normal 0 0 -1
    outer loop
      vertex -85 75 -1
      vertex -69.2235 2.89778 -1
      vertex -69.6084 2.97433 -1
    endloop
  endfacet
  facet normal 0 0 -1
    outer loop
      vertex -85 75 -1
      vertex -69.6084 2.97433 -1
      vertex -70 3 -1
    endloop
  endfacet
  facet normal 0 0 -1
    outer loop
      vertex -85 75 -1
      vertex -70 3 -1
      vertex -70.3916 2.97433 -1
    endloop
  endfacet
  facet normal 0 0 -1
    outer loop
      vertex -85 75 -1
      vertex -70.3916 2.97433 -1
      vertex -70.7765 2.89778 -1
    endloop
  endfacet
  facet normal 0 0 -1
    outer loop
      vertex -85 75 -1
      vertex -70.7765 2.89778 -1
      vertex -71.148 2.77164 -1
    endloop
  endfacet
  facet normal 0 0 -1
    outer loop
      vertex -85 75 -1
      vertex -73 0 -1
      vertex -85 -75 -1
    endloop
  endfacet
  facet normal 0 0 -1
    outer loop
      vertex -67.6199 1.82628 -1
      vertex -85 75 -1
      vertex 85 75 -1
    endloop
  endfacet
  facet normal 0 0 -1
    outer loop
      vertex -71.5 2.59808 -1
      vertex -85 75 -1
      vertex -71.148 2.77164 -1
    endloop
  endfacet
  facet normal 0 0 -1
    outer loop
      vertex -71.8263 2.38006 -1
      vertex -85 75 -1
      vertex -71.5 2.59808 -1
    endloop
  endfacet
  facet normal 0 0 -1
    outer loop
      vertex -72.1213 2.12132 -1
      vertex -85 75 -1
      vertex -71.8263 2.38006 -1
    endloop
  endfacet
  facet normal 0 0 -1
    outer loop
      vertex -72.3801 1.82628 -1
      vertex -85 75 -1
      vertex -72.1213 2.12132 -1
    endloop
  endfacet
  facet normal 0 0 -1
    outer loop
      vertex -72.5981 1.5 -1
      vertex -85 75 -1
      vertex -72.3801 1.82628 -1
    endloop
  endfacet
  facet normal 0 0 -1
    outer loop
      vertex -72.7716 1.14805 -1
      vertex -85 75 -1
      vertex -72.5981 1.5 -1
    endloop
  endfacet
  facet normal 0 0 -1
    outer loop
      vertex -72.8978 0.776457 -1
      vertex -85 75 -1
      vertex -72.7716 1.14805 -1
    endloop
  endfacet
  facet normal 0 0 -1
    outer loop
      vertex -72.9743 0.391578 -1
      vertex -85 75 -1
      vertex -72.8978 0.776457 -1
    endloop
  endfacet
  facet normal 0 0 -1
    outer loop
      vertex -73 0 -1
      vertex -85 75 -1
      vertex -72.9743 0.391578 -1
    endloop
  endfacet
  facet normal -1 0 0
    outer loop
      vertex -85 -75 -1
      vertex -85 75 1
      vertex -85 75 -1
    endloop
  endfacet
  facet normal -1 -0 0
    outer loop
      vertex -85 75 1
      vertex -85 -75 -1
      vertex -85 -75 1
    endloop
  endfacet
  facet normal 0 1 -0
    outer loop
      vertex 85 75 -1
      vertex -85 75 1
      vertex 85 75 1
    endloop
  endfacet
  facet normal 0 1 0
    outer loop
      vertex -85 75 1
      vertex 85 75 -1
      vertex -85 75 -1
    endloop
  endfacet
  facet normal 0 -1 0
    outer loop
      vertex -85 -75 -1
      vertex 85 -75 1
      vertex -85 -75 1
    endloop
  endfacet
  facet normal 0 -1 -0
    outer loop
      vertex 85 -75 1
      vertex -85 -75 -1
      vertex 85 -75 -1
    endloop
  endfacet
  facet normal -0.980813 -0.19495 0
    outer loop
      vertex -67.0257 0.391578 -1
      vertex -67.1022 0.776457 1
      vertex -67.1022 0.776457 -1
    endloop
  endfacet
  facet normal -0.980813 -0.19495 0
    outer loop
      vertex -67.1022 0.776457 1
      vertex -67.0257 0.391578 -1
      vertex -67.0257 0.391578 1
    endloop
  endfacet
  facet normal -0.997853 -0.065491 0
    outer loop
      vertex -67 0 -1
      vertex -67.0257 0.391578 1
      vertex -67.0257 0.391578 -1
    endloop
  endfacet
  facet normal -0.997853 -0.065491 0
    outer loop
      vertex -67.0257 0.391578 1
      vertex -67 0 -1
      vertex -67 0 1
    endloop
  endfacet
  facet normal 0.442233 0.8969 -0
    outer loop
      vertex -71.148 -2.77164 -1
      vertex -71.5 -2.59808 1
      vertex -71.148 -2.77164 1
    endloop
  endfacet
  facet normal 0.442233 0.8969 0
    outer loop
      vertex -71.5 -2.59808 1
      vertex -71.148 -2.77164 -1
      vertex -71.5 -2.59808 -1
    endloop
  endfacet
  facet normal -0.195062 0.980791 0
    outer loop
      vertex -69.2235 -2.89778 -1
      vertex -69.6084 -2.97433 1
      vertex -69.2235 -2.89778 1
    endloop
  endfacet
  facet normal -0.195062 0.980791 0
    outer loop
      vertex -69.6084 -2.97433 1
      vertex -69.2235 -2.89778 -1
      vertex -69.6084 -2.97433 -1
    endloop
  endfacet
  facet normal -0.659392 -0.751799 0
    outer loop
      vertex -68.1737 2.38006 -1
      vertex -67.8787 2.12132 1
      vertex -68.1737 2.38006 1
    endloop
  endfacet
  facet normal -0.659392 -0.751799 -0
    outer loop
      vertex -67.8787 2.12132 1
      vertex -68.1737 2.38006 -1
      vertex -67.8787 2.12132 -1
    endloop
  endfacet
  facet normal 0.751768 0.659428 0
    outer loop
      vertex -72.1213 -2.12132 1
      vertex -72.3801 -1.82628 -1
      vertex -72.3801 -1.82628 1
    endloop
  endfacet
  facet normal 0.751768 0.659428 0
    outer loop
      vertex -72.3801 -1.82628 -1
      vertex -72.1213 -2.12132 1
      vertex -72.1213 -2.12132 -1
    endloop
  endfacet
  facet normal -0.831485 -0.555547 0
    outer loop
      vertex -67.4019 1.5 -1
      vertex -67.6199 1.82628 1
      vertex -67.6199 1.82628 -1
    endloop
  endfacet
  facet normal -0.831485 -0.555547 0
    outer loop
      vertex -67.6199 1.82628 1
      vertex -67.4019 1.5 -1
      vertex -67.4019 1.5 1
    endloop
  endfacet
  facet normal -0.896936 0.44216 0
    outer loop
      vertex -67.4019 -1.5 -1
      vertex -67.2284 -1.14805 1
      vertex -67.2284 -1.14805 -1
    endloop
  endfacet
  facet normal -0.896936 0.44216 0
    outer loop
      vertex -67.2284 -1.14805 1
      vertex -67.4019 -1.5 -1
      vertex -67.4019 -1.5 1
    endloop
  endfacet
  facet normal 0.997853 -0.065491 0
    outer loop
      vertex -73 0 1
      vertex -72.9743 0.391578 -1
      vertex -72.9743 0.391578 1
    endloop
  endfacet
  facet normal 0.997853 -0.065491 0
    outer loop
      vertex -72.9743 0.391578 -1
      vertex -73 0 1
      vertex -73 0 -1
    endloop
  endfacet
  facet normal -0.751768 0.659428 0
    outer loop
      vertex -67.8787 -2.12132 -1
      vertex -67.6199 -1.82628 1
      vertex -67.6199 -1.82628 -1
    endloop
  endfacet
  facet normal -0.751768 0.659428 0
    outer loop
      vertex -67.6199 -1.82628 1
      vertex -67.8787 -2.12132 -1
      vertex -67.8787 -2.12132 1
    endloop
  endfacet
  facet normal 0.980813 -0.19495 0
    outer loop
      vertex -72.9743 0.391578 1
      vertex -72.8978 0.776457 -1
      vertex -72.8978 0.776457 1
    endloop
  endfacet
  facet normal 0.980813 -0.19495 0
    outer loop
      vertex -72.8978 0.776457 -1
      vertex -72.9743 0.391578 1
      vertex -72.9743 0.391578 -1
    endloop
  endfacet
  facet normal 0.555558 -0.831477 0
    outer loop
      vertex -71.8263 2.38006 -1
      vertex -71.5 2.59808 1
      vertex -71.8263 2.38006 1
    endloop
  endfacet
  facet normal 0.555558 -0.831477 0
    outer loop
      vertex -71.5 2.59808 1
      vertex -71.8263 2.38006 -1
      vertex -71.5 2.59808 -1
    endloop
  endfacet
  facet normal 0.997853 0.065491 0
    outer loop
      vertex -72.9743 -0.391578 1
      vertex -73 0 -1
      vertex -73 0 1
    endloop
  endfacet
  facet normal 0.997853 0.065491 0
    outer loop
      vertex -73 0 -1
      vertex -72.9743 -0.391578 1
      vertex -72.9743 -0.391578 -1
    endloop
  endfacet
  facet normal -0.321514 0.946905 0
    outer loop
      vertex -68.852 -2.77164 -1
      vertex -69.2235 -2.89778 1
      vertex -68.852 -2.77164 1
    endloop
  endfacet
  facet normal -0.321514 0.946905 0
    outer loop
      vertex -69.2235 -2.89778 1
      vertex -68.852 -2.77164 -1
      vertex -69.2235 -2.89778 -1
    endloop
  endfacet
  facet normal 0.321514 0.946905 -0
    outer loop
      vertex -70.7765 -2.89778 -1
      vertex -71.148 -2.77164 1
      vertex -70.7765 -2.89778 1
    endloop
  endfacet
  facet normal 0.321514 0.946905 0
    outer loop
      vertex -71.148 -2.77164 1
      vertex -70.7765 -2.89778 -1
      vertex -71.148 -2.77164 -1
    endloop
  endfacet
  facet normal 0.896936 -0.44216 0
    outer loop
      vertex -72.7716 1.14805 1
      vertex -72.5981 1.5 -1
      vertex -72.5981 1.5 1
    endloop
  endfacet
  facet normal 0.896936 -0.44216 0
    outer loop
      vertex -72.5981 1.5 -1
      vertex -72.7716 1.14805 1
      vertex -72.7716 1.14805 -1
    endloop
  endfacet
  facet normal -0.555558 -0.831477 0
    outer loop
      vertex -68.5 2.59808 -1
      vertex -68.1737 2.38006 1
      vertex -68.5 2.59808 1
    endloop
  endfacet
  facet normal -0.555558 -0.831477 -0
    outer loop
      vertex -68.1737 2.38006 1
      vertex -68.5 2.59808 -1
      vertex -68.1737 2.38006 -1
    endloop
  endfacet
  facet normal -0.0654112 -0.997858 0
    outer loop
      vertex -70 3 -1
      vertex -69.6084 2.97433 1
      vertex -70 3 1
    endloop
  endfacet
  facet normal -0.0654112 -0.997858 -0
    outer loop
      vertex -69.6084 2.97433 1
      vertex -70 3 -1
      vertex -69.6084 2.97433 -1
    endloop
  endfacet
  facet normal 0.659392 0.751799 -0
    outer loop
      vertex -71.8263 -2.38006 -1
      vertex -72.1213 -2.12132 1
      vertex -71.8263 -2.38006 1
    endloop
  endfacet
  facet normal 0.659392 0.751799 0
    outer loop
      vertex -72.1213 -2.12132 1
      vertex -71.8263 -2.38006 -1
      vertex -72.1213 -2.12132 -1
    endloop
  endfacet
  facet normal -0.751768 -0.659428 0
    outer loop
      vertex -67.6199 1.82628 -1
      vertex -67.8787 2.12132 1
      vertex -67.8787 2.12132 -1
    endloop
  endfacet
  facet normal -0.751768 -0.659428 0
    outer loop
      vertex -67.8787 2.12132 1
      vertex -67.6199 1.82628 -1
      vertex -67.6199 1.82628 1
    endloop
  endfacet
  facet normal -0.896936 -0.44216 0
    outer loop
      vertex -67.2284 1.14805 -1
      vertex -67.4019 1.5 1
      vertex -67.4019 1.5 -1
    endloop
  endfacet
  facet normal -0.896936 -0.44216 0
    outer loop
      vertex -67.4019 1.5 1
      vertex -67.2284 1.14805 -1
      vertex -67.2284 1.14805 1
    endloop
  endfacet
  facet normal -0.321514 -0.946905 0
    outer loop
      vertex -69.2235 2.89778 -1
      vertex -68.852 2.77164 1
      vertex -69.2235 2.89778 1
    endloop
  endfacet
  facet normal -0.321514 -0.946905 -0
    outer loop
      vertex -68.852 2.77164 1
      vertex -69.2235 2.89778 -1
      vertex -68.852 2.77164 -1
    endloop
  endfacet
  facet normal -0.0654112 0.997858 0
    outer loop
      vertex -69.6084 -2.97433 -1
      vertex -70 -3 1
      vertex -69.6084 -2.97433 1
    endloop
  endfacet
  facet normal -0.0654112 0.997858 0
    outer loop
      vertex -70 -3 1
      vertex -69.6084 -2.97433 -1
      vertex -70 -3 -1
    endloop
  endfacet
  facet normal 0.442233 -0.8969 0
    outer loop
      vertex -71.5 2.59808 -1
      vertex -71.148 2.77164 1
      vertex -71.5 2.59808 1
    endloop
  endfacet
  facet normal 0.442233 -0.8969 0
    outer loop
      vertex -71.148 2.77164 1
      vertex -71.5 2.59808 -1
      vertex -71.148 2.77164 -1
    endloop
  endfacet
  facet normal -0.442233 -0.8969 0
    outer loop
      vertex -68.852 2.77164 -1
      vertex -68.5 2.59808 1
      vertex -68.852 2.77164 1
    endloop
  endfacet
  facet normal -0.442233 -0.8969 -0
    outer loop
      vertex -68.5 2.59808 1
      vertex -68.852 2.77164 -1
      vertex -68.5 2.59808 -1
    endloop
  endfacet
  facet normal 0.195062 -0.980791 0
    outer loop
      vertex -70.7765 2.89778 -1
      vertex -70.3916 2.97433 1
      vertex -70.7765 2.89778 1
    endloop
  endfacet
  facet normal 0.195062 -0.980791 0
    outer loop
      vertex -70.3916 2.97433 1
      vertex -70.7765 2.89778 -1
      vertex -70.3916 2.97433 -1
    endloop
  endfacet
  facet normal -0.659392 0.751799 0
    outer loop
      vertex -67.8787 -2.12132 -1
      vertex -68.1737 -2.38006 1
      vertex -67.8787 -2.12132 1
    endloop
  endfacet
  facet normal -0.659392 0.751799 0
    outer loop
      vertex -68.1737 -2.38006 1
      vertex -67.8787 -2.12132 -1
      vertex -68.1737 -2.38006 -1
    endloop
  endfacet
  facet normal -0.195062 -0.980791 0
    outer loop
      vertex -69.6084 2.97433 -1
      vertex -69.2235 2.89778 1
      vertex -69.6084 2.97433 1
    endloop
  endfacet
  facet normal -0.195062 -0.980791 -0
    outer loop
      vertex -69.2235 2.89778 1
      vertex -69.6084 2.97433 -1
      vertex -69.2235 2.89778 -1
    endloop
  endfacet
  facet normal -0.997853 0.065491 0
    outer loop
      vertex -67.0257 -0.391578 -1
      vertex -67 0 1
      vertex -67 0 -1
    endloop
  endfacet
  facet normal -0.997853 0.065491 0
    outer loop
      vertex -67 0 1
      vertex -67.0257 -0.391578 -1
      vertex -67.0257 -0.391578 1
    endloop
  endfacet
  facet normal 0.946883 -0.321579 0
    outer loop
      vertex -72.8978 0.776457 1
      vertex -72.7716 1.14805 -1
      vertex -72.7716 1.14805 1
    endloop
  endfacet
  facet normal 0.946883 -0.321579 0
    outer loop
      vertex -72.7716 1.14805 -1
      vertex -72.8978 0.776457 1
      vertex -72.8978 0.776457 -1
    endloop
  endfacet
  facet normal -0.442233 0.8969 0
    outer loop
      vertex -68.5 -2.59808 -1
      vertex -68.852 -2.77164 1
      vertex -68.5 -2.59808 1
    endloop
  endfacet
  facet normal -0.442233 0.8969 0
    outer loop
      vertex -68.852 -2.77164 1
      vertex -68.5 -2.59808 -1
      vertex -68.852 -2.77164 -1
    endloop
  endfacet
  facet normal 0.321514 -0.946905 0
    outer loop
      vertex -71.148 2.77164 -1
      vertex -70.7765 2.89778 1
      vertex -71.148 2.77164 1
    endloop
  endfacet
  facet normal 0.321514 -0.946905 0
    outer loop
      vertex -70.7765 2.89778 1
      vertex -71.148 2.77164 -1
      vertex -70.7765 2.89778 -1
    endloop
  endfacet
  facet normal 0.896936 0.44216 0
    outer loop
      vertex -72.5981 -1.5 1
      vertex -72.7716 -1.14805 -1
      vertex -72.7716 -1.14805 1
    endloop
  endfacet
  facet normal 0.896936 0.44216 0
    outer loop
      vertex -72.7716 -1.14805 -1
      vertex -72.5981 -1.5 1
      vertex -72.5981 -1.5 -1
    endloop
  endfacet
  facet normal -0.946883 0.321579 0
    outer loop
      vertex -67.2284 -1.14805 -1
      vertex -67.1022 -0.776457 1
      vertex -67.1022 -0.776457 -1
    endloop
  endfacet
  facet normal -0.946883 0.321579 0
    outer loop
      vertex -67.1022 -0.776457 1
      vertex -67.2284 -1.14805 -1
      vertex -67.2284 -1.14805 1
    endloop
  endfacet
  facet normal 0.659392 -0.751799 0
    outer loop
      vertex -72.1213 2.12132 -1
      vertex -71.8263 2.38006 1
      vertex -72.1213 2.12132 1
    endloop
  endfacet
  facet normal 0.659392 -0.751799 0
    outer loop
      vertex -71.8263 2.38006 1
      vertex -72.1213 2.12132 -1
      vertex -71.8263 2.38006 -1
    endloop
  endfacet
  facet normal 0.831485 0.555547 0
    outer loop
      vertex -72.3801 -1.82628 1
      vertex -72.5981 -1.5 -1
      vertex -72.5981 -1.5 1
    endloop
  endfacet
  facet normal 0.831485 0.555547 0
    outer loop
      vertex -72.5981 -1.5 -1
      vertex -72.3801 -1.82628 1
      vertex -72.3801 -1.82628 -1
    endloop
  endfacet
  facet normal -0.831485 0.555547 0
    outer loop
      vertex -67.6199 -1.82628 -1
      vertex -67.4019 -1.5 1
      vertex -67.4019 -1.5 -1
    endloop
  endfacet
  facet normal -0.831485 0.555547 0
    outer loop
      vertex -67.4019 -1.5 1
      vertex -67.6199 -1.82628 -1
      vertex -67.6199 -1.82628 1
    endloop
  endfacet
  facet normal -0.555558 0.831477 0
    outer loop
      vertex -68.1737 -2.38006 -1
      vertex -68.5 -2.59808 1
      vertex -68.1737 -2.38006 1
    endloop
  endfacet
  facet normal -0.555558 0.831477 0
    outer loop
      vertex -68.5 -2.59808 1
      vertex -68.1737 -2.38006 -1
      vertex -68.5 -2.59808 -1
    endloop
  endfacet
  facet normal 0.751768 -0.659428 0
    outer loop
      vertex -72.3801 1.82628 1
      vertex -72.1213 2.12132 -1
      vertex -72.1213 2.12132 1
    endloop
  endfacet
  facet normal 0.751768 -0.659428 0
    outer loop
      vertex -72.1213 2.12132 -1
      vertex -72.3801 1.82628 1
      vertex -72.3801 1.82628 -1
    endloop
  endfacet
  facet normal 0.946883 0.321579 0
    outer loop
      vertex -72.7716 -1.14805 1
      vertex -72.8978 -0.776457 -1
      vertex -72.8978 -0.776457 1
    endloop
  endfacet
  facet normal 0.946883 0.321579 0
    outer loop
      vertex -72.8978 -0.776457 -1
      vertex -72.7716 -1.14805 1
      vertex -72.7716 -1.14805 -1
    endloop
  endfacet
  facet normal 0.555558 0.831477 -0
    outer loop
      vertex -71.5 -2.59808 -1
      vertex -71.8263 -2.38006 1
      vertex -71.5 -2.59808 1
    endloop
  endfacet
  facet normal 0.555558 0.831477 0
    outer loop
      vertex -71.8263 -2.38006 1
      vertex -71.5 -2.59808 -1
      vertex -71.8263 -2.38006 -1
    endloop
  endfacet
  facet normal -0.980813 0.19495 0
    outer loop
      vertex -67.1022 -0.776457 -1
      vertex -67.0257 -0.391578 1
      vertex -67.0257 -0.391578 -1
    endloop
  endfacet
  facet normal -0.980813 0.19495 0
    outer loop
      vertex -67.0257 -0.391578 1
      vertex -67.1022 -0.776457 -1
      vertex -67.1022 -0.776457 1
    endloop
  endfacet
  facet normal -0.946883 -0.321579 0
    outer loop
      vertex -67.1022 0.776457 -1
      vertex -67.2284 1.14805 1
      vertex -67.2284 1.14805 -1
    endloop
  endfacet
  facet normal -0.946883 -0.321579 0
    outer loop
      vertex -67.2284 1.14805 1
      vertex -67.1022 0.776457 -1
      vertex -67.1022 0.776457 1
    endloop
  endfacet
  facet normal 0.0654112 -0.997858 0
    outer loop
      vertex -70.3916 2.97433 -1
      vertex -70 3 1
      vertex -70.3916 2.97433 1
    endloop
  endfacet
  facet normal 0.0654112 -0.997858 0
    outer loop
      vertex -70 3 1
      vertex -70.3916 2.97433 -1
      vertex -70 3 -1
    endloop
  endfacet
  facet normal 0.195062 0.980791 -0
    outer loop
      vertex -70.3916 -2.97433 -1
      vertex -70.7765 -2.89778 1
      vertex -70.3916 -2.97433 1
    endloop
  endfacet
  facet normal 0.195062 0.980791 0
    outer loop
      vertex -70.7765 -2.89778 1
      vertex -70.3916 -2.97433 -1
      vertex -70.7765 -2.89778 -1
    endloop
  endfacet
  facet normal 0.980813 0.19495 0
    outer loop
      vertex -72.8978 -0.776457 1
      vertex -72.9743 -0.391578 -1
      vertex -72.9743 -0.391578 1
    endloop
  endfacet
  facet normal 0.980813 0.19495 0
    outer loop
      vertex -72.9743 -0.391578 -1
      vertex -72.8978 -0.776457 1
      vertex -72.8978 -0.776457 -1
    endloop
  endfacet
  facet normal 0.0654112 0.997858 -0
    outer loop
      vertex -70 -3 -1
      vertex -70.3916 -2.97433 1
      vertex -70 -3 1
    endloop
  endfacet
  facet normal 0.0654112 0.997858 0
    outer loop
      vertex -70.3916 -2.97433 1
      vertex -70 -3 -1
      vertex -70.3916 -2.97433 -1
    endloop
  endfacet
  facet normal 0.831485 -0.555547 0
    outer loop
      vertex -72.5981 1.5 1
      vertex -72.3801 1.82628 -1
      vertex -72.3801 1.82628 1
    endloop
  endfacet
  facet normal 0.831485 -0.555547 0
    outer loop
      vertex -72.3801 1.82628 -1
      vertex -72.5981 1.5 1
      vertex -72.5981 1.5 -1
    endloop
  endfacet
  facet normal -0.980813 -0.19495 0
    outer loop
      vertex 72.9743 0.391578 -1
      vertex 72.8978 0.776457 1
      vertex 72.8978 0.776457 -1
    endloop
  endfacet
  facet normal -0.980813 -0.19495 0
    outer loop
      vertex 72.8978 0.776457 1
      vertex 72.9743 0.391578 -1
      vertex 72.9743 0.391578 1
    endloop
  endfacet
  facet normal -0.997853 -0.065491 0
    outer loop
      vertex 73 0 -1
      vertex 72.9743 0.391578 1
      vertex 72.9743 0.391578 -1
    endloop
  endfacet
  facet normal -0.997853 -0.065491 0
    outer loop
      vertex 72.9743 0.391578 1
      vertex 73 0 -1
      vertex 73 0 1
    endloop
  endfacet
  facet normal 0.555558 -0.831477 0
    outer loop
      vertex 68.1737 2.38006 -1
      vertex 68.5 2.59808 1
      vertex 68.1737 2.38006 1
    endloop
  endfacet
  facet normal 0.555558 -0.831477 0
    outer loop
      vertex 68.5 2.59808 1
      vertex 68.1737 2.38006 -1
      vertex 68.5 2.59808 -1
    endloop
  endfacet
  facet normal -0.442233 -0.8969 0
    outer loop
      vertex 71.148 2.77164 -1
      vertex 71.5 2.59808 1
      vertex 71.148 2.77164 1
    endloop
  endfacet
  facet normal -0.442233 -0.8969 -0
    outer loop
      vertex 71.5 2.59808 1
      vertex 71.148 2.77164 -1
      vertex 71.5 2.59808 -1
    endloop
  endfacet
  facet normal 0.896936 0.44216 0
    outer loop
      vertex 67.4019 -1.5 1
      vertex 67.2284 -1.14805 -1
      vertex 67.2284 -1.14805 1
    endloop
  endfacet
  facet normal 0.896936 0.44216 0
    outer loop
      vertex 67.2284 -1.14805 -1
      vertex 67.4019 -1.5 1
      vertex 67.4019 -1.5 -1
    endloop
  endfacet
  facet normal -0.321514 -0.946905 0
    outer loop
      vertex 70.7765 2.89778 -1
      vertex 71.148 2.77164 1
      vertex 70.7765 2.89778 1
    endloop
  endfacet
  facet normal -0.321514 -0.946905 -0
    outer loop
      vertex 71.148 2.77164 1
      vertex 70.7765 2.89778 -1
      vertex 71.148 2.77164 -1
    endloop
  endfacet
  facet normal -0.946883 0.321579 0
    outer loop
      vertex 72.7716 -1.14805 -1
      vertex 72.8978 -0.776457 1
      vertex 72.8978 -0.776457 -1
    endloop
  endfacet
  facet normal -0.946883 0.321579 0
    outer loop
      vertex 72.8978 -0.776457 1
      vertex 72.7716 -1.14805 -1
      vertex 72.7716 -1.14805 1
    endloop
  endfacet
  facet normal -0.997853 0.065491 0
    outer loop
      vertex 72.9743 -0.391578 -1
      vertex 73 0 1
      vertex 73 0 -1
    endloop
  endfacet
  facet normal -0.997853 0.065491 0
    outer loop
      vertex 73 0 1
      vertex 72.9743 -0.391578 -1
      vertex 72.9743 -0.391578 1
    endloop
  endfacet
  facet normal -0.896936 -0.44216 0
    outer loop
      vertex 72.7716 1.14805 -1
      vertex 72.5981 1.5 1
      vertex 72.5981 1.5 -1
    endloop
  endfacet
  facet normal -0.896936 -0.44216 0
    outer loop
      vertex 72.5981 1.5 1
      vertex 72.7716 1.14805 -1
      vertex 72.7716 1.14805 1
    endloop
  endfacet
  facet normal -0.659392 0.751799 0
    outer loop
      vertex 72.1213 -2.12132 -1
      vertex 71.8263 -2.38006 1
      vertex 72.1213 -2.12132 1
    endloop
  endfacet
  facet normal -0.659392 0.751799 0
    outer loop
      vertex 71.8263 -2.38006 1
      vertex 72.1213 -2.12132 -1
      vertex 71.8263 -2.38006 -1
    endloop
  endfacet
  facet normal -0.659392 -0.751799 0
    outer loop
      vertex 71.8263 2.38006 -1
      vertex 72.1213 2.12132 1
      vertex 71.8263 2.38006 1
    endloop
  endfacet
  facet normal -0.659392 -0.751799 -0
    outer loop
      vertex 72.1213 2.12132 1
      vertex 71.8263 2.38006 -1
      vertex 72.1213 2.12132 -1
    endloop
  endfacet
  facet normal 0.0654112 -0.997858 0
    outer loop
      vertex 69.6084 2.97433 -1
      vertex 70 3 1
      vertex 69.6084 2.97433 1
    endloop
  endfacet
  facet normal 0.0654112 -0.997858 0
    outer loop
      vertex 70 3 1
      vertex 69.6084 2.97433 -1
      vertex 70 3 -1
    endloop
  endfacet
  facet normal 0.442233 -0.8969 0
    outer loop
      vertex 68.5 2.59808 -1
      vertex 68.852 2.77164 1
      vertex 68.5 2.59808 1
    endloop
  endfacet
  facet normal 0.442233 -0.8969 0
    outer loop
      vertex 68.852 2.77164 1
      vertex 68.5 2.59808 -1
      vertex 68.852 2.77164 -1
    endloop
  endfacet
  facet normal 0.659392 -0.751799 0
    outer loop
      vertex 67.8787 2.12132 -1
      vertex 68.1737 2.38006 1
      vertex 67.8787 2.12132 1
    endloop
  endfacet
  facet normal 0.659392 -0.751799 0
    outer loop
      vertex 68.1737 2.38006 1
      vertex 67.8787 2.12132 -1
      vertex 68.1737 2.38006 -1
    endloop
  endfacet
  facet normal -0.831485 0.555547 0
    outer loop
      vertex 72.3801 -1.82628 -1
      vertex 72.5981 -1.5 1
      vertex 72.5981 -1.5 -1
    endloop
  endfacet
  facet normal -0.831485 0.555547 0
    outer loop
      vertex 72.5981 -1.5 1
      vertex 72.3801 -1.82628 -1
      vertex 72.3801 -1.82628 1
    endloop
  endfacet
  facet normal 0.946883 0.321579 0
    outer loop
      vertex 67.2284 -1.14805 1
      vertex 67.1022 -0.776457 -1
      vertex 67.1022 -0.776457 1
    endloop
  endfacet
  facet normal 0.946883 0.321579 0
    outer loop
      vertex 67.1022 -0.776457 -1
      vertex 67.2284 -1.14805 1
      vertex 67.2284 -1.14805 -1
    endloop
  endfacet
  facet normal 0.946883 -0.321579 0
    outer loop
      vertex 67.1022 0.776457 1
      vertex 67.2284 1.14805 -1
      vertex 67.2284 1.14805 1
    endloop
  endfacet
  facet normal 0.946883 -0.321579 0
    outer loop
      vertex 67.2284 1.14805 -1
      vertex 67.1022 0.776457 1
      vertex 67.1022 0.776457 -1
    endloop
  endfacet
  facet normal -0.896936 0.44216 0
    outer loop
      vertex 72.5981 -1.5 -1
      vertex 72.7716 -1.14805 1
      vertex 72.7716 -1.14805 -1
    endloop
  endfacet
  facet normal -0.896936 0.44216 0
    outer loop
      vertex 72.7716 -1.14805 1
      vertex 72.5981 -1.5 -1
      vertex 72.5981 -1.5 1
    endloop
  endfacet
  facet normal 0.997853 0.065491 0
    outer loop
      vertex 67.0257 -0.391578 1
      vertex 67 0 -1
      vertex 67 0 1
    endloop
  endfacet
  facet normal 0.997853 0.065491 0
    outer loop
      vertex 67 0 -1
      vertex 67.0257 -0.391578 1
      vertex 67.0257 -0.391578 -1
    endloop
  endfacet
  facet normal -0.442233 0.8969 0
    outer loop
      vertex 71.5 -2.59808 -1
      vertex 71.148 -2.77164 1
      vertex 71.5 -2.59808 1
    endloop
  endfacet
  facet normal -0.442233 0.8969 0
    outer loop
      vertex 71.148 -2.77164 1
      vertex 71.5 -2.59808 -1
      vertex 71.148 -2.77164 -1
    endloop
  endfacet
  facet normal -0.0654112 -0.997858 0
    outer loop
      vertex 70 3 -1
      vertex 70.3916 2.97433 1
      vertex 70 3 1
    endloop
  endfacet
  facet normal -0.0654112 -0.997858 -0
    outer loop
      vertex 70.3916 2.97433 1
      vertex 70 3 -1
      vertex 70.3916 2.97433 -1
    endloop
  endfacet
  facet normal 0.442233 0.8969 -0
    outer loop
      vertex 68.852 -2.77164 -1
      vertex 68.5 -2.59808 1
      vertex 68.852 -2.77164 1
    endloop
  endfacet
  facet normal 0.442233 0.8969 0
    outer loop
      vertex 68.5 -2.59808 1
      vertex 68.852 -2.77164 -1
      vertex 68.5 -2.59808 -1
    endloop
  endfacet
  facet normal -0.321514 0.946905 0
    outer loop
      vertex 71.148 -2.77164 -1
      vertex 70.7765 -2.89778 1
      vertex 71.148 -2.77164 1
    endloop
  endfacet
  facet normal -0.321514 0.946905 0
    outer loop
      vertex 70.7765 -2.89778 1
      vertex 71.148 -2.77164 -1
      vertex 70.7765 -2.89778 -1
    endloop
  endfacet
  facet normal 0.980813 -0.19495 0
    outer loop
      vertex 67.0257 0.391578 1
      vertex 67.1022 0.776457 -1
      vertex 67.1022 0.776457 1
    endloop
  endfacet
  facet normal 0.980813 -0.19495 0
    outer loop
      vertex 67.1022 0.776457 -1
      vertex 67.0257 0.391578 1
      vertex 67.0257 0.391578 -1
    endloop
  endfacet
  facet normal 0.751768 0.659428 0
    outer loop
      vertex 67.8787 -2.12132 1
      vertex 67.6199 -1.82628 -1
      vertex 67.6199 -1.82628 1
    endloop
  endfacet
  facet normal 0.751768 0.659428 0
    outer loop
      vertex 67.6199 -1.82628 -1
      vertex 67.8787 -2.12132 1
      vertex 67.8787 -2.12132 -1
    endloop
  endfacet
  facet normal 0.997853 -0.065491 0
    outer loop
      vertex 67 0 1
      vertex 67.0257 0.391578 -1
      vertex 67.0257 0.391578 1
    endloop
  endfacet
  facet normal 0.997853 -0.065491 0
    outer loop
      vertex 67.0257 0.391578 -1
      vertex 67 0 1
      vertex 67 0 -1
    endloop
  endfacet
  facet normal -0.555558 0.831477 0
    outer loop
      vertex 71.8263 -2.38006 -1
      vertex 71.5 -2.59808 1
      vertex 71.8263 -2.38006 1
    endloop
  endfacet
  facet normal -0.555558 0.831477 0
    outer loop
      vertex 71.5 -2.59808 1
      vertex 71.8263 -2.38006 -1
      vertex 71.5 -2.59808 -1
    endloop
  endfacet
  facet normal 0.751768 -0.659428 0
    outer loop
      vertex 67.6199 1.82628 1
      vertex 67.8787 2.12132 -1
      vertex 67.8787 2.12132 1
    endloop
  endfacet
  facet normal 0.751768 -0.659428 0
    outer loop
      vertex 67.8787 2.12132 -1
      vertex 67.6199 1.82628 1
      vertex 67.6199 1.82628 -1
    endloop
  endfacet
  facet normal 0.555558 0.831477 -0
    outer loop
      vertex 68.5 -2.59808 -1
      vertex 68.1737 -2.38006 1
      vertex 68.5 -2.59808 1
    endloop
  endfacet
  facet normal 0.555558 0.831477 0
    outer loop
      vertex 68.1737 -2.38006 1
      vertex 68.5 -2.59808 -1
      vertex 68.1737 -2.38006 -1
    endloop
  endfacet
  facet normal -0.751768 0.659428 0
    outer loop
      vertex 72.1213 -2.12132 -1
      vertex 72.3801 -1.82628 1
      vertex 72.3801 -1.82628 -1
    endloop
  endfacet
  facet normal -0.751768 0.659428 0
    outer loop
      vertex 72.3801 -1.82628 1
      vertex 72.1213 -2.12132 -1
      vertex 72.1213 -2.12132 1
    endloop
  endfacet
  facet normal -0.831485 -0.555547 0
    outer loop
      vertex 72.5981 1.5 -1
      vertex 72.3801 1.82628 1
      vertex 72.3801 1.82628 -1
    endloop
  endfacet
  facet normal -0.831485 -0.555547 0
    outer loop
      vertex 72.3801 1.82628 1
      vertex 72.5981 1.5 -1
      vertex 72.5981 1.5 1
    endloop
  endfacet
  facet normal -0.195062 0.980791 0
    outer loop
      vertex 70.7765 -2.89778 -1
      vertex 70.3916 -2.97433 1
      vertex 70.7765 -2.89778 1
    endloop
  endfacet
  facet normal -0.195062 0.980791 0
    outer loop
      vertex 70.3916 -2.97433 1
      vertex 70.7765 -2.89778 -1
      vertex 70.3916 -2.97433 -1
    endloop
  endfacet
  facet normal -0.555558 -0.831477 0
    outer loop
      vertex 71.5 2.59808 -1
      vertex 71.8263 2.38006 1
      vertex 71.5 2.59808 1
    endloop
  endfacet
  facet normal -0.555558 -0.831477 -0
    outer loop
      vertex 71.8263 2.38006 1
      vertex 71.5 2.59808 -1
      vertex 71.8263 2.38006 -1
    endloop
  endfacet
  facet normal -0.980813 0.19495 0
    outer loop
      vertex 72.8978 -0.776457 -1
      vertex 72.9743 -0.391578 1
      vertex 72.9743 -0.391578 -1
    endloop
  endfacet
  facet normal -0.980813 0.19495 0
    outer loop
      vertex 72.9743 -0.391578 1
      vertex 72.8978 -0.776457 -1
      vertex 72.8978 -0.776457 1
    endloop
  endfacet
  facet normal 0.831485 0.555547 0
    outer loop
      vertex 67.6199 -1.82628 1
      vertex 67.4019 -1.5 -1
      vertex 67.4019 -1.5 1
    endloop
  endfacet
  facet normal 0.831485 0.555547 0
    outer loop
      vertex 67.4019 -1.5 -1
      vertex 67.6199 -1.82628 1
      vertex 67.6199 -1.82628 -1
    endloop
  endfacet
  facet normal 0.195062 -0.980791 0
    outer loop
      vertex 69.2235 2.89778 -1
      vertex 69.6084 2.97433 1
      vertex 69.2235 2.89778 1
    endloop
  endfacet
  facet normal 0.195062 -0.980791 0
    outer loop
      vertex 69.6084 2.97433 1
      vertex 69.2235 2.89778 -1
      vertex 69.6084 2.97433 -1
    endloop
  endfacet
  facet normal -0.0654112 0.997858 0
    outer loop
      vertex 70.3916 -2.97433 -1
      vertex 70 -3 1
      vertex 70.3916 -2.97433 1
    endloop
  endfacet
  facet normal -0.0654112 0.997858 0
    outer loop
      vertex 70 -3 1
      vertex 70.3916 -2.97433 -1
      vertex 70 -3 -1
    endloop
  endfacet
  facet normal 0.980813 0.19495 0
    outer loop
      vertex 67.1022 -0.776457 1
      vertex 67.0257 -0.391578 -1
      vertex 67.0257 -0.391578 1
    endloop
  endfacet
  facet normal 0.980813 0.19495 0
    outer loop
      vertex 67.0257 -0.391578 -1
      vertex 67.1022 -0.776457 1
      vertex 67.1022 -0.776457 -1
    endloop
  endfacet
  facet normal 0.0654112 0.997858 -0
    outer loop
      vertex 70 -3 -1
      vertex 69.6084 -2.97433 1
      vertex 70 -3 1
    endloop
  endfacet
  facet normal 0.0654112 0.997858 0
    outer loop
      vertex 69.6084 -2.97433 1
      vertex 70 -3 -1
      vertex 69.6084 -2.97433 -1
    endloop
  endfacet
  facet normal -0.751768 -0.659428 0
    outer loop
      vertex 72.3801 1.82628 -1
      vertex 72.1213 2.12132 1
      vertex 72.1213 2.12132 -1
    endloop
  endfacet
  facet normal -0.751768 -0.659428 0
    outer loop
      vertex 72.1213 2.12132 1
      vertex 72.3801 1.82628 -1
      vertex 72.3801 1.82628 1
    endloop
  endfacet
  facet normal -0.946883 -0.321579 0
    outer loop
      vertex 72.8978 0.776457 -1
      vertex 72.7716 1.14805 1
      vertex 72.7716 1.14805 -1
    endloop
  endfacet
  facet normal -0.946883 -0.321579 0
    outer loop
      vertex 72.7716 1.14805 1
      vertex 72.8978 0.776457 -1
      vertex 72.8978 0.776457 1
    endloop
  endfacet
  facet normal 0.321514 -0.946905 0
    outer loop
      vertex 68.852 2.77164 -1
      vertex 69.2235 2.89778 1
      vertex 68.852 2.77164 1
    endloop
  endfacet
  facet normal 0.321514 -0.946905 0
    outer loop
      vertex 69.2235 2.89778 1
      vertex 68.852 2.77164 -1
      vertex 69.2235 2.89778 -1
    endloop
  endfacet
  facet normal -0.195062 -0.980791 0
    outer loop
      vertex 70.3916 2.97433 -1
      vertex 70.7765 2.89778 1
      vertex 70.3916 2.97433 1
    endloop
  endfacet
  facet normal -0.195062 -0.980791 -0
    outer loop
      vertex 70.7765 2.89778 1
      vertex 70.3916 2.97433 -1
      vertex 70.7765 2.89778 -1
    endloop
  endfacet
  facet normal 0.831485 -0.555547 0
    outer loop
      vertex 67.4019 1.5 1
      vertex 67.6199 1.82628 -1
      vertex 67.6199 1.82628 1
    endloop
  endfacet
  facet normal 0.831485 -0.555547 0
    outer loop
      vertex 67.6199 1.82628 -1
      vertex 67.4019 1.5 1
      vertex 67.4019 1.5 -1
    endloop
  endfacet
  facet normal 0.321514 0.946905 -0
    outer loop
      vertex 69.2235 -2.89778 -1
      vertex 68.852 -2.77164 1
      vertex 69.2235 -2.89778 1
    endloop
  endfacet
  facet normal 0.321514 0.946905 0
    outer loop
      vertex 68.852 -2.77164 1
      vertex 69.2235 -2.89778 -1
      vertex 68.852 -2.77164 -1
    endloop
  endfacet
  facet normal 0.896936 -0.44216 0
    outer loop
      vertex 67.2284 1.14805 1
      vertex 67.4019 1.5 -1
      vertex 67.4019 1.5 1
    endloop
  endfacet
  facet normal 0.896936 -0.44216 0
    outer loop
      vertex 67.4019 1.5 -1
      vertex 67.2284 1.14805 1
      vertex 67.2284 1.14805 -1
    endloop
  endfacet
  facet normal 0.195062 0.980791 -0
    outer loop
      vertex 69.6084 -2.97433 -1
      vertex 69.2235 -2.89778 1
      vertex 69.6084 -2.97433 1
    endloop
  endfacet
  facet normal 0.195062 0.980791 0
    outer loop
      vertex 69.2235 -2.89778 1
      vertex 69.6084 -2.97433 -1
      vertex 69.2235 -2.89778 -1
    endloop
  endfacet
  facet normal 0.659392 0.751799 -0
    outer loop
      vertex 68.1737 -2.38006 -1
      vertex 67.8787 -2.12132 1
      vertex 68.1737 -2.38006 1
    endloop
  endfacet
  facet normal 0.659392 0.751799 0
    outer loop
      vertex 67.8787 -2.12132 1
      vertex 68.1737 -2.38006 -1
      vertex 67.8787 -2.12132 -1
    endloop
  endfacet
endsolid OpenSCAD_Model
