solid OpenSCAD_Model
  facet normal 0.997859 0.0653972 0
    outer loop
      vertex 46 0 2.5
      vertex 45.6065 6.0042 -2.5
      vertex 45.6065 6.0042 2.5
    endloop
  endfacet
  facet normal 0.997859 0.0653972 0
    outer loop
      vertex 45.6065 6.0042 -2.5
      vertex 46 0 2.5
      vertex 46 0 -2.5
    endloop
  endfacet
  facet normal 0.980785 0.195093 0
    outer loop
      vertex 45.6065 6.0042 2.5
      vertex 44.4326 11.9057 -2.5
      vertex 44.4326 11.9057 2.5
    endloop
  endfacet
  facet normal 0.980785 0.195093 0
    outer loop
      vertex 44.4326 11.9057 -2.5
      vertex 45.6065 6.0042 2.5
      vertex 45.6065 6.0042 -2.5
    endloop
  endfacet
  facet normal 0.946931 0.321438 0
    outer loop
      vertex 44.4326 11.9057 2.5
      vertex 42.4985 17.6034 -2.5
      vertex 42.4985 17.6034 2.5
    endloop
  endfacet
  facet normal 0.946931 0.321438 0
    outer loop
      vertex 42.4985 17.6034 -2.5
      vertex 44.4326 11.9057 2.5
      vertex 44.4326 11.9057 -2.5
    endloop
  endfacet
  facet normal 0.896873 0.442288 0
    outer loop
      vertex 42.4985 17.6034 2.5
      vertex 39.8372 23 -2.5
      vertex 39.8372 23 2.5
    endloop
  endfacet
  facet normal 0.896873 0.442288 0
    outer loop
      vertex 39.8372 23 -2.5
      vertex 42.4985 17.6034 2.5
      vertex 42.4985 17.6034 -2.5
    endloop
  endfacet
  facet normal 0.831469 0.55557 0
    outer loop
      vertex 39.8372 23 2.5
      vertex 36.4943 28.003 -2.5
      vertex 36.4943 28.003 2.5
    endloop
  endfacet
  facet normal 0.831469 0.55557 0
    outer loop
      vertex 36.4943 28.003 -2.5
      vertex 39.8372 23 2.5
      vertex 39.8372 23 -2.5
    endloop
  endfacet
  facet normal 0.751836 0.65935 0
    outer loop
      vertex 36.4943 28.003 2.5
      vertex 32.5269 32.5269 -2.5
      vertex 32.5269 32.5269 2.5
    endloop
  endfacet
  facet normal 0.751836 0.65935 0
    outer loop
      vertex 32.5269 32.5269 -2.5
      vertex 36.4943 28.003 2.5
      vertex 36.4943 28.003 -2.5
    endloop
  endfacet
  facet normal 0.65935 0.751836 -0
    outer loop
      vertex 32.5269 32.5269 -2.5
      vertex 28.003 36.4943 2.5
      vertex 32.5269 32.5269 2.5
    endloop
  endfacet
  facet normal 0.65935 0.751836 0
    outer loop
      vertex 28.003 36.4943 2.5
      vertex 32.5269 32.5269 -2.5
      vertex 28.003 36.4943 -2.5
    endloop
  endfacet
  facet normal 0.55557 0.831469 -0
    outer loop
      vertex 28.003 36.4943 -2.5
      vertex 23 39.8372 2.5
      vertex 28.003 36.4943 2.5
    endloop
  endfacet
  facet normal 0.55557 0.831469 0
    outer loop
      vertex 23 39.8372 2.5
      vertex 28.003 36.4943 -2.5
      vertex 23 39.8372 -2.5
    endloop
  endfacet
  facet normal 0.442288 0.896873 -0
    outer loop
      vertex 23 39.8372 -2.5
      vertex 17.6034 42.4985 2.5
      vertex 23 39.8372 2.5
    endloop
  endfacet
  facet normal 0.442288 0.896873 0
    outer loop
      vertex 17.6034 42.4985 2.5
      vertex 23 39.8372 -2.5
      vertex 17.6034 42.4985 -2.5
    endloop
  endfacet
  facet normal 0.321438 0.946931 -0
    outer loop
      vertex 17.6034 42.4985 -2.5
      vertex 11.9057 44.4326 2.5
      vertex 17.6034 42.4985 2.5
    endloop
  endfacet
  facet normal 0.321438 0.946931 0
    outer loop
      vertex 11.9057 44.4326 2.5
      vertex 17.6034 42.4985 -2.5
      vertex 11.9057 44.4326 -2.5
    endloop
  endfacet
  facet normal 0.195093 0.980785 -0
    outer loop
      vertex 11.9057 44.4326 -2.5
      vertex 6.0042 45.6065 2.5
      vertex 11.9057 44.4326 2.5
    endloop
  endfacet
  facet normal 0.195093 0.980785 0
    outer loop
      vertex 6.0042 45.6065 2.5
      vertex 11.9057 44.4326 -2.5
      vertex 6.0042 45.6065 -2.5
    endloop
  endfacet
  facet normal 0.0653972 0.997859 -0
    outer loop
      vertex 6.0042 45.6065 -2.5
      vertex 0 46 2.5
      vertex 6.0042 45.6065 2.5
    endloop
  endfacet
  facet normal 0.0653972 0.997859 0
    outer loop
      vertex 0 46 2.5
      vertex 6.0042 45.6065 -2.5
      vertex 0 46 -2.5
    endloop
  endfacet
  facet normal -0.0653972 0.997859 0
    outer loop
      vertex 0 46 -2.5
      vertex -6.0042 45.6065 2.5
      vertex 0 46 2.5
    endloop
  endfacet
  facet normal -0.0653972 0.997859 0
    outer loop
      vertex -6.0042 45.6065 2.5
      vertex 0 46 -2.5
      vertex -6.0042 45.6065 -2.5
    endloop
  endfacet
  facet normal -0.195093 0.980785 0
    outer loop
      vertex -6.0042 45.6065 -2.5
      vertex -11.9057 44.4326 2.5
      vertex -6.0042 45.6065 2.5
    endloop
  endfacet
  facet normal -0.195093 0.980785 0
    outer loop
      vertex -11.9057 44.4326 2.5
      vertex -6.0042 45.6065 -2.5
      vertex -11.9057 44.4326 -2.5
    endloop
  endfacet
  facet normal -0.321438 0.946931 0
    outer loop
      vertex -11.9057 44.4326 -2.5
      vertex -17.6034 42.4985 2.5
      vertex -11.9057 44.4326 2.5
    endloop
  endfacet
  facet normal -0.321438 0.946931 0
    outer loop
      vertex -17.6034 42.4985 2.5
      vertex -11.9057 44.4326 -2.5
      vertex -17.6034 42.4985 -2.5
    endloop
  endfacet
  facet normal -0.442288 0.896873 0
    outer loop
      vertex -17.6034 42.4985 -2.5
      vertex -23 39.8372 2.5
      vertex -17.6034 42.4985 2.5
    endloop
  endfacet
  facet normal -0.442288 0.896873 0
    outer loop
      vertex -23 39.8372 2.5
      vertex -17.6034 42.4985 -2.5
      vertex -23 39.8372 -2.5
    endloop
  endfacet
  facet normal -0.55557 0.831469 0
    outer loop
      vertex -23 39.8372 -2.5
      vertex -28.003 36.4943 2.5
      vertex -23 39.8372 2.5
    endloop
  endfacet
  facet normal -0.55557 0.831469 0
    outer loop
      vertex -28.003 36.4943 2.5
      vertex -23 39.8372 -2.5
      vertex -28.003 36.4943 -2.5
    endloop
  endfacet
  facet normal -0.65935 0.751836 0
    outer loop
      vertex -28.003 36.4943 -2.5
      vertex -32.5269 32.5269 2.5
      vertex -28.003 36.4943 2.5
    endloop
  endfacet
  facet normal -0.65935 0.751836 0
    outer loop
      vertex -32.5269 32.5269 2.5
      vertex -28.003 36.4943 -2.5
      vertex -32.5269 32.5269 -2.5
    endloop
  endfacet
  facet normal -0.751836 0.65935 0
    outer loop
      vertex -36.4943 28.003 -2.5
      vertex -32.5269 32.5269 2.5
      vertex -32.5269 32.5269 -2.5
    endloop
  endfacet
  facet normal -0.751836 0.65935 0
    outer loop
      vertex -32.5269 32.5269 2.5
      vertex -36.4943 28.003 -2.5
      vertex -36.4943 28.003 2.5
    endloop
  endfacet
  facet normal -0.831469 0.55557 0
    outer loop
      vertex -39.8372 23 -2.5
      vertex -36.4943 28.003 2.5
      vertex -36.4943 28.003 -2.5
    endloop
  endfacet
  facet normal -0.831469 0.55557 0
    outer loop
      vertex -36.4943 28.003 2.5
      vertex -39.8372 23 -2.5
      vertex -39.8372 23 2.5
    endloop
  endfacet
  facet normal -0.896873 0.442288 0
    outer loop
      vertex -42.4985 17.6034 -2.5
      vertex -39.8372 23 2.5
      vertex -39.8372 23 -2.5
    endloop
  endfacet
  facet normal -0.896873 0.442288 0
    outer loop
      vertex -39.8372 23 2.5
      vertex -42.4985 17.6034 -2.5
      vertex -42.4985 17.6034 2.5
    endloop
  endfacet
  facet normal -0.946931 0.321438 0
    outer loop
      vertex -44.4326 11.9057 -2.5
      vertex -42.4985 17.6034 2.5
      vertex -42.4985 17.6034 -2.5
    endloop
  endfacet
  facet normal -0.946931 0.321438 0
    outer loop
      vertex -42.4985 17.6034 2.5
      vertex -44.4326 11.9057 -2.5
      vertex -44.4326 11.9057 2.5
    endloop
  endfacet
  facet normal -0.980785 0.195093 0
    outer loop
      vertex -45.6065 6.0042 -2.5
      vertex -44.4326 11.9057 2.5
      vertex -44.4326 11.9057 -2.5
    endloop
  endfacet
  facet normal -0.980785 0.195093 0
    outer loop
      vertex -44.4326 11.9057 2.5
      vertex -45.6065 6.0042 -2.5
      vertex -45.6065 6.0042 2.5
    endloop
  endfacet
  facet normal -0.997859 0.0653972 0
    outer loop
      vertex -46 -0 -2.5
      vertex -45.6065 6.0042 2.5
      vertex -45.6065 6.0042 -2.5
    endloop
  endfacet
  facet normal -0.997859 0.0653972 0
    outer loop
      vertex -45.6065 6.0042 2.5
      vertex -46 -0 -2.5
      vertex -46 -0 2.5
    endloop
  endfacet
  facet normal -0.997859 -0.0653972 0
    outer loop
      vertex -45.6065 -6.0042 -2.5
      vertex -46 -0 2.5
      vertex -46 -0 -2.5
    endloop
  endfacet
  facet normal -0.997859 -0.0653972 0
    outer loop
      vertex -46 -0 2.5
      vertex -45.6065 -6.0042 -2.5
      vertex -45.6065 -6.0042 2.5
    endloop
  endfacet
  facet normal -0.980785 -0.195093 0
    outer loop
      vertex -44.4326 -11.9057 -2.5
      vertex -45.6065 -6.0042 2.5
      vertex -45.6065 -6.0042 -2.5
    endloop
  endfacet
  facet normal -0.980785 -0.195093 0
    outer loop
      vertex -45.6065 -6.0042 2.5
      vertex -44.4326 -11.9057 -2.5
      vertex -44.4326 -11.9057 2.5
    endloop
  endfacet
  facet normal -0.946931 -0.321438 0
    outer loop
      vertex -42.4985 -17.6034 -2.5
      vertex -44.4326 -11.9057 2.5
      vertex -44.4326 -11.9057 -2.5
    endloop
  endfacet
  facet normal -0.946931 -0.321438 0
    outer loop
      vertex -44.4326 -11.9057 2.5
      vertex -42.4985 -17.6034 -2.5
      vertex -42.4985 -17.6034 2.5
    endloop
  endfacet
  facet normal -0.896873 -0.442288 0
    outer loop
      vertex -39.8372 -23 -2.5
      vertex -42.4985 -17.6034 2.5
      vertex -42.4985 -17.6034 -2.5
    endloop
  endfacet
  facet normal -0.896873 -0.442288 0
    outer loop
      vertex -42.4985 -17.6034 2.5
      vertex -39.8372 -23 -2.5
      vertex -39.8372 -23 2.5
    endloop
  endfacet
  facet normal -0.831469 -0.55557 0
    outer loop
      vertex -36.4943 -28.003 -2.5
      vertex -39.8372 -23 2.5
      vertex -39.8372 -23 -2.5
    endloop
  endfacet
  facet normal -0.831469 -0.55557 0
    outer loop
      vertex -39.8372 -23 2.5
      vertex -36.4943 -28.003 -2.5
      vertex -36.4943 -28.003 2.5
    endloop
  endfacet
  facet normal -0.751836 -0.65935 0
    outer loop
      vertex -32.5269 -32.5269 -2.5
      vertex -36.4943 -28.003 2.5
      vertex -36.4943 -28.003 -2.5
    endloop
  endfacet
  facet normal -0.751836 -0.65935 0
    outer loop
      vertex -36.4943 -28.003 2.5
      vertex -32.5269 -32.5269 -2.5
      vertex -32.5269 -32.5269 2.5
    endloop
  endfacet
  facet normal -0.65935 -0.751836 0
    outer loop
      vertex -32.5269 -32.5269 -2.5
      vertex -28.003 -36.4943 2.5
      vertex -32.5269 -32.5269 2.5
    endloop
  endfacet
  facet normal -0.65935 -0.751836 -0
    outer loop
      vertex -28.003 -36.4943 2.5
      vertex -32.5269 -32.5269 -2.5
      vertex -28.003 -36.4943 -2.5
    endloop
  endfacet
  facet normal -0.55557 -0.831469 0
    outer loop
      vertex -28.003 -36.4943 -2.5
      vertex -23 -39.8372 2.5
      vertex -28.003 -36.4943 2.5
    endloop
  endfacet
  facet normal -0.55557 -0.831469 -0
    outer loop
      vertex -23 -39.8372 2.5
      vertex -28.003 -36.4943 -2.5
      vertex -23 -39.8372 -2.5
    endloop
  endfacet
  facet normal -0.442288 -0.896873 0
    outer loop
      vertex -23 -39.8372 -2.5
      vertex -17.6034 -42.4985 2.5
      vertex -23 -39.8372 2.5
    endloop
  endfacet
  facet normal -0.442288 -0.896873 -0
    outer loop
      vertex -17.6034 -42.4985 2.5
      vertex -23 -39.8372 -2.5
      vertex -17.6034 -42.4985 -2.5
    endloop
  endfacet
  facet normal -0.321438 -0.946931 0
    outer loop
      vertex -17.6034 -42.4985 -2.5
      vertex -11.9057 -44.4326 2.5
      vertex -17.6034 -42.4985 2.5
    endloop
  endfacet
  facet normal -0.321438 -0.946931 -0
    outer loop
      vertex -11.9057 -44.4326 2.5
      vertex -17.6034 -42.4985 -2.5
      vertex -11.9057 -44.4326 -2.5
    endloop
  endfacet
  facet normal -0.195093 -0.980785 0
    outer loop
      vertex -11.9057 -44.4326 -2.5
      vertex -6.0042 -45.6065 2.5
      vertex -11.9057 -44.4326 2.5
    endloop
  endfacet
  facet normal -0.195093 -0.980785 -0
    outer loop
      vertex -6.0042 -45.6065 2.5
      vertex -11.9057 -44.4326 -2.5
      vertex -6.0042 -45.6065 -2.5
    endloop
  endfacet
  facet normal -0.0653972 -0.997859 0
    outer loop
      vertex -6.0042 -45.6065 -2.5
      vertex -0 -46 2.5
      vertex -6.0042 -45.6065 2.5
    endloop
  endfacet
  facet normal -0.0653972 -0.997859 -0
    outer loop
      vertex -0 -46 2.5
      vertex -6.0042 -45.6065 -2.5
      vertex -0 -46 -2.5
    endloop
  endfacet
  facet normal 0.0653972 -0.997859 0
    outer loop
      vertex -0 -46 -2.5
      vertex 6.0042 -45.6065 2.5
      vertex -0 -46 2.5
    endloop
  endfacet
  facet normal 0.0653972 -0.997859 0
    outer loop
      vertex 6.0042 -45.6065 2.5
      vertex -0 -46 -2.5
      vertex 6.0042 -45.6065 -2.5
    endloop
  endfacet
  facet normal 0.195093 -0.980785 0
    outer loop
      vertex 6.0042 -45.6065 -2.5
      vertex 11.9057 -44.4326 2.5
      vertex 6.0042 -45.6065 2.5
    endloop
  endfacet
  facet normal 0.195093 -0.980785 0
    outer loop
      vertex 11.9057 -44.4326 2.5
      vertex 6.0042 -45.6065 -2.5
      vertex 11.9057 -44.4326 -2.5
    endloop
  endfacet
  facet normal 0.321438 -0.946931 0
    outer loop
      vertex 11.9057 -44.4326 -2.5
      vertex 17.6034 -42.4985 2.5
      vertex 11.9057 -44.4326 2.5
    endloop
  endfacet
  facet normal 0.321438 -0.946931 0
    outer loop
      vertex 17.6034 -42.4985 2.5
      vertex 11.9057 -44.4326 -2.5
      vertex 17.6034 -42.4985 -2.5
    endloop
  endfacet
  facet normal 0.442288 -0.896873 0
    outer loop
      vertex 17.6034 -42.4985 -2.5
      vertex 23 -39.8372 2.5
      vertex 17.6034 -42.4985 2.5
    endloop
  endfacet
  facet normal 0.442288 -0.896873 0
    outer loop
      vertex 23 -39.8372 2.5
      vertex 17.6034 -42.4985 -2.5
      vertex 23 -39.8372 -2.5
    endloop
  endfacet
  facet normal 0.55557 -0.831469 0
    outer loop
      vertex 23 -39.8372 -2.5
      vertex 28.003 -36.4943 2.5
      vertex 23 -39.8372 2.5
    endloop
  endfacet
  facet normal 0.55557 -0.831469 0
    outer loop
      vertex 28.003 -36.4943 2.5
      vertex 23 -39.8372 -2.5
      vertex 28.003 -36.4943 -2.5
    endloop
  endfacet
  facet normal 0.65935 -0.751836 0
    outer loop
      vertex 28.003 -36.4943 -2.5
      vertex 32.5269 -32.5269 2.5
      vertex 28.003 -36.4943 2.5
    endloop
  endfacet
  facet normal 0.65935 -0.751836 0
    outer loop
      vertex 32.5269 -32.5269 2.5
      vertex 28.003 -36.4943 -2.5
      vertex 32.5269 -32.5269 -2.5
    endloop
  endfacet
  facet normal 0.751836 -0.65935 0
    outer loop
      vertex 32.5269 -32.5269 2.5
      vertex 36.4943 -28.003 -2.5
      vertex 36.4943 -28.003 2.5
    endloop
  endfacet
  facet normal 0.751836 -0.65935 0
    outer loop
      vertex 36.4943 -28.003 -2.5
      vertex 32.5269 -32.5269 2.5
      vertex 32.5269 -32.5269 -2.5
    endloop
  endfacet
  facet normal 0.831469 -0.55557 0
    outer loop
      vertex 36.4943 -28.003 2.5
      vertex 39.8372 -23 -2.5
      vertex 39.8372 -23 2.5
    endloop
  endfacet
  facet normal 0.831469 -0.55557 0
    outer loop
      vertex 39.8372 -23 -2.5
      vertex 36.4943 -28.003 2.5
      vertex 36.4943 -28.003 -2.5
    endloop
  endfacet
  facet normal 0.896873 -0.442288 0
    outer loop
      vertex 39.8372 -23 2.5
      vertex 42.4985 -17.6034 -2.5
      vertex 42.4985 -17.6034 2.5
    endloop
  endfacet
  facet normal 0.896873 -0.442288 0
    outer loop
      vertex 42.4985 -17.6034 -2.5
      vertex 39.8372 -23 2.5
      vertex 39.8372 -23 -2.5
    endloop
  endfacet
  facet normal 0.946931 -0.321438 0
    outer loop
      vertex 42.4985 -17.6034 2.5
      vertex 44.4326 -11.9057 -2.5
      vertex 44.4326 -11.9057 2.5
    endloop
  endfacet
  facet normal 0.946931 -0.321438 0
    outer loop
      vertex 44.4326 -11.9057 -2.5
      vertex 42.4985 -17.6034 2.5
      vertex 42.4985 -17.6034 -2.5
    endloop
  endfacet
  facet normal 0.980785 -0.195093 0
    outer loop
      vertex 44.4326 -11.9057 2.5
      vertex 45.6065 -6.0042 -2.5
      vertex 45.6065 -6.0042 2.5
    endloop
  endfacet
  facet normal 0.980785 -0.195093 0
    outer loop
      vertex 45.6065 -6.0042 -2.5
      vertex 44.4326 -11.9057 2.5
      vertex 44.4326 -11.9057 -2.5
    endloop
  endfacet
  facet normal 0.997859 -0.0653972 0
    outer loop
      vertex 45.6065 -6.0042 2.5
      vertex 46 0 -2.5
      vertex 46 0 2.5
    endloop
  endfacet
  facet normal 0.997859 -0.0653972 0
    outer loop
      vertex 46 0 -2.5
      vertex 45.6065 -6.0042 2.5
      vertex 45.6065 -6.0042 -2.5
    endloop
  endfacet
  facet normal 0 0 -1
    outer loop
      vertex 45.6065 -6.0042 -2.5
      vertex 45.6065 6.0042 -2.5
      vertex 46 0 -2.5
    endloop
  endfacet
  facet normal 0 0 -1
    outer loop
      vertex 44.4326 -11.9057 -2.5
      vertex 45.6065 6.0042 -2.5
      vertex 45.6065 -6.0042 -2.5
    endloop
  endfacet
  facet normal 0 0 -1
    outer loop
      vertex 44.4326 -11.9057 -2.5
      vertex 44.4326 11.9057 -2.5
      vertex 45.6065 6.0042 -2.5
    endloop
  endfacet
  facet normal 0 0 -1
    outer loop
      vertex 42.4985 -17.6034 -2.5
      vertex 44.4326 11.9057 -2.5
      vertex 44.4326 -11.9057 -2.5
    endloop
  endfacet
  facet normal 0 0 -1
    outer loop
      vertex 42.4985 -17.6034 -2.5
      vertex 42.4985 17.6034 -2.5
      vertex 44.4326 11.9057 -2.5
    endloop
  endfacet
  facet normal 0 0 -1
    outer loop
      vertex 39.8372 -23 -2.5
      vertex 42.4985 17.6034 -2.5
      vertex 42.4985 -17.6034 -2.5
    endloop
  endfacet
  facet normal 0 0 -1
    outer loop
      vertex 39.8372 -23 -2.5
      vertex 39.8372 23 -2.5
      vertex 42.4985 17.6034 -2.5
    endloop
  endfacet
  facet normal 0 0 -1
    outer loop
      vertex 36.4943 -28.003 -2.5
      vertex 39.8372 23 -2.5
      vertex 39.8372 -23 -2.5
    endloop
  endfacet
  facet normal 0 0 -1
    outer loop
      vertex 36.4943 -28.003 -2.5
      vertex 36.4943 28.003 -2.5
      vertex 39.8372 23 -2.5
    endloop
  endfacet
  facet normal 0 0 -1
    outer loop
      vertex 32.5269 -32.5269 -2.5
      vertex 36.4943 28.003 -2.5
      vertex 36.4943 -28.003 -2.5
    endloop
  endfacet
  facet normal 0 0 -1
    outer loop
      vertex 32.5269 -32.5269 -2.5
      vertex 32.5269 32.5269 -2.5
      vertex 36.4943 28.003 -2.5
    endloop
  endfacet
  facet normal 0 0 -1
    outer loop
      vertex 28.003 -36.4943 -2.5
      vertex 32.5269 32.5269 -2.5
      vertex 32.5269 -32.5269 -2.5
    endloop
  endfacet
  facet normal 0 0 -1
    outer loop
      vertex 28.003 -36.4943 -2.5
      vertex 28.003 36.4943 -2.5
      vertex 32.5269 32.5269 -2.5
    endloop
  endfacet
  facet normal 0 0 -1
    outer loop
      vertex 23 -39.8372 -2.5
      vertex 28.003 36.4943 -2.5
      vertex 28.003 -36.4943 -2.5
    endloop
  endfacet
  facet normal 0 0 -1
    outer loop
      vertex 23 -39.8372 -2.5
      vertex 23 39.8372 -2.5
      vertex 28.003 36.4943 -2.5
    endloop
  endfacet
  facet normal 0 0 -1
    outer loop
      vertex 17.6034 -42.4985 -2.5
      vertex 23 39.8372 -2.5
      vertex 23 -39.8372 -2.5
    endloop
  endfacet
  facet normal 0 0 -1
    outer loop
      vertex 17.6034 -42.4985 -2.5
      vertex 17.6034 42.4985 -2.5
      vertex 23 39.8372 -2.5
    endloop
  endfacet
  facet normal 0 0 -1
    outer loop
      vertex 11.9057 -44.4326 -2.5
      vertex 17.6034 42.4985 -2.5
      vertex 17.6034 -42.4985 -2.5
    endloop
  endfacet
  facet normal 0 0 -1
    outer loop
      vertex 11.9057 -44.4326 -2.5
      vertex 11.9057 44.4326 -2.5
      vertex 17.6034 42.4985 -2.5
    endloop
  endfacet
  facet normal 0 0 -1
    outer loop
      vertex 6.0042 -45.6065 -2.5
      vertex 11.9057 44.4326 -2.5
      vertex 11.9057 -44.4326 -2.5
    endloop
  endfacet
  facet normal 0 0 -1
    outer loop
      vertex 6.0042 -45.6065 -2.5
      vertex 6.0042 45.6065 -2.5
      vertex 11.9057 44.4326 -2.5
    endloop
  endfacet
  facet normal 0 0 -1
    outer loop
      vertex -0 -46 -2.5
      vertex 6.0042 45.6065 -2.5
      vertex 6.0042 -45.6065 -2.5
    endloop
  endfacet
  facet normal 0 0 -1
    outer loop
      vertex -0 -46 -2.5
      vertex 0 46 -2.5
      vertex 6.0042 45.6065 -2.5
    endloop
  endfacet
  facet normal 0 0 -1
    outer loop
      vertex -6.0042 -45.6065 -2.5
      vertex 0 46 -2.5
      vertex -0 -46 -2.5
    endloop
  endfacet
  facet normal 0 0 -1
    outer loop
      vertex -6.0042 -45.6065 -2.5
      vertex -6.0042 45.6065 -2.5
      vertex 0 46 -2.5
    endloop
  endfacet
  facet normal 0 0 -1
    outer loop
      vertex -11.9057 -44.4326 -2.5
      vertex -6.0042 45.6065 -2.5
      vertex -6.0042 -45.6065 -2.5
    endloop
  endfacet
  facet normal 0 0 -1
    outer loop
      vertex -11.9057 -44.4326 -2.5
      vertex -11.9057 44.4326 -2.5
      vertex -6.0042 45.6065 -2.5
    endloop
  endfacet
  facet normal 0 0 -1
    outer loop
      vertex -17.6034 -42.4985 -2.5
      vertex -11.9057 44.4326 -2.5
      vertex -11.9057 -44.4326 -2.5
    endloop
  endfacet
  facet normal 0 0 -1
    outer loop
      vertex -17.6034 -42.4985 -2.5
      vertex -17.6034 42.4985 -2.5
      vertex -11.9057 44.4326 -2.5
    endloop
  endfacet
  facet normal 0 0 -1
    outer loop
      vertex -23 -39.8372 -2.5
      vertex -17.6034 42.4985 -2.5
      vertex -17.6034 -42.4985 -2.5
    endloop
  endfacet
  facet normal 0 0 -1
    outer loop
      vertex -23 -39.8372 -2.5
      vertex -23 39.8372 -2.5
      vertex -17.6034 42.4985 -2.5
    endloop
  endfacet
  facet normal 0 0 -1
    outer loop
      vertex -28.003 -36.4943 -2.5
      vertex -23 39.8372 -2.5
      vertex -23 -39.8372 -2.5
    endloop
  endfacet
  facet normal 0 0 -1
    outer loop
      vertex -28.003 -36.4943 -2.5
      vertex -28.003 36.4943 -2.5
      vertex -23 39.8372 -2.5
    endloop
  endfacet
  facet normal 0 0 -1
    outer loop
      vertex -32.5269 -32.5269 -2.5
      vertex -28.003 36.4943 -2.5
      vertex -28.003 -36.4943 -2.5
    endloop
  endfacet
  facet normal 0 0 -1
    outer loop
      vertex -32.5269 -32.5269 -2.5
      vertex -32.5269 32.5269 -2.5
      vertex -28.003 36.4943 -2.5
    endloop
  endfacet
  facet normal 0 0 -1
    outer loop
      vertex -36.4943 -28.003 -2.5
      vertex -32.5269 32.5269 -2.5
      vertex -32.5269 -32.5269 -2.5
    endloop
  endfacet
  facet normal 0 0 -1
    outer loop
      vertex -36.4943 -28.003 -2.5
      vertex -36.4943 28.003 -2.5
      vertex -32.5269 32.5269 -2.5
    endloop
  endfacet
  facet normal 0 0 -1
    outer loop
      vertex -39.8372 -23 -2.5
      vertex -36.4943 28.003 -2.5
      vertex -36.4943 -28.003 -2.5
    endloop
  endfacet
  facet normal 0 0 -1
    outer loop
      vertex -39.8372 -23 -2.5
      vertex -39.8372 23 -2.5
      vertex -36.4943 28.003 -2.5
    endloop
  endfacet
  facet normal 0 0 -1
    outer loop
      vertex -42.4985 -17.6034 -2.5
      vertex -39.8372 23 -2.5
      vertex -39.8372 -23 -2.5
    endloop
  endfacet
  facet normal 0 0 -1
    outer loop
      vertex -42.4985 -17.6034 -2.5
      vertex -42.4985 17.6034 -2.5
      vertex -39.8372 23 -2.5
    endloop
  endfacet
  facet normal 0 0 -1
    outer loop
      vertex -44.4326 -11.9057 -2.5
      vertex -42.4985 17.6034 -2.5
      vertex -42.4985 -17.6034 -2.5
    endloop
  endfacet
  facet normal 0 0 -1
    outer loop
      vertex -44.4326 -11.9057 -2.5
      vertex -44.4326 11.9057 -2.5
      vertex -42.4985 17.6034 -2.5
    endloop
  endfacet
  facet normal 0 0 -1
    outer loop
      vertex -45.6065 -6.0042 -2.5
      vertex -44.4326 11.9057 -2.5
      vertex -44.4326 -11.9057 -2.5
    endloop
  endfacet
  facet normal 0 0 -1
    outer loop
      vertex -45.6065 -6.0042 -2.5
      vertex -45.6065 6.0042 -2.5
      vertex -44.4326 11.9057 -2.5
    endloop
  endfacet
  facet normal 0 -0 -1
    outer loop
      vertex -45.6065 6.0042 -2.5
      vertex -45.6065 -6.0042 -2.5
      vertex -46 -0 -2.5
    endloop
  endfacet
  facet normal 0 0 1
    outer loop
      vertex 45.6065 6.0042 2.5
      vertex 45.6065 -6.0042 2.5
      vertex 46 0 2.5
    endloop
  endfacet
  facet normal 0 0 1
    outer loop
      vertex 44.4326 11.9057 2.5
      vertex 45.6065 -6.0042 2.5
      vertex 45.6065 6.0042 2.5
    endloop
  endfacet
  facet normal 0 0 1
    outer loop
      vertex 44.4326 11.9057 2.5
      vertex 44.4326 -11.9057 2.5
      vertex 45.6065 -6.0042 2.5
    endloop
  endfacet
  facet normal 0 0 1
    outer loop
      vertex 42.4985 17.6034 2.5
      vertex 44.4326 -11.9057 2.5
      vertex 44.4326 11.9057 2.5
    endloop
  endfacet
  facet normal 0 0 1
    outer loop
      vertex 42.4985 17.6034 2.5
      vertex 42.4985 -17.6034 2.5
      vertex 44.4326 -11.9057 2.5
    endloop
  endfacet
  facet normal 0 0 1
    outer loop
      vertex 39.8372 23 2.5
      vertex 42.4985 -17.6034 2.5
      vertex 42.4985 17.6034 2.5
    endloop
  endfacet
  facet normal 0 0 1
    outer loop
      vertex 39.8372 23 2.5
      vertex 39.8372 -23 2.5
      vertex 42.4985 -17.6034 2.5
    endloop
  endfacet
  facet normal 0 0 1
    outer loop
      vertex 36.4943 28.003 2.5
      vertex 39.8372 -23 2.5
      vertex 39.8372 23 2.5
    endloop
  endfacet
  facet normal 0 0 1
    outer loop
      vertex 36.4943 28.003 2.5
      vertex 36.4943 -28.003 2.5
      vertex 39.8372 -23 2.5
    endloop
  endfacet
  facet normal 0 0 1
    outer loop
      vertex 32.5269 32.5269 2.5
      vertex 36.4943 -28.003 2.5
      vertex 36.4943 28.003 2.5
    endloop
  endfacet
  facet normal 0 0 1
    outer loop
      vertex 32.5269 32.5269 2.5
      vertex 32.5269 -32.5269 2.5
      vertex 36.4943 -28.003 2.5
    endloop
  endfacet
  facet normal 0 0 1
    outer loop
      vertex 28.003 36.4943 2.5
      vertex 32.5269 -32.5269 2.5
      vertex 32.5269 32.5269 2.5
    endloop
  endfacet
  facet normal 0 0 1
    outer loop
      vertex 28.003 36.4943 2.5
      vertex 28.003 -36.4943 2.5
      vertex 32.5269 -32.5269 2.5
    endloop
  endfacet
  facet normal 0 0 1
    outer loop
      vertex 23 39.8372 2.5
      vertex 28.003 -36.4943 2.5
      vertex 28.003 36.4943 2.5
    endloop
  endfacet
  facet normal 0 0 1
    outer loop
      vertex 23 39.8372 2.5
      vertex 23 -39.8372 2.5
      vertex 28.003 -36.4943 2.5
    endloop
  endfacet
  facet normal 0 0 1
    outer loop
      vertex 17.6034 42.4985 2.5
      vertex 23 -39.8372 2.5
      vertex 23 39.8372 2.5
    endloop
  endfacet
  facet normal 0 0 1
    outer loop
      vertex 17.6034 42.4985 2.5
      vertex 17.6034 -42.4985 2.5
      vertex 23 -39.8372 2.5
    endloop
  endfacet
  facet normal 0 0 1
    outer loop
      vertex 11.9057 44.4326 2.5
      vertex 17.6034 -42.4985 2.5
      vertex 17.6034 42.4985 2.5
    endloop
  endfacet
  facet normal 0 0 1
    outer loop
      vertex 11.9057 44.4326 2.5
      vertex 11.9057 -44.4326 2.5
      vertex 17.6034 -42.4985 2.5
    endloop
  endfacet
  facet normal 0 0 1
    outer loop
      vertex 6.0042 45.6065 2.5
      vertex 11.9057 -44.4326 2.5
      vertex 11.9057 44.4326 2.5
    endloop
  endfacet
  facet normal 0 0 1
    outer loop
      vertex 6.0042 45.6065 2.5
      vertex 6.0042 -45.6065 2.5
      vertex 11.9057 -44.4326 2.5
    endloop
  endfacet
  facet normal 0 0 1
    outer loop
      vertex 0 46 2.5
      vertex 6.0042 -45.6065 2.5
      vertex 6.0042 45.6065 2.5
    endloop
  endfacet
  facet normal 0 0 1
    outer loop
      vertex 0 46 2.5
      vertex -0 -46 2.5
      vertex 6.0042 -45.6065 2.5
    endloop
  endfacet
  facet normal -0 0 1
    outer loop
      vertex -6.0042 45.6065 2.5
      vertex -0 -46 2.5
      vertex 0 46 2.5
    endloop
  endfacet
  facet normal 0 0 1
    outer loop
      vertex -6.0042 45.6065 2.5
      vertex -6.0042 -45.6065 2.5
      vertex -0 -46 2.5
    endloop
  endfacet
  facet normal -0 0 1
    outer loop
      vertex -11.9057 44.4326 2.5
      vertex -6.0042 -45.6065 2.5
      vertex -6.0042 45.6065 2.5
    endloop
  endfacet
  facet normal 0 0 1
    outer loop
      vertex -11.9057 44.4326 2.5
      vertex -11.9057 -44.4326 2.5
      vertex -6.0042 -45.6065 2.5
    endloop
  endfacet
  facet normal -0 0 1
    outer loop
      vertex -17.6034 42.4985 2.5
      vertex -11.9057 -44.4326 2.5
      vertex -11.9057 44.4326 2.5
    endloop
  endfacet
  facet normal 0 0 1
    outer loop
      vertex -17.6034 42.4985 2.5
      vertex -17.6034 -42.4985 2.5
      vertex -11.9057 -44.4326 2.5
    endloop
  endfacet
  facet normal -0 0 1
    outer loop
      vertex -23 39.8372 2.5
      vertex -17.6034 -42.4985 2.5
      vertex -17.6034 42.4985 2.5
    endloop
  endfacet
  facet normal 0 0 1
    outer loop
      vertex -23 39.8372 2.5
      vertex -23 -39.8372 2.5
      vertex -17.6034 -42.4985 2.5
    endloop
  endfacet
  facet normal -0 0 1
    outer loop
      vertex -28.003 36.4943 2.5
      vertex -23 -39.8372 2.5
      vertex -23 39.8372 2.5
    endloop
  endfacet
  facet normal 0 0 1
    outer loop
      vertex -28.003 36.4943 2.5
      vertex -28.003 -36.4943 2.5
      vertex -23 -39.8372 2.5
    endloop
  endfacet
  facet normal -0 0 1
    outer loop
      vertex -32.5269 32.5269 2.5
      vertex -28.003 -36.4943 2.5
      vertex -28.003 36.4943 2.5
    endloop
  endfacet
  facet normal 0 0 1
    outer loop
      vertex -32.5269 32.5269 2.5
      vertex -32.5269 -32.5269 2.5
      vertex -28.003 -36.4943 2.5
    endloop
  endfacet
  facet normal -0 0 1
    outer loop
      vertex -36.4943 28.003 2.5
      vertex -32.5269 -32.5269 2.5
      vertex -32.5269 32.5269 2.5
    endloop
  endfacet
  facet normal 0 0 1
    outer loop
      vertex -36.4943 28.003 2.5
      vertex -36.4943 -28.003 2.5
      vertex -32.5269 -32.5269 2.5
    endloop
  endfacet
  facet normal -0 0 1
    outer loop
      vertex -39.8372 23 2.5
      vertex -36.4943 -28.003 2.5
      vertex -36.4943 28.003 2.5
    endloop
  endfacet
  facet normal 0 0 1
    outer loop
      vertex -39.8372 23 2.5
      vertex -39.8372 -23 2.5
      vertex -36.4943 -28.003 2.5
    endloop
  endfacet
  facet normal -0 0 1
    outer loop
      vertex -42.4985 17.6034 2.5
      vertex -39.8372 -23 2.5
      vertex -39.8372 23 2.5
    endloop
  endfacet
  facet normal 0 0 1
    outer loop
      vertex -42.4985 17.6034 2.5
      vertex -42.4985 -17.6034 2.5
      vertex -39.8372 -23 2.5
    endloop
  endfacet
  facet normal -0 0 1
    outer loop
      vertex -44.4326 11.9057 2.5
      vertex -42.4985 -17.6034 2.5
      vertex -42.4985 17.6034 2.5
    endloop
  endfacet
  facet normal 0 0 1
    outer loop
      vertex -44.4326 11.9057 2.5
      vertex -44.4326 -11.9057 2.5
      vertex -42.4985 -17.6034 2.5
    endloop
  endfacet
  facet normal -0 0 1
    outer loop
      vertex -45.6065 6.0042 2.5
      vertex -44.4326 -11.9057 2.5
      vertex -44.4326 11.9057 2.5
    endloop
  endfacet
  facet normal 0 0 1
    outer loop
      vertex -45.6065 6.0042 2.5
      vertex -45.6065 -6.0042 2.5
      vertex -44.4326 -11.9057 2.5
    endloop
  endfacet
  facet normal 0 -0 1
    outer loop
      vertex -45.6065 -6.0042 2.5
      vertex -45.6065 6.0042 2.5
      vertex -46 -0 2.5
    endloop
  endfacet
endsolid OpenSCAD_Model
