solid OpenSCAD_Model
  facet normal 0.997859 0.0653985 0
    outer loop
      vertex 22 0 2.5
      vertex 21.8118 2.87158 -2.5
      vertex 21.8118 2.87158 2.5
    endloop
  endfacet
  facet normal 0.997859 0.0653985 0
    outer loop
      vertex 21.8118 2.87158 -2.5
      vertex 22 0 2.5
      vertex 22 0 -2.5
    endloop
  endfacet
  facet normal 0.980786 0.195084 0
    outer loop
      vertex 21.8118 2.87158 2.5
      vertex 21.2504 5.69402 -2.5
      vertex 21.2504 5.69402 2.5
    endloop
  endfacet
  facet normal 0.980786 0.195084 0
    outer loop
      vertex 21.2504 5.69402 -2.5
      vertex 21.8118 2.87158 2.5
      vertex 21.8118 2.87158 -2.5
    endloop
  endfacet
  facet normal 0.946922 0.321465 0
    outer loop
      vertex 21.2504 5.69402 2.5
      vertex 20.3253 8.41904 -2.5
      vertex 20.3253 8.41904 2.5
    endloop
  endfacet
  facet normal 0.946922 0.321465 0
    outer loop
      vertex 20.3253 8.41904 -2.5
      vertex 21.2504 5.69402 2.5
      vertex 21.2504 5.69402 -2.5
    endloop
  endfacet
  facet normal 0.896885 0.442264 0
    outer loop
      vertex 20.3253 8.41904 2.5
      vertex 19.0526 11 -2.5
      vertex 19.0526 11 2.5
    endloop
  endfacet
  facet normal 0.896885 0.442264 0
    outer loop
      vertex 19.0526 11 -2.5
      vertex 20.3253 8.41904 2.5
      vertex 20.3253 8.41904 -2.5
    endloop
  endfacet
  facet normal 0.831472 0.555566 0
    outer loop
      vertex 19.0526 11 2.5
      vertex 17.4538 13.3928 -2.5
      vertex 17.4538 13.3928 2.5
    endloop
  endfacet
  facet normal 0.831472 0.555566 0
    outer loop
      vertex 17.4538 13.3928 -2.5
      vertex 19.0526 11 2.5
      vertex 19.0526 11 -2.5
    endloop
  endfacet
  facet normal 0.751812 0.659378 0
    outer loop
      vertex 17.4538 13.3928 2.5
      vertex 15.5563 15.5563 -2.5
      vertex 15.5563 15.5563 2.5
    endloop
  endfacet
  facet normal 0.751812 0.659378 0
    outer loop
      vertex 15.5563 15.5563 -2.5
      vertex 17.4538 13.3928 2.5
      vertex 17.4538 13.3928 -2.5
    endloop
  endfacet
  facet normal 0.659378 0.751812 -0
    outer loop
      vertex 15.5563 15.5563 -2.5
      vertex 13.3928 17.4538 2.5
      vertex 15.5563 15.5563 2.5
    endloop
  endfacet
  facet normal 0.659378 0.751812 0
    outer loop
      vertex 13.3928 17.4538 2.5
      vertex 15.5563 15.5563 -2.5
      vertex 13.3928 17.4538 -2.5
    endloop
  endfacet
  facet normal 0.555566 0.831472 -0
    outer loop
      vertex 13.3928 17.4538 -2.5
      vertex 11 19.0526 2.5
      vertex 13.3928 17.4538 2.5
    endloop
  endfacet
  facet normal 0.555566 0.831472 0
    outer loop
      vertex 11 19.0526 2.5
      vertex 13.3928 17.4538 -2.5
      vertex 11 19.0526 -2.5
    endloop
  endfacet
  facet normal 0.442264 0.896885 -0
    outer loop
      vertex 11 19.0526 -2.5
      vertex 8.41904 20.3253 2.5
      vertex 11 19.0526 2.5
    endloop
  endfacet
  facet normal 0.442264 0.896885 0
    outer loop
      vertex 8.41904 20.3253 2.5
      vertex 11 19.0526 -2.5
      vertex 8.41904 20.3253 -2.5
    endloop
  endfacet
  facet normal 0.321465 0.946922 -0
    outer loop
      vertex 8.41904 20.3253 -2.5
      vertex 5.69402 21.2504 2.5
      vertex 8.41904 20.3253 2.5
    endloop
  endfacet
  facet normal 0.321465 0.946922 0
    outer loop
      vertex 5.69402 21.2504 2.5
      vertex 8.41904 20.3253 -2.5
      vertex 5.69402 21.2504 -2.5
    endloop
  endfacet
  facet normal 0.195084 0.980786 -0
    outer loop
      vertex 5.69402 21.2504 -2.5
      vertex 2.87158 21.8118 2.5
      vertex 5.69402 21.2504 2.5
    endloop
  endfacet
  facet normal 0.195084 0.980786 0
    outer loop
      vertex 2.87158 21.8118 2.5
      vertex 5.69402 21.2504 -2.5
      vertex 2.87158 21.8118 -2.5
    endloop
  endfacet
  facet normal 0.0653985 0.997859 -0
    outer loop
      vertex 2.87158 21.8118 -2.5
      vertex 0 22 2.5
      vertex 2.87158 21.8118 2.5
    endloop
  endfacet
  facet normal 0.0653985 0.997859 0
    outer loop
      vertex 0 22 2.5
      vertex 2.87158 21.8118 -2.5
      vertex 0 22 -2.5
    endloop
  endfacet
  facet normal -0.0653985 0.997859 0
    outer loop
      vertex 0 22 -2.5
      vertex -2.87158 21.8118 2.5
      vertex 0 22 2.5
    endloop
  endfacet
  facet normal -0.0653985 0.997859 0
    outer loop
      vertex -2.87158 21.8118 2.5
      vertex 0 22 -2.5
      vertex -2.87158 21.8118 -2.5
    endloop
  endfacet
  facet normal -0.195084 0.980786 0
    outer loop
      vertex -2.87158 21.8118 -2.5
      vertex -5.69402 21.2504 2.5
      vertex -2.87158 21.8118 2.5
    endloop
  endfacet
  facet normal -0.195084 0.980786 0
    outer loop
      vertex -5.69402 21.2504 2.5
      vertex -2.87158 21.8118 -2.5
      vertex -5.69402 21.2504 -2.5
    endloop
  endfacet
  facet normal -0.321465 0.946922 0
    outer loop
      vertex -5.69402 21.2504 -2.5
      vertex -8.41904 20.3253 2.5
      vertex -5.69402 21.2504 2.5
    endloop
  endfacet
  facet normal -0.321465 0.946922 0
    outer loop
      vertex -8.41904 20.3253 2.5
      vertex -5.69402 21.2504 -2.5
      vertex -8.41904 20.3253 -2.5
    endloop
  endfacet
  facet normal -0.442264 0.896885 0
    outer loop
      vertex -8.41904 20.3253 -2.5
      vertex -11 19.0526 2.5
      vertex -8.41904 20.3253 2.5
    endloop
  endfacet
  facet normal -0.442264 0.896885 0
    outer loop
      vertex -11 19.0526 2.5
      vertex -8.41904 20.3253 -2.5
      vertex -11 19.0526 -2.5
    endloop
  endfacet
  facet normal -0.555566 0.831472 0
    outer loop
      vertex -11 19.0526 -2.5
      vertex -13.3928 17.4538 2.5
      vertex -11 19.0526 2.5
    endloop
  endfacet
  facet normal -0.555566 0.831472 0
    outer loop
      vertex -13.3928 17.4538 2.5
      vertex -11 19.0526 -2.5
      vertex -13.3928 17.4538 -2.5
    endloop
  endfacet
  facet normal -0.659378 0.751812 0
    outer loop
      vertex -13.3928 17.4538 -2.5
      vertex -15.5563 15.5563 2.5
      vertex -13.3928 17.4538 2.5
    endloop
  endfacet
  facet normal -0.659378 0.751812 0
    outer loop
      vertex -15.5563 15.5563 2.5
      vertex -13.3928 17.4538 -2.5
      vertex -15.5563 15.5563 -2.5
    endloop
  endfacet
  facet normal -0.751812 0.659378 0
    outer loop
      vertex -17.4538 13.3928 -2.5
      vertex -15.5563 15.5563 2.5
      vertex -15.5563 15.5563 -2.5
    endloop
  endfacet
  facet normal -0.751812 0.659378 0
    outer loop
      vertex -15.5563 15.5563 2.5
      vertex -17.4538 13.3928 -2.5
      vertex -17.4538 13.3928 2.5
    endloop
  endfacet
  facet normal -0.831472 0.555566 0
    outer loop
      vertex -19.0526 11 -2.5
      vertex -17.4538 13.3928 2.5
      vertex -17.4538 13.3928 -2.5
    endloop
  endfacet
  facet normal -0.831472 0.555566 0
    outer loop
      vertex -17.4538 13.3928 2.5
      vertex -19.0526 11 -2.5
      vertex -19.0526 11 2.5
    endloop
  endfacet
  facet normal -0.896885 0.442264 0
    outer loop
      vertex -20.3253 8.41904 -2.5
      vertex -19.0526 11 2.5
      vertex -19.0526 11 -2.5
    endloop
  endfacet
  facet normal -0.896885 0.442264 0
    outer loop
      vertex -19.0526 11 2.5
      vertex -20.3253 8.41904 -2.5
      vertex -20.3253 8.41904 2.5
    endloop
  endfacet
  facet normal -0.946922 0.321465 0
    outer loop
      vertex -21.2504 5.69402 -2.5
      vertex -20.3253 8.41904 2.5
      vertex -20.3253 8.41904 -2.5
    endloop
  endfacet
  facet normal -0.946922 0.321465 0
    outer loop
      vertex -20.3253 8.41904 2.5
      vertex -21.2504 5.69402 -2.5
      vertex -21.2504 5.69402 2.5
    endloop
  endfacet
  facet normal -0.980786 0.195084 0
    outer loop
      vertex -21.8118 2.87158 -2.5
      vertex -21.2504 5.69402 2.5
      vertex -21.2504 5.69402 -2.5
    endloop
  endfacet
  facet normal -0.980786 0.195084 0
    outer loop
      vertex -21.2504 5.69402 2.5
      vertex -21.8118 2.87158 -2.5
      vertex -21.8118 2.87158 2.5
    endloop
  endfacet
  facet normal -0.997859 0.0653985 0
    outer loop
      vertex -22 -0 -2.5
      vertex -21.8118 2.87158 2.5
      vertex -21.8118 2.87158 -2.5
    endloop
  endfacet
  facet normal -0.997859 0.0653985 0
    outer loop
      vertex -21.8118 2.87158 2.5
      vertex -22 -0 -2.5
      vertex -22 -0 2.5
    endloop
  endfacet
  facet normal -0.997859 -0.0653985 0
    outer loop
      vertex -21.8118 -2.87158 -2.5
      vertex -22 -0 2.5
      vertex -22 -0 -2.5
    endloop
  endfacet
  facet normal -0.997859 -0.0653985 0
    outer loop
      vertex -22 -0 2.5
      vertex -21.8118 -2.87158 -2.5
      vertex -21.8118 -2.87158 2.5
    endloop
  endfacet
  facet normal -0.980786 -0.195084 0
    outer loop
      vertex -21.2504 -5.69402 -2.5
      vertex -21.8118 -2.87158 2.5
      vertex -21.8118 -2.87158 -2.5
    endloop
  endfacet
  facet normal -0.980786 -0.195084 0
    outer loop
      vertex -21.8118 -2.87158 2.5
      vertex -21.2504 -5.69402 -2.5
      vertex -21.2504 -5.69402 2.5
    endloop
  endfacet
  facet normal -0.946922 -0.321465 0
    outer loop
      vertex -20.3253 -8.41904 -2.5
      vertex -21.2504 -5.69402 2.5
      vertex -21.2504 -5.69402 -2.5
    endloop
  endfacet
  facet normal -0.946922 -0.321465 0
    outer loop
      vertex -21.2504 -5.69402 2.5
      vertex -20.3253 -8.41904 -2.5
      vertex -20.3253 -8.41904 2.5
    endloop
  endfacet
  facet normal -0.896885 -0.442264 0
    outer loop
      vertex -19.0526 -11 -2.5
      vertex -20.3253 -8.41904 2.5
      vertex -20.3253 -8.41904 -2.5
    endloop
  endfacet
  facet normal -0.896885 -0.442264 0
    outer loop
      vertex -20.3253 -8.41904 2.5
      vertex -19.0526 -11 -2.5
      vertex -19.0526 -11 2.5
    endloop
  endfacet
  facet normal -0.831472 -0.555566 0
    outer loop
      vertex -17.4538 -13.3928 -2.5
      vertex -19.0526 -11 2.5
      vertex -19.0526 -11 -2.5
    endloop
  endfacet
  facet normal -0.831472 -0.555566 0
    outer loop
      vertex -19.0526 -11 2.5
      vertex -17.4538 -13.3928 -2.5
      vertex -17.4538 -13.3928 2.5
    endloop
  endfacet
  facet normal -0.751812 -0.659378 0
    outer loop
      vertex -15.5563 -15.5563 -2.5
      vertex -17.4538 -13.3928 2.5
      vertex -17.4538 -13.3928 -2.5
    endloop
  endfacet
  facet normal -0.751812 -0.659378 0
    outer loop
      vertex -17.4538 -13.3928 2.5
      vertex -15.5563 -15.5563 -2.5
      vertex -15.5563 -15.5563 2.5
    endloop
  endfacet
  facet normal -0.659378 -0.751812 0
    outer loop
      vertex -15.5563 -15.5563 -2.5
      vertex -13.3928 -17.4538 2.5
      vertex -15.5563 -15.5563 2.5
    endloop
  endfacet
  facet normal -0.659378 -0.751812 -0
    outer loop
      vertex -13.3928 -17.4538 2.5
      vertex -15.5563 -15.5563 -2.5
      vertex -13.3928 -17.4538 -2.5
    endloop
  endfacet
  facet normal -0.555566 -0.831472 0
    outer loop
      vertex -13.3928 -17.4538 -2.5
      vertex -11 -19.0526 2.5
      vertex -13.3928 -17.4538 2.5
    endloop
  endfacet
  facet normal -0.555566 -0.831472 -0
    outer loop
      vertex -11 -19.0526 2.5
      vertex -13.3928 -17.4538 -2.5
      vertex -11 -19.0526 -2.5
    endloop
  endfacet
  facet normal -0.442264 -0.896885 0
    outer loop
      vertex -11 -19.0526 -2.5
      vertex -8.41904 -20.3253 2.5
      vertex -11 -19.0526 2.5
    endloop
  endfacet
  facet normal -0.442264 -0.896885 -0
    outer loop
      vertex -8.41904 -20.3253 2.5
      vertex -11 -19.0526 -2.5
      vertex -8.41904 -20.3253 -2.5
    endloop
  endfacet
  facet normal -0.321465 -0.946922 0
    outer loop
      vertex -8.41904 -20.3253 -2.5
      vertex -5.69402 -21.2504 2.5
      vertex -8.41904 -20.3253 2.5
    endloop
  endfacet
  facet normal -0.321465 -0.946922 -0
    outer loop
      vertex -5.69402 -21.2504 2.5
      vertex -8.41904 -20.3253 -2.5
      vertex -5.69402 -21.2504 -2.5
    endloop
  endfacet
  facet normal -0.195084 -0.980786 0
    outer loop
      vertex -5.69402 -21.2504 -2.5
      vertex -2.87158 -21.8118 2.5
      vertex -5.69402 -21.2504 2.5
    endloop
  endfacet
  facet normal -0.195084 -0.980786 -0
    outer loop
      vertex -2.87158 -21.8118 2.5
      vertex -5.69402 -21.2504 -2.5
      vertex -2.87158 -21.8118 -2.5
    endloop
  endfacet
  facet normal -0.0653985 -0.997859 0
    outer loop
      vertex -2.87158 -21.8118 -2.5
      vertex -0 -22 2.5
      vertex -2.87158 -21.8118 2.5
    endloop
  endfacet
  facet normal -0.0653985 -0.997859 -0
    outer loop
      vertex -0 -22 2.5
      vertex -2.87158 -21.8118 -2.5
      vertex -0 -22 -2.5
    endloop
  endfacet
  facet normal 0.0653985 -0.997859 0
    outer loop
      vertex -0 -22 -2.5
      vertex 2.87158 -21.8118 2.5
      vertex -0 -22 2.5
    endloop
  endfacet
  facet normal 0.0653985 -0.997859 0
    outer loop
      vertex 2.87158 -21.8118 2.5
      vertex -0 -22 -2.5
      vertex 2.87158 -21.8118 -2.5
    endloop
  endfacet
  facet normal 0.195084 -0.980786 0
    outer loop
      vertex 2.87158 -21.8118 -2.5
      vertex 5.69402 -21.2504 2.5
      vertex 2.87158 -21.8118 2.5
    endloop
  endfacet
  facet normal 0.195084 -0.980786 0
    outer loop
      vertex 5.69402 -21.2504 2.5
      vertex 2.87158 -21.8118 -2.5
      vertex 5.69402 -21.2504 -2.5
    endloop
  endfacet
  facet normal 0.321465 -0.946922 0
    outer loop
      vertex 5.69402 -21.2504 -2.5
      vertex 8.41904 -20.3253 2.5
      vertex 5.69402 -21.2504 2.5
    endloop
  endfacet
  facet normal 0.321465 -0.946922 0
    outer loop
      vertex 8.41904 -20.3253 2.5
      vertex 5.69402 -21.2504 -2.5
      vertex 8.41904 -20.3253 -2.5
    endloop
  endfacet
  facet normal 0.442264 -0.896885 0
    outer loop
      vertex 8.41904 -20.3253 -2.5
      vertex 11 -19.0526 2.5
      vertex 8.41904 -20.3253 2.5
    endloop
  endfacet
  facet normal 0.442264 -0.896885 0
    outer loop
      vertex 11 -19.0526 2.5
      vertex 8.41904 -20.3253 -2.5
      vertex 11 -19.0526 -2.5
    endloop
  endfacet
  facet normal 0.555566 -0.831472 0
    outer loop
      vertex 11 -19.0526 -2.5
      vertex 13.3928 -17.4538 2.5
      vertex 11 -19.0526 2.5
    endloop
  endfacet
  facet normal 0.555566 -0.831472 0
    outer loop
      vertex 13.3928 -17.4538 2.5
      vertex 11 -19.0526 -2.5
      vertex 13.3928 -17.4538 -2.5
    endloop
  endfacet
  facet normal 0.659378 -0.751812 0
    outer loop
      vertex 13.3928 -17.4538 -2.5
      vertex 15.5563 -15.5563 2.5
      vertex 13.3928 -17.4538 2.5
    endloop
  endfacet
  facet normal 0.659378 -0.751812 0
    outer loop
      vertex 15.5563 -15.5563 2.5
      vertex 13.3928 -17.4538 -2.5
      vertex 15.5563 -15.5563 -2.5
    endloop
  endfacet
  facet normal 0.751812 -0.659378 0
    outer loop
      vertex 15.5563 -15.5563 2.5
      vertex 17.4538 -13.3928 -2.5
      vertex 17.4538 -13.3928 2.5
    endloop
  endfacet
  facet normal 0.751812 -0.659378 0
    outer loop
      vertex 17.4538 -13.3928 -2.5
      vertex 15.5563 -15.5563 2.5
      vertex 15.5563 -15.5563 -2.5
    endloop
  endfacet
  facet normal 0.831472 -0.555566 0
    outer loop
      vertex 17.4538 -13.3928 2.5
      vertex 19.0526 -11 -2.5
      vertex 19.0526 -11 2.5
    endloop
  endfacet
  facet normal 0.831472 -0.555566 0
    outer loop
      vertex 19.0526 -11 -2.5
      vertex 17.4538 -13.3928 2.5
      vertex 17.4538 -13.3928 -2.5
    endloop
  endfacet
  facet normal 0.896885 -0.442264 0
    outer loop
      vertex 19.0526 -11 2.5
      vertex 20.3253 -8.41904 -2.5
      vertex 20.3253 -8.41904 2.5
    endloop
  endfacet
  facet normal 0.896885 -0.442264 0
    outer loop
      vertex 20.3253 -8.41904 -2.5
      vertex 19.0526 -11 2.5
      vertex 19.0526 -11 -2.5
    endloop
  endfacet
  facet normal 0.946922 -0.321465 0
    outer loop
      vertex 20.3253 -8.41904 2.5
      vertex 21.2504 -5.69402 -2.5
      vertex 21.2504 -5.69402 2.5
    endloop
  endfacet
  facet normal 0.946922 -0.321465 0
    outer loop
      vertex 21.2504 -5.69402 -2.5
      vertex 20.3253 -8.41904 2.5
      vertex 20.3253 -8.41904 -2.5
    endloop
  endfacet
  facet normal 0.980786 -0.195084 0
    outer loop
      vertex 21.2504 -5.69402 2.5
      vertex 21.8118 -2.87158 -2.5
      vertex 21.8118 -2.87158 2.5
    endloop
  endfacet
  facet normal 0.980786 -0.195084 0
    outer loop
      vertex 21.8118 -2.87158 -2.5
      vertex 21.2504 -5.69402 2.5
      vertex 21.2504 -5.69402 -2.5
    endloop
  endfacet
  facet normal 0.997859 -0.0653985 0
    outer loop
      vertex 21.8118 -2.87158 2.5
      vertex 22 0 -2.5
      vertex 22 0 2.5
    endloop
  endfacet
  facet normal 0.997859 -0.0653985 0
    outer loop
      vertex 22 0 -2.5
      vertex 21.8118 -2.87158 2.5
      vertex 21.8118 -2.87158 -2.5
    endloop
  endfacet
  facet normal 0 0 -1
    outer loop
      vertex 21.8118 -2.87158 -2.5
      vertex 21.8118 2.87158 -2.5
      vertex 22 0 -2.5
    endloop
  endfacet
  facet normal 0 0 -1
    outer loop
      vertex 21.2504 -5.69402 -2.5
      vertex 21.8118 2.87158 -2.5
      vertex 21.8118 -2.87158 -2.5
    endloop
  endfacet
  facet normal 0 0 -1
    outer loop
      vertex 21.2504 -5.69402 -2.5
      vertex 21.2504 5.69402 -2.5
      vertex 21.8118 2.87158 -2.5
    endloop
  endfacet
  facet normal 0 0 -1
    outer loop
      vertex 20.3253 -8.41904 -2.5
      vertex 21.2504 5.69402 -2.5
      vertex 21.2504 -5.69402 -2.5
    endloop
  endfacet
  facet normal 0 0 -1
    outer loop
      vertex 20.3253 -8.41904 -2.5
      vertex 20.3253 8.41904 -2.5
      vertex 21.2504 5.69402 -2.5
    endloop
  endfacet
  facet normal 0 0 -1
    outer loop
      vertex 19.0526 -11 -2.5
      vertex 20.3253 8.41904 -2.5
      vertex 20.3253 -8.41904 -2.5
    endloop
  endfacet
  facet normal 0 0 -1
    outer loop
      vertex 19.0526 -11 -2.5
      vertex 19.0526 11 -2.5
      vertex 20.3253 8.41904 -2.5
    endloop
  endfacet
  facet normal 0 0 -1
    outer loop
      vertex 17.4538 -13.3928 -2.5
      vertex 19.0526 11 -2.5
      vertex 19.0526 -11 -2.5
    endloop
  endfacet
  facet normal 0 0 -1
    outer loop
      vertex 17.4538 -13.3928 -2.5
      vertex 17.4538 13.3928 -2.5
      vertex 19.0526 11 -2.5
    endloop
  endfacet
  facet normal 0 0 -1
    outer loop
      vertex 15.5563 -15.5563 -2.5
      vertex 17.4538 13.3928 -2.5
      vertex 17.4538 -13.3928 -2.5
    endloop
  endfacet
  facet normal 0 0 -1
    outer loop
      vertex 15.5563 -15.5563 -2.5
      vertex 15.5563 15.5563 -2.5
      vertex 17.4538 13.3928 -2.5
    endloop
  endfacet
  facet normal 0 0 -1
    outer loop
      vertex 13.3928 -17.4538 -2.5
      vertex 15.5563 15.5563 -2.5
      vertex 15.5563 -15.5563 -2.5
    endloop
  endfacet
  facet normal 0 0 -1
    outer loop
      vertex 13.3928 -17.4538 -2.5
      vertex 13.3928 17.4538 -2.5
      vertex 15.5563 15.5563 -2.5
    endloop
  endfacet
  facet normal 0 0 -1
    outer loop
      vertex 11 -19.0526 -2.5
      vertex 13.3928 17.4538 -2.5
      vertex 13.3928 -17.4538 -2.5
    endloop
  endfacet
  facet normal 0 0 -1
    outer loop
      vertex 11 -19.0526 -2.5
      vertex 11 19.0526 -2.5
      vertex 13.3928 17.4538 -2.5
    endloop
  endfacet
  facet normal 0 0 -1
    outer loop
      vertex 8.41904 -20.3253 -2.5
      vertex 11 19.0526 -2.5
      vertex 11 -19.0526 -2.5
    endloop
  endfacet
  facet normal 0 0 -1
    outer loop
      vertex 8.41904 -20.3253 -2.5
      vertex 8.41904 20.3253 -2.5
      vertex 11 19.0526 -2.5
    endloop
  endfacet
  facet normal 0 0 -1
    outer loop
      vertex 5.69402 -21.2504 -2.5
      vertex 8.41904 20.3253 -2.5
      vertex 8.41904 -20.3253 -2.5
    endloop
  endfacet
  facet normal 0 0 -1
    outer loop
      vertex 5.69402 -21.2504 -2.5
      vertex 5.69402 21.2504 -2.5
      vertex 8.41904 20.3253 -2.5
    endloop
  endfacet
  facet normal 0 0 -1
    outer loop
      vertex 2.87158 -21.8118 -2.5
      vertex 5.69402 21.2504 -2.5
      vertex 5.69402 -21.2504 -2.5
    endloop
  endfacet
  facet normal 0 0 -1
    outer loop
      vertex 2.87158 -21.8118 -2.5
      vertex 2.87158 21.8118 -2.5
      vertex 5.69402 21.2504 -2.5
    endloop
  endfacet
  facet normal 0 0 -1
    outer loop
      vertex -0 -22 -2.5
      vertex 2.87158 21.8118 -2.5
      vertex 2.87158 -21.8118 -2.5
    endloop
  endfacet
  facet normal 0 0 -1
    outer loop
      vertex -0 -22 -2.5
      vertex 0 22 -2.5
      vertex 2.87158 21.8118 -2.5
    endloop
  endfacet
  facet normal 0 0 -1
    outer loop
      vertex -2.87158 -21.8118 -2.5
      vertex 0 22 -2.5
      vertex -0 -22 -2.5
    endloop
  endfacet
  facet normal 0 0 -1
    outer loop
      vertex -2.87158 -21.8118 -2.5
      vertex -2.87158 21.8118 -2.5
      vertex 0 22 -2.5
    endloop
  endfacet
  facet normal 0 0 -1
    outer loop
      vertex -5.69402 -21.2504 -2.5
      vertex -2.87158 21.8118 -2.5
      vertex -2.87158 -21.8118 -2.5
    endloop
  endfacet
  facet normal 0 0 -1
    outer loop
      vertex -5.69402 -21.2504 -2.5
      vertex -5.69402 21.2504 -2.5
      vertex -2.87158 21.8118 -2.5
    endloop
  endfacet
  facet normal 0 0 -1
    outer loop
      vertex -8.41904 -20.3253 -2.5
      vertex -5.69402 21.2504 -2.5
      vertex -5.69402 -21.2504 -2.5
    endloop
  endfacet
  facet normal 0 0 -1
    outer loop
      vertex -8.41904 -20.3253 -2.5
      vertex -8.41904 20.3253 -2.5
      vertex -5.69402 21.2504 -2.5
    endloop
  endfacet
  facet normal 0 0 -1
    outer loop
      vertex -11 -19.0526 -2.5
      vertex -8.41904 20.3253 -2.5
      vertex -8.41904 -20.3253 -2.5
    endloop
  endfacet
  facet normal 0 0 -1
    outer loop
      vertex -11 -19.0526 -2.5
      vertex -11 19.0526 -2.5
      vertex -8.41904 20.3253 -2.5
    endloop
  endfacet
  facet normal 0 0 -1
    outer loop
      vertex -13.3928 -17.4538 -2.5
      vertex -11 19.0526 -2.5
      vertex -11 -19.0526 -2.5
    endloop
  endfacet
  facet normal 0 0 -1
    outer loop
      vertex -13.3928 -17.4538 -2.5
      vertex -13.3928 17.4538 -2.5
      vertex -11 19.0526 -2.5
    endloop
  endfacet
  facet normal 0 0 -1
    outer loop
      vertex -15.5563 -15.5563 -2.5
      vertex -13.3928 17.4538 -2.5
      vertex -13.3928 -17.4538 -2.5
    endloop
  endfacet
  facet normal 0 0 -1
    outer loop
      vertex -15.5563 -15.5563 -2.5
      vertex -15.5563 15.5563 -2.5
      vertex -13.3928 17.4538 -2.5
    endloop
  endfacet
  facet normal 0 0 -1
    outer loop
      vertex -17.4538 -13.3928 -2.5
      vertex -15.5563 15.5563 -2.5
      vertex -15.5563 -15.5563 -2.5
    endloop
  endfacet
  facet normal 0 0 -1
    outer loop
      vertex -17.4538 -13.3928 -2.5
      vertex -17.4538 13.3928 -2.5
      vertex -15.5563 15.5563 -2.5
    endloop
  endfacet
  facet normal 0 0 -1
    outer loop
      vertex -19.0526 -11 -2.5
      vertex -17.4538 13.3928 -2.5
      vertex -17.4538 -13.3928 -2.5
    endloop
  endfacet
  facet normal 0 0 -1
    outer loop
      vertex -19.0526 -11 -2.5
      vertex -19.0526 11 -2.5
      vertex -17.4538 13.3928 -2.5
    endloop
  endfacet
  facet normal 0 0 -1
    outer loop
      vertex -20.3253 -8.41904 -2.5
      vertex -19.0526 11 -2.5
      vertex -19.0526 -11 -2.5
    endloop
  endfacet
  facet normal 0 0 -1
    outer loop
      vertex -20.3253 -8.41904 -2.5
      vertex -20.3253 8.41904 -2.5
      vertex -19.0526 11 -2.5
    endloop
  endfacet
  facet normal 0 0 -1
    outer loop
      vertex -21.2504 -5.69402 -2.5
      vertex -20.3253 8.41904 -2.5
      vertex -20.3253 -8.41904 -2.5
    endloop
  endfacet
  facet normal 0 0 -1
    outer loop
      vertex -21.2504 -5.69402 -2.5
      vertex -21.2504 5.69402 -2.5
      vertex -20.3253 8.41904 -2.5
    endloop
  endfacet
  facet normal 0 0 -1
    outer loop
      vertex -21.8118 -2.87158 -2.5
      vertex -21.2504 5.69402 -2.5
      vertex -21.2504 -5.69402 -2.5
    endloop
  endfacet
  facet normal 0 0 -1
    outer loop
      vertex -21.8118 -2.87158 -2.5
      vertex -21.8118 2.87158 -2.5
      vertex -21.2504 5.69402 -2.5
    endloop
  endfacet
  facet normal 0 -0 -1
    outer loop
      vertex -21.8118 2.87158 -2.5
      vertex -21.8118 -2.87158 -2.5
      vertex -22 -0 -2.5
    endloop
  endfacet
  facet normal 0 0 1
    outer loop
      vertex 21.8118 2.87158 2.5
      vertex 21.8118 -2.87158 2.5
      vertex 22 0 2.5
    endloop
  endfacet
  facet normal 0 0 1
    outer loop
      vertex 21.2504 5.69402 2.5
      vertex 21.8118 -2.87158 2.5
      vertex 21.8118 2.87158 2.5
    endloop
  endfacet
  facet normal 0 0 1
    outer loop
      vertex 21.2504 5.69402 2.5
      vertex 21.2504 -5.69402 2.5
      vertex 21.8118 -2.87158 2.5
    endloop
  endfacet
  facet normal 0 0 1
    outer loop
      vertex 20.3253 8.41904 2.5
      vertex 21.2504 -5.69402 2.5
      vertex 21.2504 5.69402 2.5
    endloop
  endfacet
  facet normal 0 0 1
    outer loop
      vertex 20.3253 8.41904 2.5
      vertex 20.3253 -8.41904 2.5
      vertex 21.2504 -5.69402 2.5
    endloop
  endfacet
  facet normal 0 0 1
    outer loop
      vertex 19.0526 11 2.5
      vertex 20.3253 -8.41904 2.5
      vertex 20.3253 8.41904 2.5
    endloop
  endfacet
  facet normal 0 0 1
    outer loop
      vertex 19.0526 11 2.5
      vertex 19.0526 -11 2.5
      vertex 20.3253 -8.41904 2.5
    endloop
  endfacet
  facet normal 0 0 1
    outer loop
      vertex 17.4538 13.3928 2.5
      vertex 19.0526 -11 2.5
      vertex 19.0526 11 2.5
    endloop
  endfacet
  facet normal 0 0 1
    outer loop
      vertex 17.4538 13.3928 2.5
      vertex 17.4538 -13.3928 2.5
      vertex 19.0526 -11 2.5
    endloop
  endfacet
  facet normal 0 0 1
    outer loop
      vertex 15.5563 15.5563 2.5
      vertex 17.4538 -13.3928 2.5
      vertex 17.4538 13.3928 2.5
    endloop
  endfacet
  facet normal 0 0 1
    outer loop
      vertex 15.5563 15.5563 2.5
      vertex 15.5563 -15.5563 2.5
      vertex 17.4538 -13.3928 2.5
    endloop
  endfacet
  facet normal 0 0 1
    outer loop
      vertex 13.3928 17.4538 2.5
      vertex 15.5563 -15.5563 2.5
      vertex 15.5563 15.5563 2.5
    endloop
  endfacet
  facet normal 0 0 1
    outer loop
      vertex 13.3928 17.4538 2.5
      vertex 13.3928 -17.4538 2.5
      vertex 15.5563 -15.5563 2.5
    endloop
  endfacet
  facet normal 0 0 1
    outer loop
      vertex 11 19.0526 2.5
      vertex 13.3928 -17.4538 2.5
      vertex 13.3928 17.4538 2.5
    endloop
  endfacet
  facet normal 0 0 1
    outer loop
      vertex 11 19.0526 2.5
      vertex 11 -19.0526 2.5
      vertex 13.3928 -17.4538 2.5
    endloop
  endfacet
  facet normal 0 0 1
    outer loop
      vertex 8.41904 20.3253 2.5
      vertex 11 -19.0526 2.5
      vertex 11 19.0526 2.5
    endloop
  endfacet
  facet normal 0 0 1
    outer loop
      vertex 8.41904 20.3253 2.5
      vertex 8.41904 -20.3253 2.5
      vertex 11 -19.0526 2.5
    endloop
  endfacet
  facet normal 0 0 1
    outer loop
      vertex 5.69402 21.2504 2.5
      vertex 8.41904 -20.3253 2.5
      vertex 8.41904 20.3253 2.5
    endloop
  endfacet
  facet normal 0 0 1
    outer loop
      vertex 5.69402 21.2504 2.5
      vertex 5.69402 -21.2504 2.5
      vertex 8.41904 -20.3253 2.5
    endloop
  endfacet
  facet normal 0 0 1
    outer loop
      vertex 2.87158 21.8118 2.5
      vertex 5.69402 -21.2504 2.5
      vertex 5.69402 21.2504 2.5
    endloop
  endfacet
  facet normal 0 0 1
    outer loop
      vertex 2.87158 21.8118 2.5
      vertex 2.87158 -21.8118 2.5
      vertex 5.69402 -21.2504 2.5
    endloop
  endfacet
  facet normal 0 0 1
    outer loop
      vertex 0 22 2.5
      vertex 2.87158 -21.8118 2.5
      vertex 2.87158 21.8118 2.5
    endloop
  endfacet
  facet normal 0 0 1
    outer loop
      vertex 0 22 2.5
      vertex -0 -22 2.5
      vertex 2.87158 -21.8118 2.5
    endloop
  endfacet
  facet normal -0 0 1
    outer loop
      vertex -2.87158 21.8118 2.5
      vertex -0 -22 2.5
      vertex 0 22 2.5
    endloop
  endfacet
  facet normal 0 0 1
    outer loop
      vertex -2.87158 21.8118 2.5
      vertex -2.87158 -21.8118 2.5
      vertex -0 -22 2.5
    endloop
  endfacet
  facet normal -0 0 1
    outer loop
      vertex -5.69402 21.2504 2.5
      vertex -2.87158 -21.8118 2.5
      vertex -2.87158 21.8118 2.5
    endloop
  endfacet
  facet normal 0 0 1
    outer loop
      vertex -5.69402 21.2504 2.5
      vertex -5.69402 -21.2504 2.5
      vertex -2.87158 -21.8118 2.5
    endloop
  endfacet
  facet normal -0 0 1
    outer loop
      vertex -8.41904 20.3253 2.5
      vertex -5.69402 -21.2504 2.5
      vertex -5.69402 21.2504 2.5
    endloop
  endfacet
  facet normal 0 0 1
    outer loop
      vertex -8.41904 20.3253 2.5
      vertex -8.41904 -20.3253 2.5
      vertex -5.69402 -21.2504 2.5
    endloop
  endfacet
  facet normal -0 0 1
    outer loop
      vertex -11 19.0526 2.5
      vertex -8.41904 -20.3253 2.5
      vertex -8.41904 20.3253 2.5
    endloop
  endfacet
  facet normal 0 0 1
    outer loop
      vertex -11 19.0526 2.5
      vertex -11 -19.0526 2.5
      vertex -8.41904 -20.3253 2.5
    endloop
  endfacet
  facet normal -0 0 1
    outer loop
      vertex -13.3928 17.4538 2.5
      vertex -11 -19.0526 2.5
      vertex -11 19.0526 2.5
    endloop
  endfacet
  facet normal 0 0 1
    outer loop
      vertex -13.3928 17.4538 2.5
      vertex -13.3928 -17.4538 2.5
      vertex -11 -19.0526 2.5
    endloop
  endfacet
  facet normal -0 0 1
    outer loop
      vertex -15.5563 15.5563 2.5
      vertex -13.3928 -17.4538 2.5
      vertex -13.3928 17.4538 2.5
    endloop
  endfacet
  facet normal 0 0 1
    outer loop
      vertex -15.5563 15.5563 2.5
      vertex -15.5563 -15.5563 2.5
      vertex -13.3928 -17.4538 2.5
    endloop
  endfacet
  facet normal -0 0 1
    outer loop
      vertex -17.4538 13.3928 2.5
      vertex -15.5563 -15.5563 2.5
      vertex -15.5563 15.5563 2.5
    endloop
  endfacet
  facet normal 0 0 1
    outer loop
      vertex -17.4538 13.3928 2.5
      vertex -17.4538 -13.3928 2.5
      vertex -15.5563 -15.5563 2.5
    endloop
  endfacet
  facet normal -0 0 1
    outer loop
      vertex -19.0526 11 2.5
      vertex -17.4538 -13.3928 2.5
      vertex -17.4538 13.3928 2.5
    endloop
  endfacet
  facet normal 0 0 1
    outer loop
      vertex -19.0526 11 2.5
      vertex -19.0526 -11 2.5
      vertex -17.4538 -13.3928 2.5
    endloop
  endfacet
  facet normal -0 0 1
    outer loop
      vertex -20.3253 8.41904 2.5
      vertex -19.0526 -11 2.5
      vertex -19.0526 11 2.5
    endloop
  endfacet
  facet normal 0 0 1
    outer loop
      vertex -20.3253 8.41904 2.5
      vertex -20.3253 -8.41904 2.5
      vertex -19.0526 -11 2.5
    endloop
  endfacet
  facet normal -0 0 1
    outer loop
      vertex -21.2504 5.69402 2.5
      vertex -20.3253 -8.41904 2.5
      vertex -20.3253 8.41904 2.5
    endloop
  endfacet
  facet normal 0 0 1
    outer loop
      vertex -21.2504 5.69402 2.5
      vertex -21.2504 -5.69402 2.5
      vertex -20.3253 -8.41904 2.5
    endloop
  endfacet
  facet normal -0 0 1
    outer loop
      vertex -21.8118 2.87158 2.5
      vertex -21.2504 -5.69402 2.5
      vertex -21.2504 5.69402 2.5
    endloop
  endfacet
  facet normal 0 0 1
    outer loop
      vertex -21.8118 2.87158 2.5
      vertex -21.8118 -2.87158 2.5
      vertex -21.2504 -5.69402 2.5
    endloop
  endfacet
  facet normal 0 -0 1
    outer loop
      vertex -21.8118 -2.87158 2.5
      vertex -21.8118 2.87158 2.5
      vertex -22 -0 2.5
    endloop
  endfacet
endsolid OpenSCAD_Model
