solid OpenSCAD_Model
  facet normal 0.997857 0.0654276 0
    outer loop
      vertex 12 0 17.5
      vertex 11.8973 1.56631 -17.5
      vertex 11.8973 1.56631 17.5
    endloop
  endfacet
  facet normal 0.997857 0.0654276 0
    outer loop
      vertex 11.8973 1.56631 -17.5
      vertex 12 0 17.5
      vertex 12 0 -17.5
    endloop
  endfacet
  facet normal 0.980789 0.195072 0
    outer loop
      vertex 11.8973 1.56631 17.5
      vertex 11.5911 3.10583 -17.5
      vertex 11.5911 3.10583 17.5
    endloop
  endfacet
  facet normal 0.980789 0.195072 0
    outer loop
      vertex 11.5911 3.10583 -17.5
      vertex 11.8973 1.56631 17.5
      vertex 11.8973 1.56631 -17.5
    endloop
  endfacet
  facet normal 0.946941 0.321408 0
    outer loop
      vertex 11.5911 3.10583 17.5
      vertex 11.0866 4.5922 -17.5
      vertex 11.0866 4.5922 17.5
    endloop
  endfacet
  facet normal 0.946941 0.321408 0
    outer loop
      vertex 11.0866 4.5922 -17.5
      vertex 11.5911 3.10583 17.5
      vertex 11.5911 3.10583 -17.5
    endloop
  endfacet
  facet normal 0.89686 0.442314 0
    outer loop
      vertex 11.0866 4.5922 17.5
      vertex 10.3923 6 -17.5
      vertex 10.3923 6 17.5
    endloop
  endfacet
  facet normal 0.89686 0.442314 0
    outer loop
      vertex 10.3923 6 -17.5
      vertex 11.0866 4.5922 17.5
      vertex 11.0866 4.5922 -17.5
    endloop
  endfacet
  facet normal 0.831472 0.555567 0
    outer loop
      vertex 10.3923 6 17.5
      vertex 9.52024 7.30514 -17.5
      vertex 9.52024 7.30514 17.5
    endloop
  endfacet
  facet normal 0.831472 0.555567 0
    outer loop
      vertex 9.52024 7.30514 -17.5
      vertex 10.3923 6 17.5
      vertex 10.3923 6 -17.5
    endloop
  endfacet
  facet normal 0.751838 0.659348 0
    outer loop
      vertex 9.52024 7.30514 17.5
      vertex 8.48528 8.48528 -17.5
      vertex 8.48528 8.48528 17.5
    endloop
  endfacet
  facet normal 0.751838 0.659348 0
    outer loop
      vertex 8.48528 8.48528 -17.5
      vertex 9.52024 7.30514 17.5
      vertex 9.52024 7.30514 -17.5
    endloop
  endfacet
  facet normal 0.659348 0.751838 -0
    outer loop
      vertex 8.48528 8.48528 -17.5
      vertex 7.30514 9.52024 17.5
      vertex 8.48528 8.48528 17.5
    endloop
  endfacet
  facet normal 0.659348 0.751838 0
    outer loop
      vertex 7.30514 9.52024 17.5
      vertex 8.48528 8.48528 -17.5
      vertex 7.30514 9.52024 -17.5
    endloop
  endfacet
  facet normal 0.555567 0.831472 -0
    outer loop
      vertex 7.30514 9.52024 -17.5
      vertex 6 10.3923 17.5
      vertex 7.30514 9.52024 17.5
    endloop
  endfacet
  facet normal 0.555567 0.831472 0
    outer loop
      vertex 6 10.3923 17.5
      vertex 7.30514 9.52024 -17.5
      vertex 6 10.3923 -17.5
    endloop
  endfacet
  facet normal 0.442314 0.89686 -0
    outer loop
      vertex 6 10.3923 -17.5
      vertex 4.5922 11.0866 17.5
      vertex 6 10.3923 17.5
    endloop
  endfacet
  facet normal 0.442314 0.89686 0
    outer loop
      vertex 4.5922 11.0866 17.5
      vertex 6 10.3923 -17.5
      vertex 4.5922 11.0866 -17.5
    endloop
  endfacet
  facet normal 0.321408 0.946941 -0
    outer loop
      vertex 4.5922 11.0866 -17.5
      vertex 3.10583 11.5911 17.5
      vertex 4.5922 11.0866 17.5
    endloop
  endfacet
  facet normal 0.321408 0.946941 0
    outer loop
      vertex 3.10583 11.5911 17.5
      vertex 4.5922 11.0866 -17.5
      vertex 3.10583 11.5911 -17.5
    endloop
  endfacet
  facet normal 0.195072 0.980789 -0
    outer loop
      vertex 3.10583 11.5911 -17.5
      vertex 1.56631 11.8973 17.5
      vertex 3.10583 11.5911 17.5
    endloop
  endfacet
  facet normal 0.195072 0.980789 0
    outer loop
      vertex 1.56631 11.8973 17.5
      vertex 3.10583 11.5911 -17.5
      vertex 1.56631 11.8973 -17.5
    endloop
  endfacet
  facet normal 0.0654276 0.997857 -0
    outer loop
      vertex 1.56631 11.8973 -17.5
      vertex 0 12 17.5
      vertex 1.56631 11.8973 17.5
    endloop
  endfacet
  facet normal 0.0654276 0.997857 0
    outer loop
      vertex 0 12 17.5
      vertex 1.56631 11.8973 -17.5
      vertex 0 12 -17.5
    endloop
  endfacet
  facet normal -0.0654276 0.997857 0
    outer loop
      vertex 0 12 -17.5
      vertex -1.56631 11.8973 17.5
      vertex 0 12 17.5
    endloop
  endfacet
  facet normal -0.0654276 0.997857 0
    outer loop
      vertex -1.56631 11.8973 17.5
      vertex 0 12 -17.5
      vertex -1.56631 11.8973 -17.5
    endloop
  endfacet
  facet normal -0.195072 0.980789 0
    outer loop
      vertex -1.56631 11.8973 -17.5
      vertex -3.10583 11.5911 17.5
      vertex -1.56631 11.8973 17.5
    endloop
  endfacet
  facet normal -0.195072 0.980789 0
    outer loop
      vertex -3.10583 11.5911 17.5
      vertex -1.56631 11.8973 -17.5
      vertex -3.10583 11.5911 -17.5
    endloop
  endfacet
  facet normal -0.321408 0.946941 0
    outer loop
      vertex -3.10583 11.5911 -17.5
      vertex -4.5922 11.0866 17.5
      vertex -3.10583 11.5911 17.5
    endloop
  endfacet
  facet normal -0.321408 0.946941 0
    outer loop
      vertex -4.5922 11.0866 17.5
      vertex -3.10583 11.5911 -17.5
      vertex -4.5922 11.0866 -17.5
    endloop
  endfacet
  facet normal -0.442314 0.89686 0
    outer loop
      vertex -4.5922 11.0866 -17.5
      vertex -6 10.3923 17.5
      vertex -4.5922 11.0866 17.5
    endloop
  endfacet
  facet normal -0.442314 0.89686 0
    outer loop
      vertex -6 10.3923 17.5
      vertex -4.5922 11.0866 -17.5
      vertex -6 10.3923 -17.5
    endloop
  endfacet
  facet normal -0.555567 0.831472 0
    outer loop
      vertex -6 10.3923 -17.5
      vertex -7.30514 9.52024 17.5
      vertex -6 10.3923 17.5
    endloop
  endfacet
  facet normal -0.555567 0.831472 0
    outer loop
      vertex -7.30514 9.52024 17.5
      vertex -6 10.3923 -17.5
      vertex -7.30514 9.52024 -17.5
    endloop
  endfacet
  facet normal -0.659348 0.751838 0
    outer loop
      vertex -7.30514 9.52024 -17.5
      vertex -8.48528 8.48528 17.5
      vertex -7.30514 9.52024 17.5
    endloop
  endfacet
  facet normal -0.659348 0.751838 0
    outer loop
      vertex -8.48528 8.48528 17.5
      vertex -7.30514 9.52024 -17.5
      vertex -8.48528 8.48528 -17.5
    endloop
  endfacet
  facet normal -0.751838 0.659348 0
    outer loop
      vertex -9.52024 7.30514 -17.5
      vertex -8.48528 8.48528 17.5
      vertex -8.48528 8.48528 -17.5
    endloop
  endfacet
  facet normal -0.751838 0.659348 0
    outer loop
      vertex -8.48528 8.48528 17.5
      vertex -9.52024 7.30514 -17.5
      vertex -9.52024 7.30514 17.5
    endloop
  endfacet
  facet normal -0.831472 0.555567 0
    outer loop
      vertex -10.3923 6 -17.5
      vertex -9.52024 7.30514 17.5
      vertex -9.52024 7.30514 -17.5
    endloop
  endfacet
  facet normal -0.831472 0.555567 0
    outer loop
      vertex -9.52024 7.30514 17.5
      vertex -10.3923 6 -17.5
      vertex -10.3923 6 17.5
    endloop
  endfacet
  facet normal -0.89686 0.442314 0
    outer loop
      vertex -11.0866 4.5922 -17.5
      vertex -10.3923 6 17.5
      vertex -10.3923 6 -17.5
    endloop
  endfacet
  facet normal -0.89686 0.442314 0
    outer loop
      vertex -10.3923 6 17.5
      vertex -11.0866 4.5922 -17.5
      vertex -11.0866 4.5922 17.5
    endloop
  endfacet
  facet normal -0.946941 0.321408 0
    outer loop
      vertex -11.5911 3.10583 -17.5
      vertex -11.0866 4.5922 17.5
      vertex -11.0866 4.5922 -17.5
    endloop
  endfacet
  facet normal -0.946941 0.321408 0
    outer loop
      vertex -11.0866 4.5922 17.5
      vertex -11.5911 3.10583 -17.5
      vertex -11.5911 3.10583 17.5
    endloop
  endfacet
  facet normal -0.980789 0.195072 0
    outer loop
      vertex -11.8973 1.56631 -17.5
      vertex -11.5911 3.10583 17.5
      vertex -11.5911 3.10583 -17.5
    endloop
  endfacet
  facet normal -0.980789 0.195072 0
    outer loop
      vertex -11.5911 3.10583 17.5
      vertex -11.8973 1.56631 -17.5
      vertex -11.8973 1.56631 17.5
    endloop
  endfacet
  facet normal -0.997857 0.0654276 0
    outer loop
      vertex -12 -0 -17.5
      vertex -11.8973 1.56631 17.5
      vertex -11.8973 1.56631 -17.5
    endloop
  endfacet
  facet normal -0.997857 0.0654276 0
    outer loop
      vertex -11.8973 1.56631 17.5
      vertex -12 -0 -17.5
      vertex -12 -0 17.5
    endloop
  endfacet
  facet normal -0.997857 -0.0654276 0
    outer loop
      vertex -11.8973 -1.56631 -17.5
      vertex -12 -0 17.5
      vertex -12 -0 -17.5
    endloop
  endfacet
  facet normal -0.997857 -0.0654276 0
    outer loop
      vertex -12 -0 17.5
      vertex -11.8973 -1.56631 -17.5
      vertex -11.8973 -1.56631 17.5
    endloop
  endfacet
  facet normal -0.980789 -0.195072 0
    outer loop
      vertex -11.5911 -3.10583 -17.5
      vertex -11.8973 -1.56631 17.5
      vertex -11.8973 -1.56631 -17.5
    endloop
  endfacet
  facet normal -0.980789 -0.195072 0
    outer loop
      vertex -11.8973 -1.56631 17.5
      vertex -11.5911 -3.10583 -17.5
      vertex -11.5911 -3.10583 17.5
    endloop
  endfacet
  facet normal -0.946941 -0.321408 0
    outer loop
      vertex -11.0866 -4.5922 -17.5
      vertex -11.5911 -3.10583 17.5
      vertex -11.5911 -3.10583 -17.5
    endloop
  endfacet
  facet normal -0.946941 -0.321408 0
    outer loop
      vertex -11.5911 -3.10583 17.5
      vertex -11.0866 -4.5922 -17.5
      vertex -11.0866 -4.5922 17.5
    endloop
  endfacet
  facet normal -0.89686 -0.442314 0
    outer loop
      vertex -10.3923 -6 -17.5
      vertex -11.0866 -4.5922 17.5
      vertex -11.0866 -4.5922 -17.5
    endloop
  endfacet
  facet normal -0.89686 -0.442314 0
    outer loop
      vertex -11.0866 -4.5922 17.5
      vertex -10.3923 -6 -17.5
      vertex -10.3923 -6 17.5
    endloop
  endfacet
  facet normal -0.831472 -0.555567 0
    outer loop
      vertex -9.52024 -7.30514 -17.5
      vertex -10.3923 -6 17.5
      vertex -10.3923 -6 -17.5
    endloop
  endfacet
  facet normal -0.831472 -0.555567 0
    outer loop
      vertex -10.3923 -6 17.5
      vertex -9.52024 -7.30514 -17.5
      vertex -9.52024 -7.30514 17.5
    endloop
  endfacet
  facet normal -0.751838 -0.659348 0
    outer loop
      vertex -8.48528 -8.48528 -17.5
      vertex -9.52024 -7.30514 17.5
      vertex -9.52024 -7.30514 -17.5
    endloop
  endfacet
  facet normal -0.751838 -0.659348 0
    outer loop
      vertex -9.52024 -7.30514 17.5
      vertex -8.48528 -8.48528 -17.5
      vertex -8.48528 -8.48528 17.5
    endloop
  endfacet
  facet normal -0.659348 -0.751838 0
    outer loop
      vertex -8.48528 -8.48528 -17.5
      vertex -7.30514 -9.52024 17.5
      vertex -8.48528 -8.48528 17.5
    endloop
  endfacet
  facet normal -0.659348 -0.751838 -0
    outer loop
      vertex -7.30514 -9.52024 17.5
      vertex -8.48528 -8.48528 -17.5
      vertex -7.30514 -9.52024 -17.5
    endloop
  endfacet
  facet normal -0.555567 -0.831472 0
    outer loop
      vertex -7.30514 -9.52024 -17.5
      vertex -6 -10.3923 17.5
      vertex -7.30514 -9.52024 17.5
    endloop
  endfacet
  facet normal -0.555567 -0.831472 -0
    outer loop
      vertex -6 -10.3923 17.5
      vertex -7.30514 -9.52024 -17.5
      vertex -6 -10.3923 -17.5
    endloop
  endfacet
  facet normal -0.442314 -0.89686 0
    outer loop
      vertex -6 -10.3923 -17.5
      vertex -4.5922 -11.0866 17.5
      vertex -6 -10.3923 17.5
    endloop
  endfacet
  facet normal -0.442314 -0.89686 -0
    outer loop
      vertex -4.5922 -11.0866 17.5
      vertex -6 -10.3923 -17.5
      vertex -4.5922 -11.0866 -17.5
    endloop
  endfacet
  facet normal -0.321408 -0.946941 0
    outer loop
      vertex -4.5922 -11.0866 -17.5
      vertex -3.10583 -11.5911 17.5
      vertex -4.5922 -11.0866 17.5
    endloop
  endfacet
  facet normal -0.321408 -0.946941 -0
    outer loop
      vertex -3.10583 -11.5911 17.5
      vertex -4.5922 -11.0866 -17.5
      vertex -3.10583 -11.5911 -17.5
    endloop
  endfacet
  facet normal -0.195072 -0.980789 0
    outer loop
      vertex -3.10583 -11.5911 -17.5
      vertex -1.56631 -11.8973 17.5
      vertex -3.10583 -11.5911 17.5
    endloop
  endfacet
  facet normal -0.195072 -0.980789 -0
    outer loop
      vertex -1.56631 -11.8973 17.5
      vertex -3.10583 -11.5911 -17.5
      vertex -1.56631 -11.8973 -17.5
    endloop
  endfacet
  facet normal -0.0654276 -0.997857 0
    outer loop
      vertex -1.56631 -11.8973 -17.5
      vertex -0 -12 17.5
      vertex -1.56631 -11.8973 17.5
    endloop
  endfacet
  facet normal -0.0654276 -0.997857 -0
    outer loop
      vertex -0 -12 17.5
      vertex -1.56631 -11.8973 -17.5
      vertex -0 -12 -17.5
    endloop
  endfacet
  facet normal 0.0654276 -0.997857 0
    outer loop
      vertex -0 -12 -17.5
      vertex 1.56631 -11.8973 17.5
      vertex -0 -12 17.5
    endloop
  endfacet
  facet normal 0.0654276 -0.997857 0
    outer loop
      vertex 1.56631 -11.8973 17.5
      vertex -0 -12 -17.5
      vertex 1.56631 -11.8973 -17.5
    endloop
  endfacet
  facet normal 0.195072 -0.980789 0
    outer loop
      vertex 1.56631 -11.8973 -17.5
      vertex 3.10583 -11.5911 17.5
      vertex 1.56631 -11.8973 17.5
    endloop
  endfacet
  facet normal 0.195072 -0.980789 0
    outer loop
      vertex 3.10583 -11.5911 17.5
      vertex 1.56631 -11.8973 -17.5
      vertex 3.10583 -11.5911 -17.5
    endloop
  endfacet
  facet normal 0.321408 -0.946941 0
    outer loop
      vertex 3.10583 -11.5911 -17.5
      vertex 4.5922 -11.0866 17.5
      vertex 3.10583 -11.5911 17.5
    endloop
  endfacet
  facet normal 0.321408 -0.946941 0
    outer loop
      vertex 4.5922 -11.0866 17.5
      vertex 3.10583 -11.5911 -17.5
      vertex 4.5922 -11.0866 -17.5
    endloop
  endfacet
  facet normal 0.442314 -0.89686 0
    outer loop
      vertex 4.5922 -11.0866 -17.5
      vertex 6 -10.3923 17.5
      vertex 4.5922 -11.0866 17.5
    endloop
  endfacet
  facet normal 0.442314 -0.89686 0
    outer loop
      vertex 6 -10.3923 17.5
      vertex 4.5922 -11.0866 -17.5
      vertex 6 -10.3923 -17.5
    endloop
  endfacet
  facet normal 0.555567 -0.831472 0
    outer loop
      vertex 6 -10.3923 -17.5
      vertex 7.30514 -9.52024 17.5
      vertex 6 -10.3923 17.5
    endloop
  endfacet
  facet normal 0.555567 -0.831472 0
    outer loop
      vertex 7.30514 -9.52024 17.5
      vertex 6 -10.3923 -17.5
      vertex 7.30514 -9.52024 -17.5
    endloop
  endfacet
  facet normal 0.659348 -0.751838 0
    outer loop
      vertex 7.30514 -9.52024 -17.5
      vertex 8.48528 -8.48528 17.5
      vertex 7.30514 -9.52024 17.5
    endloop
  endfacet
  facet normal 0.659348 -0.751838 0
    outer loop
      vertex 8.48528 -8.48528 17.5
      vertex 7.30514 -9.52024 -17.5
      vertex 8.48528 -8.48528 -17.5
    endloop
  endfacet
  facet normal 0.751838 -0.659348 0
    outer loop
      vertex 8.48528 -8.48528 17.5
      vertex 9.52024 -7.30514 -17.5
      vertex 9.52024 -7.30514 17.5
    endloop
  endfacet
  facet normal 0.751838 -0.659348 0
    outer loop
      vertex 9.52024 -7.30514 -17.5
      vertex 8.48528 -8.48528 17.5
      vertex 8.48528 -8.48528 -17.5
    endloop
  endfacet
  facet normal 0.831472 -0.555567 0
    outer loop
      vertex 9.52024 -7.30514 17.5
      vertex 10.3923 -6 -17.5
      vertex 10.3923 -6 17.5
    endloop
  endfacet
  facet normal 0.831472 -0.555567 0
    outer loop
      vertex 10.3923 -6 -17.5
      vertex 9.52024 -7.30514 17.5
      vertex 9.52024 -7.30514 -17.5
    endloop
  endfacet
  facet normal 0.89686 -0.442314 0
    outer loop
      vertex 10.3923 -6 17.5
      vertex 11.0866 -4.5922 -17.5
      vertex 11.0866 -4.5922 17.5
    endloop
  endfacet
  facet normal 0.89686 -0.442314 0
    outer loop
      vertex 11.0866 -4.5922 -17.5
      vertex 10.3923 -6 17.5
      vertex 10.3923 -6 -17.5
    endloop
  endfacet
  facet normal 0.946941 -0.321408 0
    outer loop
      vertex 11.0866 -4.5922 17.5
      vertex 11.5911 -3.10583 -17.5
      vertex 11.5911 -3.10583 17.5
    endloop
  endfacet
  facet normal 0.946941 -0.321408 0
    outer loop
      vertex 11.5911 -3.10583 -17.5
      vertex 11.0866 -4.5922 17.5
      vertex 11.0866 -4.5922 -17.5
    endloop
  endfacet
  facet normal 0.980789 -0.195072 0
    outer loop
      vertex 11.5911 -3.10583 17.5
      vertex 11.8973 -1.56631 -17.5
      vertex 11.8973 -1.56631 17.5
    endloop
  endfacet
  facet normal 0.980789 -0.195072 0
    outer loop
      vertex 11.8973 -1.56631 -17.5
      vertex 11.5911 -3.10583 17.5
      vertex 11.5911 -3.10583 -17.5
    endloop
  endfacet
  facet normal 0.997857 -0.0654276 0
    outer loop
      vertex 11.8973 -1.56631 17.5
      vertex 12 0 -17.5
      vertex 12 0 17.5
    endloop
  endfacet
  facet normal 0.997857 -0.0654276 0
    outer loop
      vertex 12 0 -17.5
      vertex 11.8973 -1.56631 17.5
      vertex 11.8973 -1.56631 -17.5
    endloop
  endfacet
  facet normal 0 0 -1
    outer loop
      vertex 11.8973 -1.56631 -17.5
      vertex 11.8973 1.56631 -17.5
      vertex 12 0 -17.5
    endloop
  endfacet
  facet normal 0 0 -1
    outer loop
      vertex 11.5911 -3.10583 -17.5
      vertex 11.8973 1.56631 -17.5
      vertex 11.8973 -1.56631 -17.5
    endloop
  endfacet
  facet normal 0 0 -1
    outer loop
      vertex 11.5911 -3.10583 -17.5
      vertex 11.5911 3.10583 -17.5
      vertex 11.8973 1.56631 -17.5
    endloop
  endfacet
  facet normal 0 0 -1
    outer loop
      vertex 11.0866 -4.5922 -17.5
      vertex 11.5911 3.10583 -17.5
      vertex 11.5911 -3.10583 -17.5
    endloop
  endfacet
  facet normal 0 0 -1
    outer loop
      vertex 11.0866 -4.5922 -17.5
      vertex 11.0866 4.5922 -17.5
      vertex 11.5911 3.10583 -17.5
    endloop
  endfacet
  facet normal 0 0 -1
    outer loop
      vertex 10.3923 -6 -17.5
      vertex 11.0866 4.5922 -17.5
      vertex 11.0866 -4.5922 -17.5
    endloop
  endfacet
  facet normal 0 0 -1
    outer loop
      vertex 10.3923 -6 -17.5
      vertex 10.3923 6 -17.5
      vertex 11.0866 4.5922 -17.5
    endloop
  endfacet
  facet normal 0 0 -1
    outer loop
      vertex 9.52024 -7.30514 -17.5
      vertex 10.3923 6 -17.5
      vertex 10.3923 -6 -17.5
    endloop
  endfacet
  facet normal 0 0 -1
    outer loop
      vertex 9.52024 -7.30514 -17.5
      vertex 9.52024 7.30514 -17.5
      vertex 10.3923 6 -17.5
    endloop
  endfacet
  facet normal 0 0 -1
    outer loop
      vertex 8.48528 -8.48528 -17.5
      vertex 9.52024 7.30514 -17.5
      vertex 9.52024 -7.30514 -17.5
    endloop
  endfacet
  facet normal 0 0 -1
    outer loop
      vertex 8.48528 -8.48528 -17.5
      vertex 8.48528 8.48528 -17.5
      vertex 9.52024 7.30514 -17.5
    endloop
  endfacet
  facet normal 0 0 -1
    outer loop
      vertex 7.30514 -9.52024 -17.5
      vertex 8.48528 8.48528 -17.5
      vertex 8.48528 -8.48528 -17.5
    endloop
  endfacet
  facet normal 0 0 -1
    outer loop
      vertex 7.30514 -9.52024 -17.5
      vertex 7.30514 9.52024 -17.5
      vertex 8.48528 8.48528 -17.5
    endloop
  endfacet
  facet normal 0 0 -1
    outer loop
      vertex 6 -10.3923 -17.5
      vertex 7.30514 9.52024 -17.5
      vertex 7.30514 -9.52024 -17.5
    endloop
  endfacet
  facet normal 0 0 -1
    outer loop
      vertex 6 -10.3923 -17.5
      vertex 6 10.3923 -17.5
      vertex 7.30514 9.52024 -17.5
    endloop
  endfacet
  facet normal 0 0 -1
    outer loop
      vertex 4.5922 -11.0866 -17.5
      vertex 6 10.3923 -17.5
      vertex 6 -10.3923 -17.5
    endloop
  endfacet
  facet normal 0 0 -1
    outer loop
      vertex 4.5922 -11.0866 -17.5
      vertex 4.5922 11.0866 -17.5
      vertex 6 10.3923 -17.5
    endloop
  endfacet
  facet normal 0 0 -1
    outer loop
      vertex 3.10583 -11.5911 -17.5
      vertex 4.5922 11.0866 -17.5
      vertex 4.5922 -11.0866 -17.5
    endloop
  endfacet
  facet normal 0 0 -1
    outer loop
      vertex 3.10583 -11.5911 -17.5
      vertex 3.10583 11.5911 -17.5
      vertex 4.5922 11.0866 -17.5
    endloop
  endfacet
  facet normal 0 0 -1
    outer loop
      vertex 1.56631 -11.8973 -17.5
      vertex 3.10583 11.5911 -17.5
      vertex 3.10583 -11.5911 -17.5
    endloop
  endfacet
  facet normal 0 0 -1
    outer loop
      vertex 1.56631 -11.8973 -17.5
      vertex 1.56631 11.8973 -17.5
      vertex 3.10583 11.5911 -17.5
    endloop
  endfacet
  facet normal 0 0 -1
    outer loop
      vertex -0 -12 -17.5
      vertex 1.56631 11.8973 -17.5
      vertex 1.56631 -11.8973 -17.5
    endloop
  endfacet
  facet normal 0 0 -1
    outer loop
      vertex -0 -12 -17.5
      vertex 0 12 -17.5
      vertex 1.56631 11.8973 -17.5
    endloop
  endfacet
  facet normal 0 0 -1
    outer loop
      vertex -1.56631 -11.8973 -17.5
      vertex 0 12 -17.5
      vertex -0 -12 -17.5
    endloop
  endfacet
  facet normal 0 0 -1
    outer loop
      vertex -1.56631 -11.8973 -17.5
      vertex -1.56631 11.8973 -17.5
      vertex 0 12 -17.5
    endloop
  endfacet
  facet normal 0 0 -1
    outer loop
      vertex -3.10583 -11.5911 -17.5
      vertex -1.56631 11.8973 -17.5
      vertex -1.56631 -11.8973 -17.5
    endloop
  endfacet
  facet normal 0 0 -1
    outer loop
      vertex -3.10583 -11.5911 -17.5
      vertex -3.10583 11.5911 -17.5
      vertex -1.56631 11.8973 -17.5
    endloop
  endfacet
  facet normal 0 0 -1
    outer loop
      vertex -4.5922 -11.0866 -17.5
      vertex -3.10583 11.5911 -17.5
      vertex -3.10583 -11.5911 -17.5
    endloop
  endfacet
  facet normal 0 0 -1
    outer loop
      vertex -4.5922 -11.0866 -17.5
      vertex -4.5922 11.0866 -17.5
      vertex -3.10583 11.5911 -17.5
    endloop
  endfacet
  facet normal 0 0 -1
    outer loop
      vertex -6 -10.3923 -17.5
      vertex -4.5922 11.0866 -17.5
      vertex -4.5922 -11.0866 -17.5
    endloop
  endfacet
  facet normal 0 0 -1
    outer loop
      vertex -6 -10.3923 -17.5
      vertex -6 10.3923 -17.5
      vertex -4.5922 11.0866 -17.5
    endloop
  endfacet
  facet normal 0 0 -1
    outer loop
      vertex -7.30514 -9.52024 -17.5
      vertex -6 10.3923 -17.5
      vertex -6 -10.3923 -17.5
    endloop
  endfacet
  facet normal 0 0 -1
    outer loop
      vertex -7.30514 -9.52024 -17.5
      vertex -7.30514 9.52024 -17.5
      vertex -6 10.3923 -17.5
    endloop
  endfacet
  facet normal 0 0 -1
    outer loop
      vertex -8.48528 -8.48528 -17.5
      vertex -7.30514 9.52024 -17.5
      vertex -7.30514 -9.52024 -17.5
    endloop
  endfacet
  facet normal 0 0 -1
    outer loop
      vertex -8.48528 -8.48528 -17.5
      vertex -8.48528 8.48528 -17.5
      vertex -7.30514 9.52024 -17.5
    endloop
  endfacet
  facet normal 0 0 -1
    outer loop
      vertex -9.52024 -7.30514 -17.5
      vertex -8.48528 8.48528 -17.5
      vertex -8.48528 -8.48528 -17.5
    endloop
  endfacet
  facet normal 0 0 -1
    outer loop
      vertex -9.52024 -7.30514 -17.5
      vertex -9.52024 7.30514 -17.5
      vertex -8.48528 8.48528 -17.5
    endloop
  endfacet
  facet normal 0 0 -1
    outer loop
      vertex -10.3923 -6 -17.5
      vertex -9.52024 7.30514 -17.5
      vertex -9.52024 -7.30514 -17.5
    endloop
  endfacet
  facet normal 0 0 -1
    outer loop
      vertex -10.3923 -6 -17.5
      vertex -10.3923 6 -17.5
      vertex -9.52024 7.30514 -17.5
    endloop
  endfacet
  facet normal 0 0 -1
    outer loop
      vertex -11.0866 -4.5922 -17.5
      vertex -10.3923 6 -17.5
      vertex -10.3923 -6 -17.5
    endloop
  endfacet
  facet normal 0 0 -1
    outer loop
      vertex -11.0866 -4.5922 -17.5
      vertex -11.0866 4.5922 -17.5
      vertex -10.3923 6 -17.5
    endloop
  endfacet
  facet normal 0 0 -1
    outer loop
      vertex -11.5911 -3.10583 -17.5
      vertex -11.0866 4.5922 -17.5
      vertex -11.0866 -4.5922 -17.5
    endloop
  endfacet
  facet normal 0 0 -1
    outer loop
      vertex -11.5911 -3.10583 -17.5
      vertex -11.5911 3.10583 -17.5
      vertex -11.0866 4.5922 -17.5
    endloop
  endfacet
  facet normal 0 0 -1
    outer loop
      vertex -11.8973 -1.56631 -17.5
      vertex -11.5911 3.10583 -17.5
      vertex -11.5911 -3.10583 -17.5
    endloop
  endfacet
  facet normal 0 0 -1
    outer loop
      vertex -11.8973 -1.56631 -17.5
      vertex -11.8973 1.56631 -17.5
      vertex -11.5911 3.10583 -17.5
    endloop
  endfacet
  facet normal 0 -0 -1
    outer loop
      vertex -11.8973 1.56631 -17.5
      vertex -11.8973 -1.56631 -17.5
      vertex -12 -0 -17.5
    endloop
  endfacet
  facet normal 0 0 1
    outer loop
      vertex 11.8973 1.56631 17.5
      vertex 11.8973 -1.56631 17.5
      vertex 12 0 17.5
    endloop
  endfacet
  facet normal 0 0 1
    outer loop
      vertex 11.5911 3.10583 17.5
      vertex 11.8973 -1.56631 17.5
      vertex 11.8973 1.56631 17.5
    endloop
  endfacet
  facet normal 0 0 1
    outer loop
      vertex 11.5911 3.10583 17.5
      vertex 11.5911 -3.10583 17.5
      vertex 11.8973 -1.56631 17.5
    endloop
  endfacet
  facet normal 0 0 1
    outer loop
      vertex 11.0866 4.5922 17.5
      vertex 11.5911 -3.10583 17.5
      vertex 11.5911 3.10583 17.5
    endloop
  endfacet
  facet normal 0 0 1
    outer loop
      vertex 11.0866 4.5922 17.5
      vertex 11.0866 -4.5922 17.5
      vertex 11.5911 -3.10583 17.5
    endloop
  endfacet
  facet normal 0 0 1
    outer loop
      vertex 10.3923 6 17.5
      vertex 11.0866 -4.5922 17.5
      vertex 11.0866 4.5922 17.5
    endloop
  endfacet
  facet normal 0 0 1
    outer loop
      vertex 10.3923 6 17.5
      vertex 10.3923 -6 17.5
      vertex 11.0866 -4.5922 17.5
    endloop
  endfacet
  facet normal 0 0 1
    outer loop
      vertex 9.52024 7.30514 17.5
      vertex 10.3923 -6 17.5
      vertex 10.3923 6 17.5
    endloop
  endfacet
  facet normal 0 0 1
    outer loop
      vertex 9.52024 7.30514 17.5
      vertex 9.52024 -7.30514 17.5
      vertex 10.3923 -6 17.5
    endloop
  endfacet
  facet normal 0 0 1
    outer loop
      vertex 8.48528 8.48528 17.5
      vertex 9.52024 -7.30514 17.5
      vertex 9.52024 7.30514 17.5
    endloop
  endfacet
  facet normal 0 0 1
    outer loop
      vertex 8.48528 8.48528 17.5
      vertex 8.48528 -8.48528 17.5
      vertex 9.52024 -7.30514 17.5
    endloop
  endfacet
  facet normal 0 0 1
    outer loop
      vertex 7.30514 9.52024 17.5
      vertex 8.48528 -8.48528 17.5
      vertex 8.48528 8.48528 17.5
    endloop
  endfacet
  facet normal 0 0 1
    outer loop
      vertex 7.30514 9.52024 17.5
      vertex 7.30514 -9.52024 17.5
      vertex 8.48528 -8.48528 17.5
    endloop
  endfacet
  facet normal 0 0 1
    outer loop
      vertex 6 10.3923 17.5
      vertex 7.30514 -9.52024 17.5
      vertex 7.30514 9.52024 17.5
    endloop
  endfacet
  facet normal 0 0 1
    outer loop
      vertex 6 10.3923 17.5
      vertex 6 -10.3923 17.5
      vertex 7.30514 -9.52024 17.5
    endloop
  endfacet
  facet normal 0 0 1
    outer loop
      vertex 4.5922 11.0866 17.5
      vertex 6 -10.3923 17.5
      vertex 6 10.3923 17.5
    endloop
  endfacet
  facet normal 0 0 1
    outer loop
      vertex 4.5922 11.0866 17.5
      vertex 4.5922 -11.0866 17.5
      vertex 6 -10.3923 17.5
    endloop
  endfacet
  facet normal 0 0 1
    outer loop
      vertex 3.10583 11.5911 17.5
      vertex 4.5922 -11.0866 17.5
      vertex 4.5922 11.0866 17.5
    endloop
  endfacet
  facet normal 0 0 1
    outer loop
      vertex 3.10583 11.5911 17.5
      vertex 3.10583 -11.5911 17.5
      vertex 4.5922 -11.0866 17.5
    endloop
  endfacet
  facet normal 0 0 1
    outer loop
      vertex 1.56631 11.8973 17.5
      vertex 3.10583 -11.5911 17.5
      vertex 3.10583 11.5911 17.5
    endloop
  endfacet
  facet normal 0 0 1
    outer loop
      vertex 1.56631 11.8973 17.5
      vertex 1.56631 -11.8973 17.5
      vertex 3.10583 -11.5911 17.5
    endloop
  endfacet
  facet normal 0 0 1
    outer loop
      vertex 0 12 17.5
      vertex 1.56631 -11.8973 17.5
      vertex 1.56631 11.8973 17.5
    endloop
  endfacet
  facet normal 0 0 1
    outer loop
      vertex 0 12 17.5
      vertex -0 -12 17.5
      vertex 1.56631 -11.8973 17.5
    endloop
  endfacet
  facet normal -0 0 1
    outer loop
      vertex -1.56631 11.8973 17.5
      vertex -0 -12 17.5
      vertex 0 12 17.5
    endloop
  endfacet
  facet normal 0 0 1
    outer loop
      vertex -1.56631 11.8973 17.5
      vertex -1.56631 -11.8973 17.5
      vertex -0 -12 17.5
    endloop
  endfacet
  facet normal -0 0 1
    outer loop
      vertex -3.10583 11.5911 17.5
      vertex -1.56631 -11.8973 17.5
      vertex -1.56631 11.8973 17.5
    endloop
  endfacet
  facet normal 0 0 1
    outer loop
      vertex -3.10583 11.5911 17.5
      vertex -3.10583 -11.5911 17.5
      vertex -1.56631 -11.8973 17.5
    endloop
  endfacet
  facet normal -0 0 1
    outer loop
      vertex -4.5922 11.0866 17.5
      vertex -3.10583 -11.5911 17.5
      vertex -3.10583 11.5911 17.5
    endloop
  endfacet
  facet normal 0 0 1
    outer loop
      vertex -4.5922 11.0866 17.5
      vertex -4.5922 -11.0866 17.5
      vertex -3.10583 -11.5911 17.5
    endloop
  endfacet
  facet normal -0 0 1
    outer loop
      vertex -6 10.3923 17.5
      vertex -4.5922 -11.0866 17.5
      vertex -4.5922 11.0866 17.5
    endloop
  endfacet
  facet normal 0 0 1
    outer loop
      vertex -6 10.3923 17.5
      vertex -6 -10.3923 17.5
      vertex -4.5922 -11.0866 17.5
    endloop
  endfacet
  facet normal -0 0 1
    outer loop
      vertex -7.30514 9.52024 17.5
      vertex -6 -10.3923 17.5
      vertex -6 10.3923 17.5
    endloop
  endfacet
  facet normal 0 0 1
    outer loop
      vertex -7.30514 9.52024 17.5
      vertex -7.30514 -9.52024 17.5
      vertex -6 -10.3923 17.5
    endloop
  endfacet
  facet normal -0 0 1
    outer loop
      vertex -8.48528 8.48528 17.5
      vertex -7.30514 -9.52024 17.5
      vertex -7.30514 9.52024 17.5
    endloop
  endfacet
  facet normal 0 0 1
    outer loop
      vertex -8.48528 8.48528 17.5
      vertex -8.48528 -8.48528 17.5
      vertex -7.30514 -9.52024 17.5
    endloop
  endfacet
  facet normal -0 0 1
    outer loop
      vertex -9.52024 7.30514 17.5
      vertex -8.48528 -8.48528 17.5
      vertex -8.48528 8.48528 17.5
    endloop
  endfacet
  facet normal 0 0 1
    outer loop
      vertex -9.52024 7.30514 17.5
      vertex -9.52024 -7.30514 17.5
      vertex -8.48528 -8.48528 17.5
    endloop
  endfacet
  facet normal -0 0 1
    outer loop
      vertex -10.3923 6 17.5
      vertex -9.52024 -7.30514 17.5
      vertex -9.52024 7.30514 17.5
    endloop
  endfacet
  facet normal 0 0 1
    outer loop
      vertex -10.3923 6 17.5
      vertex -10.3923 -6 17.5
      vertex -9.52024 -7.30514 17.5
    endloop
  endfacet
  facet normal -0 0 1
    outer loop
      vertex -11.0866 4.5922 17.5
      vertex -10.3923 -6 17.5
      vertex -10.3923 6 17.5
    endloop
  endfacet
  facet normal 0 0 1
    outer loop
      vertex -11.0866 4.5922 17.5
      vertex -11.0866 -4.5922 17.5
      vertex -10.3923 -6 17.5
    endloop
  endfacet
  facet normal -0 0 1
    outer loop
      vertex -11.5911 3.10583 17.5
      vertex -11.0866 -4.5922 17.5
      vertex -11.0866 4.5922 17.5
    endloop
  endfacet
  facet normal 0 0 1
    outer loop
      vertex -11.5911 3.10583 17.5
      vertex -11.5911 -3.10583 17.5
      vertex -11.0866 -4.5922 17.5
    endloop
  endfacet
  facet normal -0 0 1
    outer loop
      vertex -11.8973 1.56631 17.5
      vertex -11.5911 -3.10583 17.5
      vertex -11.5911 3.10583 17.5
    endloop
  endfacet
  facet normal 0 0 1
    outer loop
      vertex -11.8973 1.56631 17.5
      vertex -11.8973 -1.56631 17.5
      vertex -11.5911 -3.10583 17.5
    endloop
  endfacet
  facet normal 0 -0 1
    outer loop
      vertex -11.8973 -1.56631 17.5
      vertex -11.8973 1.56631 17.5
      vertex -12 -0 17.5
    endloop
  endfacet
endsolid OpenSCAD_Model
