solid OpenSCAD_Model
  facet normal 1 -0 0
    outer loop
      vertex 55 -45 2
      vertex 55 45 -2
      vertex 55 45 2
    endloop
  endfacet
  facet normal 1 0 0
    outer loop
      vertex 55 45 -2
      vertex 55 -45 2
      vertex 55 -45 -2
    endloop
  endfacet
  facet normal 0 0 1
    outer loop
      vertex 55 45 2
      vertex 4 0 2
      vertex 55 -45 2
    endloop
  endfacet
  facet normal 0 0 1
    outer loop
      vertex 55 45 2
      vertex 3.96578 0.522104 2
      vertex 4 0 2
    endloop
  endfacet
  facet normal 0 0 1
    outer loop
      vertex 55 45 2
      vertex 3.8637 1.03528 2
      vertex 3.96578 0.522104 2
    endloop
  endfacet
  facet normal 0 0 1
    outer loop
      vertex 55 45 2
      vertex 3.69552 1.53073 2
      vertex 3.8637 1.03528 2
    endloop
  endfacet
  facet normal 0 0 1
    outer loop
      vertex 55 45 2
      vertex 3.4641 2 2
      vertex 3.69552 1.53073 2
    endloop
  endfacet
  facet normal 0 0 1
    outer loop
      vertex 55 45 2
      vertex 3.17341 2.43505 2
      vertex 3.4641 2 2
    endloop
  endfacet
  facet normal 0 0 1
    outer loop
      vertex 55 45 2
      vertex 2.82843 2.82843 2
      vertex 3.17341 2.43505 2
    endloop
  endfacet
  facet normal 0 0 1
    outer loop
      vertex 55 45 2
      vertex 2.43505 3.17341 2
      vertex 2.82843 2.82843 2
    endloop
  endfacet
  facet normal 0 0 1
    outer loop
      vertex 55 45 2
      vertex 2 3.4641 2
      vertex 2.43505 3.17341 2
    endloop
  endfacet
  facet normal 0 0 1
    outer loop
      vertex 55 45 2
      vertex 1.53073 3.69552 2
      vertex 2 3.4641 2
    endloop
  endfacet
  facet normal 0 0 1
    outer loop
      vertex 55 45 2
      vertex 1.03528 3.8637 2
      vertex 1.53073 3.69552 2
    endloop
  endfacet
  facet normal 0 0 1
    outer loop
      vertex 55 45 2
      vertex 0.522104 3.96578 2
      vertex 1.03528 3.8637 2
    endloop
  endfacet
  facet normal 0 0 1
    outer loop
      vertex 55 45 2
      vertex 0 4 2
      vertex 0.522104 3.96578 2
    endloop
  endfacet
  facet normal -0 0 1
    outer loop
      vertex -55 45 2
      vertex 0 4 2
      vertex 55 45 2
    endloop
  endfacet
  facet normal 0 0 1
    outer loop
      vertex 0 4 2
      vertex -55 45 2
      vertex -0.522104 3.96578 2
    endloop
  endfacet
  facet normal 0 0 1
    outer loop
      vertex -0.522104 3.96578 2
      vertex -55 45 2
      vertex -1.03528 3.8637 2
    endloop
  endfacet
  facet normal 0 0 1
    outer loop
      vertex -1.03528 3.8637 2
      vertex -55 45 2
      vertex -1.53073 3.69552 2
    endloop
  endfacet
  facet normal 0 0 1
    outer loop
      vertex -1.53073 3.69552 2
      vertex -55 45 2
      vertex -2 3.4641 2
    endloop
  endfacet
  facet normal 0 0 1
    outer loop
      vertex -3.96578 0.522104 2
      vertex -55 45 2
      vertex -4 0 2
    endloop
  endfacet
  facet normal 0 0 1
    outer loop
      vertex -3.8637 1.03528 2
      vertex -55 45 2
      vertex -3.96578 0.522104 2
    endloop
  endfacet
  facet normal 0 0 1
    outer loop
      vertex -3.69552 1.53073 2
      vertex -55 45 2
      vertex -3.8637 1.03528 2
    endloop
  endfacet
  facet normal 0 0 1
    outer loop
      vertex -3.4641 2 2
      vertex -55 45 2
      vertex -3.69552 1.53073 2
    endloop
  endfacet
  facet normal 0 0 1
    outer loop
      vertex -3.17341 2.43505 2
      vertex -55 45 2
      vertex -3.4641 2 2
    endloop
  endfacet
  facet normal 0 0 1
    outer loop
      vertex -2.82843 2.82843 2
      vertex -55 45 2
      vertex -3.17341 2.43505 2
    endloop
  endfacet
  facet normal 0 0 1
    outer loop
      vertex -2.43505 3.17341 2
      vertex -55 45 2
      vertex -2.82843 2.82843 2
    endloop
  endfacet
  facet normal 0 0 1
    outer loop
      vertex -2 3.4641 2
      vertex -55 45 2
      vertex -2.43505 3.17341 2
    endloop
  endfacet
  facet normal -0 0 1
    outer loop
      vertex 3.96578 -0.522104 2
      vertex 55 -45 2
      vertex 4 0 2
    endloop
  endfacet
  facet normal -0 0 1
    outer loop
      vertex 3.8637 -1.03528 2
      vertex 55 -45 2
      vertex 3.96578 -0.522104 2
    endloop
  endfacet
  facet normal -0 0 1
    outer loop
      vertex 3.69552 -1.53073 2
      vertex 55 -45 2
      vertex 3.8637 -1.03528 2
    endloop
  endfacet
  facet normal -0 0 1
    outer loop
      vertex 3.4641 -2 2
      vertex 55 -45 2
      vertex 3.69552 -1.53073 2
    endloop
  endfacet
  facet normal -0 0 1
    outer loop
      vertex 3.17341 -2.43505 2
      vertex 55 -45 2
      vertex 3.4641 -2 2
    endloop
  endfacet
  facet normal -0 0 1
    outer loop
      vertex 2.82843 -2.82843 2
      vertex 55 -45 2
      vertex 3.17341 -2.43505 2
    endloop
  endfacet
  facet normal -0 0 1
    outer loop
      vertex 2.43505 -3.17341 2
      vertex 55 -45 2
      vertex 2.82843 -2.82843 2
    endloop
  endfacet
  facet normal -0 0 1
    outer loop
      vertex 2 -3.4641 2
      vertex 55 -45 2
      vertex 2.43505 -3.17341 2
    endloop
  endfacet
  facet normal -0 0 1
    outer loop
      vertex 1.53073 -3.69552 2
      vertex 55 -45 2
      vertex 2 -3.4641 2
    endloop
  endfacet
  facet normal -0 0 1
    outer loop
      vertex 1.03528 -3.8637 2
      vertex 55 -45 2
      vertex 1.53073 -3.69552 2
    endloop
  endfacet
  facet normal -0 0 1
    outer loop
      vertex 0.522104 -3.96578 2
      vertex 55 -45 2
      vertex 1.03528 -3.8637 2
    endloop
  endfacet
  facet normal -0 0 1
    outer loop
      vertex 0 -4 2
      vertex 55 -45 2
      vertex 0.522104 -3.96578 2
    endloop
  endfacet
  facet normal 0 0 1
    outer loop
      vertex -55 -45 2
      vertex 0 -4 2
      vertex -0.522104 -3.96578 2
    endloop
  endfacet
  facet normal 0 0 1
    outer loop
      vertex -55 -45 2
      vertex -0.522104 -3.96578 2
      vertex -1.03528 -3.8637 2
    endloop
  endfacet
  facet normal 0 0 1
    outer loop
      vertex -55 -45 2
      vertex -1.03528 -3.8637 2
      vertex -1.53073 -3.69552 2
    endloop
  endfacet
  facet normal 0 0 1
    outer loop
      vertex -55 -45 2
      vertex -1.53073 -3.69552 2
      vertex -2 -3.4641 2
    endloop
  endfacet
  facet normal 0 0 1
    outer loop
      vertex -55 -45 2
      vertex -2 -3.4641 2
      vertex -2.43505 -3.17341 2
    endloop
  endfacet
  facet normal 0 0 1
    outer loop
      vertex -55 -45 2
      vertex -4 0 2
      vertex -55 45 2
    endloop
  endfacet
  facet normal 0 0 1
    outer loop
      vertex -4 0 2
      vertex -55 -45 2
      vertex -3.96578 -0.522104 2
    endloop
  endfacet
  facet normal 0 0 1
    outer loop
      vertex -3.96578 -0.522104 2
      vertex -55 -45 2
      vertex -3.8637 -1.03528 2
    endloop
  endfacet
  facet normal 0 0 1
    outer loop
      vertex -3.8637 -1.03528 2
      vertex -55 -45 2
      vertex -3.69552 -1.53073 2
    endloop
  endfacet
  facet normal 0 0 1
    outer loop
      vertex -3.69552 -1.53073 2
      vertex -55 -45 2
      vertex -3.4641 -2 2
    endloop
  endfacet
  facet normal 0 0 1
    outer loop
      vertex -3.4641 -2 2
      vertex -55 -45 2
      vertex -3.17341 -2.43505 2
    endloop
  endfacet
  facet normal 0 0 1
    outer loop
      vertex 0 -4 2
      vertex -55 -45 2
      vertex 55 -45 2
    endloop
  endfacet
  facet normal 0 0 1
    outer loop
      vertex -2.82843 -2.82843 2
      vertex -55 -45 2
      vertex -2.43505 -3.17341 2
    endloop
  endfacet
  facet normal 0 0 1
    outer loop
      vertex -3.17341 -2.43505 2
      vertex -55 -45 2
      vertex -2.82843 -2.82843 2
    endloop
  endfacet
  facet normal 0 0 -1
    outer loop
      vertex 55 -45 -2
      vertex 4 0 -2
      vertex 55 45 -2
    endloop
  endfacet
  facet normal 0 0 -1
    outer loop
      vertex 55 -45 -2
      vertex 3.96578 -0.522104 -2
      vertex 4 0 -2
    endloop
  endfacet
  facet normal 0 0 -1
    outer loop
      vertex 55 -45 -2
      vertex 3.8637 -1.03528 -2
      vertex 3.96578 -0.522104 -2
    endloop
  endfacet
  facet normal 0 0 -1
    outer loop
      vertex 55 -45 -2
      vertex 3.69552 -1.53073 -2
      vertex 3.8637 -1.03528 -2
    endloop
  endfacet
  facet normal 0 0 -1
    outer loop
      vertex 55 -45 -2
      vertex 3.4641 -2 -2
      vertex 3.69552 -1.53073 -2
    endloop
  endfacet
  facet normal 0 0 -1
    outer loop
      vertex 55 -45 -2
      vertex 3.17341 -2.43505 -2
      vertex 3.4641 -2 -2
    endloop
  endfacet
  facet normal 0 0 -1
    outer loop
      vertex 55 -45 -2
      vertex 2.82843 -2.82843 -2
      vertex 3.17341 -2.43505 -2
    endloop
  endfacet
  facet normal 0 0 -1
    outer loop
      vertex 55 -45 -2
      vertex 2.43505 -3.17341 -2
      vertex 2.82843 -2.82843 -2
    endloop
  endfacet
  facet normal 0 0 -1
    outer loop
      vertex 55 -45 -2
      vertex 2 -3.4641 -2
      vertex 2.43505 -3.17341 -2
    endloop
  endfacet
  facet normal 0 0 -1
    outer loop
      vertex 55 -45 -2
      vertex 1.53073 -3.69552 -2
      vertex 2 -3.4641 -2
    endloop
  endfacet
  facet normal 0 0 -1
    outer loop
      vertex 55 -45 -2
      vertex 1.03528 -3.8637 -2
      vertex 1.53073 -3.69552 -2
    endloop
  endfacet
  facet normal 0 0 -1
    outer loop
      vertex 55 -45 -2
      vertex 0.522104 -3.96578 -2
      vertex 1.03528 -3.8637 -2
    endloop
  endfacet
  facet normal 0 0 -1
    outer loop
      vertex 55 -45 -2
      vertex 0 -4 -2
      vertex 0.522104 -3.96578 -2
    endloop
  endfacet
  facet normal 0 0 -1
    outer loop
      vertex -55 -45 -2
      vertex 0 -4 -2
      vertex 55 -45 -2
    endloop
  endfacet
  facet normal -0 0 -1
    outer loop
      vertex 0 -4 -2
      vertex -55 -45 -2
      vertex -0.522104 -3.96578 -2
    endloop
  endfacet
  facet normal -0 0 -1
    outer loop
      vertex -0.522104 -3.96578 -2
      vertex -55 -45 -2
      vertex -1.03528 -3.8637 -2
    endloop
  endfacet
  facet normal -0 0 -1
    outer loop
      vertex -1.03528 -3.8637 -2
      vertex -55 -45 -2
      vertex -1.53073 -3.69552 -2
    endloop
  endfacet
  facet normal -0 0 -1
    outer loop
      vertex -1.53073 -3.69552 -2
      vertex -55 -45 -2
      vertex -2 -3.4641 -2
    endloop
  endfacet
  facet normal -0 0 -1
    outer loop
      vertex -3.96578 -0.522104 -2
      vertex -55 -45 -2
      vertex -4 0 -2
    endloop
  endfacet
  facet normal -0 0 -1
    outer loop
      vertex -3.8637 -1.03528 -2
      vertex -55 -45 -2
      vertex -3.96578 -0.522104 -2
    endloop
  endfacet
  facet normal -0 0 -1
    outer loop
      vertex -3.69552 -1.53073 -2
      vertex -55 -45 -2
      vertex -3.8637 -1.03528 -2
    endloop
  endfacet
  facet normal -0 0 -1
    outer loop
      vertex -3.4641 -2 -2
      vertex -55 -45 -2
      vertex -3.69552 -1.53073 -2
    endloop
  endfacet
  facet normal -0 0 -1
    outer loop
      vertex -3.17341 -2.43505 -2
      vertex -55 -45 -2
      vertex -3.4641 -2 -2
    endloop
  endfacet
  facet normal -0 0 -1
    outer loop
      vertex -2.82843 -2.82843 -2
      vertex -55 -45 -2
      vertex -3.17341 -2.43505 -2
    endloop
  endfacet
  facet normal -0 0 -1
    outer loop
      vertex -2.43505 -3.17341 -2
      vertex -55 -45 -2
      vertex -2.82843 -2.82843 -2
    endloop
  endfacet
  facet normal -0 0 -1
    outer loop
      vertex -2 -3.4641 -2
      vertex -55 -45 -2
      vertex -2.43505 -3.17341 -2
    endloop
  endfacet
  facet normal 0 0 -1
    outer loop
      vertex 3.96578 0.522104 -2
      vertex 55 45 -2
      vertex 4 0 -2
    endloop
  endfacet
  facet normal 0 0 -1
    outer loop
      vertex 3.8637 1.03528 -2
      vertex 55 45 -2
      vertex 3.96578 0.522104 -2
    endloop
  endfacet
  facet normal 0 0 -1
    outer loop
      vertex 3.69552 1.53073 -2
      vertex 55 45 -2
      vertex 3.8637 1.03528 -2
    endloop
  endfacet
  facet normal 0 0 -1
    outer loop
      vertex 3.4641 2 -2
      vertex 55 45 -2
      vertex 3.69552 1.53073 -2
    endloop
  endfacet
  facet normal 0 0 -1
    outer loop
      vertex 3.17341 2.43505 -2
      vertex 55 45 -2
      vertex 3.4641 2 -2
    endloop
  endfacet
  facet normal 0 0 -1
    outer loop
      vertex 2.82843 2.82843 -2
      vertex 55 45 -2
      vertex 3.17341 2.43505 -2
    endloop
  endfacet
  facet normal 0 0 -1
    outer loop
      vertex 2.43505 3.17341 -2
      vertex 55 45 -2
      vertex 2.82843 2.82843 -2
    endloop
  endfacet
  facet normal 0 0 -1
    outer loop
      vertex 2 3.4641 -2
      vertex 55 45 -2
      vertex 2.43505 3.17341 -2
    endloop
  endfacet
  facet normal 0 0 -1
    outer loop
      vertex 1.53073 3.69552 -2
      vertex 55 45 -2
      vertex 2 3.4641 -2
    endloop
  endfacet
  facet normal 0 0 -1
    outer loop
      vertex 1.03528 3.8637 -2
      vertex 55 45 -2
      vertex 1.53073 3.69552 -2
    endloop
  endfacet
  facet normal 0 0 -1
    outer loop
      vertex 0.522104 3.96578 -2
      vertex 55 45 -2
      vertex 1.03528 3.8637 -2
    endloop
  endfacet
  facet normal 0 0 -1
    outer loop
      vertex 0 4 -2
      vertex 55 45 -2
      vertex 0.522104 3.96578 -2
    endloop
  endfacet
  facet normal 0 0 -1
    outer loop
      vertex -55 45 -2
      vertex 0 4 -2
      vertex -0.522104 3.96578 -2
    endloop
  endfacet
  facet normal 0 0 -1
    outer loop
      vertex -55 45 -2
      vertex -0.522104 3.96578 -2
      vertex -1.03528 3.8637 -2
    endloop
  endfacet
  facet normal 0 0 -1
    outer loop
      vertex -55 45 -2
      vertex -1.03528 3.8637 -2
      vertex -1.53073 3.69552 -2
    endloop
  endfacet
  facet normal 0 0 -1
    outer loop
      vertex -55 45 -2
      vertex -1.53073 3.69552 -2
      vertex -2 3.4641 -2
    endloop
  endfacet
  facet normal 0 0 -1
    outer loop
      vertex -55 45 -2
      vertex -2 3.4641 -2
      vertex -2.43505 3.17341 -2
    endloop
  endfacet
  facet normal 0 0 -1
    outer loop
      vertex -55 45 -2
      vertex -4 0 -2
      vertex -55 -45 -2
    endloop
  endfacet
  facet normal 0 0 -1
    outer loop
      vertex -4 0 -2
      vertex -55 45 -2
      vertex -3.96578 0.522104 -2
    endloop
  endfacet
  facet normal 0 0 -1
    outer loop
      vertex -3.96578 0.522104 -2
      vertex -55 45 -2
      vertex -3.8637 1.03528 -2
    endloop
  endfacet
  facet normal 0 0 -1
    outer loop
      vertex -3.8637 1.03528 -2
      vertex -55 45 -2
      vertex -3.69552 1.53073 -2
    endloop
  endfacet
  facet normal 0 0 -1
    outer loop
      vertex -3.69552 1.53073 -2
      vertex -55 45 -2
      vertex -3.4641 2 -2
    endloop
  endfacet
  facet normal 0 0 -1
    outer loop
      vertex -3.4641 2 -2
      vertex -55 45 -2
      vertex -3.17341 2.43505 -2
    endloop
  endfacet
  facet normal 0 0 -1
    outer loop
      vertex 0 4 -2
      vertex -55 45 -2
      vertex 55 45 -2
    endloop
  endfacet
  facet normal 0 0 -1
    outer loop
      vertex -2.82843 2.82843 -2
      vertex -55 45 -2
      vertex -2.43505 3.17341 -2
    endloop
  endfacet
  facet normal 0 0 -1
    outer loop
      vertex -3.17341 2.43505 -2
      vertex -55 45 -2
      vertex -2.82843 2.82843 -2
    endloop
  endfacet
  facet normal -1 0 0
    outer loop
      vertex -55 -45 -2
      vertex -55 45 2
      vertex -55 45 -2
    endloop
  endfacet
  facet normal -1 -0 0
    outer loop
      vertex -55 45 2
      vertex -55 -45 -2
      vertex -55 -45 2
    endloop
  endfacet
  facet normal 0 1 -0
    outer loop
      vertex 55 45 -2
      vertex -55 45 2
      vertex 55 45 2
    endloop
  endfacet
  facet normal 0 1 0
    outer loop
      vertex -55 45 2
      vertex 55 45 -2
      vertex -55 45 -2
    endloop
  endfacet
  facet normal 0 -1 0
    outer loop
      vertex -55 -45 -2
      vertex 55 -45 2
      vertex -55 -45 2
    endloop
  endfacet
  facet normal 0 -1 -0
    outer loop
      vertex 55 -45 2
      vertex -55 -45 -2
      vertex 55 -45 -2
    endloop
  endfacet
  facet normal -0.997859 -0.0654022 0
    outer loop
      vertex 4 0 -2
      vertex 3.96578 0.522104 2
      vertex 3.96578 0.522104 -2
    endloop
  endfacet
  facet normal -0.997859 -0.0654022 0
    outer loop
      vertex 3.96578 0.522104 2
      vertex 4 0 -2
      vertex 4 0 2
    endloop
  endfacet
  facet normal 0.831471 -0.555569 0
    outer loop
      vertex -3.4641 2 2
      vertex -3.17341 2.43505 -2
      vertex -3.17341 2.43505 2
    endloop
  endfacet
  facet normal 0.831471 -0.555569 0
    outer loop
      vertex -3.17341 2.43505 -2
      vertex -3.4641 2 2
      vertex -3.4641 2 -2
    endloop
  endfacet
  facet normal 0.0654022 -0.997859 0
    outer loop
      vertex -0.522104 3.96578 -2
      vertex 0 4 2
      vertex -0.522104 3.96578 2
    endloop
  endfacet
  facet normal 0.0654022 -0.997859 0
    outer loop
      vertex 0 4 2
      vertex -0.522104 3.96578 -2
      vertex 0 4 -2
    endloop
  endfacet
  facet normal -0.195096 -0.980784 0
    outer loop
      vertex 0.522104 3.96578 -2
      vertex 1.03528 3.8637 2
      vertex 0.522104 3.96578 2
    endloop
  endfacet
  facet normal -0.195096 -0.980784 -0
    outer loop
      vertex 1.03528 3.8637 2
      vertex 0.522104 3.96578 -2
      vertex 1.03528 3.8637 -2
    endloop
  endfacet
  facet normal -0.896871 -0.442291 0
    outer loop
      vertex 3.69552 1.53073 -2
      vertex 3.4641 2 2
      vertex 3.4641 2 -2
    endloop
  endfacet
  facet normal -0.896871 -0.442291 0
    outer loop
      vertex 3.4641 2 2
      vertex 3.69552 1.53073 -2
      vertex 3.69552 1.53073 2
    endloop
  endfacet
  facet normal -0.831471 -0.555569 0
    outer loop
      vertex 3.4641 2 -2
      vertex 3.17341 2.43505 2
      vertex 3.17341 2.43505 -2
    endloop
  endfacet
  facet normal -0.831471 -0.555569 0
    outer loop
      vertex 3.17341 2.43505 2
      vertex 3.4641 2 -2
      vertex 3.4641 2 2
    endloop
  endfacet
  facet normal -0.442291 -0.896871 0
    outer loop
      vertex 1.53073 3.69552 -2
      vertex 2 3.4641 2
      vertex 1.53073 3.69552 2
    endloop
  endfacet
  facet normal -0.442291 -0.896871 -0
    outer loop
      vertex 2 3.4641 2
      vertex 1.53073 3.69552 -2
      vertex 2 3.4641 -2
    endloop
  endfacet
  facet normal -0.65934 0.751845 0
    outer loop
      vertex 2.82843 -2.82843 -2
      vertex 2.43505 -3.17341 2
      vertex 2.82843 -2.82843 2
    endloop
  endfacet
  facet normal -0.65934 0.751845 0
    outer loop
      vertex 2.43505 -3.17341 2
      vertex 2.82843 -2.82843 -2
      vertex 2.43505 -3.17341 -2
    endloop
  endfacet
  facet normal 0.195096 -0.980784 0
    outer loop
      vertex -1.03528 3.8637 -2
      vertex -0.522104 3.96578 2
      vertex -1.03528 3.8637 2
    endloop
  endfacet
  facet normal 0.195096 -0.980784 0
    outer loop
      vertex -0.522104 3.96578 2
      vertex -1.03528 3.8637 -2
      vertex -0.522104 3.96578 -2
    endloop
  endfacet
  facet normal 0.442291 -0.896871 0
    outer loop
      vertex -2 3.4641 -2
      vertex -1.53073 3.69552 2
      vertex -2 3.4641 2
    endloop
  endfacet
  facet normal 0.442291 -0.896871 0
    outer loop
      vertex -1.53073 3.69552 2
      vertex -2 3.4641 -2
      vertex -1.53073 3.69552 -2
    endloop
  endfacet
  facet normal -0.946932 -0.321435 0
    outer loop
      vertex 3.8637 1.03528 -2
      vertex 3.69552 1.53073 2
      vertex 3.69552 1.53073 -2
    endloop
  endfacet
  facet normal -0.946932 -0.321435 0
    outer loop
      vertex 3.69552 1.53073 2
      vertex 3.8637 1.03528 -2
      vertex 3.8637 1.03528 2
    endloop
  endfacet
  facet normal 0.442291 0.896871 -0
    outer loop
      vertex -1.53073 -3.69552 -2
      vertex -2 -3.4641 2
      vertex -1.53073 -3.69552 2
    endloop
  endfacet
  facet normal 0.442291 0.896871 0
    outer loop
      vertex -2 -3.4641 2
      vertex -1.53073 -3.69552 -2
      vertex -2 -3.4641 -2
    endloop
  endfacet
  facet normal 0.946932 -0.321435 0
    outer loop
      vertex -3.8637 1.03528 2
      vertex -3.69552 1.53073 -2
      vertex -3.69552 1.53073 2
    endloop
  endfacet
  facet normal 0.946932 -0.321435 0
    outer loop
      vertex -3.69552 1.53073 -2
      vertex -3.8637 1.03528 2
      vertex -3.8637 1.03528 -2
    endloop
  endfacet
  facet normal 0.946932 0.321435 0
    outer loop
      vertex -3.69552 -1.53073 2
      vertex -3.8637 -1.03528 -2
      vertex -3.8637 -1.03528 2
    endloop
  endfacet
  facet normal 0.946932 0.321435 0
    outer loop
      vertex -3.8637 -1.03528 -2
      vertex -3.69552 -1.53073 2
      vertex -3.69552 -1.53073 -2
    endloop
  endfacet
  facet normal -0.946932 0.321435 0
    outer loop
      vertex 3.69552 -1.53073 -2
      vertex 3.8637 -1.03528 2
      vertex 3.8637 -1.03528 -2
    endloop
  endfacet
  facet normal -0.946932 0.321435 0
    outer loop
      vertex 3.8637 -1.03528 2
      vertex 3.69552 -1.53073 -2
      vertex 3.69552 -1.53073 2
    endloop
  endfacet
  facet normal -0.0654022 0.997859 0
    outer loop
      vertex 0.522104 -3.96578 -2
      vertex 0 -4 2
      vertex 0.522104 -3.96578 2
    endloop
  endfacet
  facet normal -0.0654022 0.997859 0
    outer loop
      vertex 0 -4 2
      vertex 0.522104 -3.96578 -2
      vertex 0 -4 -2
    endloop
  endfacet
  facet normal -0.321435 0.946932 0
    outer loop
      vertex 1.53073 -3.69552 -2
      vertex 1.03528 -3.8637 2
      vertex 1.53073 -3.69552 2
    endloop
  endfacet
  facet normal -0.321435 0.946932 0
    outer loop
      vertex 1.03528 -3.8637 2
      vertex 1.53073 -3.69552 -2
      vertex 1.03528 -3.8637 -2
    endloop
  endfacet
  facet normal -0.751845 0.65934 0
    outer loop
      vertex 2.82843 -2.82843 -2
      vertex 3.17341 -2.43505 2
      vertex 3.17341 -2.43505 -2
    endloop
  endfacet
  facet normal -0.751845 0.65934 0
    outer loop
      vertex 3.17341 -2.43505 2
      vertex 2.82843 -2.82843 -2
      vertex 2.82843 -2.82843 2
    endloop
  endfacet
  facet normal 0.751845 -0.65934 0
    outer loop
      vertex -3.17341 2.43505 2
      vertex -2.82843 2.82843 -2
      vertex -2.82843 2.82843 2
    endloop
  endfacet
  facet normal 0.751845 -0.65934 0
    outer loop
      vertex -2.82843 2.82843 -2
      vertex -3.17341 2.43505 2
      vertex -3.17341 2.43505 -2
    endloop
  endfacet
  facet normal 0.65934 -0.751845 0
    outer loop
      vertex -2.82843 2.82843 -2
      vertex -2.43505 3.17341 2
      vertex -2.82843 2.82843 2
    endloop
  endfacet
  facet normal 0.65934 -0.751845 0
    outer loop
      vertex -2.43505 3.17341 2
      vertex -2.82843 2.82843 -2
      vertex -2.43505 3.17341 -2
    endloop
  endfacet
  facet normal 0.555569 0.831471 -0
    outer loop
      vertex -2 -3.4641 -2
      vertex -2.43505 -3.17341 2
      vertex -2 -3.4641 2
    endloop
  endfacet
  facet normal 0.555569 0.831471 0
    outer loop
      vertex -2.43505 -3.17341 2
      vertex -2 -3.4641 -2
      vertex -2.43505 -3.17341 -2
    endloop
  endfacet
  facet normal -0.980784 -0.195096 0
    outer loop
      vertex 3.96578 0.522104 -2
      vertex 3.8637 1.03528 2
      vertex 3.8637 1.03528 -2
    endloop
  endfacet
  facet normal -0.980784 -0.195096 0
    outer loop
      vertex 3.8637 1.03528 2
      vertex 3.96578 0.522104 -2
      vertex 3.96578 0.522104 2
    endloop
  endfacet
  facet normal 0.997859 0.0654022 0
    outer loop
      vertex -3.96578 -0.522104 2
      vertex -4 0 -2
      vertex -4 0 2
    endloop
  endfacet
  facet normal 0.997859 0.0654022 0
    outer loop
      vertex -4 0 -2
      vertex -3.96578 -0.522104 2
      vertex -3.96578 -0.522104 -2
    endloop
  endfacet
  facet normal -0.555569 0.831471 0
    outer loop
      vertex 2.43505 -3.17341 -2
      vertex 2 -3.4641 2
      vertex 2.43505 -3.17341 2
    endloop
  endfacet
  facet normal -0.555569 0.831471 0
    outer loop
      vertex 2 -3.4641 2
      vertex 2.43505 -3.17341 -2
      vertex 2 -3.4641 -2
    endloop
  endfacet
  facet normal 0.0654022 0.997859 -0
    outer loop
      vertex 0 -4 -2
      vertex -0.522104 -3.96578 2
      vertex 0 -4 2
    endloop
  endfacet
  facet normal 0.0654022 0.997859 0
    outer loop
      vertex -0.522104 -3.96578 2
      vertex 0 -4 -2
      vertex -0.522104 -3.96578 -2
    endloop
  endfacet
  facet normal 0.831471 0.555569 0
    outer loop
      vertex -3.17341 -2.43505 2
      vertex -3.4641 -2 -2
      vertex -3.4641 -2 2
    endloop
  endfacet
  facet normal 0.831471 0.555569 0
    outer loop
      vertex -3.4641 -2 -2
      vertex -3.17341 -2.43505 2
      vertex -3.17341 -2.43505 -2
    endloop
  endfacet
  facet normal -0.65934 -0.751845 0
    outer loop
      vertex 2.43505 3.17341 -2
      vertex 2.82843 2.82843 2
      vertex 2.43505 3.17341 2
    endloop
  endfacet
  facet normal -0.65934 -0.751845 -0
    outer loop
      vertex 2.82843 2.82843 2
      vertex 2.43505 3.17341 -2
      vertex 2.82843 2.82843 -2
    endloop
  endfacet
  facet normal -0.555569 -0.831471 0
    outer loop
      vertex 2 3.4641 -2
      vertex 2.43505 3.17341 2
      vertex 2 3.4641 2
    endloop
  endfacet
  facet normal -0.555569 -0.831471 -0
    outer loop
      vertex 2.43505 3.17341 2
      vertex 2 3.4641 -2
      vertex 2.43505 3.17341 -2
    endloop
  endfacet
  facet normal 0.321435 -0.946932 0
    outer loop
      vertex -1.53073 3.69552 -2
      vertex -1.03528 3.8637 2
      vertex -1.53073 3.69552 2
    endloop
  endfacet
  facet normal 0.321435 -0.946932 0
    outer loop
      vertex -1.03528 3.8637 2
      vertex -1.53073 3.69552 -2
      vertex -1.03528 3.8637 -2
    endloop
  endfacet
  facet normal 0.980784 -0.195096 0
    outer loop
      vertex -3.96578 0.522104 2
      vertex -3.8637 1.03528 -2
      vertex -3.8637 1.03528 2
    endloop
  endfacet
  facet normal 0.980784 -0.195096 0
    outer loop
      vertex -3.8637 1.03528 -2
      vertex -3.96578 0.522104 2
      vertex -3.96578 0.522104 -2
    endloop
  endfacet
  facet normal 0.751845 0.65934 0
    outer loop
      vertex -2.82843 -2.82843 2
      vertex -3.17341 -2.43505 -2
      vertex -3.17341 -2.43505 2
    endloop
  endfacet
  facet normal 0.751845 0.65934 0
    outer loop
      vertex -3.17341 -2.43505 -2
      vertex -2.82843 -2.82843 2
      vertex -2.82843 -2.82843 -2
    endloop
  endfacet
  facet normal 0.555569 -0.831471 0
    outer loop
      vertex -2.43505 3.17341 -2
      vertex -2 3.4641 2
      vertex -2.43505 3.17341 2
    endloop
  endfacet
  facet normal 0.555569 -0.831471 0
    outer loop
      vertex -2 3.4641 2
      vertex -2.43505 3.17341 -2
      vertex -2 3.4641 -2
    endloop
  endfacet
  facet normal 0.997859 -0.0654022 0
    outer loop
      vertex -4 0 2
      vertex -3.96578 0.522104 -2
      vertex -3.96578 0.522104 2
    endloop
  endfacet
  facet normal 0.997859 -0.0654022 0
    outer loop
      vertex -3.96578 0.522104 -2
      vertex -4 0 2
      vertex -4 0 -2
    endloop
  endfacet
  facet normal 0.980784 0.195096 0
    outer loop
      vertex -3.8637 -1.03528 2
      vertex -3.96578 -0.522104 -2
      vertex -3.96578 -0.522104 2
    endloop
  endfacet
  facet normal 0.980784 0.195096 0
    outer loop
      vertex -3.96578 -0.522104 -2
      vertex -3.8637 -1.03528 2
      vertex -3.8637 -1.03528 -2
    endloop
  endfacet
  facet normal -0.831471 0.555569 0
    outer loop
      vertex 3.17341 -2.43505 -2
      vertex 3.4641 -2 2
      vertex 3.4641 -2 -2
    endloop
  endfacet
  facet normal -0.831471 0.555569 0
    outer loop
      vertex 3.4641 -2 2
      vertex 3.17341 -2.43505 -2
      vertex 3.17341 -2.43505 2
    endloop
  endfacet
  facet normal -0.195096 0.980784 0
    outer loop
      vertex 1.03528 -3.8637 -2
      vertex 0.522104 -3.96578 2
      vertex 1.03528 -3.8637 2
    endloop
  endfacet
  facet normal -0.195096 0.980784 0
    outer loop
      vertex 0.522104 -3.96578 2
      vertex 1.03528 -3.8637 -2
      vertex 0.522104 -3.96578 -2
    endloop
  endfacet
  facet normal -0.0654022 -0.997859 0
    outer loop
      vertex 0 4 -2
      vertex 0.522104 3.96578 2
      vertex 0 4 2
    endloop
  endfacet
  facet normal -0.0654022 -0.997859 -0
    outer loop
      vertex 0.522104 3.96578 2
      vertex 0 4 -2
      vertex 0.522104 3.96578 -2
    endloop
  endfacet
  facet normal 0.195096 0.980784 -0
    outer loop
      vertex -0.522104 -3.96578 -2
      vertex -1.03528 -3.8637 2
      vertex -0.522104 -3.96578 2
    endloop
  endfacet
  facet normal 0.195096 0.980784 0
    outer loop
      vertex -1.03528 -3.8637 2
      vertex -0.522104 -3.96578 -2
      vertex -1.03528 -3.8637 -2
    endloop
  endfacet
  facet normal -0.751845 -0.65934 0
    outer loop
      vertex 3.17341 2.43505 -2
      vertex 2.82843 2.82843 2
      vertex 2.82843 2.82843 -2
    endloop
  endfacet
  facet normal -0.751845 -0.65934 0
    outer loop
      vertex 2.82843 2.82843 2
      vertex 3.17341 2.43505 -2
      vertex 3.17341 2.43505 2
    endloop
  endfacet
  facet normal 0.896871 0.442291 0
    outer loop
      vertex -3.4641 -2 2
      vertex -3.69552 -1.53073 -2
      vertex -3.69552 -1.53073 2
    endloop
  endfacet
  facet normal 0.896871 0.442291 0
    outer loop
      vertex -3.69552 -1.53073 -2
      vertex -3.4641 -2 2
      vertex -3.4641 -2 -2
    endloop
  endfacet
  facet normal -0.321435 -0.946932 0
    outer loop
      vertex 1.03528 3.8637 -2
      vertex 1.53073 3.69552 2
      vertex 1.03528 3.8637 2
    endloop
  endfacet
  facet normal -0.321435 -0.946932 -0
    outer loop
      vertex 1.53073 3.69552 2
      vertex 1.03528 3.8637 -2
      vertex 1.53073 3.69552 -2
    endloop
  endfacet
  facet normal -0.997859 0.0654022 0
    outer loop
      vertex 3.96578 -0.522104 -2
      vertex 4 0 2
      vertex 4 0 -2
    endloop
  endfacet
  facet normal -0.997859 0.0654022 0
    outer loop
      vertex 4 0 2
      vertex 3.96578 -0.522104 -2
      vertex 3.96578 -0.522104 2
    endloop
  endfacet
  facet normal -0.980784 0.195096 0
    outer loop
      vertex 3.8637 -1.03528 -2
      vertex 3.96578 -0.522104 2
      vertex 3.96578 -0.522104 -2
    endloop
  endfacet
  facet normal -0.980784 0.195096 0
    outer loop
      vertex 3.96578 -0.522104 2
      vertex 3.8637 -1.03528 -2
      vertex 3.8637 -1.03528 2
    endloop
  endfacet
  facet normal 0.65934 0.751845 -0
    outer loop
      vertex -2.43505 -3.17341 -2
      vertex -2.82843 -2.82843 2
      vertex -2.43505 -3.17341 2
    endloop
  endfacet
  facet normal 0.65934 0.751845 0
    outer loop
      vertex -2.82843 -2.82843 2
      vertex -2.43505 -3.17341 -2
      vertex -2.82843 -2.82843 -2
    endloop
  endfacet
  facet normal -0.442291 0.896871 0
    outer loop
      vertex 2 -3.4641 -2
      vertex 1.53073 -3.69552 2
      vertex 2 -3.4641 2
    endloop
  endfacet
  facet normal -0.442291 0.896871 0
    outer loop
      vertex 1.53073 -3.69552 2
      vertex 2 -3.4641 -2
      vertex 1.53073 -3.69552 -2
    endloop
  endfacet
  facet normal -0.896871 0.442291 0
    outer loop
      vertex 3.4641 -2 -2
      vertex 3.69552 -1.53073 2
      vertex 3.69552 -1.53073 -2
    endloop
  endfacet
  facet normal -0.896871 0.442291 0
    outer loop
      vertex 3.69552 -1.53073 2
      vertex 3.4641 -2 -2
      vertex 3.4641 -2 2
    endloop
  endfacet
  facet normal 0.321435 0.946932 -0
    outer loop
      vertex -1.03528 -3.8637 -2
      vertex -1.53073 -3.69552 2
      vertex -1.03528 -3.8637 2
    endloop
  endfacet
  facet normal 0.321435 0.946932 0
    outer loop
      vertex -1.53073 -3.69552 2
      vertex -1.03528 -3.8637 -2
      vertex -1.53073 -3.69552 -2
    endloop
  endfacet
  facet normal 0.896871 -0.442291 0
    outer loop
      vertex -3.69552 1.53073 2
      vertex -3.4641 2 -2
      vertex -3.4641 2 2
    endloop
  endfacet
  facet normal 0.896871 -0.442291 0
    outer loop
      vertex -3.4641 2 -2
      vertex -3.69552 1.53073 2
      vertex -3.69552 1.53073 -2
    endloop
  endfacet
endsolid OpenSCAD_Model
