solid OpenSCAD_Model
  facet normal 0.997858 0.0654147 0
    outer loop
      vertex 30 0 52.5
      vertex 29.7433 3.91579 -52.5
      vertex 29.7433 3.91579 52.5
    endloop
  endfacet
  facet normal 0.997858 0.0654147 0
    outer loop
      vertex 29.7433 3.91579 -52.5
      vertex 30 0 52.5
      vertex 30 0 -52.5
    endloop
  endfacet
  facet normal 0.980789 0.195073 0
    outer loop
      vertex 29.7433 3.91579 52.5
      vertex 28.9778 7.76457 -52.5
      vertex 28.9778 7.76457 52.5
    endloop
  endfacet
  facet normal 0.980789 0.195073 0
    outer loop
      vertex 28.9778 7.76457 -52.5
      vertex 29.7433 3.91579 52.5
      vertex 29.7433 3.91579 -52.5
    endloop
  endfacet
  facet normal 0.946929 0.321442 0
    outer loop
      vertex 28.9778 7.76457 52.5
      vertex 27.7164 11.4805 -52.5
      vertex 27.7164 11.4805 52.5
    endloop
  endfacet
  facet normal 0.946929 0.321442 0
    outer loop
      vertex 27.7164 11.4805 -52.5
      vertex 28.9778 7.76457 52.5
      vertex 28.9778 7.76457 -52.5
    endloop
  endfacet
  facet normal 0.896875 0.442283 0
    outer loop
      vertex 27.7164 11.4805 52.5
      vertex 25.9808 15 -52.5
      vertex 25.9808 15 52.5
    endloop
  endfacet
  facet normal 0.896875 0.442283 0
    outer loop
      vertex 25.9808 15 -52.5
      vertex 27.7164 11.4805 52.5
      vertex 27.7164 11.4805 -52.5
    endloop
  endfacet
  facet normal 0.831462 0.555582 0
    outer loop
      vertex 25.9808 15 52.5
      vertex 23.8006 18.2628 -52.5
      vertex 23.8006 18.2628 52.5
    endloop
  endfacet
  facet normal 0.831462 0.555582 0
    outer loop
      vertex 23.8006 18.2628 -52.5
      vertex 25.9808 15 52.5
      vertex 25.9808 15 -52.5
    endloop
  endfacet
  facet normal 0.751844 0.659341 0
    outer loop
      vertex 23.8006 18.2628 52.5
      vertex 21.2132 21.2132 -52.5
      vertex 21.2132 21.2132 52.5
    endloop
  endfacet
  facet normal 0.751844 0.659341 0
    outer loop
      vertex 21.2132 21.2132 -52.5
      vertex 23.8006 18.2628 52.5
      vertex 23.8006 18.2628 -52.5
    endloop
  endfacet
  facet normal 0.659341 0.751844 -0
    outer loop
      vertex 21.2132 21.2132 -52.5
      vertex 18.2628 23.8006 52.5
      vertex 21.2132 21.2132 52.5
    endloop
  endfacet
  facet normal 0.659341 0.751844 0
    outer loop
      vertex 18.2628 23.8006 52.5
      vertex 21.2132 21.2132 -52.5
      vertex 18.2628 23.8006 -52.5
    endloop
  endfacet
  facet normal 0.555582 0.831462 -0
    outer loop
      vertex 18.2628 23.8006 -52.5
      vertex 15 25.9808 52.5
      vertex 18.2628 23.8006 52.5
    endloop
  endfacet
  facet normal 0.555582 0.831462 0
    outer loop
      vertex 15 25.9808 52.5
      vertex 18.2628 23.8006 -52.5
      vertex 15 25.9808 -52.5
    endloop
  endfacet
  facet normal 0.442283 0.896875 -0
    outer loop
      vertex 15 25.9808 -52.5
      vertex 11.4805 27.7164 52.5
      vertex 15 25.9808 52.5
    endloop
  endfacet
  facet normal 0.442283 0.896875 0
    outer loop
      vertex 11.4805 27.7164 52.5
      vertex 15 25.9808 -52.5
      vertex 11.4805 27.7164 -52.5
    endloop
  endfacet
  facet normal 0.321442 0.946929 -0
    outer loop
      vertex 11.4805 27.7164 -52.5
      vertex 7.76457 28.9778 52.5
      vertex 11.4805 27.7164 52.5
    endloop
  endfacet
  facet normal 0.321442 0.946929 0
    outer loop
      vertex 7.76457 28.9778 52.5
      vertex 11.4805 27.7164 -52.5
      vertex 7.76457 28.9778 -52.5
    endloop
  endfacet
  facet normal 0.195073 0.980789 -0
    outer loop
      vertex 7.76457 28.9778 -52.5
      vertex 3.91579 29.7433 52.5
      vertex 7.76457 28.9778 52.5
    endloop
  endfacet
  facet normal 0.195073 0.980789 0
    outer loop
      vertex 3.91579 29.7433 52.5
      vertex 7.76457 28.9778 -52.5
      vertex 3.91579 29.7433 -52.5
    endloop
  endfacet
  facet normal 0.0654147 0.997858 -0
    outer loop
      vertex 3.91579 29.7433 -52.5
      vertex 0 30 52.5
      vertex 3.91579 29.7433 52.5
    endloop
  endfacet
  facet normal 0.0654147 0.997858 0
    outer loop
      vertex 0 30 52.5
      vertex 3.91579 29.7433 -52.5
      vertex 0 30 -52.5
    endloop
  endfacet
  facet normal -0.0654147 0.997858 0
    outer loop
      vertex 0 30 -52.5
      vertex -3.91579 29.7433 52.5
      vertex 0 30 52.5
    endloop
  endfacet
  facet normal -0.0654147 0.997858 0
    outer loop
      vertex -3.91579 29.7433 52.5
      vertex 0 30 -52.5
      vertex -3.91579 29.7433 -52.5
    endloop
  endfacet
  facet normal -0.195073 0.980789 0
    outer loop
      vertex -3.91579 29.7433 -52.5
      vertex -7.76457 28.9778 52.5
      vertex -3.91579 29.7433 52.5
    endloop
  endfacet
  facet normal -0.195073 0.980789 0
    outer loop
      vertex -7.76457 28.9778 52.5
      vertex -3.91579 29.7433 -52.5
      vertex -7.76457 28.9778 -52.5
    endloop
  endfacet
  facet normal -0.321442 0.946929 0
    outer loop
      vertex -7.76457 28.9778 -52.5
      vertex -11.4805 27.7164 52.5
      vertex -7.76457 28.9778 52.5
    endloop
  endfacet
  facet normal -0.321442 0.946929 0
    outer loop
      vertex -11.4805 27.7164 52.5
      vertex -7.76457 28.9778 -52.5
      vertex -11.4805 27.7164 -52.5
    endloop
  endfacet
  facet normal -0.442283 0.896875 0
    outer loop
      vertex -11.4805 27.7164 -52.5
      vertex -15 25.9808 52.5
      vertex -11.4805 27.7164 52.5
    endloop
  endfacet
  facet normal -0.442283 0.896875 0
    outer loop
      vertex -15 25.9808 52.5
      vertex -11.4805 27.7164 -52.5
      vertex -15 25.9808 -52.5
    endloop
  endfacet
  facet normal -0.555582 0.831462 0
    outer loop
      vertex -15 25.9808 -52.5
      vertex -18.2628 23.8006 52.5
      vertex -15 25.9808 52.5
    endloop
  endfacet
  facet normal -0.555582 0.831462 0
    outer loop
      vertex -18.2628 23.8006 52.5
      vertex -15 25.9808 -52.5
      vertex -18.2628 23.8006 -52.5
    endloop
  endfacet
  facet normal -0.659341 0.751844 0
    outer loop
      vertex -18.2628 23.8006 -52.5
      vertex -21.2132 21.2132 52.5
      vertex -18.2628 23.8006 52.5
    endloop
  endfacet
  facet normal -0.659341 0.751844 0
    outer loop
      vertex -21.2132 21.2132 52.5
      vertex -18.2628 23.8006 -52.5
      vertex -21.2132 21.2132 -52.5
    endloop
  endfacet
  facet normal -0.751844 0.659341 0
    outer loop
      vertex -23.8006 18.2628 -52.5
      vertex -21.2132 21.2132 52.5
      vertex -21.2132 21.2132 -52.5
    endloop
  endfacet
  facet normal -0.751844 0.659341 0
    outer loop
      vertex -21.2132 21.2132 52.5
      vertex -23.8006 18.2628 -52.5
      vertex -23.8006 18.2628 52.5
    endloop
  endfacet
  facet normal -0.831462 0.555582 0
    outer loop
      vertex -25.9808 15 -52.5
      vertex -23.8006 18.2628 52.5
      vertex -23.8006 18.2628 -52.5
    endloop
  endfacet
  facet normal -0.831462 0.555582 0
    outer loop
      vertex -23.8006 18.2628 52.5
      vertex -25.9808 15 -52.5
      vertex -25.9808 15 52.5
    endloop
  endfacet
  facet normal -0.896875 0.442283 0
    outer loop
      vertex -27.7164 11.4805 -52.5
      vertex -25.9808 15 52.5
      vertex -25.9808 15 -52.5
    endloop
  endfacet
  facet normal -0.896875 0.442283 0
    outer loop
      vertex -25.9808 15 52.5
      vertex -27.7164 11.4805 -52.5
      vertex -27.7164 11.4805 52.5
    endloop
  endfacet
  facet normal -0.946929 0.321442 0
    outer loop
      vertex -28.9778 7.76457 -52.5
      vertex -27.7164 11.4805 52.5
      vertex -27.7164 11.4805 -52.5
    endloop
  endfacet
  facet normal -0.946929 0.321442 0
    outer loop
      vertex -27.7164 11.4805 52.5
      vertex -28.9778 7.76457 -52.5
      vertex -28.9778 7.76457 52.5
    endloop
  endfacet
  facet normal -0.980789 0.195073 0
    outer loop
      vertex -29.7433 3.91579 -52.5
      vertex -28.9778 7.76457 52.5
      vertex -28.9778 7.76457 -52.5
    endloop
  endfacet
  facet normal -0.980789 0.195073 0
    outer loop
      vertex -28.9778 7.76457 52.5
      vertex -29.7433 3.91579 -52.5
      vertex -29.7433 3.91579 52.5
    endloop
  endfacet
  facet normal -0.997858 0.0654147 0
    outer loop
      vertex -30 -0 -52.5
      vertex -29.7433 3.91579 52.5
      vertex -29.7433 3.91579 -52.5
    endloop
  endfacet
  facet normal -0.997858 0.0654147 0
    outer loop
      vertex -29.7433 3.91579 52.5
      vertex -30 -0 -52.5
      vertex -30 -0 52.5
    endloop
  endfacet
  facet normal -0.997858 -0.0654147 0
    outer loop
      vertex -29.7433 -3.91579 -52.5
      vertex -30 -0 52.5
      vertex -30 -0 -52.5
    endloop
  endfacet
  facet normal -0.997858 -0.0654147 0
    outer loop
      vertex -30 -0 52.5
      vertex -29.7433 -3.91579 -52.5
      vertex -29.7433 -3.91579 52.5
    endloop
  endfacet
  facet normal -0.980789 -0.195073 0
    outer loop
      vertex -28.9778 -7.76457 -52.5
      vertex -29.7433 -3.91579 52.5
      vertex -29.7433 -3.91579 -52.5
    endloop
  endfacet
  facet normal -0.980789 -0.195073 0
    outer loop
      vertex -29.7433 -3.91579 52.5
      vertex -28.9778 -7.76457 -52.5
      vertex -28.9778 -7.76457 52.5
    endloop
  endfacet
  facet normal -0.946929 -0.321442 0
    outer loop
      vertex -27.7164 -11.4805 -52.5
      vertex -28.9778 -7.76457 52.5
      vertex -28.9778 -7.76457 -52.5
    endloop
  endfacet
  facet normal -0.946929 -0.321442 0
    outer loop
      vertex -28.9778 -7.76457 52.5
      vertex -27.7164 -11.4805 -52.5
      vertex -27.7164 -11.4805 52.5
    endloop
  endfacet
  facet normal -0.896875 -0.442283 0
    outer loop
      vertex -25.9808 -15 -52.5
      vertex -27.7164 -11.4805 52.5
      vertex -27.7164 -11.4805 -52.5
    endloop
  endfacet
  facet normal -0.896875 -0.442283 0
    outer loop
      vertex -27.7164 -11.4805 52.5
      vertex -25.9808 -15 -52.5
      vertex -25.9808 -15 52.5
    endloop
  endfacet
  facet normal -0.831462 -0.555582 0
    outer loop
      vertex -23.8006 -18.2628 -52.5
      vertex -25.9808 -15 52.5
      vertex -25.9808 -15 -52.5
    endloop
  endfacet
  facet normal -0.831462 -0.555582 0
    outer loop
      vertex -25.9808 -15 52.5
      vertex -23.8006 -18.2628 -52.5
      vertex -23.8006 -18.2628 52.5
    endloop
  endfacet
  facet normal -0.751844 -0.659341 0
    outer loop
      vertex -21.2132 -21.2132 -52.5
      vertex -23.8006 -18.2628 52.5
      vertex -23.8006 -18.2628 -52.5
    endloop
  endfacet
  facet normal -0.751844 -0.659341 0
    outer loop
      vertex -23.8006 -18.2628 52.5
      vertex -21.2132 -21.2132 -52.5
      vertex -21.2132 -21.2132 52.5
    endloop
  endfacet
  facet normal -0.659341 -0.751844 0
    outer loop
      vertex -21.2132 -21.2132 -52.5
      vertex -18.2628 -23.8006 52.5
      vertex -21.2132 -21.2132 52.5
    endloop
  endfacet
  facet normal -0.659341 -0.751844 -0
    outer loop
      vertex -18.2628 -23.8006 52.5
      vertex -21.2132 -21.2132 -52.5
      vertex -18.2628 -23.8006 -52.5
    endloop
  endfacet
  facet normal -0.555582 -0.831462 0
    outer loop
      vertex -18.2628 -23.8006 -52.5
      vertex -15 -25.9808 52.5
      vertex -18.2628 -23.8006 52.5
    endloop
  endfacet
  facet normal -0.555582 -0.831462 -0
    outer loop
      vertex -15 -25.9808 52.5
      vertex -18.2628 -23.8006 -52.5
      vertex -15 -25.9808 -52.5
    endloop
  endfacet
  facet normal -0.442283 -0.896875 0
    outer loop
      vertex -15 -25.9808 -52.5
      vertex -11.4805 -27.7164 52.5
      vertex -15 -25.9808 52.5
    endloop
  endfacet
  facet normal -0.442283 -0.896875 -0
    outer loop
      vertex -11.4805 -27.7164 52.5
      vertex -15 -25.9808 -52.5
      vertex -11.4805 -27.7164 -52.5
    endloop
  endfacet
  facet normal -0.321442 -0.946929 0
    outer loop
      vertex -11.4805 -27.7164 -52.5
      vertex -7.76457 -28.9778 52.5
      vertex -11.4805 -27.7164 52.5
    endloop
  endfacet
  facet normal -0.321442 -0.946929 -0
    outer loop
      vertex -7.76457 -28.9778 52.5
      vertex -11.4805 -27.7164 -52.5
      vertex -7.76457 -28.9778 -52.5
    endloop
  endfacet
  facet normal -0.195073 -0.980789 0
    outer loop
      vertex -7.76457 -28.9778 -52.5
      vertex -3.91579 -29.7433 52.5
      vertex -7.76457 -28.9778 52.5
    endloop
  endfacet
  facet normal -0.195073 -0.980789 -0
    outer loop
      vertex -3.91579 -29.7433 52.5
      vertex -7.76457 -28.9778 -52.5
      vertex -3.91579 -29.7433 -52.5
    endloop
  endfacet
  facet normal -0.0654147 -0.997858 0
    outer loop
      vertex -3.91579 -29.7433 -52.5
      vertex -0 -30 52.5
      vertex -3.91579 -29.7433 52.5
    endloop
  endfacet
  facet normal -0.0654147 -0.997858 -0
    outer loop
      vertex -0 -30 52.5
      vertex -3.91579 -29.7433 -52.5
      vertex -0 -30 -52.5
    endloop
  endfacet
  facet normal 0.0654147 -0.997858 0
    outer loop
      vertex -0 -30 -52.5
      vertex 3.91579 -29.7433 52.5
      vertex -0 -30 52.5
    endloop
  endfacet
  facet normal 0.0654147 -0.997858 0
    outer loop
      vertex 3.91579 -29.7433 52.5
      vertex -0 -30 -52.5
      vertex 3.91579 -29.7433 -52.5
    endloop
  endfacet
  facet normal 0.195073 -0.980789 0
    outer loop
      vertex 3.91579 -29.7433 -52.5
      vertex 7.76457 -28.9778 52.5
      vertex 3.91579 -29.7433 52.5
    endloop
  endfacet
  facet normal 0.195073 -0.980789 0
    outer loop
      vertex 7.76457 -28.9778 52.5
      vertex 3.91579 -29.7433 -52.5
      vertex 7.76457 -28.9778 -52.5
    endloop
  endfacet
  facet normal 0.321442 -0.946929 0
    outer loop
      vertex 7.76457 -28.9778 -52.5
      vertex 11.4805 -27.7164 52.5
      vertex 7.76457 -28.9778 52.5
    endloop
  endfacet
  facet normal 0.321442 -0.946929 0
    outer loop
      vertex 11.4805 -27.7164 52.5
      vertex 7.76457 -28.9778 -52.5
      vertex 11.4805 -27.7164 -52.5
    endloop
  endfacet
  facet normal 0.442283 -0.896875 0
    outer loop
      vertex 11.4805 -27.7164 -52.5
      vertex 15 -25.9808 52.5
      vertex 11.4805 -27.7164 52.5
    endloop
  endfacet
  facet normal 0.442283 -0.896875 0
    outer loop
      vertex 15 -25.9808 52.5
      vertex 11.4805 -27.7164 -52.5
      vertex 15 -25.9808 -52.5
    endloop
  endfacet
  facet normal 0.555582 -0.831462 0
    outer loop
      vertex 15 -25.9808 -52.5
      vertex 18.2628 -23.8006 52.5
      vertex 15 -25.9808 52.5
    endloop
  endfacet
  facet normal 0.555582 -0.831462 0
    outer loop
      vertex 18.2628 -23.8006 52.5
      vertex 15 -25.9808 -52.5
      vertex 18.2628 -23.8006 -52.5
    endloop
  endfacet
  facet normal 0.659341 -0.751844 0
    outer loop
      vertex 18.2628 -23.8006 -52.5
      vertex 21.2132 -21.2132 52.5
      vertex 18.2628 -23.8006 52.5
    endloop
  endfacet
  facet normal 0.659341 -0.751844 0
    outer loop
      vertex 21.2132 -21.2132 52.5
      vertex 18.2628 -23.8006 -52.5
      vertex 21.2132 -21.2132 -52.5
    endloop
  endfacet
  facet normal 0.751844 -0.659341 0
    outer loop
      vertex 21.2132 -21.2132 52.5
      vertex 23.8006 -18.2628 -52.5
      vertex 23.8006 -18.2628 52.5
    endloop
  endfacet
  facet normal 0.751844 -0.659341 0
    outer loop
      vertex 23.8006 -18.2628 -52.5
      vertex 21.2132 -21.2132 52.5
      vertex 21.2132 -21.2132 -52.5
    endloop
  endfacet
  facet normal 0.831462 -0.555582 0
    outer loop
      vertex 23.8006 -18.2628 52.5
      vertex 25.9808 -15 -52.5
      vertex 25.9808 -15 52.5
    endloop
  endfacet
  facet normal 0.831462 -0.555582 0
    outer loop
      vertex 25.9808 -15 -52.5
      vertex 23.8006 -18.2628 52.5
      vertex 23.8006 -18.2628 -52.5
    endloop
  endfacet
  facet normal 0.896875 -0.442283 0
    outer loop
      vertex 25.9808 -15 52.5
      vertex 27.7164 -11.4805 -52.5
      vertex 27.7164 -11.4805 52.5
    endloop
  endfacet
  facet normal 0.896875 -0.442283 0
    outer loop
      vertex 27.7164 -11.4805 -52.5
      vertex 25.9808 -15 52.5
      vertex 25.9808 -15 -52.5
    endloop
  endfacet
  facet normal 0.946929 -0.321442 0
    outer loop
      vertex 27.7164 -11.4805 52.5
      vertex 28.9778 -7.76457 -52.5
      vertex 28.9778 -7.76457 52.5
    endloop
  endfacet
  facet normal 0.946929 -0.321442 0
    outer loop
      vertex 28.9778 -7.76457 -52.5
      vertex 27.7164 -11.4805 52.5
      vertex 27.7164 -11.4805 -52.5
    endloop
  endfacet
  facet normal 0.980789 -0.195073 0
    outer loop
      vertex 28.9778 -7.76457 52.5
      vertex 29.7433 -3.91579 -52.5
      vertex 29.7433 -3.91579 52.5
    endloop
  endfacet
  facet normal 0.980789 -0.195073 0
    outer loop
      vertex 29.7433 -3.91579 -52.5
      vertex 28.9778 -7.76457 52.5
      vertex 28.9778 -7.76457 -52.5
    endloop
  endfacet
  facet normal 0.997858 -0.0654147 0
    outer loop
      vertex 29.7433 -3.91579 52.5
      vertex 30 0 -52.5
      vertex 30 0 52.5
    endloop
  endfacet
  facet normal 0.997858 -0.0654147 0
    outer loop
      vertex 30 0 -52.5
      vertex 29.7433 -3.91579 52.5
      vertex 29.7433 -3.91579 -52.5
    endloop
  endfacet
  facet normal 0 0 -1
    outer loop
      vertex 29.7433 -3.91579 -52.5
      vertex 29.7433 3.91579 -52.5
      vertex 30 0 -52.5
    endloop
  endfacet
  facet normal 0 0 -1
    outer loop
      vertex 28.9778 -7.76457 -52.5
      vertex 29.7433 3.91579 -52.5
      vertex 29.7433 -3.91579 -52.5
    endloop
  endfacet
  facet normal 0 0 -1
    outer loop
      vertex 28.9778 -7.76457 -52.5
      vertex 28.9778 7.76457 -52.5
      vertex 29.7433 3.91579 -52.5
    endloop
  endfacet
  facet normal 0 0 -1
    outer loop
      vertex 27.7164 -11.4805 -52.5
      vertex 28.9778 7.76457 -52.5
      vertex 28.9778 -7.76457 -52.5
    endloop
  endfacet
  facet normal 0 0 -1
    outer loop
      vertex 27.7164 -11.4805 -52.5
      vertex 27.7164 11.4805 -52.5
      vertex 28.9778 7.76457 -52.5
    endloop
  endfacet
  facet normal 0 0 -1
    outer loop
      vertex 25.9808 -15 -52.5
      vertex 27.7164 11.4805 -52.5
      vertex 27.7164 -11.4805 -52.5
    endloop
  endfacet
  facet normal 0 0 -1
    outer loop
      vertex 25.9808 -15 -52.5
      vertex 25.9808 15 -52.5
      vertex 27.7164 11.4805 -52.5
    endloop
  endfacet
  facet normal 0 0 -1
    outer loop
      vertex 23.8006 -18.2628 -52.5
      vertex 25.9808 15 -52.5
      vertex 25.9808 -15 -52.5
    endloop
  endfacet
  facet normal 0 0 -1
    outer loop
      vertex 23.8006 -18.2628 -52.5
      vertex 23.8006 18.2628 -52.5
      vertex 25.9808 15 -52.5
    endloop
  endfacet
  facet normal 0 0 -1
    outer loop
      vertex 21.2132 -21.2132 -52.5
      vertex 23.8006 18.2628 -52.5
      vertex 23.8006 -18.2628 -52.5
    endloop
  endfacet
  facet normal 0 0 -1
    outer loop
      vertex 21.2132 -21.2132 -52.5
      vertex 21.2132 21.2132 -52.5
      vertex 23.8006 18.2628 -52.5
    endloop
  endfacet
  facet normal 0 0 -1
    outer loop
      vertex 18.2628 -23.8006 -52.5
      vertex 21.2132 21.2132 -52.5
      vertex 21.2132 -21.2132 -52.5
    endloop
  endfacet
  facet normal 0 0 -1
    outer loop
      vertex 18.2628 -23.8006 -52.5
      vertex 18.2628 23.8006 -52.5
      vertex 21.2132 21.2132 -52.5
    endloop
  endfacet
  facet normal 0 0 -1
    outer loop
      vertex 15 -25.9808 -52.5
      vertex 18.2628 23.8006 -52.5
      vertex 18.2628 -23.8006 -52.5
    endloop
  endfacet
  facet normal 0 0 -1
    outer loop
      vertex 15 -25.9808 -52.5
      vertex 15 25.9808 -52.5
      vertex 18.2628 23.8006 -52.5
    endloop
  endfacet
  facet normal 0 0 -1
    outer loop
      vertex 11.4805 -27.7164 -52.5
      vertex 15 25.9808 -52.5
      vertex 15 -25.9808 -52.5
    endloop
  endfacet
  facet normal 0 0 -1
    outer loop
      vertex 11.4805 -27.7164 -52.5
      vertex 11.4805 27.7164 -52.5
      vertex 15 25.9808 -52.5
    endloop
  endfacet
  facet normal 0 0 -1
    outer loop
      vertex 7.76457 -28.9778 -52.5
      vertex 11.4805 27.7164 -52.5
      vertex 11.4805 -27.7164 -52.5
    endloop
  endfacet
  facet normal 0 0 -1
    outer loop
      vertex 7.76457 -28.9778 -52.5
      vertex 7.76457 28.9778 -52.5
      vertex 11.4805 27.7164 -52.5
    endloop
  endfacet
  facet normal 0 0 -1
    outer loop
      vertex 3.91579 -29.7433 -52.5
      vertex 7.76457 28.9778 -52.5
      vertex 7.76457 -28.9778 -52.5
    endloop
  endfacet
  facet normal 0 0 -1
    outer loop
      vertex 3.91579 -29.7433 -52.5
      vertex 3.91579 29.7433 -52.5
      vertex 7.76457 28.9778 -52.5
    endloop
  endfacet
  facet normal 0 0 -1
    outer loop
      vertex -0 -30 -52.5
      vertex 3.91579 29.7433 -52.5
      vertex 3.91579 -29.7433 -52.5
    endloop
  endfacet
  facet normal 0 0 -1
    outer loop
      vertex -0 -30 -52.5
      vertex 0 30 -52.5
      vertex 3.91579 29.7433 -52.5
    endloop
  endfacet
  facet normal 0 0 -1
    outer loop
      vertex -3.91579 -29.7433 -52.5
      vertex 0 30 -52.5
      vertex -0 -30 -52.5
    endloop
  endfacet
  facet normal 0 0 -1
    outer loop
      vertex -3.91579 -29.7433 -52.5
      vertex -3.91579 29.7433 -52.5
      vertex 0 30 -52.5
    endloop
  endfacet
  facet normal 0 0 -1
    outer loop
      vertex -7.76457 -28.9778 -52.5
      vertex -3.91579 29.7433 -52.5
      vertex -3.91579 -29.7433 -52.5
    endloop
  endfacet
  facet normal 0 0 -1
    outer loop
      vertex -7.76457 -28.9778 -52.5
      vertex -7.76457 28.9778 -52.5
      vertex -3.91579 29.7433 -52.5
    endloop
  endfacet
  facet normal 0 0 -1
    outer loop
      vertex -11.4805 -27.7164 -52.5
      vertex -7.76457 28.9778 -52.5
      vertex -7.76457 -28.9778 -52.5
    endloop
  endfacet
  facet normal 0 0 -1
    outer loop
      vertex -11.4805 -27.7164 -52.5
      vertex -11.4805 27.7164 -52.5
      vertex -7.76457 28.9778 -52.5
    endloop
  endfacet
  facet normal 0 0 -1
    outer loop
      vertex -15 -25.9808 -52.5
      vertex -11.4805 27.7164 -52.5
      vertex -11.4805 -27.7164 -52.5
    endloop
  endfacet
  facet normal 0 0 -1
    outer loop
      vertex -15 -25.9808 -52.5
      vertex -15 25.9808 -52.5
      vertex -11.4805 27.7164 -52.5
    endloop
  endfacet
  facet normal 0 0 -1
    outer loop
      vertex -18.2628 -23.8006 -52.5
      vertex -15 25.9808 -52.5
      vertex -15 -25.9808 -52.5
    endloop
  endfacet
  facet normal 0 0 -1
    outer loop
      vertex -18.2628 -23.8006 -52.5
      vertex -18.2628 23.8006 -52.5
      vertex -15 25.9808 -52.5
    endloop
  endfacet
  facet normal 0 0 -1
    outer loop
      vertex -21.2132 -21.2132 -52.5
      vertex -18.2628 23.8006 -52.5
      vertex -18.2628 -23.8006 -52.5
    endloop
  endfacet
  facet normal 0 0 -1
    outer loop
      vertex -21.2132 -21.2132 -52.5
      vertex -21.2132 21.2132 -52.5
      vertex -18.2628 23.8006 -52.5
    endloop
  endfacet
  facet normal 0 0 -1
    outer loop
      vertex -23.8006 -18.2628 -52.5
      vertex -21.2132 21.2132 -52.5
      vertex -21.2132 -21.2132 -52.5
    endloop
  endfacet
  facet normal 0 0 -1
    outer loop
      vertex -23.8006 -18.2628 -52.5
      vertex -23.8006 18.2628 -52.5
      vertex -21.2132 21.2132 -52.5
    endloop
  endfacet
  facet normal 0 0 -1
    outer loop
      vertex -25.9808 -15 -52.5
      vertex -23.8006 18.2628 -52.5
      vertex -23.8006 -18.2628 -52.5
    endloop
  endfacet
  facet normal 0 0 -1
    outer loop
      vertex -25.9808 -15 -52.5
      vertex -25.9808 15 -52.5
      vertex -23.8006 18.2628 -52.5
    endloop
  endfacet
  facet normal 0 0 -1
    outer loop
      vertex -27.7164 -11.4805 -52.5
      vertex -25.9808 15 -52.5
      vertex -25.9808 -15 -52.5
    endloop
  endfacet
  facet normal 0 0 -1
    outer loop
      vertex -27.7164 -11.4805 -52.5
      vertex -27.7164 11.4805 -52.5
      vertex -25.9808 15 -52.5
    endloop
  endfacet
  facet normal 0 0 -1
    outer loop
      vertex -28.9778 -7.76457 -52.5
      vertex -27.7164 11.4805 -52.5
      vertex -27.7164 -11.4805 -52.5
    endloop
  endfacet
  facet normal 0 0 -1
    outer loop
      vertex -28.9778 -7.76457 -52.5
      vertex -28.9778 7.76457 -52.5
      vertex -27.7164 11.4805 -52.5
    endloop
  endfacet
  facet normal 0 0 -1
    outer loop
      vertex -29.7433 -3.91579 -52.5
      vertex -28.9778 7.76457 -52.5
      vertex -28.9778 -7.76457 -52.5
    endloop
  endfacet
  facet normal 0 0 -1
    outer loop
      vertex -29.7433 -3.91579 -52.5
      vertex -29.7433 3.91579 -52.5
      vertex -28.9778 7.76457 -52.5
    endloop
  endfacet
  facet normal 0 -0 -1
    outer loop
      vertex -29.7433 3.91579 -52.5
      vertex -29.7433 -3.91579 -52.5
      vertex -30 -0 -52.5
    endloop
  endfacet
  facet normal 0 0 1
    outer loop
      vertex 29.7433 3.91579 52.5
      vertex 29.7433 -3.91579 52.5
      vertex 30 0 52.5
    endloop
  endfacet
  facet normal 0 0 1
    outer loop
      vertex 28.9778 7.76457 52.5
      vertex 29.7433 -3.91579 52.5
      vertex 29.7433 3.91579 52.5
    endloop
  endfacet
  facet normal 0 0 1
    outer loop
      vertex 28.9778 7.76457 52.5
      vertex 28.9778 -7.76457 52.5
      vertex 29.7433 -3.91579 52.5
    endloop
  endfacet
  facet normal 0 0 1
    outer loop
      vertex 27.7164 11.4805 52.5
      vertex 28.9778 -7.76457 52.5
      vertex 28.9778 7.76457 52.5
    endloop
  endfacet
  facet normal 0 0 1
    outer loop
      vertex 27.7164 11.4805 52.5
      vertex 27.7164 -11.4805 52.5
      vertex 28.9778 -7.76457 52.5
    endloop
  endfacet
  facet normal 0 0 1
    outer loop
      vertex 25.9808 15 52.5
      vertex 27.7164 -11.4805 52.5
      vertex 27.7164 11.4805 52.5
    endloop
  endfacet
  facet normal 0 0 1
    outer loop
      vertex 25.9808 15 52.5
      vertex 25.9808 -15 52.5
      vertex 27.7164 -11.4805 52.5
    endloop
  endfacet
  facet normal 0 0 1
    outer loop
      vertex 23.8006 18.2628 52.5
      vertex 25.9808 -15 52.5
      vertex 25.9808 15 52.5
    endloop
  endfacet
  facet normal 0 0 1
    outer loop
      vertex 23.8006 18.2628 52.5
      vertex 23.8006 -18.2628 52.5
      vertex 25.9808 -15 52.5
    endloop
  endfacet
  facet normal 0 0 1
    outer loop
      vertex 21.2132 21.2132 52.5
      vertex 23.8006 -18.2628 52.5
      vertex 23.8006 18.2628 52.5
    endloop
  endfacet
  facet normal 0 0 1
    outer loop
      vertex 21.2132 21.2132 52.5
      vertex 21.2132 -21.2132 52.5
      vertex 23.8006 -18.2628 52.5
    endloop
  endfacet
  facet normal 0 0 1
    outer loop
      vertex 18.2628 23.8006 52.5
      vertex 21.2132 -21.2132 52.5
      vertex 21.2132 21.2132 52.5
    endloop
  endfacet
  facet normal 0 0 1
    outer loop
      vertex 18.2628 23.8006 52.5
      vertex 18.2628 -23.8006 52.5
      vertex 21.2132 -21.2132 52.5
    endloop
  endfacet
  facet normal 0 0 1
    outer loop
      vertex 15 25.9808 52.5
      vertex 18.2628 -23.8006 52.5
      vertex 18.2628 23.8006 52.5
    endloop
  endfacet
  facet normal 0 0 1
    outer loop
      vertex 15 25.9808 52.5
      vertex 15 -25.9808 52.5
      vertex 18.2628 -23.8006 52.5
    endloop
  endfacet
  facet normal 0 0 1
    outer loop
      vertex 11.4805 27.7164 52.5
      vertex 15 -25.9808 52.5
      vertex 15 25.9808 52.5
    endloop
  endfacet
  facet normal 0 0 1
    outer loop
      vertex 11.4805 27.7164 52.5
      vertex 11.4805 -27.7164 52.5
      vertex 15 -25.9808 52.5
    endloop
  endfacet
  facet normal 0 0 1
    outer loop
      vertex 7.76457 28.9778 52.5
      vertex 11.4805 -27.7164 52.5
      vertex 11.4805 27.7164 52.5
    endloop
  endfacet
  facet normal 0 0 1
    outer loop
      vertex 7.76457 28.9778 52.5
      vertex 7.76457 -28.9778 52.5
      vertex 11.4805 -27.7164 52.5
    endloop
  endfacet
  facet normal 0 0 1
    outer loop
      vertex 3.91579 29.7433 52.5
      vertex 7.76457 -28.9778 52.5
      vertex 7.76457 28.9778 52.5
    endloop
  endfacet
  facet normal 0 0 1
    outer loop
      vertex 3.91579 29.7433 52.5
      vertex 3.91579 -29.7433 52.5
      vertex 7.76457 -28.9778 52.5
    endloop
  endfacet
  facet normal 0 0 1
    outer loop
      vertex 0 30 52.5
      vertex 3.91579 -29.7433 52.5
      vertex 3.91579 29.7433 52.5
    endloop
  endfacet
  facet normal 0 0 1
    outer loop
      vertex 0 30 52.5
      vertex -0 -30 52.5
      vertex 3.91579 -29.7433 52.5
    endloop
  endfacet
  facet normal -0 0 1
    outer loop
      vertex -3.91579 29.7433 52.5
      vertex -0 -30 52.5
      vertex 0 30 52.5
    endloop
  endfacet
  facet normal 0 0 1
    outer loop
      vertex -3.91579 29.7433 52.5
      vertex -3.91579 -29.7433 52.5
      vertex -0 -30 52.5
    endloop
  endfacet
  facet normal -0 0 1
    outer loop
      vertex -7.76457 28.9778 52.5
      vertex -3.91579 -29.7433 52.5
      vertex -3.91579 29.7433 52.5
    endloop
  endfacet
  facet normal 0 0 1
    outer loop
      vertex -7.76457 28.9778 52.5
      vertex -7.76457 -28.9778 52.5
      vertex -3.91579 -29.7433 52.5
    endloop
  endfacet
  facet normal -0 0 1
    outer loop
      vertex -11.4805 27.7164 52.5
      vertex -7.76457 -28.9778 52.5
      vertex -7.76457 28.9778 52.5
    endloop
  endfacet
  facet normal 0 0 1
    outer loop
      vertex -11.4805 27.7164 52.5
      vertex -11.4805 -27.7164 52.5
      vertex -7.76457 -28.9778 52.5
    endloop
  endfacet
  facet normal -0 0 1
    outer loop
      vertex -15 25.9808 52.5
      vertex -11.4805 -27.7164 52.5
      vertex -11.4805 27.7164 52.5
    endloop
  endfacet
  facet normal 0 0 1
    outer loop
      vertex -15 25.9808 52.5
      vertex -15 -25.9808 52.5
      vertex -11.4805 -27.7164 52.5
    endloop
  endfacet
  facet normal -0 0 1
    outer loop
      vertex -18.2628 23.8006 52.5
      vertex -15 -25.9808 52.5
      vertex -15 25.9808 52.5
    endloop
  endfacet
  facet normal 0 0 1
    outer loop
      vertex -18.2628 23.8006 52.5
      vertex -18.2628 -23.8006 52.5
      vertex -15 -25.9808 52.5
    endloop
  endfacet
  facet normal -0 0 1
    outer loop
      vertex -21.2132 21.2132 52.5
      vertex -18.2628 -23.8006 52.5
      vertex -18.2628 23.8006 52.5
    endloop
  endfacet
  facet normal 0 0 1
    outer loop
      vertex -21.2132 21.2132 52.5
      vertex -21.2132 -21.2132 52.5
      vertex -18.2628 -23.8006 52.5
    endloop
  endfacet
  facet normal -0 0 1
    outer loop
      vertex -23.8006 18.2628 52.5
      vertex -21.2132 -21.2132 52.5
      vertex -21.2132 21.2132 52.5
    endloop
  endfacet
  facet normal 0 0 1
    outer loop
      vertex -23.8006 18.2628 52.5
      vertex -23.8006 -18.2628 52.5
      vertex -21.2132 -21.2132 52.5
    endloop
  endfacet
  facet normal -0 0 1
    outer loop
      vertex -25.9808 15 52.5
      vertex -23.8006 -18.2628 52.5
      vertex -23.8006 18.2628 52.5
    endloop
  endfacet
  facet normal 0 0 1
    outer loop
      vertex -25.9808 15 52.5
      vertex -25.9808 -15 52.5
      vertex -23.8006 -18.2628 52.5
    endloop
  endfacet
  facet normal -0 0 1
    outer loop
      vertex -27.7164 11.4805 52.5
      vertex -25.9808 -15 52.5
      vertex -25.9808 15 52.5
    endloop
  endfacet
  facet normal 0 0 1
    outer loop
      vertex -27.7164 11.4805 52.5
      vertex -27.7164 -11.4805 52.5
      vertex -25.9808 -15 52.5
    endloop
  endfacet
  facet normal -0 0 1
    outer loop
      vertex -28.9778 7.76457 52.5
      vertex -27.7164 -11.4805 52.5
      vertex -27.7164 11.4805 52.5
    endloop
  endfacet
  facet normal 0 0 1
    outer loop
      vertex -28.9778 7.76457 52.5
      vertex -28.9778 -7.76457 52.5
      vertex -27.7164 -11.4805 52.5
    endloop
  endfacet
  facet normal -0 0 1
    outer loop
      vertex -29.7433 3.91579 52.5
      vertex -28.9778 -7.76457 52.5
      vertex -28.9778 7.76457 52.5
    endloop
  endfacet
  facet normal 0 0 1
    outer loop
      vertex -29.7433 3.91579 52.5
      vertex -29.7433 -3.91579 52.5
      vertex -28.9778 -7.76457 52.5
    endloop
  endfacet
  facet normal 0 -0 1
    outer loop
      vertex -29.7433 -3.91579 52.5
      vertex -29.7433 3.91579 52.5
      vertex -30 -0 52.5
    endloop
  endfacet
endsolid OpenSCAD_Model
