solid OpenSCAD_Model
  facet normal 0.997859 0.0654034 0
    outer loop
      vertex 29 0 42.5
      vertex 28.7519 3.78526 -42.5
      vertex 28.7519 3.78526 42.5
    endloop
  endfacet
  facet normal 0.997859 0.0654034 0
    outer loop
      vertex 28.7519 3.78526 -42.5
      vertex 29 0 42.5
      vertex 29 0 -42.5
    endloop
  endfacet
  facet normal 0.980783 0.195103 0
    outer loop
      vertex 28.7519 3.78526 42.5
      vertex 28.0118 7.50575 -42.5
      vertex 28.0118 7.50575 42.5
    endloop
  endfacet
  facet normal 0.980783 0.195103 0
    outer loop
      vertex 28.0118 7.50575 -42.5
      vertex 28.7519 3.78526 42.5
      vertex 28.7519 3.78526 -42.5
    endloop
  endfacet
  facet normal 0.946933 0.321431 0
    outer loop
      vertex 28.0118 7.50575 42.5
      vertex 26.7925 11.0978 -42.5
      vertex 26.7925 11.0978 42.5
    endloop
  endfacet
  facet normal 0.946933 0.321431 0
    outer loop
      vertex 26.7925 11.0978 -42.5
      vertex 28.0118 7.50575 42.5
      vertex 28.0118 7.50575 -42.5
    endloop
  endfacet
  facet normal 0.896871 0.442293 0
    outer loop
      vertex 26.7925 11.0978 42.5
      vertex 25.1147 14.5 -42.5
      vertex 25.1147 14.5 42.5
    endloop
  endfacet
  facet normal 0.896871 0.442293 0
    outer loop
      vertex 25.1147 14.5 -42.5
      vertex 26.7925 11.0978 42.5
      vertex 26.7925 11.0978 -42.5
    endloop
  endfacet
  facet normal 0.83147 0.55557 0
    outer loop
      vertex 25.1147 14.5 42.5
      vertex 23.0072 17.6541 -42.5
      vertex 23.0072 17.6541 42.5
    endloop
  endfacet
  facet normal 0.83147 0.55557 0
    outer loop
      vertex 23.0072 17.6541 -42.5
      vertex 25.1147 14.5 42.5
      vertex 25.1147 14.5 -42.5
    endloop
  endfacet
  facet normal 0.751845 0.65934 0
    outer loop
      vertex 23.0072 17.6541 42.5
      vertex 20.5061 20.5061 -42.5
      vertex 20.5061 20.5061 42.5
    endloop
  endfacet
  facet normal 0.751845 0.65934 0
    outer loop
      vertex 20.5061 20.5061 -42.5
      vertex 23.0072 17.6541 42.5
      vertex 23.0072 17.6541 -42.5
    endloop
  endfacet
  facet normal 0.65934 0.751845 -0
    outer loop
      vertex 20.5061 20.5061 -42.5
      vertex 17.6541 23.0072 42.5
      vertex 20.5061 20.5061 42.5
    endloop
  endfacet
  facet normal 0.65934 0.751845 0
    outer loop
      vertex 17.6541 23.0072 42.5
      vertex 20.5061 20.5061 -42.5
      vertex 17.6541 23.0072 -42.5
    endloop
  endfacet
  facet normal 0.55557 0.83147 -0
    outer loop
      vertex 17.6541 23.0072 -42.5
      vertex 14.5 25.1147 42.5
      vertex 17.6541 23.0072 42.5
    endloop
  endfacet
  facet normal 0.55557 0.83147 0
    outer loop
      vertex 14.5 25.1147 42.5
      vertex 17.6541 23.0072 -42.5
      vertex 14.5 25.1147 -42.5
    endloop
  endfacet
  facet normal 0.442293 0.896871 -0
    outer loop
      vertex 14.5 25.1147 -42.5
      vertex 11.0978 26.7925 42.5
      vertex 14.5 25.1147 42.5
    endloop
  endfacet
  facet normal 0.442293 0.896871 0
    outer loop
      vertex 11.0978 26.7925 42.5
      vertex 14.5 25.1147 -42.5
      vertex 11.0978 26.7925 -42.5
    endloop
  endfacet
  facet normal 0.321431 0.946933 -0
    outer loop
      vertex 11.0978 26.7925 -42.5
      vertex 7.50575 28.0118 42.5
      vertex 11.0978 26.7925 42.5
    endloop
  endfacet
  facet normal 0.321431 0.946933 0
    outer loop
      vertex 7.50575 28.0118 42.5
      vertex 11.0978 26.7925 -42.5
      vertex 7.50575 28.0118 -42.5
    endloop
  endfacet
  facet normal 0.195103 0.980783 -0
    outer loop
      vertex 7.50575 28.0118 -42.5
      vertex 3.78526 28.7519 42.5
      vertex 7.50575 28.0118 42.5
    endloop
  endfacet
  facet normal 0.195103 0.980783 0
    outer loop
      vertex 3.78526 28.7519 42.5
      vertex 7.50575 28.0118 -42.5
      vertex 3.78526 28.7519 -42.5
    endloop
  endfacet
  facet normal 0.0654034 0.997859 -0
    outer loop
      vertex 3.78526 28.7519 -42.5
      vertex 0 29 42.5
      vertex 3.78526 28.7519 42.5
    endloop
  endfacet
  facet normal 0.0654034 0.997859 0
    outer loop
      vertex 0 29 42.5
      vertex 3.78526 28.7519 -42.5
      vertex 0 29 -42.5
    endloop
  endfacet
  facet normal -0.0654034 0.997859 0
    outer loop
      vertex 0 29 -42.5
      vertex -3.78526 28.7519 42.5
      vertex 0 29 42.5
    endloop
  endfacet
  facet normal -0.0654034 0.997859 0
    outer loop
      vertex -3.78526 28.7519 42.5
      vertex 0 29 -42.5
      vertex -3.78526 28.7519 -42.5
    endloop
  endfacet
  facet normal -0.195103 0.980783 0
    outer loop
      vertex -3.78526 28.7519 -42.5
      vertex -7.50575 28.0118 42.5
      vertex -3.78526 28.7519 42.5
    endloop
  endfacet
  facet normal -0.195103 0.980783 0
    outer loop
      vertex -7.50575 28.0118 42.5
      vertex -3.78526 28.7519 -42.5
      vertex -7.50575 28.0118 -42.5
    endloop
  endfacet
  facet normal -0.321431 0.946933 0
    outer loop
      vertex -7.50575 28.0118 -42.5
      vertex -11.0978 26.7925 42.5
      vertex -7.50575 28.0118 42.5
    endloop
  endfacet
  facet normal -0.321431 0.946933 0
    outer loop
      vertex -11.0978 26.7925 42.5
      vertex -7.50575 28.0118 -42.5
      vertex -11.0978 26.7925 -42.5
    endloop
  endfacet
  facet normal -0.442293 0.896871 0
    outer loop
      vertex -11.0978 26.7925 -42.5
      vertex -14.5 25.1147 42.5
      vertex -11.0978 26.7925 42.5
    endloop
  endfacet
  facet normal -0.442293 0.896871 0
    outer loop
      vertex -14.5 25.1147 42.5
      vertex -11.0978 26.7925 -42.5
      vertex -14.5 25.1147 -42.5
    endloop
  endfacet
  facet normal -0.55557 0.83147 0
    outer loop
      vertex -14.5 25.1147 -42.5
      vertex -17.6541 23.0072 42.5
      vertex -14.5 25.1147 42.5
    endloop
  endfacet
  facet normal -0.55557 0.83147 0
    outer loop
      vertex -17.6541 23.0072 42.5
      vertex -14.5 25.1147 -42.5
      vertex -17.6541 23.0072 -42.5
    endloop
  endfacet
  facet normal -0.65934 0.751845 0
    outer loop
      vertex -17.6541 23.0072 -42.5
      vertex -20.5061 20.5061 42.5
      vertex -17.6541 23.0072 42.5
    endloop
  endfacet
  facet normal -0.65934 0.751845 0
    outer loop
      vertex -20.5061 20.5061 42.5
      vertex -17.6541 23.0072 -42.5
      vertex -20.5061 20.5061 -42.5
    endloop
  endfacet
  facet normal -0.751845 0.65934 0
    outer loop
      vertex -23.0072 17.6541 -42.5
      vertex -20.5061 20.5061 42.5
      vertex -20.5061 20.5061 -42.5
    endloop
  endfacet
  facet normal -0.751845 0.65934 0
    outer loop
      vertex -20.5061 20.5061 42.5
      vertex -23.0072 17.6541 -42.5
      vertex -23.0072 17.6541 42.5
    endloop
  endfacet
  facet normal -0.83147 0.55557 0
    outer loop
      vertex -25.1147 14.5 -42.5
      vertex -23.0072 17.6541 42.5
      vertex -23.0072 17.6541 -42.5
    endloop
  endfacet
  facet normal -0.83147 0.55557 0
    outer loop
      vertex -23.0072 17.6541 42.5
      vertex -25.1147 14.5 -42.5
      vertex -25.1147 14.5 42.5
    endloop
  endfacet
  facet normal -0.896871 0.442293 0
    outer loop
      vertex -26.7925 11.0978 -42.5
      vertex -25.1147 14.5 42.5
      vertex -25.1147 14.5 -42.5
    endloop
  endfacet
  facet normal -0.896871 0.442293 0
    outer loop
      vertex -25.1147 14.5 42.5
      vertex -26.7925 11.0978 -42.5
      vertex -26.7925 11.0978 42.5
    endloop
  endfacet
  facet normal -0.946933 0.321431 0
    outer loop
      vertex -28.0118 7.50575 -42.5
      vertex -26.7925 11.0978 42.5
      vertex -26.7925 11.0978 -42.5
    endloop
  endfacet
  facet normal -0.946933 0.321431 0
    outer loop
      vertex -26.7925 11.0978 42.5
      vertex -28.0118 7.50575 -42.5
      vertex -28.0118 7.50575 42.5
    endloop
  endfacet
  facet normal -0.980783 0.195103 0
    outer loop
      vertex -28.7519 3.78526 -42.5
      vertex -28.0118 7.50575 42.5
      vertex -28.0118 7.50575 -42.5
    endloop
  endfacet
  facet normal -0.980783 0.195103 0
    outer loop
      vertex -28.0118 7.50575 42.5
      vertex -28.7519 3.78526 -42.5
      vertex -28.7519 3.78526 42.5
    endloop
  endfacet
  facet normal -0.997859 0.0654034 0
    outer loop
      vertex -29 -0 -42.5
      vertex -28.7519 3.78526 42.5
      vertex -28.7519 3.78526 -42.5
    endloop
  endfacet
  facet normal -0.997859 0.0654034 0
    outer loop
      vertex -28.7519 3.78526 42.5
      vertex -29 -0 -42.5
      vertex -29 -0 42.5
    endloop
  endfacet
  facet normal -0.997859 -0.0654034 0
    outer loop
      vertex -28.7519 -3.78526 -42.5
      vertex -29 -0 42.5
      vertex -29 -0 -42.5
    endloop
  endfacet
  facet normal -0.997859 -0.0654034 0
    outer loop
      vertex -29 -0 42.5
      vertex -28.7519 -3.78526 -42.5
      vertex -28.7519 -3.78526 42.5
    endloop
  endfacet
  facet normal -0.980783 -0.195103 0
    outer loop
      vertex -28.0118 -7.50575 -42.5
      vertex -28.7519 -3.78526 42.5
      vertex -28.7519 -3.78526 -42.5
    endloop
  endfacet
  facet normal -0.980783 -0.195103 0
    outer loop
      vertex -28.7519 -3.78526 42.5
      vertex -28.0118 -7.50575 -42.5
      vertex -28.0118 -7.50575 42.5
    endloop
  endfacet
  facet normal -0.946933 -0.321431 0
    outer loop
      vertex -26.7925 -11.0978 -42.5
      vertex -28.0118 -7.50575 42.5
      vertex -28.0118 -7.50575 -42.5
    endloop
  endfacet
  facet normal -0.946933 -0.321431 0
    outer loop
      vertex -28.0118 -7.50575 42.5
      vertex -26.7925 -11.0978 -42.5
      vertex -26.7925 -11.0978 42.5
    endloop
  endfacet
  facet normal -0.896871 -0.442293 0
    outer loop
      vertex -25.1147 -14.5 -42.5
      vertex -26.7925 -11.0978 42.5
      vertex -26.7925 -11.0978 -42.5
    endloop
  endfacet
  facet normal -0.896871 -0.442293 0
    outer loop
      vertex -26.7925 -11.0978 42.5
      vertex -25.1147 -14.5 -42.5
      vertex -25.1147 -14.5 42.5
    endloop
  endfacet
  facet normal -0.83147 -0.55557 0
    outer loop
      vertex -23.0072 -17.6541 -42.5
      vertex -25.1147 -14.5 42.5
      vertex -25.1147 -14.5 -42.5
    endloop
  endfacet
  facet normal -0.83147 -0.55557 0
    outer loop
      vertex -25.1147 -14.5 42.5
      vertex -23.0072 -17.6541 -42.5
      vertex -23.0072 -17.6541 42.5
    endloop
  endfacet
  facet normal -0.751845 -0.65934 0
    outer loop
      vertex -20.5061 -20.5061 -42.5
      vertex -23.0072 -17.6541 42.5
      vertex -23.0072 -17.6541 -42.5
    endloop
  endfacet
  facet normal -0.751845 -0.65934 0
    outer loop
      vertex -23.0072 -17.6541 42.5
      vertex -20.5061 -20.5061 -42.5
      vertex -20.5061 -20.5061 42.5
    endloop
  endfacet
  facet normal -0.65934 -0.751845 0
    outer loop
      vertex -20.5061 -20.5061 -42.5
      vertex -17.6541 -23.0072 42.5
      vertex -20.5061 -20.5061 42.5
    endloop
  endfacet
  facet normal -0.65934 -0.751845 -0
    outer loop
      vertex -17.6541 -23.0072 42.5
      vertex -20.5061 -20.5061 -42.5
      vertex -17.6541 -23.0072 -42.5
    endloop
  endfacet
  facet normal -0.55557 -0.83147 0
    outer loop
      vertex -17.6541 -23.0072 -42.5
      vertex -14.5 -25.1147 42.5
      vertex -17.6541 -23.0072 42.5
    endloop
  endfacet
  facet normal -0.55557 -0.83147 -0
    outer loop
      vertex -14.5 -25.1147 42.5
      vertex -17.6541 -23.0072 -42.5
      vertex -14.5 -25.1147 -42.5
    endloop
  endfacet
  facet normal -0.442293 -0.896871 0
    outer loop
      vertex -14.5 -25.1147 -42.5
      vertex -11.0978 -26.7925 42.5
      vertex -14.5 -25.1147 42.5
    endloop
  endfacet
  facet normal -0.442293 -0.896871 -0
    outer loop
      vertex -11.0978 -26.7925 42.5
      vertex -14.5 -25.1147 -42.5
      vertex -11.0978 -26.7925 -42.5
    endloop
  endfacet
  facet normal -0.321431 -0.946933 0
    outer loop
      vertex -11.0978 -26.7925 -42.5
      vertex -7.50575 -28.0118 42.5
      vertex -11.0978 -26.7925 42.5
    endloop
  endfacet
  facet normal -0.321431 -0.946933 -0
    outer loop
      vertex -7.50575 -28.0118 42.5
      vertex -11.0978 -26.7925 -42.5
      vertex -7.50575 -28.0118 -42.5
    endloop
  endfacet
  facet normal -0.195103 -0.980783 0
    outer loop
      vertex -7.50575 -28.0118 -42.5
      vertex -3.78526 -28.7519 42.5
      vertex -7.50575 -28.0118 42.5
    endloop
  endfacet
  facet normal -0.195103 -0.980783 -0
    outer loop
      vertex -3.78526 -28.7519 42.5
      vertex -7.50575 -28.0118 -42.5
      vertex -3.78526 -28.7519 -42.5
    endloop
  endfacet
  facet normal -0.0654034 -0.997859 0
    outer loop
      vertex -3.78526 -28.7519 -42.5
      vertex -0 -29 42.5
      vertex -3.78526 -28.7519 42.5
    endloop
  endfacet
  facet normal -0.0654034 -0.997859 -0
    outer loop
      vertex -0 -29 42.5
      vertex -3.78526 -28.7519 -42.5
      vertex -0 -29 -42.5
    endloop
  endfacet
  facet normal 0.0654034 -0.997859 0
    outer loop
      vertex -0 -29 -42.5
      vertex 3.78526 -28.7519 42.5
      vertex -0 -29 42.5
    endloop
  endfacet
  facet normal 0.0654034 -0.997859 0
    outer loop
      vertex 3.78526 -28.7519 42.5
      vertex -0 -29 -42.5
      vertex 3.78526 -28.7519 -42.5
    endloop
  endfacet
  facet normal 0.195103 -0.980783 0
    outer loop
      vertex 3.78526 -28.7519 -42.5
      vertex 7.50575 -28.0118 42.5
      vertex 3.78526 -28.7519 42.5
    endloop
  endfacet
  facet normal 0.195103 -0.980783 0
    outer loop
      vertex 7.50575 -28.0118 42.5
      vertex 3.78526 -28.7519 -42.5
      vertex 7.50575 -28.0118 -42.5
    endloop
  endfacet
  facet normal 0.321431 -0.946933 0
    outer loop
      vertex 7.50575 -28.0118 -42.5
      vertex 11.0978 -26.7925 42.5
      vertex 7.50575 -28.0118 42.5
    endloop
  endfacet
  facet normal 0.321431 -0.946933 0
    outer loop
      vertex 11.0978 -26.7925 42.5
      vertex 7.50575 -28.0118 -42.5
      vertex 11.0978 -26.7925 -42.5
    endloop
  endfacet
  facet normal 0.442293 -0.896871 0
    outer loop
      vertex 11.0978 -26.7925 -42.5
      vertex 14.5 -25.1147 42.5
      vertex 11.0978 -26.7925 42.5
    endloop
  endfacet
  facet normal 0.442293 -0.896871 0
    outer loop
      vertex 14.5 -25.1147 42.5
      vertex 11.0978 -26.7925 -42.5
      vertex 14.5 -25.1147 -42.5
    endloop
  endfacet
  facet normal 0.55557 -0.83147 0
    outer loop
      vertex 14.5 -25.1147 -42.5
      vertex 17.6541 -23.0072 42.5
      vertex 14.5 -25.1147 42.5
    endloop
  endfacet
  facet normal 0.55557 -0.83147 0
    outer loop
      vertex 17.6541 -23.0072 42.5
      vertex 14.5 -25.1147 -42.5
      vertex 17.6541 -23.0072 -42.5
    endloop
  endfacet
  facet normal 0.65934 -0.751845 0
    outer loop
      vertex 17.6541 -23.0072 -42.5
      vertex 20.5061 -20.5061 42.5
      vertex 17.6541 -23.0072 42.5
    endloop
  endfacet
  facet normal 0.65934 -0.751845 0
    outer loop
      vertex 20.5061 -20.5061 42.5
      vertex 17.6541 -23.0072 -42.5
      vertex 20.5061 -20.5061 -42.5
    endloop
  endfacet
  facet normal 0.751845 -0.65934 0
    outer loop
      vertex 20.5061 -20.5061 42.5
      vertex 23.0072 -17.6541 -42.5
      vertex 23.0072 -17.6541 42.5
    endloop
  endfacet
  facet normal 0.751845 -0.65934 0
    outer loop
      vertex 23.0072 -17.6541 -42.5
      vertex 20.5061 -20.5061 42.5
      vertex 20.5061 -20.5061 -42.5
    endloop
  endfacet
  facet normal 0.83147 -0.55557 0
    outer loop
      vertex 23.0072 -17.6541 42.5
      vertex 25.1147 -14.5 -42.5
      vertex 25.1147 -14.5 42.5
    endloop
  endfacet
  facet normal 0.83147 -0.55557 0
    outer loop
      vertex 25.1147 -14.5 -42.5
      vertex 23.0072 -17.6541 42.5
      vertex 23.0072 -17.6541 -42.5
    endloop
  endfacet
  facet normal 0.896871 -0.442293 0
    outer loop
      vertex 25.1147 -14.5 42.5
      vertex 26.7925 -11.0978 -42.5
      vertex 26.7925 -11.0978 42.5
    endloop
  endfacet
  facet normal 0.896871 -0.442293 0
    outer loop
      vertex 26.7925 -11.0978 -42.5
      vertex 25.1147 -14.5 42.5
      vertex 25.1147 -14.5 -42.5
    endloop
  endfacet
  facet normal 0.946933 -0.321431 0
    outer loop
      vertex 26.7925 -11.0978 42.5
      vertex 28.0118 -7.50575 -42.5
      vertex 28.0118 -7.50575 42.5
    endloop
  endfacet
  facet normal 0.946933 -0.321431 0
    outer loop
      vertex 28.0118 -7.50575 -42.5
      vertex 26.7925 -11.0978 42.5
      vertex 26.7925 -11.0978 -42.5
    endloop
  endfacet
  facet normal 0.980783 -0.195103 0
    outer loop
      vertex 28.0118 -7.50575 42.5
      vertex 28.7519 -3.78526 -42.5
      vertex 28.7519 -3.78526 42.5
    endloop
  endfacet
  facet normal 0.980783 -0.195103 0
    outer loop
      vertex 28.7519 -3.78526 -42.5
      vertex 28.0118 -7.50575 42.5
      vertex 28.0118 -7.50575 -42.5
    endloop
  endfacet
  facet normal 0.997859 -0.0654034 0
    outer loop
      vertex 28.7519 -3.78526 42.5
      vertex 29 0 -42.5
      vertex 29 0 42.5
    endloop
  endfacet
  facet normal 0.997859 -0.0654034 0
    outer loop
      vertex 29 0 -42.5
      vertex 28.7519 -3.78526 42.5
      vertex 28.7519 -3.78526 -42.5
    endloop
  endfacet
  facet normal 0 0 -1
    outer loop
      vertex 28.7519 -3.78526 -42.5
      vertex 28.7519 3.78526 -42.5
      vertex 29 0 -42.5
    endloop
  endfacet
  facet normal 0 0 -1
    outer loop
      vertex 28.0118 -7.50575 -42.5
      vertex 28.7519 3.78526 -42.5
      vertex 28.7519 -3.78526 -42.5
    endloop
  endfacet
  facet normal 0 0 -1
    outer loop
      vertex 28.0118 -7.50575 -42.5
      vertex 28.0118 7.50575 -42.5
      vertex 28.7519 3.78526 -42.5
    endloop
  endfacet
  facet normal 0 0 -1
    outer loop
      vertex 26.7925 -11.0978 -42.5
      vertex 28.0118 7.50575 -42.5
      vertex 28.0118 -7.50575 -42.5
    endloop
  endfacet
  facet normal 0 0 -1
    outer loop
      vertex 26.7925 -11.0978 -42.5
      vertex 26.7925 11.0978 -42.5
      vertex 28.0118 7.50575 -42.5
    endloop
  endfacet
  facet normal 0 0 -1
    outer loop
      vertex 25.1147 -14.5 -42.5
      vertex 26.7925 11.0978 -42.5
      vertex 26.7925 -11.0978 -42.5
    endloop
  endfacet
  facet normal 0 0 -1
    outer loop
      vertex 25.1147 -14.5 -42.5
      vertex 25.1147 14.5 -42.5
      vertex 26.7925 11.0978 -42.5
    endloop
  endfacet
  facet normal 0 0 -1
    outer loop
      vertex 23.0072 -17.6541 -42.5
      vertex 25.1147 14.5 -42.5
      vertex 25.1147 -14.5 -42.5
    endloop
  endfacet
  facet normal 0 0 -1
    outer loop
      vertex 23.0072 -17.6541 -42.5
      vertex 23.0072 17.6541 -42.5
      vertex 25.1147 14.5 -42.5
    endloop
  endfacet
  facet normal 0 0 -1
    outer loop
      vertex 20.5061 -20.5061 -42.5
      vertex 23.0072 17.6541 -42.5
      vertex 23.0072 -17.6541 -42.5
    endloop
  endfacet
  facet normal 0 0 -1
    outer loop
      vertex 20.5061 -20.5061 -42.5
      vertex 20.5061 20.5061 -42.5
      vertex 23.0072 17.6541 -42.5
    endloop
  endfacet
  facet normal 0 0 -1
    outer loop
      vertex 17.6541 -23.0072 -42.5
      vertex 20.5061 20.5061 -42.5
      vertex 20.5061 -20.5061 -42.5
    endloop
  endfacet
  facet normal 0 0 -1
    outer loop
      vertex 17.6541 -23.0072 -42.5
      vertex 17.6541 23.0072 -42.5
      vertex 20.5061 20.5061 -42.5
    endloop
  endfacet
  facet normal 0 0 -1
    outer loop
      vertex 14.5 -25.1147 -42.5
      vertex 17.6541 23.0072 -42.5
      vertex 17.6541 -23.0072 -42.5
    endloop
  endfacet
  facet normal 0 0 -1
    outer loop
      vertex 14.5 -25.1147 -42.5
      vertex 14.5 25.1147 -42.5
      vertex 17.6541 23.0072 -42.5
    endloop
  endfacet
  facet normal 0 0 -1
    outer loop
      vertex 11.0978 -26.7925 -42.5
      vertex 14.5 25.1147 -42.5
      vertex 14.5 -25.1147 -42.5
    endloop
  endfacet
  facet normal 0 0 -1
    outer loop
      vertex 11.0978 -26.7925 -42.5
      vertex 11.0978 26.7925 -42.5
      vertex 14.5 25.1147 -42.5
    endloop
  endfacet
  facet normal 0 0 -1
    outer loop
      vertex 7.50575 -28.0118 -42.5
      vertex 11.0978 26.7925 -42.5
      vertex 11.0978 -26.7925 -42.5
    endloop
  endfacet
  facet normal 0 0 -1
    outer loop
      vertex 7.50575 -28.0118 -42.5
      vertex 7.50575 28.0118 -42.5
      vertex 11.0978 26.7925 -42.5
    endloop
  endfacet
  facet normal 0 0 -1
    outer loop
      vertex 3.78526 -28.7519 -42.5
      vertex 7.50575 28.0118 -42.5
      vertex 7.50575 -28.0118 -42.5
    endloop
  endfacet
  facet normal 0 0 -1
    outer loop
      vertex 3.78526 -28.7519 -42.5
      vertex 3.78526 28.7519 -42.5
      vertex 7.50575 28.0118 -42.5
    endloop
  endfacet
  facet normal 0 0 -1
    outer loop
      vertex -0 -29 -42.5
      vertex 3.78526 28.7519 -42.5
      vertex 3.78526 -28.7519 -42.5
    endloop
  endfacet
  facet normal 0 0 -1
    outer loop
      vertex -0 -29 -42.5
      vertex 0 29 -42.5
      vertex 3.78526 28.7519 -42.5
    endloop
  endfacet
  facet normal 0 0 -1
    outer loop
      vertex -3.78526 -28.7519 -42.5
      vertex 0 29 -42.5
      vertex -0 -29 -42.5
    endloop
  endfacet
  facet normal 0 0 -1
    outer loop
      vertex -3.78526 -28.7519 -42.5
      vertex -3.78526 28.7519 -42.5
      vertex 0 29 -42.5
    endloop
  endfacet
  facet normal 0 0 -1
    outer loop
      vertex -7.50575 -28.0118 -42.5
      vertex -3.78526 28.7519 -42.5
      vertex -3.78526 -28.7519 -42.5
    endloop
  endfacet
  facet normal 0 0 -1
    outer loop
      vertex -7.50575 -28.0118 -42.5
      vertex -7.50575 28.0118 -42.5
      vertex -3.78526 28.7519 -42.5
    endloop
  endfacet
  facet normal 0 0 -1
    outer loop
      vertex -11.0978 -26.7925 -42.5
      vertex -7.50575 28.0118 -42.5
      vertex -7.50575 -28.0118 -42.5
    endloop
  endfacet
  facet normal 0 0 -1
    outer loop
      vertex -11.0978 -26.7925 -42.5
      vertex -11.0978 26.7925 -42.5
      vertex -7.50575 28.0118 -42.5
    endloop
  endfacet
  facet normal 0 0 -1
    outer loop
      vertex -14.5 -25.1147 -42.5
      vertex -11.0978 26.7925 -42.5
      vertex -11.0978 -26.7925 -42.5
    endloop
  endfacet
  facet normal 0 0 -1
    outer loop
      vertex -14.5 -25.1147 -42.5
      vertex -14.5 25.1147 -42.5
      vertex -11.0978 26.7925 -42.5
    endloop
  endfacet
  facet normal 0 0 -1
    outer loop
      vertex -17.6541 -23.0072 -42.5
      vertex -14.5 25.1147 -42.5
      vertex -14.5 -25.1147 -42.5
    endloop
  endfacet
  facet normal 0 0 -1
    outer loop
      vertex -17.6541 -23.0072 -42.5
      vertex -17.6541 23.0072 -42.5
      vertex -14.5 25.1147 -42.5
    endloop
  endfacet
  facet normal 0 0 -1
    outer loop
      vertex -20.5061 -20.5061 -42.5
      vertex -17.6541 23.0072 -42.5
      vertex -17.6541 -23.0072 -42.5
    endloop
  endfacet
  facet normal 0 0 -1
    outer loop
      vertex -20.5061 -20.5061 -42.5
      vertex -20.5061 20.5061 -42.5
      vertex -17.6541 23.0072 -42.5
    endloop
  endfacet
  facet normal 0 0 -1
    outer loop
      vertex -23.0072 -17.6541 -42.5
      vertex -20.5061 20.5061 -42.5
      vertex -20.5061 -20.5061 -42.5
    endloop
  endfacet
  facet normal 0 0 -1
    outer loop
      vertex -23.0072 -17.6541 -42.5
      vertex -23.0072 17.6541 -42.5
      vertex -20.5061 20.5061 -42.5
    endloop
  endfacet
  facet normal 0 0 -1
    outer loop
      vertex -25.1147 -14.5 -42.5
      vertex -23.0072 17.6541 -42.5
      vertex -23.0072 -17.6541 -42.5
    endloop
  endfacet
  facet normal 0 0 -1
    outer loop
      vertex -25.1147 -14.5 -42.5
      vertex -25.1147 14.5 -42.5
      vertex -23.0072 17.6541 -42.5
    endloop
  endfacet
  facet normal 0 0 -1
    outer loop
      vertex -26.7925 -11.0978 -42.5
      vertex -25.1147 14.5 -42.5
      vertex -25.1147 -14.5 -42.5
    endloop
  endfacet
  facet normal 0 0 -1
    outer loop
      vertex -26.7925 -11.0978 -42.5
      vertex -26.7925 11.0978 -42.5
      vertex -25.1147 14.5 -42.5
    endloop
  endfacet
  facet normal 0 0 -1
    outer loop
      vertex -28.0118 -7.50575 -42.5
      vertex -26.7925 11.0978 -42.5
      vertex -26.7925 -11.0978 -42.5
    endloop
  endfacet
  facet normal 0 0 -1
    outer loop
      vertex -28.0118 -7.50575 -42.5
      vertex -28.0118 7.50575 -42.5
      vertex -26.7925 11.0978 -42.5
    endloop
  endfacet
  facet normal 0 0 -1
    outer loop
      vertex -28.7519 -3.78526 -42.5
      vertex -28.0118 7.50575 -42.5
      vertex -28.0118 -7.50575 -42.5
    endloop
  endfacet
  facet normal 0 0 -1
    outer loop
      vertex -28.7519 -3.78526 -42.5
      vertex -28.7519 3.78526 -42.5
      vertex -28.0118 7.50575 -42.5
    endloop
  endfacet
  facet normal 0 -0 -1
    outer loop
      vertex -28.7519 3.78526 -42.5
      vertex -28.7519 -3.78526 -42.5
      vertex -29 -0 -42.5
    endloop
  endfacet
  facet normal 0 0 1
    outer loop
      vertex 28.7519 3.78526 42.5
      vertex 28.7519 -3.78526 42.5
      vertex 29 0 42.5
    endloop
  endfacet
  facet normal 0 0 1
    outer loop
      vertex 28.0118 7.50575 42.5
      vertex 28.7519 -3.78526 42.5
      vertex 28.7519 3.78526 42.5
    endloop
  endfacet
  facet normal 0 0 1
    outer loop
      vertex 28.0118 7.50575 42.5
      vertex 28.0118 -7.50575 42.5
      vertex 28.7519 -3.78526 42.5
    endloop
  endfacet
  facet normal 0 0 1
    outer loop
      vertex 26.7925 11.0978 42.5
      vertex 28.0118 -7.50575 42.5
      vertex 28.0118 7.50575 42.5
    endloop
  endfacet
  facet normal 0 0 1
    outer loop
      vertex 26.7925 11.0978 42.5
      vertex 26.7925 -11.0978 42.5
      vertex 28.0118 -7.50575 42.5
    endloop
  endfacet
  facet normal 0 0 1
    outer loop
      vertex 25.1147 14.5 42.5
      vertex 26.7925 -11.0978 42.5
      vertex 26.7925 11.0978 42.5
    endloop
  endfacet
  facet normal 0 0 1
    outer loop
      vertex 25.1147 14.5 42.5
      vertex 25.1147 -14.5 42.5
      vertex 26.7925 -11.0978 42.5
    endloop
  endfacet
  facet normal 0 0 1
    outer loop
      vertex 23.0072 17.6541 42.5
      vertex 25.1147 -14.5 42.5
      vertex 25.1147 14.5 42.5
    endloop
  endfacet
  facet normal 0 0 1
    outer loop
      vertex 23.0072 17.6541 42.5
      vertex 23.0072 -17.6541 42.5
      vertex 25.1147 -14.5 42.5
    endloop
  endfacet
  facet normal 0 0 1
    outer loop
      vertex 20.5061 20.5061 42.5
      vertex 23.0072 -17.6541 42.5
      vertex 23.0072 17.6541 42.5
    endloop
  endfacet
  facet normal 0 0 1
    outer loop
      vertex 20.5061 20.5061 42.5
      vertex 20.5061 -20.5061 42.5
      vertex 23.0072 -17.6541 42.5
    endloop
  endfacet
  facet normal 0 0 1
    outer loop
      vertex 17.6541 23.0072 42.5
      vertex 20.5061 -20.5061 42.5
      vertex 20.5061 20.5061 42.5
    endloop
  endfacet
  facet normal 0 0 1
    outer loop
      vertex 17.6541 23.0072 42.5
      vertex 17.6541 -23.0072 42.5
      vertex 20.5061 -20.5061 42.5
    endloop
  endfacet
  facet normal 0 0 1
    outer loop
      vertex 14.5 25.1147 42.5
      vertex 17.6541 -23.0072 42.5
      vertex 17.6541 23.0072 42.5
    endloop
  endfacet
  facet normal 0 0 1
    outer loop
      vertex 14.5 25.1147 42.5
      vertex 14.5 -25.1147 42.5
      vertex 17.6541 -23.0072 42.5
    endloop
  endfacet
  facet normal 0 0 1
    outer loop
      vertex 11.0978 26.7925 42.5
      vertex 14.5 -25.1147 42.5
      vertex 14.5 25.1147 42.5
    endloop
  endfacet
  facet normal 0 0 1
    outer loop
      vertex 11.0978 26.7925 42.5
      vertex 11.0978 -26.7925 42.5
      vertex 14.5 -25.1147 42.5
    endloop
  endfacet
  facet normal 0 0 1
    outer loop
      vertex 7.50575 28.0118 42.5
      vertex 11.0978 -26.7925 42.5
      vertex 11.0978 26.7925 42.5
    endloop
  endfacet
  facet normal 0 0 1
    outer loop
      vertex 7.50575 28.0118 42.5
      vertex 7.50575 -28.0118 42.5
      vertex 11.0978 -26.7925 42.5
    endloop
  endfacet
  facet normal 0 0 1
    outer loop
      vertex 3.78526 28.7519 42.5
      vertex 7.50575 -28.0118 42.5
      vertex 7.50575 28.0118 42.5
    endloop
  endfacet
  facet normal 0 0 1
    outer loop
      vertex 3.78526 28.7519 42.5
      vertex 3.78526 -28.7519 42.5
      vertex 7.50575 -28.0118 42.5
    endloop
  endfacet
  facet normal 0 0 1
    outer loop
      vertex 0 29 42.5
      vertex 3.78526 -28.7519 42.5
      vertex 3.78526 28.7519 42.5
    endloop
  endfacet
  facet normal 0 0 1
    outer loop
      vertex 0 29 42.5
      vertex -0 -29 42.5
      vertex 3.78526 -28.7519 42.5
    endloop
  endfacet
  facet normal -0 0 1
    outer loop
      vertex -3.78526 28.7519 42.5
      vertex -0 -29 42.5
      vertex 0 29 42.5
    endloop
  endfacet
  facet normal 0 0 1
    outer loop
      vertex -3.78526 28.7519 42.5
      vertex -3.78526 -28.7519 42.5
      vertex -0 -29 42.5
    endloop
  endfacet
  facet normal -0 0 1
    outer loop
      vertex -7.50575 28.0118 42.5
      vertex -3.78526 -28.7519 42.5
      vertex -3.78526 28.7519 42.5
    endloop
  endfacet
  facet normal 0 0 1
    outer loop
      vertex -7.50575 28.0118 42.5
      vertex -7.50575 -28.0118 42.5
      vertex -3.78526 -28.7519 42.5
    endloop
  endfacet
  facet normal -0 0 1
    outer loop
      vertex -11.0978 26.7925 42.5
      vertex -7.50575 -28.0118 42.5
      vertex -7.50575 28.0118 42.5
    endloop
  endfacet
  facet normal 0 0 1
    outer loop
      vertex -11.0978 26.7925 42.5
      vertex -11.0978 -26.7925 42.5
      vertex -7.50575 -28.0118 42.5
    endloop
  endfacet
  facet normal -0 0 1
    outer loop
      vertex -14.5 25.1147 42.5
      vertex -11.0978 -26.7925 42.5
      vertex -11.0978 26.7925 42.5
    endloop
  endfacet
  facet normal 0 0 1
    outer loop
      vertex -14.5 25.1147 42.5
      vertex -14.5 -25.1147 42.5
      vertex -11.0978 -26.7925 42.5
    endloop
  endfacet
  facet normal -0 0 1
    outer loop
      vertex -17.6541 23.0072 42.5
      vertex -14.5 -25.1147 42.5
      vertex -14.5 25.1147 42.5
    endloop
  endfacet
  facet normal 0 0 1
    outer loop
      vertex -17.6541 23.0072 42.5
      vertex -17.6541 -23.0072 42.5
      vertex -14.5 -25.1147 42.5
    endloop
  endfacet
  facet normal -0 0 1
    outer loop
      vertex -20.5061 20.5061 42.5
      vertex -17.6541 -23.0072 42.5
      vertex -17.6541 23.0072 42.5
    endloop
  endfacet
  facet normal 0 0 1
    outer loop
      vertex -20.5061 20.5061 42.5
      vertex -20.5061 -20.5061 42.5
      vertex -17.6541 -23.0072 42.5
    endloop
  endfacet
  facet normal -0 0 1
    outer loop
      vertex -23.0072 17.6541 42.5
      vertex -20.5061 -20.5061 42.5
      vertex -20.5061 20.5061 42.5
    endloop
  endfacet
  facet normal 0 0 1
    outer loop
      vertex -23.0072 17.6541 42.5
      vertex -23.0072 -17.6541 42.5
      vertex -20.5061 -20.5061 42.5
    endloop
  endfacet
  facet normal -0 0 1
    outer loop
      vertex -25.1147 14.5 42.5
      vertex -23.0072 -17.6541 42.5
      vertex -23.0072 17.6541 42.5
    endloop
  endfacet
  facet normal 0 0 1
    outer loop
      vertex -25.1147 14.5 42.5
      vertex -25.1147 -14.5 42.5
      vertex -23.0072 -17.6541 42.5
    endloop
  endfacet
  facet normal -0 0 1
    outer loop
      vertex -26.7925 11.0978 42.5
      vertex -25.1147 -14.5 42.5
      vertex -25.1147 14.5 42.5
    endloop
  endfacet
  facet normal 0 0 1
    outer loop
      vertex -26.7925 11.0978 42.5
      vertex -26.7925 -11.0978 42.5
      vertex -25.1147 -14.5 42.5
    endloop
  endfacet
  facet normal -0 0 1
    outer loop
      vertex -28.0118 7.50575 42.5
      vertex -26.7925 -11.0978 42.5
      vertex -26.7925 11.0978 42.5
    endloop
  endfacet
  facet normal 0 0 1
    outer loop
      vertex -28.0118 7.50575 42.5
      vertex -28.0118 -7.50575 42.5
      vertex -26.7925 -11.0978 42.5
    endloop
  endfacet
  facet normal -0 0 1
    outer loop
      vertex -28.7519 3.78526 42.5
      vertex -28.0118 -7.50575 42.5
      vertex -28.0118 7.50575 42.5
    endloop
  endfacet
  facet normal 0 0 1
    outer loop
      vertex -28.7519 3.78526 42.5
      vertex -28.7519 -3.78526 42.5
      vertex -28.0118 -7.50575 42.5
    endloop
  endfacet
  facet normal 0 -0 1
    outer loop
      vertex -28.7519 -3.78526 42.5
      vertex -28.7519 3.78526 42.5
      vertex -29 -0 42.5
    endloop
  endfacet
endsolid OpenSCAD_Model
