solid OpenSCAD_Model
  facet normal 1 -0 0
    outer loop
      vertex 75 -80 2.5
      vertex 75 80 -2.5
      vertex 75 80 2.5
    endloop
  endfacet
  facet normal 1 0 0
    outer loop
      vertex 75 80 -2.5
      vertex 75 -80 2.5
      vertex 75 -80 -2.5
    endloop
  endfacet
  facet normal -0 0 1
    outer loop
      vertex -65 57.5 2.5
      vertex -45 -57.5 2.5
      vertex -45 57.5 2.5
    endloop
  endfacet
  facet normal 0 0 1
    outer loop
      vertex -45 -57.5 2.5
      vertex -65 57.5 2.5
      vertex -65 -57.5 2.5
    endloop
  endfacet
  facet normal -0 0 1
    outer loop
      vertex 45 57.5 2.5
      vertex 65 -57.5 2.5
      vertex 65 57.5 2.5
    endloop
  endfacet
  facet normal 0 0 1
    outer loop
      vertex 65 -57.5 2.5
      vertex 45 57.5 2.5
      vertex 45 -57.5 2.5
    endloop
  endfacet
  facet normal 0 0 1
    outer loop
      vertex 65 57.5 2.5
      vertex 75 80 2.5
      vertex 65 62.5 2.5
    endloop
  endfacet
  facet normal 0 0 1
    outer loop
      vertex 75 80 2.5
      vertex 45 62.5 2.5
      vertex 65 62.5 2.5
    endloop
  endfacet
  facet normal 0 0 1
    outer loop
      vertex -45 57.5 2.5
      vertex 45 57.5 2.5
      vertex 45 62.5 2.5
    endloop
  endfacet
  facet normal 0 0 1
    outer loop
      vertex 45 57.5 2.5
      vertex -45 57.5 2.5
      vertex 45 -57.5 2.5
    endloop
  endfacet
  facet normal 0 0 1
    outer loop
      vertex -45 57.5 2.5
      vertex 45 62.5 2.5
      vertex -45 62.5 2.5
    endloop
  endfacet
  facet normal 0 0 1
    outer loop
      vertex 75 80 2.5
      vertex -45 62.5 2.5
      vertex 45 62.5 2.5
    endloop
  endfacet
  facet normal -0 0 1
    outer loop
      vertex -75 80 2.5
      vertex -45 62.5 2.5
      vertex 75 80 2.5
    endloop
  endfacet
  facet normal 0 0 1
    outer loop
      vertex -75 80 2.5
      vertex -65 57.5 2.5
      vertex -65 62.5 2.5
    endloop
  endfacet
  facet normal 0 0 1
    outer loop
      vertex -65 57.5 2.5
      vertex -75 80 2.5
      vertex -65 -57.5 2.5
    endloop
  endfacet
  facet normal 0 0 1
    outer loop
      vertex -75 -80 2.5
      vertex -65 -57.5 2.5
      vertex -75 80 2.5
    endloop
  endfacet
  facet normal 0 0 1
    outer loop
      vertex -45 62.5 2.5
      vertex -75 80 2.5
      vertex -65 62.5 2.5
    endloop
  endfacet
  facet normal 0 0 1
    outer loop
      vertex 75 80 2.5
      vertex 65 57.5 2.5
      vertex 75 -80 2.5
    endloop
  endfacet
  facet normal -0 0 1
    outer loop
      vertex 65 -57.5 2.5
      vertex 75 -80 2.5
      vertex 65 57.5 2.5
    endloop
  endfacet
  facet normal -0 0 1
    outer loop
      vertex 65 -62.5 2.5
      vertex 75 -80 2.5
      vertex 65 -57.5 2.5
    endloop
  endfacet
  facet normal -0 0 1
    outer loop
      vertex 45 -62.5 2.5
      vertex 75 -80 2.5
      vertex 65 -62.5 2.5
    endloop
  endfacet
  facet normal 0 0 1
    outer loop
      vertex -45 -57.5 2.5
      vertex 45 -57.5 2.5
      vertex -45 57.5 2.5
    endloop
  endfacet
  facet normal 0 0 1
    outer loop
      vertex 45 -57.5 2.5
      vertex -45 -57.5 2.5
      vertex 45 -62.5 2.5
    endloop
  endfacet
  facet normal 0 0 1
    outer loop
      vertex -45 -62.5 2.5
      vertex 45 -62.5 2.5
      vertex -45 -57.5 2.5
    endloop
  endfacet
  facet normal 0 0 1
    outer loop
      vertex 45 -62.5 2.5
      vertex -45 -62.5 2.5
      vertex 75 -80 2.5
    endloop
  endfacet
  facet normal 0 0 1
    outer loop
      vertex -75 -80 2.5
      vertex -45 -62.5 2.5
      vertex -65 -62.5 2.5
    endloop
  endfacet
  facet normal 0 0 1
    outer loop
      vertex -45 -62.5 2.5
      vertex -75 -80 2.5
      vertex 75 -80 2.5
    endloop
  endfacet
  facet normal 0 0 1
    outer loop
      vertex -65 -57.5 2.5
      vertex -75 -80 2.5
      vertex -65 -62.5 2.5
    endloop
  endfacet
  facet normal 0 0 -1
    outer loop
      vertex -65 -57.5 -2.5
      vertex -45 57.5 -2.5
      vertex -45 -57.5 -2.5
    endloop
  endfacet
  facet normal -0 0 -1
    outer loop
      vertex -45 57.5 -2.5
      vertex -65 -57.5 -2.5
      vertex -65 57.5 -2.5
    endloop
  endfacet
  facet normal 0 0 -1
    outer loop
      vertex 45 -57.5 -2.5
      vertex 65 57.5 -2.5
      vertex 65 -57.5 -2.5
    endloop
  endfacet
  facet normal -0 0 -1
    outer loop
      vertex 65 57.5 -2.5
      vertex 45 -57.5 -2.5
      vertex 45 57.5 -2.5
    endloop
  endfacet
  facet normal 0 0 -1
    outer loop
      vertex 65 -57.5 -2.5
      vertex 75 -80 -2.5
      vertex 65 -62.5 -2.5
    endloop
  endfacet
  facet normal 0 0 -1
    outer loop
      vertex 75 -80 -2.5
      vertex 45 -62.5 -2.5
      vertex 65 -62.5 -2.5
    endloop
  endfacet
  facet normal 0 0 -1
    outer loop
      vertex -45 -57.5 -2.5
      vertex 45 -57.5 -2.5
      vertex 45 -62.5 -2.5
    endloop
  endfacet
  facet normal 0 0 -1
    outer loop
      vertex 45 -57.5 -2.5
      vertex -45 -57.5 -2.5
      vertex 45 57.5 -2.5
    endloop
  endfacet
  facet normal 0 0 -1
    outer loop
      vertex -45 -57.5 -2.5
      vertex 45 -62.5 -2.5
      vertex -45 -62.5 -2.5
    endloop
  endfacet
  facet normal 0 0 -1
    outer loop
      vertex 75 -80 -2.5
      vertex -45 -62.5 -2.5
      vertex 45 -62.5 -2.5
    endloop
  endfacet
  facet normal 0 0 -1
    outer loop
      vertex -75 -80 -2.5
      vertex -45 -62.5 -2.5
      vertex 75 -80 -2.5
    endloop
  endfacet
  facet normal 0 0 -1
    outer loop
      vertex -75 -80 -2.5
      vertex -65 -57.5 -2.5
      vertex -65 -62.5 -2.5
    endloop
  endfacet
  facet normal -0 0 -1
    outer loop
      vertex -65 -57.5 -2.5
      vertex -75 -80 -2.5
      vertex -65 57.5 -2.5
    endloop
  endfacet
  facet normal 0 0 -1
    outer loop
      vertex -75 80 -2.5
      vertex -65 57.5 -2.5
      vertex -75 -80 -2.5
    endloop
  endfacet
  facet normal -0 0 -1
    outer loop
      vertex -45 -62.5 -2.5
      vertex -75 -80 -2.5
      vertex -65 -62.5 -2.5
    endloop
  endfacet
  facet normal 0 0 -1
    outer loop
      vertex 75 -80 -2.5
      vertex 65 -57.5 -2.5
      vertex 75 80 -2.5
    endloop
  endfacet
  facet normal 0 0 -1
    outer loop
      vertex 65 57.5 -2.5
      vertex 75 80 -2.5
      vertex 65 -57.5 -2.5
    endloop
  endfacet
  facet normal 0 0 -1
    outer loop
      vertex 65 62.5 -2.5
      vertex 75 80 -2.5
      vertex 65 57.5 -2.5
    endloop
  endfacet
  facet normal 0 0 -1
    outer loop
      vertex 45 62.5 -2.5
      vertex 75 80 -2.5
      vertex 65 62.5 -2.5
    endloop
  endfacet
  facet normal 0 0 -1
    outer loop
      vertex -45 57.5 -2.5
      vertex 45 57.5 -2.5
      vertex -45 -57.5 -2.5
    endloop
  endfacet
  facet normal 0 0 -1
    outer loop
      vertex 45 57.5 -2.5
      vertex -45 57.5 -2.5
      vertex 45 62.5 -2.5
    endloop
  endfacet
  facet normal 0 0 -1
    outer loop
      vertex -45 62.5 -2.5
      vertex 45 62.5 -2.5
      vertex -45 57.5 -2.5
    endloop
  endfacet
  facet normal 0 0 -1
    outer loop
      vertex 45 62.5 -2.5
      vertex -45 62.5 -2.5
      vertex 75 80 -2.5
    endloop
  endfacet
  facet normal 0 0 -1
    outer loop
      vertex -75 80 -2.5
      vertex -45 62.5 -2.5
      vertex -65 62.5 -2.5
    endloop
  endfacet
  facet normal 0 0 -1
    outer loop
      vertex -45 62.5 -2.5
      vertex -75 80 -2.5
      vertex 75 80 -2.5
    endloop
  endfacet
  facet normal 0 0 -1
    outer loop
      vertex -65 57.5 -2.5
      vertex -75 80 -2.5
      vertex -65 62.5 -2.5
    endloop
  endfacet
  facet normal -1 0 0
    outer loop
      vertex -75 -80 -2.5
      vertex -75 80 2.5
      vertex -75 80 -2.5
    endloop
  endfacet
  facet normal -1 -0 0
    outer loop
      vertex -75 80 2.5
      vertex -75 -80 -2.5
      vertex -75 -80 2.5
    endloop
  endfacet
  facet normal 0 1 -0
    outer loop
      vertex 75 80 -2.5
      vertex -75 80 2.5
      vertex 75 80 2.5
    endloop
  endfacet
  facet normal 0 1 0
    outer loop
      vertex -75 80 2.5
      vertex 75 80 -2.5
      vertex -75 80 -2.5
    endloop
  endfacet
  facet normal 0 -1 0
    outer loop
      vertex -75 -80 -2.5
      vertex 75 -80 2.5
      vertex -75 -80 2.5
    endloop
  endfacet
  facet normal 0 -1 -0
    outer loop
      vertex 75 -80 2.5
      vertex -75 -80 -2.5
      vertex 75 -80 -2.5
    endloop
  endfacet
  facet normal -1 0 0
    outer loop
      vertex -45 -62.5 -2.5
      vertex -45 -57.5 2.5
      vertex -45 -57.5 -2.5
    endloop
  endfacet
  facet normal -1 -0 0
    outer loop
      vertex -45 -57.5 2.5
      vertex -45 -62.5 -2.5
      vertex -45 -62.5 2.5
    endloop
  endfacet
  facet normal 1 -0 0
    outer loop
      vertex -65 -62.5 2.5
      vertex -65 -57.5 -2.5
      vertex -65 -57.5 2.5
    endloop
  endfacet
  facet normal 1 0 0
    outer loop
      vertex -65 -57.5 -2.5
      vertex -65 -62.5 2.5
      vertex -65 -62.5 -2.5
    endloop
  endfacet
  facet normal 0 -1 0
    outer loop
      vertex -65 -57.5 -2.5
      vertex -45 -57.5 2.5
      vertex -65 -57.5 2.5
    endloop
  endfacet
  facet normal 0 -1 -0
    outer loop
      vertex -45 -57.5 2.5
      vertex -65 -57.5 -2.5
      vertex -45 -57.5 -2.5
    endloop
  endfacet
  facet normal 0 1 -0
    outer loop
      vertex -45 -62.5 -2.5
      vertex -65 -62.5 2.5
      vertex -45 -62.5 2.5
    endloop
  endfacet
  facet normal 0 1 0
    outer loop
      vertex -65 -62.5 2.5
      vertex -45 -62.5 -2.5
      vertex -65 -62.5 -2.5
    endloop
  endfacet
  facet normal -1 0 0
    outer loop
      vertex -45 57.5 -2.5
      vertex -45 62.5 2.5
      vertex -45 62.5 -2.5
    endloop
  endfacet
  facet normal -1 -0 0
    outer loop
      vertex -45 62.5 2.5
      vertex -45 57.5 -2.5
      vertex -45 57.5 2.5
    endloop
  endfacet
  facet normal 1 -0 0
    outer loop
      vertex -65 57.5 2.5
      vertex -65 62.5 -2.5
      vertex -65 62.5 2.5
    endloop
  endfacet
  facet normal 1 0 0
    outer loop
      vertex -65 62.5 -2.5
      vertex -65 57.5 2.5
      vertex -65 57.5 -2.5
    endloop
  endfacet
  facet normal 0 -1 0
    outer loop
      vertex -65 62.5 -2.5
      vertex -45 62.5 2.5
      vertex -65 62.5 2.5
    endloop
  endfacet
  facet normal 0 -1 -0
    outer loop
      vertex -45 62.5 2.5
      vertex -65 62.5 -2.5
      vertex -45 62.5 -2.5
    endloop
  endfacet
  facet normal 0 1 -0
    outer loop
      vertex -45 57.5 -2.5
      vertex -65 57.5 2.5
      vertex -45 57.5 2.5
    endloop
  endfacet
  facet normal 0 1 0
    outer loop
      vertex -65 57.5 2.5
      vertex -45 57.5 -2.5
      vertex -65 57.5 -2.5
    endloop
  endfacet
  facet normal -1 0 0
    outer loop
      vertex 65 -62.5 -2.5
      vertex 65 -57.5 2.5
      vertex 65 -57.5 -2.5
    endloop
  endfacet
  facet normal -1 -0 0
    outer loop
      vertex 65 -57.5 2.5
      vertex 65 -62.5 -2.5
      vertex 65 -62.5 2.5
    endloop
  endfacet
  facet normal 1 -0 0
    outer loop
      vertex 45 -62.5 2.5
      vertex 45 -57.5 -2.5
      vertex 45 -57.5 2.5
    endloop
  endfacet
  facet normal 1 0 0
    outer loop
      vertex 45 -57.5 -2.5
      vertex 45 -62.5 2.5
      vertex 45 -62.5 -2.5
    endloop
  endfacet
  facet normal 0 -1 0
    outer loop
      vertex 45 -57.5 -2.5
      vertex 65 -57.5 2.5
      vertex 45 -57.5 2.5
    endloop
  endfacet
  facet normal 0 -1 -0
    outer loop
      vertex 65 -57.5 2.5
      vertex 45 -57.5 -2.5
      vertex 65 -57.5 -2.5
    endloop
  endfacet
  facet normal 0 1 -0
    outer loop
      vertex 65 -62.5 -2.5
      vertex 45 -62.5 2.5
      vertex 65 -62.5 2.5
    endloop
  endfacet
  facet normal 0 1 0
    outer loop
      vertex 45 -62.5 2.5
      vertex 65 -62.5 -2.5
      vertex 45 -62.5 -2.5
    endloop
  endfacet
  facet normal -1 0 0
    outer loop
      vertex 65 57.5 -2.5
      vertex 65 62.5 2.5
      vertex 65 62.5 -2.5
    endloop
  endfacet
  facet normal -1 -0 0
    outer loop
      vertex 65 62.5 2.5
      vertex 65 57.5 -2.5
      vertex 65 57.5 2.5
    endloop
  endfacet
  facet normal 1 -0 0
    outer loop
      vertex 45 57.5 2.5
      vertex 45 62.5 -2.5
      vertex 45 62.5 2.5
    endloop
  endfacet
  facet normal 1 0 0
    outer loop
      vertex 45 62.5 -2.5
      vertex 45 57.5 2.5
      vertex 45 57.5 -2.5
    endloop
  endfacet
  facet normal 0 -1 0
    outer loop
      vertex 45 62.5 -2.5
      vertex 65 62.5 2.5
      vertex 45 62.5 2.5
    endloop
  endfacet
  facet normal 0 -1 -0
    outer loop
      vertex 65 62.5 2.5
      vertex 45 62.5 -2.5
      vertex 65 62.5 -2.5
    endloop
  endfacet
  facet normal 0 1 -0
    outer loop
      vertex 65 57.5 -2.5
      vertex 45 57.5 2.5
      vertex 65 57.5 2.5
    endloop
  endfacet
  facet normal 0 1 0
    outer loop
      vertex 45 57.5 2.5
      vertex 65 57.5 -2.5
      vertex 45 57.5 -2.5
    endloop
  endfacet
endsolid OpenSCAD_Model
