solid OpenSCAD_Model
  facet normal 0.997859 0.0654075 0
    outer loop
      vertex 7 0 15
      vertex 6.94011 0.913683 -15
      vertex 6.94011 0.913683 15
    endloop
  endfacet
  facet normal 0.997859 0.0654075 0
    outer loop
      vertex 6.94011 0.913683 -15
      vertex 7 0 15
      vertex 7 0 -15
    endloop
  endfacet
  facet normal 0.980786 0.195088 0
    outer loop
      vertex 6.94011 0.913683 15
      vertex 6.76148 1.81173 -15
      vertex 6.76148 1.81173 15
    endloop
  endfacet
  facet normal 0.980786 0.195088 0
    outer loop
      vertex 6.76148 1.81173 -15
      vertex 6.94011 0.913683 15
      vertex 6.94011 0.913683 -15
    endloop
  endfacet
  facet normal 0.946931 0.321436 0
    outer loop
      vertex 6.76148 1.81173 15
      vertex 6.46716 2.67878 -15
      vertex 6.46716 2.67878 15
    endloop
  endfacet
  facet normal 0.946931 0.321436 0
    outer loop
      vertex 6.46716 2.67878 -15
      vertex 6.76148 1.81173 15
      vertex 6.76148 1.81173 -15
    endloop
  endfacet
  facet normal 0.896873 0.442288 0
    outer loop
      vertex 6.46716 2.67878 15
      vertex 6.06218 3.5 -15
      vertex 6.06218 3.5 15
    endloop
  endfacet
  facet normal 0.896873 0.442288 0
    outer loop
      vertex 6.06218 3.5 -15
      vertex 6.46716 2.67878 15
      vertex 6.46716 2.67878 -15
    endloop
  endfacet
  facet normal 0.831467 0.555574 0
    outer loop
      vertex 6.06218 3.5 15
      vertex 5.55347 4.26133 -15
      vertex 5.55347 4.26133 15
    endloop
  endfacet
  facet normal 0.831467 0.555574 0
    outer loop
      vertex 5.55347 4.26133 -15
      vertex 6.06218 3.5 15
      vertex 6.06218 3.5 -15
    endloop
  endfacet
  facet normal 0.751844 0.659341 0
    outer loop
      vertex 5.55347 4.26133 15
      vertex 4.94975 4.94975 -15
      vertex 4.94975 4.94975 15
    endloop
  endfacet
  facet normal 0.751844 0.659341 0
    outer loop
      vertex 4.94975 4.94975 -15
      vertex 5.55347 4.26133 15
      vertex 5.55347 4.26133 -15
    endloop
  endfacet
  facet normal 0.659341 0.751844 -0
    outer loop
      vertex 4.94975 4.94975 -15
      vertex 4.26133 5.55347 15
      vertex 4.94975 4.94975 15
    endloop
  endfacet
  facet normal 0.659341 0.751844 0
    outer loop
      vertex 4.26133 5.55347 15
      vertex 4.94975 4.94975 -15
      vertex 4.26133 5.55347 -15
    endloop
  endfacet
  facet normal 0.555574 0.831467 -0
    outer loop
      vertex 4.26133 5.55347 -15
      vertex 3.5 6.06218 15
      vertex 4.26133 5.55347 15
    endloop
  endfacet
  facet normal 0.555574 0.831467 0
    outer loop
      vertex 3.5 6.06218 15
      vertex 4.26133 5.55347 -15
      vertex 3.5 6.06218 -15
    endloop
  endfacet
  facet normal 0.442288 0.896873 -0
    outer loop
      vertex 3.5 6.06218 -15
      vertex 2.67878 6.46716 15
      vertex 3.5 6.06218 15
    endloop
  endfacet
  facet normal 0.442288 0.896873 0
    outer loop
      vertex 2.67878 6.46716 15
      vertex 3.5 6.06218 -15
      vertex 2.67878 6.46716 -15
    endloop
  endfacet
  facet normal 0.321436 0.946931 -0
    outer loop
      vertex 2.67878 6.46716 -15
      vertex 1.81173 6.76148 15
      vertex 2.67878 6.46716 15
    endloop
  endfacet
  facet normal 0.321436 0.946931 0
    outer loop
      vertex 1.81173 6.76148 15
      vertex 2.67878 6.46716 -15
      vertex 1.81173 6.76148 -15
    endloop
  endfacet
  facet normal 0.195088 0.980786 -0
    outer loop
      vertex 1.81173 6.76148 -15
      vertex 0.913683 6.94011 15
      vertex 1.81173 6.76148 15
    endloop
  endfacet
  facet normal 0.195088 0.980786 0
    outer loop
      vertex 0.913683 6.94011 15
      vertex 1.81173 6.76148 -15
      vertex 0.913683 6.94011 -15
    endloop
  endfacet
  facet normal 0.0654075 0.997859 -0
    outer loop
      vertex 0.913683 6.94011 -15
      vertex 0 7 15
      vertex 0.913683 6.94011 15
    endloop
  endfacet
  facet normal 0.0654075 0.997859 0
    outer loop
      vertex 0 7 15
      vertex 0.913683 6.94011 -15
      vertex 0 7 -15
    endloop
  endfacet
  facet normal -0.0654075 0.997859 0
    outer loop
      vertex 0 7 -15
      vertex -0.913683 6.94011 15
      vertex 0 7 15
    endloop
  endfacet
  facet normal -0.0654075 0.997859 0
    outer loop
      vertex -0.913683 6.94011 15
      vertex 0 7 -15
      vertex -0.913683 6.94011 -15
    endloop
  endfacet
  facet normal -0.195088 0.980786 0
    outer loop
      vertex -0.913683 6.94011 -15
      vertex -1.81173 6.76148 15
      vertex -0.913683 6.94011 15
    endloop
  endfacet
  facet normal -0.195088 0.980786 0
    outer loop
      vertex -1.81173 6.76148 15
      vertex -0.913683 6.94011 -15
      vertex -1.81173 6.76148 -15
    endloop
  endfacet
  facet normal -0.321436 0.946931 0
    outer loop
      vertex -1.81173 6.76148 -15
      vertex -2.67878 6.46716 15
      vertex -1.81173 6.76148 15
    endloop
  endfacet
  facet normal -0.321436 0.946931 0
    outer loop
      vertex -2.67878 6.46716 15
      vertex -1.81173 6.76148 -15
      vertex -2.67878 6.46716 -15
    endloop
  endfacet
  facet normal -0.442288 0.896873 0
    outer loop
      vertex -2.67878 6.46716 -15
      vertex -3.5 6.06218 15
      vertex -2.67878 6.46716 15
    endloop
  endfacet
  facet normal -0.442288 0.896873 0
    outer loop
      vertex -3.5 6.06218 15
      vertex -2.67878 6.46716 -15
      vertex -3.5 6.06218 -15
    endloop
  endfacet
  facet normal -0.555574 0.831467 0
    outer loop
      vertex -3.5 6.06218 -15
      vertex -4.26133 5.55347 15
      vertex -3.5 6.06218 15
    endloop
  endfacet
  facet normal -0.555574 0.831467 0
    outer loop
      vertex -4.26133 5.55347 15
      vertex -3.5 6.06218 -15
      vertex -4.26133 5.55347 -15
    endloop
  endfacet
  facet normal -0.659341 0.751844 0
    outer loop
      vertex -4.26133 5.55347 -15
      vertex -4.94975 4.94975 15
      vertex -4.26133 5.55347 15
    endloop
  endfacet
  facet normal -0.659341 0.751844 0
    outer loop
      vertex -4.94975 4.94975 15
      vertex -4.26133 5.55347 -15
      vertex -4.94975 4.94975 -15
    endloop
  endfacet
  facet normal -0.751844 0.659341 0
    outer loop
      vertex -5.55347 4.26133 -15
      vertex -4.94975 4.94975 15
      vertex -4.94975 4.94975 -15
    endloop
  endfacet
  facet normal -0.751844 0.659341 0
    outer loop
      vertex -4.94975 4.94975 15
      vertex -5.55347 4.26133 -15
      vertex -5.55347 4.26133 15
    endloop
  endfacet
  facet normal -0.831467 0.555574 0
    outer loop
      vertex -6.06218 3.5 -15
      vertex -5.55347 4.26133 15
      vertex -5.55347 4.26133 -15
    endloop
  endfacet
  facet normal -0.831467 0.555574 0
    outer loop
      vertex -5.55347 4.26133 15
      vertex -6.06218 3.5 -15
      vertex -6.06218 3.5 15
    endloop
  endfacet
  facet normal -0.896873 0.442288 0
    outer loop
      vertex -6.46716 2.67878 -15
      vertex -6.06218 3.5 15
      vertex -6.06218 3.5 -15
    endloop
  endfacet
  facet normal -0.896873 0.442288 0
    outer loop
      vertex -6.06218 3.5 15
      vertex -6.46716 2.67878 -15
      vertex -6.46716 2.67878 15
    endloop
  endfacet
  facet normal -0.946931 0.321436 0
    outer loop
      vertex -6.76148 1.81173 -15
      vertex -6.46716 2.67878 15
      vertex -6.46716 2.67878 -15
    endloop
  endfacet
  facet normal -0.946931 0.321436 0
    outer loop
      vertex -6.46716 2.67878 15
      vertex -6.76148 1.81173 -15
      vertex -6.76148 1.81173 15
    endloop
  endfacet
  facet normal -0.980786 0.195088 0
    outer loop
      vertex -6.94011 0.913683 -15
      vertex -6.76148 1.81173 15
      vertex -6.76148 1.81173 -15
    endloop
  endfacet
  facet normal -0.980786 0.195088 0
    outer loop
      vertex -6.76148 1.81173 15
      vertex -6.94011 0.913683 -15
      vertex -6.94011 0.913683 15
    endloop
  endfacet
  facet normal -0.997859 0.0654075 0
    outer loop
      vertex -7 -0 -15
      vertex -6.94011 0.913683 15
      vertex -6.94011 0.913683 -15
    endloop
  endfacet
  facet normal -0.997859 0.0654075 0
    outer loop
      vertex -6.94011 0.913683 15
      vertex -7 -0 -15
      vertex -7 -0 15
    endloop
  endfacet
  facet normal -0.997859 -0.0654075 0
    outer loop
      vertex -6.94011 -0.913683 -15
      vertex -7 -0 15
      vertex -7 -0 -15
    endloop
  endfacet
  facet normal -0.997859 -0.0654075 0
    outer loop
      vertex -7 -0 15
      vertex -6.94011 -0.913683 -15
      vertex -6.94011 -0.913683 15
    endloop
  endfacet
  facet normal -0.980786 -0.195088 0
    outer loop
      vertex -6.76148 -1.81173 -15
      vertex -6.94011 -0.913683 15
      vertex -6.94011 -0.913683 -15
    endloop
  endfacet
  facet normal -0.980786 -0.195088 0
    outer loop
      vertex -6.94011 -0.913683 15
      vertex -6.76148 -1.81173 -15
      vertex -6.76148 -1.81173 15
    endloop
  endfacet
  facet normal -0.946931 -0.321436 0
    outer loop
      vertex -6.46716 -2.67878 -15
      vertex -6.76148 -1.81173 15
      vertex -6.76148 -1.81173 -15
    endloop
  endfacet
  facet normal -0.946931 -0.321436 0
    outer loop
      vertex -6.76148 -1.81173 15
      vertex -6.46716 -2.67878 -15
      vertex -6.46716 -2.67878 15
    endloop
  endfacet
  facet normal -0.896873 -0.442288 0
    outer loop
      vertex -6.06218 -3.5 -15
      vertex -6.46716 -2.67878 15
      vertex -6.46716 -2.67878 -15
    endloop
  endfacet
  facet normal -0.896873 -0.442288 0
    outer loop
      vertex -6.46716 -2.67878 15
      vertex -6.06218 -3.5 -15
      vertex -6.06218 -3.5 15
    endloop
  endfacet
  facet normal -0.831467 -0.555574 0
    outer loop
      vertex -5.55347 -4.26133 -15
      vertex -6.06218 -3.5 15
      vertex -6.06218 -3.5 -15
    endloop
  endfacet
  facet normal -0.831467 -0.555574 0
    outer loop
      vertex -6.06218 -3.5 15
      vertex -5.55347 -4.26133 -15
      vertex -5.55347 -4.26133 15
    endloop
  endfacet
  facet normal -0.751844 -0.659341 0
    outer loop
      vertex -4.94975 -4.94975 -15
      vertex -5.55347 -4.26133 15
      vertex -5.55347 -4.26133 -15
    endloop
  endfacet
  facet normal -0.751844 -0.659341 0
    outer loop
      vertex -5.55347 -4.26133 15
      vertex -4.94975 -4.94975 -15
      vertex -4.94975 -4.94975 15
    endloop
  endfacet
  facet normal -0.659341 -0.751844 0
    outer loop
      vertex -4.94975 -4.94975 -15
      vertex -4.26133 -5.55347 15
      vertex -4.94975 -4.94975 15
    endloop
  endfacet
  facet normal -0.659341 -0.751844 -0
    outer loop
      vertex -4.26133 -5.55347 15
      vertex -4.94975 -4.94975 -15
      vertex -4.26133 -5.55347 -15
    endloop
  endfacet
  facet normal -0.555574 -0.831467 0
    outer loop
      vertex -4.26133 -5.55347 -15
      vertex -3.5 -6.06218 15
      vertex -4.26133 -5.55347 15
    endloop
  endfacet
  facet normal -0.555574 -0.831467 -0
    outer loop
      vertex -3.5 -6.06218 15
      vertex -4.26133 -5.55347 -15
      vertex -3.5 -6.06218 -15
    endloop
  endfacet
  facet normal -0.442288 -0.896873 0
    outer loop
      vertex -3.5 -6.06218 -15
      vertex -2.67878 -6.46716 15
      vertex -3.5 -6.06218 15
    endloop
  endfacet
  facet normal -0.442288 -0.896873 -0
    outer loop
      vertex -2.67878 -6.46716 15
      vertex -3.5 -6.06218 -15
      vertex -2.67878 -6.46716 -15
    endloop
  endfacet
  facet normal -0.321436 -0.946931 0
    outer loop
      vertex -2.67878 -6.46716 -15
      vertex -1.81173 -6.76148 15
      vertex -2.67878 -6.46716 15
    endloop
  endfacet
  facet normal -0.321436 -0.946931 -0
    outer loop
      vertex -1.81173 -6.76148 15
      vertex -2.67878 -6.46716 -15
      vertex -1.81173 -6.76148 -15
    endloop
  endfacet
  facet normal -0.195088 -0.980786 0
    outer loop
      vertex -1.81173 -6.76148 -15
      vertex -0.913683 -6.94011 15
      vertex -1.81173 -6.76148 15
    endloop
  endfacet
  facet normal -0.195088 -0.980786 -0
    outer loop
      vertex -0.913683 -6.94011 15
      vertex -1.81173 -6.76148 -15
      vertex -0.913683 -6.94011 -15
    endloop
  endfacet
  facet normal -0.0654075 -0.997859 0
    outer loop
      vertex -0.913683 -6.94011 -15
      vertex -0 -7 15
      vertex -0.913683 -6.94011 15
    endloop
  endfacet
  facet normal -0.0654075 -0.997859 -0
    outer loop
      vertex -0 -7 15
      vertex -0.913683 -6.94011 -15
      vertex -0 -7 -15
    endloop
  endfacet
  facet normal 0.0654075 -0.997859 0
    outer loop
      vertex -0 -7 -15
      vertex 0.913683 -6.94011 15
      vertex -0 -7 15
    endloop
  endfacet
  facet normal 0.0654075 -0.997859 0
    outer loop
      vertex 0.913683 -6.94011 15
      vertex -0 -7 -15
      vertex 0.913683 -6.94011 -15
    endloop
  endfacet
  facet normal 0.195088 -0.980786 0
    outer loop
      vertex 0.913683 -6.94011 -15
      vertex 1.81173 -6.76148 15
      vertex 0.913683 -6.94011 15
    endloop
  endfacet
  facet normal 0.195088 -0.980786 0
    outer loop
      vertex 1.81173 -6.76148 15
      vertex 0.913683 -6.94011 -15
      vertex 1.81173 -6.76148 -15
    endloop
  endfacet
  facet normal 0.321436 -0.946931 0
    outer loop
      vertex 1.81173 -6.76148 -15
      vertex 2.67878 -6.46716 15
      vertex 1.81173 -6.76148 15
    endloop
  endfacet
  facet normal 0.321436 -0.946931 0
    outer loop
      vertex 2.67878 -6.46716 15
      vertex 1.81173 -6.76148 -15
      vertex 2.67878 -6.46716 -15
    endloop
  endfacet
  facet normal 0.442288 -0.896873 0
    outer loop
      vertex 2.67878 -6.46716 -15
      vertex 3.5 -6.06218 15
      vertex 2.67878 -6.46716 15
    endloop
  endfacet
  facet normal 0.442288 -0.896873 0
    outer loop
      vertex 3.5 -6.06218 15
      vertex 2.67878 -6.46716 -15
      vertex 3.5 -6.06218 -15
    endloop
  endfacet
  facet normal 0.555574 -0.831467 0
    outer loop
      vertex 3.5 -6.06218 -15
      vertex 4.26133 -5.55347 15
      vertex 3.5 -6.06218 15
    endloop
  endfacet
  facet normal 0.555574 -0.831467 0
    outer loop
      vertex 4.26133 -5.55347 15
      vertex 3.5 -6.06218 -15
      vertex 4.26133 -5.55347 -15
    endloop
  endfacet
  facet normal 0.659341 -0.751844 0
    outer loop
      vertex 4.26133 -5.55347 -15
      vertex 4.94975 -4.94975 15
      vertex 4.26133 -5.55347 15
    endloop
  endfacet
  facet normal 0.659341 -0.751844 0
    outer loop
      vertex 4.94975 -4.94975 15
      vertex 4.26133 -5.55347 -15
      vertex 4.94975 -4.94975 -15
    endloop
  endfacet
  facet normal 0.751844 -0.659341 0
    outer loop
      vertex 4.94975 -4.94975 15
      vertex 5.55347 -4.26133 -15
      vertex 5.55347 -4.26133 15
    endloop
  endfacet
  facet normal 0.751844 -0.659341 0
    outer loop
      vertex 5.55347 -4.26133 -15
      vertex 4.94975 -4.94975 15
      vertex 4.94975 -4.94975 -15
    endloop
  endfacet
  facet normal 0.831467 -0.555574 0
    outer loop
      vertex 5.55347 -4.26133 15
      vertex 6.06218 -3.5 -15
      vertex 6.06218 -3.5 15
    endloop
  endfacet
  facet normal 0.831467 -0.555574 0
    outer loop
      vertex 6.06218 -3.5 -15
      vertex 5.55347 -4.26133 15
      vertex 5.55347 -4.26133 -15
    endloop
  endfacet
  facet normal 0.896873 -0.442288 0
    outer loop
      vertex 6.06218 -3.5 15
      vertex 6.46716 -2.67878 -15
      vertex 6.46716 -2.67878 15
    endloop
  endfacet
  facet normal 0.896873 -0.442288 0
    outer loop
      vertex 6.46716 -2.67878 -15
      vertex 6.06218 -3.5 15
      vertex 6.06218 -3.5 -15
    endloop
  endfacet
  facet normal 0.946931 -0.321436 0
    outer loop
      vertex 6.46716 -2.67878 15
      vertex 6.76148 -1.81173 -15
      vertex 6.76148 -1.81173 15
    endloop
  endfacet
  facet normal 0.946931 -0.321436 0
    outer loop
      vertex 6.76148 -1.81173 -15
      vertex 6.46716 -2.67878 15
      vertex 6.46716 -2.67878 -15
    endloop
  endfacet
  facet normal 0.980786 -0.195088 0
    outer loop
      vertex 6.76148 -1.81173 15
      vertex 6.94011 -0.913683 -15
      vertex 6.94011 -0.913683 15
    endloop
  endfacet
  facet normal 0.980786 -0.195088 0
    outer loop
      vertex 6.94011 -0.913683 -15
      vertex 6.76148 -1.81173 15
      vertex 6.76148 -1.81173 -15
    endloop
  endfacet
  facet normal 0.997859 -0.0654075 0
    outer loop
      vertex 6.94011 -0.913683 15
      vertex 7 0 -15
      vertex 7 0 15
    endloop
  endfacet
  facet normal 0.997859 -0.0654075 0
    outer loop
      vertex 7 0 -15
      vertex 6.94011 -0.913683 15
      vertex 6.94011 -0.913683 -15
    endloop
  endfacet
  facet normal 0 0 -1
    outer loop
      vertex 6.94011 -0.913683 -15
      vertex 6.94011 0.913683 -15
      vertex 7 0 -15
    endloop
  endfacet
  facet normal 0 0 -1
    outer loop
      vertex 6.76148 -1.81173 -15
      vertex 6.94011 0.913683 -15
      vertex 6.94011 -0.913683 -15
    endloop
  endfacet
  facet normal 0 0 -1
    outer loop
      vertex 6.76148 -1.81173 -15
      vertex 6.76148 1.81173 -15
      vertex 6.94011 0.913683 -15
    endloop
  endfacet
  facet normal 0 0 -1
    outer loop
      vertex 6.46716 -2.67878 -15
      vertex 6.76148 1.81173 -15
      vertex 6.76148 -1.81173 -15
    endloop
  endfacet
  facet normal 0 0 -1
    outer loop
      vertex 6.46716 -2.67878 -15
      vertex 6.46716 2.67878 -15
      vertex 6.76148 1.81173 -15
    endloop
  endfacet
  facet normal 0 0 -1
    outer loop
      vertex 6.06218 -3.5 -15
      vertex 6.46716 2.67878 -15
      vertex 6.46716 -2.67878 -15
    endloop
  endfacet
  facet normal 0 0 -1
    outer loop
      vertex 6.06218 -3.5 -15
      vertex 6.06218 3.5 -15
      vertex 6.46716 2.67878 -15
    endloop
  endfacet
  facet normal 0 0 -1
    outer loop
      vertex 5.55347 -4.26133 -15
      vertex 6.06218 3.5 -15
      vertex 6.06218 -3.5 -15
    endloop
  endfacet
  facet normal 0 0 -1
    outer loop
      vertex 5.55347 -4.26133 -15
      vertex 5.55347 4.26133 -15
      vertex 6.06218 3.5 -15
    endloop
  endfacet
  facet normal 0 0 -1
    outer loop
      vertex 4.94975 -4.94975 -15
      vertex 5.55347 4.26133 -15
      vertex 5.55347 -4.26133 -15
    endloop
  endfacet
  facet normal 0 0 -1
    outer loop
      vertex 4.94975 -4.94975 -15
      vertex 4.94975 4.94975 -15
      vertex 5.55347 4.26133 -15
    endloop
  endfacet
  facet normal 0 0 -1
    outer loop
      vertex 4.26133 -5.55347 -15
      vertex 4.94975 4.94975 -15
      vertex 4.94975 -4.94975 -15
    endloop
  endfacet
  facet normal 0 0 -1
    outer loop
      vertex 4.26133 -5.55347 -15
      vertex 4.26133 5.55347 -15
      vertex 4.94975 4.94975 -15
    endloop
  endfacet
  facet normal 0 0 -1
    outer loop
      vertex 3.5 -6.06218 -15
      vertex 4.26133 5.55347 -15
      vertex 4.26133 -5.55347 -15
    endloop
  endfacet
  facet normal 0 0 -1
    outer loop
      vertex 3.5 -6.06218 -15
      vertex 3.5 6.06218 -15
      vertex 4.26133 5.55347 -15
    endloop
  endfacet
  facet normal 0 0 -1
    outer loop
      vertex 2.67878 -6.46716 -15
      vertex 3.5 6.06218 -15
      vertex 3.5 -6.06218 -15
    endloop
  endfacet
  facet normal 0 0 -1
    outer loop
      vertex 2.67878 -6.46716 -15
      vertex 2.67878 6.46716 -15
      vertex 3.5 6.06218 -15
    endloop
  endfacet
  facet normal 0 0 -1
    outer loop
      vertex 1.81173 -6.76148 -15
      vertex 2.67878 6.46716 -15
      vertex 2.67878 -6.46716 -15
    endloop
  endfacet
  facet normal 0 0 -1
    outer loop
      vertex 1.81173 -6.76148 -15
      vertex 1.81173 6.76148 -15
      vertex 2.67878 6.46716 -15
    endloop
  endfacet
  facet normal 0 0 -1
    outer loop
      vertex 0.913683 -6.94011 -15
      vertex 1.81173 6.76148 -15
      vertex 1.81173 -6.76148 -15
    endloop
  endfacet
  facet normal 0 0 -1
    outer loop
      vertex 0.913683 -6.94011 -15
      vertex 0.913683 6.94011 -15
      vertex 1.81173 6.76148 -15
    endloop
  endfacet
  facet normal 0 0 -1
    outer loop
      vertex -0 -7 -15
      vertex 0.913683 6.94011 -15
      vertex 0.913683 -6.94011 -15
    endloop
  endfacet
  facet normal 0 0 -1
    outer loop
      vertex -0 -7 -15
      vertex 0 7 -15
      vertex 0.913683 6.94011 -15
    endloop
  endfacet
  facet normal 0 0 -1
    outer loop
      vertex -0.913683 -6.94011 -15
      vertex 0 7 -15
      vertex -0 -7 -15
    endloop
  endfacet
  facet normal 0 0 -1
    outer loop
      vertex -0.913683 -6.94011 -15
      vertex -0.913683 6.94011 -15
      vertex 0 7 -15
    endloop
  endfacet
  facet normal 0 0 -1
    outer loop
      vertex -1.81173 -6.76148 -15
      vertex -0.913683 6.94011 -15
      vertex -0.913683 -6.94011 -15
    endloop
  endfacet
  facet normal 0 0 -1
    outer loop
      vertex -1.81173 -6.76148 -15
      vertex -1.81173 6.76148 -15
      vertex -0.913683 6.94011 -15
    endloop
  endfacet
  facet normal 0 0 -1
    outer loop
      vertex -2.67878 -6.46716 -15
      vertex -1.81173 6.76148 -15
      vertex -1.81173 -6.76148 -15
    endloop
  endfacet
  facet normal 0 0 -1
    outer loop
      vertex -2.67878 -6.46716 -15
      vertex -2.67878 6.46716 -15
      vertex -1.81173 6.76148 -15
    endloop
  endfacet
  facet normal 0 0 -1
    outer loop
      vertex -3.5 -6.06218 -15
      vertex -2.67878 6.46716 -15
      vertex -2.67878 -6.46716 -15
    endloop
  endfacet
  facet normal 0 0 -1
    outer loop
      vertex -3.5 -6.06218 -15
      vertex -3.5 6.06218 -15
      vertex -2.67878 6.46716 -15
    endloop
  endfacet
  facet normal 0 0 -1
    outer loop
      vertex -4.26133 -5.55347 -15
      vertex -3.5 6.06218 -15
      vertex -3.5 -6.06218 -15
    endloop
  endfacet
  facet normal 0 0 -1
    outer loop
      vertex -4.26133 -5.55347 -15
      vertex -4.26133 5.55347 -15
      vertex -3.5 6.06218 -15
    endloop
  endfacet
  facet normal 0 0 -1
    outer loop
      vertex -4.94975 -4.94975 -15
      vertex -4.26133 5.55347 -15
      vertex -4.26133 -5.55347 -15
    endloop
  endfacet
  facet normal 0 0 -1
    outer loop
      vertex -4.94975 -4.94975 -15
      vertex -4.94975 4.94975 -15
      vertex -4.26133 5.55347 -15
    endloop
  endfacet
  facet normal 0 0 -1
    outer loop
      vertex -5.55347 -4.26133 -15
      vertex -4.94975 4.94975 -15
      vertex -4.94975 -4.94975 -15
    endloop
  endfacet
  facet normal 0 0 -1
    outer loop
      vertex -5.55347 -4.26133 -15
      vertex -5.55347 4.26133 -15
      vertex -4.94975 4.94975 -15
    endloop
  endfacet
  facet normal 0 0 -1
    outer loop
      vertex -6.06218 -3.5 -15
      vertex -5.55347 4.26133 -15
      vertex -5.55347 -4.26133 -15
    endloop
  endfacet
  facet normal 0 0 -1
    outer loop
      vertex -6.06218 -3.5 -15
      vertex -6.06218 3.5 -15
      vertex -5.55347 4.26133 -15
    endloop
  endfacet
  facet normal 0 0 -1
    outer loop
      vertex -6.46716 -2.67878 -15
      vertex -6.06218 3.5 -15
      vertex -6.06218 -3.5 -15
    endloop
  endfacet
  facet normal 0 0 -1
    outer loop
      vertex -6.46716 -2.67878 -15
      vertex -6.46716 2.67878 -15
      vertex -6.06218 3.5 -15
    endloop
  endfacet
  facet normal 0 0 -1
    outer loop
      vertex -6.76148 -1.81173 -15
      vertex -6.46716 2.67878 -15
      vertex -6.46716 -2.67878 -15
    endloop
  endfacet
  facet normal 0 0 -1
    outer loop
      vertex -6.76148 -1.81173 -15
      vertex -6.76148 1.81173 -15
      vertex -6.46716 2.67878 -15
    endloop
  endfacet
  facet normal 0 0 -1
    outer loop
      vertex -6.94011 -0.913683 -15
      vertex -6.76148 1.81173 -15
      vertex -6.76148 -1.81173 -15
    endloop
  endfacet
  facet normal 0 0 -1
    outer loop
      vertex -6.94011 -0.913683 -15
      vertex -6.94011 0.913683 -15
      vertex -6.76148 1.81173 -15
    endloop
  endfacet
  facet normal 0 -0 -1
    outer loop
      vertex -6.94011 0.913683 -15
      vertex -6.94011 -0.913683 -15
      vertex -7 -0 -15
    endloop
  endfacet
  facet normal 0 0 1
    outer loop
      vertex 6.94011 0.913683 15
      vertex 6.94011 -0.913683 15
      vertex 7 0 15
    endloop
  endfacet
  facet normal 0 0 1
    outer loop
      vertex 6.76148 1.81173 15
      vertex 6.94011 -0.913683 15
      vertex 6.94011 0.913683 15
    endloop
  endfacet
  facet normal 0 0 1
    outer loop
      vertex 6.76148 1.81173 15
      vertex 6.76148 -1.81173 15
      vertex 6.94011 -0.913683 15
    endloop
  endfacet
  facet normal 0 0 1
    outer loop
      vertex 6.46716 2.67878 15
      vertex 6.76148 -1.81173 15
      vertex 6.76148 1.81173 15
    endloop
  endfacet
  facet normal 0 0 1
    outer loop
      vertex 6.46716 2.67878 15
      vertex 6.46716 -2.67878 15
      vertex 6.76148 -1.81173 15
    endloop
  endfacet
  facet normal 0 0 1
    outer loop
      vertex 6.06218 3.5 15
      vertex 6.46716 -2.67878 15
      vertex 6.46716 2.67878 15
    endloop
  endfacet
  facet normal 0 0 1
    outer loop
      vertex 6.06218 3.5 15
      vertex 6.06218 -3.5 15
      vertex 6.46716 -2.67878 15
    endloop
  endfacet
  facet normal 0 0 1
    outer loop
      vertex 5.55347 4.26133 15
      vertex 6.06218 -3.5 15
      vertex 6.06218 3.5 15
    endloop
  endfacet
  facet normal 0 0 1
    outer loop
      vertex 5.55347 4.26133 15
      vertex 5.55347 -4.26133 15
      vertex 6.06218 -3.5 15
    endloop
  endfacet
  facet normal 0 0 1
    outer loop
      vertex 4.94975 4.94975 15
      vertex 5.55347 -4.26133 15
      vertex 5.55347 4.26133 15
    endloop
  endfacet
  facet normal 0 0 1
    outer loop
      vertex 4.94975 4.94975 15
      vertex 4.94975 -4.94975 15
      vertex 5.55347 -4.26133 15
    endloop
  endfacet
  facet normal 0 0 1
    outer loop
      vertex 4.26133 5.55347 15
      vertex 4.94975 -4.94975 15
      vertex 4.94975 4.94975 15
    endloop
  endfacet
  facet normal 0 0 1
    outer loop
      vertex 4.26133 5.55347 15
      vertex 4.26133 -5.55347 15
      vertex 4.94975 -4.94975 15
    endloop
  endfacet
  facet normal 0 0 1
    outer loop
      vertex 3.5 6.06218 15
      vertex 4.26133 -5.55347 15
      vertex 4.26133 5.55347 15
    endloop
  endfacet
  facet normal 0 0 1
    outer loop
      vertex 3.5 6.06218 15
      vertex 3.5 -6.06218 15
      vertex 4.26133 -5.55347 15
    endloop
  endfacet
  facet normal 0 0 1
    outer loop
      vertex 2.67878 6.46716 15
      vertex 3.5 -6.06218 15
      vertex 3.5 6.06218 15
    endloop
  endfacet
  facet normal 0 0 1
    outer loop
      vertex 2.67878 6.46716 15
      vertex 2.67878 -6.46716 15
      vertex 3.5 -6.06218 15
    endloop
  endfacet
  facet normal 0 0 1
    outer loop
      vertex 1.81173 6.76148 15
      vertex 2.67878 -6.46716 15
      vertex 2.67878 6.46716 15
    endloop
  endfacet
  facet normal 0 0 1
    outer loop
      vertex 1.81173 6.76148 15
      vertex 1.81173 -6.76148 15
      vertex 2.67878 -6.46716 15
    endloop
  endfacet
  facet normal 0 0 1
    outer loop
      vertex 0.913683 6.94011 15
      vertex 1.81173 -6.76148 15
      vertex 1.81173 6.76148 15
    endloop
  endfacet
  facet normal 0 0 1
    outer loop
      vertex 0.913683 6.94011 15
      vertex 0.913683 -6.94011 15
      vertex 1.81173 -6.76148 15
    endloop
  endfacet
  facet normal 0 0 1
    outer loop
      vertex 0 7 15
      vertex 0.913683 -6.94011 15
      vertex 0.913683 6.94011 15
    endloop
  endfacet
  facet normal 0 0 1
    outer loop
      vertex 0 7 15
      vertex -0 -7 15
      vertex 0.913683 -6.94011 15
    endloop
  endfacet
  facet normal -0 0 1
    outer loop
      vertex -0.913683 6.94011 15
      vertex -0 -7 15
      vertex 0 7 15
    endloop
  endfacet
  facet normal 0 0 1
    outer loop
      vertex -0.913683 6.94011 15
      vertex -0.913683 -6.94011 15
      vertex -0 -7 15
    endloop
  endfacet
  facet normal -0 0 1
    outer loop
      vertex -1.81173 6.76148 15
      vertex -0.913683 -6.94011 15
      vertex -0.913683 6.94011 15
    endloop
  endfacet
  facet normal 0 0 1
    outer loop
      vertex -1.81173 6.76148 15
      vertex -1.81173 -6.76148 15
      vertex -0.913683 -6.94011 15
    endloop
  endfacet
  facet normal -0 0 1
    outer loop
      vertex -2.67878 6.46716 15
      vertex -1.81173 -6.76148 15
      vertex -1.81173 6.76148 15
    endloop
  endfacet
  facet normal 0 0 1
    outer loop
      vertex -2.67878 6.46716 15
      vertex -2.67878 -6.46716 15
      vertex -1.81173 -6.76148 15
    endloop
  endfacet
  facet normal -0 0 1
    outer loop
      vertex -3.5 6.06218 15
      vertex -2.67878 -6.46716 15
      vertex -2.67878 6.46716 15
    endloop
  endfacet
  facet normal 0 0 1
    outer loop
      vertex -3.5 6.06218 15
      vertex -3.5 -6.06218 15
      vertex -2.67878 -6.46716 15
    endloop
  endfacet
  facet normal -0 0 1
    outer loop
      vertex -4.26133 5.55347 15
      vertex -3.5 -6.06218 15
      vertex -3.5 6.06218 15
    endloop
  endfacet
  facet normal 0 0 1
    outer loop
      vertex -4.26133 5.55347 15
      vertex -4.26133 -5.55347 15
      vertex -3.5 -6.06218 15
    endloop
  endfacet
  facet normal -0 0 1
    outer loop
      vertex -4.94975 4.94975 15
      vertex -4.26133 -5.55347 15
      vertex -4.26133 5.55347 15
    endloop
  endfacet
  facet normal 0 0 1
    outer loop
      vertex -4.94975 4.94975 15
      vertex -4.94975 -4.94975 15
      vertex -4.26133 -5.55347 15
    endloop
  endfacet
  facet normal -0 0 1
    outer loop
      vertex -5.55347 4.26133 15
      vertex -4.94975 -4.94975 15
      vertex -4.94975 4.94975 15
    endloop
  endfacet
  facet normal 0 0 1
    outer loop
      vertex -5.55347 4.26133 15
      vertex -5.55347 -4.26133 15
      vertex -4.94975 -4.94975 15
    endloop
  endfacet
  facet normal -0 0 1
    outer loop
      vertex -6.06218 3.5 15
      vertex -5.55347 -4.26133 15
      vertex -5.55347 4.26133 15
    endloop
  endfacet
  facet normal 0 0 1
    outer loop
      vertex -6.06218 3.5 15
      vertex -6.06218 -3.5 15
      vertex -5.55347 -4.26133 15
    endloop
  endfacet
  facet normal -0 0 1
    outer loop
      vertex -6.46716 2.67878 15
      vertex -6.06218 -3.5 15
      vertex -6.06218 3.5 15
    endloop
  endfacet
  facet normal 0 0 1
    outer loop
      vertex -6.46716 2.67878 15
      vertex -6.46716 -2.67878 15
      vertex -6.06218 -3.5 15
    endloop
  endfacet
  facet normal -0 0 1
    outer loop
      vertex -6.76148 1.81173 15
      vertex -6.46716 -2.67878 15
      vertex -6.46716 2.67878 15
    endloop
  endfacet
  facet normal 0 0 1
    outer loop
      vertex -6.76148 1.81173 15
      vertex -6.76148 -1.81173 15
      vertex -6.46716 -2.67878 15
    endloop
  endfacet
  facet normal -0 0 1
    outer loop
      vertex -6.94011 0.913683 15
      vertex -6.76148 -1.81173 15
      vertex -6.76148 1.81173 15
    endloop
  endfacet
  facet normal 0 0 1
    outer loop
      vertex -6.94011 0.913683 15
      vertex -6.94011 -0.913683 15
      vertex -6.76148 -1.81173 15
    endloop
  endfacet
  facet normal 0 -0 1
    outer loop
      vertex -6.94011 -0.913683 15
      vertex -6.94011 0.913683 15
      vertex -7 -0 15
    endloop
  endfacet
endsolid OpenSCAD_Model
