solid OpenSCAD_Model
  facet normal 1 -0 0
    outer loop
      vertex 80 -40 30
      vertex 80 40 -30
      vertex 80 40 30
    endloop
  endfacet
  facet normal 1 0 0
    outer loop
      vertex 80 40 -30
      vertex 80 -40 30
      vertex 80 -40 -30
    endloop
  endfacet
  facet normal 0 0 1
    outer loop
      vertex 80 40 30
      vertex 79 39 30
      vertex 80 -40 30
    endloop
  endfacet
  facet normal 0 0 1
    outer loop
      vertex 80 40 30
      vertex -79 39 30
      vertex 79 39 30
    endloop
  endfacet
  facet normal 0 0 1
    outer loop
      vertex -79 39 30
      vertex -80 40 30
      vertex -79 -39 30
    endloop
  endfacet
  facet normal -0 0 1
    outer loop
      vertex -80 40 30
      vertex -79 39 30
      vertex 80 40 30
    endloop
  endfacet
  facet normal -0 0 1
    outer loop
      vertex 79 -39 30
      vertex 80 -40 30
      vertex 79 39 30
    endloop
  endfacet
  facet normal -0 0 1
    outer loop
      vertex -79 -39 30
      vertex 80 -40 30
      vertex 79 -39 30
    endloop
  endfacet
  facet normal 0 0 1
    outer loop
      vertex -79 -39 30
      vertex -80 -40 30
      vertex 80 -40 30
    endloop
  endfacet
  facet normal 0 0 1
    outer loop
      vertex -80 -40 30
      vertex -79 -39 30
      vertex -80 40 30
    endloop
  endfacet
  facet normal 0 0 -1
    outer loop
      vertex -80 -40 -30
      vertex 80 40 -30
      vertex 80 -40 -30
    endloop
  endfacet
  facet normal -0 0 -1
    outer loop
      vertex 80 40 -30
      vertex -80 -40 -30
      vertex -80 40 -30
    endloop
  endfacet
  facet normal -1 0 0
    outer loop
      vertex -80 -40 -30
      vertex -80 40 30
      vertex -80 40 -30
    endloop
  endfacet
  facet normal -1 -0 0
    outer loop
      vertex -80 40 30
      vertex -80 -40 -30
      vertex -80 -40 30
    endloop
  endfacet
  facet normal 0 1 -0
    outer loop
      vertex 80 40 -30
      vertex -80 40 30
      vertex 80 40 30
    endloop
  endfacet
  facet normal 0 1 0
    outer loop
      vertex -80 40 30
      vertex 80 40 -30
      vertex -80 40 -30
    endloop
  endfacet
  facet normal 0 -1 0
    outer loop
      vertex -80 -40 -30
      vertex 80 -40 30
      vertex -80 -40 30
    endloop
  endfacet
  facet normal 0 -1 -0
    outer loop
      vertex 80 -40 30
      vertex -80 -40 -30
      vertex 80 -40 -30
    endloop
  endfacet
  facet normal -1 0 0
    outer loop
      vertex 79 -39 -29
      vertex 79 39 30
      vertex 79 39 -29
    endloop
  endfacet
  facet normal -1 -0 0
    outer loop
      vertex 79 39 30
      vertex 79 -39 -29
      vertex 79 -39 30
    endloop
  endfacet
  facet normal -0 0 1
    outer loop
      vertex -79 39 -29
      vertex 79 -39 -29
      vertex 79 39 -29
    endloop
  endfacet
  facet normal 0 0 1
    outer loop
      vertex 79 -39 -29
      vertex -79 39 -29
      vertex -79 -39 -29
    endloop
  endfacet
  facet normal 1 -0 0
    outer loop
      vertex -79 -39 30
      vertex -79 39 -29
      vertex -79 39 30
    endloop
  endfacet
  facet normal 1 0 0
    outer loop
      vertex -79 39 -29
      vertex -79 -39 30
      vertex -79 -39 -29
    endloop
  endfacet
  facet normal 0 -1 0
    outer loop
      vertex -79 39 -29
      vertex 79 39 30
      vertex -79 39 30
    endloop
  endfacet
  facet normal 0 -1 -0
    outer loop
      vertex 79 39 30
      vertex -79 39 -29
      vertex 79 39 -29
    endloop
  endfacet
  facet normal 0 1 -0
    outer loop
      vertex 79 -39 -29
      vertex -79 -39 30
      vertex 79 -39 30
    endloop
  endfacet
  facet normal 0 1 0
    outer loop
      vertex -79 -39 30
      vertex 79 -39 -29
      vertex -79 -39 -29
    endloop
  endfacet
endsolid OpenSCAD_Model
