solid OpenSCAD_Model
  facet normal 0.997858 0.0654097 0
    outer loop
      vertex 50 0 65
      vertex 49.5722 6.52631 -65
      vertex 49.5722 6.52631 65
    endloop
  endfacet
  facet normal 0.997858 0.0654097 0
    outer loop
      vertex 49.5722 6.52631 -65
      vertex 50 0 65
      vertex 50 0 -65
    endloop
  endfacet
  facet normal 0.980787 0.195081 0
    outer loop
      vertex 49.5722 6.52631 65
      vertex 48.2963 12.941 -65
      vertex 48.2963 12.941 65
    endloop
  endfacet
  facet normal 0.980787 0.195081 0
    outer loop
      vertex 48.2963 12.941 -65
      vertex 49.5722 6.52631 65
      vertex 49.5722 6.52631 -65
    endloop
  endfacet
  facet normal 0.946931 0.321438 0
    outer loop
      vertex 48.2963 12.941 65
      vertex 46.194 19.1342 -65
      vertex 46.194 19.1342 65
    endloop
  endfacet
  facet normal 0.946931 0.321438 0
    outer loop
      vertex 46.194 19.1342 -65
      vertex 48.2963 12.941 65
      vertex 48.2963 12.941 -65
    endloop
  endfacet
  facet normal 0.896872 0.44229 0
    outer loop
      vertex 46.194 19.1342 65
      vertex 43.3013 25 -65
      vertex 43.3013 25 65
    endloop
  endfacet
  facet normal 0.896872 0.44229 0
    outer loop
      vertex 43.3013 25 -65
      vertex 46.194 19.1342 65
      vertex 46.194 19.1342 -65
    endloop
  endfacet
  facet normal 0.831471 0.555568 0
    outer loop
      vertex 43.3013 25 65
      vertex 39.6677 30.4381 -65
      vertex 39.6677 30.4381 65
    endloop
  endfacet
  facet normal 0.831471 0.555568 0
    outer loop
      vertex 39.6677 30.4381 -65
      vertex 43.3013 25 65
      vertex 43.3013 25 -65
    endloop
  endfacet
  facet normal 0.75183 0.659357 0
    outer loop
      vertex 39.6677 30.4381 65
      vertex 35.3553 35.3553 -65
      vertex 35.3553 35.3553 65
    endloop
  endfacet
  facet normal 0.75183 0.659357 0
    outer loop
      vertex 35.3553 35.3553 -65
      vertex 39.6677 30.4381 65
      vertex 39.6677 30.4381 -65
    endloop
  endfacet
  facet normal 0.659357 0.75183 -0
    outer loop
      vertex 35.3553 35.3553 -65
      vertex 30.4381 39.6677 65
      vertex 35.3553 35.3553 65
    endloop
  endfacet
  facet normal 0.659357 0.75183 0
    outer loop
      vertex 30.4381 39.6677 65
      vertex 35.3553 35.3553 -65
      vertex 30.4381 39.6677 -65
    endloop
  endfacet
  facet normal 0.555568 0.831471 -0
    outer loop
      vertex 30.4381 39.6677 -65
      vertex 25 43.3013 65
      vertex 30.4381 39.6677 65
    endloop
  endfacet
  facet normal 0.555568 0.831471 0
    outer loop
      vertex 25 43.3013 65
      vertex 30.4381 39.6677 -65
      vertex 25 43.3013 -65
    endloop
  endfacet
  facet normal 0.44229 0.896872 -0
    outer loop
      vertex 25 43.3013 -65
      vertex 19.1342 46.194 65
      vertex 25 43.3013 65
    endloop
  endfacet
  facet normal 0.44229 0.896872 0
    outer loop
      vertex 19.1342 46.194 65
      vertex 25 43.3013 -65
      vertex 19.1342 46.194 -65
    endloop
  endfacet
  facet normal 0.321438 0.946931 -0
    outer loop
      vertex 19.1342 46.194 -65
      vertex 12.941 48.2963 65
      vertex 19.1342 46.194 65
    endloop
  endfacet
  facet normal 0.321438 0.946931 0
    outer loop
      vertex 12.941 48.2963 65
      vertex 19.1342 46.194 -65
      vertex 12.941 48.2963 -65
    endloop
  endfacet
  facet normal 0.195081 0.980787 -0
    outer loop
      vertex 12.941 48.2963 -65
      vertex 6.52631 49.5722 65
      vertex 12.941 48.2963 65
    endloop
  endfacet
  facet normal 0.195081 0.980787 0
    outer loop
      vertex 6.52631 49.5722 65
      vertex 12.941 48.2963 -65
      vertex 6.52631 49.5722 -65
    endloop
  endfacet
  facet normal 0.0654097 0.997858 -0
    outer loop
      vertex 6.52631 49.5722 -65
      vertex 0 50 65
      vertex 6.52631 49.5722 65
    endloop
  endfacet
  facet normal 0.0654097 0.997858 0
    outer loop
      vertex 0 50 65
      vertex 6.52631 49.5722 -65
      vertex 0 50 -65
    endloop
  endfacet
  facet normal -0.0654097 0.997858 0
    outer loop
      vertex 0 50 -65
      vertex -6.52631 49.5722 65
      vertex 0 50 65
    endloop
  endfacet
  facet normal -0.0654097 0.997858 0
    outer loop
      vertex -6.52631 49.5722 65
      vertex 0 50 -65
      vertex -6.52631 49.5722 -65
    endloop
  endfacet
  facet normal -0.195081 0.980787 0
    outer loop
      vertex -6.52631 49.5722 -65
      vertex -12.941 48.2963 65
      vertex -6.52631 49.5722 65
    endloop
  endfacet
  facet normal -0.195081 0.980787 0
    outer loop
      vertex -12.941 48.2963 65
      vertex -6.52631 49.5722 -65
      vertex -12.941 48.2963 -65
    endloop
  endfacet
  facet normal -0.321438 0.946931 0
    outer loop
      vertex -12.941 48.2963 -65
      vertex -19.1342 46.194 65
      vertex -12.941 48.2963 65
    endloop
  endfacet
  facet normal -0.321438 0.946931 0
    outer loop
      vertex -19.1342 46.194 65
      vertex -12.941 48.2963 -65
      vertex -19.1342 46.194 -65
    endloop
  endfacet
  facet normal -0.44229 0.896872 0
    outer loop
      vertex -19.1342 46.194 -65
      vertex -25 43.3013 65
      vertex -19.1342 46.194 65
    endloop
  endfacet
  facet normal -0.44229 0.896872 0
    outer loop
      vertex -25 43.3013 65
      vertex -19.1342 46.194 -65
      vertex -25 43.3013 -65
    endloop
  endfacet
  facet normal -0.555568 0.831471 0
    outer loop
      vertex -25 43.3013 -65
      vertex -30.4381 39.6677 65
      vertex -25 43.3013 65
    endloop
  endfacet
  facet normal -0.555568 0.831471 0
    outer loop
      vertex -30.4381 39.6677 65
      vertex -25 43.3013 -65
      vertex -30.4381 39.6677 -65
    endloop
  endfacet
  facet normal -0.659357 0.75183 0
    outer loop
      vertex -30.4381 39.6677 -65
      vertex -35.3553 35.3553 65
      vertex -30.4381 39.6677 65
    endloop
  endfacet
  facet normal -0.659357 0.75183 0
    outer loop
      vertex -35.3553 35.3553 65
      vertex -30.4381 39.6677 -65
      vertex -35.3553 35.3553 -65
    endloop
  endfacet
  facet normal -0.75183 0.659357 0
    outer loop
      vertex -39.6677 30.4381 -65
      vertex -35.3553 35.3553 65
      vertex -35.3553 35.3553 -65
    endloop
  endfacet
  facet normal -0.75183 0.659357 0
    outer loop
      vertex -35.3553 35.3553 65
      vertex -39.6677 30.4381 -65
      vertex -39.6677 30.4381 65
    endloop
  endfacet
  facet normal -0.831471 0.555568 0
    outer loop
      vertex -43.3013 25 -65
      vertex -39.6677 30.4381 65
      vertex -39.6677 30.4381 -65
    endloop
  endfacet
  facet normal -0.831471 0.555568 0
    outer loop
      vertex -39.6677 30.4381 65
      vertex -43.3013 25 -65
      vertex -43.3013 25 65
    endloop
  endfacet
  facet normal -0.896872 0.44229 0
    outer loop
      vertex -46.194 19.1342 -65
      vertex -43.3013 25 65
      vertex -43.3013 25 -65
    endloop
  endfacet
  facet normal -0.896872 0.44229 0
    outer loop
      vertex -43.3013 25 65
      vertex -46.194 19.1342 -65
      vertex -46.194 19.1342 65
    endloop
  endfacet
  facet normal -0.946931 0.321438 0
    outer loop
      vertex -48.2963 12.941 -65
      vertex -46.194 19.1342 65
      vertex -46.194 19.1342 -65
    endloop
  endfacet
  facet normal -0.946931 0.321438 0
    outer loop
      vertex -46.194 19.1342 65
      vertex -48.2963 12.941 -65
      vertex -48.2963 12.941 65
    endloop
  endfacet
  facet normal -0.980787 0.195081 0
    outer loop
      vertex -49.5722 6.52631 -65
      vertex -48.2963 12.941 65
      vertex -48.2963 12.941 -65
    endloop
  endfacet
  facet normal -0.980787 0.195081 0
    outer loop
      vertex -48.2963 12.941 65
      vertex -49.5722 6.52631 -65
      vertex -49.5722 6.52631 65
    endloop
  endfacet
  facet normal -0.997858 0.0654097 0
    outer loop
      vertex -50 -0 -65
      vertex -49.5722 6.52631 65
      vertex -49.5722 6.52631 -65
    endloop
  endfacet
  facet normal -0.997858 0.0654097 0
    outer loop
      vertex -49.5722 6.52631 65
      vertex -50 -0 -65
      vertex -50 -0 65
    endloop
  endfacet
  facet normal -0.997858 -0.0654097 0
    outer loop
      vertex -49.5722 -6.52631 -65
      vertex -50 -0 65
      vertex -50 -0 -65
    endloop
  endfacet
  facet normal -0.997858 -0.0654097 0
    outer loop
      vertex -50 -0 65
      vertex -49.5722 -6.52631 -65
      vertex -49.5722 -6.52631 65
    endloop
  endfacet
  facet normal -0.980787 -0.195081 0
    outer loop
      vertex -48.2963 -12.941 -65
      vertex -49.5722 -6.52631 65
      vertex -49.5722 -6.52631 -65
    endloop
  endfacet
  facet normal -0.980787 -0.195081 0
    outer loop
      vertex -49.5722 -6.52631 65
      vertex -48.2963 -12.941 -65
      vertex -48.2963 -12.941 65
    endloop
  endfacet
  facet normal -0.946931 -0.321438 0
    outer loop
      vertex -46.194 -19.1342 -65
      vertex -48.2963 -12.941 65
      vertex -48.2963 -12.941 -65
    endloop
  endfacet
  facet normal -0.946931 -0.321438 0
    outer loop
      vertex -48.2963 -12.941 65
      vertex -46.194 -19.1342 -65
      vertex -46.194 -19.1342 65
    endloop
  endfacet
  facet normal -0.896872 -0.44229 0
    outer loop
      vertex -43.3013 -25 -65
      vertex -46.194 -19.1342 65
      vertex -46.194 -19.1342 -65
    endloop
  endfacet
  facet normal -0.896872 -0.44229 0
    outer loop
      vertex -46.194 -19.1342 65
      vertex -43.3013 -25 -65
      vertex -43.3013 -25 65
    endloop
  endfacet
  facet normal -0.831471 -0.555568 0
    outer loop
      vertex -39.6677 -30.4381 -65
      vertex -43.3013 -25 65
      vertex -43.3013 -25 -65
    endloop
  endfacet
  facet normal -0.831471 -0.555568 0
    outer loop
      vertex -43.3013 -25 65
      vertex -39.6677 -30.4381 -65
      vertex -39.6677 -30.4381 65
    endloop
  endfacet
  facet normal -0.75183 -0.659357 0
    outer loop
      vertex -35.3553 -35.3553 -65
      vertex -39.6677 -30.4381 65
      vertex -39.6677 -30.4381 -65
    endloop
  endfacet
  facet normal -0.75183 -0.659357 0
    outer loop
      vertex -39.6677 -30.4381 65
      vertex -35.3553 -35.3553 -65
      vertex -35.3553 -35.3553 65
    endloop
  endfacet
  facet normal -0.659357 -0.75183 0
    outer loop
      vertex -35.3553 -35.3553 -65
      vertex -30.4381 -39.6677 65
      vertex -35.3553 -35.3553 65
    endloop
  endfacet
  facet normal -0.659357 -0.75183 -0
    outer loop
      vertex -30.4381 -39.6677 65
      vertex -35.3553 -35.3553 -65
      vertex -30.4381 -39.6677 -65
    endloop
  endfacet
  facet normal -0.555568 -0.831471 0
    outer loop
      vertex -30.4381 -39.6677 -65
      vertex -25 -43.3013 65
      vertex -30.4381 -39.6677 65
    endloop
  endfacet
  facet normal -0.555568 -0.831471 -0
    outer loop
      vertex -25 -43.3013 65
      vertex -30.4381 -39.6677 -65
      vertex -25 -43.3013 -65
    endloop
  endfacet
  facet normal -0.44229 -0.896872 0
    outer loop
      vertex -25 -43.3013 -65
      vertex -19.1342 -46.194 65
      vertex -25 -43.3013 65
    endloop
  endfacet
  facet normal -0.44229 -0.896872 -0
    outer loop
      vertex -19.1342 -46.194 65
      vertex -25 -43.3013 -65
      vertex -19.1342 -46.194 -65
    endloop
  endfacet
  facet normal -0.321438 -0.946931 0
    outer loop
      vertex -19.1342 -46.194 -65
      vertex -12.941 -48.2963 65
      vertex -19.1342 -46.194 65
    endloop
  endfacet
  facet normal -0.321438 -0.946931 -0
    outer loop
      vertex -12.941 -48.2963 65
      vertex -19.1342 -46.194 -65
      vertex -12.941 -48.2963 -65
    endloop
  endfacet
  facet normal -0.195081 -0.980787 0
    outer loop
      vertex -12.941 -48.2963 -65
      vertex -6.52631 -49.5722 65
      vertex -12.941 -48.2963 65
    endloop
  endfacet
  facet normal -0.195081 -0.980787 -0
    outer loop
      vertex -6.52631 -49.5722 65
      vertex -12.941 -48.2963 -65
      vertex -6.52631 -49.5722 -65
    endloop
  endfacet
  facet normal -0.0654097 -0.997858 0
    outer loop
      vertex -6.52631 -49.5722 -65
      vertex -0 -50 65
      vertex -6.52631 -49.5722 65
    endloop
  endfacet
  facet normal -0.0654097 -0.997858 -0
    outer loop
      vertex -0 -50 65
      vertex -6.52631 -49.5722 -65
      vertex -0 -50 -65
    endloop
  endfacet
  facet normal 0.0654097 -0.997858 0
    outer loop
      vertex -0 -50 -65
      vertex 6.52631 -49.5722 65
      vertex -0 -50 65
    endloop
  endfacet
  facet normal 0.0654097 -0.997858 0
    outer loop
      vertex 6.52631 -49.5722 65
      vertex -0 -50 -65
      vertex 6.52631 -49.5722 -65
    endloop
  endfacet
  facet normal 0.195081 -0.980787 0
    outer loop
      vertex 6.52631 -49.5722 -65
      vertex 12.941 -48.2963 65
      vertex 6.52631 -49.5722 65
    endloop
  endfacet
  facet normal 0.195081 -0.980787 0
    outer loop
      vertex 12.941 -48.2963 65
      vertex 6.52631 -49.5722 -65
      vertex 12.941 -48.2963 -65
    endloop
  endfacet
  facet normal 0.321438 -0.946931 0
    outer loop
      vertex 12.941 -48.2963 -65
      vertex 19.1342 -46.194 65
      vertex 12.941 -48.2963 65
    endloop
  endfacet
  facet normal 0.321438 -0.946931 0
    outer loop
      vertex 19.1342 -46.194 65
      vertex 12.941 -48.2963 -65
      vertex 19.1342 -46.194 -65
    endloop
  endfacet
  facet normal 0.44229 -0.896872 0
    outer loop
      vertex 19.1342 -46.194 -65
      vertex 25 -43.3013 65
      vertex 19.1342 -46.194 65
    endloop
  endfacet
  facet normal 0.44229 -0.896872 0
    outer loop
      vertex 25 -43.3013 65
      vertex 19.1342 -46.194 -65
      vertex 25 -43.3013 -65
    endloop
  endfacet
  facet normal 0.555568 -0.831471 0
    outer loop
      vertex 25 -43.3013 -65
      vertex 30.4381 -39.6677 65
      vertex 25 -43.3013 65
    endloop
  endfacet
  facet normal 0.555568 -0.831471 0
    outer loop
      vertex 30.4381 -39.6677 65
      vertex 25 -43.3013 -65
      vertex 30.4381 -39.6677 -65
    endloop
  endfacet
  facet normal 0.659357 -0.75183 0
    outer loop
      vertex 30.4381 -39.6677 -65
      vertex 35.3553 -35.3553 65
      vertex 30.4381 -39.6677 65
    endloop
  endfacet
  facet normal 0.659357 -0.75183 0
    outer loop
      vertex 35.3553 -35.3553 65
      vertex 30.4381 -39.6677 -65
      vertex 35.3553 -35.3553 -65
    endloop
  endfacet
  facet normal 0.75183 -0.659357 0
    outer loop
      vertex 35.3553 -35.3553 65
      vertex 39.6677 -30.4381 -65
      vertex 39.6677 -30.4381 65
    endloop
  endfacet
  facet normal 0.75183 -0.659357 0
    outer loop
      vertex 39.6677 -30.4381 -65
      vertex 35.3553 -35.3553 65
      vertex 35.3553 -35.3553 -65
    endloop
  endfacet
  facet normal 0.831471 -0.555568 0
    outer loop
      vertex 39.6677 -30.4381 65
      vertex 43.3013 -25 -65
      vertex 43.3013 -25 65
    endloop
  endfacet
  facet normal 0.831471 -0.555568 0
    outer loop
      vertex 43.3013 -25 -65
      vertex 39.6677 -30.4381 65
      vertex 39.6677 -30.4381 -65
    endloop
  endfacet
  facet normal 0.896872 -0.44229 0
    outer loop
      vertex 43.3013 -25 65
      vertex 46.194 -19.1342 -65
      vertex 46.194 -19.1342 65
    endloop
  endfacet
  facet normal 0.896872 -0.44229 0
    outer loop
      vertex 46.194 -19.1342 -65
      vertex 43.3013 -25 65
      vertex 43.3013 -25 -65
    endloop
  endfacet
  facet normal 0.946931 -0.321438 0
    outer loop
      vertex 46.194 -19.1342 65
      vertex 48.2963 -12.941 -65
      vertex 48.2963 -12.941 65
    endloop
  endfacet
  facet normal 0.946931 -0.321438 0
    outer loop
      vertex 48.2963 -12.941 -65
      vertex 46.194 -19.1342 65
      vertex 46.194 -19.1342 -65
    endloop
  endfacet
  facet normal 0.980787 -0.195081 0
    outer loop
      vertex 48.2963 -12.941 65
      vertex 49.5722 -6.52631 -65
      vertex 49.5722 -6.52631 65
    endloop
  endfacet
  facet normal 0.980787 -0.195081 0
    outer loop
      vertex 49.5722 -6.52631 -65
      vertex 48.2963 -12.941 65
      vertex 48.2963 -12.941 -65
    endloop
  endfacet
  facet normal 0.997858 -0.0654097 0
    outer loop
      vertex 49.5722 -6.52631 65
      vertex 50 0 -65
      vertex 50 0 65
    endloop
  endfacet
  facet normal 0.997858 -0.0654097 0
    outer loop
      vertex 50 0 -65
      vertex 49.5722 -6.52631 65
      vertex 49.5722 -6.52631 -65
    endloop
  endfacet
  facet normal 0 0 -1
    outer loop
      vertex 49.5722 -6.52631 -65
      vertex 49.5722 6.52631 -65
      vertex 50 0 -65
    endloop
  endfacet
  facet normal 0 0 -1
    outer loop
      vertex 48.2963 -12.941 -65
      vertex 49.5722 6.52631 -65
      vertex 49.5722 -6.52631 -65
    endloop
  endfacet
  facet normal 0 0 -1
    outer loop
      vertex 48.2963 -12.941 -65
      vertex 48.2963 12.941 -65
      vertex 49.5722 6.52631 -65
    endloop
  endfacet
  facet normal 0 0 -1
    outer loop
      vertex 46.194 -19.1342 -65
      vertex 48.2963 12.941 -65
      vertex 48.2963 -12.941 -65
    endloop
  endfacet
  facet normal 0 0 -1
    outer loop
      vertex 46.194 -19.1342 -65
      vertex 46.194 19.1342 -65
      vertex 48.2963 12.941 -65
    endloop
  endfacet
  facet normal 0 0 -1
    outer loop
      vertex 43.3013 -25 -65
      vertex 46.194 19.1342 -65
      vertex 46.194 -19.1342 -65
    endloop
  endfacet
  facet normal 0 0 -1
    outer loop
      vertex 43.3013 -25 -65
      vertex 43.3013 25 -65
      vertex 46.194 19.1342 -65
    endloop
  endfacet
  facet normal 0 0 -1
    outer loop
      vertex 39.6677 -30.4381 -65
      vertex 43.3013 25 -65
      vertex 43.3013 -25 -65
    endloop
  endfacet
  facet normal 0 0 -1
    outer loop
      vertex 39.6677 -30.4381 -65
      vertex 39.6677 30.4381 -65
      vertex 43.3013 25 -65
    endloop
  endfacet
  facet normal 0 0 -1
    outer loop
      vertex 35.3553 -35.3553 -65
      vertex 39.6677 30.4381 -65
      vertex 39.6677 -30.4381 -65
    endloop
  endfacet
  facet normal 0 0 -1
    outer loop
      vertex 35.3553 -35.3553 -65
      vertex 35.3553 35.3553 -65
      vertex 39.6677 30.4381 -65
    endloop
  endfacet
  facet normal 0 0 -1
    outer loop
      vertex 30.4381 -39.6677 -65
      vertex 35.3553 35.3553 -65
      vertex 35.3553 -35.3553 -65
    endloop
  endfacet
  facet normal 0 0 -1
    outer loop
      vertex 30.4381 -39.6677 -65
      vertex 30.4381 39.6677 -65
      vertex 35.3553 35.3553 -65
    endloop
  endfacet
  facet normal 0 0 -1
    outer loop
      vertex 25 -43.3013 -65
      vertex 30.4381 39.6677 -65
      vertex 30.4381 -39.6677 -65
    endloop
  endfacet
  facet normal 0 0 -1
    outer loop
      vertex 25 -43.3013 -65
      vertex 25 43.3013 -65
      vertex 30.4381 39.6677 -65
    endloop
  endfacet
  facet normal 0 0 -1
    outer loop
      vertex 19.1342 -46.194 -65
      vertex 25 43.3013 -65
      vertex 25 -43.3013 -65
    endloop
  endfacet
  facet normal 0 0 -1
    outer loop
      vertex 19.1342 -46.194 -65
      vertex 19.1342 46.194 -65
      vertex 25 43.3013 -65
    endloop
  endfacet
  facet normal 0 0 -1
    outer loop
      vertex 12.941 -48.2963 -65
      vertex 19.1342 46.194 -65
      vertex 19.1342 -46.194 -65
    endloop
  endfacet
  facet normal 0 0 -1
    outer loop
      vertex 12.941 -48.2963 -65
      vertex 12.941 48.2963 -65
      vertex 19.1342 46.194 -65
    endloop
  endfacet
  facet normal 0 0 -1
    outer loop
      vertex 6.52631 -49.5722 -65
      vertex 12.941 48.2963 -65
      vertex 12.941 -48.2963 -65
    endloop
  endfacet
  facet normal 0 0 -1
    outer loop
      vertex 6.52631 -49.5722 -65
      vertex 6.52631 49.5722 -65
      vertex 12.941 48.2963 -65
    endloop
  endfacet
  facet normal 0 0 -1
    outer loop
      vertex -0 -50 -65
      vertex 6.52631 49.5722 -65
      vertex 6.52631 -49.5722 -65
    endloop
  endfacet
  facet normal 0 0 -1
    outer loop
      vertex -0 -50 -65
      vertex 0 50 -65
      vertex 6.52631 49.5722 -65
    endloop
  endfacet
  facet normal 0 0 -1
    outer loop
      vertex -6.52631 -49.5722 -65
      vertex 0 50 -65
      vertex -0 -50 -65
    endloop
  endfacet
  facet normal 0 0 -1
    outer loop
      vertex -6.52631 -49.5722 -65
      vertex -6.52631 49.5722 -65
      vertex 0 50 -65
    endloop
  endfacet
  facet normal 0 0 -1
    outer loop
      vertex -12.941 -48.2963 -65
      vertex -6.52631 49.5722 -65
      vertex -6.52631 -49.5722 -65
    endloop
  endfacet
  facet normal 0 0 -1
    outer loop
      vertex -12.941 -48.2963 -65
      vertex -12.941 48.2963 -65
      vertex -6.52631 49.5722 -65
    endloop
  endfacet
  facet normal 0 0 -1
    outer loop
      vertex -19.1342 -46.194 -65
      vertex -12.941 48.2963 -65
      vertex -12.941 -48.2963 -65
    endloop
  endfacet
  facet normal 0 0 -1
    outer loop
      vertex -19.1342 -46.194 -65
      vertex -19.1342 46.194 -65
      vertex -12.941 48.2963 -65
    endloop
  endfacet
  facet normal 0 0 -1
    outer loop
      vertex -25 -43.3013 -65
      vertex -19.1342 46.194 -65
      vertex -19.1342 -46.194 -65
    endloop
  endfacet
  facet normal 0 0 -1
    outer loop
      vertex -25 -43.3013 -65
      vertex -25 43.3013 -65
      vertex -19.1342 46.194 -65
    endloop
  endfacet
  facet normal 0 0 -1
    outer loop
      vertex -30.4381 -39.6677 -65
      vertex -25 43.3013 -65
      vertex -25 -43.3013 -65
    endloop
  endfacet
  facet normal 0 0 -1
    outer loop
      vertex -30.4381 -39.6677 -65
      vertex -30.4381 39.6677 -65
      vertex -25 43.3013 -65
    endloop
  endfacet
  facet normal 0 0 -1
    outer loop
      vertex -35.3553 -35.3553 -65
      vertex -30.4381 39.6677 -65
      vertex -30.4381 -39.6677 -65
    endloop
  endfacet
  facet normal 0 0 -1
    outer loop
      vertex -35.3553 -35.3553 -65
      vertex -35.3553 35.3553 -65
      vertex -30.4381 39.6677 -65
    endloop
  endfacet
  facet normal 0 0 -1
    outer loop
      vertex -39.6677 -30.4381 -65
      vertex -35.3553 35.3553 -65
      vertex -35.3553 -35.3553 -65
    endloop
  endfacet
  facet normal 0 0 -1
    outer loop
      vertex -39.6677 -30.4381 -65
      vertex -39.6677 30.4381 -65
      vertex -35.3553 35.3553 -65
    endloop
  endfacet
  facet normal 0 0 -1
    outer loop
      vertex -43.3013 -25 -65
      vertex -39.6677 30.4381 -65
      vertex -39.6677 -30.4381 -65
    endloop
  endfacet
  facet normal 0 0 -1
    outer loop
      vertex -43.3013 -25 -65
      vertex -43.3013 25 -65
      vertex -39.6677 30.4381 -65
    endloop
  endfacet
  facet normal 0 0 -1
    outer loop
      vertex -46.194 -19.1342 -65
      vertex -43.3013 25 -65
      vertex -43.3013 -25 -65
    endloop
  endfacet
  facet normal 0 0 -1
    outer loop
      vertex -46.194 -19.1342 -65
      vertex -46.194 19.1342 -65
      vertex -43.3013 25 -65
    endloop
  endfacet
  facet normal 0 0 -1
    outer loop
      vertex -48.2963 -12.941 -65
      vertex -46.194 19.1342 -65
      vertex -46.194 -19.1342 -65
    endloop
  endfacet
  facet normal 0 0 -1
    outer loop
      vertex -48.2963 -12.941 -65
      vertex -48.2963 12.941 -65
      vertex -46.194 19.1342 -65
    endloop
  endfacet
  facet normal 0 0 -1
    outer loop
      vertex -49.5722 -6.52631 -65
      vertex -48.2963 12.941 -65
      vertex -48.2963 -12.941 -65
    endloop
  endfacet
  facet normal 0 0 -1
    outer loop
      vertex -49.5722 -6.52631 -65
      vertex -49.5722 6.52631 -65
      vertex -48.2963 12.941 -65
    endloop
  endfacet
  facet normal 0 -0 -1
    outer loop
      vertex -49.5722 6.52631 -65
      vertex -49.5722 -6.52631 -65
      vertex -50 -0 -65
    endloop
  endfacet
  facet normal 0 0 1
    outer loop
      vertex 49.5722 6.52631 65
      vertex 49.5722 -6.52631 65
      vertex 50 0 65
    endloop
  endfacet
  facet normal 0 0 1
    outer loop
      vertex 48.2963 12.941 65
      vertex 49.5722 -6.52631 65
      vertex 49.5722 6.52631 65
    endloop
  endfacet
  facet normal 0 0 1
    outer loop
      vertex 48.2963 12.941 65
      vertex 48.2963 -12.941 65
      vertex 49.5722 -6.52631 65
    endloop
  endfacet
  facet normal 0 0 1
    outer loop
      vertex 46.194 19.1342 65
      vertex 48.2963 -12.941 65
      vertex 48.2963 12.941 65
    endloop
  endfacet
  facet normal 0 0 1
    outer loop
      vertex 46.194 19.1342 65
      vertex 46.194 -19.1342 65
      vertex 48.2963 -12.941 65
    endloop
  endfacet
  facet normal 0 0 1
    outer loop
      vertex 43.3013 25 65
      vertex 46.194 -19.1342 65
      vertex 46.194 19.1342 65
    endloop
  endfacet
  facet normal 0 0 1
    outer loop
      vertex 43.3013 25 65
      vertex 43.3013 -25 65
      vertex 46.194 -19.1342 65
    endloop
  endfacet
  facet normal 0 0 1
    outer loop
      vertex 39.6677 30.4381 65
      vertex 43.3013 -25 65
      vertex 43.3013 25 65
    endloop
  endfacet
  facet normal 0 0 1
    outer loop
      vertex 39.6677 30.4381 65
      vertex 39.6677 -30.4381 65
      vertex 43.3013 -25 65
    endloop
  endfacet
  facet normal 0 0 1
    outer loop
      vertex 35.3553 35.3553 65
      vertex 39.6677 -30.4381 65
      vertex 39.6677 30.4381 65
    endloop
  endfacet
  facet normal 0 0 1
    outer loop
      vertex 35.3553 35.3553 65
      vertex 35.3553 -35.3553 65
      vertex 39.6677 -30.4381 65
    endloop
  endfacet
  facet normal 0 0 1
    outer loop
      vertex 30.4381 39.6677 65
      vertex 35.3553 -35.3553 65
      vertex 35.3553 35.3553 65
    endloop
  endfacet
  facet normal 0 0 1
    outer loop
      vertex 30.4381 39.6677 65
      vertex 30.4381 -39.6677 65
      vertex 35.3553 -35.3553 65
    endloop
  endfacet
  facet normal 0 0 1
    outer loop
      vertex 25 43.3013 65
      vertex 30.4381 -39.6677 65
      vertex 30.4381 39.6677 65
    endloop
  endfacet
  facet normal 0 0 1
    outer loop
      vertex 25 43.3013 65
      vertex 25 -43.3013 65
      vertex 30.4381 -39.6677 65
    endloop
  endfacet
  facet normal 0 0 1
    outer loop
      vertex 19.1342 46.194 65
      vertex 25 -43.3013 65
      vertex 25 43.3013 65
    endloop
  endfacet
  facet normal 0 0 1
    outer loop
      vertex 19.1342 46.194 65
      vertex 19.1342 -46.194 65
      vertex 25 -43.3013 65
    endloop
  endfacet
  facet normal 0 0 1
    outer loop
      vertex 12.941 48.2963 65
      vertex 19.1342 -46.194 65
      vertex 19.1342 46.194 65
    endloop
  endfacet
  facet normal 0 0 1
    outer loop
      vertex 12.941 48.2963 65
      vertex 12.941 -48.2963 65
      vertex 19.1342 -46.194 65
    endloop
  endfacet
  facet normal 0 0 1
    outer loop
      vertex 6.52631 49.5722 65
      vertex 12.941 -48.2963 65
      vertex 12.941 48.2963 65
    endloop
  endfacet
  facet normal 0 0 1
    outer loop
      vertex 6.52631 49.5722 65
      vertex 6.52631 -49.5722 65
      vertex 12.941 -48.2963 65
    endloop
  endfacet
  facet normal 0 0 1
    outer loop
      vertex 0 50 65
      vertex 6.52631 -49.5722 65
      vertex 6.52631 49.5722 65
    endloop
  endfacet
  facet normal 0 0 1
    outer loop
      vertex 0 50 65
      vertex -0 -50 65
      vertex 6.52631 -49.5722 65
    endloop
  endfacet
  facet normal -0 0 1
    outer loop
      vertex -6.52631 49.5722 65
      vertex -0 -50 65
      vertex 0 50 65
    endloop
  endfacet
  facet normal 0 0 1
    outer loop
      vertex -6.52631 49.5722 65
      vertex -6.52631 -49.5722 65
      vertex -0 -50 65
    endloop
  endfacet
  facet normal -0 0 1
    outer loop
      vertex -12.941 48.2963 65
      vertex -6.52631 -49.5722 65
      vertex -6.52631 49.5722 65
    endloop
  endfacet
  facet normal 0 0 1
    outer loop
      vertex -12.941 48.2963 65
      vertex -12.941 -48.2963 65
      vertex -6.52631 -49.5722 65
    endloop
  endfacet
  facet normal -0 0 1
    outer loop
      vertex -19.1342 46.194 65
      vertex -12.941 -48.2963 65
      vertex -12.941 48.2963 65
    endloop
  endfacet
  facet normal 0 0 1
    outer loop
      vertex -19.1342 46.194 65
      vertex -19.1342 -46.194 65
      vertex -12.941 -48.2963 65
    endloop
  endfacet
  facet normal -0 0 1
    outer loop
      vertex -25 43.3013 65
      vertex -19.1342 -46.194 65
      vertex -19.1342 46.194 65
    endloop
  endfacet
  facet normal 0 0 1
    outer loop
      vertex -25 43.3013 65
      vertex -25 -43.3013 65
      vertex -19.1342 -46.194 65
    endloop
  endfacet
  facet normal -0 0 1
    outer loop
      vertex -30.4381 39.6677 65
      vertex -25 -43.3013 65
      vertex -25 43.3013 65
    endloop
  endfacet
  facet normal 0 0 1
    outer loop
      vertex -30.4381 39.6677 65
      vertex -30.4381 -39.6677 65
      vertex -25 -43.3013 65
    endloop
  endfacet
  facet normal -0 0 1
    outer loop
      vertex -35.3553 35.3553 65
      vertex -30.4381 -39.6677 65
      vertex -30.4381 39.6677 65
    endloop
  endfacet
  facet normal 0 0 1
    outer loop
      vertex -35.3553 35.3553 65
      vertex -35.3553 -35.3553 65
      vertex -30.4381 -39.6677 65
    endloop
  endfacet
  facet normal -0 0 1
    outer loop
      vertex -39.6677 30.4381 65
      vertex -35.3553 -35.3553 65
      vertex -35.3553 35.3553 65
    endloop
  endfacet
  facet normal 0 0 1
    outer loop
      vertex -39.6677 30.4381 65
      vertex -39.6677 -30.4381 65
      vertex -35.3553 -35.3553 65
    endloop
  endfacet
  facet normal -0 0 1
    outer loop
      vertex -43.3013 25 65
      vertex -39.6677 -30.4381 65
      vertex -39.6677 30.4381 65
    endloop
  endfacet
  facet normal 0 0 1
    outer loop
      vertex -43.3013 25 65
      vertex -43.3013 -25 65
      vertex -39.6677 -30.4381 65
    endloop
  endfacet
  facet normal -0 0 1
    outer loop
      vertex -46.194 19.1342 65
      vertex -43.3013 -25 65
      vertex -43.3013 25 65
    endloop
  endfacet
  facet normal 0 0 1
    outer loop
      vertex -46.194 19.1342 65
      vertex -46.194 -19.1342 65
      vertex -43.3013 -25 65
    endloop
  endfacet
  facet normal -0 0 1
    outer loop
      vertex -48.2963 12.941 65
      vertex -46.194 -19.1342 65
      vertex -46.194 19.1342 65
    endloop
  endfacet
  facet normal 0 0 1
    outer loop
      vertex -48.2963 12.941 65
      vertex -48.2963 -12.941 65
      vertex -46.194 -19.1342 65
    endloop
  endfacet
  facet normal -0 0 1
    outer loop
      vertex -49.5722 6.52631 65
      vertex -48.2963 -12.941 65
      vertex -48.2963 12.941 65
    endloop
  endfacet
  facet normal 0 0 1
    outer loop
      vertex -49.5722 6.52631 65
      vertex -49.5722 -6.52631 65
      vertex -48.2963 -12.941 65
    endloop
  endfacet
  facet normal 0 -0 1
    outer loop
      vertex -49.5722 -6.52631 65
      vertex -49.5722 6.52631 65
      vertex -50 -0 65
    endloop
  endfacet
endsolid OpenSCAD_Model
