solid OpenSCAD_Model
  facet normal 1 -0 0
    outer loop
      vertex 110 -45 1.5
      vertex 110 45 -1.5
      vertex 110 45 1.5
    endloop
  endfacet
  facet normal 1 0 0
    outer loop
      vertex 110 45 -1.5
      vertex 110 -45 1.5
      vertex 110 -45 -1.5
    endloop
  endfacet
  facet normal -0 0 1
    outer loop
      vertex 102.732 -35 1.5
      vertex 110 -45 1.5
      vertex 110 45 1.5
    endloop
  endfacet
  facet normal 0 0 1
    outer loop
      vertex 110 -45 1.5
      vertex 102.983 -35.7389 1.5
      vertex 103 -36 1.5
    endloop
  endfacet
  facet normal 0 0 1
    outer loop
      vertex 110 -45 1.5
      vertex 102.932 -35.4824 1.5
      vertex 102.983 -35.7389 1.5
    endloop
  endfacet
  facet normal 0 0 1
    outer loop
      vertex 110 -45 1.5
      vertex 102.848 -35.2346 1.5
      vertex 102.932 -35.4824 1.5
    endloop
  endfacet
  facet normal 0 0 1
    outer loop
      vertex 110 -45 1.5
      vertex 102.732 -35 1.5
      vertex 102.848 -35.2346 1.5
    endloop
  endfacet
  facet normal 0 0 1
    outer loop
      vertex 110 45 1.5
      vertex 102.587 -34.7825 1.5
      vertex 102.732 -35 1.5
    endloop
  endfacet
  facet normal 0 0 1
    outer loop
      vertex 110 45 1.5
      vertex 102.414 -34.5858 1.5
      vertex 102.587 -34.7825 1.5
    endloop
  endfacet
  facet normal 0 0 1
    outer loop
      vertex 110 45 1.5
      vertex 102.218 -34.4133 1.5
      vertex 102.414 -34.5858 1.5
    endloop
  endfacet
  facet normal 0 0 1
    outer loop
      vertex 110 45 1.5
      vertex 102 -34.2679 1.5
      vertex 102.218 -34.4133 1.5
    endloop
  endfacet
  facet normal 0 0 1
    outer loop
      vertex 110 45 1.5
      vertex 101.765 -34.1522 1.5
      vertex 102 -34.2679 1.5
    endloop
  endfacet
  facet normal 0 0 1
    outer loop
      vertex 110 45 1.5
      vertex 101.518 -34.0681 1.5
      vertex 101.765 -34.1522 1.5
    endloop
  endfacet
  facet normal 0 0 1
    outer loop
      vertex 110 45 1.5
      vertex 101.261 -34.0171 1.5
      vertex 101.518 -34.0681 1.5
    endloop
  endfacet
  facet normal 0 0 1
    outer loop
      vertex 110 45 1.5
      vertex 101 -34 1.5
      vertex 101.261 -34.0171 1.5
    endloop
  endfacet
  facet normal 0 0 1
    outer loop
      vertex 110 45 1.5
      vertex 100.739 -34.0171 1.5
      vertex 101 -34 1.5
    endloop
  endfacet
  facet normal 0 0 1
    outer loop
      vertex 110 45 1.5
      vertex 100.482 -34.0681 1.5
      vertex 100.739 -34.0171 1.5
    endloop
  endfacet
  facet normal 0 0 1
    outer loop
      vertex 110 45 1.5
      vertex 100.235 -34.1522 1.5
      vertex 100.482 -34.0681 1.5
    endloop
  endfacet
  facet normal 0 0 1
    outer loop
      vertex 110 45 1.5
      vertex 100 -34.2679 1.5
      vertex 100.235 -34.1522 1.5
    endloop
  endfacet
  facet normal 0 0 1
    outer loop
      vertex 110 45 1.5
      vertex 99.7825 -34.4133 1.5
      vertex 100 -34.2679 1.5
    endloop
  endfacet
  facet normal 0 0 1
    outer loop
      vertex 110 45 1.5
      vertex 99.5858 -34.5858 1.5
      vertex 99.7825 -34.4133 1.5
    endloop
  endfacet
  facet normal -0 0 1
    outer loop
      vertex 1.84776 35.2346 1.5
      vertex 99.5858 -34.5858 1.5
      vertex 110 45 1.5
    endloop
  endfacet
  facet normal -0 0 1
    outer loop
      vertex 1.73205 35 1.5
      vertex 99.5858 -34.5858 1.5
      vertex 1.84776 35.2346 1.5
    endloop
  endfacet
  facet normal 0 0 1
    outer loop
      vertex 99.5858 -34.5858 1.5
      vertex 1.73205 35 1.5
      vertex 99.4133 -34.7825 1.5
    endloop
  endfacet
  facet normal -0 0 1
    outer loop
      vertex 1.58671 34.7825 1.5
      vertex 99.4133 -34.7825 1.5
      vertex 1.73205 35 1.5
    endloop
  endfacet
  facet normal 0 0 1
    outer loop
      vertex 99.4133 -34.7825 1.5
      vertex 1.58671 34.7825 1.5
      vertex 99.268 -35 1.5
    endloop
  endfacet
  facet normal 0 0 1
    outer loop
      vertex 1.93185 35.4824 1.5
      vertex 110 45 1.5
      vertex 1.98289 35.7389 1.5
    endloop
  endfacet
  facet normal 0 0 1
    outer loop
      vertex 1.98289 35.7389 1.5
      vertex 110 45 1.5
      vertex 2 36 1.5
    endloop
  endfacet
  facet normal 0 0 1
    outer loop
      vertex 110 45 1.5
      vertex 1.98289 36.2611 1.5
      vertex 2 36 1.5
    endloop
  endfacet
  facet normal 0 0 1
    outer loop
      vertex 110 45 1.5
      vertex 1.93185 36.5176 1.5
      vertex 1.98289 36.2611 1.5
    endloop
  endfacet
  facet normal 0 0 1
    outer loop
      vertex 110 45 1.5
      vertex 1.84776 36.7654 1.5
      vertex 1.93185 36.5176 1.5
    endloop
  endfacet
  facet normal 0 0 1
    outer loop
      vertex 110 45 1.5
      vertex 1.73205 37 1.5
      vertex 1.84776 36.7654 1.5
    endloop
  endfacet
  facet normal 0 0 1
    outer loop
      vertex 110 45 1.5
      vertex 1.58671 37.2175 1.5
      vertex 1.73205 37 1.5
    endloop
  endfacet
  facet normal 0 0 1
    outer loop
      vertex 110 45 1.5
      vertex 1.41421 37.4142 1.5
      vertex 1.58671 37.2175 1.5
    endloop
  endfacet
  facet normal 0 0 1
    outer loop
      vertex 110 45 1.5
      vertex 1.21752 37.5867 1.5
      vertex 1.41421 37.4142 1.5
    endloop
  endfacet
  facet normal 0 0 1
    outer loop
      vertex 110 45 1.5
      vertex 1 37.732 1.5
      vertex 1.21752 37.5867 1.5
    endloop
  endfacet
  facet normal 0 0 1
    outer loop
      vertex 110 45 1.5
      vertex 0.765367 37.8478 1.5
      vertex 1 37.732 1.5
    endloop
  endfacet
  facet normal 0 0 1
    outer loop
      vertex 110 45 1.5
      vertex 0.517637 37.9319 1.5
      vertex 0.765367 37.8478 1.5
    endloop
  endfacet
  facet normal 0 0 1
    outer loop
      vertex 110 45 1.5
      vertex 0.261052 37.9829 1.5
      vertex 0.517637 37.9319 1.5
    endloop
  endfacet
  facet normal 0 0 1
    outer loop
      vertex 110 45 1.5
      vertex 0 38 1.5
      vertex 0.261052 37.9829 1.5
    endloop
  endfacet
  facet normal 0 0 1
    outer loop
      vertex -110 45 1.5
      vertex -2 36 1.5
      vertex -1.98289 36.2611 1.5
    endloop
  endfacet
  facet normal 0 0 1
    outer loop
      vertex -110 45 1.5
      vertex -1.98289 36.2611 1.5
      vertex -1.93185 36.5176 1.5
    endloop
  endfacet
  facet normal 0 0 1
    outer loop
      vertex -110 45 1.5
      vertex -1.93185 36.5176 1.5
      vertex -1.84776 36.7654 1.5
    endloop
  endfacet
  facet normal 0 0 1
    outer loop
      vertex -110 45 1.5
      vertex -1.84776 36.7654 1.5
      vertex -1.73205 37 1.5
    endloop
  endfacet
  facet normal 0 0 1
    outer loop
      vertex -110 45 1.5
      vertex -1.73205 37 1.5
      vertex -1.58671 37.2175 1.5
    endloop
  endfacet
  facet normal 0 0 1
    outer loop
      vertex -110 45 1.5
      vertex -1.58671 37.2175 1.5
      vertex -1.41421 37.4142 1.5
    endloop
  endfacet
  facet normal 0 0 1
    outer loop
      vertex -110 45 1.5
      vertex -1.41421 37.4142 1.5
      vertex -1.21752 37.5867 1.5
    endloop
  endfacet
  facet normal 0 0 1
    outer loop
      vertex -2 36 1.5
      vertex -99.0171 -35.7389 1.5
      vertex -99 -36 1.5
    endloop
  endfacet
  facet normal 0 0 1
    outer loop
      vertex -2 36 1.5
      vertex -99.0681 -35.4824 1.5
      vertex -99.0171 -35.7389 1.5
    endloop
  endfacet
  facet normal 0 0 1
    outer loop
      vertex -2 36 1.5
      vertex -99.1522 -35.2346 1.5
      vertex -99.0681 -35.4824 1.5
    endloop
  endfacet
  facet normal 0 0 1
    outer loop
      vertex -2 36 1.5
      vertex -99.268 -35 1.5
      vertex -99.1522 -35.2346 1.5
    endloop
  endfacet
  facet normal 0 0 1
    outer loop
      vertex -2 36 1.5
      vertex -99.4133 -34.7825 1.5
      vertex -99.268 -35 1.5
    endloop
  endfacet
  facet normal 0 0 1
    outer loop
      vertex -2 36 1.5
      vertex -99.5858 -34.5858 1.5
      vertex -99.4133 -34.7825 1.5
    endloop
  endfacet
  facet normal 0 0 1
    outer loop
      vertex -2 36 1.5
      vertex -110 45 1.5
      vertex -99.5858 -34.5858 1.5
    endloop
  endfacet
  facet normal 0 0 1
    outer loop
      vertex -99.5858 -34.5858 1.5
      vertex -110 45 1.5
      vertex -99.7825 -34.4133 1.5
    endloop
  endfacet
  facet normal 0 0 1
    outer loop
      vertex -99.7825 -34.4133 1.5
      vertex -110 45 1.5
      vertex -100 -34.2679 1.5
    endloop
  endfacet
  facet normal 0 0 1
    outer loop
      vertex -100 -34.2679 1.5
      vertex -110 45 1.5
      vertex -100.235 -34.1522 1.5
    endloop
  endfacet
  facet normal 0 0 1
    outer loop
      vertex -100.235 -34.1522 1.5
      vertex -110 45 1.5
      vertex -100.482 -34.0681 1.5
    endloop
  endfacet
  facet normal 0 0 1
    outer loop
      vertex -100.482 -34.0681 1.5
      vertex -110 45 1.5
      vertex -100.739 -34.0171 1.5
    endloop
  endfacet
  facet normal 0 0 1
    outer loop
      vertex -100.739 -34.0171 1.5
      vertex -110 45 1.5
      vertex -101 -34 1.5
    endloop
  endfacet
  facet normal 0 0 1
    outer loop
      vertex -101 -34 1.5
      vertex -110 45 1.5
      vertex -101.261 -34.0171 1.5
    endloop
  endfacet
  facet normal 0 0 1
    outer loop
      vertex -101.261 -34.0171 1.5
      vertex -110 45 1.5
      vertex -101.518 -34.0681 1.5
    endloop
  endfacet
  facet normal 0 0 1
    outer loop
      vertex -101.518 -34.0681 1.5
      vertex -110 45 1.5
      vertex -101.765 -34.1522 1.5
    endloop
  endfacet
  facet normal 0 0 1
    outer loop
      vertex -101.765 -34.1522 1.5
      vertex -110 45 1.5
      vertex -102 -34.2679 1.5
    endloop
  endfacet
  facet normal 0 0 1
    outer loop
      vertex -102.932 -35.4824 1.5
      vertex -110 -45 1.5
      vertex -102.983 -35.7389 1.5
    endloop
  endfacet
  facet normal 0 0 1
    outer loop
      vertex -102.848 -35.2346 1.5
      vertex -110 -45 1.5
      vertex -102.932 -35.4824 1.5
    endloop
  endfacet
  facet normal 0 0 1
    outer loop
      vertex -102.732 -35 1.5
      vertex -110 -45 1.5
      vertex -102.848 -35.2346 1.5
    endloop
  endfacet
  facet normal 0 0 1
    outer loop
      vertex -110 -45 1.5
      vertex -102.732 -35 1.5
      vertex -110 45 1.5
    endloop
  endfacet
  facet normal 0 0 1
    outer loop
      vertex -102.587 -34.7825 1.5
      vertex -110 45 1.5
      vertex -102.732 -35 1.5
    endloop
  endfacet
  facet normal 0 0 1
    outer loop
      vertex -102.414 -34.5858 1.5
      vertex -110 45 1.5
      vertex -102.587 -34.7825 1.5
    endloop
  endfacet
  facet normal 0 0 1
    outer loop
      vertex -102.218 -34.4133 1.5
      vertex -110 45 1.5
      vertex -102.414 -34.5858 1.5
    endloop
  endfacet
  facet normal 0 0 1
    outer loop
      vertex -102 -34.2679 1.5
      vertex -110 45 1.5
      vertex -102.218 -34.4133 1.5
    endloop
  endfacet
  facet normal 0 0 1
    outer loop
      vertex -1 37.732 1.5
      vertex -110 45 1.5
      vertex -1.21752 37.5867 1.5
    endloop
  endfacet
  facet normal 0 0 1
    outer loop
      vertex -0.765367 37.8478 1.5
      vertex -110 45 1.5
      vertex -1 37.732 1.5
    endloop
  endfacet
  facet normal 0 0 1
    outer loop
      vertex -0.517637 37.9319 1.5
      vertex -110 45 1.5
      vertex -0.765367 37.8478 1.5
    endloop
  endfacet
  facet normal 0 0 1
    outer loop
      vertex -0.261052 37.9829 1.5
      vertex -110 45 1.5
      vertex -0.517637 37.9319 1.5
    endloop
  endfacet
  facet normal 0 0 1
    outer loop
      vertex 0 38 1.5
      vertex -110 45 1.5
      vertex -0.261052 37.9829 1.5
    endloop
  endfacet
  facet normal -0 0 1
    outer loop
      vertex -110 45 1.5
      vertex 0 38 1.5
      vertex 110 45 1.5
    endloop
  endfacet
  facet normal -0 0 1
    outer loop
      vertex 102.983 -36.2611 1.5
      vertex 110 -45 1.5
      vertex 103 -36 1.5
    endloop
  endfacet
  facet normal -0 0 1
    outer loop
      vertex 102.932 -36.5176 1.5
      vertex 110 -45 1.5
      vertex 102.983 -36.2611 1.5
    endloop
  endfacet
  facet normal -0 0 1
    outer loop
      vertex 102.848 -36.7654 1.5
      vertex 110 -45 1.5
      vertex 102.932 -36.5176 1.5
    endloop
  endfacet
  facet normal -0 0 1
    outer loop
      vertex 102.732 -37 1.5
      vertex 110 -45 1.5
      vertex 102.848 -36.7654 1.5
    endloop
  endfacet
  facet normal -0 0 1
    outer loop
      vertex 102.587 -37.2175 1.5
      vertex 110 -45 1.5
      vertex 102.732 -37 1.5
    endloop
  endfacet
  facet normal -0 0 1
    outer loop
      vertex 102.414 -37.4142 1.5
      vertex 110 -45 1.5
      vertex 102.587 -37.2175 1.5
    endloop
  endfacet
  facet normal -0 0 1
    outer loop
      vertex 102.218 -37.5867 1.5
      vertex 110 -45 1.5
      vertex 102.414 -37.4142 1.5
    endloop
  endfacet
  facet normal -0 0 1
    outer loop
      vertex 102 -37.732 1.5
      vertex 110 -45 1.5
      vertex 102.218 -37.5867 1.5
    endloop
  endfacet
  facet normal -0 0 1
    outer loop
      vertex 101.765 -37.8478 1.5
      vertex 110 -45 1.5
      vertex 102 -37.732 1.5
    endloop
  endfacet
  facet normal -0 0 1
    outer loop
      vertex 101.518 -37.9319 1.5
      vertex 110 -45 1.5
      vertex 101.765 -37.8478 1.5
    endloop
  endfacet
  facet normal -0 0 1
    outer loop
      vertex 101.261 -37.9829 1.5
      vertex 110 -45 1.5
      vertex 101.518 -37.9319 1.5
    endloop
  endfacet
  facet normal -0 0 1
    outer loop
      vertex 101 -38 1.5
      vertex 110 -45 1.5
      vertex 101.261 -37.9829 1.5
    endloop
  endfacet
  facet normal 0 0 1
    outer loop
      vertex 100.739 -37.9829 1.5
      vertex 110 -45 1.5
      vertex 101 -38 1.5
    endloop
  endfacet
  facet normal 0 0 1
    outer loop
      vertex 100.482 -37.9319 1.5
      vertex 110 -45 1.5
      vertex 100.739 -37.9829 1.5
    endloop
  endfacet
  facet normal 0 0 1
    outer loop
      vertex 100.235 -37.8478 1.5
      vertex 110 -45 1.5
      vertex 100.482 -37.9319 1.5
    endloop
  endfacet
  facet normal 0 0 1
    outer loop
      vertex 100 -37.732 1.5
      vertex 110 -45 1.5
      vertex 100.235 -37.8478 1.5
    endloop
  endfacet
  facet normal 0 0 1
    outer loop
      vertex 99.7825 -37.5867 1.5
      vertex 110 -45 1.5
      vertex 100 -37.732 1.5
    endloop
  endfacet
  facet normal 0 0 1
    outer loop
      vertex 1.84776 35.2346 1.5
      vertex 110 45 1.5
      vertex 1.93185 35.4824 1.5
    endloop
  endfacet
  facet normal -0 0 1
    outer loop
      vertex 1.41421 34.5858 1.5
      vertex 99.268 -35 1.5
      vertex 1.58671 34.7825 1.5
    endloop
  endfacet
  facet normal 0 0 1
    outer loop
      vertex 99.268 -35 1.5
      vertex 1.41421 34.5858 1.5
      vertex 99.1522 -35.2346 1.5
    endloop
  endfacet
  facet normal -0 0 1
    outer loop
      vertex 1.21752 34.4133 1.5
      vertex 99.1522 -35.2346 1.5
      vertex 1.41421 34.5858 1.5
    endloop
  endfacet
  facet normal 0 0 1
    outer loop
      vertex 99.1522 -35.2346 1.5
      vertex 1.21752 34.4133 1.5
      vertex 99.0681 -35.4824 1.5
    endloop
  endfacet
  facet normal -0 0 1
    outer loop
      vertex 1 34.2679 1.5
      vertex 99.0681 -35.4824 1.5
      vertex 1.21752 34.4133 1.5
    endloop
  endfacet
  facet normal 0 0 1
    outer loop
      vertex 99.0681 -35.4824 1.5
      vertex 1 34.2679 1.5
      vertex 99.0171 -35.7389 1.5
    endloop
  endfacet
  facet normal -0 0 1
    outer loop
      vertex 0.765367 34.1522 1.5
      vertex 99.0171 -35.7389 1.5
      vertex 1 34.2679 1.5
    endloop
  endfacet
  facet normal 0 0 1
    outer loop
      vertex 99.0171 -35.7389 1.5
      vertex 0.765367 34.1522 1.5
      vertex 99 -36 1.5
    endloop
  endfacet
  facet normal -0 0 1
    outer loop
      vertex 0.517637 34.0681 1.5
      vertex 99 -36 1.5
      vertex 0.765367 34.1522 1.5
    endloop
  endfacet
  facet normal 0 0 1
    outer loop
      vertex 99 -36 1.5
      vertex 0.517637 34.0681 1.5
      vertex 99.0171 -36.2611 1.5
    endloop
  endfacet
  facet normal -0 0 1
    outer loop
      vertex 0.261052 34.0171 1.5
      vertex 99.0171 -36.2611 1.5
      vertex 0.517637 34.0681 1.5
    endloop
  endfacet
  facet normal 0 0 1
    outer loop
      vertex 99.0171 -36.2611 1.5
      vertex 0.261052 34.0171 1.5
      vertex 99.0681 -36.5176 1.5
    endloop
  endfacet
  facet normal -0 0 1
    outer loop
      vertex 0 34 1.5
      vertex 99.0681 -36.5176 1.5
      vertex 0.261052 34.0171 1.5
    endloop
  endfacet
  facet normal 0 0 1
    outer loop
      vertex 99.0681 -36.5176 1.5
      vertex 0 34 1.5
      vertex 99.1522 -36.7654 1.5
    endloop
  endfacet
  facet normal 0 0 1
    outer loop
      vertex -99.1522 -36.7654 1.5
      vertex 99.1522 -36.7654 1.5
      vertex 0 34 1.5
    endloop
  endfacet
  facet normal 0 0 1
    outer loop
      vertex 99.1522 -36.7654 1.5
      vertex -99.1522 -36.7654 1.5
      vertex 99.268 -37 1.5
    endloop
  endfacet
  facet normal 0 0 1
    outer loop
      vertex -99.268 -37 1.5
      vertex 99.268 -37 1.5
      vertex -99.1522 -36.7654 1.5
    endloop
  endfacet
  facet normal 0 0 1
    outer loop
      vertex 99.268 -37 1.5
      vertex -99.268 -37 1.5
      vertex 99.4133 -37.2175 1.5
    endloop
  endfacet
  facet normal 0 0 1
    outer loop
      vertex -99.4133 -37.2175 1.5
      vertex 99.4133 -37.2175 1.5
      vertex -99.268 -37 1.5
    endloop
  endfacet
  facet normal 0 0 1
    outer loop
      vertex -99.0681 -36.5176 1.5
      vertex 0 34 1.5
      vertex -0.261052 34.0171 1.5
    endloop
  endfacet
  facet normal 0 0 1
    outer loop
      vertex -99.0171 -36.2611 1.5
      vertex -0.261052 34.0171 1.5
      vertex -0.517637 34.0681 1.5
    endloop
  endfacet
  facet normal 0 0 1
    outer loop
      vertex -99 -36 1.5
      vertex -0.517637 34.0681 1.5
      vertex -0.765367 34.1522 1.5
    endloop
  endfacet
  facet normal 0 0 1
    outer loop
      vertex -99 -36 1.5
      vertex -0.765367 34.1522 1.5
      vertex -1 34.2679 1.5
    endloop
  endfacet
  facet normal 0 0 1
    outer loop
      vertex -99 -36 1.5
      vertex -1 34.2679 1.5
      vertex -1.21752 34.4133 1.5
    endloop
  endfacet
  facet normal 0 0 1
    outer loop
      vertex -99 -36 1.5
      vertex -1.98289 35.7389 1.5
      vertex -2 36 1.5
    endloop
  endfacet
  facet normal 0 0 1
    outer loop
      vertex -99 -36 1.5
      vertex -1.93185 35.4824 1.5
      vertex -1.98289 35.7389 1.5
    endloop
  endfacet
  facet normal 0 0 1
    outer loop
      vertex -99 -36 1.5
      vertex -1.84776 35.2346 1.5
      vertex -1.93185 35.4824 1.5
    endloop
  endfacet
  facet normal 0 0 1
    outer loop
      vertex -99 -36 1.5
      vertex -1.73205 35 1.5
      vertex -1.84776 35.2346 1.5
    endloop
  endfacet
  facet normal 0 0 1
    outer loop
      vertex -99 -36 1.5
      vertex -1.58671 34.7825 1.5
      vertex -1.73205 35 1.5
    endloop
  endfacet
  facet normal 0 0 1
    outer loop
      vertex -99 -36 1.5
      vertex -1.41421 34.5858 1.5
      vertex -1.58671 34.7825 1.5
    endloop
  endfacet
  facet normal 0 0 1
    outer loop
      vertex -99 -36 1.5
      vertex -1.21752 34.4133 1.5
      vertex -1.41421 34.5858 1.5
    endloop
  endfacet
  facet normal 0 0 1
    outer loop
      vertex -0.517637 34.0681 1.5
      vertex -99 -36 1.5
      vertex -99.0171 -36.2611 1.5
    endloop
  endfacet
  facet normal 0 0 1
    outer loop
      vertex -0.261052 34.0171 1.5
      vertex -99.0171 -36.2611 1.5
      vertex -99.0681 -36.5176 1.5
    endloop
  endfacet
  facet normal 0 0 1
    outer loop
      vertex 0 34 1.5
      vertex -99.0681 -36.5176 1.5
      vertex -99.1522 -36.7654 1.5
    endloop
  endfacet
  facet normal 0 0 1
    outer loop
      vertex 99.4133 -37.2175 1.5
      vertex -99.4133 -37.2175 1.5
      vertex 99.5858 -37.4142 1.5
    endloop
  endfacet
  facet normal 0 0 1
    outer loop
      vertex -99.5858 -37.4142 1.5
      vertex 99.5858 -37.4142 1.5
      vertex -99.4133 -37.2175 1.5
    endloop
  endfacet
  facet normal 0 0 1
    outer loop
      vertex 99.5858 -37.4142 1.5
      vertex -99.5858 -37.4142 1.5
      vertex 99.7825 -37.5867 1.5
    endloop
  endfacet
  facet normal 0 0 1
    outer loop
      vertex -99.7825 -37.5867 1.5
      vertex 99.7825 -37.5867 1.5
      vertex -99.5858 -37.4142 1.5
    endloop
  endfacet
  facet normal 0 0 1
    outer loop
      vertex 99.7825 -37.5867 1.5
      vertex -99.7825 -37.5867 1.5
      vertex 110 -45 1.5
    endloop
  endfacet
  facet normal -0 0 1
    outer loop
      vertex -100 -37.732 1.5
      vertex 110 -45 1.5
      vertex -99.7825 -37.5867 1.5
    endloop
  endfacet
  facet normal 0 0 1
    outer loop
      vertex -110 -45 1.5
      vertex -100 -37.732 1.5
      vertex -100.235 -37.8478 1.5
    endloop
  endfacet
  facet normal 0 0 1
    outer loop
      vertex -110 -45 1.5
      vertex -100.235 -37.8478 1.5
      vertex -100.482 -37.9319 1.5
    endloop
  endfacet
  facet normal 0 0 1
    outer loop
      vertex -110 -45 1.5
      vertex -100.482 -37.9319 1.5
      vertex -100.739 -37.9829 1.5
    endloop
  endfacet
  facet normal 0 0 1
    outer loop
      vertex -110 -45 1.5
      vertex -100.739 -37.9829 1.5
      vertex -101 -38 1.5
    endloop
  endfacet
  facet normal 0 0 1
    outer loop
      vertex -102.983 -35.7389 1.5
      vertex -110 -45 1.5
      vertex -103 -36 1.5
    endloop
  endfacet
  facet normal 0 0 1
    outer loop
      vertex -100 -37.732 1.5
      vertex -110 -45 1.5
      vertex 110 -45 1.5
    endloop
  endfacet
  facet normal 0 0 1
    outer loop
      vertex -101.261 -37.9829 1.5
      vertex -110 -45 1.5
      vertex -101 -38 1.5
    endloop
  endfacet
  facet normal 0 0 1
    outer loop
      vertex -101.518 -37.9319 1.5
      vertex -110 -45 1.5
      vertex -101.261 -37.9829 1.5
    endloop
  endfacet
  facet normal 0 0 1
    outer loop
      vertex -101.765 -37.8478 1.5
      vertex -110 -45 1.5
      vertex -101.518 -37.9319 1.5
    endloop
  endfacet
  facet normal 0 0 1
    outer loop
      vertex -102 -37.732 1.5
      vertex -110 -45 1.5
      vertex -101.765 -37.8478 1.5
    endloop
  endfacet
  facet normal 0 0 1
    outer loop
      vertex -102.218 -37.5867 1.5
      vertex -110 -45 1.5
      vertex -102 -37.732 1.5
    endloop
  endfacet
  facet normal 0 0 1
    outer loop
      vertex -102.414 -37.4142 1.5
      vertex -110 -45 1.5
      vertex -102.218 -37.5867 1.5
    endloop
  endfacet
  facet normal 0 0 1
    outer loop
      vertex -102.587 -37.2175 1.5
      vertex -110 -45 1.5
      vertex -102.414 -37.4142 1.5
    endloop
  endfacet
  facet normal 0 0 1
    outer loop
      vertex -102.732 -37 1.5
      vertex -110 -45 1.5
      vertex -102.587 -37.2175 1.5
    endloop
  endfacet
  facet normal 0 0 1
    outer loop
      vertex -102.848 -36.7654 1.5
      vertex -110 -45 1.5
      vertex -102.732 -37 1.5
    endloop
  endfacet
  facet normal 0 0 1
    outer loop
      vertex -102.932 -36.5176 1.5
      vertex -110 -45 1.5
      vertex -102.848 -36.7654 1.5
    endloop
  endfacet
  facet normal 0 0 1
    outer loop
      vertex -102.983 -36.2611 1.5
      vertex -110 -45 1.5
      vertex -102.932 -36.5176 1.5
    endloop
  endfacet
  facet normal 0 0 1
    outer loop
      vertex -103 -36 1.5
      vertex -110 -45 1.5
      vertex -102.983 -36.2611 1.5
    endloop
  endfacet
  facet normal 0 0 -1
    outer loop
      vertex 102.983 -35.7389 -1.5
      vertex 110 -45 -1.5
      vertex 103 -36 -1.5
    endloop
  endfacet
  facet normal 0 0 -1
    outer loop
      vertex 110 -45 -1.5
      vertex 102.983 -36.2611 -1.5
      vertex 103 -36 -1.5
    endloop
  endfacet
  facet normal 0 0 -1
    outer loop
      vertex 110 -45 -1.5
      vertex 102.932 -36.5176 -1.5
      vertex 102.983 -36.2611 -1.5
    endloop
  endfacet
  facet normal 0 0 -1
    outer loop
      vertex 110 -45 -1.5
      vertex 102.848 -36.7654 -1.5
      vertex 102.932 -36.5176 -1.5
    endloop
  endfacet
  facet normal 0 0 -1
    outer loop
      vertex 110 -45 -1.5
      vertex 102.732 -37 -1.5
      vertex 102.848 -36.7654 -1.5
    endloop
  endfacet
  facet normal 0 0 -1
    outer loop
      vertex 110 -45 -1.5
      vertex 102.587 -37.2175 -1.5
      vertex 102.732 -37 -1.5
    endloop
  endfacet
  facet normal 0 0 -1
    outer loop
      vertex 110 -45 -1.5
      vertex 102.414 -37.4142 -1.5
      vertex 102.587 -37.2175 -1.5
    endloop
  endfacet
  facet normal 0 0 -1
    outer loop
      vertex 110 -45 -1.5
      vertex 102.218 -37.5867 -1.5
      vertex 102.414 -37.4142 -1.5
    endloop
  endfacet
  facet normal 0 0 -1
    outer loop
      vertex 110 -45 -1.5
      vertex 102 -37.732 -1.5
      vertex 102.218 -37.5867 -1.5
    endloop
  endfacet
  facet normal 0 0 -1
    outer loop
      vertex 110 -45 -1.5
      vertex 101.765 -37.8478 -1.5
      vertex 102 -37.732 -1.5
    endloop
  endfacet
  facet normal 0 0 -1
    outer loop
      vertex 110 -45 -1.5
      vertex 101.518 -37.9319 -1.5
      vertex 101.765 -37.8478 -1.5
    endloop
  endfacet
  facet normal 0 0 -1
    outer loop
      vertex 110 -45 -1.5
      vertex 101.261 -37.9829 -1.5
      vertex 101.518 -37.9319 -1.5
    endloop
  endfacet
  facet normal 0 0 -1
    outer loop
      vertex 110 -45 -1.5
      vertex 101 -38 -1.5
      vertex 101.261 -37.9829 -1.5
    endloop
  endfacet
  facet normal 0 0 -1
    outer loop
      vertex 110 -45 -1.5
      vertex 100.739 -37.9829 -1.5
      vertex 101 -38 -1.5
    endloop
  endfacet
  facet normal 0 0 -1
    outer loop
      vertex 110 -45 -1.5
      vertex 100.482 -37.9319 -1.5
      vertex 100.739 -37.9829 -1.5
    endloop
  endfacet
  facet normal 0 0 -1
    outer loop
      vertex 110 -45 -1.5
      vertex 100.235 -37.8478 -1.5
      vertex 100.482 -37.9319 -1.5
    endloop
  endfacet
  facet normal 0 0 -1
    outer loop
      vertex 110 -45 -1.5
      vertex 100 -37.732 -1.5
      vertex 100.235 -37.8478 -1.5
    endloop
  endfacet
  facet normal 0 0 -1
    outer loop
      vertex 110 -45 -1.5
      vertex 99.7825 -37.5867 -1.5
      vertex 100 -37.732 -1.5
    endloop
  endfacet
  facet normal 0 0 -1
    outer loop
      vertex 0.517637 34.0681 -1.5
      vertex 99 -36 -1.5
      vertex 99.0171 -36.2611 -1.5
    endloop
  endfacet
  facet normal 0 0 -1
    outer loop
      vertex 0.261052 34.0171 -1.5
      vertex 99.0171 -36.2611 -1.5
      vertex 99.0681 -36.5176 -1.5
    endloop
  endfacet
  facet normal 0 0 -1
    outer loop
      vertex 0 34 -1.5
      vertex 99.0681 -36.5176 -1.5
      vertex 99.1522 -36.7654 -1.5
    endloop
  endfacet
  facet normal 0 0 -1
    outer loop
      vertex -99.1522 -36.7654 -1.5
      vertex 99.1522 -36.7654 -1.5
      vertex 99.268 -37 -1.5
    endloop
  endfacet
  facet normal 0 0 -1
    outer loop
      vertex -99.268 -37 -1.5
      vertex 99.268 -37 -1.5
      vertex 99.4133 -37.2175 -1.5
    endloop
  endfacet
  facet normal 0 0 -1
    outer loop
      vertex -99.4133 -37.2175 -1.5
      vertex 99.4133 -37.2175 -1.5
      vertex 99.5858 -37.4142 -1.5
    endloop
  endfacet
  facet normal 0 0 -1
    outer loop
      vertex -99.5858 -37.4142 -1.5
      vertex 99.5858 -37.4142 -1.5
      vertex 99.7825 -37.5867 -1.5
    endloop
  endfacet
  facet normal 0 0 -1
    outer loop
      vertex 99 -36 -1.5
      vertex 1.98289 35.7389 -1.5
      vertex 2 36 -1.5
    endloop
  endfacet
  facet normal 0 0 -1
    outer loop
      vertex 99 -36 -1.5
      vertex 1.93185 35.4824 -1.5
      vertex 1.98289 35.7389 -1.5
    endloop
  endfacet
  facet normal 0 0 -1
    outer loop
      vertex 99 -36 -1.5
      vertex 1.84776 35.2346 -1.5
      vertex 1.93185 35.4824 -1.5
    endloop
  endfacet
  facet normal 0 0 -1
    outer loop
      vertex 99 -36 -1.5
      vertex 1.73205 35 -1.5
      vertex 1.84776 35.2346 -1.5
    endloop
  endfacet
  facet normal 0 0 -1
    outer loop
      vertex 99 -36 -1.5
      vertex 1.58671 34.7825 -1.5
      vertex 1.73205 35 -1.5
    endloop
  endfacet
  facet normal 0 0 -1
    outer loop
      vertex 99 -36 -1.5
      vertex 1.41421 34.5858 -1.5
      vertex 1.58671 34.7825 -1.5
    endloop
  endfacet
  facet normal 0 0 -1
    outer loop
      vertex 99 -36 -1.5
      vertex 1.21752 34.4133 -1.5
      vertex 1.41421 34.5858 -1.5
    endloop
  endfacet
  facet normal 0 0 -1
    outer loop
      vertex 99 -36 -1.5
      vertex 1 34.2679 -1.5
      vertex 1.21752 34.4133 -1.5
    endloop
  endfacet
  facet normal 0 0 -1
    outer loop
      vertex 99 -36 -1.5
      vertex 0.765367 34.1522 -1.5
      vertex 1 34.2679 -1.5
    endloop
  endfacet
  facet normal 0 0 -1
    outer loop
      vertex -99.7825 -37.5867 -1.5
      vertex 99.7825 -37.5867 -1.5
      vertex 110 -45 -1.5
    endloop
  endfacet
  facet normal 0 0 -1
    outer loop
      vertex 99 -36 -1.5
      vertex 0.517637 34.0681 -1.5
      vertex 0.765367 34.1522 -1.5
    endloop
  endfacet
  facet normal 0 0 -1
    outer loop
      vertex 99.0171 -36.2611 -1.5
      vertex 0.261052 34.0171 -1.5
      vertex 0.517637 34.0681 -1.5
    endloop
  endfacet
  facet normal 0 0 -1
    outer loop
      vertex 99.0681 -36.5176 -1.5
      vertex 0 34 -1.5
      vertex 0.261052 34.0171 -1.5
    endloop
  endfacet
  facet normal 0 0 -1
    outer loop
      vertex 99.1522 -36.7654 -1.5
      vertex -99.1522 -36.7654 -1.5
      vertex 0 34 -1.5
    endloop
  endfacet
  facet normal 0 -0 -1
    outer loop
      vertex -99.0681 -36.5176 -1.5
      vertex 0 34 -1.5
      vertex -99.1522 -36.7654 -1.5
    endloop
  endfacet
  facet normal -0 0 -1
    outer loop
      vertex 0 34 -1.5
      vertex -99.0681 -36.5176 -1.5
      vertex -0.261052 34.0171 -1.5
    endloop
  endfacet
  facet normal 0 -0 -1
    outer loop
      vertex -99.0171 -36.2611 -1.5
      vertex -0.261052 34.0171 -1.5
      vertex -99.0681 -36.5176 -1.5
    endloop
  endfacet
  facet normal -0 0 -1
    outer loop
      vertex -0.261052 34.0171 -1.5
      vertex -99.0171 -36.2611 -1.5
      vertex -0.517637 34.0681 -1.5
    endloop
  endfacet
  facet normal 0 0 -1
    outer loop
      vertex -99.4133 -34.7825 -1.5
      vertex -1.58671 34.7825 -1.5
      vertex -99.268 -35 -1.5
    endloop
  endfacet
  facet normal -0 0 -1
    outer loop
      vertex -1.41421 34.5858 -1.5
      vertex -99.268 -35 -1.5
      vertex -1.58671 34.7825 -1.5
    endloop
  endfacet
  facet normal 0 0 -1
    outer loop
      vertex -99.268 -35 -1.5
      vertex -1.41421 34.5858 -1.5
      vertex -99.1522 -35.2346 -1.5
    endloop
  endfacet
  facet normal -0 0 -1
    outer loop
      vertex -1.21752 34.4133 -1.5
      vertex -99.1522 -35.2346 -1.5
      vertex -1.41421 34.5858 -1.5
    endloop
  endfacet
  facet normal 0 0 -1
    outer loop
      vertex -99.1522 -35.2346 -1.5
      vertex -1.21752 34.4133 -1.5
      vertex -99.0681 -35.4824 -1.5
    endloop
  endfacet
  facet normal -0 0 -1
    outer loop
      vertex -1 34.2679 -1.5
      vertex -99.0681 -35.4824 -1.5
      vertex -1.21752 34.4133 -1.5
    endloop
  endfacet
  facet normal 0 0 -1
    outer loop
      vertex -99.0681 -35.4824 -1.5
      vertex -1 34.2679 -1.5
      vertex -99.0171 -35.7389 -1.5
    endloop
  endfacet
  facet normal 0 -0 -1
    outer loop
      vertex -99 -36 -1.5
      vertex -0.517637 34.0681 -1.5
      vertex -99.0171 -36.2611 -1.5
    endloop
  endfacet
  facet normal -0 0 -1
    outer loop
      vertex -0.765367 34.1522 -1.5
      vertex -99.0171 -35.7389 -1.5
      vertex -1 34.2679 -1.5
    endloop
  endfacet
  facet normal 0 0 -1
    outer loop
      vertex -99.0171 -35.7389 -1.5
      vertex -0.765367 34.1522 -1.5
      vertex -99 -36 -1.5
    endloop
  endfacet
  facet normal -0 0 -1
    outer loop
      vertex -0.517637 34.0681 -1.5
      vertex -99 -36 -1.5
      vertex -0.765367 34.1522 -1.5
    endloop
  endfacet
  facet normal 0 0 -1
    outer loop
      vertex 99.268 -37 -1.5
      vertex -99.268 -37 -1.5
      vertex -99.1522 -36.7654 -1.5
    endloop
  endfacet
  facet normal 0 0 -1
    outer loop
      vertex 99.4133 -37.2175 -1.5
      vertex -99.4133 -37.2175 -1.5
      vertex -99.268 -37 -1.5
    endloop
  endfacet
  facet normal 0 0 -1
    outer loop
      vertex 99.5858 -37.4142 -1.5
      vertex -99.5858 -37.4142 -1.5
      vertex -99.4133 -37.2175 -1.5
    endloop
  endfacet
  facet normal 0 0 -1
    outer loop
      vertex 99.7825 -37.5867 -1.5
      vertex -99.7825 -37.5867 -1.5
      vertex -99.5858 -37.4142 -1.5
    endloop
  endfacet
  facet normal 0 0 -1
    outer loop
      vertex 110 -45 -1.5
      vertex -100 -37.732 -1.5
      vertex -99.7825 -37.5867 -1.5
    endloop
  endfacet
  facet normal 0 0 -1
    outer loop
      vertex -110 -45 -1.5
      vertex -100 -37.732 -1.5
      vertex 110 -45 -1.5
    endloop
  endfacet
  facet normal 0 0 -1
    outer loop
      vertex -100 -37.732 -1.5
      vertex -110 -45 -1.5
      vertex -100.235 -37.8478 -1.5
    endloop
  endfacet
  facet normal 0 0 -1
    outer loop
      vertex -100.235 -37.8478 -1.5
      vertex -110 -45 -1.5
      vertex -100.482 -37.9319 -1.5
    endloop
  endfacet
  facet normal 0 0 -1
    outer loop
      vertex -100.482 -37.9319 -1.5
      vertex -110 -45 -1.5
      vertex -100.739 -37.9829 -1.5
    endloop
  endfacet
  facet normal -0 0 -1
    outer loop
      vertex -102.983 -36.2611 -1.5
      vertex -110 -45 -1.5
      vertex -103 -36 -1.5
    endloop
  endfacet
  facet normal -0 0 -1
    outer loop
      vertex -102.932 -36.5176 -1.5
      vertex -110 -45 -1.5
      vertex -102.983 -36.2611 -1.5
    endloop
  endfacet
  facet normal -0 0 -1
    outer loop
      vertex -102.848 -36.7654 -1.5
      vertex -110 -45 -1.5
      vertex -102.932 -36.5176 -1.5
    endloop
  endfacet
  facet normal -0 0 -1
    outer loop
      vertex -102.732 -37 -1.5
      vertex -110 -45 -1.5
      vertex -102.848 -36.7654 -1.5
    endloop
  endfacet
  facet normal -0 0 -1
    outer loop
      vertex -102.587 -37.2175 -1.5
      vertex -110 -45 -1.5
      vertex -102.732 -37 -1.5
    endloop
  endfacet
  facet normal -0 0 -1
    outer loop
      vertex -102.414 -37.4142 -1.5
      vertex -110 -45 -1.5
      vertex -102.587 -37.2175 -1.5
    endloop
  endfacet
  facet normal -0 0 -1
    outer loop
      vertex -102.218 -37.5867 -1.5
      vertex -110 -45 -1.5
      vertex -102.414 -37.4142 -1.5
    endloop
  endfacet
  facet normal -0 0 -1
    outer loop
      vertex -102 -37.732 -1.5
      vertex -110 -45 -1.5
      vertex -102.218 -37.5867 -1.5
    endloop
  endfacet
  facet normal -0 0 -1
    outer loop
      vertex -101.765 -37.8478 -1.5
      vertex -110 -45 -1.5
      vertex -102 -37.732 -1.5
    endloop
  endfacet
  facet normal -0 0 -1
    outer loop
      vertex -101.518 -37.9319 -1.5
      vertex -110 -45 -1.5
      vertex -101.765 -37.8478 -1.5
    endloop
  endfacet
  facet normal -0 0 -1
    outer loop
      vertex -101.261 -37.9829 -1.5
      vertex -110 -45 -1.5
      vertex -101.518 -37.9319 -1.5
    endloop
  endfacet
  facet normal -0 0 -1
    outer loop
      vertex -101 -38 -1.5
      vertex -110 -45 -1.5
      vertex -101.261 -37.9829 -1.5
    endloop
  endfacet
  facet normal 0 0 -1
    outer loop
      vertex -100.739 -37.9829 -1.5
      vertex -110 -45 -1.5
      vertex -101 -38 -1.5
    endloop
  endfacet
  facet normal 0 0 -1
    outer loop
      vertex 102.932 -35.4824 -1.5
      vertex 110 -45 -1.5
      vertex 102.983 -35.7389 -1.5
    endloop
  endfacet
  facet normal 0 0 -1
    outer loop
      vertex 102.848 -35.2346 -1.5
      vertex 110 -45 -1.5
      vertex 102.932 -35.4824 -1.5
    endloop
  endfacet
  facet normal 0 0 -1
    outer loop
      vertex 102.732 -35 -1.5
      vertex 110 -45 -1.5
      vertex 102.848 -35.2346 -1.5
    endloop
  endfacet
  facet normal 0 0 -1
    outer loop
      vertex 110 -45 -1.5
      vertex 102.732 -35 -1.5
      vertex 110 45 -1.5
    endloop
  endfacet
  facet normal 0 0 -1
    outer loop
      vertex 102.587 -34.7825 -1.5
      vertex 110 45 -1.5
      vertex 102.732 -35 -1.5
    endloop
  endfacet
  facet normal 0 0 -1
    outer loop
      vertex 102.414 -34.5858 -1.5
      vertex 110 45 -1.5
      vertex 102.587 -34.7825 -1.5
    endloop
  endfacet
  facet normal 0 0 -1
    outer loop
      vertex 102.218 -34.4133 -1.5
      vertex 110 45 -1.5
      vertex 102.414 -34.5858 -1.5
    endloop
  endfacet
  facet normal 0 0 -1
    outer loop
      vertex 102 -34.2679 -1.5
      vertex 110 45 -1.5
      vertex 102.218 -34.4133 -1.5
    endloop
  endfacet
  facet normal 0 0 -1
    outer loop
      vertex 101.765 -34.1522 -1.5
      vertex 110 45 -1.5
      vertex 102 -34.2679 -1.5
    endloop
  endfacet
  facet normal 0 0 -1
    outer loop
      vertex 101.518 -34.0681 -1.5
      vertex 110 45 -1.5
      vertex 101.765 -34.1522 -1.5
    endloop
  endfacet
  facet normal 0 0 -1
    outer loop
      vertex 101.261 -34.0171 -1.5
      vertex 110 45 -1.5
      vertex 101.518 -34.0681 -1.5
    endloop
  endfacet
  facet normal 0 0 -1
    outer loop
      vertex 101 -34 -1.5
      vertex 110 45 -1.5
      vertex 101.261 -34.0171 -1.5
    endloop
  endfacet
  facet normal 0 0 -1
    outer loop
      vertex 100.739 -34.0171 -1.5
      vertex 110 45 -1.5
      vertex 101 -34 -1.5
    endloop
  endfacet
  facet normal 0 0 -1
    outer loop
      vertex 100.482 -34.0681 -1.5
      vertex 110 45 -1.5
      vertex 100.739 -34.0171 -1.5
    endloop
  endfacet
  facet normal 0 0 -1
    outer loop
      vertex 100.235 -34.1522 -1.5
      vertex 110 45 -1.5
      vertex 100.482 -34.0681 -1.5
    endloop
  endfacet
  facet normal 0 0 -1
    outer loop
      vertex 100 -34.2679 -1.5
      vertex 110 45 -1.5
      vertex 100.235 -34.1522 -1.5
    endloop
  endfacet
  facet normal 0 0 -1
    outer loop
      vertex 99.7825 -34.4133 -1.5
      vertex 110 45 -1.5
      vertex 100 -34.2679 -1.5
    endloop
  endfacet
  facet normal 0 0 -1
    outer loop
      vertex 99.5858 -34.5858 -1.5
      vertex 110 45 -1.5
      vertex 99.7825 -34.4133 -1.5
    endloop
  endfacet
  facet normal 0 0 -1
    outer loop
      vertex 2 36 -1.5
      vertex 99.5858 -34.5858 -1.5
      vertex 99.4133 -34.7825 -1.5
    endloop
  endfacet
  facet normal 0 0 -1
    outer loop
      vertex 2 36 -1.5
      vertex 99.4133 -34.7825 -1.5
      vertex 99.268 -35 -1.5
    endloop
  endfacet
  facet normal 0 0 -1
    outer loop
      vertex 2 36 -1.5
      vertex 99.268 -35 -1.5
      vertex 99.1522 -35.2346 -1.5
    endloop
  endfacet
  facet normal 0 0 -1
    outer loop
      vertex 2 36 -1.5
      vertex 99.1522 -35.2346 -1.5
      vertex 99.0681 -35.4824 -1.5
    endloop
  endfacet
  facet normal 0 0 -1
    outer loop
      vertex 2 36 -1.5
      vertex 99.0681 -35.4824 -1.5
      vertex 99.0171 -35.7389 -1.5
    endloop
  endfacet
  facet normal 0 0 -1
    outer loop
      vertex 2 36 -1.5
      vertex 99.0171 -35.7389 -1.5
      vertex 99 -36 -1.5
    endloop
  endfacet
  facet normal 0 0 -1
    outer loop
      vertex 99.5858 -34.5858 -1.5
      vertex 2 36 -1.5
      vertex 110 45 -1.5
    endloop
  endfacet
  facet normal 0 0 -1
    outer loop
      vertex 1.98289 36.2611 -1.5
      vertex 110 45 -1.5
      vertex 2 36 -1.5
    endloop
  endfacet
  facet normal 0 0 -1
    outer loop
      vertex 1.93185 36.5176 -1.5
      vertex 110 45 -1.5
      vertex 1.98289 36.2611 -1.5
    endloop
  endfacet
  facet normal 0 0 -1
    outer loop
      vertex 1.84776 36.7654 -1.5
      vertex 110 45 -1.5
      vertex 1.93185 36.5176 -1.5
    endloop
  endfacet
  facet normal 0 0 -1
    outer loop
      vertex 1.73205 37 -1.5
      vertex 110 45 -1.5
      vertex 1.84776 36.7654 -1.5
    endloop
  endfacet
  facet normal 0 0 -1
    outer loop
      vertex 1.58671 37.2175 -1.5
      vertex 110 45 -1.5
      vertex 1.73205 37 -1.5
    endloop
  endfacet
  facet normal 0 0 -1
    outer loop
      vertex 1.41421 37.4142 -1.5
      vertex 110 45 -1.5
      vertex 1.58671 37.2175 -1.5
    endloop
  endfacet
  facet normal 0 0 -1
    outer loop
      vertex 1.21752 37.5867 -1.5
      vertex 110 45 -1.5
      vertex 1.41421 37.4142 -1.5
    endloop
  endfacet
  facet normal 0 0 -1
    outer loop
      vertex 1 37.732 -1.5
      vertex 110 45 -1.5
      vertex 1.21752 37.5867 -1.5
    endloop
  endfacet
  facet normal 0 0 -1
    outer loop
      vertex 0.765367 37.8478 -1.5
      vertex 110 45 -1.5
      vertex 1 37.732 -1.5
    endloop
  endfacet
  facet normal 0 0 -1
    outer loop
      vertex 0.517637 37.9319 -1.5
      vertex 110 45 -1.5
      vertex 0.765367 37.8478 -1.5
    endloop
  endfacet
  facet normal 0 0 -1
    outer loop
      vertex 0.261052 37.9829 -1.5
      vertex 110 45 -1.5
      vertex 0.517637 37.9319 -1.5
    endloop
  endfacet
  facet normal 0 0 -1
    outer loop
      vertex 0 38 -1.5
      vertex 110 45 -1.5
      vertex 0.261052 37.9829 -1.5
    endloop
  endfacet
  facet normal -0 0 -1
    outer loop
      vertex -1.58671 34.7825 -1.5
      vertex -99.4133 -34.7825 -1.5
      vertex -1.73205 35 -1.5
    endloop
  endfacet
  facet normal 0 0 -1
    outer loop
      vertex -99.5858 -34.5858 -1.5
      vertex -1.73205 35 -1.5
      vertex -99.4133 -34.7825 -1.5
    endloop
  endfacet
  facet normal -0 0 -1
    outer loop
      vertex -1.73205 35 -1.5
      vertex -99.5858 -34.5858 -1.5
      vertex -1.84776 35.2346 -1.5
    endloop
  endfacet
  facet normal 0 0 -1
    outer loop
      vertex -110 45 -1.5
      vertex -1.84776 35.2346 -1.5
      vertex -99.5858 -34.5858 -1.5
    endloop
  endfacet
  facet normal 0 0 -1
    outer loop
      vertex -1.84776 35.2346 -1.5
      vertex -110 45 -1.5
      vertex -1.93185 35.4824 -1.5
    endloop
  endfacet
  facet normal 0 0 -1
    outer loop
      vertex -1.93185 35.4824 -1.5
      vertex -110 45 -1.5
      vertex -1.98289 35.7389 -1.5
    endloop
  endfacet
  facet normal 0 0 -1
    outer loop
      vertex -1.98289 35.7389 -1.5
      vertex -110 45 -1.5
      vertex -2 36 -1.5
    endloop
  endfacet
  facet normal 0 0 -1
    outer loop
      vertex -2 36 -1.5
      vertex -110 45 -1.5
      vertex -1.98289 36.2611 -1.5
    endloop
  endfacet
  facet normal 0 0 -1
    outer loop
      vertex -1.98289 36.2611 -1.5
      vertex -110 45 -1.5
      vertex -1.93185 36.5176 -1.5
    endloop
  endfacet
  facet normal 0 0 -1
    outer loop
      vertex -1.93185 36.5176 -1.5
      vertex -110 45 -1.5
      vertex -1.84776 36.7654 -1.5
    endloop
  endfacet
  facet normal 0 0 -1
    outer loop
      vertex -1.84776 36.7654 -1.5
      vertex -110 45 -1.5
      vertex -1.73205 37 -1.5
    endloop
  endfacet
  facet normal 0 0 -1
    outer loop
      vertex -1.73205 37 -1.5
      vertex -110 45 -1.5
      vertex -1.58671 37.2175 -1.5
    endloop
  endfacet
  facet normal 0 0 -1
    outer loop
      vertex -1.58671 37.2175 -1.5
      vertex -110 45 -1.5
      vertex -1.41421 37.4142 -1.5
    endloop
  endfacet
  facet normal 0 0 -1
    outer loop
      vertex -110 45 -1.5
      vertex -99.5858 -34.5858 -1.5
      vertex -99.7825 -34.4133 -1.5
    endloop
  endfacet
  facet normal 0 0 -1
    outer loop
      vertex -110 45 -1.5
      vertex -99.7825 -34.4133 -1.5
      vertex -100 -34.2679 -1.5
    endloop
  endfacet
  facet normal 0 0 -1
    outer loop
      vertex -110 45 -1.5
      vertex -100 -34.2679 -1.5
      vertex -100.235 -34.1522 -1.5
    endloop
  endfacet
  facet normal 0 0 -1
    outer loop
      vertex -110 45 -1.5
      vertex -100.235 -34.1522 -1.5
      vertex -100.482 -34.0681 -1.5
    endloop
  endfacet
  facet normal 0 0 -1
    outer loop
      vertex -110 45 -1.5
      vertex -100.482 -34.0681 -1.5
      vertex -100.739 -34.0171 -1.5
    endloop
  endfacet
  facet normal 0 0 -1
    outer loop
      vertex -110 45 -1.5
      vertex -100.739 -34.0171 -1.5
      vertex -101 -34 -1.5
    endloop
  endfacet
  facet normal 0 0 -1
    outer loop
      vertex -110 45 -1.5
      vertex -101 -34 -1.5
      vertex -101.261 -34.0171 -1.5
    endloop
  endfacet
  facet normal 0 0 -1
    outer loop
      vertex -110 45 -1.5
      vertex -101.261 -34.0171 -1.5
      vertex -101.518 -34.0681 -1.5
    endloop
  endfacet
  facet normal 0 0 -1
    outer loop
      vertex -110 45 -1.5
      vertex -101.518 -34.0681 -1.5
      vertex -101.765 -34.1522 -1.5
    endloop
  endfacet
  facet normal 0 0 -1
    outer loop
      vertex -110 45 -1.5
      vertex -101.765 -34.1522 -1.5
      vertex -102 -34.2679 -1.5
    endloop
  endfacet
  facet normal 0 0 -1
    outer loop
      vertex -110 45 -1.5
      vertex -102 -34.2679 -1.5
      vertex -102.218 -34.4133 -1.5
    endloop
  endfacet
  facet normal 0 0 -1
    outer loop
      vertex -110 -45 -1.5
      vertex -102.983 -35.7389 -1.5
      vertex -103 -36 -1.5
    endloop
  endfacet
  facet normal 0 0 -1
    outer loop
      vertex -110 -45 -1.5
      vertex -102.932 -35.4824 -1.5
      vertex -102.983 -35.7389 -1.5
    endloop
  endfacet
  facet normal 0 0 -1
    outer loop
      vertex -110 -45 -1.5
      vertex -102.848 -35.2346 -1.5
      vertex -102.932 -35.4824 -1.5
    endloop
  endfacet
  facet normal 0 0 -1
    outer loop
      vertex -110 -45 -1.5
      vertex -102.732 -35 -1.5
      vertex -102.848 -35.2346 -1.5
    endloop
  endfacet
  facet normal 0 0 -1
    outer loop
      vertex -110 45 -1.5
      vertex -102.732 -35 -1.5
      vertex -110 -45 -1.5
    endloop
  endfacet
  facet normal 0 0 -1
    outer loop
      vertex 0 38 -1.5
      vertex -110 45 -1.5
      vertex 110 45 -1.5
    endloop
  endfacet
  facet normal 0 0 -1
    outer loop
      vertex -0.261052 37.9829 -1.5
      vertex -110 45 -1.5
      vertex 0 38 -1.5
    endloop
  endfacet
  facet normal 0 0 -1
    outer loop
      vertex -0.517637 37.9319 -1.5
      vertex -110 45 -1.5
      vertex -0.261052 37.9829 -1.5
    endloop
  endfacet
  facet normal 0 0 -1
    outer loop
      vertex -0.765367 37.8478 -1.5
      vertex -110 45 -1.5
      vertex -0.517637 37.9319 -1.5
    endloop
  endfacet
  facet normal 0 0 -1
    outer loop
      vertex -1 37.732 -1.5
      vertex -110 45 -1.5
      vertex -0.765367 37.8478 -1.5
    endloop
  endfacet
  facet normal 0 0 -1
    outer loop
      vertex -1.21752 37.5867 -1.5
      vertex -110 45 -1.5
      vertex -1 37.732 -1.5
    endloop
  endfacet
  facet normal 0 0 -1
    outer loop
      vertex -1.41421 37.4142 -1.5
      vertex -110 45 -1.5
      vertex -1.21752 37.5867 -1.5
    endloop
  endfacet
  facet normal 0 0 -1
    outer loop
      vertex -102.414 -34.5858 -1.5
      vertex -110 45 -1.5
      vertex -102.218 -34.4133 -1.5
    endloop
  endfacet
  facet normal 0 0 -1
    outer loop
      vertex -102.587 -34.7825 -1.5
      vertex -110 45 -1.5
      vertex -102.414 -34.5858 -1.5
    endloop
  endfacet
  facet normal 0 0 -1
    outer loop
      vertex -102.732 -35 -1.5
      vertex -110 45 -1.5
      vertex -102.587 -34.7825 -1.5
    endloop
  endfacet
  facet normal -1 0 0
    outer loop
      vertex -110 -45 -1.5
      vertex -110 45 1.5
      vertex -110 45 -1.5
    endloop
  endfacet
  facet normal -1 -0 0
    outer loop
      vertex -110 45 1.5
      vertex -110 -45 -1.5
      vertex -110 -45 1.5
    endloop
  endfacet
  facet normal 0 1 -0
    outer loop
      vertex 110 45 -1.5
      vertex -110 45 1.5
      vertex 110 45 1.5
    endloop
  endfacet
  facet normal 0 1 0
    outer loop
      vertex -110 45 1.5
      vertex 110 45 -1.5
      vertex -110 45 -1.5
    endloop
  endfacet
  facet normal 0 -1 0
    outer loop
      vertex -110 -45 -1.5
      vertex 110 -45 1.5
      vertex -110 -45 1.5
    endloop
  endfacet
  facet normal 0 -1 -0
    outer loop
      vertex 110 -45 1.5
      vertex -110 -45 -1.5
      vertex 110 -45 -1.5
    endloop
  endfacet
  facet normal -0.322315 0.946632 0
    outer loop
      vertex -100.235 -37.8478 -1.5
      vertex -100.482 -37.9319 1.5
      vertex -100.235 -37.8478 1.5
    endloop
  endfacet
  facet normal -0.322315 0.946632 0
    outer loop
      vertex -100.482 -37.9319 1.5
      vertex -100.235 -37.8478 -1.5
      vertex -100.482 -37.9319 -1.5
    endloop
  endfacet
  facet normal -0.980801 -0.195013 0
    outer loop
      vertex -99.0171 -35.7389 -1.5
      vertex -99.0681 -35.4824 1.5
      vertex -99.0681 -35.4824 -1.5
    endloop
  endfacet
  facet normal -0.980801 -0.195013 0
    outer loop
      vertex -99.0681 -35.4824 1.5
      vertex -99.0171 -35.7389 -1.5
      vertex -99.0171 -35.7389 1.5
    endloop
  endfacet
  facet normal -0.997862 -0.0653521 0
    outer loop
      vertex -99 -36 -1.5
      vertex -99.0171 -35.7389 1.5
      vertex -99.0171 -35.7389 -1.5
    endloop
  endfacet
  facet normal -0.997862 -0.0653521 0
    outer loop
      vertex -99.0171 -35.7389 1.5
      vertex -99 -36 -1.5
      vertex -99 -36 1.5
    endloop
  endfacet
  facet normal -0.831521 0.555494 0
    outer loop
      vertex -99.4133 -37.2175 -1.5
      vertex -99.268 -37 1.5
      vertex -99.268 -37 -1.5
    endloop
  endfacet
  facet normal -0.831521 0.555494 0
    outer loop
      vertex -99.268 -37 1.5
      vertex -99.4133 -37.2175 -1.5
      vertex -99.4133 -37.2175 1.5
    endloop
  endfacet
  facet normal -0.997862 0.0653521 0
    outer loop
      vertex -99.0171 -36.2611 -1.5
      vertex -99 -36 1.5
      vertex -99 -36 -1.5
    endloop
  endfacet
  facet normal -0.997862 0.0653521 0
    outer loop
      vertex -99 -36 1.5
      vertex -99.0171 -36.2611 -1.5
      vertex -99.0171 -36.2611 1.5
    endloop
  endfacet
  facet normal 0.0653771 0.997861 -0
    outer loop
      vertex -101 -38 -1.5
      vertex -101.261 -37.9829 1.5
      vertex -101 -38 1.5
    endloop
  endfacet
  facet normal 0.0653771 0.997861 0
    outer loop
      vertex -101.261 -37.9829 1.5
      vertex -101 -38 -1.5
      vertex -101.261 -37.9829 -1.5
    endloop
  endfacet
  facet normal 0.660671 0.750676 -0
    outer loop
      vertex -102.218 -37.5867 -1.5
      vertex -102.414 -37.4142 1.5
      vertex -102.218 -37.5867 1.5
    endloop
  endfacet
  facet normal 0.660671 0.750676 0
    outer loop
      vertex -102.414 -37.4142 1.5
      vertex -102.218 -37.5867 -1.5
      vertex -102.414 -37.4142 -1.5
    endloop
  endfacet
  facet normal 0.980801 -0.195013 0
    outer loop
      vertex -102.983 -35.7389 1.5
      vertex -102.932 -35.4824 -1.5
      vertex -102.932 -35.4824 1.5
    endloop
  endfacet
  facet normal 0.980801 -0.195013 0
    outer loop
      vertex -102.932 -35.4824 -1.5
      vertex -102.983 -35.7389 1.5
      vertex -102.983 -35.7389 -1.5
    endloop
  endfacet
  facet normal -0.751842 0.659343 0
    outer loop
      vertex -99.5858 -37.4142 -1.5
      vertex -99.4133 -37.2175 1.5
      vertex -99.4133 -37.2175 -1.5
    endloop
  endfacet
  facet normal -0.751842 0.659343 0
    outer loop
      vertex -99.4133 -37.2175 1.5
      vertex -99.5858 -37.4142 -1.5
      vertex -99.5858 -37.4142 1.5
    endloop
  endfacet
  facet normal 0.896405 0.443235 0
    outer loop
      vertex -102.732 -37 1.5
      vertex -102.848 -36.7654 -1.5
      vertex -102.848 -36.7654 1.5
    endloop
  endfacet
  facet normal 0.896405 0.443235 0
    outer loop
      vertex -102.848 -36.7654 -1.5
      vertex -102.732 -37 1.5
      vertex -102.732 -37 -1.5
    endloop
  endfacet
  facet normal 0.554876 -0.831933 0
    outer loop
      vertex -102.218 -34.4133 -1.5
      vertex -102 -34.2679 1.5
      vertex -102.218 -34.4133 1.5
    endloop
  endfacet
  facet normal 0.554876 -0.831933 0
    outer loop
      vertex -102 -34.2679 1.5
      vertex -102.218 -34.4133 -1.5
      vertex -102 -34.2679 -1.5
    endloop
  endfacet
  facet normal 0.947066 0.321039 0
    outer loop
      vertex -102.848 -36.7654 1.5
      vertex -102.932 -36.5176 -1.5
      vertex -102.932 -36.5176 1.5
    endloop
  endfacet
  facet normal 0.947066 0.321039 0
    outer loop
      vertex -102.932 -36.5176 -1.5
      vertex -102.848 -36.7654 1.5
      vertex -102.848 -36.7654 -1.5
    endloop
  endfacet
  facet normal -0.0653771 -0.997861 0
    outer loop
      vertex -101 -34 -1.5
      vertex -100.739 -34.0171 1.5
      vertex -101 -34 1.5
    endloop
  endfacet
  facet normal -0.0653771 -0.997861 -0
    outer loop
      vertex -100.739 -34.0171 1.5
      vertex -101 -34 -1.5
      vertex -100.739 -34.0171 -1.5
    endloop
  endfacet
  facet normal 0.442015 0.897008 -0
    outer loop
      vertex -101.765 -37.8478 -1.5
      vertex -102 -37.732 1.5
      vertex -101.765 -37.8478 1.5
    endloop
  endfacet
  facet normal 0.442015 0.897008 0
    outer loop
      vertex -102 -37.732 1.5
      vertex -101.765 -37.8478 -1.5
      vertex -102 -37.732 -1.5
    endloop
  endfacet
  facet normal 0.750895 0.660421 0
    outer loop
      vertex -102.414 -37.4142 1.5
      vertex -102.587 -37.2175 -1.5
      vertex -102.587 -37.2175 1.5
    endloop
  endfacet
  facet normal 0.750895 0.660421 0
    outer loop
      vertex -102.587 -37.2175 -1.5
      vertex -102.414 -37.4142 1.5
      vertex -102.414 -37.4142 -1.5
    endloop
  endfacet
  facet normal -0.831521 -0.555494 0
    outer loop
      vertex -99.268 -35 -1.5
      vertex -99.4133 -34.7825 1.5
      vertex -99.4133 -34.7825 -1.5
    endloop
  endfacet
  facet normal -0.831521 -0.555494 0
    outer loop
      vertex -99.4133 -34.7825 1.5
      vertex -99.268 -35 -1.5
      vertex -99.268 -35 1.5
    endloop
  endfacet
  facet normal 0.554612 0.832109 -0
    outer loop
      vertex -102 -37.732 -1.5
      vertex -102.218 -37.5867 1.5
      vertex -102 -37.732 1.5
    endloop
  endfacet
  facet normal 0.554612 0.832109 0
    outer loop
      vertex -102.218 -37.5867 1.5
      vertex -102 -37.732 -1.5
      vertex -102.218 -37.5867 -1.5
    endloop
  endfacet
  facet normal -0.555494 0.831521 0
    outer loop
      vertex -99.7825 -37.5867 -1.5
      vertex -100 -37.732 1.5
      vertex -99.7825 -37.5867 1.5
    endloop
  endfacet
  facet normal -0.555494 0.831521 0
    outer loop
      vertex -100 -37.732 1.5
      vertex -99.7825 -37.5867 -1.5
      vertex -100 -37.732 -1.5
    endloop
  endfacet
  facet normal 0.896405 -0.443235 0
    outer loop
      vertex -102.848 -35.2346 1.5
      vertex -102.732 -35 -1.5
      vertex -102.732 -35 1.5
    endloop
  endfacet
  facet normal 0.896405 -0.443235 0
    outer loop
      vertex -102.732 -35 -1.5
      vertex -102.848 -35.2346 1.5
      vertex -102.848 -35.2346 -1.5
    endloop
  endfacet
  facet normal 0.660671 -0.750676 0
    outer loop
      vertex -102.414 -34.5858 -1.5
      vertex -102.218 -34.4133 1.5
      vertex -102.414 -34.5858 1.5
    endloop
  endfacet
  facet normal 0.660671 -0.750676 0
    outer loop
      vertex -102.218 -34.4133 1.5
      vertex -102.414 -34.5858 -1.5
      vertex -102.218 -34.4133 -1.5
    endloop
  endfacet
  facet normal -0.322315 -0.946632 0
    outer loop
      vertex -100.482 -34.0681 -1.5
      vertex -100.235 -34.1522 1.5
      vertex -100.482 -34.0681 1.5
    endloop
  endfacet
  facet normal -0.322315 -0.946632 -0
    outer loop
      vertex -100.235 -34.1522 1.5
      vertex -100.482 -34.0681 -1.5
      vertex -100.235 -34.1522 -1.5
    endloop
  endfacet
  facet normal 0.997887 0.0649716 0
    outer loop
      vertex -102.983 -36.2611 1.5
      vertex -103 -36 -1.5
      vertex -103 -36 1.5
    endloop
  endfacet
  facet normal 0.997887 0.0649716 0
    outer loop
      vertex -103 -36 -1.5
      vertex -102.983 -36.2611 1.5
      vertex -102.983 -36.2611 -1.5
    endloop
  endfacet
  facet normal 0.980801 0.195013 0
    outer loop
      vertex -102.932 -36.5176 1.5
      vertex -102.983 -36.2611 -1.5
      vertex -102.983 -36.2611 1.5
    endloop
  endfacet
  facet normal 0.980801 0.195013 0
    outer loop
      vertex -102.983 -36.2611 -1.5
      vertex -102.932 -36.5176 1.5
      vertex -102.932 -36.5176 -1.5
    endloop
  endfacet
  facet normal 0.322315 0.946632 -0
    outer loop
      vertex -101.518 -37.9319 -1.5
      vertex -101.765 -37.8478 1.5
      vertex -101.518 -37.9319 1.5
    endloop
  endfacet
  facet normal 0.322315 0.946632 0
    outer loop
      vertex -101.765 -37.8478 1.5
      vertex -101.518 -37.9319 -1.5
      vertex -101.765 -37.8478 -1.5
    endloop
  endfacet
  facet normal 0.441708 -0.897159 0
    outer loop
      vertex -102 -34.2679 -1.5
      vertex -101.765 -34.1522 1.5
      vertex -102 -34.2679 1.5
    endloop
  endfacet
  facet normal 0.441708 -0.897159 0
    outer loop
      vertex -101.765 -34.1522 1.5
      vertex -102 -34.2679 -1.5
      vertex -101.765 -34.1522 -1.5
    endloop
  endfacet
  facet normal -0.441708 -0.897159 0
    outer loop
      vertex -100.235 -34.1522 -1.5
      vertex -100 -34.2679 1.5
      vertex -100.235 -34.1522 1.5
    endloop
  endfacet
  facet normal -0.441708 -0.897159 -0
    outer loop
      vertex -100 -34.2679 1.5
      vertex -100.235 -34.1522 -1.5
      vertex -100 -34.2679 -1.5
    endloop
  endfacet
  facet normal -0.194648 -0.980873 0
    outer loop
      vertex -100.739 -34.0171 -1.5
      vertex -100.482 -34.0681 1.5
      vertex -100.739 -34.0171 1.5
    endloop
  endfacet
  facet normal -0.194648 -0.980873 -0
    outer loop
      vertex -100.482 -34.0681 1.5
      vertex -100.739 -34.0171 -1.5
      vertex -100.482 -34.0681 -1.5
    endloop
  endfacet
  facet normal 0.194648 -0.980873 0
    outer loop
      vertex -101.518 -34.0681 -1.5
      vertex -101.261 -34.0171 1.5
      vertex -101.518 -34.0681 1.5
    endloop
  endfacet
  facet normal 0.194648 -0.980873 0
    outer loop
      vertex -101.261 -34.0171 1.5
      vertex -101.518 -34.0681 -1.5
      vertex -101.261 -34.0171 -1.5
    endloop
  endfacet
  facet normal -0.896709 -0.442621 0
    outer loop
      vertex -99.1522 -35.2346 -1.5
      vertex -99.268 -35 1.5
      vertex -99.268 -35 -1.5
    endloop
  endfacet
  facet normal -0.896709 -0.442621 0
    outer loop
      vertex -99.268 -35 1.5
      vertex -99.1522 -35.2346 -1.5
      vertex -99.1522 -35.2346 1.5
    endloop
  endfacet
  facet normal -0.980801 0.195013 0
    outer loop
      vertex -99.0681 -36.5176 -1.5
      vertex -99.0171 -36.2611 1.5
      vertex -99.0171 -36.2611 -1.5
    endloop
  endfacet
  facet normal -0.980801 0.195013 0
    outer loop
      vertex -99.0171 -36.2611 1.5
      vertex -99.0681 -36.5176 -1.5
      vertex -99.0681 -36.5176 1.5
    endloop
  endfacet
  facet normal -0.555758 -0.831344 0
    outer loop
      vertex -100 -34.2679 -1.5
      vertex -99.7825 -34.4133 1.5
      vertex -100 -34.2679 1.5
    endloop
  endfacet
  facet normal -0.555758 -0.831344 -0
    outer loop
      vertex -99.7825 -34.4133 1.5
      vertex -100 -34.2679 -1.5
      vertex -99.7825 -34.4133 -1.5
    endloop
  endfacet
  facet normal -0.0653771 0.997861 0
    outer loop
      vertex -100.739 -37.9829 -1.5
      vertex -101 -38 1.5
      vertex -100.739 -37.9829 1.5
    endloop
  endfacet
  facet normal -0.0653771 0.997861 0
    outer loop
      vertex -101 -38 1.5
      vertex -100.739 -37.9829 -1.5
      vertex -101 -38 -1.5
    endloop
  endfacet
  facet normal -0.194648 0.980873 0
    outer loop
      vertex -100.482 -37.9319 -1.5
      vertex -100.739 -37.9829 1.5
      vertex -100.482 -37.9319 1.5
    endloop
  endfacet
  facet normal -0.194648 0.980873 0
    outer loop
      vertex -100.739 -37.9829 1.5
      vertex -100.482 -37.9319 -1.5
      vertex -100.739 -37.9829 -1.5
    endloop
  endfacet
  facet normal 0.322315 -0.946632 0
    outer loop
      vertex -101.765 -34.1522 -1.5
      vertex -101.518 -34.0681 1.5
      vertex -101.765 -34.1522 1.5
    endloop
  endfacet
  facet normal 0.322315 -0.946632 0
    outer loop
      vertex -101.518 -34.0681 1.5
      vertex -101.765 -34.1522 -1.5
      vertex -101.518 -34.0681 -1.5
    endloop
  endfacet
  facet normal -0.659343 -0.751842 0
    outer loop
      vertex -99.7825 -34.4133 -1.5
      vertex -99.5858 -34.5858 1.5
      vertex -99.7825 -34.4133 1.5
    endloop
  endfacet
  facet normal -0.659343 -0.751842 -0
    outer loop
      vertex -99.5858 -34.5858 1.5
      vertex -99.7825 -34.4133 -1.5
      vertex -99.5858 -34.5858 -1.5
    endloop
  endfacet
  facet normal 0.194648 0.980873 -0
    outer loop
      vertex -101.261 -37.9829 -1.5
      vertex -101.518 -37.9319 1.5
      vertex -101.261 -37.9829 1.5
    endloop
  endfacet
  facet normal 0.194648 0.980873 0
    outer loop
      vertex -101.518 -37.9319 1.5
      vertex -101.261 -37.9829 -1.5
      vertex -101.518 -37.9319 -1.5
    endloop
  endfacet
  facet normal -0.94695 -0.321382 0
    outer loop
      vertex -99.0681 -35.4824 -1.5
      vertex -99.1522 -35.2346 1.5
      vertex -99.1522 -35.2346 -1.5
    endloop
  endfacet
  facet normal -0.94695 -0.321382 0
    outer loop
      vertex -99.1522 -35.2346 1.5
      vertex -99.0681 -35.4824 -1.5
      vertex -99.0681 -35.4824 1.5
    endloop
  endfacet
  facet normal -0.751842 -0.659343 0
    outer loop
      vertex -99.4133 -34.7825 -1.5
      vertex -99.5858 -34.5858 1.5
      vertex -99.5858 -34.5858 -1.5
    endloop
  endfacet
  facet normal -0.751842 -0.659343 0
    outer loop
      vertex -99.5858 -34.5858 1.5
      vertex -99.4133 -34.7825 -1.5
      vertex -99.4133 -34.7825 1.5
    endloop
  endfacet
  facet normal -0.896709 0.442621 0
    outer loop
      vertex -99.268 -37 -1.5
      vertex -99.1522 -36.7654 1.5
      vertex -99.1522 -36.7654 -1.5
    endloop
  endfacet
  facet normal -0.896709 0.442621 0
    outer loop
      vertex -99.1522 -36.7654 1.5
      vertex -99.268 -37 -1.5
      vertex -99.268 -37 1.5
    endloop
  endfacet
  facet normal 0.750895 -0.660421 0
    outer loop
      vertex -102.587 -34.7825 1.5
      vertex -102.414 -34.5858 -1.5
      vertex -102.414 -34.5858 1.5
    endloop
  endfacet
  facet normal 0.750895 -0.660421 0
    outer loop
      vertex -102.414 -34.5858 -1.5
      vertex -102.587 -34.7825 1.5
      vertex -102.587 -34.7825 -1.5
    endloop
  endfacet
  facet normal 0.997887 -0.0649716 0
    outer loop
      vertex -103 -36 1.5
      vertex -102.983 -35.7389 -1.5
      vertex -102.983 -35.7389 1.5
    endloop
  endfacet
  facet normal 0.997887 -0.0649716 0
    outer loop
      vertex -102.983 -35.7389 -1.5
      vertex -103 -36 1.5
      vertex -103 -36 -1.5
    endloop
  endfacet
  facet normal -0.94695 0.321382 0
    outer loop
      vertex -99.1522 -36.7654 -1.5
      vertex -99.0681 -36.5176 1.5
      vertex -99.0681 -36.5176 -1.5
    endloop
  endfacet
  facet normal -0.94695 0.321382 0
    outer loop
      vertex -99.0681 -36.5176 1.5
      vertex -99.1522 -36.7654 -1.5
      vertex -99.1522 -36.7654 1.5
    endloop
  endfacet
  facet normal 0.0653771 -0.997861 0
    outer loop
      vertex -101.261 -34.0171 -1.5
      vertex -101 -34 1.5
      vertex -101.261 -34.0171 1.5
    endloop
  endfacet
  facet normal 0.0653771 -0.997861 0
    outer loop
      vertex -101 -34 1.5
      vertex -101.261 -34.0171 -1.5
      vertex -101 -34 -1.5
    endloop
  endfacet
  facet normal -0.442015 0.897008 0
    outer loop
      vertex -100 -37.732 -1.5
      vertex -100.235 -37.8478 1.5
      vertex -100 -37.732 1.5
    endloop
  endfacet
  facet normal -0.442015 0.897008 0
    outer loop
      vertex -100.235 -37.8478 1.5
      vertex -100 -37.732 -1.5
      vertex -100.235 -37.8478 -1.5
    endloop
  endfacet
  facet normal 0.947066 -0.321039 0
    outer loop
      vertex -102.932 -35.4824 1.5
      vertex -102.848 -35.2346 -1.5
      vertex -102.848 -35.2346 1.5
    endloop
  endfacet
  facet normal 0.947066 -0.321039 0
    outer loop
      vertex -102.848 -35.2346 -1.5
      vertex -102.932 -35.4824 1.5
      vertex -102.932 -35.4824 -1.5
    endloop
  endfacet
  facet normal -0.659343 0.751842 0
    outer loop
      vertex -99.5858 -37.4142 -1.5
      vertex -99.7825 -37.5867 1.5
      vertex -99.5858 -37.4142 1.5
    endloop
  endfacet
  facet normal -0.659343 0.751842 0
    outer loop
      vertex -99.7825 -37.5867 1.5
      vertex -99.5858 -37.4142 -1.5
      vertex -99.7825 -37.5867 -1.5
    endloop
  endfacet
  facet normal 0.83205 0.5547 0
    outer loop
      vertex -102.587 -37.2175 1.5
      vertex -102.732 -37 -1.5
      vertex -102.732 -37 1.5
    endloop
  endfacet
  facet normal 0.83205 0.5547 0
    outer loop
      vertex -102.732 -37 -1.5
      vertex -102.587 -37.2175 1.5
      vertex -102.587 -37.2175 -1.5
    endloop
  endfacet
  facet normal 0.83205 -0.5547 0
    outer loop
      vertex -102.732 -35 1.5
      vertex -102.587 -34.7825 -1.5
      vertex -102.587 -34.7825 1.5
    endloop
  endfacet
  facet normal 0.83205 -0.5547 0
    outer loop
      vertex -102.587 -34.7825 -1.5
      vertex -102.732 -35 1.5
      vertex -102.732 -35 -1.5
    endloop
  endfacet
  facet normal -0.0653771 0.997861 0
    outer loop
      vertex 101.261 -37.9829 -1.5
      vertex 101 -38 1.5
      vertex 101.261 -37.9829 1.5
    endloop
  endfacet
  facet normal -0.0653771 0.997861 0
    outer loop
      vertex 101 -38 1.5
      vertex 101.261 -37.9829 -1.5
      vertex 101 -38 -1.5
    endloop
  endfacet
  facet normal -0.980801 -0.195013 0
    outer loop
      vertex 102.983 -35.7389 -1.5
      vertex 102.932 -35.4824 1.5
      vertex 102.932 -35.4824 -1.5
    endloop
  endfacet
  facet normal -0.980801 -0.195013 0
    outer loop
      vertex 102.932 -35.4824 1.5
      vertex 102.983 -35.7389 -1.5
      vertex 102.983 -35.7389 1.5
    endloop
  endfacet
  facet normal -0.997887 -0.0649716 0
    outer loop
      vertex 103 -36 -1.5
      vertex 102.983 -35.7389 1.5
      vertex 102.983 -35.7389 -1.5
    endloop
  endfacet
  facet normal -0.997887 -0.0649716 0
    outer loop
      vertex 102.983 -35.7389 1.5
      vertex 103 -36 -1.5
      vertex 103 -36 1.5
    endloop
  endfacet
  facet normal -0.980801 0.195013 0
    outer loop
      vertex 102.932 -36.5176 -1.5
      vertex 102.983 -36.2611 1.5
      vertex 102.983 -36.2611 -1.5
    endloop
  endfacet
  facet normal -0.980801 0.195013 0
    outer loop
      vertex 102.983 -36.2611 1.5
      vertex 102.932 -36.5176 -1.5
      vertex 102.932 -36.5176 1.5
    endloop
  endfacet
  facet normal 0.896709 0.442621 0
    outer loop
      vertex 99.268 -37 1.5
      vertex 99.1522 -36.7654 -1.5
      vertex 99.1522 -36.7654 1.5
    endloop
  endfacet
  facet normal 0.896709 0.442621 0
    outer loop
      vertex 99.1522 -36.7654 -1.5
      vertex 99.268 -37 1.5
      vertex 99.268 -37 -1.5
    endloop
  endfacet
  facet normal 0.441708 -0.897159 0
    outer loop
      vertex 100 -34.2679 -1.5
      vertex 100.235 -34.1522 1.5
      vertex 100 -34.2679 1.5
    endloop
  endfacet
  facet normal 0.441708 -0.897159 0
    outer loop
      vertex 100.235 -34.1522 1.5
      vertex 100 -34.2679 -1.5
      vertex 100.235 -34.1522 -1.5
    endloop
  endfacet
  facet normal -0.947066 0.321039 0
    outer loop
      vertex 102.848 -36.7654 -1.5
      vertex 102.932 -36.5176 1.5
      vertex 102.932 -36.5176 -1.5
    endloop
  endfacet
  facet normal -0.947066 0.321039 0
    outer loop
      vertex 102.932 -36.5176 1.5
      vertex 102.848 -36.7654 -1.5
      vertex 102.848 -36.7654 1.5
    endloop
  endfacet
  facet normal 0.322315 0.946632 -0
    outer loop
      vertex 100.482 -37.9319 -1.5
      vertex 100.235 -37.8478 1.5
      vertex 100.482 -37.9319 1.5
    endloop
  endfacet
  facet normal 0.322315 0.946632 0
    outer loop
      vertex 100.235 -37.8478 1.5
      vertex 100.482 -37.9319 -1.5
      vertex 100.235 -37.8478 -1.5
    endloop
  endfacet
  facet normal 0.442015 0.897008 -0
    outer loop
      vertex 100.235 -37.8478 -1.5
      vertex 100 -37.732 1.5
      vertex 100.235 -37.8478 1.5
    endloop
  endfacet
  facet normal 0.442015 0.897008 0
    outer loop
      vertex 100 -37.732 1.5
      vertex 100.235 -37.8478 -1.5
      vertex 100 -37.732 -1.5
    endloop
  endfacet
  facet normal 0.194648 0.980873 -0
    outer loop
      vertex 100.739 -37.9829 -1.5
      vertex 100.482 -37.9319 1.5
      vertex 100.739 -37.9829 1.5
    endloop
  endfacet
  facet normal 0.194648 0.980873 0
    outer loop
      vertex 100.482 -37.9319 1.5
      vertex 100.739 -37.9829 -1.5
      vertex 100.482 -37.9319 -1.5
    endloop
  endfacet
  facet normal 0.659343 0.751842 -0
    outer loop
      vertex 99.7825 -37.5867 -1.5
      vertex 99.5858 -37.4142 1.5
      vertex 99.7825 -37.5867 1.5
    endloop
  endfacet
  facet normal 0.659343 0.751842 0
    outer loop
      vertex 99.5858 -37.4142 1.5
      vertex 99.7825 -37.5867 -1.5
      vertex 99.5858 -37.4142 -1.5
    endloop
  endfacet
  facet normal -0.441708 -0.897159 0
    outer loop
      vertex 101.765 -34.1522 -1.5
      vertex 102 -34.2679 1.5
      vertex 101.765 -34.1522 1.5
    endloop
  endfacet
  facet normal -0.441708 -0.897159 -0
    outer loop
      vertex 102 -34.2679 1.5
      vertex 101.765 -34.1522 -1.5
      vertex 102 -34.2679 -1.5
    endloop
  endfacet
  facet normal 0.555758 -0.831344 0
    outer loop
      vertex 99.7825 -34.4133 -1.5
      vertex 100 -34.2679 1.5
      vertex 99.7825 -34.4133 1.5
    endloop
  endfacet
  facet normal 0.555758 -0.831344 0
    outer loop
      vertex 100 -34.2679 1.5
      vertex 99.7825 -34.4133 -1.5
      vertex 100 -34.2679 -1.5
    endloop
  endfacet
  facet normal -0.896405 -0.443235 0
    outer loop
      vertex 102.848 -35.2346 -1.5
      vertex 102.732 -35 1.5
      vertex 102.732 -35 -1.5
    endloop
  endfacet
  facet normal -0.896405 -0.443235 0
    outer loop
      vertex 102.732 -35 1.5
      vertex 102.848 -35.2346 -1.5
      vertex 102.848 -35.2346 1.5
    endloop
  endfacet
  facet normal 0.0653771 0.997861 -0
    outer loop
      vertex 101 -38 -1.5
      vertex 100.739 -37.9829 1.5
      vertex 101 -38 1.5
    endloop
  endfacet
  facet normal 0.0653771 0.997861 0
    outer loop
      vertex 100.739 -37.9829 1.5
      vertex 101 -38 -1.5
      vertex 100.739 -37.9829 -1.5
    endloop
  endfacet
  facet normal -0.194648 0.980873 0
    outer loop
      vertex 101.518 -37.9319 -1.5
      vertex 101.261 -37.9829 1.5
      vertex 101.518 -37.9319 1.5
    endloop
  endfacet
  facet normal -0.194648 0.980873 0
    outer loop
      vertex 101.261 -37.9829 1.5
      vertex 101.518 -37.9319 -1.5
      vertex 101.261 -37.9829 -1.5
    endloop
  endfacet
  facet normal -0.442015 0.897008 0
    outer loop
      vertex 102 -37.732 -1.5
      vertex 101.765 -37.8478 1.5
      vertex 102 -37.732 1.5
    endloop
  endfacet
  facet normal -0.442015 0.897008 0
    outer loop
      vertex 101.765 -37.8478 1.5
      vertex 102 -37.732 -1.5
      vertex 101.765 -37.8478 -1.5
    endloop
  endfacet
  facet normal -0.322315 0.946632 0
    outer loop
      vertex 101.765 -37.8478 -1.5
      vertex 101.518 -37.9319 1.5
      vertex 101.765 -37.8478 1.5
    endloop
  endfacet
  facet normal -0.322315 0.946632 0
    outer loop
      vertex 101.518 -37.9319 1.5
      vertex 101.765 -37.8478 -1.5
      vertex 101.518 -37.9319 -1.5
    endloop
  endfacet
  facet normal -0.554612 0.832109 0
    outer loop
      vertex 102.218 -37.5867 -1.5
      vertex 102 -37.732 1.5
      vertex 102.218 -37.5867 1.5
    endloop
  endfacet
  facet normal -0.554612 0.832109 0
    outer loop
      vertex 102 -37.732 1.5
      vertex 102.218 -37.5867 -1.5
      vertex 102 -37.732 -1.5
    endloop
  endfacet
  facet normal 0.94695 -0.321382 0
    outer loop
      vertex 99.0681 -35.4824 1.5
      vertex 99.1522 -35.2346 -1.5
      vertex 99.1522 -35.2346 1.5
    endloop
  endfacet
  facet normal 0.94695 -0.321382 0
    outer loop
      vertex 99.1522 -35.2346 -1.5
      vertex 99.0681 -35.4824 1.5
      vertex 99.0681 -35.4824 -1.5
    endloop
  endfacet
  facet normal -0.750895 0.660421 0
    outer loop
      vertex 102.414 -37.4142 -1.5
      vertex 102.587 -37.2175 1.5
      vertex 102.587 -37.2175 -1.5
    endloop
  endfacet
  facet normal -0.750895 0.660421 0
    outer loop
      vertex 102.587 -37.2175 1.5
      vertex 102.414 -37.4142 -1.5
      vertex 102.414 -37.4142 1.5
    endloop
  endfacet
  facet normal -0.83205 -0.5547 0
    outer loop
      vertex 102.732 -35 -1.5
      vertex 102.587 -34.7825 1.5
      vertex 102.587 -34.7825 -1.5
    endloop
  endfacet
  facet normal -0.83205 -0.5547 0
    outer loop
      vertex 102.587 -34.7825 1.5
      vertex 102.732 -35 -1.5
      vertex 102.732 -35 1.5
    endloop
  endfacet
  facet normal 0.555494 0.831521 -0
    outer loop
      vertex 100 -37.732 -1.5
      vertex 99.7825 -37.5867 1.5
      vertex 100 -37.732 1.5
    endloop
  endfacet
  facet normal 0.555494 0.831521 0
    outer loop
      vertex 99.7825 -37.5867 1.5
      vertex 100 -37.732 -1.5
      vertex 99.7825 -37.5867 -1.5
    endloop
  endfacet
  facet normal 0.980801 -0.195013 0
    outer loop
      vertex 99.0171 -35.7389 1.5
      vertex 99.0681 -35.4824 -1.5
      vertex 99.0681 -35.4824 1.5
    endloop
  endfacet
  facet normal 0.980801 -0.195013 0
    outer loop
      vertex 99.0681 -35.4824 -1.5
      vertex 99.0171 -35.7389 1.5
      vertex 99.0171 -35.7389 -1.5
    endloop
  endfacet
  facet normal -0.322315 -0.946632 0
    outer loop
      vertex 101.518 -34.0681 -1.5
      vertex 101.765 -34.1522 1.5
      vertex 101.518 -34.0681 1.5
    endloop
  endfacet
  facet normal -0.322315 -0.946632 -0
    outer loop
      vertex 101.765 -34.1522 1.5
      vertex 101.518 -34.0681 -1.5
      vertex 101.765 -34.1522 -1.5
    endloop
  endfacet
  facet normal -0.997887 0.0649716 0
    outer loop
      vertex 102.983 -36.2611 -1.5
      vertex 103 -36 1.5
      vertex 103 -36 -1.5
    endloop
  endfacet
  facet normal -0.997887 0.0649716 0
    outer loop
      vertex 103 -36 1.5
      vertex 102.983 -36.2611 -1.5
      vertex 102.983 -36.2611 1.5
    endloop
  endfacet
  facet normal 0.322315 -0.946632 0
    outer loop
      vertex 100.235 -34.1522 -1.5
      vertex 100.482 -34.0681 1.5
      vertex 100.235 -34.1522 1.5
    endloop
  endfacet
  facet normal 0.322315 -0.946632 0
    outer loop
      vertex 100.482 -34.0681 1.5
      vertex 100.235 -34.1522 -1.5
      vertex 100.482 -34.0681 -1.5
    endloop
  endfacet
  facet normal -0.750895 -0.660421 0
    outer loop
      vertex 102.587 -34.7825 -1.5
      vertex 102.414 -34.5858 1.5
      vertex 102.414 -34.5858 -1.5
    endloop
  endfacet
  facet normal -0.750895 -0.660421 0
    outer loop
      vertex 102.414 -34.5858 1.5
      vertex 102.587 -34.7825 -1.5
      vertex 102.587 -34.7825 1.5
    endloop
  endfacet
  facet normal -0.554876 -0.831933 0
    outer loop
      vertex 102 -34.2679 -1.5
      vertex 102.218 -34.4133 1.5
      vertex 102 -34.2679 1.5
    endloop
  endfacet
  facet normal -0.554876 -0.831933 -0
    outer loop
      vertex 102.218 -34.4133 1.5
      vertex 102 -34.2679 -1.5
      vertex 102.218 -34.4133 -1.5
    endloop
  endfacet
  facet normal -0.896405 0.443235 0
    outer loop
      vertex 102.732 -37 -1.5
      vertex 102.848 -36.7654 1.5
      vertex 102.848 -36.7654 -1.5
    endloop
  endfacet
  facet normal -0.896405 0.443235 0
    outer loop
      vertex 102.848 -36.7654 1.5
      vertex 102.732 -37 -1.5
      vertex 102.732 -37 1.5
    endloop
  endfacet
  facet normal -0.83205 0.5547 0
    outer loop
      vertex 102.587 -37.2175 -1.5
      vertex 102.732 -37 1.5
      vertex 102.732 -37 -1.5
    endloop
  endfacet
  facet normal -0.83205 0.5547 0
    outer loop
      vertex 102.732 -37 1.5
      vertex 102.587 -37.2175 -1.5
      vertex 102.587 -37.2175 1.5
    endloop
  endfacet
  facet normal 0.751842 -0.659343 0
    outer loop
      vertex 99.4133 -34.7825 1.5
      vertex 99.5858 -34.5858 -1.5
      vertex 99.5858 -34.5858 1.5
    endloop
  endfacet
  facet normal 0.751842 -0.659343 0
    outer loop
      vertex 99.5858 -34.5858 -1.5
      vertex 99.4133 -34.7825 1.5
      vertex 99.4133 -34.7825 -1.5
    endloop
  endfacet
  facet normal 0.194648 -0.980873 0
    outer loop
      vertex 100.482 -34.0681 -1.5
      vertex 100.739 -34.0171 1.5
      vertex 100.482 -34.0681 1.5
    endloop
  endfacet
  facet normal 0.194648 -0.980873 0
    outer loop
      vertex 100.739 -34.0171 1.5
      vertex 100.482 -34.0681 -1.5
      vertex 100.739 -34.0171 -1.5
    endloop
  endfacet
  facet normal 0.0653771 -0.997861 0
    outer loop
      vertex 100.739 -34.0171 -1.5
      vertex 101 -34 1.5
      vertex 100.739 -34.0171 1.5
    endloop
  endfacet
  facet normal 0.0653771 -0.997861 0
    outer loop
      vertex 101 -34 1.5
      vertex 100.739 -34.0171 -1.5
      vertex 101 -34 -1.5
    endloop
  endfacet
  facet normal -0.660671 -0.750676 0
    outer loop
      vertex 102.218 -34.4133 -1.5
      vertex 102.414 -34.5858 1.5
      vertex 102.218 -34.4133 1.5
    endloop
  endfacet
  facet normal -0.660671 -0.750676 -0
    outer loop
      vertex 102.414 -34.5858 1.5
      vertex 102.218 -34.4133 -1.5
      vertex 102.414 -34.5858 -1.5
    endloop
  endfacet
  facet normal 0.94695 0.321382 0
    outer loop
      vertex 99.1522 -36.7654 1.5
      vertex 99.0681 -36.5176 -1.5
      vertex 99.0681 -36.5176 1.5
    endloop
  endfacet
  facet normal 0.94695 0.321382 0
    outer loop
      vertex 99.0681 -36.5176 -1.5
      vertex 99.1522 -36.7654 1.5
      vertex 99.1522 -36.7654 -1.5
    endloop
  endfacet
  facet normal 0.831521 0.555494 0
    outer loop
      vertex 99.4133 -37.2175 1.5
      vertex 99.268 -37 -1.5
      vertex 99.268 -37 1.5
    endloop
  endfacet
  facet normal 0.831521 0.555494 0
    outer loop
      vertex 99.268 -37 -1.5
      vertex 99.4133 -37.2175 1.5
      vertex 99.4133 -37.2175 -1.5
    endloop
  endfacet
  facet normal -0.194648 -0.980873 0
    outer loop
      vertex 101.261 -34.0171 -1.5
      vertex 101.518 -34.0681 1.5
      vertex 101.261 -34.0171 1.5
    endloop
  endfacet
  facet normal -0.194648 -0.980873 -0
    outer loop
      vertex 101.518 -34.0681 1.5
      vertex 101.261 -34.0171 -1.5
      vertex 101.518 -34.0681 -1.5
    endloop
  endfacet
  facet normal 0.980801 0.195013 0
    outer loop
      vertex 99.0681 -36.5176 1.5
      vertex 99.0171 -36.2611 -1.5
      vertex 99.0171 -36.2611 1.5
    endloop
  endfacet
  facet normal 0.980801 0.195013 0
    outer loop
      vertex 99.0171 -36.2611 -1.5
      vertex 99.0681 -36.5176 1.5
      vertex 99.0681 -36.5176 -1.5
    endloop
  endfacet
  facet normal 0.659343 -0.751842 0
    outer loop
      vertex 99.5858 -34.5858 -1.5
      vertex 99.7825 -34.4133 1.5
      vertex 99.5858 -34.5858 1.5
    endloop
  endfacet
  facet normal 0.659343 -0.751842 0
    outer loop
      vertex 99.7825 -34.4133 1.5
      vertex 99.5858 -34.5858 -1.5
      vertex 99.7825 -34.4133 -1.5
    endloop
  endfacet
  facet normal -0.947066 -0.321039 0
    outer loop
      vertex 102.932 -35.4824 -1.5
      vertex 102.848 -35.2346 1.5
      vertex 102.848 -35.2346 -1.5
    endloop
  endfacet
  facet normal -0.947066 -0.321039 0
    outer loop
      vertex 102.848 -35.2346 1.5
      vertex 102.932 -35.4824 -1.5
      vertex 102.932 -35.4824 1.5
    endloop
  endfacet
  facet normal -0.0653771 -0.997861 0
    outer loop
      vertex 101 -34 -1.5
      vertex 101.261 -34.0171 1.5
      vertex 101 -34 1.5
    endloop
  endfacet
  facet normal -0.0653771 -0.997861 -0
    outer loop
      vertex 101.261 -34.0171 1.5
      vertex 101 -34 -1.5
      vertex 101.261 -34.0171 -1.5
    endloop
  endfacet
  facet normal 0.997862 -0.0653521 0
    outer loop
      vertex 99 -36 1.5
      vertex 99.0171 -35.7389 -1.5
      vertex 99.0171 -35.7389 1.5
    endloop
  endfacet
  facet normal 0.997862 -0.0653521 0
    outer loop
      vertex 99.0171 -35.7389 -1.5
      vertex 99 -36 1.5
      vertex 99 -36 -1.5
    endloop
  endfacet
  facet normal 0.751842 0.659343 0
    outer loop
      vertex 99.5858 -37.4142 1.5
      vertex 99.4133 -37.2175 -1.5
      vertex 99.4133 -37.2175 1.5
    endloop
  endfacet
  facet normal 0.751842 0.659343 0
    outer loop
      vertex 99.4133 -37.2175 -1.5
      vertex 99.5858 -37.4142 1.5
      vertex 99.5858 -37.4142 -1.5
    endloop
  endfacet
  facet normal 0.831521 -0.555494 0
    outer loop
      vertex 99.268 -35 1.5
      vertex 99.4133 -34.7825 -1.5
      vertex 99.4133 -34.7825 1.5
    endloop
  endfacet
  facet normal 0.831521 -0.555494 0
    outer loop
      vertex 99.4133 -34.7825 -1.5
      vertex 99.268 -35 1.5
      vertex 99.268 -35 -1.5
    endloop
  endfacet
  facet normal 0.997862 0.0653521 0
    outer loop
      vertex 99.0171 -36.2611 1.5
      vertex 99 -36 -1.5
      vertex 99 -36 1.5
    endloop
  endfacet
  facet normal 0.997862 0.0653521 0
    outer loop
      vertex 99 -36 -1.5
      vertex 99.0171 -36.2611 1.5
      vertex 99.0171 -36.2611 -1.5
    endloop
  endfacet
  facet normal -0.660671 0.750676 0
    outer loop
      vertex 102.414 -37.4142 -1.5
      vertex 102.218 -37.5867 1.5
      vertex 102.414 -37.4142 1.5
    endloop
  endfacet
  facet normal -0.660671 0.750676 0
    outer loop
      vertex 102.218 -37.5867 1.5
      vertex 102.414 -37.4142 -1.5
      vertex 102.218 -37.5867 -1.5
    endloop
  endfacet
  facet normal 0.896709 -0.442621 0
    outer loop
      vertex 99.1522 -35.2346 1.5
      vertex 99.268 -35 -1.5
      vertex 99.268 -35 1.5
    endloop
  endfacet
  facet normal 0.896709 -0.442621 0
    outer loop
      vertex 99.268 -35 -1.5
      vertex 99.1522 -35.2346 1.5
      vertex 99.1522 -35.2346 -1.5
    endloop
  endfacet
  facet normal -0.896845 -0.442344 0
    outer loop
      vertex 1.84776 36.7654 -1.5
      vertex 1.73205 37 1.5
      vertex 1.73205 37 -1.5
    endloop
  endfacet
  facet normal -0.896845 -0.442344 0
    outer loop
      vertex 1.73205 37 1.5
      vertex 1.84776 36.7654 -1.5
      vertex 1.84776 36.7654 1.5
    endloop
  endfacet
  facet normal -0.980771 -0.19516 0
    outer loop
      vertex 1.98289 36.2611 -1.5
      vertex 1.93185 36.5176 1.5
      vertex 1.93185 36.5176 -1.5
    endloop
  endfacet
  facet normal -0.980771 -0.19516 0
    outer loop
      vertex 1.93185 36.5176 1.5
      vertex 1.98289 36.2611 -1.5
      vertex 1.98289 36.2611 1.5
    endloop
  endfacet
  facet normal -0.442571 -0.896734 0
    outer loop
      vertex 0.765367 37.8478 -1.5
      vertex 1 37.732 1.5
      vertex 0.765367 37.8478 1.5
    endloop
  endfacet
  facet normal -0.442571 -0.896734 -0
    outer loop
      vertex 1 37.732 1.5
      vertex 0.765367 37.8478 -1.5
      vertex 1 37.732 -1.5
    endloop
  endfacet
  facet normal 0.980771 0.19516 0
    outer loop
      vertex -1.93185 35.4824 1.5
      vertex -1.98289 35.7389 -1.5
      vertex -1.98289 35.7389 1.5
    endloop
  endfacet
  facet normal 0.980771 0.19516 0
    outer loop
      vertex -1.98289 35.7389 -1.5
      vertex -1.93185 35.4824 1.5
      vertex -1.93185 35.4824 -1.5
    endloop
  endfacet
  facet normal 0.442571 -0.896734 0
    outer loop
      vertex -1 37.732 -1.5
      vertex -0.765367 37.8478 1.5
      vertex -1 37.732 1.5
    endloop
  endfacet
  facet normal 0.442571 -0.896734 0
    outer loop
      vertex -0.765367 37.8478 1.5
      vertex -1 37.732 -1.5
      vertex -0.765367 37.8478 -1.5
    endloop
  endfacet
  facet normal -0.194951 0.980813 0
    outer loop
      vertex 0.517637 34.0681 -1.5
      vertex 0.261052 34.0171 1.5
      vertex 0.517637 34.0681 1.5
    endloop
  endfacet
  facet normal -0.194951 0.980813 0
    outer loop
      vertex 0.261052 34.0171 1.5
      vertex 0.517637 34.0681 -1.5
      vertex 0.261052 34.0171 -1.5
    endloop
  endfacet
  facet normal 0.99786 0.0653902 0
    outer loop
      vertex -1.98289 35.7389 1.5
      vertex -2 36 -1.5
      vertex -2 36 1.5
    endloop
  endfacet
  facet normal 0.99786 0.0653902 0
    outer loop
      vertex -2 36 -1.5
      vertex -1.98289 35.7389 1.5
      vertex -1.98289 35.7389 -1.5
    endloop
  endfacet
  facet normal -0.946961 -0.321348 0
    outer loop
      vertex 1.93185 36.5176 -1.5
      vertex 1.84776 36.7654 1.5
      vertex 1.84776 36.7654 -1.5
    endloop
  endfacet
  facet normal -0.946961 -0.321348 0
    outer loop
      vertex 1.84776 36.7654 1.5
      vertex 1.93185 36.5176 -1.5
      vertex 1.93185 36.5176 1.5
    endloop
  endfacet
  facet normal 0.0653641 -0.997861 0
    outer loop
      vertex -0.261052 37.9829 -1.5
      vertex 0 38 1.5
      vertex -0.261052 37.9829 1.5
    endloop
  endfacet
  facet normal 0.0653641 -0.997861 0
    outer loop
      vertex 0 38 1.5
      vertex -0.261052 37.9829 -1.5
      vertex 0 38 -1.5
    endloop
  endfacet
  facet normal -0.99786 -0.0653902 0
    outer loop
      vertex 2 36 -1.5
      vertex 1.98289 36.2611 1.5
      vertex 1.98289 36.2611 -1.5
    endloop
  endfacet
  facet normal -0.99786 -0.0653902 0
    outer loop
      vertex 1.98289 36.2611 1.5
      vertex 2 36 -1.5
      vertex 2 36 1.5
    endloop
  endfacet
  facet normal 0.555723 0.831368 -0
    outer loop
      vertex -1 34.2679 -1.5
      vertex -1.21752 34.4133 1.5
      vertex -1 34.2679 1.5
    endloop
  endfacet
  facet normal 0.555723 0.831368 0
    outer loop
      vertex -1.21752 34.4133 1.5
      vertex -1 34.2679 -1.5
      vertex -1.21752 34.4133 -1.5
    endloop
  endfacet
  facet normal -0.751842 0.659343 0
    outer loop
      vertex 1.41421 34.5858 -1.5
      vertex 1.58671 34.7825 1.5
      vertex 1.58671 34.7825 -1.5
    endloop
  endfacet
  facet normal -0.751842 0.659343 0
    outer loop
      vertex 1.58671 34.7825 1.5
      vertex 1.41421 34.5858 -1.5
      vertex 1.41421 34.5858 1.5
    endloop
  endfacet
  facet normal 0.946961 0.321348 0
    outer loop
      vertex -1.84776 35.2346 1.5
      vertex -1.93185 35.4824 -1.5
      vertex -1.93185 35.4824 1.5
    endloop
  endfacet
  facet normal 0.946961 0.321348 0
    outer loop
      vertex -1.93185 35.4824 -1.5
      vertex -1.84776 35.2346 1.5
      vertex -1.84776 35.2346 -1.5
    endloop
  endfacet
  facet normal 0.194951 -0.980813 0
    outer loop
      vertex -0.517637 37.9319 -1.5
      vertex -0.261052 37.9829 1.5
      vertex -0.517637 37.9319 1.5
    endloop
  endfacet
  facet normal 0.194951 -0.980813 0
    outer loop
      vertex -0.261052 37.9829 1.5
      vertex -0.517637 37.9319 -1.5
      vertex -0.261052 37.9829 -1.5
    endloop
  endfacet
  facet normal -0.751842 -0.659343 0
    outer loop
      vertex 1.58671 37.2175 -1.5
      vertex 1.41421 37.4142 1.5
      vertex 1.41421 37.4142 -1.5
    endloop
  endfacet
  facet normal -0.751842 -0.659343 0
    outer loop
      vertex 1.41421 37.4142 1.5
      vertex 1.58671 37.2175 -1.5
      vertex 1.58671 37.2175 1.5
    endloop
  endfacet
  facet normal -0.0653641 -0.997861 0
    outer loop
      vertex 0 38 -1.5
      vertex 0.261052 37.9829 1.5
      vertex 0 38 1.5
    endloop
  endfacet
  facet normal -0.0653641 -0.997861 -0
    outer loop
      vertex 0.261052 37.9829 1.5
      vertex 0 38 -1.5
      vertex 0.261052 37.9829 -1.5
    endloop
  endfacet
  facet normal 0.83145 -0.5556 0
    outer loop
      vertex -1.73205 37 1.5
      vertex -1.58671 37.2175 -1.5
      vertex -1.58671 37.2175 1.5
    endloop
  endfacet
  facet normal 0.83145 -0.5556 0
    outer loop
      vertex -1.58671 37.2175 -1.5
      vertex -1.73205 37 1.5
      vertex -1.73205 37 -1.5
    endloop
  endfacet
  facet normal -0.321463 -0.946922 0
    outer loop
      vertex 0.517637 37.9319 -1.5
      vertex 0.765367 37.8478 1.5
      vertex 0.517637 37.9319 1.5
    endloop
  endfacet
  facet normal -0.321463 -0.946922 -0
    outer loop
      vertex 0.765367 37.8478 1.5
      vertex 0.517637 37.9319 -1.5
      vertex 0.765367 37.8478 -1.5
    endloop
  endfacet
  facet normal 0.896845 -0.442344 0
    outer loop
      vertex -1.84776 36.7654 1.5
      vertex -1.73205 37 -1.5
      vertex -1.73205 37 1.5
    endloop
  endfacet
  facet normal 0.896845 -0.442344 0
    outer loop
      vertex -1.73205 37 -1.5
      vertex -1.84776 36.7654 1.5
      vertex -1.84776 36.7654 -1.5
    endloop
  endfacet
  facet normal -0.83145 -0.5556 0
    outer loop
      vertex 1.73205 37 -1.5
      vertex 1.58671 37.2175 1.5
      vertex 1.58671 37.2175 -1.5
    endloop
  endfacet
  facet normal -0.83145 -0.5556 0
    outer loop
      vertex 1.58671 37.2175 1.5
      vertex 1.73205 37 -1.5
      vertex 1.73205 37 1.5
    endloop
  endfacet
  facet normal -0.555459 -0.831544 0
    outer loop
      vertex 1 37.732 -1.5
      vertex 1.21752 37.5867 1.5
      vertex 1 37.732 1.5
    endloop
  endfacet
  facet normal -0.555459 -0.831544 -0
    outer loop
      vertex 1.21752 37.5867 1.5
      vertex 1 37.732 -1.5
      vertex 1.21752 37.5867 -1.5
    endloop
  endfacet
  facet normal -0.946961 0.321348 0
    outer loop
      vertex 1.84776 35.2346 -1.5
      vertex 1.93185 35.4824 1.5
      vertex 1.93185 35.4824 -1.5
    endloop
  endfacet
  facet normal -0.946961 0.321348 0
    outer loop
      vertex 1.93185 35.4824 1.5
      vertex 1.84776 35.2346 -1.5
      vertex 1.84776 35.2346 1.5
    endloop
  endfacet
  facet normal 0.194951 0.980813 -0
    outer loop
      vertex -0.261052 34.0171 -1.5
      vertex -0.517637 34.0681 1.5
      vertex -0.261052 34.0171 1.5
    endloop
  endfacet
  facet normal 0.194951 0.980813 0
    outer loop
      vertex -0.517637 34.0681 1.5
      vertex -0.261052 34.0171 -1.5
      vertex -0.517637 34.0681 -1.5
    endloop
  endfacet
  facet normal -0.896845 0.442344 0
    outer loop
      vertex 1.73205 35 -1.5
      vertex 1.84776 35.2346 1.5
      vertex 1.84776 35.2346 -1.5
    endloop
  endfacet
  facet normal -0.896845 0.442344 0
    outer loop
      vertex 1.84776 35.2346 1.5
      vertex 1.73205 35 -1.5
      vertex 1.73205 35 1.5
    endloop
  endfacet
  facet normal 0.555459 -0.831544 0
    outer loop
      vertex -1.21752 37.5867 -1.5
      vertex -1 37.732 1.5
      vertex -1.21752 37.5867 1.5
    endloop
  endfacet
  facet normal 0.555459 -0.831544 0
    outer loop
      vertex -1 37.732 1.5
      vertex -1.21752 37.5867 -1.5
      vertex -1 37.732 -1.5
    endloop
  endfacet
  facet normal 0.659362 0.751826 -0
    outer loop
      vertex -1.21752 34.4133 -1.5
      vertex -1.41421 34.5858 1.5
      vertex -1.21752 34.4133 1.5
    endloop
  endfacet
  facet normal 0.659362 0.751826 0
    outer loop
      vertex -1.41421 34.5858 1.5
      vertex -1.21752 34.4133 -1.5
      vertex -1.41421 34.5858 -1.5
    endloop
  endfacet
  facet normal -0.659362 -0.751826 0
    outer loop
      vertex 1.21752 37.5867 -1.5
      vertex 1.41421 37.4142 1.5
      vertex 1.21752 37.5867 1.5
    endloop
  endfacet
  facet normal -0.659362 -0.751826 -0
    outer loop
      vertex 1.41421 37.4142 1.5
      vertex 1.21752 37.5867 -1.5
      vertex 1.41421 37.4142 -1.5
    endloop
  endfacet
  facet normal -0.83145 0.5556 0
    outer loop
      vertex 1.58671 34.7825 -1.5
      vertex 1.73205 35 1.5
      vertex 1.73205 35 -1.5
    endloop
  endfacet
  facet normal -0.83145 0.5556 0
    outer loop
      vertex 1.73205 35 1.5
      vertex 1.58671 34.7825 -1.5
      vertex 1.58671 34.7825 1.5
    endloop
  endfacet
  facet normal -0.659362 0.751826 0
    outer loop
      vertex 1.41421 34.5858 -1.5
      vertex 1.21752 34.4133 1.5
      vertex 1.41421 34.5858 1.5
    endloop
  endfacet
  facet normal -0.659362 0.751826 0
    outer loop
      vertex 1.21752 34.4133 1.5
      vertex 1.41421 34.5858 -1.5
      vertex 1.21752 34.4133 -1.5
    endloop
  endfacet
  facet normal 0.83145 0.5556 0
    outer loop
      vertex -1.58671 34.7825 1.5
      vertex -1.73205 35 -1.5
      vertex -1.73205 35 1.5
    endloop
  endfacet
  facet normal 0.83145 0.5556 0
    outer loop
      vertex -1.73205 35 -1.5
      vertex -1.58671 34.7825 1.5
      vertex -1.58671 34.7825 -1.5
    endloop
  endfacet
  facet normal -0.99786 0.0653902 0
    outer loop
      vertex 1.98289 35.7389 -1.5
      vertex 2 36 1.5
      vertex 2 36 -1.5
    endloop
  endfacet
  facet normal -0.99786 0.0653902 0
    outer loop
      vertex 2 36 1.5
      vertex 1.98289 35.7389 -1.5
      vertex 1.98289 35.7389 1.5
    endloop
  endfacet
  facet normal 0.0653641 0.997861 -0
    outer loop
      vertex 0 34 -1.5
      vertex -0.261052 34.0171 1.5
      vertex 0 34 1.5
    endloop
  endfacet
  facet normal 0.0653641 0.997861 0
    outer loop
      vertex -0.261052 34.0171 1.5
      vertex 0 34 -1.5
      vertex -0.261052 34.0171 -1.5
    endloop
  endfacet
  facet normal -0.321463 0.946922 0
    outer loop
      vertex 0.765367 34.1522 -1.5
      vertex 0.517637 34.0681 1.5
      vertex 0.765367 34.1522 1.5
    endloop
  endfacet
  facet normal -0.321463 0.946922 0
    outer loop
      vertex 0.517637 34.0681 1.5
      vertex 0.765367 34.1522 -1.5
      vertex 0.517637 34.0681 -1.5
    endloop
  endfacet
  facet normal -0.555723 0.831368 0
    outer loop
      vertex 1.21752 34.4133 -1.5
      vertex 1 34.2679 1.5
      vertex 1.21752 34.4133 1.5
    endloop
  endfacet
  facet normal -0.555723 0.831368 0
    outer loop
      vertex 1 34.2679 1.5
      vertex 1.21752 34.4133 -1.5
      vertex 1 34.2679 -1.5
    endloop
  endfacet
  facet normal -0.980771 0.19516 0
    outer loop
      vertex 1.93185 35.4824 -1.5
      vertex 1.98289 35.7389 1.5
      vertex 1.98289 35.7389 -1.5
    endloop
  endfacet
  facet normal -0.980771 0.19516 0
    outer loop
      vertex 1.98289 35.7389 1.5
      vertex 1.93185 35.4824 -1.5
      vertex 1.93185 35.4824 1.5
    endloop
  endfacet
  facet normal 0.946961 -0.321348 0
    outer loop
      vertex -1.93185 36.5176 1.5
      vertex -1.84776 36.7654 -1.5
      vertex -1.84776 36.7654 1.5
    endloop
  endfacet
  facet normal 0.946961 -0.321348 0
    outer loop
      vertex -1.84776 36.7654 -1.5
      vertex -1.93185 36.5176 1.5
      vertex -1.93185 36.5176 -1.5
    endloop
  endfacet
  facet normal 0.321463 -0.946922 0
    outer loop
      vertex -0.765367 37.8478 -1.5
      vertex -0.517637 37.9319 1.5
      vertex -0.765367 37.8478 1.5
    endloop
  endfacet
  facet normal 0.321463 -0.946922 0
    outer loop
      vertex -0.517637 37.9319 1.5
      vertex -0.765367 37.8478 -1.5
      vertex -0.517637 37.9319 -1.5
    endloop
  endfacet
  facet normal 0.751842 0.659343 0
    outer loop
      vertex -1.41421 34.5858 1.5
      vertex -1.58671 34.7825 -1.5
      vertex -1.58671 34.7825 1.5
    endloop
  endfacet
  facet normal 0.751842 0.659343 0
    outer loop
      vertex -1.58671 34.7825 -1.5
      vertex -1.41421 34.5858 1.5
      vertex -1.41421 34.5858 -1.5
    endloop
  endfacet
  facet normal 0.751842 -0.659343 0
    outer loop
      vertex -1.58671 37.2175 1.5
      vertex -1.41421 37.4142 -1.5
      vertex -1.41421 37.4142 1.5
    endloop
  endfacet
  facet normal 0.751842 -0.659343 0
    outer loop
      vertex -1.41421 37.4142 -1.5
      vertex -1.58671 37.2175 1.5
      vertex -1.58671 37.2175 -1.5
    endloop
  endfacet
  facet normal 0.896845 0.442344 0
    outer loop
      vertex -1.73205 35 1.5
      vertex -1.84776 35.2346 -1.5
      vertex -1.84776 35.2346 1.5
    endloop
  endfacet
  facet normal 0.896845 0.442344 0
    outer loop
      vertex -1.84776 35.2346 -1.5
      vertex -1.73205 35 1.5
      vertex -1.73205 35 -1.5
    endloop
  endfacet
  facet normal -0.0653641 0.997861 0
    outer loop
      vertex 0.261052 34.0171 -1.5
      vertex 0 34 1.5
      vertex 0.261052 34.0171 1.5
    endloop
  endfacet
  facet normal -0.0653641 0.997861 0
    outer loop
      vertex 0 34 1.5
      vertex 0.261052 34.0171 -1.5
      vertex 0 34 -1.5
    endloop
  endfacet
  facet normal 0.659362 -0.751826 0
    outer loop
      vertex -1.41421 37.4142 -1.5
      vertex -1.21752 37.5867 1.5
      vertex -1.41421 37.4142 1.5
    endloop
  endfacet
  facet normal 0.659362 -0.751826 0
    outer loop
      vertex -1.21752 37.5867 1.5
      vertex -1.41421 37.4142 -1.5
      vertex -1.21752 37.5867 -1.5
    endloop
  endfacet
  facet normal 0.442264 0.896885 -0
    outer loop
      vertex -0.765367 34.1522 -1.5
      vertex -1 34.2679 1.5
      vertex -0.765367 34.1522 1.5
    endloop
  endfacet
  facet normal 0.442264 0.896885 0
    outer loop
      vertex -1 34.2679 1.5
      vertex -0.765367 34.1522 -1.5
      vertex -1 34.2679 -1.5
    endloop
  endfacet
  facet normal -0.194951 -0.980813 0
    outer loop
      vertex 0.261052 37.9829 -1.5
      vertex 0.517637 37.9319 1.5
      vertex 0.261052 37.9829 1.5
    endloop
  endfacet
  facet normal -0.194951 -0.980813 -0
    outer loop
      vertex 0.517637 37.9319 1.5
      vertex 0.261052 37.9829 -1.5
      vertex 0.517637 37.9319 -1.5
    endloop
  endfacet
  facet normal 0.980771 -0.19516 0
    outer loop
      vertex -1.98289 36.2611 1.5
      vertex -1.93185 36.5176 -1.5
      vertex -1.93185 36.5176 1.5
    endloop
  endfacet
  facet normal 0.980771 -0.19516 0
    outer loop
      vertex -1.93185 36.5176 -1.5
      vertex -1.98289 36.2611 1.5
      vertex -1.98289 36.2611 -1.5
    endloop
  endfacet
  facet normal 0.99786 -0.0653902 0
    outer loop
      vertex -2 36 1.5
      vertex -1.98289 36.2611 -1.5
      vertex -1.98289 36.2611 1.5
    endloop
  endfacet
  facet normal 0.99786 -0.0653902 0
    outer loop
      vertex -1.98289 36.2611 -1.5
      vertex -2 36 1.5
      vertex -2 36 -1.5
    endloop
  endfacet
  facet normal -0.442264 0.896885 0
    outer loop
      vertex 1 34.2679 -1.5
      vertex 0.765367 34.1522 1.5
      vertex 1 34.2679 1.5
    endloop
  endfacet
  facet normal -0.442264 0.896885 0
    outer loop
      vertex 0.765367 34.1522 1.5
      vertex 1 34.2679 -1.5
      vertex 0.765367 34.1522 -1.5
    endloop
  endfacet
  facet normal 0.321463 0.946922 -0
    outer loop
      vertex -0.517637 34.0681 -1.5
      vertex -0.765367 34.1522 1.5
      vertex -0.517637 34.0681 1.5
    endloop
  endfacet
  facet normal 0.321463 0.946922 0
    outer loop
      vertex -0.765367 34.1522 1.5
      vertex -0.517637 34.0681 -1.5
      vertex -0.765367 34.1522 -1.5
    endloop
  endfacet
endsolid OpenSCAD_Model
