solid OpenSCAD_Model
  facet normal 0.997859 0.0654063 0
    outer loop
      vertex 36 0 45
      vertex 35.692 4.69894 -45
      vertex 35.692 4.69894 45
    endloop
  endfacet
  facet normal 0.997859 0.0654063 0
    outer loop
      vertex 35.692 4.69894 -45
      vertex 36 0 45
      vertex 36 0 -45
    endloop
  endfacet
  facet normal 0.980785 0.195093 0
    outer loop
      vertex 35.692 4.69894 45
      vertex 34.7733 9.31749 -45
      vertex 34.7733 9.31749 45
    endloop
  endfacet
  facet normal 0.980785 0.195093 0
    outer loop
      vertex 34.7733 9.31749 -45
      vertex 35.692 4.69894 45
      vertex 35.692 4.69894 -45
    endloop
  endfacet
  facet normal 0.946934 0.321427 0
    outer loop
      vertex 34.7733 9.31749 45
      vertex 33.2597 13.7766 -45
      vertex 33.2597 13.7766 45
    endloop
  endfacet
  facet normal 0.946934 0.321427 0
    outer loop
      vertex 33.2597 13.7766 -45
      vertex 34.7733 9.31749 45
      vertex 34.7733 9.31749 -45
    endloop
  endfacet
  facet normal 0.896869 0.442297 0
    outer loop
      vertex 33.2597 13.7766 45
      vertex 31.1769 18 -45
      vertex 31.1769 18 45
    endloop
  endfacet
  facet normal 0.896869 0.442297 0
    outer loop
      vertex 31.1769 18 -45
      vertex 33.2597 13.7766 45
      vertex 33.2597 13.7766 -45
    endloop
  endfacet
  facet normal 0.831468 0.555572 0
    outer loop
      vertex 31.1769 18 45
      vertex 28.5607 21.9154 -45
      vertex 28.5607 21.9154 45
    endloop
  endfacet
  facet normal 0.831468 0.555572 0
    outer loop
      vertex 28.5607 21.9154 -45
      vertex 31.1769 18 45
      vertex 31.1769 18 -45
    endloop
  endfacet
  facet normal 0.751834 0.659352 0
    outer loop
      vertex 28.5607 21.9154 45
      vertex 25.4558 25.4558 -45
      vertex 25.4558 25.4558 45
    endloop
  endfacet
  facet normal 0.751834 0.659352 0
    outer loop
      vertex 25.4558 25.4558 -45
      vertex 28.5607 21.9154 45
      vertex 28.5607 21.9154 -45
    endloop
  endfacet
  facet normal 0.659352 0.751834 -0
    outer loop
      vertex 25.4558 25.4558 -45
      vertex 21.9154 28.5607 45
      vertex 25.4558 25.4558 45
    endloop
  endfacet
  facet normal 0.659352 0.751834 0
    outer loop
      vertex 21.9154 28.5607 45
      vertex 25.4558 25.4558 -45
      vertex 21.9154 28.5607 -45
    endloop
  endfacet
  facet normal 0.555572 0.831468 -0
    outer loop
      vertex 21.9154 28.5607 -45
      vertex 18 31.1769 45
      vertex 21.9154 28.5607 45
    endloop
  endfacet
  facet normal 0.555572 0.831468 0
    outer loop
      vertex 18 31.1769 45
      vertex 21.9154 28.5607 -45
      vertex 18 31.1769 -45
    endloop
  endfacet
  facet normal 0.442297 0.896869 -0
    outer loop
      vertex 18 31.1769 -45
      vertex 13.7766 33.2597 45
      vertex 18 31.1769 45
    endloop
  endfacet
  facet normal 0.442297 0.896869 0
    outer loop
      vertex 13.7766 33.2597 45
      vertex 18 31.1769 -45
      vertex 13.7766 33.2597 -45
    endloop
  endfacet
  facet normal 0.321427 0.946934 -0
    outer loop
      vertex 13.7766 33.2597 -45
      vertex 9.31749 34.7733 45
      vertex 13.7766 33.2597 45
    endloop
  endfacet
  facet normal 0.321427 0.946934 0
    outer loop
      vertex 9.31749 34.7733 45
      vertex 13.7766 33.2597 -45
      vertex 9.31749 34.7733 -45
    endloop
  endfacet
  facet normal 0.195093 0.980785 -0
    outer loop
      vertex 9.31749 34.7733 -45
      vertex 4.69894 35.692 45
      vertex 9.31749 34.7733 45
    endloop
  endfacet
  facet normal 0.195093 0.980785 0
    outer loop
      vertex 4.69894 35.692 45
      vertex 9.31749 34.7733 -45
      vertex 4.69894 35.692 -45
    endloop
  endfacet
  facet normal 0.0654063 0.997859 -0
    outer loop
      vertex 4.69894 35.692 -45
      vertex 0 36 45
      vertex 4.69894 35.692 45
    endloop
  endfacet
  facet normal 0.0654063 0.997859 0
    outer loop
      vertex 0 36 45
      vertex 4.69894 35.692 -45
      vertex 0 36 -45
    endloop
  endfacet
  facet normal -0.0654063 0.997859 0
    outer loop
      vertex 0 36 -45
      vertex -4.69894 35.692 45
      vertex 0 36 45
    endloop
  endfacet
  facet normal -0.0654063 0.997859 0
    outer loop
      vertex -4.69894 35.692 45
      vertex 0 36 -45
      vertex -4.69894 35.692 -45
    endloop
  endfacet
  facet normal -0.195093 0.980785 0
    outer loop
      vertex -4.69894 35.692 -45
      vertex -9.31749 34.7733 45
      vertex -4.69894 35.692 45
    endloop
  endfacet
  facet normal -0.195093 0.980785 0
    outer loop
      vertex -9.31749 34.7733 45
      vertex -4.69894 35.692 -45
      vertex -9.31749 34.7733 -45
    endloop
  endfacet
  facet normal -0.321427 0.946934 0
    outer loop
      vertex -9.31749 34.7733 -45
      vertex -13.7766 33.2597 45
      vertex -9.31749 34.7733 45
    endloop
  endfacet
  facet normal -0.321427 0.946934 0
    outer loop
      vertex -13.7766 33.2597 45
      vertex -9.31749 34.7733 -45
      vertex -13.7766 33.2597 -45
    endloop
  endfacet
  facet normal -0.442297 0.896869 0
    outer loop
      vertex -13.7766 33.2597 -45
      vertex -18 31.1769 45
      vertex -13.7766 33.2597 45
    endloop
  endfacet
  facet normal -0.442297 0.896869 0
    outer loop
      vertex -18 31.1769 45
      vertex -13.7766 33.2597 -45
      vertex -18 31.1769 -45
    endloop
  endfacet
  facet normal -0.555572 0.831468 0
    outer loop
      vertex -18 31.1769 -45
      vertex -21.9154 28.5607 45
      vertex -18 31.1769 45
    endloop
  endfacet
  facet normal -0.555572 0.831468 0
    outer loop
      vertex -21.9154 28.5607 45
      vertex -18 31.1769 -45
      vertex -21.9154 28.5607 -45
    endloop
  endfacet
  facet normal -0.659352 0.751834 0
    outer loop
      vertex -21.9154 28.5607 -45
      vertex -25.4558 25.4558 45
      vertex -21.9154 28.5607 45
    endloop
  endfacet
  facet normal -0.659352 0.751834 0
    outer loop
      vertex -25.4558 25.4558 45
      vertex -21.9154 28.5607 -45
      vertex -25.4558 25.4558 -45
    endloop
  endfacet
  facet normal -0.751834 0.659352 0
    outer loop
      vertex -28.5607 21.9154 -45
      vertex -25.4558 25.4558 45
      vertex -25.4558 25.4558 -45
    endloop
  endfacet
  facet normal -0.751834 0.659352 0
    outer loop
      vertex -25.4558 25.4558 45
      vertex -28.5607 21.9154 -45
      vertex -28.5607 21.9154 45
    endloop
  endfacet
  facet normal -0.831468 0.555572 0
    outer loop
      vertex -31.1769 18 -45
      vertex -28.5607 21.9154 45
      vertex -28.5607 21.9154 -45
    endloop
  endfacet
  facet normal -0.831468 0.555572 0
    outer loop
      vertex -28.5607 21.9154 45
      vertex -31.1769 18 -45
      vertex -31.1769 18 45
    endloop
  endfacet
  facet normal -0.896869 0.442297 0
    outer loop
      vertex -33.2597 13.7766 -45
      vertex -31.1769 18 45
      vertex -31.1769 18 -45
    endloop
  endfacet
  facet normal -0.896869 0.442297 0
    outer loop
      vertex -31.1769 18 45
      vertex -33.2597 13.7766 -45
      vertex -33.2597 13.7766 45
    endloop
  endfacet
  facet normal -0.946934 0.321427 0
    outer loop
      vertex -34.7733 9.31749 -45
      vertex -33.2597 13.7766 45
      vertex -33.2597 13.7766 -45
    endloop
  endfacet
  facet normal -0.946934 0.321427 0
    outer loop
      vertex -33.2597 13.7766 45
      vertex -34.7733 9.31749 -45
      vertex -34.7733 9.31749 45
    endloop
  endfacet
  facet normal -0.980785 0.195093 0
    outer loop
      vertex -35.692 4.69894 -45
      vertex -34.7733 9.31749 45
      vertex -34.7733 9.31749 -45
    endloop
  endfacet
  facet normal -0.980785 0.195093 0
    outer loop
      vertex -34.7733 9.31749 45
      vertex -35.692 4.69894 -45
      vertex -35.692 4.69894 45
    endloop
  endfacet
  facet normal -0.997859 0.0654063 0
    outer loop
      vertex -36 -0 -45
      vertex -35.692 4.69894 45
      vertex -35.692 4.69894 -45
    endloop
  endfacet
  facet normal -0.997859 0.0654063 0
    outer loop
      vertex -35.692 4.69894 45
      vertex -36 -0 -45
      vertex -36 -0 45
    endloop
  endfacet
  facet normal -0.997859 -0.0654063 0
    outer loop
      vertex -35.692 -4.69894 -45
      vertex -36 -0 45
      vertex -36 -0 -45
    endloop
  endfacet
  facet normal -0.997859 -0.0654063 0
    outer loop
      vertex -36 -0 45
      vertex -35.692 -4.69894 -45
      vertex -35.692 -4.69894 45
    endloop
  endfacet
  facet normal -0.980785 -0.195093 0
    outer loop
      vertex -34.7733 -9.31749 -45
      vertex -35.692 -4.69894 45
      vertex -35.692 -4.69894 -45
    endloop
  endfacet
  facet normal -0.980785 -0.195093 0
    outer loop
      vertex -35.692 -4.69894 45
      vertex -34.7733 -9.31749 -45
      vertex -34.7733 -9.31749 45
    endloop
  endfacet
  facet normal -0.946934 -0.321427 0
    outer loop
      vertex -33.2597 -13.7766 -45
      vertex -34.7733 -9.31749 45
      vertex -34.7733 -9.31749 -45
    endloop
  endfacet
  facet normal -0.946934 -0.321427 0
    outer loop
      vertex -34.7733 -9.31749 45
      vertex -33.2597 -13.7766 -45
      vertex -33.2597 -13.7766 45
    endloop
  endfacet
  facet normal -0.896869 -0.442297 0
    outer loop
      vertex -31.1769 -18 -45
      vertex -33.2597 -13.7766 45
      vertex -33.2597 -13.7766 -45
    endloop
  endfacet
  facet normal -0.896869 -0.442297 0
    outer loop
      vertex -33.2597 -13.7766 45
      vertex -31.1769 -18 -45
      vertex -31.1769 -18 45
    endloop
  endfacet
  facet normal -0.831468 -0.555572 0
    outer loop
      vertex -28.5607 -21.9154 -45
      vertex -31.1769 -18 45
      vertex -31.1769 -18 -45
    endloop
  endfacet
  facet normal -0.831468 -0.555572 0
    outer loop
      vertex -31.1769 -18 45
      vertex -28.5607 -21.9154 -45
      vertex -28.5607 -21.9154 45
    endloop
  endfacet
  facet normal -0.751834 -0.659352 0
    outer loop
      vertex -25.4558 -25.4558 -45
      vertex -28.5607 -21.9154 45
      vertex -28.5607 -21.9154 -45
    endloop
  endfacet
  facet normal -0.751834 -0.659352 0
    outer loop
      vertex -28.5607 -21.9154 45
      vertex -25.4558 -25.4558 -45
      vertex -25.4558 -25.4558 45
    endloop
  endfacet
  facet normal -0.659352 -0.751834 0
    outer loop
      vertex -25.4558 -25.4558 -45
      vertex -21.9154 -28.5607 45
      vertex -25.4558 -25.4558 45
    endloop
  endfacet
  facet normal -0.659352 -0.751834 -0
    outer loop
      vertex -21.9154 -28.5607 45
      vertex -25.4558 -25.4558 -45
      vertex -21.9154 -28.5607 -45
    endloop
  endfacet
  facet normal -0.555572 -0.831468 0
    outer loop
      vertex -21.9154 -28.5607 -45
      vertex -18 -31.1769 45
      vertex -21.9154 -28.5607 45
    endloop
  endfacet
  facet normal -0.555572 -0.831468 -0
    outer loop
      vertex -18 -31.1769 45
      vertex -21.9154 -28.5607 -45
      vertex -18 -31.1769 -45
    endloop
  endfacet
  facet normal -0.442297 -0.896869 0
    outer loop
      vertex -18 -31.1769 -45
      vertex -13.7766 -33.2597 45
      vertex -18 -31.1769 45
    endloop
  endfacet
  facet normal -0.442297 -0.896869 -0
    outer loop
      vertex -13.7766 -33.2597 45
      vertex -18 -31.1769 -45
      vertex -13.7766 -33.2597 -45
    endloop
  endfacet
  facet normal -0.321427 -0.946934 0
    outer loop
      vertex -13.7766 -33.2597 -45
      vertex -9.31749 -34.7733 45
      vertex -13.7766 -33.2597 45
    endloop
  endfacet
  facet normal -0.321427 -0.946934 -0
    outer loop
      vertex -9.31749 -34.7733 45
      vertex -13.7766 -33.2597 -45
      vertex -9.31749 -34.7733 -45
    endloop
  endfacet
  facet normal -0.195093 -0.980785 0
    outer loop
      vertex -9.31749 -34.7733 -45
      vertex -4.69894 -35.692 45
      vertex -9.31749 -34.7733 45
    endloop
  endfacet
  facet normal -0.195093 -0.980785 -0
    outer loop
      vertex -4.69894 -35.692 45
      vertex -9.31749 -34.7733 -45
      vertex -4.69894 -35.692 -45
    endloop
  endfacet
  facet normal -0.0654063 -0.997859 0
    outer loop
      vertex -4.69894 -35.692 -45
      vertex -0 -36 45
      vertex -4.69894 -35.692 45
    endloop
  endfacet
  facet normal -0.0654063 -0.997859 -0
    outer loop
      vertex -0 -36 45
      vertex -4.69894 -35.692 -45
      vertex -0 -36 -45
    endloop
  endfacet
  facet normal 0.0654063 -0.997859 0
    outer loop
      vertex -0 -36 -45
      vertex 4.69894 -35.692 45
      vertex -0 -36 45
    endloop
  endfacet
  facet normal 0.0654063 -0.997859 0
    outer loop
      vertex 4.69894 -35.692 45
      vertex -0 -36 -45
      vertex 4.69894 -35.692 -45
    endloop
  endfacet
  facet normal 0.195093 -0.980785 0
    outer loop
      vertex 4.69894 -35.692 -45
      vertex 9.31749 -34.7733 45
      vertex 4.69894 -35.692 45
    endloop
  endfacet
  facet normal 0.195093 -0.980785 0
    outer loop
      vertex 9.31749 -34.7733 45
      vertex 4.69894 -35.692 -45
      vertex 9.31749 -34.7733 -45
    endloop
  endfacet
  facet normal 0.321427 -0.946934 0
    outer loop
      vertex 9.31749 -34.7733 -45
      vertex 13.7766 -33.2597 45
      vertex 9.31749 -34.7733 45
    endloop
  endfacet
  facet normal 0.321427 -0.946934 0
    outer loop
      vertex 13.7766 -33.2597 45
      vertex 9.31749 -34.7733 -45
      vertex 13.7766 -33.2597 -45
    endloop
  endfacet
  facet normal 0.442297 -0.896869 0
    outer loop
      vertex 13.7766 -33.2597 -45
      vertex 18 -31.1769 45
      vertex 13.7766 -33.2597 45
    endloop
  endfacet
  facet normal 0.442297 -0.896869 0
    outer loop
      vertex 18 -31.1769 45
      vertex 13.7766 -33.2597 -45
      vertex 18 -31.1769 -45
    endloop
  endfacet
  facet normal 0.555572 -0.831468 0
    outer loop
      vertex 18 -31.1769 -45
      vertex 21.9154 -28.5607 45
      vertex 18 -31.1769 45
    endloop
  endfacet
  facet normal 0.555572 -0.831468 0
    outer loop
      vertex 21.9154 -28.5607 45
      vertex 18 -31.1769 -45
      vertex 21.9154 -28.5607 -45
    endloop
  endfacet
  facet normal 0.659352 -0.751834 0
    outer loop
      vertex 21.9154 -28.5607 -45
      vertex 25.4558 -25.4558 45
      vertex 21.9154 -28.5607 45
    endloop
  endfacet
  facet normal 0.659352 -0.751834 0
    outer loop
      vertex 25.4558 -25.4558 45
      vertex 21.9154 -28.5607 -45
      vertex 25.4558 -25.4558 -45
    endloop
  endfacet
  facet normal 0.751834 -0.659352 0
    outer loop
      vertex 25.4558 -25.4558 45
      vertex 28.5607 -21.9154 -45
      vertex 28.5607 -21.9154 45
    endloop
  endfacet
  facet normal 0.751834 -0.659352 0
    outer loop
      vertex 28.5607 -21.9154 -45
      vertex 25.4558 -25.4558 45
      vertex 25.4558 -25.4558 -45
    endloop
  endfacet
  facet normal 0.831468 -0.555572 0
    outer loop
      vertex 28.5607 -21.9154 45
      vertex 31.1769 -18 -45
      vertex 31.1769 -18 45
    endloop
  endfacet
  facet normal 0.831468 -0.555572 0
    outer loop
      vertex 31.1769 -18 -45
      vertex 28.5607 -21.9154 45
      vertex 28.5607 -21.9154 -45
    endloop
  endfacet
  facet normal 0.896869 -0.442297 0
    outer loop
      vertex 31.1769 -18 45
      vertex 33.2597 -13.7766 -45
      vertex 33.2597 -13.7766 45
    endloop
  endfacet
  facet normal 0.896869 -0.442297 0
    outer loop
      vertex 33.2597 -13.7766 -45
      vertex 31.1769 -18 45
      vertex 31.1769 -18 -45
    endloop
  endfacet
  facet normal 0.946934 -0.321427 0
    outer loop
      vertex 33.2597 -13.7766 45
      vertex 34.7733 -9.31749 -45
      vertex 34.7733 -9.31749 45
    endloop
  endfacet
  facet normal 0.946934 -0.321427 0
    outer loop
      vertex 34.7733 -9.31749 -45
      vertex 33.2597 -13.7766 45
      vertex 33.2597 -13.7766 -45
    endloop
  endfacet
  facet normal 0.980785 -0.195093 0
    outer loop
      vertex 34.7733 -9.31749 45
      vertex 35.692 -4.69894 -45
      vertex 35.692 -4.69894 45
    endloop
  endfacet
  facet normal 0.980785 -0.195093 0
    outer loop
      vertex 35.692 -4.69894 -45
      vertex 34.7733 -9.31749 45
      vertex 34.7733 -9.31749 -45
    endloop
  endfacet
  facet normal 0.997859 -0.0654063 0
    outer loop
      vertex 35.692 -4.69894 45
      vertex 36 0 -45
      vertex 36 0 45
    endloop
  endfacet
  facet normal 0.997859 -0.0654063 0
    outer loop
      vertex 36 0 -45
      vertex 35.692 -4.69894 45
      vertex 35.692 -4.69894 -45
    endloop
  endfacet
  facet normal 0 0 -1
    outer loop
      vertex 35.692 -4.69894 -45
      vertex 35.692 4.69894 -45
      vertex 36 0 -45
    endloop
  endfacet
  facet normal 0 0 -1
    outer loop
      vertex 34.7733 -9.31749 -45
      vertex 35.692 4.69894 -45
      vertex 35.692 -4.69894 -45
    endloop
  endfacet
  facet normal 0 0 -1
    outer loop
      vertex 34.7733 -9.31749 -45
      vertex 34.7733 9.31749 -45
      vertex 35.692 4.69894 -45
    endloop
  endfacet
  facet normal 0 0 -1
    outer loop
      vertex 33.2597 -13.7766 -45
      vertex 34.7733 9.31749 -45
      vertex 34.7733 -9.31749 -45
    endloop
  endfacet
  facet normal 0 0 -1
    outer loop
      vertex 33.2597 -13.7766 -45
      vertex 33.2597 13.7766 -45
      vertex 34.7733 9.31749 -45
    endloop
  endfacet
  facet normal 0 0 -1
    outer loop
      vertex 31.1769 -18 -45
      vertex 33.2597 13.7766 -45
      vertex 33.2597 -13.7766 -45
    endloop
  endfacet
  facet normal 0 0 -1
    outer loop
      vertex 31.1769 -18 -45
      vertex 31.1769 18 -45
      vertex 33.2597 13.7766 -45
    endloop
  endfacet
  facet normal 0 0 -1
    outer loop
      vertex 28.5607 -21.9154 -45
      vertex 31.1769 18 -45
      vertex 31.1769 -18 -45
    endloop
  endfacet
  facet normal 0 0 -1
    outer loop
      vertex 28.5607 -21.9154 -45
      vertex 28.5607 21.9154 -45
      vertex 31.1769 18 -45
    endloop
  endfacet
  facet normal 0 0 -1
    outer loop
      vertex 25.4558 -25.4558 -45
      vertex 28.5607 21.9154 -45
      vertex 28.5607 -21.9154 -45
    endloop
  endfacet
  facet normal 0 0 -1
    outer loop
      vertex 25.4558 -25.4558 -45
      vertex 25.4558 25.4558 -45
      vertex 28.5607 21.9154 -45
    endloop
  endfacet
  facet normal 0 0 -1
    outer loop
      vertex 21.9154 -28.5607 -45
      vertex 25.4558 25.4558 -45
      vertex 25.4558 -25.4558 -45
    endloop
  endfacet
  facet normal 0 0 -1
    outer loop
      vertex 21.9154 -28.5607 -45
      vertex 21.9154 28.5607 -45
      vertex 25.4558 25.4558 -45
    endloop
  endfacet
  facet normal 0 0 -1
    outer loop
      vertex 18 -31.1769 -45
      vertex 21.9154 28.5607 -45
      vertex 21.9154 -28.5607 -45
    endloop
  endfacet
  facet normal 0 0 -1
    outer loop
      vertex 18 -31.1769 -45
      vertex 18 31.1769 -45
      vertex 21.9154 28.5607 -45
    endloop
  endfacet
  facet normal 0 0 -1
    outer loop
      vertex 13.7766 -33.2597 -45
      vertex 18 31.1769 -45
      vertex 18 -31.1769 -45
    endloop
  endfacet
  facet normal 0 0 -1
    outer loop
      vertex 13.7766 -33.2597 -45
      vertex 13.7766 33.2597 -45
      vertex 18 31.1769 -45
    endloop
  endfacet
  facet normal 0 0 -1
    outer loop
      vertex 9.31749 -34.7733 -45
      vertex 13.7766 33.2597 -45
      vertex 13.7766 -33.2597 -45
    endloop
  endfacet
  facet normal 0 0 -1
    outer loop
      vertex 9.31749 -34.7733 -45
      vertex 9.31749 34.7733 -45
      vertex 13.7766 33.2597 -45
    endloop
  endfacet
  facet normal 0 0 -1
    outer loop
      vertex 4.69894 -35.692 -45
      vertex 9.31749 34.7733 -45
      vertex 9.31749 -34.7733 -45
    endloop
  endfacet
  facet normal 0 0 -1
    outer loop
      vertex 4.69894 -35.692 -45
      vertex 4.69894 35.692 -45
      vertex 9.31749 34.7733 -45
    endloop
  endfacet
  facet normal 0 0 -1
    outer loop
      vertex -0 -36 -45
      vertex 4.69894 35.692 -45
      vertex 4.69894 -35.692 -45
    endloop
  endfacet
  facet normal 0 0 -1
    outer loop
      vertex -0 -36 -45
      vertex 0 36 -45
      vertex 4.69894 35.692 -45
    endloop
  endfacet
  facet normal 0 0 -1
    outer loop
      vertex -4.69894 -35.692 -45
      vertex 0 36 -45
      vertex -0 -36 -45
    endloop
  endfacet
  facet normal 0 0 -1
    outer loop
      vertex -4.69894 -35.692 -45
      vertex -4.69894 35.692 -45
      vertex 0 36 -45
    endloop
  endfacet
  facet normal 0 0 -1
    outer loop
      vertex -9.31749 -34.7733 -45
      vertex -4.69894 35.692 -45
      vertex -4.69894 -35.692 -45
    endloop
  endfacet
  facet normal 0 0 -1
    outer loop
      vertex -9.31749 -34.7733 -45
      vertex -9.31749 34.7733 -45
      vertex -4.69894 35.692 -45
    endloop
  endfacet
  facet normal 0 0 -1
    outer loop
      vertex -13.7766 -33.2597 -45
      vertex -9.31749 34.7733 -45
      vertex -9.31749 -34.7733 -45
    endloop
  endfacet
  facet normal 0 0 -1
    outer loop
      vertex -13.7766 -33.2597 -45
      vertex -13.7766 33.2597 -45
      vertex -9.31749 34.7733 -45
    endloop
  endfacet
  facet normal 0 0 -1
    outer loop
      vertex -18 -31.1769 -45
      vertex -13.7766 33.2597 -45
      vertex -13.7766 -33.2597 -45
    endloop
  endfacet
  facet normal 0 0 -1
    outer loop
      vertex -18 -31.1769 -45
      vertex -18 31.1769 -45
      vertex -13.7766 33.2597 -45
    endloop
  endfacet
  facet normal 0 0 -1
    outer loop
      vertex -21.9154 -28.5607 -45
      vertex -18 31.1769 -45
      vertex -18 -31.1769 -45
    endloop
  endfacet
  facet normal 0 0 -1
    outer loop
      vertex -21.9154 -28.5607 -45
      vertex -21.9154 28.5607 -45
      vertex -18 31.1769 -45
    endloop
  endfacet
  facet normal 0 0 -1
    outer loop
      vertex -25.4558 -25.4558 -45
      vertex -21.9154 28.5607 -45
      vertex -21.9154 -28.5607 -45
    endloop
  endfacet
  facet normal 0 0 -1
    outer loop
      vertex -25.4558 -25.4558 -45
      vertex -25.4558 25.4558 -45
      vertex -21.9154 28.5607 -45
    endloop
  endfacet
  facet normal 0 0 -1
    outer loop
      vertex -28.5607 -21.9154 -45
      vertex -25.4558 25.4558 -45
      vertex -25.4558 -25.4558 -45
    endloop
  endfacet
  facet normal 0 0 -1
    outer loop
      vertex -28.5607 -21.9154 -45
      vertex -28.5607 21.9154 -45
      vertex -25.4558 25.4558 -45
    endloop
  endfacet
  facet normal 0 0 -1
    outer loop
      vertex -31.1769 -18 -45
      vertex -28.5607 21.9154 -45
      vertex -28.5607 -21.9154 -45
    endloop
  endfacet
  facet normal 0 0 -1
    outer loop
      vertex -31.1769 -18 -45
      vertex -31.1769 18 -45
      vertex -28.5607 21.9154 -45
    endloop
  endfacet
  facet normal 0 0 -1
    outer loop
      vertex -33.2597 -13.7766 -45
      vertex -31.1769 18 -45
      vertex -31.1769 -18 -45
    endloop
  endfacet
  facet normal 0 0 -1
    outer loop
      vertex -33.2597 -13.7766 -45
      vertex -33.2597 13.7766 -45
      vertex -31.1769 18 -45
    endloop
  endfacet
  facet normal 0 0 -1
    outer loop
      vertex -34.7733 -9.31749 -45
      vertex -33.2597 13.7766 -45
      vertex -33.2597 -13.7766 -45
    endloop
  endfacet
  facet normal 0 0 -1
    outer loop
      vertex -34.7733 -9.31749 -45
      vertex -34.7733 9.31749 -45
      vertex -33.2597 13.7766 -45
    endloop
  endfacet
  facet normal 0 0 -1
    outer loop
      vertex -35.692 -4.69894 -45
      vertex -34.7733 9.31749 -45
      vertex -34.7733 -9.31749 -45
    endloop
  endfacet
  facet normal 0 0 -1
    outer loop
      vertex -35.692 -4.69894 -45
      vertex -35.692 4.69894 -45
      vertex -34.7733 9.31749 -45
    endloop
  endfacet
  facet normal 0 -0 -1
    outer loop
      vertex -35.692 4.69894 -45
      vertex -35.692 -4.69894 -45
      vertex -36 -0 -45
    endloop
  endfacet
  facet normal 0 0 1
    outer loop
      vertex 35.692 4.69894 45
      vertex 35.692 -4.69894 45
      vertex 36 0 45
    endloop
  endfacet
  facet normal 0 0 1
    outer loop
      vertex 34.7733 9.31749 45
      vertex 35.692 -4.69894 45
      vertex 35.692 4.69894 45
    endloop
  endfacet
  facet normal 0 0 1
    outer loop
      vertex 34.7733 9.31749 45
      vertex 34.7733 -9.31749 45
      vertex 35.692 -4.69894 45
    endloop
  endfacet
  facet normal 0 0 1
    outer loop
      vertex 33.2597 13.7766 45
      vertex 34.7733 -9.31749 45
      vertex 34.7733 9.31749 45
    endloop
  endfacet
  facet normal 0 0 1
    outer loop
      vertex 33.2597 13.7766 45
      vertex 33.2597 -13.7766 45
      vertex 34.7733 -9.31749 45
    endloop
  endfacet
  facet normal 0 0 1
    outer loop
      vertex 31.1769 18 45
      vertex 33.2597 -13.7766 45
      vertex 33.2597 13.7766 45
    endloop
  endfacet
  facet normal 0 0 1
    outer loop
      vertex 31.1769 18 45
      vertex 31.1769 -18 45
      vertex 33.2597 -13.7766 45
    endloop
  endfacet
  facet normal 0 0 1
    outer loop
      vertex 28.5607 21.9154 45
      vertex 31.1769 -18 45
      vertex 31.1769 18 45
    endloop
  endfacet
  facet normal 0 0 1
    outer loop
      vertex 28.5607 21.9154 45
      vertex 28.5607 -21.9154 45
      vertex 31.1769 -18 45
    endloop
  endfacet
  facet normal 0 0 1
    outer loop
      vertex 25.4558 25.4558 45
      vertex 28.5607 -21.9154 45
      vertex 28.5607 21.9154 45
    endloop
  endfacet
  facet normal 0 0 1
    outer loop
      vertex 25.4558 25.4558 45
      vertex 25.4558 -25.4558 45
      vertex 28.5607 -21.9154 45
    endloop
  endfacet
  facet normal 0 0 1
    outer loop
      vertex 21.9154 28.5607 45
      vertex 25.4558 -25.4558 45
      vertex 25.4558 25.4558 45
    endloop
  endfacet
  facet normal 0 0 1
    outer loop
      vertex 21.9154 28.5607 45
      vertex 21.9154 -28.5607 45
      vertex 25.4558 -25.4558 45
    endloop
  endfacet
  facet normal 0 0 1
    outer loop
      vertex 18 31.1769 45
      vertex 21.9154 -28.5607 45
      vertex 21.9154 28.5607 45
    endloop
  endfacet
  facet normal 0 0 1
    outer loop
      vertex 18 31.1769 45
      vertex 18 -31.1769 45
      vertex 21.9154 -28.5607 45
    endloop
  endfacet
  facet normal 0 0 1
    outer loop
      vertex 13.7766 33.2597 45
      vertex 18 -31.1769 45
      vertex 18 31.1769 45
    endloop
  endfacet
  facet normal 0 0 1
    outer loop
      vertex 13.7766 33.2597 45
      vertex 13.7766 -33.2597 45
      vertex 18 -31.1769 45
    endloop
  endfacet
  facet normal 0 0 1
    outer loop
      vertex 9.31749 34.7733 45
      vertex 13.7766 -33.2597 45
      vertex 13.7766 33.2597 45
    endloop
  endfacet
  facet normal 0 0 1
    outer loop
      vertex 9.31749 34.7733 45
      vertex 9.31749 -34.7733 45
      vertex 13.7766 -33.2597 45
    endloop
  endfacet
  facet normal 0 0 1
    outer loop
      vertex 4.69894 35.692 45
      vertex 9.31749 -34.7733 45
      vertex 9.31749 34.7733 45
    endloop
  endfacet
  facet normal 0 0 1
    outer loop
      vertex 4.69894 35.692 45
      vertex 4.69894 -35.692 45
      vertex 9.31749 -34.7733 45
    endloop
  endfacet
  facet normal 0 0 1
    outer loop
      vertex 0 36 45
      vertex 4.69894 -35.692 45
      vertex 4.69894 35.692 45
    endloop
  endfacet
  facet normal 0 0 1
    outer loop
      vertex 0 36 45
      vertex -0 -36 45
      vertex 4.69894 -35.692 45
    endloop
  endfacet
  facet normal -0 0 1
    outer loop
      vertex -4.69894 35.692 45
      vertex -0 -36 45
      vertex 0 36 45
    endloop
  endfacet
  facet normal 0 0 1
    outer loop
      vertex -4.69894 35.692 45
      vertex -4.69894 -35.692 45
      vertex -0 -36 45
    endloop
  endfacet
  facet normal -0 0 1
    outer loop
      vertex -9.31749 34.7733 45
      vertex -4.69894 -35.692 45
      vertex -4.69894 35.692 45
    endloop
  endfacet
  facet normal 0 0 1
    outer loop
      vertex -9.31749 34.7733 45
      vertex -9.31749 -34.7733 45
      vertex -4.69894 -35.692 45
    endloop
  endfacet
  facet normal -0 0 1
    outer loop
      vertex -13.7766 33.2597 45
      vertex -9.31749 -34.7733 45
      vertex -9.31749 34.7733 45
    endloop
  endfacet
  facet normal 0 0 1
    outer loop
      vertex -13.7766 33.2597 45
      vertex -13.7766 -33.2597 45
      vertex -9.31749 -34.7733 45
    endloop
  endfacet
  facet normal -0 0 1
    outer loop
      vertex -18 31.1769 45
      vertex -13.7766 -33.2597 45
      vertex -13.7766 33.2597 45
    endloop
  endfacet
  facet normal 0 0 1
    outer loop
      vertex -18 31.1769 45
      vertex -18 -31.1769 45
      vertex -13.7766 -33.2597 45
    endloop
  endfacet
  facet normal -0 0 1
    outer loop
      vertex -21.9154 28.5607 45
      vertex -18 -31.1769 45
      vertex -18 31.1769 45
    endloop
  endfacet
  facet normal 0 0 1
    outer loop
      vertex -21.9154 28.5607 45
      vertex -21.9154 -28.5607 45
      vertex -18 -31.1769 45
    endloop
  endfacet
  facet normal -0 0 1
    outer loop
      vertex -25.4558 25.4558 45
      vertex -21.9154 -28.5607 45
      vertex -21.9154 28.5607 45
    endloop
  endfacet
  facet normal 0 0 1
    outer loop
      vertex -25.4558 25.4558 45
      vertex -25.4558 -25.4558 45
      vertex -21.9154 -28.5607 45
    endloop
  endfacet
  facet normal -0 0 1
    outer loop
      vertex -28.5607 21.9154 45
      vertex -25.4558 -25.4558 45
      vertex -25.4558 25.4558 45
    endloop
  endfacet
  facet normal 0 0 1
    outer loop
      vertex -28.5607 21.9154 45
      vertex -28.5607 -21.9154 45
      vertex -25.4558 -25.4558 45
    endloop
  endfacet
  facet normal -0 0 1
    outer loop
      vertex -31.1769 18 45
      vertex -28.5607 -21.9154 45
      vertex -28.5607 21.9154 45
    endloop
  endfacet
  facet normal 0 0 1
    outer loop
      vertex -31.1769 18 45
      vertex -31.1769 -18 45
      vertex -28.5607 -21.9154 45
    endloop
  endfacet
  facet normal -0 0 1
    outer loop
      vertex -33.2597 13.7766 45
      vertex -31.1769 -18 45
      vertex -31.1769 18 45
    endloop
  endfacet
  facet normal 0 0 1
    outer loop
      vertex -33.2597 13.7766 45
      vertex -33.2597 -13.7766 45
      vertex -31.1769 -18 45
    endloop
  endfacet
  facet normal -0 0 1
    outer loop
      vertex -34.7733 9.31749 45
      vertex -33.2597 -13.7766 45
      vertex -33.2597 13.7766 45
    endloop
  endfacet
  facet normal 0 0 1
    outer loop
      vertex -34.7733 9.31749 45
      vertex -34.7733 -9.31749 45
      vertex -33.2597 -13.7766 45
    endloop
  endfacet
  facet normal -0 0 1
    outer loop
      vertex -35.692 4.69894 45
      vertex -34.7733 -9.31749 45
      vertex -34.7733 9.31749 45
    endloop
  endfacet
  facet normal 0 0 1
    outer loop
      vertex -35.692 4.69894 45
      vertex -35.692 -4.69894 45
      vertex -34.7733 -9.31749 45
    endloop
  endfacet
  facet normal 0 -0 1
    outer loop
      vertex -35.692 -4.69894 45
      vertex -35.692 4.69894 45
      vertex -36 -0 45
    endloop
  endfacet
endsolid OpenSCAD_Model
