solid OpenSCAD_Model
  facet normal 1 -0 0
    outer loop
      vertex 95 -85 1
      vertex 95 85 -1
      vertex 95 85 1
    endloop
  endfacet
  facet normal 1 0 0
    outer loop
      vertex 95 85 -1
      vertex 95 -85 1
      vertex 95 -85 -1
    endloop
  endfacet
  facet normal 0 0 1
    outer loop
      vertex 95 85 1
      vertex 1.5 0 1
      vertex 95 -85 1
    endloop
  endfacet
  facet normal 0 0 1
    outer loop
      vertex 95 85 1
      vertex 1.48717 0.195788 1
      vertex 1.5 0 1
    endloop
  endfacet
  facet normal 0 0 1
    outer loop
      vertex 95 85 1
      vertex 1.44889 0.388228 1
      vertex 1.48717 0.195788 1
    endloop
  endfacet
  facet normal 0 0 1
    outer loop
      vertex 95 85 1
      vertex 1.38582 0.574024 1
      vertex 1.44889 0.388228 1
    endloop
  endfacet
  facet normal 0 0 1
    outer loop
      vertex 95 85 1
      vertex 1.29904 0.75 1
      vertex 1.38582 0.574024 1
    endloop
  endfacet
  facet normal 0 0 1
    outer loop
      vertex 95 85 1
      vertex 1.19003 0.913141 1
      vertex 1.29904 0.75 1
    endloop
  endfacet
  facet normal 0 0 1
    outer loop
      vertex 95 85 1
      vertex 1.06066 1.06066 1
      vertex 1.19003 0.913141 1
    endloop
  endfacet
  facet normal 0 0 1
    outer loop
      vertex 95 85 1
      vertex 0.913141 1.19003 1
      vertex 1.06066 1.06066 1
    endloop
  endfacet
  facet normal 0 0 1
    outer loop
      vertex 95 85 1
      vertex 0.75 1.29904 1
      vertex 0.913141 1.19003 1
    endloop
  endfacet
  facet normal 0 0 1
    outer loop
      vertex 95 85 1
      vertex 0.574024 1.38582 1
      vertex 0.75 1.29904 1
    endloop
  endfacet
  facet normal 0 0 1
    outer loop
      vertex 95 85 1
      vertex 0.388228 1.44889 1
      vertex 0.574024 1.38582 1
    endloop
  endfacet
  facet normal 0 0 1
    outer loop
      vertex 95 85 1
      vertex 0.195788 1.48717 1
      vertex 0.388228 1.44889 1
    endloop
  endfacet
  facet normal 0 0 1
    outer loop
      vertex 95 85 1
      vertex 0 1.5 1
      vertex 0.195788 1.48717 1
    endloop
  endfacet
  facet normal -0 0 1
    outer loop
      vertex -95 85 1
      vertex 0 1.5 1
      vertex 95 85 1
    endloop
  endfacet
  facet normal 0 0 1
    outer loop
      vertex 0 1.5 1
      vertex -95 85 1
      vertex -0.195788 1.48717 1
    endloop
  endfacet
  facet normal 0 0 1
    outer loop
      vertex -0.195788 1.48717 1
      vertex -95 85 1
      vertex -0.388228 1.44889 1
    endloop
  endfacet
  facet normal 0 0 1
    outer loop
      vertex -0.388228 1.44889 1
      vertex -95 85 1
      vertex -0.574024 1.38582 1
    endloop
  endfacet
  facet normal 0 0 1
    outer loop
      vertex -0.574024 1.38582 1
      vertex -95 85 1
      vertex -0.75 1.29904 1
    endloop
  endfacet
  facet normal 0 0 1
    outer loop
      vertex -1.48717 0.195788 1
      vertex -95 85 1
      vertex -1.5 0 1
    endloop
  endfacet
  facet normal 0 0 1
    outer loop
      vertex -1.44889 0.388228 1
      vertex -95 85 1
      vertex -1.48717 0.195788 1
    endloop
  endfacet
  facet normal 0 0 1
    outer loop
      vertex -1.38582 0.574024 1
      vertex -95 85 1
      vertex -1.44889 0.388228 1
    endloop
  endfacet
  facet normal 0 0 1
    outer loop
      vertex -1.29904 0.75 1
      vertex -95 85 1
      vertex -1.38582 0.574024 1
    endloop
  endfacet
  facet normal 0 0 1
    outer loop
      vertex -1.19003 0.913141 1
      vertex -95 85 1
      vertex -1.29904 0.75 1
    endloop
  endfacet
  facet normal 0 0 1
    outer loop
      vertex -1.06066 1.06066 1
      vertex -95 85 1
      vertex -1.19003 0.913141 1
    endloop
  endfacet
  facet normal 0 0 1
    outer loop
      vertex -0.913141 1.19003 1
      vertex -95 85 1
      vertex -1.06066 1.06066 1
    endloop
  endfacet
  facet normal 0 0 1
    outer loop
      vertex -0.75 1.29904 1
      vertex -95 85 1
      vertex -0.913141 1.19003 1
    endloop
  endfacet
  facet normal -0 0 1
    outer loop
      vertex 1.48717 -0.195788 1
      vertex 95 -85 1
      vertex 1.5 0 1
    endloop
  endfacet
  facet normal -0 0 1
    outer loop
      vertex 1.44889 -0.388228 1
      vertex 95 -85 1
      vertex 1.48717 -0.195788 1
    endloop
  endfacet
  facet normal -0 0 1
    outer loop
      vertex 1.38582 -0.574024 1
      vertex 95 -85 1
      vertex 1.44889 -0.388228 1
    endloop
  endfacet
  facet normal -0 0 1
    outer loop
      vertex 1.29904 -0.75 1
      vertex 95 -85 1
      vertex 1.38582 -0.574024 1
    endloop
  endfacet
  facet normal -0 0 1
    outer loop
      vertex 1.19003 -0.913141 1
      vertex 95 -85 1
      vertex 1.29904 -0.75 1
    endloop
  endfacet
  facet normal -0 0 1
    outer loop
      vertex 1.06066 -1.06066 1
      vertex 95 -85 1
      vertex 1.19003 -0.913141 1
    endloop
  endfacet
  facet normal -0 0 1
    outer loop
      vertex 0.913141 -1.19003 1
      vertex 95 -85 1
      vertex 1.06066 -1.06066 1
    endloop
  endfacet
  facet normal -0 0 1
    outer loop
      vertex 0.75 -1.29904 1
      vertex 95 -85 1
      vertex 0.913141 -1.19003 1
    endloop
  endfacet
  facet normal -0 0 1
    outer loop
      vertex 0.574024 -1.38582 1
      vertex 95 -85 1
      vertex 0.75 -1.29904 1
    endloop
  endfacet
  facet normal -0 0 1
    outer loop
      vertex 0.388228 -1.44889 1
      vertex 95 -85 1
      vertex 0.574024 -1.38582 1
    endloop
  endfacet
  facet normal -0 0 1
    outer loop
      vertex 0.195788 -1.48717 1
      vertex 95 -85 1
      vertex 0.388228 -1.44889 1
    endloop
  endfacet
  facet normal -0 0 1
    outer loop
      vertex 0 -1.5 1
      vertex 95 -85 1
      vertex 0.195788 -1.48717 1
    endloop
  endfacet
  facet normal 0 0 1
    outer loop
      vertex -95 -85 1
      vertex 0 -1.5 1
      vertex -0.195788 -1.48717 1
    endloop
  endfacet
  facet normal 0 0 1
    outer loop
      vertex -95 -85 1
      vertex -0.195788 -1.48717 1
      vertex -0.388228 -1.44889 1
    endloop
  endfacet
  facet normal 0 0 1
    outer loop
      vertex -95 -85 1
      vertex -0.388228 -1.44889 1
      vertex -0.574024 -1.38582 1
    endloop
  endfacet
  facet normal 0 0 1
    outer loop
      vertex -95 -85 1
      vertex -0.574024 -1.38582 1
      vertex -0.75 -1.29904 1
    endloop
  endfacet
  facet normal 0 0 1
    outer loop
      vertex -95 -85 1
      vertex -0.75 -1.29904 1
      vertex -0.913141 -1.19003 1
    endloop
  endfacet
  facet normal 0 0 1
    outer loop
      vertex -95 -85 1
      vertex -1.5 0 1
      vertex -95 85 1
    endloop
  endfacet
  facet normal 0 0 1
    outer loop
      vertex -1.5 0 1
      vertex -95 -85 1
      vertex -1.48717 -0.195788 1
    endloop
  endfacet
  facet normal 0 0 1
    outer loop
      vertex -1.48717 -0.195788 1
      vertex -95 -85 1
      vertex -1.44889 -0.388228 1
    endloop
  endfacet
  facet normal 0 0 1
    outer loop
      vertex -1.44889 -0.388228 1
      vertex -95 -85 1
      vertex -1.38582 -0.574024 1
    endloop
  endfacet
  facet normal 0 0 1
    outer loop
      vertex -1.38582 -0.574024 1
      vertex -95 -85 1
      vertex -1.29904 -0.75 1
    endloop
  endfacet
  facet normal 0 0 1
    outer loop
      vertex -1.29904 -0.75 1
      vertex -95 -85 1
      vertex -1.19003 -0.913141 1
    endloop
  endfacet
  facet normal 0 0 1
    outer loop
      vertex 0 -1.5 1
      vertex -95 -85 1
      vertex 95 -85 1
    endloop
  endfacet
  facet normal 0 0 1
    outer loop
      vertex -1.06066 -1.06066 1
      vertex -95 -85 1
      vertex -0.913141 -1.19003 1
    endloop
  endfacet
  facet normal 0 0 1
    outer loop
      vertex -1.19003 -0.913141 1
      vertex -95 -85 1
      vertex -1.06066 -1.06066 1
    endloop
  endfacet
  facet normal 0 0 -1
    outer loop
      vertex 95 -85 -1
      vertex 1.5 0 -1
      vertex 95 85 -1
    endloop
  endfacet
  facet normal 0 0 -1
    outer loop
      vertex 95 -85 -1
      vertex 1.48717 -0.195788 -1
      vertex 1.5 0 -1
    endloop
  endfacet
  facet normal 0 0 -1
    outer loop
      vertex 95 -85 -1
      vertex 1.44889 -0.388228 -1
      vertex 1.48717 -0.195788 -1
    endloop
  endfacet
  facet normal 0 0 -1
    outer loop
      vertex 95 -85 -1
      vertex 1.38582 -0.574024 -1
      vertex 1.44889 -0.388228 -1
    endloop
  endfacet
  facet normal 0 0 -1
    outer loop
      vertex 95 -85 -1
      vertex 1.29904 -0.75 -1
      vertex 1.38582 -0.574024 -1
    endloop
  endfacet
  facet normal 0 0 -1
    outer loop
      vertex 95 -85 -1
      vertex 1.19003 -0.913141 -1
      vertex 1.29904 -0.75 -1
    endloop
  endfacet
  facet normal 0 0 -1
    outer loop
      vertex 95 -85 -1
      vertex 1.06066 -1.06066 -1
      vertex 1.19003 -0.913141 -1
    endloop
  endfacet
  facet normal 0 0 -1
    outer loop
      vertex 95 -85 -1
      vertex 0.913141 -1.19003 -1
      vertex 1.06066 -1.06066 -1
    endloop
  endfacet
  facet normal 0 0 -1
    outer loop
      vertex 95 -85 -1
      vertex 0.75 -1.29904 -1
      vertex 0.913141 -1.19003 -1
    endloop
  endfacet
  facet normal 0 0 -1
    outer loop
      vertex 95 -85 -1
      vertex 0.574024 -1.38582 -1
      vertex 0.75 -1.29904 -1
    endloop
  endfacet
  facet normal 0 0 -1
    outer loop
      vertex 95 -85 -1
      vertex 0.388228 -1.44889 -1
      vertex 0.574024 -1.38582 -1
    endloop
  endfacet
  facet normal 0 0 -1
    outer loop
      vertex 95 -85 -1
      vertex 0.195788 -1.48717 -1
      vertex 0.388228 -1.44889 -1
    endloop
  endfacet
  facet normal 0 0 -1
    outer loop
      vertex 95 -85 -1
      vertex 0 -1.5 -1
      vertex 0.195788 -1.48717 -1
    endloop
  endfacet
  facet normal 0 0 -1
    outer loop
      vertex -95 -85 -1
      vertex 0 -1.5 -1
      vertex 95 -85 -1
    endloop
  endfacet
  facet normal -0 0 -1
    outer loop
      vertex 0 -1.5 -1
      vertex -95 -85 -1
      vertex -0.195788 -1.48717 -1
    endloop
  endfacet
  facet normal -0 0 -1
    outer loop
      vertex -0.195788 -1.48717 -1
      vertex -95 -85 -1
      vertex -0.388228 -1.44889 -1
    endloop
  endfacet
  facet normal -0 0 -1
    outer loop
      vertex -0.388228 -1.44889 -1
      vertex -95 -85 -1
      vertex -0.574024 -1.38582 -1
    endloop
  endfacet
  facet normal -0 0 -1
    outer loop
      vertex -0.574024 -1.38582 -1
      vertex -95 -85 -1
      vertex -0.75 -1.29904 -1
    endloop
  endfacet
  facet normal -0 0 -1
    outer loop
      vertex -1.48717 -0.195788 -1
      vertex -95 -85 -1
      vertex -1.5 0 -1
    endloop
  endfacet
  facet normal -0 0 -1
    outer loop
      vertex -1.44889 -0.388228 -1
      vertex -95 -85 -1
      vertex -1.48717 -0.195788 -1
    endloop
  endfacet
  facet normal -0 0 -1
    outer loop
      vertex -1.38582 -0.574024 -1
      vertex -95 -85 -1
      vertex -1.44889 -0.388228 -1
    endloop
  endfacet
  facet normal -0 0 -1
    outer loop
      vertex -1.29904 -0.75 -1
      vertex -95 -85 -1
      vertex -1.38582 -0.574024 -1
    endloop
  endfacet
  facet normal -0 0 -1
    outer loop
      vertex -1.19003 -0.913141 -1
      vertex -95 -85 -1
      vertex -1.29904 -0.75 -1
    endloop
  endfacet
  facet normal -0 0 -1
    outer loop
      vertex -1.06066 -1.06066 -1
      vertex -95 -85 -1
      vertex -1.19003 -0.913141 -1
    endloop
  endfacet
  facet normal -0 0 -1
    outer loop
      vertex -0.913141 -1.19003 -1
      vertex -95 -85 -1
      vertex -1.06066 -1.06066 -1
    endloop
  endfacet
  facet normal -0 0 -1
    outer loop
      vertex -0.75 -1.29904 -1
      vertex -95 -85 -1
      vertex -0.913141 -1.19003 -1
    endloop
  endfacet
  facet normal 0 0 -1
    outer loop
      vertex 1.48717 0.195788 -1
      vertex 95 85 -1
      vertex 1.5 0 -1
    endloop
  endfacet
  facet normal 0 0 -1
    outer loop
      vertex 1.44889 0.388228 -1
      vertex 95 85 -1
      vertex 1.48717 0.195788 -1
    endloop
  endfacet
  facet normal 0 0 -1
    outer loop
      vertex 1.38582 0.574024 -1
      vertex 95 85 -1
      vertex 1.44889 0.388228 -1
    endloop
  endfacet
  facet normal 0 0 -1
    outer loop
      vertex 1.29904 0.75 -1
      vertex 95 85 -1
      vertex 1.38582 0.574024 -1
    endloop
  endfacet
  facet normal 0 0 -1
    outer loop
      vertex 1.19003 0.913141 -1
      vertex 95 85 -1
      vertex 1.29904 0.75 -1
    endloop
  endfacet
  facet normal 0 0 -1
    outer loop
      vertex 1.06066 1.06066 -1
      vertex 95 85 -1
      vertex 1.19003 0.913141 -1
    endloop
  endfacet
  facet normal 0 0 -1
    outer loop
      vertex 0.913141 1.19003 -1
      vertex 95 85 -1
      vertex 1.06066 1.06066 -1
    endloop
  endfacet
  facet normal 0 0 -1
    outer loop
      vertex 0.75 1.29904 -1
      vertex 95 85 -1
      vertex 0.913141 1.19003 -1
    endloop
  endfacet
  facet normal 0 0 -1
    outer loop
      vertex 0.574024 1.38582 -1
      vertex 95 85 -1
      vertex 0.75 1.29904 -1
    endloop
  endfacet
  facet normal 0 0 -1
    outer loop
      vertex 0.388228 1.44889 -1
      vertex 95 85 -1
      vertex 0.574024 1.38582 -1
    endloop
  endfacet
  facet normal 0 0 -1
    outer loop
      vertex 0.195788 1.48717 -1
      vertex 95 85 -1
      vertex 0.388228 1.44889 -1
    endloop
  endfacet
  facet normal 0 0 -1
    outer loop
      vertex 0 1.5 -1
      vertex 95 85 -1
      vertex 0.195788 1.48717 -1
    endloop
  endfacet
  facet normal 0 0 -1
    outer loop
      vertex -95 85 -1
      vertex 0 1.5 -1
      vertex -0.195788 1.48717 -1
    endloop
  endfacet
  facet normal 0 0 -1
    outer loop
      vertex -95 85 -1
      vertex -0.195788 1.48717 -1
      vertex -0.388228 1.44889 -1
    endloop
  endfacet
  facet normal 0 0 -1
    outer loop
      vertex -95 85 -1
      vertex -0.388228 1.44889 -1
      vertex -0.574024 1.38582 -1
    endloop
  endfacet
  facet normal 0 0 -1
    outer loop
      vertex -95 85 -1
      vertex -0.574024 1.38582 -1
      vertex -0.75 1.29904 -1
    endloop
  endfacet
  facet normal 0 0 -1
    outer loop
      vertex -95 85 -1
      vertex -0.75 1.29904 -1
      vertex -0.913141 1.19003 -1
    endloop
  endfacet
  facet normal 0 0 -1
    outer loop
      vertex -95 85 -1
      vertex -1.5 0 -1
      vertex -95 -85 -1
    endloop
  endfacet
  facet normal 0 0 -1
    outer loop
      vertex -1.5 0 -1
      vertex -95 85 -1
      vertex -1.48717 0.195788 -1
    endloop
  endfacet
  facet normal 0 0 -1
    outer loop
      vertex -1.48717 0.195788 -1
      vertex -95 85 -1
      vertex -1.44889 0.388228 -1
    endloop
  endfacet
  facet normal 0 0 -1
    outer loop
      vertex -1.44889 0.388228 -1
      vertex -95 85 -1
      vertex -1.38582 0.574024 -1
    endloop
  endfacet
  facet normal 0 0 -1
    outer loop
      vertex -1.38582 0.574024 -1
      vertex -95 85 -1
      vertex -1.29904 0.75 -1
    endloop
  endfacet
  facet normal 0 0 -1
    outer loop
      vertex -1.29904 0.75 -1
      vertex -95 85 -1
      vertex -1.19003 0.913141 -1
    endloop
  endfacet
  facet normal 0 0 -1
    outer loop
      vertex 0 1.5 -1
      vertex -95 85 -1
      vertex 95 85 -1
    endloop
  endfacet
  facet normal 0 0 -1
    outer loop
      vertex -1.06066 1.06066 -1
      vertex -95 85 -1
      vertex -0.913141 1.19003 -1
    endloop
  endfacet
  facet normal 0 0 -1
    outer loop
      vertex -1.19003 0.913141 -1
      vertex -95 85 -1
      vertex -1.06066 1.06066 -1
    endloop
  endfacet
  facet normal -1 0 0
    outer loop
      vertex -95 -85 -1
      vertex -95 85 1
      vertex -95 85 -1
    endloop
  endfacet
  facet normal -1 -0 0
    outer loop
      vertex -95 85 1
      vertex -95 -85 -1
      vertex -95 -85 1
    endloop
  endfacet
  facet normal 0 1 -0
    outer loop
      vertex 95 85 -1
      vertex -95 85 1
      vertex 95 85 1
    endloop
  endfacet
  facet normal 0 1 0
    outer loop
      vertex -95 85 1
      vertex 95 85 -1
      vertex -95 85 -1
    endloop
  endfacet
  facet normal 0 -1 0
    outer loop
      vertex -95 -85 -1
      vertex 95 -85 1
      vertex -95 -85 1
    endloop
  endfacet
  facet normal 0 -1 -0
    outer loop
      vertex 95 -85 1
      vertex -95 -85 -1
      vertex 95 -85 -1
    endloop
  endfacet
  facet normal -0.980784 -0.195097 0
    outer loop
      vertex 1.48717 0.195788 -1
      vertex 1.44889 0.388228 1
      vertex 1.44889 0.388228 -1
    endloop
  endfacet
  facet normal -0.980784 -0.195097 0
    outer loop
      vertex 1.44889 0.388228 1
      vertex 1.48717 0.195788 -1
      vertex 1.48717 0.195788 1
    endloop
  endfacet
  facet normal -0.99786 -0.0653898 0
    outer loop
      vertex 1.5 0 -1
      vertex 1.48717 0.195788 1
      vertex 1.48717 0.195788 -1
    endloop
  endfacet
  facet normal -0.99786 -0.0653898 0
    outer loop
      vertex 1.48717 0.195788 1
      vertex 1.5 0 -1
      vertex 1.5 0 1
    endloop
  endfacet
  facet normal -0.321443 0.946929 0
    outer loop
      vertex 0.574024 -1.38582 -1
      vertex 0.388228 -1.44889 1
      vertex 0.574024 -1.38582 1
    endloop
  endfacet
  facet normal -0.321443 0.946929 0
    outer loop
      vertex 0.388228 -1.44889 1
      vertex 0.574024 -1.38582 -1
      vertex 0.388228 -1.44889 -1
    endloop
  endfacet
  facet normal -0.831463 -0.55558 0
    outer loop
      vertex 1.29904 0.75 -1
      vertex 1.19003 0.913141 1
      vertex 1.19003 0.913141 -1
    endloop
  endfacet
  facet normal -0.831463 -0.55558 0
    outer loop
      vertex 1.19003 0.913141 1
      vertex 1.29904 0.75 -1
      vertex 1.29904 0.75 1
    endloop
  endfacet
  facet normal 0.831463 -0.55558 0
    outer loop
      vertex -1.29904 0.75 1
      vertex -1.19003 0.913141 -1
      vertex -1.19003 0.913141 1
    endloop
  endfacet
  facet normal 0.831463 -0.55558 0
    outer loop
      vertex -1.19003 0.913141 -1
      vertex -1.29904 0.75 1
      vertex -1.29904 0.75 -1
    endloop
  endfacet
  facet normal 0.896876 -0.442281 0
    outer loop
      vertex -1.38582 0.574024 1
      vertex -1.29904 0.75 -1
      vertex -1.29904 0.75 1
    endloop
  endfacet
  facet normal 0.896876 -0.442281 0
    outer loop
      vertex -1.29904 0.75 -1
      vertex -1.38582 0.574024 1
      vertex -1.38582 0.574024 -1
    endloop
  endfacet
  facet normal 0.55558 -0.831463 0
    outer loop
      vertex -0.913141 1.19003 -1
      vertex -0.75 1.29904 1
      vertex -0.913141 1.19003 1
    endloop
  endfacet
  facet normal 0.55558 -0.831463 0
    outer loop
      vertex -0.75 1.29904 1
      vertex -0.913141 1.19003 -1
      vertex -0.75 1.29904 -1
    endloop
  endfacet
  facet normal 0.659344 -0.751842 0
    outer loop
      vertex -1.06066 1.06066 -1
      vertex -0.913141 1.19003 1
      vertex -1.06066 1.06066 1
    endloop
  endfacet
  facet normal 0.659344 -0.751842 0
    outer loop
      vertex -0.913141 1.19003 1
      vertex -1.06066 1.06066 -1
      vertex -0.913141 1.19003 -1
    endloop
  endfacet
  facet normal -0.946929 0.321443 0
    outer loop
      vertex 1.38582 -0.574024 -1
      vertex 1.44889 -0.388228 1
      vertex 1.44889 -0.388228 -1
    endloop
  endfacet
  facet normal -0.946929 0.321443 0
    outer loop
      vertex 1.44889 -0.388228 1
      vertex 1.38582 -0.574024 -1
      vertex 1.38582 -0.574024 1
    endloop
  endfacet
  facet normal 0.99786 -0.0653898 0
    outer loop
      vertex -1.5 0 1
      vertex -1.48717 0.195788 -1
      vertex -1.48717 0.195788 1
    endloop
  endfacet
  facet normal 0.99786 -0.0653898 0
    outer loop
      vertex -1.48717 0.195788 -1
      vertex -1.5 0 1
      vertex -1.5 0 -1
    endloop
  endfacet
  facet normal -0.55558 -0.831463 0
    outer loop
      vertex 0.75 1.29904 -1
      vertex 0.913141 1.19003 1
      vertex 0.75 1.29904 1
    endloop
  endfacet
  facet normal -0.55558 -0.831463 -0
    outer loop
      vertex 0.913141 1.19003 1
      vertex 0.75 1.29904 -1
      vertex 0.913141 1.19003 -1
    endloop
  endfacet
  facet normal 0.321443 0.946929 -0
    outer loop
      vertex -0.388228 -1.44889 -1
      vertex -0.574024 -1.38582 1
      vertex -0.388228 -1.44889 1
    endloop
  endfacet
  facet normal 0.321443 0.946929 0
    outer loop
      vertex -0.574024 -1.38582 1
      vertex -0.388228 -1.44889 -1
      vertex -0.574024 -1.38582 -1
    endloop
  endfacet
  facet normal 0.751842 0.659344 0
    outer loop
      vertex -1.06066 -1.06066 1
      vertex -1.19003 -0.913141 -1
      vertex -1.19003 -0.913141 1
    endloop
  endfacet
  facet normal 0.751842 0.659344 0
    outer loop
      vertex -1.19003 -0.913141 -1
      vertex -1.06066 -1.06066 1
      vertex -1.06066 -1.06066 -1
    endloop
  endfacet
  facet normal -0.195097 0.980784 0
    outer loop
      vertex 0.388228 -1.44889 -1
      vertex 0.195788 -1.48717 1
      vertex 0.388228 -1.44889 1
    endloop
  endfacet
  facet normal -0.195097 0.980784 0
    outer loop
      vertex 0.195788 -1.48717 1
      vertex 0.388228 -1.44889 -1
      vertex 0.195788 -1.48717 -1
    endloop
  endfacet
  facet normal 0.321443 -0.946929 0
    outer loop
      vertex -0.574024 1.38582 -1
      vertex -0.388228 1.44889 1
      vertex -0.574024 1.38582 1
    endloop
  endfacet
  facet normal 0.321443 -0.946929 0
    outer loop
      vertex -0.388228 1.44889 1
      vertex -0.574024 1.38582 -1
      vertex -0.388228 1.44889 -1
    endloop
  endfacet
  facet normal 0.831463 0.55558 0
    outer loop
      vertex -1.19003 -0.913141 1
      vertex -1.29904 -0.75 -1
      vertex -1.29904 -0.75 1
    endloop
  endfacet
  facet normal 0.831463 0.55558 0
    outer loop
      vertex -1.29904 -0.75 -1
      vertex -1.19003 -0.913141 1
      vertex -1.19003 -0.913141 -1
    endloop
  endfacet
  facet normal 0.946929 -0.321443 0
    outer loop
      vertex -1.44889 0.388228 1
      vertex -1.38582 0.574024 -1
      vertex -1.38582 0.574024 1
    endloop
  endfacet
  facet normal 0.946929 -0.321443 0
    outer loop
      vertex -1.38582 0.574024 -1
      vertex -1.44889 0.388228 1
      vertex -1.44889 0.388228 -1
    endloop
  endfacet
  facet normal 0.195097 0.980784 -0
    outer loop
      vertex -0.195788 -1.48717 -1
      vertex -0.388228 -1.44889 1
      vertex -0.195788 -1.48717 1
    endloop
  endfacet
  facet normal 0.195097 0.980784 0
    outer loop
      vertex -0.388228 -1.44889 1
      vertex -0.195788 -1.48717 -1
      vertex -0.388228 -1.44889 -1
    endloop
  endfacet
  facet normal -0.321443 -0.946929 0
    outer loop
      vertex 0.388228 1.44889 -1
      vertex 0.574024 1.38582 1
      vertex 0.388228 1.44889 1
    endloop
  endfacet
  facet normal -0.321443 -0.946929 -0
    outer loop
      vertex 0.574024 1.38582 1
      vertex 0.388228 1.44889 -1
      vertex 0.574024 1.38582 -1
    endloop
  endfacet
  facet normal -0.0653898 -0.99786 0
    outer loop
      vertex 0 1.5 -1
      vertex 0.195788 1.48717 1
      vertex 0 1.5 1
    endloop
  endfacet
  facet normal -0.0653898 -0.99786 -0
    outer loop
      vertex 0.195788 1.48717 1
      vertex 0 1.5 -1
      vertex 0.195788 1.48717 -1
    endloop
  endfacet
  facet normal 0.442281 -0.896876 0
    outer loop
      vertex -0.75 1.29904 -1
      vertex -0.574024 1.38582 1
      vertex -0.75 1.29904 1
    endloop
  endfacet
  facet normal 0.442281 -0.896876 0
    outer loop
      vertex -0.574024 1.38582 1
      vertex -0.75 1.29904 -1
      vertex -0.574024 1.38582 -1
    endloop
  endfacet
  facet normal -0.831463 0.55558 0
    outer loop
      vertex 1.19003 -0.913141 -1
      vertex 1.29904 -0.75 1
      vertex 1.29904 -0.75 -1
    endloop
  endfacet
  facet normal -0.831463 0.55558 0
    outer loop
      vertex 1.29904 -0.75 1
      vertex 1.19003 -0.913141 -1
      vertex 1.19003 -0.913141 1
    endloop
  endfacet
  facet normal 0.99786 0.0653898 0
    outer loop
      vertex -1.48717 -0.195788 1
      vertex -1.5 0 -1
      vertex -1.5 0 1
    endloop
  endfacet
  facet normal 0.99786 0.0653898 0
    outer loop
      vertex -1.5 0 -1
      vertex -1.48717 -0.195788 1
      vertex -1.48717 -0.195788 -1
    endloop
  endfacet
  facet normal -0.980784 0.195097 0
    outer loop
      vertex 1.44889 -0.388228 -1
      vertex 1.48717 -0.195788 1
      vertex 1.48717 -0.195788 -1
    endloop
  endfacet
  facet normal -0.980784 0.195097 0
    outer loop
      vertex 1.48717 -0.195788 1
      vertex 1.44889 -0.388228 -1
      vertex 1.44889 -0.388228 1
    endloop
  endfacet
  facet normal 0.946929 0.321443 0
    outer loop
      vertex -1.38582 -0.574024 1
      vertex -1.44889 -0.388228 -1
      vertex -1.44889 -0.388228 1
    endloop
  endfacet
  facet normal 0.946929 0.321443 0
    outer loop
      vertex -1.44889 -0.388228 -1
      vertex -1.38582 -0.574024 1
      vertex -1.38582 -0.574024 -1
    endloop
  endfacet
  facet normal -0.442281 -0.896876 0
    outer loop
      vertex 0.574024 1.38582 -1
      vertex 0.75 1.29904 1
      vertex 0.574024 1.38582 1
    endloop
  endfacet
  facet normal -0.442281 -0.896876 -0
    outer loop
      vertex 0.75 1.29904 1
      vertex 0.574024 1.38582 -1
      vertex 0.75 1.29904 -1
    endloop
  endfacet
  facet normal 0.195097 -0.980784 0
    outer loop
      vertex -0.388228 1.44889 -1
      vertex -0.195788 1.48717 1
      vertex -0.388228 1.44889 1
    endloop
  endfacet
  facet normal 0.195097 -0.980784 0
    outer loop
      vertex -0.195788 1.48717 1
      vertex -0.388228 1.44889 -1
      vertex -0.195788 1.48717 -1
    endloop
  endfacet
  facet normal -0.751842 -0.659344 0
    outer loop
      vertex 1.19003 0.913141 -1
      vertex 1.06066 1.06066 1
      vertex 1.06066 1.06066 -1
    endloop
  endfacet
  facet normal -0.751842 -0.659344 0
    outer loop
      vertex 1.06066 1.06066 1
      vertex 1.19003 0.913141 -1
      vertex 1.19003 0.913141 1
    endloop
  endfacet
  facet normal -0.195097 -0.980784 0
    outer loop
      vertex 0.195788 1.48717 -1
      vertex 0.388228 1.44889 1
      vertex 0.195788 1.48717 1
    endloop
  endfacet
  facet normal -0.195097 -0.980784 -0
    outer loop
      vertex 0.388228 1.44889 1
      vertex 0.195788 1.48717 -1
      vertex 0.388228 1.44889 -1
    endloop
  endfacet
  facet normal -0.751842 0.659344 0
    outer loop
      vertex 1.06066 -1.06066 -1
      vertex 1.19003 -0.913141 1
      vertex 1.19003 -0.913141 -1
    endloop
  endfacet
  facet normal -0.751842 0.659344 0
    outer loop
      vertex 1.19003 -0.913141 1
      vertex 1.06066 -1.06066 -1
      vertex 1.06066 -1.06066 1
    endloop
  endfacet
  facet normal 0.751842 -0.659344 0
    outer loop
      vertex -1.19003 0.913141 1
      vertex -1.06066 1.06066 -1
      vertex -1.06066 1.06066 1
    endloop
  endfacet
  facet normal 0.751842 -0.659344 0
    outer loop
      vertex -1.06066 1.06066 -1
      vertex -1.19003 0.913141 1
      vertex -1.19003 0.913141 -1
    endloop
  endfacet
  facet normal 0.980784 -0.195097 0
    outer loop
      vertex -1.48717 0.195788 1
      vertex -1.44889 0.388228 -1
      vertex -1.44889 0.388228 1
    endloop
  endfacet
  facet normal 0.980784 -0.195097 0
    outer loop
      vertex -1.44889 0.388228 -1
      vertex -1.48717 0.195788 1
      vertex -1.48717 0.195788 -1
    endloop
  endfacet
  facet normal -0.0653898 0.99786 0
    outer loop
      vertex 0.195788 -1.48717 -1
      vertex 0 -1.5 1
      vertex 0.195788 -1.48717 1
    endloop
  endfacet
  facet normal -0.0653898 0.99786 0
    outer loop
      vertex 0 -1.5 1
      vertex 0.195788 -1.48717 -1
      vertex 0 -1.5 -1
    endloop
  endfacet
  facet normal -0.442281 0.896876 0
    outer loop
      vertex 0.75 -1.29904 -1
      vertex 0.574024 -1.38582 1
      vertex 0.75 -1.29904 1
    endloop
  endfacet
  facet normal -0.442281 0.896876 0
    outer loop
      vertex 0.574024 -1.38582 1
      vertex 0.75 -1.29904 -1
      vertex 0.574024 -1.38582 -1
    endloop
  endfacet
  facet normal 0.896876 0.442281 0
    outer loop
      vertex -1.29904 -0.75 1
      vertex -1.38582 -0.574024 -1
      vertex -1.38582 -0.574024 1
    endloop
  endfacet
  facet normal 0.896876 0.442281 0
    outer loop
      vertex -1.38582 -0.574024 -1
      vertex -1.29904 -0.75 1
      vertex -1.29904 -0.75 -1
    endloop
  endfacet
  facet normal -0.896876 0.442281 0
    outer loop
      vertex 1.29904 -0.75 -1
      vertex 1.38582 -0.574024 1
      vertex 1.38582 -0.574024 -1
    endloop
  endfacet
  facet normal -0.896876 0.442281 0
    outer loop
      vertex 1.38582 -0.574024 1
      vertex 1.29904 -0.75 -1
      vertex 1.29904 -0.75 1
    endloop
  endfacet
  facet normal -0.659344 -0.751842 0
    outer loop
      vertex 0.913141 1.19003 -1
      vertex 1.06066 1.06066 1
      vertex 0.913141 1.19003 1
    endloop
  endfacet
  facet normal -0.659344 -0.751842 -0
    outer loop
      vertex 1.06066 1.06066 1
      vertex 0.913141 1.19003 -1
      vertex 1.06066 1.06066 -1
    endloop
  endfacet
  facet normal -0.99786 0.0653898 0
    outer loop
      vertex 1.48717 -0.195788 -1
      vertex 1.5 0 1
      vertex 1.5 0 -1
    endloop
  endfacet
  facet normal -0.99786 0.0653898 0
    outer loop
      vertex 1.5 0 1
      vertex 1.48717 -0.195788 -1
      vertex 1.48717 -0.195788 1
    endloop
  endfacet
  facet normal -0.896876 -0.442281 0
    outer loop
      vertex 1.38582 0.574024 -1
      vertex 1.29904 0.75 1
      vertex 1.29904 0.75 -1
    endloop
  endfacet
  facet normal -0.896876 -0.442281 0
    outer loop
      vertex 1.29904 0.75 1
      vertex 1.38582 0.574024 -1
      vertex 1.38582 0.574024 1
    endloop
  endfacet
  facet normal -0.55558 0.831463 0
    outer loop
      vertex 0.913141 -1.19003 -1
      vertex 0.75 -1.29904 1
      vertex 0.913141 -1.19003 1
    endloop
  endfacet
  facet normal -0.55558 0.831463 0
    outer loop
      vertex 0.75 -1.29904 1
      vertex 0.913141 -1.19003 -1
      vertex 0.75 -1.29904 -1
    endloop
  endfacet
  facet normal -0.946929 -0.321443 0
    outer loop
      vertex 1.44889 0.388228 -1
      vertex 1.38582 0.574024 1
      vertex 1.38582 0.574024 -1
    endloop
  endfacet
  facet normal -0.946929 -0.321443 0
    outer loop
      vertex 1.38582 0.574024 1
      vertex 1.44889 0.388228 -1
      vertex 1.44889 0.388228 1
    endloop
  endfacet
  facet normal 0.0653898 -0.99786 0
    outer loop
      vertex -0.195788 1.48717 -1
      vertex 0 1.5 1
      vertex -0.195788 1.48717 1
    endloop
  endfacet
  facet normal 0.0653898 -0.99786 0
    outer loop
      vertex 0 1.5 1
      vertex -0.195788 1.48717 -1
      vertex 0 1.5 -1
    endloop
  endfacet
  facet normal 0.659344 0.751842 -0
    outer loop
      vertex -0.913141 -1.19003 -1
      vertex -1.06066 -1.06066 1
      vertex -0.913141 -1.19003 1
    endloop
  endfacet
  facet normal 0.659344 0.751842 0
    outer loop
      vertex -1.06066 -1.06066 1
      vertex -0.913141 -1.19003 -1
      vertex -1.06066 -1.06066 -1
    endloop
  endfacet
  facet normal 0.980784 0.195097 0
    outer loop
      vertex -1.44889 -0.388228 1
      vertex -1.48717 -0.195788 -1
      vertex -1.48717 -0.195788 1
    endloop
  endfacet
  facet normal 0.980784 0.195097 0
    outer loop
      vertex -1.48717 -0.195788 -1
      vertex -1.44889 -0.388228 1
      vertex -1.44889 -0.388228 -1
    endloop
  endfacet
  facet normal -0.659344 0.751842 0
    outer loop
      vertex 1.06066 -1.06066 -1
      vertex 0.913141 -1.19003 1
      vertex 1.06066 -1.06066 1
    endloop
  endfacet
  facet normal -0.659344 0.751842 0
    outer loop
      vertex 0.913141 -1.19003 1
      vertex 1.06066 -1.06066 -1
      vertex 0.913141 -1.19003 -1
    endloop
  endfacet
  facet normal 0.0653898 0.99786 -0
    outer loop
      vertex 0 -1.5 -1
      vertex -0.195788 -1.48717 1
      vertex 0 -1.5 1
    endloop
  endfacet
  facet normal 0.0653898 0.99786 0
    outer loop
      vertex -0.195788 -1.48717 1
      vertex 0 -1.5 -1
      vertex -0.195788 -1.48717 -1
    endloop
  endfacet
  facet normal 0.442281 0.896876 -0
    outer loop
      vertex -0.574024 -1.38582 -1
      vertex -0.75 -1.29904 1
      vertex -0.574024 -1.38582 1
    endloop
  endfacet
  facet normal 0.442281 0.896876 0
    outer loop
      vertex -0.75 -1.29904 1
      vertex -0.574024 -1.38582 -1
      vertex -0.75 -1.29904 -1
    endloop
  endfacet
  facet normal 0.55558 0.831463 -0
    outer loop
      vertex -0.75 -1.29904 -1
      vertex -0.913141 -1.19003 1
      vertex -0.75 -1.29904 1
    endloop
  endfacet
  facet normal 0.55558 0.831463 0
    outer loop
      vertex -0.913141 -1.19003 1
      vertex -0.75 -1.29904 -1
      vertex -0.913141 -1.19003 -1
    endloop
  endfacet
endsolid OpenSCAD_Model
