solid OpenSCAD_Model
  facet normal 1 -0 0
    outer loop
      vertex 100 -20 1
      vertex 100 20 -1
      vertex 100 20 1
    endloop
  endfacet
  facet normal 1 0 0
    outer loop
      vertex 100 20 -1
      vertex 100 -20 1
      vertex 100 -20 -1
    endloop
  endfacet
  facet normal 0 0 1
    outer loop
      vertex 100 20 1
      vertex 2 0 1
      vertex 100 -20 1
    endloop
  endfacet
  facet normal 0 0 1
    outer loop
      vertex 100 20 1
      vertex 1.98289 0.261052 1
      vertex 2 0 1
    endloop
  endfacet
  facet normal 0 0 1
    outer loop
      vertex 100 20 1
      vertex 1.93185 0.517637 1
      vertex 1.98289 0.261052 1
    endloop
  endfacet
  facet normal 0 0 1
    outer loop
      vertex 100 20 1
      vertex 1.84776 0.765367 1
      vertex 1.93185 0.517637 1
    endloop
  endfacet
  facet normal 0 0 1
    outer loop
      vertex 100 20 1
      vertex 1.73205 1 1
      vertex 1.84776 0.765367 1
    endloop
  endfacet
  facet normal 0 0 1
    outer loop
      vertex 100 20 1
      vertex 1.58671 1.21752 1
      vertex 1.73205 1 1
    endloop
  endfacet
  facet normal 0 0 1
    outer loop
      vertex 100 20 1
      vertex 1.41421 1.41421 1
      vertex 1.58671 1.21752 1
    endloop
  endfacet
  facet normal 0 0 1
    outer loop
      vertex 100 20 1
      vertex 1.21752 1.58671 1
      vertex 1.41421 1.41421 1
    endloop
  endfacet
  facet normal 0 0 1
    outer loop
      vertex 100 20 1
      vertex 1 1.73205 1
      vertex 1.21752 1.58671 1
    endloop
  endfacet
  facet normal 0 0 1
    outer loop
      vertex 100 20 1
      vertex 0.765367 1.84776 1
      vertex 1 1.73205 1
    endloop
  endfacet
  facet normal 0 0 1
    outer loop
      vertex 100 20 1
      vertex 0.517637 1.93185 1
      vertex 0.765367 1.84776 1
    endloop
  endfacet
  facet normal 0 0 1
    outer loop
      vertex 100 20 1
      vertex 0.261052 1.98289 1
      vertex 0.517637 1.93185 1
    endloop
  endfacet
  facet normal 0 0 1
    outer loop
      vertex 100 20 1
      vertex 0 2 1
      vertex 0.261052 1.98289 1
    endloop
  endfacet
  facet normal -0 0 1
    outer loop
      vertex -100 20 1
      vertex 0 2 1
      vertex 100 20 1
    endloop
  endfacet
  facet normal 0 0 1
    outer loop
      vertex -1.98289 0.261052 1
      vertex -100 20 1
      vertex -2 0 1
    endloop
  endfacet
  facet normal 0 0 1
    outer loop
      vertex -1.93185 0.517637 1
      vertex -100 20 1
      vertex -1.98289 0.261052 1
    endloop
  endfacet
  facet normal 0 0 1
    outer loop
      vertex -1.84776 0.765367 1
      vertex -100 20 1
      vertex -1.93185 0.517637 1
    endloop
  endfacet
  facet normal 0 0 1
    outer loop
      vertex -1.73205 1 1
      vertex -100 20 1
      vertex -1.84776 0.765367 1
    endloop
  endfacet
  facet normal 0 0 1
    outer loop
      vertex -1.58671 1.21752 1
      vertex -100 20 1
      vertex -1.73205 1 1
    endloop
  endfacet
  facet normal 0 0 1
    outer loop
      vertex -1.41421 1.41421 1
      vertex -100 20 1
      vertex -1.58671 1.21752 1
    endloop
  endfacet
  facet normal 0 0 1
    outer loop
      vertex -1.21752 1.58671 1
      vertex -100 20 1
      vertex -1.41421 1.41421 1
    endloop
  endfacet
  facet normal 0 0 1
    outer loop
      vertex -1 1.73205 1
      vertex -100 20 1
      vertex -1.21752 1.58671 1
    endloop
  endfacet
  facet normal 0 0 1
    outer loop
      vertex -0.765367 1.84776 1
      vertex -100 20 1
      vertex -1 1.73205 1
    endloop
  endfacet
  facet normal 0 0 1
    outer loop
      vertex -0.517637 1.93185 1
      vertex -100 20 1
      vertex -0.765367 1.84776 1
    endloop
  endfacet
  facet normal 0 0 1
    outer loop
      vertex -0.261052 1.98289 1
      vertex -100 20 1
      vertex -0.517637 1.93185 1
    endloop
  endfacet
  facet normal 0 0 1
    outer loop
      vertex 0 2 1
      vertex -100 20 1
      vertex -0.261052 1.98289 1
    endloop
  endfacet
  facet normal -0 0 1
    outer loop
      vertex 1.98289 -0.261052 1
      vertex 100 -20 1
      vertex 2 0 1
    endloop
  endfacet
  facet normal -0 0 1
    outer loop
      vertex 1.93185 -0.517637 1
      vertex 100 -20 1
      vertex 1.98289 -0.261052 1
    endloop
  endfacet
  facet normal -0 0 1
    outer loop
      vertex 1.84776 -0.765367 1
      vertex 100 -20 1
      vertex 1.93185 -0.517637 1
    endloop
  endfacet
  facet normal -0 0 1
    outer loop
      vertex 1.73205 -1 1
      vertex 100 -20 1
      vertex 1.84776 -0.765367 1
    endloop
  endfacet
  facet normal -0 0 1
    outer loop
      vertex 1.58671 -1.21752 1
      vertex 100 -20 1
      vertex 1.73205 -1 1
    endloop
  endfacet
  facet normal -0 0 1
    outer loop
      vertex 1.41421 -1.41421 1
      vertex 100 -20 1
      vertex 1.58671 -1.21752 1
    endloop
  endfacet
  facet normal -0 0 1
    outer loop
      vertex 1.21752 -1.58671 1
      vertex 100 -20 1
      vertex 1.41421 -1.41421 1
    endloop
  endfacet
  facet normal -0 0 1
    outer loop
      vertex 1 -1.73205 1
      vertex 100 -20 1
      vertex 1.21752 -1.58671 1
    endloop
  endfacet
  facet normal -0 0 1
    outer loop
      vertex 0.765367 -1.84776 1
      vertex 100 -20 1
      vertex 1 -1.73205 1
    endloop
  endfacet
  facet normal -0 0 1
    outer loop
      vertex 0.517637 -1.93185 1
      vertex 100 -20 1
      vertex 0.765367 -1.84776 1
    endloop
  endfacet
  facet normal -0 0 1
    outer loop
      vertex 0.261052 -1.98289 1
      vertex 100 -20 1
      vertex 0.517637 -1.93185 1
    endloop
  endfacet
  facet normal -0 0 1
    outer loop
      vertex 0 -2 1
      vertex 100 -20 1
      vertex 0.261052 -1.98289 1
    endloop
  endfacet
  facet normal 0 0 1
    outer loop
      vertex -100 -20 1
      vertex 0 -2 1
      vertex -0.261052 -1.98289 1
    endloop
  endfacet
  facet normal 0 0 1
    outer loop
      vertex -100 -20 1
      vertex -2 0 1
      vertex -100 20 1
    endloop
  endfacet
  facet normal 0 0 1
    outer loop
      vertex -2 0 1
      vertex -100 -20 1
      vertex -1.98289 -0.261052 1
    endloop
  endfacet
  facet normal 0 0 1
    outer loop
      vertex -1.98289 -0.261052 1
      vertex -100 -20 1
      vertex -1.93185 -0.517637 1
    endloop
  endfacet
  facet normal 0 0 1
    outer loop
      vertex -1.93185 -0.517637 1
      vertex -100 -20 1
      vertex -1.84776 -0.765367 1
    endloop
  endfacet
  facet normal 0 0 1
    outer loop
      vertex -1.84776 -0.765367 1
      vertex -100 -20 1
      vertex -1.73205 -1 1
    endloop
  endfacet
  facet normal 0 0 1
    outer loop
      vertex -1.73205 -1 1
      vertex -100 -20 1
      vertex -1.58671 -1.21752 1
    endloop
  endfacet
  facet normal 0 0 1
    outer loop
      vertex -1.58671 -1.21752 1
      vertex -100 -20 1
      vertex -1.41421 -1.41421 1
    endloop
  endfacet
  facet normal 0 0 1
    outer loop
      vertex -1.41421 -1.41421 1
      vertex -100 -20 1
      vertex -1.21752 -1.58671 1
    endloop
  endfacet
  facet normal 0 0 1
    outer loop
      vertex -1.21752 -1.58671 1
      vertex -100 -20 1
      vertex -1 -1.73205 1
    endloop
  endfacet
  facet normal 0 0 1
    outer loop
      vertex -1 -1.73205 1
      vertex -100 -20 1
      vertex -0.765367 -1.84776 1
    endloop
  endfacet
  facet normal 0 0 1
    outer loop
      vertex 0 -2 1
      vertex -100 -20 1
      vertex 100 -20 1
    endloop
  endfacet
  facet normal 0 0 1
    outer loop
      vertex -0.517637 -1.93185 1
      vertex -100 -20 1
      vertex -0.261052 -1.98289 1
    endloop
  endfacet
  facet normal 0 0 1
    outer loop
      vertex -0.765367 -1.84776 1
      vertex -100 -20 1
      vertex -0.517637 -1.93185 1
    endloop
  endfacet
  facet normal 0 0 -1
    outer loop
      vertex 100 -20 -1
      vertex 2 0 -1
      vertex 100 20 -1
    endloop
  endfacet
  facet normal 0 0 -1
    outer loop
      vertex 100 -20 -1
      vertex 1.98289 -0.261052 -1
      vertex 2 0 -1
    endloop
  endfacet
  facet normal 0 0 -1
    outer loop
      vertex 100 -20 -1
      vertex 1.93185 -0.517637 -1
      vertex 1.98289 -0.261052 -1
    endloop
  endfacet
  facet normal 0 0 -1
    outer loop
      vertex 100 -20 -1
      vertex 1.84776 -0.765367 -1
      vertex 1.93185 -0.517637 -1
    endloop
  endfacet
  facet normal 0 0 -1
    outer loop
      vertex 100 -20 -1
      vertex 1.73205 -1 -1
      vertex 1.84776 -0.765367 -1
    endloop
  endfacet
  facet normal 0 0 -1
    outer loop
      vertex 100 -20 -1
      vertex 1.58671 -1.21752 -1
      vertex 1.73205 -1 -1
    endloop
  endfacet
  facet normal 0 0 -1
    outer loop
      vertex 100 -20 -1
      vertex 1.41421 -1.41421 -1
      vertex 1.58671 -1.21752 -1
    endloop
  endfacet
  facet normal 0 0 -1
    outer loop
      vertex 100 -20 -1
      vertex 1.21752 -1.58671 -1
      vertex 1.41421 -1.41421 -1
    endloop
  endfacet
  facet normal 0 0 -1
    outer loop
      vertex 100 -20 -1
      vertex 1 -1.73205 -1
      vertex 1.21752 -1.58671 -1
    endloop
  endfacet
  facet normal 0 0 -1
    outer loop
      vertex 100 -20 -1
      vertex 0.765367 -1.84776 -1
      vertex 1 -1.73205 -1
    endloop
  endfacet
  facet normal 0 0 -1
    outer loop
      vertex 100 -20 -1
      vertex 0.517637 -1.93185 -1
      vertex 0.765367 -1.84776 -1
    endloop
  endfacet
  facet normal 0 0 -1
    outer loop
      vertex 100 -20 -1
      vertex 0.261052 -1.98289 -1
      vertex 0.517637 -1.93185 -1
    endloop
  endfacet
  facet normal 0 0 -1
    outer loop
      vertex 100 -20 -1
      vertex 0 -2 -1
      vertex 0.261052 -1.98289 -1
    endloop
  endfacet
  facet normal 0 0 -1
    outer loop
      vertex -100 -20 -1
      vertex 0 -2 -1
      vertex 100 -20 -1
    endloop
  endfacet
  facet normal -0 0 -1
    outer loop
      vertex -1.98289 -0.261052 -1
      vertex -100 -20 -1
      vertex -2 0 -1
    endloop
  endfacet
  facet normal -0 0 -1
    outer loop
      vertex -1.93185 -0.517637 -1
      vertex -100 -20 -1
      vertex -1.98289 -0.261052 -1
    endloop
  endfacet
  facet normal -0 0 -1
    outer loop
      vertex -1.84776 -0.765367 -1
      vertex -100 -20 -1
      vertex -1.93185 -0.517637 -1
    endloop
  endfacet
  facet normal -0 0 -1
    outer loop
      vertex -1.73205 -1 -1
      vertex -100 -20 -1
      vertex -1.84776 -0.765367 -1
    endloop
  endfacet
  facet normal -0 0 -1
    outer loop
      vertex -1.58671 -1.21752 -1
      vertex -100 -20 -1
      vertex -1.73205 -1 -1
    endloop
  endfacet
  facet normal -0 0 -1
    outer loop
      vertex -1.41421 -1.41421 -1
      vertex -100 -20 -1
      vertex -1.58671 -1.21752 -1
    endloop
  endfacet
  facet normal -0 0 -1
    outer loop
      vertex -1.21752 -1.58671 -1
      vertex -100 -20 -1
      vertex -1.41421 -1.41421 -1
    endloop
  endfacet
  facet normal -0 0 -1
    outer loop
      vertex -1 -1.73205 -1
      vertex -100 -20 -1
      vertex -1.21752 -1.58671 -1
    endloop
  endfacet
  facet normal -0 0 -1
    outer loop
      vertex -0.765367 -1.84776 -1
      vertex -100 -20 -1
      vertex -1 -1.73205 -1
    endloop
  endfacet
  facet normal -0 0 -1
    outer loop
      vertex -0.517637 -1.93185 -1
      vertex -100 -20 -1
      vertex -0.765367 -1.84776 -1
    endloop
  endfacet
  facet normal -0 0 -1
    outer loop
      vertex -0.261052 -1.98289 -1
      vertex -100 -20 -1
      vertex -0.517637 -1.93185 -1
    endloop
  endfacet
  facet normal -0 0 -1
    outer loop
      vertex 0 -2 -1
      vertex -100 -20 -1
      vertex -0.261052 -1.98289 -1
    endloop
  endfacet
  facet normal 0 0 -1
    outer loop
      vertex 1.98289 0.261052 -1
      vertex 100 20 -1
      vertex 2 0 -1
    endloop
  endfacet
  facet normal 0 0 -1
    outer loop
      vertex 1.93185 0.517637 -1
      vertex 100 20 -1
      vertex 1.98289 0.261052 -1
    endloop
  endfacet
  facet normal 0 0 -1
    outer loop
      vertex 1.84776 0.765367 -1
      vertex 100 20 -1
      vertex 1.93185 0.517637 -1
    endloop
  endfacet
  facet normal 0 0 -1
    outer loop
      vertex 1.73205 1 -1
      vertex 100 20 -1
      vertex 1.84776 0.765367 -1
    endloop
  endfacet
  facet normal 0 0 -1
    outer loop
      vertex 1.58671 1.21752 -1
      vertex 100 20 -1
      vertex 1.73205 1 -1
    endloop
  endfacet
  facet normal 0 0 -1
    outer loop
      vertex 1.41421 1.41421 -1
      vertex 100 20 -1
      vertex 1.58671 1.21752 -1
    endloop
  endfacet
  facet normal 0 0 -1
    outer loop
      vertex 1.21752 1.58671 -1
      vertex 100 20 -1
      vertex 1.41421 1.41421 -1
    endloop
  endfacet
  facet normal 0 0 -1
    outer loop
      vertex 1 1.73205 -1
      vertex 100 20 -1
      vertex 1.21752 1.58671 -1
    endloop
  endfacet
  facet normal 0 0 -1
    outer loop
      vertex 0.765367 1.84776 -1
      vertex 100 20 -1
      vertex 1 1.73205 -1
    endloop
  endfacet
  facet normal 0 0 -1
    outer loop
      vertex 0.517637 1.93185 -1
      vertex 100 20 -1
      vertex 0.765367 1.84776 -1
    endloop
  endfacet
  facet normal 0 0 -1
    outer loop
      vertex 0.261052 1.98289 -1
      vertex 100 20 -1
      vertex 0.517637 1.93185 -1
    endloop
  endfacet
  facet normal 0 0 -1
    outer loop
      vertex 0 2 -1
      vertex 100 20 -1
      vertex 0.261052 1.98289 -1
    endloop
  endfacet
  facet normal 0 0 -1
    outer loop
      vertex -100 20 -1
      vertex 0 2 -1
      vertex -0.261052 1.98289 -1
    endloop
  endfacet
  facet normal 0 0 -1
    outer loop
      vertex -100 20 -1
      vertex -2 0 -1
      vertex -100 -20 -1
    endloop
  endfacet
  facet normal 0 0 -1
    outer loop
      vertex -2 0 -1
      vertex -100 20 -1
      vertex -1.98289 0.261052 -1
    endloop
  endfacet
  facet normal 0 0 -1
    outer loop
      vertex -1.98289 0.261052 -1
      vertex -100 20 -1
      vertex -1.93185 0.517637 -1
    endloop
  endfacet
  facet normal 0 0 -1
    outer loop
      vertex -1.93185 0.517637 -1
      vertex -100 20 -1
      vertex -1.84776 0.765367 -1
    endloop
  endfacet
  facet normal 0 0 -1
    outer loop
      vertex -1.84776 0.765367 -1
      vertex -100 20 -1
      vertex -1.73205 1 -1
    endloop
  endfacet
  facet normal 0 0 -1
    outer loop
      vertex -1.73205 1 -1
      vertex -100 20 -1
      vertex -1.58671 1.21752 -1
    endloop
  endfacet
  facet normal 0 0 -1
    outer loop
      vertex -1.58671 1.21752 -1
      vertex -100 20 -1
      vertex -1.41421 1.41421 -1
    endloop
  endfacet
  facet normal 0 0 -1
    outer loop
      vertex -1.41421 1.41421 -1
      vertex -100 20 -1
      vertex -1.21752 1.58671 -1
    endloop
  endfacet
  facet normal 0 0 -1
    outer loop
      vertex -1.21752 1.58671 -1
      vertex -100 20 -1
      vertex -1 1.73205 -1
    endloop
  endfacet
  facet normal 0 0 -1
    outer loop
      vertex -1 1.73205 -1
      vertex -100 20 -1
      vertex -0.765367 1.84776 -1
    endloop
  endfacet
  facet normal 0 0 -1
    outer loop
      vertex 0 2 -1
      vertex -100 20 -1
      vertex 100 20 -1
    endloop
  endfacet
  facet normal 0 0 -1
    outer loop
      vertex -0.517637 1.93185 -1
      vertex -100 20 -1
      vertex -0.261052 1.98289 -1
    endloop
  endfacet
  facet normal 0 0 -1
    outer loop
      vertex -0.765367 1.84776 -1
      vertex -100 20 -1
      vertex -0.517637 1.93185 -1
    endloop
  endfacet
  facet normal -1 0 0
    outer loop
      vertex -100 -20 -1
      vertex -100 20 1
      vertex -100 20 -1
    endloop
  endfacet
  facet normal -1 -0 0
    outer loop
      vertex -100 20 1
      vertex -100 -20 -1
      vertex -100 -20 1
    endloop
  endfacet
  facet normal 0 1 -0
    outer loop
      vertex 100 20 -1
      vertex -100 20 1
      vertex 100 20 1
    endloop
  endfacet
  facet normal 0 1 0
    outer loop
      vertex -100 20 1
      vertex 100 20 -1
      vertex -100 20 -1
    endloop
  endfacet
  facet normal 0 -1 0
    outer loop
      vertex -100 -20 -1
      vertex 100 -20 1
      vertex -100 -20 1
    endloop
  endfacet
  facet normal 0 -1 -0
    outer loop
      vertex 100 -20 1
      vertex -100 -20 -1
      vertex 100 -20 -1
    endloop
  endfacet
  facet normal -0.980784 -0.195098 0
    outer loop
      vertex 1.98289 0.261052 -1
      vertex 1.93185 0.517637 1
      vertex 1.93185 0.517637 -1
    endloop
  endfacet
  facet normal -0.980784 -0.195098 0
    outer loop
      vertex 1.93185 0.517637 1
      vertex 1.98289 0.261052 -1
      vertex 1.98289 0.261052 1
    endloop
  endfacet
  facet normal -0.997859 -0.0654022 0
    outer loop
      vertex 2 0 -1
      vertex 1.98289 0.261052 1
      vertex 1.98289 0.261052 -1
    endloop
  endfacet
  facet normal -0.997859 -0.0654022 0
    outer loop
      vertex 1.98289 0.261052 1
      vertex 2 0 -1
      vertex 2 0 1
    endloop
  endfacet
  facet normal -0.0654022 -0.997859 0
    outer loop
      vertex 0 2 -1
      vertex 0.261052 1.98289 1
      vertex 0 2 1
    endloop
  endfacet
  facet normal -0.0654022 -0.997859 -0
    outer loop
      vertex 0.261052 1.98289 1
      vertex 0 2 -1
      vertex 0.261052 1.98289 -1
    endloop
  endfacet
  facet normal 0.195098 -0.980784 0
    outer loop
      vertex -0.517637 1.93185 -1
      vertex -0.261052 1.98289 1
      vertex -0.517637 1.93185 1
    endloop
  endfacet
  facet normal 0.195098 -0.980784 0
    outer loop
      vertex -0.261052 1.98289 1
      vertex -0.517637 1.93185 -1
      vertex -0.261052 1.98289 -1
    endloop
  endfacet
  facet normal -0.555564 0.831474 0
    outer loop
      vertex 1.21752 -1.58671 -1
      vertex 1 -1.73205 1
      vertex 1.21752 -1.58671 1
    endloop
  endfacet
  facet normal -0.555564 0.831474 0
    outer loop
      vertex 1 -1.73205 1
      vertex 1.21752 -1.58671 -1
      vertex 1 -1.73205 -1
    endloop
  endfacet
  facet normal 0.89687 -0.442294 0
    outer loop
      vertex -1.84776 0.765367 1
      vertex -1.73205 1 -1
      vertex -1.73205 1 1
    endloop
  endfacet
  facet normal 0.89687 -0.442294 0
    outer loop
      vertex -1.73205 1 -1
      vertex -1.84776 0.765367 1
      vertex -1.84776 0.765367 -1
    endloop
  endfacet
  facet normal 0.946934 -0.321429 0
    outer loop
      vertex -1.93185 0.517637 1
      vertex -1.84776 0.765367 -1
      vertex -1.84776 0.765367 1
    endloop
  endfacet
  facet normal 0.946934 -0.321429 0
    outer loop
      vertex -1.84776 0.765367 -1
      vertex -1.93185 0.517637 1
      vertex -1.93185 0.517637 -1
    endloop
  endfacet
  facet normal 0.89687 0.442294 0
    outer loop
      vertex -1.73205 -1 1
      vertex -1.84776 -0.765367 -1
      vertex -1.84776 -0.765367 1
    endloop
  endfacet
  facet normal 0.89687 0.442294 0
    outer loop
      vertex -1.84776 -0.765367 -1
      vertex -1.73205 -1 1
      vertex -1.73205 -1 -1
    endloop
  endfacet
  facet normal 0.321429 -0.946934 0
    outer loop
      vertex -0.765367 1.84776 -1
      vertex -0.517637 1.93185 1
      vertex -0.765367 1.84776 1
    endloop
  endfacet
  facet normal 0.321429 -0.946934 0
    outer loop
      vertex -0.517637 1.93185 1
      vertex -0.765367 1.84776 -1
      vertex -0.517637 1.93185 -1
    endloop
  endfacet
  facet normal -0.997859 0.0654022 0
    outer loop
      vertex 1.98289 -0.261052 -1
      vertex 2 0 1
      vertex 2 0 -1
    endloop
  endfacet
  facet normal -0.997859 0.0654022 0
    outer loop
      vertex 2 0 1
      vertex 1.98289 -0.261052 -1
      vertex 1.98289 -0.261052 1
    endloop
  endfacet
  facet normal 0.946934 0.321429 0
    outer loop
      vertex -1.84776 -0.765367 1
      vertex -1.93185 -0.517637 -1
      vertex -1.93185 -0.517637 1
    endloop
  endfacet
  facet normal 0.946934 0.321429 0
    outer loop
      vertex -1.93185 -0.517637 -1
      vertex -1.84776 -0.765367 1
      vertex -1.84776 -0.765367 -1
    endloop
  endfacet
  facet normal 0.831474 -0.555564 0
    outer loop
      vertex -1.73205 1 1
      vertex -1.58671 1.21752 -1
      vertex -1.58671 1.21752 1
    endloop
  endfacet
  facet normal 0.831474 -0.555564 0
    outer loop
      vertex -1.58671 1.21752 -1
      vertex -1.73205 1 1
      vertex -1.73205 1 -1
    endloop
  endfacet
  facet normal 0.980784 -0.195098 0
    outer loop
      vertex -1.98289 0.261052 1
      vertex -1.93185 0.517637 -1
      vertex -1.93185 0.517637 1
    endloop
  endfacet
  facet normal 0.980784 -0.195098 0
    outer loop
      vertex -1.93185 0.517637 -1
      vertex -1.98289 0.261052 1
      vertex -1.98289 0.261052 -1
    endloop
  endfacet
  facet normal -0.946934 0.321429 0
    outer loop
      vertex 1.84776 -0.765367 -1
      vertex 1.93185 -0.517637 1
      vertex 1.93185 -0.517637 -1
    endloop
  endfacet
  facet normal -0.946934 0.321429 0
    outer loop
      vertex 1.93185 -0.517637 1
      vertex 1.84776 -0.765367 -1
      vertex 1.84776 -0.765367 1
    endloop
  endfacet
  facet normal -0.659362 0.751826 0
    outer loop
      vertex 1.41421 -1.41421 -1
      vertex 1.21752 -1.58671 1
      vertex 1.41421 -1.41421 1
    endloop
  endfacet
  facet normal -0.659362 0.751826 0
    outer loop
      vertex 1.21752 -1.58671 1
      vertex 1.41421 -1.41421 -1
      vertex 1.21752 -1.58671 -1
    endloop
  endfacet
  facet normal -0.321429 -0.946934 0
    outer loop
      vertex 0.517637 1.93185 -1
      vertex 0.765367 1.84776 1
      vertex 0.517637 1.93185 1
    endloop
  endfacet
  facet normal -0.321429 -0.946934 -0
    outer loop
      vertex 0.765367 1.84776 1
      vertex 0.517637 1.93185 -1
      vertex 0.765367 1.84776 -1
    endloop
  endfacet
  facet normal 0.751826 0.659362 0
    outer loop
      vertex -1.41421 -1.41421 1
      vertex -1.58671 -1.21752 -1
      vertex -1.58671 -1.21752 1
    endloop
  endfacet
  facet normal 0.751826 0.659362 0
    outer loop
      vertex -1.58671 -1.21752 -1
      vertex -1.41421 -1.41421 1
      vertex -1.41421 -1.41421 -1
    endloop
  endfacet
  facet normal 0.659362 -0.751826 0
    outer loop
      vertex -1.41421 1.41421 -1
      vertex -1.21752 1.58671 1
      vertex -1.41421 1.41421 1
    endloop
  endfacet
  facet normal 0.659362 -0.751826 0
    outer loop
      vertex -1.21752 1.58671 1
      vertex -1.41421 1.41421 -1
      vertex -1.21752 1.58671 -1
    endloop
  endfacet
  facet normal 0.997859 -0.0654022 0
    outer loop
      vertex -2 0 1
      vertex -1.98289 0.261052 -1
      vertex -1.98289 0.261052 1
    endloop
  endfacet
  facet normal 0.997859 -0.0654022 0
    outer loop
      vertex -1.98289 0.261052 -1
      vertex -2 0 1
      vertex -2 0 -1
    endloop
  endfacet
  facet normal -0.555564 -0.831474 0
    outer loop
      vertex 1 1.73205 -1
      vertex 1.21752 1.58671 1
      vertex 1 1.73205 1
    endloop
  endfacet
  facet normal -0.555564 -0.831474 -0
    outer loop
      vertex 1.21752 1.58671 1
      vertex 1 1.73205 -1
      vertex 1.21752 1.58671 -1
    endloop
  endfacet
  facet normal -0.831474 0.555564 0
    outer loop
      vertex 1.58671 -1.21752 -1
      vertex 1.73205 -1 1
      vertex 1.73205 -1 -1
    endloop
  endfacet
  facet normal -0.831474 0.555564 0
    outer loop
      vertex 1.73205 -1 1
      vertex 1.58671 -1.21752 -1
      vertex 1.58671 -1.21752 1
    endloop
  endfacet
  facet normal -0.831474 -0.555564 0
    outer loop
      vertex 1.73205 1 -1
      vertex 1.58671 1.21752 1
      vertex 1.58671 1.21752 -1
    endloop
  endfacet
  facet normal -0.831474 -0.555564 0
    outer loop
      vertex 1.58671 1.21752 1
      vertex 1.73205 1 -1
      vertex 1.73205 1 1
    endloop
  endfacet
  facet normal 0.751826 -0.659362 0
    outer loop
      vertex -1.58671 1.21752 1
      vertex -1.41421 1.41421 -1
      vertex -1.41421 1.41421 1
    endloop
  endfacet
  facet normal 0.751826 -0.659362 0
    outer loop
      vertex -1.41421 1.41421 -1
      vertex -1.58671 1.21752 1
      vertex -1.58671 1.21752 -1
    endloop
  endfacet
  facet normal -0.321429 0.946934 0
    outer loop
      vertex 0.765367 -1.84776 -1
      vertex 0.517637 -1.93185 1
      vertex 0.765367 -1.84776 1
    endloop
  endfacet
  facet normal -0.321429 0.946934 0
    outer loop
      vertex 0.517637 -1.93185 1
      vertex 0.765367 -1.84776 -1
      vertex 0.517637 -1.93185 -1
    endloop
  endfacet
  facet normal -0.442294 0.89687 0
    outer loop
      vertex 1 -1.73205 -1
      vertex 0.765367 -1.84776 1
      vertex 1 -1.73205 1
    endloop
  endfacet
  facet normal -0.442294 0.89687 0
    outer loop
      vertex 0.765367 -1.84776 1
      vertex 1 -1.73205 -1
      vertex 0.765367 -1.84776 -1
    endloop
  endfacet
  facet normal -0.751826 -0.659362 0
    outer loop
      vertex 1.58671 1.21752 -1
      vertex 1.41421 1.41421 1
      vertex 1.41421 1.41421 -1
    endloop
  endfacet
  facet normal -0.751826 -0.659362 0
    outer loop
      vertex 1.41421 1.41421 1
      vertex 1.58671 1.21752 -1
      vertex 1.58671 1.21752 1
    endloop
  endfacet
  facet normal -0.0654022 0.997859 0
    outer loop
      vertex 0.261052 -1.98289 -1
      vertex 0 -2 1
      vertex 0.261052 -1.98289 1
    endloop
  endfacet
  facet normal -0.0654022 0.997859 0
    outer loop
      vertex 0 -2 1
      vertex 0.261052 -1.98289 -1
      vertex 0 -2 -1
    endloop
  endfacet
  facet normal -0.659362 -0.751826 0
    outer loop
      vertex 1.21752 1.58671 -1
      vertex 1.41421 1.41421 1
      vertex 1.21752 1.58671 1
    endloop
  endfacet
  facet normal -0.659362 -0.751826 -0
    outer loop
      vertex 1.41421 1.41421 1
      vertex 1.21752 1.58671 -1
      vertex 1.41421 1.41421 -1
    endloop
  endfacet
  facet normal 0.997859 0.0654022 0
    outer loop
      vertex -1.98289 -0.261052 1
      vertex -2 0 -1
      vertex -2 0 1
    endloop
  endfacet
  facet normal 0.997859 0.0654022 0
    outer loop
      vertex -2 0 -1
      vertex -1.98289 -0.261052 1
      vertex -1.98289 -0.261052 -1
    endloop
  endfacet
  facet normal 0.659362 0.751826 -0
    outer loop
      vertex -1.21752 -1.58671 -1
      vertex -1.41421 -1.41421 1
      vertex -1.21752 -1.58671 1
    endloop
  endfacet
  facet normal 0.659362 0.751826 0
    outer loop
      vertex -1.41421 -1.41421 1
      vertex -1.21752 -1.58671 -1
      vertex -1.41421 -1.41421 -1
    endloop
  endfacet
  facet normal 0.555564 -0.831474 0
    outer loop
      vertex -1.21752 1.58671 -1
      vertex -1 1.73205 1
      vertex -1.21752 1.58671 1
    endloop
  endfacet
  facet normal 0.555564 -0.831474 0
    outer loop
      vertex -1 1.73205 1
      vertex -1.21752 1.58671 -1
      vertex -1 1.73205 -1
    endloop
  endfacet
  facet normal -0.89687 -0.442294 0
    outer loop
      vertex 1.84776 0.765367 -1
      vertex 1.73205 1 1
      vertex 1.73205 1 -1
    endloop
  endfacet
  facet normal -0.89687 -0.442294 0
    outer loop
      vertex 1.73205 1 1
      vertex 1.84776 0.765367 -1
      vertex 1.84776 0.765367 1
    endloop
  endfacet
  facet normal 0.0654022 0.997859 -0
    outer loop
      vertex 0 -2 -1
      vertex -0.261052 -1.98289 1
      vertex 0 -2 1
    endloop
  endfacet
  facet normal 0.0654022 0.997859 0
    outer loop
      vertex -0.261052 -1.98289 1
      vertex 0 -2 -1
      vertex -0.261052 -1.98289 -1
    endloop
  endfacet
  facet normal -0.195098 0.980784 0
    outer loop
      vertex 0.517637 -1.93185 -1
      vertex 0.261052 -1.98289 1
      vertex 0.517637 -1.93185 1
    endloop
  endfacet
  facet normal -0.195098 0.980784 0
    outer loop
      vertex 0.261052 -1.98289 1
      vertex 0.517637 -1.93185 -1
      vertex 0.261052 -1.98289 -1
    endloop
  endfacet
  facet normal -0.442294 -0.89687 0
    outer loop
      vertex 0.765367 1.84776 -1
      vertex 1 1.73205 1
      vertex 0.765367 1.84776 1
    endloop
  endfacet
  facet normal -0.442294 -0.89687 -0
    outer loop
      vertex 1 1.73205 1
      vertex 0.765367 1.84776 -1
      vertex 1 1.73205 -1
    endloop
  endfacet
  facet normal -0.89687 0.442294 0
    outer loop
      vertex 1.73205 -1 -1
      vertex 1.84776 -0.765367 1
      vertex 1.84776 -0.765367 -1
    endloop
  endfacet
  facet normal -0.89687 0.442294 0
    outer loop
      vertex 1.84776 -0.765367 1
      vertex 1.73205 -1 -1
      vertex 1.73205 -1 1
    endloop
  endfacet
  facet normal -0.980784 0.195098 0
    outer loop
      vertex 1.93185 -0.517637 -1
      vertex 1.98289 -0.261052 1
      vertex 1.98289 -0.261052 -1
    endloop
  endfacet
  facet normal -0.980784 0.195098 0
    outer loop
      vertex 1.98289 -0.261052 1
      vertex 1.93185 -0.517637 -1
      vertex 1.93185 -0.517637 1
    endloop
  endfacet
  facet normal 0.980784 0.195098 0
    outer loop
      vertex -1.93185 -0.517637 1
      vertex -1.98289 -0.261052 -1
      vertex -1.98289 -0.261052 1
    endloop
  endfacet
  facet normal 0.980784 0.195098 0
    outer loop
      vertex -1.98289 -0.261052 -1
      vertex -1.93185 -0.517637 1
      vertex -1.93185 -0.517637 -1
    endloop
  endfacet
  facet normal 0.195098 0.980784 -0
    outer loop
      vertex -0.261052 -1.98289 -1
      vertex -0.517637 -1.93185 1
      vertex -0.261052 -1.98289 1
    endloop
  endfacet
  facet normal 0.195098 0.980784 0
    outer loop
      vertex -0.517637 -1.93185 1
      vertex -0.261052 -1.98289 -1
      vertex -0.517637 -1.93185 -1
    endloop
  endfacet
  facet normal -0.195098 -0.980784 0
    outer loop
      vertex 0.261052 1.98289 -1
      vertex 0.517637 1.93185 1
      vertex 0.261052 1.98289 1
    endloop
  endfacet
  facet normal -0.195098 -0.980784 -0
    outer loop
      vertex 0.517637 1.93185 1
      vertex 0.261052 1.98289 -1
      vertex 0.517637 1.93185 -1
    endloop
  endfacet
  facet normal -0.946934 -0.321429 0
    outer loop
      vertex 1.93185 0.517637 -1
      vertex 1.84776 0.765367 1
      vertex 1.84776 0.765367 -1
    endloop
  endfacet
  facet normal -0.946934 -0.321429 0
    outer loop
      vertex 1.84776 0.765367 1
      vertex 1.93185 0.517637 -1
      vertex 1.93185 0.517637 1
    endloop
  endfacet
  facet normal -0.751826 0.659362 0
    outer loop
      vertex 1.41421 -1.41421 -1
      vertex 1.58671 -1.21752 1
      vertex 1.58671 -1.21752 -1
    endloop
  endfacet
  facet normal -0.751826 0.659362 0
    outer loop
      vertex 1.58671 -1.21752 1
      vertex 1.41421 -1.41421 -1
      vertex 1.41421 -1.41421 1
    endloop
  endfacet
  facet normal 0.831474 0.555564 0
    outer loop
      vertex -1.58671 -1.21752 1
      vertex -1.73205 -1 -1
      vertex -1.73205 -1 1
    endloop
  endfacet
  facet normal 0.831474 0.555564 0
    outer loop
      vertex -1.73205 -1 -1
      vertex -1.58671 -1.21752 1
      vertex -1.58671 -1.21752 -1
    endloop
  endfacet
  facet normal 0.0654022 -0.997859 0
    outer loop
      vertex -0.261052 1.98289 -1
      vertex 0 2 1
      vertex -0.261052 1.98289 1
    endloop
  endfacet
  facet normal 0.0654022 -0.997859 0
    outer loop
      vertex 0 2 1
      vertex -0.261052 1.98289 -1
      vertex 0 2 -1
    endloop
  endfacet
  facet normal 0.321429 0.946934 -0
    outer loop
      vertex -0.517637 -1.93185 -1
      vertex -0.765367 -1.84776 1
      vertex -0.517637 -1.93185 1
    endloop
  endfacet
  facet normal 0.321429 0.946934 0
    outer loop
      vertex -0.765367 -1.84776 1
      vertex -0.517637 -1.93185 -1
      vertex -0.765367 -1.84776 -1
    endloop
  endfacet
  facet normal 0.442294 -0.89687 0
    outer loop
      vertex -1 1.73205 -1
      vertex -0.765367 1.84776 1
      vertex -1 1.73205 1
    endloop
  endfacet
  facet normal 0.442294 -0.89687 0
    outer loop
      vertex -0.765367 1.84776 1
      vertex -1 1.73205 -1
      vertex -0.765367 1.84776 -1
    endloop
  endfacet
  facet normal 0.442294 0.89687 -0
    outer loop
      vertex -0.765367 -1.84776 -1
      vertex -1 -1.73205 1
      vertex -0.765367 -1.84776 1
    endloop
  endfacet
  facet normal 0.442294 0.89687 0
    outer loop
      vertex -1 -1.73205 1
      vertex -0.765367 -1.84776 -1
      vertex -1 -1.73205 -1
    endloop
  endfacet
  facet normal 0.555564 0.831474 -0
    outer loop
      vertex -1 -1.73205 -1
      vertex -1.21752 -1.58671 1
      vertex -1 -1.73205 1
    endloop
  endfacet
  facet normal 0.555564 0.831474 0
    outer loop
      vertex -1.21752 -1.58671 1
      vertex -1 -1.73205 -1
      vertex -1.21752 -1.58671 -1
    endloop
  endfacet
endsolid OpenSCAD_Model
