solid OpenSCAD_Model
  facet normal 1 -0 0
    outer loop
      vertex 105 -30 1.5
      vertex 105 30 -1.5
      vertex 105 30 1.5
    endloop
  endfacet
  facet normal 1 0 0
    outer loop
      vertex 105 30 -1.5
      vertex 105 -30 1.5
      vertex 105 -30 -1.5
    endloop
  endfacet
  facet normal -0 0 1
    outer loop
      vertex -52.5 18.0526 1.5
      vertex -44.5 -18.0526 1.5
      vertex -44.5 18.0526 1.5
    endloop
  endfacet
  facet normal 0 0 1
    outer loop
      vertex -44.5 -18.0526 1.5
      vertex -52.5 18.0526 1.5
      vertex -52.5 -18.0526 1.5
    endloop
  endfacet
  facet normal 0 0 1
    outer loop
      vertex 105 30 1.5
      vertex 101 1 1.5
      vertex 105 -30 1.5
    endloop
  endfacet
  facet normal 0 0 1
    outer loop
      vertex 105 30 1.5
      vertex 93 1 1.5
      vertex 101 1 1.5
    endloop
  endfacet
  facet normal -0 0 1
    outer loop
      vertex -44.5 18.0526 1.5
      vertex 93 1 1.5
      vertex -44.5 20.0526 1.5
    endloop
  endfacet
  facet normal 0 0 1
    outer loop
      vertex 105 30 1.5
      vertex -44.5 20.0526 1.5
      vertex 93 1 1.5
    endloop
  endfacet
  facet normal -0 0 1
    outer loop
      vertex -105 30 1.5
      vertex -44.5 20.0526 1.5
      vertex 105 30 1.5
    endloop
  endfacet
  facet normal 0 0 1
    outer loop
      vertex -105 30 1.5
      vertex -52.5 18.0526 1.5
      vertex -52.5 20.0526 1.5
    endloop
  endfacet
  facet normal 0 0 1
    outer loop
      vertex -52.5 18.0526 1.5
      vertex -105 30 1.5
      vertex -52.5 -18.0526 1.5
    endloop
  endfacet
  facet normal 0 0 1
    outer loop
      vertex -105 -30 1.5
      vertex -52.5 -18.0526 1.5
      vertex -105 30 1.5
    endloop
  endfacet
  facet normal 0 0 1
    outer loop
      vertex -44.5 20.0526 1.5
      vertex -105 30 1.5
      vertex -52.5 20.0526 1.5
    endloop
  endfacet
  facet normal -0 0 1
    outer loop
      vertex 101 -1 1.5
      vertex 105 -30 1.5
      vertex 101 1 1.5
    endloop
  endfacet
  facet normal -0 0 1
    outer loop
      vertex 93 -1 1.5
      vertex 105 -30 1.5
      vertex 101 -1 1.5
    endloop
  endfacet
  facet normal 0 0 1
    outer loop
      vertex 93 1 1.5
      vertex -44.5 18.0526 1.5
      vertex 93 -1 1.5
    endloop
  endfacet
  facet normal 0 0 1
    outer loop
      vertex -44.5 -18.0526 1.5
      vertex 93 -1 1.5
      vertex -44.5 18.0526 1.5
    endloop
  endfacet
  facet normal 0 0 1
    outer loop
      vertex -44.5 -20.0526 1.5
      vertex 93 -1 1.5
      vertex -44.5 -18.0526 1.5
    endloop
  endfacet
  facet normal 0 0 1
    outer loop
      vertex 93 -1 1.5
      vertex -44.5 -20.0526 1.5
      vertex 105 -30 1.5
    endloop
  endfacet
  facet normal 0 0 1
    outer loop
      vertex -105 -30 1.5
      vertex -44.5 -20.0526 1.5
      vertex -52.5 -20.0526 1.5
    endloop
  endfacet
  facet normal 0 0 1
    outer loop
      vertex -44.5 -20.0526 1.5
      vertex -105 -30 1.5
      vertex 105 -30 1.5
    endloop
  endfacet
  facet normal 0 0 1
    outer loop
      vertex -52.5 -18.0526 1.5
      vertex -105 -30 1.5
      vertex -52.5 -20.0526 1.5
    endloop
  endfacet
  facet normal 0 0 -1
    outer loop
      vertex -52.5 -18.0526 -1.5
      vertex -44.5 18.0526 -1.5
      vertex -44.5 -18.0526 -1.5
    endloop
  endfacet
  facet normal -0 0 -1
    outer loop
      vertex -44.5 18.0526 -1.5
      vertex -52.5 -18.0526 -1.5
      vertex -52.5 18.0526 -1.5
    endloop
  endfacet
  facet normal 0 0 -1
    outer loop
      vertex 105 -30 -1.5
      vertex 101 -1 -1.5
      vertex 105 30 -1.5
    endloop
  endfacet
  facet normal 0 0 -1
    outer loop
      vertex 105 -30 -1.5
      vertex 93 -1 -1.5
      vertex 101 -1 -1.5
    endloop
  endfacet
  facet normal 0 0 -1
    outer loop
      vertex -44.5 -18.0526 -1.5
      vertex 93 -1 -1.5
      vertex -44.5 -20.0526 -1.5
    endloop
  endfacet
  facet normal 0 0 -1
    outer loop
      vertex 105 -30 -1.5
      vertex -44.5 -20.0526 -1.5
      vertex 93 -1 -1.5
    endloop
  endfacet
  facet normal 0 0 -1
    outer loop
      vertex -105 -30 -1.5
      vertex -44.5 -20.0526 -1.5
      vertex 105 -30 -1.5
    endloop
  endfacet
  facet normal 0 0 -1
    outer loop
      vertex -105 -30 -1.5
      vertex -52.5 -18.0526 -1.5
      vertex -52.5 -20.0526 -1.5
    endloop
  endfacet
  facet normal -0 0 -1
    outer loop
      vertex -52.5 -18.0526 -1.5
      vertex -105 -30 -1.5
      vertex -52.5 18.0526 -1.5
    endloop
  endfacet
  facet normal 0 0 -1
    outer loop
      vertex -105 30 -1.5
      vertex -52.5 18.0526 -1.5
      vertex -105 -30 -1.5
    endloop
  endfacet
  facet normal -0 0 -1
    outer loop
      vertex -44.5 -20.0526 -1.5
      vertex -105 -30 -1.5
      vertex -52.5 -20.0526 -1.5
    endloop
  endfacet
  facet normal 0 0 -1
    outer loop
      vertex 101 1 -1.5
      vertex 105 30 -1.5
      vertex 101 -1 -1.5
    endloop
  endfacet
  facet normal 0 0 -1
    outer loop
      vertex 93 1 -1.5
      vertex 105 30 -1.5
      vertex 101 1 -1.5
    endloop
  endfacet
  facet normal -0 0 -1
    outer loop
      vertex 93 -1 -1.5
      vertex -44.5 -18.0526 -1.5
      vertex 93 1 -1.5
    endloop
  endfacet
  facet normal 0 0 -1
    outer loop
      vertex -44.5 18.0526 -1.5
      vertex 93 1 -1.5
      vertex -44.5 -18.0526 -1.5
    endloop
  endfacet
  facet normal 0 0 -1
    outer loop
      vertex -44.5 20.0526 -1.5
      vertex 93 1 -1.5
      vertex -44.5 18.0526 -1.5
    endloop
  endfacet
  facet normal 0 0 -1
    outer loop
      vertex 93 1 -1.5
      vertex -44.5 20.0526 -1.5
      vertex 105 30 -1.5
    endloop
  endfacet
  facet normal 0 0 -1
    outer loop
      vertex -105 30 -1.5
      vertex -44.5 20.0526 -1.5
      vertex -52.5 20.0526 -1.5
    endloop
  endfacet
  facet normal 0 0 -1
    outer loop
      vertex -44.5 20.0526 -1.5
      vertex -105 30 -1.5
      vertex 105 30 -1.5
    endloop
  endfacet
  facet normal 0 0 -1
    outer loop
      vertex -52.5 18.0526 -1.5
      vertex -105 30 -1.5
      vertex -52.5 20.0526 -1.5
    endloop
  endfacet
  facet normal -1 0 0
    outer loop
      vertex -105 -30 -1.5
      vertex -105 30 1.5
      vertex -105 30 -1.5
    endloop
  endfacet
  facet normal -1 -0 0
    outer loop
      vertex -105 30 1.5
      vertex -105 -30 -1.5
      vertex -105 -30 1.5
    endloop
  endfacet
  facet normal 0 1 -0
    outer loop
      vertex 105 30 -1.5
      vertex -105 30 1.5
      vertex 105 30 1.5
    endloop
  endfacet
  facet normal 0 1 0
    outer loop
      vertex -105 30 1.5
      vertex 105 30 -1.5
      vertex -105 30 -1.5
    endloop
  endfacet
  facet normal 0 -1 0
    outer loop
      vertex -105 -30 -1.5
      vertex 105 -30 1.5
      vertex -105 -30 1.5
    endloop
  endfacet
  facet normal 0 -1 -0
    outer loop
      vertex 105 -30 1.5
      vertex -105 -30 -1.5
      vertex 105 -30 -1.5
    endloop
  endfacet
  facet normal -1 0 0
    outer loop
      vertex 101 -1 -1.5
      vertex 101 1 1.5
      vertex 101 1 -1.5
    endloop
  endfacet
  facet normal -1 -0 0
    outer loop
      vertex 101 1 1.5
      vertex 101 -1 -1.5
      vertex 101 -1 1.5
    endloop
  endfacet
  facet normal 1 -0 0
    outer loop
      vertex 93 -1 1.5
      vertex 93 1 -1.5
      vertex 93 1 1.5
    endloop
  endfacet
  facet normal 1 0 0
    outer loop
      vertex 93 1 -1.5
      vertex 93 -1 1.5
      vertex 93 -1 -1.5
    endloop
  endfacet
  facet normal 0 -1 0
    outer loop
      vertex 93 1 -1.5
      vertex 101 1 1.5
      vertex 93 1 1.5
    endloop
  endfacet
  facet normal 0 -1 -0
    outer loop
      vertex 101 1 1.5
      vertex 93 1 -1.5
      vertex 101 1 -1.5
    endloop
  endfacet
  facet normal 0 1 -0
    outer loop
      vertex 101 -1 -1.5
      vertex 93 -1 1.5
      vertex 101 -1 1.5
    endloop
  endfacet
  facet normal 0 1 0
    outer loop
      vertex 93 -1 1.5
      vertex 101 -1 -1.5
      vertex 93 -1 -1.5
    endloop
  endfacet
  facet normal -1 0 0
    outer loop
      vertex -44.5 18.0526 -1.5
      vertex -44.5 20.0526 1.5
      vertex -44.5 20.0526 -1.5
    endloop
  endfacet
  facet normal -1 -0 0
    outer loop
      vertex -44.5 20.0526 1.5
      vertex -44.5 18.0526 -1.5
      vertex -44.5 18.0526 1.5
    endloop
  endfacet
  facet normal 1 -0 0
    outer loop
      vertex -52.5 18.0526 1.5
      vertex -52.5 20.0526 -1.5
      vertex -52.5 20.0526 1.5
    endloop
  endfacet
  facet normal 1 0 0
    outer loop
      vertex -52.5 20.0526 -1.5
      vertex -52.5 18.0526 1.5
      vertex -52.5 18.0526 -1.5
    endloop
  endfacet
  facet normal 0 -1 0
    outer loop
      vertex -52.5 20.0526 -1.5
      vertex -44.5 20.0526 1.5
      vertex -52.5 20.0526 1.5
    endloop
  endfacet
  facet normal 0 -1 -0
    outer loop
      vertex -44.5 20.0526 1.5
      vertex -52.5 20.0526 -1.5
      vertex -44.5 20.0526 -1.5
    endloop
  endfacet
  facet normal 0 1 -0
    outer loop
      vertex -44.5 18.0526 -1.5
      vertex -52.5 18.0526 1.5
      vertex -44.5 18.0526 1.5
    endloop
  endfacet
  facet normal 0 1 0
    outer loop
      vertex -52.5 18.0526 1.5
      vertex -44.5 18.0526 -1.5
      vertex -52.5 18.0526 -1.5
    endloop
  endfacet
  facet normal -1 0 0
    outer loop
      vertex -44.5 -20.0526 -1.5
      vertex -44.5 -18.0526 1.5
      vertex -44.5 -18.0526 -1.5
    endloop
  endfacet
  facet normal -1 -0 0
    outer loop
      vertex -44.5 -18.0526 1.5
      vertex -44.5 -20.0526 -1.5
      vertex -44.5 -20.0526 1.5
    endloop
  endfacet
  facet normal 1 -0 0
    outer loop
      vertex -52.5 -20.0526 1.5
      vertex -52.5 -18.0526 -1.5
      vertex -52.5 -18.0526 1.5
    endloop
  endfacet
  facet normal 1 0 0
    outer loop
      vertex -52.5 -18.0526 -1.5
      vertex -52.5 -20.0526 1.5
      vertex -52.5 -20.0526 -1.5
    endloop
  endfacet
  facet normal 0 -1 0
    outer loop
      vertex -52.5 -18.0526 -1.5
      vertex -44.5 -18.0526 1.5
      vertex -52.5 -18.0526 1.5
    endloop
  endfacet
  facet normal 0 -1 -0
    outer loop
      vertex -44.5 -18.0526 1.5
      vertex -52.5 -18.0526 -1.5
      vertex -44.5 -18.0526 -1.5
    endloop
  endfacet
  facet normal 0 1 -0
    outer loop
      vertex -44.5 -20.0526 -1.5
      vertex -52.5 -20.0526 1.5
      vertex -44.5 -20.0526 1.5
    endloop
  endfacet
  facet normal 0 1 0
    outer loop
      vertex -52.5 -20.0526 1.5
      vertex -44.5 -20.0526 -1.5
      vertex -52.5 -20.0526 -1.5
    endloop
  endfacet
endsolid OpenSCAD_Model
