$MeshFormat
4.1 0 8
$EndMeshFormat
$PhysicalNames
2
2 2 "boundary"
3 1 "domain"
$EndPhysicalNames
$Entities
10 15 7 1
1 0 0 0 0 
2 0 0 4 0 
3 0 12 0 0 
4 0 12 4 0 
5 20 0 0 0 
6 20 0 4 0 
7 20 12 4 0 
8 12 6 4 0 
9 20 12 0 0 
10 12 6 0 0 
1 -1e-07 -1e-07 -9.999999983634211e-08 1e-07 1e-07 4.0000001 0 2 1 -2 
2 -1e-07 -1.000000002804313e-07 -1e-07 1e-07 12.0000001 1e-07 0 2 1 -3 
3 -1e-07 11.9999999 -9.999999983634211e-08 1e-07 12.0000001 4.0000001 0 2 3 -4 
4 -1e-07 -1.000000002804313e-07 3.9999999 1e-07 12.0000001 4.0000001 0 2 2 -4 
5 -9.99999993922529e-08 -1e-07 -1e-07 20.0000001 1e-07 1e-07 0 2 1 -5 
6 -9.99999993922529e-08 -1e-07 3.9999999 20.0000001 1e-07 4.0000001 0 2 2 -6 
7 19.9999999 -1e-07 -9.999999983634211e-08 20.0000001 1e-07 4.0000001 0 2 5 -6 
8 19.9999999 -1.000000002804313e-07 3.9999999 20.0000001 12.0000001 4.0000001 0 2 6 -7 
9 -9.99999993922529e-08 11.9999999 3.9999999 20.0000001 12.0000001 4.0000001 0 2 4 -7 
10 7.9999999 3.9999999 3.9999999 12.0000001 8.000000099999999 4.0000001 0 2 8 -8 
11 -9.99999993922529e-08 11.9999999 -1e-07 20.0000001 12.0000001 1e-07 0 2 3 -9 
12 19.9999999 11.9999999 -9.999999983634211e-08 20.0000001 12.0000001 4.0000001 0 2 9 -7 
13 19.9999999 -1.000000002804313e-07 -1e-07 20.0000001 12.0000001 1e-07 0 2 5 -9 
14 7.9999999 3.9999999 -1e-07 12.0000001 8.000000099999999 1e-07 0 2 10 -10 
15 11.9999999 5.9999999 -9.999999983634211e-08 12.0000001 6.0000001 4.0000001 0 2 10 -8 
1 -1e-07 -1.000000002804313e-07 -9.999999983634211e-08 1e-07 12.0000001 4.0000001 1 2 4 -1 2 3 -4 
2 -9.99999993922529e-08 -1e-07 -9.999999983634211e-08 20.0000001 1e-07 4.0000001 1 2 4 -5 1 6 -7 
3 -9.99999993922529e-08 -1.000000002804313e-07 3.9999999 20.0000001 12.0000001 4.0000001 1 2 5 -4 6 8 -9 -10 
4 -9.99999993922529e-08 11.9999999 -9.999999983634211e-08 20.0000001 12.0000001 4.0000001 1 2 4 -11 3 9 -12 
5 -9.99999993922529e-08 -1.000000002804313e-07 -1e-07 20.0000001 12.0000001 1e-07 1 2 5 -2 5 13 -11 -14 
6 19.9999999 -1.000000002804313e-07 -9.999999983634211e-08 20.0000001 12.0000001 4.0000001 1 2 4 -7 13 12 -8 
7 7.9999999 3.9999999 -9.999999983634211e-08 12.0000001 8.000000099999999 4.0000001 1 2 4 -10 -15 14 15 
1 -9.99999993922529e-08 -1.000000002804313e-07 -9.999999983634211e-08 20.0000001 12.0000001 4.0000001 1 1 7 -1 -2 3 4 -5 6 -7 
$EndEntities
$Nodes
33 282 1 282
0 1 0 1
1
0 0 0
0 2 0 1
2
0 0 4
0 3 0 1
3
0 12 0
0 4 0 1
4
0 12 4
0 5 0 1
5
20 0 0
0 6 0 1
6
20 0 4
0 7 0 1
7
20 12 4
0 8 0 1
8
12 6 4
0 9 0 1
9
20 12 0
0 10 0 1
10
12 6 0
1 1 0 1
11
0 0 2
1 2 0 5
12
13
14
15
16
0 2 0
0 4 0
0 6 0
0 8 0
0 10 0
1 3 0 1
17
0 12 2
1 4 0 5
18
19
20
21
22
0 2 4
0 4 4
0 6 4
0 8 4
0 10 4
1 5 0 9
23
24
25
26
27
28
29
30
31
2 0 0
4 0 0
6 0 0
8 0 0
10 0 0
12 0 0
14 0 0
16 0 0
18 0 0
1 6 0 9
32
33
34
35
36
37
38
39
40
2 0 4
4 0 4
6 0 4
8 0 4
10 0 4
12 0 4
14 0 4
16 0 4
18 0 4
1 7 0 1
41
20 0 2
1 8 0 5
42
43
44
45
46
20 2 4
20 4 4
20 6 4
20 8 4
20 10 4
1 9 0 9
47
48
49
50
51
52
53
54
55
2 12 4
4 12 4
6 12 4
8 12 4
10 12 4
12 12 4
14 12 4
16 12 4
18 12 4
1 10 0 6
56
57
58
59
60
61
11.24697960371747 7.56366296493606 4
9.554958132087371 7.949855824363647 4
8.198062264195162 6.867767478235116 4
8.198062264195162 5.132232521764884 4
9.554958132087371 4.050144175636353 4
11.24697960371747 4.43633703506394 4
1 11 0 9
62
63
64
65
66
67
68
69
70
2 12 0
4 12 0
6 12 0
8 12 0
10 12 0
12 12 0
14 12 0
16 12 0
18 12 0
1 12 0 1
71
20 12 2
1 13 0 5
72
73
74
75
76
20 2 0
20 4 0
20 6 0
20 8 0
20 10 0
1 14 0 6
77
78
79
80
81
82
11.24697960371747 7.56366296493606 0
9.554958132087371 7.949855824363647 0
8.198062264195162 6.867767478235116 0
8.198062264195162 5.132232521764884 0
9.554958132087371 4.050144175636353 0
11.24697960371747 4.43633703506394 0
1 15 0 1
83
12 6 2
2 1 0 8
84
85
86
87
88
89
90
91
0 5.00485618296498 2.002141222114317
0 9 1.732050807568877
0 3 1.79536507401197
0 7.014684172298871 2.083919204051448
0 10.68509666768195 2.53263543367337
0 1.311918850380389 2.54642155326122
0 1.186036883054151 1.189084615390152
0 10.84037573255278 1.155964129613707
2 2 0 12
92
93
94
95
96
97
98
99
100
101
102
103
3 0 1.732050807568877
7 0 1.91432916976692
11 0 1.91432916976692
15 0 1.91432916976692
5 0 2.101170690964206
9 0 2.056159095401016
13 0 2.056159095401016
17 0 2.267949192431123
1.314903332318049 0 2.53263543367337
18.68509666768195 0 1.46736456632663
18.84037573255278 0 2.844035870386294
1.15962426744722 0 1.155964129613706
2 3 0 59
104
105
106
107
108
109
110
111
112
113
114
115
116
117
118
119
120
121
122
123
124
125
126
127
128
129
130
131
132
133
134
135
136
137
138
139
140
141
142
143
144
145
146
147
148
149
150
151
152
153
154
155
156
157
158
159
160
161
162
6.695044902736021 5.999999999999999 4
18.27827106382628 5.01927671857376 4
12.98562158518831 7.412141496725902 4
12.9951792666077 4.588653767940642 4
1.655219682132649 5.101310150357034 4
5.021812989654574 1.713559676032101 4
5.045572343512924 10.30148066023595 4
18.31089610563996 8.986424277451821 4
14.92158581604328 1.5842107002073 4
14.89495410664668 10.38530028076063 4
7.884068522933894 3.213140783713746 4
7.774103624633964 8.576368448711646 4
1.937427695475688 8.837555322679552 4
12.1958812056605 3.030473061061006 4
10.66728546450747 9.142828600598014 4
9.569698092800632 2.201655418391713 4
9.137193609862173 10.10517434639793 4
6.868010282845869 1.610432909231945 4
5.965915218547419 3.255723564389015 4
3.992229378213031 3.234315022712095 4
6.964008047806413 10.28872915571875 4
5.99616878887153 8.698471465799731 4
4.063666767558179 8.776943319014649 4
3.046840901967395 1.643576380555605 4
5.042080055293228 4.970102527559789 4
1.685446535499963 6.901131112389818 4
18.29486995630568 6.990507950353543 4
16.60200264195125 5.997194226594411 4
16.73004734933665 3.990970947157264 4
14.9024685209366 4.824534621770129 4
14.88693565347356 7.127234086140904 4
18.31680796599747 3.050102116728906 4
16.74407149954175 8.050370942221283 4
13.017064964561 10.46246047451054 4
3.390900031213052 5.999700435541109 4
5.068950317539642 7.044794494586181 4
16.84101280955645 1.895894999292274 4
1.906555496719459 3.147317858419636 4
16.85051727827486 10.1191836398037 4
3.085128070280757 10.40864628113206 4
11.27744256355661 1.637175351059492 4
13.94526862374735 3.120449227761728 4
13.90996880697039 8.838577453838584 4
13.05669636816796 1.562051390014921 4
13.58261529123055 5.993223424653939 4
12.13782007082411 9.033018231000428 4
10.76899191956452 3.071157008242501 4
11.05827041482961 10.66138611649078 4
6.757034192741145 4.514239879485487 4
6.746465979595263 7.437480377466534 4
1.513166664086451 1.509543759773099 4
18.4846592322222 1.506321714170419 4
1.464101615137755 10.53589838486225 4
18.53589838486224 10.53589838486224 4
15.46807662392407 3.083212099237739 4
3.180226939524777 7.4905698326393 4
15.45728946898145 8.904133280553019 4
3.159920581714529 4.523554587441336 4
8.344701406693142 1.366115076089951 4
2 4 0 12
163
164
165
166
167
168
169
170
171
172
173
174
5 12 1.908945303572779
9 12 1.91432916976692
13.00346870211784 12 1.929451056181249
17 12 2.267949192431123
3 12 2.20463492598803
7 12 2.055518158949333
11.00057811701964 12 1.973963370991362
15.01456618923364 12 1.910263812810418
18.68509666768195 12 1.46736456632663
1.311918850380389 12 1.45357844673878
1.186036883054152 12 2.810915384609848
18.84037573255278 12 2.844035870386294
2 5 0 59
175
176
177
178
179
180
181
182
183
184
185
186
187
188
189
190
191
192
193
194
195
196
197
198
199
200
201
202
203
204
205
206
207
208
209
210
211
212
213
214
215
216
217
218
219
220
221
222
223
224
225
226
227
228
229
230
231
232
233
6.695044902736021 5.999999999999999 0
18.16783606171658 5.085408929784475 0
13.00237153510873 7.403706294928543 0
12.93598233388878 4.570152416793931 0
1.655219682132649 5.101310150357034 0
5.021812989654574 1.713559676032101 0
5.045572343512924 10.30148066023595 0
16.91648865907749 10.32314687023351 0
15.09756535408545 1.874379144474361 0
7.884068522933894 3.213140783713746 0
7.774103624633964 8.576368448711646 0
1.937427695475688 8.837555322679552 0
12.15770970376717 3.048271927410904 0
10.66728546450747 9.142828600598014 0
13.07476283975227 10.41650226325558 0
9.569698092800632 2.201655418391713 0
9.137193609862173 10.10517434639793 0
6.868010282845869 1.610432909231945 0
5.965915218547419 3.255723564389015 0
3.992229378213031 3.234315022712095 0
6.964008047806413 10.28872915571875 0
5.99616878887153 8.698471465799731 0
4.063666767558179 8.776943319014649 0
3.046840901967395 1.643576380555605 0
5.042080055293228 4.970102527559789 0
15.0375321242705 10.3315340466006 0
16.02616058633611 8.61232521572644 0
18.15694175579189 8.764904290776762 0
16.97147298112403 6.882959564615147 0
14.89702296454745 6.800073766056694 0
16.06886550098935 5.103269106986582 0
16.80865087425419 3.421824925506146 0
1.685446535499963 6.901131112389818 0
3.390900031213052 5.999700435541109 0
5.068950317539642 7.044794494586181 0
15.13925151635136 3.649351378495432 0
1.906555496719459 3.147317858419636 0
3.085128070280757 10.40864628113206 0
17 1.590497929321846 0
11.27796359273106 1.644238336087566 0
14.13541549204937 8.701640652757344 0
13.14549736798904 1.610446103991197 0
13.43563889965444 5.909762150792718 0
18.51042803357586 2.961658864096766 0
12.18780248918921 9.001129861978168 0
18.64857167914339 7 0
10.76146182502074 3.076129378518095 0
11.06481076307769 10.65665782565761 0
6.757034192741145 4.514239879485487 0
6.746465979595263 7.437480377466534 0
1.513166664086451 1.509543759773099 0
13.65829182933618 3.272638577427478 0
18.58483248268205 1.414687291588197 0
1.464101615137755 10.53589838486225 0
18.53589838486224 10.53589838486224 0
3.180226939524777 7.4905698326393 0
3.159920581714529 4.523554587441336 0
14.34281766472726 4.774878276184424 0
8.344701406693142 1.366115076089951 0
2 6 0 8
234
235
236
237
238
239
240
241
20 5.004856182964982 2.002141222114317
20 9 1.732050807568877
20 3 1.79536507401197
20 7.014684172298872 2.083919204051449
20 10.68509666768195 2.53263543367337
20 1.311918850380389 2.54642155326122
20 1.186036883054151 1.189084615390152
20 10.84037573255278 1.155964129613707
2 7 0 14
242
243
244
245
246
247
248
249
250
251
252
253
254
255
10.3071548858949 7.976273229103428 1.505863027823589
10.30715488589665 4.023726770896844 2.494136972174238
8 6 2.510089758290861
8.732259041416665 4.453121574935442 1.450337972694642
8.964754207828923 7.711217738860861 2.646815015246895
8.753020396282533 4.436337035063941 2.923512838383575
8.521453388702493 7.346811018005369 1.27790669115047
10.3929341035865 7.961020854106011 2.954309176506821
8.000977121545571 5.937489749514415 1.068523089847471
10.32439048299165 4.026482628770538 1.070082855132929
11.59910953173214 4.798813625816786 2.715190286481186
11.5544703258875 4.741579559155526 1.313271112738855
11.59910953172866 7.201186374187851 1.284809713516451
11.55765453078919 7.254476927931281 2.688035707922431
3 1 0 27
256
257
258
259
260
261
262
263
264
265
266
267
268
269
270
271
272
273
274
275
276
277
278
279
280
281
282
5.794497003715791 7.724764367595411 2
12.47045356547406 2.204908819283184 1.993484530361198
5.770458349532475 4.256501938060191 2
13.45877637168971 4.080185435396241 1.995010134027592
13.0801126614343 8.665120929996142 1.976203617760468
2.295200883875072 5.990726372772654 2
14.3438931190272 6.063462083815404 1.966991000489499
4.017877669779322 2.142776819891908 2
4.03890930733079 9.871364410295822 2
7.181340659531482 2.535218736759183 2
8.018392683119805 9.730630689498826 2
2.591560598295662 3.813818016860457 2
11.27274584124828 9.796552397368893 2.060939632206581
15.82350945389176 9.890502014680964 2.036846342644392
17.82278524646675 4.025398439197072 1.994072382346566
15.64060683950219 4.101772872335411 2.076398794455086
4.47002920296991 5.99972978136517 2.108640122823664
10.50906995247198 2.175988357411022 1.742648869913774
17.8581175053166 6.252313209960128 1.943978855158643
16.02729623286663 7.529013087217912 1.951501792303024
2.56914986069998 8.173586695758818 2
14.56659320704288 2.298208180831691 2.058126523105918
18.0886738392774 1.94654623617151 1.965726175462231
17.95185355673059 10.06592798027157 1.999999999999999
1.914633727293462 10.12254656412621 2.03675074359831
1.883179892976313 1.890356897633657 1.979894366331311
6.025244756838157 9.704680413117064 1.740002553827617
$EndNodes
$Elements
8 1326 1 1326
2 1 2 30
1 1 11 90 
2 12 1 90 
3 11 2 89 
4 2 18 89 
5 3 16 91 
6 17 3 91 
7 4 17 88 
8 22 4 88 
9 11 89 90 
10 13 12 86 
11 86 12 90 
12 14 13 84 
13 84 13 86 
14 15 14 87 
15 14 84 87 
16 16 15 85 
17 85 15 87 
18 16 85 91 
19 88 17 91 
20 18 19 86 
21 18 86 89 
22 19 20 84 
23 19 84 86 
24 20 21 87 
25 84 20 87 
26 21 22 85 
27 21 85 87 
28 85 22 88 
29 85 88 91 
30 89 86 90 
2 2 2 46
31 11 1 103 
32 1 23 103 
33 2 11 100 
34 32 2 100 
35 31 5 101 
36 5 41 101 
37 6 40 102 
38 41 6 102 
39 100 11 103 
40 23 24 92 
41 23 92 103 
42 24 25 96 
43 92 24 96 
44 25 26 93 
45 25 93 96 
46 26 27 97 
47 93 26 97 
48 27 28 94 
49 27 94 97 
50 28 29 98 
51 94 28 98 
52 29 30 95 
53 29 95 98 
54 30 31 99 
55 95 30 99 
56 99 31 101 
57 33 32 92 
58 92 32 100 
59 34 33 96 
60 33 92 96 
61 35 34 93 
62 93 34 96 
63 36 35 97 
64 35 93 97 
65 37 36 94 
66 94 36 97 
67 38 37 98 
68 37 94 98 
69 39 38 95 
70 95 38 98 
71 40 39 99 
72 39 95 99 
73 40 99 102 
74 101 41 102 
75 92 100 103 
76 99 101 102 
2 3 2 157
77 2 154 18 
78 32 154 2 
79 22 156 4 
80 4 156 47 
81 6 155 40 
82 42 155 6 
83 7 157 46 
84 55 157 7 
85 8 106 56 
86 61 107 8 
87 8 148 106 
88 107 148 8 
89 18 141 19 
90 18 154 141 
91 19 108 20 
92 19 141 108 
93 20 129 21 
94 108 129 20 
95 21 116 22 
96 21 129 116 
97 116 156 22 
98 33 127 32 
99 127 154 32 
100 34 109 33 
101 109 127 33 
102 35 121 34 
103 34 121 109 
104 36 162 35 
105 35 162 121 
106 37 144 36 
107 36 144 119 
108 119 162 36 
109 38 147 37 
110 37 147 144 
111 39 112 38 
112 112 147 38 
113 40 140 39 
114 39 140 112 
115 40 155 140 
116 43 135 42 
117 135 155 42 
118 44 105 43 
119 105 135 43 
120 45 130 44 
121 44 130 105 
122 46 111 45 
123 111 130 45 
124 46 157 111 
125 47 143 48 
126 47 156 143 
127 48 110 49 
128 48 143 110 
129 49 124 50 
130 110 124 49 
131 50 120 51 
132 50 124 120 
133 51 151 52 
134 120 151 51 
135 52 137 53 
136 52 151 137 
137 53 113 54 
138 53 137 113 
139 54 142 55 
140 113 142 54 
141 142 157 55 
142 56 118 57 
143 106 149 56 
144 56 149 118 
145 57 115 58 
146 57 120 115 
147 118 120 57 
148 58 104 59 
149 58 153 104 
150 115 153 58 
151 59 114 60 
152 104 152 59 
153 59 152 114 
154 60 150 61 
155 114 119 60 
156 119 150 60 
157 61 117 107 
158 61 150 117 
159 104 139 128 
160 128 152 104 
161 104 153 139 
162 130 131 105 
163 131 132 105 
164 132 135 105 
165 134 146 106 
166 106 148 134 
167 146 149 106 
168 117 145 107 
169 107 145 133 
170 133 148 107 
171 108 138 129 
172 108 161 138 
173 141 161 108 
174 121 122 109 
175 122 123 109 
176 123 127 109 
177 110 125 124 
178 110 126 125 
179 110 143 126 
180 111 136 130 
181 111 142 136 
182 111 157 142 
183 140 158 112 
184 145 147 112 
185 112 158 145 
186 137 146 113 
187 113 160 142 
188 146 160 113 
189 114 162 119 
190 114 122 121 
191 121 162 114 
192 114 152 122 
193 120 124 115 
194 124 125 115 
195 125 153 115 
196 126 143 116 
197 116 159 126 
198 129 159 116 
199 143 156 116 
200 144 147 117 
201 117 150 144 
202 117 147 145 
203 118 151 120 
204 149 151 118 
205 144 150 119 
206 122 128 123 
207 122 152 128 
208 123 141 127 
209 128 161 123 
210 123 161 141 
211 126 139 125 
212 139 153 125 
213 126 159 139 
214 141 154 127 
215 128 139 138 
216 138 161 128 
217 138 159 129 
218 130 136 131 
219 131 133 132 
220 131 134 133 
221 131 136 134 
222 133 158 132 
223 132 140 135 
224 132 158 140 
225 134 148 133 
226 145 158 133 
227 136 160 134 
228 134 160 146 
229 140 155 135 
230 142 160 136 
231 137 149 146 
232 137 151 149 
233 139 159 138 
2 4 2 46
234 17 172 3 
235 3 172 62 
236 4 173 17 
237 47 173 4 
238 7 174 55 
239 71 174 7 
240 70 171 9 
241 9 171 71 
242 17 173 172 
243 48 167 47 
244 167 173 47 
245 49 163 48 
246 163 167 48 
247 50 168 49 
248 49 168 163 
249 51 164 50 
250 164 168 50 
251 52 169 51 
252 51 169 164 
253 53 165 52 
254 165 169 52 
255 54 170 53 
256 53 170 165 
257 55 166 54 
258 166 170 54 
259 55 174 166 
260 62 167 63 
261 62 172 167 
262 63 163 64 
263 63 167 163 
264 64 168 65 
265 163 168 64 
266 65 164 66 
267 65 168 164 
268 66 169 67 
269 164 169 66 
270 67 165 68 
271 67 169 165 
272 68 170 69 
273 165 170 68 
274 69 166 70 
275 69 170 166 
276 166 171 70 
277 171 174 71 
278 166 174 171 
279 172 173 167 
2 5 2 157
280 1 12 225 
281 23 1 225 
282 16 3 228 
283 3 62 228 
284 5 31 227 
285 72 5 227 
286 70 9 229 
287 9 76 229 
288 10 77 177 
289 82 10 178 
290 10 177 217 
291 178 10 217 
292 12 13 211 
293 12 211 225 
294 13 14 179 
295 13 179 211 
296 14 15 207 
297 179 14 207 
298 15 16 186 
299 15 186 207 
300 186 16 228 
301 24 23 198 
302 198 23 225 
303 25 24 180 
304 180 24 198 
305 26 25 192 
306 25 180 192 
307 27 26 233 
308 26 192 233 
309 28 27 214 
310 27 190 214 
311 190 27 233 
312 29 28 216 
313 28 214 216 
314 30 29 183 
315 183 29 216 
316 31 30 213 
317 30 183 213 
318 31 213 227 
319 62 63 212 
320 62 212 228 
321 63 64 181 
322 63 181 212 
323 64 65 195 
324 181 64 195 
325 65 66 191 
326 65 191 195 
327 66 67 222 
328 191 66 222 
329 67 68 189 
330 67 189 222 
331 68 69 200 
332 189 68 200 
333 69 70 182 
334 69 182 200 
335 182 70 229 
336 73 72 218 
337 218 72 227 
338 74 73 176 
339 176 73 218 
340 75 74 220 
341 74 176 220 
342 76 75 202 
343 202 75 220 
344 76 202 229 
345 77 78 188 
346 177 77 219 
347 77 188 219 
348 78 79 185 
349 78 185 191 
350 188 78 191 
351 79 80 175 
352 79 175 224 
353 185 79 224 
354 80 81 184 
355 175 80 223 
356 80 184 223 
357 81 82 221 
358 184 81 190 
359 190 81 221 
360 82 178 187 
361 82 187 221 
362 175 199 209 
363 199 175 223 
364 175 209 224 
365 203 176 205 
366 176 203 220 
367 205 176 206 
368 206 176 218 
369 204 177 215 
370 177 204 217 
371 215 177 219 
372 187 178 226 
373 178 217 232 
374 226 178 232 
375 179 207 208 
376 179 208 231 
377 211 179 231 
378 192 180 193 
379 193 180 194 
380 194 180 198 
381 181 195 196 
382 181 196 197 
383 181 197 212 
384 200 182 201 
385 201 182 202 
386 202 182 229 
387 206 183 210 
388 183 206 213 
389 210 183 226 
390 183 216 226 
391 184 190 233 
392 184 192 193 
393 192 184 233 
394 184 193 223 
395 191 185 195 
396 195 185 196 
397 196 185 224 
398 197 186 212 
399 186 197 230 
400 207 186 230 
401 212 186 228 
402 214 187 216 
403 187 214 221 
404 216 187 226 
405 188 191 222 
406 219 188 222 
407 189 200 215 
408 189 215 219 
409 189 219 222 
410 214 190 221 
411 193 194 199 
412 193 199 223 
413 194 198 211 
414 199 194 231 
415 194 211 231 
416 197 196 209 
417 209 196 224 
418 197 209 230 
419 211 198 225 
420 199 208 209 
421 208 199 231 
422 200 201 215 
423 201 202 203 
424 201 203 204 
425 201 204 215 
426 203 202 220 
427 204 203 205 
428 204 205 232 
429 217 204 232 
430 205 206 210 
431 205 210 232 
432 213 206 218 
433 208 207 230 
434 209 208 230 
435 210 226 232 
436 213 218 227 
2 6 2 30
437 5 240 41 
438 72 240 5 
439 41 239 6 
440 6 239 42 
441 46 238 7 
442 7 238 71 
443 71 241 9 
444 9 241 76 
445 41 240 239 
446 42 236 43 
447 42 239 236 
448 43 234 44 
449 43 236 234 
450 44 237 45 
451 234 237 44 
452 45 235 46 
453 45 237 235 
454 235 238 46 
455 238 241 71 
456 73 236 72 
457 236 240 72 
458 74 234 73 
459 234 236 73 
460 75 237 74 
461 74 237 234 
462 76 235 75 
463 235 237 75 
464 76 241 235 
465 235 241 238 
466 239 240 236 
2 7 2 44
467 8 56 255 
468 61 8 252 
469 8 83 252 
470 83 8 255 
471 77 10 254 
472 10 82 253 
473 83 10 253 
474 10 83 254 
475 56 57 249 
476 56 249 255 
477 57 58 246 
478 57 246 249 
479 58 59 244 
480 58 244 246 
481 59 60 247 
482 244 59 247 
483 60 61 243 
484 60 243 247 
485 243 61 252 
486 78 77 242 
487 242 77 254 
488 79 78 248 
489 78 242 248 
490 80 79 250 
491 79 248 250 
492 81 80 245 
493 245 80 250 
494 82 81 251 
495 81 245 251 
496 82 251 253 
497 252 83 253 
498 254 83 255 
499 242 246 248 
500 246 242 249 
501 249 242 255 
502 242 254 255 
503 243 245 247 
504 245 243 251 
505 251 243 253 
506 243 252 253 
507 245 244 247 
508 244 245 250 
509 246 244 248 
510 248 244 250 
3 1 4 816
511 274 275 111 279 
512 165 113 137 260 
513 136 111 274 275 
514 165 113 260 269 
515 202 275 274 279 
516 200 189 260 269 
517 235 274 111 279 
518 165 260 189 269 
519 111 275 136 279 
520 242 266 249 268 
521 136 111 130 274 
522 245 247 265 273 
523 200 170 189 269 
524 237 130 111 274 
525 244 104 256 272 
526 244 258 104 272 
527 271 277 206 278 
528 247 119 265 273 
529 120 249 266 268 
530 213 206 277 278 
531 246 249 242 266 
532 235 202 274 279 
533 140 277 271 278 
534 165 170 113 269 
535 165 189 170 269 
536 271 274 205 275 
537 245 243 247 273 
538 131 274 271 275 
539 160 260 269 275 
540 256 230 272 276 
541 235 237 111 274 
542 262 271 205 275 
543 159 256 272 276 
544 231 267 258 272 
545 160 146 260 275 
546 131 271 262 275 
547 99 213 277 278 
548 258 267 161 272 
549 120 118 249 268 
550 209 256 230 272 
551 231 258 199 272 
552 139 159 256 272 
553 160 260 146 269 
554 180 263 96 265 
555 162 97 265 273 
556 247 243 119 273 
557 197 230 256 276 
558 159 126 256 276 
559 161 258 123 267 
560 231 194 258 267 
561 128 258 161 272 
562 192 180 96 265 
563 109 96 263 265 
564 115 246 153 256 
565 244 153 246 256 
566 162 265 119 273 
567 247 119 114 265 
568 246 120 249 266 
569 248 256 246 266 
570 158 271 140 277 
571 122 263 258 265 
572 258 263 193 265 
573 152 258 247 265 
574 260 215 269 275 
575 180 193 263 265 
576 109 263 122 265 
577 204 260 262 275 
578 146 137 113 260 
579 97 233 265 273 
580 109 121 96 265 
581 146 260 113 269 
582 190 245 265 273 
583 204 215 260 275 
584 115 246 256 266 
585 99 277 140 278 
586 231 194 199 258 
587 161 128 123 258 
588 242 191 266 268 
589 150 243 117 257 
590 197 230 209 256 
591 159 126 139 256 
592 140 271 270 278 
593 215 200 260 269 
594 247 152 244 258 
595 106 255 260 262 
596 245 250 223 258 
597 126 264 256 276 
598 197 256 264 276 
599 224 250 248 256 
600 248 244 246 256 
601 106 83 255 262 
602 201 269 275 279 
603 189 215 200 260 
604 175 250 224 256 
605 136 275 269 279 
606 258 263 123 267 
607 194 263 258 267 
608 191 164 266 268 
609 184 190 245 265 
610 164 120 266 268 
611 190 265 233 273 
612 247 258 245 265 
613 83 260 255 262 
614 254 177 260 262 
615 165 260 137 268 
616 248 185 256 266 
617 213 95 99 277 
618 134 260 146 275 
619 96 93 192 265 
620 213 183 95 277 
621 247 244 245 258 
622 134 262 260 275 
623 177 204 260 262 
624 270 271 206 278 
625 254 260 83 262 
626 201 275 202 279 
627 252 117 243 257 
628 242 188 191 268 
629 114 152 247 265 
630 245 244 250 258 
631 131 270 271 274 
632 175 223 250 258 
633 223 245 258 265 
634 224 248 185 256 
635 204 215 177 260 
636 165 189 260 268 
637 151 120 169 268 
638 213 206 183 277 
639 132 270 140 271 
640 210 206 271 277 
641 160 134 146 275 
642 140 99 112 277 
643 250 244 248 256 
644 203 274 202 275 
645 96 121 93 265 
646 254 83 177 262 
647 115 256 125 282 
648 205 271 270 274 
649 191 222 164 268 
650 115 266 256 282 
651 185 256 266 282 
652 252 243 253 257 
653 209 175 256 272 
654 132 140 158 271 
655 199 258 175 272 
656 169 164 222 268 
657 106 260 134 262 
658 99 95 112 277 
659 256 264 125 282 
660 243 257 150 273 
661 223 184 245 265 
662 190 251 245 273 
663 83 178 217 259 
664 243 251 253 273 
665 230 261 272 276 
666 231 261 267 272 
667 162 119 97 273 
668 125 256 126 264 
669 244 104 153 256 
670 131 270 132 271 
671 13 179 84 267 
672 117 257 252 259 
673 244 152 104 258 
674 201 269 215 275 
675 203 205 274 275 
676 164 169 120 268 
677 106 148 83 262 
678 248 242 78 266 
679 13 211 179 267 
680 193 258 194 263 
681 123 258 122 263 
682 243 245 251 273 
683 224 185 196 256 
684 115 153 125 256 
685 243 150 117 252 
686 210 183 206 277 
687 107 83 148 259 
688 204 262 205 275 
689 139 256 104 272 
690 246 244 58 153 
691 128 104 258 272 
692 202 203 220 274 
693 180 192 193 265 
694 109 122 121 265 
695 255 83 254 260 
696 159 272 261 276 
697 83 217 177 262 
698 161 267 261 272 
699 201 182 269 279 
700 148 259 83 262 
701 253 257 187 259 
702 142 136 269 279 
703 230 261 208 272 
704 53 113 137 165 
705 243 253 257 273 
706 208 261 231 272 
707 131 133 262 271 
708 19 84 108 267 
709 38 147 112 277 
710 252 257 253 259 
711 144 150 117 257 
712 165 222 189 268 
713 15 87 207 276 
714 185 196 256 282 
715 134 106 146 260 
716 125 264 110 282 
717 19 108 141 267 
718 137 151 52 268 
719 192 180 25 96 
720 212 276 264 280 
721 15 207 186 276 
722 264 276 143 280 
723 105 270 131 274 
724 78 242 191 266 
725 83 259 217 262 
726 246 242 248 266 
727 160 146 113 269 
728 200 170 68 189 
729 149 255 249 268 
730 119 162 114 265 
731 184 233 190 265 
732 197 264 256 282 
733 209 199 175 272 
734 158 140 112 277 
735 185 248 78 266 
736 197 264 212 276 
737 143 264 126 276 
738 110 49 124 282 
739 179 261 84 267 
740 84 261 108 267 
741 135 140 270 278 
742 201 202 182 279 
743 45 130 111 237 
744 127 267 263 281 
745 205 270 176 274 
746 125 126 110 264 
747 122 258 152 265 
748 223 258 193 265 
749 263 267 198 281 
750 138 261 159 272 
751 116 129 21 276 
752 98 216 257 277 
753 138 161 261 272 
754 132 131 105 270 
755 163 49 110 282 
756 253 178 83 259 
757 191 66 164 222 
758 87 261 207 276 
759 197 256 196 282 
760 142 111 136 279 
761 21 129 87 276 
762 13 84 86 267 
763 137 52 165 268 
764 98 257 147 277 
765 38 98 147 277 
766 109 123 122 263 
767 180 193 194 263 
768 242 254 219 268 
769 13 86 211 267 
770 123 263 127 267 
771 194 198 263 267 
772 144 150 257 273 
773 132 135 140 270 
774 190 81 245 251 
775 134 131 262 275 
776 233 93 97 265 
777 222 191 188 268 
778 83 107 252 259 
779 144 147 37 257 
780 222 67 165 189 
781 254 260 219 268 
782 93 162 97 265 
783 212 186 276 280 
784 246 120 57 249 
785 253 187 178 259 
786 137 260 149 268 
787 113 53 170 165 
788 143 276 116 280 
789 109 34 96 121 
790 20 129 108 261 
791 222 165 169 268 
792 169 164 66 222 
793 129 261 87 276 
794 145 257 117 259 
795 136 274 131 275 
796 122 152 114 265 
797 223 193 184 265 
798 25 93 192 96 
799 86 84 19 267 
800 219 260 189 268 
801 141 86 19 267 
802 119 144 36 273 
803 204 205 203 275 
804 160 269 136 275 
805 209 175 224 256 
806 139 153 104 256 
807 242 255 254 268 
808 255 260 254 268 
809 36 97 119 273 
810 210 271 259 277 
811 169 52 151 268 
812 61 117 150 252 
813 255 242 249 268 
814 170 165 68 189 
815 208 231 199 272 
816 168 124 49 282 
817 143 126 116 276 
818 197 212 186 276 
819 14 179 207 261 
820 209 230 208 272 
821 191 185 78 266 
822 136 130 131 274 
823 93 121 162 265 
824 29 183 216 277 
825 223 175 199 258 
826 128 104 152 258 
827 214 28 216 257 
828 203 202 201 275 
829 20 108 84 261 
830 85 87 15 276 
831 141 267 127 281 
832 112 95 38 277 
833 37 94 144 257 
834 144 94 36 273 
835 198 267 211 281 
836 39 99 112 140 
837 118 57 120 249 
838 107 117 252 259 
839 178 232 217 259 
840 15 186 85 276 
841 105 130 44 274 
842 226 210 259 277 
843 238 111 157 279 
844 163 168 49 282 
845 60 119 247 243 
846 151 118 120 268 
847 118 149 249 268 
848 147 98 37 257 
849 149 260 255 268 
850 44 234 105 274 
851 85 116 21 276 
852 139 104 128 272 
853 188 242 219 268 
854 14 84 179 261 
855 123 127 141 267 
856 194 211 198 267 
857 133 107 148 259 
858 28 214 94 257 
859 39 112 99 95 
860 178 10 83 217 
861 30 95 213 183 
862 110 264 163 282 
863 58 115 246 153 
864 36 94 97 273 
865 105 234 270 274 
866 87 85 21 276 
867 20 87 129 261 
868 87 14 207 261 
869 93 233 192 265 
870 251 253 221 82 
871 98 216 28 257 
872 169 165 52 268 
873 133 259 148 262 
874 237 111 45 235 
875 93 96 34 121 
876 67 165 169 222 
877 187 257 226 259 
878 158 145 271 277 
879 147 117 145 257 
880 205 262 232 271 
881 259 271 145 277 
882 147 257 145 277 
883 106 134 148 262 
884 221 253 187 82 
885 204 201 215 275 
886 144 257 94 273 
887 238 235 111 279 
888 81 184 190 245 
889 215 201 200 269 
890 78 191 242 188 
891 152 247 244 59 
892 106 148 8 83 
893 98 94 37 257 
894 216 226 257 277 
895 107 8 148 83 
896 86 267 141 281 
897 145 257 259 277 
898 123 128 122 258 
899 193 199 194 258 
900 217 259 232 262 
901 85 116 276 280 
902 38 95 98 277 
903 142 136 160 269 
904 95 99 30 213 
905 197 209 196 256 
906 139 126 125 256 
907 120 50 164 266 
908 242 254 77 219 
909 20 84 87 261 
910 24 180 198 263 
911 48 110 143 264 
912 65 168 195 266 
913 177 217 204 262 
914 176 270 234 274 
915 226 259 257 277 
916 101 227 213 278 
917 28 94 98 257 
918 134 131 133 262 
919 87 84 14 261 
920 135 105 43 270 
921 232 262 259 271 
922 222 219 189 268 
923 231 261 179 267 
924 161 108 261 267 
925 124 168 266 282 
926 95 183 29 277 
927 253 10 83 178 
928 10 177 83 217 
929 73 234 176 270 
930 77 188 242 219 
931 223 80 250 245 
932 230 207 261 276 
933 159 261 129 276 
934 210 232 259 271 
935 191 164 65 266 
936 246 115 120 266 
937 182 166 269 279 
938 195 191 65 266 
939 8 107 252 83 
940 130 237 44 274 
941 178 187 226 259 
942 50 124 168 266 
943 180 24 96 263 
944 135 270 236 278 
945 120 124 50 266 
946 127 263 92 281 
947 181 63 212 264 
948 163 110 48 264 
949 205 206 270 271 
950 234 43 105 270 
951 255 56 149 249 
952 221 214 187 273 
953 164 168 65 266 
954 214 94 257 273 
955 138 128 161 272 
956 43 236 135 270 
957 74 176 234 274 
958 50 168 164 266 
959 119 243 150 273 
960 139 138 159 272 
961 99 101 213 278 
962 212 264 167 280 
963 69 200 182 269 
964 145 259 133 271 
965 156 47 143 280 
966 107 145 117 259 
967 243 61 150 252 
968 127 109 33 263 
969 235 202 75 220 
970 73 176 218 270 
971 149 137 146 260 
972 197 181 264 282 
973 177 254 10 83 
974 220 176 74 274 
975 195 266 168 282 
976 44 237 234 274 
977 247 119 60 114 
978 64 163 181 282 
979 182 166 69 269 
980 197 196 181 282 
981 149 106 255 260 
982 218 227 240 278 
983 113 170 54 269 
984 63 167 212 264 
985 74 237 220 274 
986 259 262 133 271 
987 156 173 47 280 
988 79 224 250 248 
989 137 149 151 268 
990 195 168 64 282 
991 203 205 176 274 
992 163 264 181 282 
993 92 127 33 263 
994 124 125 110 282 
995 158 145 133 271 
996 75 237 235 220 
997 255 106 8 83 
998 113 54 142 269 
999 240 218 72 227 
1000 211 267 86 281 
1001 187 216 226 257 
1002 157 46 111 238 
1003 163 64 168 282 
1004 97 94 27 273 
1005 131 132 133 271 
1006 181 163 63 264 
1007 64 181 195 282 
1008 74 234 237 274 
1009 18 141 154 281 
1010 185 266 195 282 
1011 48 143 167 264 
1012 33 109 96 263 
1013 209 208 199 272 
1014 62 228 212 280 
1015 204 232 205 262 
1016 205 206 176 270 
1017 234 73 236 270 
1018 214 257 187 273 
1019 219 254 177 260 
1020 155 135 42 278 
1021 42 236 239 278 
1022 73 218 236 270 
1023 18 86 141 281 
1024 189 219 215 260 
1025 90 225 12 281 
1026 85 276 186 280 
1027 147 145 112 277 
1028 43 234 236 270 
1029 62 172 228 280 
1030 135 236 42 278 
1031 155 42 239 278 
1032 18 89 86 281 
1033 22 156 116 280 
1034 230 207 208 261 
1035 159 138 129 261 
1036 22 116 85 280 
1037 69 170 200 269 
1038 108 138 161 261 
1039 231 208 179 261 
1040 210 232 226 259 
1041 92 24 198 263 
1042 218 270 206 278 
1043 238 46 111 235 
1044 119 150 144 273 
1045 18 154 89 281 
1046 119 162 97 36 
1047 88 22 85 280 
1048 154 127 32 281 
1049 229 70 182 279 
1050 130 105 131 274 
1051 143 167 264 280 
1052 154 32 100 281 
1053 166 182 70 279 
1054 143 47 167 280 
1055 192 184 193 265 
1056 121 122 114 265 
1057 241 229 235 279 
1058 147 144 117 257 
1059 118 149 56 249 
1060 185 195 196 282 
1061 166 70 171 279 
1062 101 31 213 227 
1063 22 88 156 280 
1064 229 171 70 279 
1065 214 27 94 273 
1066 198 92 263 281 
1067 167 47 173 280 
1068 134 136 131 275 
1069 235 229 202 279 
1070 167 163 48 264 
1071 214 190 27 273 
1072 214 216 187 257 
1073 85 228 91 280 
1074 163 167 63 264 
1075 184 192 233 265 
1076 121 114 162 265 
1077 170 69 166 269 
1078 210 205 232 271 
1079 218 240 236 278 
1080 246 120 115 57 
1081 92 96 24 263 
1082 166 174 157 279 
1083 85 186 228 280 
1084 107 133 145 259 
1085 216 183 226 277 
1086 162 93 35 121 
1087 188 219 222 268 
1088 92 33 96 263 
1089 218 206 213 278 
1090 54 166 142 269 
1091 102 99 155 278 
1092 226 183 210 277 
1093 101 31 99 213 
1094 200 201 182 269 
1095 142 269 166 279 
1096 149 146 106 260 
1097 90 12 86 281 
1098 134 133 148 262 
1099 119 60 150 243 
1100 236 240 218 72 
1101 253 178 187 82 
1102 218 236 270 278 
1103 157 142 166 279 
1104 207 179 208 261 
1105 129 138 108 261 
1106 244 58 153 104 
1107 80 223 184 245 
1108 99 140 155 278 
1109 92 225 103 281 
1110 198 225 92 281 
1111 161 141 108 267 
1112 211 231 179 267 
1113 166 54 170 269 
1114 196 209 224 256 
1115 153 139 125 256 
1116 160 136 134 275 
1117 23 225 103 92 
1118 128 152 122 258 
1119 223 199 193 258 
1120 230 197 186 276 
1121 126 159 116 276 
1122 225 23 198 92 
1123 221 251 190 273 
1124 35 97 93 162 
1125 194 198 180 263 
1126 123 109 127 263 
1127 217 232 204 262 
1128 105 135 132 270 
1129 110 126 143 264 
1130 197 181 212 264 
1131 211 194 231 267 
1132 123 141 161 267 
1133 139 128 138 272 
1134 171 241 238 279 
1135 238 157 174 279 
1136 171 229 241 279 
1137 117 61 107 252 
1138 157 55 174 166 
1139 205 210 206 271 
1140 191 195 185 266 
1141 120 115 124 266 
1142 159 129 116 276 
1143 230 186 207 276 
1144 76 235 241 229 
1145 238 174 171 279 
1146 219 177 215 260 
1147 104 152 244 59 
1148 253 83 252 259 
1149 106 56 149 255 
1150 91 16 228 85 
1151 51 50 164 120 
1152 233 93 26 97 
1153 90 100 103 281 
1154 149 118 151 268 
1155 19 18 86 141 
1156 90 89 100 281 
1157 55 157 142 166 
1158 85 22 21 116 
1159 102 99 40 155 
1160 203 201 204 275 
1161 229 76 235 202 
1162 26 93 233 192 
1163 212 228 186 280 
1164 240 227 101 278 
1165 155 239 102 278 
1166 158 112 145 277 
1167 224 250 175 79 
1168 176 74 234 73 
1169 16 186 228 85 
1170 160 113 142 269 
1171 228 172 91 280 
1172 239 101 102 278 
1173 24 25 180 96 
1174 240 101 239 278 
1175 49 48 163 110 
1176 206 218 176 270 
1177 229 182 202 279 
1178 203 176 220 274 
1179 15 14 207 87 
1180 89 154 100 281 
1181 152 114 247 59 
1182 140 40 99 155 
1183 254 77 219 177 
1184 42 135 43 236 
1185 173 156 88 280 
1186 191 66 65 164 
1187 172 88 91 280 
1188 46 45 111 235 
1189 213 227 218 278 
1190 70 182 166 69 
1191 29 28 98 216 
1192 173 88 172 280 
1193 178 226 232 259 
1194 179 14 13 84 
1195 34 35 93 121 
1196 225 90 103 281 
1197 141 127 154 281 
1198 156 143 116 280 
1199 105 43 234 44 
1200 113 53 54 170 
1201 190 81 251 221 
1202 37 36 144 94 
1203 38 112 39 95 
1204 33 127 92 32 
1205 135 155 140 278 
1206 195 65 64 168 
1207 241 235 238 279 
1208 63 62 212 167 
1209 108 19 20 84 
1210 225 198 211 281 
1211 142 157 111 279 
1212 132 158 133 271 
1213 137 52 53 165 
1214 154 2 89 100 
1215 31 30 99 213 
1216 224 79 185 248 
1217 67 68 165 189 
1218 233 26 27 97 
1219 12 13 86 211 
1220 102 101 99 278 
1221 147 38 37 98 
1222 196 195 181 282 
1223 50 49 168 124 
1224 27 28 214 94 
1225 5 101 240 227 
1226 45 44 130 237 
1227 166 171 174 279 
1228 68 69 170 200 
1229 4 88 173 156 
1230 30 29 95 183 
1231 175 223 80 250 
1232 181 64 63 163 
1233 85 91 88 280 
1234 93 26 25 192 
1235 240 239 236 278 
1236 87 21 20 129 
1237 74 237 75 220 
1238 174 7 157 238 
1239 171 9 241 229 
1240 239 102 6 155 
1241 172 3 228 91 
1242 90 86 89 281 
1243 34 96 33 109 
1244 92 103 100 281 
1245 67 169 66 222 
1246 173 172 167 280 
1247 184 81 80 245 
1248 16 15 186 85 
1249 178 253 10 82 
1250 103 90 11 100 
1251 52 151 51 169 
1252 54 55 142 166 
1253 39 40 99 140 
1254 89 11 90 100 
1255 162 35 97 36 
1256 47 143 167 48 
1257 60 61 150 243 
1258 202 76 235 75 
1259 23 24 198 92 
1260 56 106 8 255 
1261 221 190 214 273 
1262 244 58 104 59 
1263 114 60 247 59 
1264 90 1 225 103 
1265 61 8 107 252 
1266 218 73 236 72 
1267 254 10 77 177 
1268 188 242 78 77 
1269 88 172 17 173 
1270 239 41 101 240 
1271 91 172 17 88 
1272 102 239 41 101 
1273 89 2 11 100 
1274 42 239 6 155 
1275 2 18 154 89 
1276 238 174 71 171 
1277 241 238 71 171 
1278 228 62 3 172 
1279 1 23 225 103 
1280 173 4 156 47 
1281 5 240 72 227 
1282 101 5 31 227 
1283 2 154 32 100 
1284 57 115 246 58 
1285 7 46 157 238 
1286 88 4 22 156 
1287 171 9 229 70 
1288 79 78 185 248 
1289 250 80 175 79 
1290 101 41 5 240 
1291 221 81 251 82 
1292 17 4 88 173 
1293 225 12 1 90 
1294 118 56 57 249 
1295 241 71 9 171 
1296 238 174 7 71 
1297 172 17 3 91 
1298 157 55 7 174 
1299 40 6 102 155 
1300 76 241 9 229 
1301 3 16 228 91 
1302 239 6 102 41 
1303 90 11 1 103 
1304 175 272 250 256 
1305 175 250 272 258 
1306 244 250 272 256 
1307 244 272 250 258 
1308 273 187 253 257 
1309 235 220 274 202 
1310 274 220 235 237 
1311 120 169 51 151 
1312 51 169 120 164 
1313 282 115 124 125 
1314 282 124 115 266 
1315 29 277 98 95 
1316 98 277 29 216 
1317 253 221 273 251 
1318 273 221 253 187 
1319 273 233 27 97 
1320 273 27 233 190 
1321 280 62 167 212 
1322 280 167 62 172 
1323 281 32 92 127 
1324 281 92 32 100 
1325 281 12 211 225 
1326 281 211 12 86 
$EndElements
