solid OpenSCAD_Model
  facet normal 1 -0 0
    outer loop
      vertex 40 -45 32.5
      vertex 40 45 -32.5
      vertex 40 45 32.5
    endloop
  endfacet
  facet normal 1 0 0
    outer loop
      vertex 40 45 -32.5
      vertex 40 -45 32.5
      vertex 40 -45 -32.5
    endloop
  endfacet
  facet normal 0 0 1
    outer loop
      vertex 40 45 32.5
      vertex 38 43 32.5
      vertex 40 -45 32.5
    endloop
  endfacet
  facet normal 0 0 1
    outer loop
      vertex 40 45 32.5
      vertex -38 43 32.5
      vertex 38 43 32.5
    endloop
  endfacet
  facet normal 0 0 1
    outer loop
      vertex -38 43 32.5
      vertex -40 45 32.5
      vertex -38 -43 32.5
    endloop
  endfacet
  facet normal -0 0 1
    outer loop
      vertex -40 45 32.5
      vertex -38 43 32.5
      vertex 40 45 32.5
    endloop
  endfacet
  facet normal -0 0 1
    outer loop
      vertex 38 -43 32.5
      vertex 40 -45 32.5
      vertex 38 43 32.5
    endloop
  endfacet
  facet normal -0 0 1
    outer loop
      vertex -38 -43 32.5
      vertex 40 -45 32.5
      vertex 38 -43 32.5
    endloop
  endfacet
  facet normal 0 0 1
    outer loop
      vertex -38 -43 32.5
      vertex -40 -45 32.5
      vertex 40 -45 32.5
    endloop
  endfacet
  facet normal 0 0 1
    outer loop
      vertex -40 -45 32.5
      vertex -38 -43 32.5
      vertex -40 45 32.5
    endloop
  endfacet
  facet normal 0 0 -1
    outer loop
      vertex -40 -45 -32.5
      vertex 40 45 -32.5
      vertex 40 -45 -32.5
    endloop
  endfacet
  facet normal -0 0 -1
    outer loop
      vertex 40 45 -32.5
      vertex -40 -45 -32.5
      vertex -40 45 -32.5
    endloop
  endfacet
  facet normal -1 0 0
    outer loop
      vertex -40 -45 -32.5
      vertex -40 45 32.5
      vertex -40 45 -32.5
    endloop
  endfacet
  facet normal -1 -0 0
    outer loop
      vertex -40 45 32.5
      vertex -40 -45 -32.5
      vertex -40 -45 32.5
    endloop
  endfacet
  facet normal 0 1 -0
    outer loop
      vertex 40 45 -32.5
      vertex -40 45 32.5
      vertex 40 45 32.5
    endloop
  endfacet
  facet normal 0 1 0
    outer loop
      vertex -40 45 32.5
      vertex 40 45 -32.5
      vertex -40 45 -32.5
    endloop
  endfacet
  facet normal 0 -1 0
    outer loop
      vertex -40 -45 -32.5
      vertex 40 -45 32.5
      vertex -40 -45 32.5
    endloop
  endfacet
  facet normal 0 -1 -0
    outer loop
      vertex 40 -45 32.5
      vertex -40 -45 -32.5
      vertex 40 -45 -32.5
    endloop
  endfacet
  facet normal -1 0 0
    outer loop
      vertex 38 -43 -30.5
      vertex 38 43 32.5
      vertex 38 43 -30.5
    endloop
  endfacet
  facet normal -1 -0 0
    outer loop
      vertex 38 43 32.5
      vertex 38 -43 -30.5
      vertex 38 -43 32.5
    endloop
  endfacet
  facet normal -0 0 1
    outer loop
      vertex -38 43 -30.5
      vertex 38 -43 -30.5
      vertex 38 43 -30.5
    endloop
  endfacet
  facet normal 0 0 1
    outer loop
      vertex 38 -43 -30.5
      vertex -38 43 -30.5
      vertex -38 -43 -30.5
    endloop
  endfacet
  facet normal 1 -0 0
    outer loop
      vertex -38 -43 32.5
      vertex -38 43 -30.5
      vertex -38 43 32.5
    endloop
  endfacet
  facet normal 1 0 0
    outer loop
      vertex -38 43 -30.5
      vertex -38 -43 32.5
      vertex -38 -43 -30.5
    endloop
  endfacet
  facet normal 0 -1 0
    outer loop
      vertex -38 43 -30.5
      vertex 38 43 32.5
      vertex -38 43 32.5
    endloop
  endfacet
  facet normal 0 -1 -0
    outer loop
      vertex 38 43 32.5
      vertex -38 43 -30.5
      vertex 38 43 -30.5
    endloop
  endfacet
  facet normal 0 1 -0
    outer loop
      vertex 38 -43 -30.5
      vertex -38 -43 32.5
      vertex 38 -43 32.5
    endloop
  endfacet
  facet normal 0 1 0
    outer loop
      vertex -38 -43 32.5
      vertex 38 -43 -30.5
      vertex -38 -43 -30.5
    endloop
  endfacet
endsolid OpenSCAD_Model
