solid OpenSCAD_Model
  facet normal 1 -0 0
    outer loop
      vertex 60 -60 32.5
      vertex 60 60 -32.5
      vertex 60 60 32.5
    endloop
  endfacet
  facet normal 1 0 0
    outer loop
      vertex 60 60 -32.5
      vertex 60 -60 32.5
      vertex 60 -60 -32.5
    endloop
  endfacet
  facet normal 0 0 1
    outer loop
      vertex 60 60 32.5
      vertex 57 57 32.5
      vertex 60 -60 32.5
    endloop
  endfacet
  facet normal 0 0 1
    outer loop
      vertex 60 60 32.5
      vertex -57 57 32.5
      vertex 57 57 32.5
    endloop
  endfacet
  facet normal 0 0 1
    outer loop
      vertex -57 57 32.5
      vertex -60 60 32.5
      vertex -57 -57 32.5
    endloop
  endfacet
  facet normal -0 0 1
    outer loop
      vertex -60 60 32.5
      vertex -57 57 32.5
      vertex 60 60 32.5
    endloop
  endfacet
  facet normal -0 0 1
    outer loop
      vertex 57 -57 32.5
      vertex 60 -60 32.5
      vertex 57 57 32.5
    endloop
  endfacet
  facet normal -0 0 1
    outer loop
      vertex -57 -57 32.5
      vertex 60 -60 32.5
      vertex 57 -57 32.5
    endloop
  endfacet
  facet normal 0 0 1
    outer loop
      vertex -57 -57 32.5
      vertex -60 -60 32.5
      vertex 60 -60 32.5
    endloop
  endfacet
  facet normal 0 0 1
    outer loop
      vertex -60 -60 32.5
      vertex -57 -57 32.5
      vertex -60 60 32.5
    endloop
  endfacet
  facet normal 0 0 -1
    outer loop
      vertex -60 -60 -32.5
      vertex 60 60 -32.5
      vertex 60 -60 -32.5
    endloop
  endfacet
  facet normal -0 0 -1
    outer loop
      vertex 60 60 -32.5
      vertex -60 -60 -32.5
      vertex -60 60 -32.5
    endloop
  endfacet
  facet normal -1 0 0
    outer loop
      vertex -60 -60 -32.5
      vertex -60 60 32.5
      vertex -60 60 -32.5
    endloop
  endfacet
  facet normal -1 -0 0
    outer loop
      vertex -60 60 32.5
      vertex -60 -60 -32.5
      vertex -60 -60 32.5
    endloop
  endfacet
  facet normal 0 1 -0
    outer loop
      vertex 60 60 -32.5
      vertex -60 60 32.5
      vertex 60 60 32.5
    endloop
  endfacet
  facet normal 0 1 0
    outer loop
      vertex -60 60 32.5
      vertex 60 60 -32.5
      vertex -60 60 -32.5
    endloop
  endfacet
  facet normal 0 -1 0
    outer loop
      vertex -60 -60 -32.5
      vertex 60 -60 32.5
      vertex -60 -60 32.5
    endloop
  endfacet
  facet normal 0 -1 -0
    outer loop
      vertex 60 -60 32.5
      vertex -60 -60 -32.5
      vertex 60 -60 -32.5
    endloop
  endfacet
  facet normal -1 0 0
    outer loop
      vertex 57 -57 -29.5
      vertex 57 57 32.5
      vertex 57 57 -29.5
    endloop
  endfacet
  facet normal -1 -0 0
    outer loop
      vertex 57 57 32.5
      vertex 57 -57 -29.5
      vertex 57 -57 32.5
    endloop
  endfacet
  facet normal -0 0 1
    outer loop
      vertex -57 57 -29.5
      vertex 57 -57 -29.5
      vertex 57 57 -29.5
    endloop
  endfacet
  facet normal 0 0 1
    outer loop
      vertex 57 -57 -29.5
      vertex -57 57 -29.5
      vertex -57 -57 -29.5
    endloop
  endfacet
  facet normal 1 -0 0
    outer loop
      vertex -57 -57 32.5
      vertex -57 57 -29.5
      vertex -57 57 32.5
    endloop
  endfacet
  facet normal 1 0 0
    outer loop
      vertex -57 57 -29.5
      vertex -57 -57 32.5
      vertex -57 -57 -29.5
    endloop
  endfacet
  facet normal 0 -1 0
    outer loop
      vertex -57 57 -29.5
      vertex 57 57 32.5
      vertex -57 57 32.5
    endloop
  endfacet
  facet normal 0 -1 -0
    outer loop
      vertex 57 57 32.5
      vertex -57 57 -29.5
      vertex 57 57 -29.5
    endloop
  endfacet
  facet normal 0 1 -0
    outer loop
      vertex 57 -57 -29.5
      vertex -57 -57 32.5
      vertex 57 -57 32.5
    endloop
  endfacet
  facet normal 0 1 0
    outer loop
      vertex -57 -57 32.5
      vertex 57 -57 -29.5
      vertex -57 -57 -29.5
    endloop
  endfacet
endsolid OpenSCAD_Model
