solid OpenSCAD_Model
  facet normal 1 -0 0
    outer loop
      vertex 40 -70 2
      vertex 40 70 -2
      vertex 40 70 2
    endloop
  endfacet
  facet normal 1 0 0
    outer loop
      vertex 40 70 -2
      vertex 40 -70 2
      vertex 40 -70 -2
    endloop
  endfacet
  facet normal 0 0 1
    outer loop
      vertex 40 70 2
      vertex 34 1 2
      vertex 40 -70 2
    endloop
  endfacet
  facet normal 0 0 1
    outer loop
      vertex 40 70 2
      vertex 22 1 2
      vertex 34 1 2
    endloop
  endfacet
  facet normal 0 0 1
    outer loop
      vertex 22 1 2
      vertex -22 1 2
      vertex 22 -1 2
    endloop
  endfacet
  facet normal 0 0 1
    outer loop
      vertex 40 70 2
      vertex -22 1 2
      vertex 22 1 2
    endloop
  endfacet
  facet normal -0 0 1
    outer loop
      vertex -40 70 2
      vertex -22 1 2
      vertex 40 70 2
    endloop
  endfacet
  facet normal 0 0 1
    outer loop
      vertex -34 1 2
      vertex -40 70 2
      vertex -34 -1 2
    endloop
  endfacet
  facet normal 0 0 1
    outer loop
      vertex -22 1 2
      vertex -40 70 2
      vertex -34 1 2
    endloop
  endfacet
  facet normal -0 0 1
    outer loop
      vertex 34 -1 2
      vertex 40 -70 2
      vertex 34 1 2
    endloop
  endfacet
  facet normal -0 0 1
    outer loop
      vertex 22 -1 2
      vertex 40 -70 2
      vertex 34 -1 2
    endloop
  endfacet
  facet normal 0 0 1
    outer loop
      vertex -22 -1 2
      vertex 22 -1 2
      vertex -22 1 2
    endloop
  endfacet
  facet normal 0 0 1
    outer loop
      vertex 22 -1 2
      vertex -22 -1 2
      vertex 40 -70 2
    endloop
  endfacet
  facet normal 0 0 1
    outer loop
      vertex -40 -70 2
      vertex -22 -1 2
      vertex -34 -1 2
    endloop
  endfacet
  facet normal 0 0 1
    outer loop
      vertex -22 -1 2
      vertex -40 -70 2
      vertex 40 -70 2
    endloop
  endfacet
  facet normal 0 0 1
    outer loop
      vertex -40 -70 2
      vertex -34 -1 2
      vertex -40 70 2
    endloop
  endfacet
  facet normal 0 0 -1
    outer loop
      vertex 40 -70 -2
      vertex 34 -1 -2
      vertex 40 70 -2
    endloop
  endfacet
  facet normal 0 0 -1
    outer loop
      vertex 40 -70 -2
      vertex 22 -1 -2
      vertex 34 -1 -2
    endloop
  endfacet
  facet normal 0 0 -1
    outer loop
      vertex 22 -1 -2
      vertex -22 -1 -2
      vertex 22 1 -2
    endloop
  endfacet
  facet normal 0 0 -1
    outer loop
      vertex 40 -70 -2
      vertex -22 -1 -2
      vertex 22 -1 -2
    endloop
  endfacet
  facet normal 0 0 -1
    outer loop
      vertex -40 -70 -2
      vertex -22 -1 -2
      vertex 40 -70 -2
    endloop
  endfacet
  facet normal -0 0 -1
    outer loop
      vertex -34 -1 -2
      vertex -40 -70 -2
      vertex -34 1 -2
    endloop
  endfacet
  facet normal -0 0 -1
    outer loop
      vertex -22 -1 -2
      vertex -40 -70 -2
      vertex -34 -1 -2
    endloop
  endfacet
  facet normal 0 0 -1
    outer loop
      vertex 34 1 -2
      vertex 40 70 -2
      vertex 34 -1 -2
    endloop
  endfacet
  facet normal 0 0 -1
    outer loop
      vertex 22 1 -2
      vertex 40 70 -2
      vertex 34 1 -2
    endloop
  endfacet
  facet normal 0 0 -1
    outer loop
      vertex -22 1 -2
      vertex 22 1 -2
      vertex -22 -1 -2
    endloop
  endfacet
  facet normal 0 0 -1
    outer loop
      vertex 22 1 -2
      vertex -22 1 -2
      vertex 40 70 -2
    endloop
  endfacet
  facet normal 0 0 -1
    outer loop
      vertex -40 70 -2
      vertex -22 1 -2
      vertex -34 1 -2
    endloop
  endfacet
  facet normal 0 0 -1
    outer loop
      vertex -22 1 -2
      vertex -40 70 -2
      vertex 40 70 -2
    endloop
  endfacet
  facet normal 0 0 -1
    outer loop
      vertex -40 70 -2
      vertex -34 1 -2
      vertex -40 -70 -2
    endloop
  endfacet
  facet normal -1 0 0
    outer loop
      vertex -40 -70 -2
      vertex -40 70 2
      vertex -40 70 -2
    endloop
  endfacet
  facet normal -1 -0 0
    outer loop
      vertex -40 70 2
      vertex -40 -70 -2
      vertex -40 -70 2
    endloop
  endfacet
  facet normal 0 1 -0
    outer loop
      vertex 40 70 -2
      vertex -40 70 2
      vertex 40 70 2
    endloop
  endfacet
  facet normal 0 1 0
    outer loop
      vertex -40 70 2
      vertex 40 70 -2
      vertex -40 70 -2
    endloop
  endfacet
  facet normal 0 -1 0
    outer loop
      vertex -40 -70 -2
      vertex 40 -70 2
      vertex -40 -70 2
    endloop
  endfacet
  facet normal 0 -1 -0
    outer loop
      vertex 40 -70 2
      vertex -40 -70 -2
      vertex 40 -70 -2
    endloop
  endfacet
  facet normal -1 0 0
    outer loop
      vertex -22 -1 -2
      vertex -22 1 2
      vertex -22 1 -2
    endloop
  endfacet
  facet normal -1 -0 0
    outer loop
      vertex -22 1 2
      vertex -22 -1 -2
      vertex -22 -1 2
    endloop
  endfacet
  facet normal 1 -0 0
    outer loop
      vertex -34 -1 2
      vertex -34 1 -2
      vertex -34 1 2
    endloop
  endfacet
  facet normal 1 0 0
    outer loop
      vertex -34 1 -2
      vertex -34 -1 2
      vertex -34 -1 -2
    endloop
  endfacet
  facet normal 0 -1 0
    outer loop
      vertex -34 1 -2
      vertex -22 1 2
      vertex -34 1 2
    endloop
  endfacet
  facet normal 0 -1 -0
    outer loop
      vertex -22 1 2
      vertex -34 1 -2
      vertex -22 1 -2
    endloop
  endfacet
  facet normal 0 1 -0
    outer loop
      vertex -22 -1 -2
      vertex -34 -1 2
      vertex -22 -1 2
    endloop
  endfacet
  facet normal 0 1 0
    outer loop
      vertex -34 -1 2
      vertex -22 -1 -2
      vertex -34 -1 -2
    endloop
  endfacet
  facet normal -1 0 0
    outer loop
      vertex 34 -1 -2
      vertex 34 1 2
      vertex 34 1 -2
    endloop
  endfacet
  facet normal -1 -0 0
    outer loop
      vertex 34 1 2
      vertex 34 -1 -2
      vertex 34 -1 2
    endloop
  endfacet
  facet normal 1 -0 0
    outer loop
      vertex 22 -1 2
      vertex 22 1 -2
      vertex 22 1 2
    endloop
  endfacet
  facet normal 1 0 0
    outer loop
      vertex 22 1 -2
      vertex 22 -1 2
      vertex 22 -1 -2
    endloop
  endfacet
  facet normal 0 -1 0
    outer loop
      vertex 22 1 -2
      vertex 34 1 2
      vertex 22 1 2
    endloop
  endfacet
  facet normal 0 -1 -0
    outer loop
      vertex 34 1 2
      vertex 22 1 -2
      vertex 34 1 -2
    endloop
  endfacet
  facet normal 0 1 -0
    outer loop
      vertex 34 -1 -2
      vertex 22 -1 2
      vertex 34 -1 2
    endloop
  endfacet
  facet normal 0 1 0
    outer loop
      vertex 22 -1 2
      vertex 34 -1 -2
      vertex 22 -1 -2
    endloop
  endfacet
endsolid OpenSCAD_Model
