solid OpenSCAD_Model
  facet normal 1 -0 0
    outer loop
      vertex 35 -80 1.5
      vertex 35 80 -1.5
      vertex 35 80 1.5
    endloop
  endfacet
  facet normal 1 0 0
    outer loop
      vertex 35 80 -1.5
      vertex 35 -80 1.5
      vertex 35 -80 -1.5
    endloop
  endfacet
  facet normal 0 0 1
    outer loop
      vertex 35 80 1.5
      vertex 30.5 0 1.5
      vertex 35 -80 1.5
    endloop
  endfacet
  facet normal 0 0 1
    outer loop
      vertex 35 80 1.5
      vertex 30.4786 0.326315 1.5
      vertex 30.5 0 1.5
    endloop
  endfacet
  facet normal 0 0 1
    outer loop
      vertex 35 80 1.5
      vertex 30.4148 0.647047 1.5
      vertex 30.4786 0.326315 1.5
    endloop
  endfacet
  facet normal 0 0 1
    outer loop
      vertex 35 80 1.5
      vertex 30.3097 0.956708 1.5
      vertex 30.4148 0.647047 1.5
    endloop
  endfacet
  facet normal 0 0 1
    outer loop
      vertex 35 80 1.5
      vertex 30.1651 1.25 1.5
      vertex 30.3097 0.956708 1.5
    endloop
  endfacet
  facet normal 0 0 1
    outer loop
      vertex 35 80 1.5
      vertex 29.9834 1.5219 1.5
      vertex 30.1651 1.25 1.5
    endloop
  endfacet
  facet normal 0 0 1
    outer loop
      vertex 35 80 1.5
      vertex 29.7678 1.76777 1.5
      vertex 29.9834 1.5219 1.5
    endloop
  endfacet
  facet normal 0 0 1
    outer loop
      vertex 35 80 1.5
      vertex 29.5219 1.98338 1.5
      vertex 29.7678 1.76777 1.5
    endloop
  endfacet
  facet normal 0 0 1
    outer loop
      vertex 35 80 1.5
      vertex 29.25 2.16506 1.5
      vertex 29.5219 1.98338 1.5
    endloop
  endfacet
  facet normal 0 0 1
    outer loop
      vertex 35 80 1.5
      vertex 28.9567 2.3097 1.5
      vertex 29.25 2.16506 1.5
    endloop
  endfacet
  facet normal 0 0 1
    outer loop
      vertex 35 80 1.5
      vertex 28.647 2.41481 1.5
      vertex 28.9567 2.3097 1.5
    endloop
  endfacet
  facet normal 0 0 1
    outer loop
      vertex 35 80 1.5
      vertex 28.3263 2.47861 1.5
      vertex 28.647 2.41481 1.5
    endloop
  endfacet
  facet normal 0 0 1
    outer loop
      vertex 35 80 1.5
      vertex 28 2.5 1.5
      vertex 28.3263 2.47861 1.5
    endloop
  endfacet
  facet normal 0 0 1
    outer loop
      vertex 35 80 1.5
      vertex 27.6737 2.47861 1.5
      vertex 28 2.5 1.5
    endloop
  endfacet
  facet normal 0 0 1
    outer loop
      vertex 35 80 1.5
      vertex 27.353 2.41481 1.5
      vertex 27.6737 2.47861 1.5
    endloop
  endfacet
  facet normal 0 0 1
    outer loop
      vertex 35 80 1.5
      vertex 27.0433 2.3097 1.5
      vertex 27.353 2.41481 1.5
    endloop
  endfacet
  facet normal 0 0 1
    outer loop
      vertex 35 80 1.5
      vertex 26.75 2.16506 1.5
      vertex 27.0433 2.3097 1.5
    endloop
  endfacet
  facet normal 0 0 1
    outer loop
      vertex -26.75 2.16506 1.5
      vertex 26.75 2.16506 1.5
      vertex 35 80 1.5
    endloop
  endfacet
  facet normal 0 0 1
    outer loop
      vertex 26.75 2.16506 1.5
      vertex -26.75 2.16506 1.5
      vertex 26.4781 1.98338 1.5
    endloop
  endfacet
  facet normal 0 -0 1
    outer loop
      vertex -26.4781 1.98338 1.5
      vertex 26.4781 1.98338 1.5
      vertex -26.75 2.16506 1.5
    endloop
  endfacet
  facet normal 0 0 1
    outer loop
      vertex 26.4781 1.98338 1.5
      vertex -26.4781 1.98338 1.5
      vertex 26.2322 1.76777 1.5
    endloop
  endfacet
  facet normal 0 -0 1
    outer loop
      vertex -26.2322 1.76777 1.5
      vertex 26.2322 1.76777 1.5
      vertex -26.4781 1.98338 1.5
    endloop
  endfacet
  facet normal 0 0 1
    outer loop
      vertex 26.2322 1.76777 1.5
      vertex -26.2322 1.76777 1.5
      vertex 26.0166 1.5219 1.5
    endloop
  endfacet
  facet normal 0 -0 1
    outer loop
      vertex -26.0166 1.5219 1.5
      vertex 26.0166 1.5219 1.5
      vertex -26.2322 1.76777 1.5
    endloop
  endfacet
  facet normal 0 0 1
    outer loop
      vertex 25.5214 0.326315 1.5
      vertex -25.5 0 1.5
      vertex 25.5 0 1.5
    endloop
  endfacet
  facet normal 0 -0 1
    outer loop
      vertex -25.8349 1.25 1.5
      vertex 25.8349 1.25 1.5
      vertex -26.0166 1.5219 1.5
    endloop
  endfacet
  facet normal 0 0 1
    outer loop
      vertex 25.5214 0.326315 1.5
      vertex -25.5214 0.326315 1.5
      vertex -25.5 0 1.5
    endloop
  endfacet
  facet normal 0 0 1
    outer loop
      vertex 25.5214 0.326315 1.5
      vertex -25.5852 0.647047 1.5
      vertex -25.5214 0.326315 1.5
    endloop
  endfacet
  facet normal 0 0 1
    outer loop
      vertex 25.5852 0.647047 1.5
      vertex -25.5852 0.647047 1.5
      vertex 25.5214 0.326315 1.5
    endloop
  endfacet
  facet normal 0 -0 1
    outer loop
      vertex -25.5852 0.647047 1.5
      vertex 25.5852 0.647047 1.5
      vertex -25.6903 0.956708 1.5
    endloop
  endfacet
  facet normal 0 0 1
    outer loop
      vertex 25.6903 0.956708 1.5
      vertex -25.6903 0.956708 1.5
      vertex 25.5852 0.647047 1.5
    endloop
  endfacet
  facet normal 0 -0 1
    outer loop
      vertex -25.6903 0.956708 1.5
      vertex 25.6903 0.956708 1.5
      vertex -25.8349 1.25 1.5
    endloop
  endfacet
  facet normal 0 0 1
    outer loop
      vertex 25.8349 1.25 1.5
      vertex -25.8349 1.25 1.5
      vertex 25.6903 0.956708 1.5
    endloop
  endfacet
  facet normal 0 0 1
    outer loop
      vertex 26.0166 1.5219 1.5
      vertex -26.0166 1.5219 1.5
      vertex 25.8349 1.25 1.5
    endloop
  endfacet
  facet normal -0 0 1
    outer loop
      vertex -35 80 1.5
      vertex -26.75 2.16506 1.5
      vertex 35 80 1.5
    endloop
  endfacet
  facet normal 0 0 1
    outer loop
      vertex -26.75 2.16506 1.5
      vertex -35 80 1.5
      vertex -27.0433 2.3097 1.5
    endloop
  endfacet
  facet normal 0 0 1
    outer loop
      vertex -27.0433 2.3097 1.5
      vertex -35 80 1.5
      vertex -27.353 2.41481 1.5
    endloop
  endfacet
  facet normal 0 0 1
    outer loop
      vertex -27.353 2.41481 1.5
      vertex -35 80 1.5
      vertex -27.6737 2.47861 1.5
    endloop
  endfacet
  facet normal 0 0 1
    outer loop
      vertex -27.6737 2.47861 1.5
      vertex -35 80 1.5
      vertex -28 2.5 1.5
    endloop
  endfacet
  facet normal 0 0 1
    outer loop
      vertex -28 2.5 1.5
      vertex -35 80 1.5
      vertex -28.3263 2.47861 1.5
    endloop
  endfacet
  facet normal 0 0 1
    outer loop
      vertex -28.3263 2.47861 1.5
      vertex -35 80 1.5
      vertex -28.647 2.41481 1.5
    endloop
  endfacet
  facet normal 0 0 1
    outer loop
      vertex -28.647 2.41481 1.5
      vertex -35 80 1.5
      vertex -28.9567 2.3097 1.5
    endloop
  endfacet
  facet normal 0 0 1
    outer loop
      vertex -28.9567 2.3097 1.5
      vertex -35 80 1.5
      vertex -29.25 2.16506 1.5
    endloop
  endfacet
  facet normal 0 0 1
    outer loop
      vertex -29.25 2.16506 1.5
      vertex -35 80 1.5
      vertex -29.5219 1.98338 1.5
    endloop
  endfacet
  facet normal 0 0 1
    outer loop
      vertex -29.5219 1.98338 1.5
      vertex -35 80 1.5
      vertex -29.7678 1.76777 1.5
    endloop
  endfacet
  facet normal 0 0 1
    outer loop
      vertex -30.4786 0.326315 1.5
      vertex -35 80 1.5
      vertex -30.5 0 1.5
    endloop
  endfacet
  facet normal 0 0 1
    outer loop
      vertex -30.4148 0.647047 1.5
      vertex -35 80 1.5
      vertex -30.4786 0.326315 1.5
    endloop
  endfacet
  facet normal 0 0 1
    outer loop
      vertex -30.3097 0.956708 1.5
      vertex -35 80 1.5
      vertex -30.4148 0.647047 1.5
    endloop
  endfacet
  facet normal 0 0 1
    outer loop
      vertex -30.1651 1.25 1.5
      vertex -35 80 1.5
      vertex -30.3097 0.956708 1.5
    endloop
  endfacet
  facet normal 0 0 1
    outer loop
      vertex -29.9834 1.5219 1.5
      vertex -35 80 1.5
      vertex -30.1651 1.25 1.5
    endloop
  endfacet
  facet normal 0 0 1
    outer loop
      vertex -29.7678 1.76777 1.5
      vertex -35 80 1.5
      vertex -29.9834 1.5219 1.5
    endloop
  endfacet
  facet normal -0 0 1
    outer loop
      vertex 30.4786 -0.326315 1.5
      vertex 35 -80 1.5
      vertex 30.5 0 1.5
    endloop
  endfacet
  facet normal -0 0 1
    outer loop
      vertex 30.4148 -0.647047 1.5
      vertex 35 -80 1.5
      vertex 30.4786 -0.326315 1.5
    endloop
  endfacet
  facet normal -0 0 1
    outer loop
      vertex 30.3097 -0.956708 1.5
      vertex 35 -80 1.5
      vertex 30.4148 -0.647047 1.5
    endloop
  endfacet
  facet normal -0 0 1
    outer loop
      vertex 30.1651 -1.25 1.5
      vertex 35 -80 1.5
      vertex 30.3097 -0.956708 1.5
    endloop
  endfacet
  facet normal -0 0 1
    outer loop
      vertex 29.9834 -1.5219 1.5
      vertex 35 -80 1.5
      vertex 30.1651 -1.25 1.5
    endloop
  endfacet
  facet normal -0 0 1
    outer loop
      vertex 29.7678 -1.76777 1.5
      vertex 35 -80 1.5
      vertex 29.9834 -1.5219 1.5
    endloop
  endfacet
  facet normal -0 0 1
    outer loop
      vertex 29.5219 -1.98338 1.5
      vertex 35 -80 1.5
      vertex 29.7678 -1.76777 1.5
    endloop
  endfacet
  facet normal -0 0 1
    outer loop
      vertex 29.25 -2.16506 1.5
      vertex 35 -80 1.5
      vertex 29.5219 -1.98338 1.5
    endloop
  endfacet
  facet normal -0 0 1
    outer loop
      vertex 28.9567 -2.3097 1.5
      vertex 35 -80 1.5
      vertex 29.25 -2.16506 1.5
    endloop
  endfacet
  facet normal -0 0 1
    outer loop
      vertex 28.647 -2.41481 1.5
      vertex 35 -80 1.5
      vertex 28.9567 -2.3097 1.5
    endloop
  endfacet
  facet normal -0 0 1
    outer loop
      vertex 28.3263 -2.47861 1.5
      vertex 35 -80 1.5
      vertex 28.647 -2.41481 1.5
    endloop
  endfacet
  facet normal -0 0 1
    outer loop
      vertex 28 -2.5 1.5
      vertex 35 -80 1.5
      vertex 28.3263 -2.47861 1.5
    endloop
  endfacet
  facet normal 0 0 1
    outer loop
      vertex 27.6737 -2.47861 1.5
      vertex 35 -80 1.5
      vertex 28 -2.5 1.5
    endloop
  endfacet
  facet normal 0 0 1
    outer loop
      vertex 27.353 -2.41481 1.5
      vertex 35 -80 1.5
      vertex 27.6737 -2.47861 1.5
    endloop
  endfacet
  facet normal 0 0 1
    outer loop
      vertex 27.0433 -2.3097 1.5
      vertex 35 -80 1.5
      vertex 27.353 -2.41481 1.5
    endloop
  endfacet
  facet normal 0 0 1
    outer loop
      vertex 26.75 -2.16506 1.5
      vertex 35 -80 1.5
      vertex 27.0433 -2.3097 1.5
    endloop
  endfacet
  facet normal 0 0 1
    outer loop
      vertex -26.75 -2.16506 1.5
      vertex 26.75 -2.16506 1.5
      vertex 26.4781 -1.98338 1.5
    endloop
  endfacet
  facet normal 0 0 1
    outer loop
      vertex -26.4781 -1.98338 1.5
      vertex 26.4781 -1.98338 1.5
      vertex 26.2322 -1.76777 1.5
    endloop
  endfacet
  facet normal 0 0 1
    outer loop
      vertex -26.2322 -1.76777 1.5
      vertex 26.2322 -1.76777 1.5
      vertex 26.0166 -1.5219 1.5
    endloop
  endfacet
  facet normal 0 0 1
    outer loop
      vertex -26.0166 -1.5219 1.5
      vertex 26.0166 -1.5219 1.5
      vertex 25.8349 -1.25 1.5
    endloop
  endfacet
  facet normal 0 0 1
    outer loop
      vertex -25.8349 -1.25 1.5
      vertex 25.8349 -1.25 1.5
      vertex 25.6903 -0.956708 1.5
    endloop
  endfacet
  facet normal 0 0 1
    outer loop
      vertex -25.6903 -0.956708 1.5
      vertex 25.6903 -0.956708 1.5
      vertex 25.5852 -0.647047 1.5
    endloop
  endfacet
  facet normal 0 0 1
    outer loop
      vertex -25.5852 -0.647047 1.5
      vertex 25.5852 -0.647047 1.5
      vertex 25.5214 -0.326315 1.5
    endloop
  endfacet
  facet normal -0 0 1
    outer loop
      vertex -25.5 0 1.5
      vertex 25.5214 -0.326315 1.5
      vertex 25.5 0 1.5
    endloop
  endfacet
  facet normal 0 0 1
    outer loop
      vertex -25.5214 -0.326315 1.5
      vertex 25.5214 -0.326315 1.5
      vertex -25.5 0 1.5
    endloop
  endfacet
  facet normal 0 0 1
    outer loop
      vertex -25.5852 -0.647047 1.5
      vertex 25.5214 -0.326315 1.5
      vertex -25.5214 -0.326315 1.5
    endloop
  endfacet
  facet normal 0 0 1
    outer loop
      vertex 25.5852 -0.647047 1.5
      vertex -25.5852 -0.647047 1.5
      vertex -25.6903 -0.956708 1.5
    endloop
  endfacet
  facet normal 0 0 1
    outer loop
      vertex 25.6903 -0.956708 1.5
      vertex -25.6903 -0.956708 1.5
      vertex -25.8349 -1.25 1.5
    endloop
  endfacet
  facet normal 0 0 1
    outer loop
      vertex 25.8349 -1.25 1.5
      vertex -25.8349 -1.25 1.5
      vertex -26.0166 -1.5219 1.5
    endloop
  endfacet
  facet normal 0 0 1
    outer loop
      vertex 26.0166 -1.5219 1.5
      vertex -26.0166 -1.5219 1.5
      vertex -26.2322 -1.76777 1.5
    endloop
  endfacet
  facet normal 0 0 1
    outer loop
      vertex 26.2322 -1.76777 1.5
      vertex -26.2322 -1.76777 1.5
      vertex -26.4781 -1.98338 1.5
    endloop
  endfacet
  facet normal 0 0 1
    outer loop
      vertex 26.4781 -1.98338 1.5
      vertex -26.4781 -1.98338 1.5
      vertex -26.75 -2.16506 1.5
    endloop
  endfacet
  facet normal 0 0 1
    outer loop
      vertex 26.75 -2.16506 1.5
      vertex -26.75 -2.16506 1.5
      vertex 35 -80 1.5
    endloop
  endfacet
  facet normal 0 0 1
    outer loop
      vertex -35 -80 1.5
      vertex -26.75 -2.16506 1.5
      vertex -27.0433 -2.3097 1.5
    endloop
  endfacet
  facet normal 0 0 1
    outer loop
      vertex -35 -80 1.5
      vertex -27.0433 -2.3097 1.5
      vertex -27.353 -2.41481 1.5
    endloop
  endfacet
  facet normal 0 0 1
    outer loop
      vertex -35 -80 1.5
      vertex -27.353 -2.41481 1.5
      vertex -27.6737 -2.47861 1.5
    endloop
  endfacet
  facet normal 0 0 1
    outer loop
      vertex -35 -80 1.5
      vertex -27.6737 -2.47861 1.5
      vertex -28 -2.5 1.5
    endloop
  endfacet
  facet normal 0 0 1
    outer loop
      vertex -35 -80 1.5
      vertex -28 -2.5 1.5
      vertex -28.3263 -2.47861 1.5
    endloop
  endfacet
  facet normal 0 0 1
    outer loop
      vertex -35 -80 1.5
      vertex -28.3263 -2.47861 1.5
      vertex -28.647 -2.41481 1.5
    endloop
  endfacet
  facet normal 0 0 1
    outer loop
      vertex -35 -80 1.5
      vertex -28.647 -2.41481 1.5
      vertex -28.9567 -2.3097 1.5
    endloop
  endfacet
  facet normal 0 0 1
    outer loop
      vertex -35 -80 1.5
      vertex -28.9567 -2.3097 1.5
      vertex -29.25 -2.16506 1.5
    endloop
  endfacet
  facet normal 0 0 1
    outer loop
      vertex -35 -80 1.5
      vertex -29.25 -2.16506 1.5
      vertex -29.5219 -1.98338 1.5
    endloop
  endfacet
  facet normal 0 0 1
    outer loop
      vertex -35 -80 1.5
      vertex -29.5219 -1.98338 1.5
      vertex -29.7678 -1.76777 1.5
    endloop
  endfacet
  facet normal 0 0 1
    outer loop
      vertex -35 -80 1.5
      vertex -29.7678 -1.76777 1.5
      vertex -29.9834 -1.5219 1.5
    endloop
  endfacet
  facet normal 0 0 1
    outer loop
      vertex -26.75 -2.16506 1.5
      vertex -35 -80 1.5
      vertex 35 -80 1.5
    endloop
  endfacet
  facet normal 0 0 1
    outer loop
      vertex -30.1651 -1.25 1.5
      vertex -35 -80 1.5
      vertex -29.9834 -1.5219 1.5
    endloop
  endfacet
  facet normal 0 0 1
    outer loop
      vertex -30.3097 -0.956708 1.5
      vertex -35 -80 1.5
      vertex -30.1651 -1.25 1.5
    endloop
  endfacet
  facet normal 0 0 1
    outer loop
      vertex -30.4148 -0.647047 1.5
      vertex -35 -80 1.5
      vertex -30.3097 -0.956708 1.5
    endloop
  endfacet
  facet normal 0 0 1
    outer loop
      vertex -30.4786 -0.326315 1.5
      vertex -35 -80 1.5
      vertex -30.4148 -0.647047 1.5
    endloop
  endfacet
  facet normal 0 0 1
    outer loop
      vertex -30.5 0 1.5
      vertex -35 -80 1.5
      vertex -30.4786 -0.326315 1.5
    endloop
  endfacet
  facet normal 0 0 1
    outer loop
      vertex -35 -80 1.5
      vertex -30.5 0 1.5
      vertex -35 80 1.5
    endloop
  endfacet
  facet normal 0 0 -1
    outer loop
      vertex 35 -80 -1.5
      vertex 30.5 0 -1.5
      vertex 35 80 -1.5
    endloop
  endfacet
  facet normal 0 0 -1
    outer loop
      vertex 35 -80 -1.5
      vertex 30.4786 -0.326315 -1.5
      vertex 30.5 0 -1.5
    endloop
  endfacet
  facet normal 0 0 -1
    outer loop
      vertex 35 -80 -1.5
      vertex 30.4148 -0.647047 -1.5
      vertex 30.4786 -0.326315 -1.5
    endloop
  endfacet
  facet normal 0 0 -1
    outer loop
      vertex 35 -80 -1.5
      vertex 30.3097 -0.956708 -1.5
      vertex 30.4148 -0.647047 -1.5
    endloop
  endfacet
  facet normal 0 0 -1
    outer loop
      vertex 35 -80 -1.5
      vertex 30.1651 -1.25 -1.5
      vertex 30.3097 -0.956708 -1.5
    endloop
  endfacet
  facet normal 0 0 -1
    outer loop
      vertex 35 -80 -1.5
      vertex 29.9834 -1.5219 -1.5
      vertex 30.1651 -1.25 -1.5
    endloop
  endfacet
  facet normal 0 0 -1
    outer loop
      vertex 35 -80 -1.5
      vertex 29.7678 -1.76777 -1.5
      vertex 29.9834 -1.5219 -1.5
    endloop
  endfacet
  facet normal 0 0 -1
    outer loop
      vertex 35 -80 -1.5
      vertex 29.5219 -1.98338 -1.5
      vertex 29.7678 -1.76777 -1.5
    endloop
  endfacet
  facet normal 0 0 -1
    outer loop
      vertex 35 -80 -1.5
      vertex 29.25 -2.16506 -1.5
      vertex 29.5219 -1.98338 -1.5
    endloop
  endfacet
  facet normal 0 0 -1
    outer loop
      vertex 35 -80 -1.5
      vertex 28.9567 -2.3097 -1.5
      vertex 29.25 -2.16506 -1.5
    endloop
  endfacet
  facet normal 0 0 -1
    outer loop
      vertex 35 -80 -1.5
      vertex 28.647 -2.41481 -1.5
      vertex 28.9567 -2.3097 -1.5
    endloop
  endfacet
  facet normal 0 0 -1
    outer loop
      vertex 35 -80 -1.5
      vertex 28.3263 -2.47861 -1.5
      vertex 28.647 -2.41481 -1.5
    endloop
  endfacet
  facet normal 0 0 -1
    outer loop
      vertex 35 -80 -1.5
      vertex 28 -2.5 -1.5
      vertex 28.3263 -2.47861 -1.5
    endloop
  endfacet
  facet normal 0 0 -1
    outer loop
      vertex 35 -80 -1.5
      vertex 27.6737 -2.47861 -1.5
      vertex 28 -2.5 -1.5
    endloop
  endfacet
  facet normal 0 0 -1
    outer loop
      vertex 35 -80 -1.5
      vertex 27.353 -2.41481 -1.5
      vertex 27.6737 -2.47861 -1.5
    endloop
  endfacet
  facet normal 0 0 -1
    outer loop
      vertex 35 -80 -1.5
      vertex 27.0433 -2.3097 -1.5
      vertex 27.353 -2.41481 -1.5
    endloop
  endfacet
  facet normal 0 0 -1
    outer loop
      vertex 35 -80 -1.5
      vertex 26.75 -2.16506 -1.5
      vertex 27.0433 -2.3097 -1.5
    endloop
  endfacet
  facet normal 0 0 -1
    outer loop
      vertex -26.75 -2.16506 -1.5
      vertex 26.75 -2.16506 -1.5
      vertex 35 -80 -1.5
    endloop
  endfacet
  facet normal 0 0 -1
    outer loop
      vertex 26.75 -2.16506 -1.5
      vertex -26.75 -2.16506 -1.5
      vertex 26.4781 -1.98338 -1.5
    endloop
  endfacet
  facet normal 0 -0 -1
    outer loop
      vertex -26.4781 -1.98338 -1.5
      vertex 26.4781 -1.98338 -1.5
      vertex -26.75 -2.16506 -1.5
    endloop
  endfacet
  facet normal 0 0 -1
    outer loop
      vertex 26.4781 -1.98338 -1.5
      vertex -26.4781 -1.98338 -1.5
      vertex 26.2322 -1.76777 -1.5
    endloop
  endfacet
  facet normal 0 -0 -1
    outer loop
      vertex -26.2322 -1.76777 -1.5
      vertex 26.2322 -1.76777 -1.5
      vertex -26.4781 -1.98338 -1.5
    endloop
  endfacet
  facet normal 0 0 -1
    outer loop
      vertex 26.2322 -1.76777 -1.5
      vertex -26.2322 -1.76777 -1.5
      vertex 26.0166 -1.5219 -1.5
    endloop
  endfacet
  facet normal 0 -0 -1
    outer loop
      vertex -26.0166 -1.5219 -1.5
      vertex 26.0166 -1.5219 -1.5
      vertex -26.2322 -1.76777 -1.5
    endloop
  endfacet
  facet normal 0 0 -1
    outer loop
      vertex 25.5214 -0.326315 -1.5
      vertex -25.5 0 -1.5
      vertex 25.5 0 -1.5
    endloop
  endfacet
  facet normal 0 -0 -1
    outer loop
      vertex -25.8349 -1.25 -1.5
      vertex 25.8349 -1.25 -1.5
      vertex -26.0166 -1.5219 -1.5
    endloop
  endfacet
  facet normal 0 0 -1
    outer loop
      vertex 25.5214 -0.326315 -1.5
      vertex -25.5214 -0.326315 -1.5
      vertex -25.5 0 -1.5
    endloop
  endfacet
  facet normal -0 0 -1
    outer loop
      vertex 25.5214 -0.326315 -1.5
      vertex -25.5852 -0.647047 -1.5
      vertex -25.5214 -0.326315 -1.5
    endloop
  endfacet
  facet normal 0 0 -1
    outer loop
      vertex 25.5852 -0.647047 -1.5
      vertex -25.5852 -0.647047 -1.5
      vertex 25.5214 -0.326315 -1.5
    endloop
  endfacet
  facet normal 0 -0 -1
    outer loop
      vertex -25.5852 -0.647047 -1.5
      vertex 25.5852 -0.647047 -1.5
      vertex -25.6903 -0.956708 -1.5
    endloop
  endfacet
  facet normal 0 0 -1
    outer loop
      vertex 25.6903 -0.956708 -1.5
      vertex -25.6903 -0.956708 -1.5
      vertex 25.5852 -0.647047 -1.5
    endloop
  endfacet
  facet normal 0 -0 -1
    outer loop
      vertex -25.6903 -0.956708 -1.5
      vertex 25.6903 -0.956708 -1.5
      vertex -25.8349 -1.25 -1.5
    endloop
  endfacet
  facet normal 0 0 -1
    outer loop
      vertex 25.8349 -1.25 -1.5
      vertex -25.8349 -1.25 -1.5
      vertex 25.6903 -0.956708 -1.5
    endloop
  endfacet
  facet normal 0 0 -1
    outer loop
      vertex 26.0166 -1.5219 -1.5
      vertex -26.0166 -1.5219 -1.5
      vertex 25.8349 -1.25 -1.5
    endloop
  endfacet
  facet normal 0 0 -1
    outer loop
      vertex -35 -80 -1.5
      vertex -26.75 -2.16506 -1.5
      vertex 35 -80 -1.5
    endloop
  endfacet
  facet normal 0 0 -1
    outer loop
      vertex -26.75 -2.16506 -1.5
      vertex -35 -80 -1.5
      vertex -27.0433 -2.3097 -1.5
    endloop
  endfacet
  facet normal 0 0 -1
    outer loop
      vertex -27.0433 -2.3097 -1.5
      vertex -35 -80 -1.5
      vertex -27.353 -2.41481 -1.5
    endloop
  endfacet
  facet normal 0 0 -1
    outer loop
      vertex -27.353 -2.41481 -1.5
      vertex -35 -80 -1.5
      vertex -27.6737 -2.47861 -1.5
    endloop
  endfacet
  facet normal 0 0 -1
    outer loop
      vertex -27.6737 -2.47861 -1.5
      vertex -35 -80 -1.5
      vertex -28 -2.5 -1.5
    endloop
  endfacet
  facet normal -0 0 -1
    outer loop
      vertex -28 -2.5 -1.5
      vertex -35 -80 -1.5
      vertex -28.3263 -2.47861 -1.5
    endloop
  endfacet
  facet normal -0 0 -1
    outer loop
      vertex -28.3263 -2.47861 -1.5
      vertex -35 -80 -1.5
      vertex -28.647 -2.41481 -1.5
    endloop
  endfacet
  facet normal -0 0 -1
    outer loop
      vertex -28.647 -2.41481 -1.5
      vertex -35 -80 -1.5
      vertex -28.9567 -2.3097 -1.5
    endloop
  endfacet
  facet normal -0 0 -1
    outer loop
      vertex -28.9567 -2.3097 -1.5
      vertex -35 -80 -1.5
      vertex -29.25 -2.16506 -1.5
    endloop
  endfacet
  facet normal -0 0 -1
    outer loop
      vertex -29.25 -2.16506 -1.5
      vertex -35 -80 -1.5
      vertex -29.5219 -1.98338 -1.5
    endloop
  endfacet
  facet normal -0 0 -1
    outer loop
      vertex -29.5219 -1.98338 -1.5
      vertex -35 -80 -1.5
      vertex -29.7678 -1.76777 -1.5
    endloop
  endfacet
  facet normal -0 0 -1
    outer loop
      vertex -30.4786 -0.326315 -1.5
      vertex -35 -80 -1.5
      vertex -30.5 0 -1.5
    endloop
  endfacet
  facet normal -0 0 -1
    outer loop
      vertex -30.4148 -0.647047 -1.5
      vertex -35 -80 -1.5
      vertex -30.4786 -0.326315 -1.5
    endloop
  endfacet
  facet normal -0 0 -1
    outer loop
      vertex -30.3097 -0.956708 -1.5
      vertex -35 -80 -1.5
      vertex -30.4148 -0.647047 -1.5
    endloop
  endfacet
  facet normal -0 0 -1
    outer loop
      vertex -30.1651 -1.25 -1.5
      vertex -35 -80 -1.5
      vertex -30.3097 -0.956708 -1.5
    endloop
  endfacet
  facet normal -0 0 -1
    outer loop
      vertex -29.9834 -1.5219 -1.5
      vertex -35 -80 -1.5
      vertex -30.1651 -1.25 -1.5
    endloop
  endfacet
  facet normal -0 0 -1
    outer loop
      vertex -29.7678 -1.76777 -1.5
      vertex -35 -80 -1.5
      vertex -29.9834 -1.5219 -1.5
    endloop
  endfacet
  facet normal 0 0 -1
    outer loop
      vertex 30.4786 0.326315 -1.5
      vertex 35 80 -1.5
      vertex 30.5 0 -1.5
    endloop
  endfacet
  facet normal 0 0 -1
    outer loop
      vertex 30.4148 0.647047 -1.5
      vertex 35 80 -1.5
      vertex 30.4786 0.326315 -1.5
    endloop
  endfacet
  facet normal 0 0 -1
    outer loop
      vertex 30.3097 0.956708 -1.5
      vertex 35 80 -1.5
      vertex 30.4148 0.647047 -1.5
    endloop
  endfacet
  facet normal 0 0 -1
    outer loop
      vertex 30.1651 1.25 -1.5
      vertex 35 80 -1.5
      vertex 30.3097 0.956708 -1.5
    endloop
  endfacet
  facet normal 0 0 -1
    outer loop
      vertex 29.9834 1.5219 -1.5
      vertex 35 80 -1.5
      vertex 30.1651 1.25 -1.5
    endloop
  endfacet
  facet normal 0 0 -1
    outer loop
      vertex 29.7678 1.76777 -1.5
      vertex 35 80 -1.5
      vertex 29.9834 1.5219 -1.5
    endloop
  endfacet
  facet normal 0 0 -1
    outer loop
      vertex 29.5219 1.98338 -1.5
      vertex 35 80 -1.5
      vertex 29.7678 1.76777 -1.5
    endloop
  endfacet
  facet normal 0 0 -1
    outer loop
      vertex 29.25 2.16506 -1.5
      vertex 35 80 -1.5
      vertex 29.5219 1.98338 -1.5
    endloop
  endfacet
  facet normal 0 0 -1
    outer loop
      vertex 28.9567 2.3097 -1.5
      vertex 35 80 -1.5
      vertex 29.25 2.16506 -1.5
    endloop
  endfacet
  facet normal 0 0 -1
    outer loop
      vertex 28.647 2.41481 -1.5
      vertex 35 80 -1.5
      vertex 28.9567 2.3097 -1.5
    endloop
  endfacet
  facet normal 0 0 -1
    outer loop
      vertex 28.3263 2.47861 -1.5
      vertex 35 80 -1.5
      vertex 28.647 2.41481 -1.5
    endloop
  endfacet
  facet normal 0 0 -1
    outer loop
      vertex 28 2.5 -1.5
      vertex 35 80 -1.5
      vertex 28.3263 2.47861 -1.5
    endloop
  endfacet
  facet normal 0 0 -1
    outer loop
      vertex 27.6737 2.47861 -1.5
      vertex 35 80 -1.5
      vertex 28 2.5 -1.5
    endloop
  endfacet
  facet normal 0 0 -1
    outer loop
      vertex 27.353 2.41481 -1.5
      vertex 35 80 -1.5
      vertex 27.6737 2.47861 -1.5
    endloop
  endfacet
  facet normal 0 0 -1
    outer loop
      vertex 27.0433 2.3097 -1.5
      vertex 35 80 -1.5
      vertex 27.353 2.41481 -1.5
    endloop
  endfacet
  facet normal 0 0 -1
    outer loop
      vertex 26.75 2.16506 -1.5
      vertex 35 80 -1.5
      vertex 27.0433 2.3097 -1.5
    endloop
  endfacet
  facet normal 0 0 -1
    outer loop
      vertex -26.75 2.16506 -1.5
      vertex 26.75 2.16506 -1.5
      vertex 26.4781 1.98338 -1.5
    endloop
  endfacet
  facet normal 0 0 -1
    outer loop
      vertex -26.4781 1.98338 -1.5
      vertex 26.4781 1.98338 -1.5
      vertex 26.2322 1.76777 -1.5
    endloop
  endfacet
  facet normal 0 0 -1
    outer loop
      vertex -26.2322 1.76777 -1.5
      vertex 26.2322 1.76777 -1.5
      vertex 26.0166 1.5219 -1.5
    endloop
  endfacet
  facet normal 0 0 -1
    outer loop
      vertex -26.0166 1.5219 -1.5
      vertex 26.0166 1.5219 -1.5
      vertex 25.8349 1.25 -1.5
    endloop
  endfacet
  facet normal 0 0 -1
    outer loop
      vertex -25.8349 1.25 -1.5
      vertex 25.8349 1.25 -1.5
      vertex 25.6903 0.956708 -1.5
    endloop
  endfacet
  facet normal 0 0 -1
    outer loop
      vertex -25.6903 0.956708 -1.5
      vertex 25.6903 0.956708 -1.5
      vertex 25.5852 0.647047 -1.5
    endloop
  endfacet
  facet normal 0 0 -1
    outer loop
      vertex -25.5852 0.647047 -1.5
      vertex 25.5852 0.647047 -1.5
      vertex 25.5214 0.326315 -1.5
    endloop
  endfacet
  facet normal 0 0 -1
    outer loop
      vertex -25.5 0 -1.5
      vertex 25.5214 0.326315 -1.5
      vertex 25.5 0 -1.5
    endloop
  endfacet
  facet normal 0 0 -1
    outer loop
      vertex -25.5214 0.326315 -1.5
      vertex 25.5214 0.326315 -1.5
      vertex -25.5 0 -1.5
    endloop
  endfacet
  facet normal 0 0 -1
    outer loop
      vertex -25.5852 0.647047 -1.5
      vertex 25.5214 0.326315 -1.5
      vertex -25.5214 0.326315 -1.5
    endloop
  endfacet
  facet normal 0 0 -1
    outer loop
      vertex 25.5852 0.647047 -1.5
      vertex -25.5852 0.647047 -1.5
      vertex -25.6903 0.956708 -1.5
    endloop
  endfacet
  facet normal 0 0 -1
    outer loop
      vertex 25.6903 0.956708 -1.5
      vertex -25.6903 0.956708 -1.5
      vertex -25.8349 1.25 -1.5
    endloop
  endfacet
  facet normal 0 0 -1
    outer loop
      vertex 25.8349 1.25 -1.5
      vertex -25.8349 1.25 -1.5
      vertex -26.0166 1.5219 -1.5
    endloop
  endfacet
  facet normal 0 0 -1
    outer loop
      vertex 26.0166 1.5219 -1.5
      vertex -26.0166 1.5219 -1.5
      vertex -26.2322 1.76777 -1.5
    endloop
  endfacet
  facet normal 0 0 -1
    outer loop
      vertex 26.2322 1.76777 -1.5
      vertex -26.2322 1.76777 -1.5
      vertex -26.4781 1.98338 -1.5
    endloop
  endfacet
  facet normal 0 0 -1
    outer loop
      vertex 26.4781 1.98338 -1.5
      vertex -26.4781 1.98338 -1.5
      vertex -26.75 2.16506 -1.5
    endloop
  endfacet
  facet normal 0 0 -1
    outer loop
      vertex 26.75 2.16506 -1.5
      vertex -26.75 2.16506 -1.5
      vertex 35 80 -1.5
    endloop
  endfacet
  facet normal 0 0 -1
    outer loop
      vertex -35 80 -1.5
      vertex -26.75 2.16506 -1.5
      vertex -27.0433 2.3097 -1.5
    endloop
  endfacet
  facet normal 0 0 -1
    outer loop
      vertex -35 80 -1.5
      vertex -27.0433 2.3097 -1.5
      vertex -27.353 2.41481 -1.5
    endloop
  endfacet
  facet normal 0 0 -1
    outer loop
      vertex -35 80 -1.5
      vertex -27.353 2.41481 -1.5
      vertex -27.6737 2.47861 -1.5
    endloop
  endfacet
  facet normal 0 0 -1
    outer loop
      vertex -35 80 -1.5
      vertex -27.6737 2.47861 -1.5
      vertex -28 2.5 -1.5
    endloop
  endfacet
  facet normal 0 0 -1
    outer loop
      vertex -35 80 -1.5
      vertex -28 2.5 -1.5
      vertex -28.3263 2.47861 -1.5
    endloop
  endfacet
  facet normal 0 0 -1
    outer loop
      vertex -35 80 -1.5
      vertex -28.3263 2.47861 -1.5
      vertex -28.647 2.41481 -1.5
    endloop
  endfacet
  facet normal 0 0 -1
    outer loop
      vertex -35 80 -1.5
      vertex -28.647 2.41481 -1.5
      vertex -28.9567 2.3097 -1.5
    endloop
  endfacet
  facet normal 0 0 -1
    outer loop
      vertex -35 80 -1.5
      vertex -28.9567 2.3097 -1.5
      vertex -29.25 2.16506 -1.5
    endloop
  endfacet
  facet normal 0 0 -1
    outer loop
      vertex -35 80 -1.5
      vertex -29.25 2.16506 -1.5
      vertex -29.5219 1.98338 -1.5
    endloop
  endfacet
  facet normal 0 0 -1
    outer loop
      vertex -35 80 -1.5
      vertex -29.5219 1.98338 -1.5
      vertex -29.7678 1.76777 -1.5
    endloop
  endfacet
  facet normal 0 0 -1
    outer loop
      vertex -35 80 -1.5
      vertex -29.7678 1.76777 -1.5
      vertex -29.9834 1.5219 -1.5
    endloop
  endfacet
  facet normal 0 0 -1
    outer loop
      vertex -26.75 2.16506 -1.5
      vertex -35 80 -1.5
      vertex 35 80 -1.5
    endloop
  endfacet
  facet normal 0 0 -1
    outer loop
      vertex -30.1651 1.25 -1.5
      vertex -35 80 -1.5
      vertex -29.9834 1.5219 -1.5
    endloop
  endfacet
  facet normal 0 0 -1
    outer loop
      vertex -30.3097 0.956708 -1.5
      vertex -35 80 -1.5
      vertex -30.1651 1.25 -1.5
    endloop
  endfacet
  facet normal 0 0 -1
    outer loop
      vertex -30.4148 0.647047 -1.5
      vertex -35 80 -1.5
      vertex -30.3097 0.956708 -1.5
    endloop
  endfacet
  facet normal 0 0 -1
    outer loop
      vertex -30.4786 0.326315 -1.5
      vertex -35 80 -1.5
      vertex -30.4148 0.647047 -1.5
    endloop
  endfacet
  facet normal 0 0 -1
    outer loop
      vertex -30.5 0 -1.5
      vertex -35 80 -1.5
      vertex -30.4786 0.326315 -1.5
    endloop
  endfacet
  facet normal 0 0 -1
    outer loop
      vertex -35 80 -1.5
      vertex -30.5 0 -1.5
      vertex -35 -80 -1.5
    endloop
  endfacet
  facet normal -1 0 0
    outer loop
      vertex -35 -80 -1.5
      vertex -35 80 1.5
      vertex -35 80 -1.5
    endloop
  endfacet
  facet normal -1 -0 0
    outer loop
      vertex -35 80 1.5
      vertex -35 -80 -1.5
      vertex -35 -80 1.5
    endloop
  endfacet
  facet normal 0 1 -0
    outer loop
      vertex 35 80 -1.5
      vertex -35 80 1.5
      vertex 35 80 1.5
    endloop
  endfacet
  facet normal 0 1 0
    outer loop
      vertex -35 80 1.5
      vertex 35 80 -1.5
      vertex -35 80 -1.5
    endloop
  endfacet
  facet normal 0 -1 0
    outer loop
      vertex -35 -80 -1.5
      vertex 35 -80 1.5
      vertex -35 -80 1.5
    endloop
  endfacet
  facet normal 0 -1 -0
    outer loop
      vertex 35 -80 1.5
      vertex -35 -80 -1.5
      vertex 35 -80 -1.5
    endloop
  endfacet
  facet normal -0.44229 0.896872 0
    outer loop
      vertex -26.75 -2.16506 -1.5
      vertex -27.0433 -2.3097 1.5
      vertex -26.75 -2.16506 1.5
    endloop
  endfacet
  facet normal -0.44229 0.896872 0
    outer loop
      vertex -27.0433 -2.3097 1.5
      vertex -26.75 -2.16506 -1.5
      vertex -27.0433 -2.3097 -1.5
    endloop
  endfacet
  facet normal -0.0654128 0.997858 0
    outer loop
      vertex -27.6737 -2.47861 -1.5
      vertex -28 -2.5 1.5
      vertex -27.6737 -2.47861 1.5
    endloop
  endfacet
  facet normal -0.0654128 0.997858 0
    outer loop
      vertex -28 -2.5 1.5
      vertex -27.6737 -2.47861 -1.5
      vertex -28 -2.5 -1.5
    endloop
  endfacet
  facet normal -0.980784 -0.195097 0
    outer loop
      vertex -25.5214 0.326315 -1.5
      vertex -25.5852 0.647047 1.5
      vertex -25.5852 0.647047 -1.5
    endloop
  endfacet
  facet normal -0.980784 -0.195097 0
    outer loop
      vertex -25.5852 0.647047 1.5
      vertex -25.5214 0.326315 -1.5
      vertex -25.5214 0.326315 1.5
    endloop
  endfacet
  facet normal -0.997856 -0.0654402 0
    outer loop
      vertex -25.5 0 -1.5
      vertex -25.5214 0.326315 1.5
      vertex -25.5214 0.326315 -1.5
    endloop
  endfacet
  facet normal -0.997856 -0.0654402 0
    outer loop
      vertex -25.5214 0.326315 1.5
      vertex -25.5 0 -1.5
      vertex -25.5 0 1.5
    endloop
  endfacet
  facet normal 0.555575 -0.831466 0
    outer loop
      vertex -29.5219 1.98338 -1.5
      vertex -29.25 2.16506 1.5
      vertex -29.5219 1.98338 1.5
    endloop
  endfacet
  facet normal 0.555575 -0.831466 0
    outer loop
      vertex -29.25 2.16506 1.5
      vertex -29.5219 1.98338 -1.5
      vertex -29.25 2.16506 -1.5
    endloop
  endfacet
  facet normal -0.831438 -0.555617 0
    outer loop
      vertex -25.8349 1.25 -1.5
      vertex -26.0166 1.5219 1.5
      vertex -26.0166 1.5219 -1.5
    endloop
  endfacet
  facet normal -0.831438 -0.555617 0
    outer loop
      vertex -26.0166 1.5219 1.5
      vertex -25.8349 1.25 -1.5
      vertex -25.8349 1.25 1.5
    endloop
  endfacet
  facet normal -0.980784 0.195097 0
    outer loop
      vertex -25.5852 -0.647047 -1.5
      vertex -25.5214 -0.326315 1.5
      vertex -25.5214 -0.326315 -1.5
    endloop
  endfacet
  facet normal -0.980784 0.195097 0
    outer loop
      vertex -25.5214 -0.326315 1.5
      vertex -25.5852 -0.647047 -1.5
      vertex -25.5852 -0.647047 1.5
    endloop
  endfacet
  facet normal -0.896916 -0.442201 0
    outer loop
      vertex -25.6903 0.956708 -1.5
      vertex -25.8349 1.25 1.5
      vertex -25.8349 1.25 -1.5
    endloop
  endfacet
  facet normal -0.896916 -0.442201 0
    outer loop
      vertex -25.8349 1.25 1.5
      vertex -25.6903 0.956708 -1.5
      vertex -25.6903 0.956708 1.5
    endloop
  endfacet
  facet normal -0.751873 -0.659307 0
    outer loop
      vertex -26.0166 1.5219 -1.5
      vertex -26.2322 1.76777 1.5
      vertex -26.2322 1.76777 -1.5
    endloop
  endfacet
  facet normal -0.751873 -0.659307 0
    outer loop
      vertex -26.2322 1.76777 1.5
      vertex -26.0166 1.5219 -1.5
      vertex -26.0166 1.5219 1.5
    endloop
  endfacet
  facet normal 0.321387 -0.946948 0
    outer loop
      vertex -28.9567 2.3097 -1.5
      vertex -28.647 2.41481 1.5
      vertex -28.9567 2.3097 1.5
    endloop
  endfacet
  facet normal 0.321387 -0.946948 0
    outer loop
      vertex -28.647 2.41481 1.5
      vertex -28.9567 2.3097 -1.5
      vertex -28.647 2.41481 -1.5
    endloop
  endfacet
  facet normal 0.946945 -0.321396 0
    outer loop
      vertex -30.4148 0.647047 1.5
      vertex -30.3097 0.956708 -1.5
      vertex -30.3097 0.956708 1.5
    endloop
  endfacet
  facet normal 0.946945 -0.321396 0
    outer loop
      vertex -30.3097 0.956708 -1.5
      vertex -30.4148 0.647047 1.5
      vertex -30.4148 0.647047 -1.5
    endloop
  endfacet
  facet normal -0.896916 0.442201 0
    outer loop
      vertex -25.8349 -1.25 -1.5
      vertex -25.6903 -0.956708 1.5
      vertex -25.6903 -0.956708 -1.5
    endloop
  endfacet
  facet normal -0.896916 0.442201 0
    outer loop
      vertex -25.6903 -0.956708 1.5
      vertex -25.8349 -1.25 -1.5
      vertex -25.8349 -1.25 1.5
    endloop
  endfacet
  facet normal 0.555575 0.831466 -0
    outer loop
      vertex -29.25 -2.16506 -1.5
      vertex -29.5219 -1.98338 1.5
      vertex -29.25 -2.16506 1.5
    endloop
  endfacet
  facet normal 0.555575 0.831466 0
    outer loop
      vertex -29.5219 -1.98338 1.5
      vertex -29.25 -2.16506 -1.5
      vertex -29.5219 -1.98338 -1.5
    endloop
  endfacet
  facet normal -0.0654128 -0.997858 0
    outer loop
      vertex -28 2.5 -1.5
      vertex -27.6737 2.47861 1.5
      vertex -28 2.5 1.5
    endloop
  endfacet
  facet normal -0.0654128 -0.997858 -0
    outer loop
      vertex -27.6737 2.47861 1.5
      vertex -28 2.5 -1.5
      vertex -27.6737 2.47861 -1.5
    endloop
  endfacet
  facet normal 0.321387 0.946948 -0
    outer loop
      vertex -28.647 -2.41481 -1.5
      vertex -28.9567 -2.3097 1.5
      vertex -28.647 -2.41481 1.5
    endloop
  endfacet
  facet normal 0.321387 0.946948 0
    outer loop
      vertex -28.9567 -2.3097 1.5
      vertex -28.647 -2.41481 -1.5
      vertex -28.9567 -2.3097 -1.5
    endloop
  endfacet
  facet normal -0.321387 -0.946948 0
    outer loop
      vertex -27.353 2.41481 -1.5
      vertex -27.0433 2.3097 1.5
      vertex -27.353 2.41481 1.5
    endloop
  endfacet
  facet normal -0.321387 -0.946948 -0
    outer loop
      vertex -27.0433 2.3097 1.5
      vertex -27.353 2.41481 -1.5
      vertex -27.0433 2.3097 -1.5
    endloop
  endfacet
  facet normal -0.44229 -0.896872 0
    outer loop
      vertex -27.0433 2.3097 -1.5
      vertex -26.75 2.16506 1.5
      vertex -27.0433 2.3097 1.5
    endloop
  endfacet
  facet normal -0.44229 -0.896872 -0
    outer loop
      vertex -26.75 2.16506 1.5
      vertex -27.0433 2.3097 -1.5
      vertex -26.75 2.16506 -1.5
    endloop
  endfacet
  facet normal -0.751873 0.659307 0
    outer loop
      vertex -26.2322 -1.76777 -1.5
      vertex -26.0166 -1.5219 1.5
      vertex -26.0166 -1.5219 -1.5
    endloop
  endfacet
  facet normal -0.751873 0.659307 0
    outer loop
      vertex -26.0166 -1.5219 1.5
      vertex -26.2322 -1.76777 -1.5
      vertex -26.2322 -1.76777 1.5
    endloop
  endfacet
  facet normal 0.659279 -0.751898 0
    outer loop
      vertex -29.7678 1.76777 -1.5
      vertex -29.5219 1.98338 1.5
      vertex -29.7678 1.76777 1.5
    endloop
  endfacet
  facet normal 0.659279 -0.751898 0
    outer loop
      vertex -29.5219 1.98338 1.5
      vertex -29.7678 1.76777 -1.5
      vertex -29.5219 1.98338 -1.5
    endloop
  endfacet
  facet normal 0.997856 -0.0654402 0
    outer loop
      vertex -30.5 0 1.5
      vertex -30.4786 0.326315 -1.5
      vertex -30.4786 0.326315 1.5
    endloop
  endfacet
  facet normal 0.997856 -0.0654402 0
    outer loop
      vertex -30.4786 0.326315 -1.5
      vertex -30.5 0 1.5
      vertex -30.5 0 -1.5
    endloop
  endfacet
  facet normal -0.659279 0.751898 0
    outer loop
      vertex -26.2322 -1.76777 -1.5
      vertex -26.4781 -1.98338 1.5
      vertex -26.2322 -1.76777 1.5
    endloop
  endfacet
  facet normal -0.659279 0.751898 0
    outer loop
      vertex -26.4781 -1.98338 1.5
      vertex -26.2322 -1.76777 -1.5
      vertex -26.4781 -1.98338 -1.5
    endloop
  endfacet
  facet normal 0.831438 0.555617 0
    outer loop
      vertex -29.9834 -1.5219 1.5
      vertex -30.1651 -1.25 -1.5
      vertex -30.1651 -1.25 1.5
    endloop
  endfacet
  facet normal 0.831438 0.555617 0
    outer loop
      vertex -30.1651 -1.25 -1.5
      vertex -29.9834 -1.5219 1.5
      vertex -29.9834 -1.5219 -1.5
    endloop
  endfacet
  facet normal 0.659279 0.751898 -0
    outer loop
      vertex -29.5219 -1.98338 -1.5
      vertex -29.7678 -1.76777 1.5
      vertex -29.5219 -1.98338 1.5
    endloop
  endfacet
  facet normal 0.659279 0.751898 0
    outer loop
      vertex -29.7678 -1.76777 1.5
      vertex -29.5219 -1.98338 -1.5
      vertex -29.7678 -1.76777 -1.5
    endloop
  endfacet
  facet normal 0.44229 -0.896872 0
    outer loop
      vertex -29.25 2.16506 -1.5
      vertex -28.9567 2.3097 1.5
      vertex -29.25 2.16506 1.5
    endloop
  endfacet
  facet normal 0.44229 -0.896872 0
    outer loop
      vertex -28.9567 2.3097 1.5
      vertex -29.25 2.16506 -1.5
      vertex -28.9567 2.3097 -1.5
    endloop
  endfacet
  facet normal 0.980784 0.195097 0
    outer loop
      vertex -30.4148 -0.647047 1.5
      vertex -30.4786 -0.326315 -1.5
      vertex -30.4786 -0.326315 1.5
    endloop
  endfacet
  facet normal 0.980784 0.195097 0
    outer loop
      vertex -30.4786 -0.326315 -1.5
      vertex -30.4148 -0.647047 1.5
      vertex -30.4148 -0.647047 -1.5
    endloop
  endfacet
  facet normal -0.831438 0.555617 0
    outer loop
      vertex -26.0166 -1.5219 -1.5
      vertex -25.8349 -1.25 1.5
      vertex -25.8349 -1.25 -1.5
    endloop
  endfacet
  facet normal -0.831438 0.555617 0
    outer loop
      vertex -25.8349 -1.25 1.5
      vertex -26.0166 -1.5219 -1.5
      vertex -26.0166 -1.5219 1.5
    endloop
  endfacet
  facet normal -0.997856 0.0654402 0
    outer loop
      vertex -25.5214 -0.326315 -1.5
      vertex -25.5 0 1.5
      vertex -25.5 0 -1.5
    endloop
  endfacet
  facet normal -0.997856 0.0654402 0
    outer loop
      vertex -25.5 0 1.5
      vertex -25.5214 -0.326315 -1.5
      vertex -25.5214 -0.326315 1.5
    endloop
  endfacet
  facet normal -0.659279 -0.751898 0
    outer loop
      vertex -26.4781 1.98338 -1.5
      vertex -26.2322 1.76777 1.5
      vertex -26.4781 1.98338 1.5
    endloop
  endfacet
  facet normal -0.659279 -0.751898 -0
    outer loop
      vertex -26.2322 1.76777 1.5
      vertex -26.4781 1.98338 -1.5
      vertex -26.2322 1.76777 -1.5
    endloop
  endfacet
  facet normal -0.555575 0.831466 0
    outer loop
      vertex -26.4781 -1.98338 -1.5
      vertex -26.75 -2.16506 1.5
      vertex -26.4781 -1.98338 1.5
    endloop
  endfacet
  facet normal -0.555575 0.831466 0
    outer loop
      vertex -26.75 -2.16506 1.5
      vertex -26.4781 -1.98338 -1.5
      vertex -26.75 -2.16506 -1.5
    endloop
  endfacet
  facet normal 0.946945 0.321396 0
    outer loop
      vertex -30.3097 -0.956708 1.5
      vertex -30.4148 -0.647047 -1.5
      vertex -30.4148 -0.647047 1.5
    endloop
  endfacet
  facet normal 0.946945 0.321396 0
    outer loop
      vertex -30.4148 -0.647047 -1.5
      vertex -30.3097 -0.956708 1.5
      vertex -30.3097 -0.956708 -1.5
    endloop
  endfacet
  facet normal 0.0654128 -0.997858 0
    outer loop
      vertex -28.3263 2.47861 -1.5
      vertex -28 2.5 1.5
      vertex -28.3263 2.47861 1.5
    endloop
  endfacet
  facet normal 0.0654128 -0.997858 0
    outer loop
      vertex -28 2.5 1.5
      vertex -28.3263 2.47861 -1.5
      vertex -28 2.5 -1.5
    endloop
  endfacet
  facet normal 0.896916 0.442201 0
    outer loop
      vertex -30.1651 -1.25 1.5
      vertex -30.3097 -0.956708 -1.5
      vertex -30.3097 -0.956708 1.5
    endloop
  endfacet
  facet normal 0.896916 0.442201 0
    outer loop
      vertex -30.3097 -0.956708 -1.5
      vertex -30.1651 -1.25 1.5
      vertex -30.1651 -1.25 -1.5
    endloop
  endfacet
  facet normal 0.0654128 0.997858 -0
    outer loop
      vertex -28 -2.5 -1.5
      vertex -28.3263 -2.47861 1.5
      vertex -28 -2.5 1.5
    endloop
  endfacet
  facet normal 0.0654128 0.997858 0
    outer loop
      vertex -28.3263 -2.47861 1.5
      vertex -28 -2.5 -1.5
      vertex -28.3263 -2.47861 -1.5
    endloop
  endfacet
  facet normal 0.44229 0.896872 -0
    outer loop
      vertex -28.9567 -2.3097 -1.5
      vertex -29.25 -2.16506 1.5
      vertex -28.9567 -2.3097 1.5
    endloop
  endfacet
  facet normal 0.44229 0.896872 0
    outer loop
      vertex -29.25 -2.16506 1.5
      vertex -28.9567 -2.3097 -1.5
      vertex -29.25 -2.16506 -1.5
    endloop
  endfacet
  facet normal -0.321387 0.946948 0
    outer loop
      vertex -27.0433 -2.3097 -1.5
      vertex -27.353 -2.41481 1.5
      vertex -27.0433 -2.3097 1.5
    endloop
  endfacet
  facet normal -0.321387 0.946948 0
    outer loop
      vertex -27.353 -2.41481 1.5
      vertex -27.0433 -2.3097 -1.5
      vertex -27.353 -2.41481 -1.5
    endloop
  endfacet
  facet normal 0.980784 -0.195097 0
    outer loop
      vertex -30.4786 0.326315 1.5
      vertex -30.4148 0.647047 -1.5
      vertex -30.4148 0.647047 1.5
    endloop
  endfacet
  facet normal 0.980784 -0.195097 0
    outer loop
      vertex -30.4148 0.647047 -1.5
      vertex -30.4786 0.326315 1.5
      vertex -30.4786 0.326315 -1.5
    endloop
  endfacet
  facet normal 0.751873 -0.659307 0
    outer loop
      vertex -29.9834 1.5219 1.5
      vertex -29.7678 1.76777 -1.5
      vertex -29.7678 1.76777 1.5
    endloop
  endfacet
  facet normal 0.751873 -0.659307 0
    outer loop
      vertex -29.7678 1.76777 -1.5
      vertex -29.9834 1.5219 1.5
      vertex -29.9834 1.5219 -1.5
    endloop
  endfacet
  facet normal 0.997856 0.0654402 0
    outer loop
      vertex -30.4786 -0.326315 1.5
      vertex -30.5 0 -1.5
      vertex -30.5 0 1.5
    endloop
  endfacet
  facet normal 0.997856 0.0654402 0
    outer loop
      vertex -30.5 0 -1.5
      vertex -30.4786 -0.326315 1.5
      vertex -30.4786 -0.326315 -1.5
    endloop
  endfacet
  facet normal -0.555575 -0.831466 0
    outer loop
      vertex -26.75 2.16506 -1.5
      vertex -26.4781 1.98338 1.5
      vertex -26.75 2.16506 1.5
    endloop
  endfacet
  facet normal -0.555575 -0.831466 -0
    outer loop
      vertex -26.4781 1.98338 1.5
      vertex -26.75 2.16506 -1.5
      vertex -26.4781 1.98338 -1.5
    endloop
  endfacet
  facet normal -0.946945 -0.321396 0
    outer loop
      vertex -25.5852 0.647047 -1.5
      vertex -25.6903 0.956708 1.5
      vertex -25.6903 0.956708 -1.5
    endloop
  endfacet
  facet normal -0.946945 -0.321396 0
    outer loop
      vertex -25.6903 0.956708 1.5
      vertex -25.5852 0.647047 -1.5
      vertex -25.5852 0.647047 1.5
    endloop
  endfacet
  facet normal -0.946945 0.321396 0
    outer loop
      vertex -25.6903 -0.956708 -1.5
      vertex -25.5852 -0.647047 1.5
      vertex -25.5852 -0.647047 -1.5
    endloop
  endfacet
  facet normal -0.946945 0.321396 0
    outer loop
      vertex -25.5852 -0.647047 1.5
      vertex -25.6903 -0.956708 -1.5
      vertex -25.6903 -0.956708 1.5
    endloop
  endfacet
  facet normal 0.195116 0.98078 -0
    outer loop
      vertex -28.3263 -2.47861 -1.5
      vertex -28.647 -2.41481 1.5
      vertex -28.3263 -2.47861 1.5
    endloop
  endfacet
  facet normal 0.195116 0.98078 0
    outer loop
      vertex -28.647 -2.41481 1.5
      vertex -28.3263 -2.47861 -1.5
      vertex -28.647 -2.41481 -1.5
    endloop
  endfacet
  facet normal 0.195116 -0.98078 0
    outer loop
      vertex -28.647 2.41481 -1.5
      vertex -28.3263 2.47861 1.5
      vertex -28.647 2.41481 1.5
    endloop
  endfacet
  facet normal 0.195116 -0.98078 0
    outer loop
      vertex -28.3263 2.47861 1.5
      vertex -28.647 2.41481 -1.5
      vertex -28.3263 2.47861 -1.5
    endloop
  endfacet
  facet normal -0.195116 0.98078 0
    outer loop
      vertex -27.353 -2.41481 -1.5
      vertex -27.6737 -2.47861 1.5
      vertex -27.353 -2.41481 1.5
    endloop
  endfacet
  facet normal -0.195116 0.98078 0
    outer loop
      vertex -27.6737 -2.47861 1.5
      vertex -27.353 -2.41481 -1.5
      vertex -27.6737 -2.47861 -1.5
    endloop
  endfacet
  facet normal 0.896916 -0.442201 0
    outer loop
      vertex -30.3097 0.956708 1.5
      vertex -30.1651 1.25 -1.5
      vertex -30.1651 1.25 1.5
    endloop
  endfacet
  facet normal 0.896916 -0.442201 0
    outer loop
      vertex -30.1651 1.25 -1.5
      vertex -30.3097 0.956708 1.5
      vertex -30.3097 0.956708 -1.5
    endloop
  endfacet
  facet normal 0.751873 0.659307 0
    outer loop
      vertex -29.7678 -1.76777 1.5
      vertex -29.9834 -1.5219 -1.5
      vertex -29.9834 -1.5219 1.5
    endloop
  endfacet
  facet normal 0.751873 0.659307 0
    outer loop
      vertex -29.9834 -1.5219 -1.5
      vertex -29.7678 -1.76777 1.5
      vertex -29.7678 -1.76777 -1.5
    endloop
  endfacet
  facet normal -0.195116 -0.98078 0
    outer loop
      vertex -27.6737 2.47861 -1.5
      vertex -27.353 2.41481 1.5
      vertex -27.6737 2.47861 1.5
    endloop
  endfacet
  facet normal -0.195116 -0.98078 -0
    outer loop
      vertex -27.353 2.41481 1.5
      vertex -27.6737 2.47861 -1.5
      vertex -27.353 2.41481 -1.5
    endloop
  endfacet
  facet normal 0.831438 -0.555617 0
    outer loop
      vertex -30.1651 1.25 1.5
      vertex -29.9834 1.5219 -1.5
      vertex -29.9834 1.5219 1.5
    endloop
  endfacet
  facet normal 0.831438 -0.555617 0
    outer loop
      vertex -29.9834 1.5219 -1.5
      vertex -30.1651 1.25 1.5
      vertex -30.1651 1.25 -1.5
    endloop
  endfacet
  facet normal -0.980784 -0.195097 0
    outer loop
      vertex 30.4786 0.326315 -1.5
      vertex 30.4148 0.647047 1.5
      vertex 30.4148 0.647047 -1.5
    endloop
  endfacet
  facet normal -0.980784 -0.195097 0
    outer loop
      vertex 30.4148 0.647047 1.5
      vertex 30.4786 0.326315 -1.5
      vertex 30.4786 0.326315 1.5
    endloop
  endfacet
  facet normal -0.997856 -0.0654402 0
    outer loop
      vertex 30.5 0 -1.5
      vertex 30.4786 0.326315 1.5
      vertex 30.4786 0.326315 -1.5
    endloop
  endfacet
  facet normal -0.997856 -0.0654402 0
    outer loop
      vertex 30.4786 0.326315 1.5
      vertex 30.5 0 -1.5
      vertex 30.5 0 1.5
    endloop
  endfacet
  facet normal 0.831438 0.555617 0
    outer loop
      vertex 26.0166 -1.5219 1.5
      vertex 25.8349 -1.25 -1.5
      vertex 25.8349 -1.25 1.5
    endloop
  endfacet
  facet normal 0.831438 0.555617 0
    outer loop
      vertex 25.8349 -1.25 -1.5
      vertex 26.0166 -1.5219 1.5
      vertex 26.0166 -1.5219 -1.5
    endloop
  endfacet
  facet normal -0.44229 -0.896872 0
    outer loop
      vertex 28.9567 2.3097 -1.5
      vertex 29.25 2.16506 1.5
      vertex 28.9567 2.3097 1.5
    endloop
  endfacet
  facet normal -0.44229 -0.896872 -0
    outer loop
      vertex 29.25 2.16506 1.5
      vertex 28.9567 2.3097 -1.5
      vertex 29.25 2.16506 -1.5
    endloop
  endfacet
  facet normal 0.555575 0.831466 -0
    outer loop
      vertex 26.75 -2.16506 -1.5
      vertex 26.4781 -1.98338 1.5
      vertex 26.75 -2.16506 1.5
    endloop
  endfacet
  facet normal 0.555575 0.831466 0
    outer loop
      vertex 26.4781 -1.98338 1.5
      vertex 26.75 -2.16506 -1.5
      vertex 26.4781 -1.98338 -1.5
    endloop
  endfacet
  facet normal -0.555575 0.831466 0
    outer loop
      vertex 29.5219 -1.98338 -1.5
      vertex 29.25 -2.16506 1.5
      vertex 29.5219 -1.98338 1.5
    endloop
  endfacet
  facet normal -0.555575 0.831466 0
    outer loop
      vertex 29.25 -2.16506 1.5
      vertex 29.5219 -1.98338 -1.5
      vertex 29.25 -2.16506 -1.5
    endloop
  endfacet
  facet normal -0.321387 -0.946948 0
    outer loop
      vertex 28.647 2.41481 -1.5
      vertex 28.9567 2.3097 1.5
      vertex 28.647 2.41481 1.5
    endloop
  endfacet
  facet normal -0.321387 -0.946948 -0
    outer loop
      vertex 28.9567 2.3097 1.5
      vertex 28.647 2.41481 -1.5
      vertex 28.9567 2.3097 -1.5
    endloop
  endfacet
  facet normal -0.896916 -0.442201 0
    outer loop
      vertex 30.3097 0.956708 -1.5
      vertex 30.1651 1.25 1.5
      vertex 30.1651 1.25 -1.5
    endloop
  endfacet
  facet normal -0.896916 -0.442201 0
    outer loop
      vertex 30.1651 1.25 1.5
      vertex 30.3097 0.956708 -1.5
      vertex 30.3097 0.956708 1.5
    endloop
  endfacet
  facet normal -0.659279 0.751898 0
    outer loop
      vertex 29.7678 -1.76777 -1.5
      vertex 29.5219 -1.98338 1.5
      vertex 29.7678 -1.76777 1.5
    endloop
  endfacet
  facet normal -0.659279 0.751898 0
    outer loop
      vertex 29.5219 -1.98338 1.5
      vertex 29.7678 -1.76777 -1.5
      vertex 29.5219 -1.98338 -1.5
    endloop
  endfacet
  facet normal -0.659279 -0.751898 0
    outer loop
      vertex 29.5219 1.98338 -1.5
      vertex 29.7678 1.76777 1.5
      vertex 29.5219 1.98338 1.5
    endloop
  endfacet
  facet normal -0.659279 -0.751898 -0
    outer loop
      vertex 29.7678 1.76777 1.5
      vertex 29.5219 1.98338 -1.5
      vertex 29.7678 1.76777 -1.5
    endloop
  endfacet
  facet normal -0.831438 0.555617 0
    outer loop
      vertex 29.9834 -1.5219 -1.5
      vertex 30.1651 -1.25 1.5
      vertex 30.1651 -1.25 -1.5
    endloop
  endfacet
  facet normal -0.831438 0.555617 0
    outer loop
      vertex 30.1651 -1.25 1.5
      vertex 29.9834 -1.5219 -1.5
      vertex 29.9834 -1.5219 1.5
    endloop
  endfacet
  facet normal 0.946945 0.321396 0
    outer loop
      vertex 25.6903 -0.956708 1.5
      vertex 25.5852 -0.647047 -1.5
      vertex 25.5852 -0.647047 1.5
    endloop
  endfacet
  facet normal 0.946945 0.321396 0
    outer loop
      vertex 25.5852 -0.647047 -1.5
      vertex 25.6903 -0.956708 1.5
      vertex 25.6903 -0.956708 -1.5
    endloop
  endfacet
  facet normal 0.659279 -0.751898 0
    outer loop
      vertex 26.2322 1.76777 -1.5
      vertex 26.4781 1.98338 1.5
      vertex 26.2322 1.76777 1.5
    endloop
  endfacet
  facet normal 0.659279 -0.751898 0
    outer loop
      vertex 26.4781 1.98338 1.5
      vertex 26.2322 1.76777 -1.5
      vertex 26.4781 1.98338 -1.5
    endloop
  endfacet
  facet normal 0.997856 0.0654402 0
    outer loop
      vertex 25.5214 -0.326315 1.5
      vertex 25.5 0 -1.5
      vertex 25.5 0 1.5
    endloop
  endfacet
  facet normal 0.997856 0.0654402 0
    outer loop
      vertex 25.5 0 -1.5
      vertex 25.5214 -0.326315 1.5
      vertex 25.5214 -0.326315 -1.5
    endloop
  endfacet
  facet normal -0.831438 -0.555617 0
    outer loop
      vertex 30.1651 1.25 -1.5
      vertex 29.9834 1.5219 1.5
      vertex 29.9834 1.5219 -1.5
    endloop
  endfacet
  facet normal -0.831438 -0.555617 0
    outer loop
      vertex 29.9834 1.5219 1.5
      vertex 30.1651 1.25 -1.5
      vertex 30.1651 1.25 1.5
    endloop
  endfacet
  facet normal -0.44229 0.896872 0
    outer loop
      vertex 29.25 -2.16506 -1.5
      vertex 28.9567 -2.3097 1.5
      vertex 29.25 -2.16506 1.5
    endloop
  endfacet
  facet normal -0.44229 0.896872 0
    outer loop
      vertex 28.9567 -2.3097 1.5
      vertex 29.25 -2.16506 -1.5
      vertex 28.9567 -2.3097 -1.5
    endloop
  endfacet
  facet normal 0.0654128 -0.997858 0
    outer loop
      vertex 27.6737 2.47861 -1.5
      vertex 28 2.5 1.5
      vertex 27.6737 2.47861 1.5
    endloop
  endfacet
  facet normal 0.0654128 -0.997858 0
    outer loop
      vertex 28 2.5 1.5
      vertex 27.6737 2.47861 -1.5
      vertex 28 2.5 -1.5
    endloop
  endfacet
  facet normal 0.751873 0.659307 0
    outer loop
      vertex 26.2322 -1.76777 1.5
      vertex 26.0166 -1.5219 -1.5
      vertex 26.0166 -1.5219 1.5
    endloop
  endfacet
  facet normal 0.751873 0.659307 0
    outer loop
      vertex 26.0166 -1.5219 -1.5
      vertex 26.2322 -1.76777 1.5
      vertex 26.2322 -1.76777 -1.5
    endloop
  endfacet
  facet normal 0.751873 -0.659307 0
    outer loop
      vertex 26.0166 1.5219 1.5
      vertex 26.2322 1.76777 -1.5
      vertex 26.2322 1.76777 1.5
    endloop
  endfacet
  facet normal 0.751873 -0.659307 0
    outer loop
      vertex 26.2322 1.76777 -1.5
      vertex 26.0166 1.5219 1.5
      vertex 26.0166 1.5219 -1.5
    endloop
  endfacet
  facet normal 0.659279 0.751898 -0
    outer loop
      vertex 26.4781 -1.98338 -1.5
      vertex 26.2322 -1.76777 1.5
      vertex 26.4781 -1.98338 1.5
    endloop
  endfacet
  facet normal 0.659279 0.751898 0
    outer loop
      vertex 26.2322 -1.76777 1.5
      vertex 26.4781 -1.98338 -1.5
      vertex 26.2322 -1.76777 -1.5
    endloop
  endfacet
  facet normal 0.997856 -0.0654402 0
    outer loop
      vertex 25.5 0 1.5
      vertex 25.5214 0.326315 -1.5
      vertex 25.5214 0.326315 1.5
    endloop
  endfacet
  facet normal 0.997856 -0.0654402 0
    outer loop
      vertex 25.5214 0.326315 -1.5
      vertex 25.5 0 1.5
      vertex 25.5 0 -1.5
    endloop
  endfacet
  facet normal 0.44229 0.896872 -0
    outer loop
      vertex 27.0433 -2.3097 -1.5
      vertex 26.75 -2.16506 1.5
      vertex 27.0433 -2.3097 1.5
    endloop
  endfacet
  facet normal 0.44229 0.896872 0
    outer loop
      vertex 26.75 -2.16506 1.5
      vertex 27.0433 -2.3097 -1.5
      vertex 26.75 -2.16506 -1.5
    endloop
  endfacet
  facet normal -0.321387 0.946948 0
    outer loop
      vertex 28.9567 -2.3097 -1.5
      vertex 28.647 -2.41481 1.5
      vertex 28.9567 -2.3097 1.5
    endloop
  endfacet
  facet normal -0.321387 0.946948 0
    outer loop
      vertex 28.647 -2.41481 1.5
      vertex 28.9567 -2.3097 -1.5
      vertex 28.647 -2.41481 -1.5
    endloop
  endfacet
  facet normal -0.195116 0.98078 0
    outer loop
      vertex 28.647 -2.41481 -1.5
      vertex 28.3263 -2.47861 1.5
      vertex 28.647 -2.41481 1.5
    endloop
  endfacet
  facet normal -0.195116 0.98078 0
    outer loop
      vertex 28.3263 -2.47861 1.5
      vertex 28.647 -2.41481 -1.5
      vertex 28.3263 -2.47861 -1.5
    endloop
  endfacet
  facet normal -0.997856 0.0654402 0
    outer loop
      vertex 30.4786 -0.326315 -1.5
      vertex 30.5 0 1.5
      vertex 30.5 0 -1.5
    endloop
  endfacet
  facet normal -0.997856 0.0654402 0
    outer loop
      vertex 30.5 0 1.5
      vertex 30.4786 -0.326315 -1.5
      vertex 30.4786 -0.326315 1.5
    endloop
  endfacet
  facet normal -0.555575 -0.831466 0
    outer loop
      vertex 29.25 2.16506 -1.5
      vertex 29.5219 1.98338 1.5
      vertex 29.25 2.16506 1.5
    endloop
  endfacet
  facet normal -0.555575 -0.831466 -0
    outer loop
      vertex 29.5219 1.98338 1.5
      vertex 29.25 2.16506 -1.5
      vertex 29.5219 1.98338 -1.5
    endloop
  endfacet
  facet normal -0.896916 0.442201 0
    outer loop
      vertex 30.1651 -1.25 -1.5
      vertex 30.3097 -0.956708 1.5
      vertex 30.3097 -0.956708 -1.5
    endloop
  endfacet
  facet normal -0.896916 0.442201 0
    outer loop
      vertex 30.3097 -0.956708 1.5
      vertex 30.1651 -1.25 -1.5
      vertex 30.1651 -1.25 1.5
    endloop
  endfacet
  facet normal 0.44229 -0.896872 0
    outer loop
      vertex 26.75 2.16506 -1.5
      vertex 27.0433 2.3097 1.5
      vertex 26.75 2.16506 1.5
    endloop
  endfacet
  facet normal 0.44229 -0.896872 0
    outer loop
      vertex 27.0433 2.3097 1.5
      vertex 26.75 2.16506 -1.5
      vertex 27.0433 2.3097 -1.5
    endloop
  endfacet
  facet normal -0.0654128 -0.997858 0
    outer loop
      vertex 28 2.5 -1.5
      vertex 28.3263 2.47861 1.5
      vertex 28 2.5 1.5
    endloop
  endfacet
  facet normal -0.0654128 -0.997858 -0
    outer loop
      vertex 28.3263 2.47861 1.5
      vertex 28 2.5 -1.5
      vertex 28.3263 2.47861 -1.5
    endloop
  endfacet
  facet normal -0.0654128 0.997858 0
    outer loop
      vertex 28.3263 -2.47861 -1.5
      vertex 28 -2.5 1.5
      vertex 28.3263 -2.47861 1.5
    endloop
  endfacet
  facet normal -0.0654128 0.997858 0
    outer loop
      vertex 28 -2.5 1.5
      vertex 28.3263 -2.47861 -1.5
      vertex 28 -2.5 -1.5
    endloop
  endfacet
  facet normal 0.555575 -0.831466 0
    outer loop
      vertex 26.4781 1.98338 -1.5
      vertex 26.75 2.16506 1.5
      vertex 26.4781 1.98338 1.5
    endloop
  endfacet
  facet normal 0.555575 -0.831466 0
    outer loop
      vertex 26.75 2.16506 1.5
      vertex 26.4781 1.98338 -1.5
      vertex 26.75 2.16506 -1.5
    endloop
  endfacet
  facet normal 0.0654128 0.997858 -0
    outer loop
      vertex 28 -2.5 -1.5
      vertex 27.6737 -2.47861 1.5
      vertex 28 -2.5 1.5
    endloop
  endfacet
  facet normal 0.0654128 0.997858 0
    outer loop
      vertex 27.6737 -2.47861 1.5
      vertex 28 -2.5 -1.5
      vertex 27.6737 -2.47861 -1.5
    endloop
  endfacet
  facet normal -0.980784 0.195097 0
    outer loop
      vertex 30.4148 -0.647047 -1.5
      vertex 30.4786 -0.326315 1.5
      vertex 30.4786 -0.326315 -1.5
    endloop
  endfacet
  facet normal -0.980784 0.195097 0
    outer loop
      vertex 30.4786 -0.326315 1.5
      vertex 30.4148 -0.647047 -1.5
      vertex 30.4148 -0.647047 1.5
    endloop
  endfacet
  facet normal 0.896916 0.442201 0
    outer loop
      vertex 25.8349 -1.25 1.5
      vertex 25.6903 -0.956708 -1.5
      vertex 25.6903 -0.956708 1.5
    endloop
  endfacet
  facet normal 0.896916 0.442201 0
    outer loop
      vertex 25.6903 -0.956708 -1.5
      vertex 25.8349 -1.25 1.5
      vertex 25.8349 -1.25 -1.5
    endloop
  endfacet
  facet normal -0.946945 -0.321396 0
    outer loop
      vertex 30.4148 0.647047 -1.5
      vertex 30.3097 0.956708 1.5
      vertex 30.3097 0.956708 -1.5
    endloop
  endfacet
  facet normal -0.946945 -0.321396 0
    outer loop
      vertex 30.3097 0.956708 1.5
      vertex 30.4148 0.647047 -1.5
      vertex 30.4148 0.647047 1.5
    endloop
  endfacet
  facet normal 0.980784 0.195097 0
    outer loop
      vertex 25.5852 -0.647047 1.5
      vertex 25.5214 -0.326315 -1.5
      vertex 25.5214 -0.326315 1.5
    endloop
  endfacet
  facet normal 0.980784 0.195097 0
    outer loop
      vertex 25.5214 -0.326315 -1.5
      vertex 25.5852 -0.647047 1.5
      vertex 25.5852 -0.647047 -1.5
    endloop
  endfacet
  facet normal -0.946945 0.321396 0
    outer loop
      vertex 30.3097 -0.956708 -1.5
      vertex 30.4148 -0.647047 1.5
      vertex 30.4148 -0.647047 -1.5
    endloop
  endfacet
  facet normal -0.946945 0.321396 0
    outer loop
      vertex 30.4148 -0.647047 1.5
      vertex 30.3097 -0.956708 -1.5
      vertex 30.3097 -0.956708 1.5
    endloop
  endfacet
  facet normal -0.195116 -0.98078 0
    outer loop
      vertex 28.3263 2.47861 -1.5
      vertex 28.647 2.41481 1.5
      vertex 28.3263 2.47861 1.5
    endloop
  endfacet
  facet normal -0.195116 -0.98078 -0
    outer loop
      vertex 28.647 2.41481 1.5
      vertex 28.3263 2.47861 -1.5
      vertex 28.647 2.41481 -1.5
    endloop
  endfacet
  facet normal 0.946945 -0.321396 0
    outer loop
      vertex 25.5852 0.647047 1.5
      vertex 25.6903 0.956708 -1.5
      vertex 25.6903 0.956708 1.5
    endloop
  endfacet
  facet normal 0.946945 -0.321396 0
    outer loop
      vertex 25.6903 0.956708 -1.5
      vertex 25.5852 0.647047 1.5
      vertex 25.5852 0.647047 -1.5
    endloop
  endfacet
  facet normal -0.751873 -0.659307 0
    outer loop
      vertex 29.9834 1.5219 -1.5
      vertex 29.7678 1.76777 1.5
      vertex 29.7678 1.76777 -1.5
    endloop
  endfacet
  facet normal -0.751873 -0.659307 0
    outer loop
      vertex 29.7678 1.76777 1.5
      vertex 29.9834 1.5219 -1.5
      vertex 29.9834 1.5219 1.5
    endloop
  endfacet
  facet normal 0.195116 0.98078 -0
    outer loop
      vertex 27.6737 -2.47861 -1.5
      vertex 27.353 -2.41481 1.5
      vertex 27.6737 -2.47861 1.5
    endloop
  endfacet
  facet normal 0.195116 0.98078 0
    outer loop
      vertex 27.353 -2.41481 1.5
      vertex 27.6737 -2.47861 -1.5
      vertex 27.353 -2.41481 -1.5
    endloop
  endfacet
  facet normal 0.195116 -0.98078 0
    outer loop
      vertex 27.353 2.41481 -1.5
      vertex 27.6737 2.47861 1.5
      vertex 27.353 2.41481 1.5
    endloop
  endfacet
  facet normal 0.195116 -0.98078 0
    outer loop
      vertex 27.6737 2.47861 1.5
      vertex 27.353 2.41481 -1.5
      vertex 27.6737 2.47861 -1.5
    endloop
  endfacet
  facet normal 0.321387 -0.946948 0
    outer loop
      vertex 27.0433 2.3097 -1.5
      vertex 27.353 2.41481 1.5
      vertex 27.0433 2.3097 1.5
    endloop
  endfacet
  facet normal 0.321387 -0.946948 0
    outer loop
      vertex 27.353 2.41481 1.5
      vertex 27.0433 2.3097 -1.5
      vertex 27.353 2.41481 -1.5
    endloop
  endfacet
  facet normal 0.321387 0.946948 -0
    outer loop
      vertex 27.353 -2.41481 -1.5
      vertex 27.0433 -2.3097 1.5
      vertex 27.353 -2.41481 1.5
    endloop
  endfacet
  facet normal 0.321387 0.946948 0
    outer loop
      vertex 27.0433 -2.3097 1.5
      vertex 27.353 -2.41481 -1.5
      vertex 27.0433 -2.3097 -1.5
    endloop
  endfacet
  facet normal 0.980784 -0.195097 0
    outer loop
      vertex 25.5214 0.326315 1.5
      vertex 25.5852 0.647047 -1.5
      vertex 25.5852 0.647047 1.5
    endloop
  endfacet
  facet normal 0.980784 -0.195097 0
    outer loop
      vertex 25.5852 0.647047 -1.5
      vertex 25.5214 0.326315 1.5
      vertex 25.5214 0.326315 -1.5
    endloop
  endfacet
  facet normal -0.751873 0.659307 0
    outer loop
      vertex 29.7678 -1.76777 -1.5
      vertex 29.9834 -1.5219 1.5
      vertex 29.9834 -1.5219 -1.5
    endloop
  endfacet
  facet normal -0.751873 0.659307 0
    outer loop
      vertex 29.9834 -1.5219 1.5
      vertex 29.7678 -1.76777 -1.5
      vertex 29.7678 -1.76777 1.5
    endloop
  endfacet
  facet normal 0.831438 -0.555617 0
    outer loop
      vertex 25.8349 1.25 1.5
      vertex 26.0166 1.5219 -1.5
      vertex 26.0166 1.5219 1.5
    endloop
  endfacet
  facet normal 0.831438 -0.555617 0
    outer loop
      vertex 26.0166 1.5219 -1.5
      vertex 25.8349 1.25 1.5
      vertex 25.8349 1.25 -1.5
    endloop
  endfacet
  facet normal 0.896916 -0.442201 0
    outer loop
      vertex 25.6903 0.956708 1.5
      vertex 25.8349 1.25 -1.5
      vertex 25.8349 1.25 1.5
    endloop
  endfacet
  facet normal 0.896916 -0.442201 0
    outer loop
      vertex 25.8349 1.25 -1.5
      vertex 25.6903 0.956708 1.5
      vertex 25.6903 0.956708 -1.5
    endloop
  endfacet
endsolid OpenSCAD_Model
